<svg version="1.1" id="Layer_1" xmlns="http://www.w3.org/2000/svg" xmlns:xlink="http://www.w3.org/1999/xlink" x="0px" y="0px"
	 width="276px" height="32px" viewBox="0 0 276 32" style="enable-background:new 0 0 276 32;" xml:space="preserve">
<style type="text/css">
	.st0{fill:#6C6F72;}
</style>
<g>
	<path class="st0" d="M0.219,22.29H2.94V5.428H0.219V2.675H8.99c4.726,0,8.363,2.753,8.363,7.173c0,4.793-3.468,7.411-8.567,7.411
		c-1.155,0-2.176-0.034-2.753-0.068v5.099h2.924v2.754H0.219L0.219,22.29L0.219,22.29z M14.191,9.847c0-2.754-2.277-4.42-5.271-4.42
		H6.031v9.043c0.577,0.034,1.495,0.068,2.957,0.068C12.22,14.538,14.191,12.77,14.191,9.847z"/>
	<path class="st0" d="M31.909,12.26c0,1.054-0.85,1.972-1.87,1.972c-0.984,0-1.666-0.612-1.938-1.258
		c-1.088,0.34-2.347,1.564-3.061,2.958v6.664h2.688v2.448h-7.854v-2.448h2.277v-9.689h-2.277v-2.516h5.064v3.332
		c1.156-2.006,2.855-3.604,4.557-3.604C31.094,10.119,31.909,11.105,31.909,12.26z"/>
	<path class="st0" d="M33.3,17.734c0-4.114,2.991-7.615,7.648-7.615s7.649,3.467,7.649,7.615c0,4.08-3.025,7.581-7.649,7.581
		C36.258,25.316,33.3,21.847,33.3,17.734z M45.574,17.734c0-2.992-1.904-5.134-4.624-5.134c-2.754,0-4.657,2.142-4.657,5.134
		s1.903,5.099,4.657,5.099C43.67,22.834,45.574,20.726,45.574,17.734z"/>
	<path class="st0" d="M50.25,22.596h2.379V2.674H50.25V0.158h5.304v22.438h2.346v2.448h-7.648L50.25,22.596L50.25,22.596z"/>
	<path class="st0" d="M59.545,17.734c0-4.114,2.992-7.615,7.649-7.615s7.649,3.467,7.649,7.615c0,4.08-3.025,7.581-7.649,7.581
		C62.503,25.316,59.545,21.847,59.545,17.734z M71.818,17.734c0-2.992-1.904-5.134-4.624-5.134c-2.754,0-4.657,2.142-4.657,5.134
		s1.903,5.099,4.657,5.099C69.914,22.834,71.818,20.726,71.818,17.734z"/>
	<path class="st0" d="M81.973,12.941c1.394-1.496,3.229-2.822,5.337-2.822c1.836,0,3.094,0.714,3.842,1.87
		c0.477,0.816,0.748,1.836,0.748,3.06v7.547h2.277v2.448h-7.378v-2.448h2.177v-6.901c0-0.714-0.103-1.292-0.34-1.734
		c-0.408-0.782-1.121-1.156-2.177-1.156c-1.598,0-3.127,0.952-4.385,2.21v7.581h2.176v2.448h-7.344v-2.448h2.277v-9.689h-2.277
		v-2.516h5.065L81.973,12.941L81.973,12.941z"/>
	<path class="st0" d="M110.04,25.35c0,1.802-0.476,3.264-1.359,4.317c-1.225,1.496-3.229,2.176-5.541,2.176
		c-2.414,0-4.353-0.748-5.305-1.7c-0.544-0.544-0.781-1.122-0.781-1.768c0-1.02,0.747-1.904,1.836-1.904
		c0.985,0,1.699,0.714,1.699,1.666c0,0.272-0.066,0.578-0.203,0.816c0.51,0.204,1.358,0.476,2.584,0.476
		c1.394,0,2.616-0.408,3.398-1.394c0.477-0.612,0.748-1.496,0.748-2.686v-2.55c-1.155,1.19-2.481,2.074-4.589,2.074
		c-3.774,0-6.834-2.958-6.834-7.275c0-4.045,2.957-7.479,7.071-7.479c1.938,0,3.398,0.748,4.486,1.734V10.39h5.066v2.516h-2.278
		L110.04,25.35L110.04,25.35z M98.685,17.564c0,2.924,1.869,4.794,4.453,4.794c1.598,0,2.924-0.748,3.978-1.836v-6.425
		c-0.985-0.816-2.243-1.428-3.909-1.428C100.555,12.669,98.685,14.64,98.685,17.564z"/>
	<path class="st0" d="M117.065,18.652c0.407,2.788,2.448,4.148,5.304,4.148c1.869,0,3.467-0.578,5.201-1.564l-0.238,2.686
		c-1.528,0.952-3.398,1.394-5.404,1.394c-4.727,0-7.922-3.06-7.922-7.547c0-4.113,2.822-7.649,7.275-7.649
		c4.521,0,6.9,3.229,6.9,6.969c0,0.544-0.067,1.122-0.136,1.563L117.065,18.652L117.065,18.652z M117.065,16.476h8.192
		c-0.136-2.346-1.562-3.943-4.046-3.943C119.241,12.532,117.439,13.825,117.065,16.476z"/>
	<path class="st0" d="M130.758,17.803c0-4.182,2.957-7.683,7.14-7.683c1.836,0,3.365,0.68,4.352,1.598V2.674h-2.516V0.158h5.438
		v22.438h2.277v2.448h-5.167v-1.87c-1.155,1.224-2.618,2.142-4.657,2.142C133.749,25.316,130.758,22.256,130.758,17.803z
		 M142.248,20.896v-6.799c-1.054-0.816-2.312-1.428-4.012-1.428c-2.516,0-4.453,2.006-4.487,5.1c0,3.06,1.938,4.998,4.419,4.998
		C139.834,22.765,141.16,21.984,142.248,20.896z"/>
	<path class="st0" d="M167.509,15.184c-1.021,0-1.769-0.646-1.769-1.632c0-0.238,0.034-0.51,0.137-0.748
		c-0.577-0.272-1.428-0.442-2.346-0.442c-1.871,0-2.891,0.918-2.891,1.87c0,1.088,1.122,1.53,3.468,2.142
		c3.161,0.816,5.474,1.666,5.474,4.419c0,2.924-2.787,4.556-5.982,4.556c-2.21,0-4.454-0.748-5.439-1.734
		c-0.544-0.544-0.814-1.156-0.814-1.904c0-0.952,0.68-1.768,1.666-1.768c0.95,0,1.731,0.646,1.731,1.7
		c0,0.271-0.033,0.51-0.135,0.748c0.543,0.34,1.631,0.68,2.991,0.68c1.768,0,3.195-0.68,3.195-1.972
		c0-1.054-1.055-1.564-3.229-2.108c-3.74-0.952-5.745-1.87-5.745-4.488c0-2.244,2.005-4.385,5.745-4.385
		c1.904,0,3.808,0.612,4.76,1.563c0.51,0.51,0.748,1.122,0.748,1.768C169.074,14.505,168.427,15.184,167.509,15.184z"/>
	<path class="st0" d="M174.495,23.377c-0.44-0.816-0.68-1.802-0.68-2.992v-7.479h-2.277V10.39h5.167v9.349
		c0,0.748,0.136,1.326,0.374,1.768c0.408,0.782,1.088,1.122,2.143,1.122c1.598,0,3.094-0.986,4.386-2.21v-7.513h-2.346v-2.516h5.27
		v12.205h2.277v2.448h-5.101v-2.55c-1.394,1.496-3.229,2.822-5.338,2.822C176.5,25.316,175.242,24.567,174.495,23.377z"/>
	<path class="st0" d="M203.081,12.26c0,1.054-0.85,1.972-1.869,1.972c-0.985,0-1.666-0.612-1.938-1.258
		c-1.088,0.34-2.346,1.564-3.062,2.958v6.664h2.687v2.448h-7.854v-2.448h2.278v-9.689h-2.278v-2.516h5.065v3.332
		c1.156-2.006,2.854-3.604,4.556-3.604C202.264,10.119,203.081,11.105,203.081,12.26z"/>
	<path class="st0" d="M206.365,12.907h-1.835v-2.516h7.104v2.414h-2.243l3.978,8.805l3.979-8.805h-2.347v-2.414h7.105v2.516h-1.836
		l-6.018,12.545h-1.87L206.365,12.907z"/>
	<path class="st0" d="M223.998,22.596h2.381v-9.689h-2.381v-2.516h5.305v12.205h2.346v2.448H224L223.998,22.596L223.998,22.596z
		 M225.392,5.156c0-1.156,0.985-2.107,2.142-2.107c1.122,0,2.108,0.952,2.108,2.107c0,1.19-1.021,2.142-2.144,2.142
		C226.344,7.298,225.392,6.346,225.392,5.156z"/>
	<path class="st0" d="M234.042,12.907h-1.836v-2.516h7.105v2.414h-2.244l3.979,8.805l3.978-8.805h-2.347v-2.414h7.105v2.516h-1.836
		l-6.018,12.545h-1.869L234.042,12.907z"/>
	<path class="st0" d="M251.266,21.133c0-2.686,2.379-4.419,5.746-4.419c1.528,0,3.229,0.34,4.012,0.578v-1.666
		c0-0.85-0.238-1.53-0.646-2.04c-0.612-0.748-1.633-1.122-3.061-1.122c-0.918,0-1.461,0.204-1.904,0.442
		c0.104,0.238,0.172,0.544,0.172,0.816c0,0.952-0.715,1.666-1.7,1.666c-1.021,0-1.734-0.714-1.734-1.733
		c0-1.734,1.904-3.536,5.645-3.536c2.277,0,3.943,0.68,4.931,1.835c0.748,0.884,1.121,2.04,1.121,3.366v7.275h2.276v2.448h-5.03
		v-1.768c-1.189,1.122-3.06,2.04-5.031,2.04C253.373,25.316,251.266,23.786,251.266,21.133z M261.023,21.372v-2.379
		c-0.986-0.272-2.244-0.51-3.57-0.51c-2.074,0-3.229,0.986-3.229,2.414c0,1.326,0.985,2.209,2.686,2.209
		C258.472,23.105,259.9,22.359,261.023,21.372z"/>
	<path class="st0" d="M268.129,22.596h2.381V2.674h-2.381V0.158h5.306v22.438h2.346v2.448h-7.65L268.129,22.596L268.129,22.596z"/>
</g>
</svg>
