<?xml version="1.0" encoding="utf-8"?>
<!-- Generator: Adobe Illustrator 17.0.1, SVG Export Plug-In . SVG Version: 6.00 Build 0)  -->
<!DOCTYPE svg PUBLIC "-//W3C//DTD SVG 1.1//EN" "http://www.w3.org/Graphics/SVG/1.1/DTD/svg11.dtd">
<svg version="1.1" id="Layer_1" xmlns="http://www.w3.org/2000/svg" xmlns:xlink="http://www.w3.org/1999/xlink" x="0px" y="0px"
	 width="215.786px" height="33px" viewBox="0 0 215.786 33" style="enable-background:new 0 0 215.786 33;" xml:space="preserve">
<style type="text/css">
	.st0{fill:#6C6F72;}
</style>
<g>
	<path class="st0" d="M13.883,28.196c-0.952-0.612-2.04-0.986-3.162-1.19c-2.516-0.407-4.623-1.428-6.356-3.06
		C2.326,22.042,1,19.015,1,15.549C1,8.987,5.76,3.956,12.457,3.956c6.595,0,11.287,5.064,11.287,11.593
		c0,5.644-3.4,9.655-7.889,10.812c0.511,0.171,1.122,0.477,1.633,0.781c1.358,0.851,2.209,1.359,3.502,1.359
		c0.883,0,1.666-0.17,2.889-1.021l1.496,2.448c-1.395,1.292-2.889,1.495-4.183,1.495C18.098,31.425,15.752,29.386,13.883,28.196z
		 M20.58,15.549c0-4.997-3.435-8.737-8.193-8.737c-4.793,0-8.227,3.706-8.227,8.737c0,2.618,0.984,4.93,2.583,6.527
		c1.428,1.394,3.366,2.21,5.644,2.21C17.147,24.286,20.58,20.581,20.58,15.549z"/>
	<path class="st0" d="M29.306,25.068c-0.441-0.814-0.68-1.801-0.68-2.99v-7.479h-2.278v-2.516h5.168v9.35
		c0,0.748,0.137,1.326,0.374,1.769c0.407,0.78,1.089,1.122,2.143,1.122c1.598,0,3.094-0.985,4.386-2.21v-7.515h-2.347v-2.516h5.27
		v12.205h2.278v2.446h-5.099v-2.549c-1.396,1.496-3.23,2.821-5.339,2.821C31.312,27.006,30.054,26.258,29.306,25.068z"/>
	<path class="st0" d="M45.871,24.286h2.379v-9.689h-2.379v-2.516h5.303v12.205h2.346v2.446h-7.647L45.871,24.286L45.871,24.286z
		 M47.265,6.846c0-1.155,0.985-2.106,2.143-2.106c1.122,0,2.106,0.951,2.106,2.106c0,1.19-1.02,2.142-2.141,2.142
		C48.217,8.988,47.265,8.036,47.265,6.846z"/>
	<path class="st0" d="M55.184,19.357c0-3.942,3.162-7.547,7.344-7.547c3.638,0,6.29,2.379,6.29,4.623
		c0,1.292-0.886,2.176-2.074,2.176c-0.952,0-1.836-0.748-1.836-1.836c0-0.476,0.237-0.951,0.61-1.224
		c-0.34-0.68-1.562-1.325-2.99-1.325c-1.973,0-4.387,1.666-4.387,5.201c0,3.025,2.21,5.064,5.236,5.064
		c1.699,0,3.229-0.511,5.031-1.562l-0.271,2.686c-1.496,0.951-3.229,1.395-5.031,1.395C58.549,27.006,55.184,23.878,55.184,19.357z"
		/>
	<path class="st0" d="M70.918,24.286h2.277V4.364h-2.277V1.847h5.201v17.237l5.304-4.624h-2.48v-2.38h8.432v2.516h-2.652
		l-4.08,3.502l4.183,6.119h2.551v2.516h-4.284l-4.589-7.003l-2.381,2.04v2.55h2.143v2.413h-7.344v-2.446L70.918,24.286
		L70.918,24.286z"/>
	<path class="st0" d="M97.065,24.286h2.38v-9.689h-2.38v-2.516h5.304v12.205h2.346v2.446h-7.647v-2.446H97.065z M98.457,6.846
		c0-1.155,0.986-2.106,2.143-2.106c1.121,0,2.107,0.951,2.107,2.106c0,1.19-1.021,2.142-2.143,2.142
		C99.41,8.988,98.457,8.036,98.457,6.846z"/>
	<path class="st0" d="M112.061,14.632c1.396-1.496,3.23-2.822,5.339-2.822c1.836,0,3.094,0.714,3.842,1.869
		c0.476,0.816,0.748,1.836,0.748,3.062v7.547h2.276v2.446h-7.377v-2.446h2.176v-6.901c0-0.714-0.103-1.292-0.34-1.733
		c-0.408-0.781-1.123-1.155-2.176-1.155c-1.599,0-3.129,0.951-4.387,2.21v7.581h2.176v2.446h-7.343V24.29h2.277v-9.689h-2.277
		v-2.516h5.064L112.061,14.632L112.061,14.632z"/>
	<path class="st0" d="M133.389,4.16c-0.375,0.103-0.715,0.34-0.985,0.646c-0.478,0.646-0.748,1.564-0.748,2.992v4.283h3.808v2.516
		h-3.808v9.689h2.854v2.446h-8.022v-2.446h2.277v-9.689h-2.55v-2.516h2.55V8.342c0-2.481,0.442-4.114,1.7-5.337
		c0.918-0.918,2.107-1.428,3.637-1.428c1.7,0,2.925,0.85,2.925,2.176c0,1.121-0.781,1.801-1.699,1.801
		C134.307,5.554,133.693,4.943,133.389,4.16z"/>
	<path class="st0" d="M140.28,25.068c-0.442-0.814-0.681-1.801-0.681-2.99v-7.479h-2.277v-2.516h5.168v9.35
		c0,0.748,0.136,1.326,0.374,1.769c0.407,0.78,1.088,1.122,2.142,1.122c1.599,0,3.094-0.985,4.386-2.21v-7.515h-2.347v-2.516h5.271
		v12.205h2.277v2.446h-5.099v-2.549c-1.396,1.496-3.23,2.821-5.338,2.821C142.286,27.006,141.028,26.258,140.28,25.068z"/>
	<path class="st0" d="M167.092,16.875c-1.02,0-1.768-0.646-1.768-1.632c0-0.238,0.033-0.511,0.136-0.748
		c-0.578-0.271-1.429-0.441-2.346-0.441c-1.87,0-2.891,0.918-2.891,1.869c0,1.088,1.121,1.529,3.468,2.143
		c3.161,0.815,5.475,1.665,5.475,4.419c0,2.925-2.788,4.557-5.984,4.557c-2.209,0-4.453-0.748-5.438-1.734
		c-0.543-0.543-0.815-1.156-0.815-1.903c0-0.951,0.68-1.769,1.665-1.769c0.953,0,1.734,0.646,1.734,1.701
		c0,0.271-0.033,0.51-0.137,0.747c0.544,0.341,1.633,0.681,2.991,0.681c1.769,0,3.196-0.681,3.196-1.973
		c0-1.055-1.054-1.563-3.229-2.107c-3.739-0.952-5.745-1.87-5.745-4.488c0-2.242,2.006-4.385,5.745-4.385
		c1.903,0,3.808,0.611,4.761,1.563c0.51,0.511,0.748,1.122,0.748,1.769C168.656,16.195,168.01,16.875,167.092,16.875z"/>
	<path class="st0" d="M171.557,24.286h2.381v-9.689h-2.381v-2.516h5.305v12.205h2.346v2.446h-7.649L171.557,24.286L171.557,24.286z
		 M172.951,6.846c0-1.155,0.985-2.106,2.142-2.106c1.122,0,2.108,0.951,2.108,2.106c0,1.19-1.021,2.142-2.144,2.142
		C173.902,8.988,172.951,8.036,172.951,6.846z"/>
	<path class="st0" d="M180.903,19.425c0-4.113,2.99-7.615,7.648-7.615c4.657,0,7.648,3.467,7.648,7.615
		c0,4.08-3.025,7.581-7.648,7.581C183.861,27.006,180.903,23.538,180.903,19.425z M193.176,19.425c0-2.992-1.902-5.134-4.623-5.134
		c-2.754,0-4.658,2.142-4.658,5.134s1.904,5.1,4.658,5.1C191.273,24.525,193.176,22.417,193.176,19.425z"/>
	<path class="st0" d="M203.332,14.632c1.395-1.496,3.229-2.822,5.338-2.822c1.836,0,3.094,0.714,3.842,1.869
		c0.477,0.816,0.748,1.836,0.748,3.062v7.547h2.277v2.446h-7.377v-2.446h2.176v-6.901c0-0.714-0.104-1.292-0.34-1.733
		c-0.408-0.781-1.123-1.155-2.176-1.155c-1.6,0-3.13,0.951-4.388,2.21v7.581h2.177v2.446h-7.344V24.29h2.278v-9.689h-2.278v-2.516
		h5.065L203.332,14.632L203.332,14.632z"/>
</g>
<g>
</g>
<g>
</g>
<g>
</g>
<g>
</g>
<g>
</g>
<g>
</g>
</svg>
