<svg version="1.1" id="Layer_1" xmlns="http://www.w3.org/2000/svg" xmlns:xlink="http://www.w3.org/1999/xlink" x="0px" y="0px"
	 width="305px" height="180px" viewBox="0 0 305 180" style="enable-background:new 0 0 305 180;" xml:space="preserve">
<style type="text/css">
	.st0{enable-background:new    ;}
	.st1{fill:#FFFFFF;}
</style>
<g>
	<g class="st0">
		<path class="st1" d="M14.472,22.76c0-13.195,10.01-22.296,22.491-22.296c9.945,0,16.576,5.2,16.576,10.336
			c0,3.12-2.015,5.265-4.68,5.265c-2.925,0-4.94-1.82-4.94-4.615c0-0.845,0.195-1.689,0.455-2.21
			c-1.235-0.975-3.705-1.95-7.605-1.95c-8.32,0-14.691,6.176-14.691,15.406c0,9.425,6.826,15.47,14.041,15.47
			c4.485,0,7.605-0.975,10.335-2.729v-7.346h-10.66v-6.24h17.875v22.166h-7.02v-3.186c-2.99,2.341-6.826,3.966-11.636,3.966
			C24.482,44.796,14.472,36.476,14.472,22.76z"/>
		<path class="st1" d="M60.752,38.166h4.355V21.525h-4.355v-5.979h11.44v22.62h4.225v5.851H60.752V38.166z M63.222,6.509
			c0-2.6,2.275-4.68,4.81-4.68s4.68,2.08,4.68,4.68c0,2.601-2.275,4.681-4.81,4.681S63.222,9.11,63.222,6.509z"/>
		<path class="st1" d="M81.227,21.525h-3.315v-5.979h14.561v5.655h-4.095l6.825,14.82l6.825-14.82h-4.29v-5.655h14.496v5.979h-3.315
			l-11.31,23.011h-5.07L81.227,21.525z"/>
		<path class="st1" d="M121.267,32.186c0.975,4.42,4.615,6.37,9.36,6.37c3.445,0,7.021-1.105,10.335-2.99l-0.585,6.37
			c-2.99,1.755-6.63,2.6-10.791,2.6c-9.295,0-15.73-5.85-15.73-14.69c0-8.06,5.655-14.82,14.431-14.82
			c9.101,0,13.846,6.11,13.846,13.65c0,1.105-0.13,2.535-0.325,3.511L121.267,32.186L121.267,32.186z M121.202,27.246h13.846
			c-0.13-3.9-2.665-6.5-6.825-6.5C125.102,20.746,121.982,22.565,121.202,27.246z"/>
		<path class="st1" d="M166.181,56.952c-3.77,0-6.11-2.21-6.11-4.485c0-2.405,1.625-3.64,3.51-3.64c1.69,0,2.665,1.04,3.12,2.145
			c0.715-0.195,1.495-0.649,2.275-1.689c0.455-0.586,0.845-1.301,1.3-2.211l2.145-4.484L162.28,21.526h-3.51v-5.979h14.69v5.655
			h-4.16l6.565,15.015l6.63-15.015h-4.42v-5.655H192.7v5.979h-3.443l-13.325,28.276c-0.65,1.3-1.365,2.47-2.21,3.445
			C171.641,55.652,169.041,56.952,166.181,56.952z"/>
		<path class="st1" d="M194.326,29.781c0-7.801,5.85-14.756,15.146-14.756c9.425,0,15.146,6.825,15.146,14.756
			c0,7.8-5.851,14.755-15.146,14.755C200.046,44.536,194.326,37.71,194.326,29.781z M217.337,29.781c0-5.2-3.25-8.841-7.866-8.841
			c-4.615,0-7.865,3.641-7.865,8.841s3.25,8.84,7.865,8.84C214.087,38.621,217.337,34.981,217.337,29.781z"/>
		<path class="st1" d="M233.067,40.766c-0.91-1.495-1.43-3.445-1.43-5.721V21.524h-4.225v-5.979h11.311V33.29
			c0,1.235,0.195,2.146,0.585,2.925c0.65,1.235,1.82,1.886,3.51,1.886c2.47,0,5.07-1.431,7.345-3.315V21.525h-4.42v-5.979h11.505
			v22.62h4.225v5.851h-11.05v-4.55c-2.73,2.665-5.785,5.069-9.945,5.069C237.032,44.536,234.497,43.106,233.067,40.766z"/>
		<path class="st1" d="M290.528,19.706c0,2.404-1.885,4.42-4.226,4.42c-2.145,0-3.575-1.235-4.16-2.535
			c-2.015,0.715-4.355,2.925-5.655,5.396v11.18h4.94v5.851h-16.25v-5.851h4.225V21.526h-4.225v-5.979h11.05v6.435
			c2.405-3.835,5.396-6.955,9.035-6.955C288.772,15.025,290.528,17.17,290.528,19.706z"/>
	</g>
	<g class="st0">
		<path class="st1" d="M36.541,118.407h4.225V89.025h-4.225v-5.979h11.05v3.25c2.21-2.08,4.615-3.771,8.451-3.771
			c7.41,0,13,6.045,13,14.626c0,8.255-5.916,14.885-13.456,14.885c-3.055,0-5.59-1.104-7.735-2.729v9.101h4.615v5.85H36.541V118.407
			z M61.762,97.215c0-5.46-3.25-8.58-7.28-8.58c-2.665,0-4.745,1.17-6.63,2.86v12.22c1.82,1.301,4.03,2.211,6.63,2.211
			C58.252,105.926,61.762,102.871,61.762,97.215z"/>
		<path class="st1" d="M73.071,104.041c0-5.33,4.68-8.58,11.44-8.58c2.925,0,5.655,0.39,7.215,0.78v-2.275
			c0-1.689-0.39-2.99-1.105-3.9c-1.17-1.495-3.055-2.08-5.59-2.08c-1.235,0-2.145,0.195-2.795,0.455
			c0.13,0.391,0.26,1.04,0.26,1.431c0,2.145-1.69,3.705-3.835,3.705s-3.77-1.495-3.77-3.835c0-3.511,3.575-7.216,11.311-7.216
			c4.875,0,8.19,1.365,10.205,3.835c1.495,1.82,2.21,4.29,2.21,7.15v12.155h4.226v5.851H91.858v-3.12
			c-2.275,1.95-5.721,3.64-9.556,3.64C77.427,112.036,73.071,109.371,73.071,104.041z M91.727,104.366v-4.485
			c-1.625-0.39-3.64-0.649-5.85-0.649c-3.445,0-5.525,1.56-5.525,4.16c0,2.274,1.69,3.51,4.226,3.51
			C87.112,106.901,89.582,105.926,91.727,104.366z"/>
		<path class="st1" d="M110.966,108.136c-0.65-1.17-0.975-2.665-0.975-4.485V89.025h-5.525v-5.979h5.525v-5.98l7.02-3.056v9.036
			h8.646v5.979h-8.646v13.261c0,0.91,0.13,1.495,0.455,2.08c0.52,0.91,1.56,1.365,2.99,1.365c1.82,0,3.9-0.715,5.59-1.495
			l-0.585,6.11c-1.95,0.975-4.225,1.689-6.825,1.689C115.191,112.036,112.396,110.866,110.966,108.136z"/>
		<path class="st1" d="M129.945,105.666h4.355V89.025h-4.355v-5.979h11.44v22.62h4.225v5.851h-15.666L129.945,105.666
			L129.945,105.666z M132.415,74.009c0-2.6,2.275-4.68,4.81-4.68s4.68,2.08,4.68,4.68c0,2.601-2.275,4.681-4.81,4.681
			S132.415,76.61,132.415,74.009z"/>
		<path class="st1" d="M157.31,99.686c0.975,4.42,4.615,6.37,9.36,6.37c3.445,0,7.02-1.105,10.335-2.99l-0.585,6.37
			c-2.99,1.755-6.63,2.6-10.79,2.6c-9.295,0-15.731-5.85-15.731-14.69c0-8.06,5.655-14.82,14.431-14.82
			c9.1,0,13.846,6.11,13.846,13.65c0,1.105-0.13,2.535-0.325,3.511L157.31,99.686L157.31,99.686z M157.244,94.746h13.846
			c-0.13-3.9-2.665-6.5-6.825-6.5C161.145,88.246,158.025,90.065,157.244,94.746z"/>
		<path class="st1" d="M193.255,87.595c2.73-2.665,5.785-5.07,9.945-5.07c3.38,0,5.85,1.365,7.345,3.641
			c0.975,1.56,1.495,3.51,1.495,5.85v13.65h4.225v5.851h-15.21v-5.851h3.9V93.77c0-1.17-0.195-2.21-0.585-2.925
			c-0.65-1.235-1.82-1.885-3.51-1.885c-2.47,0-5.07,1.43-7.345,3.315v13.39h3.9v5.851h-15.21v-5.851h4.225V89.024h-4.225v-5.979
			h11.05V87.595L193.255,87.595z"/>
		<path class="st1" d="M224.39,108.136c-0.65-1.17-0.975-2.665-0.975-4.485V89.025h-5.525v-5.979h5.525v-5.98l7.02-3.056v9.036
			h8.646v5.979h-8.646v13.261c0,0.91,0.13,1.495,0.455,2.08c0.52,0.91,1.56,1.365,2.99,1.365c1.82,0,3.9-0.715,5.59-1.495
			l-0.585,6.11c-1.95,0.975-4.225,1.689-6.825,1.689C228.615,112.036,225.819,110.866,224.39,108.136z"/>
		<path class="st1" d="M264.169,93.185c-2.275,0-3.835-1.364-3.835-3.51c0-0.455,0-0.845,0.13-1.235
			c-1.17-0.455-2.6-0.715-4.03-0.715c-3.185,0-4.745,1.43-4.745,2.925c0,1.626,1.625,2.471,5.98,3.641
			c6.825,1.82,10.79,3.51,10.79,8.646c0,5.98-5.59,9.165-12.025,9.165c-4.355,0-9.035-1.56-10.92-3.445
			c-1.17-1.17-1.625-2.34-1.625-3.835c0-2.08,1.56-3.835,3.77-3.835c1.95,0,3.835,1.3,3.835,3.771c0,0.39-0.065,0.779-0.13,1.17
			c1.3,0.52,3.12,0.91,5.135,0.91c2.86,0,5.2-0.976,5.2-3.056c0-1.43-1.235-2.275-5.59-3.445c-7.865-2.08-11.18-3.965-11.18-8.84
			c0-4.421,3.64-9.035,11.635-9.035c3.445,0,7.605,1.3,9.556,3.25c1.04,1.04,1.56,2.274,1.56,3.64
			C267.679,91.625,266.249,93.185,264.169,93.185z"/>
	</g>
	<g class="st0">
		<path class="st1" d="M0.66,173.166h4.225v-16.641H0.66v-5.979h11.05v4.484c2.21-2.404,5.33-5.005,9.556-5.005
			c3.055,0,5.33,1.17,6.76,3.056c0.39,0.52,0.65,1.04,0.91,1.625c2.665-2.601,5.851-4.681,9.49-4.681
			c3.965,0,6.695,1.431,8.125,4.096c0.78,1.43,1.17,3.25,1.17,5.33v13.715h4.225v5.851H36.801v-5.851h3.835v-12.025
			c0-1.104-0.13-1.95-0.455-2.665c-0.585-1.365-1.755-2.015-3.38-2.015c-2.34,0-4.81,1.365-6.955,3.185v13.521h3.835v5.851h-14.82
			v-5.851h3.9v-12.025c0-1.104-0.13-1.95-0.455-2.665c-0.585-1.365-1.69-2.015-3.38-2.015c-2.34,0-4.81,1.365-6.955,3.185v13.521
			h3.77v5.851H0.66V173.166z"/>
		<path class="st1" d="M54.74,164.781c0-7.801,5.851-14.756,15.146-14.756c9.426,0,15.146,6.825,15.146,14.756
			c0,7.8-5.85,14.755-15.146,14.755C60.461,179.536,54.74,172.71,54.74,164.781z M77.751,164.781c0-5.2-3.25-8.841-7.865-8.841
			s-7.865,3.641-7.865,8.841s3.25,8.84,7.865,8.84S77.751,169.981,77.751,164.781z"/>
		<path class="st1" d="M114.606,154.706c0,2.404-1.885,4.42-4.225,4.42c-2.146,0-3.575-1.235-4.16-2.535
			c-2.015,0.715-4.355,2.925-5.655,5.396v11.18h4.94v5.851h-16.25v-5.851h4.225v-16.641h-4.225v-5.979h11.05v6.435
			c2.405-3.835,5.395-6.955,9.036-6.955C112.851,150.025,114.606,152.17,114.606,154.706z"/>
		<path class="st1" d="M124.16,167.186c0.975,4.42,4.615,6.37,9.36,6.37c3.445,0,7.021-1.105,10.335-2.99l-0.585,6.37
			c-2.99,1.755-6.63,2.6-10.791,2.6c-9.295,0-15.73-5.85-15.73-14.69c0-8.06,5.655-14.82,14.431-14.82
			c9.101,0,13.846,6.11,13.846,13.65c0,1.105-0.13,2.535-0.325,3.511L124.16,167.186L124.16,167.186z M124.095,162.246h13.846
			c-0.13-3.9-2.665-6.5-6.825-6.5C127.996,155.746,124.876,157.565,124.095,162.246z"/>
		<path class="st1" d="M168.424,175.636c-0.65-1.17-0.975-2.665-0.975-4.485v-14.626h-5.525v-5.979h5.525v-5.98l7.02-3.056v9.036
			h8.646v5.979h-8.646v13.261c0,0.91,0.13,1.495,0.455,2.08c0.52,0.91,1.56,1.365,2.99,1.365c1.82,0,3.9-0.715,5.59-1.495
			l-0.585,6.11c-1.95,0.975-4.226,1.689-6.826,1.689C172.65,179.536,169.854,178.366,168.424,175.636z"/>
		<path class="st1" d="M187.403,173.166h4.355v-16.641h-4.355v-5.979h11.44v22.62h4.225v5.851h-15.666L187.403,173.166
			L187.403,173.166z M189.874,141.509c0-2.6,2.275-4.68,4.81-4.68s4.68,2.08,4.68,4.68c0,2.601-2.275,4.681-4.81,4.681
			S189.874,144.11,189.874,141.509z"/>
		<path class="st1" d="M207.163,173.166h4.225v-16.641h-4.225v-5.979h11.05v4.484c2.21-2.404,5.33-5.005,9.556-5.005
			c3.055,0,5.33,1.17,6.76,3.056c0.39,0.52,0.65,1.04,0.91,1.625c2.665-2.601,5.851-4.681,9.49-4.681
			c3.965,0,6.695,1.431,8.125,4.096c0.78,1.43,1.17,3.25,1.17,5.33v13.715h4.225v5.851h-15.146v-5.851h3.835v-12.025
			c0-1.104-0.13-1.95-0.455-2.665c-0.585-1.365-1.755-2.015-3.38-2.015c-2.34,0-4.81,1.365-6.955,3.185v13.521h3.835v5.851h-14.82
			v-5.851h3.9v-12.025c0-1.104-0.13-1.95-0.455-2.665c-0.585-1.365-1.69-2.015-3.38-2.015c-2.34,0-4.81,1.365-6.955,3.185v13.521
			h3.77v5.851h-15.081L207.163,173.166L207.163,173.166z"/>
		<path class="st1" d="M268.653,167.186c0.975,4.42,4.615,6.37,9.36,6.37c3.445,0,7.021-1.105,10.335-2.99l-0.585,6.37
			c-2.99,1.755-6.63,2.6-10.791,2.6c-9.295,0-15.73-5.85-15.73-14.69c0-8.06,5.655-14.82,14.431-14.82
			c9.101,0,13.846,6.11,13.846,13.65c0,1.105-0.13,2.535-0.325,3.511L268.653,167.186L268.653,167.186z M268.589,162.246h13.846
			c-0.13-3.9-2.665-6.5-6.825-6.5C272.489,155.746,269.369,157.565,268.589,162.246z"/>
		<path class="st1" d="M293.68,174.206c0-2.99,2.405-5.395,5.33-5.395s5.33,2.404,5.33,5.395c0,2.926-2.405,5.33-5.33,5.33
			S293.68,177.131,293.68,174.206z"/>
	</g>
</g>
</svg>
