<?xml version="1.0" encoding="utf-8"?>
<!-- Generator: Adobe Illustrator 17.0.1, SVG Export Plug-In . SVG Version: 6.00 Build 0)  -->
<!DOCTYPE svg PUBLIC "-//W3C//DTD SVG 1.1//EN" "http://www.w3.org/Graphics/SVG/1.1/DTD/svg11.dtd">
<svg version="1.1" id="Layer_1" xmlns="http://www.w3.org/2000/svg" xmlns:xlink="http://www.w3.org/1999/xlink" x="0px" y="0px"
	 width="305px" height="180px" viewBox="0 0 305 180" enable-background="new 0 0 305 180" xml:space="preserve">
<g enable-background="new    ">
	<path fill="#FFFFFF" d="M0,22.76C0,9.565,10.01,0.464,22.491,0.464c9.945,0,16.576,5.2,16.576,10.336
		c0,3.12-2.015,5.265-4.68,5.265c-2.925,0-4.94-1.82-4.94-4.615c0-0.845,0.195-1.689,0.455-2.21c-1.235-0.975-3.705-1.95-7.605-1.95
		c-8.32,0-14.691,6.176-14.691,15.406c0,9.425,6.826,15.47,14.041,15.47c4.485,0,7.605-0.975,10.335-2.729v-7.346h-10.66v-6.24
		h17.875v22.166h-7.02v-3.186c-2.99,2.341-6.826,3.966-11.636,3.966C10.01,44.796,0,36.476,0,22.76z"/>
	<path fill="#FFFFFF" d="M46.28,38.166h4.355V21.525H46.28v-5.979h11.44v22.62h4.225v5.851H46.28V38.166z M48.75,6.509
		c0-2.6,2.275-4.68,4.81-4.68s4.68,2.08,4.68,4.68c0,2.601-2.275,4.681-4.81,4.681S48.75,9.11,48.75,6.509z"/>
	<path fill="#FFFFFF" d="M66.755,21.525H63.44v-5.979h14.561v5.655h-4.095l6.825,14.82l6.825-14.82h-4.29v-5.655h14.496v5.979
		h-3.315l-11.31,23.011h-5.07L66.755,21.525z"/>
	<path fill="#FFFFFF" d="M106.795,32.186c0.975,4.42,4.615,6.37,9.36,6.37c3.445,0,7.021-1.105,10.335-2.99l-0.585,6.37
		c-2.99,1.755-6.63,2.6-10.791,2.6c-9.295,0-15.73-5.85-15.73-14.69c0-8.06,5.655-14.82,14.431-14.82
		c9.101,0,13.846,6.11,13.846,13.65c0,1.105-0.13,2.535-0.325,3.511L106.795,32.186L106.795,32.186z M106.73,27.246h13.846
		c-0.13-3.9-2.665-6.5-6.825-6.5C110.63,20.746,107.51,22.565,106.73,27.246z"/>
	<path fill="#FFFFFF" d="M151.709,56.952c-3.77,0-6.11-2.21-6.11-4.485c0-2.405,1.625-3.64,3.51-3.64c1.69,0,2.665,1.04,3.12,2.145
		c0.715-0.195,1.495-0.649,2.275-1.689c0.455-0.586,0.845-1.301,1.3-2.211l2.145-4.484l-10.141-21.062h-3.51v-5.979h14.69v5.655
		h-4.16l6.565,15.015l6.63-15.015h-4.42v-5.655h14.625v5.979h-3.443L161.46,49.802c-0.65,1.3-1.365,2.47-2.21,3.445
		C157.169,55.652,154.569,56.952,151.709,56.952z"/>
	<path fill="#FFFFFF" d="M179.854,29.781c0-7.801,5.85-14.756,15.146-14.756c9.425,0,15.146,6.825,15.146,14.756
		c0,7.8-5.851,14.755-15.146,14.755C185.574,44.536,179.854,37.71,179.854,29.781z M202.865,29.781c0-5.2-3.25-8.841-7.866-8.841
		c-4.615,0-7.865,3.641-7.865,8.841s3.25,8.84,7.865,8.84C199.615,38.621,202.865,34.981,202.865,29.781z"/>
	<path fill="#FFFFFF" d="M218.595,40.766c-0.91-1.495-1.43-3.445-1.43-5.721V21.524h-4.225v-5.979h11.311V33.29
		c0,1.235,0.195,2.146,0.585,2.925c0.65,1.235,1.82,1.886,3.51,1.886c2.47,0,5.07-1.431,7.345-3.315V21.525h-4.42v-5.979h11.505
		v22.62h4.225v5.851h-11.05v-4.55c-2.73,2.665-5.785,5.069-9.945,5.069C222.56,44.536,220.025,43.106,218.595,40.766z"/>
	<path fill="#FFFFFF" d="M276.056,19.706c0,2.404-1.885,4.42-4.226,4.42c-2.145,0-3.575-1.235-4.16-2.535
		c-2.015,0.715-4.355,2.925-5.655,5.396v11.18h4.94v5.851h-16.25v-5.851h4.225V21.526h-4.225v-5.979h11.05v6.435
		c2.405-3.835,5.396-6.955,9.035-6.955C274.3,15.025,276.056,17.17,276.056,19.706z"/>
</g>
<g enable-background="new    ">
	<path fill="#FFFFFF" d="M0,118.407h4.225V89.025H0v-5.979h11.05v3.25c2.21-2.08,4.615-3.771,8.451-3.771c7.41,0,13,6.045,13,14.626
		c0,8.255-5.916,14.885-13.456,14.885c-3.055,0-5.59-1.104-7.735-2.729v9.101h4.615v5.85H0V118.407z M25.221,97.215
		c0-5.46-3.25-8.58-7.28-8.58c-2.665,0-4.745,1.17-6.63,2.86v12.22c1.82,1.301,4.03,2.211,6.63,2.211
		C21.711,105.926,25.221,102.871,25.221,97.215z"/>
	<path fill="#FFFFFF" d="M36.53,104.041c0-5.33,4.68-8.58,11.44-8.58c2.925,0,5.655,0.39,7.215,0.78v-2.275
		c0-1.689-0.39-2.99-1.105-3.9c-1.17-1.495-3.055-2.08-5.59-2.08c-1.235,0-2.145,0.195-2.795,0.455c0.13,0.391,0.26,1.04,0.26,1.431
		c0,2.145-1.69,3.705-3.835,3.705s-3.77-1.495-3.77-3.835c0-3.511,3.575-7.216,11.311-7.216c4.875,0,8.19,1.365,10.205,3.835
		c1.495,1.82,2.21,4.29,2.21,7.15v12.155h4.226v5.851H55.317v-3.12c-2.275,1.95-5.721,3.64-9.556,3.64
		C40.886,112.036,36.53,109.371,36.53,104.041z M55.186,104.366v-4.485c-1.625-0.39-3.64-0.649-5.85-0.649
		c-3.445,0-5.525,1.56-5.525,4.16c0,2.274,1.69,3.51,4.226,3.51C50.571,106.901,53.041,105.926,55.186,104.366z"/>
	<path fill="#FFFFFF" d="M74.425,108.136c-0.65-1.17-0.975-2.665-0.975-4.485V89.025h-5.525v-5.979h5.525v-5.98l7.02-3.056v9.036
		h8.646v5.979H80.47v13.261c0,0.91,0.13,1.495,0.455,2.08c0.52,0.91,1.56,1.365,2.99,1.365c1.82,0,3.9-0.715,5.59-1.495l-0.585,6.11
		c-1.95,0.975-4.225,1.689-6.825,1.689C78.65,112.036,75.855,110.866,74.425,108.136z"/>
	<path fill="#FFFFFF" d="M93.404,105.666h4.355V89.025h-4.355v-5.979h11.44v22.62h4.225v5.851H93.403L93.404,105.666L93.404,105.666
		z M95.874,74.009c0-2.6,2.275-4.68,4.81-4.68s4.68,2.08,4.68,4.68c0,2.601-2.275,4.681-4.81,4.681S95.874,76.61,95.874,74.009z"/>
	<path fill="#FFFFFF" d="M120.769,99.686c0.975,4.42,4.615,6.37,9.36,6.37c3.445,0,7.02-1.105,10.335-2.99l-0.585,6.37
		c-2.99,1.755-6.63,2.6-10.79,2.6c-9.295,0-15.731-5.85-15.731-14.69c0-8.06,5.655-14.82,14.431-14.82
		c9.1,0,13.846,6.11,13.846,13.65c0,1.105-0.13,2.535-0.325,3.511L120.769,99.686L120.769,99.686z M120.703,94.746h13.846
		c-0.13-3.9-2.665-6.5-6.825-6.5C124.604,88.246,121.484,90.065,120.703,94.746z"/>
	<path fill="#FFFFFF" d="M156.714,87.595c2.73-2.665,5.785-5.07,9.945-5.07c3.38,0,5.85,1.365,7.345,3.641
		c0.975,1.56,1.495,3.51,1.495,5.85v13.65h4.225v5.851h-15.21v-5.851h3.9V93.77c0-1.17-0.195-2.21-0.585-2.925
		c-0.65-1.235-1.82-1.885-3.51-1.885c-2.47,0-5.07,1.43-7.345,3.315v13.39h3.9v5.851h-15.21v-5.851h4.225V89.024h-4.225v-5.979
		h11.05L156.714,87.595L156.714,87.595z"/>
	<path fill="#FFFFFF" d="M187.849,108.136c-0.65-1.17-0.975-2.665-0.975-4.485V89.025h-5.525v-5.979h5.525v-5.98l7.02-3.056v9.036
		h8.646v5.979h-8.646v13.261c0,0.91,0.13,1.495,0.455,2.08c0.52,0.91,1.56,1.365,2.99,1.365c1.82,0,3.9-0.715,5.59-1.495
		l-0.585,6.11c-1.95,0.975-4.225,1.689-6.825,1.689C192.074,112.036,189.278,110.866,187.849,108.136z"/>
	<path fill="#FFFFFF" d="M227.628,93.185c-2.275,0-3.835-1.364-3.835-3.51c0-0.455,0-0.845,0.13-1.235
		c-1.17-0.455-2.6-0.715-4.03-0.715c-3.185,0-4.745,1.43-4.745,2.925c0,1.626,1.625,2.471,5.98,3.641
		c6.825,1.82,10.79,3.51,10.79,8.646c0,5.98-5.59,9.165-12.025,9.165c-4.355,0-9.035-1.56-10.92-3.445
		c-1.17-1.17-1.625-2.34-1.625-3.835c0-2.08,1.56-3.835,3.77-3.835c1.95,0,3.835,1.3,3.835,3.771c0,0.39-0.065,0.779-0.13,1.17
		c1.3,0.52,3.12,0.91,5.135,0.91c2.86,0,5.2-0.976,5.2-3.056c0-1.43-1.235-2.275-5.59-3.445c-7.865-2.08-11.18-3.965-11.18-8.84
		c0-4.421,3.64-9.035,11.635-9.035c3.445,0,7.605,1.3,9.556,3.25c1.04,1.04,1.56,2.274,1.56,3.64
		C231.138,91.625,229.708,93.185,227.628,93.185z"/>
</g>
<g enable-background="new    ">
	<path fill="#FFFFFF" d="M0,173.166h4.225v-16.641H0v-5.979h11.05v4.484c2.21-2.404,5.33-5.005,9.556-5.005
		c3.055,0,5.33,1.17,6.76,3.056c0.39,0.52,0.65,1.04,0.91,1.625c2.665-2.601,5.851-4.681,9.49-4.681
		c3.965,0,6.695,1.431,8.125,4.096c0.78,1.43,1.17,3.25,1.17,5.33v13.715h4.225v5.851H36.141v-5.851h3.835v-12.025
		c0-1.104-0.13-1.95-0.455-2.665c-0.585-1.365-1.755-2.015-3.38-2.015c-2.34,0-4.81,1.365-6.955,3.185v13.521h3.835v5.851h-14.82
		v-5.851h3.9v-12.025c0-1.104-0.13-1.95-0.455-2.665c-0.585-1.365-1.69-2.015-3.38-2.015c-2.34,0-4.81,1.365-6.955,3.185v13.521
		h3.77v5.851H0V173.166z"/>
	<path fill="#FFFFFF" d="M54.08,164.781c0-7.801,5.851-14.756,15.146-14.756c9.426,0,15.146,6.825,15.146,14.756
		c0,7.8-5.85,14.755-15.146,14.755C59.801,179.536,54.08,172.71,54.08,164.781z M77.091,164.781c0-5.2-3.25-8.841-7.865-8.841
		s-7.865,3.641-7.865,8.841s3.25,8.84,7.865,8.84S77.091,169.981,77.091,164.781z"/>
	<path fill="#FFFFFF" d="M113.946,154.706c0,2.404-1.885,4.42-4.225,4.42c-2.146,0-3.575-1.235-4.16-2.535
		c-2.015,0.715-4.355,2.925-5.655,5.396v11.18h4.94v5.851h-16.25v-5.851h4.225v-16.641h-4.225v-5.979h11.05v6.435
		c2.405-3.835,5.395-6.955,9.036-6.955C112.191,150.025,113.946,152.17,113.946,154.706z"/>
	<path fill="#FFFFFF" d="M123.5,167.186c0.975,4.42,4.615,6.37,9.36,6.37c3.445,0,7.021-1.105,10.335-2.99l-0.585,6.37
		c-2.99,1.755-6.63,2.6-10.791,2.6c-9.295,0-15.73-5.85-15.73-14.69c0-8.06,5.655-14.82,14.431-14.82
		c9.101,0,13.846,6.11,13.846,13.65c0,1.105-0.13,2.535-0.325,3.511L123.5,167.186L123.5,167.186z M123.435,162.246h13.846
		c-0.13-3.9-2.665-6.5-6.825-6.5C127.336,155.746,124.216,157.565,123.435,162.246z"/>
	<path fill="#FFFFFF" d="M167.764,175.636c-0.65-1.17-0.975-2.665-0.975-4.485v-14.626h-5.525v-5.979h5.525v-5.98l7.02-3.056v9.036
		h8.646v5.979h-8.646v13.261c0,0.91,0.13,1.495,0.455,2.08c0.52,0.91,1.56,1.365,2.99,1.365c1.82,0,3.9-0.715,5.59-1.495
		l-0.585,6.11c-1.95,0.975-4.226,1.689-6.826,1.689C171.99,179.536,169.194,178.366,167.764,175.636z"/>
	<path fill="#FFFFFF" d="M186.743,173.166h4.355v-16.641h-4.355v-5.979h11.44v22.62h4.225v5.851h-15.666L186.743,173.166
		L186.743,173.166z M189.214,141.509c0-2.6,2.275-4.68,4.81-4.68s4.68,2.08,4.68,4.68c0,2.601-2.275,4.681-4.81,4.681
		S189.214,144.11,189.214,141.509z"/>
	<path fill="#FFFFFF" d="M206.503,173.166h4.225v-16.641h-4.225v-5.979h11.05v4.484c2.21-2.404,5.33-5.005,9.556-5.005
		c3.055,0,5.33,1.17,6.76,3.056c0.39,0.52,0.65,1.04,0.91,1.625c2.665-2.601,5.851-4.681,9.49-4.681
		c3.965,0,6.695,1.431,8.125,4.096c0.78,1.43,1.17,3.25,1.17,5.33v13.715h4.225v5.851h-15.146v-5.851h3.835v-12.025
		c0-1.104-0.13-1.95-0.455-2.665c-0.585-1.365-1.755-2.015-3.38-2.015c-2.34,0-4.81,1.365-6.955,3.185v13.521h3.835v5.851h-14.82
		v-5.851h3.9v-12.025c0-1.104-0.13-1.95-0.455-2.665c-0.585-1.365-1.69-2.015-3.38-2.015c-2.34,0-4.81,1.365-6.955,3.185v13.521
		h3.77v5.851h-15.081L206.503,173.166L206.503,173.166z"/>
	<path fill="#FFFFFF" d="M267.993,167.186c0.975,4.42,4.615,6.37,9.36,6.37c3.445,0,7.021-1.105,10.335-2.99l-0.585,6.37
		c-2.99,1.755-6.63,2.6-10.791,2.6c-9.295,0-15.73-5.85-15.73-14.69c0-8.06,5.655-14.82,14.431-14.82
		c9.101,0,13.846,6.11,13.846,13.65c0,1.105-0.13,2.535-0.325,3.511L267.993,167.186L267.993,167.186z M267.929,162.246h13.846
		c-0.13-3.9-2.665-6.5-6.825-6.5C271.829,155.746,268.709,157.565,267.929,162.246z"/>
	<path fill="#FFFFFF" d="M293.02,174.206c0-2.99,2.405-5.395,5.33-5.395s5.33,2.404,5.33,5.395c0,2.926-2.405,5.33-5.33,5.33
		S293.02,177.131,293.02,174.206z"/>
</g>
</svg>
