<?xml version="1.0" encoding="utf-8"?>
<!-- Generator: Adobe Illustrator 17.0.1, SVG Export Plug-In . SVG Version: 6.00 Build 0)  -->
<!DOCTYPE svg PUBLIC "-//W3C//DTD SVG 1.1//EN" "http://www.w3.org/Graphics/SVG/1.1/DTD/svg11.dtd">
<svg version="1.1" id="Layer_1" xmlns="http://www.w3.org/2000/svg" xmlns:xlink="http://www.w3.org/1999/xlink" x="0px" y="0px"
	 width="303px" height="30.083px" viewBox="0 0 303 30.083" enable-background="new 0 0 303 30.083" xml:space="preserve">
<g enable-background="new    ">
	<path fill="#60A296" d="M0,25.235h3.199V6.998H0V2.959h10.918v4.039h-3.2v18.237h3.2v4.039H0V25.235z"/>
	<path fill="#60A296" d="M20.437,14.557c1.68-1.64,3.56-3.119,6.119-3.119c2.08,0,3.6,0.84,4.52,2.239c0.6,0.96,0.92,2.16,0.92,3.6
		v8.398h2.6v3.6h-9.359v-3.6h2.4v-7.318c0-0.72-0.12-1.36-0.36-1.8c-0.399-0.76-1.12-1.16-2.159-1.16c-1.52,0-3.12,0.88-4.52,2.04
		v8.238h2.399v3.6h-9.358v-3.6h2.6V15.437h-2.6v-3.679h6.799v2.799H20.437z"/>
	<path fill="#60A296" d="M36.319,20.596c0-5.079,3.679-9.158,8.398-9.158c2.239,0,3.88,0.84,4.88,1.68V3.68h-2.641V0h6.999v25.676
		h2.6v3.6h-6.958v-1.92c-1.28,1.24-2.92,2.24-5.16,2.24C39.799,29.595,36.319,25.875,36.319,20.596z M49.598,24.075v-7.519
		c-1.16-0.8-2.52-1.36-4.16-1.36c-2.439,0-4.639,1.88-4.639,5.359c0,3.359,2.079,5.279,4.639,5.279
		C47.078,25.835,48.397,25.115,49.598,24.075z"/>
	<path fill="#60A296" d="M58.679,25.675h2.68V15.437h-2.68v-3.679h7.039v13.917h2.599v3.6h-9.638V25.675z M60.198,6.198
		c0-1.6,1.399-2.88,2.96-2.88c1.56,0,2.879,1.28,2.879,2.88s-1.399,2.88-2.959,2.88C61.517,9.078,60.198,7.798,60.198,6.198z"/>
	<path fill="#60A296" d="M70.959,20.355c0-4.559,3.679-8.918,8.878-8.918c4.8,0,7.958,3.119,7.958,5.879
		c0,1.84-1.239,2.96-2.799,2.96c-1.439,0-2.64-1.2-2.64-2.64c0-0.521,0.24-1.12,0.56-1.48c-0.319-0.439-1.399-1.199-3.119-1.199
		c-2,0-4.479,1.64-4.479,5.479c0,3.359,2.559,5.479,5.678,5.479c2.12,0,3.96-0.6,6.24-1.84l-0.36,3.92
		c-1.88,1.079-3.68,1.6-6.239,1.6C75.117,29.595,70.959,25.995,70.959,20.355z"/>
	<path fill="#60A296" d="M90.679,24.675c0-3.279,2.88-5.278,7.038-5.278c1.801,0,3.48,0.239,4.439,0.479v-1.399
		c0-1.04-0.24-1.84-0.68-2.4c-0.72-0.919-1.879-1.279-3.439-1.279c-0.76,0-1.319,0.12-1.72,0.28c0.08,0.239,0.16,0.64,0.16,0.88
		c0,1.319-1.04,2.279-2.359,2.279s-2.319-0.92-2.319-2.359c0-2.16,2.199-4.439,6.959-4.439c2.999,0,5.039,0.84,6.278,2.359
		c0.92,1.12,1.36,2.64,1.36,4.399v7.479h2.6v3.6h-6.76v-1.92c-1.399,1.2-3.52,2.24-5.879,2.24
		C93.357,29.595,90.679,27.955,90.679,24.675z M102.156,24.875v-2.76c-1-0.239-2.239-0.399-3.6-0.399
		c-2.119,0-3.398,0.96-3.398,2.56c0,1.399,1.039,2.159,2.6,2.159C99.316,26.435,100.837,25.835,102.156,24.875z"/>
	<path fill="#60A296" d="M113.998,27.194c-0.4-0.72-0.601-1.64-0.601-2.759v-8.999h-3.399v-3.679h3.399v-3.68l4.319-1.88v5.56h5.319
		v3.679h-5.319v8.159c0,0.56,0.08,0.92,0.279,1.279c0.32,0.56,0.961,0.84,1.84,0.84c1.12,0,2.4-0.439,3.439-0.92l-0.359,3.76
		c-1.199,0.6-2.6,1.04-4.199,1.04C116.598,29.595,114.877,28.874,113.998,27.194z"/>
	<path fill="#60A296" d="M125.678,25.675h2.68V15.437h-2.68v-3.679h7.039v13.917h2.6v3.6h-9.639V25.675z M127.197,6.198
		c0-1.6,1.4-2.88,2.96-2.88s2.88,1.28,2.88,2.88s-1.4,2.88-2.96,2.88S127.197,7.798,127.197,6.198z"/>
	<path fill="#60A296" d="M137.957,20.516c0-4.799,3.6-9.078,9.318-9.078c5.799,0,9.318,4.199,9.318,9.078
		c0,4.8-3.599,9.079-9.318,9.079C141.476,29.595,137.957,25.395,137.957,20.516z M152.115,20.516c0-3.199-2-5.438-4.84-5.438
		c-2.839,0-4.839,2.239-4.839,5.438c0,3.2,2,5.439,4.839,5.439C150.115,25.955,152.115,23.716,152.115,20.516z"/>
	<path fill="#60A296" d="M165.996,14.557c1.68-1.64,3.56-3.119,6.119-3.119c2.08,0,3.6,0.84,4.52,2.239c0.6,0.96,0.92,2.16,0.92,3.6
		v8.398h2.6v3.6h-9.359v-3.6h2.4v-7.318c0-0.72-0.12-1.36-0.36-1.8c-0.399-0.76-1.12-1.16-2.159-1.16c-1.52,0-3.12,0.88-4.52,2.04
		v8.238h2.399v3.6h-9.358v-3.6h2.6V15.437h-2.6v-3.679h6.799v2.799H165.996z"/>
	<path fill="#60A296" d="M194.596,17.996c-1.4,0-2.359-0.84-2.359-2.159c0-0.28,0-0.521,0.079-0.76c-0.72-0.28-1.6-0.44-2.479-0.44
		c-1.959,0-2.92,0.88-2.92,1.8c0,1,1,1.52,3.68,2.239c4.199,1.12,6.639,2.16,6.639,5.319c0,3.68-3.439,5.64-7.398,5.64
		c-2.68,0-5.559-0.96-6.719-2.12c-0.72-0.72-1-1.439-1-2.359c0-1.28,0.96-2.359,2.32-2.359c1.199,0,2.359,0.8,2.359,2.319
		c0,0.24-0.041,0.479-0.08,0.72c0.8,0.32,1.92,0.56,3.159,0.56c1.76,0,3.2-0.6,3.2-1.879c0-0.88-0.761-1.4-3.439-2.12
		c-4.84-1.279-6.879-2.439-6.879-5.439c0-2.719,2.239-5.559,7.158-5.559c2.119,0,4.68,0.8,5.879,2c0.641,0.64,0.96,1.399,0.96,2.239
		C196.755,17.036,195.875,17.996,194.596,17.996z"/>
</g>
</svg>
