<svg version="1.1" xmlns="http://www.w3.org/2000/svg" xmlns:xlink="http://www.w3.org/1999/xlink" x="0px" y="0px"
	 width="350.125px" height="170.875px" viewBox="0 0 350.125 170.875" style="enable-background:new 0 0 350.125 170.875;"
	 xml:space="preserve">
<style type="text/css">
	.st0{display:none;}
	.st1{fill:#E7E5D4;}
	.st2{fill:#E2D100;}
	.st3{fill:#CBBD00;}
	.st4{fill:#EF4E45;}
	.st5{fill:#6D6E70;}
	.st6{fill:#929497;}
</style>
<g id="Layer_1" class="st0">
</g>
<g id="Layer_2">
	<g>
		<path class="st1" d="M191.271,24.566c4.359,32.065,15.224,38.581,33.712,39.726c2.32-7.327,4.919-12.632,7.787-16.605
			C222.362,33.272,208.395,36.446,191.271,24.566z"/>
		<path class="st2" d="M274.271,24.566c-17.127,11.88-31.092,8.706-41.5,23.121c2.867,3.973,5.466,9.278,7.784,16.605
			C259.042,63.147,269.907,56.631,274.271,24.566z"/>
		<path class="st3" d="M224.983,64.292c0.018,0.001,0.033,0.002,0.05,0.003c1.766,0.051,3.247,0.135,4.761,0.183
			c0.973,0.019,1.965,0.029,2.976,0.033c0.585-0.002,1.166-0.006,1.737-0.013c0.76-0.008,1.517-0.02,2.265-0.044
			c0.224-0.006,0.444-0.013,0.666-0.02c1.024-0.039,2.04-0.086,3.042-0.136c0.025-0.002,0.05-0.004,0.075-0.005
			c-2.318-7.327-4.917-12.632-7.784-16.605C229.902,51.66,227.304,56.965,224.983,64.292z"/>
		<circle class="st4" cx="232.742" cy="15.221" r="14.221"/>
	</g>
	<g>
		<path class="st5" d="M25.235,76.837c13.796,0,22.556,9.052,22.556,24.455c0,16.059-10.146,26.133-24.308,26.133
			C9.76,127.425,1,118.372,1,103.044C1,86.911,11.073,76.837,25.235,76.837z M24.578,121.438c8.176,0,14.6-6.424,14.6-19.125
			c0-12.848-6.716-19.491-14.965-19.491c-8.176,0-14.6,6.424-14.6,19.198C9.613,114.796,16.256,121.438,24.578,121.438z"/>
		<path class="st5" d="M57.836,96.62l-3.431-0.658c-1.679-0.291-2.263-1.021-2.263-2.336c0-1.387,0.584-2.117,2.336-2.627
			c1.679-0.438,4.38-0.803,6.351-0.803c3.212,0,4.308,1.094,4.308,4.307v1.168l0.146,0.072c0,0,2.847-5.84,11.314-5.84
			c8.687,0,14.381,5.693,14.381,17.373c0,12.703-7.519,20.148-19.855,20.148c-3.212,0-5.256-0.584-5.256-0.584l-0.146,0.146
			c0.072,1.24,0.146,2.481,0.146,4.16v6.424l3.723,0.949c1.752,0.512,2.336,1.168,2.336,2.482c0,1.459-1.095,2.48-2.92,2.48H55.209
			c-1.898,0-2.92-1.021-2.92-2.48c0-1.314,0.584-2.045,2.189-2.482l3.357-0.949V96.62z M65.866,120.198c0,0,2.263,1.459,6.497,1.459
			c6.351,0,10.293-3.941,10.293-13.285c0-8.76-3.577-12.41-8.833-12.41c-5.11,0-7.957,4.016-7.957,4.016V120.198z"/>
		<path class="st5" d="M100.906,96.108H97.84c-1.971,0-2.847-0.73-2.847-2.408c0-1.826,1.241-3.139,3.431-3.139h2.556l1.168-5.403
			c0.729-3.139,1.825-4.307,4.015-4.307c1.752,0,2.701,0.876,2.701,2.628v7.081h7.008c1.971,0,2.773,0.875,2.773,2.408
			c0,1.971-1.168,3.139-3.431,3.139h-6.351v18.834c0,4.598,1.314,6.277,4.233,6.277c2.044,0,3.066-0.584,4.088-0.584
			c1.022,0,1.752,0.731,1.752,1.971c0,0.877-0.292,1.605-0.948,2.264c-0.73,0.656-3.14,2.262-7.811,2.262
			c-6.788,0-9.271-3.867-9.271-10.146V96.108z"/>
		<path class="st5" d="M129.157,96.62l-3.869-0.658c-1.752-0.365-2.336-1.021-2.336-2.336c0-1.387,0.584-2.117,2.409-2.627
			c1.825-0.438,4.38-0.803,6.935-0.803c3.724,0,4.892,1.168,4.892,4.816v25.77l3.431,0.949c1.605,0.438,2.116,1.094,2.116,2.262
			c0,1.607-1.095,2.701-2.92,2.701h-13.796c-1.825,0-2.847-1.021-2.847-2.482c0-1.313,0.511-1.896,2.336-2.408l3.649-1.021V96.62z
			 M133.026,74.867c3.065,0,5.183,2.116,5.183,5.109c0,3.066-2.263,5.329-5.256,5.329c-3.066,0-5.183-2.117-5.183-5.183
			C127.771,77.129,130.033,74.867,133.026,74.867z"/>
		<path class="st5" d="M153.027,120.929c0,0,2.043,1.094,6.131,1.094c4.818,0,6.644-1.824,6.644-4.598
			c0-7.52-19.053-4.453-19.053-17.01c0-5.766,4.745-10.584,15.038-10.584c5.183,0,8.176,1.094,9.124,2.043
			c0.73,0.73,1.022,1.533,1.022,3.723v0.439c0,1.094,0,1.824-0.073,3.139c-0.146,1.605-1.022,2.336-2.409,2.336
			c-1.314,0-1.971-0.73-2.555-2.336l-0.876-3.066c0,0-2.117-0.875-5.475-0.875c-4.526,0-6.06,1.605-6.06,4.014
			c0,7.008,19.053,4.088,19.053,16.936c0,6.205-5.037,11.242-15.694,11.242c-5.694,0-8.833-1.24-9.782-2.189
			c-0.73-0.73-1.021-1.533-1.021-3.797v-0.584c0-1.094,0-1.824,0.073-3.139c0.145-1.605,1.021-2.336,2.409-2.336
			c1.313,0,1.971,0.73,2.555,2.336L153.027,120.929z"/>
		<path class="st5" d="M183.468,96.108h-3.066c-1.972,0-2.848-0.73-2.848-2.408c0-1.826,1.241-3.139,3.432-3.139h2.555l1.168-5.403
			c0.73-3.139,1.824-4.307,4.015-4.307c1.752,0,2.701,0.876,2.701,2.628v7.081h7.008c1.971,0,2.773,0.875,2.773,2.408
			c0,1.971-1.168,3.139-3.431,3.139h-6.351v18.834c0,4.598,1.313,6.277,4.233,6.277c2.044,0,3.066-0.584,4.088-0.584
			c1.023,0,1.752,0.731,1.752,1.971c0,0.877-0.292,1.605-0.949,2.264c-0.729,0.656-3.139,2.262-7.811,2.262
			c-6.789,0-9.27-3.867-9.27-10.146V96.108z"/>
		<path class="st5" d="M227.485,104.356c0-6.277-2.263-8.539-7.519-8.539c-5.84,0-8.322,1.824-9.928,1.824
			c-1.387,0-2.336-0.949-2.336-2.336c0-0.803,0.292-1.24,0.803-1.824c1.533-1.533,6.861-3.578,13.578-3.578
			c9.489,0,13.358,3.869,13.358,12.338c0,5.912-0.292,11.533,0.219,18.541l3.285,0.438c1.679,0.293,2.263,0.949,2.263,2.336
			c0,1.314-0.73,2.045-2.336,2.555c-1.679,0.584-3.941,1.021-6.424,1.021c-3.066,0-4.38-1.387-4.38-4.307v-0.656l-0.146-0.072
			c0,0-2.774,5.328-10.658,5.328c-7.081,0-11.68-4.6-11.68-10.365c0-5.695,4.964-9.783,15.549-9.783
			c3.649,0,6.351,0.512,6.351,0.512V104.356z M227.34,112.532c0,0-2.117-0.51-5.475-0.51c-5.475,0-7.956,1.533-7.956,4.379
			c0,2.775,2.336,5.037,5.985,5.037c4.817,0,7.446-3.357,7.446-3.357V112.532z"/>
		<path class="st5" d="M242.889,96.474l-1.752-0.656c-1.971-0.658-2.628-1.68-2.628-3.141c0-1.24,0.876-2.115,2.555-2.115h12.264
			c1.679,0,2.556,0.875,2.556,2.115c0,1.461-0.657,2.191-2.701,2.994l-1.971,0.73l6.424,16.643c1.313,3.432,2.189,6.352,2.189,6.352
			h0.147c0,0,0.875-2.92,2.189-6.424l6.424-16.57l-2.044-0.73c-2.044-0.803-2.701-1.533-2.701-2.994c0-1.24,0.876-2.115,2.628-2.115
			h10.73c1.68,0,2.556,0.875,2.556,2.115c0,1.461-0.657,2.482-2.628,3.141l-1.752,0.656l-10.512,25.623
			c-1.606,3.867-2.848,4.963-5.767,4.963c-2.92,0-4.16-1.096-5.767-4.963L242.889,96.474z"/>
		<path class="st5" d="M289.681,96.62l-3.869-0.658c-1.752-0.365-2.336-1.021-2.336-2.336c0-1.387,0.584-2.117,2.409-2.627
			c1.825-0.438,4.38-0.803,6.935-0.803c3.724,0,4.892,1.168,4.892,4.816v25.77l3.431,0.949c1.605,0.438,2.116,1.094,2.116,2.262
			c0,1.607-1.095,2.701-2.92,2.701h-13.796c-1.825,0-2.847-1.021-2.847-2.482c0-1.313,0.511-1.896,2.336-2.408l3.649-1.021V96.62z
			 M293.55,74.867c3.065,0,5.183,2.116,5.183,5.109c0,3.066-2.263,5.329-5.256,5.329c-3.066,0-5.183-2.117-5.183-5.183
			C288.294,77.129,290.557,74.867,293.55,74.867z"/>
		<path class="st5" d="M311.069,96.62l-3.869-0.658c-1.752-0.365-2.336-1.021-2.336-2.336c0-1.387,0.584-2.117,2.409-2.627
			c1.825-0.438,4.453-0.803,6.643-0.803c3.358,0,4.453,1.094,4.453,4.307v1.168l0.146,0.072c0,0,2.847-5.84,11.315-5.84
			s13.213,4.746,13.213,13.869v17.01l3.284,0.949c1.752,0.51,2.263,1.168,2.263,2.48c0,1.461-1.021,2.482-2.847,2.482h-13.285
			c-1.825,0-2.92-1.021-2.92-2.482c0-1.313,0.584-1.971,2.336-2.48l3.139-0.949v-14.965c0-7.008-2.774-9.855-7.957-9.855
			c-5.109,0-7.956,4.016-7.956,4.016v20.805l3.211,0.949c1.752,0.51,2.264,1.168,2.264,2.48c0,1.461-1.022,2.482-2.848,2.482
			h-13.796c-1.825,0-2.847-1.021-2.847-2.482c0-1.313,0.511-1.896,2.336-2.408l3.649-1.021V96.62z"/>
	</g>
	<g>
		<path class="st6" d="M191.425,148.179h4.523v3.122c1.202-1.882,2.924-3.523,5.807-3.523c4.083,0,6.526,2.883,6.526,7.407v14.213
			h-4.525v-12.933c0-2.962-1.401-4.604-3.803-4.604c-2.362,0-4.005,1.762-4.005,4.685v12.853h-4.523V148.179z"/>
		<path class="st6" d="M212.007,163.311v-0.199c0-4.565,3.043-6.807,7.527-6.807c2.002,0,3.443,0.36,4.885,0.84v-0.881
			c0-2.842-1.682-4.324-4.564-4.324c-2.042,0-3.724,0.641-5.125,1.282l-1.281-3.604c2.043-1,4.164-1.682,7.007-1.682
			c2.763,0,4.885,0.76,6.245,2.161c1.401,1.401,2.122,3.484,2.122,6.127v13.172h-4.443v-2.604c-1.241,1.803-3.124,3.003-5.886,3.003
			C214.97,169.797,212.007,167.436,212.007,163.311z M224.459,162.27v-2.122c-1.042-0.44-2.403-0.762-3.924-0.762
			c-2.603,0-4.124,1.321-4.124,3.565v0.08c0,2.122,1.481,3.321,3.443,3.362C222.456,166.434,224.459,164.672,224.459,162.27z"/>
		<path class="st6" d="M241.316,155.304l4.124-7.125h4.764l-6.365,10.368l6.646,10.851h-4.885l-4.324-7.567l-4.363,7.567h-4.765
			l6.565-10.851l-6.326-10.368h4.885L241.316,155.304z"/>
		<path class="st6" d="M253.73,162.39v-14.211h4.525v12.931c0,2.962,1.401,4.604,3.763,4.604c2.363,0,4.004-1.762,4.004-4.685
			v-12.851h4.564v21.219h-4.564v-3.083c-1.201,1.881-2.883,3.482-5.766,3.482C256.134,169.797,253.73,166.955,253.73,162.39z"/>
		<path class="st6" d="M275.715,148.179h4.523v3.081c1.241-1.882,2.884-3.482,5.685-3.482c2.603,0,4.485,1.321,5.485,3.404
			c1.441-1.923,3.363-3.404,6.206-3.404c3.924,0,6.486,2.604,6.486,7.407v14.213h-4.524v-12.892c0-3.044-1.281-4.646-3.604-4.646
			c-2.202,0-3.805,1.682-3.805,4.685v12.853h-4.523v-12.933c0-3.003-1.321-4.604-3.564-4.604c-2.281,0-3.844,1.803-3.844,4.726
			v12.812h-4.523V148.179z"/>
		<path class="st6" d="M307.91,163.311v-0.199c0-4.565,3.043-6.807,7.526-6.807c2.003,0,3.443,0.36,4.885,0.84v-0.881
			c0-2.842-1.682-4.324-4.564-4.324c-2.042,0-3.724,0.641-5.125,1.282l-1.281-3.604c2.043-1,4.165-1.682,7.007-1.682
			c2.763,0,4.885,0.76,6.245,2.161c1.402,1.401,2.122,3.484,2.122,6.127v13.172h-4.443v-2.604c-1.241,1.803-3.123,3.003-5.885,3.003
			C310.872,169.797,307.91,167.436,307.91,163.311z M320.361,162.27v-2.122c-1.041-0.44-2.402-0.762-3.924-0.762
			c-2.603,0-4.123,1.321-4.123,3.565v0.08c0,2.122,1.48,3.321,3.442,3.362C318.359,166.434,320.361,164.672,320.361,162.27z"/>
		<path class="st6" d="M334.136,166.195v3.202h-4.523V140.49h4.523v11.09c1.321-2.041,3.163-3.803,6.206-3.803
			c4.244,0,8.248,3.563,8.248,10.73v0.561c0,7.127-3.964,10.729-8.248,10.729C337.259,169.797,335.417,168.076,334.136,166.195z
			 M344.025,158.987v-0.359c0-4.244-2.202-6.848-4.925-6.848c-2.723,0-5.044,2.643-5.044,6.806v0.401
			c0,4.164,2.321,6.807,5.044,6.807C341.863,165.794,344.025,163.231,344.025,158.987z"/>
	</g>
</g>
</svg>
