<?xml version="1.0" encoding="utf-8"?>
<!-- Generator: Adobe Illustrator 17.0.1, SVG Export Plug-In . SVG Version: 6.00 Build 0)  -->
<!DOCTYPE svg PUBLIC "-//W3C//DTD SVG 1.1//EN" "http://www.w3.org/Graphics/SVG/1.1/DTD/svg11.dtd">
<svg version="1.1" id="Layer_1" xmlns="http://www.w3.org/2000/svg" xmlns:xlink="http://www.w3.org/1999/xlink" x="0px" y="0px"
	 width="461px" height="28.375px" viewBox="0 0 461 28.375" enable-background="new 0 0 461 28.375" xml:space="preserve">
<g>
	<path fill="#6D6E70" d="M4.409,22.002h2.46V8.232h-3.66v3.12H0v-6.06h17.129v6.06h-3.21v-3.12h-3.66v13.77h2.46v3.03h-8.31V22.002z
		"/>
	<path fill="#6D6E70" d="M17.069,14.863h8.7v3.36h-8.7V14.863z"/>
	<path fill="#6D6E70" d="M28.048,18.342c0-3.419,2.761-6.689,6.66-6.689c3.6,0,5.97,2.34,5.97,4.41c0,1.38-0.93,2.22-2.1,2.22
		c-1.08,0-1.98-0.9-1.98-1.98c0-0.39,0.181-0.84,0.42-1.11c-0.239-0.33-1.05-0.9-2.34-0.9c-1.5,0-3.359,1.23-3.359,4.11
		c0,2.52,1.92,4.11,4.26,4.11c1.59,0,2.97-0.45,4.68-1.38l-0.27,2.94c-1.41,0.81-2.761,1.2-4.681,1.2
		C31.168,25.272,28.048,22.572,28.048,18.342z"/>
	<path fill="#6D6E70" d="M46.229,19.572c0.45,2.04,2.13,2.94,4.32,2.94c1.59,0,3.24-0.51,4.77-1.38l-0.27,2.94
		c-1.38,0.81-3.061,1.2-4.98,1.2c-4.289,0-7.26-2.7-7.26-6.78c0-3.72,2.61-6.84,6.66-6.84c4.2,0,6.39,2.82,6.39,6.3
		c0,0.51-0.06,1.17-0.149,1.62L46.229,19.572L46.229,19.572z M46.2,17.292h6.39c-0.061-1.8-1.23-3-3.15-3
		C47.999,14.292,46.559,15.133,46.2,17.292z"/>
	<path fill="#6D6E70" d="M57.57,22.332h2.04v-16.5h-2.04v-2.76h5.31v19.26h1.95v2.7h-7.26V22.332z"/>
	<path fill="#6D6E70" d="M66.419,22.332h2.04v-16.5h-2.04v-2.76h5.31v19.26h1.95v2.7h-7.26V22.332z"/>
	<path fill="#6D6E70" d="M84.839,16.573c-1.05,0-1.77-0.63-1.77-1.62c0-0.21,0-0.39,0.06-0.57c-0.54-0.21-1.2-0.33-1.86-0.33
		c-1.47,0-2.189,0.66-2.189,1.35c0,0.75,0.75,1.14,2.76,1.68c3.15,0.84,4.979,1.62,4.979,3.99c0,2.76-2.579,4.23-5.55,4.23
		c-2.01,0-4.169-0.72-5.039-1.59c-0.54-0.54-0.75-1.08-0.75-1.77c0-0.96,0.72-1.77,1.739-1.77c0.9,0,1.771,0.6,1.771,1.74
		c0,0.18-0.03,0.36-0.061,0.54c0.601,0.24,1.44,0.42,2.37,0.42c1.32,0,2.4-0.45,2.4-1.41c0-0.66-0.57-1.05-2.58-1.59
		c-3.63-0.96-5.16-1.83-5.16-4.08c0-2.04,1.68-4.17,5.37-4.17c1.59,0,3.51,0.6,4.41,1.5c0.479,0.48,0.72,1.05,0.72,1.68
		C86.459,15.852,85.799,16.573,84.839,16.573z"/>
	<path fill="#6D6E70" d="M95.399,22.332h1.949v-16.5h-1.949v-2.76h5.22v14.729l3.84-3.3h-1.83v-2.61h7.77v2.76h-2.43l-3.06,2.58
		l3.329,5.04h2.16v2.761h-4.109l-3.78-5.91l-1.89,1.59v1.68h1.649v2.64h-6.869L95.399,22.332L95.399,22.332z"/>
	<path fill="#6D6E70" d="M112.138,22.332h2.01v-7.68h-2.01v-2.76h5.28v10.44h1.949v2.7h-7.229V22.332z M113.278,7.723
		c0-1.2,1.05-2.16,2.221-2.16c1.17,0,2.159,0.96,2.159,2.16s-1.05,2.16-2.22,2.16S113.278,8.923,113.278,7.723z"/>
	<path fill="#6D6E70" d="M121.108,22.332h2.04v-16.5h-2.04v-2.76h5.31v19.26h1.95v2.7h-7.26V22.332z"/>
	<path fill="#6D6E70" d="M129.958,22.332h2.04v-16.5h-2.04v-2.76h5.31v19.26h1.95v2.7h-7.26V22.332z"/>
	<path fill="#6D6E70" d="M147.897,23.472c-0.3-0.54-0.449-1.23-0.449-2.07v-6.75h-2.551v-2.76h2.551v-2.76l3.239-1.41v4.169h3.99
		v2.76h-3.99v6.12c0,0.42,0.061,0.69,0.21,0.96c0.24,0.42,0.72,0.63,1.38,0.63c0.84,0,1.8-0.33,2.58-0.69l-0.27,2.82
		c-0.9,0.45-1.95,0.78-3.15,0.78C149.847,25.272,148.557,24.732,147.897,23.472z"/>
	<path fill="#6D6E70" d="M158.787,23.532c-0.42-0.69-0.66-1.59-0.66-2.64v-6.24h-1.95v-2.76h5.221v8.19c0,0.57,0.09,0.99,0.27,1.35
		c0.3,0.57,0.84,0.87,1.62,0.87c1.14,0,2.34-0.66,3.39-1.53v-6.12h-2.04v-2.76h5.31v10.44h1.95v2.7h-5.1v-2.1
		c-1.26,1.23-2.67,2.34-4.59,2.34C160.617,25.272,159.447,24.612,158.787,23.532z"/>
	<path fill="#6D6E70" d="M173.607,22.332h1.95v-7.68h-1.95v-2.76h5.1v2.07c1.021-1.11,2.46-2.31,4.41-2.31
		c1.41,0,2.46,0.54,3.12,1.41c0.18,0.24,0.3,0.48,0.42,0.75c1.229-1.2,2.7-2.16,4.38-2.16c1.83,0,3.09,0.66,3.75,1.89
		c0.359,0.66,0.54,1.5,0.54,2.46v6.33h1.949v2.7h-6.989v-2.7h1.77v-5.55c0-0.51-0.06-0.9-0.21-1.23c-0.27-0.63-0.81-0.93-1.56-0.93
		c-1.08,0-2.22,0.63-3.21,1.47v6.24h1.77v2.7h-6.839v-2.7h1.8v-5.55c0-0.51-0.061-0.9-0.21-1.23c-0.271-0.63-0.78-0.93-1.561-0.93
		c-1.08,0-2.22,0.63-3.21,1.47v6.24h1.74v2.7h-6.96L173.607,22.332L173.607,22.332z"/>
	<path fill="#6D6E70" d="M198.567,18.462c0-3.6,2.7-6.81,6.99-6.81c4.35,0,6.989,3.15,6.989,6.81c0,3.6-2.699,6.81-6.989,6.81
		C201.207,25.272,198.567,22.122,198.567,18.462z M209.187,18.462c0-2.4-1.5-4.08-3.63-4.08s-3.63,1.68-3.63,4.08
		s1.5,4.08,3.63,4.08S209.187,20.862,209.187,18.462z"/>
	<path fill="#6D6E70" d="M226.197,13.812c0,1.11-0.87,2.04-1.95,2.04c-0.99,0-1.65-0.57-1.92-1.17c-0.93,0.33-2.01,1.35-2.61,2.49
		v5.16h2.28v2.7h-7.5v-2.7h1.95v-7.68h-1.95v-2.76h5.1v2.97c1.11-1.77,2.49-3.21,4.17-3.21
		C225.386,11.653,226.197,12.642,226.197,13.812z"/>
	<path fill="#6D6E70" d="M236.876,16.573c-1.05,0-1.77-0.63-1.77-1.62c0-0.21,0-0.39,0.06-0.57c-0.54-0.21-1.2-0.33-1.86-0.33
		c-1.47,0-2.189,0.66-2.189,1.35c0,0.75,0.75,1.14,2.76,1.68c3.15,0.84,4.979,1.62,4.979,3.99c0,2.76-2.579,4.23-5.55,4.23
		c-2.01,0-4.169-0.72-5.039-1.59c-0.54-0.54-0.75-1.08-0.75-1.77c0-0.96,0.72-1.77,1.739-1.77c0.9,0,1.771,0.6,1.771,1.74
		c0,0.18-0.03,0.36-0.061,0.54c0.601,0.24,1.44,0.42,2.37,0.42c1.32,0,2.4-0.45,2.4-1.41c0-0.66-0.57-1.05-2.58-1.59
		c-3.63-0.96-5.16-1.83-5.16-4.08c0-2.04,1.68-4.17,5.37-4.17c1.59,0,3.51,0.6,4.41,1.5c0.479,0.48,0.72,1.05,0.72,1.68
		C238.497,15.852,237.836,16.573,236.876,16.573z"/>
	<path fill="#6D6E70" d="M241.437,22.812c0-1.38,1.11-2.49,2.46-2.49s2.46,1.11,2.46,2.49c0,1.35-1.11,2.46-2.46,2.46
		C242.547,25.272,241.437,24.162,241.437,22.812z"/>
</g>
</svg>
