<svg version="1.1" id="Layer_1" xmlns="http://www.w3.org/2000/svg" xmlns:xlink="http://www.w3.org/1999/xlink" x="0px" y="0px"
	 width="461px" height="28.375px" viewBox="146.5 548.125 461 28.375" enable-background="new 146.5 548.125 461 28.375"
	 xml:space="preserve">
<g>
	<g>
		<path fill="#6D6E70" d="M146.5,559.493c0-5.79,4.2-10.23,10.199-10.23c5.97,0,10.05,4.471,10.05,10.23
			c0,5.789-4.199,10.229-10.199,10.229C150.58,569.721,146.5,565.253,146.5,559.493z M163.239,559.493c0-4.11-2.79-7.08-6.6-7.08
			c-3.84,0-6.63,2.939-6.63,7.08c0,4.109,2.79,7.079,6.63,7.079C160.449,566.572,163.239,563.632,163.239,559.493z"/>
		<path fill="#6D6E70" d="M168.91,572.542h1.949v-13.559h-1.949v-2.761h5.1v1.5c1.02-0.96,2.13-1.739,3.899-1.739
			c3.42,0,6,2.789,6,6.749c0,3.81-2.729,6.87-6.21,6.87c-1.409,0-2.58-0.51-3.569-1.26v4.199h2.13v2.7h-7.35V572.542z
			 M180.55,562.762c0-2.52-1.5-3.96-3.36-3.96c-1.229,0-2.189,0.54-3.06,1.319v5.641c0.84,0.6,1.859,1.02,3.06,1.02
			C178.93,566.782,180.55,565.372,180.55,562.762z"/>
		<path fill="#6D6E70" d="M188.199,567.801c-0.3-0.539-0.449-1.229-0.449-2.069v-6.749h-2.551v-2.761h2.551v-2.76l3.239-1.409v4.169
			h3.99v2.761h-3.99v6.119c0,0.42,0.061,0.689,0.21,0.96c0.24,0.42,0.72,0.63,1.38,0.63c0.84,0,1.8-0.33,2.58-0.689l-0.27,2.819
			c-0.9,0.45-1.95,0.78-3.15,0.78C190.149,569.602,188.859,569.062,188.199,567.801z"/>
		<path fill="#6D6E70" d="M196.96,566.663h2.01v-7.68h-2.01v-2.761h5.279v10.44h1.95v2.699h-7.229V566.663z M198.1,552.053
			c0-1.201,1.05-2.16,2.22-2.16c1.171,0,2.16,0.959,2.16,2.16c0,1.199-1.05,2.159-2.22,2.159S198.1,553.253,198.1,552.053z"/>
		<path fill="#6D6E70" d="M215.499,560.903c-1.05,0-1.77-0.631-1.77-1.621c0-0.209,0-0.39,0.06-0.569c-0.54-0.21-1.2-0.33-1.86-0.33
			c-1.47,0-2.189,0.66-2.189,1.351c0,0.749,0.75,1.139,2.76,1.68c3.15,0.84,4.979,1.619,4.979,3.989c0,2.76-2.579,4.229-5.55,4.229
			c-2.01,0-4.169-0.72-5.039-1.59c-0.54-0.539-0.75-1.08-0.75-1.77c0-0.96,0.72-1.77,1.739-1.77c0.9,0,1.771,0.6,1.771,1.739
			c0,0.181-0.03,0.36-0.061,0.54c0.601,0.24,1.44,0.42,2.37,0.42c1.32,0,2.4-0.449,2.4-1.41c0-0.66-0.57-1.049-2.58-1.59
			c-3.63-0.959-5.16-1.83-5.16-4.08c0-2.039,1.681-4.17,5.37-4.17c1.59,0,3.51,0.601,4.41,1.5c0.479,0.48,0.72,1.051,0.72,1.681
			C217.119,560.182,216.459,560.903,215.499,560.903z"/>
		<path fill="#6D6E70" d="M221.949,567.801c-0.3-0.539-0.449-1.229-0.449-2.069v-6.749h-2.551v-2.761h2.551v-2.76l3.239-1.409v4.169
			h3.99v2.761h-3.99v6.119c0,0.42,0.061,0.689,0.21,0.96c0.24,0.42,0.72,0.63,1.38,0.63c0.84,0,1.8-0.33,2.58-0.689l-0.27,2.819
			c-0.9,0.45-1.95,0.78-3.15,0.78C223.899,569.602,222.609,569.062,221.949,567.801z"/>
		<path fill="#6D6E70" d="M230.799,565.913c0-2.461,2.16-3.961,5.28-3.961c1.35,0,2.609,0.181,3.329,0.36v-1.05
			c0-0.78-0.18-1.38-0.51-1.8c-0.54-0.69-1.41-0.96-2.58-0.96c-0.569,0-0.989,0.09-1.29,0.21c0.061,0.18,0.12,0.479,0.12,0.659
			c0,0.99-0.779,1.711-1.77,1.711s-1.74-0.69-1.74-1.771c0-1.62,1.65-3.329,5.22-3.329c2.25,0,3.78,0.629,4.71,1.77
			c0.69,0.84,1.021,1.98,1.021,3.3v5.61h1.949v2.699h-5.069v-1.439c-1.05,0.899-2.64,1.68-4.41,1.68
			C232.809,569.602,230.799,568.372,230.799,565.913z M239.408,566.062v-2.069c-0.75-0.181-1.68-0.301-2.699-0.301
			c-1.59,0-2.55,0.721-2.55,1.92c0,1.051,0.779,1.62,1.949,1.62S238.419,566.782,239.408,566.062z"/>
		<path fill="#6D6E70" d="M246.159,558.983h-1.529v-2.761h6.72v2.61h-1.891l3.15,6.84l3.149-6.84h-1.979v-2.61h6.689v2.761h-1.53
			l-5.22,10.619h-2.34L246.159,558.983z"/>
		<path fill="#6D6E70" d="M261.579,566.663h2.01v-7.68h-2.01v-2.761h5.279v10.44h1.95v2.699h-7.229V566.663z M262.719,552.053
			c0-1.201,1.05-2.16,2.22-2.16c1.171,0,2.16,0.959,2.16,2.16c0,1.199-1.05,2.159-2.22,2.159
			C263.709,554.212,262.719,553.253,262.719,552.053z"/>
		<path fill="#6D6E70" d="M275.798,558.323c1.261-1.23,2.67-2.34,4.59-2.34c1.561,0,2.7,0.629,3.391,1.68
			c0.449,0.72,0.689,1.619,0.689,2.699v6.301h1.95v2.699h-7.02v-2.699h1.8v-5.49c0-0.54-0.09-1.02-0.271-1.35
			c-0.3-0.57-0.84-0.871-1.619-0.871c-1.141,0-2.341,0.66-3.391,1.53v6.181h1.8v2.699h-7.02v-2.699h1.95v-7.68h-1.95v-2.761h5.1
			L275.798,558.323L275.798,558.323z"/>
		<path fill="#6D6E70" d="M296.768,567.801c-0.3-0.539-0.449-1.229-0.449-2.069v-6.749h-2.551v-2.761h2.551v-2.76l3.239-1.409v4.169
			h3.99v2.761h-3.99v6.119c0,0.42,0.061,0.689,0.21,0.96c0.24,0.42,0.72,0.63,1.38,0.63c0.84,0,1.8-0.33,2.58-0.689l-0.27,2.819
			c-0.9,0.45-1.95,0.78-3.15,0.78C298.718,569.602,297.428,569.062,296.768,567.801z"/>
		<path fill="#6D6E70" d="M305.618,565.913c0-2.461,2.16-3.961,5.28-3.961c1.35,0,2.609,0.181,3.329,0.36v-1.05
			c0-0.78-0.18-1.38-0.51-1.8c-0.54-0.69-1.41-0.96-2.58-0.96c-0.569,0-0.989,0.09-1.289,0.21c0.06,0.18,0.119,0.479,0.119,0.659
			c0,0.99-0.779,1.711-1.77,1.711c-0.991,0-1.74-0.69-1.74-1.771c0-1.62,1.65-3.329,5.22-3.329c2.25,0,3.78,0.629,4.71,1.77
			c0.69,0.84,1.021,1.98,1.021,3.3v5.61h1.949v2.699h-5.069v-1.439c-1.05,0.899-2.64,1.68-4.41,1.68
			C307.628,569.602,305.618,568.372,305.618,565.913z M314.227,566.062v-2.069c-0.75-0.181-1.68-0.301-2.699-0.301
			c-1.59,0-2.55,0.721-2.55,1.92c0,1.051,0.779,1.62,1.949,1.62C312.097,567.232,313.238,566.782,314.227,566.062z"/>
		<path fill="#6D6E70" d="M332.468,558.142c0,1.11-0.87,2.04-1.95,2.04c-0.99,0-1.65-0.57-1.92-1.17c-0.93,0.33-2.01,1.35-2.61,2.49
			v5.16h2.28v2.699h-7.5v-2.699h1.95v-7.68h-1.95v-2.761h5.1v2.97c1.11-1.77,2.49-3.209,4.17-3.209
			C331.657,555.983,332.468,556.972,332.468,558.142z"/>
		<path fill="#6D6E70" d="M346.507,569.391c0,1.621-0.42,2.971-1.229,3.961c-1.08,1.319-2.79,2.01-4.92,2.01
			c-2.28,0-4.23-0.721-5.16-1.65c-0.51-0.51-0.72-1.08-0.72-1.71c0-0.93,0.689-1.829,1.77-1.829c1.021,0,1.83,0.719,1.83,1.709
			c0,0.15-0.03,0.391-0.06,0.51c0.54,0.181,1.17,0.33,1.949,0.33c1.17,0,2.101-0.359,2.67-1.14c0.391-0.54,0.601-1.29,0.601-2.28
			v-1.889c-0.99,0.989-2.04,1.68-3.78,1.68c-3.33,0-6-2.551-6-6.45c0-3.75,2.73-6.659,6.15-6.659c1.68,0,2.88,0.659,3.75,1.409
			v-1.17h5.1v2.761h-1.95L346.507,569.391L346.507,569.391z M336.817,562.612c0,2.4,1.47,3.721,3.479,3.721
			c1.11,0,2.101-0.511,2.94-1.291v-5.219c-0.78-0.601-1.771-1.021-2.94-1.021C338.287,558.802,336.817,560.122,336.817,562.612z"/>
		<path fill="#6D6E70" d="M353.587,563.902c0.45,2.04,2.13,2.94,4.32,2.94c1.59,0,3.24-0.51,4.77-1.381l-0.27,2.94
			c-1.38,0.81-3.061,1.2-4.98,1.2c-4.289,0-7.26-2.7-7.26-6.779c0-3.721,2.61-6.84,6.66-6.84c4.2,0,6.39,2.819,6.39,6.299
			c0,0.51-0.06,1.17-0.149,1.62L353.587,563.902L353.587,563.902z M353.558,561.622h6.39c-0.061-1.799-1.23-3-3.15-3
			C355.357,558.622,353.917,559.463,353.558,561.622z"/>
		<path fill="#6D6E70" d="M367.417,567.801c-0.3-0.539-0.449-1.229-0.449-2.069v-6.749h-2.551v-2.761h2.551v-2.76l3.239-1.409v4.169
			h3.99v2.761h-3.99v6.119c0,0.42,0.061,0.689,0.21,0.96c0.24,0.42,0.72,0.63,1.38,0.63c0.84,0,1.8-0.33,2.58-0.689l-0.27,2.819
			c-0.9,0.45-1.95,0.78-3.15,0.78C369.367,569.602,368.077,569.062,367.417,567.801z"/>
		<path fill="#6D6E70" d="M385.776,560.903c-1.05,0-1.77-0.631-1.77-1.621c0-0.209,0-0.39,0.06-0.569c-0.54-0.21-1.2-0.33-1.86-0.33
			c-1.47,0-2.189,0.66-2.189,1.351c0,0.749,0.75,1.139,2.76,1.68c3.15,0.84,4.979,1.619,4.979,3.989c0,2.76-2.579,4.229-5.55,4.229
			c-2.01,0-4.169-0.72-5.039-1.59c-0.54-0.539-0.75-1.08-0.75-1.77c0-0.96,0.72-1.77,1.739-1.77c0.9,0,1.771,0.6,1.771,1.739
			c0,0.181-0.03,0.36-0.061,0.54c0.601,0.24,1.44,0.42,2.37,0.42c1.32,0,2.4-0.449,2.4-1.41c0-0.66-0.57-1.049-2.58-1.59
			c-3.63-0.959-5.16-1.83-5.16-4.08c0-2.039,1.681-4.17,5.37-4.17c1.59,0,3.51,0.601,4.41,1.5c0.479,0.48,0.72,1.051,0.72,1.681
			C387.396,560.182,386.736,560.903,385.776,560.903z"/>
		<path fill="#6D6E70" d="M400.656,566.333h2.46v-13.77h-3.66v3.119h-3.209v-6.06h17.129v6.06h-3.21v-3.119h-3.66v13.77h2.46v3.029
			h-8.31L400.656,566.333L400.656,566.333z"/>
		<path fill="#6D6E70" d="M415.176,566.333h2.249v-13.68h-2.249v-3.03h7.649c4.529,0,7.77,1.95,7.77,5.97c0,2.55-1.56,4.5-3.72,5.37
			l3.03,5.37h2.249v3.029h-4.56l-3.96-7.5c-0.42,0.03-0.81,0.061-1.199,0.061c-0.631,0-1.2,0-1.62-0.03v4.44h2.46v3.029h-8.1v-3.029
			H415.176z M427.085,555.713c0-2.069-1.71-3.06-4.439-3.06h-1.83v6.33c0.359,0.029,0.84,0.06,1.92,0.06
			C425.285,559.043,427.085,557.782,427.085,555.713z"/>
		<path fill="#6D6E70" d="M433.775,559.192h8.7v3.36h-8.7V559.192z"/>
		<path fill="#6D6E70" d="M444.846,566.333h2.249v-13.68h-2.249v-3.03h8.249v3.03h-2.609v13.709h5.43v-2.789h3.27v5.789h-14.339
			L444.846,566.333L444.846,566.333z"/>
		<path fill="#6D6E70" d="M470.315,567.982h-8.64l-0.75-1.62l10.05-13.319l2.37,1.89l-7.83,10.35h4.8v-3.39l3.18-1.26v4.649h2.94
			v2.7h-2.94v4.979h-3.18L470.315,567.982L470.315,567.982z"/>
		<path fill="#6D6E70" d="M478.505,567.142c0-1.38,1.11-2.49,2.46-2.49c1.35,0,2.46,1.11,2.46,2.49c0,1.35-1.11,2.46-2.46,2.46
			C479.615,569.602,478.505,568.492,478.505,567.142z"/>
	</g>
</g>
</svg>
