<?xml version="1.0" encoding="utf-8"?>
<!-- Generator: Adobe Illustrator 17.0.1, SVG Export Plug-In . SVG Version: 6.00 Build 0)  -->
<!DOCTYPE svg PUBLIC "-//W3C//DTD SVG 1.1//EN" "http://www.w3.org/Graphics/SVG/1.1/DTD/svg11.dtd">
<svg version="1.1" id="Layer_1" xmlns="http://www.w3.org/2000/svg" xmlns:xlink="http://www.w3.org/1999/xlink" x="0px" y="0px"
	 width="501.75px" height="88.347px" viewBox="0 0 501.75 88.347" enable-background="new 0 0 501.75 88.347" xml:space="preserve">
<g id="_x31_1.0_Mechanism_of_action__x28_Part_1_x29_">
	<g enable-background="new    ">
		<path fill="#60A296" d="M0.72,20.734c0-9.266,6.721-16.37,16.322-16.37c9.553,0,16.081,7.153,16.081,16.37
			c0,9.265-6.72,16.369-16.321,16.369C7.249,37.103,0.72,29.951,0.72,20.734z M27.506,20.734c0-6.577-4.464-11.329-10.561-11.329
			c-6.145,0-10.609,4.704-10.609,11.329c0,6.576,4.464,11.328,10.609,11.328C23.042,32.062,27.506,27.358,27.506,20.734z"/>
		<path fill="#60A296" d="M36.576,41.616h3.12V19.918h-3.12v-4.416h8.161v2.399c1.632-1.536,3.408-2.784,6.241-2.784
			c5.472,0,9.601,4.465,9.601,10.801c0,6.097-4.368,10.993-9.937,10.993c-2.256,0-4.128-0.815-5.712-2.016v6.721h3.408v4.32H36.577
			L36.576,41.616L36.576,41.616z M55.201,25.966c0-4.033-2.4-6.337-5.376-6.337c-1.968,0-3.504,0.864-4.896,2.112v9.024
			c1.344,0.96,2.976,1.633,4.896,1.633C52.609,32.399,55.201,30.142,55.201,25.966z"/>
		<path fill="#60A296" d="M67.44,34.031c-0.48-0.864-0.72-1.969-0.72-3.312V19.918h-4.08v-4.416h4.08v-4.417l5.185-2.256v6.673
			h6.385v4.416h-6.385v9.793c0,0.672,0.096,1.104,0.336,1.536c0.384,0.672,1.152,1.008,2.208,1.008c1.344,0,2.88-0.528,4.128-1.104
			l-0.432,4.513c-1.44,0.721-3.121,1.248-5.041,1.248C70.56,36.911,68.496,36.047,67.44,34.031z"/>
		<path fill="#60A296" d="M81.455,32.207h3.216V19.918h-3.216v-4.416h8.449v16.705h3.12v4.32H81.455V32.207z M83.279,8.829
			c0-1.92,1.68-3.456,3.552-3.456s3.457,1.536,3.457,3.456s-1.68,3.456-3.553,3.456C84.863,12.285,83.279,10.749,83.279,8.829z"/>
		<path fill="#60A296" d="M111.121,22.99c-1.68,0-2.832-1.008-2.832-2.592c0-0.337,0-0.625,0.096-0.912
			c-0.864-0.337-1.92-0.528-2.976-0.528c-2.353,0-3.504,1.056-3.504,2.16c0,1.2,1.2,1.824,4.417,2.688
			c5.041,1.344,7.969,2.592,7.969,6.384c0,4.417-4.128,6.769-8.881,6.769c-3.216,0-6.673-1.151-8.065-2.544
			c-0.864-0.864-1.2-1.728-1.2-2.832c0-1.536,1.152-2.832,2.784-2.832c1.44,0,2.832,0.96,2.832,2.784
			c0,0.288-0.048,0.576-0.096,0.864c0.96,0.384,2.304,0.672,3.792,0.672c2.112,0,3.84-0.721,3.84-2.257
			c0-1.056-0.912-1.68-4.128-2.544c-5.809-1.536-8.257-2.928-8.257-6.528c0-3.265,2.688-6.673,8.593-6.673
			c2.544,0,5.617,0.96,7.057,2.4c0.768,0.768,1.152,1.68,1.152,2.688C113.713,21.838,112.657,22.99,111.121,22.99z"/>
		<path fill="#60A296" d="M121.439,34.031c-0.48-0.864-0.72-1.969-0.72-3.312V19.918h-4.08v-4.416h4.08v-4.417l5.185-2.256v6.673
			h6.385v4.416h-6.385v9.793c0,0.672,0.096,1.104,0.336,1.536c0.384,0.672,1.152,1.008,2.208,1.008c1.344,0,2.88-0.528,4.128-1.104
			l-0.432,4.513c-1.44,0.721-3.121,1.248-5.041,1.248C124.56,36.911,122.496,36.047,121.439,34.031z"/>
		<path fill="#60A296" d="M135.598,31.006c0-3.937,3.456-6.337,8.449-6.337c2.16,0,4.176,0.288,5.329,0.576v-1.68
			c0-1.248-0.288-2.208-0.816-2.881c-0.864-1.104-2.256-1.536-4.128-1.536c-0.912,0-1.584,0.145-2.064,0.337
			c0.096,0.287,0.192,0.768,0.192,1.056c0,1.584-1.248,2.736-2.832,2.736c-1.584,0-2.784-1.104-2.784-2.832
			c0-2.593,2.64-5.329,8.353-5.329c3.601,0,6.048,1.009,7.537,2.833c1.104,1.344,1.632,3.168,1.632,5.28v8.977h3.12v4.32h-8.113
			v-2.305c-1.68,1.44-4.224,2.688-7.057,2.688C138.814,36.911,135.598,34.943,135.598,31.006z M149.376,31.247v-3.312
			c-1.2-0.288-2.688-0.48-4.321-0.48c-2.544,0-4.08,1.152-4.08,3.072c0,1.681,1.248,2.593,3.12,2.593
			C145.967,33.12,147.791,32.399,149.376,31.247z"/>
		<path fill="#60A296" d="M160.175,19.918h-2.448v-4.416h10.753v4.176h-3.024l5.041,10.945l5.041-10.945h-3.168v-4.176h10.705v4.416
			h-2.448l-8.353,16.993h-3.744L160.175,19.918z"/>
		<path fill="#60A296" d="M184.846,32.207h3.216V19.918h-3.216v-4.416h8.449v16.705h3.12v4.32h-11.569V32.207z M186.67,8.829
			c0-1.92,1.68-3.456,3.552-3.456s3.457,1.536,3.457,3.456s-1.68,3.456-3.553,3.456C188.254,12.285,186.67,10.749,186.67,8.829z"/>
		<path fill="#60A296" d="M207.598,18.861c2.016-1.968,4.272-3.744,7.345-3.744c2.496,0,4.32,1.009,5.424,2.688
			c0.72,1.152,1.104,2.593,1.104,4.32v10.081h3.12v4.32h-11.233v-4.32h2.88v-8.785c0-0.863-0.144-1.632-0.432-2.16
			c-0.48-0.912-1.344-1.392-2.592-1.392c-1.824,0-3.744,1.056-5.424,2.448v9.889h2.88v4.32h-11.233v-4.32h3.12V19.917h-3.12v-4.416
			h8.161V18.861z"/>
		<path fill="#60A296" d="M237.165,5.804V1.388h8.353v17.281c1.968-1.872,4.177-3.553,7.153-3.553c2.256,0,4.032,0.816,5.136,2.257
			c0.912,1.2,1.393,2.832,1.393,4.752v10.081h3.12v4.32h-11.233v-4.32h2.88v-8.785c0-1.151-0.24-1.968-0.672-2.544
			c-0.528-0.672-1.344-1.008-2.352-1.008c-1.824,0-3.745,1.056-5.425,2.448v9.889h2.88v4.32h-11.233v-4.32h3.12V5.804H237.165z"/>
		<path fill="#60A296" d="M264.429,31.006c0-3.937,3.456-6.337,8.449-6.337c2.16,0,4.176,0.288,5.329,0.576v-1.68
			c0-1.248-0.288-2.208-0.816-2.881c-0.864-1.104-2.256-1.536-4.128-1.536c-0.912,0-1.584,0.145-2.064,0.337
			c0.096,0.287,0.192,0.768,0.192,1.056c0,1.584-1.248,2.736-2.832,2.736s-2.784-1.104-2.784-2.832c0-2.593,2.64-5.329,8.353-5.329
			c3.601,0,6.048,1.009,7.537,2.833c1.104,1.344,1.632,3.168,1.632,5.28v8.977h3.12v4.32h-8.113v-2.305
			c-1.68,1.44-4.224,2.688-7.057,2.688C267.646,36.911,264.429,34.943,264.429,31.006z M278.207,31.247v-3.312
			c-1.2-0.288-2.688-0.48-4.321-0.48c-2.544,0-4.08,1.152-4.08,3.072c0,1.681,1.248,2.593,3.12,2.593
			C274.798,33.12,276.622,32.399,278.207,31.247z"/>
		<path fill="#60A296" d="M303.742,22.99c-1.68,0-2.832-1.008-2.832-2.592c0-0.337,0-0.625,0.096-0.912
			c-0.864-0.337-1.92-0.528-2.976-0.528c-2.352,0-3.504,1.056-3.504,2.16c0,1.2,1.2,1.824,4.417,2.688
			c5.041,1.344,7.969,2.592,7.969,6.384c0,4.417-4.128,6.769-8.881,6.769c-3.216,0-6.673-1.151-8.065-2.544
			c-0.864-0.864-1.2-1.728-1.2-2.832c0-1.536,1.152-2.832,2.785-2.832c1.44,0,2.832,0.96,2.832,2.784
			c0,0.288-0.048,0.576-0.096,0.864c0.96,0.384,2.304,0.672,3.792,0.672c2.112,0,3.84-0.721,3.84-2.257
			c0-1.056-0.912-1.68-4.128-2.544c-5.809-1.536-8.256-2.928-8.256-6.528c0-3.265,2.688-6.673,8.592-6.673
			c2.544,0,5.617,0.96,7.057,2.4c0.768,0.768,1.151,1.68,1.151,2.688C306.335,21.838,305.278,22.99,303.742,22.99z"/>
		<path fill="#60A296" d="M321.068,31.006c0-3.937,3.456-6.337,8.449-6.337c2.16,0,4.176,0.288,5.329,0.576v-1.68
			c0-1.248-0.288-2.208-0.816-2.881c-0.864-1.104-2.256-1.536-4.128-1.536c-0.912,0-1.584,0.145-2.063,0.337
			c0.096,0.287,0.191,0.768,0.191,1.056c0,1.584-1.248,2.736-2.832,2.736s-2.784-1.104-2.784-2.832c0-2.593,2.641-5.329,8.354-5.329
			c3.601,0,6.048,1.009,7.537,2.833c1.104,1.344,1.632,3.168,1.632,5.28v8.977h3.12v4.32h-8.113v-2.305
			c-1.68,1.44-4.224,2.688-7.057,2.688C324.284,36.911,321.068,34.943,321.068,31.006z M334.845,31.247v-3.312
			c-1.2-0.288-2.688-0.48-4.321-0.48c-2.544,0-4.08,1.152-4.08,3.072c0,1.681,1.248,2.593,3.12,2.593S333.261,32.399,334.845,31.247
			z"/>
		<path fill="#60A296" d="M359.323,34.127c-0.672-1.104-1.056-2.544-1.056-4.225v-9.984h-3.12v-4.416h8.353v13.104
			c0,0.912,0.145,1.584,0.433,2.16c0.479,0.912,1.344,1.393,2.592,1.393c1.824,0,3.744-1.057,5.424-2.448v-9.793h-3.264v-4.416
			h8.497v16.705h3.121v4.32h-8.161v-3.36c-2.017,1.968-4.272,3.744-7.345,3.744C362.251,36.911,360.379,35.855,359.323,34.127z"/>
		<path fill="#60A296" d="M391.195,18.861c2.016-1.968,4.272-3.744,7.345-3.744c2.496,0,4.32,1.009,5.425,2.688
			c0.72,1.152,1.104,2.593,1.104,4.32v10.081h3.12v4.32h-11.233v-4.32h2.88v-8.785c0-0.863-0.144-1.632-0.432-2.16
			c-0.479-0.912-1.344-1.392-2.592-1.392c-1.824,0-3.744,1.056-5.424,2.448v9.889h2.88v4.32h-11.233v-4.32h3.12V19.917h-3.12v-4.416
			h8.161L391.195,18.861L391.195,18.861z"/>
		<path fill="#60A296" d="M410.49,32.207h3.216V19.918h-3.216v-4.416h8.449v16.705h3.12v4.32H410.49V32.207z M412.314,8.829
			c0-1.92,1.68-3.456,3.552-3.456s3.457,1.536,3.457,3.456s-1.681,3.456-3.553,3.456S412.314,10.749,412.314,8.829z"/>
		<path fill="#60A296" d="M437.371,41.519h3.793v-7.297c-1.536,1.488-3.504,2.688-6.192,2.688c-5.568,0-9.744-4.464-9.744-10.801
			c0-6.097,4.416-10.993,10.08-10.993c2.688,0,4.608,0.96,6.385,2.4l1.152-2.16h3.553v26.162h3.168v4.417h-12.193L437.371,41.519
			L437.371,41.519z M441.164,30.287v-9.025c-1.393-0.96-3.023-1.632-4.991-1.632c-2.93,0-5.568,2.256-5.568,6.433
			c0,4.032,2.496,6.337,5.568,6.337C438.139,32.399,439.723,31.535,441.164,30.287z"/>
		<path fill="#60A296" d="M454.074,34.127c-0.672-1.104-1.056-2.544-1.056-4.225v-9.984h-3.12v-4.416h8.354v13.104
			c0,0.912,0.144,1.584,0.433,2.16c0.479,0.912,1.344,1.393,2.592,1.393c1.824,0,3.744-1.057,5.424-2.448v-9.793h-3.264v-4.416
			h8.496v16.705h3.121v4.32h-8.16v-3.36c-2.019,1.968-4.273,3.744-7.346,3.744C457.001,36.911,455.13,35.855,454.074,34.127z"/>
		<path fill="#60A296" d="M483.402,27.791c0.721,3.264,3.408,4.704,6.913,4.704c2.544,0,5.185-0.816,7.633-2.208l-0.433,4.704
			c-2.207,1.296-4.896,1.92-7.969,1.92c-6.863,0-11.616-4.32-11.616-10.849c0-5.952,4.177-10.945,10.657-10.945
			c6.721,0,10.225,4.513,10.225,10.081c0,0.816-0.096,1.872-0.24,2.593C498.572,27.791,483.402,27.791,483.402,27.791z
			 M483.355,24.142h10.225c-0.096-2.881-1.969-4.801-5.041-4.801C486.235,19.341,483.931,20.685,483.355,24.142z"/>
	</g>
	<g enable-background="new    ">
		<path fill="#60A296" d="M0,82.207h3.12V69.918H0v-4.416h8.161v3.312c1.632-1.775,3.936-3.696,7.057-3.696
			c2.256,0,3.936,0.864,4.992,2.257c0.288,0.384,0.48,0.768,0.672,1.2c1.968-1.921,4.32-3.457,7.008-3.457
			c2.928,0,4.944,1.057,6,3.024c0.576,1.057,0.864,2.4,0.864,3.937v10.129h3.12v4.32H26.689v-4.32h2.833v-8.881
			c0-0.816-0.096-1.44-0.336-1.968c-0.432-1.009-1.296-1.488-2.497-1.488c-1.728,0-3.552,1.008-5.136,2.352v9.985h2.832v4.32H13.44
			v-4.32h2.88v-8.881c0-0.816-0.096-1.44-0.336-1.968c-0.432-1.009-1.248-1.488-2.496-1.488c-1.729,0-3.553,1.008-5.137,2.352v9.985
			h2.784v4.32H0V82.207z"/>
		<path fill="#60A296" d="M45.409,77.791c0.72,3.264,3.408,4.704,6.913,4.704c2.544,0,5.185-0.816,7.633-2.208l-0.432,4.704
			c-2.208,1.296-4.896,1.92-7.969,1.92c-6.864,0-11.617-4.32-11.617-10.849c0-5.952,4.176-10.945,10.657-10.945
			c6.721,0,10.225,4.513,10.225,10.081c0,0.816-0.096,1.872-0.24,2.593L45.409,77.791L45.409,77.791z M45.361,74.142h10.225
			c-0.096-2.881-1.968-4.801-5.041-4.801C48.241,69.341,45.937,70.685,45.361,74.142z"/>
		<path fill="#60A296" d="M63.937,75.822c0-5.473,4.416-10.705,10.657-10.705c5.76,0,9.553,3.744,9.553,7.057
			c0,2.208-1.488,3.553-3.36,3.553c-1.728,0-3.168-1.44-3.168-3.168c0-0.625,0.288-1.345,0.672-1.776
			c-0.384-0.528-1.68-1.44-3.744-1.44c-2.4,0-5.376,1.968-5.376,6.576c0,4.033,3.072,6.577,6.816,6.577
			c2.544,0,4.752-0.72,7.489-2.208l-0.432,4.704c-2.256,1.296-4.417,1.92-7.489,1.92C68.929,86.911,63.937,82.59,63.937,75.822z"/>
		<path fill="#60A296" d="M87.504,55.804v-4.416h8.353v17.281c1.968-1.872,4.177-3.553,7.153-3.553c2.256,0,4.032,0.816,5.136,2.257
			c0.912,1.2,1.393,2.832,1.393,4.752v10.081h3.12v4.32h-11.233v-4.32h2.88v-8.785c0-1.151-0.24-1.968-0.672-2.544
			c-0.528-0.672-1.344-1.008-2.352-1.008c-1.824,0-3.745,1.056-5.425,2.448v9.889h2.88v4.32H87.504v-4.32h3.12V55.804H87.504z"/>
		<path fill="#60A296" d="M114.768,81.006c0-3.937,3.456-6.337,8.449-6.337c2.16,0,4.176,0.288,5.329,0.576v-1.68
			c0-1.248-0.288-2.208-0.816-2.881c-0.864-1.104-2.256-1.536-4.128-1.536c-0.912,0-1.584,0.145-2.064,0.337
			c0.096,0.287,0.192,0.768,0.192,1.056c0,1.584-1.248,2.736-2.832,2.736s-2.784-1.104-2.784-2.832c0-2.593,2.64-5.329,8.353-5.329
			c3.601,0,6.048,1.009,7.537,2.833c1.104,1.344,1.632,3.168,1.632,5.28v8.977h3.12v4.32h-8.113v-2.305
			c-1.68,1.44-4.224,2.688-7.057,2.688C117.984,86.911,114.768,84.943,114.768,81.006z M128.545,81.247v-3.312
			c-1.2-0.288-2.688-0.48-4.321-0.48c-2.544,0-4.08,1.152-4.08,3.072c0,1.681,1.248,2.593,3.12,2.593
			C125.136,83.12,126.961,82.399,128.545,81.247z"/>
		<path fill="#60A296" d="M147.168,68.861c2.016-1.968,4.272-3.744,7.345-3.744c2.496,0,4.32,1.009,5.424,2.688
			c0.72,1.152,1.104,2.593,1.104,4.32v10.081h3.12v4.32h-11.232v-4.32h2.88v-8.785c0-0.863-0.144-1.632-0.432-2.16
			c-0.48-0.912-1.344-1.392-2.592-1.392c-1.824,0-3.744,1.056-5.424,2.448v9.889h2.88v4.32h-11.233v-4.32h3.12V69.917h-3.12v-4.416
			h8.161L147.168,68.861L147.168,68.861z"/>
		<path fill="#60A296" d="M166.464,82.207h3.216V69.918h-3.216v-4.416h8.449v16.705h3.12v4.32h-11.569V82.207z M168.288,58.829
			c0-1.92,1.68-3.456,3.552-3.456s3.457,1.536,3.457,3.456s-1.68,3.456-3.553,3.456C169.872,62.285,168.288,60.749,168.288,58.829z"
			/>
		<path fill="#60A296" d="M196.129,72.99c-1.68,0-2.832-1.008-2.832-2.592c0-0.337,0-0.625,0.096-0.912
			c-0.864-0.337-1.92-0.528-2.976-0.528c-2.352,0-3.504,1.056-3.504,2.16c0,1.2,1.2,1.824,4.417,2.688
			c5.041,1.344,7.969,2.592,7.969,6.384c0,4.417-4.128,6.769-8.881,6.769c-3.216,0-6.673-1.151-8.065-2.544
			c-0.864-0.864-1.2-1.728-1.2-2.832c0-1.536,1.152-2.832,2.785-2.832c1.44,0,2.832,0.96,2.832,2.784
			c0,0.288-0.048,0.576-0.096,0.864c0.96,0.384,2.304,0.672,3.792,0.672c2.112,0,3.84-0.721,3.84-2.257
			c0-1.056-0.912-1.68-4.128-2.544c-5.809-1.536-8.256-2.928-8.256-6.528c0-3.265,2.688-6.673,8.592-6.673
			c2.544,0,5.617,0.96,7.057,2.4c0.768,0.768,1.152,1.68,1.152,2.688C198.721,71.838,197.665,72.99,196.129,72.99z"/>
		<path fill="#60A296" d="M202.704,82.207h3.12V69.918h-3.12v-4.416h8.161v3.312c1.632-1.775,3.936-3.696,7.057-3.696
			c2.256,0,3.936,0.864,4.992,2.257c0.288,0.384,0.48,0.768,0.672,1.2c1.968-1.921,4.32-3.457,7.008-3.457
			c2.928,0,4.944,1.057,6,3.024c0.576,1.057,0.864,2.4,0.864,3.937v10.129h3.12v4.32h-11.185v-4.32h2.833v-8.881
			c0-0.816-0.096-1.44-0.336-1.968c-0.432-1.009-1.296-1.488-2.497-1.488c-1.728,0-3.552,1.008-5.136,2.352v9.985h2.832v4.32
			h-10.945v-4.32h2.88v-8.881c0-0.816-0.096-1.44-0.336-1.968c-0.432-1.009-1.248-1.488-2.497-1.488
			c-1.728,0-3.552,1.008-5.136,2.352v9.985h2.784v4.32h-11.137v-4.321H202.704z"/>
		<path fill="#60A296" d="M253.535,76.014c0-5.761,4.32-10.897,11.185-10.897c6.961,0,11.185,5.041,11.185,10.897
			c0,5.761-4.32,10.896-11.185,10.896C257.759,86.911,253.535,81.871,253.535,76.014z M270.528,76.014
			c0-3.841-2.4-6.528-5.809-6.528c-3.408,0-5.808,2.688-5.808,6.528s2.4,6.528,5.808,6.528
			C268.128,82.543,270.528,79.854,270.528,76.014z"/>
		<path fill="#60A296" d="M289.823,55.564c-0.432,0.192-0.864,0.48-1.104,0.864c-0.624,0.912-0.96,2.208-0.96,4.225v4.849h5.472
			v4.416h-5.472v12.289h4.08v4.32h-12.433v-4.32h3.168V69.918h-3.601v-4.416h3.601v-4.081c0-3.84,0.672-6.24,2.688-8.208
			c1.488-1.44,3.408-2.209,5.761-2.209c2.736,0,4.656,1.44,4.656,3.553c0,1.872-1.344,2.977-2.832,2.977
			C291.215,57.533,290.399,56.669,289.823,55.564z"/>
		<path fill="#60A296" d="M306.19,81.006c0-3.937,3.456-6.337,8.449-6.337c2.16,0,4.176,0.288,5.329,0.576v-1.68
			c0-1.248-0.288-2.208-0.816-2.881c-0.864-1.104-2.256-1.536-4.128-1.536c-0.912,0-1.584,0.145-2.063,0.337
			c0.096,0.287,0.191,0.768,0.191,1.056c0,1.584-1.248,2.736-2.832,2.736s-2.784-1.104-2.784-2.832c0-2.593,2.641-5.329,8.354-5.329
			c3.601,0,6.048,1.009,7.537,2.833c1.104,1.344,1.632,3.168,1.632,5.28v8.977h3.12v4.32h-8.113v-2.305
			c-1.68,1.44-4.224,2.688-7.057,2.688C309.406,86.911,306.19,84.943,306.19,81.006z M319.967,81.247v-3.312
			c-1.2-0.288-2.688-0.48-4.321-0.48c-2.544,0-4.08,1.152-4.08,3.072c0,1.681,1.248,2.593,3.12,2.593S318.383,82.399,319.967,81.247
			z"/>
		<path fill="#60A296" d="M330.238,75.822c0-5.473,4.416-10.705,10.657-10.705c5.761,0,9.553,3.744,9.553,7.057
			c0,2.208-1.487,3.553-3.359,3.553c-1.729,0-3.168-1.44-3.168-3.168c0-0.625,0.288-1.345,0.672-1.776
			c-0.384-0.528-1.681-1.44-3.744-1.44c-2.4,0-5.376,1.968-5.376,6.576c0,4.033,3.072,6.577,6.815,6.577
			c2.544,0,4.753-0.72,7.489-2.208l-0.432,4.704c-2.256,1.296-4.417,1.92-7.489,1.92C335.23,86.911,330.238,82.59,330.238,75.822z"
			/>
		<path fill="#60A296" d="M357.79,84.031c-0.479-0.864-0.72-1.969-0.72-3.312V69.918h-4.08v-4.416h4.08v-4.417l5.186-2.256v6.673
			h6.385v4.416h-6.385v9.793c0,0.672,0.096,1.104,0.336,1.536c0.384,0.672,1.151,1.008,2.208,1.008c1.344,0,2.88-0.528,4.128-1.104
			l-0.433,4.513c-1.439,0.721-3.121,1.248-5.041,1.248C360.91,86.911,358.846,86.047,357.79,84.031z"/>
		<path fill="#60A296" d="M371.805,82.207h3.216V69.918h-3.216v-4.416h8.449v16.705h3.119v4.32h-11.568V82.207z M373.629,58.829
			c0-1.92,1.68-3.456,3.552-3.456s3.457,1.536,3.457,3.456s-1.68,3.456-3.553,3.456C375.213,62.285,373.629,60.749,373.629,58.829z"
			/>
		<path fill="#60A296" d="M386.541,76.014c0-5.761,4.32-10.897,11.186-10.897c6.961,0,11.185,5.041,11.185,10.897
			c0,5.761-4.319,10.896-11.185,10.896C390.765,86.911,386.541,81.871,386.541,76.014z M403.534,76.014
			c0-3.841-2.399-6.528-5.809-6.528c-3.408,0-5.808,2.688-5.808,6.528s2.399,6.528,5.808,6.528
			C401.134,82.543,403.534,79.854,403.534,76.014z"/>
		<path fill="#60A296" d="M420.189,68.861c2.016-1.968,4.271-3.744,7.345-3.744c2.496,0,4.32,1.009,5.425,2.688
			c0.721,1.152,1.104,2.593,1.104,4.32v10.081h3.12v4.32h-11.234v-4.32h2.881v-8.785c0-0.863-0.145-1.632-0.432-2.16
			c-0.48-0.912-1.344-1.392-2.593-1.392c-1.823,0-3.744,1.056-5.425,2.448v9.889h2.881v4.32h-11.233v-4.32h3.12V69.917h-3.12v-4.416
			h8.161V68.861z"/>
		<path fill="#60A296" d="M440.156,82.974c0-2.208,1.777-3.984,3.938-3.984s3.936,1.776,3.936,3.984c0,2.16-1.774,3.937-3.936,3.937
			S440.156,85.134,440.156,82.974z"/>
	</g>
</g>
</svg>
