<svg version="1.1" id="Layer_1" xmlns="http://www.w3.org/2000/svg" xmlns:xlink="http://www.w3.org/1999/xlink" x="0px" y="0px"
	 width="461px" height="28.375px" viewBox="146.5 548.125 461 28.375" enable-background="new 146.5 548.125 461 28.375"
	 xml:space="preserve">
<g>
	<g>
		<path fill="#6D6E70" d="M150.909,569.872h2.46v-13.77h-3.66v3.119H146.5v-6.06h17.129v6.06h-3.21v-3.119h-3.66v13.77h2.46v3.029
			h-8.31V569.872z"/>
		<path fill="#6D6E70" d="M166.299,571.401c-0.42-0.689-0.66-1.59-0.66-2.64v-6.239h-1.949v-2.761h5.22v8.19
			c0,0.569,0.09,0.989,0.27,1.35c0.3,0.57,0.84,0.869,1.62,0.869c1.14,0,2.34-0.659,3.39-1.529v-6.119h-2.04v-2.761h5.31v10.44h1.95
			v2.699h-5.1v-2.1c-1.26,1.229-2.67,2.34-4.59,2.34C168.129,573.141,166.959,572.481,166.299,571.401z"/>
		<path fill="#6D6E70" d="M181.119,570.202h1.95v-7.68h-1.95v-2.761h5.1v2.07c1.021-1.11,2.46-2.31,4.41-2.31
			c1.41,0,2.46,0.539,3.12,1.409c0.18,0.24,0.3,0.479,0.42,0.75c1.229-1.2,2.7-2.159,4.38-2.159c1.83,0,3.09,0.659,3.75,1.889
			c0.359,0.66,0.54,1.5,0.54,2.461v6.33h1.949v2.699h-6.989v-2.699h1.77v-5.551c0-0.51-0.06-0.899-0.21-1.229
			c-0.27-0.63-0.81-0.931-1.56-0.931c-1.08,0-2.22,0.631-3.21,1.471v6.24h1.77v2.699h-6.839v-2.699h1.8v-5.551
			c0-0.51-0.061-0.899-0.21-1.229c-0.271-0.63-0.78-0.931-1.561-0.931c-1.08,0-2.22,0.631-3.21,1.471v6.24h1.74v2.699h-6.96
			L181.119,570.202L181.119,570.202z"/>
		<path fill="#6D6E70" d="M206.079,566.331c0-3.6,2.7-6.809,6.99-6.809c4.35,0,6.989,3.149,6.989,6.809
			c0,3.601-2.699,6.811-6.989,6.811C208.719,573.141,206.079,569.991,206.079,566.331z M216.699,566.331
			c0-2.399-1.5-4.079-3.63-4.079s-3.63,1.68-3.63,4.079c0,2.4,1.5,4.08,3.63,4.08S216.699,568.731,216.699,566.331z"/>
		<path fill="#6D6E70" d="M233.709,561.681c0,1.11-0.87,2.04-1.95,2.04c-0.99,0-1.65-0.57-1.92-1.17c-0.93,0.33-2.01,1.35-2.61,2.49
			v5.16h2.28v2.699h-7.5v-2.699h1.95v-7.68h-1.95v-2.761h5.1v2.97c1.11-1.77,2.49-3.209,4.17-3.209
			C232.899,559.522,233.709,560.511,233.709,561.681z"/>
		<path fill="#6D6E70" d="M244.389,564.442c-1.05,0-1.77-0.631-1.77-1.621c0-0.209,0-0.39,0.06-0.569c-0.54-0.21-1.2-0.33-1.86-0.33
			c-1.47,0-2.189,0.66-2.189,1.351c0,0.749,0.75,1.139,2.76,1.68c3.15,0.84,4.979,1.619,4.979,3.989c0,2.76-2.579,4.229-5.55,4.229
			c-2.01,0-4.169-0.72-5.039-1.59c-0.54-0.539-0.75-1.08-0.75-1.77c0-0.96,0.72-1.77,1.739-1.77c0.9,0,1.771,0.6,1.771,1.739
			c0,0.181-0.03,0.36-0.061,0.54c0.601,0.24,1.44,0.42,2.37,0.42c1.32,0,2.4-0.449,2.4-1.41c0-0.66-0.57-1.049-2.58-1.59
			c-3.63-0.959-5.16-1.83-5.16-4.08c0-2.039,1.681-4.17,5.37-4.17c1.59,0,3.51,0.601,4.41,1.5c0.479,0.48,0.72,1.051,0.72,1.681
			C246.009,563.721,245.349,564.442,244.389,564.442z"/>
		<path fill="#6D6E70" d="M254.949,553.702v-2.76h5.22v10.799c1.229-1.17,2.609-2.219,4.47-2.219c1.41,0,2.52,0.51,3.21,1.409
			c0.569,0.75,0.87,1.771,0.87,2.97v6.301h1.949v2.699h-7.02v-2.699h1.8v-5.49c0-0.721-0.149-1.23-0.42-1.59
			c-0.33-0.42-0.84-0.631-1.47-0.631c-1.14,0-2.34,0.66-3.39,1.53v6.181h1.8v2.699h-7.02v-2.699h1.949v-16.5H254.949z"/>
		<path fill="#6D6E70" d="M271.989,569.452c0-2.461,2.16-3.961,5.28-3.961c1.35,0,2.609,0.181,3.329,0.36v-1.05
			c0-0.78-0.18-1.38-0.51-1.8c-0.54-0.69-1.41-0.96-2.58-0.96c-0.569,0-0.989,0.09-1.289,0.21c0.06,0.18,0.119,0.479,0.119,0.659
			c0,0.99-0.779,1.711-1.77,1.711c-0.991,0-1.74-0.69-1.74-1.771c0-1.62,1.65-3.329,5.22-3.329c2.25,0,3.78,0.629,4.71,1.77
			c0.69,0.84,1.021,1.98,1.021,3.3v5.61h1.949v2.699h-5.069v-1.439c-1.05,0.899-2.64,1.68-4.41,1.68
			C273.999,573.141,271.989,571.911,271.989,569.452z M280.598,569.601v-2.069c-0.75-0.181-1.68-0.301-2.699-0.301
			c-1.59,0-2.55,0.721-2.55,1.92c0,1.051,0.779,1.62,1.949,1.62C278.468,570.771,279.609,570.321,280.598,569.601z"/>
		<path fill="#6D6E70" d="M287.348,562.522h-1.529v-2.761h6.72v2.61h-1.891l3.15,6.84l3.149-6.84h-1.979v-2.61h6.689v2.761h-1.53
			l-5.22,10.619h-2.34L287.348,562.522z"/>
		<path fill="#6D6E70" d="M305.829,567.441c0.45,2.04,2.13,2.94,4.32,2.94c1.59,0,3.24-0.51,4.77-1.381l-0.27,2.94
			c-1.38,0.81-3.061,1.2-4.98,1.2c-4.289,0-7.26-2.7-7.26-6.779c0-3.721,2.61-6.84,6.66-6.84c4.2,0,6.39,2.819,6.39,6.299
			c0,0.51-0.06,1.17-0.149,1.62L305.829,567.441L305.829,567.441z M305.799,565.161h6.39c-0.061-1.799-1.23-3-3.15-3
			C307.599,562.161,306.159,563.002,305.799,565.161z"/>
		<path fill="#6D6E70" d="M324.039,569.452c0-2.461,2.16-3.961,5.28-3.961c1.35,0,2.609,0.181,3.329,0.36v-1.05
			c0-0.78-0.18-1.38-0.51-1.8c-0.54-0.69-1.41-0.96-2.58-0.96c-0.569,0-0.989,0.09-1.29,0.21c0.061,0.18,0.12,0.479,0.12,0.659
			c0,0.99-0.779,1.711-1.77,1.711c-0.991,0-1.74-0.69-1.74-1.771c0-1.62,1.65-3.329,5.22-3.329c2.25,0,3.78,0.629,4.71,1.77
			c0.69,0.84,1.021,1.98,1.021,3.3v5.61h1.949v2.699h-5.069v-1.439c-1.05,0.899-2.64,1.68-4.41,1.68
			C326.048,573.141,324.039,571.911,324.039,569.452z M332.648,569.601v-2.069c-0.75-0.181-1.68-0.301-2.699-0.301
			c-1.59,0-2.55,0.721-2.55,1.92c0,1.051,0.779,1.62,1.949,1.62C330.518,570.771,331.659,570.321,332.648,569.601z"/>
		<path fill="#6D6E70" d="M345.877,566.391c0-3.81,2.761-6.869,6.3-6.869c1.681,0,2.91,0.629,3.66,1.26v-7.08h-1.979v-2.76h5.249
			v19.26h1.95v2.699h-5.22v-1.439c-0.96,0.93-2.189,1.68-3.87,1.68C348.488,573.141,345.877,570.351,345.877,566.391z
			 M355.837,569.001v-5.639c-0.87-0.601-1.89-1.021-3.12-1.021c-1.83,0-3.479,1.41-3.479,4.021c0,2.52,1.56,3.959,3.479,3.959
			C353.948,570.321,354.938,569.781,355.837,569.001z"/>
		<path fill="#6D6E70" d="M366.126,567.441c0.45,2.04,2.13,2.94,4.32,2.94c1.59,0,3.239-0.51,4.77-1.381l-0.27,2.94
			c-1.38,0.81-3.061,1.2-4.98,1.2c-4.289,0-7.26-2.7-7.26-6.779c0-3.721,2.61-6.84,6.66-6.84c4.2,0,6.39,2.819,6.39,6.299
			c0,0.51-0.06,1.17-0.15,1.62L366.126,567.441L366.126,567.441z M366.097,565.161h6.39c-0.061-1.799-1.23-3-3.15-3
			C367.897,562.161,366.457,563.002,366.097,565.161z"/>
		<path fill="#6D6E70" d="M384.367,553.552c-0.27,0.12-0.54,0.3-0.69,0.54c-0.39,0.57-0.6,1.379-0.6,2.639v3.03h3.42v2.761h-3.42
			v7.68h2.55v2.699h-7.77v-2.699h1.979v-7.68h-2.249v-2.761h2.249v-2.55c0-2.4,0.421-3.9,1.681-5.13c0.93-0.9,2.13-1.38,3.6-1.38
			c1.71,0,2.91,0.9,2.91,2.22c0,1.17-0.84,1.86-1.771,1.86C385.237,554.782,384.727,554.242,384.367,553.552z"/>
		<path fill="#6D6E70" d="M391.086,567.441c0.45,2.04,2.13,2.94,4.32,2.94c1.59,0,3.24-0.51,4.77-1.381l-0.27,2.94
			c-1.38,0.81-3.061,1.2-4.98,1.2c-4.289,0-7.26-2.7-7.26-6.779c0-3.721,2.61-6.84,6.66-6.84c4.2,0,6.39,2.819,6.39,6.299
			c0,0.51-0.06,1.17-0.149,1.62L391.086,567.441L391.086,567.441z M391.057,565.161h6.39c-0.061-1.799-1.23-3-3.15-3
			C392.857,562.161,391.416,563.002,391.057,565.161z"/>
		<path fill="#6D6E70" d="M407.676,561.862c1.261-1.23,2.67-2.34,4.59-2.34c1.561,0,2.7,0.629,3.391,1.68
			c0.449,0.72,0.689,1.619,0.689,2.699v6.301h1.95v2.699h-7.02v-2.699h1.8v-5.49c0-0.54-0.09-1.02-0.271-1.35
			c-0.3-0.57-0.84-0.871-1.619-0.871c-1.141,0-2.341,0.66-3.391,1.53v6.181h1.8v2.699h-7.02v-2.699h1.95v-7.68h-1.95v-2.761h5.1
			L407.676,561.862L407.676,561.862z"/>
		<path fill="#6D6E70" d="M429.127,564.442c-1.05,0-1.77-0.631-1.77-1.621c0-0.209,0-0.39,0.06-0.569c-0.54-0.21-1.2-0.33-1.86-0.33
			c-1.47,0-2.189,0.66-2.189,1.351c0,0.749,0.75,1.139,2.76,1.68c3.15,0.84,4.979,1.619,4.979,3.989c0,2.76-2.579,4.229-5.55,4.229
			c-2.01,0-4.169-0.72-5.039-1.59c-0.54-0.539-0.75-1.08-0.75-1.77c0-0.96,0.72-1.77,1.739-1.77c0.9,0,1.771,0.6,1.771,1.739
			c0,0.181-0.03,0.36-0.061,0.54c0.601,0.24,1.44,0.42,2.37,0.42c1.32,0,2.4-0.449,2.4-1.41c0-0.66-0.57-1.049-2.58-1.59
			c-3.63-0.959-5.16-1.83-5.16-4.08c0-2.039,1.681-4.17,5.37-4.17c1.59,0,3.51,0.601,4.41,1.5c0.479,0.48,0.72,1.051,0.72,1.681
			C430.748,563.721,430.087,564.442,429.127,564.442z"/>
		<path fill="#6D6E70" d="M436.657,567.441c0.45,2.04,2.13,2.94,4.32,2.94c1.59,0,3.24-0.51,4.77-1.381l-0.27,2.94
			c-1.38,0.81-3.061,1.2-4.98,1.2c-4.289,0-7.26-2.7-7.26-6.779c0-3.721,2.61-6.84,6.66-6.84c4.2,0,6.39,2.819,6.39,6.299
			c0,0.51-0.06,1.17-0.149,1.62L436.657,567.441L436.657,567.441z M436.627,565.161h6.39c-0.061-1.799-1.23-3-3.15-3
			C438.427,562.161,436.987,563.002,436.627,565.161z"/>
		<path fill="#6D6E70" d="M448.957,562.821c0-1.319,1.08-2.399,2.399-2.399c1.32,0,2.4,1.08,2.4,2.399c0,1.32-1.08,2.4-2.4,2.4
			C450.038,565.221,448.957,564.141,448.957,562.821z M448.957,570.741c0-1.32,1.08-2.399,2.399-2.399c1.32,0,2.4,1.079,2.4,2.399
			c0,1.32-1.08,2.4-2.4,2.4C450.038,573.141,448.957,572.061,448.957,570.741z"/>
		<path fill="#6D6E70" d="M467.197,569.872h2.46v-13.77h-3.66v3.119h-3.209v-6.06h17.129v6.06h-3.21v-3.119h-3.66v13.77h2.46v3.029
			h-8.31V569.872L467.197,569.872z"/>
		<path fill="#6D6E70" d="M481.716,569.872h2.249v-13.68h-2.249v-3.03h7.649c4.529,0,7.77,1.95,7.77,5.97c0,2.55-1.56,4.5-3.72,5.37
			l3.03,5.37h2.249v3.029h-4.56l-3.96-7.5c-0.42,0.03-0.81,0.061-1.199,0.061c-0.631,0-1.2,0-1.62-0.03v4.44h2.46v3.029h-8.1v-3.029
			H481.716z M493.625,559.252c0-2.069-1.71-3.06-4.439-3.06h-1.83v6.33c0.359,0.029,0.84,0.06,1.92,0.06
			C491.826,562.582,493.625,561.321,493.625,559.252z"/>
		<path fill="#6D6E70" d="M500.316,562.731h8.7v3.36h-8.7V562.731z"/>
		<path fill="#6D6E70" d="M511.387,569.872h2.25v-13.68h-2.25v-3.03h8.249v3.03h-2.609v13.709h5.43v-2.789h3.27v5.789h-14.339
			v-3.029H511.387z"/>
		<path fill="#6D6E70" d="M536.856,571.521h-8.64l-0.75-1.62l10.05-13.319l2.37,1.89l-7.83,10.35h4.8v-3.39l3.18-1.26v4.649h2.94
			v2.7h-2.94v4.979h-3.18L536.856,571.521L536.856,571.521z"/>
		<path fill="#6D6E70" d="M545.045,570.681c0-1.38,1.11-2.49,2.46-2.49s2.46,1.11,2.46,2.49c0,1.35-1.11,2.46-2.46,2.46
			S545.045,572.031,545.045,570.681z"/>
	</g>
</g>
</svg>
