<svg version="1.1" id="Layer_1" xmlns="http://www.w3.org/2000/svg" xmlns:xlink="http://www.w3.org/1999/xlink" x="0px" y="0px"
	 width="361px" height="411.602px" viewBox="0 0 361 411.602" style="enable-background:new 0 0 361 411.602;" xml:space="preserve"
	><style type="text/css">
	.st0{fill:#6E6E6E;}
</style><g><path class="st0" d="M354.334,42.713c9.678-9.679,5.975-21.664-3.703-31.348c-9.679-9.673-21.664-13.377-31.342-3.698
		L167.906,159.043c-0.465,0.47-0.803,1.013-1.227,1.509l-0.138-0.138l-0.557,0.993c-1.617,2.061-2.89,4.282-3.755,6.64
		l-41.251,72.971l72.977-41.24c2.358-0.87,4.573-2.149,6.64-3.755l0.992-0.563l-0.138-0.138c0.496-0.425,1.038-0.757,1.509-1.228
		L354.334,42.713z"/><path class="st0" d="M272.047,351.301c0,2.896-2.343,5.238-5.238,5.238H54.513c-2.895,0-5.238-2.343-5.238-5.238V73.871
		c0-2.895,2.343-5.238,5.238-5.238h160.906l46.151-47.144H54.513c-28.882,0-52.382,23.501-52.382,52.382v277.431
		c0,28.882,23.5,52.382,52.382,52.382h212.296c28.882,0,52.382-23.5,52.382-52.382V126.253l-47.144,44.903V351.301z"/></g></svg>

