<?xml version="1.0" encoding="utf-8"?>
<!-- Generator: Adobe Illustrator 17.1.0, SVG Export Plug-In . SVG Version: 6.00 Build 0)  -->
<!DOCTYPE svg PUBLIC "-//W3C//DTD SVG 1.1//EN" "http://www.w3.org/Graphics/SVG/1.1/DTD/svg11.dtd">
<svg version="1.1" xmlns="http://www.w3.org/2000/svg" xmlns:xlink="http://www.w3.org/1999/xlink" x="0px" y="0px"
	 viewBox="0 0 118 236.7" enable-background="new 0 0 118 236.7" xml:space="preserve">
<g id="Layer_2">
</g>
<g id="Layer_1">
	<g>
		<path fill="#FFFFFF" d="M73.9,194.9H44.1c0,0.3,0,0.5,0,0.8v2.1c0,4.6,3.7,8.2,8.3,8.2h2v16.5v8.2c0,2.6,2.1,4.7,4.7,4.7
			c2.6,0,4.7-2.1,4.7-4.7v-8.2V206h2c4.6,0,8.3-3.7,8.3-8.2v-2.1C73.9,195.4,73.9,195.1,73.9,194.9z"/>
		<path opacity="0.4" fill="#FFFFFF" enable-background="new    " d="M103.6,42.7H73.9C73.3,35,66.9,29,59.1,29
			c-7.8,0-14.2,6-14.8,13.6H14.4c-8.2,0-14.9,6.7-14.9,14.9c0,0.3,0,0.6,0,0.9c0.3,8.3,2.9,80.3,14.8,97.8
			c6.1,8.9,19.2,33.1,29.7,38.6h29.7c10.5-5.5,23.7-29.7,29.7-38.6c11.9-17.5,14.5-89.5,14.8-97.8c0-0.3,0-0.6,0-0.9
			C118.4,49.3,111.8,42.7,103.6,42.7z M59.1,36c4,0,7.2,2.9,7.8,6.7H51.3C51.9,38.9,55.2,36,59.1,36z"/>
		<path fill="#4F4E51" d="M63.5,37.3c-1.4,0.7-2.9,1.1-4.5,1.1c-1.6,0-3-0.4-4.4-1c-2.1-1-3.9-2.8-4.8-5c-0.5-1.2-0.8-2.5-0.8-3.9
			c0-1.7-1.4-3.1-3.1-3.1s-3.1,1.4-3.1,3.1c0,3.4,1,6.5,2.8,9.1c1.4,2.1,3.4,3.8,5.6,5.1c2.3,1.2,4.9,1.9,7.7,1.9
			c2.9,0,5.6-0.8,7.9-2.1C66.5,40.3,65.3,38.5,63.5,37.3z"/>
		<path fill="#4F4E51" d="M75.1,3.7c0-1.7-1.4-3.1-3.1-3.1C70.4,0.7,69,2,69,3.7v24.7c0,1.3-0.3,2.6-0.7,3.8
			c1.7,1.4,3.2,3.1,4.2,5.1c1.7-2.5,2.7-5.6,2.7-8.9L75.1,3.7L75.1,3.7z"/>
		<polygon fill="#D4C429" points="54.3,209.5 54.3,206 51.4,206 		"/>
		<path fill="#FFFFFF" d="M75.1,194.9H45.4c0,0.3,0,0.5,0,0.8v2.1c0,4.6,3.7,8.2,8.3,8.2h2v16.5v8.2c0,2.6,2.1,4.7,4.7,4.7
			c2.6,0,4.7-2.1,4.7-4.7v-8.2V206h2c4.6,0,8.3-3.7,8.3-8.2v-2.1C75.2,195.4,75.2,195.1,75.1,194.9z"/>
		<polygon fill="#D4C429" points="55.6,209.5 55.6,206 52.7,206 		"/>
		<path fill="#D4C429" d="M47.5,73.6c8.5,1.2,17.1,1.2,25.6,0c0.7-0.1,1.3-0.8,1.3-1.5s-0.6-1.2-1.3-1.1c-8.5,1.2-17.1,1.2-25.6,0
			c-0.7-0.1-1.3,0.4-1.3,1.1S46.8,73.5,47.5,73.6z"/>
		<path fill="#D4C429" d="M53.9,83.6c-0.7-0.1-1.3,0.5-1.3,1.2s0.6,1.3,1.3,1.4c5.1,0.4,7.7,0.4,12.8,0c0.7-0.1,1.3-0.7,1.3-1.4
			c0-0.7-0.6-1.2-1.3-1.2C61.6,83.9,59,83.9,53.9,83.6z"/>
		<path fill="#D4C429" d="M73.1,94.8C64.6,96,56,96,47.5,94.8c-0.7-0.1-1.3,0.4-1.3,1.1c0,0.7,0.6,1.4,1.3,1.5
			c8.5,1.2,17.1,1.2,25.6,0c0.7-0.1,1.3-0.8,1.3-1.5C74.3,95.2,73.8,94.7,73.1,94.8z"/>
		<path fill="#D4C429" d="M66.7,109.9c0.7-0.1,1.3-0.7,1.3-1.4c0-0.7-0.6-1.2-1.3-1.2c-5.1,0.4-7.7,0.4-12.8,0
			c-0.7-0.1-1.3,0.5-1.3,1.2c0,0.7,0.6,1.3,1.3,1.4C59,110.3,61.6,110.3,66.7,109.9z"/>
		<path fill="#D4C429" d="M73.1,118.6c-8.5,1.2-17.1,1.2-25.6,0c-0.7-0.1-1.3,0.4-1.3,1.1c0,0.7,0.6,1.4,1.3,1.5
			c8.5,1.2,17.1,1.2,25.6,0c0.7-0.1,1.3-0.8,1.3-1.5C74.3,119,73.8,118.5,73.1,118.6z"/>
		<path fill="#D4C429" d="M66.7,133.7c0.7-0.1,1.3-0.7,1.3-1.4s-0.6-1.2-1.3-1.2c-5.1,0.4-7.7,0.4-12.8,0c-0.7-0.1-1.3,0.5-1.3,1.2
			s0.6,1.3,1.3,1.4C59,134.1,61.6,134.1,66.7,133.7z"/>
		<path fill="#D4C429" d="M73.1,142.4c-8.5,1.2-17.1,1.2-25.6,0c-0.7-0.1-1.3,0.4-1.3,1.1c0,0.7,0.6,1.4,1.3,1.5
			c8.5,1.2,17.1,1.2,25.6,0c0.7-0.1,1.3-0.8,1.3-1.5C74.3,142.8,73.8,142.3,73.1,142.4z"/>
		<path fill="#D4C429" d="M66.7,157.5c0.7-0.1,1.3-0.7,1.3-1.4c0-0.7-0.6-1.2-1.3-1.2c-5.1,0.4-7.7,0.4-12.8,0
			c-0.7-0.1-1.3,0.5-1.3,1.2c0,0.7,0.6,1.3,1.3,1.4C59,157.9,61.6,157.9,66.7,157.5z"/>
		<path fill="#D4C429" d="M73.1,166.2c-8.5,1.2-17.1,1.2-25.6,0c-0.7-0.1-1.3,0.4-1.3,1.1c0,0.7,0.6,1.4,1.3,1.5
			c8.5,1.2,17.1,1.2,25.6,0c0.7-0.1,1.3-0.8,1.3-1.5C74.3,166.6,73.8,166.1,73.1,166.2z"/>
		<path fill="#D4C429" d="M66.7,178.8c-5.1,0.4-7.7,0.4-12.8,0c-0.7-0.1-1.3,0.5-1.3,1.2c0,0.7,0.6,1.3,1.3,1.4
			c5.1,0.4,7.7,0.4,12.8,0c0.7-0.1,1.3-0.7,1.3-1.4C68,179.2,67.4,178.7,66.7,178.8z"/>
	</g>
</g>
</svg>
