<?xml version="1.0" encoding="utf-8"?>
<!-- Generator: Adobe Illustrator 17.0.1, SVG Export Plug-In . SVG Version: 6.00 Build 0)  -->
<!DOCTYPE svg PUBLIC "-//W3C//DTD SVG 1.1//EN" "http://www.w3.org/Graphics/SVG/1.1/DTD/svg11.dtd">
<svg version="1.1" id="Layer_1" xmlns="http://www.w3.org/2000/svg" xmlns:xlink="http://www.w3.org/1999/xlink" x="0px" y="0px"
	 width="357.667px" height="291.403px" viewBox="0 0 357.667 291.403" enable-background="new 0 0 357.667 291.403"
	 xml:space="preserve">
<path fill="#4D4D4F" d="M0,75.352V63.899h1.516v11.453H0z"/>
<path fill="#4D4D4F" d="M4.008,75.352v-8.297h1.266v1.18c0.609-0.911,1.489-1.367,2.641-1.367c0.5,0,0.959,0.09,1.379,0.27
	c0.419,0.18,0.733,0.416,0.941,0.707c0.208,0.292,0.354,0.638,0.438,1.039c0.052,0.261,0.078,0.716,0.078,1.367v5.102H9.345v-5.047
	c0-0.573-0.055-1.001-0.164-1.285s-0.304-0.51-0.582-0.68c-0.279-0.169-0.605-0.254-0.98-0.254c-0.599,0-1.116,0.19-1.551,0.57
	s-0.652,1.102-0.652,2.164v4.531H4.008z"/>
<path fill="#4D4D4F" d="M13.242,75.352v-7.203H12v-1.094h1.242v-0.883c0-0.557,0.049-0.971,0.148-1.242
	c0.135-0.364,0.374-0.66,0.715-0.887c0.341-0.227,0.819-0.34,1.434-0.34c0.396,0,0.833,0.047,1.313,0.141l-0.211,1.227
	c-0.292-0.052-0.568-0.078-0.828-0.078c-0.427,0-0.729,0.091-0.906,0.273c-0.177,0.183-0.266,0.523-0.266,1.023v0.766h1.617v1.094
	h-1.617v7.203H13.242z"/>
<path fill="#4D4D4F" d="M22.789,75.352v-1.219c-0.646,0.938-1.523,1.406-2.633,1.406c-0.49,0-0.947-0.094-1.371-0.281
	c-0.425-0.188-0.74-0.423-0.945-0.707c-0.206-0.284-0.351-0.631-0.434-1.043c-0.058-0.276-0.086-0.713-0.086-1.313v-5.141h1.406
	v4.602c0,0.734,0.028,1.229,0.086,1.484c0.088,0.37,0.276,0.66,0.563,0.871c0.286,0.211,0.641,0.316,1.063,0.316
	s0.817-0.108,1.188-0.324c0.37-0.216,0.631-0.51,0.785-0.883c0.153-0.372,0.23-0.913,0.23-1.621v-4.445h1.406v8.297L22.789,75.352
	L22.789,75.352z"/>
<path fill="#4D4D4F" d="M25.688,72.876l1.391-0.219c0.078,0.558,0.295,0.984,0.652,1.281c0.356,0.297,0.855,0.445,1.496,0.445
	c0.646,0,1.125-0.131,1.438-0.395c0.313-0.263,0.469-0.571,0.469-0.926c0-0.317-0.138-0.567-0.414-0.75
	c-0.193-0.125-0.672-0.284-1.438-0.477c-1.031-0.26-1.746-0.485-2.145-0.676c-0.398-0.19-0.701-0.453-0.906-0.789
	c-0.206-0.336-0.309-0.707-0.309-1.113c0-0.37,0.084-0.712,0.254-1.027c0.169-0.315,0.399-0.577,0.691-0.785
	c0.219-0.161,0.517-0.298,0.895-0.41c0.377-0.112,0.782-0.168,1.215-0.168c0.651,0,1.223,0.094,1.715,0.281s0.855,0.441,1.09,0.762
	s0.396,0.749,0.484,1.285l-1.375,0.188c-0.063-0.427-0.244-0.76-0.543-1c-0.3-0.239-0.723-0.359-1.27-0.359
	c-0.646,0-1.107,0.107-1.383,0.32c-0.276,0.214-0.414,0.464-0.414,0.75c0,0.183,0.057,0.347,0.172,0.492
	c0.114,0.151,0.294,0.276,0.539,0.375c0.141,0.052,0.555,0.172,1.242,0.359c0.995,0.266,1.688,0.483,2.082,0.652
	c0.393,0.169,0.702,0.416,0.926,0.738c0.224,0.323,0.336,0.724,0.336,1.203c0,0.469-0.137,0.91-0.41,1.324s-0.668,0.734-1.184,0.961
	s-1.099,0.34-1.75,0.34c-1.078,0-1.9-0.224-2.465-0.672C26.204,74.42,25.844,73.756,25.688,72.876z"/>
<path fill="#4D4D4F" d="M34.258,65.517V63.9h1.406v1.617H34.258z M34.258,75.352v-8.297h1.406v8.297H34.258z"/>
<path fill="#4D4D4F" d="M37.281,71.204c0-1.536,0.427-2.674,1.281-3.414c0.713-0.614,1.583-0.922,2.609-0.922
	c1.141,0,2.073,0.374,2.797,1.121c0.724,0.748,1.086,1.78,1.086,3.098c0,1.068-0.16,1.908-0.48,2.52s-0.787,1.087-1.398,1.426
	c-0.612,0.338-1.28,0.508-2.004,0.508c-1.162,0-2.101-0.372-2.816-1.117C37.639,73.678,37.281,72.605,37.281,71.204z M38.727,71.204
	c0,1.063,0.231,1.858,0.695,2.387c0.463,0.529,1.047,0.793,1.75,0.793c0.698,0,1.278-0.266,1.742-0.797
	c0.463-0.531,0.695-1.341,0.695-2.43c0-1.026-0.233-1.803-0.699-2.332c-0.466-0.528-1.046-0.793-1.738-0.793
	c-0.703,0-1.287,0.263-1.75,0.789C38.958,69.348,38.727,70.142,38.727,71.204z"/>
<path fill="#4D4D4F" d="M46.703,75.352v-8.297h1.266v1.18c0.609-0.911,1.489-1.367,2.641-1.367c0.5,0,0.959,0.09,1.379,0.27
	c0.419,0.18,0.733,0.416,0.941,0.707c0.208,0.292,0.354,0.638,0.438,1.039c0.052,0.261,0.078,0.716,0.078,1.367v5.102H52.04v-5.047
	c0-0.573-0.055-1.001-0.164-1.285c-0.109-0.284-0.304-0.51-0.582-0.68c-0.279-0.169-0.605-0.254-0.98-0.254
	c-0.599,0-1.116,0.19-1.551,0.57s-0.652,1.102-0.652,2.164v4.531H46.703z"/>
<path fill="#4D4D4F" d="M63.117,74.095l0.203,1.242c-0.396,0.083-0.75,0.125-1.063,0.125c-0.511,0-0.906-0.081-1.188-0.242
	s-0.479-0.374-0.594-0.637s-0.172-0.816-0.172-1.66V68.15h-1.031v-1.094h1.031v-2.055l1.398-0.844v2.898h1.414v1.094h-1.414v4.852
	c0,0.401,0.024,0.659,0.074,0.773c0.049,0.115,0.13,0.206,0.242,0.273c0.112,0.068,0.272,0.102,0.48,0.102
	C62.656,74.149,62.862,74.131,63.117,74.095z"/>
<path fill="#4D4D4F" d="M64.5,65.517V63.9h1.406v1.617H64.5z M64.5,75.352v-8.297h1.406v8.297H64.5z"/>
<path fill="#4D4D4F" d="M68.047,75.352v-8.297h1.258v1.164c0.26-0.406,0.606-0.733,1.039-0.98c0.432-0.247,0.924-0.371,1.477-0.371
	c0.614,0,1.118,0.128,1.512,0.383c0.393,0.255,0.67,0.612,0.832,1.07c0.656-0.969,1.51-1.453,2.563-1.453
	c0.823,0,1.456,0.228,1.898,0.684s0.664,1.158,0.664,2.105v5.695h-1.398v-5.227c0-0.563-0.046-0.967-0.137-1.215
	c-0.091-0.247-0.257-0.446-0.496-0.598c-0.24-0.151-0.521-0.227-0.844-0.227c-0.583,0-1.068,0.194-1.453,0.582
	c-0.386,0.388-0.578,1.009-0.578,1.863v4.82h-1.406v-5.391c0-0.625-0.115-1.094-0.344-1.406c-0.229-0.313-0.604-0.469-1.125-0.469
	c-0.396,0-0.762,0.104-1.098,0.313c-0.336,0.208-0.58,0.513-0.73,0.914c-0.151,0.401-0.227,0.979-0.227,1.734v4.305h-1.407V75.352z"
	/>
<path fill="#4D4D4F" d="M87.055,72.681l1.453,0.18c-0.229,0.849-0.654,1.508-1.273,1.977c-0.62,0.469-1.412,0.703-2.375,0.703
	c-1.214,0-2.176-0.374-2.887-1.121s-1.066-1.795-1.066-3.145c0-1.396,0.359-2.479,1.078-3.25s1.651-1.156,2.797-1.156
	c1.109,0,2.016,0.378,2.719,1.133c0.703,0.755,1.055,1.818,1.055,3.188c0,0.083-0.003,0.208-0.008,0.375H82.36
	c0.052,0.912,0.31,1.609,0.773,2.094c0.463,0.484,1.042,0.727,1.734,0.727c0.516,0,0.956-0.135,1.32-0.406
	C86.552,73.707,86.841,73.274,87.055,72.681z M82.438,70.407h4.633c-0.063-0.698-0.24-1.221-0.531-1.57
	c-0.448-0.542-1.029-0.813-1.742-0.813c-0.646,0-1.189,0.216-1.629,0.648C82.728,69.105,82.485,69.684,82.438,70.407z"/>
<path fill="#4D4D4F" d="M90.664,68.657v-1.602h1.602v1.602H90.664z M90.664,75.352V73.75h1.602v1.602H90.664z"/>
<rect x="0.425" y="85.415" fill="#4D4D4F" width="92.417" height="1.479"/>
<path fill="#A7A7A9" d="M0.986,169.311v-25.054h7.571l4.546,17.09l4.495-17.09h7.588v25.054h-4.7v-19.722l-4.973,19.722h-4.871
	l-4.956-19.722v19.722H0.986z"/>
<path fill="#A7A7A9" d="M28.131,169.311v-25.054h5.059v25.054H28.131z"/>
<path fill="#A7A7A9" d="M36.135,169.311v-25.054h4.922l10.254,16.73v-16.73h4.7v25.054h-5.076l-10.1-16.338v16.338H36.135z"/>
<path fill="#A7A7A9" d="M58.153,161.159l4.922-0.479c0.296,1.652,0.897,2.866,1.803,3.641c0.906,0.775,2.128,1.162,3.666,1.162
	c1.629,0,2.856-0.345,3.683-1.034c0.826-0.688,1.239-1.495,1.239-2.418c0-0.593-0.174-1.097-0.521-1.513s-0.954-0.777-1.82-1.085
	c-0.593-0.205-1.943-0.569-4.05-1.094c-2.712-0.672-4.614-1.498-5.708-2.479c-1.538-1.378-2.307-3.059-2.307-5.041
	c0-1.276,0.361-2.47,1.085-3.58c0.723-1.111,1.766-1.957,3.127-2.538s3.005-0.872,4.931-0.872c3.145,0,5.512,0.689,7.101,2.068
	c1.59,1.379,2.424,3.219,2.504,5.52l-5.059,0.223c-0.217-1.287-0.681-2.213-1.393-2.777c-0.712-0.563-1.781-0.846-3.205-0.846
	c-1.47,0-2.621,0.302-3.452,0.905c-0.536,0.388-0.803,0.906-0.803,1.556c0,0.593,0.25,1.1,0.752,1.521
	c0.638,0.536,2.188,1.094,4.648,1.675s4.281,1.183,5.46,1.804c1.18,0.621,2.103,1.47,2.769,2.546c0.667,1.077,1,2.407,1,3.99
	c0,1.437-0.399,2.78-1.196,4.034c-0.798,1.253-1.926,2.185-3.384,2.794c-1.458,0.609-3.276,0.914-5.452,0.914
	c-3.167,0-5.6-0.731-7.297-2.196C59.497,166.095,58.483,163.961,58.153,161.159z"/>
<path fill="#4D4D4F" d="M172.938,7.49c0-1.458,0.218-2.682,0.654-3.672c0.326-0.729,0.77-1.383,1.333-1.963s1.18-1.009,1.851-1.289
	C177.668,0.189,178.696,0,179.862,0c2.109,0,3.797,0.654,5.063,1.963s1.899,3.128,1.899,5.459c0,2.311-0.628,4.12-1.885,5.425
	s-2.936,1.958-5.039,1.958c-2.129,0-3.822-0.649-5.078-1.948S172.938,9.769,172.938,7.49z M175.916,7.393
	c0,1.621,0.375,2.85,1.123,3.687s1.699,1.255,2.852,1.255s2.098-0.415,2.837-1.245s1.108-2.075,1.108-3.735
	c0-1.641-0.36-2.865-1.079-3.672s-1.675-1.211-2.866-1.211s-2.152,0.409-2.881,1.226S175.916,5.746,175.916,7.393z"/>
<path fill="#4D4D4F" d="M188.943,4.189h2.559v1.523c0.332-0.521,0.781-0.944,1.348-1.27s1.195-0.488,1.885-0.488
	c1.205,0,2.227,0.472,3.066,1.416s1.26,2.259,1.26,3.945c0,1.732-0.423,3.078-1.27,4.038s-1.872,1.44-3.076,1.44
	c-0.573,0-1.092-0.114-1.558-0.342s-0.956-0.619-1.47-1.172v5.225h-2.744L188.943,4.189L188.943,4.189z M191.657,9.199
	c0,1.166,0.231,2.026,0.693,2.583s1.025,0.835,1.689,0.835c0.638,0,1.168-0.255,1.592-0.767s0.635-1.349,0.635-2.515
	c0-1.087-0.218-1.895-0.654-2.422s-0.977-0.791-1.621-0.791c-0.67,0-1.227,0.259-1.67,0.776S191.657,8.184,191.657,9.199z"/>
<path fill="#4D4D4F" d="M205.953,4.189v2.188h-1.875v4.18c0,0.846,0.018,1.339,0.054,1.479s0.117,0.255,0.244,0.347
	s0.282,0.137,0.464,0.137c0.254,0,0.622-0.088,1.104-0.264l0.234,2.129c-0.638,0.273-1.361,0.41-2.168,0.41
	c-0.495,0-0.941-0.083-1.338-0.249s-0.688-0.381-0.874-0.645s-0.314-0.62-0.386-1.069c-0.059-0.319-0.088-0.963-0.088-1.934V6.377
	h-1.26V4.189h1.26V2.128l2.754-1.602v3.662h1.875L205.953,4.189L205.953,4.189z"/>
<path fill="#4D4D4F" d="M207.818,2.783V0.244h2.744v2.539H207.818z M207.818,14.561V4.19h2.744v10.371
	C210.562,14.561,207.818,14.561,207.818,14.561z"/>
<path fill="#4D4D4F" d="M212.367,11.602l2.754-0.42c0.117,0.534,0.355,0.939,0.713,1.216s0.859,0.415,1.504,0.415
	c0.709,0,1.244-0.13,1.602-0.391c0.241-0.182,0.361-0.426,0.361-0.732c0-0.208-0.065-0.381-0.195-0.518
	c-0.137-0.13-0.443-0.25-0.918-0.361c-2.213-0.488-3.617-0.934-4.209-1.338c-0.82-0.56-1.23-1.338-1.23-2.334
	c0-0.898,0.355-1.654,1.064-2.266s1.81-0.918,3.301-0.918c1.419,0,2.474,0.231,3.164,0.693s1.166,1.146,1.426,2.051l-2.588,0.479
	c-0.111-0.404-0.321-0.713-0.63-0.928s-0.75-0.322-1.323-0.322c-0.723,0-1.24,0.101-1.553,0.303
	c-0.208,0.143-0.313,0.329-0.313,0.557c0,0.195,0.091,0.361,0.273,0.498c0.248,0.182,1.102,0.439,2.563,0.771
	c1.461,0.332,2.482,0.739,3.062,1.221c0.573,0.488,0.859,1.168,0.859,2.041c0,0.951-0.397,1.768-1.191,2.451
	s-1.969,1.025-3.525,1.025c-1.413,0-2.531-0.287-3.354-0.859S212.621,12.584,212.367,11.602z"/>
<path fill="#4D4D4F" d="M229.173,4.189v2.188h-1.875v4.18c0,0.846,0.018,1.339,0.054,1.479s0.117,0.255,0.244,0.347
	s0.282,0.137,0.464,0.137c0.254,0,0.622-0.088,1.104-0.264l0.234,2.129c-0.638,0.273-1.361,0.41-2.168,0.41
	c-0.495,0-0.941-0.083-1.338-0.249s-0.688-0.381-0.874-0.645s-0.314-0.62-0.386-1.069c-0.059-0.319-0.088-0.963-0.088-1.934V6.377
	h-1.26V4.189h1.26V2.128l2.754-1.602v3.662h1.875L229.173,4.189L229.173,4.189z"/>
<path fill="#4D4D4F" d="M233.088,7.353l-2.49-0.449c0.28-1.002,0.762-1.745,1.445-2.227s1.699-0.723,3.047-0.723
	c1.224,0,2.135,0.145,2.734,0.435s1.021,0.658,1.265,1.104s0.366,1.265,0.366,2.456l-0.029,3.203c0,0.912,0.044,1.583,0.132,2.017
	s0.252,0.897,0.493,1.392h-2.715c-0.072-0.182-0.16-0.453-0.264-0.811c-0.045-0.163-0.078-0.27-0.098-0.322
	c-0.469,0.456-0.97,0.797-1.504,1.025s-1.104,0.342-1.709,0.342c-1.068,0-1.909-0.29-2.524-0.869s-0.923-1.312-0.923-2.197
	c0-0.586,0.14-1.108,0.42-1.567s0.672-0.811,1.177-1.055s1.232-0.458,2.183-0.64c1.283-0.241,2.171-0.465,2.666-0.674V7.52
	c0-0.527-0.13-0.903-0.391-1.128s-0.752-0.337-1.475-0.337c-0.488,0-0.869,0.096-1.143,0.288S233.258,6.872,233.088,7.353z
	 M236.76,9.58c-0.352,0.117-0.908,0.257-1.67,0.42s-1.26,0.322-1.494,0.479c-0.358,0.254-0.537,0.576-0.537,0.967
	c0,0.384,0.143,0.716,0.43,0.996s0.651,0.42,1.094,0.42c0.495,0,0.967-0.163,1.416-0.488c0.332-0.248,0.55-0.55,0.654-0.908
	c0.072-0.234,0.107-0.68,0.107-1.338L236.76,9.58L236.76,9.58z"/>
<path fill="#4D4D4F" d="M244.972,14.561l-4.18-10.371h2.881l1.953,5.293l0.566,1.768c0.15-0.449,0.244-0.746,0.283-0.889
	c0.091-0.293,0.189-0.586,0.293-0.879l1.973-5.293h2.822l-4.121,10.371H244.972z"/>
<path fill="#4D4D4F" d="M253.204,2.783V0.244h2.744v2.539H253.204z M253.204,14.561V4.19h2.744v10.371
	C255.948,14.561,253.204,14.561,253.204,14.561z"/>
<path fill="#4D4D4F" d="M268.154,14.561h-2.744V9.268c0-1.12-0.059-1.844-0.176-2.173s-0.308-0.584-0.571-0.767
	s-0.581-0.273-0.952-0.273c-0.475,0-0.902,0.13-1.279,0.391s-0.636,0.605-0.776,1.035s-0.21,1.224-0.21,2.383v4.697h-2.744V4.19
	h2.549v1.523c0.905-1.172,2.044-1.758,3.418-1.758c0.605,0,1.159,0.109,1.66,0.327s0.88,0.497,1.138,0.835s0.436,0.723,0.537,1.152
	s0.151,1.045,0.151,1.846v6.446C268.155,14.561,268.154,14.561,268.154,14.561z"/>
<g>
	<path fill="#EDE07B" d="M226.478,73.698c-3.957,0-7.228,2.906-7.82,6.698h15.64C233.708,76.604,230.438,73.698,226.478,73.698z"/>
	<path fill="#EDE07B" d="M226.341,28.754c-72.006,0-130.379,58.373-130.379,130.379s58.373,130.379,130.379,130.379
		S356.72,231.139,356.72,159.133S298.347,28.754,226.341,28.754z M285.738,96.171c-0.296,8.305-2.915,80.267-14.825,97.807
		c-6.053,8.913-19.244,33.105-29.717,38.631h-29.712c-10.471-5.527-23.665-29.718-29.717-38.631
		c-11.911-17.54-14.527-89.503-14.826-97.807c-0.017-0.304-0.03-0.609-0.03-0.918c0-8.206,6.65-14.856,14.856-14.856h29.909
		c0.627-7.629,7.012-13.629,14.802-13.629c7.793,0,14.179,5.999,14.804,13.629h29.631c8.204,0,14.858,6.651,14.858,14.856
		C285.771,95.562,285.757,95.867,285.738,96.171z"/>
</g>
<path fill="#D5C400" d="M281.948,85.196c0.014,0.021,0.011,0.062,0,0.112c2.377,2.633,3.823,6.12,3.823,9.944
	c0,0.311-0.013,0.615-0.03,0.918c-0.299,8.304-2.918,80.267-14.826,97.807c-6.055,8.913-19.246,33.104-29.717,38.631h-0.002
	c0.023,0.271,0.041,0.544,0.041,0.824v2.061c0,4.555-3.705,8.248-8.275,8.248h-1.959v16.521v7.495v0.003v0.655
	c0,2.574-2.087,4.661-4.66,4.661c-1.074,0-2.063-0.367-2.854-0.979l14.433,16.896c3.411-0.302,6.788-0.73,10.119-1.29
	c57.638-9.657,102.453-57.121,108.076-116.03L281.948,85.196z"/>
<g>
	<g>
		
			<circle fill="none" stroke="#EDE07B" stroke-width="0" stroke-linecap="round" stroke-linejoin="round" cx="226.342" cy="159.133" r="130.378"/>
		<path fill="none" stroke="#EDE07B" stroke-width="0" stroke-linecap="round" stroke-linejoin="round" d="M218.564,80.975h15.643
			c-0.591-3.792-3.863-6.698-7.821-6.698S219.157,77.183,218.564,80.975z"/>
		
			<path opacity="0.4" fill="none" stroke="#FFFFFF" stroke-width="0" stroke-linecap="round" stroke-linejoin="round" enable-background="new    " d="
			M218.564,80.975h15.643c-0.591-3.792-3.863-6.698-7.821-6.698S219.157,77.183,218.564,80.975z"/>
		<path fill="none" stroke="#EDE07B" stroke-width="0" stroke-linecap="round" stroke-linejoin="round" d="M166.816,95.832
			c0,0.309,0.013,0.614,0.031,0.918c0.298,8.304,2.916,80.267,14.826,97.807c6.053,8.913,19.245,33.104,29.716,38.631h29.713
			c10.471-5.526,23.663-29.718,29.716-38.631c11.91-17.54,14.529-89.502,14.826-97.807c0.019-0.304,0.031-0.609,0.031-0.918
			c0-8.205-6.651-14.856-14.857-14.856h-29.63c-0.625-7.63-7.012-13.629-14.802-13.629c-7.791,0-14.178,6-14.803,13.629h-29.91
			C173.468,80.976,166.816,87.626,166.816,95.832z"/>
		
			<path opacity="0.4" fill="none" stroke="#FFFFFF" stroke-width="0" stroke-linecap="round" stroke-linejoin="round" enable-background="new    " d="
			M166.816,95.832c0,0.309,0.013,0.614,0.031,0.918c0.298,8.304,2.916,80.267,14.826,97.807
			c6.053,8.913,19.245,33.104,29.716,38.631h29.713c10.471-5.526,23.663-29.718,29.716-38.631
			c11.91-17.54,14.529-89.502,14.826-97.807c0.019-0.304,0.031-0.609,0.031-0.918c0-8.205-6.651-14.856-14.857-14.856h-29.63
			c-0.625-7.63-7.012-13.629-14.802-13.629c-7.791,0-14.178,6-14.803,13.629h-29.91C173.468,80.976,166.816,87.626,166.816,95.832z"
			/>
	</g>
</g>
</svg>
