<?xml version="1.0" encoding="utf-8"?>
<!-- Generator: Adobe Illustrator 17.0.1, SVG Export Plug-In . SVG Version: 6.00 Build 0)  -->
<!DOCTYPE svg PUBLIC "-//W3C//DTD SVG 1.1//EN" "http://www.w3.org/Graphics/SVG/1.1/DTD/svg11.dtd">
<svg version="1.1" id="Layer_1" xmlns="http://www.w3.org/2000/svg" xmlns:xlink="http://www.w3.org/1999/xlink" x="0px" y="0px"
	 width="711px" height="97.5px" viewBox="0 0 711 97.5" enable-background="new 0 0 711 97.5" xml:space="preserve">
<g id="_x2A_6.1_Dosing">
	<g enable-background="new    ">
		<path fill="#60A296" d="M3.457,25.003V9.786H0V4.937h12.673v4.849H8.882v14.93c0,4.848,2.448,7.44,6.48,7.44
			c4.081,0,6.529-2.353,6.529-7.249V9.786h-3.792V4.937h12.529v4.849h-3.457v15.121c0,8.257-4.848,12.193-11.809,12.193
			C8.305,37.1,3.457,33.164,3.457,25.003z"/>
		<path fill="#60A296" d="M47.618,22.987c-1.68,0-2.832-1.008-2.832-2.592c0-0.337,0-0.625,0.096-0.912
			c-0.864-0.337-1.92-0.528-2.976-0.528c-2.352,0-3.504,1.056-3.504,2.16c0,1.2,1.2,1.824,4.417,2.688
			c5.041,1.344,7.969,2.592,7.969,6.384c0,4.417-4.128,6.769-8.881,6.769c-3.216,0-6.673-1.151-8.065-2.544
			c-0.864-0.864-1.2-1.728-1.2-2.832c0-1.536,1.152-2.832,2.785-2.832c1.44,0,2.832,0.96,2.832,2.784
			c0,0.288-0.048,0.576-0.096,0.864c0.96,0.384,2.304,0.672,3.792,0.672c2.112,0,3.84-0.721,3.84-2.257
			c0-1.056-0.912-1.68-4.128-2.544c-5.809-1.536-8.256-2.928-8.256-6.528c0-3.265,2.688-6.673,8.592-6.673
			c2.544,0,5.617,0.96,7.057,2.4c0.768,0.768,1.152,1.68,1.152,2.688C50.21,21.835,49.154,22.987,47.618,22.987z"/>
		<path fill="#60A296" d="M59.665,27.788c0.72,3.264,3.408,4.704,6.913,4.704c2.544,0,5.185-0.816,7.633-2.208l-0.432,4.704
			c-2.208,1.296-4.896,1.92-7.969,1.92c-6.864,0-11.617-4.32-11.617-10.849c0-5.952,4.176-10.945,10.657-10.945
			c6.721,0,10.225,4.513,10.225,10.081c0,0.816-0.096,1.872-0.24,2.593C74.835,27.788,59.665,27.788,59.665,27.788z M59.617,24.139
			h10.225c-0.096-2.881-1.968-4.801-5.04-4.801C62.497,19.338,60.193,20.682,59.617,24.139z"/>
		<path fill="#60A296" d="M89.328,20.731c0-9.266,6.721-16.37,16.322-16.37c9.553,0,16.081,7.153,16.081,16.37
			c0,9.265-6.72,16.369-16.321,16.369C95.857,37.1,89.328,29.948,89.328,20.731z M116.114,20.731
			c0-6.577-4.464-11.329-10.561-11.329c-6.145,0-10.609,4.704-10.609,11.329c0,6.576,4.464,11.328,10.609,11.328
			C111.65,32.059,116.114,27.355,116.114,20.731z"/>
		<path fill="#60A296" d="M125.184,41.613h3.12V19.915h-3.12v-4.416h8.161v2.399c1.632-1.536,3.408-2.784,6.241-2.784
			c5.472,0,9.601,4.465,9.601,10.801c0,6.097-4.368,10.993-9.937,10.993c-2.256,0-4.128-0.815-5.712-2.016v6.721h3.408v4.32h-11.761
			L125.184,41.613L125.184,41.613z M143.809,25.963c0-4.033-2.4-6.337-5.376-6.337c-1.968,0-3.504,0.864-4.896,2.112v9.024
			c1.344,0.96,2.976,1.633,4.896,1.633C141.217,32.396,143.809,30.139,143.809,25.963z"/>
		<path fill="#60A296" d="M156.048,34.028c-0.48-0.864-0.72-1.969-0.72-3.312V19.915h-4.08v-4.416h4.08v-4.417l5.185-2.256v6.673
			h6.385v4.416h-6.385v9.793c0,0.672,0.096,1.104,0.336,1.536c0.384,0.672,1.152,1.008,2.208,1.008c1.344,0,2.88-0.528,4.128-1.104
			l-0.432,4.513c-1.44,0.721-3.121,1.248-5.041,1.248C159.168,36.908,157.104,36.044,156.048,34.028z"/>
		<path fill="#60A296" d="M170.063,32.204h3.216V19.915h-3.216v-4.416h8.449v16.705h3.12v4.32h-11.569V32.204z M171.887,8.826
			c0-1.92,1.68-3.456,3.552-3.456s3.457,1.536,3.457,3.456s-1.68,3.456-3.553,3.456C173.471,12.282,171.887,10.746,171.887,8.826z"
			/>
		<path fill="#60A296" d="M199.729,22.987c-1.68,0-2.832-1.008-2.832-2.592c0-0.337,0-0.625,0.096-0.912
			c-0.864-0.337-1.92-0.528-2.976-0.528c-2.353,0-3.504,1.056-3.504,2.16c0,1.2,1.2,1.824,4.417,2.688
			c5.041,1.344,7.969,2.592,7.969,6.384c0,4.417-4.128,6.769-8.881,6.769c-3.216,0-6.673-1.151-8.065-2.544
			c-0.864-0.864-1.2-1.728-1.2-2.832c0-1.536,1.152-2.832,2.784-2.832c1.44,0,2.832,0.96,2.832,2.784
			c0,0.288-0.048,0.576-0.096,0.864c0.96,0.384,2.304,0.672,3.792,0.672c2.112,0,3.84-0.721,3.84-2.257
			c0-1.056-0.912-1.68-4.128-2.544c-5.809-1.536-8.257-2.928-8.257-6.528c0-3.265,2.688-6.673,8.593-6.673
			c2.544,0,5.617,0.96,7.057,2.4c0.768,0.768,1.152,1.68,1.152,2.688C202.321,21.835,201.265,22.987,199.729,22.987z"/>
		<path fill="#60A296" d="M210.048,34.028c-0.48-0.864-0.72-1.969-0.72-3.312V19.915h-4.08v-4.416h4.08v-4.417l5.185-2.256v6.673
			h6.385v4.416h-6.385v9.793c0,0.672,0.096,1.104,0.336,1.536c0.384,0.672,1.152,1.008,2.208,1.008c1.344,0,2.88-0.528,4.128-1.104
			l-0.432,4.513c-1.44,0.721-3.121,1.248-5.041,1.248C213.168,36.908,211.104,36.044,210.048,34.028z"/>
		<path fill="#60A296" d="M224.206,31.003c0-3.937,3.456-6.337,8.449-6.337c2.16,0,4.176,0.288,5.329,0.576v-1.68
			c0-1.248-0.288-2.208-0.816-2.881c-0.864-1.104-2.256-1.536-4.128-1.536c-0.912,0-1.584,0.145-2.064,0.337
			c0.096,0.287,0.192,0.768,0.192,1.056c0,1.584-1.248,2.736-2.832,2.736s-2.784-1.104-2.784-2.832c0-2.593,2.64-5.329,8.353-5.329
			c3.601,0,6.048,1.009,7.537,2.833c1.104,1.344,1.632,3.168,1.632,5.28v8.977h3.12v4.32h-8.113v-2.305
			c-1.68,1.44-4.224,2.688-7.057,2.688C227.423,36.908,224.206,34.94,224.206,31.003z M237.984,31.244v-3.312
			c-1.2-0.288-2.688-0.48-4.321-0.48c-2.544,0-4.08,1.152-4.08,3.072c0,1.681,1.248,2.593,3.12,2.593S236.399,32.396,237.984,31.244
			z"/>
		<path fill="#60A296" d="M248.783,19.915h-2.448v-4.416h10.753v4.176h-3.024l5.041,10.945l5.041-10.945h-3.168v-4.176h10.705v4.416
			h-2.448l-8.353,16.993h-3.744L248.783,19.915z"/>
		<path fill="#60A296" d="M273.454,32.204h3.216V19.915h-3.216v-4.416h8.449v16.705h3.12v4.32h-11.569V32.204z M275.278,8.826
			c0-1.92,1.68-3.456,3.552-3.456s3.457,1.536,3.457,3.456s-1.68,3.456-3.553,3.456C276.862,12.282,275.278,10.746,275.278,8.826z"
			/>
		<path fill="#60A296" d="M296.206,18.858c2.016-1.968,4.272-3.744,7.345-3.744c2.496,0,4.32,1.009,5.424,2.688
			c0.72,1.152,1.104,2.593,1.104,4.32v10.081h3.12v4.32h-11.233v-4.32h2.88v-8.785c0-0.863-0.144-1.632-0.432-2.16
			c-0.48-0.912-1.344-1.392-2.592-1.392c-1.824,0-3.744,1.056-5.424,2.448v9.889h2.88v4.32h-11.233v-4.32h3.12V19.914h-3.12v-4.416
			h8.161V18.858z"/>
		<path fill="#60A296" d="M349.295,32.204h3.121v4.32h-11.329v-4.32h2.976V19.915h-9.457v12.289h3.84v4.32h-12.193v-4.32h3.168
			V19.915h-3.601v-4.416h3.601v-3.601c0-3.648,1.008-6.528,2.832-8.353C333.885,1.912,336.19,1,338.59,1
			c3.696,0,5.521,1.969,5.521,4.177c0,1.729-1.44,3.216-3.168,3.216s-3.12-1.344-3.216-2.928c-0.624,0.048-1.392,0.336-2.016,1.2
			s-1.104,2.256-1.104,4.464v4.369h14.689L349.295,32.204L349.295,32.204z"/>
		<path fill="#60A296" d="M374.158,18.571c0,1.775-1.392,3.264-3.121,3.264c-1.584,0-2.64-0.912-3.072-1.872
			c-1.488,0.528-3.216,2.16-4.176,3.984v8.257h3.648v4.32h-12.001v-4.32h3.12V19.915h-3.12v-4.416h8.161v4.752
			c1.776-2.832,3.984-5.137,6.672-5.137C372.862,15.114,374.158,16.698,374.158,18.571z"/>
		<path fill="#60A296" d="M391.246,22.987c-1.68,0-2.832-1.008-2.832-2.592c0-0.337,0-0.625,0.096-0.912
			c-0.864-0.337-1.92-0.528-2.976-0.528c-2.352,0-3.504,1.056-3.504,2.16c0,1.2,1.2,1.824,4.417,2.688
			c5.041,1.344,7.969,2.592,7.969,6.384c0,4.417-4.128,6.769-8.881,6.769c-3.216,0-6.673-1.151-8.065-2.544
			c-0.864-0.864-1.2-1.728-1.2-2.832c0-1.536,1.152-2.832,2.785-2.832c1.44,0,2.832,0.96,2.832,2.784
			c0,0.288-0.048,0.576-0.096,0.864c0.96,0.384,2.304,0.672,3.792,0.672c2.112,0,3.84-0.721,3.84-2.257
			c0-1.056-0.912-1.68-4.128-2.544c-5.809-1.536-8.256-2.928-8.256-6.528c0-3.265,2.688-6.673,8.592-6.673
			c2.544,0,5.617,0.96,7.057,2.4c0.768,0.768,1.152,1.68,1.152,2.688C393.838,21.835,392.782,22.987,391.246,22.987z"/>
		<path fill="#60A296" d="M401.564,34.028c-0.48-0.864-0.72-1.969-0.72-3.312V19.915h-4.081v-4.416h4.081v-4.417l5.185-2.256v6.673
			h6.384v4.416h-6.384v9.793c0,0.672,0.096,1.104,0.336,1.536c0.384,0.672,1.151,1.008,2.208,1.008c1.344,0,2.88-0.528,4.128-1.104
			l-0.432,4.513c-1.44,0.721-3.12,1.248-5.041,1.248C404.684,36.908,402.62,36.044,401.564,34.028z"/>
		<path fill="#60A296" d="M416.06,20.251h13.922v5.377h-13.921L416.06,20.251L416.06,20.251z"/>
		<path fill="#60A296" d="M433.866,32.204h3.266V5.801h-3.266V1.385h8.498v30.818h3.119v4.32h-11.617L433.866,32.204L433.866,32.204
			z"/>
		<path fill="#60A296" d="M448.316,32.204h3.215V19.915h-3.215v-4.416h8.447v16.705h3.121v4.32h-11.568V32.204z M450.14,8.826
			c0-1.92,1.68-3.456,3.551-3.456c1.873,0,3.457,1.536,3.457,3.456s-1.68,3.456-3.553,3.456
			C451.724,12.282,450.14,10.746,450.14,8.826z"/>
		<path fill="#60A296" d="M471.066,18.858c2.018-1.968,4.273-3.744,7.346-3.744c2.496,0,4.32,1.009,5.424,2.688
			c0.721,1.152,1.105,2.593,1.105,4.32v10.081h3.119v4.32h-11.232v-4.32h2.881v-8.785c0-0.863-0.145-1.632-0.434-2.16
			c-0.479-0.912-1.344-1.392-2.592-1.392c-1.824,0-3.744,1.056-5.424,2.448v9.889h2.879v4.32h-11.232v-4.32h3.121V19.914h-3.121
			v-4.416h8.16L471.066,18.858L471.066,18.858z"/>
		<path fill="#60A296" d="M495.595,27.788c0.721,3.264,3.408,4.704,6.914,4.704c2.543,0,5.184-0.816,7.631-2.208l-0.432,4.704
			c-2.207,1.296-4.896,1.92-7.969,1.92c-6.863,0-11.617-4.32-11.617-10.849c0-5.952,4.178-10.945,10.658-10.945
			c6.721,0,10.225,4.513,10.225,10.081c0,0.816-0.096,1.872-0.24,2.593H495.595z M495.548,24.139h10.225
			c-0.096-2.881-1.969-4.801-5.041-4.801C498.427,19.338,496.124,20.682,495.548,24.139z"/>
		<path fill="#60A296" d="M524.73,31.003c0-3.937,3.457-6.337,8.449-6.337c2.16,0,4.178,0.288,5.328,0.576v-1.68
			c0-1.248-0.287-2.208-0.814-2.881c-0.865-1.104-2.258-1.536-4.129-1.536c-0.912,0-1.584,0.145-2.064,0.337
			c0.096,0.287,0.191,0.768,0.191,1.056c0,1.584-1.248,2.736-2.832,2.736s-2.783-1.104-2.783-2.832c0-2.593,2.639-5.329,8.352-5.329
			c3.602,0,6.049,1.009,7.537,2.833c1.104,1.344,1.633,3.168,1.633,5.28v8.977h3.119v4.32h-8.111v-2.305
			c-1.682,1.44-4.225,2.688-7.057,2.688C527.946,36.908,524.73,34.94,524.73,31.003z M538.507,31.244v-3.312
			c-1.199-0.288-2.688-0.48-4.32-0.48c-2.543,0-4.08,1.152-4.08,3.072c0,1.681,1.248,2.593,3.121,2.593
			C535.099,33.116,536.923,32.396,538.507,31.244z"/>
		<path fill="#60A296" d="M557.13,18.858c2.016-1.968,4.271-3.744,7.344-3.744c2.496,0,4.32,1.009,5.426,2.688
			c0.719,1.152,1.104,2.593,1.104,4.32v10.081h3.121v4.32h-11.234v-4.32h2.881v-8.785c0-0.863-0.145-1.632-0.432-2.16
			c-0.48-0.912-1.344-1.392-2.592-1.392c-1.824,0-3.746,1.056-5.426,2.448v9.889h2.881v4.32h-11.232v-4.32h3.119V19.914h-3.119
			v-4.416h8.16L557.13,18.858L557.13,18.858z"/>
		<path fill="#60A296" d="M576.187,26.107c0-6.097,4.416-10.993,10.08-10.993c2.689,0,4.656,1.009,5.857,2.017V5.801h-3.168V1.385
			h8.4v30.818h3.119v4.32h-8.352v-2.305c-1.537,1.488-3.504,2.688-6.193,2.688C580.362,36.908,576.187,32.444,576.187,26.107z
			 M592.124,30.284v-9.025c-1.393-0.96-3.025-1.632-4.992-1.632c-2.93,0-5.568,2.256-5.568,6.433c0,4.032,2.496,6.337,5.568,6.337
			C589.099,32.396,590.683,31.532,592.124,30.284z"/>
	</g>
	<g enable-background="new    ">
		<path fill="#60A296" d="M0.337,75.819c0-5.473,4.416-10.705,10.657-10.705c5.761,0,9.553,3.744,9.553,7.057
			c0,2.208-1.488,3.553-3.36,3.553c-1.728,0-3.168-1.44-3.168-3.168c0-0.625,0.288-1.345,0.672-1.776
			c-0.384-0.528-1.68-1.44-3.744-1.44c-2.4,0-5.376,1.968-5.376,6.576c0,4.033,3.072,6.577,6.816,6.577
			c2.544,0,4.752-0.72,7.489-2.208l-0.432,4.704c-2.256,1.296-4.417,1.92-7.489,1.92C5.329,86.908,0.337,82.587,0.337,75.819z"/>
		<path fill="#60A296" d="M23.953,76.011c0-5.761,4.32-10.897,11.185-10.897c6.961,0,11.185,5.041,11.185,10.897
			c0,5.761-4.32,10.896-11.185,10.896C28.177,86.908,23.953,81.868,23.953,76.011z M40.946,76.011c0-3.841-2.4-6.528-5.809-6.528
			c-3.408,0-5.808,2.688-5.808,6.528s2.4,6.528,5.808,6.528C38.547,82.54,40.946,79.851,40.946,76.011z"/>
		<path fill="#60A296" d="M57.602,68.858c2.016-1.968,4.272-3.744,7.345-3.744c2.496,0,4.32,1.009,5.424,2.688
			c0.72,1.152,1.104,2.593,1.104,4.32v10.081h3.12v4.32H63.362v-4.32h2.88v-8.785c0-0.863-0.144-1.632-0.432-2.16
			c-0.48-0.912-1.344-1.392-2.592-1.392c-1.824,0-3.744,1.056-5.424,2.448v9.889h2.88v4.32H49.441v-4.32h3.12V69.914h-3.12v-4.416
			h8.161V68.858z"/>
		<path fill="#60A296" d="M80.593,84.028c-0.48-0.864-0.72-1.969-0.72-3.312V69.915h-4.08v-4.416h4.08v-4.417l5.185-2.256v6.673
			h6.385v4.416h-6.385v9.793c0,0.672,0.096,1.104,0.336,1.536c0.384,0.672,1.152,1.008,2.208,1.008c1.344,0,2.88-0.528,4.128-1.104
			l-0.432,4.513c-1.44,0.721-3.121,1.248-5.041,1.248C83.714,86.908,81.65,86.044,80.593,84.028z"/>
		<path fill="#60A296" d="M94.608,82.204h3.216V69.915h-3.216v-4.416h8.449v16.705h3.12v4.32H94.608V82.204z M96.432,58.826
			c0-1.92,1.68-3.456,3.552-3.456s3.457,1.536,3.457,3.456s-1.68,3.456-3.553,3.456C98.016,62.282,96.432,60.746,96.432,58.826z"/>
		<path fill="#60A296" d="M117.361,68.858c2.016-1.968,4.272-3.744,7.345-3.744c2.496,0,4.32,1.009,5.424,2.688
			c0.72,1.152,1.104,2.593,1.104,4.32v10.081h3.12v4.32h-11.233v-4.32h2.88v-8.785c0-0.863-0.144-1.632-0.432-2.16
			c-0.48-0.912-1.344-1.392-2.592-1.392c-1.824,0-3.744,1.056-5.424,2.448v9.889h2.88v4.32H109.2v-4.32h3.12V69.914h-3.12v-4.416
			h8.161V68.858z"/>
		<path fill="#60A296" d="M140.064,84.124c-0.672-1.104-1.056-2.544-1.056-4.225v-9.984h-3.12v-4.416h8.353v13.104
			c0,0.912,0.144,1.584,0.432,2.16c0.48,0.912,1.344,1.393,2.592,1.393c1.824,0,3.744-1.057,5.424-2.448v-9.793h-3.264v-4.416h8.497
			v16.705h3.121v4.32h-8.161v-3.36c-2.017,1.968-4.272,3.744-7.345,3.744C142.992,86.908,141.12,85.852,140.064,84.124z"/>
		<path fill="#60A296" d="M169.392,77.788c0.72,3.264,3.408,4.704,6.913,4.704c2.544,0,5.185-0.816,7.633-2.208l-0.432,4.704
			c-2.208,1.296-4.896,1.92-7.969,1.92c-6.864,0-11.617-4.32-11.617-10.849c0-5.952,4.176-10.945,10.657-10.945
			c6.721,0,10.225,4.513,10.225,10.081c0,0.816-0.096,1.872-0.24,2.593L169.392,77.788L169.392,77.788z M169.344,74.139h10.225
			c-0.096-2.881-1.968-4.801-5.04-4.801C172.225,69.338,169.921,70.682,169.344,74.139z"/>
		<path fill="#60A296" d="M198.527,81.003c0-3.937,3.456-6.337,8.449-6.337c2.16,0,4.176,0.288,5.329,0.576v-1.68
			c0-1.248-0.288-2.208-0.816-2.881c-0.864-1.104-2.256-1.536-4.128-1.536c-0.912,0-1.584,0.145-2.064,0.337
			c0.096,0.287,0.192,0.768,0.192,1.056c0,1.584-1.248,2.736-2.832,2.736s-2.784-1.104-2.784-2.832c0-2.593,2.64-5.329,8.353-5.329
			c3.6,0,6.048,1.009,7.537,2.833c1.104,1.344,1.632,3.168,1.632,5.28v8.977h3.12v4.32h-8.113v-2.305
			c-1.68,1.44-4.224,2.688-7.057,2.688C201.743,86.908,198.527,84.94,198.527,81.003z M212.304,81.244v-3.312
			c-1.2-0.288-2.688-0.48-4.32-0.48c-2.544,0-4.081,1.152-4.081,3.072c0,1.681,1.248,2.593,3.12,2.593S210.72,82.396,212.304,81.244
			z"/>
		<path fill="#60A296" d="M237.84,72.987c-1.68,0-2.832-1.008-2.832-2.592c0-0.337,0-0.625,0.096-0.912
			c-0.864-0.337-1.92-0.528-2.976-0.528c-2.352,0-3.504,1.056-3.504,2.16c0,1.2,1.2,1.824,4.417,2.688
			c5.041,1.344,7.969,2.592,7.969,6.384c0,4.417-4.128,6.769-8.881,6.769c-3.216,0-6.673-1.151-8.065-2.544
			c-0.864-0.864-1.2-1.728-1.2-2.832c0-1.536,1.152-2.832,2.785-2.832c1.44,0,2.832,0.96,2.832,2.784
			c0,0.288-0.048,0.576-0.096,0.864c0.96,0.384,2.304,0.672,3.792,0.672c2.112,0,3.84-0.721,3.84-2.257
			c0-1.056-0.912-1.68-4.128-2.544c-5.809-1.536-8.256-2.928-8.256-6.528c0-3.265,2.688-6.673,8.592-6.673
			c2.544,0,5.617,0.96,7.057,2.4c0.768,0.768,1.152,1.68,1.152,2.688C240.433,71.835,239.377,72.987,237.84,72.987z"/>
		<path fill="#60A296" d="M254.974,82.204h3.12V69.915h-3.12v-4.416h8.161v3.312c1.632-1.775,3.936-3.696,7.057-3.696
			c2.256,0,3.936,0.864,4.992,2.257c0.288,0.384,0.48,0.768,0.672,1.2c1.968-1.921,4.32-3.457,7.008-3.457
			c2.928,0,4.944,1.057,6,3.024c0.576,1.057,0.864,2.4,0.864,3.937v10.129h3.12v4.32h-11.185v-4.32h2.833v-8.881
			c0-0.816-0.096-1.44-0.336-1.968c-0.432-1.009-1.296-1.488-2.497-1.488c-1.728,0-3.552,1.008-5.136,2.352v9.985h2.832v4.32
			h-10.945v-4.32h2.88v-8.881c0-0.816-0.096-1.44-0.336-1.968c-0.432-1.009-1.248-1.488-2.496-1.488
			c-1.729,0-3.553,1.008-5.137,2.352v9.985h2.784v4.32h-11.137v-4.321L254.974,82.204L254.974,82.204z"/>
		<path fill="#60A296" d="M294.958,81.003c0-3.937,3.456-6.337,8.449-6.337c2.16,0,4.176,0.288,5.329,0.576v-1.68
			c0-1.248-0.288-2.208-0.816-2.881c-0.864-1.104-2.256-1.536-4.128-1.536c-0.912,0-1.584,0.145-2.064,0.337
			c0.096,0.287,0.192,0.768,0.192,1.056c0,1.584-1.248,2.736-2.832,2.736s-2.784-1.104-2.784-2.832c0-2.593,2.64-5.329,8.353-5.329
			c3.601,0,6.048,1.009,7.537,2.833c1.104,1.344,1.632,3.168,1.632,5.28v8.977h3.12v4.32h-8.113v-2.305
			c-1.68,1.44-4.224,2.688-7.057,2.688C298.174,86.908,294.958,84.94,294.958,81.003z M308.736,81.244v-3.312
			c-1.2-0.288-2.688-0.48-4.321-0.48c-2.544,0-4.08,1.152-4.08,3.072c0,1.681,1.248,2.593,3.12,2.593S307.151,82.396,308.736,81.244
			z"/>
		<path fill="#60A296" d="M319.246,82.204h3.216V69.915h-3.216v-4.416h8.449v16.705h3.12v4.32h-11.569V82.204z M321.07,58.826
			c0-1.92,1.68-3.456,3.552-3.456s3.457,1.536,3.457,3.456s-1.68,3.456-3.553,3.456C322.654,62.282,321.07,60.746,321.07,58.826z"/>
		<path fill="#60A296" d="M341.998,68.858c2.016-1.968,4.272-3.744,7.345-3.744c2.496,0,4.32,1.009,5.424,2.688
			c0.72,1.152,1.104,2.593,1.104,4.32v10.081h3.12v4.32h-11.233v-4.32h2.88v-8.785c0-0.863-0.144-1.632-0.432-2.16
			c-0.48-0.912-1.344-1.392-2.592-1.392c-1.824,0-3.744,1.056-5.424,2.448v9.889h2.88v4.32h-11.233v-4.32h3.12V69.914h-3.12v-4.416
			h8.161V68.858z"/>
		<path fill="#60A296" d="M364.99,84.028c-0.48-0.864-0.72-1.969-0.72-3.312V69.915h-4.08v-4.416h4.08v-4.417l5.185-2.256v6.673
			h6.385v4.416h-6.385v9.793c0,0.672,0.096,1.104,0.336,1.536c0.384,0.672,1.152,1.008,2.208,1.008c1.344,0,2.88-0.528,4.128-1.104
			l-0.432,4.513c-1.44,0.721-3.121,1.248-5.041,1.248C368.11,86.908,366.046,86.044,364.99,84.028z"/>
		<path fill="#60A296" d="M384.093,77.788c0.72,3.264,3.408,4.704,6.913,4.704c2.544,0,5.185-0.816,7.632-2.208l-0.432,4.704
			c-2.208,1.296-4.896,1.92-7.969,1.92c-6.864,0-11.617-4.32-11.617-10.849c0-5.952,4.176-10.945,10.657-10.945
			c6.721,0,10.225,4.513,10.225,10.081c0,0.816-0.096,1.872-0.239,2.593L384.093,77.788L384.093,77.788z M384.046,74.139h10.225
			c-0.096-2.881-1.968-4.801-5.04-4.801C386.926,69.338,384.622,70.682,384.046,74.139z"/>
		<path fill="#60A296" d="M410.637,68.858c2.017-1.968,4.272-3.744,7.345-3.744c2.496,0,4.32,1.009,5.425,2.688
			c0.719,1.152,1.104,2.593,1.104,4.32v10.081h3.121v4.32h-11.234v-4.32h2.88v-8.785c0-0.863-0.145-1.632-0.432-2.16
			c-0.479-0.912-1.344-1.392-2.592-1.392c-1.824,0-3.745,1.056-5.425,2.448v9.889h2.88v4.32h-11.232v-4.32h3.12V69.914h-3.12v-4.416
			h8.16V68.858z"/>
		<path fill="#60A296" d="M429.741,81.003c0-3.937,3.457-6.337,8.449-6.337c2.16,0,4.176,0.288,5.328,0.576v-1.68
			c0-1.248-0.289-2.208-0.816-2.881c-0.863-1.104-2.256-1.536-4.129-1.536c-0.912,0-1.584,0.145-2.064,0.337
			c0.098,0.287,0.193,0.768,0.193,1.056c0,1.584-1.248,2.736-2.832,2.736s-2.785-1.104-2.785-2.832c0-2.593,2.641-5.329,8.354-5.329
			c3.6,0,6.049,1.009,7.537,2.833c1.104,1.344,1.631,3.168,1.631,5.28v8.977h3.121v4.32h-8.113v-2.305
			c-1.68,1.44-4.225,2.688-7.057,2.688C432.958,86.908,429.741,84.94,429.741,81.003z M443.519,81.244v-3.312
			c-1.201-0.288-2.688-0.48-4.32-0.48c-2.545,0-4.08,1.152-4.08,3.072c0,1.681,1.248,2.593,3.119,2.593
			C440.111,83.116,441.935,82.396,443.519,81.244z"/>
		<path fill="#60A296" d="M462.142,68.858c2.016-1.968,4.271-3.744,7.344-3.744c2.496,0,4.32,1.009,5.426,2.688
			c0.719,1.152,1.104,2.593,1.104,4.32v10.081h3.121v4.32h-11.235v-4.32h2.881v-8.785c0-0.863-0.145-1.632-0.432-2.16
			c-0.48-0.912-1.344-1.392-2.592-1.392c-1.824,0-3.746,1.056-5.426,2.448v9.889h2.881v4.32h-11.232v-4.32h3.119V69.914h-3.119
			v-4.416h8.16L462.142,68.858L462.142,68.858z"/>
		<path fill="#60A296" d="M481.196,75.819c0-5.473,4.418-10.705,10.658-10.705c5.76,0,9.553,3.744,9.553,7.057
			c0,2.208-1.488,3.553-3.361,3.553c-1.727,0-3.168-1.44-3.168-3.168c0-0.625,0.289-1.345,0.672-1.776
			c-0.383-0.528-1.68-1.44-3.744-1.44c-2.4,0-5.377,1.968-5.377,6.576c0,4.033,3.072,6.577,6.818,6.577
			c2.543,0,4.752-0.72,7.488-2.208l-0.434,4.704c-2.256,1.296-4.416,1.92-7.488,1.92C486.191,86.908,481.196,82.587,481.196,75.819z
			"/>
		<path fill="#60A296" d="M510.286,77.788c0.719,3.264,3.408,4.704,6.912,4.704c2.545,0,5.184-0.816,7.633-2.208l-0.432,4.704
			c-2.209,1.296-4.896,1.92-7.969,1.92c-6.865,0-11.617-4.32-11.617-10.849c0-5.952,4.176-10.945,10.656-10.945
			c6.721,0,10.225,4.513,10.225,10.081c0,0.816-0.096,1.872-0.24,2.593L510.286,77.788L510.286,77.788z M510.237,74.139h10.225
			c-0.096-2.881-1.967-4.801-5.039-4.801C513.118,69.338,510.814,70.682,510.237,74.139z"/>
		<path fill="#60A296" d="M542.974,84.028c-0.48-0.864-0.721-1.969-0.721-3.312V69.915h-4.08v-4.416h4.08v-4.417l5.186-2.256v6.673
			h6.383v4.416h-6.383v9.793c0,0.672,0.096,1.104,0.336,1.536c0.383,0.672,1.15,1.008,2.207,1.008c1.344,0,2.881-0.528,4.129-1.104
			l-0.432,4.513c-1.441,0.721-3.121,1.248-5.041,1.248C546.093,86.908,544.028,86.044,542.974,84.028z"/>
		<path fill="#60A296" d="M556.7,55.801v-4.416h8.354v17.281c1.969-1.872,4.176-3.553,7.152-3.553c2.256,0,4.033,0.816,5.137,2.257
			c0.912,1.2,1.393,2.832,1.393,4.752v10.081h3.119v4.32h-11.233v-4.32h2.881v-8.785c0-1.151-0.24-1.968-0.672-2.544
			c-0.529-0.672-1.346-1.008-2.354-1.008c-1.824,0-3.744,1.056-5.424,2.448v9.889h2.881v4.32H556.7v-4.32h3.121V55.801H556.7z"/>
		<path fill="#60A296" d="M589.39,77.788c0.719,3.264,3.408,4.704,6.912,4.704c2.545,0,5.184-0.816,7.633-2.208l-0.432,4.704
			c-2.209,1.296-4.896,1.92-7.969,1.92c-6.865,0-11.617-4.32-11.617-10.849c0-5.952,4.176-10.945,10.656-10.945
			c6.721,0,10.225,4.513,10.225,10.081c0,0.816-0.096,1.872-0.24,2.593L589.39,77.788L589.39,77.788z M589.341,74.139h10.225
			c-0.096-2.881-1.967-4.801-5.039-4.801C592.222,69.338,589.917,70.682,589.341,74.139z"/>
		<path fill="#60A296" d="M626.495,68.571c0,1.775-1.393,3.264-3.121,3.264c-1.584,0-2.641-0.912-3.072-1.872
			c-1.488,0.528-3.217,2.16-4.176,3.984v8.257h3.648v4.32h-12.002v-4.32h3.121V69.915h-3.121v-4.416h8.16v4.752
			c1.777-2.832,3.984-5.137,6.674-5.137C625.198,65.114,626.495,66.698,626.495,68.571z"/>
		<path fill="#60A296" d="M628.124,81.003c0-3.937,3.457-6.337,8.449-6.337c2.16,0,4.178,0.288,5.328,0.576v-1.68
			c0-1.248-0.287-2.208-0.814-2.881c-0.865-1.104-2.258-1.536-4.129-1.536c-0.912,0-1.584,0.145-2.064,0.337
			c0.096,0.287,0.191,0.768,0.191,1.056c0,1.584-1.248,2.736-2.832,2.736s-2.783-1.104-2.783-2.832c0-2.593,2.639-5.329,8.352-5.329
			c3.602,0,6.049,1.009,7.537,2.833c1.104,1.344,1.633,3.168,1.633,5.28v8.977h3.119v4.32H642v-2.305
			c-1.682,1.44-4.225,2.688-7.057,2.688C631.341,86.908,628.124,84.94,628.124,81.003z M641.902,81.244v-3.312
			c-1.199-0.288-2.688-0.48-4.32-0.48c-2.543,0-4.08,1.152-4.08,3.072c0,1.681,1.248,2.593,3.121,2.593
			C638.493,83.116,640.318,82.396,641.902,81.244z"/>
		<path fill="#60A296" d="M651.788,91.613h3.121V69.915h-3.121v-4.416h8.162v2.399c1.631-1.536,3.408-2.784,6.24-2.784
			c5.473,0,9.6,4.465,9.6,10.801c0,6.097-4.367,10.993-9.936,10.993c-2.258,0-4.129-0.815-5.713-2.016v6.721h3.408v4.32h-11.762
			v-4.32L651.788,91.613L651.788,91.613z M670.415,75.963c0-4.033-2.4-6.337-5.377-6.337c-1.969,0-3.504,0.864-4.896,2.112v9.024
			c1.344,0.96,2.977,1.633,4.896,1.633C667.821,82.396,670.415,80.139,670.415,75.963z"/>
		<path fill="#60A296" d="M682.653,96.077c-2.783,0-4.512-1.632-4.512-3.312c0-1.775,1.199-2.688,2.592-2.688
			c1.248,0,1.969,0.768,2.305,1.584c0.527-0.145,1.104-0.48,1.68-1.248c0.336-0.433,0.623-0.96,0.959-1.633l1.586-3.312
			l-7.49-15.554h-2.592v-4.416h10.85v4.176h-3.072l4.848,11.089l4.896-11.089h-3.264v-4.176h10.801v4.416h-2.545l-9.84,20.882
			c-0.48,0.96-1.008,1.824-1.633,2.544C686.687,95.117,684.765,96.077,682.653,96.077z"/>
		<path fill="#60A296" d="M701.421,82.971c0-2.208,1.775-3.984,3.936-3.984s3.938,1.776,3.938,3.984c0,2.16-1.777,3.937-3.938,3.937
			S701.421,85.131,701.421,82.971z"/>
	</g>
</g>
</svg>
