<?xml version="1.0" encoding="utf-8"?>
<!-- Generator: Adobe Illustrator 17.1.0, SVG Export Plug-In . SVG Version: 6.00 Build 0)  -->
<!DOCTYPE svg PUBLIC "-//W3C//DTD SVG 1.1//EN" "http://www.w3.org/Graphics/SVG/1.1/DTD/svg11.dtd">
<svg version="1.1" id="Layer_1" xmlns="http://www.w3.org/2000/svg" xmlns:xlink="http://www.w3.org/1999/xlink" x="0px" y="0px"
	 viewBox="0 0 543 370" enable-background="new 0 0 543 370" xml:space="preserve">
<g>
	
		<line fill="none" stroke="#E8D948" stroke-width="1.75" stroke-miterlimit="10" stroke-dasharray="3,3" x1="50.7" y1="134.4" x2="543.4" y2="134.4"/>
	
		<line fill="none" stroke="#E8D948" stroke-width="1.75" stroke-miterlimit="10" stroke-dasharray="3,3" x1="303.1" y1="253.3" x2="303.1" y2="4.7"/>
	<rect x="6.8" y="250" fill="#ECF6F2" width="536.6" height="53"/>
	<line fill="none" stroke="#D6ECE6" stroke-width="2" stroke-miterlimit="10" x1="50.7" y1="251.1" x2="6.8" y2="251.1"/>
	<g enable-background="new    ">
		<path fill="#4D4D4F" d="M109.4,270h-1.8v-6.7c-0.7,0.6-1.4,1.1-2.3,1.4V263c0.5-0.2,1-0.4,1.5-0.9c0.5-0.4,0.9-0.9,1.1-1.5h1.4
			V270z"/>
		<path fill="#4D4D4F" d="M115,260.7c0.9,0,1.6,0.3,2.1,1c0.6,0.8,0.9,2,0.9,3.8c0,1.8-0.3,3-0.9,3.8c-0.5,0.6-1.2,1-2.1,1
			c-0.9,0-1.6-0.3-2.2-1c-0.6-0.7-0.8-1.9-0.8-3.7c0-1.8,0.3-3,0.9-3.8C113.4,261,114.1,260.7,115,260.7z M115,262.1
			c-0.2,0-0.4,0.1-0.6,0.2c-0.2,0.1-0.3,0.4-0.4,0.7c-0.1,0.5-0.2,1.2-0.2,2.3c0,1.1,0.1,1.8,0.2,2.3c0.1,0.4,0.3,0.7,0.4,0.8
			c0.2,0.1,0.4,0.2,0.6,0.2c0.2,0,0.4-0.1,0.6-0.2c0.2-0.1,0.3-0.4,0.4-0.7c0.1-0.5,0.2-1.2,0.2-2.3c0-1.1-0.1-1.8-0.2-2.3
			c-0.1-0.4-0.2-0.7-0.4-0.8C115.4,262.2,115.2,262.1,115,262.1z"/>
	</g>
	<g enable-background="new    ">
		<path fill="#4D4D4F" d="M24.8,9.3h-1.8V2.6c-0.7,0.6-1.4,1.1-2.3,1.4V2.4c0.5-0.2,1-0.4,1.5-0.9c0.5-0.4,0.9-0.9,1.1-1.5h1.4V9.3z
			"/>
	</g>
	<g enable-background="new    ">
		<path fill="#4D4D4F" d="M29.5,0c0.9,0,1.6,0.3,2.1,1c0.6,0.8,0.9,2,0.9,3.8c0,1.8-0.3,3-0.9,3.8c-0.5,0.6-1.2,1-2.1,1
			c-0.9,0-1.6-0.3-2.2-1s-0.8-1.9-0.8-3.7c0-1.8,0.3-3,0.9-3.8C27.9,0.3,28.6,0,29.5,0z M29.5,1.5c-0.2,0-0.4,0.1-0.6,0.2
			s-0.3,0.4-0.4,0.7c-0.1,0.5-0.2,1.2-0.2,2.3s0.1,1.8,0.2,2.3s0.2,0.7,0.4,0.8C29.1,8,29.3,8,29.5,8s0.4-0.1,0.6-0.2
			s0.3-0.4,0.4-0.7c0.1-0.5,0.2-1.2,0.2-2.3c0-1.1-0.1-1.8-0.2-2.3s-0.2-0.7-0.4-0.8S29.7,1.5,29.5,1.5z"/>
		<path fill="#4D4D4F" d="M36.7,0c0.9,0,1.6,0.3,2.1,1c0.6,0.8,0.9,2,0.9,3.8c0,1.8-0.3,3-0.9,3.8c-0.5,0.6-1.2,1-2.1,1
			c-0.9,0-1.6-0.3-2.2-1s-0.8-1.9-0.8-3.7c0-1.8,0.3-3,0.9-3.8C35.1,0.3,35.8,0,36.7,0z M36.7,1.5c-0.2,0-0.4,0.1-0.6,0.2
			s-0.3,0.4-0.4,0.7c-0.1,0.5-0.2,1.2-0.2,2.3s0.1,1.8,0.2,2.3s0.2,0.7,0.4,0.8C36.3,8,36.5,8,36.7,8s0.4-0.1,0.6-0.2
			s0.3-0.4,0.4-0.7c0.1-0.5,0.2-1.2,0.2-2.3c0-1.1-0.1-1.8-0.2-2.3s-0.2-0.7-0.4-0.8S36.9,1.5,36.7,1.5z"/>
	</g>
	<g enable-background="new    ">
		<path fill="#4D4D4F" d="M27,65.7v-1.7h6.1v1.3c-0.5,0.5-1,1.2-1.5,2.1s-0.9,1.9-1.2,3c-0.3,1-0.4,2-0.4,2.8h-1.7
			c0-1.3,0.3-2.6,0.8-3.9c0.5-1.3,1.2-2.5,2-3.6L27,65.7L27,65.7z"/>
		<path fill="#4D4D4F" d="M34.3,70.9l1.8-0.2c0.1,0.4,0.2,0.7,0.5,1c0.3,0.2,0.5,0.4,0.9,0.4c0.4,0,0.7-0.2,0.9-0.5s0.4-0.8,0.4-1.4
			c0-0.6-0.1-1-0.4-1.3c-0.3-0.3-0.6-0.4-1-0.4c-0.5,0-1,0.2-1.4,0.7l-1.4-0.2l0.9-4.8h4.7v1.7h-3.4l-0.3,1.6
			c0.4-0.2,0.8-0.3,1.2-0.3c0.8,0,1.5,0.3,2,0.9c0.6,0.6,0.8,1.3,0.8,2.2c0,0.8-0.2,1.4-0.7,2.1c-0.6,0.8-1.4,1.2-2.5,1.2
			c-0.9,0-1.6-0.2-2.1-0.7S34.4,71.7,34.3,70.9z"/>
	</g>
	<g enable-background="new    ">
		<path fill="#4D4D4F" d="M26.5,135.9l1.8-0.2c0.1,0.4,0.2,0.7,0.5,1c0.3,0.2,0.5,0.4,0.9,0.4c0.4,0,0.7-0.2,0.9-0.5
			c0.3-0.3,0.4-0.8,0.4-1.4c0-0.6-0.1-1-0.4-1.3c-0.3-0.3-0.6-0.4-1-0.4c-0.5,0-1,0.2-1.4,0.7l-1.4-0.2l0.9-4.8h4.7v1.7H29l-0.3,1.6
			c0.4-0.2,0.8-0.3,1.2-0.3c0.8,0,1.5,0.3,2,0.9c0.6,0.6,0.8,1.3,0.8,2.2c0,0.8-0.2,1.4-0.7,2.1c-0.6,0.8-1.4,1.2-2.5,1.2
			c-0.9,0-1.6-0.2-2.1-0.7S26.6,136.7,26.5,135.9z"/>
		<path fill="#4D4D4F" d="M36.7,129c0.9,0,1.6,0.3,2.1,1c0.6,0.8,0.9,2,0.9,3.8c0,1.8-0.3,3-0.9,3.8c-0.5,0.6-1.2,1-2.1,1
			c-0.9,0-1.6-0.3-2.2-1s-0.8-1.9-0.8-3.7c0-1.8,0.3-3,0.9-3.8C35.1,129.3,35.8,129,36.7,129z M36.7,130.5c-0.2,0-0.4,0.1-0.6,0.2
			c-0.2,0.1-0.3,0.4-0.4,0.7c-0.1,0.5-0.2,1.2-0.2,2.3s0.1,1.8,0.2,2.3c0.1,0.4,0.2,0.7,0.4,0.8s0.4,0.2,0.6,0.2s0.4-0.1,0.6-0.2
			c0.2-0.1,0.3-0.4,0.4-0.7c0.1-0.5,0.2-1.2,0.2-2.3s-0.1-1.8-0.2-2.3s-0.2-0.7-0.4-0.8S36.9,130.5,36.7,130.5z"/>
	</g>
	<g enable-background="new    ">
		<path fill="#4D4D4F" d="M32.5,205.3v1.7h-6.3c0.1-0.6,0.3-1.2,0.6-1.8c0.3-0.6,1-1.3,2-2.2c0.8-0.7,1.3-1.3,1.5-1.5
			c0.2-0.4,0.4-0.7,0.4-1.1c0-0.4-0.1-0.7-0.3-0.9c-0.2-0.2-0.5-0.3-0.9-0.3c-0.4,0-0.7,0.1-0.9,0.3c-0.2,0.2-0.3,0.6-0.4,1.1
			l-1.8-0.2c0.1-1,0.4-1.7,1-2.1c0.6-0.4,1.3-0.6,2.1-0.6c0.9,0,1.6,0.2,2.2,0.7c0.5,0.5,0.8,1.1,0.8,1.8c0,0.4-0.1,0.8-0.2,1.2
			c-0.1,0.4-0.4,0.8-0.7,1.2c-0.2,0.3-0.6,0.7-1.2,1.2c-0.6,0.5-0.9,0.9-1.1,1c-0.1,0.2-0.3,0.3-0.4,0.5L32.5,205.3L32.5,205.3z"/>
		<path fill="#4D4D4F" d="M33.7,204.6l1.8-0.2c0.1,0.4,0.2,0.7,0.5,1c0.3,0.2,0.5,0.4,0.9,0.4c0.4,0,0.7-0.1,0.9-0.5
			c0.3-0.3,0.4-0.8,0.4-1.4c0-0.6-0.1-1-0.4-1.3c-0.3-0.3-0.6-0.4-1-0.4c-0.5,0-1,0.2-1.4,0.7l-1.4-0.2l0.9-4.8h4.7v1.7h-3.4
			l-0.3,1.6c0.4-0.2,0.8-0.3,1.2-0.3c0.8,0,1.5,0.3,2,0.9c0.6,0.6,0.8,1.3,0.8,2.2c0,0.8-0.2,1.4-0.7,2.1c-0.6,0.8-1.4,1.2-2.5,1.2
			c-0.9,0-1.6-0.2-2.1-0.7S33.8,205.4,33.7,204.6z"/>
	</g>
	<g enable-background="new    ">
		<path fill="#4D4D4F" d="M246.8,268.3v1.7h-6.3c0.1-0.6,0.3-1.2,0.6-1.8c0.3-0.6,1-1.3,2-2.2c0.8-0.7,1.3-1.3,1.5-1.5
			c0.2-0.4,0.4-0.7,0.4-1.1c0-0.4-0.1-0.7-0.3-0.9s-0.5-0.3-0.9-0.3c-0.4,0-0.7,0.1-0.9,0.3c-0.2,0.2-0.3,0.6-0.4,1.1l-1.8-0.2
			c0.1-1,0.4-1.7,1-2.1c0.6-0.4,1.3-0.6,2.1-0.6c0.9,0,1.6,0.2,2.2,0.7c0.5,0.5,0.8,1.1,0.8,1.8c0,0.4-0.1,0.8-0.2,1.2
			c-0.1,0.4-0.4,0.8-0.7,1.2c-0.2,0.3-0.6,0.7-1.2,1.2c-0.6,0.5-0.9,0.9-1.1,1c-0.1,0.2-0.3,0.3-0.4,0.5L246.8,268.3L246.8,268.3z"
			/>
		<path fill="#4D4D4F" d="M251.1,260.7c0.9,0,1.6,0.3,2.1,1c0.6,0.8,0.9,2,0.9,3.8c0,1.8-0.3,3-0.9,3.8c-0.5,0.6-1.2,1-2.1,1
			c-0.9,0-1.6-0.3-2.2-1c-0.6-0.7-0.8-1.9-0.8-3.7c0-1.8,0.3-3,0.9-3.8C249.5,261,250.2,260.7,251.1,260.7z M251.1,262.1
			c-0.2,0-0.4,0.1-0.6,0.2c-0.2,0.1-0.3,0.4-0.4,0.7c-0.1,0.5-0.2,1.2-0.2,2.3c0,1.1,0.1,1.8,0.2,2.3c0.1,0.4,0.2,0.7,0.4,0.8
			c0.2,0.1,0.4,0.2,0.6,0.2c0.2,0,0.4-0.1,0.6-0.2c0.2-0.1,0.3-0.4,0.4-0.7c0.1-0.5,0.2-1.2,0.2-2.3c0-1.1-0.1-1.8-0.2-2.3
			c-0.1-0.4-0.2-0.7-0.4-0.8C251.5,262.2,251.3,262.1,251.1,262.1z"/>
	</g>
	<path fill="#6BADA2" d="M197.7,289.7c0-0.9,0.1-1.7,0.4-2.4c0.2-0.5,0.5-0.9,0.9-1.3c0.4-0.4,0.8-0.7,1.2-0.8
		c0.6-0.2,1.2-0.4,2-0.4c1.4,0,2.5,0.4,3.3,1.3c0.8,0.9,1.2,2,1.2,3.5c0,1.5-0.4,2.7-1.2,3.5c-0.8,0.8-1.9,1.3-3.3,1.3
		c-1.4,0-2.5-0.4-3.3-1.3C198.1,292.4,197.7,291.2,197.7,289.7z M199.7,289.6c0,1.1,0.2,1.9,0.7,2.4c0.5,0.5,1.1,0.8,1.9,0.8
		s1.4-0.3,1.8-0.8c0.5-0.5,0.7-1.3,0.7-2.4c0-1.1-0.2-1.9-0.7-2.4c-0.5-0.5-1.1-0.8-1.9-0.8s-1.4,0.3-1.9,0.8
		C199.9,287.8,199.7,288.6,199.7,289.6z"/>
	<path fill="#6BADA2" d="M210,294.3l-2.7-6.7h1.9l1.3,3.4l0.4,1.1c0.1-0.3,0.2-0.5,0.2-0.6c0.1-0.2,0.1-0.4,0.2-0.6l1.3-3.4h1.8
		l-2.7,6.7L210,294.3L210,294.3z"/>
	<path fill="#6BADA2" d="M219.3,292.2l1.8,0.3c-0.2,0.7-0.6,1.1-1.1,1.5c-0.5,0.3-1.1,0.5-1.9,0.5c-1.2,0-2-0.4-2.6-1.1
		c-0.4-0.6-0.7-1.4-0.7-2.3c0-1.1,0.3-2,0.9-2.6c0.6-0.6,1.3-0.9,2.2-0.9c1,0,1.8,0.3,2.4,1c0.6,0.7,0.9,1.7,0.8,3h-4.5
		c0,0.5,0.2,0.9,0.4,1.2c0.3,0.3,0.6,0.4,1,0.4c0.3,0,0.5-0.1,0.7-0.2C219.1,292.7,219.2,292.5,219.3,292.2z M219.4,290.4
		c0-0.5-0.1-0.9-0.4-1.2s-0.6-0.4-0.9-0.4c-0.4,0-0.7,0.1-1,0.4c-0.3,0.3-0.4,0.7-0.4,1.2H219.4L219.4,290.4z"/>
	<path fill="#6BADA2" d="M224.4,294.3h-1.8v-6.7h1.7v1c0.3-0.5,0.5-0.8,0.8-0.9s0.5-0.2,0.8-0.2c0.4,0,0.8,0.1,1.2,0.3l-0.6,1.6
		c-0.3-0.2-0.6-0.3-0.8-0.3c-0.3,0-0.5,0.1-0.6,0.2c-0.2,0.1-0.3,0.4-0.4,0.7c-0.1,0.4-0.1,1.1-0.1,2.3L224.4,294.3L224.4,294.3z"/>
	<path fill="#6BADA2" d="M229,289.6l-1.6-0.3c0.2-0.7,0.5-1.1,0.9-1.4s1.1-0.5,2-0.5c0.8,0,1.4,0.1,1.8,0.3c0.4,0.2,0.7,0.4,0.8,0.7
		c0.2,0.3,0.2,0.8,0.2,1.6l0,2.1c0,0.6,0,1,0.1,1.3c0.1,0.3,0.2,0.6,0.3,0.9h-1.8c0-0.1-0.1-0.3-0.2-0.5c0-0.1-0.1-0.2-0.1-0.2
		c-0.3,0.3-0.6,0.5-1,0.7c-0.3,0.1-0.7,0.2-1.1,0.2c-0.7,0-1.2-0.2-1.6-0.6c-0.4-0.4-0.6-0.9-0.6-1.4c0-0.4,0.1-0.7,0.3-1
		c0.2-0.3,0.4-0.5,0.8-0.7c0.3-0.2,0.8-0.3,1.4-0.4c0.8-0.2,1.4-0.3,1.7-0.4v-0.2c0-0.3-0.1-0.6-0.3-0.7c-0.2-0.1-0.5-0.2-1-0.2
		c-0.3,0-0.6,0.1-0.7,0.2C229.3,289.1,229.2,289.3,229,289.6z M231.4,291.1c-0.2,0.1-0.6,0.2-1.1,0.3c-0.5,0.1-0.8,0.2-1,0.3
		c-0.2,0.2-0.4,0.4-0.4,0.6c0,0.3,0.1,0.5,0.3,0.6c0.2,0.2,0.4,0.3,0.7,0.3c0.3,0,0.6-0.1,0.9-0.3c0.2-0.2,0.4-0.4,0.4-0.6
		c0-0.2,0.1-0.4,0.1-0.9L231.4,291.1L231.4,291.1z"/>
	<path fill="#6BADA2" d="M234.9,294.3V285h1.8v9.3L234.9,294.3L234.9,294.3z"/>
	<path fill="#6BADA2" d="M238.6,294.3V285h1.8v9.3L238.6,294.3L238.6,294.3z"/>
	<path fill="#6BADA2" d="M245.2,292.4l1.8-0.3c0.1,0.3,0.2,0.6,0.5,0.8c0.2,0.2,0.6,0.3,1,0.3c0.5,0,0.8-0.1,1-0.3
		c0.2-0.1,0.2-0.3,0.2-0.5c0-0.1,0-0.2-0.1-0.3c-0.1-0.1-0.3-0.2-0.6-0.2c-1.4-0.3-2.4-0.6-2.7-0.9c-0.5-0.4-0.8-0.9-0.8-1.5
		c0-0.6,0.2-1.1,0.7-1.5c0.5-0.4,1.2-0.6,2.1-0.6c0.9,0,1.6,0.1,2.1,0.4c0.4,0.3,0.8,0.7,0.9,1.3l-1.7,0.3c-0.1-0.3-0.2-0.5-0.4-0.6
		c-0.2-0.1-0.5-0.2-0.9-0.2c-0.5,0-0.8,0.1-1,0.2c-0.1,0.1-0.2,0.2-0.2,0.4c0,0.1,0.1,0.2,0.2,0.3c0.2,0.1,0.7,0.3,1.7,0.5
		c1,0.2,1.6,0.5,2,0.8c0.4,0.3,0.6,0.8,0.6,1.3c0,0.6-0.3,1.1-0.8,1.6c-0.5,0.4-1.3,0.7-2.3,0.7c-0.9,0-1.6-0.2-2.2-0.6
		C245.7,293.5,245.3,293,245.2,292.4z"/>
	<path fill="#6BADA2" d="M257.4,294.3v-1c-0.2,0.4-0.6,0.6-1,0.9c-0.4,0.2-0.8,0.3-1.3,0.3c-0.5,0-0.9-0.1-1.2-0.3
		c-0.4-0.2-0.6-0.5-0.8-0.8c-0.2-0.4-0.2-0.9-0.2-1.5v-4.3h1.8v3.1c0,0.9,0,1.5,0.1,1.7c0.1,0.2,0.2,0.4,0.4,0.5s0.4,0.2,0.7,0.2
		c0.3,0,0.6-0.1,0.8-0.3c0.2-0.2,0.4-0.4,0.5-0.6c0.1-0.2,0.1-0.9,0.1-1.8v-2.8h1.8v6.7L257.4,294.3L257.4,294.3z"/>
	<path fill="#6BADA2" d="M262.7,294.3h-1.8v-6.7h1.7v1c0.3-0.5,0.5-0.8,0.8-0.9c0.2-0.1,0.5-0.2,0.8-0.2c0.4,0,0.8,0.1,1.2,0.3
		l-0.6,1.6c-0.3-0.2-0.6-0.3-0.8-0.3c-0.3,0-0.5,0.1-0.6,0.2c-0.2,0.1-0.3,0.4-0.4,0.7c-0.1,0.4-0.1,1.1-0.1,2.3L262.7,294.3
		L262.7,294.3z"/>
	<path fill="#6BADA2" d="M267.9,294.3l-2.7-6.7h1.9l1.3,3.4l0.4,1.1c0.1-0.3,0.2-0.5,0.2-0.6c0.1-0.2,0.1-0.4,0.2-0.6l1.3-3.4h1.8
		l-2.7,6.7L267.9,294.3L267.9,294.3z"/>
	<path fill="#6BADA2" d="M273.2,286.7V285h1.8v1.6H273.2z M273.2,294.3v-6.7h1.8v6.7H273.2z"/>
	<path fill="#6BADA2" d="M278.7,294.3l-2.7-6.7h1.9l1.3,3.4l0.4,1.1c0.1-0.3,0.2-0.5,0.2-0.6c0.1-0.2,0.1-0.4,0.2-0.6l1.3-3.4h1.8
		l-2.7,6.7L278.7,294.3L278.7,294.3z"/>
	<path fill="#6BADA2" d="M285.4,289.6l-1.6-0.3c0.2-0.7,0.5-1.1,0.9-1.4c0.4-0.3,1.1-0.5,2-0.5c0.8,0,1.4,0.1,1.8,0.3
		c0.4,0.2,0.7,0.4,0.8,0.7c0.2,0.3,0.2,0.8,0.2,1.6l0,2.1c0,0.6,0,1,0.1,1.3c0.1,0.3,0.2,0.6,0.3,0.9h-1.8c0-0.1-0.1-0.3-0.2-0.5
		c0-0.1-0.1-0.2-0.1-0.2c-0.3,0.3-0.6,0.5-1,0.7c-0.3,0.1-0.7,0.2-1.1,0.2c-0.7,0-1.2-0.2-1.6-0.6c-0.4-0.4-0.6-0.9-0.6-1.4
		c0-0.4,0.1-0.7,0.3-1s0.4-0.5,0.8-0.7c0.3-0.2,0.8-0.3,1.4-0.4c0.8-0.2,1.4-0.3,1.7-0.4v-0.2c0-0.3-0.1-0.6-0.3-0.7
		c-0.2-0.1-0.5-0.2-1-0.2c-0.3,0-0.6,0.1-0.7,0.2S285.5,289.3,285.4,289.6z M287.8,291.1c-0.2,0.1-0.6,0.2-1.1,0.3
		c-0.5,0.1-0.8,0.2-1,0.3c-0.2,0.2-0.4,0.4-0.4,0.6c0,0.3,0.1,0.5,0.3,0.6c0.2,0.2,0.4,0.3,0.7,0.3c0.3,0,0.6-0.1,0.9-0.3
		c0.2-0.2,0.4-0.4,0.4-0.6c0-0.2,0.1-0.4,0.1-0.9L287.8,291.1L287.8,291.1z"/>
	<path fill="#6BADA2" d="M291.3,294.3V285h1.8v9.3L291.3,294.3L291.3,294.3z"/>
	<path fill="#6BADA2" d="M301.5,297h-1.2c-0.6-1-1.1-2-1.5-3c-0.3-1.1-0.5-2.1-0.5-3.1c0-1.2,0.2-2.4,0.6-3.5
		c0.4-0.9,0.8-1.8,1.4-2.6h1.2c-0.6,1.3-1,2.4-1.2,3.3c-0.2,0.9-0.3,1.9-0.3,2.9c0,0.7,0.1,1.4,0.2,2.1c0.1,0.7,0.3,1.4,0.5,2.1
		C300.9,295.6,301.1,296.2,301.5,297z"/>
	<path fill="#6BADA2" d="M302.7,287.6h1.6v0.9c0.6-0.7,1.3-1.1,2.1-1.1c0.4,0,0.8,0.1,1.1,0.3s0.6,0.4,0.8,0.8
		c0.3-0.4,0.6-0.6,1-0.8s0.7-0.3,1.1-0.3c0.5,0,0.9,0.1,1.3,0.3c0.3,0.2,0.6,0.5,0.8,0.9c0.1,0.3,0.2,0.8,0.2,1.4v4.3h-1.8v-3.9
		c0-0.7-0.1-1.1-0.2-1.3c-0.2-0.3-0.4-0.4-0.8-0.4c-0.3,0-0.5,0.1-0.7,0.2c-0.2,0.2-0.4,0.4-0.5,0.7c-0.1,0.3-0.1,0.8-0.1,1.4v3.2
		h-1.8v-3.7c0-0.7,0-1.1-0.1-1.3c-0.1-0.2-0.2-0.3-0.3-0.4c-0.1-0.1-0.3-0.1-0.5-0.1c-0.3,0-0.5,0.1-0.7,0.2
		c-0.2,0.1-0.4,0.4-0.5,0.6c-0.1,0.3-0.1,0.7-0.1,1.4v3.3h-1.8L302.7,287.6L302.7,287.6z"/>
	<path fill="#6BADA2" d="M314,290.8c0-0.6,0.1-1.2,0.4-1.7c0.3-0.6,0.7-1,1.2-1.3s1.1-0.4,1.8-0.4c1,0,1.9,0.3,2.5,1
		c0.7,0.7,1,1.5,1,2.5c0,1-0.3,1.9-1,2.5c-0.7,0.7-1.5,1-2.5,1c-0.6,0-1.2-0.1-1.8-0.4c-0.6-0.3-1-0.7-1.3-1.2
		C314.2,292.3,314,291.6,314,290.8z M315.8,290.9c0,0.7,0.2,1.2,0.5,1.5c0.3,0.4,0.7,0.5,1.2,0.5c0.5,0,0.9-0.2,1.2-0.5
		c0.3-0.4,0.5-0.9,0.5-1.6c0-0.7-0.2-1.2-0.5-1.5c-0.3-0.4-0.7-0.5-1.2-0.5c-0.5,0-0.9,0.2-1.2,0.5
		C316,289.8,315.8,290.3,315.8,290.9z"/>
	<path fill="#6BADA2" d="M328.5,294.3h-1.8v-3.4c0-0.7,0-1.2-0.1-1.4c-0.1-0.2-0.2-0.4-0.4-0.5s-0.4-0.2-0.6-0.2
		c-0.3,0-0.6,0.1-0.8,0.3c-0.2,0.2-0.4,0.4-0.5,0.7c-0.1,0.3-0.1,0.8-0.1,1.5v3.1h-1.8v-6.7h1.7v1c0.6-0.8,1.3-1.1,2.2-1.1
		c0.4,0,0.8,0.1,1.1,0.2c0.3,0.1,0.6,0.3,0.7,0.5c0.2,0.2,0.3,0.5,0.3,0.8s0.1,0.7,0.1,1.2L328.5,294.3L328.5,294.3L328.5,294.3z"/>
	<path fill="#6BADA2" d="M333.4,287.6v1.4h-1.2v2.7c0,0.5,0,0.9,0,1c0,0.1,0.1,0.2,0.2,0.2c0.1,0.1,0.2,0.1,0.3,0.1
		c0.2,0,0.4-0.1,0.7-0.2l0.2,1.4c-0.4,0.2-0.9,0.3-1.4,0.3c-0.3,0-0.6-0.1-0.9-0.2c-0.3-0.1-0.4-0.2-0.6-0.4s-0.2-0.4-0.3-0.7
		c0-0.2-0.1-0.6-0.1-1.3V289h-0.8v-1.4h0.8v-1.3l1.8-1v2.4L333.4,287.6L333.4,287.6L333.4,287.6z"/>
	<path fill="#6BADA2" d="M336.4,285v3.4c0.6-0.7,1.3-1,2.1-1c0.4,0,0.8,0.1,1.1,0.2c0.3,0.2,0.6,0.3,0.7,0.6
		c0.2,0.2,0.3,0.5,0.3,0.8c0.1,0.3,0.1,0.7,0.1,1.3v4H339v-3.6c0-0.7,0-1.2-0.1-1.3s-0.2-0.3-0.4-0.5c-0.2-0.1-0.4-0.2-0.6-0.2
		c-0.3,0-0.6,0.1-0.8,0.2c-0.2,0.1-0.4,0.4-0.5,0.6c-0.1,0.3-0.2,0.7-0.2,1.3v3.4h-1.8V285L336.4,285L336.4,285z"/>
	<path fill="#6BADA2" d="M341.9,292.4l1.8-0.3c0.1,0.3,0.2,0.6,0.5,0.8c0.2,0.2,0.6,0.3,1,0.3c0.5,0,0.8-0.1,1-0.3
		c0.2-0.1,0.2-0.3,0.2-0.5c0-0.1,0-0.2-0.1-0.3c-0.1-0.1-0.3-0.2-0.6-0.2c-1.4-0.3-2.4-0.6-2.7-0.9c-0.5-0.4-0.8-0.9-0.8-1.5
		c0-0.6,0.2-1.1,0.7-1.5c0.5-0.4,1.2-0.6,2.1-0.6c0.9,0,1.6,0.1,2.1,0.4c0.4,0.3,0.8,0.7,0.9,1.3l-1.7,0.3c-0.1-0.3-0.2-0.5-0.4-0.6
		c-0.2-0.1-0.5-0.2-0.9-0.2c-0.5,0-0.8,0.1-1,0.2c-0.1,0.1-0.2,0.2-0.2,0.4c0,0.1,0.1,0.2,0.2,0.3c0.2,0.1,0.7,0.3,1.7,0.5
		c1,0.2,1.6,0.5,2,0.8c0.4,0.3,0.6,0.8,0.6,1.3c0,0.6-0.3,1.1-0.8,1.6c-0.5,0.4-1.3,0.7-2.3,0.7c-0.9,0-1.6-0.2-2.2-0.6
		C342.5,293.5,342.1,293,341.9,292.4z"/>
	<path fill="#6BADA2" d="M349.3,297c0.4-0.8,0.6-1.3,0.7-1.7c0.1-0.4,0.3-0.9,0.4-1.4c0.1-0.5,0.2-1,0.3-1.5c0.1-0.5,0.1-1,0.1-1.4
		c0-1-0.1-2-0.3-2.9c-0.2-0.9-0.6-2-1.2-3.3h1.2c0.6,0.9,1.1,1.9,1.5,2.9c0.4,1,0.5,2.1,0.5,3.1c0,0.9-0.1,1.8-0.4,2.8
		c-0.3,1.1-0.8,2.3-1.6,3.4L349.3,297L349.3,297z"/>
	<path fill="#6BADA2" d="M9.3,189.1H0v-3c0-1.1,0-1.9,0.1-2.2c0.1-0.5,0.4-1,0.9-1.3c0.5-0.4,1.1-0.5,1.8-0.5c0.6,0,1.1,0.1,1.4,0.3
		c0.4,0.2,0.7,0.5,0.9,0.8c0.2,0.3,0.4,0.6,0.4,1c0.1,0.4,0.1,1.1,0.1,1.9v1.2h3.5L9.3,189.1L9.3,189.1z M1.6,187.2h2.6v-1
		c0-0.7,0-1.2-0.1-1.5c-0.1-0.3-0.3-0.4-0.5-0.6c-0.2-0.1-0.4-0.2-0.7-0.2c-0.3,0-0.6,0.1-0.8,0.3c-0.2,0.2-0.4,0.5-0.4,0.8
		c0,0.2-0.1,0.7-0.1,1.4V187.2z"/>
	<path fill="#6BADA2" d="M7.2,176.5l0.3-1.8c0.7,0.2,1.1,0.6,1.5,1.1c0.3,0.5,0.5,1.1,0.5,1.9c0,1.2-0.4,2-1.1,2.6
		c-0.6,0.4-1.4,0.7-2.3,0.7c-1.1,0-2-0.3-2.6-0.9s-0.9-1.3-0.9-2.2c0-1,0.3-1.8,1-2.4c0.7-0.6,1.7-0.9,3-0.8v4.5
		c0.5,0,0.9-0.2,1.2-0.4c0.3-0.3,0.4-0.6,0.4-1c0-0.3-0.1-0.5-0.2-0.7C7.7,176.8,7.5,176.6,7.2,176.5z M5.4,176.4
		c-0.5,0-0.9,0.1-1.2,0.4s-0.4,0.6-0.4,0.9c0,0.4,0.1,0.7,0.4,1c0.3,0.3,0.7,0.4,1.2,0.4V176.4z"/>
	<path fill="#6BADA2" d="M9.3,171.5v1.8H2.6v-1.7h1c-0.5-0.3-0.8-0.5-0.9-0.8c-0.1-0.2-0.2-0.5-0.2-0.8c0-0.4,0.1-0.8,0.3-1.2
		l1.6,0.6C4.1,169.7,4,170,4,170.3c0,0.2,0.1,0.5,0.2,0.6c0.1,0.2,0.4,0.3,0.7,0.4c0.4,0.1,1.1,0.1,2.3,0.1L9.3,171.5L9.3,171.5z"/>
	<path fill="#6BADA2" d="M4.6,162.2l0.3,1.8c-0.4,0.1-0.6,0.2-0.8,0.4c-0.2,0.2-0.3,0.5-0.3,0.8c0,0.4,0.2,0.8,0.5,1.1
		c0.3,0.3,0.8,0.4,1.5,0.4c0.8,0,1.4-0.1,1.7-0.4c0.3-0.3,0.5-0.6,0.5-1.1c0-0.3-0.1-0.6-0.3-0.8c-0.2-0.2-0.5-0.4-1-0.5l0.3-1.8
		c0.8,0.2,1.4,0.5,1.8,1c0.4,0.5,0.6,1.2,0.6,2.1c0,1-0.3,1.8-0.9,2.4c-0.6,0.6-1.5,0.9-2.6,0.9c-1.1,0-2-0.3-2.6-0.9
		c-0.6-0.6-0.9-1.4-0.9-2.4c0-0.8,0.2-1.5,0.5-2C3.3,162.8,3.8,162.5,4.6,162.2z"/>
	<path fill="#6BADA2" d="M7.2,157l0.3-1.8c0.7,0.2,1.1,0.6,1.5,1.1c0.3,0.5,0.5,1.1,0.5,1.9c0,1.2-0.4,2-1.1,2.6
		c-0.6,0.4-1.4,0.7-2.3,0.7c-1.1,0-2-0.3-2.6-0.9s-0.9-1.3-0.9-2.2c0-1,0.3-1.8,1-2.4c0.7-0.6,1.7-0.9,3-0.8v4.5
		c0.5,0,0.9-0.2,1.2-0.4s0.4-0.6,0.4-1c0-0.3-0.1-0.5-0.2-0.7C7.7,157.2,7.5,157.1,7.2,157z M5.4,156.9c-0.5,0-0.9,0.1-1.2,0.4
		s-0.4,0.6-0.4,0.9c0,0.4,0.1,0.7,0.4,1c0.3,0.3,0.7,0.4,1.2,0.4V156.9z"/>
	<path fill="#6BADA2" d="M9.3,147.5v1.8H5.9c-0.7,0-1.2,0-1.4,0.1c-0.2,0.1-0.4,0.2-0.5,0.4c-0.1,0.2-0.2,0.4-0.2,0.6
		c0,0.3,0.1,0.6,0.3,0.8c0.2,0.2,0.4,0.4,0.7,0.5c0.3,0.1,0.8,0.1,1.5,0.1h3.1v1.8H2.6V152h1c-0.8-0.6-1.1-1.3-1.1-2.2
		c0-0.4,0.1-0.8,0.2-1.1c0.1-0.3,0.3-0.6,0.5-0.7c0.2-0.2,0.5-0.3,0.8-0.4c0.3-0.1,0.7-0.1,1.2-0.1L9.3,147.5L9.3,147.5z"/>
	<path fill="#6BADA2" d="M2.6,142.6H4v1.2h2.7c0.6,0,0.9,0,1,0c0.1,0,0.2-0.1,0.2-0.2c0.1-0.1,0.1-0.2,0.1-0.3
		c0-0.2-0.1-0.4-0.2-0.7l1.4-0.2c0.2,0.4,0.3,0.9,0.3,1.4c0,0.3-0.1,0.6-0.2,0.9c-0.1,0.3-0.2,0.4-0.4,0.6c-0.2,0.1-0.4,0.2-0.7,0.3
		c-0.2,0-0.6,0.1-1.3,0.1H4v0.8H2.6v-0.8H1.2l-1-1.8h2.4L2.6,142.6L2.6,142.6z"/>
	<path fill="#6BADA2" d="M4.6,140.1l-0.3,1.6c-0.7-0.2-1.1-0.5-1.4-0.9c-0.3-0.4-0.5-1.1-0.5-2c0-0.8,0.1-1.4,0.3-1.8
		c0.2-0.4,0.4-0.7,0.7-0.8c0.3-0.2,0.8-0.2,1.6-0.2l2.1,0c0.6,0,1,0,1.3-0.1c0.3-0.1,0.6-0.2,0.9-0.3v1.8c-0.1,0-0.3,0.1-0.5,0.2
		c-0.1,0-0.2,0.1-0.2,0.1c0.3,0.3,0.5,0.6,0.7,1c0.1,0.3,0.2,0.7,0.2,1.1c0,0.7-0.2,1.2-0.6,1.6c-0.4,0.4-0.9,0.6-1.4,0.6
		c-0.4,0-0.7-0.1-1-0.3c-0.3-0.2-0.5-0.4-0.7-0.8s-0.3-0.8-0.4-1.4c-0.2-0.8-0.3-1.4-0.4-1.7H4.7c-0.3,0-0.6,0.1-0.7,0.3
		c-0.1,0.2-0.2,0.5-0.2,1c0,0.3,0.1,0.6,0.2,0.7C4.1,139.8,4.3,140,4.6,140.1z M6.1,137.7c0.1,0.2,0.2,0.6,0.3,1.1
		c0.1,0.5,0.2,0.8,0.3,1c0.2,0.2,0.4,0.3,0.6,0.3c0.3,0,0.5-0.1,0.6-0.3c0.2-0.2,0.3-0.4,0.3-0.7c0-0.3-0.1-0.6-0.3-0.9
		c-0.2-0.2-0.4-0.4-0.6-0.4c-0.2,0-0.4-0.1-0.9-0.1L6.1,137.7L6.1,137.7z"/>
	<path fill="#6BADA2" d="M9.8,134.3l0.2-2c0.2,0,0.4-0.1,0.5-0.2c0.1-0.2,0.2-0.4,0.2-0.8c0-0.5-0.1-0.8-0.2-1
		c-0.1-0.2-0.2-0.3-0.5-0.4c-0.1-0.1-0.4-0.1-0.8-0.1h-1c0.7,0.5,1.1,1.2,1.1,2c0,0.9-0.4,1.6-1.1,2.2c-0.6,0.4-1.4,0.6-2.3,0.6
		c-1.1,0-2-0.3-2.6-0.8c-0.6-0.5-0.9-1.2-0.9-2c0-0.8,0.4-1.5,1.1-2.1H2.6V128h6.1c0.8,0,1.4,0.1,1.8,0.2s0.7,0.3,0.9,0.6
		s0.4,0.6,0.5,0.9s0.2,0.9,0.2,1.5c0,1.1-0.2,2-0.6,2.4c-0.4,0.5-0.9,0.7-1.5,0.7C9.9,134.3,9.8,134.3,9.8,134.3z M5.8,132.7
		c0.7,0,1.2-0.1,1.6-0.4c0.3-0.3,0.5-0.6,0.5-1c0-0.4-0.2-0.8-0.5-1.1c-0.3-0.3-0.8-0.5-1.5-0.5c-0.7,0-1.2,0.1-1.6,0.4
		c-0.3,0.3-0.5,0.7-0.5,1.1c0,0.4,0.2,0.8,0.5,1.1C4.6,132.6,5.1,132.7,5.8,132.7z"/>
	<path fill="#6BADA2" d="M7.2,122.3l0.3-1.8c0.7,0.2,1.1,0.6,1.5,1.1s0.5,1.1,0.5,1.9c0,1.2-0.4,2-1.1,2.6c-0.6,0.4-1.4,0.7-2.3,0.7
		c-1.1,0-2-0.3-2.6-0.9s-0.9-1.3-0.9-2.2c0-1,0.3-1.8,1-2.4s1.7-0.9,3-0.8v4.5c0.5,0,0.9-0.2,1.2-0.4c0.3-0.3,0.4-0.6,0.4-1
		c0-0.3-0.1-0.5-0.2-0.7C7.7,122.6,7.5,122.4,7.2,122.3z M5.4,122.2c-0.5,0-0.9,0.1-1.2,0.4s-0.4,0.6-0.4,0.9c0,0.4,0.1,0.7,0.4,1
		c0.3,0.3,0.7,0.4,1.2,0.4V122.2z"/>
	<path fill="#6BADA2" d="M7.4,116l-0.3-1.8c0.3-0.1,0.6-0.2,0.8-0.5c0.2-0.2,0.3-0.6,0.3-1c0-0.5-0.1-0.8-0.3-1
		c-0.1-0.2-0.3-0.2-0.5-0.2c-0.1,0-0.2,0-0.3,0.1c-0.1,0.1-0.2,0.3-0.2,0.6c-0.3,1.4-0.6,2.4-0.9,2.7c-0.4,0.5-0.9,0.8-1.5,0.8
		c-0.6,0-1.1-0.2-1.5-0.7c-0.4-0.5-0.6-1.2-0.6-2.1c0-0.9,0.1-1.6,0.4-2.1c0.3-0.4,0.7-0.8,1.3-0.9l0.3,1.7
		c-0.3,0.1-0.5,0.2-0.6,0.4c-0.1,0.2-0.2,0.5-0.2,0.9c0,0.5,0.1,0.8,0.2,1c0.1,0.1,0.2,0.2,0.4,0.2c0.1,0,0.2-0.1,0.3-0.2
		c0.1-0.2,0.3-0.7,0.5-1.7c0.2-0.9,0.5-1.6,0.8-2c0.3-0.4,0.8-0.6,1.3-0.6c0.6,0,1.1,0.3,1.6,0.8c0.4,0.5,0.7,1.3,0.7,2.3
		c0,0.9-0.2,1.6-0.6,2.2C8.5,115.5,8,115.8,7.4,116z"/>
	<path fill="#6BADA2" d="M9.3,103.7h-1c0.4,0.2,0.6,0.6,0.9,1c0.2,0.4,0.3,0.8,0.3,1.3c0,0.5-0.1,0.9-0.3,1.2
		c-0.2,0.4-0.5,0.6-0.8,0.8c-0.4,0.2-0.9,0.2-1.5,0.2H2.6v-1.8h3.1c0.9,0,1.5,0,1.7-0.1c0.2-0.1,0.4-0.2,0.5-0.4s0.2-0.4,0.2-0.7
		c0-0.3-0.1-0.6-0.3-0.8s-0.4-0.4-0.6-0.5c-0.2-0.1-0.9-0.1-1.8-0.1H2.6v-1.8h6.7L9.3,103.7L9.3,103.7z"/>
	<path fill="#6BADA2" d="M9.3,98.5v1.8H2.6v-1.7h1c-0.5-0.3-0.8-0.5-0.9-0.8c-0.1-0.2-0.2-0.5-0.2-0.8c0-0.4,0.1-0.8,0.3-1.2
		l1.6,0.6C4.1,96.8,4,97.1,4,97.3c0,0.3,0.1,0.5,0.2,0.6s0.4,0.3,0.7,0.4s1.1,0.1,2.3,0.1L9.3,98.5L9.3,98.5z"/>
	<path fill="#6BADA2" d="M9.3,93.3L2.6,96v-1.9L6,92.9l1.1-0.4c-0.3-0.1-0.5-0.2-0.6-0.2c-0.2-0.1-0.4-0.1-0.6-0.2l-3.4-1.3V89
		l6.7,2.7L9.3,93.3L9.3,93.3z"/>
	<path fill="#6BADA2" d="M1.7,87.9H0v-1.8h1.6V87.9z M9.3,87.9H2.6v-1.8h6.7V87.9z"/>
	<path fill="#6BADA2" d="M9.3,82.5l-6.7,2.7v-1.9L6,82l1.1-0.4c-0.3-0.1-0.5-0.2-0.6-0.2c-0.2-0.1-0.4-0.1-0.6-0.2L2.6,80v-1.8
		l6.7,2.7L9.3,82.5L9.3,82.5z"/>
	<path fill="#6BADA2" d="M1.7,77.1H0v-1.8h1.6V77.1z M9.3,77.1H2.6v-1.8h6.7V77.1z"/>
	<path fill="#6BADA2" d="M9.3,67.3v1.8H5.9c-0.7,0-1.2,0-1.4,0.1c-0.2,0.1-0.4,0.2-0.5,0.4c-0.1,0.2-0.2,0.4-0.2,0.6
		c0,0.3,0.1,0.6,0.3,0.8c0.2,0.2,0.4,0.4,0.7,0.5c0.3,0.1,0.8,0.1,1.5,0.1h3.1v1.8H2.6v-1.7h1c-0.8-0.6-1.1-1.3-1.1-2.2
		c0-0.4,0.1-0.8,0.2-1.1c0.1-0.3,0.3-0.6,0.5-0.7c0.2-0.2,0.5-0.3,0.8-0.4c0.3-0.1,0.7-0.1,1.2-0.1L9.3,67.3L9.3,67.3z"/>
	<path fill="#6BADA2" d="M9.8,65.7l0.2-2c0.2,0,0.4-0.1,0.5-0.2c0.1-0.2,0.2-0.4,0.2-0.8c0-0.5-0.1-0.8-0.2-1
		c-0.1-0.2-0.2-0.3-0.5-0.4c-0.1-0.1-0.4-0.1-0.8-0.1h-1c0.7,0.5,1.1,1.2,1.1,2c0,0.9-0.4,1.6-1.1,2.2c-0.6,0.4-1.4,0.6-2.3,0.6
		c-1.1,0-2-0.3-2.6-0.8c-0.6-0.5-0.9-1.2-0.9-2c0-0.8,0.4-1.5,1.1-2.1H2.6v-1.7h6.1c0.8,0,1.4,0.1,1.8,0.2c0.4,0.1,0.7,0.3,0.9,0.6
		s0.4,0.6,0.5,0.9s0.2,0.9,0.2,1.5c0,1.1-0.2,2-0.6,2.4s-0.9,0.7-1.5,0.7C9.9,65.7,9.8,65.7,9.8,65.7z M5.8,64.1
		c0.7,0,1.2-0.1,1.6-0.4c0.3-0.3,0.5-0.6,0.5-1c0-0.4-0.2-0.8-0.5-1.1s-0.8-0.5-1.5-0.5c-0.7,0-1.2,0.1-1.6,0.4
		c-0.3,0.3-0.5,0.7-0.5,1.1c0,0.4,0.2,0.8,0.5,1.1C4.6,64,5.1,64.1,5.8,64.1z"/>
	<g enable-background="new    ">
		<path fill="#4D4D4F" d="M375.9,267.5l1.7-0.2c0.1,0.4,0.2,0.8,0.4,1c0.2,0.2,0.5,0.4,0.9,0.4c0.4,0,0.7-0.1,0.9-0.4
			c0.3-0.3,0.4-0.7,0.4-1.1c0-0.4-0.1-0.8-0.4-1.1c-0.2-0.3-0.5-0.4-0.9-0.4c-0.2,0-0.5,0-0.8,0.1l0.2-1.5c0.5,0,0.9-0.1,1.1-0.3
			c0.3-0.2,0.4-0.5,0.4-0.9c0-0.3-0.1-0.6-0.3-0.7c-0.2-0.2-0.4-0.3-0.7-0.3c-0.3,0-0.6,0.1-0.8,0.3c-0.2,0.2-0.3,0.5-0.4,0.9
			l-1.6-0.3c0.1-0.6,0.3-1,0.5-1.4c0.2-0.3,0.6-0.6,1-0.8c0.4-0.2,0.9-0.3,1.4-0.3c0.9,0,1.6,0.3,2.1,0.8c0.4,0.5,0.7,1,0.7,1.5
			c0,0.8-0.4,1.5-1.3,2c0.5,0.1,1,0.4,1.3,0.8c0.3,0.4,0.5,0.9,0.5,1.4c0,0.8-0.3,1.5-0.9,2.1c-0.6,0.6-1.3,0.9-2.2,0.9
			c-0.8,0-1.5-0.2-2.1-0.7C376.3,269,376,268.3,375.9,267.5z"/>
		<path fill="#4D4D4F" d="M386.2,260.7c0.9,0,1.6,0.3,2.1,1c0.6,0.8,0.9,2,0.9,3.8c0,1.8-0.3,3-0.9,3.8c-0.5,0.6-1.2,1-2.1,1
			c-0.9,0-1.6-0.3-2.2-1c-0.6-0.7-0.8-1.9-0.8-3.7c0-1.8,0.3-3,0.9-3.8C384.6,261,385.3,260.7,386.2,260.7z M386.2,262.1
			c-0.2,0-0.4,0.1-0.6,0.2c-0.2,0.1-0.3,0.4-0.4,0.7c-0.1,0.5-0.2,1.2-0.2,2.3c0,1.1,0.1,1.8,0.2,2.3c0.1,0.4,0.2,0.7,0.4,0.8
			c0.2,0.1,0.4,0.2,0.6,0.2c0.2,0,0.4-0.1,0.6-0.2c0.2-0.1,0.3-0.4,0.4-0.7c0.1-0.5,0.2-1.2,0.2-2.3c0-1.1-0.1-1.8-0.2-2.3
			c-0.1-0.4-0.2-0.7-0.4-0.8C386.6,262.2,386.4,262.1,386.2,262.1z"/>
	</g>
	<g enable-background="new    ">
		<path fill="#4D4D4F" d="M515,270v-1.9h-3.8v-1.6l4-5.9h1.5v5.9h1.2v1.6h-1.2v1.9L515,270L515,270z M515,266.6v-3.2l-2.1,3.2H515z"
			/>
		<path fill="#4D4D4F" d="M521.8,260.7c0.9,0,1.6,0.3,2.1,1c0.6,0.8,0.9,2,0.9,3.8c0,1.8-0.3,3-0.9,3.8c-0.5,0.6-1.2,1-2.1,1
			c-0.9,0-1.6-0.3-2.2-1c-0.6-0.7-0.8-1.9-0.8-3.7c0-1.8,0.3-3,0.9-3.8C520.2,261,520.9,260.7,521.8,260.7z M521.8,262.1
			c-0.2,0-0.4,0.1-0.6,0.2c-0.2,0.1-0.3,0.4-0.4,0.7c-0.1,0.5-0.2,1.2-0.2,2.3c0,1.1,0.1,1.8,0.2,2.3c0.1,0.4,0.2,0.7,0.4,0.8
			c0.2,0.1,0.4,0.2,0.6,0.2c0.2,0,0.4-0.1,0.6-0.2c0.2-0.1,0.3-0.4,0.4-0.7c0.1-0.5,0.2-1.2,0.2-2.3c0-1.1-0.1-1.8-0.2-2.3
			c-0.1-0.4-0.2-0.7-0.4-0.8C522.2,262.2,522,262.1,521.8,262.1z"/>
	</g>
	<polyline fill="none" stroke="#D6ECE6" stroke-width="2" stroke-miterlimit="10" points="543.4,251.2 50.7,251.2 50.7,2.6 	"/>
	<g>
		<g enable-background="new    ">
			<path fill="#4D4D4F" d="M84.1,331.3c0-1.4,0.4-2.5,1.1-3.3c0.8-0.8,1.8-1.2,3-1.2c0.8,0,1.5,0.2,2.1,0.6c0.6,0.4,1.1,0.9,1.5,1.6
				c0.3,0.7,0.5,1.4,0.5,2.3c0,0.9-0.2,1.7-0.5,2.3c-0.4,0.7-0.9,1.2-1.5,1.6c-0.6,0.4-1.3,0.5-2.1,0.5c-0.8,0-1.5-0.2-2.2-0.6
				c-0.6-0.4-1.1-0.9-1.4-1.6C84.3,332.8,84.1,332.1,84.1,331.3z M85.3,331.3c0,1,0.3,1.9,0.8,2.4c0.6,0.6,1.3,0.9,2.1,0.9
				c0.9,0,1.6-0.3,2.1-0.9c0.6-0.6,0.8-1.5,0.8-2.6c0-0.7-0.1-1.3-0.4-1.8c-0.2-0.5-0.6-0.9-1-1.2s-1-0.4-1.5-0.4
				c-0.8,0-1.5,0.3-2.1,0.8C85.6,329.1,85.3,330,85.3,331.3z"/>
			<path fill="#4D4D4F" d="M93.6,337.9v-8.6h1v0.8c0.2-0.3,0.5-0.6,0.8-0.7c0.3-0.2,0.6-0.2,1-0.2c0.5,0,1,0.1,1.4,0.4
				c0.4,0.3,0.7,0.7,0.9,1.2c0.2,0.5,0.3,1,0.3,1.6c0,0.6-0.1,1.2-0.3,1.7c-0.2,0.5-0.6,0.9-1,1.2s-0.9,0.4-1.4,0.4
				c-0.4,0-0.7-0.1-0.9-0.2c-0.3-0.1-0.5-0.3-0.7-0.6v3L93.6,337.9L93.6,337.9z M94.6,332.4c0,0.8,0.2,1.4,0.5,1.8
				c0.3,0.4,0.7,0.6,1.2,0.6c0.5,0,0.9-0.2,1.2-0.6c0.3-0.4,0.5-1,0.5-1.8c0-0.8-0.2-1.4-0.5-1.8c-0.3-0.4-0.7-0.6-1.2-0.6
				c-0.4,0-0.8,0.2-1.2,0.6C94.8,331,94.6,331.6,94.6,332.4z"/>
			<path fill="#4D4D4F" d="M102.6,334.5l0.2,0.9c-0.3,0.1-0.6,0.1-0.8,0.1c-0.4,0-0.7-0.1-0.9-0.2c-0.2-0.1-0.4-0.3-0.4-0.5
				c-0.1-0.2-0.1-0.6-0.1-1.2v-3.6h-0.8v-0.8h0.8v-1.5l1-0.6v2.2h1.1v0.8h-1.1v3.6c0,0.3,0,0.5,0.1,0.6s0.1,0.2,0.2,0.2
				c0.1,0.1,0.2,0.1,0.4,0.1C102.3,334.6,102.4,334.6,102.6,334.5z"/>
			<path fill="#4D4D4F" d="M103.6,328.1v-1.2h1.1v1.2H103.6z M103.6,335.5v-6.2h1.1v6.2H103.6z"/>
			<path fill="#4D4D4F" d="M105.9,333.6l1-0.2c0.1,0.4,0.2,0.7,0.5,1c0.3,0.2,0.6,0.3,1.1,0.3c0.5,0,0.8-0.1,1.1-0.3
				c0.2-0.2,0.4-0.4,0.4-0.7c0-0.2-0.1-0.4-0.3-0.6c-0.1-0.1-0.5-0.2-1.1-0.4c-0.8-0.2-1.3-0.4-1.6-0.5c-0.3-0.1-0.5-0.3-0.7-0.6
				c-0.2-0.3-0.2-0.5-0.2-0.8c0-0.3,0.1-0.5,0.2-0.8c0.1-0.2,0.3-0.4,0.5-0.6c0.2-0.1,0.4-0.2,0.7-0.3s0.6-0.1,0.9-0.1
				c0.5,0,0.9,0.1,1.3,0.2c0.4,0.1,0.6,0.3,0.8,0.6c0.2,0.2,0.3,0.6,0.4,1l-1,0.1c0-0.3-0.2-0.6-0.4-0.8c-0.2-0.2-0.5-0.3-1-0.3
				c-0.5,0-0.8,0.1-1,0.2c-0.2,0.2-0.3,0.3-0.3,0.6c0,0.1,0,0.3,0.1,0.4c0.1,0.1,0.2,0.2,0.4,0.3c0.1,0,0.4,0.1,0.9,0.3
				c0.7,0.2,1.3,0.4,1.6,0.5s0.5,0.3,0.7,0.6s0.3,0.5,0.3,0.9c0,0.4-0.1,0.7-0.3,1s-0.5,0.6-0.9,0.7s-0.8,0.3-1.3,0.3
				c-0.8,0-1.4-0.2-1.9-0.5S106,334.3,105.9,333.6z"/>
			<path fill="#4D4D4F" d="M114.6,334.5l0.2,0.9c-0.3,0.1-0.6,0.1-0.8,0.1c-0.4,0-0.7-0.1-0.9-0.2c-0.2-0.1-0.4-0.3-0.4-0.5
				s-0.1-0.6-0.1-1.2v-3.6h-0.8v-0.8h0.8v-1.5l1-0.6v2.2h1.1v0.8h-1.1v3.6c0,0.3,0,0.5,0.1,0.6s0.1,0.2,0.2,0.2
				c0.1,0.1,0.2,0.1,0.4,0.1C114.3,334.6,114.4,334.6,114.6,334.5z"/>
			<path fill="#4D4D4F" d="M119.7,334.7c-0.4,0.3-0.8,0.6-1.1,0.7c-0.4,0.1-0.8,0.2-1.2,0.2c-0.7,0-1.2-0.2-1.6-0.5
				c-0.4-0.3-0.6-0.8-0.6-1.3c0-0.3,0.1-0.6,0.2-0.8c0.1-0.3,0.3-0.5,0.5-0.6c0.2-0.2,0.5-0.3,0.8-0.3c0.2-0.1,0.5-0.1,0.9-0.2
				c0.9-0.1,1.5-0.2,1.9-0.4c0-0.1,0-0.2,0-0.3c0-0.4-0.1-0.7-0.3-0.9c-0.3-0.2-0.7-0.4-1.2-0.4c-0.5,0-0.9,0.1-1.1,0.3
				c-0.2,0.2-0.4,0.5-0.5,0.9l-1-0.1c0.1-0.4,0.2-0.8,0.5-1.1s0.5-0.5,0.9-0.6c0.4-0.1,0.9-0.2,1.4-0.2c0.5,0,1,0.1,1.3,0.2
				s0.6,0.3,0.7,0.5c0.2,0.2,0.3,0.4,0.3,0.7c0,0.2,0.1,0.5,0.1,1v1.4c0,1,0,1.6,0.1,1.9s0.1,0.5,0.3,0.7h-1.1
				C119.8,335.3,119.7,335,119.7,334.7z M119.6,332.4c-0.4,0.2-1,0.3-1.7,0.4c-0.4,0.1-0.7,0.1-0.9,0.2c-0.2,0.1-0.3,0.2-0.4,0.3
				c-0.1,0.1-0.1,0.3-0.1,0.5c0,0.3,0.1,0.5,0.3,0.7c0.2,0.2,0.5,0.3,0.9,0.3c0.4,0,0.8-0.1,1.1-0.3c0.3-0.2,0.6-0.4,0.7-0.7
				c0.1-0.2,0.2-0.6,0.2-1.1L119.6,332.4L119.6,332.4z"/>
			<path fill="#4D4D4F" d="M124,335.5l-2.4-6.2h1.1l1.3,3.7c0.1,0.4,0.3,0.8,0.4,1.3c0.1-0.3,0.2-0.7,0.4-1.2l1.4-3.8h1.1l-2.4,6.2
				H124L124,335.5z"/>
			<path fill="#4D4D4F" d="M128.3,328.1v-1.2h1.1v1.2H128.3z M128.3,335.5v-6.2h1.1v6.2H128.3z"/>
			<path fill="#4D4D4F" d="M131,335.5v-6.2h0.9v0.9c0.5-0.7,1.1-1,2-1c0.4,0,0.7,0.1,1,0.2s0.5,0.3,0.7,0.5c0.2,0.2,0.3,0.5,0.3,0.8
				c0,0.2,0.1,0.5,0.1,1v3.8H135v-3.8c0-0.4,0-0.8-0.1-1s-0.2-0.4-0.4-0.5c-0.2-0.1-0.5-0.2-0.7-0.2c-0.4,0-0.8,0.1-1.2,0.4
				c-0.3,0.3-0.5,0.8-0.5,1.6v3.4L131,335.5L131,335.5z"/>
			<path fill="#4D4D4F" d="M143,338c-0.6-0.7-1.1-1.6-1.5-2.6c-0.4-1-0.6-2-0.6-3.1c0-0.9,0.1-1.8,0.5-2.7c0.4-1,0.9-2,1.6-3h0.8
				c-0.5,0.8-0.8,1.4-0.9,1.7c-0.2,0.5-0.4,1.1-0.6,1.7c-0.2,0.7-0.3,1.5-0.3,2.2c0,1.9,0.6,3.8,1.8,5.6H143L143,338z"/>
			<path fill="#4D4D4F" d="M145,335.5v-6.2h0.9v0.9c0.5-0.7,1.1-1,2-1c0.4,0,0.7,0.1,1,0.2s0.5,0.3,0.7,0.5c0.2,0.2,0.3,0.5,0.3,0.8
				c0,0.2,0.1,0.5,0.1,1v3.8H149v-3.8c0-0.4,0-0.8-0.1-1s-0.2-0.4-0.4-0.5c-0.2-0.1-0.5-0.2-0.7-0.2c-0.4,0-0.8,0.1-1.2,0.4
				c-0.3,0.3-0.5,0.8-0.5,1.6v3.4L145,335.5L145,335.5z"/>
			<path fill="#4D4D4F" d="M157.2,330.4h-5.7v-1h5.7L157.2,330.4L157.2,330.4z M157.2,333h-5.7v-1h5.7L157.2,333L157.2,333z"/>
			<path fill="#4D4D4F" d="M158.4,333.2l1.1-0.1c0.1,0.6,0.3,1,0.6,1.3c0.3,0.3,0.6,0.4,1.1,0.4c0.5,0,0.9-0.2,1.3-0.5
				c0.3-0.3,0.5-0.8,0.5-1.3c0-0.5-0.2-0.9-0.5-1.2c-0.3-0.3-0.7-0.5-1.2-0.5c-0.2,0-0.4,0-0.7,0.1l0.1-0.9c0.1,0,0.1,0,0.2,0
				c0.4,0,0.9-0.1,1.2-0.4c0.4-0.2,0.5-0.6,0.5-1.1c0-0.4-0.1-0.7-0.4-1c-0.3-0.3-0.6-0.4-1-0.4c-0.4,0-0.8,0.1-1,0.4
				c-0.3,0.3-0.4,0.6-0.5,1.2l-1.1-0.2c0.1-0.7,0.4-1.3,0.9-1.6c0.5-0.4,1-0.6,1.7-0.6c0.5,0,0.9,0.1,1.3,0.3
				c0.4,0.2,0.7,0.5,0.9,0.8s0.3,0.7,0.3,1.1c0,0.4-0.1,0.7-0.3,1c-0.2,0.3-0.5,0.5-0.9,0.7c0.5,0.1,0.9,0.4,1.2,0.7
				c0.3,0.4,0.4,0.8,0.4,1.4c0,0.8-0.3,1.4-0.8,1.9c-0.5,0.5-1.2,0.8-2.1,0.8c-0.8,0-1.4-0.2-1.9-0.7
				C158.7,334.5,158.4,333.9,158.4,333.2z"/>
			<path fill="#4D4D4F" d="M165.1,333.2l1.1-0.1c0.1,0.6,0.3,1,0.6,1.3c0.3,0.3,0.6,0.4,1.1,0.4c0.5,0,0.9-0.2,1.3-0.5
				c0.3-0.3,0.5-0.8,0.5-1.3c0-0.5-0.2-0.9-0.5-1.2c-0.3-0.3-0.7-0.5-1.2-0.5c-0.2,0-0.4,0-0.7,0.1l0.1-0.9c0.1,0,0.1,0,0.2,0
				c0.4,0,0.9-0.1,1.2-0.4c0.4-0.2,0.5-0.6,0.5-1.1c0-0.4-0.1-0.7-0.4-1c-0.3-0.3-0.6-0.4-1-0.4c-0.4,0-0.8,0.1-1,0.4
				c-0.3,0.3-0.4,0.6-0.5,1.2l-1.1-0.2c0.1-0.7,0.4-1.3,0.9-1.6c0.5-0.4,1-0.6,1.7-0.6c0.5,0,0.9,0.1,1.3,0.3
				c0.4,0.2,0.7,0.5,0.9,0.8s0.3,0.7,0.3,1.1c0,0.4-0.1,0.7-0.3,1c-0.2,0.3-0.5,0.5-0.9,0.7c0.5,0.1,0.9,0.4,1.2,0.7
				c0.3,0.4,0.4,0.8,0.4,1.4c0,0.8-0.3,1.4-0.8,1.9c-0.5,0.5-1.2,0.8-2.1,0.8c-0.8,0-1.4-0.2-1.9-0.7
				C165.4,334.5,165.1,333.9,165.1,333.2z"/>
			<path fill="#4D4D4F" d="M177.3,334.5v1h-5.7c0-0.3,0-0.5,0.1-0.7c0.1-0.4,0.4-0.8,0.7-1.1s0.8-0.8,1.4-1.3
				c0.9-0.8,1.6-1.4,1.9-1.8s0.5-0.9,0.5-1.3c0-0.4-0.1-0.8-0.4-1.1s-0.7-0.4-1.2-0.4c-0.5,0-0.9,0.1-1.2,0.5
				c-0.3,0.3-0.5,0.7-0.5,1.3l-1.1-0.1c0.1-0.8,0.4-1.4,0.8-1.8s1.1-0.6,2-0.6c0.8,0,1.5,0.2,2,0.7c0.5,0.5,0.7,1,0.7,1.7
				c0,0.3-0.1,0.7-0.2,1c-0.1,0.3-0.4,0.7-0.7,1c-0.3,0.4-0.9,0.9-1.6,1.5c-0.6,0.5-1,0.9-1.2,1.1c-0.2,0.2-0.3,0.4-0.4,0.6
				L177.3,334.5L177.3,334.5z"/>
			<path fill="#4D4D4F" d="M179.4,338h-0.8c1.2-1.9,1.8-3.8,1.8-5.6c0-0.7-0.1-1.5-0.3-2.2c-0.1-0.6-0.3-1.1-0.6-1.7
				c-0.2-0.4-0.5-0.9-0.9-1.8h0.8c0.7,1,1.3,2,1.6,3c0.3,0.9,0.5,1.7,0.5,2.7c0,1.1-0.2,2.1-0.6,3.1
				C180.4,336.4,180,337.3,179.4,338z"/>
		</g>
		<g enable-background="new    ">
			<path fill="#4D4D4F" d="M84.4,353.5v-8.6h3.2c0.6,0,1,0,1.3,0.1c0.4,0.1,0.8,0.2,1.1,0.4c0.3,0.2,0.5,0.5,0.7,0.8
				c0.2,0.4,0.3,0.7,0.3,1.2c0,0.7-0.2,1.4-0.7,1.9c-0.5,0.5-1.3,0.8-2.5,0.8h-2.2v3.5L84.4,353.5L84.4,353.5z M85.6,349h2.2
				c0.7,0,1.3-0.1,1.6-0.4c0.3-0.3,0.5-0.7,0.5-1.2c0-0.4-0.1-0.7-0.3-0.9s-0.4-0.4-0.7-0.5c-0.2-0.1-0.5-0.1-1.1-0.1h-2.2V349
				L85.6,349z"/>
			<path fill="#4D4D4F" d="M92.3,353.5v-8.6h1.1v8.6H92.3z"/>
			<path fill="#4D4D4F" d="M99,352.7c-0.4,0.3-0.8,0.6-1.1,0.7c-0.4,0.1-0.8,0.2-1.2,0.2c-0.7,0-1.2-0.2-1.6-0.5
				c-0.4-0.3-0.6-0.8-0.6-1.3c0-0.3,0.1-0.6,0.2-0.8c0.1-0.3,0.3-0.5,0.5-0.6c0.2-0.2,0.5-0.3,0.8-0.3c0.2-0.1,0.5-0.1,0.9-0.2
				c0.9-0.1,1.5-0.2,1.9-0.4c0-0.1,0-0.2,0-0.3c0-0.4-0.1-0.7-0.3-0.9c-0.3-0.2-0.7-0.4-1.2-0.4c-0.5,0-0.9,0.1-1.1,0.3
				c-0.2,0.2-0.4,0.5-0.5,0.9l-1-0.1c0.1-0.4,0.2-0.8,0.5-1.1c0.2-0.3,0.5-0.5,0.9-0.6c0.4-0.1,0.9-0.2,1.4-0.2c0.5,0,1,0.1,1.3,0.2
				s0.6,0.3,0.7,0.5c0.2,0.2,0.3,0.4,0.3,0.7c0,0.2,0.1,0.5,0.1,1v1.4c0,1,0,1.6,0.1,1.9s0.1,0.5,0.3,0.7h-1.1
				C99.1,353.3,99.1,353,99,352.7z M98.9,350.4c-0.4,0.2-1,0.3-1.7,0.4c-0.4,0.1-0.7,0.1-0.9,0.2c-0.2,0.1-0.3,0.2-0.4,0.3
				c-0.1,0.1-0.1,0.3-0.1,0.5c0,0.3,0.1,0.5,0.3,0.7c0.2,0.2,0.5,0.3,0.9,0.3c0.4,0,0.8-0.1,1.1-0.3c0.3-0.2,0.5-0.4,0.7-0.7
				c0.1-0.2,0.2-0.6,0.2-1.1L98.9,350.4L98.9,350.4z"/>
			<path fill="#4D4D4F" d="M105.7,351.2l1,0.1c-0.1,0.7-0.4,1.3-0.9,1.7c-0.5,0.4-1,0.6-1.7,0.6c-0.9,0-1.5-0.3-2.1-0.8
				c-0.5-0.6-0.8-1.4-0.8-2.4c0-0.7,0.1-1.3,0.3-1.8c0.2-0.5,0.6-0.9,1-1.1s0.9-0.4,1.5-0.4c0.7,0,1.2,0.2,1.7,0.5
				c0.4,0.3,0.7,0.8,0.8,1.5l-1,0.2c-0.1-0.4-0.3-0.7-0.5-0.9c-0.2-0.2-0.5-0.3-0.9-0.3c-0.5,0-1,0.2-1.3,0.6
				c-0.3,0.4-0.5,1-0.5,1.8c0,0.8,0.2,1.4,0.5,1.8s0.7,0.6,1.3,0.6c0.4,0,0.8-0.1,1-0.4C105.5,352.1,105.6,351.7,105.7,351.2z"/>
			<path fill="#4D4D4F" d="M111.9,351.5l1.1,0.1c-0.2,0.6-0.5,1.1-1,1.5c-0.5,0.4-1.1,0.5-1.8,0.5c-0.9,0-1.6-0.3-2.2-0.8
				c-0.5-0.6-0.8-1.3-0.8-2.4c0-1,0.3-1.9,0.8-2.4s1.2-0.9,2.1-0.9c0.8,0,1.5,0.3,2,0.9c0.5,0.6,0.8,1.4,0.8,2.4c0,0.1,0,0.2,0,0.3
				h-4.6c0,0.7,0.2,1.2,0.6,1.6c0.3,0.4,0.8,0.5,1.3,0.5c0.4,0,0.7-0.1,1-0.3C111.5,352.2,111.7,351.9,111.9,351.5z M108.4,349.8
				h3.5c0-0.5-0.2-0.9-0.4-1.2c-0.3-0.4-0.8-0.6-1.3-0.6c-0.5,0-0.9,0.2-1.2,0.5C108.7,348.8,108.5,349.2,108.4,349.8z"/>
			<path fill="#4D4D4F" d="M115.3,353.5h-1v-8.6h1.1v3.1c0.4-0.6,1-0.8,1.7-0.8c0.4,0,0.7,0.1,1.1,0.2c0.3,0.2,0.6,0.4,0.8,0.6
				c0.2,0.3,0.4,0.6,0.5,1s0.2,0.8,0.2,1.3c0,1.1-0.3,1.9-0.8,2.5c-0.5,0.6-1.2,0.9-1.9,0.9c-0.7,0-1.3-0.3-1.7-0.9L115.3,353.5
				L115.3,353.5L115.3,353.5z M115.3,350.3c0,0.7,0.1,1.3,0.3,1.6c0.3,0.5,0.8,0.8,1.3,0.8c0.5,0,0.9-0.2,1.2-0.6
				c0.3-0.4,0.5-1,0.5-1.8c0-0.8-0.2-1.4-0.5-1.8c-0.3-0.4-0.7-0.6-1.2-0.6c-0.5,0-0.9,0.2-1.2,0.6
				C115.4,349,115.3,349.6,115.3,350.3z"/>
			<path fill="#4D4D4F" d="M120.6,350.4c0-1.2,0.3-2,1-2.6c0.5-0.5,1.2-0.7,2-0.7c0.9,0,1.6,0.3,2.1,0.8c0.5,0.6,0.8,1.3,0.8,2.3
				c0,0.8-0.1,1.4-0.4,1.9c-0.2,0.5-0.6,0.8-1,1.1s-1,0.4-1.5,0.4c-0.9,0-1.6-0.3-2.1-0.8C120.9,352.2,120.6,351.4,120.6,350.4z
				 M121.7,350.4c0,0.8,0.2,1.4,0.5,1.8c0.3,0.4,0.8,0.6,1.3,0.6c0.5,0,1-0.2,1.3-0.6c0.4-0.4,0.5-1,0.5-1.8c0-0.8-0.2-1.4-0.5-1.7
				c-0.4-0.4-0.8-0.6-1.3-0.6c-0.5,0-1,0.2-1.3,0.6C121.9,349,121.7,349.6,121.7,350.4z"/>
			<path fill="#4D4D4F" d="M133,356c-0.6-0.7-1.1-1.6-1.5-2.6c-0.4-1-0.6-2-0.6-3.1c0-0.9,0.1-1.8,0.5-2.7c0.4-1,0.9-2,1.6-3h0.8
				c-0.5,0.8-0.8,1.4-0.9,1.7c-0.2,0.5-0.4,1.1-0.6,1.7c-0.2,0.7-0.3,1.5-0.3,2.2c0,1.9,0.6,3.8,1.8,5.6H133L133,356z"/>
			<path fill="#4D4D4F" d="M135,353.5v-6.2h0.9v0.9c0.5-0.7,1.1-1,2-1c0.4,0,0.7,0.1,1,0.2c0.3,0.1,0.6,0.3,0.7,0.5
				c0.2,0.2,0.3,0.5,0.3,0.8c0,0.2,0.1,0.5,0.1,1v3.8H139v-3.8c0-0.4,0-0.8-0.1-1s-0.2-0.4-0.4-0.5c-0.2-0.1-0.5-0.2-0.7-0.2
				c-0.4,0-0.8,0.1-1.2,0.4c-0.3,0.3-0.5,0.8-0.5,1.6v3.4L135,353.5L135,353.5z"/>
			<path fill="#4D4D4F" d="M147.2,348.4h-5.7v-1h5.7V348.4z M147.2,351h-5.7v-1h5.7V351z"/>
			<path fill="#4D4D4F" d="M152.4,353.5h-1.1v-6.7c-0.3,0.2-0.6,0.5-1,0.7c-0.4,0.2-0.8,0.4-1.1,0.5v-1c0.6-0.3,1.1-0.6,1.5-1
				c0.4-0.4,0.8-0.8,0.9-1.1h0.7L152.4,353.5L152.4,353.5z"/>
			<path fill="#4D4D4F" d="M155.1,351.2l1.1-0.1c0.1,0.5,0.3,0.9,0.6,1.2c0.3,0.3,0.7,0.4,1.1,0.4c0.5,0,0.9-0.2,1.3-0.6
				c0.4-0.4,0.5-0.9,0.5-1.5c0-0.6-0.2-1.1-0.5-1.4s-0.8-0.5-1.3-0.5c-0.3,0-0.6,0.1-0.9,0.2c-0.3,0.2-0.5,0.4-0.6,0.6l-1-0.1
				l0.8-4.4h4.3v1h-3.4l-0.5,2.3c0.5-0.4,1.1-0.5,1.6-0.5c0.8,0,1.4,0.3,1.9,0.8c0.5,0.5,0.8,1.2,0.8,2c0,0.8-0.2,1.4-0.7,2
				c-0.6,0.7-1.3,1-2.3,1c-0.8,0-1.4-0.2-1.9-0.7C155.4,352.5,155.1,352,155.1,351.2z"/>
			<path fill="#4D4D4F" d="M161.7,351.2l1.1-0.1c0.1,0.5,0.3,0.9,0.6,1.2c0.3,0.3,0.7,0.4,1.1,0.4c0.5,0,0.9-0.2,1.3-0.6
				c0.4-0.4,0.5-0.9,0.5-1.5c0-0.6-0.2-1.1-0.5-1.4s-0.8-0.5-1.3-0.5c-0.3,0-0.6,0.1-0.9,0.2c-0.3,0.2-0.5,0.4-0.6,0.6l-1-0.1
				l0.8-4.4h4.3v1h-3.4l-0.5,2.3c0.5-0.4,1.1-0.5,1.6-0.5c0.8,0,1.4,0.3,1.9,0.8c0.5,0.5,0.8,1.2,0.8,2c0,0.8-0.2,1.4-0.7,2
				c-0.6,0.7-1.3,1-2.3,1c-0.8,0-1.4-0.2-1.9-0.7C162.1,352.5,161.8,352,161.7,351.2z"/>
			<path fill="#4D4D4F" d="M169.4,356h-0.8c1.2-1.9,1.8-3.8,1.8-5.6c0-0.7-0.1-1.5-0.3-2.2c-0.1-0.6-0.3-1.1-0.6-1.7
				c-0.1-0.4-0.5-0.9-0.9-1.8h0.8c0.7,1,1.3,2,1.6,3c0.3,0.9,0.5,1.7,0.5,2.7c0,1.1-0.2,2.1-0.6,3.1
				C170.5,354.4,170,355.3,169.4,356z"/>
		</g>
	</g>
	<line fill="none" stroke="#6CABA0" stroke-width="4.2529" stroke-miterlimit="10" x1="50.7" y1="331.3" x2="75.1" y2="331.3"/>
	<line fill="none" stroke="#919396" stroke-width="2.1264" stroke-miterlimit="10" x1="50.7" y1="348.1" x2="75.1" y2="348.1"/>
	<g>
		<path fill="#4D4D4F" d="M413.3,335.5V327h1.1v3.5h4.5V327h1.1v8.6h-1.1v-4h-4.5v4H413.3z"/>
		<path fill="#4D4D4F" d="M425.9,334.8c-0.4,0.3-0.8,0.6-1.1,0.7s-0.8,0.2-1.2,0.2c-0.7,0-1.2-0.2-1.6-0.5c-0.4-0.3-0.6-0.8-0.6-1.3
			c0-0.3,0.1-0.6,0.2-0.8s0.3-0.5,0.5-0.6c0.2-0.2,0.5-0.3,0.8-0.3c0.2-0.1,0.5-0.1,0.9-0.2c0.9-0.1,1.5-0.2,1.9-0.4
			c0-0.1,0-0.2,0-0.3c0-0.4-0.1-0.7-0.3-0.9c-0.3-0.2-0.7-0.4-1.2-0.4c-0.5,0-0.9,0.1-1.1,0.3c-0.2,0.2-0.4,0.5-0.5,0.9l-1-0.1
			c0.1-0.4,0.2-0.8,0.5-1.1c0.2-0.3,0.5-0.5,0.9-0.6c0.4-0.1,0.9-0.2,1.4-0.2c0.5,0,1,0.1,1.3,0.2s0.6,0.3,0.7,0.5
			c0.2,0.2,0.3,0.4,0.3,0.7c0,0.2,0.1,0.5,0.1,1v1.4c0,1,0,1.6,0.1,1.9c0,0.3,0.1,0.5,0.3,0.7h-1.1
			C426,335.3,425.9,335.1,425.9,334.8z M425.8,332.4c-0.4,0.2-1,0.3-1.7,0.4c-0.4,0.1-0.7,0.1-0.9,0.2c-0.2,0.1-0.3,0.2-0.4,0.3
			c-0.1,0.2-0.1,0.3-0.1,0.5c0,0.3,0.1,0.5,0.3,0.7s0.5,0.3,0.9,0.3c0.4,0,0.8-0.1,1.1-0.3c0.3-0.2,0.5-0.4,0.7-0.7
			c0.1-0.2,0.2-0.6,0.2-1.1V332.4z"/>
		<path fill="#4D4D4F" d="M428,335.5v-0.9l4-4.5c-0.4,0-0.8,0-1.2,0h-2.5v-0.9h5.1v0.7l-3.4,3.9l-0.6,0.7c0.5,0,0.9-0.1,1.3-0.1h2.9
			v0.9L428,335.5L428,335.5z"/>
		<path fill="#4D4D4F" d="M438.6,334.8c-0.4,0.3-0.8,0.6-1.1,0.7c-0.4,0.1-0.8,0.2-1.2,0.2c-0.7,0-1.2-0.2-1.6-0.5
			c-0.4-0.3-0.6-0.8-0.6-1.3c0-0.3,0.1-0.6,0.2-0.8c0.1-0.3,0.3-0.5,0.5-0.6c0.2-0.2,0.5-0.3,0.8-0.3c0.2-0.1,0.5-0.1,0.9-0.2
			c0.9-0.1,1.5-0.2,1.9-0.4c0-0.1,0-0.2,0-0.3c0-0.4-0.1-0.7-0.3-0.9c-0.3-0.2-0.7-0.4-1.2-0.4c-0.5,0-0.9,0.1-1.1,0.3
			c-0.2,0.2-0.4,0.5-0.5,0.9l-1-0.1c0.1-0.4,0.2-0.8,0.5-1.1c0.2-0.3,0.5-0.5,0.9-0.6c0.4-0.1,0.9-0.2,1.4-0.2c0.5,0,1,0.1,1.3,0.2
			s0.6,0.3,0.7,0.5c0.2,0.2,0.3,0.4,0.3,0.7c0,0.2,0.1,0.5,0.1,1v1.4c0,1,0,1.6,0.1,1.9c0,0.3,0.1,0.5,0.3,0.7h-1.1
			C438.7,335.3,438.6,335.1,438.6,334.8z M438.5,332.4c-0.4,0.2-1,0.3-1.7,0.4c-0.4,0.1-0.7,0.1-0.9,0.2c-0.2,0.1-0.3,0.2-0.4,0.3
			c-0.1,0.2-0.1,0.3-0.1,0.5c0,0.3,0.1,0.5,0.3,0.7s0.5,0.3,0.9,0.3c0.4,0,0.8-0.1,1.1-0.3c0.3-0.2,0.6-0.4,0.7-0.7
			c0.1-0.2,0.2-0.6,0.2-1.1V332.4z"/>
		<path fill="#4D4D4F" d="M441.2,335.5v-6.2h0.9v0.9c0.2-0.4,0.5-0.7,0.7-0.9s0.4-0.2,0.7-0.2c0.4,0,0.7,0.1,1.1,0.3l-0.4,1
			c-0.3-0.2-0.5-0.2-0.8-0.2c-0.2,0-0.4,0.1-0.6,0.2c-0.2,0.1-0.3,0.3-0.4,0.6c-0.1,0.4-0.2,0.8-0.2,1.2v3.3L441.2,335.5
			L441.2,335.5z"/>
		<path fill="#4D4D4F" d="M449.2,335.5v-0.8c-0.4,0.6-1,0.9-1.7,0.9c-0.5,0-1-0.1-1.4-0.4c-0.4-0.3-0.7-0.7-1-1.1
			c-0.2-0.5-0.3-1.1-0.3-1.7c0-0.6,0.1-1.2,0.3-1.7s0.5-0.9,0.9-1.2c0.4-0.3,0.9-0.4,1.4-0.4c0.4,0,0.7,0.1,1,0.2s0.5,0.4,0.7,0.6
			V327h1v8.6L449.2,335.5L449.2,335.5z M445.9,332.4c0,0.8,0.2,1.4,0.5,1.8c0.3,0.4,0.7,0.6,1.2,0.6c0.5,0,0.9-0.2,1.2-0.6
			s0.5-1,0.5-1.7c0-0.9-0.2-1.5-0.5-1.9c-0.3-0.4-0.7-0.6-1.2-0.6c-0.5,0-0.9,0.2-1.2,0.6C446,331,445.9,331.6,445.9,332.4z"/>
		<path fill="#4D4D4F" d="M455.2,335.5v-6.2h0.9v0.9c0.2-0.4,0.5-0.7,0.7-0.9s0.4-0.2,0.7-0.2c0.4,0,0.7,0.1,1.1,0.3l-0.4,1
			c-0.3-0.2-0.5-0.2-0.8-0.2c-0.2,0-0.4,0.1-0.6,0.2c-0.2,0.1-0.3,0.3-0.4,0.6c-0.1,0.4-0.2,0.8-0.2,1.2v3.3L455.2,335.5
			L455.2,335.5z"/>
		<path fill="#4D4D4F" d="M463.2,334.8c-0.4,0.3-0.8,0.6-1.1,0.7c-0.4,0.1-0.8,0.2-1.2,0.2c-0.7,0-1.2-0.2-1.6-0.5s-0.6-0.8-0.6-1.3
			c0-0.3,0.1-0.6,0.2-0.8c0.1-0.3,0.3-0.5,0.5-0.6c0.2-0.2,0.5-0.3,0.8-0.3c0.2-0.1,0.5-0.1,0.9-0.2c0.9-0.1,1.5-0.2,1.9-0.4
			c0-0.1,0-0.2,0-0.3c0-0.4-0.1-0.7-0.3-0.9c-0.3-0.2-0.7-0.4-1.2-0.4c-0.5,0-0.9,0.1-1.1,0.3c-0.2,0.2-0.4,0.5-0.5,0.9l-1-0.1
			c0.1-0.4,0.2-0.8,0.5-1.1c0.2-0.3,0.5-0.5,0.9-0.6c0.4-0.1,0.9-0.2,1.4-0.2c0.5,0,1,0.1,1.3,0.2s0.6,0.3,0.7,0.5
			c0.2,0.2,0.3,0.4,0.3,0.7c0,0.2,0.1,0.5,0.1,1v1.4c0,1,0,1.6,0.1,1.9c0,0.3,0.1,0.5,0.3,0.7h-1.1
			C463.4,335.3,463.3,335.1,463.2,334.8z M463.2,332.4c-0.4,0.2-1,0.3-1.7,0.4c-0.4,0.1-0.7,0.1-0.9,0.2c-0.2,0.1-0.3,0.2-0.4,0.3
			s-0.1,0.3-0.1,0.5c0,0.3,0.1,0.5,0.3,0.7s0.5,0.3,0.9,0.3c0.4,0,0.8-0.1,1.1-0.3c0.3-0.2,0.5-0.4,0.7-0.7c0.1-0.2,0.2-0.6,0.2-1.1
			L463.2,332.4L463.2,332.4z"/>
		<path fill="#4D4D4F" d="M468.2,334.6l0.2,0.9c-0.3,0.1-0.6,0.1-0.8,0.1c-0.4,0-0.7-0.1-0.9-0.2c-0.2-0.1-0.4-0.3-0.4-0.5
			s-0.1-0.6-0.1-1.2v-3.6h-0.8v-0.8h0.8v-1.5l1-0.6v2.2h1.1v0.8h-1.1v3.6c0,0.3,0,0.5,0.1,0.6c0,0.1,0.1,0.2,0.2,0.2
			c0.1,0.1,0.2,0.1,0.4,0.1C467.8,334.6,468,334.6,468.2,334.6z"/>
		<path fill="#4D4D4F" d="M469.2,328.2V327h1.1v1.2H469.2z M469.2,335.5v-6.2h1.1v6.2H469.2z"/>
		<path fill="#4D4D4F" d="M471.5,332.4c0-1.2,0.3-2,1-2.6c0.5-0.5,1.2-0.7,2-0.7c0.9,0,1.6,0.3,2.1,0.8c0.5,0.6,0.8,1.3,0.8,2.3
			c0,0.8-0.1,1.4-0.4,1.9s-0.6,0.8-1,1.1c-0.5,0.3-1,0.4-1.5,0.4c-0.9,0-1.6-0.3-2.1-0.8S471.5,333.5,471.5,332.4z M472.6,332.4
			c0,0.8,0.2,1.4,0.5,1.8c0.3,0.4,0.8,0.6,1.3,0.6c0.5,0,1-0.2,1.3-0.6c0.3-0.4,0.5-1,0.5-1.8c0-0.8-0.2-1.4-0.5-1.8
			c-0.3-0.4-0.8-0.6-1.3-0.6c-0.5,0-1,0.2-1.3,0.6C472.7,331,472.6,331.6,472.6,332.4z"/>
		<path fill="#4D4D4F" d="M483.9,338.1c-0.6-0.7-1.1-1.6-1.5-2.6c-0.4-1-0.6-2-0.6-3.1c0-0.9,0.1-1.8,0.5-2.7c0.4-1,0.9-2,1.6-3h0.8
			c-0.5,0.8-0.8,1.4-0.9,1.7c-0.2,0.5-0.4,1.1-0.6,1.7c-0.2,0.7-0.3,1.5-0.3,2.2c0,1.9,0.6,3.8,1.8,5.6L483.9,338.1L483.9,338.1z"/>
		<path fill="#4D4D4F" d="M486,335.5V327h1.1v3.5h4.5V327h1.1v8.6h-1.1v-4h-4.5v4H486z"/>
		<path fill="#4D4D4F" d="M494.7,335.5V327h3.8c0.8,0,1.3,0.1,1.7,0.2c0.4,0.2,0.7,0.4,1,0.8s0.4,0.8,0.4,1.3c0,0.6-0.2,1.1-0.6,1.5
			c-0.4,0.4-1,0.7-1.8,0.8c0.3,0.1,0.5,0.3,0.7,0.4c0.3,0.3,0.6,0.7,0.9,1.1l1.5,2.3h-1.4l-1.1-1.8c-0.3-0.5-0.6-0.9-0.8-1.2
			c-0.2-0.3-0.4-0.5-0.6-0.6s-0.3-0.2-0.5-0.2c-0.1,0-0.3,0-0.6,0h-1.3v3.8L494.7,335.5L494.7,335.5z M495.8,330.7h2.4
			c0.5,0,0.9-0.1,1.2-0.2s0.5-0.3,0.7-0.5c0.2-0.2,0.2-0.5,0.2-0.8c0-0.4-0.1-0.7-0.4-1s-0.8-0.4-1.4-0.4h-2.7L495.8,330.7
			L495.8,330.7z"/>
		<path fill="#4D4D4F" d="M503.9,338.1h-0.8c1.2-1.9,1.8-3.8,1.8-5.6c0-0.7-0.1-1.5-0.3-2.2c-0.1-0.6-0.3-1.1-0.6-1.7
			c-0.2-0.4-0.5-0.9-0.9-1.8h0.8c0.7,1,1.3,2,1.6,3c0.3,0.9,0.5,1.7,0.5,2.7c0,1.1-0.2,2.1-0.6,3.1
			C505,336.5,504.5,337.3,503.9,338.1z"/>
		<path fill="#4D4D4F" d="M512.7,330.5h-5.7v-1h5.7V330.5z M512.7,333.1h-5.7v-1h5.7V333.1z"/>
		<path fill="#4D4D4F" d="M513.9,331.3c0-1,0.1-1.8,0.3-2.5c0.2-0.6,0.5-1.1,0.9-1.4s0.9-0.5,1.6-0.5c0.5,0,0.9,0.1,1.2,0.3
			c0.3,0.2,0.6,0.5,0.9,0.8c0.2,0.3,0.4,0.8,0.5,1.3s0.2,1.2,0.2,2c0,1-0.1,1.8-0.3,2.4c-0.2,0.6-0.5,1.1-0.9,1.4s-0.9,0.5-1.6,0.5
			c-0.8,0-1.5-0.3-2-0.9C514.2,334.1,513.9,332.9,513.9,331.3z M515,331.3c0,1.4,0.2,2.3,0.5,2.8s0.7,0.7,1.2,0.7
			c0.5,0,0.9-0.2,1.2-0.7s0.5-1.4,0.5-2.8c0-1.4-0.2-2.4-0.5-2.8s-0.7-0.7-1.2-0.7c-0.5,0-0.9,0.2-1.2,0.6
			C515.2,328.9,515,329.9,515,331.3z"/>
		<path fill="#4D4D4F" d="M521.2,335.5v-1.2h1.2v1.2H521.2z"/>
		<path fill="#4D4D4F" d="M524,328.1v-1h5.6v0.8c-0.5,0.6-1.1,1.4-1.6,2.3s-1,2-1.2,3c-0.2,0.7-0.3,1.5-0.4,2.4h-1.1
			c0-0.7,0.1-1.5,0.4-2.4c0.3-1,0.6-1.9,1.1-2.8s1-1.6,1.5-2.2L524,328.1L524,328.1z"/>
		<path fill="#4D4D4F" d="M530.7,328.1v-1h5.6v0.8c-0.5,0.6-1.1,1.4-1.6,2.3s-1,2-1.2,3c-0.2,0.7-0.3,1.5-0.4,2.4h-1.1
			c0-0.7,0.1-1.5,0.4-2.4c0.3-1,0.6-1.9,1.1-2.8c0.5-0.9,1-1.6,1.5-2.2L530.7,328.1L530.7,328.1z"/>
		<path fill="#4D4D4F" d="M537.3,328.1v-1h5.6v0.8c-0.5,0.6-1.1,1.4-1.6,2.3s-1,2-1.2,3c-0.2,0.7-0.3,1.5-0.4,2.4h-1.1
			c0-0.7,0.1-1.5,0.4-2.4c0.3-1,0.6-1.9,1.1-2.8c0.5-0.9,1-1.6,1.5-2.2L537.3,328.1L537.3,328.1z"/>
		<path fill="#4D4D4F" d="M389.5,354.1c-0.6-0.7-1.1-1.6-1.5-2.6c-0.4-1-0.6-2-0.6-3.1c0-0.9,0.1-1.8,0.5-2.7c0.4-1,0.9-2,1.6-3h0.8
			c-0.5,0.8-0.8,1.4-0.9,1.7c-0.2,0.5-0.4,1.1-0.6,1.7c-0.2,0.7-0.3,1.5-0.3,2.2c0,1.9,0.6,3.8,1.8,5.6L389.5,354.1L389.5,354.1z"/>
		<path fill="#4D4D4F" d="M391.3,349.6l1-0.1c0.1,0.5,0.3,0.8,0.5,1s0.6,0.3,0.9,0.3c0.3,0,0.6-0.1,0.9-0.2c0.2-0.1,0.4-0.3,0.6-0.6
			s0.3-0.6,0.4-1c0.1-0.4,0.2-0.9,0.2-1.3c0,0,0-0.1,0-0.2c-0.2,0.3-0.5,0.6-0.9,0.8s-0.8,0.3-1.2,0.3c-0.7,0-1.3-0.3-1.8-0.8
			c-0.5-0.5-0.7-1.2-0.7-2c0-0.9,0.3-1.6,0.8-2.1c0.5-0.5,1.2-0.8,1.9-0.8c0.6,0,1.1,0.2,1.5,0.5s0.8,0.7,1.1,1.3
			c0.2,0.6,0.4,1.4,0.4,2.4c0,1.1-0.1,2-0.4,2.6c-0.2,0.6-0.6,1.1-1.1,1.5c-0.5,0.3-1,0.5-1.7,0.5c-0.7,0-1.2-0.2-1.6-0.6
			C391.7,350.8,391.4,350.2,391.3,349.6z M395.7,345.8c0-0.6-0.2-1.1-0.5-1.4s-0.7-0.5-1.2-0.5c-0.5,0-0.9,0.2-1.2,0.6
			c-0.3,0.4-0.5,0.9-0.5,1.5c0,0.5,0.2,1,0.5,1.3c0.3,0.3,0.7,0.5,1.2,0.5c0.5,0,0.9-0.2,1.2-0.5
			C395.5,346.8,395.7,346.4,395.7,345.8z"/>
		<path fill="#4D4D4F" d="M397.9,349.3l1.1-0.1c0.1,0.5,0.3,0.9,0.6,1.2c0.3,0.3,0.7,0.4,1.1,0.4c0.5,0,0.9-0.2,1.3-0.6
			c0.4-0.4,0.5-0.9,0.5-1.5c0-0.6-0.2-1.1-0.5-1.4c-0.3-0.3-0.8-0.5-1.3-0.5c-0.3,0-0.6,0.1-0.9,0.2c-0.3,0.2-0.5,0.4-0.6,0.6
			l-1-0.1l0.8-4.4h4.3v1h-3.4l-0.5,2.3c0.5-0.4,1.1-0.5,1.6-0.5c0.8,0,1.4,0.3,1.9,0.8c0.5,0.5,0.8,1.2,0.8,2c0,0.8-0.2,1.4-0.7,2
			c-0.6,0.7-1.3,1-2.3,1c-0.8,0-1.4-0.2-1.9-0.7C398.2,350.6,397.9,350,397.9,349.3z"/>
		<path fill="#4D4D4F" d="M404.7,345c0-0.6,0.2-1.1,0.5-1.6c0.3-0.4,0.8-0.6,1.3-0.6c0.5,0,1,0.2,1.3,0.6c0.4,0.4,0.5,1,0.5,1.7
			c0,0.7-0.2,1.3-0.5,1.7c-0.4,0.4-0.8,0.6-1.3,0.6s-1-0.2-1.3-0.6C404.9,346.4,404.7,345.8,404.7,345z M406.6,343.5
			c-0.3,0-0.5,0.1-0.7,0.3c-0.2,0.2-0.3,0.6-0.3,1.2c0,0.6,0.1,0.9,0.3,1.2c0.2,0.2,0.4,0.3,0.6,0.3c0.3,0,0.5-0.1,0.7-0.3
			c0.2-0.2,0.3-0.6,0.3-1.2c0-0.6-0.1-0.9-0.3-1.2S406.8,343.5,406.6,343.5z M406.6,351.9l4.7-9.1h0.9l-4.7,9.1H406.6z M410.3,349.5
			c0-0.6,0.2-1.1,0.5-1.6c0.3-0.4,0.8-0.6,1.3-0.6c0.5,0,1,0.2,1.3,0.6c0.4,0.4,0.5,0.9,0.5,1.7c0,0.7-0.2,1.3-0.5,1.7
			c-0.4,0.4-0.8,0.6-1.3,0.6c-0.5,0-1-0.2-1.3-0.6S410.3,350.3,410.3,349.5z M412.1,348c-0.3,0-0.5,0.1-0.7,0.3
			c-0.2,0.2-0.3,0.6-0.3,1.2c0,0.5,0.1,0.9,0.3,1.2c0.2,0.2,0.4,0.3,0.7,0.3c0.3,0,0.5-0.1,0.7-0.3c0.2-0.2,0.3-0.6,0.3-1.2
			c0-0.6-0.1-0.9-0.3-1.2C412.6,348.2,412.4,348,412.1,348z"/>
		<path fill="#4D4D4F" d="M422.9,349.3l1,0.1c-0.1,0.7-0.4,1.3-0.9,1.7s-1,0.6-1.7,0.6c-0.9,0-1.5-0.3-2.1-0.8
			c-0.5-0.6-0.8-1.4-0.8-2.4c0-0.7,0.1-1.3,0.3-1.8c0.2-0.5,0.6-0.9,1-1.1s0.9-0.4,1.5-0.4c0.7,0,1.2,0.2,1.7,0.5s0.7,0.8,0.8,1.5
			l-1,0.2c-0.1-0.4-0.3-0.7-0.5-0.9c-0.2-0.2-0.6-0.3-0.9-0.3c-0.5,0-1,0.2-1.3,0.6s-0.5,1-0.5,1.8c0,0.8,0.2,1.4,0.5,1.8
			c0.3,0.4,0.7,0.6,1.3,0.6c0.4,0,0.8-0.1,1-0.4C422.6,350.2,422.8,349.8,422.9,349.3z"/>
		<path fill="#4D4D4F" d="M424.4,348.4c0-1.2,0.3-2,1-2.6c0.5-0.5,1.2-0.7,2-0.7c0.9,0,1.6,0.3,2.1,0.8c0.5,0.6,0.8,1.3,0.8,2.3
			c0,0.8-0.1,1.4-0.4,1.9c-0.2,0.5-0.6,0.8-1,1.1c-0.5,0.3-1,0.4-1.5,0.4c-0.9,0-1.6-0.3-2.1-0.8
			C424.7,350.3,424.4,349.5,424.4,348.4z M425.5,348.4c0,0.8,0.2,1.4,0.5,1.8c0.3,0.4,0.8,0.6,1.3,0.6c0.5,0,1-0.2,1.3-0.6
			c0.3-0.4,0.5-1,0.5-1.8c0-0.8-0.2-1.4-0.5-1.8c-0.4-0.4-0.8-0.6-1.3-0.6c-0.5,0-1,0.2-1.3,0.6C425.7,347,425.5,347.6,425.5,348.4z
			"/>
		<path fill="#4D4D4F" d="M431.5,351.5v-6.2h0.9v0.9c0.5-0.7,1.1-1,2-1c0.4,0,0.7,0.1,1,0.2c0.3,0.1,0.5,0.3,0.7,0.5
			c0.2,0.2,0.3,0.5,0.3,0.8c0,0.2,0.1,0.5,0.1,1v3.8h-1.1v-3.8c0-0.4,0-0.8-0.1-1s-0.2-0.4-0.4-0.5s-0.5-0.2-0.7-0.2
			c-0.4,0-0.8,0.1-1.2,0.4c-0.3,0.3-0.5,0.8-0.5,1.6v3.4L431.5,351.5L431.5,351.5z"/>
		<path fill="#4D4D4F" d="M438.4,351.5v-5.4h-0.9v-0.8h0.9v-0.7c0-0.4,0-0.7,0.1-0.9c0.1-0.3,0.3-0.5,0.5-0.7
			c0.3-0.2,0.6-0.3,1.1-0.3c0.3,0,0.6,0,1,0.1l-0.2,0.9c-0.2,0-0.4-0.1-0.6-0.1c-0.3,0-0.5,0.1-0.7,0.2s-0.2,0.4-0.2,0.8v0.6h1.2
			v0.8h-1.2v5.4L438.4,351.5L438.4,351.5z"/>
		<path fill="#4D4D4F" d="M441.5,344.2V343h1.1v1.2H441.5z M441.5,351.5v-6.2h1.1v6.2H441.5z"/>
		<path fill="#4D4D4F" d="M448.2,351.5v-0.8c-0.4,0.6-1,0.9-1.7,0.9c-0.5,0-1-0.1-1.4-0.4c-0.4-0.3-0.7-0.7-1-1.1
			c-0.2-0.5-0.3-1.1-0.3-1.7c0-0.6,0.1-1.2,0.3-1.7s0.5-0.9,0.9-1.2c0.4-0.3,0.9-0.4,1.4-0.4c0.4,0,0.7,0.1,1,0.2s0.5,0.4,0.7,0.6
			V343h1v8.6L448.2,351.5L448.2,351.5z M444.9,348.4c0,0.8,0.2,1.4,0.5,1.8c0.3,0.4,0.7,0.6,1.2,0.6c0.5,0,0.9-0.2,1.2-0.6
			s0.5-1,0.5-1.7c0-0.9-0.2-1.5-0.5-1.9c-0.3-0.4-0.7-0.6-1.2-0.6c-0.5,0-0.9,0.2-1.2,0.6C445,347,444.9,347.6,444.9,348.4z"/>
		<path fill="#4D4D4F" d="M455.1,349.5l1.1,0.1c-0.2,0.6-0.5,1.1-1,1.5c-0.5,0.4-1.1,0.5-1.8,0.5c-0.9,0-1.6-0.3-2.2-0.8
			c-0.5-0.6-0.8-1.3-0.8-2.4c0-1,0.3-1.9,0.8-2.4s1.2-0.9,2.1-0.9c0.8,0,1.5,0.3,2,0.9c0.5,0.6,0.8,1.4,0.8,2.4c0,0.1,0,0.2,0,0.3
			h-4.6c0,0.7,0.2,1.2,0.6,1.6c0.3,0.4,0.8,0.5,1.3,0.5c0.4,0,0.7-0.1,1-0.3C454.7,350.3,455,350,455.1,349.5z M451.7,347.8h3.5
			c0-0.5-0.2-0.9-0.4-1.2c-0.3-0.4-0.8-0.6-1.3-0.6c-0.5,0-0.9,0.2-1.2,0.5S451.7,347.3,451.7,347.8z"/>
		<path fill="#4D4D4F" d="M457.5,351.5v-6.2h0.9v0.9c0.5-0.7,1.1-1,2-1c0.4,0,0.7,0.1,1,0.2c0.3,0.1,0.6,0.3,0.7,0.5
			c0.2,0.2,0.3,0.5,0.3,0.8c0,0.2,0.1,0.5,0.1,1v3.8h-1.1v-3.8c0-0.4,0-0.8-0.1-1s-0.2-0.4-0.4-0.5s-0.5-0.2-0.7-0.2
			c-0.4,0-0.8,0.1-1.2,0.4c-0.3,0.3-0.5,0.8-0.5,1.6v3.4L457.5,351.5L457.5,351.5z"/>
		<path fill="#4D4D4F" d="M468.3,349.3l1,0.1c-0.1,0.7-0.4,1.3-0.9,1.7s-1,0.6-1.7,0.6c-0.9,0-1.5-0.3-2.1-0.8
			c-0.5-0.6-0.8-1.4-0.8-2.4c0-0.7,0.1-1.3,0.3-1.8c0.2-0.5,0.6-0.9,1-1.1s0.9-0.4,1.5-0.4c0.7,0,1.2,0.2,1.7,0.5s0.7,0.8,0.8,1.5
			l-1,0.2c-0.1-0.4-0.3-0.7-0.5-0.9s-0.5-0.3-0.9-0.3c-0.5,0-1,0.2-1.3,0.6s-0.5,1-0.5,1.8c0,0.8,0.2,1.4,0.5,1.8
			c0.3,0.4,0.7,0.6,1.3,0.6c0.4,0,0.8-0.1,1-0.4C468,350.2,468.2,349.8,468.3,349.3z"/>
		<path fill="#4D4D4F" d="M474.5,349.5l1.1,0.1c-0.2,0.6-0.5,1.1-1,1.5s-1.1,0.5-1.8,0.5c-0.9,0-1.6-0.3-2.2-0.8
			c-0.5-0.6-0.8-1.3-0.8-2.4c0-1,0.3-1.9,0.8-2.4s1.2-0.9,2.1-0.9c0.8,0,1.5,0.3,2,0.9c0.5,0.6,0.8,1.4,0.8,2.4c0,0.1,0,0.2,0,0.3
			h-4.6c0,0.7,0.2,1.2,0.6,1.6c0.3,0.4,0.8,0.5,1.3,0.5c0.4,0,0.7-0.1,1-0.3C474.1,350.3,474.3,350,474.5,349.5z M471,347.8h3.5
			c0-0.5-0.2-0.9-0.4-1.2c-0.3-0.4-0.8-0.6-1.3-0.6c-0.5,0-0.9,0.2-1.2,0.5S471,347.3,471,347.8z"/>
		<path fill="#4D4D4F" d="M480.2,344.2V343h1.1v1.2H480.2z M480.2,351.5v-6.2h1.1v6.2H480.2z"/>
		<path fill="#4D4D4F" d="M482.9,351.5v-6.2h0.9v0.9c0.5-0.7,1.1-1,2-1c0.4,0,0.7,0.1,1,0.2c0.3,0.1,0.5,0.3,0.7,0.5
			c0.2,0.2,0.3,0.5,0.3,0.8c0,0.2,0.1,0.5,0.1,1v3.8h-1.1v-3.8c0-0.4,0-0.8-0.1-1s-0.2-0.4-0.4-0.5s-0.5-0.2-0.7-0.2
			c-0.4,0-0.8,0.1-1.2,0.4c-0.3,0.3-0.5,0.8-0.5,1.6v3.4L482.9,351.5L482.9,351.5z"/>
		<path fill="#4D4D4F" d="M491.9,350.6l0.2,0.9c-0.3,0.1-0.6,0.1-0.8,0.1c-0.4,0-0.7-0.1-0.9-0.2c-0.2-0.1-0.4-0.3-0.4-0.5
			c-0.1-0.2-0.1-0.6-0.1-1.2v-3.6H489v-0.8h0.8v-1.5l1.1-0.6v2.2h1.1v0.8h-1.1v3.6c0,0.3,0,0.5,0.1,0.6c0,0.1,0.1,0.2,0.2,0.2
			c0.1,0.1,0.2,0.1,0.4,0.1C491.5,350.6,491.7,350.6,491.9,350.6z"/>
		<path fill="#4D4D4F" d="M497.1,349.5l1.1,0.1c-0.2,0.6-0.5,1.1-1,1.5s-1.1,0.5-1.8,0.5c-0.9,0-1.6-0.3-2.2-0.8
			c-0.5-0.6-0.8-1.3-0.8-2.4c0-1,0.3-1.9,0.8-2.4s1.2-0.9,2.1-0.9c0.8,0,1.5,0.3,2,0.9c0.5,0.6,0.8,1.4,0.8,2.4c0,0.1,0,0.2,0,0.3
			h-4.6c0,0.7,0.2,1.2,0.6,1.6c0.3,0.4,0.8,0.5,1.3,0.5c0.4,0,0.7-0.1,1-0.3C496.8,350.3,497,350,497.1,349.5z M493.7,347.8h3.5
			c0-0.5-0.2-0.9-0.4-1.2c-0.3-0.4-0.8-0.6-1.3-0.6c-0.5,0-0.9,0.2-1.2,0.5S493.7,347.3,493.7,347.8z"/>
		<path fill="#4D4D4F" d="M499.5,351.5v-6.2h0.9v0.9c0.2-0.4,0.5-0.7,0.7-0.9s0.4-0.2,0.7-0.2c0.4,0,0.7,0.1,1.1,0.3l-0.4,1
			c-0.3-0.2-0.5-0.2-0.8-0.2c-0.2,0-0.4,0.1-0.6,0.2c-0.2,0.1-0.3,0.3-0.4,0.6c-0.1,0.4-0.2,0.8-0.2,1.2v3.3L499.5,351.5
			L499.5,351.5z"/>
		<path fill="#4D4D4F" d="M505.3,351.5l-2.4-6.2h1.1l1.3,3.7c0.1,0.4,0.3,0.8,0.4,1.3c0.1-0.3,0.2-0.7,0.4-1.2l1.4-3.8h1.1l-2.4,6.2
			H505.3z"/>
		<path fill="#4D4D4F" d="M513.6,350.8c-0.4,0.3-0.8,0.6-1.1,0.7c-0.4,0.1-0.8,0.2-1.2,0.2c-0.7,0-1.2-0.2-1.6-0.5
			c-0.4-0.3-0.6-0.8-0.6-1.3c0-0.3,0.1-0.6,0.2-0.8c0.1-0.3,0.3-0.5,0.5-0.6c0.2-0.2,0.5-0.3,0.8-0.3c0.2-0.1,0.5-0.1,0.9-0.2
			c0.9-0.1,1.5-0.2,1.9-0.4c0-0.1,0-0.2,0-0.3c0-0.4-0.1-0.7-0.3-0.9c-0.3-0.2-0.7-0.4-1.2-0.4c-0.5,0-0.9,0.1-1.1,0.3
			c-0.2,0.2-0.4,0.5-0.5,0.9l-1-0.1c0.1-0.4,0.2-0.8,0.5-1.1c0.2-0.3,0.5-0.5,0.9-0.6c0.4-0.1,0.9-0.2,1.4-0.2c0.5,0,1,0.1,1.3,0.2
			s0.6,0.3,0.7,0.5c0.2,0.2,0.3,0.4,0.3,0.7c0,0.2,0.1,0.5,0.1,1v1.4c0,1,0,1.6,0.1,1.9c0,0.3,0.1,0.5,0.3,0.7h-1.1
			C513.7,351.3,513.6,351.1,513.6,350.8z M513.5,348.4c-0.4,0.2-1,0.3-1.7,0.4c-0.4,0.1-0.7,0.1-0.9,0.2c-0.2,0.1-0.3,0.2-0.4,0.3
			c-0.1,0.2-0.1,0.3-0.1,0.5c0,0.3,0.1,0.5,0.3,0.7s0.5,0.3,0.9,0.3c0.4,0,0.8-0.1,1.1-0.3c0.3-0.2,0.6-0.4,0.7-0.7
			c0.1-0.2,0.2-0.6,0.2-1.1V348.4z"/>
		<path fill="#4D4D4F" d="M516.2,351.5V343h1.1v8.6H516.2z"/>
		<path fill="#4D4D4F" d="M522.3,353.9v-11h2.3v0.9h-1.3v9.2h1.3v0.9L522.3,353.9L522.3,353.9z"/>
		<path fill="#4D4D4F" d="M531.8,348.5l1.1,0.3c-0.2,0.9-0.7,1.6-1.3,2.1s-1.4,0.7-2.3,0.7c-0.9,0-1.7-0.2-2.3-0.6s-1-0.9-1.3-1.6
			c-0.3-0.7-0.5-1.5-0.5-2.3c0-0.9,0.2-1.7,0.5-2.3s0.8-1.2,1.5-1.5c0.6-0.3,1.3-0.5,2.1-0.5c0.9,0,1.6,0.2,2.2,0.7
			c0.6,0.4,1,1.1,1.2,1.8l-1.1,0.3c-0.2-0.6-0.5-1.1-0.9-1.4c-0.4-0.3-0.9-0.4-1.4-0.4c-0.7,0-1.2,0.2-1.7,0.5
			c-0.4,0.3-0.8,0.7-0.9,1.3c-0.2,0.5-0.3,1.1-0.3,1.6c0,0.7,0.1,1.4,0.3,1.9s0.5,1,1,1.2s0.9,0.4,1.5,0.4c0.6,0,1.2-0.2,1.6-0.6
			C531.4,349.8,531.7,349.3,531.8,348.5z"/>
		<path fill="#4D4D4F" d="M534.6,351.5V343h1.1v8.6H534.6z"/>
		<path fill="#4D4D4F" d="M539.3,353.9H537v-0.9h1.3v-9.2H537V343h2.3V353.9z"/>
		<path fill="#4D4D4F" d="M541.2,351.5v-1.2h1.2v1.2c0,0.4-0.1,0.8-0.2,1.1s-0.4,0.5-0.7,0.6l-0.3-0.5c0.2-0.1,0.4-0.2,0.5-0.4
			c0.1-0.2,0.2-0.5,0.2-0.8L541.2,351.5L541.2,351.5z"/>
		<path fill="#4D4D4F" d="M436.2,363.3c0-1,0.1-1.8,0.3-2.5c0.2-0.6,0.5-1.1,0.9-1.4s0.9-0.5,1.6-0.5c0.5,0,0.9,0.1,1.2,0.3
			c0.3,0.2,0.6,0.5,0.9,0.8s0.4,0.8,0.5,1.3s0.2,1.2,0.2,2c0,1-0.1,1.8-0.3,2.4s-0.5,1.1-0.9,1.4s-0.9,0.5-1.6,0.5
			c-0.8,0-1.5-0.3-2-0.9C436.5,366.1,436.2,364.9,436.2,363.3z M437.3,363.3c0,1.4,0.2,2.3,0.5,2.8s0.7,0.7,1.2,0.7s0.9-0.2,1.2-0.7
			s0.5-1.4,0.5-2.8c0-1.4-0.2-2.4-0.5-2.8s-0.7-0.7-1.2-0.7c-0.5,0-0.9,0.2-1.2,0.6C437.4,360.9,437.3,361.9,437.3,363.3z"/>
		<path fill="#4D4D4F" d="M443.4,367.5v-1.2h1.2v1.2H443.4z"/>
		<path fill="#4D4D4F" d="M451.7,361.1l-1,0.1c-0.1-0.4-0.2-0.7-0.4-0.9c-0.3-0.3-0.6-0.5-1.1-0.5c-0.3,0-0.6,0.1-0.9,0.3
			c-0.3,0.2-0.6,0.6-0.8,1.1c-0.2,0.5-0.3,1.1-0.3,2c0.3-0.4,0.6-0.7,0.9-0.9c0.4-0.2,0.8-0.3,1.2-0.3c0.7,0,1.3,0.3,1.8,0.8
			s0.7,1.2,0.7,2c0,0.5-0.1,1-0.3,1.5c-0.2,0.5-0.6,0.8-1,1.1c-0.4,0.2-0.9,0.4-1.4,0.4c-0.9,0-1.6-0.3-2.1-1
			c-0.6-0.6-0.8-1.7-0.8-3.2c0-1.7,0.3-2.9,0.9-3.6c0.5-0.7,1.3-1,2.2-1c0.7,0,1.2,0.2,1.7,0.6C451.3,359.9,451.6,360.4,451.7,361.1
			z M447.4,364.8c0,0.4,0.1,0.7,0.2,1c0.2,0.3,0.4,0.6,0.6,0.8c0.3,0.2,0.6,0.3,0.9,0.3c0.4,0,0.8-0.2,1.1-0.5
			c0.3-0.4,0.5-0.8,0.5-1.5c0-0.6-0.2-1.1-0.5-1.4c-0.3-0.3-0.7-0.5-1.2-0.5c-0.5,0-0.9,0.2-1.2,0.5S447.4,364.2,447.4,364.8z"/>
		<path fill="#4D4D4F" d="M458.4,366.5v1h-5.7c0-0.3,0-0.5,0.1-0.7c0.1-0.4,0.4-0.8,0.7-1.1c0.3-0.4,0.8-0.8,1.4-1.3
			c0.9-0.8,1.6-1.4,1.9-1.8s0.5-0.9,0.5-1.3c0-0.4-0.1-0.8-0.4-1.1c-0.3-0.3-0.7-0.4-1.2-0.4c-0.5,0-0.9,0.2-1.2,0.5
			c-0.3,0.3-0.5,0.7-0.5,1.3l-1.1-0.1c0.1-0.8,0.4-1.4,0.8-1.8s1.1-0.6,2-0.6c0.8,0,1.5,0.2,2,0.7c0.5,0.5,0.7,1,0.7,1.7
			c0,0.3-0.1,0.7-0.2,1s-0.4,0.7-0.7,1c-0.3,0.4-0.9,0.9-1.6,1.5c-0.6,0.5-1,0.9-1.2,1.1c-0.2,0.2-0.3,0.4-0.4,0.6L458.4,366.5
			L458.4,366.5z"/>
		<path fill="#4D4D4F" d="M463.5,367.5h-1.1v-6.7c-0.3,0.2-0.6,0.5-1,0.7c-0.4,0.2-0.8,0.4-1.1,0.5v-1c0.6-0.3,1.1-0.6,1.5-1
			c0.4-0.4,0.8-0.8,0.9-1.1h0.7L463.5,367.5L463.5,367.5z"/>
		<path fill="#4D4D4F" d="M465.7,364.9V364h6.7v0.9H465.7z"/>
		<path fill="#4D4D4F" d="M472.9,363.3c0-1,0.1-1.8,0.3-2.5c0.2-0.6,0.5-1.1,0.9-1.4s0.9-0.5,1.6-0.5c0.5,0,0.9,0.1,1.2,0.3
			s0.6,0.5,0.9,0.8s0.4,0.8,0.5,1.3s0.2,1.2,0.2,2c0,1-0.1,1.8-0.3,2.4s-0.5,1.1-0.9,1.4c-0.4,0.3-0.9,0.5-1.6,0.5
			c-0.8,0-1.5-0.3-2-0.9C473.2,366.1,472.9,364.9,472.9,363.3z M474,363.3c0,1.4,0.2,2.3,0.5,2.8s0.7,0.7,1.2,0.7s0.9-0.2,1.2-0.7
			s0.5-1.4,0.5-2.8c0-1.4-0.2-2.4-0.5-2.8s-0.7-0.7-1.2-0.7c-0.5,0-0.9,0.2-1.2,0.6C474.1,360.9,474,361.9,474,363.3z"/>
		<path fill="#4D4D4F" d="M480.1,367.5v-1.2h1.2v1.2H480.1z"/>
		<path fill="#4D4D4F" d="M483,365.6l1-0.1c0.1,0.5,0.3,0.8,0.5,1s0.6,0.3,0.9,0.3c0.3,0,0.6-0.1,0.9-0.2c0.2-0.1,0.4-0.3,0.6-0.6
			s0.3-0.6,0.4-1c0.1-0.4,0.2-0.9,0.2-1.3c0,0,0-0.1,0-0.2c-0.2,0.3-0.5,0.6-0.9,0.8s-0.8,0.3-1.2,0.3c-0.7,0-1.3-0.3-1.8-0.8
			c-0.5-0.5-0.7-1.2-0.7-2c0-0.9,0.3-1.6,0.8-2.1c0.5-0.5,1.2-0.8,1.9-0.8c0.6,0,1.1,0.2,1.5,0.5c0.5,0.3,0.8,0.7,1.1,1.3
			c0.2,0.6,0.4,1.4,0.4,2.4c0,1.1-0.1,2-0.4,2.6c-0.2,0.6-0.6,1.1-1.1,1.5c-0.5,0.3-1,0.5-1.7,0.5c-0.7,0-1.2-0.2-1.6-0.6
			S483.1,366.2,483,365.6z M487.4,361.8c0-0.6-0.2-1.1-0.5-1.4s-0.7-0.5-1.2-0.5c-0.5,0-0.9,0.2-1.2,0.6c-0.3,0.4-0.5,0.9-0.5,1.5
			c0,0.5,0.2,1,0.5,1.3c0.3,0.3,0.7,0.5,1.2,0.5c0.5,0,0.9-0.2,1.2-0.5C487.2,362.8,487.4,362.4,487.4,361.8z"/>
		<path fill="#4D4D4F" d="M491.2,362.9c-0.4-0.2-0.8-0.4-1-0.7s-0.3-0.7-0.3-1.1c0-0.6,0.2-1.1,0.7-1.6s1-0.6,1.8-0.6
			c0.8,0,1.4,0.2,1.8,0.7c0.5,0.4,0.7,1,0.7,1.6c0,0.4-0.1,0.7-0.3,1s-0.5,0.5-1,0.7c0.5,0.2,0.9,0.4,1.2,0.8
			c0.3,0.4,0.4,0.8,0.4,1.4c0,0.7-0.3,1.4-0.8,1.9s-1.2,0.8-2.1,0.8c-0.8,0-1.5-0.3-2.1-0.8c-0.5-0.5-0.8-1.1-0.8-1.9
			c0-0.6,0.1-1,0.4-1.4S490.7,363,491.2,362.9z M490.6,365.1c0,0.3,0.1,0.6,0.2,0.9s0.4,0.5,0.6,0.7c0.3,0.2,0.6,0.2,0.9,0.2
			c0.5,0,0.9-0.2,1.2-0.5s0.5-0.7,0.5-1.2c0-0.5-0.2-0.9-0.5-1.3s-0.8-0.5-1.3-0.5c-0.5,0-0.9,0.2-1.2,0.5
			C490.8,364.2,490.6,364.6,490.6,365.1z M491,361.1c0,0.4,0.1,0.7,0.4,1c0.3,0.3,0.6,0.4,1,0.4c0.4,0,0.7-0.1,1-0.4
			c0.3-0.3,0.4-0.6,0.4-0.9c0-0.4-0.1-0.7-0.4-1c-0.3-0.3-0.6-0.4-1-0.4c-0.4,0-0.7,0.1-1,0.4C491.1,360.4,491,360.7,491,361.1z"/>
		<path fill="#4D4D4F" d="M501.8,366.5v1h-5.7c0-0.3,0-0.5,0.1-0.7c0.1-0.4,0.4-0.8,0.7-1.1c0.3-0.4,0.8-0.8,1.4-1.3
			c0.9-0.8,1.6-1.4,1.9-1.8s0.5-0.9,0.5-1.3c0-0.4-0.1-0.8-0.4-1.1c-0.3-0.3-0.7-0.4-1.2-0.4c-0.5,0-0.9,0.2-1.2,0.5
			c-0.3,0.3-0.5,0.7-0.5,1.3l-1.1-0.1c0.1-0.8,0.4-1.4,0.8-1.8s1.1-0.6,2-0.6c0.8,0,1.5,0.2,2,0.7c0.5,0.5,0.7,1,0.7,1.7
			c0,0.3-0.1,0.7-0.2,1s-0.4,0.7-0.7,1c-0.3,0.4-0.9,0.9-1.6,1.5c-0.6,0.5-1,0.9-1.2,1.1c-0.2,0.2-0.3,0.4-0.4,0.6L501.8,366.5
			L501.8,366.5z"/>
		<path fill="#4D4D4F" d="M503.9,370.1h-0.8c1.2-1.9,1.8-3.8,1.8-5.6c0-0.7-0.1-1.5-0.3-2.2c-0.1-0.6-0.3-1.1-0.6-1.7
			c-0.2-0.4-0.5-0.9-0.9-1.8h0.8c0.7,1,1.3,2,1.6,3c0.3,0.9,0.5,1.7,0.5,2.7c0,1.1-0.2,2.1-0.6,3.1
			C505,368.5,504.5,369.3,503.9,370.1z"/>
		<path fill="#4D4D4F" d="M507.5,367.5v-1.2h1.2v1.2c0,0.4-0.1,0.8-0.2,1.1s-0.4,0.5-0.7,0.6l-0.3-0.5c0.2-0.1,0.4-0.2,0.5-0.4
			c0.1-0.2,0.2-0.5,0.2-0.8L507.5,367.5L507.5,367.5z M507.5,362.5v-1.2h1.2v1.2H507.5z"/>
		<path fill="#4D4D4F" d="M513,369.9l1.8-8.6h1l-0.2,0.9c0.4-0.4,0.7-0.6,1-0.8c0.3-0.1,0.6-0.2,0.9-0.2c0.6,0,1.1,0.2,1.5,0.6
			c0.4,0.4,0.6,1,0.6,1.9c0,0.6-0.1,1.2-0.3,1.8c-0.2,0.5-0.5,1-0.8,1.3s-0.6,0.6-0.9,0.7c-0.3,0.2-0.6,0.2-1,0.2
			c-0.7,0-1.3-0.4-1.7-1.1l-0.7,3.4L513,369.9L513,369.9z M515.1,365c0,0.5,0,0.8,0.1,1c0.1,0.3,0.3,0.5,0.5,0.6s0.5,0.2,0.8,0.2
			c0.6,0,1.1-0.3,1.5-1c0.4-0.7,0.6-1.4,0.6-2.1c0-0.5-0.1-0.9-0.4-1.2s-0.6-0.4-0.9-0.4c-0.3,0-0.5,0.1-0.8,0.2
			c-0.2,0.1-0.4,0.4-0.6,0.6s-0.4,0.6-0.5,1C515.1,364.3,515.1,364.7,515.1,365z"/>
		<path fill="#4D4D4F" d="M520.4,363.8v-1l5.7-2.4v1l-4.5,1.9l4.5,1.9v1L520.4,363.8z"/>
		<path fill="#4D4D4F" d="M527.8,367.5v-1.2h1.2v1.2H527.8z"/>
		<path fill="#4D4D4F" d="M530.6,363.3c0-1,0.1-1.8,0.3-2.5c0.2-0.6,0.5-1.1,0.9-1.4s0.9-0.5,1.6-0.5c0.5,0,0.9,0.1,1.2,0.3
			s0.6,0.5,0.9,0.8s0.4,0.8,0.5,1.3s0.2,1.2,0.2,2c0,1-0.1,1.8-0.3,2.4s-0.5,1.1-0.9,1.4c-0.4,0.3-0.9,0.5-1.6,0.5
			c-0.8,0-1.5-0.3-2-0.9C530.9,366.1,530.6,364.9,530.6,363.3z M531.7,363.3c0,1.4,0.2,2.3,0.5,2.8s0.7,0.7,1.2,0.7s0.9-0.2,1.2-0.7
			s0.5-1.4,0.5-2.8c0-1.4-0.2-2.4-0.5-2.8s-0.7-0.7-1.2-0.7c-0.5,0-0.9,0.2-1.2,0.6C531.9,360.9,531.7,361.9,531.7,363.3z"/>
		<path fill="#4D4D4F" d="M537.3,365.3l1.1-0.1c0.1,0.5,0.3,0.9,0.6,1.2s0.7,0.4,1.1,0.4c0.5,0,0.9-0.2,1.3-0.6s0.5-0.9,0.5-1.5
			c0-0.6-0.2-1.1-0.5-1.4c-0.3-0.3-0.8-0.5-1.3-0.5c-0.3,0-0.6,0.1-0.9,0.2c-0.3,0.2-0.5,0.4-0.6,0.6l-1-0.1l0.8-4.4h4.3v1h-3.4
			l-0.5,2.3c0.5-0.4,1.1-0.5,1.6-0.5c0.8,0,1.4,0.3,1.9,0.8c0.5,0.5,0.8,1.2,0.8,2c0,0.8-0.2,1.4-0.7,2c-0.6,0.7-1.3,1-2.3,1
			c-0.8,0-1.4-0.2-1.9-0.7C537.6,366.6,537.3,366,537.3,365.3z"/>
	</g>
	<text transform="matrix(1 0 0 1 278.6362 40.3759)" fill="#FFFFFF" font-family="'Arial-BoldMT'" font-size="40">25.8</text>
</g>
</svg>
