<svg version="1.1" id="Layer_1" xmlns="http://www.w3.org/2000/svg" xmlns:xlink="http://www.w3.org/1999/xlink" x="0px" y="0px"
	 width="838px" height="347px" viewBox="0 0 838 347" style="enable-background:new 0 0 838 347;" xml:space="preserve"><style type="text/css">
	.st0{fill:#ECF7F3;}
	.st1{fill:none;stroke:#D6ECE6;stroke-width:2;stroke-miterlimit:10;}
	.st2{enable-background:new    ;}
	.st3{fill:#4E4E50;}
	.st4{fill:#6DADA2;}
	.st5{fill:none;stroke:#E9DA47;stroke-width:1.75;stroke-miterlimit:10;stroke-dasharray:3,3;}
	.st6{fill:#D6ECE6;}
	.st7{fill:none;stroke:#919396;stroke-width:2.1264;stroke-linecap:round;stroke-linejoin:round;stroke-miterlimit:10;}
	.st8{fill:none;stroke:#6DACA0;stroke-width:4.2529;stroke-linecap:round;stroke-linejoin:round;stroke-miterlimit:10;}
	.st9{fill:#C1D8D4;}
	.st10{fill:#D4D5D5;}
	.st11{fill:#6DACA0;}
	.st12{fill:#FFFFFF;}
	.st13{fill:#929497;}
	.st14{fill:none;stroke:#6DACA0;stroke-width:4.2529;stroke-miterlimit:10;}
	.st15{fill:none;stroke:#919396;stroke-width:2.1264;stroke-miterlimit:10;}
</style><g><rect x="6.983" y="251.607" class="st0" width="829.167" height="53.022"/><line class="st1" x1="50.845" y1="251.607" x2="6.983" y2="251.607"/><g><g class="st2"><path class="st3" d="M228.062,271.643h-1.784v-6.723c-0.652,0.609-1.42,1.061-2.304,1.353v-1.618
				c0.465-0.152,0.971-0.441,1.517-0.867c0.546-0.425,0.92-0.921,1.124-1.488h1.447V271.643z"/><path class="st3" d="M233.743,262.299c0.901,0,1.606,0.321,2.114,0.965c0.605,0.762,0.908,2.025,0.908,3.789
				c0,1.761-0.305,3.026-0.914,3.797c-0.503,0.635-1.206,0.951-2.107,0.951c-0.906,0-1.636-0.348-2.19-1.044
				s-0.832-1.937-0.832-3.723c0-1.752,0.305-3.013,0.914-3.783C232.139,262.617,232.842,262.299,233.743,262.299z M233.743,263.779
				c-0.216,0-0.408,0.069-0.578,0.207s-0.3,0.384-0.394,0.739c-0.123,0.461-0.184,1.237-0.184,2.329s0.055,1.843,0.165,2.251
				s0.249,0.68,0.416,0.815c0.167,0.136,0.358,0.203,0.574,0.203s0.408-0.068,0.578-0.206s0.3-0.384,0.394-0.739
				c0.123-0.457,0.184-1.232,0.184-2.324s-0.055-1.842-0.165-2.25s-0.249-0.681-0.416-0.818
				C234.15,263.848,233.959,263.779,233.743,263.779z"/></g></g><g><g class="st2"><path class="st3" d="M25.027,9.839h-1.784V3.116c-0.652,0.609-1.42,1.061-2.304,1.353V2.851c0.465-0.152,0.971-0.441,1.517-0.867
				c0.546-0.425,0.92-0.921,1.124-1.488h1.447V9.839z"/></g><g class="st2"><path class="st3" d="M29.668,0.494c0.901,0,1.606,0.321,2.114,0.965c0.605,0.762,0.908,2.025,0.908,3.789
				c0,1.761-0.305,3.026-0.914,3.797c-0.503,0.635-1.206,0.951-2.107,0.951c-0.906,0-1.636-0.348-2.19-1.044
				s-0.832-1.937-0.832-3.723c0-1.752,0.305-3.013,0.914-3.783C28.064,0.812,28.767,0.494,29.668,0.494z M29.668,1.972
				c-0.216,0-0.408,0.069-0.578,0.207s-0.3,0.384-0.394,0.739c-0.123,0.461-0.184,1.237-0.184,2.329s0.055,1.843,0.165,2.251
				s0.249,0.68,0.416,0.815c0.167,0.136,0.358,0.203,0.574,0.203s0.408-0.068,0.578-0.206s0.3-0.384,0.394-0.739
				c0.123-0.457,0.184-1.232,0.184-2.324s-0.055-1.842-0.165-2.25s-0.249-0.681-0.416-0.818C30.075,2.043,29.884,1.972,29.668,1.972
				z"/><path class="st3" d="M36.898,0.494c0.901,0,1.606,0.321,2.114,0.965c0.605,0.762,0.908,2.025,0.908,3.789
				c0,1.761-0.305,3.026-0.914,3.797C38.503,9.68,37.8,9.996,36.899,9.996c-0.906,0-1.636-0.348-2.19-1.044
				s-0.832-1.937-0.832-3.723c0-1.752,0.305-3.013,0.914-3.783C35.294,0.812,35.997,0.494,36.898,0.494z M36.898,1.972
				c-0.216,0-0.408,0.069-0.578,0.207s-0.3,0.384-0.394,0.739c-0.123,0.461-0.184,1.237-0.184,2.329s0.055,1.843,0.165,2.251
				s0.249,0.68,0.416,0.815c0.167,0.136,0.358,0.203,0.574,0.203s0.408-0.068,0.578-0.206s0.3-0.384,0.394-0.739
				c0.123-0.457,0.184-1.232,0.184-2.324s-0.055-1.842-0.165-2.25s-0.249-0.681-0.416-0.818C37.305,2.043,37.114,1.972,36.898,1.972
				z"/></g></g><g><g class="st2"><path class="st3" d="M27.173,66.239v-1.657h6.1v1.295c-0.503,0.495-1.016,1.206-1.536,2.133s-0.917,1.912-1.19,2.955
				c-0.272,1.043-0.407,1.975-0.403,2.796h-1.72c0.03-1.286,0.295-2.599,0.797-3.936c0.501-1.337,1.171-2.533,2.009-3.586
				L27.173,66.239L27.173,66.239z"/><path class="st3" d="M34.428,71.368l1.777-0.185c0.051,0.402,0.201,0.721,0.451,0.955c0.25,0.235,0.538,0.353,0.863,0.353
				c0.373,0,0.688-0.151,0.946-0.454s0.387-0.759,0.387-1.368c0-0.57-0.128-0.999-0.384-1.285c-0.256-0.285-0.589-0.428-1-0.428
				c-0.512,0-0.971,0.226-1.377,0.679l-1.447-0.21l0.914-4.843h4.716v1.669H36.91l-0.279,1.581c0.398-0.199,0.804-0.298,1.219-0.298
				c0.792,0,1.462,0.287,2.012,0.863c0.55,0.575,0.825,1.322,0.825,2.24c0,0.766-0.222,1.449-0.667,2.051
				c-0.605,0.82-1.445,1.23-2.52,1.23c-0.859,0-1.56-0.23-2.101-0.691S34.534,72.146,34.428,71.368z"/></g></g><g><g class="st2"><path class="st3" d="M26.679,136.439l1.777-0.185c0.051,0.402,0.201,0.721,0.451,0.955c0.25,0.235,0.538,0.353,0.863,0.353
				c0.373,0,0.688-0.151,0.946-0.454s0.387-0.759,0.387-1.368c0-0.57-0.128-0.999-0.384-1.285c-0.256-0.285-0.589-0.428-1-0.428
				c-0.512,0-0.971,0.226-1.377,0.679l-1.447-0.21l0.914-4.843h4.716v1.669h-3.364l-0.279,1.581
				c0.398-0.199,0.804-0.298,1.219-0.298c0.792,0,1.462,0.287,2.012,0.863c0.55,0.575,0.825,1.322,0.825,2.24
				c0,0.766-0.222,1.449-0.667,2.051c-0.605,0.82-1.445,1.23-2.52,1.23c-0.859,0-1.56-0.23-2.101-0.691
				S26.785,137.216,26.679,136.439z"/><path class="st3" d="M36.899,129.487c0.901,0,1.606,0.321,2.114,0.965c0.605,0.762,0.908,2.025,0.908,3.789
				c0,1.761-0.305,3.026-0.914,3.797c-0.503,0.635-1.206,0.951-2.107,0.951c-0.906,0-1.636-0.348-2.19-1.044
				s-0.832-1.937-0.832-3.723c0-1.752,0.305-3.013,0.914-3.783C35.295,129.805,35.997,129.487,36.899,129.487z M36.899,130.966
				c-0.216,0-0.408,0.069-0.578,0.207s-0.3,0.384-0.394,0.739c-0.123,0.461-0.184,1.237-0.184,2.329s0.055,1.843,0.165,2.251
				s0.249,0.68,0.416,0.815c0.167,0.136,0.358,0.203,0.574,0.203s0.408-0.068,0.578-0.206s0.3-0.384,0.394-0.739
				c0.123-0.457,0.184-1.232,0.184-2.324s-0.055-1.842-0.165-2.25s-0.249-0.681-0.416-0.818
				C37.306,131.035,37.114,130.966,36.899,130.966z"/></g></g><g><g class="st2"><path class="st3" d="M32.677,205.839v1.656h-6.252c0.068-0.626,0.271-1.22,0.609-1.78s1.007-1.305,2.006-2.231
				c0.804-0.749,1.297-1.257,1.479-1.523c0.246-0.368,0.368-0.732,0.368-1.092c0-0.397-0.107-0.703-0.32-0.917
				c-0.214-0.214-0.509-0.321-0.886-0.321c-0.373,0-0.668,0.112-0.889,0.337s-0.347,0.597-0.381,1.117l-1.777-0.178
				c0.106-0.981,0.438-1.687,0.997-2.114c0.559-0.427,1.257-0.641,2.095-0.641c0.918,0,1.64,0.248,2.165,0.742
				c0.525,0.496,0.787,1.111,0.787,1.848c0,0.419-0.075,0.817-0.226,1.196c-0.15,0.379-0.388,0.775-0.714,1.19
				c-0.216,0.275-0.605,0.671-1.168,1.188c-0.563,0.516-0.919,0.858-1.069,1.027c-0.15,0.17-0.272,0.335-0.365,0.496H32.677z"/><path class="st3" d="M33.909,205.102l1.777-0.185c0.051,0.402,0.201,0.721,0.451,0.955c0.25,0.235,0.538,0.353,0.863,0.353
				c0.373,0,0.688-0.151,0.946-0.454s0.387-0.759,0.387-1.368c0-0.57-0.128-0.999-0.384-1.285c-0.256-0.285-0.589-0.428-1-0.428
				c-0.512,0-0.971,0.226-1.377,0.679l-1.447-0.21l0.914-4.843h4.716v1.669h-3.364l-0.279,1.581
				c0.398-0.199,0.804-0.298,1.219-0.298c0.792,0,1.462,0.287,2.012,0.863c0.55,0.575,0.825,1.322,0.825,2.24
				c0,0.766-0.222,1.449-0.667,2.051c-0.605,0.82-1.445,1.23-2.52,1.23c-0.859,0-1.56-0.23-2.101-0.691
				S34.015,205.88,33.909,205.102z"/></g></g><g><g class="st2"><path class="st3" d="M425.775,269.987v1.656h-6.253c0.068-0.626,0.271-1.22,0.609-1.78c0.339-0.561,1.008-1.305,2.006-2.231
				c0.805-0.749,1.297-1.257,1.479-1.523c0.245-0.368,0.368-0.732,0.368-1.092c0-0.397-0.107-0.703-0.32-0.917
				c-0.214-0.214-0.51-0.321-0.886-0.321c-0.372,0-0.669,0.112-0.889,0.337s-0.347,0.597-0.381,1.117l-1.777-0.178
				c0.106-0.981,0.438-1.687,0.997-2.114s1.256-0.641,2.094-0.641c0.919,0,1.641,0.248,2.165,0.742
				c0.524,0.496,0.787,1.111,0.787,1.848c0,0.419-0.075,0.817-0.226,1.196s-0.389,0.775-0.714,1.19
				c-0.216,0.275-0.604,0.671-1.168,1.188c-0.563,0.516-0.919,0.858-1.069,1.027c-0.15,0.17-0.271,0.335-0.365,0.496H425.775z"/><path class="st3" d="M429.996,262.299c0.9,0,1.605,0.321,2.113,0.965c0.605,0.762,0.908,2.025,0.908,3.789
				c0,1.761-0.305,3.026-0.914,3.797c-0.504,0.635-1.207,0.951-2.107,0.951c-0.906,0-1.637-0.348-2.19-1.044
				s-0.831-1.937-0.831-3.723c0-1.752,0.305-3.013,0.914-3.783C428.392,262.617,429.094,262.299,429.996,262.299z M429.996,263.779
				c-0.217,0-0.408,0.069-0.578,0.207s-0.301,0.384-0.394,0.739c-0.122,0.461-0.185,1.237-0.185,2.329s0.056,1.843,0.166,2.251
				c0.109,0.408,0.248,0.68,0.416,0.815c0.166,0.136,0.357,0.203,0.574,0.203c0.215,0,0.408-0.068,0.577-0.206
				s0.3-0.384,0.394-0.739c0.123-0.457,0.184-1.232,0.184-2.324s-0.055-1.842-0.164-2.25c-0.11-0.408-0.249-0.681-0.416-0.818
				C430.403,263.848,430.211,263.779,429.996,263.779z"/></g></g><g class="st2"><path class="st4" d="M366.53,291.354c0-0.948,0.143-1.743,0.426-2.387c0.211-0.474,0.5-0.899,0.866-1.275
			c0.366-0.377,0.767-0.656,1.203-0.838c0.579-0.246,1.249-0.369,2.006-0.369c1.371,0,2.468,0.426,3.291,1.276
			s1.235,2.033,1.235,3.548c0,1.503-0.408,2.678-1.226,3.526s-1.909,1.272-3.275,1.272c-1.384,0-2.483-0.422-3.301-1.266
			C366.938,293.998,366.53,292.836,366.53,291.354z M368.466,291.292c0,1.054,0.243,1.853,0.729,2.396
			c0.487,0.544,1.105,0.815,1.854,0.815c0.75,0,1.364-0.27,1.845-0.81c0.479-0.539,0.72-1.349,0.72-2.428
			c0-1.066-0.233-1.862-0.701-2.387c-0.467-0.524-1.088-0.787-1.863-0.787c-0.773,0-1.398,0.266-1.872,0.797
			S368.466,290.221,368.466,291.292z"/><path class="st4" d="M378.863,295.951l-2.717-6.741h1.873l1.27,3.44l0.367,1.148c0.098-0.291,0.159-0.484,0.185-0.577
			c0.06-0.19,0.122-0.381,0.19-0.571l1.282-3.44h1.835l-2.68,6.741H378.863z"/><path class="st4" d="M388.144,293.805l1.777,0.298c-0.229,0.652-0.589,1.148-1.082,1.489s-1.11,0.511-1.851,0.511
			c-1.172,0-2.039-0.383-2.603-1.148c-0.444-0.614-0.667-1.389-0.667-2.324c0-1.117,0.293-1.991,0.877-2.624
			s1.322-0.949,2.215-0.949c1.003,0,1.795,0.331,2.374,0.993s0.856,1.677,0.831,3.044h-4.469c0.014,0.529,0.157,0.94,0.432,1.234
			s0.618,0.441,1.029,0.441c0.279,0,0.514-0.076,0.704-0.229S388.047,294.143,388.144,293.805z M388.245,292.003
			c-0.013-0.517-0.146-0.909-0.399-1.178s-0.563-0.403-0.928-0.403c-0.389,0-0.711,0.143-0.965,0.426s-0.379,0.669-0.374,1.155
			L388.245,292.003L388.245,292.003z"/><path class="st4" d="M393.178,295.951h-1.784v-6.741h1.657v0.958c0.283-0.452,0.538-0.751,0.764-0.895
			c0.227-0.144,0.484-0.216,0.771-0.216c0.406,0,0.799,0.112,1.175,0.337l-0.552,1.555c-0.301-0.194-0.58-0.292-0.838-0.292
			c-0.25,0-0.462,0.068-0.635,0.206c-0.174,0.138-0.311,0.387-0.41,0.746s-0.148,1.113-0.148,2.26L393.178,295.951L393.178,295.951z
			"/><path class="st4" d="M397.862,291.266l-1.618-0.292c0.183-0.651,0.495-1.134,0.939-1.447s1.104-0.47,1.98-0.47
			c0.796,0,1.388,0.094,1.777,0.282s0.663,0.428,0.822,0.718c0.158,0.29,0.237,0.821,0.237,1.597l-0.019,2.082
			c0,0.592,0.028,1.029,0.086,1.311c0.057,0.281,0.163,0.583,0.32,0.904h-1.765c-0.047-0.118-0.104-0.294-0.172-0.527
			c-0.029-0.105-0.051-0.175-0.062-0.209c-0.305,0.296-0.631,0.519-0.979,0.666c-0.347,0.148-0.717,0.223-1.11,0.223
			c-0.694,0-1.241-0.188-1.641-0.564c-0.4-0.377-0.601-0.854-0.601-1.429c0-0.381,0.092-0.721,0.273-1.019
			c0.182-0.299,0.438-0.527,0.765-0.686c0.328-0.159,0.802-0.298,1.419-0.416c0.834-0.156,1.411-0.303,1.732-0.438v-0.178
			c0-0.344-0.084-0.588-0.254-0.733c-0.169-0.146-0.488-0.22-0.958-0.22c-0.317,0-0.565,0.062-0.743,0.188
			S397.972,290.953,397.862,291.266z M400.248,292.714c-0.229,0.076-0.59,0.167-1.085,0.272c-0.495,0.106-0.819,0.21-0.972,0.312
			c-0.232,0.165-0.349,0.374-0.349,0.628c0,0.25,0.093,0.466,0.279,0.648c0.187,0.182,0.423,0.272,0.711,0.272
			c0.321,0,0.628-0.105,0.921-0.317c0.215-0.161,0.357-0.357,0.425-0.59c0.046-0.152,0.069-0.442,0.069-0.87v-0.355H400.248z"/><path class="st4" d="M403.759,295.951v-9.306h1.784v9.306H403.759z"/><path class="st4" d="M407.371,295.951v-9.306h1.783v9.306H407.371z"/><path class="st4" d="M413.966,294.026l1.79-0.272c0.076,0.347,0.23,0.61,0.463,0.79c0.233,0.18,0.559,0.27,0.979,0.27
			c0.461,0,0.808-0.084,1.041-0.254c0.156-0.118,0.234-0.276,0.234-0.476c0-0.136-0.043-0.247-0.127-0.337
			c-0.089-0.084-0.287-0.162-0.597-0.234c-1.438-0.317-2.351-0.607-2.735-0.869c-0.533-0.364-0.801-0.87-0.801-1.518
			c0-0.584,0.23-1.075,0.692-1.473s1.177-0.597,2.146-0.597c0.922,0,1.607,0.15,2.057,0.45c0.449,0.301,0.758,0.745,0.927,1.334
			l-1.683,0.311c-0.071-0.263-0.208-0.463-0.409-0.604c-0.2-0.139-0.487-0.209-0.86-0.209c-0.469,0-0.806,0.065-1.009,0.197
			c-0.136,0.093-0.203,0.213-0.203,0.361c0,0.127,0.06,0.234,0.178,0.324c0.161,0.118,0.716,0.285,1.666,0.501
			s1.614,0.48,1.99,0.794c0.372,0.316,0.559,0.759,0.559,1.326c0,0.618-0.259,1.148-0.774,1.594
			c-0.516,0.443-1.28,0.666-2.291,0.666c-0.919,0-1.646-0.187-2.181-0.559C414.481,295.172,414.131,294.667,413.966,294.026z"/><path class="st4" d="M426.262,295.951v-1.01c-0.246,0.36-0.568,0.644-0.969,0.852c-0.4,0.207-0.822,0.311-1.266,0.311
			c-0.453,0-0.859-0.1-1.219-0.299c-0.36-0.198-0.621-0.478-0.781-0.838c-0.16-0.359-0.241-0.856-0.241-1.491v-4.266h1.784v3.098
			c0,0.948,0.032,1.528,0.098,1.742c0.066,0.214,0.186,0.383,0.359,0.508c0.173,0.125,0.393,0.188,0.66,0.188
			c0.305,0,0.577-0.084,0.818-0.251s0.406-0.374,0.495-0.622c0.089-0.247,0.134-0.854,0.134-1.818v-2.844h1.783v6.741
			L426.262,295.951L426.262,295.951z"/><path class="st4" d="M431.473,295.951h-1.783v-6.741h1.656v0.958c0.283-0.452,0.539-0.751,0.765-0.895
			c0.227-0.144,0.483-0.216,0.771-0.216c0.406,0,0.798,0.112,1.175,0.337l-0.553,1.555c-0.301-0.194-0.58-0.292-0.838-0.292
			c-0.25,0-0.461,0.068-0.635,0.206s-0.311,0.387-0.409,0.746c-0.1,0.359-0.149,1.113-0.149,2.26V295.951z"/><path class="st4" d="M436.678,295.951l-2.717-6.741h1.873l1.27,3.44l0.367,1.148c0.098-0.291,0.159-0.484,0.185-0.577
			c0.06-0.19,0.122-0.381,0.19-0.571l1.282-3.44h1.835l-2.68,6.741H436.678z"/><path class="st4" d="M442.055,288.295v-1.65h1.783v1.65H442.055z M442.055,295.951v-6.741h1.783v6.741H442.055z"/><path class="st4" d="M447.52,295.951l-2.717-6.741h1.873l1.27,3.44l0.367,1.148c0.098-0.291,0.159-0.484,0.185-0.577
			c0.06-0.19,0.122-0.381,0.19-0.571l1.282-3.44h1.835l-2.68,6.741H447.52z"/><path class="st4" d="M454.229,291.266l-1.618-0.292c0.183-0.651,0.495-1.134,0.939-1.447s1.104-0.47,1.98-0.47
			c0.796,0,1.388,0.094,1.777,0.282s0.663,0.428,0.822,0.718c0.158,0.29,0.237,0.821,0.237,1.597l-0.019,2.082
			c0,0.592,0.028,1.029,0.086,1.311c0.057,0.281,0.163,0.583,0.32,0.904h-1.765c-0.047-0.118-0.104-0.294-0.172-0.527
			c-0.029-0.105-0.051-0.175-0.062-0.209c-0.305,0.296-0.631,0.519-0.979,0.666c-0.347,0.148-0.717,0.223-1.11,0.223
			c-0.694,0-1.241-0.188-1.641-0.564c-0.4-0.377-0.601-0.854-0.601-1.429c0-0.381,0.092-0.721,0.273-1.019
			c0.182-0.299,0.438-0.527,0.765-0.686c0.328-0.159,0.802-0.298,1.419-0.416c0.834-0.156,1.411-0.303,1.732-0.438v-0.178
			c0-0.344-0.084-0.588-0.254-0.733c-0.169-0.146-0.488-0.22-0.958-0.22c-0.317,0-0.565,0.062-0.743,0.188
			S454.339,290.953,454.229,291.266z M456.615,292.714c-0.229,0.076-0.59,0.167-1.085,0.272c-0.495,0.106-0.819,0.21-0.972,0.312
			c-0.232,0.165-0.349,0.374-0.349,0.628c0,0.25,0.093,0.466,0.279,0.648c0.187,0.182,0.423,0.272,0.711,0.272
			c0.321,0,0.628-0.105,0.921-0.317c0.215-0.161,0.357-0.357,0.425-0.59c0.046-0.152,0.069-0.442,0.069-0.87v-0.355H456.615z"/><path class="st4" d="M460.126,295.951v-9.306h1.784v9.306H460.126z"/><path class="st4" d="M470.308,298.687h-1.226c-0.646-0.979-1.141-1.994-1.479-3.047c-0.338-1.055-0.508-2.074-0.508-3.061
			c0-1.223,0.209-2.38,0.629-3.472c0.363-0.948,0.824-1.821,1.383-2.622h1.219c-0.579,1.283-0.979,2.373-1.195,3.272
			c-0.219,0.899-0.328,1.853-0.328,2.86c0,0.693,0.064,1.404,0.193,2.133c0.13,0.728,0.307,1.419,0.531,2.075
			C469.675,297.258,469.936,297.878,470.308,298.687z"/><path class="st4" d="M471.545,289.209h1.645v0.921c0.588-0.716,1.289-1.073,2.102-1.073c0.432,0,0.806,0.089,1.123,0.267
			s0.578,0.446,0.781,0.807c0.296-0.36,0.615-0.629,0.958-0.807s0.709-0.267,1.099-0.267c0.494,0,0.914,0.101,1.256,0.302
			c0.344,0.201,0.6,0.496,0.769,0.885c0.122,0.288,0.185,0.754,0.185,1.396v4.311h-1.784v-3.854c0-0.668-0.062-1.1-0.185-1.295
			c-0.164-0.254-0.418-0.381-0.762-0.381c-0.249,0-0.484,0.076-0.704,0.229s-0.379,0.376-0.476,0.67
			c-0.098,0.294-0.146,0.759-0.146,1.394v3.237h-1.783v-3.694c0-0.656-0.032-1.079-0.096-1.27s-0.162-0.332-0.295-0.425
			c-0.133-0.094-0.314-0.141-0.543-0.141c-0.275,0-0.522,0.074-0.742,0.223c-0.221,0.148-0.379,0.361-0.473,0.641
			c-0.096,0.279-0.144,0.743-0.144,1.391v3.275h-1.784L471.545,289.209L471.545,289.209z"/><path class="st4" d="M482.825,292.484c0-0.593,0.146-1.166,0.438-1.72c0.291-0.555,0.705-0.979,1.24-1.27
			c0.535-0.293,1.133-0.438,1.793-0.438c1.021,0,1.855,0.331,2.508,0.993s0.978,1.499,0.978,2.511c0,1.02-0.329,1.865-0.987,2.536
			s-1.486,1.006-2.484,1.006c-0.618,0-1.207-0.14-1.769-0.419c-0.561-0.279-0.987-0.688-1.278-1.229
			C482.971,293.917,482.825,293.258,482.825,292.484z M484.654,292.579c0,0.669,0.159,1.182,0.476,1.537
			c0.318,0.355,0.709,0.533,1.175,0.533s0.856-0.178,1.171-0.533c0.315-0.355,0.473-0.872,0.473-1.549
			c0-0.66-0.157-1.168-0.473-1.523c-0.314-0.355-0.705-0.533-1.171-0.533s-0.856,0.178-1.175,0.533
			C484.813,291.399,484.654,291.911,484.654,292.579z"/><path class="st4" d="M497.311,295.951h-1.783v-3.44c0-0.728-0.039-1.198-0.115-1.412s-0.199-0.38-0.371-0.499
			c-0.172-0.118-0.377-0.178-0.619-0.178c-0.309,0-0.586,0.085-0.831,0.254c-0.245,0.17-0.413,0.395-0.505,0.674
			c-0.091,0.279-0.137,0.795-0.137,1.549v3.053h-1.783v-6.741h1.656v0.99c0.589-0.762,1.329-1.143,2.223-1.143
			c0.393,0,0.753,0.071,1.078,0.213c0.326,0.142,0.572,0.322,0.74,0.542c0.167,0.221,0.283,0.471,0.35,0.75
			c0.064,0.279,0.098,0.679,0.098,1.199L497.311,295.951L497.311,295.951z"/><path class="st4" d="M502.211,289.209v1.422h-1.219v2.717c0,0.55,0.012,0.871,0.035,0.962s0.076,0.166,0.158,0.225
			c0.083,0.06,0.184,0.09,0.302,0.09c0.165,0,0.404-0.058,0.718-0.172l0.152,1.384c-0.415,0.178-0.885,0.267-1.41,0.267
			c-0.321,0-0.611-0.054-0.869-0.162c-0.258-0.107-0.447-0.247-0.568-0.419c-0.12-0.171-0.204-0.403-0.25-0.694
			c-0.039-0.208-0.058-0.627-0.058-1.258v-2.938h-0.819v-1.422h0.819v-1.341l1.79-1.041v2.38H502.211z"/><path class="st4" d="M505.227,286.644v3.421c0.575-0.672,1.263-1.009,2.062-1.009c0.41,0,0.781,0.076,1.111,0.229
			s0.578,0.347,0.745,0.584s0.282,0.499,0.343,0.787c0.062,0.288,0.092,0.734,0.092,1.339v3.955h-1.783v-3.561
			c0-0.707-0.033-1.156-0.102-1.346c-0.068-0.191-0.188-0.342-0.358-0.454c-0.172-0.112-0.386-0.169-0.645-0.169
			c-0.296,0-0.561,0.072-0.794,0.217c-0.232,0.144-0.402,0.36-0.511,0.65c-0.107,0.29-0.161,0.718-0.161,1.285v3.377h-1.784v-9.306
			L505.227,286.644L505.227,286.644z"/><path class="st4" d="M510.762,294.026l1.789-0.272c0.076,0.347,0.23,0.61,0.464,0.79s0.559,0.27,0.978,0.27
			c0.461,0,0.809-0.084,1.041-0.254c0.156-0.118,0.234-0.276,0.234-0.476c0-0.136-0.042-0.247-0.127-0.337
			c-0.088-0.084-0.287-0.162-0.596-0.234c-1.439-0.317-2.352-0.607-2.736-0.869c-0.533-0.364-0.8-0.87-0.8-1.518
			c0-0.584,0.23-1.075,0.692-1.473c0.461-0.397,1.176-0.597,2.145-0.597c0.923,0,1.608,0.15,2.057,0.45
			c0.449,0.301,0.758,0.745,0.928,1.334l-1.683,0.311c-0.071-0.263-0.208-0.463-0.409-0.604c-0.201-0.139-0.488-0.209-0.86-0.209
			c-0.47,0-0.806,0.065-1.009,0.197c-0.136,0.093-0.203,0.213-0.203,0.361c0,0.127,0.059,0.234,0.178,0.324
			c0.16,0.118,0.716,0.285,1.666,0.501c0.949,0.216,1.613,0.48,1.99,0.794c0.372,0.316,0.559,0.759,0.559,1.326
			c0,0.618-0.259,1.148-0.775,1.594c-0.516,0.443-1.279,0.666-2.291,0.666c-0.918,0-1.645-0.187-2.18-0.559
			C511.277,295.172,510.926,294.667,510.762,294.026z"/><path class="st4" d="M518.125,298.687c0.351-0.754,0.598-1.331,0.742-1.733s0.277-0.865,0.4-1.39
			c0.122-0.525,0.213-1.023,0.272-1.495s0.089-0.956,0.089-1.45c0-1.008-0.107-1.961-0.324-2.86
			c-0.215-0.899-0.613-1.989-1.193-3.272h1.213c0.639,0.91,1.135,1.875,1.488,2.895c0.354,1.021,0.53,2.055,0.53,3.104
			c0,0.885-0.14,1.832-0.419,2.844c-0.317,1.134-0.84,2.253-1.568,3.358h-1.23V298.687z"/></g><g><g class="st2"><path class="st3" d="M84.277,321.797c0-1.426,0.383-2.542,1.148-3.349s1.754-1.21,2.965-1.21c0.793,0,1.508,0.189,2.145,0.568
				s1.122,0.907,1.456,1.585s0.501,1.446,0.501,2.306c0,0.871-0.176,1.65-0.527,2.338s-0.85,1.208-1.494,1.562
				s-1.34,0.53-2.086,0.53c-0.809,0-1.531-0.195-2.168-0.586s-1.119-0.924-1.447-1.6S84.277,322.549,84.277,321.797z
				 M85.449,321.813c0,1.035,0.278,1.851,0.835,2.446s1.255,0.894,2.095,0.894c0.855,0,1.56-0.301,2.112-0.902
				s0.829-1.455,0.829-2.561c0-0.699-0.118-1.31-0.354-1.831s-0.582-0.926-1.037-1.213s-0.966-0.431-1.532-0.431
				c-0.805,0-1.497,0.276-2.077,0.829S85.449,320.521,85.449,321.813z"/><path class="st3" d="M93.822,328.365v-8.607h0.961v0.809c0.227-0.316,0.482-0.554,0.768-0.712s0.631-0.237,1.037-0.237
				c0.531,0,1,0.137,1.406,0.41s0.713,0.659,0.92,1.157c0.207,0.498,0.311,1.044,0.311,1.638c0,0.637-0.114,1.21-0.343,1.72
				s-0.561,0.9-0.996,1.172s-0.894,0.407-1.374,0.407c-0.352,0-0.667-0.074-0.946-0.223s-0.509-0.336-0.688-0.562v3.029
				L93.822,328.365L93.822,328.365z M94.777,322.904c0,0.801,0.162,1.393,0.486,1.775s0.717,0.574,1.178,0.574
				c0.469,0,0.87-0.198,1.204-0.595s0.501-1.011,0.501-1.843c0-0.793-0.163-1.387-0.489-1.781s-0.716-0.592-1.169-0.592
				c-0.449,0-0.847,0.21-1.192,0.63S94.777,322.102,94.777,322.904z"/><path class="st3" d="M102.799,325.036l0.152,0.932c-0.297,0.062-0.562,0.094-0.797,0.094c-0.383,0-0.68-0.061-0.891-0.182
				s-0.359-0.28-0.445-0.478s-0.129-0.612-0.129-1.245v-3.58h-0.773v-0.82h0.773v-1.541l1.049-0.633v2.174h1.061v0.82h-1.061v3.639
				c0,0.301,0.019,0.494,0.056,0.58s0.098,0.154,0.182,0.205s0.204,0.076,0.36,0.076
				C102.453,325.078,102.607,325.063,102.799,325.036z"/><path class="st3" d="M103.836,318.602v-1.213h1.055v1.213H103.836z M103.836,325.979v-6.223h1.055v6.223H103.836z"/><path class="st3" d="M106.074,324.122l1.043-0.164c0.059,0.418,0.222,0.738,0.489,0.961s0.642,0.334,1.122,0.334
				c0.484,0,0.844-0.099,1.078-0.296s0.352-0.429,0.352-0.694c0-0.238-0.104-0.426-0.311-0.562
				c-0.145-0.094-0.504-0.213-1.078-0.357c-0.773-0.195-1.31-0.364-1.608-0.507s-0.525-0.34-0.68-0.592s-0.231-0.53-0.231-0.835
				c0-0.277,0.063-0.534,0.19-0.771s0.3-0.433,0.519-0.589c0.164-0.121,0.388-0.224,0.671-0.308s0.587-0.126,0.911-0.126
				c0.488,0,0.917,0.07,1.286,0.211s0.642,0.331,0.817,0.571s0.297,0.562,0.363,0.964l-1.031,0.141
				c-0.047-0.32-0.183-0.57-0.407-0.75s-0.542-0.27-0.952-0.27c-0.484,0-0.83,0.08-1.037,0.24s-0.311,0.348-0.311,0.562
				c0,0.137,0.043,0.26,0.129,0.369c0.086,0.113,0.221,0.207,0.404,0.281c0.105,0.039,0.416,0.129,0.932,0.27
				c0.746,0.199,1.267,0.362,1.562,0.489s0.526,0.312,0.694,0.554s0.252,0.543,0.252,0.902c0,0.352-0.103,0.683-0.308,0.993
				s-0.501,0.551-0.888,0.721s-0.824,0.255-1.312,0.255c-0.809,0-1.425-0.168-1.849-0.504S106.191,324.782,106.074,324.122z"/><path class="st3" d="M114.799,325.036l0.152,0.932c-0.297,0.062-0.562,0.094-0.797,0.094c-0.383,0-0.68-0.061-0.891-0.182
				s-0.359-0.28-0.445-0.478s-0.129-0.612-0.129-1.245v-3.58h-0.773v-0.82h0.773v-1.541l1.049-0.633v2.174h1.061v0.82h-1.061v3.639
				c0,0.301,0.019,0.494,0.056,0.58s0.098,0.154,0.182,0.205s0.204,0.076,0.36,0.076
				C114.453,325.078,114.607,325.063,114.799,325.036z"/><path class="st3" d="M119.89,325.213c-0.391,0.332-0.767,0.566-1.128,0.703s-0.749,0.205-1.163,0.205
				c-0.684,0-1.209-0.167-1.576-0.501s-0.551-0.761-0.551-1.28c0-0.305,0.069-0.583,0.208-0.835s0.32-0.454,0.545-0.606
				s0.478-0.268,0.759-0.346c0.207-0.055,0.52-0.107,0.938-0.158c0.852-0.102,1.479-0.223,1.881-0.363
				c0.004-0.145,0.006-0.236,0.006-0.275c0-0.43-0.1-0.732-0.299-0.908c-0.27-0.238-0.67-0.357-1.201-0.357
				c-0.496,0-0.862,0.087-1.099,0.261s-0.411,0.481-0.524,0.923l-1.031-0.141c0.094-0.441,0.248-0.798,0.463-1.069
				s0.525-0.48,0.932-0.627s0.877-0.22,1.412-0.22c0.531,0,0.963,0.062,1.295,0.188s0.576,0.282,0.732,0.472
				s0.266,0.429,0.328,0.718c0.035,0.18,0.053,0.504,0.053,0.973v1.406c0,0.98,0.022,1.601,0.067,1.86s0.134,0.509,0.267,0.747
				h-1.102C119.992,325.76,119.922,325.505,119.89,325.213z M119.802,322.857c-0.383,0.156-0.957,0.289-1.723,0.398
				c-0.434,0.062-0.74,0.133-0.92,0.211s-0.318,0.192-0.416,0.343s-0.146,0.317-0.146,0.501c0,0.281,0.106,0.516,0.319,0.703
				s0.524,0.281,0.935,0.281c0.406,0,0.768-0.089,1.084-0.267s0.549-0.421,0.697-0.729c0.113-0.238,0.17-0.59,0.17-1.055
				L119.802,322.857L119.802,322.857z"/><path class="st3" d="M124.232,325.979l-2.367-6.223h1.113l1.336,3.727c0.145,0.402,0.277,0.82,0.398,1.254
				c0.094-0.328,0.225-0.723,0.393-1.184l1.383-3.797h1.084l-2.355,6.223H124.232z"/><path class="st3" d="M128.509,318.602v-1.213h1.055v1.213H128.509z M128.509,325.979v-6.223h1.055v6.223H128.509z"/><path class="st3" d="M131.17,325.979v-6.223h0.949v0.885c0.457-0.684,1.117-1.025,1.98-1.025c0.375,0,0.72,0.067,1.034,0.202
				s0.55,0.312,0.706,0.53s0.266,0.479,0.328,0.779c0.039,0.195,0.059,0.537,0.059,1.025v3.826h-1.055v-3.785
				c0-0.43-0.041-0.751-0.123-0.964s-0.228-0.383-0.437-0.51s-0.454-0.19-0.735-0.19c-0.449,0-0.837,0.143-1.163,0.428
				s-0.489,0.826-0.489,1.623v3.398L131.17,325.979L131.17,325.979z"/><path class="st3" d="M143.193,328.505c-0.582-0.734-1.074-1.594-1.477-2.578s-0.604-2.004-0.604-3.059
				c0-0.93,0.15-1.82,0.451-2.672c0.352-0.988,0.895-1.973,1.629-2.953h0.756c-0.473,0.812-0.785,1.393-0.938,1.74
				c-0.238,0.539-0.426,1.102-0.562,1.688c-0.168,0.73-0.252,1.465-0.252,2.203c0,1.879,0.584,3.756,1.752,5.631L143.193,328.505
				L143.193,328.505z"/><path class="st3" d="M145.174,325.979v-6.223h0.949v0.885c0.457-0.684,1.117-1.025,1.98-1.025c0.375,0,0.72,0.067,1.034,0.202
				s0.55,0.312,0.706,0.53s0.266,0.479,0.328,0.779c0.039,0.195,0.059,0.537,0.059,1.025v3.826h-1.055v-3.785
				c0-0.43-0.041-0.751-0.123-0.964s-0.228-0.383-0.437-0.51s-0.454-0.19-0.735-0.19c-0.449,0-0.837,0.143-1.163,0.428
				s-0.489,0.826-0.489,1.623v3.398L145.174,325.979L145.174,325.979z"/><path class="st3" d="M157.396,320.928h-5.672v-0.984h5.672V320.928z M157.396,323.536h-5.672v-0.984h5.672V323.536z"/><path class="st3" d="M158.568,323.713l1.055-0.141c0.121,0.598,0.327,1.028,0.618,1.292s0.646,0.396,1.063,0.396
				c0.496,0,0.915-0.172,1.257-0.516s0.513-0.77,0.513-1.277c0-0.484-0.158-0.884-0.475-1.198s-0.719-0.472-1.207-0.472
				c-0.199,0-0.447,0.039-0.744,0.117l0.117-0.926c0.07,0.008,0.127,0.012,0.17,0.012c0.449,0,0.854-0.117,1.213-0.352
				s0.539-0.596,0.539-1.084c0-0.387-0.131-0.707-0.393-0.961s-0.6-0.381-1.014-0.381c-0.41,0-0.752,0.129-1.025,0.387
				s-0.449,0.645-0.527,1.16l-1.055-0.188c0.129-0.707,0.422-1.255,0.879-1.644s1.025-0.583,1.705-0.583
				c0.469,0,0.9,0.101,1.295,0.302s0.696,0.476,0.905,0.823s0.313,0.717,0.313,1.107c0,0.371-0.1,0.709-0.299,1.014
				s-0.494,0.547-0.885,0.727c0.508,0.117,0.902,0.36,1.184,0.729s0.422,0.831,0.422,1.386c0,0.75-0.273,1.386-0.82,1.907
				s-1.238,0.782-2.074,0.782c-0.754,0-1.38-0.225-1.878-0.674S158.638,324.427,158.568,323.713z"/><path class="st3" d="M165.242,323.713l1.055-0.141c0.121,0.598,0.327,1.028,0.618,1.292s0.646,0.396,1.063,0.396
				c0.496,0,0.915-0.172,1.257-0.516s0.513-0.77,0.513-1.277c0-0.484-0.158-0.884-0.475-1.198s-0.719-0.472-1.207-0.472
				c-0.199,0-0.447,0.039-0.744,0.117l0.117-0.926c0.07,0.008,0.127,0.012,0.17,0.012c0.449,0,0.854-0.117,1.213-0.352
				s0.539-0.596,0.539-1.084c0-0.387-0.131-0.707-0.393-0.961s-0.6-0.381-1.014-0.381c-0.41,0-0.752,0.129-1.025,0.387
				s-0.449,0.645-0.527,1.16l-1.055-0.188c0.129-0.707,0.422-1.255,0.879-1.644s1.025-0.583,1.705-0.583
				c0.469,0,0.9,0.101,1.295,0.302s0.696,0.476,0.905,0.823s0.313,0.717,0.313,1.107c0,0.371-0.1,0.709-0.299,1.014
				s-0.494,0.547-0.885,0.727c0.508,0.117,0.902,0.36,1.184,0.729s0.422,0.831,0.422,1.386c0,0.75-0.273,1.386-0.82,1.907
				s-1.238,0.782-2.074,0.782c-0.754,0-1.38-0.225-1.878-0.674S165.312,324.427,165.242,323.713z"/><path class="st3" d="M177.453,324.966v1.014h-5.678c-0.008-0.254,0.033-0.498,0.123-0.732c0.145-0.387,0.376-0.768,0.694-1.143
				s0.778-0.809,1.38-1.301c0.934-0.766,1.564-1.372,1.893-1.819s0.492-0.87,0.492-1.269c0-0.418-0.149-0.771-0.448-1.058
				s-0.688-0.431-1.169-0.431c-0.508,0-0.914,0.152-1.219,0.457s-0.459,0.727-0.463,1.266l-1.084-0.111
				c0.074-0.809,0.354-1.425,0.838-1.849s1.135-0.636,1.951-0.636c0.824,0,1.477,0.229,1.957,0.686s0.721,1.023,0.721,1.699
				c0,0.344-0.07,0.682-0.211,1.014s-0.374,0.682-0.7,1.049s-0.868,0.871-1.626,1.512c-0.633,0.531-1.039,0.892-1.219,1.081
				s-0.328,0.38-0.445,0.571L177.453,324.966L177.453,324.966z"/><path class="st3" d="M179.568,328.505h-0.756c1.168-1.875,1.752-3.752,1.752-5.631c0-0.734-0.084-1.463-0.252-2.186
				c-0.133-0.586-0.318-1.148-0.557-1.688c-0.152-0.352-0.467-0.938-0.943-1.758h0.756c0.734,0.98,1.277,1.965,1.629,2.953
				c0.301,0.852,0.451,1.742,0.451,2.672c0,1.055-0.202,2.074-0.606,3.059S180.146,327.771,179.568,328.505z"/></g><g class="st2"><path class="st3" d="M84.623,343.979v-8.59h3.24c0.57,0,1.006,0.027,1.307,0.082c0.422,0.07,0.775,0.204,1.061,0.401
				s0.515,0.474,0.688,0.829s0.261,0.746,0.261,1.172c0,0.73-0.232,1.349-0.697,1.854s-1.305,0.759-2.52,0.759H85.76v3.492h-1.137
				V343.979z M85.759,339.474h2.221c0.734,0,1.256-0.137,1.564-0.41s0.463-0.658,0.463-1.154c0-0.359-0.091-0.667-0.272-0.923
				s-0.421-0.425-0.718-0.507c-0.191-0.051-0.545-0.076-1.061-0.076h-2.197L85.759,339.474L85.759,339.474z"/><path class="st3" d="M92.468,343.979v-8.59h1.055v8.59H92.468z"/><path class="st3" d="M99.218,343.213c-0.391,0.332-0.767,0.566-1.128,0.703s-0.749,0.205-1.163,0.205
				c-0.684,0-1.209-0.167-1.576-0.501s-0.551-0.761-0.551-1.28c0-0.305,0.069-0.583,0.208-0.835s0.32-0.454,0.545-0.606
				s0.478-0.268,0.759-0.346c0.207-0.055,0.52-0.107,0.938-0.158c0.852-0.102,1.479-0.223,1.881-0.363
				c0.004-0.145,0.006-0.236,0.006-0.275c0-0.43-0.1-0.732-0.299-0.908c-0.27-0.238-0.67-0.357-1.201-0.357
				c-0.496,0-0.862,0.087-1.099,0.261s-0.411,0.481-0.524,0.923l-1.031-0.141c0.094-0.441,0.248-0.798,0.463-1.069
				s0.525-0.48,0.932-0.627s0.877-0.22,1.412-0.22c0.531,0,0.963,0.062,1.295,0.188s0.576,0.282,0.732,0.472
				s0.266,0.429,0.328,0.718c0.035,0.18,0.053,0.504,0.053,0.973v1.406c0,0.98,0.022,1.601,0.067,1.86s0.134,0.509,0.267,0.747
				H99.43C99.32,343.76,99.25,343.505,99.218,343.213z M99.131,340.857c-0.383,0.156-0.957,0.289-1.723,0.398
				c-0.434,0.062-0.74,0.133-0.92,0.211s-0.318,0.192-0.416,0.343s-0.146,0.317-0.146,0.501c0,0.281,0.106,0.516,0.319,0.703
				s0.524,0.281,0.935,0.281c0.406,0,0.768-0.089,1.084-0.267s0.549-0.421,0.697-0.729c0.113-0.238,0.17-0.59,0.17-1.055V340.857z"
				/><path class="st3" d="M105.892,341.701l1.037,0.135c-0.113,0.715-0.403,1.274-0.87,1.679s-1.04,0.606-1.72,0.606
				c-0.852,0-1.536-0.278-2.054-0.835s-0.776-1.354-0.776-2.394c0-0.672,0.111-1.26,0.334-1.764s0.562-0.882,1.017-1.134
				s0.95-0.378,1.485-0.378c0.676,0,1.229,0.171,1.658,0.513s0.705,0.827,0.826,1.456l-1.025,0.158
				c-0.098-0.418-0.271-0.732-0.519-0.943s-0.548-0.316-0.899-0.316c-0.531,0-0.963,0.19-1.295,0.571s-0.498,0.983-0.498,1.808
				c0,0.836,0.16,1.443,0.48,1.822s0.738,0.568,1.254,0.568c0.414,0,0.76-0.127,1.037-0.381S105.818,342.227,105.892,341.701z"/><path class="st3" d="M112.092,341.976l1.09,0.135c-0.172,0.637-0.49,1.131-0.955,1.482s-1.059,0.527-1.781,0.527
				c-0.91,0-1.632-0.28-2.165-0.841s-0.8-1.347-0.8-2.358c0-1.047,0.27-1.859,0.809-2.438s1.238-0.867,2.098-0.867
				c0.832,0,1.512,0.283,2.039,0.85s0.791,1.363,0.791,2.391c0,0.062-0.002,0.156-0.006,0.281h-4.641
				c0.039,0.684,0.232,1.207,0.58,1.57s0.781,0.545,1.301,0.545c0.387,0,0.717-0.102,0.99-0.305S111.931,342.422,112.092,341.976z
				 M108.629,340.271h3.475c-0.047-0.523-0.18-0.916-0.398-1.178c-0.336-0.406-0.771-0.609-1.307-0.609
				c-0.484,0-0.892,0.162-1.222,0.486S108.664,339.727,108.629,340.271z"/><path class="st3" d="M115.478,343.979h-0.979v-8.59h1.055v3.064c0.445-0.559,1.014-0.838,1.705-0.838
				c0.383,0,0.745,0.077,1.087,0.231s0.623,0.371,0.844,0.65s0.394,0.616,0.519,1.011s0.188,0.816,0.188,1.266
				c0,1.066-0.264,1.891-0.791,2.473s-1.16,0.873-1.898,0.873c-0.734,0-1.311-0.307-1.729-0.92L115.478,343.979L115.478,343.979z
				 M115.467,340.821c0,0.746,0.102,1.285,0.305,1.617c0.332,0.543,0.781,0.814,1.348,0.814c0.461,0,0.859-0.2,1.195-0.601
				s0.504-0.997,0.504-1.79c0-0.812-0.161-1.412-0.483-1.799s-0.712-0.58-1.169-0.58c-0.461,0-0.859,0.2-1.195,0.601
				S115.467,340.063,115.467,340.821z"/><path class="st3" d="M120.787,340.868c0-1.152,0.32-2.006,0.961-2.561c0.535-0.461,1.188-0.691,1.957-0.691
				c0.855,0,1.555,0.28,2.098,0.841s0.814,1.335,0.814,2.323c0,0.801-0.12,1.431-0.36,1.89s-0.59,0.815-1.049,1.069
				s-0.96,0.381-1.503,0.381c-0.871,0-1.575-0.279-2.112-0.838S120.787,341.919,120.787,340.868z M121.871,340.868
				c0,0.797,0.174,1.394,0.521,1.79s0.785,0.595,1.312,0.595c0.523,0,0.959-0.199,1.307-0.598s0.521-1.006,0.521-1.822
				c0-0.77-0.175-1.353-0.524-1.749s-0.784-0.595-1.304-0.595c-0.527,0-0.965,0.197-1.312,0.592S121.871,340.071,121.871,340.868z"
				/><path class="st3" d="M133.203,346.505c-0.582-0.734-1.074-1.594-1.477-2.578s-0.604-2.004-0.604-3.059
				c0-0.93,0.15-1.82,0.451-2.672c0.352-0.988,0.895-1.973,1.629-2.953h0.756c-0.473,0.812-0.785,1.393-0.938,1.74
				c-0.238,0.539-0.426,1.102-0.562,1.688c-0.168,0.73-0.252,1.465-0.252,2.203c0,1.879,0.584,3.756,1.752,5.631L133.203,346.505
				L133.203,346.505z"/><path class="st3" d="M135.183,343.979v-6.223h0.949v0.885c0.457-0.684,1.117-1.025,1.98-1.025c0.375,0,0.72,0.067,1.034,0.202
				s0.55,0.312,0.706,0.53s0.266,0.479,0.328,0.779c0.039,0.195,0.059,0.537,0.059,1.025v3.826h-1.055v-3.785
				c0-0.43-0.041-0.751-0.123-0.964s-0.228-0.383-0.437-0.51s-0.454-0.19-0.735-0.19c-0.449,0-0.837,0.143-1.163,0.428
				s-0.489,0.826-0.489,1.623v3.398L135.183,343.979L135.183,343.979z"/><path class="st3" d="M147.406,338.928h-5.672v-0.984h5.672V338.928z M147.406,341.536h-5.672v-0.984h5.672V341.536z"/><path class="st3" d="M152.545,343.979h-1.055v-6.721c-0.254,0.242-0.587,0.484-0.999,0.727s-0.782,0.424-1.11,0.545v-1.02
				c0.59-0.277,1.105-0.613,1.547-1.008s0.754-0.777,0.938-1.148h0.68v8.625H152.545z"/><path class="st3" d="M155.246,341.729l1.107-0.094c0.082,0.539,0.272,0.944,0.571,1.216s0.659,0.407,1.081,0.407
				c0.508,0,0.938-0.191,1.289-0.574s0.527-0.891,0.527-1.523c0-0.602-0.169-1.076-0.507-1.424s-0.78-0.521-1.327-0.521
				c-0.34,0-0.646,0.077-0.92,0.231s-0.488,0.354-0.645,0.601l-0.99-0.129l0.832-4.412h4.271v1.008h-3.428l-0.463,2.309
				c0.516-0.359,1.057-0.539,1.623-0.539c0.75,0,1.383,0.26,1.898,0.779s0.773,1.188,0.773,2.004c0,0.777-0.227,1.449-0.68,2.016
				c-0.551,0.695-1.303,1.043-2.256,1.043c-0.781,0-1.419-0.219-1.913-0.656S155.316,342.453,155.246,341.729z"/><path class="st3" d="M161.92,341.729l1.107-0.094c0.082,0.539,0.272,0.944,0.571,1.216s0.659,0.407,1.081,0.407
				c0.508,0,0.938-0.191,1.289-0.574s0.527-0.891,0.527-1.523c0-0.602-0.169-1.076-0.507-1.424s-0.78-0.521-1.327-0.521
				c-0.34,0-0.646,0.077-0.92,0.231s-0.488,0.354-0.645,0.601l-0.99-0.129l0.832-4.412h4.271v1.008h-3.428l-0.463,2.309
				c0.516-0.359,1.057-0.539,1.623-0.539c0.75,0,1.383,0.26,1.898,0.779s0.773,1.188,0.773,2.004c0,0.777-0.227,1.449-0.68,2.016
				c-0.551,0.695-1.303,1.043-2.256,1.043c-0.781,0-1.419-0.219-1.913-0.656S161.99,342.453,161.92,341.729z"/><path class="st3" d="M169.578,346.505h-0.756c1.168-1.875,1.752-3.752,1.752-5.631c0-0.734-0.084-1.463-0.252-2.186
				c-0.133-0.586-0.318-1.148-0.557-1.688c-0.152-0.352-0.467-0.938-0.943-1.758h0.756c0.734,0.98,1.277,1.965,1.629,2.953
				c0.301,0.852,0.451,1.742,0.451,2.672c0,1.055-0.202,2.074-0.606,3.059S170.156,345.771,169.578,346.505z"/></g></g><g><g class="st2"><path class="st3" d="M413.89,343.534v-8.59h1.137v3.527h4.465v-3.527h1.137v8.59h-1.137v-4.049h-4.465v4.049H413.89z"/><path class="st3" d="M426.446,342.766c-0.391,0.332-0.767,0.566-1.128,0.703s-0.749,0.205-1.163,0.205
				c-0.684,0-1.209-0.167-1.576-0.501s-0.551-0.761-0.551-1.28c0-0.305,0.069-0.583,0.208-0.835s0.32-0.454,0.545-0.606
				s0.478-0.268,0.759-0.346c0.207-0.055,0.52-0.107,0.938-0.158c0.852-0.102,1.479-0.223,1.881-0.363
				c0.004-0.145,0.006-0.236,0.006-0.275c0-0.43-0.1-0.732-0.299-0.908c-0.27-0.238-0.67-0.357-1.201-0.357
				c-0.496,0-0.862,0.087-1.099,0.261s-0.411,0.481-0.524,0.923l-1.031-0.141c0.094-0.441,0.248-0.798,0.463-1.069
				s0.525-0.48,0.932-0.627s0.877-0.22,1.412-0.22c0.531,0,0.963,0.062,1.295,0.188s0.576,0.282,0.732,0.472
				s0.266,0.429,0.328,0.718c0.035,0.18,0.053,0.504,0.053,0.973v1.406c0,0.98,0.022,1.601,0.067,1.86s0.134,0.509,0.267,0.747
				h-1.102C426.548,343.315,426.478,343.06,426.446,342.766z M426.359,340.411c-0.383,0.156-0.957,0.289-1.723,0.398
				c-0.434,0.062-0.74,0.133-0.92,0.211s-0.318,0.192-0.416,0.343s-0.146,0.317-0.146,0.501c0,0.281,0.106,0.516,0.319,0.703
				s0.524,0.281,0.935,0.281c0.406,0,0.768-0.089,1.084-0.267s0.549-0.421,0.697-0.729c0.113-0.238,0.17-0.59,0.17-1.055
				L426.359,340.411L426.359,340.411z"/><path class="st3" d="M428.503,343.534v-0.855l3.961-4.547c-0.449,0.023-0.846,0.035-1.189,0.035h-2.537v-0.855h5.086v0.697
				l-3.369,3.949l-0.65,0.721c0.473-0.035,0.916-0.053,1.33-0.053h2.877v0.908L428.503,343.534L428.503,343.534z"/><path class="st3" d="M439.12,342.766c-0.391,0.332-0.767,0.566-1.128,0.703s-0.749,0.205-1.163,0.205
				c-0.684,0-1.209-0.167-1.576-0.501s-0.551-0.761-0.551-1.28c0-0.305,0.069-0.583,0.208-0.835s0.32-0.454,0.545-0.606
				s0.478-0.268,0.759-0.346c0.207-0.055,0.52-0.107,0.938-0.158c0.852-0.102,1.479-0.223,1.881-0.363
				c0.004-0.145,0.006-0.236,0.006-0.275c0-0.43-0.1-0.732-0.299-0.908c-0.27-0.238-0.67-0.357-1.201-0.357
				c-0.496,0-0.862,0.087-1.099,0.261s-0.411,0.481-0.524,0.923l-1.031-0.141c0.094-0.441,0.248-0.798,0.463-1.069
				s0.525-0.48,0.932-0.627s0.877-0.22,1.412-0.22c0.531,0,0.963,0.062,1.295,0.188s0.576,0.282,0.732,0.472
				s0.266,0.429,0.328,0.718c0.035,0.18,0.053,0.504,0.053,0.973v1.406c0,0.98,0.022,1.601,0.067,1.86s0.134,0.509,0.267,0.747
				h-1.102C439.222,343.315,439.152,343.06,439.12,342.766z M439.032,340.411c-0.383,0.156-0.957,0.289-1.723,0.398
				c-0.434,0.062-0.74,0.133-0.92,0.211s-0.318,0.192-0.416,0.343s-0.146,0.317-0.146,0.501c0,0.281,0.106,0.516,0.319,0.703
				s0.524,0.281,0.935,0.281c0.406,0,0.768-0.089,1.084-0.267s0.549-0.421,0.697-0.729c0.113-0.238,0.17-0.59,0.17-1.055
				L439.032,340.411L439.032,340.411z"/><path class="st3" d="M441.722,343.534v-6.223h0.949v0.943c0.242-0.441,0.466-0.732,0.671-0.873s0.431-0.211,0.677-0.211
				c0.355,0,0.717,0.113,1.084,0.34l-0.363,0.979c-0.258-0.152-0.516-0.229-0.773-0.229c-0.23,0-0.438,0.069-0.621,0.208
				s-0.314,0.331-0.393,0.577c-0.117,0.375-0.176,0.785-0.176,1.23v3.258L441.722,343.534L441.722,343.534z"/><path class="st3" d="M449.767,343.534v-0.785c-0.395,0.617-0.975,0.926-1.74,0.926c-0.496,0-0.952-0.137-1.368-0.41
				s-0.738-0.655-0.967-1.146s-0.343-1.054-0.343-1.69c0-0.621,0.104-1.185,0.311-1.69s0.518-0.894,0.932-1.163
				s0.877-0.404,1.389-0.404c0.375,0,0.709,0.079,1.002,0.237s0.531,0.364,0.715,0.618v-3.082h1.049v8.59h-0.98V343.534z
				 M446.433,340.428c0,0.797,0.168,1.393,0.504,1.787s0.732,0.592,1.189,0.592c0.461,0,0.853-0.188,1.175-0.565
				s0.483-0.952,0.483-1.726c0-0.852-0.164-1.477-0.492-1.875s-0.732-0.598-1.213-0.598c-0.469,0-0.86,0.191-1.175,0.574
				S446.433,339.604,446.433,340.428z"/><path class="st3" d="M455.726,343.534v-6.223h0.949v0.943c0.242-0.441,0.466-0.732,0.671-0.873s0.431-0.211,0.677-0.211
				c0.355,0,0.717,0.113,1.084,0.34l-0.363,0.979c-0.258-0.152-0.516-0.229-0.773-0.229c-0.23,0-0.438,0.069-0.621,0.208
				s-0.314,0.331-0.393,0.577c-0.117,0.375-0.176,0.785-0.176,1.23v3.258L455.726,343.534L455.726,343.534z"/><path class="st3" d="M463.794,342.766c-0.391,0.332-0.767,0.566-1.128,0.703s-0.749,0.205-1.163,0.205
				c-0.684,0-1.209-0.167-1.576-0.501s-0.551-0.761-0.551-1.28c0-0.305,0.069-0.583,0.208-0.835s0.32-0.454,0.545-0.606
				s0.478-0.268,0.759-0.346c0.207-0.055,0.52-0.107,0.938-0.158c0.852-0.102,1.479-0.223,1.881-0.363
				c0.004-0.145,0.006-0.236,0.006-0.275c0-0.43-0.1-0.732-0.299-0.908c-0.27-0.238-0.67-0.357-1.201-0.357
				c-0.496,0-0.862,0.087-1.099,0.261s-0.411,0.481-0.524,0.923l-1.031-0.141c0.094-0.441,0.248-0.798,0.463-1.069
				s0.525-0.48,0.932-0.627s0.877-0.22,1.412-0.22c0.531,0,0.963,0.062,1.295,0.188s0.576,0.282,0.732,0.472
				s0.266,0.429,0.328,0.718c0.035,0.18,0.053,0.504,0.053,0.973v1.406c0,0.98,0.022,1.601,0.067,1.86s0.134,0.509,0.267,0.747
				h-1.102C463.896,343.315,463.825,343.06,463.794,342.766z M463.706,340.411c-0.383,0.156-0.957,0.289-1.723,0.398
				c-0.434,0.062-0.74,0.133-0.92,0.211s-0.318,0.192-0.416,0.343s-0.146,0.317-0.146,0.501c0,0.281,0.106,0.516,0.319,0.703
				s0.524,0.281,0.935,0.281c0.406,0,0.768-0.089,1.084-0.267s0.549-0.421,0.697-0.729c0.113-0.238,0.17-0.59,0.17-1.055
				L463.706,340.411L463.706,340.411z"/><path class="st3" d="M468.71,342.591l0.152,0.932c-0.297,0.062-0.562,0.094-0.797,0.094c-0.383,0-0.68-0.061-0.891-0.182
				s-0.359-0.28-0.445-0.478s-0.129-0.612-0.129-1.245v-3.58h-0.773v-0.82h0.773v-1.542l1.049-0.633v2.174h1.061v0.82h-1.061v3.639
				c0,0.301,0.019,0.494,0.056,0.58s0.098,0.154,0.182,0.205s0.204,0.076,0.36,0.076
				C468.364,342.633,468.519,342.618,468.71,342.591z"/><path class="st3" d="M469.747,336.157v-1.213h1.055v1.213H469.747z M469.747,343.534v-6.223h1.055v6.223H469.747z"/><path class="st3" d="M472.015,340.424c0-1.152,0.32-2.006,0.961-2.561c0.535-0.461,1.188-0.691,1.957-0.691
				c0.855,0,1.555,0.28,2.098,0.841s0.814,1.335,0.814,2.323c0,0.801-0.12,1.431-0.36,1.89s-0.59,0.815-1.049,1.069
				s-0.96,0.381-1.503,0.381c-0.871,0-1.575-0.279-2.112-0.838S472.015,341.474,472.015,340.424z M473.099,340.424
				c0,0.797,0.174,1.394,0.521,1.79s0.785,0.595,1.312,0.595c0.523,0,0.959-0.199,1.307-0.598s0.521-1.006,0.521-1.822
				c0-0.77-0.175-1.353-0.524-1.749s-0.784-0.595-1.304-0.595c-0.527,0-0.965,0.197-1.312,0.592S473.099,339.627,473.099,340.424z"
				/><path class="st3" d="M484.431,346.06c-0.582-0.734-1.074-1.594-1.477-2.578s-0.604-2.004-0.604-3.059
				c0-0.93,0.15-1.82,0.451-2.672c0.352-0.988,0.895-1.973,1.629-2.953h0.756c-0.473,0.812-0.785,1.393-0.938,1.74
				c-0.238,0.539-0.426,1.102-0.562,1.688c-0.168,0.73-0.252,1.465-0.252,2.203c0,1.879,0.584,3.756,1.752,5.631L484.431,346.06
				L484.431,346.06z"/><path class="st3" d="M486.581,343.534v-8.59h1.137v3.527h4.465v-3.527h1.137v8.59h-1.137v-4.049h-4.465v4.049H486.581z"/><path class="st3" d="M495.23,343.534v-8.59h3.809c0.766,0,1.348,0.077,1.746,0.231s0.717,0.427,0.955,0.817
				s0.357,0.822,0.357,1.295c0,0.609-0.197,1.123-0.592,1.541s-1.004,0.684-1.828,0.797c0.301,0.145,0.529,0.287,0.686,0.428
				c0.332,0.305,0.646,0.686,0.943,1.143l1.494,2.338h-1.43l-1.137-1.787c-0.332-0.516-0.605-0.91-0.82-1.184
				s-0.407-0.465-0.577-0.574s-0.343-0.186-0.519-0.229c-0.129-0.027-0.34-0.041-0.633-0.041h-1.318v3.814L495.23,343.534
				L495.23,343.534z M496.366,338.735h2.443c0.52,0,0.926-0.054,1.219-0.161s0.516-0.279,0.668-0.516s0.229-0.493,0.229-0.771
				c0-0.406-0.147-0.74-0.442-1.002s-0.761-0.393-1.397-0.393h-2.719v2.843H496.366z"/><path class="st3" d="M504.435,346.06h-0.756c1.168-1.875,1.752-3.752,1.752-5.631c0-0.734-0.084-1.463-0.252-2.186
				c-0.133-0.586-0.318-1.148-0.557-1.688c-0.152-0.352-0.467-0.938-0.943-1.758h0.756c0.734,0.98,1.277,1.965,1.629,2.953
				c0.301,0.852,0.451,1.742,0.451,2.672c0,1.055-0.202,2.074-0.606,3.059S505.013,345.326,504.435,346.06z"/><path class="st3" d="M513.288,338.484h-5.672V337.5h5.672V338.484z M513.288,341.091h-5.672v-0.984h5.672V341.091z"/><path class="st3" d="M514.454,339.299c0-1.016,0.104-1.833,0.313-2.452s0.52-1.097,0.932-1.433s0.931-0.504,1.556-0.504
				c0.461,0,0.865,0.093,1.213,0.278s0.635,0.453,0.861,0.803s0.404,0.775,0.533,1.277s0.193,1.179,0.193,2.03
				c0,1.008-0.104,1.821-0.311,2.44s-0.517,1.098-0.929,1.436s-0.933,0.507-1.562,0.507c-0.828,0-1.479-0.297-1.951-0.891
				C514.738,342.076,514.454,340.911,514.454,339.299z M515.538,339.299c0,1.41,0.165,2.349,0.495,2.815s0.737,0.7,1.222,0.7
				s0.892-0.234,1.222-0.703s0.495-1.406,0.495-2.812c0-1.414-0.165-2.354-0.495-2.818s-0.741-0.697-1.233-0.697
				c-0.484,0-0.871,0.205-1.16,0.615C515.72,336.922,515.538,337.888,515.538,339.299z"/><path class="st3" d="M521.72,343.534v-1.201h1.201v1.201H521.72z"/><path class="st3" d="M524.532,336.07v-1.014h5.561v0.82c-0.547,0.582-1.089,1.355-1.626,2.32s-0.952,1.957-1.245,2.977
				c-0.211,0.719-0.346,1.506-0.404,2.361h-1.084c0.012-0.676,0.145-1.492,0.398-2.449s0.618-1.88,1.093-2.769
				s0.979-1.638,1.515-2.247L524.532,336.07L524.532,336.07z"/><path class="st3" d="M531.206,336.07v-1.014h5.561v0.82c-0.547,0.582-1.089,1.355-1.626,2.32s-0.952,1.957-1.245,2.977
				c-0.211,0.719-0.346,1.506-0.404,2.361h-1.084c0.012-0.676,0.145-1.492,0.398-2.449s0.618-1.88,1.093-2.769
				s0.979-1.638,1.515-2.247L531.206,336.07L531.206,336.07z"/><path class="st3" d="M537.88,336.07v-1.014h5.561v0.82c-0.547,0.582-1.089,1.355-1.626,2.32s-0.952,1.957-1.245,2.977
				c-0.211,0.719-0.346,1.506-0.404,2.361h-1.084c0.012-0.676,0.145-1.492,0.398-2.449s0.618-1.88,1.093-2.769
				s0.979-1.638,1.515-2.247L537.88,336.07L537.88,336.07z"/><path class="st3" d="M550.126,346.06c-0.582-0.734-1.074-1.594-1.477-2.578s-0.604-2.004-0.604-3.059
				c0-0.93,0.15-1.82,0.451-2.672c0.352-0.988,0.895-1.973,1.629-2.953h0.756c-0.473,0.812-0.785,1.393-0.938,1.74
				c-0.238,0.539-0.426,1.102-0.562,1.688c-0.168,0.73-0.252,1.465-0.252,2.203c0,1.879,0.584,3.756,1.752,5.631L550.126,346.06
				L550.126,346.06z"/><path class="st3" d="M551.972,341.549l1.014-0.094c0.086,0.477,0.25,0.822,0.492,1.037s0.553,0.322,0.932,0.322
				c0.324,0,0.608-0.074,0.853-0.223s0.444-0.347,0.601-0.595s0.287-0.583,0.393-1.005s0.158-0.852,0.158-1.289
				c0-0.047-0.002-0.117-0.006-0.211c-0.211,0.336-0.499,0.608-0.864,0.817s-0.761,0.313-1.187,0.313
				c-0.711,0-1.312-0.258-1.805-0.773s-0.738-1.195-0.738-2.039c0-0.871,0.257-1.572,0.771-2.104s1.157-0.797,1.931-0.797
				c0.559,0,1.069,0.15,1.532,0.451s0.814,0.729,1.055,1.286s0.36,1.362,0.36,2.417c0,1.098-0.119,1.972-0.357,2.622
				s-0.593,1.146-1.063,1.485s-1.022,0.51-1.655,0.51c-0.672,0-1.221-0.187-1.646-0.56S552.058,342.224,551.972,341.549z
				 M556.29,337.758c0-0.605-0.161-1.086-0.483-1.441s-0.71-0.533-1.163-0.533c-0.469,0-0.877,0.191-1.225,0.574
				s-0.521,0.879-0.521,1.488c0,0.547,0.165,0.991,0.495,1.333s0.737,0.513,1.222,0.513c0.488,0,0.89-0.171,1.204-0.513
				S556.29,338.362,556.29,337.758z"/><path class="st3" d="M558.488,341.284l1.107-0.094c0.082,0.539,0.272,0.944,0.571,1.216s0.659,0.407,1.081,0.407
				c0.508,0,0.938-0.191,1.289-0.574s0.527-0.891,0.527-1.523c0-0.602-0.169-1.076-0.507-1.424s-0.78-0.521-1.327-0.521
				c-0.34,0-0.646,0.077-0.92,0.231s-0.488,0.354-0.645,0.601l-0.99-0.129l0.832-4.412h4.271v1.008h-3.428l-0.463,2.309
				c0.516-0.359,1.057-0.539,1.623-0.539c0.75,0,1.383,0.26,1.898,0.779s0.773,1.188,0.773,2.004c0,0.777-0.227,1.449-0.68,2.016
				c-0.551,0.695-1.303,1.043-2.256,1.043c-0.781,0-1.419-0.219-1.913-0.656S558.558,342.008,558.488,341.284z"/><path class="st3" d="M565.361,337.008c0-0.613,0.154-1.135,0.463-1.564s0.756-0.645,1.342-0.645c0.539,0,0.985,0.192,1.339,0.577
				s0.53,0.95,0.53,1.696c0,0.727-0.179,1.286-0.536,1.679s-0.798,0.589-1.321,0.589c-0.52,0-0.952-0.193-1.298-0.58
				S565.361,337.789,565.361,337.008z M567.195,335.524c-0.262,0-0.479,0.113-0.653,0.34s-0.261,0.643-0.261,1.248
				c0,0.551,0.088,0.938,0.264,1.163s0.393,0.337,0.65,0.337c0.266,0,0.485-0.113,0.659-0.34s0.261-0.641,0.261-1.242
				c0-0.555-0.088-0.944-0.264-1.169S567.456,335.524,567.195,335.524z M567.2,343.851l4.699-9.053h0.855l-4.682,9.053H567.2z
				 M570.915,341.518c0-0.617,0.154-1.14,0.463-1.567s0.758-0.642,1.348-0.642c0.539,0,0.985,0.192,1.339,0.577
				s0.53,0.95,0.53,1.696c0,0.727-0.179,1.286-0.536,1.679s-0.8,0.589-1.327,0.589c-0.52,0-0.952-0.194-1.298-0.583
				S570.915,342.297,570.915,341.518z M572.755,340.036c-0.266,0-0.485,0.113-0.659,0.34s-0.261,0.643-0.261,1.248
				c0,0.547,0.088,0.934,0.264,1.16s0.393,0.34,0.65,0.34c0.27,0,0.491-0.113,0.665-0.34s0.261-0.641,0.261-1.242
				c0-0.555-0.088-0.944-0.264-1.169S573.017,340.036,572.755,340.036z"/><path class="st3" d="M583.519,341.255l1.037,0.135c-0.113,0.715-0.403,1.274-0.87,1.679s-1.04,0.606-1.72,0.606
				c-0.852,0-1.536-0.278-2.054-0.835s-0.776-1.354-0.776-2.394c0-0.672,0.111-1.26,0.334-1.764s0.562-0.882,1.017-1.134
				s0.95-0.378,1.485-0.378c0.676,0,1.229,0.171,1.658,0.513s0.705,0.827,0.826,1.456l-1.025,0.158
				c-0.098-0.418-0.271-0.732-0.519-0.943s-0.548-0.316-0.899-0.316c-0.531,0-0.963,0.19-1.295,0.571s-0.498,0.983-0.498,1.808
				c0,0.836,0.16,1.443,0.48,1.822s0.738,0.568,1.254,0.568c0.414,0,0.76-0.127,1.037-0.381S583.445,341.782,583.519,341.255z"/><path class="st3" d="M585.066,340.424c0-1.152,0.32-2.006,0.961-2.561c0.535-0.461,1.188-0.691,1.957-0.691
				c0.855,0,1.555,0.28,2.098,0.841s0.814,1.335,0.814,2.323c0,0.801-0.12,1.431-0.36,1.89s-0.59,0.815-1.049,1.069
				s-0.96,0.381-1.503,0.381c-0.871,0-1.575-0.279-2.112-0.838S585.066,341.474,585.066,340.424z M586.15,340.424
				c0,0.797,0.174,1.394,0.521,1.79s0.785,0.595,1.312,0.595c0.523,0,0.959-0.199,1.307-0.598s0.521-1.006,0.521-1.822
				c0-0.77-0.175-1.353-0.524-1.749s-0.784-0.595-1.304-0.595c-0.527,0-0.965,0.197-1.312,0.592S586.15,339.627,586.15,340.424z"/><path class="st3" d="M592.132,343.534v-6.223h0.949v0.885c0.457-0.684,1.117-1.025,1.98-1.025c0.375,0,0.72,0.067,1.034,0.202
				s0.55,0.312,0.706,0.53s0.266,0.479,0.328,0.779c0.039,0.195,0.059,0.537,0.059,1.025v3.826h-1.055v-3.785
				c0-0.43-0.041-0.751-0.123-0.964s-0.228-0.383-0.437-0.51s-0.454-0.19-0.735-0.19c-0.449,0-0.837,0.143-1.163,0.428
				s-0.489,0.826-0.489,1.623v3.398L592.132,343.534L592.132,343.534z"/><path class="st3" d="M599.058,343.534v-5.402h-0.932v-0.82h0.932v-0.662c0-0.418,0.037-0.729,0.111-0.932
				c0.102-0.273,0.28-0.495,0.536-0.665s0.614-0.255,1.075-0.255c0.297,0,0.625,0.035,0.984,0.105l-0.158,0.92
				c-0.219-0.039-0.426-0.059-0.621-0.059c-0.32,0-0.547,0.068-0.68,0.205s-0.199,0.393-0.199,0.768v0.574h1.213v0.82h-1.213v5.402
				h-1.048V343.534z"/><path class="st3" d="M602.146,336.157v-1.213h1.055v1.213H602.146z M602.146,343.534v-6.223h1.055v6.223H602.146z"/><path class="st3" d="M608.843,343.534v-0.785c-0.395,0.617-0.975,0.926-1.74,0.926c-0.496,0-0.952-0.137-1.368-0.41
				s-0.738-0.655-0.967-1.146s-0.343-1.054-0.343-1.69c0-0.621,0.104-1.185,0.311-1.69s0.518-0.894,0.932-1.163
				s0.877-0.404,1.389-0.404c0.375,0,0.709,0.079,1.002,0.237s0.531,0.364,0.715,0.618v-3.082h1.049v8.59h-0.98V343.534z
				 M605.509,340.428c0,0.797,0.168,1.393,0.504,1.787s0.732,0.592,1.189,0.592c0.461,0,0.853-0.188,1.175-0.565
				s0.483-0.952,0.483-1.726c0-0.852-0.164-1.477-0.492-1.875s-0.732-0.598-1.213-0.598c-0.469,0-0.86,0.191-1.175,0.574
				S605.509,339.604,605.509,340.428z"/><path class="st3" d="M615.739,341.531l1.09,0.135c-0.172,0.637-0.49,1.131-0.955,1.482s-1.059,0.527-1.781,0.527
				c-0.91,0-1.632-0.28-2.165-0.841s-0.8-1.347-0.8-2.358c0-1.047,0.27-1.859,0.809-2.438s1.238-0.867,2.098-0.867
				c0.832,0,1.512,0.283,2.039,0.85s0.791,1.363,0.791,2.391c0,0.062-0.002,0.156-0.006,0.281h-4.641
				c0.039,0.684,0.232,1.207,0.58,1.57s0.781,0.545,1.301,0.545c0.387,0,0.717-0.102,0.99-0.305S615.579,341.976,615.739,341.531z
				 M612.277,339.826h3.475c-0.047-0.523-0.18-0.916-0.398-1.178c-0.336-0.406-0.771-0.609-1.307-0.609
				c-0.484,0-0.892,0.162-1.222,0.486S612.312,339.282,612.277,339.826z"/><path class="st3" d="M618.154,343.534v-6.223h0.949v0.885c0.457-0.684,1.117-1.025,1.98-1.025c0.375,0,0.72,0.067,1.034,0.202
				s0.55,0.312,0.706,0.53s0.266,0.479,0.328,0.779c0.039,0.195,0.059,0.537,0.059,1.025v3.826h-1.055v-3.785
				c0-0.43-0.041-0.751-0.123-0.964s-0.228-0.383-0.437-0.51s-0.454-0.19-0.735-0.19c-0.449,0-0.837,0.143-1.163,0.428
				s-0.489,0.826-0.489,1.623v3.398L618.154,343.534L618.154,343.534z"/><path class="st3" d="M628.888,341.255l1.037,0.135c-0.113,0.715-0.403,1.274-0.87,1.679s-1.04,0.606-1.72,0.606
				c-0.852,0-1.536-0.278-2.054-0.835s-0.776-1.354-0.776-2.394c0-0.672,0.111-1.26,0.334-1.764s0.562-0.882,1.017-1.134
				s0.95-0.378,1.485-0.378c0.676,0,1.229,0.171,1.658,0.513s0.705,0.827,0.826,1.456l-1.025,0.158
				c-0.098-0.418-0.271-0.732-0.519-0.943s-0.548-0.316-0.899-0.316c-0.531,0-0.963,0.19-1.295,0.571s-0.498,0.983-0.498,1.808
				c0,0.836,0.16,1.443,0.48,1.822s0.738,0.568,1.254,0.568c0.414,0,0.76-0.127,1.037-0.381S628.814,341.782,628.888,341.255z"/><path class="st3" d="M635.087,341.531l1.09,0.135c-0.172,0.637-0.49,1.131-0.955,1.482s-1.059,0.527-1.781,0.527
				c-0.91,0-1.632-0.28-2.165-0.841s-0.8-1.347-0.8-2.358c0-1.047,0.27-1.859,0.809-2.438s1.238-0.867,2.098-0.867
				c0.832,0,1.512,0.283,2.039,0.85s0.791,1.363,0.791,2.391c0,0.062-0.002,0.156-0.006,0.281h-4.641
				c0.039,0.684,0.232,1.207,0.58,1.57s0.781,0.545,1.301,0.545c0.387,0,0.717-0.102,0.99-0.305S634.927,341.976,635.087,341.531z
				 M631.624,339.826h3.475c-0.047-0.523-0.18-0.916-0.398-1.178c-0.336-0.406-0.771-0.609-1.307-0.609
				c-0.484,0-0.892,0.162-1.222,0.486S631.659,339.282,631.624,339.826z"/><path class="st3" d="M640.841,336.157v-1.213h1.055v1.213H640.841z M640.841,343.534v-6.223h1.055v6.223H640.841z"/><path class="st3" d="M643.501,343.534v-6.223h0.949v0.885c0.457-0.684,1.117-1.025,1.98-1.025c0.375,0,0.72,0.067,1.034,0.202
				s0.55,0.312,0.706,0.53s0.266,0.479,0.328,0.779c0.039,0.195,0.059,0.537,0.059,1.025v3.826h-1.055v-3.785
				c0-0.43-0.041-0.751-0.123-0.964s-0.228-0.383-0.437-0.51s-0.454-0.19-0.735-0.19c-0.449,0-0.837,0.143-1.163,0.428
				s-0.489,0.826-0.489,1.623v3.398L643.501,343.534L643.501,343.534z"/><path class="st3" d="M652.478,342.591l0.152,0.932c-0.297,0.062-0.562,0.094-0.797,0.094c-0.383,0-0.68-0.061-0.891-0.182
				s-0.359-0.28-0.445-0.478s-0.129-0.612-0.129-1.245v-3.58h-0.773v-0.82h0.773v-1.542l1.049-0.633v2.174h1.061v0.82h-1.061v3.639
				c0,0.301,0.019,0.494,0.056,0.58s0.098,0.154,0.182,0.205s0.204,0.076,0.36,0.076
				C652.132,342.633,652.286,342.618,652.478,342.591z"/><path class="st3" d="M657.769,341.531l1.09,0.135c-0.172,0.637-0.49,1.131-0.955,1.482s-1.059,0.527-1.781,0.527
				c-0.91,0-1.632-0.28-2.165-0.841s-0.8-1.347-0.8-2.358c0-1.047,0.27-1.859,0.809-2.438s1.238-0.867,2.098-0.867
				c0.832,0,1.512,0.283,2.039,0.85s0.791,1.363,0.791,2.391c0,0.062-0.002,0.156-0.006,0.281h-4.641
				c0.039,0.684,0.232,1.207,0.58,1.57s0.781,0.545,1.301,0.545c0.387,0,0.717-0.102,0.99-0.305S657.609,341.976,657.769,341.531z
				 M654.306,339.826h3.475c-0.047-0.523-0.18-0.916-0.398-1.178c-0.336-0.406-0.771-0.609-1.307-0.609
				c-0.484,0-0.892,0.162-1.222,0.486S654.341,339.282,654.306,339.826z"/><path class="st3" d="M660.171,343.534v-6.223h0.949v0.943c0.242-0.441,0.466-0.732,0.671-0.873s0.431-0.211,0.677-0.211
				c0.355,0,0.717,0.113,1.084,0.34l-0.363,0.979c-0.258-0.152-0.516-0.229-0.773-0.229c-0.23,0-0.438,0.069-0.621,0.208
				s-0.314,0.331-0.393,0.577c-0.117,0.375-0.176,0.785-0.176,1.23v3.258L660.171,343.534L660.171,343.534z"/><path class="st3" d="M665.907,343.534l-2.367-6.223h1.113l1.336,3.727c0.145,0.402,0.277,0.82,0.398,1.254
				c0.094-0.328,0.225-0.723,0.393-1.184l1.383-3.797h1.084l-2.355,6.223H665.907z"/><path class="st3" d="M674.239,342.766c-0.391,0.332-0.767,0.566-1.128,0.703s-0.749,0.205-1.163,0.205
				c-0.684,0-1.209-0.167-1.576-0.501s-0.551-0.761-0.551-1.28c0-0.305,0.069-0.583,0.208-0.835s0.32-0.454,0.545-0.606
				s0.478-0.268,0.759-0.346c0.207-0.055,0.52-0.107,0.938-0.158c0.852-0.102,1.479-0.223,1.881-0.363
				c0.004-0.145,0.006-0.236,0.006-0.275c0-0.43-0.1-0.732-0.299-0.908c-0.27-0.238-0.67-0.357-1.201-0.357
				c-0.496,0-0.862,0.087-1.099,0.261s-0.411,0.481-0.524,0.923l-1.031-0.141c0.094-0.441,0.248-0.798,0.463-1.069
				s0.525-0.48,0.932-0.627s0.877-0.22,1.412-0.22c0.531,0,0.963,0.062,1.295,0.188s0.576,0.282,0.732,0.472
				s0.266,0.429,0.328,0.718c0.035,0.18,0.053,0.504,0.053,0.973v1.406c0,0.98,0.022,1.601,0.067,1.86s0.134,0.509,0.267,0.747
				h-1.102C674.341,343.315,674.271,343.06,674.239,342.766z M674.152,340.411c-0.383,0.156-0.957,0.289-1.723,0.398
				c-0.434,0.062-0.74,0.133-0.92,0.211s-0.318,0.192-0.416,0.343s-0.146,0.317-0.146,0.501c0,0.281,0.106,0.516,0.319,0.703
				s0.524,0.281,0.935,0.281c0.406,0,0.768-0.089,1.084-0.267s0.549-0.421,0.697-0.729c0.113-0.238,0.17-0.59,0.17-1.055
				L674.152,340.411L674.152,340.411z"/><path class="st3" d="M676.829,343.534v-8.59h1.055v8.59H676.829z"/><path class="st3" d="M682.876,345.919v-10.975h2.326v0.873h-1.271v9.229h1.271v0.873H682.876z"/><path class="st3" d="M692.45,340.523l1.137,0.287c-0.238,0.934-0.667,1.646-1.286,2.136s-1.376,0.735-2.271,0.735
				c-0.926,0-1.679-0.188-2.259-0.565s-1.021-0.923-1.324-1.638s-0.454-1.482-0.454-2.303c0-0.895,0.171-1.675,0.513-2.341
				s0.828-1.172,1.459-1.518s1.325-0.519,2.083-0.519c0.859,0,1.582,0.219,2.168,0.656s0.994,1.053,1.225,1.846l-1.119,0.264
				c-0.199-0.625-0.488-1.08-0.867-1.365s-0.855-0.428-1.43-0.428c-0.66,0-1.212,0.158-1.655,0.475s-0.755,0.741-0.935,1.274
				s-0.27,1.083-0.27,1.649c0,0.73,0.106,1.368,0.319,1.913s0.544,0.952,0.993,1.222s0.936,0.404,1.459,0.404
				c0.637,0,1.176-0.184,1.617-0.551S692.294,341.245,692.45,340.523z"/><path class="st3" d="M695.181,343.534v-8.59h1.137v8.59H695.181z"/><path class="st3" d="M699.95,345.919h-2.326v-0.873h1.271v-9.229h-1.271v-0.873h2.326V345.919z"/><path class="st3" d="M701.796,343.534v-1.201h1.201v1.201c0,0.441-0.078,0.798-0.234,1.069s-0.404,0.481-0.744,0.63l-0.293-0.451
				c0.223-0.098,0.387-0.241,0.492-0.431s0.164-0.462,0.176-0.817L701.796,343.534L701.796,343.534z"/><path class="st3" d="M707.896,339.299c0-1.016,0.104-1.833,0.313-2.452s0.52-1.097,0.932-1.433s0.931-0.504,1.556-0.504
				c0.461,0,0.865,0.093,1.213,0.278s0.635,0.453,0.861,0.803s0.404,0.775,0.533,1.277s0.193,1.179,0.193,2.03
				c0,1.008-0.104,1.821-0.311,2.44s-0.517,1.098-0.929,1.436s-0.933,0.507-1.562,0.507c-0.828,0-1.479-0.297-1.951-0.891
				C708.179,342.076,707.896,340.911,707.896,339.299z M708.98,339.299c0,1.41,0.165,2.349,0.495,2.815s0.737,0.7,1.222,0.7
				s0.892-0.234,1.222-0.703s0.495-1.406,0.495-2.812c0-1.414-0.165-2.354-0.495-2.818s-0.741-0.697-1.233-0.697
				c-0.484,0-0.871,0.205-1.16,0.615C709.161,336.922,708.98,337.888,708.98,339.299z"/><path class="st3" d="M715.161,343.534v-1.201h1.201v1.201H715.161z"/><path class="st3" d="M723.376,337.049l-1.049,0.082c-0.094-0.414-0.227-0.715-0.398-0.902c-0.285-0.301-0.637-0.451-1.055-0.451
				c-0.336,0-0.631,0.094-0.885,0.281c-0.332,0.242-0.594,0.596-0.785,1.061s-0.291,1.127-0.299,1.986
				c0.254-0.387,0.564-0.674,0.932-0.861s0.752-0.281,1.154-0.281c0.703,0,1.302,0.259,1.796,0.776s0.741,1.187,0.741,2.007
				c0,0.539-0.116,1.04-0.349,1.503s-0.552,0.817-0.958,1.063s-0.867,0.369-1.383,0.369c-0.879,0-1.596-0.323-2.15-0.97
				s-0.832-1.712-0.832-3.196c0-1.66,0.307-2.867,0.92-3.621c0.535-0.656,1.256-0.984,2.162-0.984c0.676,0,1.229,0.189,1.661,0.568
				S723.29,336.38,723.376,337.049z M719.07,340.752c0,0.363,0.077,0.711,0.231,1.043s0.37,0.585,0.647,0.759
				s0.568,0.261,0.873,0.261c0.445,0,0.828-0.18,1.148-0.539s0.48-0.848,0.48-1.465c0-0.594-0.158-1.062-0.475-1.403
				s-0.715-0.513-1.195-0.513c-0.477,0-0.881,0.171-1.213,0.513S719.07,340.196,719.07,340.752z"/><path class="st3" d="M730.12,342.521v1.014h-5.678c-0.008-0.254,0.033-0.498,0.123-0.732c0.145-0.387,0.376-0.768,0.694-1.143
				s0.778-0.809,1.38-1.301c0.934-0.766,1.564-1.372,1.893-1.819s0.492-0.87,0.492-1.269c0-0.418-0.149-0.771-0.448-1.058
				s-0.688-0.431-1.169-0.431c-0.508,0-0.914,0.152-1.219,0.457s-0.459,0.727-0.463,1.266l-1.084-0.111
				c0.074-0.809,0.354-1.425,0.838-1.849s1.135-0.636,1.951-0.636c0.824,0,1.477,0.229,1.957,0.686s0.721,1.023,0.721,1.699
				c0,0.344-0.07,0.682-0.211,1.014s-0.374,0.682-0.7,1.049s-0.868,0.871-1.626,1.512c-0.633,0.531-1.039,0.892-1.219,1.081
				s-0.328,0.38-0.445,0.571L730.12,342.521L730.12,342.521z"/><path class="st3" d="M735.224,343.534h-1.055v-6.721c-0.254,0.242-0.587,0.484-0.999,0.727s-0.782,0.424-1.11,0.545v-1.02
				c0.59-0.277,1.105-0.613,1.547-1.008s0.754-0.777,0.938-1.148h0.68L735.224,343.534L735.224,343.534z"/><path class="st3" d="M737.404,340.851v-0.85h6.674v0.85H737.404z"/><path class="st3" d="M744.599,339.299c0-1.016,0.104-1.833,0.313-2.452s0.52-1.097,0.932-1.433s0.931-0.504,1.556-0.504
				c0.461,0,0.865,0.093,1.213,0.278s0.635,0.453,0.861,0.803s0.404,0.775,0.533,1.277s0.193,1.179,0.193,2.03
				c0,1.008-0.104,1.821-0.311,2.44s-0.517,1.098-0.929,1.436s-0.933,0.507-1.562,0.507c-0.828,0-1.479-0.297-1.951-0.891
				C744.882,342.076,744.599,340.911,744.599,339.299z M745.683,339.299c0,1.41,0.165,2.349,0.495,2.815s0.737,0.7,1.222,0.7
				s0.892-0.234,1.222-0.703s0.495-1.406,0.495-2.812c0-1.414-0.165-2.354-0.495-2.818s-0.741-0.697-1.233-0.697
				c-0.484,0-0.871,0.205-1.16,0.615C745.864,336.922,745.683,337.888,745.683,339.299z"/><path class="st3" d="M751.864,343.534v-1.201h1.201v1.201H751.864z"/><path class="st3" d="M754.765,341.549l1.014-0.094c0.086,0.477,0.25,0.822,0.492,1.037s0.553,0.322,0.932,0.322
				c0.324,0,0.608-0.074,0.853-0.223s0.444-0.347,0.601-0.595s0.287-0.583,0.393-1.005s0.158-0.852,0.158-1.289
				c0-0.047-0.002-0.117-0.006-0.211c-0.211,0.336-0.499,0.608-0.864,0.817s-0.761,0.313-1.187,0.313
				c-0.711,0-1.312-0.258-1.805-0.773s-0.738-1.195-0.738-2.039c0-0.871,0.257-1.572,0.771-2.104s1.157-0.797,1.931-0.797
				c0.559,0,1.069,0.15,1.532,0.451s0.814,0.729,1.055,1.286s0.36,1.362,0.36,2.417c0,1.098-0.119,1.972-0.357,2.622
				s-0.593,1.146-1.063,1.485s-1.022,0.51-1.655,0.51c-0.672,0-1.221-0.187-1.646-0.56S754.851,342.224,754.765,341.549z
				 M759.083,337.758c0-0.605-0.161-1.086-0.483-1.441s-0.71-0.533-1.163-0.533c-0.469,0-0.877,0.191-1.225,0.574
				s-0.521,0.879-0.521,1.488c0,0.547,0.165,0.991,0.495,1.333s0.737,0.513,1.222,0.513c0.488,0,0.89-0.171,1.204-0.513
				S759.083,338.362,759.083,337.758z"/><path class="st3" d="M762.904,338.877c-0.438-0.16-0.762-0.389-0.973-0.686s-0.316-0.652-0.316-1.066
				c0-0.625,0.225-1.15,0.674-1.576s1.047-0.639,1.793-0.639c0.75,0,1.354,0.218,1.811,0.653s0.686,0.966,0.686,1.591
				c0,0.398-0.104,0.745-0.313,1.04s-0.526,0.522-0.952,0.683c0.527,0.172,0.929,0.449,1.204,0.832s0.413,0.84,0.413,1.371
				c0,0.734-0.26,1.352-0.779,1.852s-1.203,0.75-2.051,0.75s-1.531-0.251-2.051-0.753s-0.779-1.128-0.779-1.878
				c0-0.559,0.142-1.026,0.425-1.403S762.38,339.013,762.904,338.877z M762.353,341.055c0,0.301,0.071,0.592,0.214,0.873
				s0.354,0.499,0.636,0.653s0.584,0.231,0.908,0.231c0.504,0,0.92-0.162,1.248-0.486s0.492-0.736,0.492-1.236
				c0-0.508-0.169-0.928-0.507-1.26s-0.761-0.498-1.269-0.498c-0.496,0-0.907,0.164-1.233,0.492S762.353,340.563,762.353,341.055z
				 M762.693,337.089c0,0.406,0.131,0.738,0.393,0.996s0.602,0.387,1.02,0.387c0.406,0,0.739-0.128,0.999-0.384
				s0.39-0.569,0.39-0.94c0-0.387-0.134-0.712-0.401-0.976s-0.601-0.396-0.999-0.396c-0.402,0-0.736,0.129-1.002,0.387
				S762.693,336.729,762.693,337.089z"/><path class="st3" d="M773.497,342.521v1.014h-5.678c-0.008-0.254,0.033-0.498,0.123-0.732c0.145-0.387,0.376-0.768,0.694-1.143
				s0.778-0.809,1.38-1.301c0.934-0.766,1.564-1.372,1.893-1.819s0.492-0.87,0.492-1.269c0-0.418-0.149-0.771-0.448-1.058
				s-0.688-0.431-1.169-0.431c-0.508,0-0.914,0.152-1.219,0.457s-0.459,0.727-0.463,1.266l-1.084-0.111
				c0.074-0.809,0.354-1.425,0.838-1.849s1.135-0.636,1.951-0.636c0.824,0,1.477,0.229,1.957,0.686s0.721,1.023,0.721,1.699
				c0,0.344-0.07,0.682-0.211,1.014s-0.374,0.682-0.7,1.049s-0.868,0.871-1.626,1.512c-0.633,0.531-1.039,0.892-1.219,1.081
				s-0.328,0.38-0.445,0.571L773.497,342.521L773.497,342.521z"/><path class="st3" d="M775.613,346.06h-0.756c1.168-1.875,1.752-3.752,1.752-5.631c0-0.734-0.084-1.463-0.252-2.186
				c-0.133-0.586-0.318-1.148-0.557-1.688c-0.152-0.352-0.467-0.938-0.943-1.758h0.756c0.734,0.98,1.277,1.965,1.629,2.953
				c0.301,0.852,0.451,1.742,0.451,2.672c0,1.055-0.202,2.074-0.606,3.059S776.191,345.326,775.613,346.06z"/><path class="st3" d="M779.193,343.534v-1.201h1.201v1.201c0,0.441-0.078,0.798-0.234,1.069s-0.404,0.481-0.744,0.63l-0.293-0.451
				c0.223-0.098,0.387-0.241,0.492-0.431s0.164-0.462,0.176-0.817L779.193,343.534L779.193,343.534z M779.193,338.513v-1.201h1.201
				v1.201H779.193z"/></g><g class="st2"><path class="st3" d="M801.231,345.919l1.799-8.607h0.979l-0.182,0.867c0.363-0.379,0.688-0.642,0.976-0.788
				s0.591-0.22,0.911-0.22c0.594,0,1.086,0.216,1.477,0.647s0.586,1.05,0.586,1.854c0,0.648-0.107,1.239-0.322,1.772
				s-0.479,0.962-0.791,1.286s-0.629,0.562-0.949,0.715s-0.648,0.229-0.984,0.229c-0.746,0-1.324-0.379-1.734-1.137l-0.703,3.381
				h-1.063V345.919z M803.328,340.992c0,0.465,0.033,0.787,0.1,0.967c0.098,0.254,0.258,0.459,0.48,0.615s0.48,0.234,0.773,0.234
				c0.609,0,1.102-0.343,1.477-1.028s0.562-1.386,0.562-2.101c0-0.527-0.126-0.935-0.378-1.222s-0.565-0.431-0.94-0.431
				c-0.27,0-0.52,0.071-0.75,0.214s-0.444,0.355-0.642,0.639s-0.36,0.63-0.489,1.04S803.328,340.687,803.328,340.992z"/></g><g class="st2"><path class="st3" d="M808.924,339.779v-0.984l5.689-2.402v1.049l-4.512,1.852l4.512,1.869v1.049L808.924,339.779z"/><path class="st3" d="M816.365,343.534v-1.201h1.201v1.201H816.365z"/><path class="st3" d="M819.108,339.299c0-1.016,0.104-1.833,0.313-2.452s0.52-1.097,0.932-1.433s0.931-0.504,1.556-0.504
				c0.461,0,0.865,0.093,1.213,0.278s0.635,0.453,0.861,0.803s0.404,0.775,0.533,1.277s0.193,1.179,0.193,2.03
				c0,1.008-0.104,1.821-0.311,2.44s-0.517,1.098-0.929,1.436s-0.933,0.507-1.562,0.507c-0.828,0-1.479-0.297-1.951-0.891
				C819.391,342.076,819.108,340.911,819.108,339.299z M820.192,339.299c0,1.41,0.165,2.349,0.495,2.815s0.737,0.7,1.222,0.7
				s0.892-0.234,1.222-0.703s0.495-1.406,0.495-2.812c0-1.414-0.165-2.354-0.495-2.818s-0.741-0.697-1.233-0.697
				c-0.484,0-0.871,0.205-1.16,0.615C820.373,336.922,820.192,337.888,820.192,339.299z"/><path class="st3" d="M825.781,341.284l1.107-0.094c0.082,0.539,0.272,0.944,0.571,1.216s0.659,0.407,1.081,0.407
				c0.508,0,0.938-0.191,1.289-0.574s0.527-0.891,0.527-1.523c0-0.602-0.169-1.076-0.507-1.424s-0.78-0.521-1.327-0.521
				c-0.34,0-0.646,0.077-0.92,0.231s-0.488,0.354-0.645,0.601l-0.99-0.129l0.832-4.412h4.271v1.008h-3.428l-0.463,2.309
				c0.516-0.359,1.057-0.539,1.623-0.539c0.75,0,1.383,0.26,1.898,0.779s0.773,1.188,0.773,2.004c0,0.777-0.227,1.449-0.68,2.016
				c-0.551,0.695-1.303,1.043-2.256,1.043c-0.781,0-1.419-0.219-1.913-0.656S825.852,342.008,825.781,341.284z"/></g></g><g class="st2"><path class="st4" d="M9.483,185.301H0.177v-3.016c0-1.143,0.047-1.887,0.14-2.234c0.14-0.533,0.443-0.979,0.911-1.34
			c0.468-0.359,1.071-0.539,1.812-0.539c0.572,0,1.052,0.104,1.441,0.311c0.39,0.208,0.695,0.471,0.917,0.791
			c0.223,0.319,0.369,0.645,0.441,0.975c0.089,0.448,0.134,1.098,0.134,1.948v1.226h3.51L9.483,185.301L9.483,185.301z
			 M1.751,183.422h2.641v-1.029c0-0.74-0.049-1.235-0.146-1.484c-0.098-0.25-0.25-0.445-0.457-0.588
			c-0.208-0.142-0.449-0.213-0.725-0.213c-0.338,0-0.617,0.1-0.838,0.299c-0.22,0.199-0.357,0.451-0.412,0.756
			c-0.042,0.224-0.063,0.674-0.063,1.352V183.422z"/><path class="st4" d="M7.337,172.738l0.298-1.777c0.652,0.229,1.148,0.59,1.489,1.082c0.341,0.493,0.511,1.109,0.511,1.851
			c0,1.173-0.383,2.04-1.148,2.603c-0.614,0.444-1.389,0.666-2.324,0.666c-1.117,0-1.991-0.291-2.624-0.875
			s-0.949-1.322-0.949-2.216c0-1.003,0.331-1.794,0.993-2.374s1.677-0.857,3.044-0.832v4.469c0.529-0.012,0.94-0.156,1.234-0.432
			c0.294-0.274,0.441-0.617,0.441-1.027c0-0.279-0.076-0.515-0.229-0.705S7.676,172.836,7.337,172.738z M5.534,172.637
			c-0.517,0.013-0.909,0.146-1.178,0.4s-0.403,0.562-0.403,0.926c0,0.39,0.143,0.711,0.426,0.965s0.669,0.379,1.155,0.375V172.637z"
			/><path class="st4" d="M9.483,167.706v1.783H2.742v-1.656H3.7c-0.452-0.284-0.751-0.539-0.895-0.766s-0.216-0.483-0.216-0.771
			c0-0.406,0.112-0.797,0.337-1.174l1.555,0.553c-0.194,0.3-0.292,0.579-0.292,0.838c0,0.249,0.068,0.461,0.206,0.635
			c0.138,0.173,0.387,0.31,0.746,0.408c0.359,0.1,1.113,0.15,2.26,0.15H9.483z"/><path class="st4" d="M4.735,158.474l0.317,1.759c-0.352,0.06-0.616,0.193-0.794,0.403c-0.178,0.209-0.266,0.48-0.266,0.815
			c0,0.444,0.153,0.799,0.46,1.063c0.307,0.264,0.819,0.396,1.539,0.396c0.8,0,1.364-0.135,1.694-0.403s0.496-0.63,0.496-1.082
			c0-0.339-0.097-0.616-0.289-0.831c-0.192-0.217-0.523-0.369-0.994-0.457l0.299-1.752c0.804,0.182,1.411,0.531,1.822,1.047
			c0.41,0.516,0.615,1.208,0.615,2.076c0,0.985-0.311,1.771-0.934,2.357c-0.621,0.586-1.482,0.879-2.583,0.879
			c-1.113,0-1.979-0.293-2.6-0.882s-0.93-1.384-0.93-2.387c0-0.821,0.177-1.474,0.53-1.958S4.011,158.686,4.735,158.474z"/><path class="st4" d="M7.337,153.219l0.298-1.777c0.652,0.229,1.148,0.59,1.489,1.082c0.341,0.494,0.511,1.11,0.511,1.852
			c0,1.172-0.383,2.039-1.148,2.602c-0.614,0.445-1.389,0.667-2.324,0.667c-1.117,0-1.991-0.292-2.624-0.876
			s-0.949-1.322-0.949-2.215c0-1.004,0.331-1.795,0.993-2.375c0.662-0.579,1.677-0.856,3.044-0.831v4.469
			c0.529-0.013,0.94-0.157,1.234-0.432s0.441-0.618,0.441-1.028c0-0.279-0.076-0.514-0.229-0.705
			C7.921,153.461,7.676,153.316,7.337,153.219z M5.534,153.117c-0.517,0.014-0.909,0.146-1.178,0.4s-0.403,0.562-0.403,0.927
			c0,0.39,0.143,0.711,0.426,0.965s0.669,0.379,1.155,0.374V153.117z"/><path class="st4" d="M9.483,143.762v1.784h-3.44c-0.728,0-1.198,0.038-1.412,0.114s-0.38,0.2-0.499,0.371
			c-0.118,0.172-0.178,0.378-0.178,0.619c0,0.309,0.085,0.586,0.254,0.832c0.17,0.246,0.395,0.414,0.674,0.504
			s0.795,0.137,1.549,0.137h3.053v1.784H2.743v-1.657h0.99c-0.762-0.588-1.143-1.329-1.143-2.222c0-0.394,0.071-0.753,0.213-1.079
			s0.322-0.572,0.542-0.739c0.221-0.167,0.471-0.284,0.75-0.35c0.279-0.065,0.679-0.098,1.199-0.098L9.483,143.762L9.483,143.762z"
			/><path class="st4" d="M2.741,138.861h1.422v1.219H6.88c0.55,0,0.871-0.012,0.962-0.035s0.166-0.076,0.225-0.158
			c0.06-0.083,0.09-0.183,0.09-0.302c0-0.165-0.058-0.404-0.172-0.717l1.384-0.152c0.178,0.415,0.267,0.884,0.267,1.409
			c0,0.322-0.054,0.611-0.162,0.87c-0.107,0.258-0.247,0.447-0.419,0.568c-0.171,0.12-0.403,0.204-0.694,0.25
			c-0.208,0.038-0.627,0.057-1.258,0.057H4.165v0.819H2.743v-0.819H1.404l-1.041-1.79h2.38v-1.219H2.741z"/><path class="st4" d="M4.798,136.29l-0.292,1.619c-0.651-0.182-1.134-0.495-1.447-0.939s-0.47-1.104-0.47-1.98
			c0-0.795,0.094-1.388,0.282-1.777s0.428-0.663,0.718-0.822c0.29-0.158,0.821-0.238,1.597-0.238l2.082,0.019
			c0.592,0,1.029-0.028,1.311-0.086c0.281-0.057,0.583-0.164,0.904-0.32v1.765c-0.118,0.046-0.294,0.104-0.527,0.171
			c-0.105,0.03-0.175,0.051-0.209,0.063c0.296,0.305,0.519,0.63,0.666,0.978c0.148,0.347,0.223,0.717,0.223,1.111
			c0,0.694-0.188,1.241-0.564,1.641c-0.377,0.4-0.854,0.6-1.429,0.6c-0.381,0-0.721-0.091-1.019-0.273
			c-0.299-0.182-0.527-0.437-0.686-0.765c-0.159-0.328-0.298-0.801-0.416-1.419c-0.156-0.833-0.303-1.411-0.438-1.733H4.906
			c-0.344,0-0.588,0.084-0.733,0.254c-0.146,0.169-0.22,0.489-0.22,0.958c0,0.317,0.062,0.565,0.188,0.743
			S4.485,136.18,4.798,136.29z M6.245,133.904c0.076,0.229,0.167,0.59,0.272,1.085c0.106,0.495,0.21,0.819,0.312,0.971
			c0.165,0.233,0.374,0.349,0.628,0.349c0.25,0,0.466-0.093,0.648-0.279c0.182-0.186,0.272-0.423,0.272-0.711
			c0-0.322-0.105-0.628-0.317-0.92c-0.161-0.216-0.357-0.357-0.59-0.425c-0.152-0.046-0.442-0.07-0.87-0.07H6.245z"/><path class="st4" d="M9.927,130.559l0.247-2.038c0.237-0.034,0.4-0.112,0.489-0.235c0.127-0.169,0.19-0.436,0.19-0.8
			c0-0.465-0.07-0.814-0.209-1.047c-0.094-0.157-0.244-0.275-0.451-0.355c-0.148-0.055-0.421-0.083-0.818-0.083H8.391
			c0.728,0.533,1.092,1.206,1.092,2.019c0,0.906-0.383,1.623-1.148,2.152c-0.605,0.415-1.359,0.622-2.26,0.622
			c-1.131,0-1.994-0.272-2.59-0.815c-0.598-0.544-0.896-1.22-0.896-2.028c0-0.833,0.366-1.521,1.099-2.063H2.742v-1.669h6.05
			c0.795,0,1.39,0.065,1.783,0.197s0.702,0.315,0.927,0.552s0.399,0.553,0.526,0.949s0.191,0.896,0.191,1.501
			c0,1.143-0.196,1.953-0.588,2.431s-0.888,0.717-1.488,0.717C10.083,130.564,10.012,130.563,9.927,130.559z M5.973,128.965
			c0.715,0,1.238-0.139,1.57-0.416c0.332-0.277,0.498-0.619,0.498-1.025c0-0.436-0.17-0.804-0.511-1.104s-0.845-0.451-1.514-0.451
			c-0.698,0-1.217,0.144-1.556,0.432c-0.338,0.288-0.508,0.652-0.508,1.092c0,0.427,0.167,0.78,0.499,1.057
			C4.784,128.827,5.291,128.965,5.973,128.965z"/><path class="st4" d="M7.337,118.549l0.298-1.777c0.652,0.229,1.148,0.589,1.489,1.082s0.511,1.11,0.511,1.851
			c0,1.172-0.383,2.04-1.148,2.603c-0.614,0.444-1.389,0.667-2.324,0.667c-1.117,0-1.991-0.292-2.624-0.876
			s-0.949-1.322-0.949-2.215c0-1.003,0.331-1.794,0.993-2.374s1.677-0.857,3.044-0.832v4.469c0.529-0.013,0.94-0.157,1.234-0.432
			s0.441-0.618,0.441-1.028c0-0.279-0.076-0.514-0.229-0.705S7.676,118.646,7.337,118.549z M5.534,118.447
			c-0.517,0.013-0.909,0.146-1.178,0.4s-0.403,0.563-0.403,0.927c0,0.389,0.143,0.711,0.426,0.965s0.669,0.379,1.155,0.375V118.447z
			"/><path class="st4" d="M7.559,112.239l-0.272-1.79c0.347-0.076,0.61-0.23,0.79-0.463s0.27-0.559,0.27-0.978
			c0-0.461-0.084-0.808-0.254-1.041c-0.118-0.157-0.276-0.235-0.476-0.235c-0.136,0-0.247,0.042-0.337,0.127
			c-0.084,0.089-0.162,0.288-0.234,0.597c-0.317,1.439-0.607,2.351-0.869,2.736c-0.364,0.533-0.87,0.8-1.518,0.8
			c-0.584,0-1.075-0.23-1.473-0.692s-0.597-1.176-0.597-2.146c0-0.922,0.15-1.608,0.45-2.057c0.301-0.449,0.745-0.757,1.334-0.927
			l0.311,1.682c-0.263,0.072-0.463,0.208-0.604,0.41c-0.139,0.201-0.209,0.487-0.209,0.86c0,0.47,0.065,0.806,0.197,1.009
			c0.093,0.135,0.213,0.203,0.361,0.203c0.127,0,0.234-0.059,0.324-0.178c0.118-0.161,0.285-0.716,0.501-1.666
			c0.216-0.95,0.48-1.614,0.794-1.99c0.316-0.373,0.759-0.559,1.326-0.559c0.618,0,1.148,0.258,1.594,0.774
			c0.443,0.516,0.666,1.28,0.666,2.292c0,0.918-0.187,1.645-0.559,2.18C8.704,111.724,8.198,112.073,7.559,112.239z"/><path class="st4" d="M9.483,99.943h-1.01c0.36,0.246,0.644,0.568,0.852,0.968c0.207,0.4,0.311,0.822,0.311,1.267
			c0,0.453-0.1,0.859-0.299,1.219c-0.198,0.36-0.478,0.62-0.838,0.781c-0.359,0.161-0.856,0.241-1.491,0.241H2.742v-1.784H5.84
			c0.948,0,1.528-0.033,1.742-0.099c0.214-0.065,0.383-0.185,0.508-0.358s0.188-0.394,0.188-0.66c0-0.305-0.084-0.578-0.251-0.819
			s-0.374-0.406-0.622-0.495c-0.247-0.089-0.854-0.133-1.818-0.133H2.743v-1.784h6.741v1.656H9.483z"/><path class="st4" d="M9.483,94.732v1.784H2.742v-1.657H3.7c-0.452-0.284-0.751-0.539-0.895-0.765
			c-0.144-0.227-0.216-0.484-0.216-0.771c0-0.406,0.112-0.798,0.337-1.174l1.555,0.552c-0.194,0.3-0.292,0.58-0.292,0.838
			c0,0.25,0.068,0.461,0.206,0.635s0.387,0.31,0.746,0.409c0.359,0.1,1.113,0.149,2.26,0.149L9.483,94.732L9.483,94.732z"/><path class="st4" d="M9.483,89.528l-6.741,2.717v-1.873l3.44-1.27l1.148-0.368c-0.291-0.097-0.484-0.159-0.577-0.184
			c-0.19-0.059-0.381-0.123-0.571-0.19l-3.44-1.282v-1.834l6.741,2.679V89.528z"/><path class="st4" d="M1.827,84.15h-1.65v-1.784h1.65V84.15z M9.483,84.15H2.742v-1.784h6.741V84.15z"/><path class="st4" d="M9.483,78.685l-6.741,2.717V79.53l3.44-1.27l1.148-0.368c-0.291-0.097-0.484-0.159-0.577-0.184
			c-0.19-0.059-0.381-0.123-0.571-0.19l-3.44-1.282v-1.834l6.741,2.679V78.685z"/><path class="st4" d="M1.827,73.309h-1.65v-1.784h1.65V73.309z M9.483,73.309H2.742v-1.784h6.741V73.309z"/><path class="st4" d="M9.483,63.565v1.784h-3.44c-0.728,0-1.198,0.038-1.412,0.114s-0.38,0.2-0.499,0.371
			c-0.118,0.172-0.178,0.378-0.178,0.619c0,0.309,0.085,0.586,0.254,0.832c0.17,0.246,0.395,0.414,0.674,0.504
			c0.279,0.091,0.795,0.137,1.549,0.137h3.053v1.784H2.743v-1.657h0.99c-0.762-0.588-1.143-1.329-1.143-2.222
			c0-0.394,0.071-0.753,0.213-1.079s0.322-0.572,0.542-0.739c0.221-0.167,0.471-0.284,0.75-0.35
			c0.279-0.065,0.679-0.098,1.199-0.098L9.483,63.565L9.483,63.565z"/><path class="st4" d="M9.927,61.922l0.247-2.038c0.237-0.034,0.4-0.112,0.489-0.235c0.127-0.169,0.19-0.436,0.19-0.8
			c0-0.465-0.07-0.814-0.209-1.047c-0.094-0.157-0.244-0.275-0.451-0.355c-0.148-0.055-0.421-0.083-0.818-0.083H8.391
			c0.728,0.533,1.092,1.206,1.092,2.019c0,0.906-0.383,1.623-1.148,2.152c-0.605,0.415-1.359,0.622-2.26,0.622
			c-1.131,0-1.994-0.272-2.59-0.815c-0.598-0.544-0.896-1.22-0.896-2.028c0-0.833,0.366-1.521,1.099-2.063H2.742v-1.669h6.05
			c0.795,0,1.39,0.065,1.783,0.197s0.702,0.315,0.927,0.552s0.399,0.553,0.526,0.949s0.191,0.896,0.191,1.501
			c0,1.143-0.196,1.953-0.588,2.431s-0.888,0.717-1.488,0.717C10.083,61.927,10.012,61.926,9.927,61.922z M5.973,60.327
			c0.715,0,1.238-0.139,1.57-0.416c0.332-0.277,0.498-0.619,0.498-1.025c0-0.436-0.17-0.804-0.511-1.104s-0.845-0.451-1.514-0.451
			c-0.698,0-1.217,0.144-1.556,0.432c-0.338,0.288-0.508,0.652-0.508,1.092c0,0.427,0.167,0.78,0.499,1.057
			C4.784,60.189,5.291,60.327,5.973,60.327z"/></g><g><g class="st2"><path class="st3" d="M612.322,269.174l1.727-0.21c0.056,0.44,0.203,0.776,0.445,1.009c0.24,0.233,0.533,0.35,0.875,0.35
				c0.369,0,0.679-0.14,0.931-0.419c0.251-0.279,0.378-0.656,0.378-1.13c0-0.448-0.121-0.804-0.362-1.066s-0.535-0.394-0.882-0.394
				c-0.229,0-0.502,0.044-0.819,0.134l0.196-1.454c0.482,0.013,0.852-0.092,1.105-0.314c0.254-0.222,0.381-0.517,0.381-0.886
				c0-0.312-0.094-0.562-0.279-0.748c-0.187-0.187-0.434-0.279-0.743-0.279c-0.305,0-0.565,0.105-0.78,0.316
				c-0.217,0.212-0.348,0.521-0.395,0.928l-1.644-0.279c0.114-0.563,0.286-1.013,0.518-1.35c0.23-0.336,0.552-0.601,0.965-0.793
				c0.412-0.192,0.874-0.289,1.387-0.289c0.876,0,1.579,0.279,2.107,0.838c0.437,0.457,0.653,0.974,0.653,1.549
				c0,0.816-0.445,1.469-1.339,1.955c0.533,0.114,0.96,0.37,1.279,0.768s0.479,0.879,0.479,1.441c0,0.816-0.299,1.513-0.896,2.088
				c-0.597,0.576-1.339,0.863-2.228,0.863c-0.843,0-1.541-0.242-2.096-0.727C612.734,270.591,612.412,269.957,612.322,269.174z"/><path class="st3" d="M622.631,262.299c0.902,0,1.606,0.321,2.114,0.965c0.604,0.762,0.907,2.025,0.907,3.789
				c0,1.761-0.305,3.026-0.914,3.797c-0.503,0.635-1.205,0.951-2.107,0.951c-0.905,0-1.635-0.348-2.189-1.044
				s-0.832-1.937-0.832-3.723c0-1.752,0.305-3.013,0.914-3.783C621.028,262.617,621.731,262.299,622.631,262.299z M622.631,263.779
				c-0.215,0-0.408,0.069-0.577,0.207s-0.3,0.384-0.394,0.739c-0.123,0.461-0.184,1.237-0.184,2.329s0.055,1.843,0.164,2.251
				c0.11,0.408,0.249,0.68,0.416,0.815c0.168,0.136,0.359,0.203,0.574,0.203c0.217,0,0.408-0.068,0.578-0.206
				s0.301-0.384,0.394-0.739c0.122-0.457,0.185-1.232,0.185-2.324s-0.056-1.842-0.166-2.25c-0.109-0.408-0.248-0.681-0.416-0.818
				C623.039,263.848,622.848,263.779,622.631,263.779z"/></g></g><g><g class="st2"><path class="st3" d="M812.137,271.643v-1.873h-3.809v-1.561l4.037-5.91h1.498v5.903h1.155v1.567h-1.155v1.873h-1.726V271.643z
				 M812.137,268.203v-3.181l-2.139,3.181H812.137z"/><path class="st3" d="M818.885,262.299c0.9,0,1.605,0.321,2.113,0.965c0.605,0.762,0.908,2.025,0.908,3.789
				c0,1.761-0.305,3.026-0.914,3.797c-0.504,0.635-1.207,0.951-2.107,0.951c-0.906,0-1.637-0.348-2.19-1.044
				s-0.831-1.937-0.831-3.723c0-1.752,0.305-3.013,0.914-3.783C817.28,262.617,817.983,262.299,818.885,262.299z M818.885,263.779
				c-0.217,0-0.408,0.069-0.578,0.207s-0.301,0.384-0.394,0.739c-0.122,0.461-0.185,1.237-0.185,2.329s0.056,1.843,0.166,2.251
				c0.109,0.408,0.248,0.68,0.416,0.815c0.166,0.136,0.357,0.203,0.574,0.203c0.215,0,0.408-0.068,0.577-0.206
				s0.3-0.384,0.394-0.739c0.123-0.457,0.184-1.232,0.184-2.324s-0.055-1.842-0.164-2.25c-0.11-0.408-0.249-0.681-0.416-0.818
				C819.291,263.848,819.1,263.779,818.885,263.779z"/></g></g><line class="st5" x1="50.845" y1="134.94" x2="836.151" y2="134.94"/><line class="st5" x1="509.762" y1="251.607" x2="509.762" y2="2.996"/><polyline class="st1" points="836.151,251.607 50.845,251.607 50.845,2.996 	"/><path class="st6" d="M837.815,193.993h-67.123v-6.203h-13.916v-3.276h-79.455v-2.658c-3.084,0-6.166,0-9.25,0
		c-4.942,0-44.672-0.433-44.672-0.433v-1.288v-2.48h-7.283v-2.666h-12.684h-10.438l-5.771-2.902h-2.461H567.41l-4.494-2.262h-9.16
		v-4.693h-10.57v-3.543h-11.274v-4.254h-14.8v-3.897h-9.864v-4.252h-8.456v-3.898h-14.8v-3.545h-15.504v-3.188h-7.048v-3.543
		l-39.465-1.597v-2.479h-3.877v-1.773h-26.121v-2.479h-59.318v-2.658l-11.628-2.125v-4.076h-11.979v-3.898h-14.094v-4.43h-18.331
		V98.37h-8.104l-0.705-10.547c0,0-13.46-8.467-14.567-9.323h-30.479l-4.614-2.321h-6.322l-7.771-3.909v-2.4h1.283v-3.234h-6.859
		v-2.481h-5.816v-2.049h-2.359v-1.509H177.25v-2.157h-17.76v-2.587h-2.574v-4.097h-2.785v-3.128h-3.859v-4.097h-3.859v-3.019
		h-31.025l-13.143-4.853h-3.859v-3.774l-4.822-2.427v-2.857H89.81v-4.205h-3.86v-2.587h-3.214v-2.373v-2.049h-3.86v-1.833h-8.788
		l-1.077-5.895h-6.343V7.546L53.155,5.9h42.81l13.143,4.364h35.622v5.493h7.752v5.494h37.349v3.898h11.627v4.422h9.865v5.316h5.99
		v5.67h9.865v4.607h8.456v3.189h8.456v5.316h9.161v5.848h8.104v3.898h6.694v4.961h10.923v5.494l4.229,2.126v3.544h7.752v5.14
		l19.438,1.721v6.381h35.257v2.658h35.988v1.594h6.342v2.305h9.512v2.303h8.457v2.127h13.035v2.479h12.334v2.48h9.865v3.014h15.502
		v2.303h8.104v3.367h13.74v2.836h11.98v4.074h12.332v4.607h15.147v3.366h9.515v3.722h10.332v3.723h5.987v8.91h4.582v2.834h9.514
		v3.189h9.513v2.127h7.049v2.393h17.586v2.127h8.455v1.684h15.953v1.507h12.762v2.479h37.348v3.189h9.513v2.039h4.934v2.567h9.515
		v1.771h18.85v2.658h48.271v1.948h80.159v12.831L837.815,193.993L837.815,193.993z"/><path class="st7" d="M837.815,193.993h-67.123v-6.202h-13.918v-3.277h-79.453v-2.658c-3.084,0-6.166,0-9.25,0
		c-4.942,0-44.672-0.432-44.672-0.432v-1.289v-2.48h-7.283v-2.665h-12.684h-10.438l-5.771-2.903h-2.461H567.41l-4.494-2.261h-9.16
		v-4.693h-10.57v-3.544h-11.274v-4.253h-14.8v-3.897h-9.864v-4.253h-8.456v-3.898h-14.8v-3.544h-15.504v-3.188h-7.048v-3.544
		l-39.465-1.596v-2.48h-3.877v-1.772h-26.121v-2.479h-59.318v-2.658l-11.628-2.126v-4.076h-11.979v-3.898h-14.094v-4.43h-18.331
		V98.361h-8.104l-0.705-10.547c0,0-13.46-8.467-14.567-9.322h-30.479l-4.614-2.32h-6.322l-7.771-3.909v-2.4h1.283v-3.234h-6.859
		v-2.481h-5.816v-2.049h-2.359V60.59H177.25v-2.157h-17.76v-2.587h-2.574v-4.097h-2.785V48.62h-3.859v-4.097h-3.859v-3.019h-31.025
		l-13.143-4.853h-3.859v-3.774l-4.822-2.427v-2.857H89.81v-4.205h-3.86v-2.587h-3.214v-2.373V16.38h-3.86v-1.833h-8.788
		l-1.077-5.895h-6.343V7.539l-9.513-1.646"/><polyline class="st8" points="53.149,5.892 95.959,5.892 109.101,10.256 144.723,10.256 144.723,15.748 152.475,15.748 
		152.475,21.243 189.824,21.243 189.824,25.141 201.451,25.141 201.451,29.571 211.316,29.571 211.316,34.887 217.306,34.887 
		217.306,40.558 227.172,40.558 227.172,45.164 235.628,45.164 235.628,48.354 244.084,48.354 244.084,53.671 253.245,53.671 
		253.245,59.519 261.348,59.519 261.348,63.417 268.043,63.417 268.043,68.379 278.966,68.379 278.966,73.871 283.193,75.999 
		283.193,79.542 290.946,79.542 290.946,84.68 310.383,86.404 310.383,92.783 345.639,92.783 345.639,95.44 381.627,95.44 
		381.627,97.035 387.969,97.035 387.969,99.34 397.481,99.34 397.481,101.642 405.938,101.642 405.938,103.77 418.973,103.77 
		418.973,106.25 431.307,106.25 431.307,108.731 441.172,108.731 441.172,111.744 456.674,111.744 456.674,114.047 464.78,114.047 
		464.78,117.413 478.52,117.413 478.52,120.249 490.5,120.249 490.5,124.325 502.832,124.325 502.832,128.931 517.981,128.931 
		517.981,132.299 527.494,132.299 527.494,136.02 537.826,136.02 537.826,139.741 543.815,139.741 543.815,148.651 548.397,148.651 
		548.397,151.486 557.91,151.486 557.91,154.676 567.422,154.676 567.422,156.802 574.471,156.802 574.471,159.195 592.057,159.195 
		592.057,161.322 600.512,161.322 600.512,163.005 616.465,163.005 616.465,164.51 629.227,164.51 629.227,166.992 666.574,166.992 
		666.574,170.181 676.086,170.181 676.086,172.219 681.02,172.219 681.02,174.789 690.533,174.789 690.533,176.56 709.383,176.56 
		709.383,179.219 757.654,179.219 757.654,181.168 837.815,181.168 	"/><polygon class="st9" points="603.51,95.759 537.826,139.741 614.621,122.968 	"/><polygon class="st10" points="432.387,147.831 459.535,134.534 450.039,166.883 	"/><circle class="st11" cx="649.982" cy="90.552" r="51.524"/><g><g class="st2"><path class="st12" d="M630.823,90.535v5.225h-19.72c0.214-1.975,0.854-3.847,1.922-5.615c1.068-1.769,3.177-4.114,6.326-7.037
				c2.536-2.362,4.091-3.964,4.665-4.805c0.774-1.161,1.161-2.309,1.161-3.443c0-1.254-0.338-2.219-1.011-2.893
				c-0.675-0.674-1.605-1.012-2.793-1.012c-1.175,0-2.108,0.354-2.803,1.062c-0.694,0.708-1.095,1.882-1.201,3.523l-5.605-0.561
				c0.333-3.096,1.382-5.318,3.144-6.667c1.762-1.348,3.963-2.021,6.605-2.021c2.896,0,5.172,0.781,6.827,2.342
				c1.655,1.562,2.482,3.504,2.482,5.826c0,1.321-0.237,2.579-0.711,3.773c-0.474,1.195-1.225,2.446-2.252,3.754
				c-0.681,0.868-1.909,2.115-3.684,3.744c-1.775,1.628-2.899,2.709-3.373,3.242c-0.474,0.534-0.858,1.055-1.151,1.562
				L630.823,90.535L630.823,90.535z"/><path class="st12" d="M634.707,88.214l5.605-0.581c0.16,1.269,0.634,2.272,1.422,3.013c0.787,0.741,1.694,1.111,2.723,1.111
				c1.174,0,2.168-0.477,2.982-1.432c0.814-0.954,1.221-2.393,1.221-4.314c0-1.801-0.403-3.152-1.211-4.054
				c-0.808-0.9-1.858-1.351-3.152-1.351c-1.615,0-3.063,0.714-4.345,2.142l-4.564-0.661l2.883-15.274h14.874v5.265h-10.609
				l-0.881,4.985c1.254-0.627,2.535-0.94,3.844-0.94c2.495,0,4.61,0.907,6.346,2.723c1.734,1.814,2.603,4.171,2.603,7.066
				c0,2.416-0.7,4.571-2.103,6.467c-1.908,2.589-4.558,3.883-7.947,3.883c-2.709,0-4.918-0.727-6.627-2.182
				C636.062,92.624,635.041,90.668,634.707,88.214z"/><path class="st12" d="M658.631,95.759v-5.625h5.625v5.625H658.631z"/><path class="st12" d="M673.645,79.925c-1.455-0.613-2.512-1.457-3.172-2.532c-0.662-1.074-0.992-2.252-0.992-3.533
				c0-2.188,0.764-3.997,2.293-5.425c1.527-1.429,3.699-2.143,6.516-2.143c2.789,0,4.955,0.714,6.496,2.143
				c1.543,1.428,2.312,3.236,2.312,5.425c0,1.361-0.354,2.572-1.061,3.634c-0.707,1.061-1.701,1.871-2.982,2.432
				c1.627,0.654,2.865,1.609,3.713,2.863c0.848,1.255,1.271,2.703,1.271,4.344c0,2.71-0.864,4.912-2.592,6.607
				c-1.729,1.694-4.028,2.542-6.897,2.542c-2.669,0-4.892-0.7-6.667-2.103c-2.096-1.654-3.143-3.924-3.143-6.807
				c0-1.588,0.394-3.046,1.182-4.374C670.709,81.671,671.949,80.645,673.645,79.925z M674.285,86.831
				c0,1.549,0.397,2.756,1.191,3.624c0.794,0.867,1.785,1.301,2.973,1.301c1.162,0,2.123-0.417,2.883-1.251
				c0.762-0.834,1.142-2.039,1.142-3.614c0-1.374-0.388-2.479-1.161-3.312c-0.774-0.834-1.756-1.252-2.943-1.252
				c-1.375,0-2.398,0.475-3.072,1.422C674.623,84.697,674.285,85.724,674.285,86.831z M674.807,74.258
				c0,1.121,0.316,1.995,0.951,2.622c0.633,0.628,1.477,0.941,2.531,0.941c1.068,0,1.922-0.316,2.562-0.951
				c0.641-0.634,0.961-1.512,0.961-2.633c0-1.054-0.316-1.897-0.951-2.532c-0.633-0.634-1.471-0.95-2.512-0.95
				c-1.081,0-1.941,0.32-2.582,0.961S674.807,73.206,674.807,74.258z"/></g></g><g><g class="st2"><path class="st12" d="M616.848,106.116h2.402v1.345c0.859-1.045,1.884-1.567,3.071-1.567c0.631,0,1.179,0.13,1.642,0.39
				c0.465,0.26,0.845,0.652,1.142,1.178c0.433-0.525,0.899-0.918,1.401-1.178c0.5-0.26,1.035-0.39,1.604-0.39
				c0.724,0,1.336,0.147,1.837,0.44c0.501,0.294,0.875,0.726,1.123,1.295c0.179,0.42,0.269,1.101,0.269,2.041v6.299h-2.606v-5.631
				c0-0.978-0.09-1.608-0.27-1.893c-0.241-0.371-0.612-0.557-1.113-0.557c-0.365,0-0.709,0.111-1.029,0.334
				c-0.322,0.223-0.555,0.549-0.696,0.979c-0.143,0.43-0.214,1.108-0.214,2.036v4.731h-2.606v-5.399c0-0.959-0.046-1.577-0.14-1.855
				c-0.092-0.278-0.236-0.485-0.431-0.622c-0.195-0.136-0.46-0.203-0.794-0.203c-0.402,0-0.764,0.107-1.085,0.324
				s-0.552,0.529-0.691,0.938c-0.139,0.408-0.208,1.085-0.208,2.031v4.787h-2.607L616.848,106.116L616.848,106.116z"/><path class="st12" d="M633.334,110.903c0-0.866,0.213-1.704,0.64-2.515c0.427-0.81,1.031-1.428,1.813-1.855
				c0.783-0.426,1.656-0.64,2.621-0.64c1.49,0,2.712,0.484,3.664,1.452c0.953,0.968,1.43,2.19,1.43,3.669
				c0,1.49-0.481,2.727-1.443,3.706c-0.961,0.98-2.172,1.471-3.632,1.471c-0.903,0-1.765-0.204-2.583-0.612
				c-0.82-0.408-1.443-1.007-1.87-1.795C633.547,112.995,633.334,112.034,633.334,110.903z M636.006,111.042
				c0,0.977,0.231,1.725,0.695,2.244s1.035,0.779,1.717,0.779c0.68,0,1.25-0.26,1.711-0.779s0.691-1.273,0.691-2.264
				c0-0.965-0.23-1.707-0.691-2.227s-1.031-0.779-1.711-0.779c-0.682,0-1.253,0.26-1.717,0.779S636.006,110.064,636.006,111.042z"/><path class="st12" d="M654.504,115.968h-2.606v-5.028c0-1.063-0.056-1.752-0.167-2.064c-0.111-0.312-0.292-0.555-0.543-0.728
				c-0.25-0.174-0.552-0.26-0.904-0.26c-0.451,0-0.857,0.123-1.215,0.371c-0.359,0.247-0.605,0.574-0.738,0.982
				s-0.199,1.163-0.199,2.264v4.463h-2.607v-9.853h2.422v1.447c0.859-1.113,1.941-1.67,3.247-1.67c0.575,0,1.101,0.104,1.577,0.311
				c0.477,0.208,0.836,0.472,1.081,0.794c0.244,0.321,0.414,0.686,0.51,1.094c0.097,0.408,0.144,0.993,0.144,1.754v6.123H654.504z"
				/><path class="st12" d="M661.666,106.116v2.078h-1.781v3.971c0,0.804,0.018,1.272,0.051,1.405c0.035,0.134,0.111,0.243,0.232,0.33
				c0.121,0.086,0.268,0.129,0.441,0.129c0.24,0,0.59-0.083,1.048-0.25l0.223,2.022c-0.606,0.26-1.293,0.39-2.06,0.39
				c-0.471,0-0.895-0.079-1.271-0.236c-0.377-0.158-0.654-0.362-0.83-0.612c-0.176-0.251-0.299-0.589-0.366-1.017
				c-0.056-0.303-0.083-0.915-0.083-1.836v-4.296h-1.197v-2.078h1.197v-1.958l2.615-1.521v3.479L661.666,106.116L661.666,106.116z"
				/><path class="st12" d="M666.073,102.368v5.001c0.841-0.984,1.847-1.476,3.015-1.476c0.6,0,1.142,0.111,1.624,0.334
				s0.846,0.507,1.091,0.854c0.244,0.347,0.41,0.729,0.5,1.15s0.135,1.073,0.135,1.958v5.779h-2.607v-5.205
				c0-1.032-0.049-1.688-0.148-1.967c-0.099-0.277-0.273-0.499-0.523-0.663c-0.25-0.163-0.564-0.245-0.941-0.245
				c-0.434,0-0.82,0.104-1.16,0.314c-0.34,0.211-0.59,0.528-0.746,0.951c-0.158,0.424-0.237,1.05-0.237,1.879v4.936h-2.606v-13.601
				h2.603V102.368z"/><path class="st12" d="M674.163,113.158l2.616-0.399c0.111,0.507,0.337,0.893,0.678,1.155c0.34,0.263,0.816,0.395,1.428,0.395
				c0.674,0,1.182-0.124,1.521-0.371c0.229-0.174,0.344-0.405,0.344-0.696c0-0.198-0.062-0.362-0.186-0.491
				c-0.13-0.124-0.421-0.238-0.872-0.344c-2.103-0.464-3.437-0.888-3.999-1.271c-0.779-0.531-1.168-1.271-1.168-2.217
				c0-0.854,0.336-1.571,1.011-2.152c0.674-0.581,1.72-0.872,3.136-0.872c1.348,0,2.35,0.22,3.006,0.659
				c0.655,0.438,1.107,1.088,1.354,1.947l-2.458,0.455c-0.105-0.384-0.305-0.678-0.599-0.881c-0.294-0.205-0.714-0.307-1.257-0.307
				c-0.688,0-1.179,0.096-1.476,0.287c-0.198,0.137-0.297,0.312-0.297,0.529c0,0.186,0.087,0.344,0.26,0.473
				c0.235,0.174,1.047,0.418,2.436,0.733c1.388,0.315,2.357,0.702,2.908,1.159c0.544,0.465,0.816,1.11,0.816,1.939
				c0,0.903-0.378,1.68-1.132,2.328c-0.755,0.65-1.871,0.975-3.35,0.975c-1.342,0-2.404-0.272-3.187-0.816
				S674.404,114.091,674.163,113.158z"/></g></g><circle class="st13" cx="408.012" cy="187.857" r="51.525"/><g><g class="st2"><path class="st12" d="M388.854,187.84v5.225h-19.719c0.213-1.975,0.854-3.847,1.922-5.615c1.066-1.769,3.176-4.114,6.326-7.037
				c2.535-2.362,4.09-3.964,4.664-4.805c0.773-1.161,1.161-2.309,1.161-3.443c0-1.254-0.337-2.219-1.011-2.893
				s-1.605-1.012-2.793-1.012c-1.175,0-2.109,0.354-2.803,1.062s-1.095,1.882-1.201,3.523l-5.605-0.561
				c0.334-3.096,1.381-5.318,3.143-6.667c1.762-1.348,3.965-2.021,6.607-2.021c2.896,0,5.171,0.781,6.826,2.342
				c1.654,1.562,2.482,3.504,2.482,5.826c0,1.321-0.237,2.579-0.711,3.773c-0.474,1.195-1.225,2.446-2.252,3.754
				c-0.681,0.868-1.908,2.115-3.684,3.744c-1.775,1.628-2.9,2.709-3.373,3.242c-0.475,0.534-0.857,1.055-1.151,1.562L388.854,187.84
				L388.854,187.84z"/><path class="st12" d="M402.166,163.595c2.844,0,5.065,1.015,6.667,3.043c1.908,2.402,2.862,6.387,2.862,11.951
				c0,5.553-0.961,9.543-2.883,11.973c-1.588,2.002-3.803,3.002-6.646,3.002c-2.855,0-5.158-1.097-6.906-3.293
				c-1.748-2.195-2.623-6.108-2.623-11.741c0-5.525,0.961-9.502,2.883-11.932C397.108,164.596,399.324,163.595,402.166,163.595z
				 M402.166,168.259c-0.68,0-1.287,0.218-1.821,0.651s-0.948,1.211-1.241,2.332c-0.387,1.455-0.58,3.903-0.58,7.347
				s0.173,5.81,0.52,7.098c0.348,1.288,0.784,2.146,1.312,2.572c0.526,0.428,1.131,0.641,1.811,0.641
				c0.682,0,1.288-0.217,1.822-0.65c0.533-0.434,0.947-1.211,1.241-2.332c0.387-1.441,0.581-3.885,0.581-7.328
				s-0.174-5.809-0.521-7.097c-0.347-1.287-0.783-2.148-1.311-2.582S402.848,168.259,402.166,168.259z"/><path class="st12" d="M416.66,193.064v-5.625h5.626v5.625H416.66z"/><path class="st12" d="M426.971,186.277l5.445-0.6c0.133,1.107,0.48,1.929,1.041,2.462c0.561,0.534,1.301,0.801,2.223,0.801
				c1.16,0,2.148-0.533,2.963-1.602c0.813-1.067,1.334-3.283,1.561-6.646c-1.414,1.642-3.183,2.462-5.305,2.462
				c-2.309,0-4.301-0.891-5.977-2.672c-1.674-1.782-2.512-4.101-2.512-6.957c0-2.976,0.884-5.375,2.652-7.197
				c1.769-1.821,4.021-2.732,6.757-2.732c2.976,0,5.419,1.151,7.327,3.453c1.908,2.303,2.863,6.09,2.863,11.361
				c0,5.365-0.995,9.236-2.983,11.611c-1.989,2.376-4.578,3.563-7.768,3.563c-2.296,0-4.151-0.61-5.565-1.832
				C428.279,190.533,427.371,188.707,426.971,186.277z M439.703,173.986c0-1.815-0.418-3.224-1.252-4.225s-1.798-1.502-2.893-1.502
				c-1.041,0-1.904,0.411-2.592,1.231c-0.688,0.821-1.031,2.166-1.031,4.034c0,1.896,0.373,3.287,1.121,4.174
				c0.747,0.888,1.682,1.332,2.803,1.332c1.081,0,1.992-0.428,2.732-1.281C439.332,176.896,439.703,175.641,439.703,173.986z"/></g></g><g><g class="st2"><path class="st12" d="M374.878,203.419h2.403v1.345c0.859-1.045,1.883-1.567,3.07-1.567c0.631,0,1.178,0.13,1.643,0.39
				c0.463,0.26,0.844,0.652,1.141,1.178c0.433-0.525,0.9-0.918,1.4-1.178c0.502-0.26,1.036-0.39,1.605-0.39
				c0.724,0,1.336,0.147,1.837,0.44c0.501,0.294,0.875,0.726,1.122,1.295c0.18,0.42,0.27,1.101,0.27,2.041v6.299h-2.607v-5.631
				c0-0.978-0.09-1.608-0.269-1.893c-0.241-0.371-0.612-0.557-1.113-0.557c-0.365,0-0.708,0.111-1.03,0.334
				c-0.321,0.223-0.553,0.549-0.695,0.979s-0.213,1.108-0.213,2.036v4.731h-2.607v-5.399c0-0.959-0.047-1.577-0.139-1.855
				c-0.094-0.278-0.237-0.485-0.432-0.622c-0.195-0.136-0.459-0.203-0.793-0.203c-0.402,0-0.765,0.107-1.086,0.324
				c-0.322,0.217-0.552,0.529-0.691,0.938c-0.139,0.408-0.209,1.085-0.209,2.031v4.787h-2.606v-9.853H374.878z"/><path class="st12" d="M391.363,208.206c0-0.866,0.214-1.704,0.641-2.515c0.427-0.81,1.031-1.428,1.814-1.855
				c0.781-0.426,1.655-0.64,2.62-0.64c1.49,0,2.712,0.484,3.665,1.452c0.951,0.968,1.428,2.19,1.428,3.669
				c0,1.49-0.48,2.727-1.441,3.706c-0.963,0.98-2.174,1.471-3.633,1.471c-0.903,0-1.764-0.204-2.584-0.612
				c-0.819-0.408-1.442-1.007-1.869-1.795C391.577,210.298,391.363,209.339,391.363,208.206z M394.035,208.345
				c0,0.977,0.232,1.725,0.696,2.244s1.036,0.779,1.716,0.779c0.681,0,1.252-0.26,1.713-0.779c0.46-0.52,0.69-1.273,0.69-2.264
				c0-0.965-0.23-1.707-0.69-2.227c-0.461-0.52-1.032-0.779-1.713-0.779c-0.68,0-1.252,0.26-1.716,0.779
				S394.035,207.368,394.035,208.345z"/><path class="st12" d="M412.535,213.271h-2.607v-5.028c0-1.063-0.056-1.752-0.167-2.064c-0.111-0.312-0.292-0.555-0.543-0.728
				c-0.25-0.174-0.552-0.26-0.904-0.26c-0.452,0-0.856,0.123-1.216,0.371c-0.358,0.247-0.604,0.574-0.737,0.982
				s-0.199,1.163-0.199,2.264v4.463h-2.606v-9.853h2.421v1.447c0.859-1.113,1.942-1.67,3.247-1.67c0.575,0,1.101,0.104,1.577,0.311
				c0.476,0.208,0.837,0.472,1.081,0.794c0.244,0.321,0.414,0.686,0.51,1.094s0.145,0.993,0.145,1.754v6.123H412.535z"/><path class="st12" d="M419.697,203.419v2.078h-1.781v3.971c0,0.804,0.017,1.272,0.051,1.405c0.033,0.134,0.111,0.243,0.232,0.33
				c0.119,0.086,0.267,0.129,0.439,0.129c0.242,0,0.591-0.083,1.049-0.25l0.223,2.022c-0.606,0.26-1.293,0.39-2.06,0.39
				c-0.47,0-0.894-0.079-1.271-0.236c-0.378-0.158-0.654-0.362-0.83-0.612c-0.178-0.251-0.299-0.589-0.367-1.017
				c-0.056-0.303-0.084-0.915-0.084-1.836v-4.296h-1.196v-2.078h1.196v-1.958l2.617-1.521v3.479L419.697,203.419L419.697,203.419z"
				/><path class="st12" d="M424.104,199.672v5.001c0.841-0.984,1.846-1.476,3.016-1.476c0.6,0,1.141,0.111,1.623,0.334
				s0.846,0.507,1.09,0.854s0.412,0.729,0.502,1.15c0.089,0.421,0.134,1.073,0.134,1.958v5.779h-2.606v-5.205
				c0-1.032-0.051-1.688-0.148-1.967c-0.1-0.277-0.273-0.499-0.525-0.663c-0.25-0.163-0.564-0.245-0.941-0.245
				c-0.433,0-0.819,0.104-1.159,0.314c-0.341,0.211-0.589,0.528-0.747,0.951c-0.158,0.424-0.236,1.05-0.236,1.879v4.936H421.5
				v-13.601h2.604V199.672z"/><path class="st12" d="M432.194,210.461l2.616-0.399c0.111,0.507,0.337,0.893,0.677,1.155s0.816,0.395,1.43,0.395
				c0.674,0,1.181-0.124,1.521-0.371c0.229-0.174,0.343-0.405,0.343-0.696c0-0.198-0.062-0.362-0.186-0.491
				c-0.13-0.124-0.421-0.238-0.872-0.344c-2.104-0.464-3.436-0.888-3.998-1.271c-0.779-0.531-1.17-1.271-1.17-2.217
				c0-0.854,0.338-1.571,1.012-2.152s1.719-0.872,3.136-0.872c1.349,0,2.351,0.22,3.006,0.659c0.655,0.438,1.106,1.088,1.354,1.947
				l-2.459,0.455c-0.105-0.384-0.305-0.678-0.598-0.881c-0.294-0.205-0.713-0.307-1.258-0.307c-0.686,0-1.178,0.096-1.475,0.287
				c-0.198,0.137-0.297,0.312-0.297,0.529c0,0.186,0.086,0.344,0.26,0.473c0.234,0.174,1.047,0.418,2.436,0.733
				s2.357,0.702,2.908,1.159c0.544,0.465,0.816,1.11,0.816,1.939c0,0.903-0.377,1.68-1.132,2.328
				c-0.755,0.65-1.871,0.975-3.349,0.975c-1.343,0-2.404-0.272-3.188-0.816C432.946,212.133,432.435,211.395,432.194,210.461z"/></g></g><line class="st14" x1="50.845" y1="321.745" x2="75.316" y2="321.745"/><line class="st15" x1="50.845" y1="338.607" x2="75.316" y2="338.607"/></g></svg>

