<?xml version="1.0" encoding="utf-8"?>
<!-- Generator: Adobe Illustrator 17.0.1, SVG Export Plug-In . SVG Version: 6.00 Build 0)  -->
<!DOCTYPE svg PUBLIC "-//W3C//DTD SVG 1.1//EN" "http://www.w3.org/Graphics/SVG/1.1/DTD/svg11.dtd">
<svg version="1.1" id="Layer_1" xmlns="http://www.w3.org/2000/svg" xmlns:xlink="http://www.w3.org/1999/xlink" x="0px" y="0px"
	 width="719px" height="45px" viewBox="0 0 719 45" style="enable-background:new 0 0 719 45;" xml:space="preserve">
<style type="text/css">
	.st0{enable-background:new    ;}
	.st1{fill:#60A296;}
</style>
<g class="st0">
	<path class="st1" d="M0.03,19.476c0-9.266,6.721-16.37,16.322-16.37c9.553,0,16.081,7.153,16.081,16.37
		c0,9.265-6.72,16.369-16.321,16.369C6.559,35.845,0.03,28.693,0.03,19.476z M26.816,19.476c0-6.577-4.464-11.329-10.561-11.329
		c-6.145,0-10.609,4.704-10.609,11.329c0,6.576,4.464,11.328,10.609,11.328C22.352,30.804,26.816,26.1,26.816,19.476z"/>
	<path class="st1" d="M35.886,40.358h3.12V18.66h-3.12v-4.416h8.161v2.399c1.632-1.536,3.408-2.784,6.241-2.784
		c5.472,0,9.601,4.465,9.601,10.801c0,6.097-4.368,10.993-9.937,10.993c-2.256,0-4.128-0.815-5.712-2.016v6.721h3.408v4.32H35.886
		L35.886,40.358L35.886,40.358z M54.511,24.708c0-4.033-2.4-6.337-5.376-6.337c-1.968,0-3.504,0.864-4.896,2.112v9.024
		c1.344,0.96,2.976,1.633,4.896,1.633C51.919,31.141,54.511,28.884,54.511,24.708z"/>
	<path class="st1" d="M66.75,32.773c-0.48-0.864-0.72-1.969-0.72-3.312V18.66h-4.08v-4.416h4.08V9.827l5.185-2.256v6.673H77.6v4.416
		h-6.385v9.793c0,0.672,0.096,1.104,0.336,1.536c0.384,0.672,1.152,1.008,2.208,1.008c1.344,0,2.88-0.528,4.128-1.104l-0.432,4.513
		c-1.44,0.721-3.121,1.248-5.041,1.248C69.87,35.653,67.806,34.789,66.75,32.773z"/>
	<path class="st1" d="M80.765,30.949h3.216V18.66h-3.216v-4.416h8.449v16.705h3.12v4.32H80.765V30.949z M82.589,7.571
		c0-1.92,1.68-3.456,3.552-3.456s3.457,1.536,3.457,3.456s-1.68,3.456-3.553,3.456C84.173,11.027,82.589,9.491,82.589,7.571z"/>
	<path class="st1" d="M110.431,21.732c-1.68,0-2.832-1.008-2.832-2.592c0-0.337,0-0.625,0.096-0.912
		c-0.864-0.337-1.92-0.528-2.976-0.528c-2.353,0-3.504,1.056-3.504,2.16c0,1.2,1.2,1.824,4.417,2.688
		c5.041,1.344,7.969,2.592,7.969,6.384c0,4.417-4.128,6.769-8.881,6.769c-3.216,0-6.673-1.151-8.065-2.544
		c-0.864-0.864-1.2-1.728-1.2-2.832c0-1.536,1.152-2.832,2.784-2.832c1.44,0,2.832,0.96,2.832,2.784
		c0,0.288-0.048,0.576-0.096,0.864c0.96,0.384,2.304,0.672,3.792,0.672c2.112,0,3.84-0.721,3.84-2.257
		c0-1.056-0.912-1.68-4.128-2.544c-5.809-1.536-8.257-2.928-8.257-6.528c0-3.265,2.688-6.673,8.593-6.673
		c2.544,0,5.617,0.96,7.057,2.4c0.768,0.768,1.152,1.68,1.152,2.688C113.023,20.58,111.967,21.732,110.431,21.732z"/>
	<path class="st1" d="M120.749,32.773c-0.48-0.864-0.72-1.969-0.72-3.312V18.66h-4.08v-4.416h4.08V9.827l5.185-2.256v6.673h6.385
		v4.416h-6.385v9.793c0,0.672,0.096,1.104,0.336,1.536c0.384,0.672,1.152,1.008,2.208,1.008c1.344,0,2.88-0.528,4.128-1.104
		l-0.432,4.513c-1.44,0.721-3.121,1.248-5.041,1.248C123.87,35.653,121.806,34.789,120.749,32.773z"/>
	<path class="st1" d="M134.908,29.748c0-3.937,3.456-6.337,8.449-6.337c2.16,0,4.176,0.288,5.329,0.576v-1.68
		c0-1.248-0.288-2.208-0.816-2.881c-0.864-1.104-2.256-1.536-4.128-1.536c-0.912,0-1.584,0.145-2.064,0.337
		c0.096,0.287,0.192,0.768,0.192,1.056c0,1.584-1.248,2.736-2.832,2.736s-2.784-1.104-2.784-2.832c0-2.593,2.64-5.329,8.353-5.329
		c3.601,0,6.048,1.009,7.537,2.833c1.104,1.344,1.632,3.168,1.632,5.28v8.977h3.12v4.32h-8.113v-2.305
		c-1.68,1.44-4.224,2.688-7.057,2.688C138.124,35.653,134.908,33.685,134.908,29.748z M148.686,29.989v-3.312
		c-1.2-0.288-2.688-0.48-4.321-0.48c-2.544,0-4.08,1.152-4.08,3.072c0,1.681,1.248,2.593,3.12,2.593S147.101,31.141,148.686,29.989z
		"/>
	<path class="st1" d="M159.484,18.66h-2.448v-4.416h10.753v4.176h-3.024l5.041,10.945l5.041-10.945h-3.168v-4.176h10.705v4.416
		h-2.448l-8.353,16.993h-3.744L159.484,18.66z"/>
	<path class="st1" d="M184.156,30.949h3.216V18.66h-3.216v-4.416h8.449v16.705h3.12v4.32h-11.569V30.949z M185.979,7.571
		c0-1.92,1.68-3.456,3.552-3.456s3.457,1.536,3.457,3.456s-1.68,3.456-3.553,3.456C187.564,11.027,185.979,9.491,185.979,7.571z"/>
	<path class="st1" d="M206.908,17.603c2.016-1.968,4.272-3.744,7.345-3.744c2.496,0,4.32,1.009,5.424,2.688
		c0.72,1.152,1.104,2.593,1.104,4.32v10.081h3.12v4.32h-11.233v-4.32h2.88v-8.785c0-0.863-0.144-1.632-0.432-2.16
		c-0.48-0.912-1.344-1.392-2.592-1.392c-1.824,0-3.744,1.056-5.424,2.448v9.889h2.88v4.32h-11.233v-4.32h3.12V18.659h-3.12v-4.416
		h8.161V17.603z"/>
	<path class="st1" d="M236.475,4.546V0.13h8.353v17.281c1.968-1.872,4.177-3.553,7.153-3.553c2.256,0,4.032,0.816,5.136,2.257
		c0.912,1.2,1.393,2.832,1.393,4.752v10.081h3.12v4.32h-11.233v-4.32h2.88v-8.785c0-1.151-0.24-1.968-0.672-2.544
		c-0.528-0.672-1.344-1.008-2.352-1.008c-1.824,0-3.745,1.056-5.425,2.448v9.889h2.88v4.32h-11.233v-4.32h3.12V4.546H236.475z"/>
	<path class="st1" d="M269.164,26.533c0.72,3.264,3.408,4.704,6.913,4.704c2.544,0,5.185-0.816,7.633-2.208l-0.432,4.704
		c-2.208,1.296-4.896,1.92-7.969,1.92c-6.864,0-11.617-4.32-11.617-10.849c0-5.952,4.176-10.945,10.657-10.945
		c6.721,0,10.225,4.513,10.225,10.081c0,0.816-0.096,1.872-0.24,2.593C284.334,26.533,269.164,26.533,269.164,26.533z
		 M269.116,22.884h10.225c-0.096-2.881-1.968-4.801-5.04-4.801C271.996,18.083,269.691,19.427,269.116,22.884z"/>
	<path class="st1" d="M287.307,30.949h3.264V4.546h-3.264V0.13h8.497v30.818h3.121v4.32h-11.617v-4.319H287.307z"/>
	<path class="st1" d="M300.987,40.358h3.12V18.66h-3.12v-4.416h8.161v2.399c1.632-1.536,3.408-2.784,6.241-2.784
		c5.472,0,9.601,4.465,9.601,10.801c0,6.097-4.368,10.993-9.937,10.993c-2.256,0-4.128-0.815-5.712-2.016v6.721h3.408v4.32h-11.761
		v-4.32H300.987z M319.613,24.708c0-4.033-2.4-6.337-5.376-6.337c-1.968,0-3.504,0.864-4.896,2.112v9.024
		c1.344,0.96,2.976,1.633,4.896,1.633C317.021,31.141,319.613,28.884,319.613,24.708z"/>
	<path class="st1" d="M343.517,21.732c-1.68,0-2.832-1.008-2.832-2.592c0-0.337,0-0.625,0.096-0.912
		c-0.864-0.337-1.92-0.528-2.976-0.528c-2.353,0-3.504,1.056-3.504,2.16c0,1.2,1.2,1.824,4.417,2.688
		c5.041,1.344,7.969,2.592,7.969,6.384c0,4.417-4.128,6.769-8.881,6.769c-3.216,0-6.673-1.151-8.065-2.544
		c-0.864-0.864-1.2-1.728-1.2-2.832c0-1.536,1.152-2.832,2.784-2.832c1.44,0,2.832,0.96,2.832,2.784
		c0,0.288-0.048,0.576-0.096,0.864c0.96,0.384,2.304,0.672,3.792,0.672c2.112,0,3.84-0.721,3.84-2.257
		c0-1.056-0.912-1.68-4.128-2.544c-5.809-1.536-8.257-2.928-8.257-6.528c0-3.265,2.688-6.673,8.593-6.673
		c2.544,0,5.617,0.96,7.057,2.4c0.768,0.768,1.152,1.68,1.152,2.688C346.108,20.58,345.052,21.732,343.517,21.732z"/>
	<path class="st1" d="M360.41,40.358h3.12V18.66h-3.12v-4.416h8.161v2.399c1.632-1.536,3.408-2.784,6.241-2.784
		c5.472,0,9.601,4.465,9.601,10.801c0,6.097-4.368,10.993-9.937,10.993c-2.256,0-4.128-0.815-5.712-2.016v6.721h3.408v4.32h-11.761
		v-4.32H360.41z M379.035,24.708c0-4.033-2.4-6.337-5.376-6.337c-1.968,0-3.504,0.864-4.896,2.112v9.024
		c1.344,0.96,2.976,1.633,4.896,1.633C376.444,31.141,379.035,28.884,379.035,24.708z"/>
	<path class="st1" d="M406.251,17.316c0,1.775-1.392,3.264-3.121,3.264c-1.584,0-2.64-0.912-3.072-1.872
		c-1.488,0.528-3.216,2.16-4.176,3.984v8.257h3.648v4.32H387.53v-4.32h3.12V18.66h-3.12v-4.416h8.161v4.752
		c1.776-2.832,3.984-5.137,6.672-5.137C404.956,13.859,406.251,15.443,406.251,17.316z"/>
	<path class="st1" d="M407.833,24.756c0-5.761,4.32-10.897,11.185-10.897c6.961,0,11.186,5.041,11.186,10.897
		c0,5.761-4.32,10.896-11.186,10.896C412.057,35.653,407.833,30.613,407.833,24.756z M424.827,24.756c0-3.841-2.4-6.528-5.809-6.528
		s-5.808,2.688-5.808,6.528s2.4,6.528,5.808,6.528S424.827,28.596,424.827,24.756z"/>
	<path class="st1" d="M433.08,30.949h3.265V4.546h-3.265V0.13h8.497v30.818h3.12v4.32H433.08V30.949z"/>
	<path class="st1" d="M447.626,24.756c0-5.761,4.32-10.897,11.185-10.897c6.961,0,11.185,5.041,11.185,10.897
		c0,5.761-4.32,10.896-11.185,10.896C451.85,35.653,447.626,30.613,447.626,24.756z M464.618,24.756
		c0-3.841-2.399-6.528-5.809-6.528c-3.408,0-5.808,2.688-5.808,6.528s2.399,6.528,5.808,6.528
		C462.22,31.285,464.618,28.596,464.618,24.756z"/>
	<path class="st1" d="M481.274,17.603c2.016-1.968,4.272-3.744,7.345-3.744c2.496,0,4.32,1.009,5.425,2.688
		c0.72,1.152,1.104,2.593,1.104,4.32v10.081h3.12v4.32h-11.233v-4.32h2.881v-8.785c0-0.863-0.145-1.632-0.432-2.16
		c-0.48-0.912-1.344-1.392-2.593-1.392c-1.823,0-3.744,1.056-5.425,2.448v9.889h2.881v4.32h-11.232v-4.32h3.119V18.659h-3.119
		v-4.416h8.16L481.274,17.603L481.274,17.603z"/>
	<path class="st1" d="M521.212,35.317c0,2.593-0.672,4.753-1.969,6.337c-1.729,2.112-4.465,3.216-7.873,3.216
		c-3.647,0-6.768-1.151-8.256-2.64c-0.816-0.816-1.152-1.729-1.152-2.736c0-1.488,1.104-2.929,2.832-2.929
		c1.633,0,2.929,1.152,2.929,2.736c0,0.24-0.048,0.624-0.097,0.816c0.865,0.288,1.873,0.528,3.121,0.528
		c1.871,0,3.359-0.576,4.271-1.824c0.625-0.864,0.961-2.064,0.961-3.648v-3.024c-1.584,1.584-3.264,2.688-6.049,2.688
		c-5.328,0-9.601-4.081-9.601-10.321c0-6.001,4.368-10.657,9.841-10.657c2.688,0,4.607,1.057,6,2.257v-1.872h8.16v4.416h-3.119
		v16.657H521.212z M505.705,24.468c0,3.84,2.353,5.952,5.568,5.952c1.777,0,3.361-0.815,4.705-2.063v-8.354
		c-1.248-0.96-2.832-1.632-4.705-1.632C508.059,18.372,505.705,20.484,505.705,24.468z"/>
	<path class="st1" d="M552.89,21.732c-1.68,0-2.832-1.008-2.832-2.592c0-0.337,0-0.625,0.096-0.912
		c-0.863-0.337-1.92-0.528-2.977-0.528c-2.352,0-3.504,1.056-3.504,2.16c0,1.2,1.201,1.824,4.416,2.688
		c5.041,1.344,7.969,2.592,7.969,6.384c0,4.417-4.127,6.769-8.881,6.769c-3.215,0-6.672-1.151-8.064-2.544
		c-0.863-0.864-1.199-1.728-1.199-2.832c0-1.536,1.152-2.832,2.783-2.832c1.441,0,2.834,0.96,2.834,2.784
		c0,0.288-0.049,0.576-0.098,0.864c0.961,0.384,2.305,0.672,3.793,0.672c2.111,0,3.84-0.721,3.84-2.257
		c0-1.056-0.912-1.68-4.127-2.544c-5.809-1.536-8.258-2.928-8.258-6.528c0-3.265,2.688-6.673,8.594-6.673
		c2.543,0,5.615,0.96,7.057,2.4c0.768,0.768,1.15,1.68,1.15,2.688C555.481,20.58,554.427,21.732,552.89,21.732z"/>
	<path class="st1" d="M562.585,32.869c-0.672-1.104-1.055-2.544-1.055-4.225V18.66h-3.121v-4.416h8.354v13.104
		c0,0.912,0.143,1.584,0.432,2.16c0.48,0.912,1.344,1.393,2.592,1.393c1.824,0,3.744-1.057,5.424-2.448V18.66h-3.264v-4.416h8.496
		v16.705h3.121v4.32h-8.16v-3.36c-2.018,1.968-4.273,3.744-7.346,3.744C565.515,35.653,563.642,34.597,562.585,32.869z"/>
	<path class="st1" d="M605.019,17.316c0,1.775-1.393,3.264-3.119,3.264c-1.586,0-2.641-0.912-3.072-1.872
		c-1.488,0.528-3.217,2.16-4.178,3.984v8.257h3.648v4.32h-12v-4.32h3.119V18.66h-3.119v-4.416h8.16v4.752
		c1.775-2.832,3.984-5.137,6.672-5.137C603.724,13.859,605.019,15.443,605.019,17.316z"/>
	<path class="st1" d="M608.378,18.66h-2.449v-4.416h10.754v4.176h-3.025l5.041,10.945l5.041-10.945h-3.17v-4.176h10.705v4.416
		h-2.447l-8.354,16.993h-3.744L608.378,18.66z"/>
	<path class="st1" d="M633.048,30.949h3.217V18.66h-3.217v-4.416h8.449v16.705h3.121v4.32h-11.57L633.048,30.949L633.048,30.949z
		 M634.872,7.571c0-1.92,1.68-3.456,3.553-3.456s3.457,1.536,3.457,3.456s-1.682,3.456-3.553,3.456
		C636.456,11.027,634.872,9.491,634.872,7.571z"/>
	<path class="st1" d="M648.169,18.66h-2.449v-4.416h10.754v4.176h-3.025l5.041,10.945l5.041-10.945h-3.17v-4.176h10.705v4.416
		h-2.447l-8.354,16.993h-3.744L648.169,18.66z"/>
	<path class="st1" d="M672.311,29.748c0-3.937,3.457-6.337,8.449-6.337c2.16,0,4.178,0.288,5.328,0.576v-1.68
		c0-1.248-0.287-2.208-0.814-2.881c-0.865-1.104-2.258-1.536-4.129-1.536c-0.912,0-1.584,0.145-2.064,0.337
		c0.096,0.287,0.191,0.768,0.191,1.056c0,1.584-1.248,2.736-2.832,2.736s-2.783-1.104-2.783-2.832c0-2.593,2.639-5.329,8.352-5.329
		c3.602,0,6.049,1.009,7.537,2.833c1.104,1.344,1.633,3.168,1.633,5.28v8.977h3.119v4.32h-8.111v-2.305
		c-1.682,1.44-4.225,2.688-7.057,2.688C675.528,35.653,672.311,33.685,672.311,29.748z M686.089,29.989v-3.312
		c-1.199-0.288-2.688-0.48-4.32-0.48c-2.543,0-4.08,1.152-4.08,3.072c0,1.681,1.248,2.593,3.121,2.593
		C682.681,31.861,684.505,31.141,686.089,29.989z"/>
	<path class="st1" d="M695.976,30.949h3.266V4.546h-3.266V0.13h8.498v30.818h3.119v4.32h-11.617V30.949z"/>
	<path class="st1" d="M711.097,31.716c0-2.208,1.775-3.984,3.936-3.984s3.938,1.776,3.938,3.984c0,2.16-1.777,3.937-3.938,3.937
		S711.097,33.876,711.097,31.716z"/>
</g>
<g>
</g>
<g>
</g>
<g>
</g>
<g>
</g>
<g>
</g>
<g>
</g>
</svg>
