<svg version="1.1" id="Layer_1" xmlns="http://www.w3.org/2000/svg" xmlns:xlink="http://www.w3.org/1999/xlink" x="0px" y="0px"
	 width="717px" height="358px" viewBox="0 0 717 358" style="enable-background:new 0 0 717 358;" xml:space="preserve"><style type="text/css">
	.st0{fill:#ECF7F3;}
	.st1{fill:none;stroke:#E9DA47;stroke-width:2.5851;stroke-miterlimit:10;stroke-dasharray:4.4316,4.4316;}
	.st2{fill:#FFFFFF;stroke:#E2D21F;stroke-width:4.4316;stroke-miterlimit:10;}
	.st3{enable-background:new    ;}
	.st4{fill:#6DADA2;}
	.st5{fill:#4E4E50;}
	.st6{fill:#828385;}
	.st7{fill:#FFFFFF;}
	.st8{fill:none;stroke:#D6ECE6;stroke-width:2.9544;stroke-miterlimit:10;}
	.st9{fill:#6CACA1;}
</style><g><rect x="11.866" y="261.275" class="st0" width="557.27" height="70.176"/><polyline class="st1" points="427.045,189.271 545.222,189.271 545.222,87.898 	"/><circle class="st2" cx="543.912" cy="168.14" r="56.526"/><g><g class="st3"><path class="st4" d="M522.73,178.945v5.836h-22.025c0.238-2.206,0.955-4.297,2.147-6.271c1.192-1.976,3.548-4.596,7.065-7.86
				c2.832-2.638,4.568-4.427,5.21-5.366c0.864-1.297,1.297-2.578,1.297-3.846c0-1.401-0.376-2.479-1.13-3.231
				c-0.752-0.752-1.792-1.129-3.119-1.129c-1.311,0-2.355,0.396-3.13,1.186s-1.222,2.102-1.341,3.935l-6.262-0.626
				c0.373-3.458,1.543-5.939,3.511-7.445s4.427-2.259,7.379-2.259c3.234,0,5.776,0.872,7.624,2.616
				c1.849,1.744,2.773,3.913,2.773,6.507c0,1.476-0.266,2.881-0.794,4.215c-0.529,1.334-1.368,2.731-2.516,4.192
				c-0.761,0.97-2.132,2.363-4.114,4.182s-3.238,3.026-3.768,3.622c-0.529,0.597-0.958,1.178-1.285,1.744h12.478V178.945z"/><path class="st4" d="M527.112,177.201l6.081-0.671c0.149,1.237,0.537,2.154,1.163,2.75c0.626,0.597,1.453,0.895,2.482,0.895
				c1.297,0,2.399-0.596,3.309-1.788s1.49-3.667,1.744-7.424c-1.58,1.833-3.555,2.75-5.926,2.75c-2.578,0-4.804-0.995-6.674-2.984
				c-1.871-1.99-2.807-4.58-2.807-7.771c0-3.324,0.988-6.004,2.963-8.038c1.975-2.035,4.49-3.053,7.547-3.053
				c3.324,0,6.051,1.286,8.184,3.857c2.131,2.571,3.197,6.801,3.197,12.689c0,5.992-1.111,10.315-3.332,12.969
				s-5.113,3.979-8.676,3.979c-2.563,0-4.636-0.682-6.215-2.046C528.572,181.953,527.56,179.914,527.112,177.201z M541.333,163.473
				c0-2.027-0.467-3.601-1.398-4.719c-0.932-1.117-2.008-1.677-3.23-1.677c-1.162,0-2.128,0.459-2.896,1.375
				c-0.769,0.917-1.151,2.419-1.151,4.506c0,2.117,0.417,3.671,1.252,4.662c0.834,0.991,1.878,1.487,3.131,1.487
				c1.207,0,2.225-0.478,3.052-1.432S541.333,165.32,541.333,163.473z"/><path class="st4" d="M552.491,160.096c0-2.937,0.645-5.112,1.934-6.529c1.289-1.416,3.037-2.124,5.243-2.124
				c2.28,0,4.065,0.704,5.355,2.113c1.289,1.408,1.935,3.589,1.935,6.54c0,2.938-0.646,5.113-1.935,6.529
				c-1.29,1.416-3.038,2.124-5.243,2.124c-2.281,0-4.066-0.704-5.355-2.113C553.136,165.227,552.491,163.048,552.491,160.096z
				 M557.388,160.051c0,2.132,0.246,3.563,0.737,4.294c0.372,0.536,0.887,0.805,1.543,0.805c0.671,0,1.192-0.269,1.565-0.805
				c0.477-0.73,0.715-2.162,0.715-4.294c0-2.131-0.238-3.555-0.715-4.271c-0.373-0.551-0.895-0.827-1.565-0.827
				c-0.656,0-1.171,0.269-1.543,0.805C557.634,156.488,557.388,157.92,557.388,160.051z M564.453,186.033h-4.651l17.463-34.591
				h4.518L564.453,186.033z M574.605,177.425c0-2.937,0.645-5.112,1.934-6.529c1.289-1.416,3.053-2.124,5.289-2.124
				c2.25,0,4.021,0.708,5.311,2.124c1.289,1.417,1.934,3.593,1.934,6.529c0,2.951-0.645,5.136-1.934,6.552
				c-1.29,1.416-3.038,2.124-5.244,2.124c-2.28,0-4.066-0.708-5.355-2.124S574.605,180.376,574.605,177.425z M579.501,177.402
				c0,2.132,0.246,3.556,0.738,4.271c0.373,0.552,0.887,0.828,1.543,0.828c0.67,0,1.186-0.269,1.543-0.806
				c0.492-0.729,0.737-2.161,0.737-4.293s-0.238-3.562-0.716-4.293c-0.372-0.537-0.895-0.805-1.564-0.805
				c-0.671,0-1.186,0.268-1.543,0.805C579.747,173.84,579.501,175.27,579.501,177.402z"/></g></g><g class="st3"><path class="st5" d="M615.605,160.757v-16.919h2.239v16.919H615.605z"/><path class="st5" d="M621.524,160.757v-12.256h1.87v1.742c0.899-1.346,2.2-2.02,3.9-2.02c0.739,0,1.417,0.133,2.037,0.398
			c0.619,0.266,1.083,0.613,1.391,1.044c0.308,0.432,0.522,0.942,0.646,1.535c0.078,0.385,0.116,1.058,0.116,2.02v7.536h-2.077
			v-7.455c0-0.847-0.081-1.479-0.242-1.898c-0.162-0.419-0.449-0.754-0.86-1.004s-0.894-0.375-1.448-0.375
			c-0.885,0-1.648,0.28-2.291,0.842s-0.963,1.628-0.963,3.197v6.693L621.524,160.757L621.524,160.757z"/><path class="st5" d="M642.667,156.267l2.043,0.266c-0.223,1.408-0.795,2.51-1.714,3.307c-0.919,0.796-2.048,1.194-3.387,1.194
			c-1.678,0-3.026-0.549-4.046-1.645c-1.02-1.097-1.528-2.668-1.528-4.715c0-1.323,0.22-2.481,0.657-3.474
			c0.439-0.992,1.106-1.736,2.003-2.233c0.896-0.496,1.871-0.744,2.925-0.744c1.332,0,2.42,0.337,3.267,1.01
			c0.847,0.674,1.389,1.629,1.627,2.868l-2.02,0.312c-0.192-0.823-0.532-1.442-1.021-1.858c-0.489-0.415-1.08-0.623-1.771-0.623
			c-1.047,0-1.897,0.375-2.551,1.125c-0.654,0.75-0.981,1.938-0.981,3.561c0,1.646,0.315,2.843,0.946,3.589
			c0.631,0.747,1.454,1.12,2.47,1.12c0.815,0,1.497-0.25,2.043-0.751C642.175,158.075,642.521,157.306,642.667,156.267z"/><path class="st5" d="M646.464,160.757v-12.256h1.869v1.857c0.478-0.869,0.918-1.442,1.322-1.719s0.848-0.416,1.332-0.416
			c0.701,0,1.412,0.224,2.136,0.67l-0.716,1.927c-0.508-0.3-1.016-0.45-1.523-0.45c-0.453,0-0.861,0.137-1.223,0.41
			c-0.361,0.272-0.619,0.651-0.773,1.137c-0.23,0.738-0.346,1.546-0.346,2.423v6.417H646.464z"/><path class="st5" d="M662.747,156.809l2.147,0.266c-0.339,1.254-0.966,2.228-1.882,2.92c-0.915,0.692-2.084,1.039-3.508,1.039
			c-1.793,0-3.214-0.553-4.264-1.656c-1.051-1.104-1.576-2.652-1.576-4.646c0-2.062,0.531-3.662,1.593-4.801
			s2.438-1.708,4.132-1.708c1.639,0,2.977,0.558,4.016,1.674c1.039,1.115,1.559,2.685,1.559,4.708c0,0.123-0.004,0.308-0.012,0.554
			h-9.141c0.077,1.347,0.458,2.378,1.143,3.094c0.686,0.715,1.539,1.073,2.562,1.073c0.762,0,1.412-0.2,1.95-0.601
			C662.005,158.326,662.433,157.687,662.747,156.809z M655.927,153.451h6.844c-0.092-1.03-0.354-1.804-0.784-2.319
			c-0.662-0.8-1.521-1.2-2.573-1.2c-0.955,0-1.757,0.319-2.406,0.958C656.356,151.528,655.997,152.383,655.927,153.451z"/><path class="st5" d="M675.501,159.245c-0.77,0.654-1.511,1.115-2.223,1.385c-0.711,0.27-1.475,0.404-2.29,0.404
			c-1.347,0-2.382-0.329-3.104-0.987c-0.724-0.657-1.085-1.498-1.085-2.521c0-0.6,0.137-1.148,0.409-1.645
			c0.273-0.496,0.631-0.895,1.074-1.194c0.441-0.3,0.939-0.527,1.494-0.681c0.408-0.108,1.023-0.212,1.846-0.312
			c1.678-0.2,2.912-0.438,3.705-0.716c0.008-0.284,0.012-0.466,0.012-0.542c0-0.847-0.196-1.443-0.588-1.789
			c-0.531-0.47-1.32-0.704-2.367-0.704c-0.977,0-1.697,0.171-2.163,0.514c-0.466,0.342-0.81,0.948-1.033,1.817l-2.03-0.277
			c0.184-0.869,0.488-1.571,0.911-2.105c0.423-0.535,1.034-0.946,1.835-1.235c0.8-0.288,1.727-0.433,2.781-0.433
			c1.047,0,1.896,0.123,2.551,0.369c0.653,0.247,1.135,0.557,1.442,0.93s0.522,0.844,0.646,1.413
			c0.07,0.354,0.104,0.993,0.104,1.916v2.77c0,1.932,0.044,3.152,0.133,3.664s0.263,1.003,0.524,1.472h-2.169
			C675.7,160.326,675.562,159.822,675.501,159.245z M675.327,154.605c-0.754,0.308-1.885,0.569-3.393,0.785
			c-0.854,0.123-1.459,0.262-1.812,0.415c-0.354,0.154-0.627,0.379-0.818,0.676c-0.193,0.296-0.289,0.625-0.289,0.986
			c0,0.554,0.209,1.016,0.629,1.385s1.033,0.554,1.841,0.554c0.8,0,1.512-0.175,2.135-0.524c0.624-0.351,1.081-0.829,1.374-1.438
			c0.223-0.469,0.334-1.161,0.334-2.077v-0.762H675.327z"/><path class="st5" d="M679.816,157.098l2.054-0.323c0.115,0.823,0.438,1.454,0.965,1.893c0.526,0.438,1.264,0.658,2.209,0.658
			c0.954,0,1.662-0.194,2.124-0.583s0.692-0.845,0.692-1.368c0-0.469-0.204-0.838-0.611-1.107c-0.285-0.185-0.993-0.419-2.124-0.704
			c-1.523-0.385-2.579-0.717-3.168-0.998s-1.034-0.67-1.339-1.166c-0.304-0.496-0.455-1.044-0.455-1.645
			c0-0.546,0.125-1.052,0.375-1.518c0.25-0.465,0.59-0.852,1.021-1.159c0.322-0.238,0.764-0.44,1.32-0.606
			c0.559-0.165,1.156-0.248,1.795-0.248c0.962,0,1.807,0.139,2.533,0.416c0.727,0.276,1.264,0.651,1.609,1.125
			c0.347,0.473,0.586,1.105,0.717,1.898l-2.031,0.276c-0.093-0.631-0.36-1.123-0.803-1.477c-0.442-0.354-1.067-0.531-1.875-0.531
			c-0.954,0-1.635,0.158-2.043,0.474s-0.611,0.685-0.611,1.107c0,0.27,0.084,0.512,0.254,0.728c0.169,0.223,0.435,0.407,0.796,0.554
			c0.208,0.077,0.819,0.254,1.835,0.53c1.47,0.393,2.494,0.714,3.076,0.964c0.58,0.25,1.036,0.614,1.367,1.091
			c0.33,0.478,0.496,1.069,0.496,1.777c0,0.692-0.201,1.345-0.605,1.956s-0.986,1.085-1.748,1.42
			c-0.762,0.334-1.624,0.502-2.586,0.502c-1.592,0-2.807-0.331-3.641-0.993C680.58,159.38,680.048,158.398,679.816,157.098z"/><path class="st5" d="M700.855,156.809l2.146,0.266c-0.338,1.254-0.965,2.228-1.881,2.92s-2.085,1.039-3.508,1.039
			c-1.793,0-3.215-0.553-4.265-1.656c-1.05-1.104-1.575-2.652-1.575-4.646c0-2.062,0.531-3.662,1.592-4.801
			c1.062-1.139,2.439-1.708,4.133-1.708c1.639,0,2.977,0.558,4.016,1.674c1.039,1.115,1.558,2.685,1.558,4.708
			c0,0.123-0.004,0.308-0.011,0.554h-9.141c0.076,1.347,0.457,2.378,1.143,3.094c0.685,0.715,1.539,1.073,2.562,1.073
			c0.762,0,1.411-0.2,1.949-0.601C700.112,158.326,700.539,157.687,700.855,156.809z M694.034,153.451h6.844
			c-0.092-1.03-0.354-1.804-0.785-2.319c-0.662-0.8-1.52-1.2-2.573-1.2c-0.954,0-1.757,0.319-2.406,0.958
			C694.463,151.528,694.104,152.383,694.034,153.451z"/></g><g class="st3"><path class="st5" d="M614.97,174.59v-2.39h2.078v2.39H614.97z M614.97,189.119v-12.256h2.078v12.256H614.97z"/><path class="st5" d="M620.21,189.119v-12.256h1.869v1.742c0.9-1.346,2.2-2.02,3.9-2.02c0.738,0,1.418,0.133,2.037,0.398
			s1.083,0.613,1.391,1.044c0.308,0.432,0.523,0.942,0.646,1.535c0.076,0.385,0.115,1.058,0.115,2.02v7.536h-2.077v-7.455
			c0-0.847-0.081-1.479-0.243-1.898c-0.161-0.419-0.447-0.754-0.859-1.004s-0.895-0.375-1.448-0.375c-0.885,0-1.648,0.28-2.29,0.842
			c-0.643,0.562-0.965,1.628-0.965,3.197v6.693L620.21,189.119L620.21,189.119z"/><path class="st5" d="M639.09,185.461l2.054-0.323c0.115,0.823,0.438,1.454,0.965,1.893c0.526,0.438,1.264,0.658,2.209,0.658
			c0.954,0,1.662-0.194,2.124-0.583s0.692-0.845,0.692-1.368c0-0.469-0.204-0.838-0.611-1.107c-0.285-0.185-0.993-0.419-2.124-0.704
			c-1.523-0.385-2.579-0.717-3.168-0.998s-1.034-0.67-1.339-1.166c-0.304-0.496-0.455-1.044-0.455-1.645
			c0-0.546,0.125-1.052,0.375-1.518c0.25-0.465,0.59-0.852,1.021-1.159c0.322-0.238,0.764-0.44,1.32-0.606
			c0.559-0.165,1.156-0.248,1.795-0.248c0.962,0,1.807,0.139,2.533,0.416c0.727,0.276,1.264,0.651,1.609,1.125
			c0.347,0.473,0.586,1.105,0.717,1.898l-2.031,0.276c-0.093-0.631-0.36-1.123-0.803-1.477c-0.442-0.354-1.067-0.531-1.875-0.531
			c-0.954,0-1.635,0.158-2.043,0.474s-0.611,0.685-0.611,1.107c0,0.27,0.084,0.512,0.254,0.728c0.169,0.223,0.435,0.407,0.796,0.554
			c0.208,0.077,0.819,0.254,1.835,0.53c1.47,0.393,2.494,0.714,3.076,0.964c0.58,0.25,1.036,0.614,1.367,1.091
			c0.33,0.478,0.496,1.069,0.496,1.777c0,0.692-0.201,1.345-0.605,1.956s-0.986,1.085-1.748,1.42
			c-0.762,0.334-1.624,0.502-2.586,0.502c-1.592,0-2.807-0.331-3.641-0.993S639.321,186.761,639.09,185.461z"/><path class="st5" d="M659.771,189.119v-1.801c-0.954,1.386-2.25,2.078-3.889,2.078c-0.725,0-1.398-0.139-2.025-0.416
			c-0.628-0.276-1.094-0.625-1.396-1.044c-0.305-0.42-0.518-0.933-0.641-1.541c-0.085-0.407-0.127-1.054-0.127-1.938v-7.594h2.077
			v6.797c0,1.085,0.042,1.816,0.127,2.193c0.13,0.546,0.407,0.975,0.831,1.286c0.423,0.312,0.945,0.468,1.569,0.468
			c0.623,0,1.208-0.16,1.754-0.479c0.546-0.318,0.933-0.754,1.159-1.304c0.228-0.55,0.342-1.349,0.342-2.395v-6.566h2.076v12.256
			L659.771,189.119L659.771,189.119z"/><path class="st5" d="M664.859,189.119v-12.256h1.87v1.857c0.477-0.869,0.917-1.442,1.321-1.719
			c0.403-0.277,0.849-0.416,1.333-0.416c0.699,0,1.412,0.224,2.135,0.67l-0.715,1.927c-0.508-0.3-1.016-0.45-1.523-0.45
			c-0.455,0-0.862,0.137-1.225,0.41c-0.361,0.272-0.619,0.651-0.772,1.137c-0.231,0.738-0.347,1.546-0.347,2.423v6.417H664.859z"/><path class="st5" d="M676.158,189.119l-4.662-12.256h2.192l2.631,7.34c0.285,0.792,0.547,1.615,0.785,2.47
			c0.185-0.646,0.442-1.424,0.773-2.331l2.724-7.479h2.135l-4.64,12.256H676.158z"/><path class="st5" d="M684.583,174.59v-2.39h2.077v2.39H684.583z M684.583,189.119v-12.256h2.077v12.256H684.583z"/><path class="st5" d="M693.227,189.119l-4.662-12.256h2.192l2.631,7.34c0.285,0.792,0.547,1.615,0.785,2.47
			c0.185-0.646,0.442-1.424,0.773-2.331l2.724-7.479h2.135l-4.64,12.256H693.227z"/><path class="st5" d="M709.638,187.607c-0.77,0.654-1.511,1.115-2.223,1.385c-0.711,0.27-1.475,0.404-2.29,0.404
			c-1.347,0-2.382-0.329-3.104-0.987c-0.724-0.657-1.085-1.498-1.085-2.521c0-0.6,0.137-1.148,0.409-1.645
			c0.273-0.496,0.631-0.895,1.074-1.194c0.441-0.3,0.939-0.527,1.494-0.681c0.408-0.108,1.023-0.212,1.846-0.312
			c1.678-0.2,2.912-0.438,3.705-0.716c0.008-0.284,0.012-0.466,0.012-0.542c0-0.847-0.196-1.443-0.588-1.789
			c-0.531-0.47-1.32-0.704-2.367-0.704c-0.977,0-1.697,0.171-2.163,0.514c-0.466,0.342-0.81,0.948-1.033,1.817l-2.03-0.277
			c0.184-0.869,0.488-1.571,0.911-2.105c0.423-0.535,1.034-0.946,1.835-1.235c0.8-0.288,1.727-0.433,2.781-0.433
			c1.047,0,1.896,0.123,2.551,0.369c0.653,0.247,1.135,0.557,1.442,0.93s0.522,0.844,0.646,1.413
			c0.07,0.354,0.104,0.993,0.104,1.916v2.77c0,1.932,0.044,3.152,0.133,3.664s0.263,1.003,0.524,1.472h-2.169
			C709.837,188.688,709.698,188.184,709.638,187.607z M709.464,182.968c-0.754,0.308-1.885,0.569-3.393,0.785
			c-0.854,0.123-1.459,0.262-1.812,0.415c-0.354,0.154-0.627,0.379-0.818,0.676c-0.193,0.296-0.289,0.625-0.289,0.986
			c0,0.554,0.209,1.016,0.629,1.385s1.033,0.554,1.841,0.554c0.8,0,1.512-0.175,2.135-0.524c0.624-0.351,1.081-0.829,1.374-1.438
			c0.223-0.469,0.334-1.161,0.334-2.077v-0.762H709.464z"/><path class="st5" d="M714.738,189.119V172.2h2.077v16.919H714.738z"/></g><rect x="30.527" y="152.13" class="st6" width="393.564" height="66.598"/><g><g class="st3"><path class="st7" d="M42.88,178.767v-12.688h4.111c1.558,0,2.574,0.063,3.047,0.19c0.727,0.19,1.336,0.604,1.826,1.241
				c0.491,0.638,0.736,1.462,0.736,2.472c0,0.779-0.142,1.434-0.424,1.965s-0.642,0.947-1.078,1.251
				c-0.436,0.303-0.878,0.503-1.329,0.602c-0.611,0.121-1.497,0.182-2.657,0.182h-1.67v4.786H42.88V178.767z M45.442,168.225v3.601
				h1.402c1.01,0,1.685-0.066,2.025-0.199s0.607-0.341,0.801-0.623c0.193-0.283,0.29-0.612,0.29-0.987
				c0-0.461-0.135-0.842-0.407-1.143c-0.271-0.3-0.614-0.487-1.03-0.562c-0.306-0.058-0.92-0.086-1.844-0.086h-1.237V168.225z"/><path class="st7" d="M54.687,178.767v-12.688h2.432v12.688H54.687z"/><path class="st7" d="M61.429,172.38l-2.207-0.398c0.248-0.889,0.675-1.546,1.281-1.974c0.605-0.427,1.506-0.64,2.7-0.64
				c1.085,0,1.893,0.128,2.424,0.385c0.531,0.257,0.904,0.583,1.121,0.979c0.216,0.395,0.325,1.12,0.325,2.177l-0.026,2.839
				c0,0.808,0.039,1.403,0.117,1.787c0.078,0.384,0.224,0.795,0.437,1.233h-2.406c-0.063-0.161-0.141-0.401-0.233-0.719
				c-0.041-0.144-0.069-0.239-0.087-0.285c-0.415,0.404-0.86,0.707-1.333,0.909c-0.474,0.201-0.979,0.303-1.515,0.303
				c-0.946,0-1.692-0.257-2.237-0.771s-0.818-1.163-0.818-1.947c0-0.52,0.124-0.982,0.372-1.39c0.248-0.406,0.596-0.719,1.043-0.935
				c0.447-0.217,1.092-0.405,1.935-0.567c1.137-0.213,1.924-0.412,2.363-0.597v-0.242c0-0.468-0.115-0.801-0.346-1
				c-0.23-0.199-0.667-0.299-1.307-0.299c-0.433,0-0.771,0.085-1.013,0.256C61.775,171.654,61.579,171.953,61.429,172.38z
				 M64.684,174.353c-0.312,0.104-0.805,0.228-1.48,0.372c-0.675,0.145-1.116,0.285-1.324,0.424
				c-0.317,0.226-0.476,0.511-0.476,0.857c0,0.34,0.127,0.635,0.381,0.883s0.577,0.372,0.969,0.372c0.438,0,0.857-0.145,1.255-0.433
				c0.294-0.22,0.487-0.488,0.58-0.806c0.063-0.207,0.095-0.603,0.095-1.186V174.353z"/><path class="st7" d="M77.485,172.293l-2.397,0.433c-0.081-0.479-0.264-0.839-0.549-1.081c-0.286-0.243-0.657-0.364-1.112-0.364
				c-0.606,0-1.089,0.21-1.45,0.628s-0.541,1.118-0.541,2.099c0,1.091,0.183,1.861,0.549,2.312c0.367,0.45,0.858,0.675,1.476,0.675
				c0.461,0,0.839-0.131,1.134-0.394s0.502-0.714,0.623-1.354l2.389,0.406c-0.249,1.097-0.725,1.925-1.428,2.484
				c-0.704,0.56-1.647,0.84-2.831,0.84c-1.344,0-2.417-0.425-3.215-1.272c-0.799-0.849-1.199-2.022-1.199-3.522
				c0-1.518,0.401-2.699,1.203-3.545s1.887-1.268,3.254-1.268c1.119,0,2.009,0.24,2.67,0.723
				C76.722,170.572,77.196,171.306,77.485,172.293z"/><path class="st7" d="M84.652,175.842l2.423,0.407c-0.312,0.889-0.804,1.565-1.476,2.029c-0.672,0.465-1.514,0.697-2.523,0.697
				c-1.598,0-2.781-0.522-3.549-1.567c-0.605-0.836-0.909-1.893-0.909-3.167c0-1.523,0.398-2.717,1.194-3.579
				c0.796-0.863,1.803-1.294,3.021-1.294c1.368,0,2.446,0.451,3.237,1.354c0.791,0.902,1.168,2.286,1.134,4.15H81.11
				c0.018,0.721,0.213,1.282,0.589,1.683c0.375,0.401,0.842,0.602,1.402,0.602c0.381,0,0.701-0.104,0.961-0.312
				C84.323,176.639,84.519,176.304,84.652,175.842z M84.79,173.384c-0.017-0.704-0.199-1.239-0.545-1.605s-0.767-0.55-1.264-0.55
				c-0.531,0-0.969,0.193-1.315,0.58s-0.517,0.912-0.511,1.575H84.79z"/><path class="st7" d="M89.084,178.767v-12.688h2.432v4.569c0.75-0.854,1.639-1.28,2.666-1.28c1.119,0,2.045,0.405,2.778,1.216
				s1.099,1.975,1.099,3.492c0,1.569-0.374,2.778-1.121,3.627c-0.748,0.848-1.655,1.272-2.722,1.272
				c-0.525,0-1.043-0.132-1.554-0.395c-0.511-0.262-0.951-0.65-1.32-1.164v1.351L89.084,178.767L89.084,178.767z M91.499,173.973
				c0,0.952,0.15,1.656,0.45,2.111c0.421,0.646,0.98,0.97,1.679,0.97c0.537,0,0.994-0.229,1.372-0.688
				c0.378-0.458,0.567-1.181,0.567-2.168c0-1.05-0.19-1.808-0.571-2.271c-0.381-0.465-0.869-0.697-1.463-0.697
				c-0.583,0-1.067,0.227-1.454,0.68C91.692,172.361,91.499,173.049,91.499,173.973z"/><path class="st7" d="M99.453,174.042c0-0.808,0.199-1.59,0.597-2.346c0.398-0.756,0.962-1.333,1.692-1.731
				s1.545-0.597,2.445-0.597c1.391,0,2.53,0.451,3.419,1.354c0.889,0.902,1.333,2.044,1.333,3.423c0,1.391-0.449,2.543-1.346,3.458
				c-0.897,0.914-2.027,1.372-3.389,1.372c-0.842,0-1.646-0.19-2.41-0.571c-0.765-0.381-1.346-0.939-1.744-1.675
				C99.651,175.993,99.453,175.097,99.453,174.042z M101.945,174.172c0,0.911,0.216,1.609,0.649,2.095
				c0.433,0.484,0.967,0.727,1.602,0.727c0.634,0,1.167-0.242,1.597-0.727s0.645-1.189,0.645-2.112c0-0.9-0.215-1.593-0.645-2.077
				c-0.43-0.485-0.962-0.728-1.597-0.728c-0.635,0-1.168,0.242-1.602,0.728C102.162,172.561,101.945,173.26,101.945,174.172z"/><path class="st7" d="M119.801,182.498h-1.67c-0.883-1.333-1.555-2.718-2.017-4.154c-0.462-1.438-0.692-2.828-0.692-4.172
				c0-1.668,0.286-3.246,0.857-4.735c0.496-1.292,1.125-2.483,1.887-3.574h1.662c-0.791,1.748-1.334,3.235-1.631,4.462
				s-0.446,2.526-0.446,3.899c0,0.946,0.088,1.916,0.264,2.908s0.417,1.936,0.723,2.83
				C118.939,180.551,119.293,181.395,119.801,182.498z"/><path class="st7" d="M125.921,178.767v-2.554h-5.193v-2.128l5.505-8.059h2.042v8.05h1.575v2.138h-1.575v2.554L125.921,178.767
				L125.921,178.767z M125.921,174.076v-4.336l-2.917,4.336H125.921z"/><path class="st7" d="M135.122,166.026c1.229,0,2.19,0.438,2.882,1.316c0.825,1.038,1.238,2.761,1.238,5.167
				c0,2.4-0.416,4.126-1.247,5.176c-0.687,0.865-1.645,1.299-2.874,1.299c-1.235,0-2.23-0.475-2.986-1.424
				c-0.756-0.949-1.134-2.642-1.134-5.077c0-2.389,0.416-4.108,1.247-5.158C132.935,166.46,133.893,166.026,135.122,166.026z
				 M135.122,168.043c-0.294,0-0.557,0.095-0.788,0.282s-0.41,0.523-0.537,1.008c-0.167,0.629-0.251,1.688-0.251,3.177
				c0,1.488,0.075,2.512,0.225,3.068c0.15,0.557,0.339,0.928,0.567,1.112s0.489,0.276,0.783,0.276c0.294,0,0.557-0.094,0.788-0.281
				c0.231-0.188,0.41-0.523,0.537-1.008c0.167-0.623,0.251-1.68,0.251-3.168c0-1.489-0.075-2.512-0.225-3.068
				c-0.15-0.557-0.339-0.929-0.567-1.116S135.416,168.043,135.122,168.043z"/><path class="st7" d="M141.388,178.767v-2.433h2.432v2.433H141.388z"/><path class="st7" d="M145.846,175.833l2.354-0.26c0.058,0.479,0.208,0.834,0.45,1.065c0.242,0.23,0.562,0.346,0.961,0.346
				c0.502,0,0.929-0.23,1.281-0.692s0.577-1.419,0.675-2.873c-0.612,0.709-1.376,1.064-2.294,1.064
				c-0.998,0-1.859-0.386-2.583-1.156c-0.724-0.77-1.086-1.772-1.086-3.007c0-1.287,0.382-2.324,1.147-3.112
				c0.765-0.787,1.738-1.182,2.921-1.182c1.287,0,2.342,0.498,3.167,1.493c0.825,0.996,1.238,2.633,1.238,4.912
				c0,2.319-0.43,3.993-1.29,5.021s-1.979,1.54-3.358,1.54c-0.992,0-1.794-0.264-2.406-0.792
				C146.412,177.673,146.019,176.884,145.846,175.833z M151.351,170.518c0-0.784-0.181-1.394-0.541-1.826
				c-0.361-0.433-0.778-0.649-1.251-0.649c-0.45,0-0.824,0.178-1.121,0.533c-0.297,0.354-0.446,0.936-0.446,1.744
				c0,0.819,0.161,1.421,0.484,1.804c0.323,0.385,0.727,0.576,1.212,0.576c0.467,0,0.861-0.185,1.182-0.554
				S151.351,171.234,151.351,170.518z"/><path class="st7" d="M155.67,169.212c0-1.137,0.25-1.979,0.749-2.527s1.176-0.822,2.03-0.822c0.883,0,1.574,0.272,2.073,0.818
				c0.499,0.545,0.749,1.389,0.749,2.531c0,1.137-0.25,1.979-0.749,2.527c-0.499,0.549-1.176,0.822-2.03,0.822
				c-0.883,0-1.574-0.272-2.073-0.817C155.919,171.198,155.67,170.354,155.67,169.212z M157.565,169.194
				c0,0.825,0.095,1.38,0.286,1.662c0.144,0.208,0.343,0.312,0.597,0.312c0.26,0,0.461-0.104,0.606-0.312
				c0.185-0.282,0.277-0.837,0.277-1.662s-0.092-1.376-0.277-1.653c-0.145-0.213-0.346-0.32-0.606-0.32
				c-0.254,0-0.453,0.104-0.597,0.312C157.661,167.815,157.565,168.369,157.565,169.194z M160.3,179.252h-1.8l6.76-13.39h1.748
				L160.3,179.252z M164.23,175.92c0-1.137,0.25-1.979,0.749-2.527s1.182-0.822,2.047-0.822c0.871,0,1.556,0.274,2.056,0.822
				c0.499,0.548,0.749,1.391,0.749,2.527c0,1.143-0.25,1.988-0.749,2.536c-0.5,0.548-1.176,0.822-2.03,0.822
				c-0.883,0-1.574-0.274-2.073-0.822S164.23,177.062,164.23,175.92z M166.126,175.911c0,0.825,0.095,1.376,0.286,1.653
				c0.144,0.214,0.343,0.32,0.597,0.32c0.26,0,0.459-0.104,0.597-0.312c0.19-0.283,0.286-0.837,0.286-1.662
				s-0.092-1.379-0.277-1.662c-0.144-0.207-0.346-0.312-0.606-0.312s-0.458,0.104-0.597,0.312
				C166.221,174.532,166.126,175.086,166.126,175.911z"/><path class="st7" d="M171.258,182.498c0.479-1.027,0.816-1.814,1.013-2.363c0.196-0.548,0.378-1.18,0.545-1.896
				c0.167-0.715,0.291-1.395,0.372-2.038c0.081-0.644,0.121-1.303,0.121-1.978c0-1.373-0.147-2.673-0.441-3.899
				c-0.294-1.227-0.836-2.714-1.627-4.462h1.653c0.872,1.24,1.548,2.557,2.03,3.947s0.723,2.801,0.723,4.232
				c0,1.206-0.19,2.498-0.571,3.877c-0.433,1.547-1.146,3.073-2.138,4.579L171.258,182.498L171.258,182.498z"/><path class="st7" d="M178.685,171.912l-1.307-1.013c0.416-0.467,0.848-0.914,1.298-1.341c0.179-0.174,0.292-0.283,0.338-0.329
				c-0.145-0.023-0.557-0.118-1.238-0.286c-0.491-0.121-0.814-0.21-0.97-0.268l0.511-1.523c0.756,0.306,1.431,0.644,2.025,1.013
				c-0.138-0.94-0.208-1.708-0.208-2.303h1.541c0,0.421-0.078,1.194-0.234,2.319c0.116-0.046,0.364-0.158,0.745-0.337
				c0.519-0.237,0.998-0.438,1.437-0.606l0.459,1.566c-0.641,0.145-1.382,0.286-2.225,0.425l1.039,1.168
				c0.208,0.237,0.373,0.431,0.494,0.58l-1.324,0.874l-1.168-1.93C179.544,170.545,179.14,171.209,178.685,171.912z"/></g><g class="st3"><path class="st7" d="M42.759,200.926v-9.192h1.402v1.308c0.675-1.01,1.65-1.515,2.925-1.515c0.554,0,1.063,0.099,1.528,0.298
				s0.812,0.461,1.043,0.783c0.231,0.323,0.393,0.707,0.485,1.151c0.058,0.289,0.086,0.794,0.086,1.515v5.652H48.67v-5.592
				c0-0.635-0.061-1.109-0.182-1.424s-0.336-0.565-0.645-0.753s-0.67-0.281-1.086-0.281c-0.664,0-1.236,0.211-1.718,0.632
				c-0.482,0.422-0.723,1.221-0.723,2.397v5.021H42.759z"/><path class="st7" d="M60.814,193.465h-8.378v-1.454h8.378V193.465z M60.814,197.316h-8.378v-1.454h8.378V197.316z"/><path class="st7" d="M68.405,200.926h-1.558v-9.928c-0.375,0.357-0.867,0.716-1.476,1.073s-1.155,0.626-1.64,0.805v-1.506
				c0.871-0.409,1.633-0.906,2.285-1.488c0.652-0.583,1.113-1.148,1.385-1.697h1.004V200.926z"/><path class="st7" d="M72.396,197.602l1.636-0.139c0.121,0.796,0.402,1.395,0.844,1.796s0.974,0.602,1.597,0.602
				c0.75,0,1.385-0.283,1.904-0.849c0.519-0.565,0.779-1.315,0.779-2.25c0-0.889-0.25-1.59-0.749-2.104
				c-0.5-0.514-1.153-0.771-1.96-0.771c-0.502,0-0.955,0.114-1.359,0.342c-0.404,0.229-0.722,0.524-0.952,0.888l-1.463-0.19
				l1.229-6.518h6.31v1.488h-5.063l-0.684,3.41c0.762-0.53,1.561-0.796,2.398-0.796c1.108,0,2.042,0.384,2.804,1.151
				s1.143,1.754,1.143,2.96c0,1.148-0.335,2.141-1.004,2.978c-0.814,1.027-1.925,1.541-3.333,1.541c-1.154,0-2.096-0.323-2.826-0.97
				S72.499,198.67,72.396,197.602z"/><path class="st7" d="M82.254,197.602l1.636-0.139c0.121,0.796,0.402,1.395,0.844,1.796s0.974,0.602,1.597,0.602
				c0.75,0,1.385-0.283,1.904-0.849c0.519-0.565,0.779-1.315,0.779-2.25c0-0.889-0.25-1.59-0.749-2.104
				c-0.5-0.514-1.153-0.771-1.96-0.771c-0.502,0-0.955,0.114-1.359,0.342c-0.404,0.229-0.722,0.524-0.952,0.888l-1.463-0.19
				l1.229-6.518h6.31v1.488h-5.063l-0.684,3.41c0.762-0.53,1.561-0.796,2.398-0.796c1.108,0,2.042,0.384,2.804,1.151
				s1.143,1.754,1.143,2.96c0,1.148-0.335,2.141-1.004,2.978c-0.814,1.027-1.925,1.541-3.333,1.541c-1.154,0-2.096-0.323-2.826-0.97
				S82.358,198.67,82.254,197.602z"/></g></g><rect x="30.527" y="18.832" class="st4" width="516.172" height="66.595"/><g><g class="st3"><path class="st7" d="M42.361,39.203c0-1.292,0.193-2.377,0.58-3.255c0.289-0.646,0.683-1.226,1.182-1.739s1.046-0.895,1.64-1.143
				c0.791-0.335,1.702-0.502,2.735-0.502c1.87,0,3.365,0.58,4.488,1.739c1.122,1.16,1.684,2.773,1.684,4.839
				c0,2.049-0.557,3.651-1.671,4.809c-1.113,1.156-2.602,1.735-4.466,1.735c-1.887,0-3.388-0.576-4.501-1.728
				C42.918,42.808,42.361,41.223,42.361,39.203z M45.001,39.116c0,1.438,0.332,2.526,0.996,3.268s1.506,1.112,2.527,1.112
				s1.859-0.367,2.514-1.104c0.655-0.735,0.982-1.839,0.982-3.311c0-1.454-0.319-2.539-0.956-3.255
				c-0.638-0.715-1.485-1.073-2.541-1.073s-1.907,0.362-2.553,1.087C45.324,36.564,45.001,37.657,45.001,39.116z"/><path class="st7" d="M56.582,36.277h2.268v1.351c0.294-0.462,0.692-0.837,1.195-1.125c0.502-0.289,1.059-0.433,1.67-0.433
				c1.067,0,1.973,0.418,2.718,1.255c0.744,0.837,1.117,2.002,1.117,3.496c0,1.535-0.375,2.729-1.125,3.579
				c-0.75,0.852-1.659,1.277-2.727,1.277c-0.508,0-0.968-0.102-1.38-0.303c-0.413-0.202-0.847-0.549-1.303-1.039v4.631h-2.432
				V36.277H56.582z M58.988,40.718c0,1.033,0.205,1.796,0.614,2.289c0.41,0.494,0.909,0.74,1.498,0.74
				c0.565,0,1.036-0.227,1.411-0.68c0.375-0.452,0.562-1.195,0.562-2.229c0-0.964-0.193-1.679-0.58-2.146
				c-0.387-0.467-0.866-0.701-1.437-0.701c-0.595,0-1.088,0.229-1.48,0.688C59.185,39.139,58.988,39.817,58.988,40.718z"/><path class="st7" d="M71.695,36.277v1.939h-1.662v3.704c0,0.75,0.016,1.188,0.048,1.312c0.031,0.124,0.104,0.227,0.216,0.308
				c0.112,0.08,0.25,0.121,0.411,0.121c0.225,0,0.551-0.078,0.978-0.234l0.208,1.887c-0.565,0.243-1.206,0.364-1.921,0.364
				c-0.438,0-0.834-0.074-1.186-0.221s-0.61-0.338-0.774-0.571c-0.165-0.234-0.278-0.55-0.342-0.948
				c-0.052-0.282-0.078-0.854-0.078-1.714v-4.007h-1.116v-1.939h1.116v-1.826l2.441-1.419v3.245h1.661V36.277z"/><path class="st7" d="M73.382,35.031v-2.25h2.432v2.25H73.382z M73.382,45.47v-9.192h2.432v9.192H73.382z"/><path class="st7" d="M77.451,42.847l2.441-0.372c0.104,0.474,0.314,0.833,0.632,1.078s0.762,0.367,1.333,0.367
				c0.629,0,1.102-0.115,1.419-0.346c0.213-0.161,0.32-0.378,0.32-0.649c0-0.185-0.058-0.337-0.173-0.459
				c-0.121-0.115-0.393-0.222-0.813-0.319c-1.962-0.434-3.206-0.828-3.73-1.187c-0.727-0.496-1.091-1.186-1.091-2.068
				c0-0.796,0.314-1.466,0.943-2.008c0.629-0.543,1.604-0.813,2.926-0.813c1.258,0,2.192,0.204,2.804,0.614
				c0.612,0.409,1.033,1.016,1.264,1.817l-2.293,0.424c-0.098-0.357-0.284-0.632-0.559-0.822c-0.274-0.19-0.665-0.285-1.172-0.285
				c-0.641,0-1.1,0.09-1.376,0.269c-0.185,0.127-0.277,0.291-0.277,0.493c0,0.173,0.081,0.32,0.242,0.441
				c0.219,0.161,0.977,0.39,2.272,0.684s2.2,0.655,2.714,1.082c0.507,0.433,0.761,1.036,0.761,1.809
				c0,0.843-0.352,1.567-1.056,2.173c-0.704,0.606-1.746,0.909-3.125,0.909c-1.252,0-2.244-0.254-2.973-0.762
				C78.153,44.408,77.676,43.719,77.451,42.847z"/><path class="st7" d="M92.381,36.277v1.939h-1.662v3.704c0,0.75,0.016,1.188,0.048,1.312c0.031,0.124,0.104,0.227,0.216,0.308
				c0.112,0.08,0.25,0.121,0.411,0.121c0.225,0,0.551-0.078,0.978-0.234l0.208,1.887c-0.565,0.243-1.206,0.364-1.921,0.364
				c-0.438,0-0.834-0.074-1.186-0.221s-0.61-0.338-0.774-0.571c-0.165-0.234-0.278-0.55-0.342-0.948
				c-0.052-0.282-0.078-0.854-0.078-1.714v-4.007h-1.116v-1.939h1.116v-1.826l2.441-1.419v3.245h1.661V36.277z"/><path class="st7" d="M95.886,39.082l-2.207-0.398c0.248-0.889,0.675-1.546,1.281-1.974c0.605-0.427,1.506-0.64,2.7-0.64
				c1.085,0,1.893,0.128,2.424,0.385c0.531,0.257,0.904,0.583,1.121,0.979c0.216,0.395,0.325,1.12,0.325,2.177l-0.026,2.839
				c0,0.808,0.039,1.403,0.117,1.787c0.078,0.384,0.224,0.795,0.437,1.233h-2.406c-0.063-0.161-0.141-0.401-0.233-0.719
				c-0.041-0.144-0.069-0.239-0.087-0.285c-0.415,0.404-0.86,0.707-1.333,0.909c-0.474,0.201-0.979,0.303-1.515,0.303
				c-0.946,0-1.692-0.257-2.237-0.771s-0.818-1.163-0.818-1.947c0-0.52,0.124-0.982,0.372-1.39c0.248-0.406,0.596-0.719,1.043-0.935
				c0.447-0.217,1.092-0.405,1.935-0.567c1.137-0.213,1.924-0.412,2.363-0.597v-0.242c0-0.468-0.115-0.801-0.346-1
				c-0.23-0.199-0.667-0.299-1.307-0.299c-0.433,0-0.771,0.085-1.013,0.256C96.232,38.356,96.036,38.655,95.886,39.082z
				 M99.141,41.056c-0.312,0.104-0.805,0.228-1.48,0.372c-0.675,0.145-1.116,0.285-1.324,0.424
				c-0.317,0.226-0.476,0.511-0.476,0.857c0,0.34,0.127,0.635,0.381,0.883s0.577,0.372,0.969,0.372c0.438,0,0.857-0.145,1.255-0.433
				c0.294-0.22,0.487-0.488,0.58-0.806c0.063-0.207,0.095-0.603,0.095-1.186L99.141,41.056L99.141,41.056z"/><path class="st7" d="M106.455,45.47l-3.705-9.192h2.553l1.731,4.691l0.502,1.566c0.132-0.397,0.216-0.66,0.251-0.787
				c0.081-0.26,0.167-0.52,0.26-0.779l1.748-4.691h2.501l-3.652,9.192L106.455,45.47L106.455,45.47z"/><path class="st7" d="M113.786,35.031v-2.25h2.432v2.25H113.786z M113.786,45.47v-9.192h2.432v9.192H113.786z"/><path class="st7" d="M127.072,45.47h-2.432v-4.691c0-0.992-0.052-1.634-0.156-1.926c-0.104-0.291-0.272-0.518-0.506-0.68
				c-0.233-0.161-0.515-0.242-0.844-0.242c-0.421,0-0.799,0.115-1.134,0.347c-0.335,0.23-0.564,0.536-0.688,0.917
				c-0.125,0.381-0.187,1.085-0.187,2.112v4.163h-2.432v-9.192h2.259v1.351c0.802-1.039,1.812-1.558,3.029-1.558
				c0.537,0,1.027,0.097,1.472,0.289c0.444,0.194,0.78,0.44,1.008,0.74c0.228,0.301,0.386,0.641,0.476,1.021
				c0.089,0.381,0.134,0.927,0.134,1.636v5.713H127.072z"/><path class="st7" d="M138.497,49.2h-1.67c-0.883-1.333-1.555-2.718-2.017-4.154c-0.462-1.438-0.692-2.828-0.692-4.172
				c0-1.668,0.286-3.246,0.857-4.735c0.496-1.292,1.125-2.483,1.887-3.574h1.662c-0.791,1.748-1.334,3.235-1.631,4.462
				s-0.446,2.526-0.446,3.899c0,0.946,0.088,1.916,0.264,2.908s0.417,1.936,0.723,2.83C137.634,47.253,137.989,48.097,138.497,49.2z
				"/><path class="st7" d="M139.882,42.207l2.423-0.251c0.069,0.548,0.274,0.982,0.615,1.302c0.34,0.32,0.733,0.48,1.177,0.48
				c0.508,0,0.938-0.206,1.29-0.618c0.352-0.413,0.528-1.035,0.528-1.865c0-0.779-0.174-1.363-0.523-1.753s-0.804-0.584-1.363-0.584
				c-0.698,0-1.324,0.309-1.878,0.926l-1.973-0.286l1.246-6.604h6.431v2.276h-4.587l-0.381,2.155
				c0.542-0.271,1.096-0.407,1.662-0.407c1.079,0,1.994,0.393,2.744,1.178c0.75,0.784,1.125,1.803,1.125,3.055
				c0,1.045-0.303,1.977-0.909,2.796c-0.825,1.12-1.971,1.68-3.436,1.68c-1.171,0-2.126-0.314-2.865-0.944
				C140.468,44.114,140.026,43.268,139.882,42.207z"/><path class="st7" d="M149.62,42.102l2.354-0.285c0.075,0.6,0.277,1.059,0.605,1.376c0.329,0.317,0.727,0.476,1.195,0.476
				c0.502,0,0.924-0.19,1.268-0.571c0.343-0.38,0.515-0.894,0.515-1.54c0-0.611-0.165-1.097-0.493-1.454
				c-0.329-0.357-0.73-0.537-1.203-0.537c-0.312,0-0.684,0.061-1.117,0.182l0.269-1.981c0.658,0.017,1.16-0.126,1.506-0.429
				s0.52-0.705,0.52-1.207c0-0.428-0.127-0.768-0.381-1.021s-0.592-0.381-1.013-0.381c-0.416,0-0.771,0.145-1.065,0.433
				c-0.294,0.288-0.473,0.71-0.537,1.264l-2.242-0.381c0.156-0.768,0.391-1.381,0.706-1.839c0.314-0.459,0.753-0.819,1.315-1.082
				c0.563-0.263,1.193-0.395,1.892-0.395c1.194,0,2.152,0.381,2.874,1.143c0.594,0.623,0.892,1.327,0.892,2.112
				c0,1.113-0.609,2.002-1.827,2.666c0.727,0.155,1.309,0.505,1.744,1.047c0.436,0.543,0.653,1.197,0.653,1.965
				c0,1.114-0.407,2.063-1.22,2.848s-1.826,1.178-3.038,1.178c-1.148,0-2.101-0.331-2.856-0.991
				C150.179,44.034,149.741,43.17,149.62,42.102z"/><path class="st7" d="M160.084,45.47v-2.433h2.432v2.433H160.084z"/><path class="st7" d="M170.713,45.47h-2.432v-9.166c-0.889,0.831-1.936,1.445-3.142,1.844v-2.207
				c0.635-0.208,1.324-0.602,2.068-1.182c0.745-0.58,1.255-1.257,1.532-2.03h1.973V45.47H170.713z"/><path class="st7" d="M174.366,35.914c0-1.137,0.25-1.979,0.749-2.527s1.176-0.822,2.03-0.822c0.883,0,1.574,0.272,2.073,0.818
				c0.499,0.545,0.749,1.389,0.749,2.531c0,1.137-0.25,1.979-0.749,2.527c-0.499,0.549-1.176,0.822-2.03,0.822
				c-0.883,0-1.574-0.272-2.073-0.817C174.615,37.9,174.366,37.056,174.366,35.914z M176.261,35.896c0,0.825,0.095,1.38,0.286,1.662
				c0.144,0.208,0.343,0.312,0.597,0.312c0.26,0,0.461-0.104,0.606-0.312c0.185-0.282,0.277-0.837,0.277-1.662
				s-0.092-1.376-0.277-1.653c-0.145-0.213-0.346-0.32-0.606-0.32c-0.254,0-0.453,0.104-0.597,0.312
				C176.356,34.517,176.261,35.071,176.261,35.896z M178.996,45.954h-1.8l6.76-13.39h1.748L178.996,45.954z M182.926,42.622
				c0-1.137,0.25-1.979,0.749-2.527s1.182-0.822,2.047-0.822c0.871,0,1.556,0.274,2.056,0.822c0.499,0.548,0.749,1.391,0.749,2.527
				c0,1.143-0.25,1.988-0.749,2.536c-0.5,0.548-1.176,0.822-2.03,0.822c-0.883,0-1.574-0.274-2.073-0.822
				S182.926,43.764,182.926,42.622z M184.821,42.613c0,0.825,0.095,1.376,0.286,1.653c0.144,0.214,0.343,0.32,0.597,0.32
				c0.26,0,0.459-0.104,0.597-0.312c0.19-0.283,0.286-0.837,0.286-1.662s-0.092-1.379-0.277-1.662
				c-0.144-0.207-0.346-0.312-0.606-0.312s-0.458,0.104-0.597,0.312C184.917,41.234,184.821,41.788,184.821,42.613z"/><path class="st7" d="M189.954,49.2c0.479-1.027,0.816-1.814,1.013-2.363c0.196-0.548,0.378-1.18,0.545-1.896
				c0.167-0.715,0.291-1.395,0.372-2.038c0.081-0.644,0.121-1.303,0.121-1.978c0-1.373-0.147-2.673-0.441-3.899
				c-0.294-1.227-0.836-2.714-1.627-4.462h1.653c0.872,1.24,1.548,2.557,2.03,3.947s0.723,2.801,0.723,4.232
				c0,1.206-0.19,2.498-0.571,3.877c-0.433,1.547-1.146,3.073-2.138,4.579L189.954,49.2L189.954,49.2z"/><path class="st7" d="M197.38,38.614l-1.307-1.013c0.416-0.467,0.848-0.914,1.298-1.341c0.179-0.174,0.292-0.283,0.338-0.329
				c-0.145-0.023-0.557-0.118-1.238-0.286c-0.491-0.121-0.814-0.21-0.97-0.268l0.511-1.523c0.756,0.306,1.431,0.644,2.025,1.013
				c-0.138-0.94-0.208-1.708-0.208-2.303h1.541c0,0.421-0.078,1.194-0.234,2.319c0.116-0.046,0.364-0.158,0.745-0.337
				c0.519-0.237,0.998-0.438,1.437-0.606l0.459,1.566c-0.641,0.145-1.382,0.286-2.225,0.425l1.039,1.168
				c0.208,0.237,0.373,0.431,0.494,0.58l-1.324,0.874l-1.168-1.93C198.24,37.247,197.836,37.911,197.38,38.614z"/></g><g class="st3"><path class="st7" d="M42.759,67.628v-9.192h1.402v1.308c0.675-1.01,1.65-1.515,2.925-1.515c0.554,0,1.063,0.099,1.528,0.298
				s0.812,0.461,1.043,0.783c0.231,0.323,0.393,0.707,0.485,1.151c0.058,0.289,0.086,0.794,0.086,1.515v5.652H48.67v-5.592
				c0-0.635-0.061-1.109-0.182-1.424s-0.336-0.565-0.645-0.753s-0.67-0.281-1.086-0.281c-0.664,0-1.236,0.211-1.718,0.632
				c-0.482,0.422-0.723,1.221-0.723,2.397v5.021H42.759z"/><path class="st7" d="M60.814,60.167h-8.378v-1.454h8.378V60.167z M60.814,64.018h-8.378v-1.454h8.378V64.018z"/><path class="st7" d="M62.545,64.278l1.558-0.208c0.179,0.883,0.483,1.52,0.913,1.909s0.954,0.584,1.571,0.584
				c0.732,0,1.352-0.254,1.856-0.762s0.757-1.137,0.757-1.887c0-0.716-0.234-1.306-0.701-1.771
				c-0.467-0.464-1.062-0.696-1.783-0.696c-0.294,0-0.661,0.058-1.1,0.173l0.173-1.367c0.104,0.011,0.188,0.017,0.251,0.017
				c0.664,0,1.261-0.173,1.792-0.52c0.531-0.346,0.796-0.88,0.796-1.601c0-0.571-0.193-1.045-0.58-1.42
				c-0.386-0.375-0.886-0.562-1.497-0.562c-0.606,0-1.111,0.19-1.515,0.571s-0.664,0.952-0.779,1.714l-1.558-0.277
				c0.19-1.044,0.623-1.854,1.298-2.428s1.515-0.861,2.519-0.861c0.692,0,1.33,0.149,1.913,0.446
				c0.583,0.297,1.029,0.702,1.337,1.216s0.463,1.059,0.463,1.636c0,0.549-0.147,1.048-0.442,1.498
				c-0.294,0.449-0.73,0.808-1.307,1.073c0.75,0.173,1.333,0.532,1.749,1.077c0.415,0.545,0.623,1.228,0.623,2.047
				c0,1.108-0.404,2.047-1.212,2.817c-0.808,0.771-1.829,1.155-3.064,1.155c-1.114,0-2.039-0.331-2.774-0.995
				C63.069,66.194,62.649,65.334,62.545,64.278z"/><path class="st7" d="M72.404,64.278l1.558-0.208c0.179,0.883,0.483,1.52,0.913,1.909s0.954,0.584,1.571,0.584
				c0.732,0,1.352-0.254,1.856-0.762s0.757-1.137,0.757-1.887c0-0.716-0.234-1.306-0.701-1.771
				c-0.467-0.464-1.062-0.696-1.783-0.696c-0.294,0-0.661,0.058-1.1,0.173l0.173-1.367c0.104,0.011,0.188,0.017,0.251,0.017
				c0.664,0,1.261-0.173,1.792-0.52c0.531-0.346,0.796-0.88,0.796-1.601c0-0.571-0.193-1.045-0.58-1.42
				c-0.386-0.375-0.886-0.562-1.497-0.562c-0.606,0-1.111,0.19-1.515,0.571s-0.664,0.952-0.779,1.714l-1.558-0.277
				c0.19-1.044,0.623-1.854,1.298-2.428s1.515-0.861,2.519-0.861c0.692,0,1.33,0.149,1.913,0.446
				c0.583,0.297,1.029,0.702,1.337,1.216s0.463,1.059,0.463,1.636c0,0.549-0.147,1.048-0.442,1.498
				c-0.294,0.449-0.73,0.808-1.307,1.073c0.75,0.173,1.333,0.532,1.749,1.077c0.415,0.545,0.623,1.228,0.623,2.047
				c0,1.108-0.404,2.047-1.212,2.817c-0.808,0.771-1.829,1.155-3.064,1.155c-1.114,0-2.039-0.331-2.774-0.995
				C72.928,66.194,72.508,65.334,72.404,64.278z"/><path class="st7" d="M90.442,66.131v1.497h-8.387c-0.012-0.375,0.049-0.735,0.182-1.082c0.213-0.571,0.556-1.134,1.026-1.688
				s1.149-1.194,2.038-1.922c1.379-1.131,2.311-2.026,2.796-2.688c0.485-0.66,0.727-1.285,0.727-1.874
				c0-0.617-0.221-1.138-0.662-1.562c-0.441-0.424-1.017-0.636-1.727-0.636c-0.75,0-1.351,0.225-1.8,0.675
				c-0.45,0.45-0.678,1.073-0.684,1.87l-1.601-0.165c0.109-1.194,0.522-2.104,1.238-2.73c0.715-0.626,1.676-0.939,2.882-0.939
				c1.217,0,2.181,0.338,2.891,1.013c0.71,0.676,1.064,1.513,1.064,2.511c0,0.508-0.104,1.007-0.312,1.497
				c-0.208,0.49-0.552,1.007-1.034,1.55c-0.482,0.542-1.283,1.286-2.402,2.232c-0.935,0.785-1.535,1.317-1.8,1.598
				c-0.266,0.279-0.485,0.561-0.658,0.844L90.442,66.131L90.442,66.131z"/></g></g><g><g class="st3"><path class="st5" d="M30.468,271.755c1.126,0,2.007,0.401,2.642,1.206c0.756,0.951,1.135,2.53,1.135,4.736
				c0,2.2-0.381,3.782-1.143,4.744c-0.629,0.794-1.508,1.19-2.634,1.19c-1.132,0-2.044-0.435-2.737-1.305s-1.04-2.422-1.04-4.653
				c0-2.19,0.381-3.767,1.143-4.729C28.463,272.151,29.342,271.755,30.468,271.755z M30.468,273.603c-0.27,0-0.51,0.086-0.722,0.258
				c-0.211,0.172-0.375,0.479-0.492,0.924c-0.153,0.577-0.23,1.547-0.23,2.912c0,1.364,0.068,2.302,0.206,2.812
				s0.311,0.851,0.52,1.02c0.209,0.17,0.449,0.254,0.718,0.254c0.27,0,0.51-0.086,0.722-0.258c0.211-0.172,0.375-0.48,0.492-0.924
				c0.153-0.571,0.23-1.54,0.23-2.904c0-1.365-0.069-2.302-0.206-2.812c-0.138-0.511-0.311-0.852-0.52-1.023
				C30.978,273.689,30.738,273.603,30.468,273.603z"/></g></g><path class="st8" d="M30.527,261.275c0,0-0.871,0-1.944,0c-1.074,0-16.717,0-16.717,0"/><g><g class="st3"><path class="st5" d="M119.772,283.433h-2.229v-8.402c-0.815,0.762-1.775,1.325-2.88,1.69v-2.023
				c0.582-0.19,1.214-0.552,1.896-1.083c0.682-0.532,1.15-1.152,1.404-1.86h1.809L119.772,283.433L119.772,283.433z"/><path class="st5" d="M126.873,271.755c1.126,0,2.007,0.401,2.642,1.206c0.756,0.951,1.135,2.53,1.135,4.736
				c0,2.2-0.381,3.782-1.143,4.744c-0.629,0.794-1.508,1.19-2.634,1.19c-1.132,0-2.044-0.435-2.737-1.305s-1.04-2.422-1.04-4.653
				c0-2.19,0.381-3.767,1.143-4.729C124.868,272.151,125.746,271.755,126.873,271.755z M126.873,273.603
				c-0.27,0-0.51,0.086-0.722,0.258c-0.211,0.172-0.375,0.479-0.492,0.924c-0.153,0.577-0.23,1.547-0.23,2.912
				c0,1.364,0.068,2.302,0.206,2.812s0.311,0.851,0.52,1.02c0.209,0.17,0.449,0.254,0.718,0.254c0.27,0,0.51-0.086,0.722-0.258
				c0.211-0.172,0.375-0.48,0.492-0.924c0.153-0.571,0.23-1.54,0.23-2.904c0-1.365-0.069-2.302-0.206-2.812
				c-0.138-0.511-0.311-0.852-0.52-1.023C127.382,273.689,127.143,273.603,126.873,273.603z"/></g></g><path class="st8" d="M122.413,265.165c0,0,0-0.871,0-1.944s0-1.944,0-1.944"/><g><g class="st3"><path class="st5" d="M220.869,281.362v2.071h-7.815c0.084-0.783,0.338-1.524,0.762-2.226c0.423-0.701,1.259-1.631,2.507-2.789
				c1.005-0.936,1.622-1.57,1.849-1.904c0.307-0.46,0.46-0.915,0.46-1.364c0-0.497-0.134-0.88-0.401-1.146
				c-0.267-0.268-0.636-0.4-1.106-0.4c-0.466,0-0.836,0.14-1.111,0.42c-0.275,0.28-0.434,0.746-0.476,1.396l-2.222-0.222
				c0.132-1.228,0.547-2.108,1.246-2.643c0.699-0.535,1.571-0.801,2.618-0.801c1.148,0,2.05,0.309,2.706,0.928
				s0.984,1.389,0.984,2.309c0,0.524-0.094,1.022-0.282,1.496c-0.188,0.474-0.485,0.97-0.893,1.487
				c-0.27,0.344-0.756,0.839-1.46,1.484c-0.703,0.645-1.149,1.073-1.337,1.285c-0.188,0.211-0.34,0.418-0.456,0.618h4.427V281.362z"
				/><path class="st5" d="M226.146,271.755c1.126,0,2.007,0.401,2.642,1.206c0.756,0.951,1.135,2.53,1.135,4.736
				c0,2.2-0.381,3.782-1.143,4.744c-0.629,0.794-1.508,1.19-2.634,1.19c-1.132,0-2.044-0.435-2.737-1.305s-1.04-2.422-1.04-4.653
				c0-2.19,0.381-3.767,1.143-4.729C224.141,272.151,225.019,271.755,226.146,271.755z M226.146,273.603
				c-0.27,0-0.51,0.086-0.722,0.258c-0.211,0.172-0.375,0.479-0.492,0.924c-0.153,0.577-0.23,1.547-0.23,2.912
				c0,1.364,0.068,2.302,0.206,2.812s0.311,0.851,0.52,1.02c0.209,0.17,0.449,0.254,0.718,0.254c0.27,0,0.51-0.086,0.722-0.258
				c0.211-0.172,0.375-0.48,0.492-0.924c0.153-0.571,0.23-1.54,0.23-2.904c0-1.365-0.069-2.302-0.206-2.812
				c-0.138-0.511-0.311-0.852-0.52-1.023C226.655,273.689,226.416,273.603,226.146,273.603z"/></g></g><path class="st8" d="M221.686,265.165c0,0,0-0.871,0-1.944s0-1.944,0-1.944"/><g><g class="st3"><path class="st5" d="M312.532,280.347l2.158-0.263c0.069,0.551,0.254,0.971,0.555,1.262c0.302,0.291,0.667,0.437,1.095,0.437
				c0.46,0,0.848-0.175,1.162-0.523c0.315-0.35,0.472-0.82,0.472-1.412c0-0.561-0.151-1.005-0.452-1.333
				c-0.302-0.328-0.669-0.492-1.103-0.492c-0.286,0-0.626,0.056-1.023,0.167l0.246-1.817c0.603,0.016,1.063-0.115,1.38-0.393
				s0.476-0.646,0.476-1.106c0-0.392-0.116-0.704-0.349-0.937c-0.233-0.233-0.542-0.35-0.928-0.35c-0.381,0-0.706,0.133-0.976,0.397
				c-0.27,0.265-0.434,0.65-0.492,1.158l-2.055-0.35c0.143-0.703,0.358-1.266,0.647-1.686c0.288-0.421,0.69-0.751,1.206-0.992
				c0.516-0.24,1.093-0.36,1.733-0.36c1.095,0,1.973,0.349,2.634,1.047c0.544,0.571,0.817,1.217,0.817,1.936
				c0,1.021-0.558,1.836-1.674,2.444c0.667,0.143,1.199,0.463,1.599,0.96s0.599,1.098,0.599,1.801c0,1.021-0.373,1.892-1.119,2.61
				c-0.746,0.72-1.674,1.079-2.785,1.079c-1.053,0-1.925-0.303-2.618-0.908S312.643,281.326,312.532,280.347z"/><path class="st5" d="M325.417,271.755c1.126,0,2.007,0.401,2.642,1.206c0.756,0.951,1.135,2.53,1.135,4.736
				c0,2.2-0.381,3.782-1.143,4.744c-0.629,0.794-1.508,1.19-2.634,1.19c-1.132,0-2.044-0.435-2.737-1.305s-1.04-2.422-1.04-4.653
				c0-2.19,0.381-3.767,1.143-4.729C323.412,272.151,324.291,271.755,325.417,271.755z M325.417,273.603
				c-0.27,0-0.51,0.086-0.722,0.258c-0.211,0.172-0.375,0.479-0.492,0.924c-0.153,0.577-0.23,1.547-0.23,2.912
				c0,1.364,0.068,2.302,0.206,2.812s0.311,0.851,0.52,1.02c0.209,0.17,0.449,0.254,0.718,0.254c0.27,0,0.51-0.086,0.722-0.258
				c0.211-0.172,0.375-0.48,0.492-0.924c0.153-0.571,0.23-1.54,0.23-2.904c0-1.365-0.069-2.302-0.206-2.812
				c-0.138-0.511-0.311-0.852-0.52-1.023C325.926,273.689,325.687,273.603,325.417,273.603z"/></g></g><path class="st8" d="M320.957,265.165c0,0,0-0.871,0-1.944s0-1.944,0-1.944"/><g><g class="st3"><path class="st5" d="M416.255,283.433v-2.341h-4.762v-1.951l5.047-7.387h1.873v7.378h1.443v1.96h-1.443v2.341L416.255,283.433
				L416.255,283.433z M416.255,279.133v-3.975l-2.674,3.975H416.255z"/><path class="st5" d="M424.689,271.755c1.127,0,2.008,0.401,2.643,1.206c0.756,0.951,1.135,2.53,1.135,4.736
				c0,2.2-0.381,3.782-1.143,4.744c-0.63,0.794-1.508,1.19-2.635,1.19c-1.132,0-2.045-0.435-2.737-1.305s-1.04-2.422-1.04-4.653
				c0-2.19,0.381-3.767,1.143-4.729C422.684,272.151,423.562,271.755,424.689,271.755z M424.689,273.603
				c-0.27,0-0.51,0.086-0.723,0.258c-0.211,0.172-0.375,0.479-0.491,0.924c-0.153,0.577-0.229,1.547-0.229,2.912
				c0,1.364,0.068,2.302,0.205,2.812c0.139,0.511,0.311,0.851,0.52,1.02c0.209,0.17,0.449,0.254,0.719,0.254s0.51-0.086,0.723-0.258
				c0.211-0.172,0.375-0.48,0.491-0.924c0.153-0.571,0.229-1.54,0.229-2.904c0-1.365-0.068-2.302-0.205-2.812
				c-0.139-0.511-0.312-0.852-0.52-1.023C425.198,273.689,424.958,273.603,424.689,273.603z"/></g></g><path class="st8" d="M420.228,265.165c0,0,0-0.871,0-1.944s0-1.944,0-1.944"/><g><g class="st3"><path class="st5" d="M511.189,280.442l2.221-0.23c0.063,0.503,0.252,0.901,0.563,1.194c0.312,0.294,0.672,0.44,1.079,0.44
				c0.465,0,0.859-0.189,1.182-0.567s0.484-0.948,0.484-1.71c0-0.714-0.16-1.249-0.48-1.606c-0.319-0.357-0.736-0.535-1.249-0.535
				c-0.64,0-1.214,0.282-1.722,0.849l-1.809-0.262l1.143-6.054h5.895v2.087h-4.205l-0.35,1.976c0.498-0.249,1.006-0.373,1.523-0.373
				c0.99,0,1.828,0.359,2.516,1.079c0.688,0.719,1.031,1.652,1.031,2.801c0,0.957-0.277,1.812-0.833,2.562
				c-0.757,1.026-1.806,1.539-3.149,1.539c-1.074,0-1.949-0.288-2.627-0.864C511.725,282.19,511.319,281.416,511.189,280.442z"/><path class="st5" d="M523.962,271.755c1.127,0,2.008,0.401,2.643,1.206c0.756,0.951,1.135,2.53,1.135,4.736
				c0,2.2-0.381,3.782-1.143,4.744c-0.63,0.794-1.508,1.19-2.635,1.19c-1.132,0-2.045-0.435-2.737-1.305s-1.04-2.422-1.04-4.653
				c0-2.19,0.381-3.767,1.143-4.729C521.957,272.151,522.835,271.755,523.962,271.755z M523.962,273.603
				c-0.27,0-0.51,0.086-0.723,0.258c-0.211,0.172-0.375,0.479-0.491,0.924c-0.153,0.577-0.229,1.547-0.229,2.912
				c0,1.364,0.068,2.302,0.205,2.812c0.139,0.511,0.311,0.851,0.52,1.02c0.209,0.17,0.449,0.254,0.719,0.254s0.51-0.086,0.723-0.258
				c0.211-0.172,0.375-0.48,0.491-0.924c0.153-0.571,0.229-1.54,0.229-2.904c0-1.365-0.068-2.302-0.205-2.812
				c-0.139-0.511-0.312-0.852-0.52-1.023C524.472,273.689,524.231,273.603,523.962,273.603z"/></g></g><path class="st8" d="M519.501,265.165c0,0,0-0.871,0-1.944s0-1.944,0-1.944"/><polyline class="st8" points="569.136,261.275 30.527,261.275 30.527,0.5 	"/><g class="st3"><path class="st9" d="M11.864,146.293v2.555l-2.642,1.016v4.649l2.642,0.96v2.491l-11.632-4.53v-2.483L11.864,146.293z
			 M7.263,150.617l-4.316,1.604l4.316,1.57V150.617z"/><path class="st9" d="M3.439,141.2h1.777v1.523h3.396c0.688,0,1.088-0.015,1.202-0.044c0.113-0.029,0.207-0.095,0.281-0.198
			s0.111-0.229,0.111-0.377c0-0.206-0.071-0.505-0.214-0.896l1.729-0.19c0.222,0.519,0.333,1.105,0.333,1.762
			c0,0.402-0.067,0.764-0.202,1.087s-0.31,0.559-0.523,0.71c-0.215,0.151-0.504,0.255-0.869,0.313
			c-0.259,0.047-0.783,0.071-1.571,0.071H5.216v1.023H3.439v-1.023H1.764l-1.301-2.237h2.976L3.439,141.2L3.439,141.2z"/><path class="st9" d="M9.793,128.085h2.071v7.815c-0.783-0.084-1.524-0.338-2.226-0.762c-0.701-0.423-1.631-1.259-2.789-2.507
			c-0.936-1.005-1.57-1.622-1.904-1.849c-0.46-0.307-0.915-0.46-1.364-0.46c-0.497,0-0.88,0.134-1.146,0.401
			c-0.268,0.267-0.4,0.636-0.4,1.106c0,0.466,0.14,0.836,0.42,1.111s0.746,0.434,1.396,0.476l-0.222,2.222
			c-1.228-0.132-2.108-0.547-2.643-1.246s-0.801-1.571-0.801-2.618c0-1.148,0.309-2.05,0.928-2.706s1.389-0.984,2.309-0.984
			c0.524,0,1.022,0.094,1.496,0.282c0.474,0.188,0.97,0.485,1.487,0.893c0.344,0.27,0.839,0.756,1.484,1.46
			c0.645,0.703,1.073,1.149,1.285,1.337c0.211,0.188,0.418,0.34,0.618,0.456v-4.427H9.793z"/><path class="st9" d="M3.439,122.642v-2.373l5.982-2.015l-5.982-1.968v-2.309l8.108,2.976l1.468,0.532
			c0.492,0.195,0.867,0.382,1.127,0.559c0.259,0.177,0.469,0.381,0.631,0.611c0.161,0.23,0.286,0.513,0.377,0.849
			c0.09,0.336,0.135,0.715,0.135,1.139c0,0.428-0.045,0.849-0.135,1.261l-1.746,0.199c0.069-0.349,0.104-0.664,0.104-0.944
			c0-0.519-0.152-0.902-0.456-1.15c-0.305-0.249-0.692-0.439-1.163-0.571L3.439,122.642z"/><path class="st9" d="M9.183,107.67l0.373-2.222c0.814,0.286,1.435,0.737,1.86,1.353s0.639,1.387,0.639,2.312
			c0,1.465-0.479,2.55-1.437,3.253c-0.767,0.555-1.734,0.833-2.903,0.833c-1.396,0-2.49-0.365-3.281-1.095
			c-0.79-0.73-1.186-1.653-1.186-2.769c0-1.253,0.414-2.242,1.241-2.967c0.828-0.725,2.096-1.071,3.805-1.039v5.585
			c0.661-0.016,1.176-0.196,1.543-0.54c0.368-0.344,0.552-0.772,0.552-1.285c0-0.349-0.096-0.643-0.286-0.881
			C9.912,107.972,9.605,107.791,9.183,107.67z M6.929,107.543c-0.645,0.016-1.136,0.183-1.472,0.5s-0.504,0.704-0.504,1.158
			c0,0.487,0.178,0.889,0.532,1.206s0.836,0.474,1.443,0.468v-3.332H6.929z"/><path class="st9" d="M6.009,101.846l-0.365,2.023c-0.814-0.228-1.417-0.619-1.809-1.174c-0.392-0.556-0.587-1.381-0.587-2.476
			c0-0.995,0.117-1.735,0.353-2.222c0.235-0.486,0.534-0.829,0.896-1.027s1.027-0.297,1.996-0.297l2.603,0.023
			c0.74,0,1.286-0.036,1.638-0.107c0.353-0.071,0.729-0.205,1.131-0.401v2.206c-0.148,0.058-0.367,0.129-0.658,0.214
			c-0.133,0.037-0.22,0.063-0.262,0.08c0.37,0.381,0.647,0.788,0.833,1.222c0.185,0.434,0.277,0.896,0.277,1.389
			c0,0.868-0.235,1.551-0.706,2.051s-1.065,0.75-1.785,0.75c-0.477,0-0.9-0.114-1.273-0.341s-0.658-0.546-0.857-0.956
			c-0.198-0.41-0.371-1.001-0.52-1.773c-0.195-1.042-0.378-1.764-0.547-2.166H6.144c-0.429,0-0.733,0.106-0.916,0.317
			c-0.183,0.212-0.274,0.611-0.274,1.198c0,0.396,0.078,0.706,0.234,0.928S5.617,101.708,6.009,101.846z M7.817,98.863
			c0.096,0.286,0.209,0.738,0.342,1.357c0.132,0.619,0.262,1.023,0.389,1.214c0.206,0.291,0.468,0.437,0.785,0.437
			c0.312,0,0.582-0.116,0.81-0.349s0.341-0.529,0.341-0.889c0-0.402-0.132-0.786-0.396-1.15c-0.201-0.27-0.447-0.447-0.737-0.532
			c-0.19-0.058-0.553-0.087-1.088-0.087L7.817,98.863L7.817,98.863z"/><path class="st9" d="M11.864,92.341v2.229H3.438v-2.071h1.197c-0.565-0.354-0.938-0.673-1.118-0.956s-0.27-0.604-0.27-0.964
			c0-0.508,0.14-0.997,0.42-1.468l1.944,0.69c-0.243,0.375-0.365,0.725-0.365,1.047c0,0.312,0.086,0.577,0.258,0.793
			c0.172,0.217,0.482,0.388,0.933,0.512c0.449,0.125,1.391,0.187,2.824,0.187L11.864,92.341L11.864,92.341z"/><path class="st9" d="M9.46,88.937L9.119,86.7c0.434-0.095,0.763-0.289,0.987-0.579c0.226-0.291,0.338-0.698,0.338-1.222
			c0-0.576-0.106-1.01-0.317-1.301c-0.148-0.195-0.347-0.293-0.596-0.293c-0.169,0-0.309,0.053-0.42,0.159
			c-0.106,0.111-0.204,0.36-0.294,0.746c-0.396,1.798-0.759,2.938-1.087,3.419c-0.455,0.667-1.087,1-1.896,1
			c-0.729,0-1.343-0.288-1.841-0.865c-0.497-0.576-0.745-1.47-0.745-2.682c0-1.153,0.188-2.01,0.563-2.571s0.931-0.947,1.666-1.158
			l0.389,2.103c-0.328,0.09-0.579,0.261-0.754,0.512s-0.262,0.61-0.262,1.075c0,0.587,0.082,1.007,0.246,1.261
			c0.116,0.169,0.267,0.254,0.452,0.254c0.158,0,0.293-0.074,0.404-0.222c0.148-0.201,0.357-0.895,0.627-2.083
			s0.601-2.017,0.992-2.487c0.396-0.465,0.949-0.698,1.658-0.698c0.772,0,1.436,0.323,1.991,0.968
			c0.556,0.646,0.833,1.6,0.833,2.864c0,1.148-0.232,2.057-0.698,2.726S10.259,88.731,9.46,88.937z"/></g><g><g class="st3"><path class="st9" d="M211.621,317.829v-11.632h3.769c1.428,0,2.359,0.059,2.792,0.175c0.667,0.175,1.225,0.555,1.674,1.139
				c0.449,0.585,0.674,1.34,0.674,2.266c0,0.714-0.13,1.314-0.389,1.801c-0.259,0.486-0.588,0.868-0.988,1.146
				c-0.399,0.277-0.806,0.461-1.218,0.551c-0.561,0.111-1.373,0.167-2.436,0.167h-1.531v4.388L211.621,317.829L211.621,317.829z
				 M213.97,308.165v3.301h1.285c0.926,0,1.544-0.061,1.857-0.183c0.312-0.121,0.557-0.312,0.734-0.571s0.266-0.561,0.266-0.904
				c0-0.423-0.125-0.772-0.373-1.047c-0.249-0.275-0.563-0.447-0.944-0.517c-0.281-0.053-0.844-0.079-1.69-0.079L213.97,308.165
				L213.97,308.165z"/><path class="st9" d="M227.323,315.147l2.222,0.373c-0.286,0.814-0.737,1.435-1.353,1.86s-1.387,0.639-2.312,0.639
				c-1.465,0-2.55-0.479-3.253-1.437c-0.555-0.767-0.833-1.734-0.833-2.903c0-1.396,0.365-2.49,1.095-3.281
				c0.73-0.79,1.653-1.186,2.769-1.186c1.253,0,2.242,0.414,2.967,1.241c0.725,0.828,1.071,2.096,1.039,3.805h-5.585
				c0.016,0.661,0.196,1.176,0.54,1.543c0.344,0.368,0.772,0.552,1.285,0.552c0.349,0,0.643-0.096,0.881-0.286
				C227.021,315.877,227.201,315.57,227.323,315.147z M227.45,312.893c-0.016-0.645-0.183-1.136-0.5-1.472s-0.704-0.504-1.158-0.504
				c-0.487,0-0.889,0.178-1.206,0.532s-0.474,0.836-0.468,1.443h3.332V312.893z"/><path class="st9" d="M233.615,317.829h-2.229v-8.426h2.071v1.197c0.354-0.565,0.673-0.938,0.956-1.118s0.604-0.27,0.964-0.27
				c0.508,0,0.997,0.14,1.468,0.42l-0.69,1.944c-0.375-0.243-0.725-0.365-1.047-0.365c-0.312,0-0.577,0.086-0.793,0.258
				c-0.217,0.172-0.388,0.482-0.512,0.933c-0.125,0.449-0.187,1.391-0.187,2.824L233.615,317.829L233.615,317.829z"/><path class="st9" d="M245.151,311.894l-2.198,0.396c-0.074-0.438-0.242-0.77-0.503-0.992c-0.262-0.222-0.602-0.333-1.02-0.333
				c-0.556,0-0.999,0.192-1.329,0.575c-0.331,0.384-0.496,1.025-0.496,1.924c0,1,0.168,1.706,0.504,2.119
				c0.336,0.412,0.787,0.618,1.353,0.618c0.423,0,0.77-0.12,1.039-0.36c0.27-0.241,0.46-0.654,0.571-1.242l2.19,0.373
				c-0.228,1.005-0.664,1.765-1.309,2.277c-0.646,0.513-1.51,0.77-2.595,0.77c-1.232,0-2.215-0.389-2.947-1.166
				c-0.733-0.778-1.099-1.854-1.099-3.229c0-1.392,0.368-2.475,1.103-3.249c0.735-0.774,1.729-1.162,2.983-1.162
				c1.026,0,1.842,0.221,2.447,0.662C244.452,310.316,244.887,310.99,245.151,311.894z"/><path class="st9" d="M251.721,315.147l2.222,0.373c-0.286,0.814-0.737,1.435-1.353,1.86s-1.387,0.639-2.312,0.639
				c-1.465,0-2.55-0.479-3.253-1.437c-0.555-0.767-0.833-1.734-0.833-2.903c0-1.396,0.365-2.49,1.095-3.281
				c0.73-0.79,1.653-1.186,2.769-1.186c1.253,0,2.242,0.414,2.967,1.241c0.725,0.828,1.071,2.096,1.039,3.805h-5.585
				c0.016,0.661,0.196,1.176,0.54,1.543c0.344,0.368,0.772,0.552,1.285,0.552c0.349,0,0.643-0.096,0.881-0.286
				C251.419,315.877,251.599,315.57,251.721,315.147z M251.848,312.893c-0.016-0.645-0.183-1.136-0.5-1.472
				s-0.704-0.504-1.158-0.504c-0.487,0-0.889,0.178-1.206,0.532s-0.474,0.836-0.468,1.443h3.332V312.893z"/><path class="st9" d="M263.543,317.829h-2.229v-4.301c0-0.909-0.047-1.498-0.143-1.765c-0.095-0.268-0.25-0.475-0.464-0.623
				s-0.472-0.223-0.773-0.223c-0.386,0-0.733,0.106-1.04,0.317c-0.307,0.212-0.517,0.492-0.63,0.842
				c-0.114,0.349-0.171,0.994-0.171,1.936v3.816h-2.229v-8.426h2.071v1.237c0.735-0.952,1.661-1.428,2.777-1.428
				c0.492,0,0.941,0.088,1.349,0.266c0.407,0.177,0.715,0.403,0.924,0.679c0.209,0.274,0.354,0.587,0.436,0.936
				c0.082,0.35,0.123,0.85,0.123,1.5v5.237H263.543z"/><path class="st9" d="M269.668,309.403v1.777h-1.523v3.396c0,0.688,0.015,1.088,0.044,1.202c0.029,0.113,0.095,0.207,0.198,0.281
				s0.229,0.111,0.377,0.111c0.206,0,0.505-0.071,0.896-0.214l0.19,1.729c-0.519,0.222-1.105,0.333-1.762,0.333
				c-0.402,0-0.764-0.067-1.087-0.202s-0.559-0.31-0.71-0.523c-0.151-0.215-0.255-0.504-0.313-0.869
				c-0.047-0.259-0.071-0.783-0.071-1.571v-3.673h-1.023v-1.777h1.023v-1.675l2.237-1.301v2.976L269.668,309.403L269.668,309.403z"
				/><path class="st9" d="M272.881,311.973l-2.023-0.365c0.228-0.814,0.619-1.417,1.174-1.809c0.556-0.392,1.381-0.587,2.476-0.587
				c0.995,0,1.735,0.117,2.222,0.353c0.486,0.235,0.829,0.534,1.027,0.896s0.297,1.027,0.297,1.996l-0.023,2.603
				c0,0.74,0.036,1.286,0.107,1.638c0.071,0.353,0.205,0.729,0.401,1.131h-2.206c-0.058-0.148-0.129-0.367-0.214-0.658
				c-0.037-0.133-0.063-0.22-0.08-0.262c-0.381,0.37-0.788,0.647-1.222,0.833c-0.434,0.185-0.896,0.277-1.389,0.277
				c-0.868,0-1.551-0.235-2.051-0.706s-0.75-1.065-0.75-1.785c0-0.477,0.114-0.9,0.341-1.273s0.546-0.658,0.956-0.857
				c0.41-0.198,1.001-0.371,1.773-0.52c1.042-0.195,1.764-0.378,2.166-0.547v-0.223c0-0.429-0.106-0.733-0.317-0.916
				c-0.212-0.183-0.611-0.274-1.198-0.274c-0.396,0-0.706,0.078-0.928,0.234S273.019,311.582,272.881,311.973z M275.864,313.782
				c-0.286,0.096-0.738,0.209-1.357,0.342c-0.619,0.132-1.023,0.262-1.214,0.389c-0.291,0.206-0.437,0.468-0.437,0.785
				c0,0.312,0.116,0.582,0.349,0.81s0.529,0.341,0.889,0.341c0.402,0,0.786-0.132,1.15-0.396c0.27-0.201,0.447-0.447,0.532-0.737
				c0.058-0.19,0.087-0.553,0.087-1.088L275.864,313.782L275.864,313.782z"/><path class="st9" d="M280.045,318.385l2.547,0.31c0.042,0.296,0.14,0.499,0.293,0.61c0.212,0.159,0.545,0.238,1,0.238
				c0.582,0,1.018-0.087,1.309-0.262c0.196-0.116,0.344-0.305,0.444-0.563c0.068-0.186,0.103-0.526,0.103-1.023v-1.229
				c-0.667,0.909-1.507,1.364-2.523,1.364c-1.132,0-2.029-0.479-2.69-1.437c-0.518-0.756-0.777-1.697-0.777-2.824
				c0-1.412,0.34-2.491,1.02-3.237c0.68-0.745,1.524-1.118,2.535-1.118c1.042,0,1.901,0.457,2.579,1.372v-1.182h2.086v7.561
				c0,0.995-0.082,1.738-0.246,2.229c-0.164,0.492-0.394,0.878-0.69,1.159c-0.296,0.28-0.692,0.499-1.187,0.658
				c-0.495,0.158-1.12,0.238-1.876,0.238c-1.428,0-2.441-0.245-3.039-0.734s-0.896-1.109-0.896-1.86
				C280.038,318.58,280.04,318.49,280.045,318.385z M282.037,313.441c0,0.895,0.173,1.549,0.52,1.964
				c0.346,0.415,0.773,0.623,1.281,0.623c0.545,0,1.005-0.213,1.381-0.639c0.375-0.426,0.563-1.057,0.563-1.893
				c0-0.873-0.18-1.521-0.54-1.944c-0.359-0.423-0.814-0.635-1.364-0.635c-0.535,0-0.975,0.208-1.321,0.623
				C282.21,311.957,282.037,312.59,282.037,313.441z"/><path class="st9" d="M295.057,315.147l2.222,0.373c-0.286,0.814-0.737,1.435-1.353,1.86s-1.387,0.639-2.312,0.639
				c-1.465,0-2.55-0.479-3.253-1.437c-0.555-0.767-0.833-1.734-0.833-2.903c0-1.396,0.365-2.49,1.095-3.281
				c0.73-0.79,1.653-1.186,2.769-1.186c1.253,0,2.242,0.414,2.967,1.241c0.725,0.828,1.071,2.096,1.039,3.805h-5.585
				c0.016,0.661,0.196,1.176,0.54,1.543c0.344,0.368,0.772,0.552,1.285,0.552c0.349,0,0.643-0.096,0.881-0.286
				C294.755,315.877,294.936,315.57,295.057,315.147z M295.184,312.893c-0.016-0.645-0.183-1.136-0.5-1.472
				s-0.704-0.504-1.158-0.504c-0.487,0-0.889,0.178-1.206,0.532s-0.474,0.836-0.468,1.443h3.332V312.893z"/><path class="st9" d="M303.213,313.497c0-0.74,0.183-1.457,0.548-2.15c0.365-0.692,0.882-1.222,1.551-1.587
				c0.669-0.364,1.417-0.547,2.242-0.547c1.274,0,2.319,0.414,3.134,1.241c0.814,0.828,1.222,1.874,1.222,3.138
				c0,1.275-0.412,2.332-1.234,3.17c-0.823,0.839-1.858,1.258-3.106,1.258c-0.772,0-1.509-0.175-2.209-0.523
				c-0.701-0.35-1.234-0.861-1.599-1.535C303.396,315.286,303.213,314.465,303.213,313.497z M305.498,313.616
				c0,0.836,0.198,1.476,0.595,1.92c0.396,0.444,0.886,0.666,1.468,0.666s1.07-0.222,1.464-0.666s0.591-1.09,0.591-1.936
				c0-0.825-0.197-1.46-0.591-1.904s-0.882-0.667-1.464-0.667s-1.071,0.223-1.468,0.667
				C305.696,312.14,305.498,312.78,305.498,313.616z"/><path class="st9" d="M312.679,309.403h1.238v-0.635c0-0.709,0.075-1.238,0.226-1.587c0.151-0.35,0.428-0.634,0.833-0.854
				c0.405-0.219,0.917-0.329,1.535-0.329c0.635,0,1.256,0.096,1.865,0.286l-0.302,1.555c-0.354-0.084-0.695-0.127-1.023-0.127
				c-0.323,0-0.554,0.075-0.694,0.227c-0.14,0.15-0.21,0.44-0.21,0.868v0.596h1.666v1.753h-1.666v6.673h-2.229v-6.673h-1.238v-1.753
				H312.679z"/><path class="st9" d="M323.517,309.403h2.079v1.237c0.27-0.423,0.635-0.767,1.095-1.031c0.46-0.265,0.971-0.396,1.531-0.396
				c0.979,0,1.809,0.383,2.492,1.15c0.682,0.767,1.023,1.835,1.023,3.205c0,1.407-0.344,2.501-1.032,3.281
				c-0.688,0.78-1.521,1.17-2.499,1.17c-0.465,0-0.887-0.093-1.266-0.277c-0.378-0.186-0.776-0.503-1.194-0.952v4.244h-2.229
				L323.517,309.403L323.517,309.403z M325.723,313.473c0,0.946,0.188,1.646,0.563,2.099c0.375,0.452,0.833,0.678,1.373,0.678
				c0.518,0,0.949-0.207,1.293-0.623c0.344-0.415,0.516-1.096,0.516-2.043c0-0.883-0.178-1.539-0.532-1.968
				c-0.354-0.428-0.793-0.643-1.317-0.643c-0.544,0-0.997,0.211-1.356,0.631C325.902,312.025,325.723,312.648,325.723,313.473z"/><path class="st9" d="M335.172,311.973l-2.023-0.365c0.228-0.814,0.619-1.417,1.174-1.809c0.556-0.392,1.381-0.587,2.476-0.587
				c0.995,0,1.735,0.117,2.222,0.353c0.486,0.235,0.829,0.534,1.027,0.896s0.297,1.027,0.297,1.996l-0.023,2.603
				c0,0.74,0.036,1.286,0.107,1.638c0.071,0.353,0.205,0.729,0.401,1.131h-2.206c-0.058-0.148-0.129-0.367-0.214-0.658
				c-0.037-0.133-0.063-0.22-0.08-0.262c-0.381,0.37-0.788,0.647-1.222,0.833c-0.434,0.185-0.896,0.277-1.389,0.277
				c-0.868,0-1.551-0.235-2.051-0.706s-0.75-1.065-0.75-1.785c0-0.477,0.114-0.9,0.341-1.273s0.546-0.658,0.956-0.857
				c0.41-0.198,1.001-0.371,1.773-0.52c1.042-0.195,1.764-0.378,2.166-0.547v-0.223c0-0.429-0.106-0.733-0.317-0.916
				c-0.212-0.183-0.611-0.274-1.198-0.274c-0.396,0-0.706,0.078-0.928,0.234S335.31,311.582,335.172,311.973z M338.156,313.782
				c-0.286,0.096-0.738,0.209-1.357,0.342c-0.619,0.132-1.023,0.262-1.214,0.389c-0.291,0.206-0.437,0.468-0.437,0.785
				c0,0.312,0.116,0.582,0.349,0.81s0.529,0.341,0.889,0.341c0.402,0,0.786-0.132,1.15-0.396c0.27-0.201,0.447-0.447,0.532-0.737
				c0.058-0.19,0.087-0.553,0.087-1.088L338.156,313.782L338.156,313.782z"/><path class="st9" d="M346.407,309.403v1.777h-1.524v3.396c0,0.688,0.015,1.088,0.044,1.202c0.029,0.113,0.095,0.207,0.198,0.281
				s0.229,0.111,0.377,0.111c0.205,0,0.504-0.071,0.896-0.214l0.189,1.729c-0.518,0.222-1.105,0.333-1.761,0.333
				c-0.402,0-0.764-0.067-1.087-0.202s-0.559-0.31-0.71-0.523c-0.151-0.215-0.255-0.504-0.313-0.869
				c-0.047-0.259-0.071-0.783-0.071-1.571v-3.673h-1.023v-1.777h1.023v-1.675l2.237-1.301v2.976L346.407,309.403L346.407,309.403z"
				/><path class="st9" d="M347.954,308.261v-2.063h2.229v2.063H347.954z M347.954,317.829v-8.426h2.229v8.426H347.954z"/><path class="st9" d="M357.349,315.147l2.221,0.373c-0.285,0.814-0.736,1.435-1.353,1.86s-1.388,0.639-2.312,0.639
				c-1.466,0-2.55-0.479-3.253-1.437c-0.556-0.767-0.834-1.734-0.834-2.903c0-1.396,0.365-2.49,1.096-3.281
				c0.73-0.79,1.652-1.186,2.77-1.186c1.253,0,2.242,0.414,2.967,1.241c0.725,0.828,1.07,2.096,1.039,3.805h-5.586
				c0.016,0.661,0.196,1.176,0.54,1.543c0.344,0.368,0.772,0.552,1.285,0.552c0.349,0,0.643-0.096,0.881-0.286
				C357.046,315.877,357.227,315.57,357.349,315.147z M357.476,312.893c-0.017-0.645-0.184-1.136-0.5-1.472
				c-0.318-0.336-0.704-0.504-1.158-0.504c-0.487,0-0.889,0.178-1.207,0.532c-0.316,0.354-0.473,0.836-0.468,1.443h3.333V312.893z"
				/><path class="st9" d="M369.17,317.829h-2.229v-4.301c0-0.909-0.047-1.498-0.143-1.765c-0.096-0.268-0.25-0.475-0.465-0.623
				c-0.213-0.148-0.472-0.223-0.773-0.223c-0.386,0-0.732,0.106-1.039,0.317c-0.307,0.212-0.518,0.492-0.631,0.842
				c-0.113,0.349-0.17,0.994-0.17,1.936v3.816h-2.23v-8.426h2.071v1.237c0.735-0.952,1.661-1.428,2.776-1.428
				c0.492,0,0.941,0.088,1.35,0.266c0.407,0.177,0.715,0.403,0.924,0.679c0.209,0.274,0.354,0.587,0.437,0.936
				c0.082,0.35,0.123,0.85,0.123,1.5L369.17,317.829L369.17,317.829z"/><path class="st9" d="M375.296,309.403v1.777h-1.523v3.396c0,0.688,0.014,1.088,0.043,1.202c0.029,0.113,0.096,0.207,0.199,0.281
				c0.103,0.074,0.229,0.111,0.377,0.111c0.205,0,0.504-0.071,0.896-0.214l0.189,1.729c-0.518,0.222-1.105,0.333-1.762,0.333
				c-0.401,0-0.764-0.067-1.086-0.202c-0.323-0.135-0.56-0.31-0.711-0.523c-0.15-0.215-0.255-0.504-0.312-0.869
				c-0.048-0.259-0.072-0.783-0.072-1.571v-3.673h-1.023v-1.777h1.023v-1.675l2.238-1.301v2.976L375.296,309.403L375.296,309.403z"
				/><path class="st9" d="M376.058,315.425l2.236-0.341c0.096,0.434,0.289,0.763,0.58,0.987c0.291,0.226,0.697,0.338,1.222,0.338
				c0.576,0,1.011-0.106,1.302-0.317c0.195-0.148,0.293-0.347,0.293-0.596c0-0.169-0.053-0.309-0.158-0.42
				c-0.111-0.106-0.36-0.204-0.746-0.294c-1.799-0.396-2.938-0.759-3.42-1.087c-0.666-0.455-1-1.087-1-1.896
				c0-0.729,0.289-1.343,0.865-1.841c0.576-0.497,1.471-0.745,2.682-0.745c1.153,0,2.01,0.188,2.57,0.563
				c0.561,0.375,0.947,0.931,1.158,1.666l-2.102,0.389c-0.09-0.328-0.262-0.579-0.512-0.754c-0.252-0.175-0.61-0.262-1.076-0.262
				c-0.586,0-1.007,0.082-1.261,0.246c-0.169,0.116-0.254,0.267-0.254,0.452c0,0.158,0.073,0.293,0.222,0.404
				c0.201,0.148,0.896,0.357,2.083,0.627s2.017,0.601,2.487,0.992c0.465,0.396,0.698,0.949,0.698,1.658
				c0,0.772-0.323,1.436-0.968,1.991c-0.646,0.556-1.6,0.833-2.864,0.833c-1.147,0-2.057-0.232-2.726-0.698
				S376.263,316.223,376.058,315.425z"/></g></g><g class="st3"><path class="st5" d="M530.741,347.087l0.298-0.922c0.688,0.242,1.188,0.452,1.5,0.63c-0.083-0.783-0.126-1.322-0.13-1.616h0.941
			c-0.014,0.428-0.062,0.965-0.149,1.609c0.445-0.225,0.956-0.433,1.532-0.623l0.299,0.922c-0.551,0.182-1.089,0.303-1.617,0.363
			c0.264,0.229,0.637,0.639,1.117,1.228l-0.779,0.552c-0.251-0.342-0.548-0.808-0.89-1.396c-0.32,0.609-0.602,1.075-0.844,1.396
			l-0.767-0.552c0.502-0.619,0.861-1.028,1.078-1.228C531.772,347.343,531.243,347.221,530.741,347.087z"/></g><g class="st3"><path class="st5" d="M535.362,357.499l1.993-9.536h1.085l-0.202,0.961c0.403-0.42,0.763-0.711,1.081-0.873s0.654-0.243,1.01-0.243
			c0.657,0,1.203,0.239,1.636,0.717c0.433,0.479,0.649,1.163,0.649,2.055c0,0.719-0.119,1.373-0.357,1.964s-0.53,1.066-0.877,1.425
			c-0.346,0.359-0.696,0.623-1.051,0.792c-0.355,0.169-0.719,0.254-1.091,0.254c-0.827,0-1.468-0.42-1.921-1.26l-0.779,3.745
			L535.362,357.499L535.362,357.499z M537.687,352.04c0,0.515,0.037,0.872,0.11,1.071c0.108,0.281,0.286,0.509,0.532,0.682
			c0.247,0.173,0.533,0.26,0.857,0.26c0.675,0,1.221-0.38,1.636-1.14s0.623-1.535,0.623-2.327c0-0.584-0.14-1.035-0.419-1.354
			s-0.626-0.478-1.041-0.478c-0.299,0-0.576,0.079-0.832,0.237c-0.255,0.158-0.492,0.394-0.711,0.708
			c-0.218,0.313-0.398,0.697-0.541,1.152C537.759,351.306,537.687,351.702,537.687,352.04z"/></g><g class="st3"><path class="st5" d="M543.619,350.696v-1.091l6.304-2.661v1.162l-4.999,2.051l4.999,2.071v1.162L543.619,350.696z"/><path class="st5" d="M551.864,354.857v-1.331h1.33v1.331H551.864z"/><path class="st5" d="M554.901,350.164c0-1.125,0.115-2.031,0.348-2.717c0.23-0.686,0.575-1.215,1.031-1.587
			c0.457-0.372,1.031-0.559,1.725-0.559c0.51,0,0.958,0.103,1.344,0.309c0.385,0.205,0.703,0.502,0.953,0.889
			c0.252,0.388,0.449,0.859,0.592,1.416c0.143,0.556,0.214,1.306,0.214,2.249c0,1.116-0.114,2.018-0.345,2.704
			c-0.229,0.686-0.572,1.216-1.028,1.59c-0.456,0.375-1.033,0.562-1.729,0.562c-0.918,0-1.639-0.329-2.162-0.986
			C555.216,353.241,554.901,351.951,554.901,350.164z M556.103,350.164c0,1.562,0.183,2.602,0.549,3.119
			c0.365,0.518,0.816,0.775,1.354,0.775c0.536,0,0.987-0.26,1.354-0.778c0.365-0.52,0.548-1.559,0.548-3.116
			c0-1.566-0.183-2.607-0.548-3.122c-0.366-0.516-0.822-0.773-1.367-0.773c-0.537,0-0.965,0.228-1.285,0.682
			C556.304,347.53,556.103,348.601,556.103,350.164z"/><path class="st5" d="M562.296,352.364l1.227-0.104c0.091,0.598,0.302,1.046,0.633,1.347s0.73,0.451,1.197,0.451
			c0.562,0,1.039-0.212,1.429-0.636s0.584-0.986,0.584-1.688c0-0.667-0.187-1.192-0.562-1.578c-0.374-0.385-0.864-0.577-1.471-0.577
			c-0.376,0-0.716,0.085-1.019,0.256c-0.304,0.171-0.541,0.393-0.714,0.666l-1.098-0.144l0.922-4.888h4.732v1.116h-3.797
			l-0.514,2.558c0.571-0.397,1.171-0.597,1.799-0.597c0.83,0,1.531,0.287,2.104,0.863c0.57,0.575,0.856,1.315,0.856,2.22
			c0,0.861-0.251,1.605-0.753,2.233c-0.61,0.771-1.443,1.155-2.5,1.155c-0.865,0-1.572-0.242-2.119-0.727
			C562.687,353.807,562.374,353.165,562.296,352.364z"/></g></g></svg>

