<?xml version="1.0" encoding="utf-8"?>
<!-- Generator: Adobe Illustrator 17.0.1, SVG Export Plug-In . SVG Version: 6.00 Build 0)  -->
<!DOCTYPE svg PUBLIC "-//W3C//DTD SVG 1.1//EN" "http://www.w3.org/Graphics/SVG/1.1/DTD/svg11.dtd">
<svg version="1.1" id="Layer_1" xmlns="http://www.w3.org/2000/svg" xmlns:xlink="http://www.w3.org/1999/xlink" x="0px" y="0px"
	 width="800px" height="354.293px" viewBox="0 0 800 354.293" style="enable-background:new 0 0 800 354.293;" xml:space="preserve"
	>
<style type="text/css">
	.st0{fill:none;stroke:#E9DA47;stroke-width:2.6347;stroke-miterlimit:10;stroke-dasharray:4.5166,4.5166;}
	.st1{fill:#FFFFFF;stroke:#D7EDE6;stroke-width:4.5166;stroke-miterlimit:10;}
	.st2{enable-background:new    ;}
	.st3{fill:#6DADA2;}
	.st4{fill:#4E4E50;}
	.st5{fill:#D7EDE6;}
</style>
<g>
	<polyline class="st0" points="633.133,209.697 633.133,75.218 167.307,74.778 167.307,209.256 	"/>
	<rect x="3.515" y="209.256" class="st1" width="327.583" height="140.081"/>
	<g>
		<g class="st2">
			<path class="st3" d="M37.314,251.851c0-6.974,5.059-12.321,12.285-12.321c7.19,0,12.104,5.384,12.104,12.321
				c0,6.974-5.059,12.321-12.285,12.321C42.228,264.172,37.314,258.788,37.314,251.851z M57.476,251.851
				c0-4.95-3.36-8.527-7.949-8.527c-4.625,0-7.985,3.541-7.985,8.527c0,4.95,3.36,8.527,7.985,8.527
				C54.116,260.378,57.476,256.837,57.476,251.851z"/>
			<path class="st3" d="M64.305,267.568h2.349v-16.332h-2.349v-3.324h6.143v1.807c1.229-1.156,2.565-2.096,4.697-2.096
				c4.119,0,7.227,3.36,7.227,8.13c0,4.589-3.288,8.274-7.479,8.274c-1.698,0-3.107-0.614-4.3-1.518v5.059h2.565v3.252h-8.853
				L64.305,267.568L64.305,267.568z M78.324,255.789c0-3.035-1.807-4.77-4.047-4.77c-1.481,0-2.638,0.65-3.686,1.59v6.793
				c1.012,0.723,2.24,1.229,3.686,1.229C76.373,260.631,78.324,258.933,78.324,255.789z"/>
			<path class="st3" d="M87.538,261.859c-0.361-0.65-0.542-1.481-0.542-2.493v-8.13h-3.071v-3.324h3.071v-3.324l3.902-1.698v5.022
				h4.806v3.324h-4.806v7.371c0,0.506,0.072,0.831,0.253,1.156c0.289,0.506,0.867,0.759,1.662,0.759
				c1.012,0,2.168-0.397,3.107-0.831l-0.325,3.396c-1.084,0.542-2.349,0.939-3.794,0.939
				C89.887,264.027,88.333,263.377,87.538,261.859z"/>
			<path class="st3" d="M98.088,260.486h2.421v-9.25h-2.421v-3.324h6.359v12.574h2.349v3.252h-8.708V260.486z M99.461,242.89
				c0-1.445,1.265-2.602,2.674-2.602s2.602,1.156,2.602,2.602s-1.265,2.602-2.674,2.602S99.461,244.335,99.461,242.89z"/>
			<path class="st3" d="M120.418,253.549c-1.265,0-2.132-0.759-2.132-1.951c0-0.253,0-0.47,0.072-0.687
				c-0.65-0.253-1.445-0.397-2.24-0.397c-1.771,0-2.638,0.795-2.638,1.626c0,0.903,0.903,1.373,3.324,2.023
				c3.794,1.012,5.998,1.951,5.998,4.806c0,3.324-3.107,5.095-6.685,5.095c-2.421,0-5.022-0.867-6.07-1.915
				c-0.65-0.65-0.903-1.301-0.903-2.132c0-1.156,0.867-2.132,2.096-2.132c1.084,0,2.132,0.723,2.132,2.096
				c0,0.217-0.036,0.434-0.072,0.65c0.723,0.289,1.734,0.506,2.854,0.506c1.59,0,2.891-0.542,2.891-1.698
				c0-0.795-0.687-1.265-3.107-1.915c-4.372-1.156-6.215-2.204-6.215-4.914c0-2.457,2.023-5.022,6.468-5.022
				c1.915,0,4.228,0.723,5.312,1.807c0.578,0.578,0.867,1.265,0.867,2.023C122.369,252.682,121.574,253.549,120.418,253.549z"/>
			<path class="st3" d="M128.186,261.859c-0.361-0.65-0.542-1.481-0.542-2.493v-8.13h-3.071v-3.324h3.071v-3.324l3.902-1.698v5.022
				h4.806v3.324h-4.806v7.371c0,0.506,0.072,0.831,0.253,1.156c0.289,0.506,0.867,0.759,1.662,0.759
				c1.012,0,2.168-0.397,3.107-0.831l-0.325,3.396c-1.084,0.542-2.349,0.939-3.794,0.939
				C130.535,264.027,128.981,263.377,128.186,261.859z"/>
			<path class="st3" d="M138.845,259.583c0-2.963,2.602-4.77,6.359-4.77c1.626,0,3.144,0.217,4.011,0.434v-1.265
				c0-0.939-0.217-1.662-0.614-2.168c-0.65-0.831-1.698-1.156-3.107-1.156c-0.687,0-1.192,0.108-1.554,0.253
				c0.072,0.217,0.145,0.578,0.145,0.795c0,1.192-0.939,2.06-2.132,2.06s-2.096-0.831-2.096-2.132c0-1.951,1.987-4.011,6.287-4.011
				c2.71,0,4.553,0.759,5.673,2.132c0.831,1.012,1.229,2.385,1.229,3.975v6.757h2.349v3.252h-6.106v-1.734
				c-1.265,1.084-3.18,2.023-5.312,2.023C141.266,264.027,138.845,262.546,138.845,259.583z M149.215,259.764v-2.493
				c-0.903-0.217-2.023-0.361-3.252-0.361c-1.915,0-3.071,0.867-3.071,2.312c0,1.265,0.939,1.951,2.349,1.951
				S148.023,260.631,149.215,259.764z"/>
			<path class="st3" d="M157.345,251.236h-1.843v-3.324h8.094v3.144h-2.276l3.794,8.238l3.794-8.238h-2.385v-3.144h8.058v3.324
				h-1.843l-6.287,12.791h-2.818L157.345,251.236z"/>
			<path class="st3" d="M175.917,260.486h2.421v-9.25h-2.421v-3.324h6.359v12.574h2.349v3.252h-8.708V260.486z M177.29,242.89
				c0-1.445,1.265-2.602,2.674-2.602s2.602,1.156,2.602,2.602s-1.265,2.602-2.674,2.602S177.29,244.335,177.29,242.89z"/>
			<path class="st3" d="M193.043,250.441c1.518-1.481,3.216-2.818,5.528-2.818c1.879,0,3.252,0.759,4.083,2.023
				c0.542,0.867,0.831,1.951,0.831,3.252v7.588h2.349v3.252h-8.455v-3.252h2.168v-6.612c0-0.65-0.108-1.229-0.325-1.626
				c-0.361-0.687-1.012-1.048-1.951-1.048c-1.373,0-2.818,0.795-4.083,1.843v7.443h2.168v3.252h-8.455v-3.252h2.349v-9.25h-2.349
				v-3.324h6.143v2.529H193.043z"/>
		</g>
		<g class="st2">
			<path class="st4" d="M220.897,268.808c-1.168-1.475-2.156-3.199-2.964-5.175c-0.808-1.977-1.211-4.022-1.211-6.14
				c0-1.866,0.302-3.654,0.906-5.364c0.706-1.983,1.795-3.959,3.27-5.928h1.518c-0.949,1.631-1.576,2.796-1.882,3.493
				c-0.479,1.082-0.855,2.212-1.129,3.388c-0.337,1.467-0.506,2.94-0.506,4.423c0,3.771,1.172,7.539,3.517,11.303H220.897z"/>
			<path class="st4" d="M224.872,263.738v-12.491h1.905v1.776c0.917-1.372,2.243-2.059,3.976-2.059c0.753,0,1.445,0.136,2.076,0.406
				c0.631,0.271,1.104,0.625,1.417,1.064c0.313,0.438,0.533,0.96,0.659,1.563c0.079,0.393,0.118,1.079,0.118,2.059v7.681h-2.117
				v-7.599c0-0.862-0.082-1.507-0.247-1.935c-0.165-0.427-0.457-0.769-0.876-1.023s-0.912-0.382-1.476-0.382
				c-0.902,0-1.68,0.286-2.335,0.858s-0.982,1.658-0.982,3.258v6.822h-2.118V263.738z"/>
			<path class="st4" d="M249.408,253.6h-11.386v-1.976h11.386V253.6z M249.408,258.834h-11.386v-1.977h11.386V258.834z"/>
			<path class="st4" d="M251.76,259.186l2.117-0.282c0.243,1.199,0.657,2.064,1.241,2.594c0.584,0.529,1.295,0.794,2.135,0.794
				c0.996,0,1.836-0.346,2.523-1.035c0.686-0.69,1.029-1.545,1.029-2.564c0-0.972-0.317-1.774-0.953-2.405
				c-0.635-0.631-1.443-0.947-2.423-0.947c-0.4,0-0.898,0.079-1.494,0.235l0.235-1.858c0.141,0.017,0.254,0.023,0.341,0.023
				c0.902,0,1.713-0.234,2.435-0.705c0.721-0.471,1.082-1.196,1.082-2.176c0-0.776-0.263-1.42-0.788-1.93
				c-0.525-0.509-1.204-0.764-2.035-0.764c-0.823,0-1.509,0.259-2.058,0.775c-0.549,0.518-0.902,1.294-1.059,2.329l-2.117-0.376
				c0.259-1.419,0.847-2.52,1.764-3.3c0.917-0.779,2.059-1.17,3.423-1.17c0.941,0,1.807,0.202,2.6,0.605
				c0.792,0.404,1.397,0.955,1.817,1.652c0.419,0.698,0.629,1.439,0.629,2.224c0,0.745-0.2,1.423-0.6,2.034
				c-0.4,0.612-0.992,1.099-1.776,1.459c1.02,0.235,1.812,0.724,2.376,1.464c0.564,0.741,0.847,1.669,0.847,2.782
				c0,1.506-0.549,2.781-1.646,3.828s-2.486,1.57-4.164,1.57c-1.514,0-2.77-0.45-3.77-1.353
				C252.471,261.79,251.901,260.621,251.76,259.186z"/>
			<path class="st4" d="M265.156,259.186l2.117-0.282c0.243,1.199,0.657,2.064,1.241,2.594c0.584,0.529,1.295,0.794,2.135,0.794
				c0.996,0,1.836-0.346,2.523-1.035c0.686-0.69,1.029-1.545,1.029-2.564c0-0.972-0.317-1.774-0.953-2.405
				c-0.635-0.631-1.443-0.947-2.423-0.947c-0.4,0-0.898,0.079-1.494,0.235l0.235-1.858c0.141,0.017,0.254,0.023,0.341,0.023
				c0.902,0,1.713-0.234,2.435-0.705c0.721-0.471,1.082-1.196,1.082-2.176c0-0.776-0.263-1.42-0.788-1.93
				c-0.525-0.509-1.204-0.764-2.035-0.764c-0.823,0-1.509,0.259-2.058,0.775c-0.549,0.518-0.902,1.294-1.059,2.329l-2.117-0.376
				c0.259-1.419,0.847-2.52,1.764-3.3c0.917-0.779,2.059-1.17,3.423-1.17c0.941,0,1.807,0.202,2.6,0.605
				c0.792,0.404,1.397,0.955,1.817,1.652c0.419,0.698,0.629,1.439,0.629,2.224c0,0.745-0.2,1.423-0.6,2.034
				c-0.4,0.612-0.992,1.099-1.776,1.459c1.02,0.235,1.812,0.724,2.376,1.464c0.564,0.741,0.847,1.669,0.847,2.782
				c0,1.506-0.549,2.781-1.646,3.828s-2.486,1.57-4.164,1.57c-1.514,0-2.77-0.45-3.77-1.353
				C265.867,261.79,265.298,260.621,265.156,259.186z"/>
			<path class="st4" d="M289.668,261.703v2.035h-11.397c-0.016-0.51,0.067-1,0.247-1.471c0.29-0.775,0.755-1.54,1.394-2.293
				s1.562-1.623,2.77-2.611c1.874-1.537,3.14-2.754,3.799-3.652c0.659-0.897,0.988-1.746,0.988-2.546c0-0.839-0.3-1.547-0.9-2.123
				s-1.382-0.864-2.347-0.864c-1.02,0-1.835,0.306-2.446,0.917c-0.612,0.611-0.921,1.459-0.929,2.541l-2.176-0.224
				c0.149-1.623,0.71-2.86,1.682-3.711s2.278-1.276,3.917-1.276c1.654,0,2.964,0.459,3.928,1.376
				c0.964,0.918,1.447,2.055,1.447,3.411c0,0.69-0.141,1.368-0.423,2.035c-0.282,0.666-0.751,1.368-1.406,2.105
				c-0.655,0.736-1.743,1.748-3.264,3.034c-1.271,1.066-2.086,1.79-2.447,2.17c-0.361,0.381-0.659,0.763-0.894,1.146
				L289.668,261.703L289.668,261.703z"/>
			<path class="st4" d="M293.914,268.808h-1.517c2.344-3.764,3.517-7.531,3.517-11.303c0-1.475-0.168-2.937-0.505-4.388
				c-0.267-1.176-0.639-2.306-1.118-3.388c-0.306-0.705-0.937-1.882-1.894-3.528h1.517c1.474,1.969,2.564,3.944,3.27,5.928
				c0.604,1.71,0.906,3.498,0.906,5.364c0,2.117-0.406,4.163-1.217,6.14C296.06,265.608,295.074,267.333,293.914,268.808z"/>
		</g>
		<g class="st2">
			<path class="st4" d="M32.631,296.859h-1.72v-10.961c-0.414,0.395-0.957,0.79-1.629,1.185c-0.672,0.396-1.275,0.691-1.811,0.889
				v-1.663c0.962-0.452,1.803-1,2.523-1.644s1.229-1.268,1.529-1.873h1.108V296.859z"/>
			<path class="st4" d="M37.037,289.95c0-1.656,0.17-2.989,0.511-4c0.341-1.009,0.847-1.788,1.52-2.336
				c0.672-0.548,1.518-0.822,2.537-0.822c0.751,0,1.411,0.151,1.978,0.454s1.035,0.739,1.405,1.31s0.66,1.265,0.87,2.083
				c0.21,0.818,0.315,1.923,0.315,3.312c0,1.644-0.169,2.971-0.506,3.98c-0.338,1.01-0.843,1.79-1.515,2.341
				c-0.672,0.552-1.521,0.827-2.547,0.827c-1.351,0-2.412-0.484-3.183-1.453C37.499,294.479,37.037,292.581,37.037,289.95z
				 M38.805,289.95c0,2.3,0.269,3.83,0.808,4.592s1.203,1.142,1.993,1.142s1.454-0.382,1.993-1.146
				c0.538-0.765,0.807-2.294,0.807-4.587c0-2.307-0.269-3.839-0.807-4.597c-0.539-0.758-1.209-1.138-2.012-1.138
				c-0.79,0-1.421,0.335-1.892,1.004C39.101,286.073,38.805,287.65,38.805,289.95z"/>
			<path class="st4" d="M48.4,296.859V286.71h1.539v1.425c0.319-0.497,0.742-0.897,1.271-1.2c0.529-0.302,1.131-0.453,1.806-0.453
				c0.752,0,1.368,0.156,1.849,0.468s0.82,0.749,1.018,1.31c0.803-1.186,1.848-1.777,3.134-1.777c1.007,0,1.781,0.278,2.322,0.836
				s0.812,1.416,0.812,2.575v6.967h-1.71v-6.394c0-0.688-0.056-1.183-0.167-1.485s-0.314-0.547-0.607-0.731
				s-0.637-0.277-1.032-0.277c-0.713,0-1.306,0.237-1.777,0.712s-0.707,1.234-0.707,2.279v5.896h-1.72v-6.594
				c0-0.765-0.14-1.338-0.42-1.721c-0.281-0.382-0.739-0.573-1.376-0.573c-0.484,0-0.932,0.128-1.342,0.383
				c-0.411,0.255-0.709,0.627-0.894,1.118c-0.185,0.49-0.277,1.197-0.277,2.121v5.266H48.4V296.859z"/>
			<path class="st4" d="M64.388,297.7l1.672,0.249c0.07,0.516,0.265,0.892,0.583,1.127c0.427,0.318,1.01,0.479,1.749,0.479
				c0.796,0,1.411-0.16,1.844-0.479s0.727-0.765,0.879-1.338c0.089-0.351,0.13-1.086,0.124-2.207
				c-0.752,0.886-1.688,1.328-2.81,1.328c-1.395,0-2.475-0.503-3.24-1.51c-0.764-1.007-1.146-2.214-1.146-3.622
				c0-0.969,0.175-1.862,0.525-2.681s0.858-1.451,1.524-1.896c0.666-0.446,1.448-0.669,2.346-0.669c1.198,0,2.185,0.483,2.962,1.452
				v-1.224h1.586v8.773c0,1.58-0.161,2.699-0.483,3.359c-0.322,0.659-0.831,1.18-1.529,1.562c-0.698,0.382-1.556,0.573-2.576,0.573
				c-1.21,0-2.188-0.272-2.934-0.817S64.362,298.796,64.388,297.7z M65.812,291.603c0,1.331,0.265,2.303,0.793,2.914
				c0.529,0.612,1.191,0.918,1.988,0.918c0.79,0,1.453-0.305,1.988-0.913s0.803-1.562,0.803-2.862c0-1.242-0.276-2.179-0.827-2.81
				c-0.551-0.63-1.215-0.945-1.993-0.945c-0.765,0-1.414,0.311-1.949,0.932S65.812,290.38,65.812,291.603z"/>
			<path class="st4" d="M74.298,297.099l4.062-14.488h1.376l-4.052,14.488H74.298z"/>
			<path class="st4" d="M81.035,296.859v-14.01h1.72v7.989l4.071-4.129h2.227l-3.88,3.766l4.272,6.384h-2.122l-3.354-5.189
				l-1.213,1.166v4.023L81.035,296.859L81.035,296.859z"/>
			<path class="st4" d="M90.496,297.7l1.672,0.249c0.07,0.516,0.265,0.892,0.583,1.127c0.427,0.318,1.01,0.479,1.749,0.479
				c0.796,0,1.411-0.16,1.844-0.479s0.727-0.765,0.879-1.338c0.089-0.351,0.13-1.086,0.124-2.207
				c-0.752,0.886-1.688,1.328-2.81,1.328c-1.395,0-2.475-0.503-3.24-1.51c-0.764-1.007-1.146-2.214-1.146-3.622
				c0-0.969,0.175-1.862,0.525-2.681s0.858-1.451,1.524-1.896c0.666-0.446,1.448-0.669,2.346-0.669c1.198,0,2.185,0.483,2.962,1.452
				v-1.224h1.586v8.773c0,1.58-0.161,2.699-0.483,3.359c-0.322,0.659-0.831,1.18-1.529,1.562c-0.698,0.382-1.556,0.573-2.576,0.573
				c-1.21,0-2.188-0.272-2.934-0.817S90.47,298.796,90.496,297.7z M91.92,291.603c0,1.331,0.265,2.303,0.793,2.914
				c0.529,0.612,1.191,0.918,1.988,0.918c0.79,0,1.453-0.305,1.988-0.913s0.803-1.562,0.803-2.862c0-1.242-0.276-2.179-0.827-2.81
				c-0.551-0.63-1.215-0.945-1.993-0.945c-0.765,0-1.414,0.311-1.949,0.932S91.92,290.38,91.92,291.603z"/>
			<path class="st4" d="M107.144,284.828v-1.979h1.72v1.979H107.144z M107.144,296.859V286.71h1.72v10.149H107.144z"/>
			<path class="st4" d="M111.482,296.859V286.71h1.548v1.443c0.745-1.114,1.822-1.672,3.23-1.672c0.612,0,1.174,0.109,1.687,0.329
				s0.897,0.509,1.152,0.865s0.433,0.78,0.535,1.271c0.063,0.319,0.096,0.876,0.096,1.673v6.24h-1.72v-6.174
				c0-0.7-0.067-1.225-0.201-1.571c-0.134-0.348-0.372-0.625-0.712-0.832c-0.341-0.207-0.741-0.311-1.2-0.311
				c-0.732,0-1.365,0.232-1.897,0.698c-0.532,0.465-0.798,1.347-0.798,2.646v5.543L111.482,296.859L111.482,296.859z"/>
			<path class="st4" d="M122.778,296.859v-8.812h-1.52v-1.338h1.52v-1.079c0-0.682,0.061-1.188,0.182-1.52
				c0.166-0.446,0.457-0.808,0.874-1.085c0.417-0.277,1.002-0.416,1.754-0.416c0.484,0,1.019,0.058,1.605,0.172l-0.258,1.501
				c-0.356-0.063-0.694-0.096-1.013-0.096c-0.522,0-0.892,0.111-1.108,0.334c-0.217,0.224-0.325,0.641-0.325,1.252v0.937h1.978
				v1.338h-1.978v8.812L122.778,296.859L122.778,296.859z"/>
			<path class="st4" d="M134.456,296.859v-1.491c-0.79,1.147-1.863,1.721-3.221,1.721c-0.599,0-1.158-0.115-1.677-0.344
				c-0.52-0.229-0.905-0.518-1.157-0.865c-0.251-0.348-0.428-0.772-0.53-1.275c-0.07-0.338-0.105-0.873-0.105-1.605v-6.289h1.72
				v5.629c0,0.898,0.035,1.504,0.105,1.816c0.108,0.452,0.338,0.808,0.688,1.065c0.351,0.258,0.784,0.387,1.3,0.387
				s1-0.132,1.453-0.396c0.452-0.265,0.772-0.624,0.96-1.08c0.188-0.455,0.282-1.116,0.282-1.982v-5.438h1.72v10.149h-1.538V296.859
				z"/>
			<path class="st4" d="M138.002,293.83l1.701-0.268c0.095,0.682,0.361,1.204,0.798,1.567c0.437,0.363,1.046,0.545,1.83,0.545
				c0.79,0,1.376-0.161,1.758-0.483c0.382-0.321,0.573-0.699,0.573-1.132c0-0.389-0.168-0.694-0.506-0.918
				c-0.236-0.152-0.822-0.347-1.758-0.583c-1.261-0.318-2.136-0.594-2.623-0.826c-0.488-0.232-0.857-0.555-1.109-0.965
				c-0.251-0.411-0.377-0.865-0.377-1.362c0-0.452,0.104-0.871,0.311-1.257c0.207-0.385,0.489-0.705,0.846-0.96
				c0.268-0.197,0.632-0.365,1.094-0.502c0.462-0.137,0.958-0.205,1.486-0.205c0.796,0,1.496,0.114,2.098,0.344
				s1.046,0.54,1.333,0.932s0.484,0.916,0.592,1.572l-1.682,0.229c-0.077-0.522-0.298-0.931-0.664-1.224
				c-0.367-0.293-0.884-0.439-1.553-0.439c-0.79,0-1.354,0.131-1.691,0.392c-0.338,0.262-0.506,0.567-0.506,0.918
				c0,0.223,0.07,0.423,0.21,0.602c0.14,0.185,0.36,0.338,0.66,0.459c0.172,0.063,0.678,0.21,1.52,0.439
				c1.217,0.325,2.065,0.591,2.546,0.798s0.859,0.508,1.133,0.903s0.411,0.886,0.411,1.472c0,0.573-0.167,1.113-0.501,1.62
				c-0.334,0.506-0.817,0.897-1.448,1.175c-0.631,0.277-1.345,0.416-2.141,0.416c-1.319,0-2.324-0.274-3.015-0.822
				C138.634,295.719,138.193,294.906,138.002,293.83z"/>
			<path class="st4" d="M148.485,284.828v-1.979h1.72v1.979H148.485z M148.485,296.859V286.71h1.72v10.149H148.485z"/>
			<path class="st4" d="M152.183,291.785c0-1.88,0.522-3.271,1.567-4.177c0.873-0.751,1.937-1.127,3.192-1.127
				c1.395,0,2.536,0.457,3.421,1.371c0.886,0.914,1.329,2.177,1.329,3.789c0,1.306-0.196,2.333-0.588,3.082s-0.962,1.33-1.71,1.744
				c-0.749,0.414-1.566,0.621-2.451,0.621c-1.421,0-2.569-0.455-3.445-1.367C152.621,294.811,152.183,293.499,152.183,291.785z
				 M153.951,291.785c0,1.3,0.283,2.272,0.851,2.919c0.567,0.647,1.28,0.971,2.141,0.971c0.854,0,1.564-0.325,2.131-0.976
				c0.567-0.649,0.851-1.64,0.851-2.972c0-1.255-0.285-2.206-0.855-2.853s-1.279-0.97-2.126-0.97c-0.86,0-1.574,0.321-2.141,0.965
				C154.235,289.514,153.951,290.485,153.951,291.785z"/>
			<path class="st4" d="M163.708,296.859V286.71h1.548v1.443c0.745-1.114,1.822-1.672,3.23-1.672c0.612,0,1.174,0.109,1.687,0.329
				s0.897,0.509,1.152,0.865s0.433,0.78,0.535,1.271c0.063,0.319,0.096,0.876,0.096,1.673v6.24h-1.72v-6.174
				c0-0.7-0.067-1.225-0.201-1.571c-0.134-0.348-0.372-0.625-0.712-0.832c-0.341-0.207-0.741-0.311-1.2-0.311
				c-0.732,0-1.365,0.232-1.897,0.698c-0.532,0.465-0.798,1.347-0.798,2.646v5.543L163.708,296.859L163.708,296.859z"/>
			<path class="st4" d="M186.979,293.591l1.777,0.22c-0.28,1.039-0.799,1.845-1.558,2.418s-1.727,0.86-2.905,0.86
				c-1.484,0-2.662-0.457-3.531-1.371s-1.304-2.196-1.304-3.847c0-1.708,0.439-3.033,1.319-3.976
				c0.879-0.943,2.02-1.414,3.421-1.414c1.357,0,2.466,0.462,3.326,1.386s1.291,2.223,1.291,3.898c0,0.103-0.003,0.255-0.01,0.459
				h-7.569c0.063,1.115,0.379,1.969,0.946,2.561c0.567,0.593,1.274,0.89,2.122,0.89c0.63,0,1.169-0.166,1.615-0.497
				S186.717,294.317,186.979,293.591z M181.331,290.811h5.667c-0.077-0.854-0.293-1.494-0.65-1.921
				c-0.548-0.663-1.258-0.994-2.131-0.994c-0.79,0-1.455,0.265-1.993,0.793C181.686,289.218,181.388,289.925,181.331,290.811z"/>
			<path class="st4" d="M193.735,296.859l-3.861-10.149h1.815l2.179,6.078c0.235,0.656,0.452,1.338,0.65,2.045
				c0.153-0.535,0.366-1.178,0.64-1.93l2.255-6.193h1.768l-3.842,10.149H193.735z"/>
			<path class="st4" d="M207.649,293.591l1.777,0.22c-0.28,1.039-0.799,1.845-1.558,2.418s-1.727,0.86-2.905,0.86
				c-1.484,0-2.662-0.457-3.531-1.371s-1.304-2.196-1.304-3.847c0-1.708,0.439-3.033,1.319-3.976
				c0.879-0.943,2.02-1.414,3.421-1.414c1.357,0,2.466,0.462,3.326,1.386s1.291,2.223,1.291,3.898c0,0.103-0.003,0.255-0.01,0.459
				h-7.569c0.063,1.115,0.379,1.969,0.946,2.561c0.567,0.593,1.274,0.89,2.122,0.89c0.63,0,1.169-0.166,1.615-0.497
				S207.388,294.317,207.649,293.591z M202.001,290.811h5.667c-0.077-0.854-0.293-1.494-0.65-1.921
				c-0.548-0.663-1.258-0.994-2.131-0.994c-0.79,0-1.455,0.265-1.993,0.793C202.356,289.218,202.058,289.925,202.001,290.811z"/>
			<path class="st4" d="M211.567,296.859V286.71h1.548v1.539c0.395-0.72,0.76-1.194,1.094-1.424s0.702-0.344,1.104-0.344
				c0.58,0,1.169,0.185,1.768,0.554l-0.593,1.596c-0.42-0.248-0.841-0.372-1.261-0.372c-0.376,0-0.713,0.113-1.013,0.339
				c-0.299,0.227-0.513,0.54-0.64,0.941c-0.191,0.611-0.287,1.28-0.287,2.007v5.313H211.567z"/>
			<path class="st4" d="M218.027,300.768l-0.191-1.614c0.376,0.102,0.704,0.152,0.984,0.152c0.382,0,0.688-0.063,0.917-0.191
				c0.229-0.127,0.417-0.306,0.564-0.535c0.108-0.172,0.283-0.599,0.525-1.28c0.032-0.096,0.083-0.235,0.153-0.42l-3.851-10.169
				h1.854l2.112,5.878c0.274,0.745,0.519,1.528,0.736,2.351c0.197-0.79,0.433-1.561,0.707-2.312l2.169-5.916h1.72l-3.861,10.321
				c-0.414,1.115-0.736,1.883-0.965,2.304c-0.306,0.566-0.656,0.982-1.051,1.247c-0.396,0.264-0.867,0.396-1.415,0.396
				C218.804,300.978,218.435,300.908,218.027,300.768z"/>
			<path class="st4" d="M241.89,295.206v1.653h-9.26c-0.013-0.414,0.054-0.812,0.201-1.194c0.236-0.631,0.613-1.252,1.133-1.863
				c0.519-0.612,1.269-1.319,2.25-2.122c1.522-1.249,2.551-2.237,3.086-2.967c0.536-0.729,0.803-1.42,0.803-2.069
				c0-0.682-0.244-1.257-0.731-1.725c-0.487-0.469-1.123-0.703-1.906-0.703c-0.829,0-1.491,0.249-1.988,0.746
				c-0.497,0.496-0.749,1.185-0.755,2.063l-1.768-0.182c0.121-1.318,0.577-2.323,1.367-3.015c0.79-0.691,1.851-1.037,3.182-1.037
				c1.344,0,2.408,0.373,3.192,1.118s1.175,1.669,1.175,2.771c0,0.561-0.115,1.112-0.344,1.653c-0.229,0.542-0.61,1.112-1.142,1.711
				s-1.416,1.421-2.652,2.465c-1.032,0.867-1.695,1.455-1.988,1.764s-0.535,0.619-0.727,0.932L241.89,295.206L241.89,295.206z"/>
			<path class="st4" d="M251.523,296.859l-3.106-10.149h1.778l1.615,5.858l0.602,2.179c0.025-0.108,0.201-0.806,0.526-2.093
				l1.615-5.944h1.768l1.52,5.888l0.506,1.939l0.583-1.959l1.739-5.868h1.672l-3.172,10.149h-1.787l-1.615-6.078l-0.392-1.729
				l-2.055,7.808h-1.797V296.859z"/>
			<path class="st4" d="M270.732,293.591l1.777,0.22c-0.28,1.039-0.799,1.845-1.558,2.418s-1.727,0.86-2.905,0.86
				c-1.484,0-2.662-0.457-3.531-1.371s-1.304-2.196-1.304-3.847c0-1.708,0.439-3.033,1.319-3.976
				c0.879-0.943,2.02-1.414,3.421-1.414c1.357,0,2.466,0.462,3.326,1.386s1.291,2.223,1.291,3.898c0,0.103-0.003,0.255-0.01,0.459
				h-7.569c0.063,1.115,0.379,1.969,0.946,2.561c0.567,0.593,1.274,0.89,2.122,0.89c0.63,0,1.169-0.166,1.615-0.497
				S270.47,294.317,270.732,293.591z M265.083,290.811h5.667c-0.077-0.854-0.293-1.494-0.65-1.921
				c-0.548-0.663-1.258-0.994-2.131-0.994c-0.79,0-1.455,0.265-1.993,0.793C265.439,289.218,265.141,289.925,265.083,290.811z"/>
			<path class="st4" d="M281.616,293.591l1.777,0.22c-0.28,1.039-0.799,1.845-1.558,2.418s-1.727,0.86-2.905,0.86
				c-1.484,0-2.662-0.457-3.531-1.371s-1.304-2.196-1.304-3.847c0-1.708,0.439-3.033,1.319-3.976
				c0.879-0.943,2.02-1.414,3.421-1.414c1.357,0,2.466,0.462,3.326,1.386s1.291,2.223,1.291,3.898c0,0.103-0.003,0.255-0.01,0.459
				h-7.569c0.063,1.115,0.379,1.969,0.946,2.561c0.567,0.593,1.274,0.89,2.122,0.89c0.63,0,1.169-0.166,1.615-0.497
				S281.354,294.317,281.616,293.591z M275.967,290.811h5.667c-0.077-0.854-0.293-1.494-0.65-1.921
				c-0.548-0.663-1.258-0.994-2.131-0.994c-0.79,0-1.455,0.265-1.993,0.793C276.323,289.218,276.026,289.925,275.967,290.811z"/>
			<path class="st4" d="M285.563,296.859v-14.01h1.72v7.989l4.071-4.129h2.227l-3.88,3.766l4.272,6.384h-2.122l-3.354-5.189
				l-1.213,1.166v4.023L285.563,296.859L285.563,296.859z"/>
			<path class="st4" d="M294.651,293.83l1.701-0.268c0.095,0.682,0.361,1.204,0.798,1.567s1.046,0.545,1.83,0.545
				c0.79,0,1.376-0.161,1.758-0.483c0.382-0.321,0.573-0.699,0.573-1.132c0-0.389-0.168-0.694-0.506-0.918
				c-0.236-0.152-0.822-0.347-1.758-0.583c-1.261-0.318-2.136-0.594-2.623-0.826c-0.488-0.232-0.857-0.555-1.109-0.965
				c-0.251-0.411-0.377-0.865-0.377-1.362c0-0.452,0.104-0.871,0.311-1.257c0.207-0.385,0.489-0.705,0.846-0.96
				c0.268-0.197,0.632-0.365,1.094-0.502s0.958-0.205,1.486-0.205c0.796,0,1.496,0.114,2.098,0.344s1.046,0.54,1.333,0.932
				s0.484,0.916,0.592,1.572l-1.682,0.229c-0.077-0.522-0.298-0.931-0.664-1.224c-0.367-0.293-0.884-0.439-1.553-0.439
				c-0.79,0-1.354,0.131-1.691,0.392c-0.338,0.262-0.506,0.567-0.506,0.918c0,0.223,0.07,0.423,0.21,0.602
				c0.14,0.185,0.36,0.338,0.66,0.459c0.172,0.063,0.678,0.21,1.52,0.439c1.217,0.325,2.065,0.591,2.546,0.798
				s0.859,0.508,1.133,0.903s0.411,0.886,0.411,1.472c0,0.573-0.167,1.113-0.501,1.62c-0.334,0.506-0.817,0.897-1.448,1.175
				c-0.631,0.277-1.345,0.416-2.141,0.416c-1.319,0-2.324-0.274-3.015-0.822C295.284,295.719,294.841,294.906,294.651,293.83z"/>
		</g>
		<g class="st2">
			<path class="st4" d="M78.373,317.178v-3.842H74.56v-1.605h3.813v-3.813h1.625v3.813h3.813v1.605h-3.813v3.842H78.373z"/>
			<path class="st4" d="M93.214,319.442h-1.596v-14.01h1.72v4.998c0.726-0.911,1.653-1.366,2.781-1.366
				c0.624,0,1.215,0.125,1.772,0.377c0.558,0.252,1.016,0.605,1.376,1.061s0.642,1.006,0.846,1.648
				c0.204,0.644,0.306,1.332,0.306,2.064c0,1.739-0.43,3.084-1.29,4.033s-1.892,1.424-3.096,1.424c-1.198,0-2.138-0.5-2.819-1.501
				L93.214,319.442L93.214,319.442z M93.195,314.291c0,1.218,0.166,2.097,0.497,2.638c0.542,0.886,1.274,1.329,2.198,1.329
				c0.752,0,1.401-0.327,1.95-0.979c0.548-0.653,0.822-1.627,0.822-2.92c0-1.325-0.263-2.303-0.789-2.934
				c-0.525-0.631-1.161-0.946-1.906-0.946c-0.752,0-1.402,0.326-1.95,0.979S93.195,313.056,93.195,314.291z"/>
			<path class="st4" d="M109.135,318.19c-0.637,0.542-1.25,0.924-1.839,1.146c-0.589,0.224-1.222,0.335-1.897,0.335
				c-1.115,0-1.972-0.272-2.571-0.817c-0.599-0.545-0.898-1.24-0.898-2.088c0-0.497,0.113-0.951,0.339-1.362
				c0.226-0.41,0.522-0.74,0.889-0.988c0.366-0.249,0.779-0.437,1.238-0.564c0.337-0.089,0.847-0.175,1.529-0.258
				c1.389-0.166,2.412-0.363,3.068-0.593c0.006-0.235,0.009-0.385,0.009-0.449c0-0.7-0.162-1.194-0.487-1.48
				c-0.439-0.389-1.093-0.583-1.959-0.583c-0.809,0-1.406,0.142-1.792,0.425c-0.385,0.283-0.67,0.785-0.855,1.505l-1.682-0.229
				c0.153-0.721,0.404-1.302,0.755-1.744c0.351-0.443,0.857-0.784,1.52-1.022c0.663-0.239,1.43-0.358,2.303-0.358
				c0.866,0,1.57,0.102,2.112,0.306s0.94,0.46,1.195,0.769c0.254,0.31,0.433,0.7,0.535,1.171c0.057,0.293,0.086,0.822,0.086,1.587
				v2.293c0,1.6,0.037,2.611,0.11,3.034c0.073,0.424,0.218,0.83,0.435,1.219h-1.796C109.301,319.086,109.187,318.668,109.135,318.19
				z M108.992,314.349c-0.625,0.255-1.561,0.472-2.81,0.65c-0.708,0.102-1.208,0.216-1.5,0.344c-0.293,0.127-0.52,0.313-0.679,0.559
				c-0.159,0.246-0.239,0.518-0.239,0.817c0,0.459,0.173,0.841,0.521,1.146c0.347,0.306,0.855,0.459,1.524,0.459
				c0.663,0,1.252-0.145,1.768-0.435s0.895-0.687,1.137-1.19c0.185-0.388,0.277-0.962,0.277-1.72v-0.63H108.992z"/>
			<path class="st4" d="M112.71,316.413l1.701-0.268c0.095,0.682,0.361,1.204,0.798,1.567s1.046,0.545,1.83,0.545
				c0.79,0,1.376-0.161,1.758-0.483c0.382-0.321,0.573-0.699,0.573-1.132c0-0.389-0.168-0.694-0.506-0.918
				c-0.236-0.152-0.822-0.347-1.758-0.583c-1.261-0.318-2.136-0.594-2.623-0.826c-0.488-0.232-0.857-0.555-1.109-0.965
				c-0.251-0.411-0.377-0.865-0.377-1.362c0-0.452,0.104-0.871,0.311-1.257c0.207-0.385,0.489-0.705,0.846-0.96
				c0.268-0.197,0.632-0.365,1.094-0.502s0.958-0.205,1.486-0.205c0.796,0,1.496,0.114,2.098,0.344s1.046,0.54,1.333,0.932
				s0.484,0.916,0.592,1.572l-1.682,0.229c-0.077-0.522-0.298-0.931-0.664-1.224c-0.367-0.293-0.884-0.439-1.553-0.439
				c-0.79,0-1.354,0.131-1.691,0.392c-0.338,0.262-0.506,0.567-0.506,0.918c0,0.223,0.07,0.423,0.21,0.602
				c0.14,0.185,0.36,0.338,0.66,0.459c0.172,0.063,0.678,0.21,1.52,0.439c1.217,0.325,2.065,0.591,2.546,0.798
				s0.859,0.508,1.133,0.903s0.411,0.886,0.411,1.472c0,0.573-0.167,1.113-0.501,1.62c-0.334,0.506-0.817,0.897-1.448,1.175
				c-0.631,0.277-1.345,0.416-2.141,0.416c-1.319,0-2.324-0.274-3.015-0.822C113.342,318.302,112.901,317.489,112.71,316.413z"/>
			<path class="st4" d="M130.131,316.174l1.777,0.22c-0.28,1.039-0.799,1.845-1.558,2.418s-1.727,0.86-2.905,0.86
				c-1.484,0-2.662-0.457-3.531-1.371s-1.304-2.196-1.304-3.847c0-1.708,0.439-3.033,1.319-3.976
				c0.879-0.943,2.02-1.414,3.421-1.414c1.357,0,2.466,0.462,3.326,1.386s1.291,2.223,1.291,3.898c0,0.103-0.003,0.255-0.01,0.459
				h-7.569c0.063,1.115,0.379,1.969,0.946,2.561c0.567,0.593,1.274,0.89,2.122,0.89c0.63,0,1.169-0.166,1.615-0.497
				S129.87,316.9,130.131,316.174z M124.484,313.394h5.667c-0.077-0.854-0.293-1.494-0.65-1.921
				c-0.548-0.663-1.258-0.994-2.131-0.994c-0.79,0-1.455,0.265-1.993,0.793C124.839,311.801,124.541,312.508,124.484,313.394z"/>
			<path class="st4" d="M134.03,319.442v-14.01h1.72v14.01H134.03z"/>
			<path class="st4" d="M138.426,307.411v-1.979h1.72v1.979H138.426z M138.426,319.442v-10.149h1.72v10.149H138.426z"/>
			<path class="st4" d="M142.765,319.442v-10.149h1.548v1.443c0.745-1.114,1.822-1.672,3.23-1.672c0.612,0,1.174,0.109,1.687,0.329
				s0.897,0.509,1.152,0.865s0.433,0.78,0.535,1.271c0.063,0.319,0.096,0.876,0.096,1.673v6.24h-1.72v-6.174
				c0-0.7-0.067-1.225-0.201-1.571c-0.134-0.348-0.372-0.625-0.712-0.832c-0.341-0.207-0.741-0.311-1.2-0.311
				c-0.732,0-1.365,0.232-1.897,0.698c-0.532,0.465-0.798,1.347-0.798,2.646v5.543L142.765,319.442L142.765,319.442z"/>
			<path class="st4" d="M160.597,316.174l1.777,0.22c-0.28,1.039-0.799,1.845-1.558,2.418s-1.727,0.86-2.905,0.86
				c-1.484,0-2.662-0.457-3.531-1.371s-1.304-2.196-1.304-3.847c0-1.708,0.439-3.033,1.319-3.976
				c0.879-0.943,2.02-1.414,3.421-1.414c1.357,0,2.466,0.462,3.326,1.386s1.291,2.223,1.291,3.898c0,0.103-0.003,0.255-0.01,0.459
				h-7.569c0.063,1.115,0.379,1.969,0.946,2.561c0.567,0.593,1.274,0.89,2.122,0.89c0.63,0,1.169-0.166,1.615-0.497
				S160.336,316.9,160.597,316.174z M154.949,313.394h5.667c-0.077-0.854-0.293-1.494-0.65-1.921
				c-0.548-0.663-1.258-0.994-2.131-0.994c-0.79,0-1.455,0.265-1.993,0.793C155.304,311.801,155.006,312.508,154.949,313.394z"/>
			<path class="st4" d="M173.728,317.903l0.249,1.52c-0.484,0.103-0.917,0.153-1.3,0.153c-0.625,0-1.108-0.099-1.453-0.296
				s-0.586-0.457-0.726-0.779c-0.141-0.321-0.21-0.999-0.21-2.03v-5.84h-1.261v-1.338h1.261v-2.513l1.71-1.032v3.545h1.73v1.338
				h-1.73v5.935c0,0.491,0.03,0.807,0.091,0.946c0.061,0.141,0.159,0.252,0.296,0.335s0.333,0.124,0.588,0.124
				C173.164,317.971,173.416,317.948,173.728,317.903z"/>
			<path class="st4" d="M175.391,319.442v-10.149h1.548v1.539c0.395-0.72,0.76-1.194,1.094-1.424s0.702-0.344,1.104-0.344
				c0.58,0,1.169,0.185,1.768,0.554l-0.593,1.596c-0.42-0.248-0.841-0.372-1.261-0.372c-0.376,0-0.713,0.113-1.013,0.339
				c-0.299,0.227-0.513,0.54-0.64,0.941c-0.191,0.611-0.287,1.28-0.287,2.007v5.313H175.391z"/>
			<path class="st4" d="M188.875,316.174l1.777,0.22c-0.28,1.039-0.799,1.845-1.558,2.418s-1.727,0.86-2.905,0.86
				c-1.484,0-2.662-0.457-3.531-1.371s-1.304-2.196-1.304-3.847c0-1.708,0.439-3.033,1.319-3.976
				c0.879-0.943,2.02-1.414,3.421-1.414c1.357,0,2.466,0.462,3.326,1.386s1.291,2.223,1.291,3.898c0,0.103-0.003,0.255-0.01,0.459
				h-7.569c0.063,1.115,0.379,1.969,0.946,2.561c0.567,0.593,1.274,0.89,2.122,0.89c0.63,0,1.169-0.166,1.615-0.497
				S188.614,316.9,188.875,316.174z M183.227,313.394h5.667c-0.077-0.854-0.293-1.494-0.65-1.921
				c-0.548-0.663-1.258-0.994-2.131-0.994c-0.79,0-1.455,0.265-1.993,0.793C183.582,311.801,183.284,312.508,183.227,313.394z"/>
			<path class="st4" d="M199.435,318.19c-0.637,0.542-1.25,0.924-1.839,1.146c-0.589,0.224-1.222,0.335-1.897,0.335
				c-1.115,0-1.972-0.272-2.571-0.817c-0.599-0.545-0.898-1.24-0.898-2.088c0-0.497,0.113-0.951,0.339-1.362
				c0.226-0.41,0.522-0.74,0.889-0.988c0.366-0.249,0.779-0.437,1.238-0.564c0.337-0.089,0.847-0.175,1.529-0.258
				c1.389-0.166,2.412-0.363,3.068-0.593c0.006-0.235,0.009-0.385,0.009-0.449c0-0.7-0.162-1.194-0.487-1.48
				c-0.439-0.389-1.093-0.583-1.959-0.583c-0.809,0-1.406,0.142-1.792,0.425c-0.385,0.283-0.67,0.785-0.855,1.505l-1.682-0.229
				c0.153-0.721,0.404-1.302,0.755-1.744c0.351-0.443,0.857-0.784,1.52-1.022c0.663-0.239,1.43-0.358,2.303-0.358
				c0.866,0,1.57,0.102,2.112,0.306s0.94,0.46,1.195,0.769c0.254,0.31,0.433,0.7,0.535,1.171c0.057,0.293,0.086,0.822,0.086,1.587
				v2.293c0,1.6,0.037,2.611,0.11,3.034c0.073,0.424,0.218,0.83,0.435,1.219h-1.796C199.601,319.086,199.486,318.668,199.435,318.19
				z M199.292,314.349c-0.625,0.255-1.561,0.472-2.81,0.65c-0.708,0.102-1.208,0.216-1.5,0.344c-0.293,0.127-0.52,0.313-0.679,0.559
				c-0.159,0.246-0.239,0.518-0.239,0.817c0,0.459,0.173,0.841,0.521,1.146c0.347,0.306,0.855,0.459,1.524,0.459
				c0.663,0,1.252-0.145,1.768-0.435s0.895-0.687,1.137-1.19c0.185-0.388,0.277-0.962,0.277-1.72v-0.63H199.292z"/>
			<path class="st4" d="M207.453,317.903l0.249,1.52c-0.484,0.103-0.917,0.153-1.3,0.153c-0.625,0-1.108-0.099-1.453-0.296
				s-0.586-0.457-0.726-0.779c-0.141-0.321-0.21-0.999-0.21-2.03v-5.84h-1.261v-1.338h1.261v-2.513l1.71-1.032v3.545h1.73v1.338
				h-1.73v5.935c0,0.491,0.03,0.807,0.091,0.946c0.061,0.141,0.159,0.252,0.296,0.335s0.333,0.124,0.588,0.124
				C206.889,317.971,207.14,317.948,207.453,317.903z"/>
			<path class="st4" d="M209.134,319.442v-10.149h1.539v1.425c0.319-0.497,0.742-0.897,1.271-1.2
				c0.529-0.302,1.131-0.453,1.806-0.453c0.752,0,1.368,0.156,1.849,0.468s0.82,0.749,1.018,1.31
				c0.803-1.186,1.848-1.777,3.134-1.777c1.007,0,1.781,0.278,2.322,0.836s0.812,1.416,0.812,2.575v6.967h-1.71v-6.394
				c0-0.688-0.056-1.183-0.167-1.485s-0.314-0.547-0.607-0.731s-0.637-0.277-1.032-0.277c-0.713,0-1.306,0.237-1.777,0.712
				s-0.707,1.234-0.707,2.279v5.896h-1.72v-6.594c0-0.765-0.14-1.338-0.42-1.721c-0.281-0.382-0.739-0.573-1.376-0.573
				c-0.484,0-0.932,0.128-1.342,0.383c-0.411,0.255-0.709,0.627-0.894,1.118c-0.185,0.49-0.277,1.197-0.277,2.121v5.266h-1.722
				V319.442z"/>
			<path class="st4" d="M232.386,316.174l1.777,0.22c-0.28,1.039-0.799,1.845-1.558,2.418s-1.727,0.86-2.905,0.86
				c-1.484,0-2.662-0.457-3.531-1.371s-1.304-2.196-1.304-3.847c0-1.708,0.439-3.033,1.319-3.976
				c0.879-0.943,2.02-1.414,3.421-1.414c1.357,0,2.466,0.462,3.326,1.386s1.291,2.223,1.291,3.898c0,0.103-0.003,0.255-0.01,0.459
				h-7.569c0.063,1.115,0.379,1.969,0.946,2.561c0.567,0.593,1.274,0.89,2.122,0.89c0.63,0,1.169-0.166,1.615-0.497
				S232.125,316.9,232.386,316.174z M226.738,313.394h5.667c-0.077-0.854-0.293-1.494-0.65-1.921
				c-0.548-0.663-1.258-0.994-2.131-0.994c-0.79,0-1.455,0.265-1.993,0.793C227.093,311.801,226.795,312.508,226.738,313.394z"/>
			<path class="st4" d="M236.323,319.442v-10.149h1.548v1.443c0.745-1.114,1.822-1.672,3.23-1.672c0.612,0,1.174,0.109,1.687,0.329
				s0.897,0.509,1.152,0.865s0.433,0.78,0.535,1.271c0.063,0.319,0.096,0.876,0.096,1.673v6.24h-1.72v-6.174
				c0-0.7-0.067-1.225-0.201-1.571c-0.134-0.348-0.372-0.625-0.712-0.832c-0.341-0.207-0.741-0.311-1.2-0.311
				c-0.732,0-1.365,0.232-1.897,0.698c-0.532,0.465-0.798,1.347-0.798,2.646v5.543L236.323,319.442L236.323,319.442z"/>
			<path class="st4" d="M250.964,317.903l0.249,1.52c-0.484,0.103-0.917,0.153-1.3,0.153c-0.625,0-1.108-0.099-1.453-0.296
				s-0.586-0.457-0.726-0.779c-0.141-0.321-0.21-0.999-0.21-2.03v-5.84h-1.261v-1.338h1.261v-2.513l1.71-1.032v3.545h1.73v1.338
				h-1.73v5.935c0,0.491,0.03,0.807,0.091,0.946c0.061,0.141,0.159,0.252,0.296,0.335s0.333,0.124,0.588,0.124
				C250.4,317.971,250.651,317.948,250.964,317.903z"/>
			<path class="st4" d="M251.957,316.413l1.701-0.268c0.095,0.682,0.361,1.204,0.798,1.567s1.046,0.545,1.83,0.545
				c0.79,0,1.376-0.161,1.758-0.483c0.382-0.321,0.573-0.699,0.573-1.132c0-0.389-0.168-0.694-0.506-0.918
				c-0.236-0.152-0.822-0.347-1.758-0.583c-1.261-0.318-2.136-0.594-2.623-0.826c-0.488-0.232-0.857-0.555-1.109-0.965
				c-0.251-0.411-0.377-0.865-0.377-1.362c0-0.452,0.104-0.871,0.311-1.257c0.207-0.385,0.489-0.705,0.846-0.96
				c0.268-0.197,0.632-0.365,1.094-0.502s0.958-0.205,1.486-0.205c0.796,0,1.496,0.114,2.098,0.344s1.046,0.54,1.333,0.932
				s0.484,0.916,0.592,1.572l-1.682,0.229c-0.077-0.522-0.298-0.931-0.664-1.224c-0.367-0.293-0.884-0.439-1.553-0.439
				c-0.79,0-1.354,0.131-1.691,0.392c-0.338,0.262-0.506,0.567-0.506,0.918c0,0.223,0.07,0.423,0.21,0.602
				c0.14,0.185,0.36,0.338,0.66,0.459c0.172,0.063,0.678,0.21,1.52,0.439c1.217,0.325,2.065,0.591,2.546,0.798
				s0.859,0.508,1.133,0.903s0.411,0.886,0.411,1.472c0,0.573-0.167,1.113-0.501,1.62c-0.334,0.506-0.817,0.897-1.448,1.175
				c-0.631,0.277-1.345,0.416-2.141,0.416c-1.319,0-2.324-0.274-3.015-0.822C252.589,318.302,252.148,317.489,251.957,316.413z"/>
		</g>
	</g>
	<g>
		<rect x="236.208" y="4.957" class="st5" width="327.583" height="140.081"/>
		<g>
			<g class="st2">
				<path class="st3" d="M292.513,60.334c0-6.974,5.059-12.321,12.285-12.321c7.19,0,12.104,5.384,12.104,12.321
					c0,6.974-5.059,12.321-12.285,12.321C297.427,72.655,292.513,67.271,292.513,60.334z M312.676,60.334
					c0-4.95-3.36-8.527-7.949-8.527c-4.625,0-7.985,3.541-7.985,8.527c0,4.95,3.36,8.527,7.985,8.527
					C309.315,68.861,312.676,65.32,312.676,60.334z"/>
				<path class="st3" d="M320.589,59.72h-1.843v-3.324h8.094v3.144h-2.276l3.794,8.238l3.794-8.238h-2.385v-3.144h8.058v3.324
					h-1.843l-6.287,12.791h-2.818L320.589,59.72z"/>
				<path class="st3" d="M342.846,65.645c0.542,2.457,2.565,3.541,5.203,3.541c1.915,0,3.902-0.614,5.745-1.662l-0.325,3.541
					c-1.662,0.976-3.686,1.445-5.998,1.445c-5.167,0-8.744-3.252-8.744-8.166c0-4.48,3.144-8.238,8.021-8.238
					c5.059,0,7.696,3.396,7.696,7.588c0,0.614-0.072,1.409-0.181,1.951L342.846,65.645L342.846,65.645z M342.81,62.899h7.696
					c-0.072-2.168-1.481-3.613-3.794-3.613C344.979,59.286,343.243,60.298,342.81,62.899z"/>
				<path class="st3" d="M370.776,58.708c0,1.337-1.048,2.457-2.349,2.457c-1.192,0-1.987-0.687-2.312-1.409
					c-1.12,0.397-2.421,1.626-3.144,2.999v6.215h2.746v3.252h-9.033V68.97h2.349v-9.25h-2.349v-3.324h6.143v3.577
					c1.337-2.132,2.999-3.866,5.022-3.866C369.801,56.106,370.776,57.299,370.776,58.708z"/>
				<path class="st3" d="M372.005,68.066c0-2.963,2.602-4.77,6.359-4.77c1.626,0,3.144,0.217,4.011,0.434v-1.265
					c0-0.939-0.217-1.662-0.614-2.168c-0.65-0.831-1.698-1.156-3.107-1.156c-0.687,0-1.192,0.108-1.554,0.253
					c0.072,0.217,0.145,0.578,0.145,0.795c0,1.192-0.939,2.06-2.132,2.06s-2.096-0.831-2.096-2.132c0-1.951,1.987-4.011,6.287-4.011
					c2.71,0,4.553,0.759,5.673,2.132c0.831,1.012,1.229,2.385,1.229,3.975v6.757h2.349v3.252h-6.106v-1.734
					c-1.265,1.084-3.18,2.023-5.312,2.023C374.426,72.511,372.005,71.029,372.005,68.066z M382.375,68.247v-2.493
					c-0.903-0.217-2.023-0.361-3.252-0.361c-1.915,0-3.071,0.867-3.071,2.312c0,1.265,0.939,1.951,2.349,1.951
					S381.182,69.114,382.375,68.247z"/>
				<path class="st3" d="M389.818,68.97h2.457V49.097h-2.457v-3.324h6.396V68.97h2.349v3.252h-8.744V68.97H389.818z"/>
				<path class="st3" d="M400.477,68.97h2.457V49.097h-2.457v-3.324h6.396V68.97h2.349v3.252h-8.744L400.477,68.97L400.477,68.97z"
					/>
			</g>
			<g class="st2">
				<path class="st4" d="M425.08,77.291c-1.169-1.475-2.156-3.199-2.964-5.175c-0.808-1.977-1.211-4.022-1.211-6.14
					c0-1.866,0.301-3.654,0.905-5.364c0.706-1.983,1.796-3.959,3.27-5.928h1.518c-0.949,1.631-1.576,2.796-1.882,3.493
					c-0.479,1.082-0.855,2.212-1.129,3.388c-0.338,1.467-0.506,2.94-0.506,4.423c0,3.771,1.172,7.539,3.517,11.303H425.08z"/>
				<path class="st4" d="M429.302,72.222V54.979h2.341l9.057,13.538V54.979h2.188v17.243h-2.341l-9.057-13.55v13.55H429.302z"/>
				<path class="st4" d="M457.591,62.083h-11.387v-1.976h11.387V62.083z M457.591,67.317h-11.387V65.34h11.387V67.317z"/>
				<path class="st4" d="M466.716,72.222v-4.128h-7.48v-1.941l7.868-11.174h1.729v11.174h2.329v1.941h-2.329v4.128H466.716z
					 M466.716,66.152v-7.774l-5.398,7.774H466.716z"/>
				<path class="st4" d="M476.584,62.871c-0.878-0.321-1.529-0.78-1.952-1.376s-0.635-1.31-0.635-2.141
					c0-1.255,0.45-2.31,1.353-3.164c0.901-0.854,2.102-1.282,3.6-1.282c1.505,0,2.717,0.438,3.634,1.312s1.376,1.938,1.376,3.193
					c0,0.8-0.209,1.496-0.629,2.088s-1.057,1.049-1.912,1.37c1.059,0.345,1.865,0.901,2.418,1.67
					c0.553,0.769,0.829,1.687,0.829,2.753c0,1.474-0.522,2.713-1.564,3.716c-1.043,1.004-2.415,1.506-4.116,1.506
					c-1.702,0-3.074-0.504-4.117-1.512c-1.043-1.007-1.564-2.264-1.564-3.77c0-1.121,0.284-2.06,0.854-2.816
					C474.726,63.661,475.534,63.145,476.584,62.871z M475.479,67.246c0,0.604,0.143,1.188,0.43,1.753
					c0.286,0.564,0.711,1.002,1.275,1.312c0.565,0.31,1.173,0.465,1.824,0.465c1.012,0,1.846-0.326,2.505-0.977
					s0.987-1.479,0.987-2.481c0-1.02-0.338-1.862-1.017-2.529c-0.679-0.666-1.527-1-2.546-1c-0.996,0-1.822,0.33-2.477,0.988
					C475.807,65.436,475.479,66.259,475.479,67.246z M476.161,59.283c0,0.816,0.263,1.482,0.788,2s1.207,0.776,2.047,0.776
					c0.814,0,1.483-0.257,2.005-0.771s0.782-1.143,0.782-1.888c0-0.776-0.269-1.429-0.806-1.958s-1.206-0.794-2.005-0.794
					c-0.809,0-1.479,0.259-2.012,0.775C476.429,57.942,476.161,58.562,476.161,59.283z"/>
				<path class="st4" d="M486.865,57.237v-2.035h11.161v1.646c-1.098,1.169-2.186,2.722-3.264,4.658s-1.911,3.929-2.499,5.975
					c-0.424,1.443-0.694,3.023-0.812,4.74h-2.176c0.023-1.356,0.291-2.995,0.801-4.916c0.509-1.922,1.24-3.774,2.193-5.558
					c0.952-1.784,1.966-3.288,3.04-4.511h-8.444V57.237z"/>
				<path class="st4" d="M502.096,77.291h-1.518c2.345-3.764,3.518-7.531,3.518-11.303c0-1.475-0.169-2.937-0.506-4.388
					c-0.268-1.176-0.639-2.306-1.117-3.388c-0.307-0.705-0.938-1.882-1.895-3.528h1.518c1.475,1.969,2.564,3.944,3.27,5.928
					c0.604,1.71,0.906,3.498,0.906,5.364c0,2.117-0.406,4.163-1.217,6.14C504.242,74.092,503.257,75.816,502.096,77.291z"/>
			</g>
			<g class="st2">
				<path class="st4" d="M318.37,111.665V94.422h5.21l3.128,11.762l3.094-11.762h5.222v17.243h-3.234V98.092l-3.423,13.573h-3.352
					l-3.411-13.573v13.573H318.37z"/>
				<path class="st4" d="M345.693,107.689l3.293,0.553c-0.423,1.208-1.092,2.127-2.005,2.759c-0.914,0.631-2.057,0.946-3.429,0.946
					c-2.172,0-3.779-0.71-4.822-2.129c-0.823-1.137-1.235-2.571-1.235-4.305c0-2.07,0.541-3.691,1.623-4.863
					c1.082-1.173,2.45-1.759,4.105-1.759c1.858,0,3.324,0.613,4.399,1.841c1.074,1.228,1.588,3.107,1.541,5.64h-8.28
					c0.023,0.98,0.29,1.743,0.8,2.288s1.145,0.817,1.905,0.817c0.518,0,0.953-0.142,1.306-0.424
					C345.246,108.771,345.512,108.317,345.693,107.689z M345.88,104.35c-0.023-0.957-0.271-1.685-0.741-2.183
					c-0.47-0.497-1.043-0.746-1.717-0.746c-0.721,0-1.317,0.263-1.788,0.788s-0.702,1.238-0.694,2.141L345.88,104.35L345.88,104.35z
					"/>
				<path class="st4" d="M363.311,111.665h-3.07v-1.835c-0.51,0.714-1.111,1.245-1.806,1.594c-0.694,0.349-1.394,0.523-2.099,0.523
					c-1.435,0-2.664-0.578-3.688-1.734c-1.023-1.157-1.535-2.771-1.535-4.841c0-2.117,0.498-3.727,1.494-4.828
					c0.996-1.102,2.254-1.652,3.775-1.652c1.396,0,2.603,0.58,3.623,1.741v-6.211h3.305v17.243H363.311z M354.49,105.149
					c0,1.333,0.184,2.297,0.553,2.893c0.533,0.863,1.278,1.294,2.235,1.294c0.76,0,1.407-0.323,1.94-0.97s0.8-1.613,0.8-2.899
					c0-1.436-0.259-2.468-0.776-3.1c-0.517-0.631-1.18-0.946-1.987-0.946c-0.785,0-1.441,0.312-1.97,0.935
					S354.49,103.91,354.49,105.149z"/>
				<path class="st4" d="M366.569,97.48v-3.059h3.305v3.059H366.569z M366.569,111.665V99.174h3.305v12.491H366.569z"/>
				<path class="st4" d="M375.733,102.984l-3-0.541c0.337-1.207,0.917-2.101,1.741-2.682c0.823-0.58,2.046-0.87,3.67-0.87
					c1.474,0,2.572,0.175,3.293,0.523c0.722,0.349,1.229,0.792,1.523,1.329s0.441,1.523,0.441,2.958l-0.035,3.858
					c0,1.098,0.053,1.907,0.159,2.429s0.304,1.08,0.594,1.676h-3.27c-0.086-0.22-0.192-0.545-0.317-0.977
					c-0.055-0.195-0.094-0.325-0.118-0.388c-0.565,0.549-1.168,0.961-1.812,1.235c-0.643,0.273-1.329,0.411-2.058,0.411
					c-1.286,0-2.3-0.349-3.041-1.047c-0.741-0.697-1.112-1.58-1.112-2.646c0-0.705,0.169-1.335,0.506-1.888s0.81-0.977,1.417-1.271
					s1.484-0.551,2.629-0.771c1.544-0.29,2.615-0.561,3.211-0.812v-0.329c0-0.635-0.157-1.088-0.471-1.358s-0.906-0.405-1.776-0.405
					c-0.588,0-1.047,0.115-1.376,0.347C376.203,101.999,375.935,102.404,375.733,102.984z M380.155,105.666
					c-0.423,0.142-1.094,0.311-2.011,0.506c-0.917,0.196-1.518,0.389-1.8,0.577c-0.431,0.306-0.647,0.693-0.647,1.164
					c0,0.463,0.172,0.862,0.518,1.199c0.345,0.338,0.784,0.506,1.317,0.506c0.596,0,1.165-0.195,1.706-0.588
					c0.4-0.298,0.663-0.662,0.788-1.094c0.086-0.282,0.129-0.819,0.129-1.611V105.666z"/>
				<path class="st4" d="M398.021,111.665h-3.305v-6.375c0-1.349-0.07-2.221-0.211-2.617s-0.371-0.703-0.688-0.923
					c-0.318-0.22-0.7-0.329-1.147-0.329c-0.572,0-1.086,0.156-1.541,0.47s-0.767,0.729-0.935,1.247
					c-0.169,0.518-0.253,1.475-0.253,2.87v5.657h-3.305V99.174h3.07v1.835c1.09-1.411,2.462-2.117,4.117-2.117
					c0.729,0,1.396,0.132,2,0.395s1.061,0.598,1.37,1.005c0.31,0.408,0.525,0.871,0.647,1.389c0.121,0.517,0.182,1.258,0.182,2.223
					v7.761H398.021z"/>
				<path class="st4" d="M410.536,102.984l-3-0.541c0.337-1.207,0.918-2.101,1.74-2.682c0.824-0.58,2.047-0.87,3.67-0.87
					c1.475,0,2.572,0.175,3.293,0.523c0.723,0.349,1.23,0.792,1.523,1.329c0.295,0.537,0.441,1.523,0.441,2.958l-0.035,3.858
					c0,1.098,0.053,1.907,0.158,2.429c0.106,0.521,0.305,1.08,0.594,1.676h-3.27c-0.086-0.22-0.191-0.545-0.316-0.977
					c-0.056-0.195-0.095-0.325-0.118-0.388c-0.565,0.549-1.169,0.961-1.812,1.235c-0.643,0.273-1.329,0.411-2.059,0.411
					c-1.285,0-2.299-0.349-3.04-1.047c-0.741-0.697-1.112-1.58-1.112-2.646c0-0.705,0.17-1.335,0.506-1.888
					c0.338-0.553,0.811-0.977,1.418-1.271s1.484-0.551,2.629-0.771c1.545-0.29,2.615-0.561,3.211-0.812v-0.329
					c0-0.635-0.157-1.088-0.471-1.358s-0.906-0.405-1.775-0.405c-0.589,0-1.047,0.115-1.377,0.347
					C411.005,101.999,410.739,102.404,410.536,102.984z M414.958,105.666c-0.424,0.142-1.094,0.311-2.012,0.506
					c-0.917,0.196-1.518,0.389-1.799,0.577c-0.432,0.306-0.647,0.693-0.647,1.164c0,0.463,0.173,0.862,0.518,1.199
					c0.345,0.338,0.784,0.506,1.317,0.506c0.596,0,1.164-0.195,1.705-0.588c0.4-0.298,0.663-0.662,0.789-1.094
					c0.086-0.282,0.129-0.819,0.129-1.611L414.958,105.666L414.958,105.666z"/>
				<path class="st4" d="M421.156,112.488l3.775,0.459c0.062,0.438,0.207,0.741,0.435,0.905c0.313,0.235,0.808,0.354,1.481,0.354
					c0.863,0,1.51-0.13,1.941-0.389c0.29-0.173,0.51-0.451,0.658-0.835c0.102-0.274,0.153-0.78,0.153-1.518v-1.823
					c-0.987,1.35-2.235,2.023-3.74,2.023c-1.679,0-3.007-0.71-3.987-2.129c-0.769-1.121-1.152-2.517-1.152-4.188
					c0-2.094,0.504-3.693,1.512-4.799c1.007-1.105,2.26-1.658,3.758-1.658c1.544,0,2.818,0.679,3.822,2.035v-1.753h3.094v11.209
					c0,1.475-0.122,2.576-0.365,3.306c-0.243,0.729-0.584,1.301-1.023,1.717s-1.025,0.741-1.758,0.977
					c-0.733,0.235-1.66,0.353-2.782,0.353c-2.117,0-3.618-0.362-4.505-1.088c-0.886-0.726-1.328-1.645-1.328-2.758
					C421.146,112.778,421.148,112.645,421.156,112.488z M424.109,105.161c0,1.325,0.258,2.295,0.771,2.911
					c0.513,0.615,1.146,0.923,1.898,0.923c0.809,0,1.49-0.315,2.047-0.947c0.557-0.631,0.836-1.565,0.836-2.805
					c0-1.294-0.268-2.254-0.801-2.882c-0.533-0.627-1.207-0.94-2.023-0.94c-0.791,0-1.444,0.308-1.957,0.923
					C424.365,102.959,424.109,103.898,424.109,105.161z"/>
				<path class="st4" d="M443.409,107.689l3.294,0.553c-0.423,1.208-1.092,2.127-2.005,2.759c-0.914,0.631-2.057,0.946-3.43,0.946
					c-2.172,0-3.779-0.71-4.822-2.129c-0.822-1.137-1.234-2.571-1.234-4.305c0-2.07,0.541-3.691,1.623-4.863
					c1.082-1.173,2.45-1.759,4.105-1.759c1.857,0,3.324,0.613,4.398,1.841s1.588,3.107,1.541,5.64h-8.281
					c0.023,0.98,0.291,1.743,0.801,2.288s1.145,0.817,1.904,0.817c0.518,0,0.953-0.142,1.307-0.424
					C442.963,108.771,443.229,108.317,443.409,107.689z M443.599,104.35c-0.023-0.957-0.271-1.685-0.742-2.183
					c-0.47-0.497-1.043-0.746-1.717-0.746c-0.721,0-1.317,0.263-1.787,0.788c-0.471,0.525-0.703,1.238-0.694,2.141L443.599,104.35
					L443.599,104.35z"/>
				<path class="st4" d="M466.757,98.644l-3.199,0.353c-0.078-0.658-0.281-1.145-0.611-1.458c-0.329-0.313-0.757-0.471-1.281-0.471
					c-0.699,0-1.289,0.313-1.771,0.941c-0.481,0.627-0.785,1.933-0.911,3.916c0.823-0.972,1.847-1.458,3.069-1.458
					c1.381,0,2.562,0.525,3.547,1.576s1.477,2.407,1.477,4.069c0,1.765-0.518,3.18-1.553,4.246s-2.364,1.6-3.987,1.6
					c-1.741,0-3.172-0.676-4.294-2.029c-1.121-1.353-1.682-3.569-1.682-6.65c0-3.16,0.584-5.438,1.753-6.834
					c1.168-1.396,2.686-2.094,4.552-2.094c1.31,0,2.394,0.366,3.252,1.1S466.523,97.249,466.757,98.644z M459.265,105.854
					c0,1.074,0.247,1.903,0.741,2.488c0.494,0.584,1.059,0.876,1.694,0.876c0.611,0,1.121-0.239,1.528-0.718
					s0.612-1.263,0.612-2.353c0-1.121-0.221-1.942-0.659-2.464c-0.439-0.521-0.988-0.782-1.646-0.782
					c-0.636,0-1.173,0.249-1.612,0.747C459.484,104.147,459.265,104.883,459.265,105.854z"/>
				<path class="st4" d="M477.412,111.665h-3.305V99.209c-1.208,1.129-2.631,1.965-4.27,2.506v-3
					c0.862-0.282,1.799-0.817,2.811-1.605s1.705-1.707,2.082-2.758h2.682L477.412,111.665L477.412,111.665z"/>
			</g>
		</g>
	</g>
	<rect x="468.901" y="209.256" class="st1" width="327.584" height="140.081"/>
	<g>
		<g class="st2">
			<path class="st3" d="M526.385,251.851c0-7.154,5.564-12.321,12.502-12.321c5.528,0,9.214,2.891,9.214,5.745
				c0,1.734-1.12,2.927-2.602,2.927c-1.626,0-2.746-1.012-2.746-2.565c0-0.47,0.108-0.939,0.253-1.229
				c-0.687-0.542-2.06-1.084-4.228-1.084c-4.625,0-8.166,3.541-8.166,8.491c0,4.77,3.324,8.563,8.347,8.563
				c2.782,0,5.059-1.229,6.829-3.144l2.71,2.818c-2.312,2.565-5.745,4.119-9.539,4.119
				C531.625,264.172,526.385,259.258,526.385,251.851z"/>
			<path class="st3" d="M550.667,255.825c0-4.336,3.252-8.202,8.419-8.202c5.239,0,8.419,3.794,8.419,8.202
				c0,4.336-3.252,8.202-8.419,8.202C553.846,264.027,550.667,260.233,550.667,255.825z M563.458,255.825
				c0-2.891-1.807-4.914-4.372-4.914s-4.372,2.023-4.372,4.914c0,2.891,1.807,4.914,4.372,4.914S563.458,258.716,563.458,255.825z"
				/>
			<path class="st3" d="M575.995,250.441c1.518-1.481,3.217-2.818,5.529-2.818c1.879,0,3.252,0.759,4.082,2.023
				c0.543,0.867,0.832,1.951,0.832,3.252v7.588h2.348v3.252h-8.455v-3.252h2.168v-6.612c0-0.65-0.107-1.229-0.324-1.626
				c-0.361-0.687-1.012-1.048-1.951-1.048c-1.373,0-2.818,0.795-4.084,1.843v7.443h2.168v3.252h-8.455v-3.252h2.35v-9.25h-2.35
				v-3.324h6.143v2.529H575.995z"/>
			<path class="st3" d="M593.304,261.859c-0.361-0.65-0.543-1.481-0.543-2.493v-8.13h-3.07v-3.324h3.07v-3.324l3.902-1.698v5.022
				h4.807v3.324h-4.807v7.371c0,0.506,0.072,0.831,0.254,1.156c0.289,0.506,0.867,0.759,1.662,0.759
				c1.012,0,2.168-0.397,3.107-0.831l-0.326,3.396c-1.084,0.542-2.348,0.939-3.793,0.939
				C595.651,264.027,594.099,263.377,593.304,261.859z"/>
			<path class="st3" d="M617.909,250.225c0,1.337-1.049,2.457-2.35,2.457c-1.191,0-1.986-0.687-2.312-1.409
				c-1.119,0.397-2.42,1.626-3.143,2.999v6.215h2.746v3.252h-9.033v-3.252h2.348v-9.25h-2.348v-3.324h6.143v3.577
				c1.336-2.132,2.998-3.866,5.021-3.866C616.932,247.623,617.909,248.815,617.909,250.225z"/>
			<path class="st3" d="M619.101,255.825c0-4.336,3.252-8.202,8.42-8.202c5.238,0,8.418,3.794,8.418,8.202
				c0,4.336-3.252,8.202-8.418,8.202C622.279,264.027,619.101,260.233,619.101,255.825z M631.891,255.825
				c0-2.891-1.807-4.914-4.371-4.914c-2.566,0-4.373,2.023-4.373,4.914c0,2.891,1.807,4.914,4.373,4.914
				C630.084,260.739,631.891,258.716,631.891,255.825z"/>
			<path class="st3" d="M638.107,260.486h2.457v-19.873h-2.457v-3.324h6.396v23.197h2.349v3.252h-8.744L638.107,260.486
				L638.107,260.486z"/>
		</g>
		<g class="st2">
			<path class="st4" d="M662.601,268.808c-1.168-1.475-2.156-3.199-2.964-5.175c-0.808-1.977-1.212-4.022-1.212-6.14
				c0-1.866,0.303-3.654,0.906-5.364c0.705-1.983,1.795-3.959,3.27-5.928h1.518c-0.949,1.631-1.576,2.796-1.882,3.493
				c-0.479,1.082-0.854,2.212-1.13,3.388c-0.337,1.467-0.506,2.94-0.506,4.423c0,3.771,1.173,7.539,3.518,11.303H662.601z"/>
			<path class="st4" d="M666.576,263.738v-12.491h1.905v1.776c0.918-1.372,2.242-2.059,3.976-2.059c0.753,0,1.444,0.136,2.076,0.406
				c0.631,0.271,1.104,0.625,1.417,1.064c0.313,0.438,0.533,0.96,0.658,1.563c0.079,0.393,0.118,1.079,0.118,2.059v7.681h-2.117
				v-7.599c0-0.862-0.082-1.507-0.247-1.935c-0.164-0.427-0.457-0.769-0.876-1.023s-0.911-0.382-1.476-0.382
				c-0.902,0-1.681,0.286-2.336,0.858c-0.654,0.572-0.981,1.658-0.981,3.258v6.822h-2.117V263.738z"/>
			<path class="st4" d="M691.112,253.6h-11.387v-1.976h11.387V253.6z M691.112,258.834h-11.387v-1.977h11.387V258.834z"/>
			<path class="st4" d="M701.427,263.738h-2.117v-13.491c-0.51,0.486-1.178,0.973-2.006,1.459c-0.827,0.486-1.57,0.851-2.229,1.094
				v-2.047c1.184-0.557,2.219-1.23,3.105-2.022s1.513-1.561,1.881-2.306h1.365v17.313H701.427z"/>
			<path class="st4" d="M706.849,259.222l2.223-0.188c0.165,1.082,0.547,1.896,1.147,2.441s1.323,0.817,2.17,0.817
				c1.019,0,1.882-0.385,2.588-1.153s1.058-1.787,1.058-3.058c0-1.208-0.338-2.16-1.017-2.858s-1.566-1.047-2.664-1.047
				c-0.683,0-1.298,0.155-1.847,0.465s-0.98,0.712-1.294,1.205l-1.987-0.259l1.67-8.856h8.574v2.023h-6.881l-0.929,4.634
				c1.034-0.721,2.12-1.082,3.258-1.082c1.505,0,2.776,0.521,3.812,1.564c1.034,1.043,1.552,2.384,1.552,4.022
				c0,1.561-0.454,2.909-1.364,4.046c-1.105,1.396-2.615,2.094-4.528,2.094c-1.568,0-2.849-0.438-3.841-1.317
				C707.557,261.837,706.99,260.673,706.849,259.222z"/>
			<path class="st4" d="M720.245,259.222l2.223-0.188c0.165,1.082,0.547,1.896,1.147,2.441s1.322,0.817,2.17,0.817
				c1.019,0,1.881-0.385,2.588-1.153c0.705-0.769,1.058-1.787,1.058-3.058c0-1.208-0.339-2.16-1.017-2.858
				c-0.679-0.698-1.566-1.047-2.664-1.047c-0.683,0-1.299,0.155-1.848,0.465s-0.98,0.712-1.293,1.205l-1.988-0.259l1.67-8.856h8.574
				v2.023h-6.88l-0.929,4.634c1.034-0.721,2.12-1.082,3.258-1.082c1.505,0,2.775,0.521,3.811,1.564s1.553,2.384,1.553,4.022
				c0,1.561-0.455,2.909-1.365,4.046c-1.105,1.396-2.615,2.094-4.527,2.094c-1.568,0-2.849-0.438-3.841-1.317
				C720.953,261.837,720.388,260.673,720.245,259.222z"/>
			<path class="st4" d="M735.617,268.808h-1.518c2.345-3.764,3.518-7.531,3.518-11.303c0-1.475-0.169-2.937-0.506-4.388
				c-0.268-1.176-0.639-2.306-1.117-3.388c-0.307-0.705-0.938-1.882-1.895-3.528h1.518c1.475,1.969,2.564,3.944,3.27,5.928
				c0.604,1.71,0.906,3.498,0.906,5.364c0,2.117-0.406,4.163-1.217,6.14C737.765,265.608,736.778,267.333,735.617,268.808z"/>
		</g>
		<g class="st2">
			<path class="st4" d="M534.104,296.859v-14.01h5.284c0.931,0,1.641,0.045,2.132,0.134c0.688,0.114,1.265,0.333,1.729,0.654
				c0.465,0.322,0.84,0.772,1.123,1.353s0.426,1.217,0.426,1.911c0,1.191-0.379,2.2-1.138,3.024
				c-0.759,0.825-2.128,1.238-4.109,1.238h-3.593v5.695h-1.854V296.859z M535.958,289.511h3.621c1.198,0,2.049-0.224,2.553-0.669
				c0.502-0.446,0.754-1.074,0.754-1.883c0-0.586-0.148-1.088-0.443-1.505c-0.297-0.418-0.688-0.693-1.172-0.827
				c-0.312-0.083-0.889-0.124-1.729-0.124h-3.584V289.511z"/>
			<path class="st4" d="M546.899,296.859v-14.01h1.721v14.01H546.899z"/>
			<path class="st4" d="M557.909,295.607c-0.638,0.542-1.25,0.924-1.84,1.146c-0.59,0.224-1.222,0.335-1.896,0.335
				c-1.115,0-1.973-0.272-2.571-0.817s-0.898-1.24-0.898-2.088c0-0.497,0.113-0.951,0.339-1.362c0.227-0.41,0.523-0.74,0.889-0.988
				c0.367-0.249,0.779-0.437,1.238-0.564c0.338-0.089,0.848-0.175,1.529-0.258c1.389-0.166,2.411-0.363,3.067-0.593
				c0.007-0.235,0.009-0.385,0.009-0.449c0-0.7-0.162-1.194-0.486-1.48c-0.439-0.389-1.094-0.583-1.959-0.583
				c-0.81,0-1.406,0.142-1.793,0.425c-0.385,0.283-0.67,0.785-0.854,1.505l-1.683-0.229c0.153-0.721,0.404-1.302,0.756-1.744
				c0.35-0.443,0.856-0.784,1.52-1.022c0.662-0.239,1.43-0.358,2.303-0.358c0.866,0,1.57,0.102,2.111,0.306
				c0.542,0.204,0.94,0.46,1.195,0.769c0.254,0.31,0.434,0.7,0.535,1.171c0.057,0.293,0.086,0.822,0.086,1.587v2.293
				c0,1.6,0.037,2.611,0.109,3.034c0.074,0.424,0.219,0.83,0.436,1.219h-1.797C558.075,296.503,557.959,296.085,557.909,295.607z
				 M557.766,291.766c-0.624,0.255-1.562,0.472-2.81,0.65c-0.707,0.102-1.207,0.216-1.5,0.344c-0.293,0.127-0.52,0.313-0.68,0.559
				c-0.158,0.246-0.238,0.518-0.238,0.817c0,0.459,0.174,0.841,0.521,1.146c0.347,0.306,0.854,0.459,1.523,0.459
				c0.662,0,1.252-0.145,1.768-0.435c0.517-0.29,0.896-0.687,1.138-1.19c0.185-0.388,0.277-0.962,0.277-1.72L557.766,291.766
				L557.766,291.766z"/>
			<path class="st4" d="M568.794,293.142l1.691,0.22c-0.186,1.166-0.658,2.079-1.42,2.738c-0.761,0.659-1.695,0.989-2.805,0.989
				c-1.389,0-2.505-0.454-3.35-1.362c-0.844-0.907-1.266-2.209-1.266-3.903c0-1.096,0.182-2.055,0.545-2.877
				c0.363-0.821,0.916-1.438,1.658-1.849s1.549-0.616,2.422-0.616c1.103,0,2.004,0.278,2.705,0.836
				c0.7,0.558,1.149,1.349,1.348,2.375l-1.673,0.258c-0.159-0.682-0.441-1.194-0.846-1.539c-0.405-0.344-0.894-0.516-1.468-0.516
				c-0.865,0-1.57,0.311-2.111,0.932s-0.812,1.604-0.812,2.948c0,1.363,0.262,2.354,0.783,2.972
				c0.523,0.618,1.205,0.928,2.046,0.928c0.675,0,1.239-0.207,1.691-0.622C568.385,294.639,568.672,294.002,568.794,293.142z"/>
			<path class="st4" d="M578.904,293.591l1.777,0.22c-0.281,1.039-0.8,1.845-1.559,2.418c-0.758,0.573-1.727,0.86-2.904,0.86
				c-1.484,0-2.662-0.457-3.531-1.371c-0.87-0.914-1.305-2.196-1.305-3.847c0-1.708,0.439-3.033,1.318-3.976
				c0.879-0.943,2.02-1.414,3.422-1.414c1.357,0,2.465,0.462,3.325,1.386s1.29,2.223,1.29,3.898c0,0.103-0.003,0.255-0.01,0.459
				h-7.568c0.063,1.115,0.379,1.969,0.946,2.561c0.567,0.593,1.274,0.89,2.122,0.89c0.63,0,1.168-0.166,1.614-0.497
				S578.643,294.317,578.904,293.591z M573.257,290.811h5.667c-0.077-0.854-0.293-1.494-0.649-1.921
				c-0.549-0.663-1.259-0.994-2.131-0.994c-0.791,0-1.455,0.265-1.993,0.793C573.612,289.218,573.313,289.925,573.257,290.811z"/>
			<path class="st4" d="M584.429,296.859h-1.596v-14.01h1.72v4.998c0.726-0.911,1.653-1.366,2.78-1.366
				c0.625,0,1.216,0.125,1.773,0.377s1.016,0.605,1.376,1.061s0.642,1.006,0.846,1.648c0.204,0.644,0.306,1.332,0.306,2.064
				c0,1.739-0.43,3.084-1.29,4.033s-1.892,1.424-3.097,1.424c-1.197,0-2.137-0.5-2.818-1.501L584.429,296.859L584.429,296.859z
				 M584.409,291.708c0,1.218,0.166,2.097,0.497,2.638c0.542,0.886,1.274,1.329,2.198,1.329c0.752,0,1.4-0.327,1.949-0.979
				c0.548-0.653,0.822-1.627,0.822-2.92c0-1.325-0.264-2.303-0.789-2.934s-1.161-0.946-1.906-0.946
				c-0.752,0-1.402,0.326-1.949,0.979C584.682,289.528,584.409,290.473,584.409,291.708z"/>
			<path class="st4" d="M593.086,291.785c0-1.88,0.521-3.271,1.566-4.177c0.873-0.751,1.938-1.127,3.192-1.127
				c1.396,0,2.536,0.457,3.421,1.371c0.886,0.914,1.328,2.177,1.328,3.789c0,1.306-0.195,2.333-0.588,3.082
				c-0.391,0.749-0.961,1.33-1.71,1.744s-1.565,0.621-2.451,0.621c-1.421,0-2.569-0.455-3.445-1.367
				C593.524,294.811,593.086,293.499,593.086,291.785z M594.854,291.785c0,1.3,0.283,2.272,0.851,2.919
				c0.567,0.647,1.28,0.971,2.141,0.971c0.854,0,1.563-0.325,2.131-0.976c0.567-0.649,0.851-1.64,0.851-2.972
				c0-1.255-0.285-2.206-0.855-2.853s-1.279-0.97-2.126-0.97c-0.86,0-1.573,0.321-2.141,0.965S594.854,290.485,594.854,291.785z"/>
			<path class="st4" d="M609.359,293.83l1.701-0.268c0.096,0.682,0.361,1.204,0.799,1.567c0.436,0.363,1.046,0.545,1.83,0.545
				c0.789,0,1.375-0.161,1.758-0.483c0.383-0.321,0.573-0.699,0.573-1.132c0-0.389-0.169-0.694-0.507-0.918
				c-0.235-0.152-0.821-0.347-1.758-0.583c-1.262-0.318-2.136-0.594-2.623-0.826c-0.488-0.232-0.857-0.555-1.109-0.965
				c-0.251-0.411-0.377-0.865-0.377-1.362c0-0.452,0.104-0.871,0.311-1.257c0.207-0.385,0.488-0.705,0.846-0.96
				c0.268-0.197,0.633-0.365,1.094-0.502c0.463-0.137,0.958-0.205,1.486-0.205c0.797,0,1.496,0.114,2.098,0.344
				c0.603,0.229,1.047,0.54,1.334,0.932c0.286,0.392,0.483,0.916,0.592,1.572l-1.682,0.229c-0.076-0.522-0.298-0.931-0.664-1.224
				c-0.367-0.293-0.885-0.439-1.553-0.439c-0.791,0-1.354,0.131-1.691,0.392c-0.338,0.262-0.507,0.567-0.507,0.918
				c0,0.223,0.069,0.423,0.21,0.602c0.141,0.185,0.359,0.338,0.66,0.459c0.172,0.063,0.678,0.21,1.52,0.439
				c1.217,0.325,2.064,0.591,2.546,0.798s0.858,0.508,1.133,0.903c0.274,0.395,0.411,0.886,0.411,1.472
				c0,0.573-0.168,1.113-0.502,1.62c-0.334,0.506-0.817,0.897-1.447,1.175c-0.631,0.277-1.346,0.416-2.141,0.416
				c-1.319,0-2.324-0.274-3.016-0.822S609.552,294.906,609.359,293.83z"/>
			<path class="st4" d="M626.458,295.607c-0.638,0.542-1.25,0.924-1.84,1.146c-0.59,0.224-1.222,0.335-1.896,0.335
				c-1.115,0-1.973-0.272-2.571-0.817s-0.898-1.24-0.898-2.088c0-0.497,0.113-0.951,0.339-1.362c0.227-0.41,0.523-0.74,0.889-0.988
				c0.367-0.249,0.779-0.437,1.238-0.564c0.338-0.089,0.848-0.175,1.529-0.258c1.389-0.166,2.411-0.363,3.067-0.593
				c0.007-0.235,0.009-0.385,0.009-0.449c0-0.7-0.162-1.194-0.486-1.48c-0.439-0.389-1.094-0.583-1.959-0.583
				c-0.81,0-1.406,0.142-1.793,0.425c-0.385,0.283-0.67,0.785-0.854,1.505l-1.683-0.229c0.153-0.721,0.404-1.302,0.756-1.744
				c0.35-0.443,0.856-0.784,1.52-1.022c0.662-0.239,1.43-0.358,2.303-0.358c0.866,0,1.57,0.102,2.111,0.306
				c0.542,0.204,0.94,0.46,1.195,0.769c0.254,0.31,0.434,0.7,0.535,1.171c0.057,0.293,0.086,0.822,0.086,1.587v2.293
				c0,1.6,0.037,2.611,0.109,3.034c0.074,0.424,0.219,0.83,0.436,1.219h-1.797C626.623,296.503,626.508,296.085,626.458,295.607z
				 M626.315,291.766c-0.624,0.255-1.562,0.472-2.81,0.65c-0.707,0.102-1.207,0.216-1.5,0.344c-0.293,0.127-0.52,0.313-0.68,0.559
				c-0.158,0.246-0.238,0.518-0.238,0.817c0,0.459,0.174,0.841,0.521,1.146c0.347,0.306,0.854,0.459,1.523,0.459
				c0.662,0,1.252-0.145,1.768-0.435c0.517-0.29,0.896-0.687,1.138-1.19c0.185-0.388,0.277-0.962,0.277-1.72L626.315,291.766
				L626.315,291.766z"/>
			<path class="st4" d="M630.682,296.859v-14.01h1.72v14.01H630.682z"/>
			<path class="st4" d="M635.076,284.828v-1.979h1.721v1.979H635.076z M635.076,296.859V286.71h1.721v10.149H635.076z"/>
			<path class="st4" d="M639.416,296.859V286.71h1.548v1.443c0.746-1.114,1.822-1.672,3.23-1.672c0.611,0,1.174,0.109,1.687,0.329
				s0.897,0.509,1.151,0.865c0.256,0.356,0.434,0.78,0.535,1.271c0.064,0.319,0.096,0.876,0.096,1.673v6.24h-1.72v-6.174
				c0-0.7-0.067-1.225-0.2-1.571c-0.135-0.348-0.372-0.625-0.713-0.832s-0.74-0.311-1.199-0.311c-0.732,0-1.365,0.232-1.896,0.698
				c-0.532,0.465-0.799,1.347-0.799,2.646v5.543L639.416,296.859L639.416,296.859z"/>
			<path class="st4" d="M657.248,293.591l1.777,0.22c-0.281,1.039-0.8,1.845-1.559,2.418c-0.758,0.573-1.727,0.86-2.904,0.86
				c-1.484,0-2.662-0.457-3.531-1.371c-0.87-0.914-1.305-2.196-1.305-3.847c0-1.708,0.439-3.033,1.318-3.976
				c0.879-0.943,2.02-1.414,3.422-1.414c1.357,0,2.465,0.462,3.325,1.386s1.29,2.223,1.29,3.898c0,0.103-0.003,0.255-0.01,0.459
				h-7.568c0.063,1.115,0.379,1.969,0.946,2.561c0.567,0.593,1.274,0.89,2.122,0.89c0.63,0,1.168-0.166,1.614-0.497
				S656.987,294.317,657.248,293.591z M651.601,290.811h5.667c-0.077-0.854-0.293-1.494-0.649-1.921
				c-0.549-0.663-1.259-0.994-2.131-0.994c-0.791,0-1.455,0.265-1.993,0.793C651.956,289.218,651.656,289.925,651.601,290.811z"/>
			<path class="st4" d="M666.633,284.828v-1.979h1.72v1.979H666.633z M666.633,296.859V286.71h1.72v10.149H666.633z"/>
			<path class="st4" d="M670.971,296.859V286.71h1.549v1.443c0.744-1.114,1.821-1.672,3.229-1.672c0.612,0,1.174,0.109,1.687,0.329
				c0.514,0.22,0.896,0.509,1.152,0.865c0.254,0.356,0.433,0.78,0.535,1.271c0.062,0.319,0.096,0.876,0.096,1.673v6.24h-1.721
				v-6.174c0-0.7-0.066-1.225-0.201-1.571c-0.133-0.348-0.371-0.625-0.711-0.832c-0.342-0.207-0.741-0.311-1.2-0.311
				c-0.732,0-1.364,0.232-1.897,0.698c-0.531,0.465-0.797,1.347-0.797,2.646v5.543L670.971,296.859L670.971,296.859z"/>
			<path class="st4" d="M682.268,296.859v-8.812h-1.52v-1.338h1.52v-1.079c0-0.682,0.061-1.188,0.182-1.52
				c0.165-0.446,0.457-0.808,0.874-1.085c0.418-0.277,1.002-0.416,1.754-0.416c0.484,0,1.02,0.058,1.605,0.172l-0.258,1.501
				c-0.357-0.063-0.695-0.096-1.014-0.096c-0.521,0-0.892,0.111-1.107,0.334c-0.217,0.224-0.326,0.641-0.326,1.252v0.937h1.979
				v1.338h-1.979v8.812L682.268,296.859L682.268,296.859z"/>
			<path class="st4" d="M693.945,296.859v-1.491c-0.79,1.147-1.863,1.721-3.221,1.721c-0.599,0-1.157-0.115-1.677-0.344
				s-0.904-0.518-1.156-0.865s-0.429-0.772-0.531-1.275c-0.07-0.338-0.104-0.873-0.104-1.605v-6.289h1.72v5.629
				c0,0.898,0.035,1.504,0.105,1.816c0.108,0.452,0.338,0.808,0.688,1.065c0.352,0.258,0.784,0.387,1.301,0.387
				c0.516,0,1-0.132,1.452-0.396s0.772-0.624,0.96-1.08c0.188-0.455,0.282-1.116,0.282-1.982v-5.438h1.72v10.149h-1.539V296.859z"/>
			<path class="st4" d="M697.49,293.83l1.701-0.268c0.095,0.682,0.361,1.204,0.797,1.567c0.438,0.363,1.047,0.545,1.83,0.545
				c0.791,0,1.377-0.161,1.759-0.483c0.382-0.321,0.573-0.699,0.573-1.132c0-0.389-0.168-0.694-0.506-0.918
				c-0.236-0.152-0.822-0.347-1.759-0.583c-1.261-0.318-2.136-0.594-2.623-0.826s-0.856-0.555-1.108-0.965
				c-0.252-0.411-0.378-0.865-0.378-1.362c0-0.452,0.104-0.871,0.311-1.257c0.207-0.385,0.489-0.705,0.846-0.96
				c0.268-0.197,0.632-0.365,1.095-0.502c0.461-0.137,0.957-0.205,1.486-0.205c0.796,0,1.495,0.114,2.098,0.344
				c0.602,0.229,1.046,0.54,1.332,0.932c0.287,0.392,0.484,0.916,0.593,1.572l-1.682,0.229c-0.077-0.522-0.298-0.931-0.664-1.224
				s-0.884-0.439-1.554-0.439c-0.789,0-1.354,0.131-1.691,0.392c-0.338,0.262-0.506,0.567-0.506,0.918
				c0,0.223,0.07,0.423,0.21,0.602c0.14,0.185,0.36,0.338,0.659,0.459c0.172,0.063,0.679,0.21,1.52,0.439
				c1.217,0.325,2.066,0.591,2.547,0.798s0.859,0.508,1.133,0.903c0.273,0.395,0.41,0.886,0.41,1.472
				c0,0.573-0.166,1.113-0.501,1.62c-0.335,0.506-0.817,0.897-1.448,1.175s-1.344,0.416-2.141,0.416
				c-1.318,0-2.324-0.274-3.015-0.822C698.122,295.719,697.682,294.906,697.49,293.83z"/>
			<path class="st4" d="M707.974,284.828v-1.979h1.72v1.979H707.974z M707.974,296.859V286.71h1.72v10.149H707.974z"/>
			<path class="st4" d="M711.672,291.785c0-1.88,0.522-3.271,1.567-4.177c0.872-0.751,1.937-1.127,3.192-1.127
				c1.395,0,2.535,0.457,3.42,1.371c0.887,0.914,1.329,2.177,1.329,3.789c0,1.306-0.196,2.333-0.588,3.082s-0.962,1.33-1.71,1.744
				c-0.75,0.414-1.566,0.621-2.451,0.621c-1.422,0-2.57-0.455-3.445-1.367C712.109,294.811,711.672,293.499,711.672,291.785z
				 M713.44,291.785c0,1.3,0.283,2.272,0.852,2.919c0.566,0.647,1.279,0.971,2.141,0.971c0.854,0,1.563-0.325,2.131-0.976
				c0.566-0.649,0.85-1.64,0.85-2.972c0-1.255-0.285-2.206-0.855-2.853s-1.278-0.97-2.125-0.97c-0.861,0-1.574,0.321-2.141,0.965
				C713.724,289.514,713.44,290.485,713.44,291.785z"/>
			<path class="st4" d="M723.198,296.859V286.71h1.548v1.443c0.745-1.114,1.821-1.672,3.229-1.672c0.612,0,1.174,0.109,1.688,0.329
				c0.513,0.22,0.896,0.509,1.151,0.865s0.433,0.78,0.535,1.271c0.063,0.319,0.096,0.876,0.096,1.673v6.24h-1.72v-6.174
				c0-0.7-0.067-1.225-0.201-1.571c-0.134-0.348-0.371-0.625-0.712-0.832s-0.741-0.311-1.2-0.311c-0.732,0-1.364,0.232-1.896,0.698
				c-0.531,0.465-0.798,1.347-0.798,2.646v5.543L723.198,296.859L723.198,296.859z"/>
		</g>
		<g class="st2">
			<path class="st4" d="M543.76,317.178v-3.842h-3.812v-1.605h3.812v-3.813h1.625v3.813h3.812v1.605h-3.812v3.842H543.76z"/>
			<path class="st4" d="M558.602,319.442h-1.596v-14.01h1.72v4.998c0.726-0.911,1.653-1.366,2.78-1.366
				c0.625,0,1.216,0.125,1.773,0.377s1.016,0.605,1.376,1.061s0.642,1.006,0.846,1.648c0.204,0.644,0.306,1.332,0.306,2.064
				c0,1.739-0.43,3.084-1.29,4.033s-1.892,1.424-3.097,1.424c-1.197,0-2.137-0.5-2.818-1.501L558.602,319.442L558.602,319.442z
				 M558.583,314.291c0,1.218,0.166,2.097,0.497,2.638c0.542,0.886,1.274,1.329,2.198,1.329c0.752,0,1.4-0.327,1.949-0.979
				c0.548-0.653,0.822-1.627,0.822-2.92c0-1.325-0.264-2.303-0.789-2.934s-1.161-0.946-1.906-0.946
				c-0.752,0-1.402,0.326-1.949,0.979C558.857,312.111,558.583,313.056,558.583,314.291z"/>
			<path class="st4" d="M574.523,318.19c-0.637,0.542-1.25,0.924-1.839,1.146c-0.589,0.224-1.222,0.335-1.897,0.335
				c-1.115,0-1.972-0.272-2.57-0.817c-0.6-0.545-0.898-1.24-0.898-2.088c0-0.497,0.113-0.951,0.34-1.362
				c0.226-0.41,0.521-0.74,0.889-0.988c0.365-0.249,0.778-0.437,1.237-0.564c0.337-0.089,0.847-0.175,1.528-0.258
				c1.39-0.166,2.412-0.363,3.068-0.593c0.006-0.235,0.01-0.385,0.01-0.449c0-0.7-0.162-1.194-0.488-1.48
				c-0.439-0.389-1.092-0.583-1.959-0.583c-0.809,0-1.406,0.142-1.791,0.425c-0.386,0.283-0.671,0.785-0.855,1.505l-1.682-0.229
				c0.152-0.721,0.404-1.302,0.754-1.744c0.352-0.443,0.857-0.784,1.52-1.022c0.663-0.239,1.431-0.358,2.304-0.358
				c0.866,0,1.57,0.102,2.112,0.306c0.541,0.204,0.939,0.46,1.194,0.769c0.255,0.31,0.433,0.7,0.535,1.171
				c0.058,0.293,0.086,0.822,0.086,1.587v2.293c0,1.6,0.036,2.611,0.11,3.034c0.072,0.424,0.218,0.83,0.434,1.219h-1.796
				C574.688,319.086,574.573,318.668,574.523,318.19z M574.38,314.349c-0.625,0.255-1.561,0.472-2.81,0.65
				c-0.708,0.102-1.208,0.216-1.501,0.344c-0.293,0.127-0.52,0.313-0.678,0.559c-0.16,0.246-0.239,0.518-0.239,0.817
				c0,0.459,0.173,0.841,0.521,1.146s0.855,0.459,1.524,0.459c0.663,0,1.252-0.145,1.769-0.435c0.516-0.29,0.895-0.687,1.137-1.19
				c0.185-0.388,0.277-0.962,0.277-1.72V314.349z"/>
			<path class="st4" d="M578.096,316.413l1.701-0.268c0.096,0.682,0.361,1.204,0.799,1.567c0.436,0.363,1.046,0.545,1.83,0.545
				c0.789,0,1.375-0.161,1.758-0.483c0.383-0.321,0.573-0.699,0.573-1.132c0-0.389-0.169-0.694-0.507-0.918
				c-0.235-0.152-0.821-0.347-1.758-0.583c-1.262-0.318-2.136-0.594-2.623-0.826c-0.488-0.232-0.857-0.555-1.109-0.965
				c-0.251-0.411-0.377-0.865-0.377-1.362c0-0.452,0.104-0.871,0.311-1.257c0.207-0.385,0.488-0.705,0.846-0.96
				c0.268-0.197,0.633-0.365,1.094-0.502c0.463-0.137,0.958-0.205,1.486-0.205c0.797,0,1.496,0.114,2.098,0.344
				c0.603,0.229,1.047,0.54,1.334,0.932c0.286,0.392,0.483,0.916,0.592,1.572l-1.682,0.229c-0.076-0.522-0.298-0.931-0.664-1.224
				c-0.367-0.293-0.885-0.439-1.553-0.439c-0.791,0-1.354,0.131-1.691,0.392c-0.338,0.262-0.507,0.567-0.507,0.918
				c0,0.223,0.069,0.423,0.21,0.602c0.141,0.185,0.359,0.338,0.66,0.459c0.172,0.063,0.678,0.21,1.52,0.439
				c1.217,0.325,2.064,0.591,2.546,0.798s0.858,0.508,1.133,0.903c0.274,0.395,0.411,0.886,0.411,1.472
				c0,0.573-0.168,1.113-0.502,1.62c-0.334,0.506-0.817,0.897-1.447,1.175c-0.631,0.277-1.346,0.416-2.141,0.416
				c-1.319,0-2.324-0.274-3.016-0.822S578.287,317.489,578.096,316.413z"/>
			<path class="st4" d="M595.518,316.174l1.777,0.22c-0.279,1.039-0.799,1.845-1.557,2.418c-0.759,0.573-1.727,0.86-2.906,0.86
				c-1.484,0-2.661-0.457-3.531-1.371c-0.869-0.914-1.304-2.196-1.304-3.847c0-1.708,0.439-3.033,1.319-3.976
				c0.879-0.943,2.02-1.414,3.42-1.414c1.357,0,2.467,0.462,3.326,1.386c0.86,0.924,1.291,2.223,1.291,3.898
				c0,0.103-0.004,0.255-0.01,0.459h-7.569c0.063,1.115,0.379,1.969,0.946,2.561c0.566,0.593,1.273,0.89,2.121,0.89
				c0.631,0,1.17-0.166,1.615-0.497S595.258,316.9,595.518,316.174z M589.87,313.394h5.667c-0.076-0.854-0.293-1.494-0.65-1.921
				c-0.547-0.663-1.258-0.994-2.131-0.994c-0.789,0-1.454,0.265-1.992,0.793C590.226,311.801,589.929,312.508,589.87,313.394z"/>
			<path class="st4" d="M599.417,319.442v-14.01h1.72v14.01H599.417z"/>
			<path class="st4" d="M603.813,307.411v-1.979h1.721v1.979H603.813z M603.813,319.442v-10.149h1.721v10.149H603.813z"/>
			<path class="st4" d="M608.151,319.442v-10.149h1.548v1.443c0.746-1.114,1.822-1.672,3.23-1.672c0.611,0,1.174,0.109,1.687,0.329
				s0.897,0.509,1.151,0.865c0.256,0.356,0.434,0.78,0.535,1.271c0.064,0.319,0.096,0.876,0.096,1.673v6.24h-1.72v-6.174
				c0-0.7-0.067-1.225-0.2-1.571c-0.135-0.348-0.372-0.625-0.713-0.832s-0.74-0.311-1.199-0.311c-0.732,0-1.365,0.232-1.896,0.698
				c-0.532,0.465-0.799,1.347-0.799,2.646v5.543L608.151,319.442L608.151,319.442z"/>
			<path class="st4" d="M625.984,316.174l1.777,0.22c-0.281,1.039-0.8,1.845-1.559,2.418c-0.758,0.573-1.727,0.86-2.904,0.86
				c-1.484,0-2.662-0.457-3.531-1.371c-0.87-0.914-1.305-2.196-1.305-3.847c0-1.708,0.439-3.033,1.318-3.976
				c0.879-0.943,2.02-1.414,3.422-1.414c1.357,0,2.465,0.462,3.325,1.386s1.29,2.223,1.29,3.898c0,0.103-0.003,0.255-0.01,0.459
				h-7.568c0.063,1.115,0.379,1.969,0.946,2.561c0.567,0.593,1.274,0.89,2.122,0.89c0.63,0,1.168-0.166,1.614-0.497
				S625.724,316.9,625.984,316.174z M620.336,313.394h5.667c-0.077-0.854-0.293-1.494-0.649-1.921
				c-0.549-0.663-1.259-0.994-2.131-0.994c-0.791,0-1.455,0.265-1.993,0.793C620.693,311.801,620.393,312.508,620.336,313.394z"/>
			<path class="st4" d="M639.115,317.903l0.248,1.52c-0.484,0.103-0.918,0.153-1.3,0.153c-0.624,0-1.108-0.099-1.452-0.296
				c-0.345-0.197-0.587-0.457-0.727-0.779c-0.141-0.321-0.211-0.999-0.211-2.03v-5.84h-1.26v-1.338h1.261v-2.513l1.711-1.032v3.545
				h1.73v1.338h-1.73v5.935c0,0.491,0.03,0.807,0.091,0.946c0.061,0.141,0.159,0.252,0.296,0.335s0.334,0.124,0.588,0.124
				C638.552,317.971,638.804,317.948,639.115,317.903z"/>
			<path class="st4" d="M640.778,319.442v-10.149h1.549v1.539c0.395-0.72,0.76-1.194,1.094-1.424s0.702-0.344,1.104-0.344
				c0.58,0,1.169,0.185,1.768,0.554l-0.592,1.596c-0.421-0.248-0.842-0.372-1.262-0.372c-0.376,0-0.713,0.113-1.014,0.339
				c-0.299,0.227-0.512,0.54-0.64,0.941c-0.19,0.611-0.286,1.28-0.286,2.007v5.313H640.778z"/>
			<path class="st4" d="M654.263,316.174l1.777,0.22c-0.28,1.039-0.799,1.845-1.558,2.418s-1.727,0.86-2.905,0.86
				c-1.484,0-2.662-0.457-3.531-1.371s-1.305-2.196-1.305-3.847c0-1.708,0.439-3.033,1.319-3.976
				c0.879-0.943,2.02-1.414,3.421-1.414c1.357,0,2.466,0.462,3.326,1.386c0.859,0.924,1.29,2.223,1.29,3.898
				c0,0.103-0.003,0.255-0.01,0.459h-7.569c0.064,1.115,0.379,1.969,0.947,2.561c0.566,0.593,1.273,0.89,2.121,0.89
				c0.631,0,1.169-0.166,1.615-0.497C653.648,317.43,654,316.9,654.263,316.174z M648.614,313.394h5.668
				c-0.077-0.854-0.293-1.494-0.65-1.921c-0.548-0.663-1.258-0.994-2.131-0.994c-0.79,0-1.455,0.265-1.992,0.793
				C648.969,311.801,648.672,312.508,648.614,313.394z"/>
			<path class="st4" d="M664.821,318.19c-0.638,0.542-1.25,0.924-1.839,1.146c-0.59,0.224-1.223,0.335-1.897,0.335
				c-1.115,0-1.972-0.272-2.571-0.817c-0.599-0.545-0.898-1.24-0.898-2.088c0-0.497,0.113-0.951,0.34-1.362
				c0.227-0.41,0.522-0.74,0.889-0.988c0.366-0.249,0.779-0.437,1.238-0.564c0.337-0.089,0.847-0.175,1.528-0.258
				c1.39-0.166,2.411-0.363,3.067-0.593c0.007-0.235,0.01-0.385,0.01-0.449c0-0.7-0.162-1.194-0.487-1.48
				c-0.439-0.389-1.093-0.583-1.959-0.583c-0.81,0-1.406,0.142-1.792,0.425c-0.385,0.283-0.67,0.785-0.855,1.505l-1.682-0.229
				c0.152-0.721,0.404-1.302,0.755-1.744c0.351-0.443,0.856-0.784,1.52-1.022c0.663-0.239,1.431-0.358,2.304-0.358
				c0.865,0,1.57,0.102,2.111,0.306s0.939,0.46,1.195,0.769c0.254,0.31,0.433,0.7,0.535,1.171c0.057,0.293,0.086,0.822,0.086,1.587
				v2.293c0,1.6,0.036,2.611,0.109,3.034c0.073,0.424,0.219,0.83,0.435,1.219h-1.796
				C664.987,319.086,664.873,318.668,664.821,318.19z M664.679,314.349c-0.624,0.255-1.561,0.472-2.809,0.65
				c-0.708,0.102-1.208,0.216-1.501,0.344c-0.293,0.127-0.52,0.313-0.679,0.559c-0.159,0.246-0.238,0.518-0.238,0.817
				c0,0.459,0.173,0.841,0.521,1.146c0.347,0.306,0.854,0.459,1.524,0.459c0.662,0,1.252-0.145,1.768-0.435s0.895-0.687,1.137-1.19
				c0.186-0.388,0.277-0.962,0.277-1.72V314.349z"/>
			<path class="st4" d="M672.841,317.903l0.248,1.52c-0.484,0.103-0.918,0.153-1.3,0.153c-0.624,0-1.108-0.099-1.452-0.296
				c-0.345-0.197-0.587-0.457-0.727-0.779c-0.141-0.321-0.211-0.999-0.211-2.03v-5.84h-1.261v-1.338h1.261v-2.513l1.711-1.032v3.545
				h1.73v1.338h-1.73v5.935c0,0.491,0.03,0.807,0.091,0.946c0.061,0.141,0.159,0.252,0.296,0.335s0.334,0.124,0.588,0.124
				C672.276,317.971,672.528,317.948,672.841,317.903z"/>
			<path class="st4" d="M674.523,319.442v-10.149h1.538v1.425c0.319-0.497,0.742-0.897,1.271-1.2
				c0.529-0.302,1.131-0.453,1.807-0.453c0.752,0,1.368,0.156,1.85,0.468c0.48,0.312,0.82,0.749,1.018,1.31
				c0.803-1.186,1.848-1.777,3.135-1.777c1.006,0,1.78,0.278,2.322,0.836c0.541,0.558,0.812,1.416,0.812,2.575v6.967h-1.711v-6.394
				c0-0.688-0.057-1.183-0.168-1.485s-0.313-0.547-0.606-0.731s-0.638-0.277-1.032-0.277c-0.713,0-1.306,0.237-1.777,0.712
				s-0.707,1.234-0.707,2.279v5.896h-1.721v-6.594c0-0.765-0.14-1.338-0.42-1.721c-0.281-0.382-0.739-0.573-1.377-0.573
				c-0.483,0-0.932,0.128-1.342,0.383c-0.411,0.255-0.709,0.627-0.894,1.118c-0.185,0.49-0.277,1.197-0.277,2.121v5.266h-1.721
				V319.442z"/>
			<path class="st4" d="M697.773,316.174l1.777,0.22c-0.28,1.039-0.8,1.845-1.558,2.418s-1.727,0.86-2.905,0.86
				c-1.484,0-2.661-0.457-3.531-1.371s-1.304-2.196-1.304-3.847c0-1.708,0.439-3.033,1.318-3.976
				c0.879-0.943,2.02-1.414,3.421-1.414c1.357,0,2.466,0.462,3.325,1.386c0.861,0.924,1.291,2.223,1.291,3.898
				c0,0.103-0.004,0.255-0.01,0.459h-7.568c0.062,1.115,0.379,1.969,0.945,2.561c0.567,0.593,1.274,0.89,2.122,0.89
				c0.63,0,1.169-0.166,1.614-0.497C697.157,317.43,697.513,316.9,697.773,316.174z M692.125,313.394h5.666
				c-0.076-0.854-0.293-1.494-0.649-1.921c-0.548-0.663-1.259-0.994-2.131-0.994c-0.79,0-1.454,0.265-1.993,0.793
				C692.481,311.801,692.182,312.508,692.125,313.394z"/>
			<path class="st4" d="M701.709,319.442v-10.149h1.549v1.443c0.745-1.114,1.822-1.672,3.23-1.672c0.611,0,1.174,0.109,1.686,0.329
				c0.514,0.22,0.897,0.509,1.152,0.865s0.434,0.78,0.535,1.271c0.063,0.319,0.096,0.876,0.096,1.673v6.24h-1.721v-6.174
				c0-0.7-0.066-1.225-0.2-1.571c-0.134-0.348-0.372-0.625-0.712-0.832c-0.342-0.207-0.74-0.311-1.199-0.311
				c-0.732,0-1.365,0.232-1.897,0.698c-0.532,0.465-0.798,1.347-0.798,2.646v5.543L701.709,319.442L701.709,319.442z"/>
			<path class="st4" d="M716.351,317.903l0.249,1.52c-0.484,0.103-0.917,0.153-1.3,0.153c-0.625,0-1.108-0.099-1.453-0.296
				c-0.344-0.197-0.586-0.457-0.726-0.779c-0.141-0.321-0.21-0.999-0.21-2.03v-5.84h-1.262v-1.338h1.262v-2.513l1.71-1.032v3.545
				h1.729v1.338h-1.729v5.935c0,0.491,0.03,0.807,0.091,0.946c0.061,0.141,0.159,0.252,0.297,0.335
				c0.137,0.083,0.332,0.124,0.588,0.124C715.786,317.971,716.037,317.948,716.351,317.903z"/>
			<path class="st4" d="M717.344,316.413l1.701-0.268c0.096,0.682,0.361,1.204,0.798,1.567s1.046,0.545,1.83,0.545
				c0.79,0,1.376-0.161,1.759-0.483c0.382-0.321,0.572-0.699,0.572-1.132c0-0.389-0.168-0.694-0.506-0.918
				c-0.236-0.152-0.822-0.347-1.758-0.583c-1.262-0.318-2.137-0.594-2.623-0.826c-0.488-0.232-0.857-0.555-1.109-0.965
				c-0.252-0.411-0.377-0.865-0.377-1.362c0-0.452,0.104-0.871,0.311-1.257c0.207-0.385,0.488-0.705,0.846-0.96
				c0.268-0.197,0.632-0.365,1.094-0.502s0.957-0.205,1.486-0.205c0.797,0,1.496,0.114,2.098,0.344s1.047,0.54,1.333,0.932
				s0.483,0.916,0.593,1.572l-1.682,0.229c-0.077-0.522-0.299-0.931-0.664-1.224c-0.367-0.293-0.885-0.439-1.554-0.439
				c-0.79,0-1.354,0.131-1.691,0.392c-0.338,0.262-0.507,0.567-0.507,0.918c0,0.223,0.07,0.423,0.211,0.602
				c0.14,0.185,0.359,0.338,0.659,0.459c0.172,0.063,0.679,0.21,1.52,0.439c1.217,0.325,2.065,0.591,2.546,0.798
				s0.859,0.508,1.133,0.903s0.411,0.886,0.411,1.472c0,0.573-0.167,1.113-0.501,1.62c-0.335,0.506-0.818,0.897-1.448,1.175
				c-0.631,0.277-1.345,0.416-2.141,0.416c-1.319,0-2.324-0.274-3.015-0.822C717.977,318.302,717.536,317.489,717.344,316.413z"/>
		</g>
	</g>
</g>
<g>
</g>
<g>
</g>
<g>
</g>
<g>
</g>
<g>
</g>
<g>
</g>
</svg>
