<?xml version="1.0" encoding="utf-8"?>
<!-- Generator: Adobe Illustrator 17.0.1, SVG Export Plug-In . SVG Version: 6.00 Build 0)  -->
<!DOCTYPE svg PUBLIC "-//W3C//DTD SVG 1.1//EN" "http://www.w3.org/Graphics/SVG/1.1/DTD/svg11.dtd">
<svg version="1.1" id="Layer_1" xmlns="http://www.w3.org/2000/svg" xmlns:xlink="http://www.w3.org/1999/xlink" x="0px" y="0px"
	 width="720px" height="46px" viewBox="0 0 720 46" style="enable-background:new 0 0 720 46;" xml:space="preserve">
<style type="text/css">
	.st0{enable-background:new    ;}
	.st1{fill:#60A296;}
</style>
<g class="st0">
	<path class="st1" d="M0.53,19.976c0-9.266,6.721-16.37,16.322-16.37c9.553,0,16.081,7.153,16.081,16.37
		c0,9.265-6.72,16.369-16.321,16.369C7.059,36.345,0.53,29.193,0.53,19.976z M27.316,19.976c0-6.577-4.464-11.329-10.561-11.329
		c-6.145,0-10.609,4.704-10.609,11.329c0,6.576,4.464,11.328,10.609,11.328C22.852,31.304,27.316,26.6,27.316,19.976z"/>
	<path class="st1" d="M36.386,40.858h3.12V19.16h-3.12v-4.416h8.161v2.399c1.632-1.536,3.408-2.784,6.241-2.784
		c5.472,0,9.601,4.465,9.601,10.801c0,6.097-4.368,10.993-9.937,10.993c-2.256,0-4.128-0.815-5.712-2.016v6.721h3.408v4.32H36.386
		L36.386,40.858L36.386,40.858z M55.011,25.208c0-4.033-2.4-6.337-5.376-6.337c-1.968,0-3.504,0.864-4.896,2.112v9.024
		c1.344,0.96,2.976,1.633,4.896,1.633C52.419,31.641,55.011,29.384,55.011,25.208z"/>
	<path class="st1" d="M67.25,33.273c-0.48-0.864-0.72-1.969-0.72-3.312V19.16h-4.08v-4.416h4.08v-4.417l5.185-2.256v6.673H78.1
		v4.416h-6.385v9.793c0,0.672,0.096,1.104,0.336,1.536c0.384,0.672,1.152,1.008,2.208,1.008c1.344,0,2.88-0.528,4.128-1.104
		l-0.432,4.513c-1.44,0.721-3.121,1.248-5.041,1.248C70.37,36.153,68.306,35.289,67.25,33.273z"/>
	<path class="st1" d="M81.265,31.449h3.216V19.16h-3.216v-4.416h8.449v16.705h3.12v4.32H81.265V31.449z M83.089,8.071
		c0-1.92,1.68-3.456,3.552-3.456s3.457,1.536,3.457,3.456s-1.68,3.456-3.553,3.456C84.673,11.527,83.089,9.991,83.089,8.071z"/>
	<path class="st1" d="M110.931,22.232c-1.68,0-2.832-1.008-2.832-2.592c0-0.337,0-0.625,0.096-0.912
		c-0.864-0.337-1.92-0.528-2.976-0.528c-2.353,0-3.504,1.056-3.504,2.16c0,1.2,1.2,1.824,4.417,2.688
		c5.041,1.344,7.969,2.592,7.969,6.384c0,4.417-4.128,6.769-8.881,6.769c-3.216,0-6.673-1.151-8.065-2.544
		c-0.864-0.864-1.2-1.728-1.2-2.832c0-1.536,1.152-2.832,2.784-2.832c1.44,0,2.832,0.96,2.832,2.784
		c0,0.288-0.048,0.576-0.096,0.864c0.96,0.384,2.304,0.672,3.792,0.672c2.112,0,3.84-0.721,3.84-2.257
		c0-1.056-0.912-1.68-4.128-2.544c-5.809-1.536-8.257-2.928-8.257-6.528c0-3.265,2.688-6.673,8.593-6.673
		c2.544,0,5.617,0.96,7.057,2.4c0.768,0.768,1.152,1.68,1.152,2.688C113.523,21.08,112.467,22.232,110.931,22.232z"/>
	<path class="st1" d="M121.249,33.273c-0.48-0.864-0.72-1.969-0.72-3.312V19.16h-4.08v-4.416h4.08v-4.417l5.185-2.256v6.673h6.385
		v4.416h-6.385v9.793c0,0.672,0.096,1.104,0.336,1.536c0.384,0.672,1.152,1.008,2.208,1.008c1.344,0,2.88-0.528,4.128-1.104
		l-0.432,4.513c-1.44,0.721-3.121,1.248-5.041,1.248C124.37,36.153,122.306,35.289,121.249,33.273z"/>
	<path class="st1" d="M135.408,30.248c0-3.937,3.456-6.337,8.449-6.337c2.16,0,4.176,0.288,5.329,0.576v-1.68
		c0-1.248-0.288-2.208-0.816-2.881c-0.864-1.104-2.256-1.536-4.128-1.536c-0.912,0-1.584,0.145-2.064,0.337
		c0.096,0.287,0.192,0.768,0.192,1.056c0,1.584-1.248,2.736-2.832,2.736s-2.784-1.104-2.784-2.832c0-2.593,2.64-5.329,8.353-5.329
		c3.601,0,6.048,1.009,7.537,2.833c1.104,1.344,1.632,3.168,1.632,5.28v8.977h3.12v4.32h-8.113v-2.305
		c-1.68,1.44-4.224,2.688-7.057,2.688C138.624,36.153,135.408,34.185,135.408,30.248z M149.186,30.489v-3.312
		c-1.2-0.288-2.688-0.48-4.321-0.48c-2.544,0-4.08,1.152-4.08,3.072c0,1.681,1.248,2.593,3.12,2.593S147.601,31.641,149.186,30.489z
		"/>
	<path class="st1" d="M159.984,19.16h-2.448v-4.416h10.753v4.176h-3.024l5.041,10.945l5.041-10.945h-3.168v-4.176h10.705v4.416
		h-2.448l-8.353,16.993h-3.744L159.984,19.16z"/>
	<path class="st1" d="M184.656,31.449h3.216V19.16h-3.216v-4.416h8.449v16.705h3.12v4.32h-11.569V31.449z M186.479,8.071
		c0-1.92,1.68-3.456,3.552-3.456s3.457,1.536,3.457,3.456s-1.68,3.456-3.553,3.456C188.064,11.527,186.479,9.991,186.479,8.071z"/>
	<path class="st1" d="M207.408,18.103c2.016-1.968,4.272-3.744,7.345-3.744c2.496,0,4.32,1.009,5.424,2.688
		c0.72,1.152,1.104,2.593,1.104,4.32v10.081h3.12v4.32h-11.233v-4.32h2.88v-8.785c0-0.863-0.144-1.632-0.432-2.16
		c-0.48-0.912-1.344-1.392-2.592-1.392c-1.824,0-3.744,1.056-5.424,2.448v9.889h2.88v4.32h-11.233v-4.32h3.12V19.159h-3.12v-4.416
		h8.161V18.103z"/>
	<path class="st1" d="M236.975,5.046V0.63h8.353v17.281c1.968-1.872,4.177-3.553,7.153-3.553c2.256,0,4.032,0.816,5.136,2.257
		c0.912,1.2,1.393,2.832,1.393,4.752v10.081h3.12v4.32h-11.233v-4.32h2.88v-8.785c0-1.151-0.24-1.968-0.672-2.544
		c-0.528-0.672-1.344-1.008-2.352-1.008c-1.824,0-3.745,1.056-5.425,2.448v9.889h2.88v4.32h-11.233v-4.32h3.12V5.046H236.975z"/>
	<path class="st1" d="M269.664,27.033c0.72,3.264,3.408,4.704,6.913,4.704c2.544,0,5.185-0.816,7.633-2.208l-0.432,4.704
		c-2.208,1.296-4.896,1.92-7.969,1.92c-6.864,0-11.617-4.32-11.617-10.849c0-5.952,4.176-10.945,10.657-10.945
		c6.721,0,10.225,4.513,10.225,10.081c0,0.816-0.096,1.872-0.24,2.593C284.834,27.033,269.664,27.033,269.664,27.033z
		 M269.616,23.384h10.225c-0.096-2.881-1.968-4.801-5.04-4.801C272.496,18.583,270.191,19.927,269.616,23.384z"/>
	<path class="st1" d="M287.807,31.449h3.264V5.046h-3.264V0.63h8.497v30.818h3.121v4.32h-11.617v-4.319H287.807z"/>
	<path class="st1" d="M301.487,40.858h3.12V19.16h-3.12v-4.416h8.161v2.399c1.632-1.536,3.408-2.784,6.241-2.784
		c5.472,0,9.601,4.465,9.601,10.801c0,6.097-4.368,10.993-9.937,10.993c-2.256,0-4.128-0.815-5.712-2.016v6.721h3.408v4.32h-11.761
		v-4.32H301.487z M320.113,25.208c0-4.033-2.4-6.337-5.376-6.337c-1.968,0-3.504,0.864-4.896,2.112v9.024
		c1.344,0.96,2.976,1.633,4.896,1.633C317.521,31.641,320.113,29.384,320.113,25.208z"/>
	<path class="st1" d="M344.017,22.232c-1.68,0-2.832-1.008-2.832-2.592c0-0.337,0-0.625,0.096-0.912
		c-0.864-0.337-1.92-0.528-2.976-0.528c-2.353,0-3.504,1.056-3.504,2.16c0,1.2,1.2,1.824,4.417,2.688
		c5.041,1.344,7.969,2.592,7.969,6.384c0,4.417-4.128,6.769-8.881,6.769c-3.216,0-6.673-1.151-8.065-2.544
		c-0.864-0.864-1.2-1.728-1.2-2.832c0-1.536,1.152-2.832,2.784-2.832c1.44,0,2.832,0.96,2.832,2.784
		c0,0.288-0.048,0.576-0.096,0.864c0.96,0.384,2.304,0.672,3.792,0.672c2.112,0,3.84-0.721,3.84-2.257
		c0-1.056-0.912-1.68-4.128-2.544c-5.809-1.536-8.257-2.928-8.257-6.528c0-3.265,2.688-6.673,8.593-6.673
		c2.544,0,5.617,0.96,7.057,2.4c0.768,0.768,1.152,1.68,1.152,2.688C346.608,21.08,345.552,22.232,344.017,22.232z"/>
	<path class="st1" d="M360.91,40.858h3.12V19.16h-3.12v-4.416h8.161v2.399c1.632-1.536,3.408-2.784,6.241-2.784
		c5.472,0,9.601,4.465,9.601,10.801c0,6.097-4.368,10.993-9.937,10.993c-2.256,0-4.128-0.815-5.712-2.016v6.721h3.408v4.32h-11.761
		v-4.32H360.91z M379.535,25.208c0-4.033-2.4-6.337-5.376-6.337c-1.968,0-3.504,0.864-4.896,2.112v9.024
		c1.344,0.96,2.976,1.633,4.896,1.633C376.944,31.641,379.535,29.384,379.535,25.208z"/>
	<path class="st1" d="M406.751,17.816c0,1.775-1.392,3.264-3.121,3.264c-1.584,0-2.64-0.912-3.072-1.872
		c-1.488,0.528-3.216,2.16-4.176,3.984v8.257h3.648v4.32H388.03v-4.32h3.12V19.16h-3.12v-4.416h8.161v4.752
		c1.776-2.832,3.984-5.137,6.672-5.137C405.456,14.359,406.751,15.943,406.751,17.816z"/>
	<path class="st1" d="M408.333,25.256c0-5.761,4.32-10.897,11.185-10.897c6.961,0,11.186,5.041,11.186,10.897
		c0,5.761-4.32,10.896-11.186,10.896C412.557,36.153,408.333,31.113,408.333,25.256z M425.327,25.256c0-3.841-2.4-6.528-5.809-6.528
		s-5.808,2.688-5.808,6.528s2.4,6.528,5.808,6.528S425.327,29.096,425.327,25.256z"/>
	<path class="st1" d="M433.58,31.449h3.265V5.046h-3.265V0.63h8.497v30.818h3.12v4.32H433.58V31.449z"/>
	<path class="st1" d="M448.126,25.256c0-5.761,4.32-10.897,11.185-10.897c6.961,0,11.185,5.041,11.185,10.897
		c0,5.761-4.32,10.896-11.185,10.896C452.35,36.153,448.126,31.113,448.126,25.256z M465.118,25.256
		c0-3.841-2.399-6.528-5.809-6.528c-3.408,0-5.808,2.688-5.808,6.528s2.399,6.528,5.808,6.528
		C462.72,31.785,465.118,29.096,465.118,25.256z"/>
	<path class="st1" d="M481.774,18.103c2.016-1.968,4.272-3.744,7.345-3.744c2.496,0,4.32,1.009,5.425,2.688
		c0.72,1.152,1.104,2.593,1.104,4.32v10.081h3.12v4.32h-11.233v-4.32h2.881v-8.785c0-0.863-0.145-1.632-0.432-2.16
		c-0.48-0.912-1.344-1.392-2.593-1.392c-1.823,0-3.744,1.056-5.425,2.448v9.889h2.881v4.32h-11.232v-4.32h3.119V19.159h-3.119
		v-4.416h8.16L481.774,18.103L481.774,18.103z"/>
	<path class="st1" d="M521.712,35.817c0,2.593-0.672,4.753-1.969,6.337c-1.729,2.112-4.465,3.216-7.873,3.216
		c-3.647,0-6.768-1.151-8.256-2.64c-0.816-0.816-1.152-1.729-1.152-2.736c0-1.488,1.104-2.929,2.832-2.929
		c1.633,0,2.929,1.152,2.929,2.736c0,0.24-0.048,0.624-0.097,0.816c0.865,0.288,1.873,0.528,3.121,0.528
		c1.871,0,3.359-0.576,4.271-1.824c0.625-0.864,0.961-2.064,0.961-3.648v-3.024c-1.584,1.584-3.264,2.688-6.049,2.688
		c-5.328,0-9.601-4.081-9.601-10.321c0-6.001,4.368-10.657,9.841-10.657c2.688,0,4.607,1.057,6,2.257v-1.872h8.16v4.416h-3.119
		v16.657H521.712z M506.205,24.968c0,3.84,2.353,5.952,5.568,5.952c1.777,0,3.361-0.815,4.705-2.063v-8.354
		c-1.248-0.96-2.832-1.632-4.705-1.632C508.559,18.872,506.205,20.984,506.205,24.968z"/>
	<path class="st1" d="M553.39,22.232c-1.68,0-2.832-1.008-2.832-2.592c0-0.337,0-0.625,0.096-0.912
		c-0.863-0.337-1.92-0.528-2.977-0.528c-2.352,0-3.504,1.056-3.504,2.16c0,1.2,1.201,1.824,4.416,2.688
		c5.041,1.344,7.969,2.592,7.969,6.384c0,4.417-4.127,6.769-8.881,6.769c-3.215,0-6.672-1.151-8.064-2.544
		c-0.863-0.864-1.199-1.728-1.199-2.832c0-1.536,1.152-2.832,2.783-2.832c1.441,0,2.834,0.96,2.834,2.784
		c0,0.288-0.049,0.576-0.098,0.864c0.961,0.384,2.305,0.672,3.793,0.672c2.111,0,3.84-0.721,3.84-2.257
		c0-1.056-0.912-1.68-4.127-2.544c-5.809-1.536-8.258-2.928-8.258-6.528c0-3.265,2.688-6.673,8.594-6.673
		c2.543,0,5.615,0.96,7.057,2.4c0.768,0.768,1.15,1.68,1.15,2.688C555.981,21.08,554.927,22.232,553.39,22.232z"/>
	<path class="st1" d="M563.085,33.369c-0.672-1.104-1.055-2.544-1.055-4.225V19.16h-3.121v-4.416h8.354v13.104
		c0,0.912,0.143,1.584,0.432,2.16c0.48,0.912,1.344,1.393,2.592,1.393c1.824,0,3.744-1.057,5.424-2.448V19.16h-3.264v-4.416h8.496
		v16.705h3.121v4.32h-8.16v-3.36c-2.018,1.968-4.273,3.744-7.346,3.744C566.015,36.153,564.142,35.097,563.085,33.369z"/>
	<path class="st1" d="M605.519,17.816c0,1.775-1.393,3.264-3.119,3.264c-1.586,0-2.641-0.912-3.072-1.872
		c-1.488,0.528-3.217,2.16-4.178,3.984v8.257h3.648v4.32h-12v-4.32h3.119V19.16h-3.119v-4.416h8.16v4.752
		c1.775-2.832,3.984-5.137,6.672-5.137C604.224,14.359,605.519,15.943,605.519,17.816z"/>
	<path class="st1" d="M608.878,19.16h-2.449v-4.416h10.754v4.176h-3.025l5.041,10.945l5.041-10.945h-3.17v-4.176h10.705v4.416
		h-2.447l-8.354,16.993h-3.744L608.878,19.16z"/>
	<path class="st1" d="M633.548,31.449h3.217V19.16h-3.217v-4.416h8.449v16.705h3.121v4.32h-11.57L633.548,31.449L633.548,31.449z
		 M635.372,8.071c0-1.92,1.68-3.456,3.553-3.456s3.457,1.536,3.457,3.456s-1.682,3.456-3.553,3.456
		C636.956,11.527,635.372,9.991,635.372,8.071z"/>
	<path class="st1" d="M648.669,19.16h-2.449v-4.416h10.754v4.176h-3.025l5.041,10.945l5.041-10.945h-3.17v-4.176h10.705v4.416
		h-2.447l-8.354,16.993h-3.744L648.669,19.16z"/>
	<path class="st1" d="M672.811,30.248c0-3.937,3.457-6.337,8.449-6.337c2.16,0,4.178,0.288,5.328,0.576v-1.68
		c0-1.248-0.287-2.208-0.814-2.881c-0.865-1.104-2.258-1.536-4.129-1.536c-0.912,0-1.584,0.145-2.064,0.337
		c0.096,0.287,0.191,0.768,0.191,1.056c0,1.584-1.248,2.736-2.832,2.736s-2.783-1.104-2.783-2.832c0-2.593,2.639-5.329,8.352-5.329
		c3.602,0,6.049,1.009,7.537,2.833c1.104,1.344,1.633,3.168,1.633,5.28v8.977h3.119v4.32h-8.111v-2.305
		c-1.682,1.44-4.225,2.688-7.057,2.688C676.028,36.153,672.811,34.185,672.811,30.248z M686.589,30.489v-3.312
		c-1.199-0.288-2.688-0.48-4.32-0.48c-2.543,0-4.08,1.152-4.08,3.072c0,1.681,1.248,2.593,3.121,2.593
		C683.181,32.361,685.005,31.641,686.589,30.489z"/>
	<path class="st1" d="M696.476,31.449h3.266V5.046h-3.266V0.63h8.498v30.818h3.119v4.32h-11.617V31.449z"/>
	<path class="st1" d="M711.597,32.216c0-2.208,1.775-3.984,3.936-3.984s3.938,1.776,3.938,3.984c0,2.16-1.777,3.937-3.938,3.937
		S711.597,34.376,711.597,32.216z"/>
</g>
<g>
</g>
<g>
</g>
<g>
</g>
<g>
</g>
<g>
</g>
<g>
</g>
</svg>
