<?xml version="1.0" encoding="utf-8"?>
<!-- Generator: Adobe Illustrator 17.0.1, SVG Export Plug-In . SVG Version: 6.00 Build 0)  -->
<!DOCTYPE svg PUBLIC "-//W3C//DTD SVG 1.1//EN" "http://www.w3.org/Graphics/SVG/1.1/DTD/svg11.dtd">
<svg version="1.1" id="Layer_1" xmlns="http://www.w3.org/2000/svg" xmlns:xlink="http://www.w3.org/1999/xlink" x="0px" y="0px"
	 width="826.923px" height="368.462px" viewBox="0 0 826.923 368.462" style="enable-background:new 0 0 826.923 368.462;"
	 xml:space="preserve">
<style type="text/css">
	.st0{fill:none;stroke:#E9DA47;stroke-width:2.6178;stroke-miterlimit:10;stroke-dasharray:4.4876,4.4876;}
	.st1{fill:#FFFFFF;stroke:#D7EDE6;stroke-width:4.4876;stroke-miterlimit:10;}
	.st2{fill:#D7EDE6;}
	.st3{enable-background:new    ;}
	.st4{fill:#6DADA2;}
	.st5{fill:#4E4E50;}
</style>
<g>
	<polyline class="st0" points="645.137,224.799 645.137,91.183 182.298,90.746 182.298,224.361 	"/>
	<rect x="4.599" y="224.361" class="st1" width="355.399" height="139.183"/>
	<g>
		<rect x="250.759" y="2.456" class="st2" width="325.482" height="176.58"/>
		<g>
			<g class="st3">
				<path class="st4" d="M306.786,34.334c0-4.265,1.145-7.604,3.436-10.018c2.29-2.413,5.247-3.62,8.87-3.62
					c2.373,0,4.511,0.567,6.416,1.7c1.905,1.134,3.357,2.715,4.356,4.742c1,2.027,1.499,4.327,1.499,6.897
					c0,2.606-0.526,4.938-1.578,6.994c-1.052,2.058-2.542,3.614-4.47,4.672s-4.008,1.587-6.24,1.587
					c-2.419,0-4.582-0.584-6.486-1.753s-3.348-2.764-4.33-4.786C307.276,38.729,306.786,36.59,306.786,34.334z M310.292,34.387
					c0,3.098,0.833,5.537,2.498,7.319c1.666,1.782,3.754,2.673,6.267,2.673c2.559,0,4.666-0.899,6.319-2.699
					c1.653-1.8,2.48-4.354,2.48-7.661c0-2.092-0.354-3.918-1.061-5.478c-0.708-1.561-1.742-2.77-3.103-3.629
					c-1.361-0.858-2.89-1.288-4.584-1.288c-2.407,0-4.479,0.827-6.214,2.48C311.159,27.758,310.292,30.519,310.292,34.387z"/>
				<path class="st4" d="M340.513,46.851l-7.082-18.616h3.331l3.997,11.148c0.432,1.204,0.83,2.454,1.192,3.752
					c0.281-0.982,0.672-2.162,1.175-3.541l4.137-11.359h3.243l-7.047,18.616H340.513z"/>
				<path class="st4" d="M366.036,40.855l3.261,0.403c-0.515,1.905-1.467,3.383-2.857,4.435s-3.167,1.578-5.329,1.578
					c-2.723,0-4.882-0.839-6.477-2.516s-2.393-4.029-2.393-7.056c0-3.132,0.806-5.563,2.419-7.292s3.705-2.595,6.275-2.595
					c2.489,0,4.523,0.848,6.101,2.542s2.366,4.078,2.366,7.151c0,0.188-0.006,0.468-0.018,0.842H355.5
					c0.117,2.045,0.695,3.611,1.735,4.698s2.337,1.63,3.892,1.63c1.157,0,2.145-0.304,2.962-0.911S365.557,42.188,366.036,40.855z
					 M355.676,35.754h10.395c-0.14-1.565-0.538-2.74-1.192-3.523c-1.005-1.215-2.308-1.822-3.909-1.822
					c-1.449,0-2.667,0.484-3.655,1.454C356.327,32.833,355.781,34.13,355.676,35.754z"/>
				<path class="st4" d="M373.223,46.851V28.234h2.84v2.822c0.724-1.32,1.394-2.191,2.007-2.612
					c0.614-0.421,1.289-0.631,2.025-0.631c1.063,0,2.145,0.339,3.243,1.017l-1.086,2.928c-0.771-0.456-1.543-0.684-2.314-0.684
					c-0.69,0-1.309,0.207-1.858,0.622s-0.941,0.99-1.174,1.727c-0.351,1.122-0.526,2.349-0.526,3.682v9.746H373.223z"/>
				<path class="st4" d="M397.361,44.555c-1.169,0.993-2.294,1.694-3.375,2.104c-1.081,0.408-2.241,0.613-3.479,0.613
					c-2.045,0-3.617-0.5-4.716-1.499s-1.647-2.275-1.647-3.83c0-0.912,0.207-1.744,0.622-2.498c0.415-0.754,0.958-1.358,1.63-1.814
					c0.672-0.456,1.429-0.8,2.27-1.034c0.619-0.163,1.554-0.321,2.805-0.474c2.548-0.304,4.423-0.666,5.627-1.087
					c0.012-0.432,0.018-0.706,0.018-0.823c0-1.285-0.298-2.191-0.894-2.718c-0.806-0.712-2.004-1.068-3.593-1.068
					c-1.484,0-2.58,0.26-3.287,0.779c-0.707,0.521-1.23,1.44-1.569,2.761l-3.085-0.42c0.28-1.32,0.742-2.387,1.385-3.199
					c0.643-0.813,1.571-1.438,2.787-1.876c1.215-0.438,2.624-0.657,4.225-0.657c1.589,0,2.881,0.187,3.874,0.561
					s1.724,0.845,2.191,1.411c0.467,0.567,0.794,1.283,0.981,2.147c0.105,0.538,0.158,1.508,0.158,2.91v4.207
					c0,2.934,0.067,4.789,0.202,5.565c0.134,0.777,0.4,1.522,0.798,2.235h-3.296C397.665,46.196,397.455,45.431,397.361,44.555z
					 M397.098,37.507c-1.146,0.468-2.863,0.865-5.154,1.192c-1.297,0.188-2.214,0.397-2.752,0.631
					c-0.538,0.234-0.953,0.576-1.245,1.025c-0.292,0.45-0.438,0.95-0.438,1.499c0,0.842,0.318,1.543,0.955,2.104
					c0.637,0.562,1.569,0.842,2.796,0.842c1.215,0,2.296-0.266,3.243-0.798c0.947-0.531,1.642-1.259,2.086-2.183
					c0.339-0.713,0.508-1.765,0.508-3.155V37.507z"/>
				<path class="st4" d="M405.109,46.851V21.152h3.155v25.698H405.109z"/>
				<path class="st4" d="M413.085,46.851V21.152h3.155v25.698H413.085z"/>
			</g>
			<g class="st3">
				<path class="st5" d="M438.417,51.888c-1.161-1.465-2.143-3.179-2.945-5.143c-0.803-1.963-1.203-3.996-1.203-6.1
					c0-1.854,0.3-3.631,0.899-5.329c0.701-1.972,1.784-3.935,3.249-5.891h1.508c-0.943,1.621-1.566,2.778-1.87,3.472
					c-0.476,1.074-0.85,2.196-1.122,3.365c-0.335,1.457-0.502,2.922-0.502,4.395c0,3.747,1.164,7.49,3.494,11.23H438.417z"/>
				<path class="st5" d="M442.612,46.851V29.719h2.325l8.999,13.45v-13.45h2.174v17.132h-2.326l-8.998-13.463v13.463H442.612z"/>
				<path class="st5" d="M470.718,36.777h-11.313v-1.964h11.313V36.777z M470.718,41.978h-11.313v-1.964h11.313V41.978z"/>
				<path class="st5" d="M476.281,37.56c-0.873-0.319-1.52-0.774-1.94-1.367c-0.421-0.592-0.631-1.301-0.631-2.127
					c0-1.246,0.448-2.294,1.344-3.144c0.896-0.849,2.088-1.273,3.576-1.273c1.496,0,2.699,0.435,3.611,1.303
					c0.911,0.869,1.367,1.927,1.367,3.173c0,0.795-0.209,1.486-0.625,2.074c-0.417,0.589-1.05,1.042-1.899,1.361
					c1.052,0.343,1.853,0.896,2.401,1.66c0.55,0.764,0.824,1.675,0.824,2.734c0,1.465-0.519,2.695-1.555,3.692
					c-1.036,0.998-2.399,1.496-4.09,1.496s-3.054-0.5-4.09-1.502c-1.037-1.001-1.555-2.249-1.555-3.745
					c0-1.114,0.282-2.047,0.848-2.799C474.433,38.345,475.237,37.833,476.281,37.56z M475.183,41.907c0,0.6,0.142,1.181,0.427,1.741
					c0.284,0.561,0.707,0.995,1.268,1.303c0.561,0.309,1.165,0.462,1.812,0.462c1.005,0,1.835-0.323,2.489-0.97
					s0.981-1.469,0.981-2.466c0-1.013-0.337-1.851-1.011-2.513s-1.518-0.993-2.53-0.993c-0.989,0-1.81,0.327-2.46,0.981
					S475.183,40.926,475.183,41.907z M475.86,33.995c0,0.811,0.261,1.473,0.783,1.987c0.521,0.514,1.199,0.771,2.033,0.771
					c0.811,0,1.475-0.256,1.992-0.766c0.519-0.511,0.777-1.136,0.777-1.876c0-0.771-0.267-1.42-0.801-1.945
					c-0.533-0.526-1.197-0.789-1.992-0.789c-0.803,0-1.469,0.257-1.998,0.771C476.125,32.663,475.86,33.279,475.86,33.995z"/>
				<path class="st5" d="M486.67,42.889l2.021-0.187c0.172,0.95,0.499,1.64,0.982,2.068c0.482,0.429,1.102,0.643,1.857,0.643
					c0.646,0,1.214-0.147,1.7-0.444c0.487-0.296,0.887-0.691,1.198-1.186c0.312-0.495,0.572-1.163,0.783-2.005
					c0.21-0.841,0.315-1.698,0.315-2.57c0-0.094-0.004-0.234-0.012-0.421c-0.421,0.67-0.995,1.214-1.724,1.63
					c-0.729,0.417-1.518,0.625-2.366,0.625c-1.419,0-2.618-0.514-3.6-1.542s-1.473-2.384-1.473-4.067
					c0-1.737,0.512-3.136,1.537-4.195c1.024-1.06,2.308-1.589,3.851-1.589c1.113,0,2.133,0.3,3.056,0.899
					c0.923,0.601,1.624,1.455,2.104,2.565s0.719,2.717,0.719,4.82c0,2.189-0.237,3.933-0.713,5.229
					c-0.476,1.298-1.183,2.285-2.121,2.963s-2.039,1.017-3.302,1.017c-1.34,0-2.435-0.372-3.283-1.116
					C487.352,45.283,486.841,44.237,486.67,42.889z M495.283,35.328c0-1.208-0.321-2.166-0.965-2.875
					c-0.643-0.709-1.416-1.063-2.319-1.063c-0.935,0-1.749,0.382-2.442,1.146s-1.04,1.753-1.04,2.968
					c0,1.091,0.329,1.978,0.987,2.659s1.471,1.022,2.437,1.022c0.974,0,1.774-0.341,2.401-1.022S495.283,36.535,495.283,35.328z"/>
				<path class="st5" d="M502.902,37.56c-0.872-0.319-1.519-0.774-1.939-1.367c-0.421-0.592-0.631-1.301-0.631-2.127
					c0-1.246,0.447-2.294,1.344-3.144c0.896-0.849,2.088-1.273,3.576-1.273c1.495,0,2.699,0.435,3.61,1.303
					c0.912,0.869,1.368,1.927,1.368,3.173c0,0.795-0.209,1.486-0.626,2.074c-0.417,0.589-1.05,1.042-1.898,1.361
					c1.052,0.343,1.852,0.896,2.401,1.66c0.549,0.764,0.824,1.675,0.824,2.734c0,1.465-0.519,2.695-1.555,3.692
					c-1.036,0.998-2.399,1.496-4.09,1.496c-1.691,0-3.055-0.5-4.091-1.502c-1.036-1.001-1.554-2.249-1.554-3.745
					c0-1.114,0.282-2.047,0.847-2.799S501.858,37.833,502.902,37.56z M501.804,41.907c0,0.6,0.143,1.181,0.427,1.741
					s0.707,0.995,1.269,1.303c0.561,0.309,1.164,0.462,1.811,0.462c1.006,0,1.835-0.323,2.489-0.97
					c0.655-0.646,0.982-1.469,0.982-2.466c0-1.013-0.338-1.851-1.012-2.513s-1.517-0.993-2.529-0.993c-0.99,0-1.81,0.327-2.46,0.981
					C502.129,40.107,501.804,40.926,501.804,41.907z M502.481,33.995c0,0.811,0.262,1.473,0.783,1.987
					c0.522,0.514,1.2,0.771,2.033,0.771c0.811,0,1.475-0.256,1.993-0.766c0.518-0.511,0.777-1.136,0.777-1.876
					c0-0.771-0.268-1.42-0.801-1.945c-0.534-0.526-1.198-0.789-1.992-0.789c-0.803,0-1.469,0.257-1.999,0.771
					C502.747,32.663,502.481,33.279,502.481,33.995z"/>
				<path class="st5" d="M514.939,51.888h-1.507c2.329-3.74,3.494-7.483,3.494-11.23c0-1.465-0.168-2.918-0.503-4.359
					c-0.265-1.169-0.635-2.291-1.11-3.366c-0.304-0.701-0.931-1.869-1.881-3.506h1.507c1.465,1.956,2.548,3.919,3.249,5.891
					c0.6,1.698,0.9,3.475,0.9,5.329c0,2.104-0.403,4.137-1.21,6.1C517.072,48.709,516.093,50.423,514.939,51.888z"/>
			</g>
			<g class="st3">
				<path class="st5" d="M332.391,86.042V68.91h5.177l3.108,11.686l3.074-11.686h5.189v17.132h-3.214V72.555l-3.401,13.486h-3.331
					l-3.389-13.486v13.486H332.391z"/>
				<path class="st5" d="M359.539,82.091l3.272,0.55c-0.421,1.199-1.085,2.113-1.993,2.74s-2.043,0.94-3.406,0.94
					c-2.158,0-3.755-0.705-4.792-2.115c-0.818-1.129-1.227-2.555-1.227-4.277c0-2.057,0.538-3.667,1.613-4.832
					c1.075-1.165,2.435-1.747,4.078-1.747c1.847,0,3.303,0.609,4.371,1.829c1.067,1.219,1.578,3.087,1.531,5.604h-8.227
					c0.023,0.974,0.288,1.731,0.794,2.272c0.506,0.542,1.138,0.813,1.893,0.813c0.514,0,0.947-0.14,1.297-0.421
					C359.094,83.167,359.359,82.715,359.539,82.091z M359.725,78.773c-0.023-0.951-0.269-1.674-0.736-2.168
					c-0.468-0.495-1.037-0.742-1.707-0.742c-0.717,0-1.309,0.261-1.776,0.783c-0.467,0.521-0.697,1.23-0.689,2.127H359.725z"/>
				<path class="st5" d="M377.045,86.042h-3.05v-1.823c-0.506,0.709-1.104,1.237-1.794,1.584s-1.385,0.52-2.086,0.52
					c-1.426,0-2.647-0.574-3.664-1.724s-1.525-2.752-1.525-4.809c0-2.104,0.495-3.703,1.484-4.798
					c0.989-1.094,2.24-1.642,3.751-1.642c1.387,0,2.586,0.576,3.599,1.729v-6.17h3.284V86.042z M368.28,79.567
					c0,1.325,0.183,2.283,0.549,2.875c0.53,0.857,1.27,1.286,2.221,1.286c0.755,0,1.398-0.322,1.928-0.965s0.794-1.603,0.794-2.881
					c0-1.426-0.257-2.452-0.771-3.079s-1.173-0.94-1.975-0.94c-0.779,0-1.432,0.31-1.958,0.929S368.28,78.336,368.28,79.567z"/>
				<path class="st5" d="M380.282,71.948V68.91h3.284v3.038H380.282z M380.282,86.042V73.63h3.284v12.411H380.282z"/>
				<path class="st5" d="M389.385,77.417l-2.98-0.537c0.335-1.2,0.912-2.088,1.729-2.665c0.818-0.576,2.034-0.864,3.646-0.864
					c1.464,0,2.555,0.174,3.272,0.52c0.717,0.348,1.221,0.787,1.514,1.321c0.292,0.533,0.438,1.513,0.438,2.938l-0.035,3.834
					c0,1.091,0.053,1.895,0.158,2.413c0.105,0.518,0.302,1.073,0.59,1.665h-3.249c-0.086-0.218-0.191-0.541-0.316-0.97
					c-0.054-0.195-0.093-0.323-0.117-0.386c-0.561,0.545-1.161,0.954-1.8,1.227c-0.639,0.273-1.32,0.409-2.045,0.409
					c-1.278,0-2.285-0.347-3.021-1.04s-1.104-1.569-1.104-2.629c0-0.701,0.167-1.327,0.502-1.876c0.335-0.55,0.805-0.97,1.408-1.263
					c0.604-0.292,1.475-0.547,2.612-0.765c1.535-0.288,2.598-0.558,3.19-0.807v-0.327c0-0.631-0.156-1.081-0.467-1.35
					c-0.312-0.27-0.9-0.403-1.765-0.403c-0.584,0-1.04,0.115-1.367,0.345S389.588,76.84,389.385,77.417z M393.779,80.082
					c-0.42,0.14-1.086,0.308-1.998,0.502c-0.912,0.195-1.508,0.386-1.788,0.573c-0.429,0.304-0.643,0.689-0.643,1.157
					c0,0.459,0.171,0.856,0.514,1.191c0.343,0.335,0.779,0.503,1.309,0.503c0.592,0,1.157-0.195,1.695-0.585
					c0.397-0.296,0.658-0.658,0.783-1.087c0.086-0.28,0.128-0.813,0.128-1.601V80.082z"/>
				<path class="st5" d="M411.531,86.042h-3.284v-6.334c0-1.34-0.07-2.207-0.21-2.601c-0.14-0.393-0.368-0.699-0.684-0.917
					s-0.695-0.327-1.14-0.327c-0.568,0-1.079,0.156-1.531,0.468s-0.762,0.724-0.929,1.238s-0.251,1.465-0.251,2.852v5.621h-3.284
					V73.63h3.05v1.823c1.083-1.402,2.446-2.104,4.09-2.104c0.725,0,1.387,0.131,1.987,0.392c0.6,0.261,1.053,0.594,1.361,0.999
					c0.308,0.405,0.522,0.865,0.643,1.379c0.121,0.515,0.181,1.251,0.181,2.209V86.042z"/>
				<path class="st5" d="M423.965,77.417l-2.979-0.537c0.335-1.2,0.911-2.088,1.729-2.665c0.818-0.576,2.033-0.864,3.646-0.864
					c1.465,0,2.555,0.174,3.271,0.52c0.717,0.348,1.222,0.787,1.514,1.321c0.293,0.533,0.438,1.513,0.438,2.938l-0.035,3.834
					c0,1.091,0.053,1.895,0.158,2.413c0.104,0.518,0.302,1.073,0.59,1.665h-3.249c-0.086-0.218-0.191-0.541-0.315-0.97
					c-0.054-0.195-0.093-0.323-0.116-0.386c-0.562,0.545-1.162,0.954-1.801,1.227c-0.639,0.273-1.32,0.409-2.045,0.409
					c-1.277,0-2.284-0.347-3.021-1.04s-1.104-1.569-1.104-2.629c0-0.701,0.168-1.327,0.502-1.876c0.336-0.55,0.805-0.97,1.408-1.263
					c0.604-0.292,1.475-0.547,2.613-0.765c1.534-0.288,2.598-0.558,3.189-0.807v-0.327c0-0.631-0.156-1.081-0.467-1.35
					c-0.313-0.27-0.9-0.403-1.766-0.403c-0.584,0-1.039,0.115-1.367,0.345C424.434,76.437,424.168,76.84,423.965,77.417z
					 M428.359,80.082c-0.42,0.14-1.086,0.308-1.998,0.502c-0.912,0.195-1.508,0.386-1.788,0.573
					c-0.429,0.304-0.643,0.689-0.643,1.157c0,0.459,0.171,0.856,0.515,1.191c0.342,0.335,0.778,0.503,1.309,0.503
					c0.592,0,1.156-0.195,1.694-0.585c0.397-0.296,0.658-0.658,0.782-1.087c0.086-0.28,0.129-0.813,0.129-1.601V80.082z"/>
				<path class="st5" d="M434.519,86.86l3.751,0.455c0.063,0.437,0.207,0.736,0.433,0.9c0.312,0.233,0.802,0.351,1.473,0.351
					c0.856,0,1.499-0.129,1.929-0.386c0.287-0.172,0.506-0.448,0.654-0.83c0.101-0.272,0.151-0.775,0.151-1.507v-1.812
					c-0.981,1.34-2.22,2.01-3.716,2.01c-1.668,0-2.988-0.705-3.962-2.115c-0.764-1.114-1.146-2.501-1.146-4.16
					c0-2.08,0.5-3.67,1.502-4.769c1.001-1.099,2.246-1.647,3.734-1.647c1.534,0,2.801,0.674,3.797,2.021V73.63h3.074v11.138
					c0,1.464-0.121,2.559-0.362,3.283s-0.581,1.294-1.017,1.706c-0.437,0.413-1.02,0.736-1.747,0.971
					c-0.729,0.233-1.649,0.351-2.765,0.351c-2.104,0-3.596-0.36-4.475-1.081c-0.881-0.721-1.321-1.635-1.321-2.74
					C434.507,87.148,434.511,87.015,434.519,86.86z M437.451,79.579c0,1.317,0.256,2.281,0.766,2.893
					c0.511,0.612,1.141,0.918,1.888,0.918c0.803,0,1.48-0.314,2.034-0.941c0.553-0.627,0.829-1.556,0.829-2.787
					c0-1.285-0.265-2.239-0.794-2.863c-0.531-0.623-1.201-0.935-2.011-0.935c-0.787,0-1.436,0.306-1.946,0.917
					C437.707,77.392,437.451,78.325,437.451,79.579z"/>
				<path class="st5" d="M456.629,82.091l3.272,0.55c-0.421,1.199-1.085,2.113-1.993,2.74c-0.907,0.627-2.043,0.94-3.406,0.94
					c-2.158,0-3.755-0.705-4.791-2.115c-0.818-1.129-1.227-2.555-1.227-4.277c0-2.057,0.537-3.667,1.612-4.832
					s2.435-1.747,4.078-1.747c1.847,0,3.304,0.609,4.371,1.829c1.067,1.219,1.577,3.087,1.53,5.604h-8.227
					c0.023,0.974,0.288,1.731,0.795,2.272c0.506,0.542,1.137,0.813,1.893,0.813c0.514,0,0.947-0.14,1.297-0.421
					C456.186,83.167,456.449,82.715,456.629,82.091z M456.816,78.773c-0.023-0.951-0.27-1.674-0.736-2.168
					c-0.468-0.495-1.037-0.742-1.707-0.742c-0.717,0-1.309,0.261-1.775,0.783c-0.468,0.521-0.697,1.23-0.689,2.127H456.816z"/>
				<path class="st5" d="M479.826,73.105l-3.178,0.351c-0.078-0.654-0.281-1.138-0.607-1.449c-0.328-0.312-0.752-0.468-1.274-0.468
					c-0.693,0-1.28,0.312-1.759,0.935c-0.479,0.624-0.781,1.921-0.906,3.892c0.818-0.966,1.836-1.448,3.051-1.448
					c1.371,0,2.545,0.521,3.523,1.565c0.978,1.044,1.467,2.392,1.467,4.044c0,1.753-0.515,3.159-1.543,4.219
					s-2.35,1.589-3.961,1.589c-1.73,0-3.152-0.672-4.266-2.016c-1.115-1.344-1.672-3.547-1.672-6.608c0-3.14,0.58-5.403,1.741-6.79
					s2.669-2.08,4.522-2.08c1.301,0,2.379,0.364,3.231,1.093C479.05,70.661,479.594,71.718,479.826,73.105z M472.383,80.268
					c0,1.067,0.245,1.892,0.736,2.472c0.49,0.581,1.051,0.871,1.683,0.871c0.607,0,1.114-0.237,1.519-0.713
					c0.406-0.476,0.608-1.254,0.608-2.337c0-1.114-0.218-1.931-0.655-2.449c-0.436-0.518-0.98-0.776-1.635-0.776
					c-0.632,0-1.166,0.247-1.602,0.742C472.601,78.572,472.383,79.302,472.383,80.268z"/>
				<path class="st5" d="M493.103,82.992v3.05h-11.511c0.125-1.153,0.498-2.246,1.121-3.278c0.624-1.032,1.855-2.401,3.693-4.107
					c1.48-1.379,2.389-2.314,2.723-2.805c0.452-0.678,0.678-1.348,0.678-2.01c0-0.732-0.196-1.296-0.59-1.689
					c-0.393-0.393-0.937-0.59-1.63-0.59c-0.687,0-1.231,0.206-1.636,0.619c-0.406,0.413-0.64,1.099-0.701,2.057l-3.273-0.327
					c0.195-1.807,0.807-3.104,1.836-3.892c1.027-0.786,2.313-1.18,3.855-1.18c1.691,0,3.02,0.455,3.986,1.367
					c0.965,0.911,1.448,2.045,1.448,3.4c0,0.771-0.138,1.506-0.415,2.203c-0.276,0.697-0.715,1.428-1.314,2.191
					c-0.397,0.506-1.114,1.234-2.15,2.186c-1.036,0.95-1.692,1.581-1.969,1.893c-0.277,0.312-0.501,0.616-0.672,0.912H493.103z"/>
			</g>
			<g class="st3">
				<path class="st5" d="M367.442,118.952v-3.333h-6.039v-1.566l6.352-9.021h1.396v9.021h1.88v1.566h-1.88v3.333H367.442z
					 M367.442,114.052v-6.276l-4.358,6.276H367.442z"/>
				<path class="st5" d="M372.778,115.305l1.794-0.151c0.133,0.873,0.442,1.53,0.926,1.97c0.484,0.44,1.068,0.66,1.752,0.66
					c0.823,0,1.519-0.31,2.089-0.931c0.57-0.62,0.854-1.443,0.854-2.469c0-0.975-0.273-1.744-0.821-2.308
					c-0.547-0.563-1.264-0.845-2.15-0.845c-0.551,0-1.048,0.125-1.491,0.375c-0.443,0.25-0.792,0.574-1.044,0.974l-1.605-0.209
					l1.349-7.15h6.922v1.634h-5.555l-0.75,3.741c0.835-0.583,1.712-0.874,2.63-0.874c1.215,0,2.241,0.421,3.077,1.263
					c0.835,0.842,1.253,1.925,1.253,3.248c0,1.26-0.367,2.349-1.102,3.266c-0.893,1.127-2.111,1.69-3.656,1.69
					c-1.266,0-2.299-0.354-3.1-1.063S372.892,116.477,372.778,115.305z"/>
				<path class="st5" d="M383.916,108.374c0-0.993,0.25-1.838,0.75-2.535c0.5-0.696,1.225-1.044,2.175-1.044
					c0.874,0,1.597,0.312,2.169,0.936c0.573,0.623,0.859,1.539,0.859,2.748c0,1.178-0.29,2.085-0.869,2.721
					c-0.58,0.637-1.293,0.954-2.142,0.954c-0.842,0-1.543-0.313-2.103-0.939C384.196,110.586,383.916,109.64,383.916,108.374z
					 M386.888,105.972c-0.424,0-0.777,0.184-1.059,0.55c-0.282,0.367-0.423,1.042-0.423,2.022c0,0.893,0.143,1.521,0.427,1.886
					c0.285,0.363,0.636,0.546,1.054,0.546c0.43,0,0.786-0.184,1.068-0.551s0.423-1.038,0.423-2.014c0-0.898-0.143-1.53-0.427-1.894
					C387.667,106.154,387.312,105.972,386.888,105.972z M386.897,119.464l7.615-14.67h1.386l-7.586,14.67H386.897z M392.917,115.685
					c0-1,0.25-1.847,0.75-2.54c0.5-0.692,1.228-1.039,2.184-1.039c0.874,0,1.597,0.312,2.169,0.935
					c0.573,0.624,0.859,1.54,0.859,2.749c0,1.178-0.29,2.084-0.869,2.721c-0.579,0.636-1.296,0.954-2.151,0.954
					c-0.842,0-1.543-0.314-2.103-0.944S392.917,116.945,392.917,115.685z M395.899,113.283c-0.431,0-0.787,0.184-1.068,0.551
					c-0.282,0.367-0.423,1.042-0.423,2.022c0,0.887,0.143,1.514,0.427,1.88c0.285,0.367,0.636,0.551,1.054,0.551
					c0.437,0,0.796-0.184,1.078-0.551c0.282-0.366,0.422-1.038,0.422-2.013c0-0.898-0.142-1.53-0.427-1.895
					C396.678,113.465,396.323,113.283,395.899,113.283z"/>
				<path class="st5" d="M407.17,118.952v-8.755h-1.51v-1.329h1.51v-1.073c0-0.677,0.06-1.18,0.181-1.51
					c0.165-0.442,0.454-0.802,0.869-1.077s0.996-0.413,1.743-0.413c0.481,0,1.013,0.057,1.595,0.171l-0.256,1.49
					c-0.355-0.063-0.69-0.095-1.007-0.095c-0.519,0-0.886,0.111-1.102,0.332c-0.215,0.222-0.323,0.637-0.323,1.244v0.931h1.966
					v1.329h-1.966v8.755H407.17z"/>
				<path class="st5" d="M419.068,115.705l1.766,0.218c-0.279,1.032-0.795,1.833-1.548,2.402c-0.753,0.57-1.716,0.854-2.887,0.854
					c-1.476,0-2.645-0.454-3.508-1.362c-0.864-0.908-1.296-2.183-1.296-3.821c0-1.697,0.437-3.014,1.311-3.95
					c0.874-0.938,2.007-1.405,3.399-1.405c1.348,0,2.449,0.459,3.305,1.377c0.854,0.918,1.281,2.209,1.281,3.874
					c0,0.101-0.003,0.253-0.01,0.455h-7.52c0.063,1.108,0.377,1.956,0.94,2.545c0.563,0.589,1.266,0.883,2.108,0.883
					c0.626,0,1.161-0.164,1.604-0.493S418.809,116.426,419.068,115.705z M413.456,112.941h5.631
					c-0.076-0.848-0.292-1.484-0.646-1.908c-0.545-0.658-1.25-0.987-2.117-0.987c-0.785,0-1.445,0.263-1.98,0.788
					S413.513,112.061,413.456,112.941z"/>
				<path class="st5" d="M422.979,118.952v-10.084h1.528v1.415c0.316-0.494,0.738-0.891,1.264-1.191s1.123-0.451,1.795-0.451
					c0.746,0,1.359,0.155,1.837,0.465c0.478,0.311,0.815,0.744,1.011,1.301c0.798-1.177,1.836-1.766,3.115-1.766
					c1,0,1.769,0.276,2.307,0.83c0.538,0.555,0.807,1.407,0.807,2.56v6.922h-1.699v-6.353c0-0.684-0.055-1.176-0.166-1.477
					c-0.111-0.3-0.313-0.542-0.604-0.727c-0.291-0.183-0.633-0.274-1.025-0.274c-0.709,0-1.297,0.235-1.766,0.707
					s-0.703,1.227-0.703,2.265v5.858h-1.709V112.4c0-0.76-0.139-1.329-0.418-1.709c-0.277-0.38-0.734-0.569-1.367-0.569
					c-0.48,0-0.926,0.126-1.334,0.379c-0.408,0.254-0.704,0.624-0.888,1.111s-0.274,1.19-0.274,2.108v5.231H422.979z"/>
				<path class="st5" d="M445.758,117.708c-0.633,0.538-1.242,0.918-1.827,1.14s-1.214,0.332-1.885,0.332
					c-1.108,0-1.96-0.271-2.554-0.812c-0.596-0.541-0.893-1.232-0.893-2.074c0-0.494,0.111-0.945,0.336-1.354
					s0.52-0.736,0.884-0.982c0.364-0.247,0.774-0.434,1.229-0.561c0.336-0.089,0.842-0.174,1.52-0.257
					c1.38-0.164,2.396-0.36,3.048-0.588c0.007-0.234,0.009-0.383,0.009-0.446c0-0.696-0.16-1.188-0.484-1.472
					c-0.436-0.387-1.085-0.58-1.945-0.58c-0.805,0-1.398,0.142-1.781,0.423c-0.383,0.282-0.666,0.78-0.85,1.496l-1.671-0.229
					c0.151-0.715,0.401-1.293,0.75-1.732c0.349-0.44,0.852-0.779,1.51-1.017s1.421-0.355,2.288-0.355
					c0.861,0,1.561,0.101,2.099,0.304c0.538,0.202,0.934,0.457,1.187,0.765c0.254,0.307,0.431,0.694,0.532,1.163
					c0.058,0.291,0.085,0.816,0.085,1.576v2.278c0,1.589,0.037,2.594,0.109,3.015s0.217,0.825,0.432,1.211h-1.784
					C445.923,118.597,445.809,118.182,445.758,117.708z M445.616,113.891c-0.62,0.253-1.552,0.468-2.792,0.646
					c-0.702,0.102-1.199,0.215-1.49,0.342s-0.516,0.312-0.674,0.556c-0.158,0.243-0.238,0.514-0.238,0.812
					c0,0.456,0.173,0.836,0.518,1.14c0.346,0.304,0.85,0.455,1.515,0.455c0.658,0,1.244-0.144,1.757-0.432s0.889-0.682,1.13-1.183
					c0.184-0.386,0.275-0.955,0.275-1.709V113.891z"/>
				<path class="st5" d="M449.955,118.952v-13.92h1.709v13.92H449.955z"/>
				<path class="st5" d="M461.217,115.705l1.766,0.218c-0.278,1.032-0.794,1.833-1.547,2.402c-0.754,0.57-1.716,0.854-2.887,0.854
					c-1.476,0-2.645-0.454-3.509-1.362s-1.296-2.183-1.296-3.821c0-1.697,0.437-3.014,1.311-3.95
					c0.873-0.938,2.006-1.405,3.398-1.405c1.349,0,2.45,0.459,3.305,1.377s1.281,2.209,1.281,3.874c0,0.101-0.002,0.253-0.009,0.455
					h-7.521c0.063,1.108,0.377,1.956,0.94,2.545s1.266,0.883,2.108,0.883c0.626,0,1.161-0.164,1.604-0.493
					C460.605,116.952,460.957,116.426,461.217,115.705z M455.605,112.941h5.631c-0.076-0.848-0.292-1.484-0.646-1.908
					c-0.545-0.658-1.25-0.987-2.117-0.987c-0.785,0-1.445,0.263-1.98,0.788S455.662,112.061,455.605,112.941z"/>
			</g>
			<g class="st3">
				<path class="st5" d="M305.614,139.747v1.643h-9.201c-0.013-0.411,0.054-0.807,0.199-1.187c0.234-0.627,0.609-1.244,1.125-1.852
					c0.516-0.608,1.261-1.311,2.236-2.108c1.513-1.24,2.535-2.224,3.067-2.948s0.798-1.41,0.798-2.056
					c0-0.678-0.242-1.249-0.727-1.714s-1.116-0.698-1.895-0.698c-0.823,0-1.481,0.247-1.975,0.741
					c-0.494,0.493-0.744,1.177-0.75,2.051l-1.756-0.181c0.12-1.311,0.573-2.309,1.358-2.995c0.785-0.688,1.839-1.03,3.162-1.03
					c1.335,0,2.393,0.37,3.171,1.11c0.779,0.741,1.168,1.659,1.168,2.754c0,0.557-0.114,1.104-0.342,1.643s-0.606,1.104-1.135,1.699
					c-0.528,0.596-1.407,1.412-2.635,2.45c-1.025,0.861-1.684,1.445-1.975,1.752s-0.532,0.615-0.722,0.926H305.614z"/>
				<path class="st5" d="M310.077,133.841c-0.709-0.26-1.234-0.63-1.577-1.11c-0.342-0.481-0.513-1.058-0.513-1.729
					c0-1.013,0.364-1.864,1.092-2.555c0.728-0.689,1.696-1.034,2.905-1.034c1.215,0,2.193,0.353,2.934,1.059
					s1.111,1.565,1.111,2.578c0,0.646-0.169,1.207-0.508,1.685c-0.339,0.479-0.853,0.847-1.543,1.106
					c0.854,0.278,1.505,0.729,1.951,1.349s0.669,1.361,0.669,2.222c0,1.19-0.421,2.19-1.263,3.001
					c-0.842,0.81-1.95,1.215-3.323,1.215c-1.374,0-2.482-0.406-3.324-1.22s-1.263-1.828-1.263-3.044
					c0-0.904,0.229-1.663,0.688-2.273C308.575,134.479,309.228,134.063,310.077,133.841z M309.184,137.373
					c0,0.487,0.115,0.959,0.346,1.415s0.575,0.809,1.03,1.059c0.456,0.25,0.946,0.375,1.472,0.375c0.817,0,1.491-0.263,2.022-0.788
					s0.798-1.193,0.798-2.004c0-0.822-0.274-1.503-0.821-2.041c-0.548-0.538-1.233-0.807-2.056-0.807
					c-0.804,0-1.47,0.266-1.999,0.797C309.448,135.911,309.184,136.575,309.184,137.373z M309.734,130.945
					c0,0.658,0.212,1.196,0.636,1.614c0.424,0.417,0.975,0.626,1.652,0.626c0.658,0,1.198-0.207,1.619-0.622
					c0.421-0.414,0.631-0.922,0.631-1.523c0-0.627-0.217-1.154-0.65-1.581c-0.434-0.428-0.974-0.641-1.619-0.641
					c-0.652,0-1.193,0.209-1.624,0.626C309.95,129.862,309.734,130.362,309.734,130.945z"/>
				<path class="st5" d="M318.584,130.812c0-0.993,0.25-1.838,0.75-2.535c0.5-0.696,1.225-1.044,2.175-1.044
					c0.874,0,1.597,0.312,2.169,0.936c0.573,0.623,0.859,1.539,0.859,2.748c0,1.178-0.29,2.085-0.869,2.721
					c-0.58,0.637-1.293,0.954-2.142,0.954c-0.842,0-1.543-0.313-2.103-0.939C318.864,133.024,318.584,132.078,318.584,130.812z
					 M321.556,128.41c-0.424,0-0.777,0.184-1.059,0.55c-0.282,0.367-0.423,1.042-0.423,2.022c0,0.893,0.143,1.521,0.427,1.886
					c0.285,0.363,0.636,0.546,1.054,0.546c0.43,0,0.786-0.184,1.068-0.551s0.423-1.038,0.423-2.014c0-0.898-0.143-1.53-0.427-1.894
					C322.334,128.592,321.98,128.41,321.556,128.41z M321.565,141.902l7.615-14.67h1.386l-7.586,14.67H321.565z M327.585,138.123
					c0-1,0.25-1.847,0.75-2.54c0.5-0.692,1.228-1.039,2.184-1.039c0.874,0,1.597,0.312,2.169,0.935
					c0.573,0.624,0.859,1.54,0.859,2.749c0,1.178-0.29,2.084-0.869,2.721c-0.579,0.636-1.296,0.954-2.151,0.954
					c-0.842,0-1.543-0.314-2.103-0.944S327.585,139.383,327.585,138.123z M330.567,135.721c-0.431,0-0.787,0.184-1.068,0.551
					c-0.282,0.367-0.423,1.042-0.423,2.022c0,0.887,0.143,1.514,0.427,1.88c0.285,0.367,0.636,0.551,1.054,0.551
					c0.437,0,0.796-0.184,1.078-0.551c0.282-0.366,0.422-1.038,0.422-2.013c0-0.898-0.142-1.53-0.427-1.895
					C331.346,135.903,330.991,135.721,330.567,135.721z"/>
				<path class="st5" d="M341.43,141.39v-13.92h1.709v4.994c0.797-0.924,1.804-1.386,3.019-1.386c0.747,0,1.396,0.146,1.947,0.441
					c0.551,0.294,0.945,0.701,1.182,1.22c0.237,0.52,0.356,1.272,0.356,2.26v6.391h-1.709v-6.391c0-0.854-0.185-1.477-0.556-1.865
					c-0.37-0.39-0.894-0.584-1.571-0.584c-0.506,0-0.983,0.131-1.429,0.394s-0.764,0.619-0.954,1.068s-0.285,1.07-0.285,1.861v5.517
					H341.43z"/>
				<path class="st5" d="M358.825,140.146c-0.633,0.538-1.242,0.918-1.828,1.14s-1.214,0.332-1.885,0.332
					c-1.108,0-1.959-0.271-2.554-0.812c-0.595-0.541-0.893-1.232-0.893-2.074c0-0.494,0.112-0.945,0.337-1.354
					s0.519-0.736,0.883-0.982c0.364-0.247,0.774-0.434,1.229-0.561c0.335-0.089,0.842-0.174,1.52-0.257
					c1.38-0.164,2.396-0.36,3.048-0.588c0.006-0.234,0.009-0.383,0.009-0.446c0-0.696-0.161-1.188-0.484-1.472
					c-0.437-0.387-1.085-0.58-1.946-0.58c-0.804,0-1.397,0.142-1.78,0.423c-0.383,0.282-0.667,0.78-0.85,1.496l-1.671-0.229
					c0.152-0.715,0.402-1.293,0.75-1.732c0.348-0.44,0.852-0.779,1.51-1.017s1.421-0.355,2.289-0.355
					c0.861,0,1.56,0.101,2.098,0.304c0.538,0.202,0.934,0.457,1.187,0.765c0.253,0.307,0.43,0.694,0.532,1.163
					c0.057,0.291,0.085,0.816,0.085,1.576v2.278c0,1.589,0.036,2.594,0.109,3.015c0.072,0.421,0.217,0.825,0.432,1.211h-1.785
					C358.989,141.035,358.875,140.62,358.825,140.146z M358.683,136.329c-0.621,0.253-1.551,0.468-2.792,0.646
					c-0.703,0.102-1.2,0.215-1.491,0.342c-0.292,0.127-0.516,0.312-0.674,0.556c-0.158,0.243-0.237,0.514-0.237,0.812
					c0,0.456,0.172,0.836,0.518,1.14c0.345,0.304,0.85,0.455,1.514,0.455c0.658,0,1.244-0.144,1.757-0.432s0.889-0.682,1.13-1.183
					c0.184-0.386,0.275-0.955,0.275-1.709V136.329z"/>
				<path class="st5" d="M369.602,141.39v-1.272c-0.64,1-1.58,1.5-2.82,1.5c-0.804,0-1.543-0.222-2.217-0.664
					c-0.674-0.443-1.196-1.063-1.566-1.856c-0.371-0.795-0.556-1.708-0.556-2.739c0-1.007,0.168-1.92,0.503-2.739
					c0.335-0.82,0.839-1.448,1.51-1.885c0.671-0.438,1.421-0.655,2.25-0.655c0.607,0,1.149,0.128,1.624,0.384
					c0.475,0.257,0.861,0.591,1.158,1.002v-4.994h1.7v13.92H369.602z M364.199,136.357c0,1.291,0.272,2.257,0.816,2.896
					c0.544,0.64,1.187,0.959,1.928,0.959c0.747,0,1.381-0.305,1.904-0.916c0.522-0.61,0.783-1.543,0.783-2.796
					c0-1.38-0.266-2.394-0.797-3.039s-1.187-0.969-1.966-0.969c-0.76,0-1.394,0.311-1.904,0.931
					C364.454,134.044,364.199,135.021,364.199,136.357z"/>
				<path class="st5" d="M387.947,134.154l-9.22,3.94v-1.699l7.302-3.029l-7.302-2.991v-1.709l9.22,3.894V134.154z M387.928,140.383
					h-9.191v-1.585h9.191V140.383z"/>
				<path class="st5" d="M394.878,137.743l1.794-0.151c0.133,0.873,0.442,1.53,0.926,1.97c0.484,0.44,1.068,0.66,1.752,0.66
					c0.823,0,1.519-0.31,2.089-0.931c0.57-0.62,0.854-1.443,0.854-2.469c0-0.975-0.273-1.744-0.821-2.308
					c-0.547-0.563-1.264-0.845-2.15-0.845c-0.551,0-1.048,0.125-1.491,0.375c-0.443,0.25-0.792,0.574-1.044,0.974l-1.605-0.209
					l1.349-7.15h6.922v1.634h-5.555l-0.75,3.741c0.835-0.583,1.712-0.874,2.63-0.874c1.215,0,2.241,0.421,3.077,1.263
					c0.835,0.842,1.253,1.925,1.253,3.248c0,1.26-0.367,2.349-1.102,3.266c-0.893,1.127-2.111,1.69-3.656,1.69
					c-1.266,0-2.299-0.354-3.1-1.063S394.992,138.915,394.878,137.743z"/>
				<path class="st5" d="M406.016,130.812c0-0.993,0.25-1.838,0.75-2.535c0.5-0.696,1.225-1.044,2.175-1.044
					c0.874,0,1.597,0.312,2.169,0.936c0.573,0.623,0.859,1.539,0.859,2.748c0,1.178-0.29,2.085-0.869,2.721
					c-0.58,0.637-1.293,0.954-2.142,0.954c-0.842,0-1.543-0.313-2.103-0.939C406.296,133.024,406.016,132.078,406.016,130.812z
					 M408.988,128.41c-0.424,0-0.777,0.184-1.059,0.55c-0.282,0.367-0.423,1.042-0.423,2.022c0,0.893,0.143,1.521,0.427,1.886
					c0.285,0.363,0.636,0.546,1.054,0.546c0.43,0,0.786-0.184,1.068-0.551s0.423-1.038,0.423-2.014c0-0.898-0.143-1.53-0.427-1.894
					C409.767,128.592,409.412,128.41,408.988,128.41z M408.998,141.902l7.616-14.67h1.386l-7.586,14.67H408.998z M415.018,138.123
					c0-1,0.25-1.847,0.75-2.54c0.5-0.692,1.229-1.039,2.185-1.039c0.873,0,1.597,0.312,2.169,0.935
					c0.573,0.624,0.859,1.54,0.859,2.749c0,1.178-0.289,2.084-0.868,2.721c-0.579,0.636-1.296,0.954-2.151,0.954
					c-0.842,0-1.543-0.314-2.103-0.944C415.298,140.328,415.018,139.383,415.018,138.123z M417.999,135.721
					c-0.431,0-0.786,0.184-1.067,0.551c-0.282,0.367-0.423,1.042-0.423,2.022c0,0.887,0.143,1.514,0.427,1.88
					c0.285,0.367,0.637,0.551,1.055,0.551c0.437,0,0.796-0.184,1.077-0.551c0.282-0.366,0.423-1.038,0.423-2.013
					c0-0.898-0.143-1.53-0.428-1.895C418.778,135.903,418.424,135.721,417.999,135.721z"/>
				<path class="st5" d="M430.723,141.39l-3.086-10.084h1.767l1.604,5.82l0.598,2.165c0.025-0.107,0.2-0.801,0.522-2.079
					l1.604-5.906h1.757l1.51,5.849l0.503,1.928l0.579-1.946l1.729-5.83h1.662l-3.152,10.084h-1.776l-1.604-6.039l-0.389-1.719
					l-2.042,7.758H430.723z"/>
				<path class="st5" d="M449.809,138.143l1.766,0.218c-0.278,1.032-0.794,1.833-1.548,2.402c-0.753,0.57-1.715,0.854-2.887,0.854
					c-1.475,0-2.645-0.454-3.508-1.362c-0.864-0.908-1.297-2.183-1.297-3.821c0-1.697,0.438-3.014,1.311-3.95
					c0.874-0.938,2.007-1.405,3.399-1.405c1.349,0,2.45,0.459,3.305,1.377s1.281,2.209,1.281,3.874c0,0.101-0.003,0.253-0.009,0.455
					h-7.521c0.063,1.108,0.377,1.956,0.94,2.545c0.563,0.589,1.266,0.883,2.107,0.883c0.627,0,1.162-0.164,1.604-0.493
					C449.197,139.39,449.549,138.864,449.809,138.143z M444.196,135.379h5.631c-0.076-0.848-0.291-1.484-0.646-1.908
					c-0.545-0.658-1.25-0.987-2.117-0.987c-0.785,0-1.445,0.263-1.98,0.788S444.254,134.499,444.196,135.379z"/>
				<path class="st5" d="M453.729,129.436v-1.966h1.709v1.966H453.729z M453.729,141.39v-10.084h1.709v10.084H453.729z"/>
				<path class="st5" d="M457.728,142.226l1.661,0.246c0.069,0.513,0.263,0.887,0.579,1.121c0.424,0.316,1.003,0.475,1.737,0.475
					c0.792,0,1.402-0.158,1.833-0.475s0.722-0.76,0.874-1.329c0.088-0.349,0.129-1.08,0.123-2.194
					c-0.747,0.881-1.678,1.32-2.792,1.32c-1.386,0-2.459-0.5-3.219-1.5s-1.14-2.2-1.14-3.599c0-0.963,0.175-1.851,0.522-2.664
					c0.349-0.813,0.854-1.441,1.515-1.885c0.661-0.442,1.438-0.664,2.331-0.664c1.19,0,2.171,0.48,2.943,1.443v-1.216h1.576v8.717
					c0,1.569-0.159,2.683-0.479,3.338c-0.319,0.654-0.826,1.172-1.519,1.552c-0.693,0.38-1.547,0.57-2.56,0.57
					c-1.202,0-2.174-0.271-2.915-0.813C458.06,144.129,457.702,143.313,457.728,142.226z M459.142,136.167
					c0,1.323,0.263,2.289,0.788,2.896s1.184,0.911,1.976,0.911c0.784,0,1.443-0.302,1.975-0.906
					c0.532-0.604,0.798-1.553,0.798-2.844c0-1.234-0.274-2.165-0.821-2.792c-0.548-0.627-1.208-0.94-1.979-0.94
					c-0.76,0-1.406,0.309-1.938,0.926C459.407,134.035,459.142,134.952,459.142,136.167z"/>
				<path class="st5" d="M468.855,141.39v-13.92h1.71v4.994c0.797-0.924,1.804-1.386,3.019-1.386c0.747,0,1.396,0.146,1.947,0.441
					c0.551,0.294,0.944,0.701,1.182,1.22c0.237,0.52,0.356,1.272,0.356,2.26v6.391h-1.709v-6.391c0-0.854-0.186-1.477-0.556-1.865
					c-0.37-0.39-0.895-0.584-1.571-0.584c-0.507,0-0.983,0.131-1.43,0.394s-0.764,0.619-0.954,1.068
					c-0.189,0.449-0.284,1.07-0.284,1.861v5.517H468.855z"/>
				<path class="st5" d="M483.402,139.861l0.247,1.51c-0.481,0.101-0.912,0.151-1.291,0.151c-0.621,0-1.102-0.098-1.443-0.294
					s-0.583-0.454-0.722-0.774c-0.14-0.319-0.209-0.992-0.209-2.018v-5.802h-1.254v-1.329h1.254v-2.497l1.699-1.025v3.522h1.719
					v1.329h-1.719v5.896c0,0.488,0.03,0.801,0.091,0.94c0.06,0.14,0.157,0.25,0.294,0.332c0.136,0.083,0.331,0.124,0.584,0.124
					C482.842,139.928,483.092,139.905,483.402,139.861z"/>
				<path class="st5" d="M490.438,141.39v-13.92h1.709v13.92H490.438z"/>
				<path class="st5" d="M494.16,136.348c0-1.867,0.52-3.25,1.558-4.149c0.867-0.747,1.924-1.12,3.172-1.12
					c1.386,0,2.519,0.454,3.398,1.362s1.32,2.163,1.32,3.765c0,1.298-0.194,2.318-0.584,3.063s-0.956,1.321-1.7,1.732
					c-0.743,0.412-1.556,0.617-2.435,0.617c-1.412,0-2.553-0.452-3.424-1.357C494.596,139.354,494.16,138.051,494.16,136.348z
					 M495.917,136.348c0,1.291,0.282,2.259,0.846,2.9c0.563,0.643,1.271,0.964,2.127,0.964c0.848,0,1.554-0.322,2.117-0.968
					c0.563-0.646,0.845-1.63,0.845-2.953c0-1.247-0.283-2.192-0.85-2.835c-0.566-0.642-1.271-0.964-2.112-0.964
					c-0.855,0-1.564,0.32-2.127,0.959C496.199,134.091,495.917,135.057,495.917,136.348z"/>
				<path class="st5" d="M504.928,138.38l1.69-0.266c0.095,0.677,0.359,1.196,0.793,1.557c0.434,0.361,1.04,0.541,1.818,0.541
					c0.785,0,1.367-0.159,1.747-0.479c0.38-0.319,0.569-0.694,0.569-1.125c0-0.386-0.168-0.689-0.503-0.911
					c-0.234-0.152-0.816-0.346-1.747-0.579c-1.254-0.316-2.122-0.591-2.606-0.821c-0.484-0.231-0.852-0.551-1.102-0.959
					c-0.25-0.409-0.375-0.859-0.375-1.354c0-0.449,0.103-0.865,0.309-1.249c0.206-0.383,0.485-0.7,0.84-0.954
					c0.267-0.196,0.629-0.362,1.088-0.498c0.459-0.137,0.951-0.204,1.477-0.204c0.791,0,1.485,0.113,2.084,0.342
					c0.599,0.228,1.04,0.536,1.324,0.926c0.285,0.389,0.481,0.91,0.589,1.562l-1.671,0.229c-0.076-0.52-0.296-0.925-0.66-1.216
					s-0.878-0.437-1.543-0.437c-0.785,0-1.345,0.13-1.681,0.389c-0.336,0.26-0.503,0.563-0.503,0.912
					c0,0.222,0.069,0.421,0.209,0.598c0.139,0.184,0.357,0.336,0.655,0.456c0.171,0.063,0.674,0.209,1.51,0.437
					c1.209,0.323,2.052,0.588,2.53,0.793c0.478,0.206,0.853,0.505,1.125,0.897s0.408,0.88,0.408,1.462
					c0,0.57-0.166,1.106-0.498,1.609c-0.333,0.504-0.813,0.893-1.438,1.168c-0.627,0.275-1.336,0.413-2.127,0.413
					c-1.311,0-2.31-0.271-2.996-0.816C505.557,140.257,505.118,139.449,504.928,138.38z"/>
				<path class="st5" d="M514.651,138.38l1.69-0.266c0.095,0.677,0.358,1.196,0.792,1.557c0.434,0.361,1.04,0.541,1.818,0.541
					c0.785,0,1.367-0.159,1.747-0.479c0.38-0.319,0.57-0.694,0.57-1.125c0-0.386-0.168-0.689-0.504-0.911
					c-0.233-0.152-0.816-0.346-1.747-0.579c-1.253-0.316-2.122-0.591-2.606-0.821c-0.483-0.231-0.851-0.551-1.101-0.959
					c-0.251-0.409-0.376-0.859-0.376-1.354c0-0.449,0.104-0.865,0.309-1.249c0.206-0.383,0.486-0.7,0.841-0.954
					c0.266-0.196,0.628-0.362,1.087-0.498c0.459-0.137,0.951-0.204,1.477-0.204c0.791,0,1.486,0.113,2.084,0.342
					c0.599,0.228,1.04,0.536,1.325,0.926c0.285,0.389,0.48,0.91,0.589,1.562l-1.672,0.229c-0.075-0.52-0.296-0.925-0.659-1.216
					c-0.364-0.291-0.879-0.437-1.543-0.437c-0.785,0-1.346,0.13-1.681,0.389c-0.336,0.26-0.504,0.563-0.504,0.912
					c0,0.222,0.07,0.421,0.209,0.598c0.14,0.184,0.357,0.336,0.655,0.456c0.171,0.063,0.674,0.209,1.51,0.437
					c1.209,0.323,2.053,0.588,2.53,0.793c0.479,0.206,0.854,0.505,1.125,0.897c0.272,0.393,0.409,0.88,0.409,1.462
					c0,0.57-0.167,1.106-0.499,1.609c-0.332,0.504-0.812,0.893-1.438,1.168s-1.336,0.413-2.127,0.413
					c-1.311,0-2.309-0.271-2.996-0.816C515.279,140.257,514.841,139.449,514.651,138.38z"/>
			</g>
			<g class="st3">
				<path class="st5" d="M361.996,162.583c-0.633,0.538-1.242,0.918-1.828,1.14s-1.214,0.332-1.885,0.332
					c-1.108,0-1.959-0.271-2.554-0.812c-0.595-0.541-0.893-1.232-0.893-2.074c0-0.494,0.112-0.945,0.337-1.354
					s0.519-0.736,0.883-0.982c0.364-0.247,0.774-0.434,1.229-0.561c0.335-0.089,0.842-0.174,1.52-0.257
					c1.38-0.164,2.396-0.36,3.048-0.588c0.006-0.234,0.009-0.383,0.009-0.446c0-0.696-0.161-1.188-0.484-1.472
					c-0.437-0.387-1.085-0.58-1.946-0.58c-0.804,0-1.397,0.142-1.78,0.423c-0.383,0.282-0.667,0.78-0.85,1.496l-1.671-0.229
					c0.152-0.715,0.402-1.293,0.75-1.732c0.348-0.44,0.852-0.779,1.51-1.017s1.421-0.355,2.289-0.355
					c0.861,0,1.56,0.101,2.098,0.304c0.538,0.202,0.934,0.457,1.187,0.765c0.253,0.307,0.43,0.694,0.532,1.163
					c0.057,0.291,0.085,0.816,0.085,1.576v2.278c0,1.589,0.036,2.594,0.109,3.015c0.072,0.421,0.217,0.825,0.432,1.211h-1.785
					C362.161,163.473,362.047,163.058,361.996,162.583z M361.854,158.767c-0.621,0.253-1.551,0.468-2.792,0.646
					c-0.703,0.102-1.2,0.215-1.491,0.342c-0.292,0.127-0.516,0.312-0.674,0.556c-0.158,0.243-0.237,0.514-0.237,0.812
					c0,0.456,0.172,0.836,0.518,1.14c0.345,0.304,0.85,0.455,1.514,0.455c0.658,0,1.244-0.144,1.757-0.432s0.889-0.682,1.13-1.183
					c0.184-0.386,0.275-0.955,0.275-1.709V158.767z"/>
				<path class="st5" d="M369.963,162.299l0.247,1.51c-0.481,0.101-0.912,0.151-1.291,0.151c-0.621,0-1.102-0.098-1.443-0.294
					s-0.583-0.454-0.722-0.774c-0.14-0.319-0.209-0.992-0.209-2.018v-5.802h-1.253v-1.329h1.253v-2.497l1.7-1.025v3.522h1.719v1.329
					h-1.719v5.896c0,0.488,0.03,0.801,0.09,0.94c0.06,0.14,0.158,0.25,0.294,0.332c0.136,0.083,0.331,0.124,0.584,0.124
					C369.402,162.366,369.652,162.343,369.963,162.299z"/>
				<path class="st5" d="M376.353,160.818l1.69-0.266c0.095,0.677,0.359,1.196,0.792,1.557c0.434,0.361,1.04,0.541,1.818,0.541
					c0.785,0,1.367-0.159,1.747-0.479c0.38-0.319,0.57-0.694,0.57-1.125c0-0.386-0.168-0.689-0.503-0.911
					c-0.234-0.152-0.816-0.346-1.747-0.579c-1.253-0.316-2.122-0.591-2.606-0.821c-0.484-0.231-0.851-0.551-1.101-0.959
					c-0.25-0.409-0.375-0.859-0.375-1.354c0-0.449,0.103-0.865,0.309-1.249c0.206-0.383,0.486-0.7,0.84-0.954
					c0.266-0.196,0.628-0.362,1.087-0.498c0.459-0.137,0.951-0.204,1.477-0.204c0.791,0,1.486,0.113,2.084,0.342
					c0.599,0.228,1.04,0.536,1.325,0.926c0.285,0.389,0.481,0.91,0.589,1.562l-1.671,0.229c-0.076-0.52-0.296-0.925-0.66-1.216
					c-0.364-0.291-0.878-0.437-1.543-0.437c-0.785,0-1.345,0.13-1.681,0.389c-0.336,0.26-0.503,0.563-0.503,0.912
					c0,0.222,0.07,0.421,0.209,0.598c0.139,0.184,0.357,0.336,0.655,0.456c0.171,0.063,0.674,0.209,1.51,0.437
					c1.209,0.323,2.052,0.588,2.53,0.793c0.478,0.206,0.853,0.505,1.125,0.897c0.272,0.393,0.409,0.88,0.409,1.462
					c0,0.57-0.167,1.106-0.499,1.609c-0.333,0.504-0.812,0.893-1.438,1.168c-0.627,0.275-1.336,0.413-2.127,0.413
					c-1.311,0-2.309-0.271-2.996-0.816C376.981,162.695,376.543,161.887,376.353,160.818z"/>
				<path class="st5" d="M390.492,162.299l0.247,1.51c-0.481,0.101-0.912,0.151-1.291,0.151c-0.621,0-1.102-0.098-1.443-0.294
					s-0.583-0.454-0.722-0.774c-0.14-0.319-0.209-0.992-0.209-2.018v-5.802h-1.253v-1.329h1.253v-2.497l1.7-1.025v3.522h1.719v1.329
					h-1.719v5.896c0,0.488,0.03,0.801,0.09,0.94c0.06,0.14,0.158,0.25,0.294,0.332c0.136,0.083,0.331,0.124,0.584,0.124
					C389.931,162.366,390.181,162.343,390.492,162.299z"/>
				<path class="st5" d="M398.771,163.828v-1.481c-0.785,1.14-1.852,1.709-3.2,1.709c-0.595,0-1.15-0.113-1.666-0.342
					c-0.516-0.228-0.899-0.514-1.149-0.859c-0.25-0.345-0.426-0.768-0.527-1.268c-0.069-0.335-0.104-0.867-0.104-1.595v-6.248h1.709
					v5.593c0,0.893,0.035,1.494,0.104,1.804c0.107,0.45,0.335,0.803,0.684,1.059c0.348,0.257,0.778,0.385,1.291,0.385
					c0.513,0,0.994-0.131,1.443-0.394c0.45-0.263,0.768-0.62,0.955-1.073c0.187-0.452,0.28-1.109,0.28-1.97v-5.403h1.709v10.084
					H398.771z"/>
				<path class="st5" d="M409.52,163.828v-1.272c-0.64,1-1.58,1.5-2.82,1.5c-0.804,0-1.543-0.222-2.217-0.664
					c-0.674-0.443-1.196-1.063-1.566-1.856c-0.371-0.795-0.556-1.708-0.556-2.739c0-1.007,0.168-1.92,0.503-2.739
					c0.335-0.82,0.839-1.448,1.51-1.885c0.671-0.438,1.421-0.655,2.25-0.655c0.607,0,1.149,0.128,1.624,0.384
					c0.475,0.257,0.861,0.591,1.158,1.002v-4.994h1.7v13.92H409.52z M404.117,158.795c0,1.291,0.272,2.257,0.816,2.896
					c0.544,0.64,1.187,0.959,1.928,0.959c0.747,0,1.381-0.305,1.904-0.916c0.522-0.61,0.783-1.543,0.783-2.796
					c0-1.38-0.266-2.394-0.797-3.039s-1.187-0.969-1.966-0.969c-0.76,0-1.394,0.311-1.904,0.931
					C404.372,156.482,404.117,157.459,404.117,158.795z"/>
				<path class="st5" d="M413.717,167.711l-0.19-1.604c0.374,0.101,0.7,0.151,0.978,0.151c0.38,0,0.684-0.063,0.911-0.189
					c0.229-0.127,0.414-0.304,0.561-0.532c0.107-0.171,0.281-0.595,0.521-1.272c0.032-0.095,0.083-0.234,0.152-0.418l-3.826-10.103
					h1.842l2.099,5.84c0.272,0.74,0.516,1.519,0.731,2.336c0.195-0.785,0.43-1.551,0.702-2.298l2.155-5.878h1.709l-3.836,10.255
					c-0.411,1.107-0.73,1.87-0.959,2.288c-0.304,0.563-0.652,0.977-1.045,1.239s-0.86,0.395-1.404,0.395
					C414.488,167.92,414.121,167.85,413.717,167.711z"/>
				<path class="st5" d="M435.822,160.581l1.766,0.218c-0.279,1.032-0.795,1.833-1.548,2.402c-0.753,0.57-1.716,0.854-2.887,0.854
					c-1.476,0-2.645-0.454-3.509-1.362c-0.863-0.908-1.296-2.183-1.296-3.821c0-1.697,0.437-3.014,1.311-3.95
					c0.874-0.938,2.007-1.405,3.399-1.405c1.348,0,2.449,0.459,3.305,1.377c0.854,0.918,1.281,2.209,1.281,3.874
					c0,0.101-0.003,0.253-0.01,0.455h-7.52c0.063,1.108,0.377,1.956,0.939,2.545c0.563,0.589,1.266,0.883,2.108,0.883
					c0.626,0,1.161-0.164,1.604-0.493S435.563,161.302,435.822,160.581z M430.21,157.817h5.631
					c-0.076-0.848-0.292-1.484-0.646-1.908c-0.545-0.658-1.25-0.987-2.117-0.987c-0.785,0-1.445,0.263-1.98,0.788
					S430.268,156.937,430.21,157.817z"/>
				<path class="st5" d="M439.733,163.828v-10.084h1.538v1.434c0.74-1.107,1.811-1.661,3.209-1.661c0.608,0,1.167,0.109,1.677,0.327
					c0.509,0.219,0.891,0.505,1.144,0.859c0.254,0.354,0.431,0.775,0.532,1.263c0.063,0.316,0.095,0.871,0.095,1.662v6.2h-1.709
					v-6.134c0-0.696-0.066-1.217-0.199-1.563c-0.133-0.345-0.369-0.62-0.707-0.825c-0.34-0.206-0.736-0.309-1.192-0.309
					c-0.728,0-1.356,0.23-1.885,0.692c-0.528,0.463-0.792,1.339-0.792,2.631v5.507H439.733z"/>
				<path class="st5" d="M454.28,162.299l0.247,1.51c-0.481,0.101-0.912,0.151-1.291,0.151c-0.621,0-1.102-0.098-1.443-0.294
					s-0.583-0.454-0.723-0.774c-0.139-0.319-0.209-0.992-0.209-2.018v-5.802h-1.253v-1.329h1.253v-2.497l1.7-1.025v3.522h1.719
					v1.329h-1.719v5.896c0,0.488,0.03,0.801,0.091,0.94c0.06,0.14,0.157,0.25,0.293,0.332c0.137,0.083,0.332,0.124,0.584,0.124
					C453.72,162.366,453.97,162.343,454.28,162.299z"/>
				<path class="st5" d="M455.932,163.828v-10.084h1.539v1.528c0.393-0.715,0.755-1.187,1.087-1.414
					c0.333-0.229,0.698-0.342,1.097-0.342c0.576,0,1.162,0.184,1.757,0.551l-0.589,1.585c-0.418-0.246-0.836-0.37-1.254-0.37
					c-0.373,0-0.709,0.112-1.006,0.337c-0.298,0.226-0.51,0.537-0.637,0.936c-0.189,0.607-0.284,1.272-0.284,1.994v5.279H455.932z"
					/>
				<path class="st5" d="M462.352,167.711l-0.189-1.604c0.373,0.101,0.699,0.151,0.978,0.151c0.38,0,0.684-0.063,0.911-0.189
					c0.229-0.127,0.414-0.304,0.561-0.532c0.107-0.171,0.281-0.595,0.521-1.272c0.032-0.095,0.083-0.234,0.152-0.418l-3.826-10.103
					h1.842l2.099,5.84c0.272,0.74,0.516,1.519,0.731,2.336c0.195-0.785,0.43-1.551,0.702-2.298l2.155-5.878h1.709l-3.836,10.255
					c-0.411,1.107-0.73,1.87-0.959,2.288c-0.304,0.563-0.652,0.977-1.045,1.239s-0.86,0.395-1.404,0.395
					C463.123,167.92,462.756,167.85,462.352,167.711z"/>
			</g>
		</g>
	</g>
	<rect x="467" y="224.361" class="st1" width="355.401" height="139.183"/>
	<g>
		<g class="st3">
			<path class="st4" d="M29.842,279.192c0-4.265,1.145-7.604,3.436-10.018c2.29-2.413,5.247-3.62,8.87-3.62
				c2.373,0,4.511,0.567,6.416,1.7c1.905,1.134,3.357,2.715,4.356,4.742c1,2.027,1.499,4.327,1.499,6.897
				c0,2.606-0.526,4.938-1.578,6.994c-1.052,2.058-2.542,3.614-4.47,4.672s-4.008,1.587-6.24,1.587
				c-2.419,0-4.582-0.584-6.486-1.753s-3.348-2.764-4.33-4.786C30.333,283.587,29.842,281.448,29.842,279.192z M33.348,279.245
				c0,3.098,0.833,5.537,2.498,7.319c1.666,1.782,3.754,2.673,6.267,2.673c2.559,0,4.666-0.899,6.319-2.699
				c1.653-1.8,2.48-4.354,2.48-7.661c0-2.092-0.354-3.918-1.061-5.478c-0.708-1.561-1.742-2.77-3.103-3.629
				c-1.361-0.858-2.89-1.288-4.584-1.288c-2.407,0-4.479,0.827-6.214,2.48C34.215,272.616,33.348,275.377,33.348,279.245z"/>
			<path class="st4" d="M58.398,298.844v-25.751h2.875v2.419c0.678-0.946,1.443-1.656,2.296-2.13s1.887-0.71,3.103-0.71
				c1.589,0,2.991,0.409,4.207,1.227c1.215,0.818,2.132,1.973,2.752,3.463c0.62,1.489,0.929,3.123,0.929,4.899
				c0,1.904-0.342,3.62-1.025,5.145c-0.684,1.525-1.677,2.694-2.98,3.506c-1.303,0.813-2.673,1.219-4.111,1.219
				c-1.052,0-1.996-0.223-2.831-0.666c-0.835-0.444-1.522-1.005-2.06-1.684v9.063H58.398z M61.255,282.506
				c0,2.396,0.485,4.166,1.455,5.312c0.97,1.146,2.145,1.718,3.523,1.718c1.402,0,2.603-0.593,3.603-1.779
				c0.999-1.186,1.499-3.023,1.499-5.513c0-2.372-0.488-4.148-1.463-5.329c-0.976-1.181-2.142-1.771-3.498-1.771
				c-1.344,0-2.533,0.628-3.567,1.885C61.772,278.284,61.255,280.11,61.255,282.506z"/>
			<path class="st4" d="M85.253,288.887l0.456,2.787c-0.888,0.187-1.683,0.28-2.384,0.28c-1.145,0-2.033-0.181-2.664-0.543
				c-0.631-0.362-1.076-0.839-1.333-1.429c-0.257-0.59-0.386-1.832-0.386-3.726v-10.71h-2.314v-2.454h2.314v-4.61l3.138-1.894v6.504
				h3.173v2.454h-3.173v10.886c0,0.9,0.055,1.479,0.167,1.735c0.111,0.257,0.292,0.462,0.543,0.613
				c0.251,0.152,0.61,0.229,1.078,0.229C84.219,289.01,84.681,288.969,85.253,288.887z"/>
			<path class="st4" d="M88.355,269.64v-3.629h3.156v3.629H88.355z M88.355,291.709v-18.616h3.156v18.616H88.355z"/>
			<path class="st4" d="M95.052,286.152l3.12-0.491c0.175,1.251,0.663,2.209,1.464,2.875c0.8,0.666,1.919,0.999,3.357,0.999
				c1.449,0,2.524-0.295,3.225-0.885c0.702-0.59,1.052-1.283,1.052-2.077c0-0.713-0.31-1.274-0.929-1.684
				c-0.433-0.28-1.508-0.637-3.226-1.069c-2.314-0.584-3.918-1.089-4.812-1.516s-1.572-1.017-2.033-1.771
				c-0.462-0.754-0.692-1.587-0.692-2.498c0-0.83,0.19-1.599,0.57-2.306c0.379-0.707,0.896-1.294,1.551-1.762
				c0.491-0.362,1.16-0.669,2.007-0.92s1.756-0.377,2.726-0.377c1.46,0,2.743,0.21,3.848,0.631s1.919,0.99,2.445,1.709
				s0.888,1.681,1.087,2.884l-3.085,0.421c-0.141-0.958-0.546-1.706-1.218-2.244c-0.672-0.537-1.622-0.806-2.849-0.806
				c-1.449,0-2.483,0.239-3.103,0.719c-0.62,0.479-0.929,1.04-0.929,1.683c0,0.409,0.129,0.777,0.386,1.104
				c0.257,0.339,0.66,0.619,1.209,0.841c0.316,0.117,1.245,0.386,2.788,0.807c2.232,0.596,3.789,1.084,4.671,1.464
				s1.575,0.932,2.077,1.656s0.754,1.625,0.754,2.699c0,1.053-0.307,2.043-0.92,2.972c-0.613,0.929-1.499,1.647-2.656,2.156
				c-1.157,0.509-2.466,0.763-3.926,0.763c-2.419,0-4.263-0.503-5.531-1.508S95.403,288.127,95.052,286.152z"/>
			<path class="st4" d="M121.154,288.887l0.456,2.787c-0.888,0.187-1.683,0.28-2.384,0.28c-1.145,0-2.033-0.181-2.664-0.543
				c-0.631-0.362-1.076-0.839-1.333-1.429c-0.257-0.59-0.386-1.832-0.386-3.726v-10.71h-2.314v-2.454h2.314v-4.61l3.138-1.894v6.504
				h3.173v2.454h-3.173v10.886c0,0.9,0.055,1.479,0.167,1.735c0.111,0.257,0.292,0.462,0.543,0.613
				c0.251,0.152,0.61,0.229,1.078,0.229C120.119,289.01,120.581,288.969,121.154,288.887z"/>
			<path class="st4" d="M136.387,289.413c-1.169,0.993-2.294,1.694-3.375,2.104c-1.081,0.408-2.241,0.613-3.479,0.613
				c-2.045,0-3.617-0.5-4.716-1.499s-1.647-2.275-1.647-3.83c0-0.912,0.207-1.744,0.622-2.498c0.415-0.754,0.958-1.358,1.63-1.814
				c0.672-0.456,1.429-0.8,2.27-1.034c0.619-0.163,1.554-0.321,2.805-0.474c2.548-0.304,4.423-0.666,5.627-1.087
				c0.012-0.432,0.018-0.706,0.018-0.823c0-1.285-0.298-2.191-0.894-2.718c-0.806-0.712-2.004-1.068-3.593-1.068
				c-1.484,0-2.58,0.26-3.287,0.779c-0.707,0.521-1.23,1.44-1.569,2.761l-3.085-0.42c0.28-1.32,0.742-2.387,1.385-3.199
				c0.643-0.813,1.571-1.438,2.787-1.876c1.215-0.438,2.624-0.657,4.225-0.657c1.589,0,2.881,0.187,3.874,0.561
				s1.724,0.845,2.191,1.411c0.467,0.567,0.794,1.283,0.981,2.147c0.105,0.538,0.158,1.508,0.158,2.91v4.207
				c0,2.934,0.067,4.789,0.202,5.565c0.134,0.777,0.4,1.522,0.798,2.235h-3.296C136.691,291.055,136.48,290.289,136.387,289.413z
				 M136.124,282.365c-1.146,0.468-2.863,0.865-5.154,1.192c-1.297,0.188-2.214,0.397-2.752,0.631
				c-0.538,0.234-0.953,0.576-1.245,1.025c-0.292,0.45-0.438,0.95-0.438,1.499c0,0.842,0.318,1.543,0.955,2.104
				c0.637,0.562,1.569,0.842,2.796,0.842c1.215,0,2.296-0.266,3.243-0.798c0.947-0.531,1.642-1.259,2.086-2.183
				c0.339-0.713,0.508-1.765,0.508-3.155V282.365z"/>
			<path class="st4" d="M149.376,291.709l-7.082-18.616h3.331l3.997,11.148c0.432,1.204,0.83,2.454,1.192,3.752
				c0.281-0.982,0.672-2.162,1.175-3.541l4.137-11.359h3.243l-7.047,18.616H149.376z"/>
			<path class="st4" d="M162.173,269.64v-3.629h3.156v3.629H162.173z M162.173,291.709v-18.616h3.156v18.616H162.173z"/>
			<path class="st4" d="M170.132,291.709v-18.616h2.84v2.646c1.367-2.045,3.342-3.067,5.925-3.067c1.122,0,2.153,0.201,3.094,0.604
				c0.941,0.403,1.645,0.933,2.112,1.587s0.795,1.432,0.982,2.331c0.117,0.585,0.175,1.607,0.175,3.067v11.447h-3.155v-11.324
				c0-1.285-0.123-2.246-0.368-2.884c-0.246-0.637-0.681-1.145-1.306-1.524s-1.358-0.57-2.2-0.57c-1.344,0-2.504,0.427-3.48,1.28
				c-0.976,0.853-1.463,2.472-1.463,4.855v10.167H170.132z"/>
			<path class="st4" d="M206.698,287.555v-7.047h-6.994v-2.945h6.994v-6.994h2.98v6.994h6.995v2.945h-6.995v7.047H206.698z"/>
			<path class="st4" d="M243.16,284.89l3.103,0.403c-0.339,2.139-1.207,3.813-2.603,5.022s-3.111,1.814-5.145,1.814
				c-2.548,0-4.596-0.833-6.144-2.498c-1.549-1.665-2.323-4.052-2.323-7.161c0-2.01,0.333-3.769,0.999-5.276
				c0.667-1.508,1.68-2.638,3.042-3.392s2.843-1.131,4.444-1.131c2.021,0,3.675,0.512,4.961,1.534
				c1.285,1.022,2.109,2.475,2.472,4.355l-3.068,0.474c-0.292-1.25-0.809-2.191-1.551-2.822s-1.639-0.946-2.691-0.946
				c-1.589,0-2.881,0.569-3.874,1.709s-1.49,2.942-1.49,5.407c0,2.501,0.479,4.318,1.438,5.452c0.958,1.134,2.208,1.7,3.751,1.7
				c1.239,0,2.273-0.38,3.103-1.14C242.412,287.637,242.938,286.468,243.16,284.89z"/>
			<path class="st4" d="M248.962,291.709v-25.698h3.155v9.221c1.472-1.706,3.331-2.56,5.574-2.56c1.379,0,2.577,0.271,3.594,0.815
				c1.017,0.543,1.744,1.294,2.182,2.252c0.438,0.959,0.658,2.35,0.658,4.172v11.798h-3.155v-11.798
				c0-1.577-0.342-2.726-1.026-3.444c-0.684-0.719-1.65-1.078-2.901-1.078c-0.935,0-1.814,0.243-2.638,0.728
				c-0.824,0.485-1.411,1.143-1.762,1.973c-0.351,0.829-0.526,1.975-0.526,3.436v10.185H248.962z"/>
			<path class="st4" d="M281.672,285.714l3.261,0.403c-0.515,1.905-1.467,3.383-2.857,4.435s-3.167,1.578-5.329,1.578
				c-2.723,0-4.882-0.839-6.477-2.516s-2.393-4.029-2.393-7.056c0-3.132,0.806-5.563,2.419-7.292s3.705-2.595,6.275-2.595
				c2.489,0,4.523,0.848,6.101,2.542s2.366,4.078,2.366,7.151c0,0.188-0.006,0.468-0.018,0.842h-13.883
				c0.117,2.045,0.695,3.611,1.735,4.698s2.337,1.63,3.892,1.63c1.157,0,2.145-0.304,2.962-0.911S281.193,287.046,281.672,285.714z
				 M271.313,280.612h10.395c-0.14-1.565-0.538-2.74-1.192-3.523c-1.005-1.215-2.308-1.822-3.909-1.822
				c-1.449,0-2.667,0.484-3.655,1.454C271.964,277.691,271.417,278.988,271.313,280.612z"/>
			<path class="st4" d="M288.895,291.709v-18.616h2.822v2.611c0.584-0.911,1.361-1.645,2.331-2.199
				c0.97-0.556,2.074-0.833,3.313-0.833c1.378,0,2.509,0.286,3.392,0.858c0.882,0.573,1.505,1.374,1.867,2.402
				c1.472-2.174,3.389-3.261,5.75-3.261c1.847,0,3.267,0.512,4.26,1.534s1.49,2.597,1.49,4.724v12.779h-3.138v-11.728
				c0-1.262-0.102-2.171-0.307-2.726s-0.576-1.002-1.113-1.341c-0.538-0.339-1.169-0.509-1.894-0.509
				c-1.309,0-2.396,0.436-3.26,1.306c-0.865,0.871-1.297,2.265-1.297,4.182v10.815h-3.155v-12.096c0-1.402-0.257-2.454-0.771-3.155
				s-1.355-1.052-2.524-1.052c-0.889,0-1.709,0.234-2.463,0.701c-0.754,0.468-1.3,1.151-1.639,2.051
				c-0.339,0.9-0.508,2.197-0.508,3.892v9.659H288.895z"/>
			<path class="st4" d="M317.625,282.4c0-3.447,0.958-6.001,2.875-7.66c1.601-1.379,3.552-2.068,5.855-2.068
				c2.559,0,4.651,0.839,6.275,2.516s2.437,3.994,2.437,6.95c0,2.396-0.359,4.28-1.078,5.653c-0.719,1.373-1.765,2.439-3.138,3.199
				s-2.872,1.14-4.496,1.14c-2.606,0-4.713-0.836-6.319-2.507C318.429,287.952,317.625,285.545,317.625,282.4z M320.869,282.4
				c0,2.385,0.52,4.17,1.56,5.355c1.04,1.187,2.349,1.779,3.927,1.779c1.566,0,2.869-0.596,3.909-1.788
				c1.04-1.191,1.56-3.009,1.56-5.451c0-2.303-0.523-4.047-1.569-5.233c-1.046-1.186-2.346-1.778-3.9-1.778
				c-1.578,0-2.887,0.59-3.927,1.771C321.389,278.234,320.869,280.017,320.869,282.4z"/>
		</g>
		<g class="st3">
			<path class="st5" d="M146.315,335.938c-1.161-1.465-2.143-3.179-2.945-5.143c-0.803-1.963-1.204-3.996-1.204-6.1
				c0-1.854,0.3-3.631,0.9-5.329c0.701-1.972,1.784-3.935,3.249-5.891h1.508c-0.943,1.621-1.566,2.778-1.87,3.472
				c-0.475,1.074-0.849,2.196-1.122,3.365c-0.335,1.457-0.502,2.922-0.502,4.395c0,3.747,1.165,7.49,3.494,11.23H146.315z"/>
			<path class="st5" d="M150.265,330.9v-12.411h1.893v1.765c0.912-1.363,2.228-2.045,3.95-2.045c0.748,0,1.436,0.135,2.063,0.403
				s1.097,0.621,1.408,1.058s0.53,0.954,0.655,1.554c0.078,0.39,0.117,1.071,0.117,2.046v7.631h-2.104v-7.55
				c0-0.856-0.082-1.497-0.246-1.922s-0.454-0.764-0.871-1.017s-0.906-0.38-1.467-0.38c-0.896,0-1.669,0.284-2.319,0.853
				c-0.651,0.569-0.976,1.648-0.976,3.237v6.778H150.265z"/>
			<path class="st5" d="M174.643,320.827H163.33v-1.964h11.313V320.827z M174.643,326.027H163.33v-1.964h11.313V326.027z"/>
			<path class="st5" d="M183.711,330.9v-4.102h-7.433v-1.929l7.818-11.102h1.718v11.102h2.314v1.929h-2.314v4.102H183.711z
				 M183.711,324.87v-7.725l-5.364,7.725H183.711z"/>
			<path class="st5" d="M197.022,330.9v-4.102h-7.433v-1.929l7.818-11.102h1.718v11.102h2.314v1.929h-2.314v4.102H197.022z
				 M197.022,324.87v-7.725l-5.364,7.725H197.022z"/>
			<path class="st5" d="M203.73,316.012v-2.021h11.09v1.636c-1.091,1.161-2.172,2.704-3.243,4.628
				c-1.071,1.925-1.899,3.903-2.483,5.937c-0.42,1.434-0.689,3.004-0.806,4.71h-2.162c0.023-1.348,0.288-2.976,0.795-4.885
				c0.506-1.909,1.233-3.749,2.179-5.522c0.947-1.771,1.954-3.266,3.021-4.481H203.73z"/>
			<path class="st5" d="M218.864,335.938h-1.507c2.329-3.74,3.494-7.483,3.494-11.23c0-1.465-0.167-2.918-0.502-4.359
				c-0.265-1.169-0.635-2.291-1.11-3.366c-0.304-0.701-0.931-1.869-1.881-3.506h1.507c1.465,1.956,2.548,3.919,3.249,5.891
				c0.6,1.698,0.9,3.475,0.9,5.329c0,2.104-0.403,4.137-1.209,6.1C220.997,332.759,220.017,334.473,218.864,335.938z"/>
		</g>
	</g>
	<g>
		<g class="st3">
			<path class="st4" d="M558.775,282.699l3.4,0.858c-0.713,2.793-1.995,4.923-3.848,6.39c-1.852,1.467-4.116,2.2-6.793,2.2
				c-2.77,0-5.021-0.563-6.757-1.691s-3.056-2.762-3.962-4.9s-1.358-4.435-1.358-6.889c0-2.676,0.511-5.011,1.534-7.003
				c1.021-1.992,2.477-3.506,4.364-4.54s3.965-1.552,6.231-1.552c2.571,0,4.733,0.654,6.486,1.963
				c1.753,1.31,2.975,3.15,3.664,5.522l-3.348,0.789c-0.597-1.87-1.461-3.231-2.596-4.085c-1.133-0.853-2.559-1.279-4.276-1.279
				c-1.976,0-3.626,0.473-4.952,1.42c-1.326,0.946-2.259,2.217-2.797,3.813c-0.537,1.595-0.806,3.24-0.806,4.935
				c0,2.186,0.318,4.093,0.956,5.724c0.637,1.63,1.627,2.849,2.971,3.654c1.344,0.807,2.799,1.21,4.365,1.21
				c1.904,0,3.518-0.549,4.838-1.647S558.309,284.861,558.775,282.699z"/>
			<path class="st4" d="M565.963,291.709v-25.698h3.155v9.221c1.472-1.706,3.331-2.56,5.574-2.56c1.379,0,2.577,0.271,3.594,0.815
				c1.017,0.543,1.744,1.294,2.183,2.252c0.438,0.959,0.657,2.35,0.657,4.172v11.798h-3.155v-11.798
				c0-1.577-0.342-2.726-1.025-3.444s-1.65-1.078-2.901-1.078c-0.935,0-1.814,0.243-2.638,0.728
				c-0.824,0.485-1.412,1.143-1.762,1.973c-0.352,0.829-0.526,1.975-0.526,3.436v10.185H565.963z"/>
			<path class="st4" d="M598.673,285.714l3.261,0.403c-0.515,1.905-1.467,3.383-2.857,4.435s-3.167,1.578-5.329,1.578
				c-2.724,0-4.882-0.839-6.478-2.516c-1.595-1.677-2.393-4.029-2.393-7.056c0-3.132,0.807-5.563,2.42-7.292
				c1.612-1.729,3.704-2.595,6.275-2.595c2.488,0,4.522,0.848,6.1,2.542c1.578,1.694,2.367,4.078,2.367,7.151
				c0,0.188-0.006,0.468-0.018,0.842h-13.884c0.116,2.045,0.695,3.611,1.735,4.698s2.338,1.63,3.892,1.63
				c1.157,0,2.145-0.304,2.962-0.911C597.545,288.017,598.193,287.046,598.673,285.714z M588.313,280.612h10.396
				c-0.14-1.565-0.538-2.74-1.192-3.523c-1.005-1.215-2.308-1.822-3.908-1.822c-1.449,0-2.668,0.484-3.655,1.454
				C588.965,277.691,588.418,278.988,588.313,280.612z"/>
			<path class="st4" d="M605.896,291.709v-18.616h2.822v2.611c0.584-0.911,1.361-1.645,2.331-2.199
				c0.971-0.556,2.074-0.833,3.313-0.833c1.378,0,2.509,0.286,3.392,0.858c0.883,0.573,1.505,1.374,1.867,2.402
				c1.473-2.174,3.389-3.261,5.75-3.261c1.846,0,3.266,0.512,4.26,1.534c0.992,1.022,1.49,2.597,1.49,4.724v12.779h-3.139v-11.728
				c0-1.262-0.102-2.171-0.307-2.726s-0.576-1.002-1.113-1.341s-1.168-0.509-1.893-0.509c-1.31,0-2.396,0.436-3.261,1.306
				c-0.865,0.871-1.298,2.265-1.298,4.182v10.815h-3.154v-12.096c0-1.402-0.258-2.454-0.771-3.155
				c-0.515-0.701-1.355-1.052-2.524-1.052c-0.889,0-1.71,0.234-2.463,0.701c-0.754,0.468-1.3,1.151-1.64,2.051
				c-0.339,0.9-0.508,2.197-0.508,3.892v9.659H605.896z"/>
			<path class="st4" d="M634.626,282.4c0-3.447,0.958-6.001,2.875-7.66c1.601-1.379,3.552-2.068,5.854-2.068
				c2.56,0,4.651,0.839,6.275,2.516c1.625,1.677,2.438,3.994,2.438,6.95c0,2.396-0.359,4.28-1.078,5.653s-1.766,2.439-3.139,3.199
				s-2.871,1.14-4.496,1.14c-2.605,0-4.713-0.836-6.318-2.507C635.43,287.952,634.626,285.545,634.626,282.4z M637.869,282.4
				c0,2.385,0.52,4.17,1.561,5.355c1.039,1.187,2.349,1.779,3.926,1.779c1.566,0,2.869-0.596,3.91-1.788
				c1.039-1.191,1.56-3.009,1.56-5.451c0-2.303-0.523-4.047-1.569-5.233c-1.046-1.186-2.346-1.778-3.9-1.778
				c-1.577,0-2.887,0.59-3.926,1.771C638.389,278.234,637.869,280.017,637.869,282.4z"/>
			<path class="st4" d="M677.89,289.413c-1.169,0.993-2.294,1.694-3.374,2.104c-1.082,0.408-2.242,0.613-3.48,0.613
				c-2.045,0-3.617-0.5-4.715-1.499c-1.1-0.999-1.648-2.275-1.648-3.83c0-0.912,0.207-1.744,0.623-2.498
				c0.414-0.754,0.957-1.358,1.63-1.814c0.672-0.456,1.429-0.8,2.271-1.034c0.619-0.163,1.554-0.321,2.805-0.474
				c2.547-0.304,4.423-0.666,5.627-1.087c0.012-0.432,0.018-0.706,0.018-0.823c0-1.285-0.299-2.191-0.895-2.718
				c-0.807-0.712-2.004-1.068-3.594-1.068c-1.484,0-2.58,0.26-3.287,0.779c-0.707,0.521-1.229,1.44-1.568,2.761l-3.085-0.42
				c0.28-1.32,0.741-2.387,1.385-3.199c0.643-0.813,1.571-1.438,2.787-1.876s2.624-0.657,4.225-0.657
				c1.589,0,2.881,0.187,3.874,0.561s1.724,0.845,2.191,1.411c0.467,0.567,0.795,1.283,0.981,2.147
				c0.104,0.538,0.157,1.508,0.157,2.91v4.207c0,2.934,0.068,4.789,0.202,5.565c0.134,0.777,0.4,1.522,0.798,2.235h-3.296
				C678.193,291.055,677.982,290.289,677.89,289.413z M677.627,282.365c-1.146,0.468-2.863,0.865-5.154,1.192
				c-1.297,0.188-2.215,0.397-2.752,0.631c-0.537,0.234-0.953,0.576-1.244,1.025c-0.293,0.45-0.438,0.95-0.438,1.499
				c0,0.842,0.317,1.543,0.955,2.104c0.637,0.562,1.569,0.842,2.796,0.842c1.215,0,2.297-0.266,3.243-0.798
				c0.946-0.531,1.642-1.259,2.086-2.183c0.339-0.713,0.509-1.765,0.509-3.155V282.365z"/>
			<path class="st4" d="M685.638,291.709v-25.698h3.155v25.698H685.638z"/>
			<path class="st4" d="M692.509,282.4c0-3.447,0.958-6.001,2.875-7.66c1.601-1.379,3.552-2.068,5.854-2.068
				c2.56,0,4.651,0.839,6.275,2.516c1.625,1.677,2.438,3.994,2.438,6.95c0,2.396-0.359,4.28-1.078,5.653s-1.766,2.439-3.139,3.199
				s-2.871,1.14-4.496,1.14c-2.605,0-4.713-0.836-6.318-2.507C693.313,287.952,692.509,285.545,692.509,282.4z M695.752,282.4
				c0,2.385,0.52,4.17,1.561,5.355c1.039,1.187,2.349,1.779,3.926,1.779c1.566,0,2.869-0.596,3.91-1.788
				c1.039-1.191,1.56-3.009,1.56-5.451c0-2.303-0.523-4.047-1.569-5.233c-1.046-1.186-2.346-1.778-3.9-1.778
				c-1.577,0-2.887,0.59-3.926,1.771C696.271,278.234,695.752,280.017,695.752,282.4z"/>
			<path class="st4" d="M713.65,291.709v-18.616h2.84v2.646c1.367-2.045,3.342-3.067,5.924-3.067c1.123,0,2.154,0.201,3.094,0.604
				c0.941,0.403,1.646,0.933,2.113,1.587c0.467,0.654,0.795,1.432,0.981,2.331c0.116,0.585,0.175,1.607,0.175,3.067v11.447h-3.154
				v-11.324c0-1.285-0.123-2.246-0.369-2.884c-0.245-0.637-0.681-1.145-1.306-1.524s-1.358-0.57-2.2-0.57
				c-1.344,0-2.504,0.427-3.479,1.28c-0.976,0.853-1.464,2.472-1.464,4.855v10.167H713.65z"/>
			<path class="st4" d="M746.359,285.714l3.262,0.403c-0.516,1.905-1.467,3.383-2.857,4.435s-3.168,1.578-5.33,1.578
				c-2.723,0-4.881-0.839-6.477-2.516s-2.393-4.029-2.393-7.056c0-3.132,0.807-5.563,2.419-7.292s3.704-2.595,6.275-2.595
				c2.489,0,4.522,0.848,6.101,2.542s2.366,4.078,2.366,7.151c0,0.188-0.006,0.468-0.018,0.842h-13.884
				c0.117,2.045,0.695,3.611,1.736,4.698c1.039,1.087,2.337,1.63,3.891,1.63c1.158,0,2.145-0.304,2.963-0.911
				S745.881,287.046,746.359,285.714z M736,280.612h10.395c-0.14-1.565-0.537-2.74-1.191-3.523
				c-1.006-1.215-2.309-1.822-3.909-1.822c-1.449,0-2.667,0.484-3.655,1.454C736.651,277.691,736.105,278.988,736,280.612z"/>
		</g>
		<g class="st3">
			<path class="st5" d="M609.155,335.938c-1.16-1.465-2.143-3.179-2.944-5.143c-0.803-1.963-1.204-3.996-1.204-6.1
				c0-1.854,0.3-3.631,0.9-5.329c0.701-1.972,1.783-3.935,3.248-5.891h1.508c-0.942,1.621-1.565,2.778-1.87,3.472
				c-0.475,1.074-0.849,2.196-1.121,3.365c-0.336,1.457-0.503,2.922-0.503,4.395c0,3.747,1.165,7.49,3.494,11.23H609.155z"/>
			<path class="st5" d="M613.105,330.9v-12.411h1.894v1.765c0.911-1.363,2.228-2.045,3.95-2.045c0.748,0,1.436,0.135,2.063,0.403
				s1.097,0.621,1.408,1.058s0.529,0.954,0.654,1.554c0.078,0.39,0.117,1.071,0.117,2.046v7.631h-2.104v-7.55
				c0-0.856-0.082-1.497-0.246-1.922c-0.163-0.425-0.453-0.764-0.87-1.017s-0.906-0.38-1.467-0.38c-0.896,0-1.669,0.284-2.319,0.853
				c-0.651,0.569-0.977,1.648-0.977,3.237v6.778H613.105z"/>
			<path class="st5" d="M637.483,320.827h-11.313v-1.964h11.313V320.827z M637.483,326.027h-11.313v-1.964h11.313V326.027z"/>
			<path class="st5" d="M646.552,330.9v-4.102h-7.433v-1.929l7.818-11.102h1.718v11.102h2.314v1.929h-2.314v4.102H646.552z
				 M646.552,324.87v-7.725l-5.363,7.725H646.552z"/>
			<path class="st5" d="M653.12,326.413l2.209-0.188c0.163,1.075,0.543,1.884,1.139,2.425c0.597,0.542,1.315,0.813,2.156,0.813
				c1.013,0,1.87-0.382,2.571-1.146c0.701-0.763,1.052-1.776,1.052-3.038c0-1.2-0.337-2.146-1.011-2.84s-1.557-1.04-2.647-1.04
				c-0.678,0-1.289,0.154-1.834,0.462c-0.546,0.308-0.975,0.707-1.286,1.197l-1.975-0.257l1.659-8.8h8.52v2.01h-6.837l-0.923,4.604
				c1.028-0.717,2.107-1.075,3.237-1.075c1.496,0,2.758,0.519,3.786,1.555s1.543,2.368,1.543,3.996c0,1.551-0.452,2.891-1.355,4.021
				c-1.099,1.387-2.599,2.08-4.5,2.08c-1.558,0-2.83-0.437-3.815-1.309C653.823,329.011,653.261,327.854,653.12,326.413z"/>
			<path class="st5" d="M674.354,330.9h-2.104v-13.404c-0.506,0.483-1.17,0.966-1.992,1.449s-1.56,0.846-2.215,1.087v-2.033
				c1.177-0.554,2.205-1.224,3.086-2.011c0.88-0.786,1.503-1.55,1.869-2.29h1.355V330.9z"/>
			<path class="st5" d="M681.705,335.938h-1.508c2.329-3.74,3.494-7.483,3.494-11.23c0-1.465-0.167-2.918-0.502-4.359
				c-0.266-1.169-0.636-2.291-1.11-3.366c-0.304-0.701-0.932-1.869-1.882-3.506h1.508c1.465,1.956,2.548,3.919,3.249,5.891
				c0.6,1.698,0.899,3.475,0.899,5.329c0,2.104-0.403,4.137-1.209,6.1C683.838,332.759,682.857,334.473,681.705,335.938z"/>
		</g>
	</g>
</g>
<g>
</g>
<g>
</g>
<g>
</g>
<g>
</g>
<g>
</g>
<g>
</g>
</svg>
