<?xml version="1.0" encoding="utf-8"?>
<!-- Generator: Adobe Illustrator 17.0.1, SVG Export Plug-In . SVG Version: 6.00 Build 0)  -->
<!DOCTYPE svg PUBLIC "-//W3C//DTD SVG 1.1//EN" "http://www.w3.org/Graphics/SVG/1.1/DTD/svg11.dtd">
<svg version="1.1" id="Layer_1" xmlns="http://www.w3.org/2000/svg" xmlns:xlink="http://www.w3.org/1999/xlink" x="0px" y="0px"
	 width="826.923px" height="368.462px" viewBox="0 0 826.923 368.462" enable-background="new 0 0 826.923 368.462"
	 xml:space="preserve">
<g>
	<polyline fill="none" stroke="#E8D948" stroke-width="2.6178" stroke-miterlimit="10" stroke-dasharray="4.4876,4.4876" points="
		645.099,226.03 645.099,92.414 182.259,91.977 182.259,225.592 	"/>
	
		<rect x="4.56" y="225.592" fill="#FFFFFF" stroke="#D7EDE6" stroke-width="4.4876" stroke-miterlimit="10" width="355.399" height="139.183"/>
	<g>
		<rect x="250.721" y="3.687" fill="#D7EDE6" width="325.482" height="176.58"/>
		<g>
			<g enable-background="new    ">
				<path fill="#6BADA2" d="M306.663,36.269c0-6.93,5.027-12.243,12.208-12.243c7.145,0,12.028,5.35,12.028,12.243
					c0,6.93-5.026,12.243-12.208,12.243C311.546,48.512,306.663,43.163,306.663,36.269z M326.697,36.269
					c0-4.919-3.339-8.474-7.899-8.474c-4.596,0-7.935,3.519-7.935,8.474c0,4.919,3.339,8.474,7.935,8.474
					C323.358,44.743,326.697,41.224,326.697,36.269z"/>
				<path fill="#6BADA2" d="M334.558,35.659h-1.831v-3.303h8.042v3.123h-2.262l3.77,8.187l3.77-8.187h-2.37v-3.123h8.006v3.303
					h-1.831l-6.247,12.71h-2.801L334.558,35.659z"/>
				<path fill="#6BADA2" d="M356.673,41.548c0.539,2.441,2.549,3.519,5.17,3.519c1.903,0,3.877-0.61,5.709-1.652l-0.323,3.52
					c-1.652,0.969-3.662,1.436-5.96,1.436c-5.134,0-8.689-3.231-8.689-8.114c0-4.452,3.124-8.186,7.971-8.186
					c5.026,0,7.647,3.374,7.647,7.539c0,0.61-0.072,1.4-0.18,1.939L356.673,41.548L356.673,41.548z M356.637,38.818h7.647
					c-0.072-2.153-1.472-3.59-3.77-3.59C358.791,35.228,357.067,36.233,356.637,38.818z"/>
				<path fill="#6BADA2" d="M384.425,34.654c0,1.328-1.042,2.441-2.334,2.441c-1.185,0-1.975-0.683-2.298-1.4
					c-1.113,0.395-2.405,1.615-3.124,2.979v6.176h2.729v3.231h-8.976V44.85h2.334v-9.191h-2.334v-3.303h6.104v3.554
					c1.328-2.118,2.98-3.841,4.991-3.841C383.456,32.069,384.425,33.254,384.425,34.654z"/>
				<path fill="#6BADA2" d="M385.645,43.953c0-2.944,2.585-4.739,6.319-4.739c1.616,0,3.124,0.215,3.985,0.431v-1.257
					c0-0.934-0.215-1.651-0.61-2.154c-0.646-0.825-1.688-1.148-3.088-1.148c-0.682,0-1.185,0.107-1.544,0.251
					c0.072,0.216,0.144,0.574,0.144,0.79c0,1.185-0.934,2.047-2.119,2.047s-2.083-0.826-2.083-2.118
					c0-1.939,1.975-3.985,6.248-3.985c2.693,0,4.524,0.754,5.637,2.118c0.826,1.005,1.221,2.369,1.221,3.949v6.714h2.334v3.231
					h-6.068v-1.724c-1.256,1.077-3.16,2.011-5.278,2.011C388.05,48.369,385.645,46.897,385.645,43.953z M395.949,44.132v-2.478
					c-0.897-0.216-2.011-0.359-3.231-0.359c-1.903,0-3.052,0.862-3.052,2.298c0,1.257,0.934,1.939,2.334,1.939
					C393.399,45.533,394.764,44.994,395.949,44.132z"/>
				<path fill="#6BADA2" d="M403.343,44.85h2.441V25.103h-2.441V21.8h6.355v23.05h2.333v3.231h-8.688L403.343,44.85L403.343,44.85z"
					/>
				<path fill="#6BADA2" d="M413.935,44.85h2.441V25.103h-2.441V21.8h6.355v23.05h2.334v3.231h-8.689L413.935,44.85L413.935,44.85z"
					/>
			</g>
			<g enable-background="new    ">
				<path fill="#4D4D4F" d="M438.378,53.119c-1.161-1.465-2.143-3.179-2.944-5.143c-0.803-1.963-1.204-3.996-1.204-6.1
					c0-1.854,0.3-3.631,0.899-5.329c0.701-1.972,1.784-3.935,3.249-5.891h1.508c-0.942,1.621-1.565,2.778-1.87,3.472
					c-0.475,1.074-0.85,2.196-1.121,3.365c-0.336,1.457-0.503,2.922-0.503,4.395c0,3.747,1.165,7.49,3.494,11.23h-1.508V53.119z"/>
				<path fill="#4D4D4F" d="M442.574,48.082V30.95h2.324l9,13.45V30.95h2.173v17.132h-2.325l-8.999-13.463v13.463H442.574z"/>
				<path fill="#4D4D4F" d="M470.68,38.008h-11.312v-1.964h11.312V38.008z M470.68,43.209h-11.312v-1.964h11.312V43.209z"/>
				<path fill="#4D4D4F" d="M476.242,38.791c-0.873-0.319-1.52-0.774-1.939-1.367c-0.422-0.592-0.631-1.301-0.631-2.127
					c0-1.246,0.447-2.294,1.344-3.144c0.896-0.849,2.088-1.273,3.576-1.273c1.495,0,2.699,0.435,3.61,1.303
					c0.911,0.869,1.368,1.927,1.368,3.173c0,0.795-0.209,1.486-0.626,2.074c-0.417,0.589-1.05,1.042-1.899,1.361
					c1.053,0.343,1.853,0.896,2.402,1.66c0.549,0.764,0.824,1.675,0.824,2.734c0,1.465-0.52,2.695-1.555,3.692
					c-1.037,0.998-2.4,1.496-4.09,1.496c-1.691,0-3.055-0.5-4.091-1.502c-1.036-1.001-1.554-2.249-1.554-3.745
					c0-1.114,0.281-2.047,0.847-2.799C474.394,39.576,475.198,39.064,476.242,38.791z M475.144,43.138
					c0,0.6,0.142,1.181,0.427,1.741c0.284,0.561,0.707,0.995,1.268,1.303c0.561,0.309,1.165,0.462,1.812,0.462
					c1.005,0,1.835-0.323,2.489-0.97s0.982-1.469,0.982-2.466c0-1.013-0.338-1.851-1.012-2.513s-1.518-0.993-2.529-0.993
					c-0.99,0-1.811,0.327-2.461,0.981S475.144,42.157,475.144,43.138z M475.821,35.226c0,0.811,0.261,1.473,0.783,1.987
					c0.522,0.514,1.2,0.771,2.033,0.771c0.811,0,1.475-0.256,1.993-0.766c0.518-0.511,0.777-1.136,0.777-1.876
					c0-0.771-0.268-1.42-0.801-1.945c-0.534-0.526-1.198-0.789-1.992-0.789c-0.803,0-1.469,0.257-1.999,0.771
					C476.086,33.894,475.821,34.51,475.821,35.226z"/>
				<path fill="#4D4D4F" d="M486.631,44.12l2.021-0.187c0.172,0.95,0.499,1.64,0.982,2.068c0.482,0.429,1.102,0.643,1.857,0.643
					c0.646,0,1.214-0.147,1.701-0.444c0.486-0.296,0.886-0.691,1.197-1.186c0.312-0.495,0.572-1.163,0.783-2.005
					c0.211-0.841,0.315-1.698,0.315-2.57c0-0.094-0.004-0.234-0.012-0.421c-0.421,0.67-0.995,1.214-1.724,1.63
					c-0.729,0.417-1.518,0.625-2.366,0.625c-1.419,0-2.618-0.514-3.6-1.542s-1.473-2.384-1.473-4.067
					c0-1.737,0.513-3.136,1.537-4.195s2.308-1.589,3.851-1.589c1.113,0,2.133,0.3,3.057,0.899c0.922,0.601,1.623,1.455,2.104,2.565
					c0.479,1.11,0.719,2.717,0.719,4.82c0,2.189-0.238,3.933-0.713,5.229c-0.477,1.298-1.184,2.285-2.121,2.963
					c-0.939,0.678-2.04,1.017-3.303,1.017c-1.34,0-2.434-0.372-3.283-1.116C487.313,46.514,486.803,45.468,486.631,44.12z
					 M495.245,36.559c0-1.208-0.321-2.166-0.965-2.875c-0.643-0.709-1.416-1.063-2.319-1.063c-0.935,0-1.749,0.382-2.442,1.146
					s-1.04,1.753-1.04,2.968c0,1.091,0.329,1.978,0.987,2.659s1.471,1.022,2.438,1.022c0.973,0,1.773-0.341,2.4-1.022
					S495.245,37.766,495.245,36.559z"/>
				<path fill="#4D4D4F" d="M502.863,38.791c-0.872-0.319-1.519-0.774-1.939-1.367c-0.421-0.592-0.631-1.301-0.631-2.127
					c0-1.246,0.447-2.294,1.344-3.144c0.896-0.849,2.088-1.273,3.576-1.273c1.496,0,2.699,0.435,3.611,1.303
					c0.911,0.869,1.367,1.927,1.367,3.173c0,0.795-0.209,1.486-0.625,2.074c-0.418,0.589-1.051,1.042-1.899,1.361
					c1.052,0.343,1.853,0.896,2.401,1.66s0.824,1.675,0.824,2.734c0,1.465-0.519,2.695-1.555,3.692
					c-1.036,0.998-2.399,1.496-4.09,1.496c-1.691,0-3.055-0.5-4.09-1.502c-1.037-1.001-1.555-2.249-1.555-3.745
					c0-1.114,0.282-2.047,0.848-2.799C501.016,39.576,501.82,39.064,502.863,38.791z M501.766,43.138c0,0.6,0.142,1.181,0.426,1.741
					c0.285,0.561,0.707,0.995,1.269,1.303c0.561,0.309,1.165,0.462,1.812,0.462c1.005,0,1.834-0.323,2.488-0.97
					c0.655-0.646,0.982-1.469,0.982-2.466c0-1.013-0.338-1.851-1.012-2.513s-1.517-0.993-2.529-0.993c-0.99,0-1.81,0.327-2.46,0.981
					C502.091,41.339,501.766,42.157,501.766,43.138z M502.443,35.226c0,0.811,0.261,1.473,0.783,1.987
					c0.521,0.514,1.199,0.771,2.033,0.771c0.811,0,1.475-0.256,1.992-0.766c0.518-0.511,0.777-1.136,0.777-1.876
					c0-0.771-0.268-1.42-0.801-1.945c-0.533-0.526-1.197-0.789-1.992-0.789c-0.803,0-1.469,0.257-1.998,0.771
					C502.708,33.894,502.443,34.51,502.443,35.226z"/>
				<path fill="#4D4D4F" d="M514.901,53.119h-1.507c2.329-3.74,3.494-7.483,3.494-11.23c0-1.465-0.167-2.918-0.503-4.359
					c-0.265-1.169-0.635-2.291-1.109-3.366c-0.305-0.701-0.932-1.869-1.882-3.506h1.507c1.465,1.956,2.549,3.919,3.25,5.891
					c0.6,1.698,0.899,3.475,0.899,5.329c0,2.104-0.403,4.137-1.21,6.1C517.034,49.94,516.055,51.654,514.901,53.119z"/>
			</g>
			<g enable-background="new    ">
				<path fill="#4D4D4F" d="M332.352,87.273V70.141h5.177l3.108,11.686l3.074-11.686h5.189v17.132h-3.214V73.787l-3.401,13.486
					h-3.331l-3.389-13.486v13.486H332.352z"/>
				<path fill="#4D4D4F" d="M359.5,83.323l3.272,0.55c-0.421,1.199-1.085,2.113-1.993,2.74s-2.043,0.94-3.406,0.94
					c-2.158,0-3.755-0.705-4.792-2.115c-0.818-1.129-1.227-2.555-1.227-4.277c0-2.057,0.538-3.667,1.613-4.832
					s2.435-1.747,4.078-1.747c1.847,0,3.303,0.609,4.371,1.829c1.067,1.219,1.578,3.087,1.531,5.604h-8.227
					c0.023,0.974,0.288,1.731,0.794,2.272c0.506,0.542,1.138,0.812,1.893,0.812c0.514,0,0.947-0.14,1.297-0.421
					C359.055,84.398,359.32,83.947,359.5,83.323z M359.686,80.005c-0.023-0.951-0.269-1.674-0.736-2.168
					c-0.468-0.495-1.037-0.742-1.707-0.742c-0.717,0-1.309,0.261-1.776,0.783c-0.467,0.521-0.697,1.23-0.689,2.127H359.686z"/>
				<path fill="#4D4D4F" d="M377.007,87.273h-3.05V85.45c-0.506,0.709-1.104,1.237-1.794,1.584s-1.385,0.52-2.086,0.52
					c-1.426,0-2.647-0.574-3.664-1.724s-1.525-2.752-1.525-4.809c0-2.104,0.495-3.703,1.484-4.798
					c0.989-1.094,2.24-1.642,3.751-1.642c1.387,0,2.586,0.576,3.599,1.729v-6.17h3.284L377.007,87.273L377.007,87.273z
					 M368.241,80.798c0,1.325,0.183,2.283,0.549,2.875c0.53,0.857,1.27,1.286,2.221,1.286c0.755,0,1.398-0.322,1.928-0.965
					s0.794-1.603,0.794-2.881c0-1.426-0.257-2.452-0.771-3.079s-1.173-0.94-1.975-0.94c-0.779,0-1.432,0.31-1.958,0.929
					S368.241,79.568,368.241,80.798z"/>
				<path fill="#4D4D4F" d="M380.243,73.179v-3.038h3.284v3.038H380.243z M380.243,87.273V74.862h3.284v12.411H380.243z"/>
				<path fill="#4D4D4F" d="M389.346,78.648l-2.98-0.537c0.335-1.2,0.912-2.088,1.729-2.665c0.818-0.576,2.034-0.864,3.646-0.864
					c1.464,0,2.555,0.174,3.272,0.52c0.717,0.348,1.221,0.787,1.514,1.321c0.292,0.533,0.438,1.513,0.438,2.938l-0.035,3.834
					c0,1.091,0.053,1.895,0.158,2.413c0.105,0.518,0.302,1.073,0.59,1.665h-3.249c-0.086-0.218-0.191-0.541-0.316-0.97
					c-0.054-0.195-0.093-0.323-0.117-0.386c-0.561,0.545-1.161,0.954-1.8,1.227c-0.639,0.273-1.32,0.409-2.045,0.409
					c-1.278,0-2.285-0.347-3.021-1.04s-1.104-1.569-1.104-2.629c0-0.701,0.167-1.327,0.502-1.876c0.335-0.55,0.805-0.97,1.408-1.263
					c0.604-0.292,1.475-0.547,2.612-0.765c1.535-0.288,2.598-0.558,3.19-0.807v-0.327c0-0.631-0.156-1.081-0.467-1.35
					c-0.312-0.27-0.9-0.403-1.765-0.403c-0.584,0-1.04,0.115-1.367,0.345S389.549,78.072,389.346,78.648z M393.74,81.313
					c-0.42,0.14-1.086,0.308-1.998,0.502c-0.912,0.195-1.508,0.386-1.788,0.573c-0.429,0.304-0.643,0.689-0.643,1.157
					c0,0.459,0.171,0.856,0.514,1.191c0.343,0.335,0.779,0.503,1.309,0.503c0.592,0,1.157-0.195,1.695-0.585
					c0.397-0.296,0.658-0.658,0.783-1.087c0.086-0.28,0.128-0.813,0.128-1.601V81.313z"/>
				<path fill="#4D4D4F" d="M411.492,87.273h-3.284v-6.334c0-1.34-0.07-2.207-0.21-2.601c-0.14-0.393-0.368-0.699-0.684-0.917
					s-0.695-0.327-1.14-0.327c-0.568,0-1.079,0.156-1.531,0.468s-0.762,0.724-0.929,1.238s-0.251,1.465-0.251,2.852v5.621h-3.284
					V74.862h3.05v1.823c1.083-1.402,2.446-2.104,4.09-2.104c0.725,0,1.387,0.131,1.987,0.392s1.053,0.594,1.361,0.999
					s0.522,0.865,0.642,1.379c0.121,0.515,0.182,1.251,0.182,2.209L411.492,87.273L411.492,87.273z"/>
				<path fill="#4D4D4F" d="M423.927,78.648l-2.979-0.537c0.335-1.2,0.911-2.088,1.729-2.665c0.818-0.576,2.033-0.864,3.646-0.864
					c1.465,0,2.555,0.174,3.271,0.52c0.717,0.348,1.222,0.787,1.514,1.321c0.293,0.533,0.438,1.513,0.438,2.938l-0.035,3.834
					c0,1.091,0.053,1.895,0.158,2.413c0.104,0.518,0.302,1.073,0.59,1.665h-3.249c-0.086-0.218-0.191-0.541-0.315-0.97
					c-0.054-0.195-0.093-0.323-0.116-0.386c-0.562,0.545-1.162,0.954-1.801,1.227c-0.639,0.273-1.32,0.409-2.045,0.409
					c-1.277,0-2.284-0.347-3.021-1.04s-1.104-1.569-1.104-2.629c0-0.701,0.168-1.327,0.502-1.876c0.336-0.55,0.805-0.97,1.408-1.263
					c0.604-0.292,1.475-0.547,2.613-0.765c1.534-0.288,2.598-0.558,3.189-0.807v-0.327c0-0.631-0.156-1.081-0.467-1.35
					c-0.312-0.27-0.9-0.403-1.766-0.403c-0.584,0-1.039,0.115-1.367,0.345C424.396,77.669,424.13,78.072,423.927,78.648z
					 M428.32,81.313c-0.42,0.14-1.086,0.308-1.998,0.502c-0.912,0.195-1.508,0.386-1.788,0.573
					c-0.429,0.304-0.643,0.689-0.643,1.157c0,0.459,0.171,0.856,0.515,1.191c0.342,0.335,0.778,0.503,1.309,0.503
					c0.592,0,1.156-0.195,1.694-0.585c0.397-0.296,0.658-0.658,0.782-1.087c0.086-0.28,0.129-0.813,0.129-1.601V81.313z"/>
				<path fill="#4D4D4F" d="M434.48,88.091l3.751,0.455c0.062,0.437,0.207,0.736,0.433,0.9c0.312,0.233,0.802,0.351,1.473,0.351
					c0.856,0,1.499-0.129,1.929-0.386c0.287-0.172,0.506-0.448,0.654-0.83c0.101-0.272,0.151-0.775,0.151-1.507v-1.812
					c-0.981,1.34-2.22,2.01-3.716,2.01c-1.668,0-2.988-0.705-3.962-2.115c-0.764-1.114-1.146-2.501-1.146-4.16
					c0-2.08,0.5-3.67,1.502-4.769c1.001-1.099,2.246-1.647,3.734-1.647c1.534,0,2.801,0.674,3.797,2.021v-1.741h3.074v11.138
					c0,1.464-0.121,2.559-0.362,3.283s-0.581,1.294-1.017,1.706c-0.437,0.413-1.02,0.736-1.747,0.971
					c-0.729,0.233-1.649,0.351-2.765,0.351c-2.104,0-3.596-0.36-4.475-1.081c-0.881-0.721-1.321-1.635-1.321-2.74
					C434.469,88.38,434.472,88.247,434.48,88.091z M437.412,80.81c0,1.317,0.256,2.281,0.766,2.893
					c0.511,0.612,1.141,0.918,1.888,0.918c0.803,0,1.48-0.314,2.034-0.941c0.553-0.627,0.829-1.556,0.829-2.787
					c0-1.285-0.265-2.239-0.794-2.863c-0.531-0.623-1.201-0.935-2.011-0.935c-0.787,0-1.436,0.306-1.946,0.917
					C437.668,78.624,437.412,79.556,437.412,80.81z"/>
				<path fill="#4D4D4F" d="M456.591,83.323l3.272,0.55c-0.421,1.199-1.085,2.113-1.993,2.74c-0.907,0.627-2.043,0.94-3.406,0.94
					c-2.158,0-3.755-0.705-4.791-2.115c-0.818-1.129-1.227-2.555-1.227-4.277c0-2.057,0.537-3.667,1.612-4.832
					s2.435-1.747,4.078-1.747c1.847,0,3.304,0.609,4.371,1.829c1.067,1.219,1.577,3.087,1.53,5.604h-8.227
					c0.023,0.974,0.288,1.731,0.795,2.272c0.506,0.542,1.137,0.812,1.893,0.812c0.514,0,0.947-0.14,1.297-0.421
					C456.147,84.398,456.41,83.947,456.591,83.323z M456.777,80.005c-0.023-0.951-0.27-1.674-0.736-2.168
					c-0.468-0.495-1.037-0.742-1.707-0.742c-0.717,0-1.309,0.261-1.775,0.783c-0.468,0.521-0.697,1.23-0.689,2.127H456.777z"/>
				<path fill="#4D4D4F" d="M479.787,74.337l-3.178,0.351c-0.078-0.654-0.281-1.138-0.607-1.449
					c-0.328-0.312-0.752-0.468-1.274-0.468c-0.693,0-1.28,0.312-1.759,0.935c-0.479,0.624-0.781,1.921-0.906,3.892
					c0.818-0.966,1.836-1.448,3.051-1.448c1.371,0,2.545,0.521,3.523,1.565s1.467,2.392,1.467,4.044
					c0,1.753-0.515,3.159-1.543,4.219s-2.35,1.589-3.961,1.589c-1.73,0-3.152-0.672-4.266-2.016
					c-1.115-1.344-1.672-3.547-1.672-6.608c0-3.14,0.58-5.403,1.741-6.79s2.669-2.08,4.522-2.08c1.301,0,2.379,0.364,3.231,1.093
					C479.011,71.892,479.555,72.95,479.787,74.337z M472.344,81.5c0,1.067,0.245,1.892,0.736,2.472
					c0.49,0.581,1.051,0.871,1.683,0.871c0.607,0,1.114-0.237,1.519-0.713c0.406-0.476,0.608-1.254,0.608-2.337
					c0-1.114-0.218-1.931-0.655-2.449c-0.436-0.518-0.98-0.776-1.635-0.776c-0.632,0-1.166,0.247-1.602,0.742
					C472.563,79.803,472.344,80.534,472.344,81.5z"/>
				<path fill="#4D4D4F" d="M493.065,84.223v3.05h-11.511c0.125-1.153,0.498-2.246,1.121-3.278c0.624-1.032,1.855-2.401,3.693-4.107
					c1.48-1.379,2.389-2.314,2.723-2.805c0.452-0.678,0.678-1.348,0.678-2.01c0-0.732-0.196-1.296-0.59-1.689
					c-0.393-0.393-0.937-0.59-1.63-0.59c-0.687,0-1.231,0.206-1.636,0.619c-0.406,0.413-0.64,1.099-0.701,2.057l-3.273-0.327
					c0.195-1.807,0.807-3.104,1.836-3.892c1.027-0.786,2.313-1.18,3.855-1.18c1.691,0,3.02,0.455,3.986,1.367
					c0.965,0.911,1.448,2.045,1.448,3.4c0,0.771-0.138,1.506-0.415,2.203c-0.276,0.697-0.715,1.428-1.314,2.191
					c-0.397,0.506-1.114,1.234-2.15,2.186c-1.036,0.95-1.692,1.581-1.969,1.893s-0.501,0.616-0.672,0.912H493.065z"/>
			</g>
			<g enable-background="new    ">
				<path fill="#4D4D4F" d="M367.403,120.182v-3.333h-6.039v-1.566l6.352-9.021h1.396v9.021h1.88v1.566h-1.88v3.333H367.403z
					 M367.403,115.283v-6.276l-4.358,6.276H367.403z"/>
				<path fill="#4D4D4F" d="M372.74,116.536l1.794-0.151c0.133,0.873,0.442,1.53,0.926,1.97s1.068,0.66,1.752,0.66
					c0.823,0,1.519-0.31,2.089-0.931c0.57-0.62,0.854-1.443,0.854-2.469c0-0.975-0.273-1.744-0.821-2.308
					c-0.547-0.562-1.264-0.845-2.15-0.845c-0.551,0-1.048,0.125-1.491,0.375s-0.792,0.574-1.044,0.974l-1.605-0.209l1.349-7.15
					h6.922v1.634h-5.555l-0.75,3.741c0.835-0.583,1.712-0.874,2.63-0.874c1.215,0,2.241,0.421,3.077,1.263
					c0.835,0.842,1.253,1.925,1.253,3.248c0,1.26-0.367,2.349-1.102,3.266c-0.893,1.127-2.111,1.69-3.656,1.69
					c-1.266,0-2.299-0.354-3.1-1.063S372.853,117.708,372.74,116.536z"/>
				<path fill="#4D4D4F" d="M383.877,109.604c0-0.993,0.25-1.838,0.75-2.535c0.5-0.696,1.225-1.044,2.175-1.044
					c0.874,0,1.597,0.312,2.169,0.936c0.573,0.623,0.859,1.539,0.859,2.748c0,1.178-0.29,2.085-0.869,2.721
					c-0.58,0.637-1.293,0.954-2.142,0.954c-0.842,0-1.543-0.313-2.103-0.939C384.158,111.817,383.877,110.871,383.877,109.604z
					 M386.849,107.203c-0.424,0-0.777,0.184-1.059,0.55c-0.282,0.367-0.423,1.042-0.423,2.022c0,0.893,0.143,1.521,0.427,1.886
					c0.285,0.363,0.636,0.546,1.054,0.546c0.43,0,0.786-0.184,1.068-0.551s0.423-1.038,0.423-2.014c0-0.898-0.143-1.53-0.427-1.894
					C387.628,107.384,387.273,107.203,386.849,107.203z M386.858,120.695l7.615-14.67h1.386l-7.586,14.67H386.858z M392.878,116.916
					c0-1,0.25-1.847,0.75-2.54c0.5-0.692,1.228-1.039,2.184-1.039c0.874,0,1.597,0.312,2.169,0.935
					c0.573,0.624,0.859,1.54,0.859,2.749c0,1.178-0.29,2.084-0.869,2.721c-0.579,0.636-1.296,0.954-2.151,0.954
					c-0.842,0-1.543-0.314-2.103-0.944S392.878,118.175,392.878,116.916z M395.86,114.513c-0.431,0-0.787,0.184-1.068,0.551
					c-0.282,0.367-0.423,1.042-0.423,2.022c0,0.887,0.143,1.514,0.427,1.88c0.285,0.367,0.636,0.551,1.054,0.551
					c0.437,0,0.796-0.184,1.078-0.551c0.282-0.366,0.422-1.038,0.422-2.013c0-0.898-0.142-1.53-0.427-1.895
					C396.639,114.696,396.284,114.513,395.86,114.513z"/>
				<path fill="#4D4D4F" d="M407.132,120.182v-8.755h-1.51v-1.329h1.51v-1.073c0-0.677,0.06-1.18,0.181-1.51
					c0.165-0.442,0.454-0.802,0.869-1.077s0.996-0.413,1.743-0.413c0.481,0,1.013,0.057,1.595,0.171l-0.256,1.49
					c-0.355-0.062-0.69-0.095-1.007-0.095c-0.519,0-0.886,0.111-1.102,0.332c-0.215,0.222-0.323,0.637-0.323,1.244v0.931h1.966
					v1.329h-1.966v8.755L407.132,120.182L407.132,120.182z"/>
				<path fill="#4D4D4F" d="M419.029,116.935l1.766,0.218c-0.279,1.032-0.795,1.833-1.548,2.402
					c-0.753,0.57-1.716,0.854-2.887,0.854c-1.476,0-2.645-0.454-3.509-1.362c-0.863-0.908-1.296-2.183-1.296-3.821
					c0-1.697,0.437-3.014,1.311-3.95c0.874-0.938,2.007-1.405,3.399-1.405c1.348,0,2.449,0.459,3.305,1.377
					c0.854,0.918,1.281,2.209,1.281,3.874c0,0.101-0.003,0.253-0.01,0.455h-7.52c0.062,1.108,0.377,1.956,0.939,2.545
					c0.563,0.589,1.266,0.883,2.108,0.883c0.626,0,1.161-0.164,1.604-0.493S418.771,117.657,419.029,116.935z M413.417,114.172
					h5.631c-0.076-0.848-0.292-1.484-0.646-1.908c-0.545-0.658-1.25-0.987-2.117-0.987c-0.785,0-1.445,0.263-1.98,0.788
					S413.475,113.292,413.417,114.172z"/>
				<path fill="#4D4D4F" d="M422.94,120.182v-10.084h1.528v1.415c0.316-0.494,0.738-0.891,1.264-1.191s1.123-0.451,1.795-0.451
					c0.746,0,1.359,0.155,1.837,0.465c0.478,0.311,0.815,0.744,1.011,1.301c0.798-1.177,1.836-1.766,3.115-1.766
					c1,0,1.769,0.276,2.307,0.83c0.538,0.555,0.807,1.407,0.807,2.56v6.922h-1.699v-6.353c0-0.684-0.055-1.176-0.166-1.477
					c-0.111-0.3-0.312-0.542-0.604-0.727c-0.291-0.183-0.633-0.274-1.025-0.274c-0.709,0-1.297,0.235-1.766,0.707
					s-0.703,1.227-0.703,2.265v5.858h-1.709v-6.552c0-0.76-0.139-1.329-0.418-1.709c-0.277-0.38-0.734-0.569-1.367-0.569
					c-0.48,0-0.926,0.126-1.334,0.379c-0.408,0.254-0.704,0.624-0.888,1.111s-0.274,1.19-0.274,2.108v5.231h-1.711V120.182z"/>
				<path fill="#4D4D4F" d="M445.719,118.938c-0.633,0.538-1.242,0.918-1.827,1.14s-1.214,0.332-1.885,0.332
					c-1.108,0-1.96-0.271-2.554-0.812c-0.596-0.541-0.893-1.232-0.893-2.074c0-0.494,0.111-0.945,0.336-1.354
					s0.52-0.736,0.884-0.982c0.364-0.247,0.774-0.434,1.229-0.561c0.336-0.089,0.842-0.174,1.52-0.257
					c1.38-0.164,2.396-0.36,3.048-0.588c0.007-0.234,0.009-0.383,0.009-0.446c0-0.696-0.16-1.188-0.484-1.472
					c-0.436-0.387-1.085-0.58-1.945-0.58c-0.805,0-1.398,0.142-1.781,0.423c-0.383,0.282-0.666,0.78-0.85,1.496l-1.671-0.229
					c0.151-0.715,0.401-1.293,0.75-1.732c0.349-0.44,0.852-0.779,1.51-1.017s1.421-0.355,2.288-0.355
					c0.861,0,1.561,0.101,2.099,0.304c0.538,0.202,0.934,0.457,1.187,0.765c0.254,0.307,0.431,0.694,0.532,1.163
					c0.058,0.291,0.085,0.816,0.085,1.576v2.278c0,1.589,0.037,2.594,0.109,3.015s0.217,0.825,0.432,1.211h-1.784
					C445.884,119.828,445.771,119.413,445.719,118.938z M445.578,115.122c-0.62,0.253-1.552,0.468-2.792,0.646
					c-0.702,0.102-1.199,0.215-1.49,0.342s-0.516,0.312-0.674,0.556c-0.158,0.243-0.238,0.514-0.238,0.812
					c0,0.456,0.173,0.836,0.518,1.14c0.346,0.304,0.85,0.455,1.515,0.455c0.658,0,1.244-0.144,1.757-0.432s0.889-0.682,1.13-1.183
					c0.184-0.386,0.275-0.955,0.275-1.709v-0.627H445.578z"/>
				<path fill="#4D4D4F" d="M449.917,120.182v-13.92h1.709v13.92H449.917z"/>
				<path fill="#4D4D4F" d="M461.178,116.935l1.766,0.218c-0.278,1.032-0.794,1.833-1.547,2.402
					c-0.754,0.57-1.716,0.854-2.887,0.854c-1.476,0-2.645-0.454-3.509-1.362s-1.296-2.183-1.296-3.821
					c0-1.697,0.437-3.014,1.311-3.95c0.873-0.938,2.006-1.405,3.398-1.405c1.349,0,2.45,0.459,3.305,1.377s1.281,2.209,1.281,3.874
					c0,0.101-0.002,0.253-0.009,0.455h-7.521c0.063,1.108,0.377,1.956,0.94,2.545s1.266,0.883,2.108,0.883
					c0.626,0,1.161-0.164,1.604-0.493C460.566,118.182,460.918,117.657,461.178,116.935z M455.566,114.172h5.631
					c-0.076-0.848-0.292-1.484-0.646-1.908c-0.545-0.658-1.25-0.987-2.117-0.987c-0.785,0-1.445,0.263-1.98,0.788
					S455.623,113.292,455.566,114.172z"/>
			</g>
			<g enable-background="new    ">
				<path fill="#4D4D4F" d="M305.576,140.978v1.643h-9.201c-0.013-0.411,0.054-0.807,0.199-1.187
					c0.234-0.627,0.609-1.244,1.125-1.852s1.261-1.311,2.236-2.108c1.513-1.24,2.535-2.224,3.067-2.948s0.798-1.41,0.798-2.056
					c0-0.678-0.242-1.249-0.727-1.714s-1.116-0.698-1.895-0.698c-0.823,0-1.481,0.247-1.975,0.741
					c-0.494,0.493-0.744,1.177-0.75,2.051l-1.756-0.181c0.12-1.311,0.573-2.309,1.358-2.995c0.785-0.688,1.839-1.03,3.162-1.03
					c1.335,0,2.393,0.37,3.171,1.11c0.779,0.741,1.168,1.659,1.168,2.754c0,0.557-0.114,1.104-0.342,1.643s-0.606,1.104-1.135,1.699
					c-0.528,0.596-1.407,1.412-2.635,2.45c-1.025,0.861-1.684,1.445-1.975,1.752s-0.532,0.615-0.722,0.926L305.576,140.978
					L305.576,140.978z"/>
				<path fill="#4D4D4F" d="M310.038,135.072c-0.709-0.26-1.234-0.63-1.577-1.11c-0.342-0.481-0.513-1.058-0.513-1.729
					c0-1.013,0.364-1.864,1.092-2.555c0.728-0.689,1.696-1.034,2.905-1.034c1.215,0,2.193,0.353,2.934,1.059
					s1.111,1.565,1.111,2.578c0,0.646-0.169,1.207-0.508,1.685c-0.339,0.479-0.853,0.847-1.543,1.106
					c0.854,0.278,1.505,0.729,1.951,1.349s0.669,1.361,0.669,2.222c0,1.19-0.421,2.19-1.263,3.001
					c-0.842,0.81-1.95,1.215-3.323,1.215c-1.374,0-2.482-0.406-3.324-1.22s-1.263-1.828-1.263-3.044
					c0-0.904,0.229-1.663,0.688-2.273C308.536,135.71,309.189,135.294,310.038,135.072z M309.145,138.604
					c0,0.487,0.115,0.959,0.346,1.415s0.575,0.809,1.03,1.059c0.456,0.25,0.946,0.375,1.472,0.375c0.817,0,1.491-0.263,2.022-0.788
					s0.798-1.193,0.798-2.004c0-0.822-0.274-1.503-0.821-2.041c-0.548-0.538-1.233-0.807-2.056-0.807
					c-0.804,0-1.47,0.266-1.999,0.797C309.409,137.142,309.145,137.806,309.145,138.604z M309.695,132.176
					c0,0.658,0.212,1.196,0.636,1.614c0.424,0.417,0.975,0.626,1.652,0.626c0.658,0,1.198-0.207,1.619-0.622
					c0.421-0.414,0.631-0.922,0.631-1.523c0-0.627-0.217-1.154-0.65-1.581c-0.434-0.428-0.974-0.641-1.619-0.641
					c-0.652,0-1.193,0.209-1.624,0.626C309.911,131.093,309.695,131.593,309.695,132.176z"/>
				<path fill="#4D4D4F" d="M318.546,132.043c0-0.993,0.25-1.838,0.75-2.535c0.5-0.696,1.225-1.044,2.175-1.044
					c0.874,0,1.597,0.312,2.169,0.936c0.573,0.623,0.859,1.539,0.859,2.748c0,1.178-0.29,2.085-0.869,2.721
					c-0.58,0.637-1.293,0.954-2.142,0.954c-0.842,0-1.543-0.313-2.103-0.939C318.826,134.256,318.546,133.309,318.546,132.043z
					 M321.517,129.641c-0.424,0-0.777,0.184-1.059,0.55c-0.282,0.367-0.423,1.042-0.423,2.022c0,0.893,0.143,1.521,0.427,1.886
					c0.285,0.363,0.636,0.546,1.054,0.546c0.43,0,0.786-0.184,1.068-0.551s0.423-1.038,0.423-2.014c0-0.898-0.143-1.53-0.427-1.894
					C322.296,129.823,321.941,129.641,321.517,129.641z M321.526,143.133l7.615-14.67h1.386l-7.586,14.67H321.526z M327.546,139.354
					c0-1,0.25-1.847,0.75-2.54c0.5-0.692,1.228-1.039,2.184-1.039c0.874,0,1.597,0.312,2.169,0.935
					c0.573,0.624,0.859,1.54,0.859,2.749c0,1.178-0.29,2.084-0.869,2.721c-0.579,0.636-1.296,0.954-2.151,0.954
					c-0.842,0-1.543-0.314-2.103-0.944S327.546,140.614,327.546,139.354z M330.528,136.952c-0.431,0-0.787,0.184-1.068,0.551
					c-0.282,0.367-0.423,1.042-0.423,2.022c0,0.887,0.143,1.514,0.427,1.88c0.285,0.367,0.636,0.551,1.054,0.551
					c0.437,0,0.796-0.184,1.078-0.551c0.282-0.366,0.422-1.038,0.422-2.013c0-0.898-0.142-1.53-0.427-1.895
					C331.307,137.134,330.952,136.952,330.528,136.952z"/>
				<path fill="#4D4D4F" d="M341.391,142.621v-13.92h1.709v4.994c0.797-0.924,1.804-1.386,3.019-1.386
					c0.747,0,1.396,0.146,1.947,0.441c0.551,0.294,0.945,0.701,1.182,1.22c0.237,0.52,0.356,1.272,0.356,2.26v6.391h-1.709v-6.391
					c0-0.854-0.185-1.477-0.556-1.865c-0.37-0.39-0.894-0.584-1.571-0.584c-0.506,0-0.983,0.131-1.429,0.394
					s-0.764,0.619-0.954,1.068s-0.285,1.07-0.285,1.861v5.517H341.391z"/>
				<path fill="#4D4D4F" d="M358.786,141.377c-0.633,0.538-1.242,0.918-1.828,1.14s-1.214,0.332-1.885,0.332
					c-1.108,0-1.959-0.271-2.554-0.812c-0.595-0.541-0.893-1.232-0.893-2.074c0-0.494,0.112-0.945,0.337-1.354
					s0.519-0.736,0.883-0.982c0.364-0.247,0.774-0.434,1.229-0.561c0.335-0.089,0.842-0.174,1.52-0.257
					c1.38-0.164,2.396-0.36,3.048-0.588c0.006-0.234,0.009-0.383,0.009-0.446c0-0.696-0.161-1.188-0.484-1.472
					c-0.437-0.387-1.085-0.58-1.946-0.58c-0.804,0-1.397,0.142-1.78,0.423c-0.383,0.282-0.667,0.78-0.85,1.496l-1.671-0.229
					c0.152-0.715,0.402-1.293,0.75-1.732c0.348-0.44,0.852-0.779,1.51-1.017s1.421-0.355,2.289-0.355
					c0.861,0,1.56,0.101,2.098,0.304c0.538,0.202,0.934,0.457,1.187,0.765c0.253,0.307,0.43,0.694,0.532,1.163
					c0.057,0.291,0.085,0.816,0.085,1.576v2.278c0,1.589,0.036,2.594,0.109,3.015c0.072,0.421,0.217,0.825,0.432,1.211h-1.785
					C358.951,142.266,358.836,141.851,358.786,141.377z M358.645,137.56c-0.621,0.253-1.551,0.468-2.792,0.646
					c-0.703,0.102-1.2,0.215-1.491,0.342c-0.292,0.127-0.516,0.312-0.674,0.556c-0.158,0.243-0.237,0.514-0.237,0.812
					c0,0.456,0.172,0.836,0.518,1.14c0.345,0.304,0.85,0.455,1.514,0.455c0.658,0,1.244-0.144,1.757-0.432s0.889-0.682,1.13-1.183
					c0.184-0.386,0.275-0.955,0.275-1.709V137.56z"/>
				<path fill="#4D4D4F" d="M369.563,142.621v-1.272c-0.64,1-1.58,1.5-2.82,1.5c-0.804,0-1.543-0.222-2.217-0.664
					c-0.674-0.443-1.196-1.062-1.566-1.856c-0.371-0.795-0.556-1.708-0.556-2.739c0-1.007,0.168-1.92,0.503-2.739
					c0.335-0.82,0.839-1.448,1.51-1.885c0.671-0.438,1.421-0.655,2.25-0.655c0.607,0,1.149,0.128,1.624,0.384
					c0.475,0.257,0.861,0.591,1.158,1.002v-4.994h1.7v13.92h-1.586V142.621z M364.16,137.589c0,1.291,0.272,2.257,0.816,2.896
					c0.544,0.64,1.187,0.959,1.928,0.959c0.747,0,1.381-0.305,1.904-0.916c0.522-0.61,0.783-1.543,0.783-2.796
					c0-1.38-0.266-2.394-0.797-3.039s-1.187-0.969-1.966-0.969c-0.76,0-1.394,0.311-1.904,0.931
					C364.415,135.275,364.16,136.253,364.16,137.589z"/>
				<path fill="#4D4D4F" d="M387.908,135.385l-9.22,3.94v-1.699l7.302-3.029l-7.302-2.991v-1.709l9.22,3.894V135.385z
					 M387.889,141.614h-9.191v-1.585h9.191V141.614z"/>
				<path fill="#4D4D4F" d="M394.839,138.974l1.794-0.151c0.133,0.873,0.442,1.53,0.926,1.97s1.068,0.66,1.752,0.66
					c0.823,0,1.519-0.31,2.089-0.931c0.57-0.62,0.854-1.443,0.854-2.469c0-0.975-0.273-1.744-0.821-2.308
					c-0.547-0.562-1.264-0.845-2.15-0.845c-0.551,0-1.048,0.125-1.491,0.375s-0.792,0.574-1.044,0.974l-1.605-0.209l1.349-7.15
					h6.922v1.634h-5.555l-0.75,3.741c0.835-0.583,1.712-0.874,2.63-0.874c1.215,0,2.241,0.421,3.077,1.263
					c0.835,0.842,1.253,1.925,1.253,3.248c0,1.26-0.367,2.349-1.102,3.266c-0.893,1.127-2.111,1.69-3.656,1.69
					c-1.266,0-2.299-0.354-3.1-1.063S394.953,140.146,394.839,138.974z"/>
				<path fill="#4D4D4F" d="M405.977,132.043c0-0.993,0.25-1.838,0.75-2.535c0.5-0.696,1.225-1.044,2.175-1.044
					c0.874,0,1.597,0.312,2.169,0.936c0.573,0.623,0.859,1.539,0.859,2.748c0,1.178-0.29,2.085-0.868,2.721
					c-0.58,0.637-1.293,0.954-2.142,0.954c-0.842,0-1.543-0.313-2.103-0.939C406.257,134.256,405.977,133.309,405.977,132.043z
					 M408.949,129.641c-0.424,0-0.777,0.184-1.059,0.55c-0.282,0.367-0.423,1.042-0.423,2.022c0,0.893,0.143,1.521,0.427,1.886
					c0.285,0.363,0.636,0.546,1.054,0.546c0.43,0,0.786-0.184,1.068-0.551s0.423-1.038,0.423-2.014c0-0.898-0.143-1.53-0.427-1.894
					C409.728,129.823,409.373,129.641,408.949,129.641z M408.959,143.133l7.616-14.67h1.386l-7.586,14.67H408.959z M414.979,139.354
					c0-1,0.25-1.847,0.75-2.54c0.5-0.692,1.229-1.039,2.184-1.039c0.874,0,1.598,0.312,2.17,0.935
					c0.573,0.624,0.859,1.54,0.859,2.749c0,1.178-0.289,2.084-0.869,2.721c-0.578,0.636-1.295,0.954-2.15,0.954
					c-0.842,0-1.543-0.314-2.104-0.944C415.259,141.559,414.979,140.614,414.979,139.354z M417.961,136.952
					c-0.431,0-0.786,0.184-1.067,0.551c-0.283,0.367-0.424,1.042-0.424,2.022c0,0.887,0.143,1.514,0.428,1.88
					c0.285,0.367,0.637,0.551,1.055,0.551c0.436,0,0.795-0.184,1.077-0.551c0.282-0.366,0.423-1.038,0.423-2.013
					c0-0.898-0.143-1.53-0.428-1.895C418.738,137.134,418.385,136.952,417.961,136.952z"/>
				<path fill="#4D4D4F" d="M430.685,142.621l-3.086-10.084h1.766l1.605,5.82l0.598,2.165c0.025-0.107,0.199-0.801,0.522-2.079
					l1.604-5.906h1.757l1.51,5.849l0.503,1.928l0.579-1.946l1.729-5.83h1.661l-3.152,10.084h-1.775l-1.604-6.039l-0.39-1.719
					l-2.041,7.758h-1.786V142.621z"/>
				<path fill="#4D4D4F" d="M449.771,139.374l1.766,0.218c-0.279,1.032-0.795,1.833-1.548,2.402
					c-0.753,0.57-1.716,0.854-2.887,0.854c-1.476,0-2.645-0.454-3.509-1.362c-0.863-0.908-1.296-2.183-1.296-3.821
					c0-1.697,0.437-3.014,1.311-3.95c0.874-0.938,2.007-1.405,3.399-1.405c1.348,0,2.449,0.459,3.305,1.377
					c0.854,0.918,1.281,2.209,1.281,3.874c0,0.101-0.003,0.253-0.01,0.455h-7.52c0.062,1.108,0.377,1.956,0.939,2.545
					c0.563,0.589,1.266,0.883,2.108,0.883c0.626,0,1.161-0.164,1.604-0.493S449.51,140.095,449.771,139.374z M444.157,136.61h5.631
					c-0.076-0.848-0.292-1.484-0.646-1.908c-0.545-0.658-1.25-0.987-2.117-0.987c-0.785,0-1.445,0.263-1.98,0.788
					S444.216,135.73,444.157,136.61z"/>
				<path fill="#4D4D4F" d="M453.69,130.667v-1.966h1.709v1.966H453.69z M453.69,142.621v-10.084h1.709v10.084H453.69z"/>
				<path fill="#4D4D4F" d="M457.688,143.457l1.662,0.246c0.069,0.513,0.262,0.887,0.579,1.121c0.424,0.316,1.003,0.475,1.737,0.475
					c0.791,0,1.402-0.158,1.833-0.475s0.722-0.76,0.874-1.329c0.088-0.349,0.129-1.08,0.123-2.194
					c-0.747,0.881-1.678,1.32-2.792,1.32c-1.386,0-2.459-0.5-3.219-1.5s-1.14-2.2-1.14-3.599c0-0.963,0.174-1.851,0.522-2.664
					c0.349-0.812,0.853-1.441,1.515-1.885c0.661-0.442,1.438-0.664,2.331-0.664c1.19,0,2.171,0.48,2.943,1.443v-1.216h1.576v8.717
					c0,1.569-0.159,2.683-0.479,3.338c-0.32,0.654-0.826,1.172-1.52,1.552s-1.546,0.57-2.559,0.57c-1.203,0-2.174-0.271-2.915-0.812
					C458.021,145.36,457.662,144.545,457.688,143.457z M459.104,137.398c0,1.323,0.263,2.289,0.788,2.896s1.184,0.911,1.975,0.911
					c0.785,0,1.443-0.302,1.976-0.906s0.798-1.553,0.798-2.844c0-1.234-0.274-2.165-0.822-2.792c-0.547-0.627-1.207-0.94-1.979-0.94
					c-0.76,0-1.406,0.309-1.938,0.926C459.368,135.266,459.104,136.183,459.104,137.398z"/>
				<path fill="#4D4D4F" d="M468.816,142.621v-13.92h1.709v4.994c0.798-0.924,1.805-1.386,3.02-1.386
					c0.747,0,1.396,0.146,1.947,0.441c0.551,0.294,0.944,0.701,1.182,1.22c0.237,0.52,0.355,1.272,0.355,2.26v6.391h-1.709v-6.391
					c0-0.854-0.185-1.477-0.555-1.865c-0.371-0.39-0.895-0.584-1.572-0.584c-0.506,0-0.982,0.131-1.429,0.394
					s-0.765,0.619-0.954,1.068s-0.285,1.07-0.285,1.861v5.517H468.816z"/>
				<path fill="#4D4D4F" d="M483.363,141.092l0.246,1.51c-0.48,0.101-0.911,0.151-1.291,0.151c-0.62,0-1.102-0.098-1.443-0.294
					s-0.582-0.454-0.721-0.774c-0.141-0.319-0.209-0.992-0.209-2.018v-5.802h-1.254v-1.329h1.254v-2.497l1.699-1.025v3.522h1.719
					v1.329h-1.719v5.896c0,0.488,0.029,0.801,0.09,0.94s0.158,0.25,0.295,0.332c0.136,0.083,0.33,0.124,0.584,0.124
					C482.803,141.159,483.053,141.136,483.363,141.092z"/>
				<path fill="#4D4D4F" d="M490.399,142.621v-13.92h1.71v13.92H490.399z"/>
				<path fill="#4D4D4F" d="M494.121,137.579c0-1.867,0.52-3.25,1.558-4.149c0.867-0.747,1.924-1.12,3.171-1.12
					c1.387,0,2.52,0.454,3.399,1.362s1.319,2.163,1.319,3.765c0,1.298-0.193,2.318-0.584,3.062
					c-0.389,0.744-0.955,1.321-1.699,1.732c-0.744,0.412-1.556,0.617-2.436,0.617c-1.412,0-2.553-0.452-3.423-1.357
					S494.121,139.282,494.121,137.579z M495.878,137.579c0,1.291,0.282,2.259,0.845,2.9c0.563,0.643,1.272,0.964,2.127,0.964
					c0.849,0,1.555-0.322,2.117-0.968c0.564-0.646,0.846-1.63,0.846-2.953c0-1.247-0.283-2.192-0.85-2.835
					c-0.566-0.642-1.271-0.964-2.113-0.964c-0.854,0-1.563,0.32-2.127,0.959C496.16,135.322,495.878,136.288,495.878,137.579z"/>
				<path fill="#4D4D4F" d="M504.889,139.611l1.69-0.266c0.095,0.677,0.358,1.196,0.792,1.557s1.041,0.541,1.818,0.541
					c0.785,0,1.367-0.159,1.748-0.479c0.379-0.319,0.569-0.694,0.569-1.125c0-0.386-0.168-0.689-0.503-0.911
					c-0.234-0.152-0.816-0.346-1.748-0.579c-1.253-0.316-2.121-0.591-2.605-0.821c-0.484-0.231-0.852-0.551-1.102-0.959
					c-0.25-0.409-0.375-0.859-0.375-1.354c0-0.449,0.103-0.865,0.309-1.249c0.205-0.383,0.485-0.7,0.84-0.954
					c0.266-0.196,0.629-0.362,1.088-0.498c0.459-0.137,0.951-0.204,1.477-0.204c0.791,0,1.485,0.113,2.084,0.342
					c0.598,0.228,1.039,0.536,1.324,0.926c0.285,0.389,0.48,0.91,0.589,1.562l-1.671,0.229c-0.076-0.52-0.297-0.925-0.66-1.216
					c-0.364-0.291-0.879-0.437-1.543-0.437c-0.785,0-1.346,0.13-1.681,0.389c-0.336,0.26-0.503,0.563-0.503,0.912
					c0,0.222,0.069,0.421,0.209,0.598c0.139,0.184,0.357,0.336,0.654,0.456c0.172,0.063,0.674,0.209,1.51,0.437
					c1.209,0.323,2.053,0.588,2.531,0.793c0.478,0.206,0.853,0.505,1.125,0.897c0.271,0.393,0.408,0.88,0.408,1.462
					c0,0.57-0.166,1.106-0.498,1.609c-0.333,0.504-0.812,0.893-1.439,1.168s-1.336,0.413-2.127,0.413
					c-1.311,0-2.309-0.271-2.996-0.816C505.518,141.488,505.078,140.68,504.889,139.611z"/>
				<path fill="#4D4D4F" d="M514.612,139.611l1.691-0.266c0.094,0.677,0.358,1.196,0.792,1.557s1.04,0.541,1.818,0.541
					c0.785,0,1.367-0.159,1.747-0.479c0.38-0.319,0.57-0.694,0.57-1.125c0-0.386-0.168-0.689-0.504-0.911
					c-0.234-0.152-0.816-0.346-1.747-0.579c-1.253-0.316-2.122-0.591-2.606-0.821c-0.484-0.231-0.852-0.551-1.102-0.959
					c-0.25-0.409-0.375-0.859-0.375-1.354c0-0.449,0.104-0.865,0.309-1.249c0.206-0.383,0.486-0.7,0.84-0.954
					c0.267-0.196,0.629-0.362,1.088-0.498c0.459-0.137,0.951-0.204,1.477-0.204c0.791,0,1.486,0.113,2.084,0.342
					c0.599,0.228,1.04,0.536,1.324,0.926c0.285,0.389,0.481,0.91,0.59,1.562l-1.672,0.229c-0.076-0.52-0.296-0.925-0.66-1.216
					c-0.363-0.291-0.878-0.437-1.543-0.437c-0.785,0-1.345,0.13-1.68,0.389c-0.336,0.26-0.504,0.563-0.504,0.912
					c0,0.222,0.07,0.421,0.209,0.598c0.139,0.184,0.357,0.336,0.655,0.456c0.171,0.063,0.674,0.209,1.51,0.437
					c1.209,0.323,2.052,0.588,2.53,0.793c0.479,0.206,0.854,0.505,1.125,0.897c0.272,0.393,0.408,0.88,0.408,1.462
					c0,0.57-0.166,1.106-0.498,1.609c-0.332,0.504-0.812,0.893-1.438,1.168c-0.627,0.275-1.336,0.413-2.127,0.413
					c-1.311,0-2.31-0.271-2.996-0.816C515.24,141.488,514.802,140.68,514.612,139.611z"/>
			</g>
			<g enable-background="new    ">
				<path fill="#4D4D4F" d="M361.957,163.814c-0.633,0.538-1.242,0.918-1.828,1.14s-1.214,0.332-1.885,0.332
					c-1.108,0-1.959-0.271-2.554-0.812c-0.595-0.541-0.893-1.232-0.893-2.074c0-0.494,0.112-0.945,0.337-1.354
					s0.519-0.736,0.883-0.982c0.364-0.247,0.774-0.434,1.229-0.561c0.335-0.089,0.842-0.174,1.52-0.257
					c1.38-0.164,2.396-0.36,3.048-0.588c0.006-0.234,0.009-0.383,0.009-0.446c0-0.696-0.161-1.188-0.484-1.472
					c-0.437-0.387-1.085-0.58-1.946-0.58c-0.804,0-1.397,0.142-1.78,0.423c-0.383,0.282-0.667,0.78-0.85,1.496l-1.671-0.229
					c0.152-0.715,0.402-1.293,0.75-1.732c0.348-0.44,0.852-0.779,1.51-1.017s1.421-0.355,2.289-0.355
					c0.861,0,1.56,0.101,2.098,0.304c0.538,0.202,0.934,0.457,1.187,0.765c0.253,0.307,0.43,0.694,0.532,1.163
					c0.057,0.291,0.085,0.816,0.085,1.576v2.278c0,1.589,0.036,2.594,0.109,3.015c0.072,0.421,0.217,0.825,0.432,1.211h-1.785
					C362.122,164.704,362.008,164.289,361.957,163.814z M361.815,159.998c-0.621,0.253-1.551,0.468-2.792,0.646
					c-0.703,0.102-1.2,0.215-1.491,0.342c-0.292,0.127-0.516,0.312-0.674,0.556c-0.158,0.243-0.237,0.514-0.237,0.812
					c0,0.456,0.172,0.836,0.518,1.14c0.345,0.304,0.85,0.455,1.514,0.455c0.658,0,1.244-0.144,1.757-0.432s0.889-0.682,1.13-1.183
					c0.184-0.386,0.275-0.955,0.275-1.709V159.998z"/>
				<path fill="#4D4D4F" d="M369.924,163.53l0.247,1.51c-0.481,0.101-0.912,0.151-1.291,0.151c-0.621,0-1.102-0.098-1.443-0.294
					s-0.583-0.454-0.722-0.774c-0.14-0.319-0.209-0.992-0.209-2.018v-5.802h-1.253v-1.329h1.253v-2.497l1.7-1.025v3.522h1.719v1.329
					h-1.719v5.896c0,0.488,0.03,0.801,0.09,0.94c0.06,0.14,0.158,0.25,0.294,0.332c0.136,0.083,0.331,0.124,0.584,0.124
					C369.363,163.596,369.613,163.574,369.924,163.53z"/>
				<path fill="#4D4D4F" d="M376.314,162.048l1.69-0.266c0.095,0.677,0.359,1.196,0.792,1.557c0.434,0.361,1.04,0.541,1.818,0.541
					c0.785,0,1.367-0.159,1.747-0.479c0.38-0.319,0.57-0.694,0.57-1.125c0-0.386-0.168-0.689-0.503-0.911
					c-0.234-0.152-0.816-0.346-1.747-0.579c-1.253-0.316-2.122-0.591-2.606-0.821c-0.484-0.231-0.851-0.551-1.101-0.959
					c-0.25-0.409-0.375-0.859-0.375-1.354c0-0.449,0.103-0.865,0.309-1.249c0.206-0.383,0.486-0.7,0.84-0.954
					c0.266-0.196,0.628-0.362,1.087-0.498c0.459-0.137,0.951-0.204,1.477-0.204c0.791,0,1.486,0.113,2.084,0.342
					c0.599,0.228,1.04,0.536,1.325,0.926c0.285,0.389,0.481,0.91,0.589,1.562l-1.671,0.229c-0.076-0.52-0.296-0.925-0.66-1.216
					c-0.364-0.291-0.878-0.437-1.543-0.437c-0.785,0-1.345,0.13-1.681,0.389c-0.336,0.26-0.503,0.563-0.503,0.912
					c0,0.222,0.07,0.421,0.209,0.598c0.139,0.184,0.357,0.336,0.655,0.456c0.171,0.063,0.674,0.209,1.51,0.437
					c1.209,0.323,2.052,0.588,2.53,0.793c0.478,0.206,0.853,0.505,1.125,0.897c0.272,0.393,0.409,0.88,0.409,1.462
					c0,0.57-0.167,1.106-0.499,1.609c-0.333,0.504-0.812,0.893-1.438,1.168c-0.627,0.275-1.336,0.413-2.127,0.413
					c-1.311,0-2.309-0.271-2.996-0.816C376.942,163.925,376.504,163.118,376.314,162.048z"/>
				<path fill="#4D4D4F" d="M390.453,163.53l0.247,1.51c-0.481,0.101-0.912,0.151-1.291,0.151c-0.621,0-1.102-0.098-1.443-0.294
					s-0.583-0.454-0.722-0.774c-0.14-0.319-0.209-0.992-0.209-2.018v-5.802h-1.253v-1.329h1.253v-2.497l1.7-1.025v3.522h1.719v1.329
					h-1.719v5.896c0,0.488,0.03,0.801,0.09,0.94c0.06,0.14,0.158,0.25,0.294,0.332c0.136,0.083,0.331,0.124,0.584,0.124
					C389.892,163.596,390.142,163.574,390.453,163.53z"/>
				<path fill="#4D4D4F" d="M398.732,165.058v-1.481c-0.785,1.14-1.852,1.709-3.2,1.709c-0.595,0-1.15-0.113-1.666-0.342
					c-0.516-0.228-0.899-0.514-1.149-0.859s-0.426-0.768-0.527-1.268c-0.069-0.335-0.104-0.867-0.104-1.595v-6.248h1.709v5.593
					c0,0.893,0.035,1.494,0.104,1.804c0.107,0.45,0.335,0.803,0.684,1.059c0.348,0.257,0.778,0.385,1.291,0.385
					c0.513,0,0.994-0.131,1.443-0.394c0.45-0.263,0.768-0.62,0.955-1.073c0.187-0.452,0.28-1.109,0.28-1.97v-5.403h1.709v10.084
					L398.732,165.058L398.732,165.058z"/>
				<path fill="#4D4D4F" d="M409.481,165.058v-1.272c-0.64,1-1.58,1.5-2.82,1.5c-0.804,0-1.543-0.222-2.217-0.664
					c-0.674-0.443-1.196-1.062-1.566-1.856c-0.371-0.795-0.556-1.708-0.556-2.739c0-1.007,0.168-1.92,0.503-2.739
					c0.335-0.82,0.839-1.448,1.51-1.885c0.671-0.438,1.421-0.655,2.25-0.655c0.607,0,1.149,0.128,1.624,0.384
					c0.475,0.257,0.861,0.591,1.158,1.002v-4.994h1.7v13.92h-1.586V165.058z M404.078,160.026c0,1.291,0.272,2.257,0.816,2.896
					c0.544,0.64,1.187,0.959,1.928,0.959c0.747,0,1.381-0.305,1.904-0.916c0.522-0.61,0.783-1.543,0.783-2.796
					c0-1.38-0.266-2.394-0.797-3.039s-1.187-0.969-1.966-0.969c-0.76,0-1.394,0.311-1.904,0.931
					C404.333,157.713,404.078,158.69,404.078,160.026z"/>
				<path fill="#4D4D4F" d="M413.678,168.942l-0.189-1.604c0.373,0.101,0.699,0.151,0.978,0.151c0.38,0,0.684-0.063,0.911-0.189
					c0.229-0.127,0.414-0.304,0.561-0.532c0.107-0.171,0.281-0.595,0.521-1.272c0.032-0.095,0.083-0.234,0.152-0.418l-3.826-10.103
					h1.842l2.099,5.84c0.272,0.74,0.516,1.519,0.731,2.336c0.195-0.785,0.43-1.551,0.702-2.298l2.155-5.878h1.709l-3.836,10.255
					c-0.411,1.107-0.73,1.87-0.959,2.288c-0.304,0.563-0.652,0.977-1.045,1.239s-0.86,0.395-1.404,0.395
					C414.449,169.151,414.082,169.081,413.678,168.942z"/>
				<path fill="#4D4D4F" d="M435.784,161.811l1.766,0.218c-0.279,1.032-0.795,1.833-1.548,2.402
					c-0.753,0.57-1.716,0.854-2.887,0.854c-1.476,0-2.645-0.454-3.509-1.362c-0.863-0.908-1.296-2.183-1.296-3.821
					c0-1.697,0.437-3.014,1.311-3.95c0.874-0.938,2.007-1.405,3.399-1.405c1.348,0,2.449,0.459,3.305,1.377
					c0.854,0.918,1.281,2.209,1.281,3.874c0,0.101-0.003,0.253-0.01,0.455h-7.52c0.062,1.108,0.377,1.956,0.939,2.545
					c0.563,0.589,1.266,0.883,2.108,0.883c0.626,0,1.161-0.164,1.604-0.493S435.523,162.533,435.784,161.811z M430.172,159.048
					h5.631c-0.076-0.848-0.292-1.484-0.646-1.908c-0.545-0.658-1.25-0.987-2.117-0.987c-0.785,0-1.445,0.263-1.98,0.788
					S430.229,158.168,430.172,159.048z"/>
				<path fill="#4D4D4F" d="M439.694,165.058v-10.084h1.538v1.434c0.74-1.107,1.811-1.661,3.209-1.661
					c0.608,0,1.167,0.109,1.677,0.327c0.509,0.219,0.891,0.505,1.144,0.859c0.254,0.354,0.431,0.775,0.532,1.263
					c0.063,0.316,0.095,0.871,0.095,1.662v6.2h-1.709v-6.134c0-0.696-0.066-1.217-0.199-1.562s-0.369-0.62-0.707-0.825
					c-0.34-0.206-0.736-0.309-1.192-0.309c-0.728,0-1.356,0.23-1.885,0.692c-0.528,0.463-0.792,1.339-0.792,2.631v5.507
					L439.694,165.058L439.694,165.058z"/>
				<path fill="#4D4D4F" d="M454.242,163.53l0.247,1.51c-0.481,0.101-0.912,0.151-1.291,0.151c-0.621,0-1.102-0.098-1.443-0.294
					s-0.583-0.454-0.723-0.774c-0.139-0.319-0.209-0.992-0.209-2.018v-5.802h-1.253v-1.329h1.253v-2.497l1.7-1.025v3.522h1.719
					v1.329h-1.719v5.896c0,0.488,0.03,0.801,0.091,0.94c0.06,0.14,0.157,0.25,0.293,0.332c0.137,0.083,0.332,0.124,0.584,0.124
					C453.681,163.596,453.931,163.574,454.242,163.53z"/>
				<path fill="#4D4D4F" d="M455.893,165.058v-10.084h1.539v1.528c0.393-0.715,0.755-1.187,1.087-1.414
					c0.333-0.229,0.698-0.342,1.097-0.342c0.576,0,1.162,0.184,1.757,0.551l-0.589,1.585c-0.418-0.246-0.836-0.37-1.254-0.37
					c-0.373,0-0.709,0.112-1.006,0.337c-0.298,0.226-0.51,0.537-0.637,0.936c-0.189,0.607-0.284,1.272-0.284,1.994v5.279H455.893z"
					/>
				<path fill="#4D4D4F" d="M462.313,168.942l-0.189-1.604c0.373,0.101,0.699,0.151,0.978,0.151c0.38,0,0.684-0.063,0.911-0.189
					c0.229-0.127,0.414-0.304,0.561-0.532c0.107-0.171,0.281-0.595,0.521-1.272c0.032-0.095,0.083-0.234,0.152-0.418l-3.826-10.103
					h1.842l2.099,5.84c0.272,0.74,0.516,1.519,0.731,2.336c0.195-0.785,0.43-1.551,0.702-2.298l2.155-5.878h1.709l-3.836,10.255
					c-0.411,1.107-0.73,1.87-0.959,2.288c-0.304,0.563-0.652,0.977-1.045,1.239s-0.86,0.395-1.404,0.395
					C463.084,169.151,462.717,169.081,462.313,168.942z"/>
			</g>
		</g>
	</g>
	
		<rect x="466.961" y="225.592" fill="#FFFFFF" stroke="#D7EDE6" stroke-width="4.4876" stroke-miterlimit="10" width="355.401" height="139.183"/>
	<g>
		<g enable-background="new    ">
			<path fill="#6BADA2" d="M29.719,281.128c0-6.93,5.027-12.243,12.208-12.243c7.145,0,12.028,5.35,12.028,12.243
				c0,6.93-5.026,12.243-12.208,12.243C34.602,293.371,29.719,288.021,29.719,281.128z M49.753,281.128
				c0-4.919-3.339-8.474-7.899-8.474c-4.596,0-7.935,3.519-7.935,8.474c0,4.919,3.339,8.474,7.935,8.474
				C46.414,289.601,49.753,286.083,49.753,281.128z"/>
			<path fill="#6BADA2" d="M56.537,296.746h2.333v-16.229h-2.333v-3.303h6.104v1.795c1.221-1.149,2.549-2.082,4.667-2.082
				c4.093,0,7.181,3.339,7.181,8.078c0,4.56-3.267,8.222-7.432,8.222c-1.687,0-3.087-0.61-4.272-1.508v5.026h2.549v3.231h-8.796
				L56.537,296.746L56.537,296.746z M70.467,285.042c0-3.017-1.795-4.74-4.021-4.74c-1.472,0-2.621,0.646-3.662,1.58v6.75
				c1.005,0.718,2.226,1.221,3.662,1.221C68.528,289.852,70.467,288.165,70.467,285.042z"/>
			<path fill="#6BADA2" d="M79.621,291.073c-0.359-0.646-0.539-1.472-0.539-2.478v-8.078H76.03v-3.303h3.052v-3.304l3.877-1.688
				v4.991h4.775v3.303h-4.775v7.324c0,0.503,0.072,0.826,0.251,1.149c0.287,0.502,0.862,0.754,1.651,0.754
				c1.005,0,2.154-0.396,3.088-0.826l-0.323,3.375c-1.077,0.539-2.333,0.934-3.77,0.934
				C81.955,293.227,80.411,292.581,79.621,291.073z"/>
			<path fill="#6BADA2" d="M90.104,289.709h2.406v-9.191h-2.406v-3.303h6.319v12.494h2.333v3.231h-8.653v-3.231H90.104z
				 M91.468,272.223c0-1.436,1.257-2.585,2.657-2.585s2.585,1.149,2.585,2.585c0,1.437-1.257,2.585-2.657,2.585
				C92.653,274.808,91.468,273.66,91.468,272.223z"/>
			<path fill="#6BADA2" d="M112.291,282.815c-1.257,0-2.118-0.754-2.118-1.938c0-0.252,0-0.467,0.072-0.683
				c-0.646-0.251-1.437-0.395-2.226-0.395c-1.759,0-2.621,0.79-2.621,1.615c0,0.897,0.897,1.364,3.303,2.011
				c3.77,1.006,5.96,1.938,5.96,4.775c0,3.303-3.088,5.062-6.642,5.062c-2.406,0-4.991-0.861-6.032-1.903
				c-0.646-0.646-0.898-1.292-0.898-2.118c0-1.148,0.862-2.118,2.083-2.118c1.077,0,2.118,0.718,2.118,2.082
				c0,0.216-0.036,0.432-0.072,0.646c0.718,0.287,1.724,0.503,2.836,0.503c1.58,0,2.873-0.539,2.873-1.688
				c0-0.79-0.682-1.257-3.088-1.903c-4.344-1.148-6.175-2.189-6.175-4.883c0-2.441,2.01-4.99,6.427-4.99
				c1.903,0,4.201,0.718,5.278,1.795c0.574,0.574,0.862,1.257,0.862,2.011C114.23,281.954,113.44,282.815,112.291,282.815z"/>
			<path fill="#6BADA2" d="M120.009,291.073c-0.359-0.646-0.539-1.472-0.539-2.478v-8.078h-3.052v-3.303h3.052v-3.304l3.877-1.688
				v4.991h4.775v3.303h-4.775v7.324c0,0.503,0.072,0.826,0.251,1.149c0.287,0.502,0.862,0.754,1.651,0.754
				c1.005,0,2.154-0.396,3.088-0.826l-0.323,3.375c-1.077,0.539-2.333,0.934-3.77,0.934
				C122.342,293.227,120.799,292.581,120.009,291.073z"/>
			<path fill="#6BADA2" d="M130.599,288.811c0-2.944,2.585-4.739,6.319-4.739c1.616,0,3.124,0.215,3.985,0.431v-1.257
				c0-0.934-0.215-1.651-0.61-2.154c-0.646-0.825-1.688-1.148-3.088-1.148c-0.682,0-1.185,0.107-1.544,0.251
				c0.072,0.216,0.144,0.574,0.144,0.79c0,1.185-0.934,2.047-2.119,2.047s-2.083-0.826-2.083-2.118c0-1.939,1.975-3.985,6.248-3.985
				c2.693,0,4.524,0.754,5.637,2.118c0.826,1.005,1.221,2.369,1.221,3.949v6.714h2.334v3.231h-6.068v-1.724
				c-1.256,1.077-3.16,2.011-5.278,2.011C133.004,293.227,130.599,291.756,130.599,288.811z M140.903,288.991v-2.478
				c-0.897-0.216-2.011-0.359-3.231-0.359c-1.903,0-3.052,0.862-3.052,2.298c0,1.257,0.934,1.939,2.334,1.939
				C138.354,290.391,139.719,289.852,140.903,288.991z"/>
			<path fill="#6BADA2" d="M148.98,280.517h-1.831v-3.303h8.042v3.123h-2.262l3.77,8.187l3.77-8.187h-2.37v-3.123h8.006v3.303
				h-1.831l-6.247,12.71h-2.801L148.98,280.517z"/>
			<path fill="#6BADA2" d="M167.433,289.709h2.406v-9.191h-2.406v-3.303h6.319v12.494h2.333v3.231h-8.653L167.433,289.709
				L167.433,289.709z M168.797,272.223c0-1.436,1.257-2.585,2.657-2.585c1.4,0,2.585,1.149,2.585,2.585
				c0,1.437-1.257,2.585-2.657,2.585C169.982,274.808,168.797,273.66,168.797,272.223z"/>
			<path fill="#6BADA2" d="M184.451,279.727c1.508-1.472,3.195-2.8,5.493-2.8c1.867,0,3.231,0.754,4.057,2.01
				c0.539,0.862,0.826,1.939,0.826,3.231v7.54h2.334v3.231h-8.401v-3.231h2.154v-6.57c0-0.646-0.107-1.221-0.323-1.615
				c-0.359-0.683-1.005-1.042-1.939-1.042c-1.364,0-2.801,0.79-4.057,1.831v7.396h2.154v3.231h-8.402v-3.231h2.334v-9.191h-2.334
				v-3.303h6.104V279.727z"/>
			<path fill="#6BADA2" d="M212.308,284.431h-4.811v-3.304h4.811v-4.811h3.303v4.811h4.811v3.304h-4.811v4.811h-3.303V284.431z"/>
			<path fill="#6BADA2" d="M231.406,284.933c0-4.093,3.303-8.006,7.971-8.006c4.309,0,7.145,2.8,7.145,5.277
				c0,1.651-1.113,2.657-2.513,2.657c-1.293,0-2.37-1.077-2.37-2.37c0-0.467,0.216-1.005,0.503-1.328
				c-0.287-0.396-1.257-1.077-2.801-1.077c-1.795,0-4.021,1.472-4.021,4.919c0,3.016,2.298,4.919,5.098,4.919
				c1.903,0,3.555-0.539,5.601-1.652l-0.323,3.52c-1.687,0.969-3.303,1.436-5.601,1.436
				C235.14,293.227,231.406,289.996,231.406,284.933z"/>
			<path fill="#6BADA2" d="M249.033,269.962v-3.303h6.247v12.925c1.472-1.4,3.124-2.656,5.35-2.656c1.688,0,3.016,0.61,3.842,1.688
				c0.682,0.897,1.042,2.118,1.042,3.554v7.54h2.333v3.231h-8.401v-3.231h2.154v-6.57c0-0.861-0.18-1.472-0.503-1.903
				c-0.395-0.502-1.005-0.754-1.759-0.754c-1.364,0-2.8,0.79-4.057,1.831v7.396h2.154v3.231h-8.401v-3.231h2.333v-19.747
				L249.033,269.962L249.033,269.962z"/>
			<path fill="#6BADA2" d="M273.482,286.406c0.539,2.441,2.549,3.519,5.17,3.519c1.903,0,3.877-0.61,5.709-1.652l-0.323,3.52
				c-1.652,0.969-3.662,1.436-5.96,1.436c-5.134,0-8.689-3.231-8.689-8.114c0-4.452,3.124-8.186,7.971-8.186
				c5.026,0,7.647,3.374,7.647,7.539c0,0.61-0.072,1.4-0.18,1.939L273.482,286.406L273.482,286.406z M273.446,283.676h7.647
				c-0.072-2.153-1.472-3.59-3.77-3.59C275.6,280.087,273.877,281.091,273.446,283.676z"/>
			<path fill="#6BADA2" d="M287.231,289.709h2.334v-9.191h-2.334v-3.303h6.104v2.477c1.221-1.328,2.944-2.764,5.278-2.764
				c1.688,0,2.944,0.646,3.734,1.688c0.215,0.287,0.359,0.574,0.503,0.897c1.472-1.437,3.231-2.585,5.242-2.585
				c2.19,0,3.698,0.789,4.488,2.262c0.431,0.79,0.646,1.795,0.646,2.944v7.575h2.334v3.231h-8.366v-3.231h2.118v-6.643
				c0-0.61-0.072-1.077-0.251-1.472c-0.323-0.754-0.969-1.113-1.867-1.113c-1.292,0-2.657,0.754-3.842,1.76v7.468h2.118v3.231
				h-8.186v-3.231h2.154v-6.643c0-0.61-0.072-1.077-0.251-1.472c-0.323-0.754-0.933-1.113-1.867-1.113
				c-1.292,0-2.657,0.754-3.842,1.76v7.468h2.083v3.231h-8.33V289.709z"/>
			<path fill="#6BADA2" d="M317.102,285.077c0-4.309,3.231-8.149,8.366-8.149c5.206,0,8.366,3.77,8.366,8.149
				c0,4.309-3.231,8.15-8.366,8.15C320.261,293.227,317.102,289.458,317.102,285.077z M329.811,285.077
				c0-2.872-1.795-4.883-4.344-4.883s-4.344,2.011-4.344,4.883c0,2.873,1.795,4.883,4.344,4.883S329.811,287.95,329.811,285.077z"/>
		</g>
		<g enable-background="new    ">
			<path fill="#4D4D4F" d="M146.276,337.169c-1.161-1.465-2.143-3.179-2.945-5.143c-0.803-1.963-1.204-3.996-1.204-6.1
				c0-1.854,0.3-3.631,0.9-5.329c0.701-1.972,1.784-3.935,3.249-5.891h1.508c-0.943,1.621-1.566,2.778-1.87,3.472
				c-0.475,1.074-0.849,2.196-1.122,3.365c-0.335,1.457-0.502,2.922-0.502,4.395c0,3.747,1.165,7.49,3.494,11.23L146.276,337.169
				L146.276,337.169z"/>
			<path fill="#4D4D4F" d="M150.226,332.131V319.72h1.893v1.765c0.912-1.363,2.228-2.045,3.95-2.045
				c0.748,0,1.436,0.135,2.062,0.403s1.097,0.621,1.408,1.058s0.53,0.954,0.655,1.554c0.078,0.39,0.117,1.071,0.117,2.046v7.631
				h-2.104v-7.55c0-0.856-0.082-1.497-0.246-1.922s-0.454-0.764-0.871-1.017s-0.906-0.38-1.467-0.38
				c-0.896,0-1.669,0.284-2.319,0.853c-0.651,0.569-0.976,1.648-0.976,3.237v6.778L150.226,332.131L150.226,332.131z"/>
			<path fill="#4D4D4F" d="M174.604,322.058h-11.313v-1.964h11.312v1.964H174.604z M174.604,327.258h-11.313v-1.964h11.312v1.964
				H174.604z"/>
			<path fill="#4D4D4F" d="M183.672,332.131v-4.102h-7.433V326.1l7.818-11.102h1.718V326.1h2.314v1.929h-2.314v4.102H183.672z
				 M183.672,326.101v-7.725l-5.364,7.725H183.672z"/>
			<path fill="#4D4D4F" d="M196.983,332.131v-4.102h-7.433V326.1l7.818-11.102h1.718V326.1h2.314v1.929h-2.314v4.102H196.983z
				 M196.983,326.101v-7.725l-5.364,7.725H196.983z"/>
			<path fill="#4D4D4F" d="M203.691,317.243v-2.021h11.09v1.636c-1.091,1.161-2.172,2.704-3.243,4.628
				c-1.071,1.925-1.899,3.903-2.483,5.937c-0.42,1.434-0.689,3.004-0.806,4.71h-2.162c0.023-1.348,0.288-2.976,0.795-4.885
				c0.506-1.909,1.233-3.749,2.179-5.522c0.947-1.771,1.954-3.266,3.021-4.481h-8.391V317.243z"/>
			<path fill="#4D4D4F" d="M218.826,337.169h-1.507c2.329-3.74,3.494-7.483,3.494-11.23c0-1.465-0.167-2.918-0.502-4.359
				c-0.265-1.169-0.635-2.291-1.11-3.366c-0.304-0.701-0.931-1.869-1.881-3.506h1.507c1.465,1.956,2.548,3.919,3.249,5.891
				c0.6,1.698,0.9,3.475,0.9,5.329c0,2.104-0.403,4.137-1.209,6.1C220.958,333.99,219.978,335.704,218.826,337.169z"/>
		</g>
	</g>
	<g>
		<g enable-background="new    ">
			<path fill="#6BADA2" d="M539.282,281.128c0-7.108,5.529-12.243,12.423-12.243c5.494,0,9.156,2.872,9.156,5.709
				c0,1.724-1.113,2.908-2.586,2.908c-1.615,0-2.729-1.006-2.729-2.55c0-0.467,0.107-0.933,0.252-1.221
				c-0.683-0.538-2.047-1.077-4.201-1.077c-4.596,0-8.114,3.519-8.114,8.438c0,4.739,3.303,8.51,8.294,8.51
				c2.764,0,5.026-1.221,6.785-3.124l2.693,2.801c-2.298,2.549-5.709,4.093-9.479,4.093
				C544.488,293.371,539.282,288.488,539.282,281.128z"/>
			<path fill="#6BADA2" d="M563.768,269.962v-3.303h6.247v12.925c1.473-1.4,3.123-2.656,5.35-2.656c1.688,0,3.016,0.61,3.842,1.688
				c0.682,0.897,1.041,2.118,1.041,3.554v7.54h2.334v3.231h-8.401v-3.231h2.154v-6.57c0-0.861-0.18-1.472-0.503-1.903
				c-0.395-0.502-1.006-0.754-1.76-0.754c-1.363,0-2.8,0.79-4.057,1.831v7.396h2.154v3.231h-8.401v-3.231h2.333v-19.747
				L563.768,269.962L563.768,269.962z"/>
			<path fill="#6BADA2" d="M588.216,286.406c0.538,2.441,2.549,3.519,5.17,3.519c1.903,0,3.878-0.61,5.709-1.652l-0.323,3.52
				c-1.652,0.969-3.662,1.436-5.96,1.436c-5.134,0-8.688-3.231-8.688-8.114c0-4.452,3.123-8.186,7.971-8.186
				c5.025,0,7.646,3.374,7.646,7.539c0,0.61-0.071,1.4-0.179,1.939L588.216,286.406L588.216,286.406z M588.18,283.676h7.647
				c-0.071-2.153-1.472-3.59-3.771-3.59C590.334,280.087,588.61,281.091,588.18,283.676z"/>
			<path fill="#6BADA2" d="M601.966,289.709h2.334v-9.191h-2.334v-3.303h6.104v2.477c1.221-1.328,2.944-2.764,5.278-2.764
				c1.688,0,2.944,0.646,3.733,1.688c0.216,0.287,0.359,0.574,0.504,0.897c1.471-1.437,3.23-2.585,5.241-2.585
				c2.19,0,3.698,0.789,4.488,2.262c0.431,0.79,0.646,1.795,0.646,2.944v7.575h2.334v3.231h-8.365v-3.231h2.118v-6.643
				c0-0.61-0.071-1.077-0.251-1.472c-0.323-0.754-0.97-1.113-1.867-1.113c-1.293,0-2.656,0.754-3.842,1.76v7.468h2.118v3.231h-8.187
				v-3.231h2.154v-6.643c0-0.61-0.071-1.077-0.251-1.472c-0.323-0.754-0.933-1.113-1.866-1.113c-1.293,0-2.658,0.754-3.842,1.76
				v7.468h2.082v3.231h-8.33v-3.231H601.966z"/>
			<path fill="#6BADA2" d="M631.836,285.077c0-4.309,3.231-8.149,8.366-8.149c5.205,0,8.365,3.77,8.365,8.149
				c0,4.309-3.231,8.15-8.365,8.15C634.995,293.227,631.836,289.458,631.836,285.077z M644.545,285.077
				c0-2.872-1.795-4.883-4.344-4.883c-2.55,0-4.345,2.011-4.345,4.883c0,2.873,1.795,4.883,4.345,4.883
				C642.75,289.96,644.545,287.95,644.545,285.077z"/>
			<path fill="#6BADA2" d="M658.94,288.811c0-2.944,2.585-4.739,6.318-4.739c1.616,0,3.124,0.215,3.986,0.431v-1.257
				c0-0.934-0.216-1.651-0.611-2.154c-0.646-0.825-1.688-1.148-3.088-1.148c-0.682,0-1.184,0.107-1.543,0.251
				c0.072,0.216,0.144,0.574,0.144,0.79c0,1.185-0.934,2.047-2.118,2.047c-1.186,0-2.083-0.826-2.083-2.118
				c0-1.939,1.976-3.985,6.247-3.985c2.693,0,4.524,0.754,5.637,2.118c0.826,1.005,1.221,2.369,1.221,3.949v6.714h2.334v3.231
				h-6.067v-1.724c-1.257,1.077-3.159,2.011-5.278,2.011C661.345,293.227,658.94,291.756,658.94,288.811z M669.245,288.991v-2.478
				c-0.898-0.216-2.012-0.359-3.232-0.359c-1.902,0-3.051,0.862-3.051,2.298c0,1.257,0.934,1.939,2.334,1.939
				C666.694,290.391,668.06,289.852,669.245,288.991z"/>
			<path fill="#6BADA2" d="M676.639,289.709h2.441v-19.747h-2.441v-3.303h6.354v23.05h2.333v3.231h-8.688L676.639,289.709
				L676.639,289.709z"/>
			<path fill="#6BADA2" d="M687.516,285.077c0-4.309,3.232-8.149,8.366-8.149c5.206,0,8.366,3.77,8.366,8.149
				c0,4.309-3.232,8.15-8.366,8.15C690.677,293.227,687.516,289.458,687.516,285.077z M700.227,285.077
				c0-2.872-1.795-4.883-4.345-4.883s-4.345,2.011-4.345,4.883c0,2.873,1.795,4.883,4.345,4.883S700.227,287.95,700.227,285.077z"/>
			<path fill="#6BADA2" d="M712.685,279.727c1.508-1.472,3.195-2.8,5.492-2.8c1.867,0,3.232,0.754,4.058,2.01
				c0.538,0.862,0.825,1.939,0.825,3.231v7.54h2.334v3.231h-8.4v-3.231h2.153v-6.57c0-0.646-0.107-1.221-0.323-1.615
				c-0.359-0.683-1.005-1.042-1.938-1.042c-1.364,0-2.801,0.79-4.058,1.831v7.396h2.154v3.231h-8.401v-3.231h2.334v-9.191h-2.334
				v-3.303h6.104V279.727z"/>
			<path fill="#6BADA2" d="M731.029,286.406c0.538,2.441,2.549,3.519,5.17,3.519c1.903,0,3.878-0.61,5.709-1.652l-0.323,3.52
				c-1.652,0.969-3.662,1.436-5.96,1.436c-5.134,0-8.688-3.231-8.688-8.114c0-4.452,3.123-8.186,7.971-8.186
				c5.025,0,7.646,3.374,7.646,7.539c0,0.61-0.071,1.4-0.179,1.939L731.029,286.406L731.029,286.406z M730.992,283.676h7.647
				c-0.071-2.153-1.472-3.59-3.771-3.59C733.147,280.087,731.423,281.091,730.992,283.676z"/>
		</g>
		<g enable-background="new    ">
			<path fill="#4D4D4F" d="M609.117,337.169c-1.161-1.465-2.143-3.179-2.945-5.143c-0.803-1.963-1.203-3.996-1.203-6.1
				c0-1.854,0.299-3.631,0.899-5.329c0.701-1.972,1.784-3.935,3.249-5.891h1.508c-0.943,1.621-1.566,2.778-1.871,3.472
				c-0.475,1.074-0.849,2.196-1.121,3.365c-0.336,1.457-0.502,2.922-0.502,4.395c0,3.747,1.164,7.49,3.494,11.23L609.117,337.169
				L609.117,337.169z"/>
			<path fill="#4D4D4F" d="M613.066,332.131V319.72h1.894v1.765c0.911-1.363,2.228-2.045,3.95-2.045
				c0.748,0,1.436,0.135,2.062,0.403s1.097,0.621,1.408,1.058s0.529,0.954,0.654,1.554c0.078,0.39,0.117,1.071,0.117,2.046v7.631
				h-2.104v-7.55c0-0.856-0.082-1.497-0.246-1.922c-0.163-0.425-0.453-0.764-0.87-1.017s-0.905-0.38-1.467-0.38
				c-0.896,0-1.669,0.284-2.319,0.853c-0.65,0.569-0.977,1.648-0.977,3.237v6.778L613.066,332.131L613.066,332.131z"/>
			<path fill="#4D4D4F" d="M637.444,322.058h-11.312v-1.964h11.312V322.058z M637.444,327.258h-11.312v-1.964h11.312V327.258z"/>
			<path fill="#4D4D4F" d="M646.514,332.131v-4.102h-7.434V326.1l7.818-11.102h1.719V326.1h2.313v1.929h-2.313v4.102H646.514z
				 M646.514,326.101v-7.725l-5.364,7.725H646.514z"/>
			<path fill="#4D4D4F" d="M653.081,327.644l2.209-0.188c0.163,1.075,0.544,1.884,1.14,2.425c0.596,0.542,1.314,0.812,2.156,0.812
				c1.012,0,1.869-0.382,2.57-1.146c0.701-0.763,1.053-1.776,1.053-3.038c0-1.2-0.338-2.146-1.012-2.84s-1.557-1.04-2.646-1.04
				c-0.678,0-1.29,0.154-1.835,0.462c-0.546,0.308-0.974,0.707-1.286,1.197l-1.975-0.257l1.66-8.8h8.52v2.01h-6.838l-0.922,4.604
				c1.027-0.717,2.106-1.075,3.236-1.075c1.496,0,2.758,0.519,3.787,1.555c1.027,1.036,1.542,2.368,1.542,3.996
				c0,1.551-0.452,2.891-1.355,4.021c-1.099,1.387-2.599,2.08-4.499,2.08c-1.559,0-2.83-0.437-3.816-1.309
				C653.784,330.242,653.222,329.086,653.081,327.644z"/>
			<path fill="#4D4D4F" d="M674.315,332.131h-2.104v-13.404c-0.506,0.483-1.17,0.966-1.992,1.449s-1.56,0.846-2.215,1.087v-2.033
				c1.177-0.554,2.205-1.224,3.086-2.011c0.881-0.786,1.504-1.55,1.869-2.29h1.355v17.202H674.315z"/>
			<path fill="#4D4D4F" d="M681.667,337.169h-1.508c2.33-3.74,3.494-7.483,3.494-11.23c0-1.465-0.167-2.918-0.502-4.359
				c-0.266-1.169-0.635-2.291-1.11-3.366c-0.304-0.701-0.931-1.869-1.882-3.506h1.508c1.465,1.956,2.548,3.919,3.249,5.891
				c0.6,1.698,0.899,3.475,0.899,5.329c0,2.104-0.402,4.137-1.209,6.1C683.799,333.99,682.818,335.704,681.667,337.169z"/>
		</g>
	</g>
</g>
</svg>
