<?xml version="1.0" encoding="utf-8"?>
<!-- Generator: Adobe Illustrator 17.1.0, SVG Export Plug-In . SVG Version: 6.00 Build 0)  -->
<!DOCTYPE svg PUBLIC "-//W3C//DTD SVG 1.1//EN" "http://www.w3.org/Graphics/SVG/1.1/DTD/svg11.dtd">
<svg version="1.1" id="Layer_1" xmlns="http://www.w3.org/2000/svg" xmlns:xlink="http://www.w3.org/1999/xlink" x="0px" y="0px"
	 viewBox="0 0 467.5 211" enable-background="new 0 0 467.5 211" xml:space="preserve">
<g>
	
		<polyline fill="none" stroke="#6BACA1" stroke-width="3.4145" stroke-linecap="round" stroke-linejoin="round" stroke-miterlimit="10" points="
		2,3 27.3,3 35,8.1 48,8.1 48,14.6 59.6,14.6 59.6,21 76.2,21 76.2,25.6 112.3,25.6 112.3,30.8 127.5,30.8 127.5,38.7 137.8,38.7 
		137.8,45.8 149.8,45.8 149.8,54.8 167.8,54.8 167.8,60.4 180.1,60.3 180.1,65.6 192.8,65.6 192.8,73.8 207.8,73.8 207.8,83.9 
		216.3,83.9 216.3,91 233.1,91 233,102.6 242.5,102.6 242.5,112.4 248.5,112.4 248.5,122.5 259,122.5 259,128.4 283.1,128.5 
		283.1,137.1 304.8,137.1 304.8,143.9 328.4,143.9 328.4,155.2 334.7,155.2 334.7,169.1 346.8,169.3 346.8,181.9 364.3,181.9 
		364.3,194.2 374.6,194.2 374.6,199.4 381.6,199.4 381.6,203.5 389.5,203.5 389.5,206.6 418,206.6 418,208.9 465.4,208.9 	"/>
</g>
</svg>
