<svg version="1.1" id="Layer_1" xmlns="http://www.w3.org/2000/svg" xmlns:xlink="http://www.w3.org/1999/xlink" x="0px" y="0px"
	 viewBox="0 0 225.4 247.4" enable-background="new 0 0 225.4 247.4" xml:space="preserve"><g><path fill="none" stroke="#E8D948" stroke-width="1.75" stroke-miterlimit="10" stroke-dasharray="3,3" d="M163.7,16.7"/><g><line fill="none" stroke="#929497" stroke-width="0.7762" stroke-linecap="round" stroke-miterlimit="10" x1="177.8" y1="148" x2="177.8" y2="92.6"/><circle fill="#FFFFFF" stroke="#2C8979" stroke-width="1.5524" stroke-miterlimit="10" cx="177.8" cy="148" r="3.3"/></g><polyline fill="none" stroke="#929497" stroke-width="0.7762" stroke-linecap="round" stroke-miterlimit="10" points="114.8,148 
		114.8,200.4 88.4,200.4 	"/><circle fill="#FFFFFF" stroke="#6D6E70" stroke-width="1.5524" stroke-miterlimit="10" cx="114.8" cy="148" r="3.3"/><g><circle fill="#929497" cx="47.5" cy="199.9" r="47.5"/><g><g enable-background="new    "><path fill="#FFFFFF" d="M17,214.3h2.2v1.2c0.8-1,1.7-1.4,2.8-1.4c0.6,0,1.1,0.1,1.5,0.4c0.4,0.2,0.8,0.6,1.1,1.1
					c0.4-0.5,0.8-0.8,1.3-1.1c0.5-0.2,1-0.4,1.5-0.4c0.7,0,1.2,0.1,1.7,0.4c0.5,0.3,0.8,0.7,1,1.2c0.2,0.4,0.2,1,0.2,1.9v5.8h-2.4
					v-5.2c0-0.9-0.1-1.5-0.2-1.7c-0.2-0.3-0.6-0.5-1-0.5c-0.3,0-0.7,0.1-0.9,0.3c-0.3,0.2-0.5,0.5-0.6,0.9c-0.1,0.4-0.2,1-0.2,1.9
					v4.4h-2.4v-5c0-0.9,0-1.5-0.1-1.7s-0.2-0.4-0.4-0.6c-0.2-0.1-0.4-0.2-0.7-0.2c-0.4,0-0.7,0.1-1,0.3c-0.3,0.2-0.5,0.5-0.6,0.9
					c-0.1,0.4-0.2,1-0.2,1.9v4.4H17L17,214.3L17,214.3L17,214.3z"/><path fill="#FFFFFF" d="M32.2,218.7c0-0.8,0.2-1.6,0.6-2.3c0.4-0.7,1-1.3,1.7-1.7c0.7-0.4,1.5-0.6,2.4-0.6
					c1.4,0,2.5,0.4,3.4,1.3c0.9,0.9,1.3,2,1.3,3.4c0,1.4-0.4,2.5-1.3,3.4c-0.9,0.9-2,1.4-3.3,1.4c-0.8,0-1.6-0.2-2.4-0.6
					c-0.8-0.4-1.3-0.9-1.7-1.7C32.3,220.6,32.2,219.7,32.2,218.7z M34.6,218.8c0,0.9,0.2,1.6,0.6,2.1s1,0.7,1.6,0.7s1.2-0.2,1.6-0.7
					c0.4-0.5,0.6-1.2,0.6-2.1c0-0.9-0.2-1.6-0.6-2.1c-0.4-0.5-1-0.7-1.6-0.7c-0.6,0-1.2,0.2-1.6,0.7
					C34.8,217.2,34.6,217.9,34.6,218.8z"/><path fill="#FFFFFF" d="M51.7,223.3h-2.4v-4.6c0-1-0.1-1.6-0.2-1.9c-0.1-0.3-0.3-0.5-0.5-0.7c-0.2-0.2-0.5-0.2-0.8-0.2
					c-0.4,0-0.8,0.1-1.1,0.3s-0.6,0.5-0.7,0.9c-0.1,0.4-0.2,1.1-0.2,2.1v4.1h-2.4v-9.1h2.2v1.3c0.8-1,1.8-1.5,3-1.5
					c0.5,0,1,0.1,1.5,0.3c0.4,0.2,0.8,0.4,1,0.7c0.2,0.3,0.4,0.6,0.5,1s0.1,0.9,0.1,1.6L51.7,223.3L51.7,223.3z"/><path fill="#FFFFFF" d="M58.3,214.3v1.9h-1.6v3.7c0,0.7,0,1.2,0,1.3c0,0.1,0.1,0.2,0.2,0.3c0.1,0.1,0.2,0.1,0.4,0.1
					c0.2,0,0.5-0.1,1-0.2l0.2,1.9c-0.6,0.2-1.2,0.4-1.9,0.4c-0.4,0-0.8-0.1-1.2-0.2c-0.3-0.1-0.6-0.3-0.8-0.6
					c-0.2-0.2-0.3-0.5-0.3-0.9c-0.1-0.3-0.1-0.8-0.1-1.7v-4h-1.1v-1.9h1.1v-1.8l2.4-1.4v3.2L58.3,214.3L58.3,214.3z"/><path fill="#FFFFFF" d="M62.3,210.8v4.6c0.8-0.9,1.7-1.4,2.8-1.4c0.6,0,1.1,0.1,1.5,0.3s0.8,0.5,1,0.8c0.2,0.3,0.4,0.7,0.5,1.1
					c0.1,0.4,0.1,1,0.1,1.8v5.3h-2.4v-4.8c0-1,0-1.6-0.1-1.8c-0.1-0.3-0.3-0.5-0.5-0.6c-0.2-0.2-0.5-0.2-0.9-0.2
					c-0.4,0-0.8,0.1-1.1,0.3c-0.3,0.2-0.5,0.5-0.7,0.9c-0.1,0.4-0.2,1-0.2,1.7v4.5h-2.4v-12.5L62.3,210.8L62.3,210.8L62.3,210.8z"/><path fill="#FFFFFF" d="M69.8,220.8l2.4-0.4c0.1,0.5,0.3,0.8,0.6,1.1c0.3,0.2,0.8,0.4,1.3,0.4c0.6,0,1.1-0.1,1.4-0.3
					c0.2-0.2,0.3-0.4,0.3-0.6c0-0.2-0.1-0.3-0.2-0.5c-0.1-0.1-0.4-0.2-0.8-0.3c-1.9-0.4-3.2-0.8-3.7-1.2c-0.7-0.5-1.1-1.2-1.1-2
					c0-0.8,0.3-1.4,0.9-2c0.6-0.5,1.6-0.8,2.9-0.8c1.2,0,2.2,0.2,2.8,0.6c0.6,0.4,1,1,1.2,1.8l-2.3,0.4c-0.1-0.4-0.3-0.6-0.6-0.8
					c-0.3-0.2-0.7-0.3-1.2-0.3c-0.6,0-1.1,0.1-1.4,0.3c-0.2,0.1-0.3,0.3-0.3,0.5c0,0.2,0.1,0.3,0.2,0.4c0.2,0.2,1,0.4,2.2,0.7
					c1.3,0.3,2.2,0.6,2.7,1.1c0.5,0.4,0.8,1,0.8,1.8c0,0.8-0.4,1.5-1,2.1c-0.7,0.6-1.7,0.9-3.1,0.9c-1.2,0-2.2-0.3-2.9-0.8
					C70.5,222.3,70,221.6,69.8,220.8z"/></g></g></g><g><circle fill="#6CABA0" cx="177.9" cy="47.4" r="47.4"/><g><g enable-background="new    "><path fill="#FFFFFF" d="M147.4,61.8h2.2V63c0.8-1,1.7-1.4,2.8-1.4c0.6,0,1.1,0.1,1.5,0.4c0.4,0.2,0.8,0.6,1.1,1.1
					c0.4-0.5,0.8-0.8,1.3-1.1c0.5-0.2,1-0.4,1.5-0.4c0.7,0,1.2,0.1,1.7,0.4c0.5,0.3,0.8,0.7,1,1.2c0.2,0.4,0.2,1,0.2,1.9v5.8h-2.4
					v-5.2c0-0.9-0.1-1.5-0.2-1.7c-0.2-0.3-0.6-0.5-1-0.5c-0.3,0-0.7,0.1-0.9,0.3c-0.3,0.2-0.5,0.5-0.6,0.9c-0.1,0.4-0.2,1-0.2,1.9
					v4.4h-2.4v-5c0-0.9,0-1.5-0.1-1.7c-0.1-0.3-0.2-0.4-0.4-0.6c-0.2-0.1-0.4-0.2-0.7-0.2c-0.4,0-0.7,0.1-1,0.3
					c-0.3,0.2-0.5,0.5-0.6,0.9c-0.1,0.4-0.2,1-0.2,1.9v4.4h-2.4L147.4,61.8L147.4,61.8L147.4,61.8L147.4,61.8z"/><path fill="#FFFFFF" d="M162.6,66.2c0-0.8,0.2-1.6,0.6-2.3c0.4-0.7,0.9-1.3,1.7-1.7c0.7-0.4,1.5-0.6,2.4-0.6
					c1.4,0,2.5,0.4,3.4,1.3c0.9,0.9,1.3,2,1.3,3.4c0,1.4-0.4,2.5-1.3,3.4c-0.9,0.9-2,1.4-3.3,1.4c-0.8,0-1.6-0.2-2.4-0.6
					c-0.8-0.4-1.3-0.9-1.7-1.7C162.8,68.1,162.6,67.2,162.6,66.2z M165.1,66.3c0,0.9,0.2,1.6,0.6,2.1c0.4,0.5,1,0.7,1.6,0.7
					c0.6,0,1.2-0.2,1.6-0.7c0.4-0.5,0.6-1.2,0.6-2.1c0-0.9-0.2-1.6-0.6-2.1c-0.4-0.5-0.9-0.7-1.6-0.7s-1.2,0.2-1.6,0.7
					C165.3,64.7,165.1,65.4,165.1,66.3z"/><path fill="#FFFFFF" d="M182.1,70.8h-2.4v-4.6c0-1-0.1-1.6-0.2-1.9c-0.1-0.3-0.3-0.5-0.5-0.7c-0.2-0.2-0.5-0.2-0.8-0.2
					c-0.4,0-0.8,0.1-1.1,0.3c-0.3,0.2-0.6,0.5-0.7,0.9c-0.1,0.4-0.2,1.1-0.2,2.1v4.1h-2.4v-9.1h2.2v1.3c0.8-1,1.8-1.5,3-1.5
					c0.5,0,1,0.1,1.5,0.3c0.4,0.2,0.8,0.4,1,0.7c0.2,0.3,0.4,0.6,0.5,1c0.1,0.4,0.1,0.9,0.1,1.6L182.1,70.8L182.1,70.8L182.1,70.8z"
					/><path fill="#FFFFFF" d="M188.7,61.8v1.9H187v3.7c0,0.7,0,1.2,0,1.3c0,0.1,0.1,0.2,0.2,0.3c0.1,0.1,0.2,0.1,0.4,0.1
					c0.2,0,0.5-0.1,1-0.2l0.2,1.9c-0.6,0.2-1.2,0.4-1.9,0.4c-0.4,0-0.8-0.1-1.2-0.2c-0.3-0.1-0.6-0.3-0.8-0.6
					c-0.2-0.2-0.3-0.5-0.3-0.9c-0.1-0.3-0.1-0.8-0.1-1.7v-4h-1.1v-1.9h1.1V60l2.4-1.4v3.2L188.7,61.8L188.7,61.8z"/><path fill="#FFFFFF" d="M192.7,58.3v4.6c0.8-0.9,1.7-1.4,2.8-1.4c0.6,0,1.1,0.1,1.5,0.3c0.4,0.2,0.8,0.5,1,0.8
					c0.2,0.3,0.4,0.7,0.5,1.1c0.1,0.4,0.1,1,0.1,1.8v5.3h-2.4V66c0-1,0-1.6-0.1-1.8c-0.1-0.3-0.3-0.5-0.5-0.6
					c-0.2-0.1-0.5-0.2-0.9-0.2c-0.4,0-0.8,0.1-1.1,0.3c-0.3,0.2-0.5,0.5-0.7,0.9c-0.1,0.4-0.2,1-0.2,1.7v4.5h-2.4V58.3L192.7,58.3
					L192.7,58.3z"/><path fill="#FFFFFF" d="M200.2,68.3l2.4-0.4c0.1,0.5,0.3,0.8,0.6,1.1c0.3,0.2,0.8,0.4,1.3,0.4c0.6,0,1.1-0.1,1.4-0.3
					c0.2-0.2,0.3-0.4,0.3-0.6c0-0.2-0.1-0.3-0.2-0.5c-0.1-0.1-0.4-0.2-0.8-0.3c-1.9-0.4-3.2-0.8-3.7-1.2c-0.7-0.5-1.1-1.2-1.1-2
					c0-0.8,0.3-1.4,0.9-2c0.6-0.5,1.6-0.8,2.9-0.8c1.2,0,2.2,0.2,2.8,0.6c0.6,0.4,1,1,1.2,1.8l-2.3,0.4c-0.1-0.4-0.3-0.6-0.6-0.8
					c-0.3-0.2-0.7-0.3-1.2-0.3c-0.6,0-1.1,0.1-1.4,0.3c-0.2,0.1-0.3,0.3-0.3,0.5c0,0.2,0.1,0.3,0.2,0.4c0.2,0.2,1,0.4,2.2,0.7
					c1.3,0.3,2.2,0.6,2.7,1.1c0.5,0.4,0.8,1,0.8,1.8c0,0.8-0.3,1.5-1,2.1c-0.7,0.6-1.7,0.9-3.1,0.9c-1.2,0-2.2-0.3-2.9-0.8
					C200.9,69.8,200.4,69.1,200.2,68.3z"/></g></g></g><g enable-background="new    "><path fill="#FFFFFF" d="M159.6,47.3v5.1h-19.2c0.2-1.9,0.8-3.8,1.9-5.5c1-1.7,3.1-4,6.2-6.9c2.5-2.3,4-3.9,4.6-4.7
			c0.8-1.1,1.1-2.3,1.1-3.4c0-1.2-0.3-2.2-1-2.8c-0.7-0.7-1.6-1-2.7-1c-1.1,0-2.1,0.3-2.7,1c-0.7,0.7-1.1,1.8-1.2,3.4l-5.5-0.5
			c0.3-3,1.3-5.2,3.1-6.5s3.9-2,6.4-2c2.8,0,5,0.8,6.7,2.3c1.6,1.5,2.4,3.4,2.4,5.7c0,1.3-0.2,2.5-0.7,3.7c-0.5,1.2-1.2,2.4-2.2,3.7
			c-0.7,0.8-1.9,2.1-3.6,3.7c-1.7,1.6-2.8,2.6-3.3,3.2c-0.5,0.5-0.8,1-1.1,1.5H159.6z"/><path fill="#FFFFFF" d="M163.3,45.1l5.5-0.6c0.2,1.2,0.6,2.2,1.4,2.9c0.8,0.7,1.7,1.1,2.7,1.1c1.1,0,2.1-0.5,2.9-1.4
			c0.8-0.9,1.2-2.3,1.2-4.2c0-1.8-0.4-3.1-1.2-4c-0.8-0.9-1.8-1.3-3.1-1.3c-1.6,0-3,0.7-4.2,2.1l-4.5-0.6l2.8-14.9h14.5v5.1H171
			l-0.9,4.9c1.2-0.6,2.5-0.9,3.8-0.9c2.4,0,4.5,0.9,6.2,2.7c1.7,1.8,2.5,4.1,2.5,6.9c0,2.4-0.7,4.5-2.1,6.3
			c-1.9,2.5-4.4,3.8-7.8,3.8c-2.6,0-4.8-0.7-6.5-2.1C164.7,49.4,163.7,47.5,163.3,45.1z"/><path fill="#FFFFFF" d="M186.7,52.4v-5.5h5.5v5.5H186.7z"/><path fill="#FFFFFF" d="M201.3,37c-1.4-0.6-2.5-1.4-3.1-2.5s-1-2.2-1-3.4c0-2.1,0.7-3.9,2.2-5.3c1.5-1.4,3.6-2.1,6.4-2.1
			c2.7,0,4.8,0.7,6.3,2.1s2.3,3.2,2.3,5.3c0,1.3-0.3,2.5-1,3.5c-0.7,1-1.7,1.8-2.9,2.4c1.6,0.6,2.8,1.6,3.6,2.8
			c0.8,1.2,1.2,2.6,1.2,4.2c0,2.6-0.8,4.8-2.5,6.4c-1.7,1.7-3.9,2.5-6.7,2.5c-2.6,0-4.8-0.7-6.5-2.1c-2-1.6-3.1-3.8-3.1-6.6
			c0-1.5,0.4-3,1.2-4.3C198.5,38.7,199.7,37.7,201.3,37z M202,43.7c0,1.5,0.4,2.7,1.2,3.5c0.8,0.8,1.7,1.3,2.9,1.3
			c1.1,0,2.1-0.4,2.8-1.2s1.1-2,1.1-3.5c0-1.3-0.4-2.4-1.1-3.2c-0.8-0.8-1.7-1.2-2.9-1.2c-1.3,0-2.3,0.5-3,1.4
			C202.3,41.6,202,42.6,202,43.7z M202.5,31.4c0,1.1,0.3,1.9,0.9,2.6c0.6,0.6,1.4,0.9,2.5,0.9c1,0,1.9-0.3,2.5-0.9s0.9-1.5,0.9-2.6
			c0-1-0.3-1.9-0.9-2.5c-0.6-0.6-1.4-0.9-2.5-0.9c-1.1,0-1.9,0.3-2.5,0.9S202.5,30.4,202.5,31.4z"/></g><g enable-background="new    "><path fill="#FFFFFF" d="M30.7,200.8v5.1H11.5c0.2-1.9,0.8-3.8,1.9-5.5c1-1.7,3.1-4,6.2-6.9c2.5-2.3,4-3.9,4.6-4.7
			c0.8-1.1,1.1-2.3,1.1-3.4c0-1.2-0.3-2.2-1-2.8c-0.7-0.7-1.6-1-2.7-1c-1.1,0-2.1,0.3-2.7,1c-0.7,0.7-1.1,1.8-1.2,3.4l-5.5-0.5
			c0.3-3,1.3-5.2,3.1-6.5s3.9-2,6.4-2c2.8,0,5,0.8,6.7,2.3c1.6,1.5,2.4,3.4,2.4,5.7c0,1.3-0.2,2.5-0.7,3.7c-0.5,1.2-1.2,2.4-2.2,3.7
			c-0.7,0.8-1.9,2.1-3.6,3.7c-1.7,1.6-2.8,2.6-3.3,3.2c-0.5,0.5-0.8,1-1.1,1.5H30.7z"/><path fill="#FFFFFF" d="M42.7,177.2c2.8,0,4.9,1,6.5,3c1.9,2.3,2.8,6.2,2.8,11.7c0,5.4-0.9,9.3-2.8,11.7c-1.5,2-3.7,2.9-6.5,2.9
			c-2.8,0-5-1.1-6.7-3.2c-1.7-2.1-2.6-6-2.6-11.5c0-5.4,0.9-9.3,2.8-11.6C37.7,178.2,39.9,177.2,42.7,177.2z M42.7,181.7
			c-0.7,0-1.3,0.2-1.8,0.6c-0.5,0.4-0.9,1.2-1.2,2.3c-0.4,1.4-0.6,3.8-0.6,7.2s0.2,5.7,0.5,6.9c0.3,1.3,0.8,2.1,1.3,2.5
			c0.5,0.4,1.1,0.6,1.8,0.6s1.3-0.2,1.8-0.6c0.5-0.4,0.9-1.2,1.2-2.3c0.4-1.4,0.6-3.8,0.6-7.1s-0.2-5.7-0.5-6.9
			c-0.3-1.3-0.8-2.1-1.3-2.5C43.9,182,43.3,181.7,42.7,181.7z"/><path fill="#FFFFFF" d="M55.8,205.9v-5.5h5.5v5.5H55.8z"/><path fill="#FFFFFF" d="M64.9,199.3l5.3-0.6c0.1,1.1,0.5,1.9,1,2.4s1.3,0.8,2.2,0.8c1.1,0,2.1-0.5,2.9-1.6c0.8-1,1.3-3.2,1.5-6.5
			c-1.4,1.6-3.1,2.4-5.2,2.4c-2.3,0-4.2-0.9-5.8-2.6c-1.6-1.7-2.5-4-2.5-6.8c0-2.9,0.9-5.2,2.6-7c1.7-1.8,3.9-2.7,6.6-2.7
			c2.9,0,5.3,1.1,7.1,3.4c1.9,2.2,2.8,5.9,2.8,11.1c0,5.2-1,9-2.9,11.3c-1.9,2.3-4.5,3.5-7.6,3.5c-2.2,0-4-0.6-5.4-1.8
			C66.2,203.5,65.3,201.7,64.9,199.3z M77.3,187.3c0-1.8-0.4-3.1-1.2-4.1c-0.8-1-1.8-1.5-2.8-1.5c-1,0-1.9,0.4-2.5,1.2
			c-0.7,0.8-1,2.1-1,3.9c0,1.8,0.4,3.2,1.1,4.1c0.7,0.9,1.6,1.3,2.7,1.3c1.1,0,1.9-0.4,2.7-1.3S77.3,188.9,77.3,187.3z"/></g></g></svg>

