<svg version="1.1" id="Layer_1" xmlns="http://www.w3.org/2000/svg" xmlns:xlink="http://www.w3.org/1999/xlink" x="0px" y="0px"
	 viewBox="0 0 465.6 212.1" enable-background="new 0 0 465.6 212.1" xml:space="preserve">
<g>
	
		<path fill="none" stroke="#929497" stroke-width="2.0487" stroke-linecap="round" stroke-linejoin="round" stroke-miterlimit="10" d="
		M464.4,210.9h-94.8v-3.1c-1.8,0-3.6,0-5.5,0v-3.5h-17v-4.1H334v-4.8H323V191h-38.8v-3h-24.1v-10.7h-13.9v-9.8h-10.2v-6.8h-12.6
		l0.1-7.4h-7.2v-5.7H210l-0.1-5h-4.8V126h-13.3v-7.4h-13.5v-5.4h-22v-5.9l-7.4,0.2v-5h-8.8v-8.1h-11.8v-8.3H117v-7.4h-12.2V63.9
		H92.9l-0.1-10.1l-19.6,0.1v-7.6h-7.5v-3.5H52.6l-0.3-1.5h-3.8V35h-4.2v-3.7h-3.8v-4.5h-5.4v-5.4h-3.3v-3.1h-9.3v-2.2h-4.3v-2.8
		v-2.4h-2.3V8.8h-5.2l-0.3-4.5H6.6V2.9L1,1"/>
</g>
</svg>
