<?xml version="1.0" encoding="utf-8"?>
<!-- Generator: Adobe Illustrator 17.1.0, SVG Export Plug-In . SVG Version: 6.00 Build 0)  -->
<!DOCTYPE svg PUBLIC "-//W3C//DTD SVG 1.1//EN" "http://www.w3.org/Graphics/SVG/1.1/DTD/svg11.dtd">
<svg version="1.1" id="Layer_1" xmlns="http://www.w3.org/2000/svg" xmlns:xlink="http://www.w3.org/1999/xlink" x="0px" y="0px"
	 viewBox="0 0 70.9 234" enable-background="new 0 0 70.9 234" xml:space="preserve">
<g>
	<rect fill="#6CACA1" width="70.9" height="234"/>
	<g enable-background="new    ">
		<path fill="#FFFFFF" d="M7.4,204.2c0-0.9,0.1-1.6,0.4-2.1c0.2-0.4,0.5-0.8,0.8-1.1s0.7-0.6,1.1-0.8c0.5-0.2,1.1-0.3,1.8-0.3
			c1.2,0,2.2,0.4,3,1.1s1.1,1.8,1.1,3.2c0,1.4-0.4,2.4-1.1,3.2c-0.7,0.8-1.7,1.1-2.9,1.1c-1.2,0-2.2-0.4-3-1.1
			C7.7,206.6,7.4,205.6,7.4,204.2z M9.1,204.2c0,0.9,0.2,1.7,0.7,2.2c0.4,0.5,1,0.7,1.7,0.7s1.2-0.2,1.7-0.7s0.6-1.2,0.6-2.2
			c0-1-0.2-1.7-0.6-2.1c-0.4-0.5-1-0.7-1.7-0.7s-1.3,0.2-1.7,0.7S9.1,203.2,9.1,204.2z"/>
		<path fill="#FFFFFF" d="M16.7,202.3h1.5v0.9c0.2-0.3,0.5-0.6,0.8-0.7c0.3-0.2,0.7-0.3,1.1-0.3c0.7,0,1.3,0.3,1.8,0.8
			s0.7,1.3,0.7,2.3c0,1-0.2,1.8-0.7,2.4c-0.5,0.6-1.1,0.8-1.8,0.8c-0.3,0-0.6-0.1-0.9-0.2c-0.3-0.1-0.6-0.4-0.9-0.7v3.1h-1.6V202.3z
			 M18.3,205.2c0,0.7,0.1,1.2,0.4,1.5c0.3,0.3,0.6,0.5,1,0.5c0.4,0,0.7-0.1,0.9-0.4c0.2-0.3,0.4-0.8,0.4-1.5c0-0.6-0.1-1.1-0.4-1.4
			c-0.3-0.3-0.6-0.5-0.9-0.5c-0.4,0-0.7,0.2-1,0.5C18.5,204.2,18.3,204.6,18.3,205.2z"/>
		<path fill="#FFFFFF" d="M26.7,202.3v1.3h-1.1v2.4c0,0.5,0,0.8,0,0.9s0.1,0.1,0.1,0.2c0.1,0.1,0.2,0.1,0.3,0.1
			c0.1,0,0.4-0.1,0.6-0.2l0.1,1.2c-0.4,0.2-0.8,0.2-1.3,0.2c-0.3,0-0.6,0-0.8-0.1c-0.2-0.1-0.4-0.2-0.5-0.4
			c-0.1-0.2-0.2-0.4-0.2-0.6c0-0.2-0.1-0.6-0.1-1.1v-2.6h-0.7v-1.3H24v-1.2l1.6-0.9v2.1H26.7z"/>
		<path fill="#FFFFFF" d="M27.8,201.5V200h1.6v1.5H27.8z M27.8,208.4v-6.1h1.6v6.1H27.8z"/>
		<path fill="#FFFFFF" d="M30.5,206.6l1.6-0.2c0.1,0.3,0.2,0.5,0.4,0.7c0.2,0.2,0.5,0.2,0.9,0.2c0.4,0,0.7-0.1,0.9-0.2
			c0.1-0.1,0.2-0.2,0.2-0.4c0-0.1,0-0.2-0.1-0.3c-0.1-0.1-0.3-0.1-0.5-0.2c-1.3-0.3-2.1-0.5-2.5-0.8c-0.5-0.3-0.7-0.8-0.7-1.4
			c0-0.5,0.2-1,0.6-1.3c0.4-0.4,1.1-0.5,1.9-0.5c0.8,0,1.4,0.1,1.9,0.4c0.4,0.3,0.7,0.7,0.8,1.2l-1.5,0.3c-0.1-0.2-0.2-0.4-0.4-0.5
			c-0.2-0.1-0.4-0.2-0.8-0.2c-0.4,0-0.7,0.1-0.9,0.2c-0.1,0.1-0.2,0.2-0.2,0.3c0,0.1,0.1,0.2,0.2,0.3c0.1,0.1,0.6,0.3,1.5,0.5
			c0.9,0.2,1.5,0.4,1.8,0.7c0.3,0.3,0.5,0.7,0.5,1.2c0,0.6-0.2,1-0.7,1.4c-0.5,0.4-1.2,0.6-2.1,0.6c-0.8,0-1.5-0.2-2-0.5
			S30.7,207.2,30.5,206.6z"/>
		<path fill="#FFFFFF" d="M40.4,202.3v1.3h-1.1v2.4c0,0.5,0,0.8,0,0.9s0.1,0.1,0.1,0.2c0.1,0.1,0.2,0.1,0.3,0.1
			c0.1,0,0.4-0.1,0.6-0.2l0.1,1.2c-0.4,0.2-0.8,0.2-1.3,0.2c-0.3,0-0.6,0-0.8-0.1c-0.2-0.1-0.4-0.2-0.5-0.4
			c-0.1-0.2-0.2-0.4-0.2-0.6c0-0.2-0.1-0.6-0.1-1.1v-2.6h-0.7v-1.3h0.7v-1.2l1.6-0.9v2.1H40.4z"/>
		<path fill="#FFFFFF" d="M42.7,204.1l-1.5-0.3c0.2-0.6,0.4-1,0.8-1.3c0.4-0.3,1-0.4,1.8-0.4c0.7,0,1.2,0.1,1.6,0.3
			c0.4,0.2,0.6,0.4,0.7,0.6c0.1,0.3,0.2,0.7,0.2,1.4l0,1.9c0,0.5,0,0.9,0.1,1.2c0.1,0.3,0.1,0.5,0.3,0.8h-1.6c0-0.1-0.1-0.3-0.2-0.5
			c0-0.1,0-0.2-0.1-0.2c-0.3,0.3-0.6,0.5-0.9,0.6c-0.3,0.1-0.6,0.2-1,0.2c-0.6,0-1.1-0.2-1.5-0.5s-0.5-0.8-0.5-1.3
			c0-0.3,0.1-0.6,0.2-0.9c0.2-0.3,0.4-0.5,0.7-0.6s0.7-0.3,1.3-0.4c0.8-0.1,1.3-0.3,1.6-0.4v-0.2c0-0.3-0.1-0.5-0.2-0.7
			c-0.2-0.1-0.4-0.2-0.9-0.2c-0.3,0-0.5,0.1-0.7,0.2C42.9,203.7,42.8,203.9,42.7,204.1z M44.8,205.4c-0.2,0.1-0.5,0.2-1,0.2
			c-0.4,0.1-0.7,0.2-0.9,0.3c-0.2,0.1-0.3,0.3-0.3,0.6c0,0.2,0.1,0.4,0.3,0.6s0.4,0.2,0.6,0.2c0.3,0,0.6-0.1,0.8-0.3
			c0.2-0.1,0.3-0.3,0.4-0.5c0-0.1,0.1-0.4,0.1-0.8V205.4z"/>
		<path fill="#FFFFFF" d="M49.6,208.4l-2.4-6.1h1.7l1.1,3.1l0.3,1c0.1-0.3,0.1-0.4,0.2-0.5c0.1-0.2,0.1-0.3,0.2-0.5l1.2-3.1h1.7
			l-2.4,6.1H49.6z"/>
		<path fill="#FFFFFF" d="M54.5,201.5V200h1.6v1.5H54.5z M54.5,208.4v-6.1h1.6v6.1H54.5z"/>
		<path fill="#FFFFFF" d="M63.3,208.4h-1.6v-3.1c0-0.7,0-1.1-0.1-1.3c-0.1-0.2-0.2-0.3-0.3-0.4c-0.2-0.1-0.3-0.2-0.6-0.2
			c-0.3,0-0.5,0.1-0.7,0.2s-0.4,0.4-0.5,0.6s-0.1,0.7-0.1,1.4v2.7h-1.6v-6.1h1.5v0.9c0.5-0.7,1.2-1,2-1c0.4,0,0.7,0.1,1,0.2
			c0.3,0.1,0.5,0.3,0.7,0.5s0.3,0.4,0.3,0.7c0.1,0.3,0.1,0.6,0.1,1.1V208.4z"/>
	</g>
	<g enable-background="new    ">
		<path fill="#FFFFFF" d="M17.6,225.3h-1.1c-0.6-0.9-1-1.8-1.3-2.7c-0.3-0.9-0.5-1.9-0.5-2.8c0-1.1,0.2-2.1,0.6-3.1
			c0.3-0.9,0.7-1.6,1.2-2.4h1.1c-0.5,1.2-0.9,2.1-1.1,2.9c-0.2,0.8-0.3,1.7-0.3,2.6c0,0.6,0.1,1.3,0.2,1.9c0.1,0.7,0.3,1.3,0.5,1.9
			C17,224,17.3,224.5,17.6,225.3z"/>
		<path fill="#FFFFFF" d="M24.4,222.8h-1.6v-3.1c0-0.7,0-1.1-0.1-1.3c-0.1-0.2-0.2-0.3-0.3-0.4c-0.2-0.1-0.3-0.2-0.6-0.2
			c-0.3,0-0.5,0.1-0.7,0.2s-0.4,0.4-0.5,0.6s-0.1,0.7-0.1,1.4v2.7h-1.6v-6.1h1.5v0.9c0.5-0.7,1.2-1,2-1c0.4,0,0.7,0.1,1,0.2
			c0.3,0.1,0.5,0.3,0.7,0.5s0.3,0.4,0.3,0.7c0.1,0.3,0.1,0.6,0.1,1.1V222.8z"/>
		<path fill="#FFFFFF" d="M25.6,218.1v-1.5h5.9v1.5H25.6z M25.6,220.7v-1.5h5.9v1.5H25.6z"/>
		<path fill="#FFFFFF" d="M32.4,220.6l1.6-0.2c0,0.4,0.2,0.7,0.4,0.9c0.2,0.2,0.5,0.3,0.8,0.3c0.3,0,0.6-0.1,0.8-0.4
			c0.2-0.3,0.3-0.6,0.3-1c0-0.4-0.1-0.7-0.3-1c-0.2-0.2-0.5-0.4-0.8-0.4c-0.2,0-0.5,0-0.7,0.1l0.2-1.3c0.4,0,0.8-0.1,1-0.3
			c0.2-0.2,0.3-0.5,0.3-0.8c0-0.3-0.1-0.5-0.3-0.7c-0.2-0.2-0.4-0.3-0.7-0.3c-0.3,0-0.5,0.1-0.7,0.3c-0.2,0.2-0.3,0.5-0.4,0.8
			l-1.5-0.3c0.1-0.5,0.3-0.9,0.5-1.2s0.5-0.5,0.9-0.7c0.4-0.2,0.8-0.3,1.2-0.3c0.8,0,1.4,0.3,1.9,0.8c0.4,0.4,0.6,0.9,0.6,1.4
			c0,0.7-0.4,1.3-1.2,1.8c0.5,0.1,0.9,0.3,1.2,0.7c0.3,0.4,0.4,0.8,0.4,1.3c0,0.7-0.3,1.4-0.8,1.9c-0.5,0.5-1.2,0.8-2,0.8
			c-0.8,0-1.4-0.2-1.9-0.7C32.8,221.9,32.5,221.3,32.4,220.6z"/>
		<path fill="#FFFFFF" d="M38.9,220.6l1.6-0.2c0,0.4,0.2,0.7,0.4,0.9c0.2,0.2,0.5,0.3,0.8,0.3c0.3,0,0.6-0.1,0.8-0.4
			c0.2-0.3,0.3-0.6,0.3-1c0-0.4-0.1-0.7-0.3-1c-0.2-0.2-0.5-0.4-0.8-0.4c-0.2,0-0.5,0-0.7,0.1l0.2-1.3c0.4,0,0.8-0.1,1-0.3
			c0.2-0.2,0.3-0.5,0.3-0.8c0-0.3-0.1-0.5-0.3-0.7c-0.2-0.2-0.4-0.3-0.7-0.3c-0.3,0-0.5,0.1-0.7,0.3c-0.2,0.2-0.3,0.5-0.4,0.8
			l-1.5-0.3c0.1-0.5,0.3-0.9,0.5-1.2s0.5-0.5,0.9-0.7c0.4-0.2,0.8-0.3,1.2-0.3c0.8,0,1.4,0.3,1.9,0.8c0.4,0.4,0.6,0.9,0.6,1.4
			c0,0.7-0.4,1.3-1.2,1.8c0.5,0.1,0.9,0.3,1.2,0.7c0.3,0.4,0.4,0.8,0.4,1.3c0,0.7-0.3,1.4-0.8,1.9c-0.5,0.5-1.2,0.8-2,0.8
			c-0.8,0-1.4-0.2-1.9-0.7C39.3,221.9,39,221.3,38.9,220.6z"/>
		<path fill="#FFFFFF" d="M50.9,221.3v1.5h-5.6c0.1-0.6,0.2-1.1,0.5-1.6c0.3-0.5,0.9-1.2,1.8-2c0.7-0.7,1.2-1.1,1.3-1.4
			c0.2-0.3,0.3-0.7,0.3-1c0-0.4-0.1-0.6-0.3-0.8c-0.2-0.2-0.5-0.3-0.8-0.3c-0.3,0-0.6,0.1-0.8,0.3c-0.2,0.2-0.3,0.5-0.3,1l-1.6-0.2
			c0.1-0.9,0.4-1.5,0.9-1.9c0.5-0.4,1.1-0.6,1.9-0.6c0.8,0,1.5,0.2,1.9,0.7s0.7,1,0.7,1.7c0,0.4-0.1,0.7-0.2,1.1s-0.3,0.7-0.6,1.1
			c-0.2,0.2-0.5,0.6-1.1,1.1s-0.8,0.8-1,0.9c-0.1,0.2-0.2,0.3-0.3,0.4H50.9z"/>
		<path fill="#FFFFFF" d="M51.9,225.3c0.3-0.7,0.5-1.2,0.7-1.6s0.2-0.8,0.4-1.3c0.1-0.5,0.2-0.9,0.2-1.3s0.1-0.9,0.1-1.3
			c0-0.9-0.1-1.8-0.3-2.6c-0.2-0.8-0.6-1.8-1.1-2.9H53c0.6,0.8,1,1.7,1.3,2.6c0.3,0.9,0.5,1.8,0.5,2.8c0,0.8-0.1,1.6-0.4,2.6
			c-0.3,1-0.8,2-1.4,3H51.9z"/>
	</g>
</g>
</svg>
