<?xml version="1.0" encoding="utf-8"?>
<!-- Generator: Adobe Illustrator 17.1.0, SVG Export Plug-In . SVG Version: 6.00 Build 0)  -->
<!DOCTYPE svg PUBLIC "-//W3C//DTD SVG 1.1//EN" "http://www.w3.org/Graphics/SVG/1.1/DTD/svg11.dtd">
<svg version="1.1" id="Layer_1" xmlns="http://www.w3.org/2000/svg" xmlns:xlink="http://www.w3.org/1999/xlink" x="0px" y="0px"
	 viewBox="0 0 314.1 104.5" enable-background="new 0 0 314.1 104.5" xml:space="preserve">
<g>
	<polyline fill="none" stroke="#E9DA47" stroke-width="2.0745" stroke-miterlimit="10" stroke-dasharray="3.5564,3.5564" points="
		0,55.9 121.7,55.9 121.7,104.5 	"/>
	<circle fill="#FFFFFF" stroke="#E2D21F" stroke-width="3.5564" stroke-miterlimit="10" cx="143.5" cy="47.5" r="45.4"/>
	<g>
		<g enable-background="new    ">
			<path fill="#6DADA2" d="M126.5,56.1v4.7h-17.7c0.2-1.8,0.8-3.4,1.7-5c1-1.6,2.9-3.7,5.7-6.3c2.3-2.1,3.7-3.6,4.2-4.3
				c0.7-1,1-2.1,1-3.1c0-1.1-0.3-2-0.9-2.6c-0.6-0.6-1.4-0.9-2.5-0.9c-1.1,0-1.9,0.3-2.5,1c-0.6,0.6-1,1.7-1.1,3.2l-5-0.5
				c0.3-2.8,1.2-4.8,2.8-6c1.6-1.2,3.6-1.8,5.9-1.8c2.6,0,4.6,0.7,6.1,2.1c1.5,1.4,2.2,3.1,2.2,5.2c0,1.2-0.2,2.3-0.6,3.4
				c-0.4,1.1-1.1,2.2-2,3.4c-0.6,0.8-1.7,1.9-3.3,3.4c-1.6,1.5-2.6,2.4-3,2.9c-0.4,0.5-0.8,0.9-1,1.4L126.5,56.1L126.5,56.1
				L126.5,56.1z"/>
			<path fill="#6DADA2" d="M130.1,54.7l4.9-0.5c0.1,1,0.4,1.7,0.9,2.2c0.5,0.5,1.2,0.7,2,0.7c1,0,1.9-0.5,2.7-1.4
				c0.7-1,1.2-2.9,1.4-6c-1.3,1.5-2.9,2.2-4.8,2.2c-2.1,0-3.9-0.8-5.4-2.4c-1.5-1.6-2.3-3.7-2.3-6.2c0-2.7,0.8-4.8,2.4-6.4
				c1.6-1.6,3.6-2.4,6.1-2.4c2.7,0,4.9,1,6.6,3.1c1.7,2.1,2.6,5.5,2.6,10.2c0,4.8-0.9,8.3-2.7,10.4c-1.8,2.1-4.1,3.2-7,3.2
				c-2.1,0-3.7-0.5-5-1.6C131.2,58.6,130.4,56.9,130.1,54.7z M141.5,43.7c0-1.6-0.4-2.9-1.1-3.8c-0.7-0.9-1.6-1.3-2.6-1.3
				c-0.9,0-1.7,0.4-2.3,1.1c-0.6,0.7-0.9,1.9-0.9,3.6c0,1.7,0.3,2.9,1,3.7s1.5,1.2,2.5,1.2c1,0,1.8-0.4,2.4-1.1
				C141.1,46.3,141.5,45.2,141.5,43.7z"/>
			<path fill="#6DADA2" d="M150.4,41c0-2.4,0.5-4.1,1.6-5.2s2.4-1.7,4.2-1.7c1.8,0,3.3,0.6,4.3,1.7c1,1.1,1.6,2.9,1.6,5.2
				c0,2.4-0.5,4.1-1.6,5.2c-1,1.1-2.4,1.7-4.2,1.7c-1.8,0-3.3-0.6-4.3-1.7C150.9,45.1,150.4,43.4,150.4,41z M154.4,41
				c0,1.7,0.2,2.9,0.6,3.4c0.3,0.4,0.7,0.6,1.2,0.6c0.5,0,1-0.2,1.3-0.6c0.4-0.6,0.6-1.7,0.6-3.4c0-1.7-0.2-2.9-0.6-3.4
				c-0.3-0.4-0.7-0.7-1.3-0.7c-0.5,0-0.9,0.2-1.2,0.6C154.6,38.1,154.4,39.3,154.4,41z M160,61.8h-3.7l14-27.8h3.6L160,61.8z
				 M168.2,54.9c0-2.4,0.5-4.1,1.6-5.2c1-1.1,2.5-1.7,4.2-1.7c1.8,0,3.2,0.6,4.3,1.7c1,1.1,1.6,2.9,1.6,5.2c0,2.4-0.5,4.1-1.6,5.3
				c-1,1.1-2.4,1.7-4.2,1.7c-1.8,0-3.3-0.6-4.3-1.7C168.7,59.1,168.2,57.3,168.2,54.9z M172.1,54.9c0,1.7,0.2,2.9,0.6,3.4
				c0.3,0.4,0.7,0.7,1.2,0.7c0.5,0,1-0.2,1.2-0.6c0.4-0.6,0.6-1.7,0.6-3.4s-0.2-2.9-0.6-3.4c-0.3-0.4-0.7-0.6-1.3-0.6
				c-0.5,0-1,0.2-1.2,0.6C172.3,52.1,172.1,53.2,172.1,54.9z"/>
		</g>
	</g>
	<g enable-background="new    ">
		<path fill="#4E4E50" d="M203,28V14.3h1.8V28H203z"/>
		<path fill="#4E4E50" d="M207.8,28v-9.9h1.5v1.4c0.7-1.1,1.8-1.6,3.2-1.6c0.6,0,1.1,0.1,1.6,0.3s0.9,0.5,1.1,0.8
			c0.2,0.3,0.4,0.8,0.5,1.2c0.1,0.3,0.1,0.9,0.1,1.6V28h-1.7v-6c0-0.7-0.1-1.2-0.2-1.5c-0.1-0.3-0.4-0.6-0.7-0.8s-0.7-0.3-1.2-0.3
			c-0.7,0-1.3,0.2-1.9,0.7s-0.8,1.3-0.8,2.6V28H207.8z"/>
		<path fill="#4E4E50" d="M224.9,24.3l1.7,0.2c-0.2,1.1-0.6,2-1.4,2.7c-0.7,0.6-1.7,1-2.7,1c-1.4,0-2.4-0.4-3.3-1.3
			c-0.8-0.9-1.2-2.2-1.2-3.8c0-1.1,0.2-2,0.5-2.8c0.4-0.8,0.9-1.4,1.6-1.8c0.7-0.4,1.5-0.6,2.4-0.6c1.1,0,2,0.3,2.6,0.8
			c0.7,0.5,1.1,1.3,1.3,2.3l-1.6,0.3c-0.2-0.7-0.4-1.2-0.8-1.5c-0.4-0.3-0.9-0.5-1.4-0.5c-0.8,0-1.5,0.3-2.1,0.9
			c-0.5,0.6-0.8,1.6-0.8,2.9c0,1.3,0.3,2.3,0.8,2.9c0.5,0.6,1.2,0.9,2,0.9c0.7,0,1.2-0.2,1.7-0.6S224.8,25.2,224.9,24.3z"/>
		<path fill="#4E4E50" d="M228,28v-9.9h1.5v1.5c0.4-0.7,0.7-1.2,1.1-1.4c0.3-0.2,0.7-0.3,1.1-0.3c0.6,0,1.1,0.2,1.7,0.5l-0.6,1.6
			c-0.4-0.2-0.8-0.4-1.2-0.4c-0.4,0-0.7,0.1-1,0.3c-0.3,0.2-0.5,0.5-0.6,0.9c-0.2,0.6-0.3,1.3-0.3,2V28H228z"/>
		<path fill="#4E4E50" d="M241.1,24.8l1.7,0.2c-0.3,1-0.8,1.8-1.5,2.4c-0.7,0.6-1.7,0.8-2.8,0.8c-1.5,0-2.6-0.4-3.4-1.3
			c-0.8-0.9-1.3-2.1-1.3-3.8c0-1.7,0.4-3,1.3-3.9c0.9-0.9,2-1.4,3.3-1.4c1.3,0,2.4,0.5,3.2,1.4c0.8,0.9,1.3,2.2,1.3,3.8
			c0,0.1,0,0.2,0,0.4h-7.4c0.1,1.1,0.4,1.9,0.9,2.5c0.6,0.6,1.2,0.9,2.1,0.9c0.6,0,1.1-0.2,1.6-0.5C240.5,26,240.9,25.5,241.1,24.8z
			 M235.6,22.1h5.5c-0.1-0.8-0.3-1.5-0.6-1.9c-0.5-0.6-1.2-1-2.1-1c-0.8,0-1.4,0.3-1.9,0.8C236,20.5,235.7,21.2,235.6,22.1z"/>
		<path fill="#4E4E50" d="M251.4,26.8c-0.6,0.5-1.2,0.9-1.8,1.1s-1.2,0.3-1.9,0.3c-1.1,0-1.9-0.3-2.5-0.8c-0.6-0.5-0.9-1.2-0.9-2
			c0-0.5,0.1-0.9,0.3-1.3s0.5-0.7,0.9-1c0.4-0.2,0.8-0.4,1.2-0.6c0.3-0.1,0.8-0.2,1.5-0.3c1.4-0.2,2.4-0.4,3-0.6c0-0.2,0-0.4,0-0.4
			c0-0.7-0.2-1.2-0.5-1.4c-0.4-0.4-1.1-0.6-1.9-0.6c-0.8,0-1.4,0.1-1.7,0.4c-0.4,0.3-0.7,0.8-0.8,1.5l-1.6-0.2
			c0.1-0.7,0.4-1.3,0.7-1.7c0.3-0.4,0.8-0.8,1.5-1c0.6-0.2,1.4-0.3,2.2-0.3c0.8,0,1.5,0.1,2.1,0.3c0.5,0.2,0.9,0.4,1.2,0.8
			s0.4,0.7,0.5,1.1c0.1,0.3,0.1,0.8,0.1,1.5v2.2c0,1.6,0,2.5,0.1,3c0.1,0.4,0.2,0.8,0.4,1.2h-1.8C251.6,27.6,251.5,27.2,251.4,26.8z
			 M251.3,23c-0.6,0.2-1.5,0.5-2.7,0.6c-0.7,0.1-1.2,0.2-1.5,0.3s-0.5,0.3-0.7,0.5s-0.2,0.5-0.2,0.8c0,0.4,0.2,0.8,0.5,1.1
			c0.3,0.3,0.8,0.4,1.5,0.4c0.6,0,1.2-0.1,1.7-0.4c0.5-0.3,0.9-0.7,1.1-1.2c0.2-0.4,0.3-0.9,0.3-1.7V23z"/>
		<path fill="#4E4E50" d="M254.9,25l1.7-0.3c0.1,0.7,0.4,1.2,0.8,1.5c0.4,0.4,1,0.5,1.8,0.5c0.8,0,1.3-0.2,1.7-0.5
			c0.4-0.3,0.6-0.7,0.6-1.1c0-0.4-0.2-0.7-0.5-0.9c-0.2-0.1-0.8-0.3-1.7-0.6c-1.2-0.3-2.1-0.6-2.6-0.8c-0.5-0.2-0.8-0.5-1.1-0.9
			c-0.2-0.4-0.4-0.8-0.4-1.3c0-0.4,0.1-0.9,0.3-1.2c0.2-0.4,0.5-0.7,0.8-0.9c0.3-0.2,0.6-0.4,1.1-0.5c0.5-0.1,0.9-0.2,1.5-0.2
			c0.8,0,1.5,0.1,2,0.3s1,0.5,1.3,0.9c0.3,0.4,0.5,0.9,0.6,1.5l-1.6,0.2c-0.1-0.5-0.3-0.9-0.6-1.2c-0.4-0.3-0.9-0.4-1.5-0.4
			c-0.8,0-1.3,0.1-1.7,0.4c-0.3,0.3-0.5,0.6-0.5,0.9c0,0.2,0.1,0.4,0.2,0.6c0.1,0.2,0.4,0.3,0.6,0.4c0.2,0.1,0.7,0.2,1.5,0.4
			c1.2,0.3,2,0.6,2.5,0.8s0.8,0.5,1.1,0.9s0.4,0.9,0.4,1.4c0,0.6-0.2,1.1-0.5,1.6c-0.3,0.5-0.8,0.9-1.4,1.1s-1.3,0.4-2.1,0.4
			c-1.3,0-2.3-0.3-2.9-0.8S255.1,26.1,254.9,25z"/>
		<path fill="#4E4E50" d="M271.9,24.8l1.7,0.2c-0.3,1-0.8,1.8-1.5,2.4c-0.7,0.6-1.7,0.8-2.8,0.8c-1.5,0-2.6-0.4-3.4-1.3
			c-0.8-0.9-1.3-2.1-1.3-3.8c0-1.7,0.4-3,1.3-3.9c0.9-0.9,2-1.4,3.3-1.4c1.3,0,2.4,0.5,3.2,1.4c0.8,0.9,1.3,2.2,1.3,3.8
			c0,0.1,0,0.2,0,0.4h-7.4c0.1,1.1,0.4,1.9,0.9,2.5c0.6,0.6,1.2,0.9,2.1,0.9c0.6,0,1.1-0.2,1.6-0.5C271.3,26,271.7,25.5,271.9,24.8z
			 M266.4,22.1h5.5c-0.1-0.8-0.3-1.5-0.6-1.9c-0.5-0.6-1.2-1-2.1-1c-0.8,0-1.4,0.3-1.9,0.8C266.8,20.5,266.5,21.2,266.4,22.1z"/>
	</g>
	<g enable-background="new    ">
		<path fill="#4E4E50" d="M202.5,38.9v-1.9h1.7v1.9H202.5z M202.5,50.6v-9.9h1.7v9.9H202.5z"/>
		<path fill="#4E4E50" d="M206.7,50.6v-9.9h1.5v1.4c0.7-1.1,1.8-1.6,3.2-1.6c0.6,0,1.1,0.1,1.6,0.3c0.5,0.2,0.9,0.5,1.1,0.8
			c0.2,0.3,0.4,0.8,0.5,1.2c0.1,0.3,0.1,0.9,0.1,1.6v6.1h-1.7v-6c0-0.7-0.1-1.2-0.2-1.5c-0.1-0.3-0.4-0.6-0.7-0.8s-0.7-0.3-1.2-0.3
			c-0.7,0-1.3,0.2-1.9,0.7c-0.5,0.5-0.8,1.3-0.8,2.6v5.4H206.7z"/>
		<path fill="#4E4E50" d="M222,47.6l1.7-0.3c0.1,0.7,0.4,1.2,0.8,1.5c0.4,0.4,1,0.5,1.8,0.5c0.8,0,1.3-0.2,1.7-0.5
			c0.4-0.3,0.6-0.7,0.6-1.1c0-0.4-0.2-0.7-0.5-0.9c-0.2-0.1-0.8-0.3-1.7-0.6c-1.2-0.3-2.1-0.6-2.6-0.8c-0.5-0.2-0.8-0.5-1.1-0.9
			c-0.2-0.4-0.4-0.8-0.4-1.3c0-0.4,0.1-0.9,0.3-1.2c0.2-0.4,0.5-0.7,0.8-0.9c0.3-0.2,0.6-0.4,1.1-0.5c0.5-0.1,0.9-0.2,1.5-0.2
			c0.8,0,1.5,0.1,2,0.3s1,0.5,1.3,0.9c0.3,0.4,0.5,0.9,0.6,1.5l-1.6,0.2c-0.1-0.5-0.3-0.9-0.6-1.2c-0.4-0.3-0.9-0.4-1.5-0.4
			c-0.8,0-1.3,0.1-1.7,0.4c-0.3,0.3-0.5,0.6-0.5,0.9c0,0.2,0.1,0.4,0.2,0.6c0.1,0.2,0.4,0.3,0.6,0.4c0.2,0.1,0.7,0.2,1.5,0.4
			c1.2,0.3,2,0.6,2.5,0.8s0.8,0.5,1.1,0.9s0.4,0.9,0.4,1.4c0,0.6-0.2,1.1-0.5,1.6c-0.3,0.5-0.8,0.9-1.4,1.1s-1.3,0.4-2.1,0.4
			c-1.3,0-2.3-0.3-2.9-0.8S222.2,48.7,222,47.6z"/>
		<path fill="#4E4E50" d="M238.7,50.6v-1.5c-0.8,1.1-1.8,1.7-3.1,1.7c-0.6,0-1.1-0.1-1.6-0.3c-0.5-0.2-0.9-0.5-1.1-0.8
			c-0.2-0.3-0.4-0.8-0.5-1.2c-0.1-0.3-0.1-0.9-0.1-1.6v-6.1h1.7v5.5c0,0.9,0,1.5,0.1,1.8c0.1,0.4,0.3,0.8,0.7,1s0.8,0.4,1.3,0.4
			s1-0.1,1.4-0.4c0.4-0.3,0.8-0.6,0.9-1.1c0.2-0.4,0.3-1.1,0.3-1.9v-5.3h1.7v9.9H238.7z"/>
		<path fill="#4E4E50" d="M242.8,50.6v-9.9h1.5v1.5c0.4-0.7,0.7-1.2,1.1-1.4c0.3-0.2,0.7-0.3,1.1-0.3c0.6,0,1.1,0.2,1.7,0.5
			l-0.6,1.6c-0.4-0.2-0.8-0.4-1.2-0.4c-0.4,0-0.7,0.1-1,0.3c-0.3,0.2-0.5,0.5-0.6,0.9c-0.2,0.6-0.3,1.3-0.3,2v5.2H242.8z"/>
		<path fill="#4E4E50" d="M252,50.6l-3.8-9.9h1.8l2.1,5.9c0.2,0.6,0.4,1.3,0.6,2c0.1-0.5,0.4-1.2,0.6-1.9l2.2-6h1.7l-3.8,9.9H252z"
			/>
		<path fill="#4E4E50" d="M258.8,38.9v-1.9h1.7v1.9H258.8z M258.8,50.6v-9.9h1.7v9.9H258.8z"/>
		<path fill="#4E4E50" d="M265.8,50.6l-3.8-9.9h1.8l2.1,5.9c0.2,0.6,0.4,1.3,0.6,2c0.1-0.5,0.4-1.2,0.6-1.9l2.2-6h1.7l-3.8,9.9
			H265.8z"/>
		<path fill="#4E4E50" d="M279,49.4c-0.6,0.5-1.2,0.9-1.8,1.1s-1.2,0.3-1.9,0.3c-1.1,0-1.9-0.3-2.5-0.8c-0.6-0.5-0.9-1.2-0.9-2
			c0-0.5,0.1-0.9,0.3-1.3s0.5-0.7,0.9-1c0.4-0.2,0.8-0.4,1.2-0.6c0.3-0.1,0.8-0.2,1.5-0.3c1.4-0.2,2.4-0.4,3-0.6c0-0.2,0-0.4,0-0.4
			c0-0.7-0.2-1.2-0.5-1.4c-0.4-0.4-1.1-0.6-1.9-0.6c-0.8,0-1.4,0.1-1.7,0.4c-0.4,0.3-0.7,0.8-0.8,1.5l-1.6-0.2
			c0.1-0.7,0.4-1.3,0.7-1.7c0.3-0.4,0.8-0.8,1.5-1c0.6-0.2,1.4-0.3,2.2-0.3c0.8,0,1.5,0.1,2.1,0.3c0.5,0.2,0.9,0.4,1.2,0.8
			s0.4,0.7,0.5,1.1c0.1,0.3,0.1,0.8,0.1,1.5v2.2c0,1.6,0,2.5,0.1,3c0.1,0.4,0.2,0.8,0.4,1.2h-1.8C279.2,50.3,279.1,49.8,279,49.4z
			 M278.9,45.6c-0.6,0.2-1.5,0.5-2.7,0.6c-0.7,0.1-1.2,0.2-1.5,0.3s-0.5,0.3-0.7,0.5s-0.2,0.5-0.2,0.8c0,0.4,0.2,0.8,0.5,1.1
			c0.3,0.3,0.8,0.4,1.5,0.4c0.6,0,1.2-0.1,1.7-0.4c0.5-0.3,0.9-0.7,1.1-1.2c0.2-0.4,0.3-0.9,0.3-1.7V45.6z"/>
		<path fill="#4E4E50" d="M283.2,50.6V36.9h1.7v13.7H283.2z"/>
		<path fill="#4E4E50" d="M293.2,50.6V42h-1.5v-1.3h1.5v-1.1c0-0.7,0.1-1.2,0.2-1.5c0.2-0.4,0.4-0.8,0.9-1.1s1-0.4,1.7-0.4
			c0.5,0,1,0.1,1.6,0.2l-0.3,1.5c-0.3-0.1-0.7-0.1-1-0.1c-0.5,0-0.9,0.1-1.1,0.3c-0.2,0.2-0.3,0.6-0.3,1.2v0.9h1.9V42h-1.9v8.6
			H293.2z"/>
		<path fill="#4E4E50" d="M297.4,45.7c0-1.8,0.5-3.2,1.5-4.1c0.9-0.7,1.9-1.1,3.1-1.1c1.4,0,2.5,0.4,3.3,1.3
			c0.9,0.9,1.3,2.1,1.3,3.7c0,1.3-0.2,2.3-0.6,3c-0.4,0.7-0.9,1.3-1.7,1.7c-0.7,0.4-1.5,0.6-2.4,0.6c-1.4,0-2.5-0.4-3.4-1.3
			S297.4,47.3,297.4,45.7z M299.2,45.7c0,1.3,0.3,2.2,0.8,2.9c0.6,0.6,1.3,0.9,2.1,0.9c0.8,0,1.5-0.3,2.1-1c0.6-0.6,0.8-1.6,0.8-2.9
			c0-1.2-0.3-2.2-0.8-2.8c-0.6-0.6-1.2-0.9-2.1-0.9c-0.8,0-1.5,0.3-2.1,0.9S299.2,44.4,299.2,45.7z"/>
		<path fill="#4E4E50" d="M308.7,50.6v-9.9h1.5v1.5c0.4-0.7,0.7-1.2,1.1-1.4s0.7-0.3,1.1-0.3c0.6,0,1.1,0.2,1.7,0.5l-0.6,1.6
			c-0.4-0.2-0.8-0.4-1.2-0.4c-0.4,0-0.7,0.1-1,0.3c-0.3,0.2-0.5,0.5-0.6,0.9c-0.2,0.6-0.3,1.3-0.3,2v5.2H308.7z"/>
	</g>
	<g enable-background="new    ">
		<path fill="#4E4E50" d="M202.1,66.6c0-2.3,0.6-4,1.8-5.3c1.2-1.3,2.8-1.9,4.7-1.9c1.3,0,2.4,0.3,3.4,0.9s1.8,1.4,2.3,2.5
			c0.5,1.1,0.8,2.3,0.8,3.7c0,1.4-0.3,2.6-0.8,3.7c-0.6,1.1-1.4,1.9-2.4,2.5c-1,0.6-2.1,0.8-3.3,0.8c-1.3,0-2.4-0.3-3.5-0.9
			s-1.8-1.5-2.3-2.5S202.1,67.8,202.1,66.6z M204,66.6c0,1.6,0.4,2.9,1.3,3.9c0.9,0.9,2,1.4,3.3,1.4c1.4,0,2.5-0.5,3.4-1.4
			c0.9-1,1.3-2.3,1.3-4.1c0-1.1-0.2-2.1-0.6-2.9c-0.4-0.8-0.9-1.5-1.7-1.9s-1.5-0.7-2.4-0.7c-1.3,0-2.4,0.4-3.3,1.3
			C204.5,63.1,204,64.5,204,66.6z"/>
		<path fill="#4E4E50" d="M217.3,77V63.3h1.5v1.3c0.4-0.5,0.8-0.9,1.2-1.1s1-0.4,1.7-0.4c0.8,0,1.6,0.2,2.2,0.7
			c0.6,0.4,1.1,1,1.5,1.8s0.5,1.7,0.5,2.6c0,1-0.2,1.9-0.5,2.7c-0.4,0.8-0.9,1.4-1.6,1.9c-0.7,0.4-1.4,0.6-2.2,0.6
			c-0.6,0-1.1-0.1-1.5-0.4c-0.4-0.2-0.8-0.5-1.1-0.9V77H217.3z M218.9,68.3c0,1.3,0.3,2.2,0.8,2.8s1.1,0.9,1.9,0.9
			c0.7,0,1.4-0.3,1.9-0.9c0.5-0.6,0.8-1.6,0.8-2.9c0-1.3-0.3-2.2-0.8-2.8c-0.5-0.6-1.1-0.9-1.9-0.9c-0.7,0-1.3,0.3-1.9,1
			C219.1,66.1,218.9,67.1,218.9,68.3z"/>
		<path fill="#4E4E50" d="M231.6,71.7l0.2,1.5c-0.5,0.1-0.9,0.1-1.3,0.1c-0.6,0-1.1-0.1-1.4-0.3c-0.3-0.2-0.6-0.4-0.7-0.8
			s-0.2-1-0.2-2v-5.7h-1.2v-1.3h1.2v-2.5l1.7-1v3.5h1.7v1.3H230v5.8c0,0.5,0,0.8,0.1,0.9c0.1,0.1,0.2,0.2,0.3,0.3
			c0.1,0.1,0.3,0.1,0.6,0.1C231.1,71.8,231.3,71.8,231.6,71.7z"/>
		<path fill="#4E4E50" d="M233.3,61.5v-1.9h1.7v1.9H233.3z M233.3,73.2v-9.9h1.7v9.9H233.3z"/>
		<path fill="#4E4E50" d="M236.9,70.3l1.7-0.3c0.1,0.7,0.4,1.2,0.8,1.5c0.4,0.4,1,0.5,1.8,0.5c0.8,0,1.3-0.2,1.7-0.5
			c0.4-0.3,0.6-0.7,0.6-1.1c0-0.4-0.2-0.7-0.5-0.9c-0.2-0.1-0.8-0.3-1.7-0.6c-1.2-0.3-2.1-0.6-2.6-0.8c-0.5-0.2-0.8-0.5-1.1-0.9
			c-0.2-0.4-0.4-0.8-0.4-1.3c0-0.4,0.1-0.9,0.3-1.2c0.2-0.4,0.5-0.7,0.8-0.9c0.3-0.2,0.6-0.4,1.1-0.5s0.9-0.2,1.5-0.2
			c0.8,0,1.5,0.1,2,0.3s1,0.5,1.3,0.9c0.3,0.4,0.5,0.9,0.6,1.5l-1.6,0.2c-0.1-0.5-0.3-0.9-0.6-1.2c-0.4-0.3-0.9-0.4-1.5-0.4
			c-0.8,0-1.3,0.1-1.7,0.4c-0.3,0.3-0.5,0.6-0.5,0.9c0,0.2,0.1,0.4,0.2,0.6c0.1,0.2,0.4,0.3,0.6,0.4c0.2,0.1,0.7,0.2,1.5,0.4
			c1.2,0.3,2,0.6,2.5,0.8s0.8,0.5,1.1,0.9s0.4,0.9,0.4,1.4c0,0.6-0.2,1.1-0.5,1.6c-0.3,0.5-0.8,0.9-1.4,1.1
			c-0.6,0.3-1.3,0.4-2.1,0.4c-1.3,0-2.3-0.3-2.9-0.8C237.5,72.1,237,71.3,236.9,70.3z"/>
		<path fill="#4E4E50" d="M250.8,71.7l0.2,1.5c-0.5,0.1-0.9,0.1-1.3,0.1c-0.6,0-1.1-0.1-1.4-0.3c-0.3-0.2-0.6-0.4-0.7-0.8
			s-0.2-1-0.2-2v-5.7h-1.2v-1.3h1.2v-2.5l1.7-1v3.5h1.7v1.3h-1.7v5.8c0,0.5,0,0.8,0.1,0.9c0.1,0.1,0.2,0.2,0.3,0.3
			c0.1,0.1,0.3,0.1,0.6,0.1C250.2,71.8,250.4,71.8,250.8,71.7z"/>
		<path fill="#4E4E50" d="M258.9,72c-0.6,0.5-1.2,0.9-1.8,1.1c-0.6,0.2-1.2,0.3-1.9,0.3c-1.1,0-1.9-0.3-2.5-0.8
			c-0.6-0.5-0.9-1.2-0.9-2c0-0.5,0.1-0.9,0.3-1.3c0.2-0.4,0.5-0.7,0.9-1s0.8-0.4,1.2-0.6c0.3-0.1,0.8-0.2,1.5-0.3
			c1.4-0.2,2.4-0.4,3-0.6c0-0.2,0-0.4,0-0.4c0-0.7-0.2-1.2-0.5-1.4c-0.4-0.4-1.1-0.6-1.9-0.6c-0.8,0-1.4,0.1-1.8,0.4
			c-0.4,0.3-0.7,0.8-0.8,1.5l-1.6-0.2c0.1-0.7,0.4-1.3,0.7-1.7c0.3-0.4,0.8-0.8,1.5-1c0.6-0.2,1.4-0.3,2.2-0.3
			c0.8,0,1.5,0.1,2.1,0.3s0.9,0.4,1.2,0.8c0.2,0.3,0.4,0.7,0.5,1.1c0.1,0.3,0.1,0.8,0.1,1.5v2.2c0,1.6,0,2.5,0.1,3
			c0.1,0.4,0.2,0.8,0.4,1.2h-1.8C259,72.9,258.9,72.5,258.9,72z M258.7,68.3c-0.6,0.2-1.5,0.5-2.7,0.6c-0.7,0.1-1.2,0.2-1.5,0.3
			s-0.5,0.3-0.7,0.5c-0.2,0.2-0.2,0.5-0.2,0.8c0,0.4,0.2,0.8,0.5,1.1c0.3,0.3,0.8,0.4,1.5,0.4c0.6,0,1.2-0.1,1.7-0.4
			c0.5-0.3,0.9-0.7,1.1-1.2c0.2-0.4,0.3-0.9,0.3-1.7V68.3z"/>
		<path fill="#4E4E50" d="M265.8,73.2l-3.8-9.9h1.8l2.1,5.9c0.2,0.6,0.4,1.3,0.6,2c0.1-0.5,0.4-1.2,0.6-1.9l2.2-6h1.7l-3.8,9.9
			H265.8z"/>
		<path fill="#4E4E50" d="M272.6,61.5v-1.9h1.7v1.9H272.6z M272.6,73.2v-9.9h1.7v9.9H272.6z"/>
		<path fill="#4E4E50" d="M276.8,73.2v-9.9h1.5v1.4c0.7-1.1,1.8-1.6,3.2-1.6c0.6,0,1.1,0.1,1.6,0.3c0.5,0.2,0.9,0.5,1.1,0.8
			c0.2,0.3,0.4,0.8,0.5,1.2c0.1,0.3,0.1,0.9,0.1,1.6v6.1h-1.7v-6c0-0.7-0.1-1.2-0.2-1.5c-0.1-0.3-0.4-0.6-0.7-0.8s-0.7-0.3-1.2-0.3
			c-0.7,0-1.3,0.2-1.9,0.7c-0.5,0.5-0.8,1.3-0.8,2.6v5.4H276.8z"/>
	</g>
</g>
</svg>
