<?xml version="1.0" encoding="utf-8"?>
<!-- Generator: Adobe Illustrator 17.1.0, SVG Export Plug-In . SVG Version: 6.00 Build 0)  -->
<!DOCTYPE svg PUBLIC "-//W3C//DTD SVG 1.1//EN" "http://www.w3.org/Graphics/SVG/1.1/DTD/svg11.dtd">
<svg version="1.1" id="Layer_1" xmlns="http://www.w3.org/2000/svg" xmlns:xlink="http://www.w3.org/1999/xlink" x="0px" y="0px"
	 viewBox="0 0 74.3 19.3" enable-background="new 0 0 74.3 19.3" xml:space="preserve">
<g>
	<g enable-background="new    ">
		<path fill="#929497" d="M7.2,18.6V15H0v-2.9L7.6,0.9h2.8v11.1h2.2v3h-2.2v3.5H7.2z M7.2,12.1v-6l-4,6H7.2z"/>
		<path fill="#929497" d="M19.9,0.9c1.7,0,3,0.6,4,1.8c1.1,1.4,1.7,3.8,1.7,7.1c0,3.3-0.6,5.7-1.7,7.2c-0.9,1.2-2.3,1.8-4,1.8
			c-1.7,0-3.1-0.7-4.1-2s-1.6-3.7-1.6-7c0-3.3,0.6-5.7,1.7-7.1C16.9,1.5,18.2,0.9,19.9,0.9z M19.9,3.7c-0.4,0-0.8,0.1-1.1,0.4
			c-0.3,0.3-0.6,0.7-0.7,1.4c-0.2,0.9-0.3,2.3-0.3,4.4s0.1,3.5,0.3,4.2c0.2,0.8,0.5,1.3,0.8,1.5c0.3,0.3,0.7,0.4,1.1,0.4
			s0.8-0.1,1.1-0.4c0.3-0.3,0.6-0.7,0.7-1.4c0.2-0.9,0.3-2.3,0.3-4.4S22,6.4,21.8,5.7c-0.2-0.8-0.5-1.3-0.8-1.5
			C20.7,3.9,20.3,3.7,19.9,3.7z"/>
		<path fill="#929497" d="M28.6,18.6v-3.4h3.4v3.4H28.6z"/>
		<path fill="#929497" d="M34.7,14.5l3.3-0.4c0.1,0.7,0.3,1.2,0.6,1.5s0.8,0.5,1.3,0.5c0.7,0,1.3-0.3,1.8-1c0.5-0.6,0.8-2,0.9-4
			c-0.8,1-1.9,1.5-3.2,1.5c-1.4,0-2.6-0.5-3.6-1.6c-1-1.1-1.5-2.5-1.5-4.2c0-1.8,0.5-3.2,1.6-4.3c1.1-1.1,2.4-1.6,4-1.6
			c1.8,0,3.2,0.7,4.4,2.1c1.1,1.4,1.7,3.6,1.7,6.8c0,3.2-0.6,5.5-1.8,6.9c-1.2,1.4-2.7,2.1-4.6,2.1c-1.4,0-2.5-0.4-3.3-1.1
			C35.5,17,35,16,34.7,14.5z M42.3,7.2c0-1.1-0.2-1.9-0.7-2.5c-0.5-0.6-1.1-0.9-1.7-0.9c-0.6,0-1.1,0.2-1.5,0.7
			c-0.4,0.5-0.6,1.3-0.6,2.4c0,1.1,0.2,2,0.7,2.5s1,0.8,1.7,0.8c0.6,0,1.2-0.3,1.6-0.8C42.1,8.9,42.3,8.1,42.3,7.2z"/>
		<path fill="#929497" d="M48.3,5.4c0-1.6,0.3-2.7,1-3.5C50,1.1,51,0.7,52.1,0.7c1.2,0,2.2,0.4,2.9,1.1s1,1.9,1,3.5
			c0,1.6-0.3,2.7-1,3.5S53.4,10,52.2,10C51,10,50,9.6,49.3,8.9S48.3,6.9,48.3,5.4z M50.9,5.3c0,1.1,0.1,1.9,0.4,2.3
			c0.2,0.3,0.5,0.4,0.8,0.4c0.4,0,0.6-0.1,0.8-0.4c0.3-0.4,0.4-1.2,0.4-2.3S53.2,3.4,53,3c-0.2-0.3-0.5-0.4-0.8-0.4
			c-0.4,0-0.6,0.1-0.8,0.4C51.1,3.4,50.9,4.2,50.9,5.3z M54.7,19.2h-2.5l9.3-18.5H64L54.7,19.2z M60.1,14.6c0-1.6,0.3-2.7,1-3.5
			S62.8,10,64,10c1.2,0,2.2,0.4,2.8,1.1s1,1.9,1,3.5c0,1.6-0.3,2.7-1,3.5s-1.6,1.1-2.8,1.1c-1.2,0-2.2-0.4-2.9-1.1
			S60.1,16.2,60.1,14.6z M62.8,14.6c0,1.1,0.1,1.9,0.4,2.3c0.2,0.3,0.5,0.4,0.8,0.4c0.4,0,0.6-0.1,0.8-0.4c0.3-0.4,0.4-1.2,0.4-2.3
			s-0.1-1.9-0.4-2.3c-0.2-0.3-0.5-0.4-0.8-0.4c-0.4,0-0.6,0.1-0.8,0.4C62.9,12.7,62.8,13.5,62.8,14.6z"/>
	</g>
	<g enable-background="new    ">
		<path fill="#929497" d="M70.7,4.9l-1.1-0.8c0.3-0.4,0.7-0.7,1-1.1C70.9,2.8,71,2.8,71,2.7c-0.1,0-0.4-0.1-1-0.2
			c-0.4-0.1-0.7-0.2-0.8-0.2L69.6,1c0.6,0.2,1.2,0.5,1.6,0.8c-0.1-0.8-0.2-1.4-0.2-1.9h1.2c0,0.3-0.1,1-0.2,1.9
			c0.1,0,0.3-0.1,0.6-0.3c0.4-0.2,0.8-0.4,1.2-0.5l0.4,1.3c-0.5,0.1-1.1,0.2-1.8,0.3l0.8,0.9c0.2,0.2,0.3,0.3,0.4,0.5l-1.1,0.7
			l-0.9-1.6C71.4,3.8,71.1,4.3,70.7,4.9z"/>
	</g>
</g>
</svg>
