<?xml version="1.0" encoding="utf-8"?>
<!-- Generator: Adobe Illustrator 17.1.0, SVG Export Plug-In . SVG Version: 6.00 Build 0)  -->
<!DOCTYPE svg PUBLIC "-//W3C//DTD SVG 1.1//EN" "http://www.w3.org/Graphics/SVG/1.1/DTD/svg11.dtd">
<svg version="1.1" id="Layer_1" xmlns="http://www.w3.org/2000/svg" xmlns:xlink="http://www.w3.org/1999/xlink" x="0px" y="0px"
	 viewBox="0 0 358.1 309.7" enable-background="new 0 0 358.1 309.7" xml:space="preserve">
<g>
	<rect x="46.6" y="271.4" fill="#ECF7F3" width="311.5" height="38.2"/>
	
		<path fill="none" stroke="#6CACA1" stroke-width="1.605" stroke-linecap="round" stroke-linejoin="round" stroke-miterlimit="10" d="
		M59.8,6.8"/>
	<polyline fill="none" stroke="#D6ECE6" stroke-width="2.3709" stroke-miterlimit="10" points="47.8,2.6 47.8,271.4 358.1,271.4 	
		"/>
	<g enable-background="new    ">
		<path fill="#4E4E50" d="M27.5,139.3l1.5-0.2c0,0.4,0.2,0.7,0.4,0.9c0.2,0.2,0.5,0.3,0.8,0.3c0.3,0,0.6-0.1,0.8-0.4
			c0.2-0.2,0.3-0.6,0.3-1c0-0.4-0.1-0.7-0.3-0.9c-0.2-0.2-0.5-0.3-0.8-0.3c-0.2,0-0.4,0-0.7,0.1l0.2-1.3c0.4,0,0.7-0.1,1-0.3
			c0.2-0.2,0.3-0.5,0.3-0.8c0-0.3-0.1-0.5-0.2-0.7c-0.2-0.2-0.4-0.2-0.7-0.2c-0.3,0-0.5,0.1-0.7,0.3c-0.2,0.2-0.3,0.5-0.3,0.8
			l-1.4-0.2c0.1-0.5,0.3-0.9,0.5-1.2c0.2-0.3,0.5-0.5,0.8-0.7s0.8-0.3,1.2-0.3c0.8,0,1.4,0.2,1.9,0.7c0.4,0.4,0.6,0.9,0.6,1.4
			c0,0.7-0.4,1.3-1.2,1.7c0.5,0.1,0.8,0.3,1.1,0.7c0.3,0.3,0.4,0.8,0.4,1.3c0,0.7-0.3,1.3-0.8,1.8c-0.5,0.5-1.2,0.8-2,0.8
			c-0.7,0-1.4-0.2-1.8-0.6C27.8,140.5,27.5,139.9,27.5,139.3z"/>
		<path fill="#4E4E50" d="M36.5,133.2c0.8,0,1.4,0.3,1.9,0.8c0.5,0.7,0.8,1.8,0.8,3.3c0,1.5-0.3,2.7-0.8,3.3
			c-0.4,0.6-1.1,0.8-1.9,0.8c-0.8,0-1.4-0.3-1.9-0.9c-0.5-0.6-0.7-1.7-0.7-3.3c0-1.5,0.3-2.6,0.8-3.3
			C35.1,133.5,35.7,133.2,36.5,133.2z M36.5,134.5c-0.2,0-0.4,0.1-0.5,0.2c-0.1,0.1-0.3,0.3-0.3,0.6c-0.1,0.4-0.2,1.1-0.2,2
			c0,1,0,1.6,0.1,2c0.1,0.4,0.2,0.6,0.4,0.7c0.1,0.1,0.3,0.2,0.5,0.2s0.4-0.1,0.5-0.2c0.1-0.1,0.3-0.3,0.3-0.6
			c0.1-0.4,0.2-1.1,0.2-2c0-1,0-1.6-0.1-2s-0.2-0.6-0.4-0.7C36.9,134.6,36.7,134.5,36.5,134.5z"/>
	</g>
	<g enable-background="new    ">
		<path fill="#6CACA1" d="M8.2,225.6h-8V223c0-1,0-1.6,0.1-1.9c0.1-0.5,0.4-0.8,0.8-1.2c0.4-0.3,0.9-0.5,1.6-0.5
			c0.5,0,0.9,0.1,1.2,0.3c0.3,0.2,0.6,0.4,0.8,0.7c0.2,0.3,0.3,0.6,0.4,0.8c0.1,0.4,0.1,0.9,0.1,1.7v1.1h3V225.6z M1.5,224h2.3v-0.9
			c0-0.6,0-1.1-0.1-1.3c-0.1-0.2-0.2-0.4-0.4-0.5c-0.2-0.1-0.4-0.2-0.6-0.2c-0.3,0-0.5,0.1-0.7,0.3c-0.2,0.2-0.3,0.4-0.4,0.7
			c0,0.2-0.1,0.6-0.1,1.2V224z"/>
		<path fill="#6CACA1" d="M6.3,214.7l0.3-1.5c0.6,0.2,1,0.5,1.3,0.9c0.3,0.4,0.4,1,0.4,1.6c0,1-0.3,1.8-1,2.3
			c-0.5,0.4-1.2,0.6-2,0.6c-1,0-1.7-0.3-2.3-0.8c-0.5-0.5-0.8-1.1-0.8-1.9c0-0.9,0.3-1.6,0.9-2.1c0.6-0.5,1.4-0.7,2.6-0.7v3.9
			c0.5,0,0.8-0.1,1.1-0.4c0.3-0.2,0.4-0.5,0.4-0.9c0-0.2-0.1-0.4-0.2-0.6S6.6,214.8,6.3,214.7z M4.8,214.6c-0.4,0-0.8,0.1-1,0.3
			s-0.3,0.5-0.3,0.8c0,0.3,0.1,0.6,0.4,0.8c0.2,0.2,0.6,0.3,1,0.3V214.6z"/>
		<path fill="#6CACA1" d="M8.2,210.4v1.5H2.4v-1.4h0.8c-0.4-0.2-0.6-0.5-0.8-0.7c-0.1-0.2-0.2-0.4-0.2-0.7c0-0.4,0.1-0.7,0.3-1
			l1.3,0.5c-0.2,0.3-0.3,0.5-0.3,0.7c0,0.2,0.1,0.4,0.2,0.5c0.1,0.1,0.3,0.3,0.6,0.4c0.3,0.1,1,0.1,2,0.1H8.2z"/>
		<path fill="#6CACA1" d="M4.1,202.4l0.3,1.5c-0.3,0.1-0.5,0.2-0.7,0.3c-0.2,0.2-0.2,0.4-0.2,0.7c0,0.4,0.1,0.7,0.4,0.9
			c0.3,0.2,0.7,0.3,1.3,0.3c0.7,0,1.2-0.1,1.5-0.3c0.3-0.2,0.4-0.5,0.4-0.9c0-0.3-0.1-0.5-0.2-0.7c-0.2-0.2-0.5-0.3-0.9-0.4l0.3-1.5
			c0.7,0.2,1.2,0.5,1.6,0.9c0.4,0.4,0.5,1,0.5,1.8c0,0.9-0.3,1.5-0.8,2c-0.5,0.5-1.3,0.8-2.2,0.8c-1,0-1.7-0.3-2.2-0.8
			c-0.5-0.5-0.8-1.2-0.8-2.1c0-0.7,0.2-1.3,0.5-1.7C3,202.9,3.5,202.6,4.1,202.4z"/>
		<path fill="#6CACA1" d="M6.3,197.9l0.3-1.5c0.6,0.2,1,0.5,1.3,0.9c0.3,0.4,0.4,1,0.4,1.6c0,1-0.3,1.8-1,2.3
			c-0.5,0.4-1.2,0.6-2,0.6c-1,0-1.7-0.3-2.3-0.8c-0.5-0.5-0.8-1.1-0.8-1.9c0-0.9,0.3-1.6,0.9-2.1c0.6-0.5,1.4-0.7,2.6-0.7v3.9
			c0.5,0,0.8-0.1,1.1-0.4c0.3-0.2,0.4-0.5,0.4-0.9c0-0.2-0.1-0.4-0.2-0.6S6.6,197.9,6.3,197.9z M4.8,197.8c-0.4,0-0.8,0.1-1,0.3
			s-0.3,0.5-0.3,0.8c0,0.3,0.1,0.6,0.4,0.8c0.2,0.2,0.6,0.3,1,0.3V197.8z"/>
		<path fill="#6CACA1" d="M8.2,189.7v1.5h-3c-0.6,0-1,0-1.2,0.1c-0.2,0.1-0.3,0.2-0.4,0.3c-0.1,0.1-0.2,0.3-0.2,0.5
			c0,0.3,0.1,0.5,0.2,0.7c0.1,0.2,0.3,0.4,0.6,0.4c0.2,0.1,0.7,0.1,1.3,0.1h2.6v1.5H2.4v-1.4h0.9c-0.7-0.5-1-1.1-1-1.9
			c0-0.3,0.1-0.7,0.2-0.9c0.1-0.3,0.3-0.5,0.5-0.6s0.4-0.2,0.6-0.3s0.6-0.1,1-0.1H8.2z"/>
		<path fill="#6CACA1" d="M2.4,185.5h1.2v1.1h2.3c0.5,0,0.8,0,0.8,0c0.1,0,0.1-0.1,0.2-0.1c0.1-0.1,0.1-0.2,0.1-0.3
			c0-0.1,0-0.3-0.1-0.6l1.2-0.1c0.2,0.4,0.2,0.8,0.2,1.2c0,0.3,0,0.5-0.1,0.8c-0.1,0.2-0.2,0.4-0.4,0.5c-0.1,0.1-0.3,0.2-0.6,0.2
			c-0.2,0-0.5,0-1.1,0H3.6v0.7H2.4v-0.7H1.2l-0.9-1.5h2.1V185.5z"/>
		<path fill="#6CACA1" d="M4.1,183.2l-0.3,1.4c-0.6-0.2-1-0.4-1.3-0.8c-0.3-0.4-0.4-1-0.4-1.7c0-0.7,0.1-1.2,0.2-1.5
			c0.2-0.3,0.4-0.6,0.6-0.7c0.3-0.1,0.7-0.2,1.4-0.2l1.8,0c0.5,0,0.9,0,1.1-0.1c0.2,0,0.5-0.1,0.8-0.3v1.5c-0.1,0-0.3,0.1-0.5,0.1
			c-0.1,0-0.2,0-0.2,0.1c0.3,0.3,0.4,0.5,0.6,0.8s0.2,0.6,0.2,1c0,0.6-0.2,1.1-0.5,1.4s-0.7,0.5-1.2,0.5c-0.3,0-0.6-0.1-0.9-0.2
			c-0.3-0.2-0.5-0.4-0.6-0.7c-0.1-0.3-0.3-0.7-0.4-1.2c-0.1-0.7-0.3-1.2-0.4-1.5H4.2c-0.3,0-0.5,0.1-0.6,0.2
			c-0.1,0.1-0.2,0.4-0.2,0.8c0,0.3,0.1,0.5,0.2,0.6C3.7,183,3.9,183.1,4.1,183.2z M5.4,181.2c0.1,0.2,0.1,0.5,0.2,0.9
			c0.1,0.4,0.2,0.7,0.3,0.8c0.1,0.2,0.3,0.3,0.5,0.3c0.2,0,0.4-0.1,0.6-0.2c0.2-0.2,0.2-0.4,0.2-0.6c0-0.3-0.1-0.5-0.3-0.8
			c-0.1-0.2-0.3-0.3-0.5-0.4c-0.1,0-0.4-0.1-0.8-0.1H5.4z"/>
		<path fill="#6CACA1" d="M8.6,178.3l0.2-1.8c0.2,0,0.3-0.1,0.4-0.2c0.1-0.1,0.2-0.4,0.2-0.7c0-0.4-0.1-0.7-0.2-0.9
			c-0.1-0.1-0.2-0.2-0.4-0.3c-0.1,0-0.4-0.1-0.7-0.1H7.2c0.6,0.5,0.9,1,0.9,1.7c0,0.8-0.3,1.4-1,1.9c-0.5,0.4-1.2,0.5-2,0.5
			c-1,0-1.7-0.2-2.2-0.7c-0.5-0.5-0.8-1.1-0.8-1.8c0-0.7,0.3-1.3,0.9-1.8H2.4v-1.4h5.2c0.7,0,1.2,0.1,1.5,0.2s0.6,0.3,0.8,0.5
			c0.2,0.2,0.3,0.5,0.5,0.8c0.1,0.3,0.2,0.8,0.2,1.3c0,1-0.2,1.7-0.5,2.1c-0.3,0.4-0.8,0.6-1.3,0.6C8.7,178.3,8.6,178.3,8.6,178.3z
			 M5.1,176.9c0.6,0,1.1-0.1,1.4-0.4c0.3-0.2,0.4-0.5,0.4-0.9c0-0.4-0.1-0.7-0.4-1c-0.3-0.3-0.7-0.4-1.3-0.4c-0.6,0-1.1,0.1-1.3,0.4
			c-0.3,0.2-0.4,0.6-0.4,0.9c0,0.4,0.1,0.7,0.4,0.9C4.1,176.8,4.6,176.9,5.1,176.9z"/>
		<path fill="#6CACA1" d="M6.3,167.9l0.3-1.5c0.6,0.2,1,0.5,1.3,0.9c0.3,0.4,0.4,1,0.4,1.6c0,1-0.3,1.8-1,2.2
			c-0.5,0.4-1.2,0.6-2,0.6c-1,0-1.7-0.3-2.3-0.8c-0.5-0.5-0.8-1.1-0.8-1.9c0-0.9,0.3-1.5,0.9-2.1c0.6-0.5,1.4-0.7,2.6-0.7v3.9
			c0.5,0,0.8-0.1,1.1-0.4c0.3-0.2,0.4-0.5,0.4-0.9c0-0.2-0.1-0.4-0.2-0.6C6.8,168.1,6.6,168,6.3,167.9z M4.8,167.8
			c-0.4,0-0.8,0.1-1,0.3c-0.2,0.2-0.3,0.5-0.3,0.8c0,0.3,0.1,0.6,0.4,0.8c0.2,0.2,0.6,0.3,1,0.3V167.8z"/>
		<path fill="#6CACA1" d="M5.2,162.3c-0.5,0-1-0.1-1.5-0.4c-0.5-0.3-0.8-0.6-1.1-1.1c-0.3-0.5-0.4-1-0.4-1.5c0-0.9,0.3-1.6,0.9-2.2
			c0.6-0.6,1.3-0.8,2.2-0.8c0.9,0,1.6,0.3,2.2,0.9c0.6,0.6,0.9,1.3,0.9,2.1c0,0.5-0.1,1-0.4,1.5c-0.2,0.5-0.6,0.9-1.1,1.1
			C6.4,162.1,5.9,162.3,5.2,162.3z M5.3,160.7c0.6,0,1-0.1,1.3-0.4c0.3-0.3,0.5-0.6,0.5-1s-0.2-0.7-0.5-1c-0.3-0.3-0.8-0.4-1.3-0.4
			c-0.6,0-1,0.1-1.3,0.4c-0.3,0.3-0.5,0.6-0.5,1s0.2,0.7,0.5,1C4.2,160.5,4.7,160.7,5.3,160.7z"/>
		<path fill="#6CACA1" d="M2.4,155.7v-0.9H1.9c-0.5,0-0.9-0.1-1.1-0.2c-0.2-0.1-0.4-0.3-0.6-0.6c-0.2-0.3-0.2-0.6-0.2-1.1
			c0-0.4,0.1-0.9,0.2-1.3l1.1,0.2c-0.1,0.2-0.1,0.5-0.1,0.7c0,0.2,0.1,0.4,0.2,0.5s0.3,0.1,0.6,0.1h0.4v-1.2h1.2v1.2h4.6v1.5H3.6
			v0.9H2.4z"/>
		<path fill="#6CACA1" d="M2.4,148.2v-1.4h0.9c-0.3-0.2-0.5-0.4-0.7-0.8c-0.2-0.3-0.3-0.7-0.3-1.1c0-0.7,0.3-1.3,0.8-1.7
			s1.3-0.7,2.2-0.7c1,0,1.7,0.2,2.3,0.7c0.5,0.5,0.8,1.1,0.8,1.7c0,0.3-0.1,0.6-0.2,0.9c-0.1,0.3-0.3,0.5-0.7,0.8h2.9v1.5H2.4z
			 M5.2,146.7c0.7,0,1.1-0.1,1.5-0.4c0.3-0.3,0.5-0.6,0.5-0.9c0-0.4-0.1-0.7-0.4-0.9c-0.3-0.2-0.8-0.4-1.4-0.4
			c-0.6,0-1.1,0.1-1.4,0.4c-0.3,0.2-0.4,0.5-0.4,0.9c0,0.4,0.1,0.7,0.4,0.9S4.6,146.7,5.2,146.7z"/>
		<path fill="#6CACA1" d="M4.1,140.2l-0.3,1.4c-0.6-0.2-1-0.4-1.3-0.8c-0.3-0.4-0.4-1-0.4-1.7c0-0.7,0.1-1.2,0.2-1.5
			c0.2-0.3,0.4-0.6,0.6-0.7c0.3-0.1,0.7-0.2,1.4-0.2l1.8,0c0.5,0,0.9,0,1.1-0.1c0.2,0,0.5-0.1,0.8-0.3v1.5c-0.1,0-0.3,0.1-0.5,0.1
			c-0.1,0-0.2,0-0.2,0.1c0.3,0.3,0.4,0.5,0.6,0.8s0.2,0.6,0.2,1c0,0.6-0.2,1.1-0.5,1.4s-0.7,0.5-1.2,0.5c-0.3,0-0.6-0.1-0.9-0.2
			s-0.5-0.4-0.6-0.7c-0.1-0.3-0.3-0.7-0.4-1.2c-0.1-0.7-0.3-1.2-0.4-1.5H4.2c-0.3,0-0.5,0.1-0.6,0.2c-0.1,0.1-0.2,0.4-0.2,0.8
			c0,0.3,0.1,0.5,0.2,0.6C3.7,139.9,3.9,140.1,4.1,140.2z M5.4,138.1c0.1,0.2,0.1,0.5,0.2,0.9c0.1,0.4,0.2,0.7,0.3,0.8
			c0.1,0.2,0.3,0.3,0.5,0.3c0.2,0,0.4-0.1,0.6-0.2c0.2-0.2,0.2-0.4,0.2-0.6c0-0.3-0.1-0.5-0.3-0.8c-0.1-0.2-0.3-0.3-0.5-0.4
			c-0.1,0-0.4-0.1-0.8-0.1H5.4z"/>
		<path fill="#6CACA1" d="M2.4,132.4h1.2v1.1h2.3c0.5,0,0.8,0,0.8,0c0.1,0,0.1-0.1,0.2-0.1C7,133.2,7,133.1,7,133
			c0-0.1,0-0.3-0.1-0.6l1.2-0.1c0.2,0.4,0.2,0.8,0.2,1.2c0,0.3,0,0.5-0.1,0.8c-0.1,0.2-0.2,0.4-0.4,0.5c-0.1,0.1-0.3,0.2-0.6,0.2
			c-0.2,0-0.5,0-1.1,0H3.6v0.7H2.4V135H1.2l-0.9-1.5h2.1V132.4z"/>
		<path fill="#6CACA1" d="M1.6,131.3H0.1v-1.5h1.4V131.3z M8.2,131.3H2.4v-1.5h5.8V131.3z"/>
		<path fill="#6CACA1" d="M6.3,124.8l0.3-1.5c0.6,0.2,1,0.5,1.3,0.9c0.3,0.4,0.4,1,0.4,1.6c0,1-0.3,1.8-1,2.2
			c-0.5,0.4-1.2,0.6-2,0.6c-1,0-1.7-0.3-2.3-0.8c-0.5-0.5-0.8-1.1-0.8-1.9c0-0.9,0.3-1.6,0.9-2.1c0.6-0.5,1.4-0.7,2.6-0.7v3.9
			c0.5,0,0.8-0.1,1.1-0.4c0.3-0.2,0.4-0.5,0.4-0.9c0-0.2-0.1-0.4-0.2-0.6S6.6,124.9,6.3,124.8z M4.8,124.7c-0.4,0-0.8,0.1-1,0.3
			s-0.3,0.5-0.3,0.8c0,0.3,0.1,0.6,0.4,0.8c0.2,0.2,0.6,0.3,1,0.3V124.7z"/>
		<path fill="#6CACA1" d="M8.2,116.7v1.5h-3c-0.6,0-1,0-1.2,0.1c-0.2,0.1-0.3,0.2-0.4,0.3c-0.1,0.1-0.2,0.3-0.2,0.5
			c0,0.3,0.1,0.5,0.2,0.7c0.1,0.2,0.3,0.4,0.6,0.4s0.7,0.1,1.3,0.1h2.6v1.5H2.4v-1.4h0.9c-0.7-0.5-1-1.1-1-1.9
			c0-0.3,0.1-0.7,0.2-0.9c0.1-0.3,0.3-0.5,0.5-0.6c0.2-0.1,0.4-0.2,0.6-0.3s0.6-0.1,1-0.1H8.2z"/>
		<path fill="#6CACA1" d="M2.4,112.4h1.2v1.1h2.3c0.5,0,0.8,0,0.8,0c0.1,0,0.1-0.1,0.2-0.1C7,113.2,7,113.2,7,113
			c0-0.1,0-0.3-0.1-0.6l1.2-0.1c0.2,0.4,0.2,0.8,0.2,1.2c0,0.3,0,0.5-0.1,0.8c-0.1,0.2-0.2,0.4-0.4,0.5c-0.1,0.1-0.3,0.2-0.6,0.2
			c-0.2,0-0.5,0-1.1,0H3.6v0.7H2.4V115H1.2l-0.9-1.5h2.1V112.4z"/>
		<path fill="#6CACA1" d="M6.5,111.9l-0.2-1.5c0.3-0.1,0.5-0.2,0.7-0.4s0.2-0.5,0.2-0.8c0-0.4-0.1-0.7-0.2-0.9
			c-0.1-0.1-0.2-0.2-0.4-0.2c-0.1,0-0.2,0-0.3,0.1c-0.1,0.1-0.1,0.2-0.2,0.5c-0.3,1.2-0.5,2-0.8,2.4c-0.3,0.5-0.8,0.7-1.3,0.7
			c-0.5,0-0.9-0.2-1.3-0.6s-0.5-1-0.5-1.9c0-0.8,0.1-1.4,0.4-1.8c0.3-0.4,0.6-0.7,1.2-0.8l0.3,1.5c-0.2,0.1-0.4,0.2-0.5,0.4
			c-0.1,0.2-0.2,0.4-0.2,0.7c0,0.4,0.1,0.7,0.2,0.9c0.1,0.1,0.2,0.2,0.3,0.2c0.1,0,0.2-0.1,0.3-0.2c0.1-0.1,0.2-0.6,0.4-1.4
			c0.2-0.8,0.4-1.4,0.7-1.7c0.3-0.3,0.7-0.5,1.1-0.5c0.5,0,1,0.2,1.4,0.7c0.4,0.4,0.6,1.1,0.6,2c0,0.8-0.2,1.4-0.5,1.9
			C7.5,111.5,7.1,111.8,6.5,111.9z"/>
		<path fill="#6CACA1" d="M10.5,99.4v1.1c-0.8,0.6-1.7,1-2.6,1.3c-0.9,0.3-1.8,0.4-2.6,0.4c-1.1,0-2.1-0.2-3-0.5
			c-0.8-0.3-1.6-0.7-2.3-1.2v-1.1c1.1,0.5,2.1,0.8,2.8,1s1.6,0.3,2.5,0.3c0.6,0,1.2-0.1,1.8-0.2c0.6-0.1,1.2-0.3,1.8-0.5
			C9.3,100,9.8,99.7,10.5,99.4z"/>
		<path fill="#6CACA1" d="M8.5,95.6v1.1L0,92.5v-1.1L8.5,95.6z M2.1,98.6c-0.7,0-1.3-0.2-1.6-0.5S0,97.3,0,96.8c0-0.6,0.2-1,0.5-1.3
			S1.4,95,2.1,95c0.7,0,1.3,0.2,1.6,0.5c0.3,0.3,0.5,0.7,0.5,1.3c0,0.6-0.2,1-0.5,1.3S2.8,98.6,2.1,98.6z M2.1,97.4
			c0.5,0,0.9-0.1,1.1-0.2c0.1-0.1,0.2-0.2,0.2-0.4c0-0.2-0.1-0.3-0.2-0.4c-0.2-0.1-0.5-0.2-1.1-0.2c-0.5,0-0.9,0.1-1,0.2
			c-0.1,0.1-0.2,0.2-0.2,0.4c0,0.2,0.1,0.3,0.2,0.4C1.2,97.3,1.6,97.4,2.1,97.4z M6.4,93.1c-0.7,0-1.3-0.2-1.6-0.5
			c-0.3-0.3-0.5-0.7-0.5-1.3c0-0.6,0.2-1,0.5-1.3c0.3-0.3,0.9-0.5,1.6-0.5c0.7,0,1.3,0.2,1.6,0.5c0.3,0.3,0.5,0.7,0.5,1.3
			c0,0.6-0.2,1-0.5,1.3S7.1,93.1,6.4,93.1z M6.4,91.9c0.5,0,0.9-0.1,1-0.2c0.1-0.1,0.2-0.2,0.2-0.4c0-0.2-0.1-0.3-0.2-0.4
			c-0.2-0.1-0.5-0.2-1.1-0.2c-0.5,0-0.9,0.1-1.1,0.2c-0.1,0.1-0.2,0.2-0.2,0.4s0.1,0.3,0.2,0.4C5.5,91.9,5.8,91.9,6.4,91.9z"/>
		<path fill="#6CACA1" d="M10.5,88.7C9.9,88.4,9.4,88.2,9,88c-0.3-0.1-0.7-0.2-1.2-0.3c-0.5-0.1-0.9-0.2-1.3-0.2
			c-0.4-0.1-0.8-0.1-1.3-0.1c-0.9,0-1.7,0.1-2.5,0.3s-1.7,0.5-2.8,1v-1c0.8-0.6,1.6-1,2.5-1.3c0.9-0.3,1.8-0.5,2.7-0.5
			c0.8,0,1.6,0.1,2.5,0.4c1,0.3,1.9,0.7,2.9,1.4V88.7z"/>
	</g>
	<g enable-background="new    ">
		<path fill="#6CACA1" d="M182.9,295.5h-1.8l-0.7-1.8h-3.2l-0.7,1.8h-1.7l3.1-8h1.7L182.9,295.5z M179.9,292.3l-1.1-3l-1.1,3H179.9z
			"/>
		<path fill="#6CACA1" d="M186.4,289.7v1.2h-1.1v2.3c0,0.5,0,0.8,0,0.8c0,0.1,0.1,0.1,0.1,0.2c0.1,0.1,0.2,0.1,0.3,0.1
			c0.1,0,0.3,0,0.6-0.1l0.1,1.2c-0.4,0.2-0.8,0.2-1.2,0.2c-0.3,0-0.5,0-0.8-0.1c-0.2-0.1-0.4-0.2-0.5-0.4c-0.1-0.1-0.2-0.3-0.2-0.6
			c0-0.2,0-0.5,0-1.1v-2.5h-0.7v-1.2h0.7v-1.2l1.5-0.9v2.1H186.4z"/>
		<path fill="#6CACA1" d="M195.5,294.1v1.4h-5.4c0.1-0.5,0.2-1.1,0.5-1.5c0.3-0.5,0.9-1.1,1.7-1.9c0.7-0.6,1.1-1.1,1.3-1.3
			c0.2-0.3,0.3-0.6,0.3-0.9c0-0.3-0.1-0.6-0.3-0.8s-0.4-0.3-0.8-0.3c-0.3,0-0.6,0.1-0.8,0.3c-0.2,0.2-0.3,0.5-0.3,1l-1.5-0.2
			c0.1-0.8,0.4-1.5,0.9-1.8c0.5-0.4,1.1-0.6,1.8-0.6c0.8,0,1.4,0.2,1.9,0.6c0.5,0.4,0.7,1,0.7,1.6c0,0.4-0.1,0.7-0.2,1
			c-0.1,0.3-0.3,0.7-0.6,1c-0.2,0.2-0.5,0.6-1,1s-0.8,0.7-0.9,0.9c-0.1,0.1-0.2,0.3-0.3,0.4H195.5z"/>
		<path fill="#6CACA1" d="M199.2,289.7h1.6l1.4,4.1l1.4-4.1h1.6l-2.1,5.6l-0.4,1c-0.1,0.3-0.3,0.6-0.4,0.8c-0.1,0.2-0.3,0.3-0.4,0.4
			s-0.4,0.2-0.6,0.3c-0.2,0.1-0.5,0.1-0.8,0.1c-0.3,0-0.6,0-0.9-0.1l-0.1-1.2c0.2,0,0.5,0.1,0.7,0.1c0.4,0,0.6-0.1,0.8-0.3
			c0.2-0.2,0.3-0.5,0.4-0.8L199.2,289.7z"/>
		<path fill="#6CACA1" d="M209.6,293.6l1.5,0.3c-0.2,0.6-0.5,1-0.9,1.3c-0.4,0.3-1,0.4-1.6,0.4c-1,0-1.8-0.3-2.2-1
			c-0.4-0.5-0.6-1.2-0.6-2c0-1,0.3-1.7,0.8-2.3c0.5-0.5,1.1-0.8,1.9-0.8c0.9,0,1.6,0.3,2.1,0.9c0.5,0.6,0.7,1.4,0.7,2.6h-3.9
			c0,0.5,0.1,0.8,0.4,1.1c0.2,0.3,0.5,0.4,0.9,0.4c0.2,0,0.4-0.1,0.6-0.2S209.5,293.9,209.6,293.6z M209.7,292.1
			c0-0.4-0.1-0.8-0.3-1s-0.5-0.3-0.8-0.3c-0.3,0-0.6,0.1-0.8,0.4c-0.2,0.2-0.3,0.6-0.3,1H209.7z"/>
		<path fill="#6CACA1" d="M213.6,291.4l-1.4-0.3c0.2-0.6,0.4-1,0.8-1.3c0.4-0.3,1-0.4,1.7-0.4c0.7,0,1.2,0.1,1.5,0.2
			c0.3,0.2,0.6,0.4,0.7,0.6c0.1,0.3,0.2,0.7,0.2,1.4l0,1.8c0,0.5,0,0.9,0.1,1.1c0,0.2,0.1,0.5,0.3,0.8H216c0-0.1-0.1-0.3-0.1-0.5
			c0-0.1,0-0.2-0.1-0.2c-0.3,0.3-0.5,0.4-0.8,0.6s-0.6,0.2-1,0.2c-0.6,0-1.1-0.2-1.4-0.5s-0.5-0.7-0.5-1.2c0-0.3,0.1-0.6,0.2-0.9
			s0.4-0.5,0.7-0.6c0.3-0.1,0.7-0.3,1.2-0.4c0.7-0.1,1.2-0.3,1.5-0.4v-0.2c0-0.3-0.1-0.5-0.2-0.6c-0.1-0.1-0.4-0.2-0.8-0.2
			c-0.3,0-0.5,0.1-0.6,0.2C213.8,291,213.7,291.2,213.6,291.4z M215.7,292.7c-0.2,0.1-0.5,0.1-0.9,0.2c-0.4,0.1-0.7,0.2-0.8,0.3
			c-0.2,0.1-0.3,0.3-0.3,0.5c0,0.2,0.1,0.4,0.2,0.6c0.2,0.2,0.4,0.2,0.6,0.2c0.3,0,0.5-0.1,0.8-0.3c0.2-0.1,0.3-0.3,0.4-0.5
			c0-0.1,0.1-0.4,0.1-0.8V292.7z"/>
		<path fill="#6CACA1" d="M220.2,295.5h-1.5v-5.8h1.4v0.8c0.2-0.4,0.5-0.6,0.7-0.8c0.2-0.1,0.4-0.2,0.7-0.2c0.4,0,0.7,0.1,1,0.3
			l-0.5,1.3c-0.3-0.2-0.5-0.3-0.7-0.3c-0.2,0-0.4,0.1-0.5,0.2c-0.1,0.1-0.3,0.3-0.4,0.6c-0.1,0.3-0.1,1-0.1,2V295.5z"/>
		<path fill="#6CACA1" d="M222.6,293.8l1.5-0.2c0.1,0.3,0.2,0.5,0.4,0.7s0.5,0.2,0.8,0.2c0.4,0,0.7-0.1,0.9-0.2
			c0.1-0.1,0.2-0.2,0.2-0.4c0-0.1,0-0.2-0.1-0.3c-0.1-0.1-0.2-0.1-0.5-0.2c-1.2-0.3-2-0.5-2.4-0.8c-0.5-0.3-0.7-0.8-0.7-1.3
			c0-0.5,0.2-0.9,0.6-1.3s1-0.5,1.9-0.5c0.8,0,1.4,0.1,1.8,0.4c0.4,0.3,0.7,0.6,0.8,1.2l-1.5,0.3c-0.1-0.2-0.2-0.4-0.4-0.5
			c-0.2-0.1-0.4-0.2-0.7-0.2c-0.4,0-0.7,0.1-0.9,0.2c-0.1,0.1-0.2,0.2-0.2,0.3c0,0.1,0.1,0.2,0.2,0.3c0.1,0.1,0.6,0.2,1.4,0.4
			c0.8,0.2,1.4,0.4,1.7,0.7c0.3,0.3,0.5,0.7,0.5,1.1c0,0.5-0.2,1-0.7,1.4c-0.4,0.4-1.1,0.6-2,0.6c-0.8,0-1.4-0.2-1.9-0.5
			C223,294.8,222.7,294.4,222.6,293.8z"/>
	</g>
	<g enable-background="new    ">
		<path fill="#4E4E50" d="M323.1,256.1l0.3-0.8c0.6,0.2,1,0.4,1.3,0.5c-0.1-0.7-0.1-1.1-0.1-1.4h0.8c0,0.4-0.1,0.8-0.1,1.4
			c0.4-0.2,0.8-0.4,1.3-0.5l0.3,0.8c-0.5,0.2-0.9,0.3-1.4,0.3c0.2,0.2,0.5,0.5,0.9,1l-0.7,0.5c-0.2-0.3-0.5-0.7-0.8-1.2
			c-0.3,0.5-0.5,0.9-0.7,1.2l-0.6-0.5c0.4-0.5,0.7-0.9,0.9-1C324,256.3,323.5,256.2,323.1,256.1z"/>
		<path fill="#4E4E50" d="M326.1,264.9l1.7-8.1h0.9l-0.2,0.8c0.3-0.4,0.6-0.6,0.9-0.7c0.3-0.1,0.6-0.2,0.9-0.2c0.6,0,1,0.2,1.4,0.6
			c0.4,0.4,0.5,1,0.5,1.7c0,0.6-0.1,1.2-0.3,1.7c-0.2,0.5-0.4,0.9-0.7,1.2c-0.3,0.3-0.6,0.5-0.9,0.7s-0.6,0.2-0.9,0.2
			c-0.7,0-1.2-0.4-1.6-1.1l-0.7,3.2H326.1z M328,260.3c0,0.4,0,0.7,0.1,0.9c0.1,0.2,0.2,0.4,0.5,0.6s0.5,0.2,0.7,0.2
			c0.6,0,1-0.3,1.4-1c0.4-0.6,0.5-1.3,0.5-2c0-0.5-0.1-0.9-0.4-1.1c-0.2-0.3-0.5-0.4-0.9-0.4c-0.3,0-0.5,0.1-0.7,0.2
			c-0.2,0.1-0.4,0.3-0.6,0.6c-0.2,0.3-0.3,0.6-0.5,1C328.1,259.7,328,260,328,260.3z"/>
		<path fill="#4E4E50" d="M333.4,259.1v-0.9l5.3-2.2v1l-4.2,1.7l4.2,1.8v1L333.4,259.1z"/>
		<path fill="#4E4E50" d="M339.6,262.7l0.2-1.1h1.1l-0.2,1.1H339.6z"/>
		<path fill="#4E4E50" d="M342.9,260c0-0.7,0.1-1.4,0.3-2.1c0.2-0.7,0.4-1.3,0.7-1.7c0.2-0.4,0.5-0.8,0.8-1c0.3-0.2,0.5-0.4,0.8-0.5
			c0.3-0.1,0.5-0.2,0.9-0.2c0.6,0,1.1,0.2,1.5,0.7c0.4,0.5,0.6,1.1,0.6,2c0,0.9-0.1,1.8-0.4,2.6c-0.3,1-0.8,1.8-1.4,2.3
			c-0.5,0.4-1,0.6-1.6,0.6c-0.6,0-1.1-0.2-1.5-0.7S342.9,260.9,342.9,260z M343.9,260.3c0,0.5,0.1,0.9,0.2,1.2
			c0.2,0.4,0.6,0.6,1,0.6c0.4,0,0.7-0.2,1-0.5c0.5-0.5,0.8-1.2,1-2.2s0.3-1.7,0.3-2.3c0-0.6-0.1-1-0.3-1.3c-0.2-0.3-0.5-0.4-0.9-0.4
			c-0.3,0-0.5,0.1-0.7,0.2c-0.2,0.1-0.4,0.4-0.7,0.7c-0.3,0.5-0.6,1.2-0.8,2.1C343.9,259.2,343.9,259.8,343.9,260.3z"/>
		<path fill="#4E4E50" d="M349.1,260.4l1-0.1c0,0.1,0,0.2,0,0.3c0,0.2,0.1,0.5,0.2,0.7c0.1,0.2,0.3,0.4,0.5,0.6
			c0.2,0.1,0.4,0.2,0.7,0.2c0.3,0,0.6-0.1,0.9-0.3c0.3-0.2,0.6-0.5,0.8-0.9c0.2-0.4,0.3-0.8,0.3-1.2c0-0.4-0.1-0.8-0.4-1.1
			c-0.3-0.3-0.6-0.4-1-0.4c-0.3,0-0.6,0.1-0.8,0.2c-0.3,0.1-0.5,0.3-0.7,0.6l-0.9-0.1l1.2-4.1h3.9l-0.2,0.9h-3.1l-0.6,2
			c0.2-0.2,0.5-0.3,0.7-0.4c0.2-0.1,0.5-0.1,0.7-0.1c0.6,0,1.1,0.2,1.5,0.6c0.4,0.4,0.6,1,0.6,1.7c0,0.6-0.1,1.2-0.4,1.7
			c-0.3,0.5-0.6,0.9-1.1,1.2c-0.5,0.3-1,0.4-1.5,0.4c-0.5,0-0.9-0.1-1.2-0.3c-0.4-0.2-0.6-0.5-0.8-0.9c-0.2-0.4-0.3-0.7-0.3-1.1
			C349.1,260.5,349.1,260.4,349.1,260.4z"/>
	</g>
	<g enable-background="new    ">
		<path fill="#4E4E50" d="M31.5,208H30v-5.9c-0.6,0.5-1.2,0.9-2,1.2v-1.4c0.4-0.1,0.9-0.4,1.3-0.8c0.5-0.4,0.8-0.8,1-1.3h1.3V208z"
			/>
		<path fill="#4E4E50" d="M33.9,205.9l1.6-0.2c0,0.4,0.2,0.6,0.4,0.8s0.5,0.3,0.8,0.3c0.3,0,0.6-0.1,0.8-0.4s0.3-0.7,0.3-1.2
			c0-0.5-0.1-0.9-0.3-1.1c-0.2-0.3-0.5-0.4-0.9-0.4c-0.4,0-0.9,0.2-1.2,0.6l-1.3-0.2l0.8-4.3H39v1.5h-3l-0.2,1.4
			c0.3-0.2,0.7-0.3,1.1-0.3c0.7,0,1.3,0.3,1.8,0.8s0.7,1.2,0.7,2c0,0.7-0.2,1.3-0.6,1.8c-0.5,0.7-1.3,1.1-2.2,1.1
			c-0.8,0-1.4-0.2-1.8-0.6C34.3,207.2,34,206.6,33.9,205.9z"/>
	</g>
	<g enable-background="new    ">
		<path fill="#4E4E50" d="M38.9,263.2c0.8,0,1.4,0.3,1.9,0.8c0.5,0.7,0.8,1.8,0.8,3.3c0,1.5-0.3,2.7-0.8,3.3
			c-0.4,0.6-1.1,0.8-1.9,0.8c-0.8,0-1.4-0.3-1.9-0.9c-0.5-0.6-0.7-1.7-0.7-3.3c0-1.5,0.3-2.6,0.8-3.3
			C37.5,263.5,38.1,263.2,38.9,263.2z M38.9,264.5c-0.2,0-0.4,0.1-0.5,0.2c-0.1,0.1-0.3,0.3-0.3,0.6c-0.1,0.4-0.2,1.1-0.2,2
			c0,1,0,1.6,0.1,2c0.1,0.4,0.2,0.6,0.4,0.7c0.1,0.1,0.3,0.2,0.5,0.2s0.4-0.1,0.5-0.2c0.1-0.1,0.3-0.3,0.3-0.6
			c0.1-0.4,0.2-1.1,0.2-2c0-1,0-1.6-0.1-2s-0.2-0.6-0.4-0.7C39.3,264.6,39.1,264.5,38.9,264.5z"/>
	</g>
	<g enable-background="new    ">
		<path fill="#4E4E50" d="M30.6,74.8v-1.6h-3.3v-1.4l3.5-5.2h1.3v5.2h1v1.4h-1v1.6H30.6z M30.6,71.8V69l-1.9,2.8H30.6z"/>
		<path fill="#4E4E50" d="M33.9,72.7l1.6-0.2c0,0.4,0.2,0.6,0.4,0.8s0.5,0.3,0.8,0.3c0.3,0,0.6-0.1,0.8-0.4s0.3-0.7,0.3-1.2
			c0-0.5-0.1-0.9-0.3-1.1c-0.2-0.3-0.5-0.4-0.9-0.4c-0.4,0-0.9,0.2-1.2,0.6L34.1,71l0.8-4.3H39v1.5h-3l-0.2,1.4
			c0.3-0.2,0.7-0.3,1.1-0.3c0.7,0,1.3,0.3,1.8,0.8s0.7,1.2,0.7,2c0,0.7-0.2,1.3-0.6,1.8c-0.5,0.7-1.3,1.1-2.2,1.1
			c-0.8,0-1.4-0.2-1.8-0.6C34.3,73.9,34,73.4,33.9,72.7z"/>
	</g>
	<g enable-background="new    ">
		<path fill="#4E4E50" d="M32.8,2l-1.5,0.2c0-0.3-0.1-0.5-0.3-0.7c-0.2-0.1-0.4-0.2-0.6-0.2c-0.3,0-0.6,0.1-0.8,0.4
			s-0.4,0.9-0.4,1.9c0.4-0.5,0.9-0.7,1.5-0.7c0.7,0,1.2,0.2,1.7,0.7S33,4.8,33,5.6c0,0.8-0.2,1.5-0.7,2c-0.5,0.5-1.1,0.8-1.9,0.8
			c-0.8,0-1.5-0.3-2-1c-0.5-0.6-0.8-1.7-0.8-3.2c0-1.5,0.3-2.6,0.8-3.2c0.6-0.7,1.3-1,2.2-1c0.6,0,1.1,0.2,1.5,0.5S32.7,1.4,32.8,2z
			 M29.3,5.4c0,0.5,0.1,0.9,0.4,1.2C29.9,6.9,30.1,7,30.4,7c0.3,0,0.5-0.1,0.7-0.3c0.2-0.2,0.3-0.6,0.3-1.1c0-0.5-0.1-0.9-0.3-1.2
			s-0.5-0.4-0.8-0.4c-0.3,0-0.6,0.1-0.8,0.4C29.4,4.6,29.3,5,29.3,5.4z"/>
		<path fill="#4E4E50" d="M36.5,0c0.8,0,1.4,0.3,1.9,0.8c0.5,0.7,0.8,1.8,0.8,3.3c0,1.5-0.3,2.7-0.8,3.3c-0.4,0.6-1.1,0.8-1.9,0.8
			c-0.8,0-1.4-0.3-1.9-0.9c-0.5-0.6-0.7-1.7-0.7-3.3c0-1.5,0.3-2.6,0.8-3.3C35.1,0.3,35.7,0,36.5,0z M36.5,1.3
			c-0.2,0-0.4,0.1-0.5,0.2c-0.1,0.1-0.3,0.3-0.3,0.6c-0.1,0.4-0.2,1.1-0.2,2c0,1,0,1.6,0.1,2c0.1,0.4,0.2,0.6,0.4,0.7
			C36.2,7,36.3,7,36.5,7S36.9,7,37,6.9c0.1-0.1,0.3-0.3,0.3-0.6c0.1-0.4,0.2-1.1,0.2-2c0-1,0-1.6-0.1-2S37.2,1.6,37,1.5
			C36.9,1.4,36.7,1.3,36.5,1.3z"/>
	</g>
</g>
</svg>
