<?xml version="1.0" encoding="utf-8"?>
<!-- Generator: Adobe Illustrator 18.0.0, SVG Export Plug-In . SVG Version: 6.00 Build 0)  -->
<!DOCTYPE svg PUBLIC "-//W3C//DTD SVG 1.1//EN" "http://www.w3.org/Graphics/SVG/1.1/DTD/svg11.dtd">
<svg version="1.1" id="Layer_1" xmlns="http://www.w3.org/2000/svg" xmlns:xlink="http://www.w3.org/1999/xlink" x="0px" y="0px"
	 viewBox="-210.5 -94.4 469.5 240.4" enable-background="new -210.5 -94.4 469.5 240.4" xml:space="preserve">
<path fill="none" stroke="#929497" stroke-width="2.3286" stroke-linecap="round" stroke-linejoin="round" stroke-miterlimit="10" d="
	M-208.9-94.4v8.2h5.5v9h5.2v11.5h5v11h4.5v10.2h5.3v9.7h5v9.5h5v9.7h4.3v11.7h5.3V6.2h5.2v9.5h5.5v8h3.5V31h10v5.6h4.6v2.3h3.8v6
	h5.2v7.8h6.5v5.2h6.8v7h6.8v9.5l0,0h13.5v7.2h8.2v6.2h15.5v7.8h14.8v6.2h15v6.8h18v6.2h12.5v6.2H8.1v3.2h18v4.2h17v3.5h23.5v3h33
	v3.5h22.5v5.5h135"/>
</svg>
