<?xml version="1.0" encoding="utf-8"?>
<!-- Generator: Adobe Illustrator 18.0.0, SVG Export Plug-In . SVG Version: 6.00 Build 0)  -->
<!DOCTYPE svg PUBLIC "-//W3C//DTD SVG 1.1//EN" "http://www.w3.org/Graphics/SVG/1.1/DTD/svg11.dtd">
<svg version="1.1" id="Layer_1" xmlns="http://www.w3.org/2000/svg" xmlns:xlink="http://www.w3.org/1999/xlink" x="0px" y="0px"
	 viewBox="-210.8 -93 470 235.2" enable-background="new -210.8 -93 470 235.2" xml:space="preserve">
<polyline fill="none" stroke="#6BACA1" stroke-width="3.8811" stroke-linecap="round" stroke-linejoin="round" stroke-miterlimit="10" points="
	257.2,140.1 211,140.1 211,136.9 142.3,136.9 142.3,133.9 115.5,133.9 115.5,131.6 105.5,131.6 105.5,128.9 96.8,128.9 96.8,126.4 
	83.6,126.4 83.6,119.4 66.9,119.4 66.9,110.4 41.9,110.4 41.9,104.4 18.1,104.4 18.1,97 7.9,97 7.9,88.3 -3.8,88.3 -3.8,81.1 
	-16.3,81.1 -16.3,74.9 -35.3,74.9 -35.3,66.2 -43.9,66.2 -43.9,59.9 -56.6,59.9 -56.6,52.9 -72.9,52.9 -72.9,46.6 -89.3,46.6 
	-89.3,38.6 -104.5,38.6 -104.5,26.6 -123.9,26.6 -123.9,17.9 -131.9,17.9 -131.9,9.6 -142.3,9.6 -142.3,-0.1 -148.9,-0.1 
	-148.9,-9.1 -156.6,-9.1 -156.6,-21.8 -163.6,-21.8 -163.6,-29.8 -169.9,-29.8 -169.9,-40.1 -176.3,-40.1 -176.3,-56.8 
	-184.9,-56.8 -184.9,-71.4 -191.9,-71.4 -191.9,-81.8 -198.9,-81.8 -198.9,-91.1 -208.3,-91.1 "/>
</svg>
