<?xml version="1.0" encoding="utf-8"?>
<!-- Generator: Adobe Illustrator 18.0.0, SVG Export Plug-In . SVG Version: 6.00 Build 0)  -->
<!DOCTYPE svg PUBLIC "-//W3C//DTD SVG 1.1//EN" "http://www.w3.org/Graphics/SVG/1.1/DTD/svg11.dtd">
<svg version="1.1" id="Layer_1" xmlns="http://www.w3.org/2000/svg" xmlns:xlink="http://www.w3.org/1999/xlink" x="0px" y="0px"
	 viewBox="-375.6 -165.2 799.9 380.2" enable-background="new -375.6 -165.2 799.9 380.2" xml:space="preserve">
<line fill="none" stroke="#E8D948" stroke-width="1.75" stroke-miterlimit="10" stroke-dasharray="3,3" x1="-325" y1="-7.4" x2="167.8" y2="-7.4"/>
<line fill="none" stroke="#E8D948" stroke-width="1.75" stroke-miterlimit="10" stroke-dasharray="3,3" x1="-232.6" y1="112.2" x2="-232.6" y2="-136.4"/>
<rect x="-368.8" y="108.2" fill="#ECF6F2" width="536.6" height="53"/>
<line fill="none" stroke="#D6ECE6" stroke-width="2" stroke-miterlimit="10" x1="-325" y1="109.3" x2="-368.8" y2="109.3"/>
<g>
	<g enable-background="new    ">
		<path fill="#4D4D4F" d="M-266.3,128.2h-1.8v-6.7c-0.7,0.6-1.4,1.1-2.3,1.4v-1.6c0.5-0.1,1-0.4,1.5-0.9c0.5-0.4,0.9-0.9,1.1-1.5
			h1.4V128.2z"/>
		<path fill="#4D4D4F" d="M-260.6,118.9c0.9,0,1.6,0.3,2.1,1c0.6,0.8,0.9,2,0.9,3.8c0,1.8-0.3,3-0.9,3.8c-0.5,0.6-1.2,0.9-2.1,0.9
			c-0.9,0-1.6-0.3-2.2-1c-0.6-0.7-0.8-1.9-0.8-3.7c0-1.8,0.3-3,0.9-3.8C-262.2,119.2-261.5,118.9-260.6,118.9z M-260.6,120.3
			c-0.2,0-0.4,0.1-0.6,0.2c-0.2,0.1-0.3,0.4-0.4,0.7c-0.1,0.5-0.2,1.2-0.2,2.3s0.1,1.8,0.2,2.3c0.1,0.4,0.2,0.7,0.4,0.8
			s0.4,0.2,0.6,0.2c0.2,0,0.4-0.1,0.6-0.2c0.2-0.1,0.3-0.4,0.4-0.7c0.1-0.5,0.2-1.2,0.2-2.3s-0.1-1.8-0.2-2.2
			c-0.1-0.4-0.2-0.7-0.4-0.8S-260.4,120.3-260.6,120.3z"/>
	</g>
</g>
<g>
	<g enable-background="new    ">
		<path fill="#4D4D4F" d="M-350.8-132.5h-1.8v-6.7c-0.7,0.6-1.4,1.1-2.3,1.4v-1.6c0.5-0.2,1-0.4,1.5-0.9c0.5-0.4,0.9-0.9,1.1-1.5
			h1.4V-132.5z"/>
	</g>
	<g enable-background="new    ">
		<path fill="#4D4D4F" d="M-346.1-141.8c0.9,0,1.6,0.3,2.1,1c0.6,0.8,0.9,2,0.9,3.8c0,1.8-0.3,3-0.9,3.8c-0.5,0.6-1.2,1-2.1,1
			c-0.9,0-1.6-0.3-2.2-1s-0.8-1.9-0.8-3.7c0-1.8,0.3-3,0.9-3.8C-347.8-141.5-347-141.8-346.1-141.8z M-346.1-140.3
			c-0.2,0-0.4,0.1-0.6,0.2s-0.3,0.4-0.4,0.7c-0.1,0.5-0.2,1.2-0.2,2.3s0.1,1.8,0.2,2.3c0.1,0.4,0.2,0.7,0.4,0.8
			c0.2,0.1,0.4,0.2,0.6,0.2c0.2,0,0.4-0.1,0.6-0.2s0.3-0.4,0.4-0.7c0.1-0.5,0.2-1.2,0.2-2.3s-0.1-1.8-0.2-2.2
			c-0.1-0.4-0.2-0.7-0.4-0.8C-345.7-140.2-345.9-140.3-346.1-140.3z"/>
		<path fill="#4D4D4F" d="M-338.9-141.8c0.9,0,1.6,0.3,2.1,1c0.6,0.8,0.9,2,0.9,3.8c0,1.8-0.3,3-0.9,3.8c-0.5,0.6-1.2,1-2.1,1
			c-0.9,0-1.6-0.3-2.2-1c-0.6-0.7-0.8-1.9-0.8-3.7c0-1.8,0.3-3,0.9-3.8C-340.5-141.5-339.8-141.8-338.9-141.8z M-338.9-140.3
			c-0.2,0-0.4,0.1-0.6,0.2c-0.2,0.1-0.3,0.4-0.4,0.7c-0.1,0.5-0.2,1.2-0.2,2.3s0.1,1.8,0.2,2.3c0.1,0.4,0.2,0.7,0.4,0.8
			c0.2,0.1,0.4,0.2,0.6,0.2s0.4-0.1,0.6-0.2s0.3-0.4,0.4-0.7c0.1-0.5,0.2-1.2,0.2-2.3s-0.1-1.8-0.2-2.2s-0.2-0.7-0.4-0.8
			C-338.5-140.2-338.7-140.3-338.9-140.3z"/>
	</g>
</g>
<g>
	<g enable-background="new    ">
		<path fill="#4D4D4F" d="M-348.6-76.1v-1.7h6.1v1.3c-0.5,0.5-1,1.2-1.5,2.1s-0.9,1.9-1.2,3c-0.3,1-0.4,2-0.4,2.8h-1.7
			c0-1.3,0.3-2.6,0.8-3.9c0.5-1.3,1.2-2.5,2-3.6L-348.6-76.1L-348.6-76.1z"/>
		<path fill="#4D4D4F" d="M-341.4-70.9l1.8-0.2c0.1,0.4,0.2,0.7,0.5,1s0.5,0.4,0.9,0.4c0.4,0,0.7-0.2,0.9-0.5s0.4-0.8,0.4-1.4
			c0-0.6-0.1-1-0.4-1.3c-0.3-0.3-0.6-0.4-1-0.4c-0.5,0-1,0.2-1.4,0.7l-1.4-0.2l0.9-4.8h4.7v1.7h-3.4l-0.3,1.6
			c0.4-0.2,0.8-0.3,1.2-0.3c0.8,0,1.5,0.3,2,0.9c0.5,0.6,0.8,1.3,0.8,2.2c0,0.8-0.2,1.4-0.7,2.1c-0.6,0.8-1.4,1.2-2.5,1.2
			c-0.9,0-1.6-0.2-2.1-0.7S-341.3-70.1-341.4-70.9z"/>
	</g>
</g>
<g>
	<g enable-background="new    ">
		<path fill="#4D4D4F" d="M-349.1-5.9l1.8-0.2c0.1,0.4,0.2,0.7,0.5,1c0.2,0.2,0.5,0.4,0.9,0.4c0.4,0,0.7-0.2,0.9-0.5
			c0.3-0.3,0.4-0.8,0.4-1.4c0-0.6-0.1-1-0.4-1.3c-0.3-0.3-0.6-0.4-1-0.4c-0.5,0-1,0.2-1.4,0.7l-1.4-0.2l0.9-4.8h4.7v1.7h-3.4
			l-0.3,1.6c0.4-0.2,0.8-0.3,1.2-0.3c0.8,0,1.5,0.3,2,0.9c0.5,0.6,0.8,1.3,0.8,2.2c0,0.8-0.2,1.4-0.7,2.1c-0.6,0.8-1.4,1.2-2.5,1.2
			c-0.9,0-1.6-0.2-2.1-0.7S-349-5.1-349.1-5.9z"/>
		<path fill="#4D4D4F" d="M-338.9-12.8c0.9,0,1.6,0.3,2.1,1c0.6,0.8,0.9,2,0.9,3.8c0,1.8-0.3,3-0.9,3.8c-0.5,0.6-1.2,1-2.1,1
			c-0.9,0-1.6-0.3-2.2-1c-0.6-0.7-0.8-1.9-0.8-3.7c0-1.8,0.3-3,0.9-3.8C-340.5-12.5-339.8-12.8-338.9-12.8z M-338.9-11.3
			c-0.2,0-0.4,0.1-0.6,0.2c-0.2,0.1-0.3,0.4-0.4,0.7c-0.1,0.5-0.2,1.2-0.2,2.3s0.1,1.8,0.2,2.3c0.1,0.4,0.2,0.7,0.4,0.8
			s0.4,0.2,0.6,0.2s0.4-0.1,0.6-0.2c0.2-0.1,0.3-0.4,0.4-0.7c0.1-0.5,0.2-1.2,0.2-2.3s-0.1-1.8-0.2-2.2s-0.2-0.7-0.4-0.8
			C-338.5-11.3-338.7-11.3-338.9-11.3z"/>
	</g>
</g>
<g>
	<g enable-background="new    ">
		<path fill="#4D4D4F" d="M-343.1,63.5v1.7h-6.3c0.1-0.6,0.3-1.2,0.6-1.8s1-1.3,2-2.2c0.8-0.7,1.3-1.3,1.5-1.5
			c0.2-0.4,0.4-0.7,0.4-1.1c0-0.4-0.1-0.7-0.3-0.9c-0.2-0.2-0.5-0.3-0.9-0.3c-0.4,0-0.7,0.1-0.9,0.3c-0.2,0.2-0.3,0.6-0.4,1.1
			l-1.8-0.2c0.1-1,0.4-1.7,1-2.1s1.3-0.6,2.1-0.6c0.9,0,1.6,0.2,2.2,0.7c0.5,0.5,0.8,1.1,0.8,1.8c0,0.4-0.1,0.8-0.2,1.2
			c-0.1,0.4-0.4,0.8-0.7,1.2c-0.2,0.3-0.6,0.7-1.2,1.2s-0.9,0.9-1.1,1s-0.3,0.3-0.4,0.5L-343.1,63.5L-343.1,63.5z"/>
		<path fill="#4D4D4F" d="M-341.9,62.8l1.8-0.2c0.1,0.4,0.2,0.7,0.5,1s0.5,0.4,0.9,0.4c0.4,0,0.7-0.1,0.9-0.5
			c0.3-0.3,0.4-0.8,0.4-1.4c0-0.6-0.1-1-0.4-1.3c-0.3-0.3-0.6-0.4-1-0.4c-0.5,0-1,0.2-1.4,0.7l-1.4-0.2l0.9-4.8h4.7v1.7h-3.4
			l-0.3,1.6c0.4-0.2,0.8-0.3,1.2-0.3c0.8,0,1.5,0.3,2,0.9c0.6,0.6,0.8,1.3,0.8,2.2c0,0.8-0.2,1.4-0.7,2.1c-0.6,0.8-1.4,1.2-2.5,1.2
			c-0.9,0-1.6-0.2-2.1-0.7C-341.5,64.2-341.8,63.6-341.9,62.8z"/>
	</g>
</g>
<g>
	<g enable-background="new    ">
		<path fill="#4D4D4F" d="M-128.8,126.5v1.7h-6.3c0.1-0.6,0.3-1.2,0.6-1.8c0.3-0.6,1-1.3,2-2.2c0.8-0.8,1.3-1.3,1.5-1.5
			c0.2-0.4,0.4-0.7,0.4-1.1c0-0.4-0.1-0.7-0.3-0.9c-0.2-0.2-0.5-0.3-0.9-0.3c-0.4,0-0.7,0.1-0.9,0.3c-0.2,0.2-0.4,0.6-0.4,1.1
			l-1.8-0.2c0.1-1,0.4-1.7,1-2.1c0.6-0.4,1.3-0.6,2.1-0.6c0.9,0,1.6,0.2,2.2,0.7c0.5,0.5,0.8,1.1,0.8,1.8c0,0.4-0.1,0.8-0.2,1.2
			c-0.1,0.4-0.4,0.8-0.7,1.2c-0.2,0.3-0.6,0.7-1.2,1.2c-0.6,0.5-0.9,0.9-1.1,1c-0.1,0.2-0.3,0.3-0.4,0.5L-128.8,126.5L-128.8,126.5z
			"/>
		<path fill="#4D4D4F" d="M-124.6,118.9c0.9,0,1.6,0.3,2.1,1c0.6,0.8,0.9,2,0.9,3.8c0,1.8-0.3,3-0.9,3.8c-0.5,0.6-1.2,0.9-2.1,0.9
			c-0.9,0-1.6-0.3-2.2-1c-0.6-0.7-0.8-1.9-0.8-3.7c0-1.8,0.3-3,0.9-3.8C-126.2,119.2-125.5,118.9-124.6,118.9z M-124.6,120.3
			c-0.2,0-0.4,0.1-0.6,0.2c-0.2,0.1-0.3,0.4-0.4,0.7c-0.1,0.5-0.2,1.2-0.2,2.3s0.1,1.8,0.2,2.3c0.1,0.4,0.2,0.7,0.4,0.8
			c0.2,0.1,0.4,0.2,0.6,0.2c0.2,0,0.4-0.1,0.6-0.2c0.2-0.1,0.3-0.4,0.4-0.7c0.1-0.5,0.2-1.2,0.2-2.3s-0.1-1.8-0.2-2.2
			s-0.2-0.7-0.4-0.8C-124.2,120.4-124.4,120.3-124.6,120.3z"/>
	</g>
</g>
<g enable-background="new    ">
	<path fill="#6BADA2" d="M-177.9,147.9c0-0.9,0.1-1.7,0.4-2.4c0.2-0.5,0.5-0.9,0.9-1.3s0.8-0.7,1.2-0.8c0.6-0.2,1.2-0.4,2-0.4
		c1.4,0,2.5,0.4,3.3,1.3c0.8,0.9,1.2,2,1.2,3.5c0,1.5-0.4,2.7-1.2,3.5c-0.8,0.8-1.9,1.3-3.3,1.3c-1.4,0-2.5-0.4-3.3-1.3
		C-177.5,150.6-177.9,149.4-177.9,147.9z M-176,147.9c0,1.1,0.2,1.9,0.7,2.4c0.5,0.5,1.1,0.8,1.9,0.8s1.4-0.3,1.8-0.8
		c0.5-0.5,0.7-1.3,0.7-2.4c0-1.1-0.2-1.9-0.7-2.4c-0.5-0.5-1.1-0.8-1.9-0.8s-1.4,0.3-1.9,0.8C-175.8,146-176,146.8-176,147.9z"/>
	<path fill="#6BADA2" d="M-165.6,152.5l-2.7-6.7h1.9l1.3,3.4l0.4,1.1c0.1-0.3,0.2-0.5,0.2-0.6c0.1-0.2,0.1-0.4,0.2-0.6l1.3-3.4h1.8
		l-2.7,6.7H-165.6L-165.6,152.5z"/>
	<path fill="#6BADA2" d="M-156.3,150.4l1.8,0.3c-0.2,0.7-0.6,1.1-1.1,1.5c-0.5,0.3-1.1,0.5-1.9,0.5c-1.2,0-2-0.4-2.6-1.1
		c-0.4-0.6-0.7-1.4-0.7-2.3c0-1.1,0.3-2,0.9-2.6c0.6-0.6,1.3-0.9,2.2-0.9c1,0,1.8,0.3,2.4,1c0.6,0.7,0.9,1.7,0.8,3h-4.5
		c0,0.5,0.2,0.9,0.4,1.2c0.3,0.3,0.6,0.4,1,0.4c0.3,0,0.5-0.1,0.7-0.2C-156.5,150.9-156.4,150.7-156.3,150.4z M-156.2,148.6
		c0-0.5-0.1-0.9-0.4-1.2c-0.3-0.3-0.6-0.4-0.9-0.4c-0.4,0-0.7,0.1-1,0.4c-0.3,0.3-0.4,0.7-0.4,1.2L-156.2,148.6L-156.2,148.6z"/>
	<path fill="#6BADA2" d="M-151.3,152.5h-1.8v-6.7h1.7v1c0.3-0.5,0.5-0.8,0.8-0.9s0.5-0.2,0.8-0.2c0.4,0,0.8,0.1,1.2,0.3l-0.6,1.6
		c-0.3-0.2-0.6-0.3-0.8-0.3c-0.2,0-0.5,0.1-0.6,0.2s-0.3,0.4-0.4,0.7c-0.1,0.4-0.1,1.1-0.1,2.3L-151.3,152.5L-151.3,152.5z"/>
	<path fill="#6BADA2" d="M-146.6,147.8l-1.6-0.3c0.2-0.7,0.5-1.1,0.9-1.4s1.1-0.5,2-0.5c0.8,0,1.4,0.1,1.8,0.3s0.7,0.4,0.8,0.7
		c0.2,0.3,0.2,0.8,0.2,1.6l0,2.1c0,0.6,0,1,0.1,1.3c0.1,0.3,0.2,0.6,0.3,0.9h-1.8c0-0.1-0.1-0.3-0.2-0.5c0-0.1-0.1-0.2-0.1-0.2
		c-0.3,0.3-0.6,0.5-1,0.7c-0.3,0.1-0.7,0.2-1.1,0.2c-0.7,0-1.2-0.2-1.6-0.6c-0.4-0.4-0.6-0.9-0.6-1.4c0-0.4,0.1-0.7,0.3-1
		c0.2-0.3,0.4-0.5,0.8-0.7c0.3-0.2,0.8-0.3,1.4-0.4c0.8-0.2,1.4-0.3,1.7-0.4v-0.2c0-0.3-0.1-0.6-0.3-0.7c-0.2-0.1-0.5-0.2-1-0.2
		c-0.3,0-0.6,0.1-0.7,0.2C-146.3,147.3-146.5,147.5-146.6,147.8z M-144.2,149.3c-0.2,0.1-0.6,0.2-1.1,0.3c-0.5,0.1-0.8,0.2-1,0.3
		c-0.2,0.2-0.4,0.4-0.4,0.6c0,0.2,0.1,0.5,0.3,0.6c0.2,0.2,0.4,0.3,0.7,0.3c0.3,0,0.6-0.1,0.9-0.3c0.2-0.2,0.4-0.4,0.4-0.6
		c0-0.2,0.1-0.4,0.1-0.9L-144.2,149.3L-144.2,149.3z"/>
	<path fill="#6BADA2" d="M-140.7,152.5v-9.3h1.8v9.3H-140.7L-140.7,152.5z"/>
	<path fill="#6BADA2" d="M-137.1,152.5v-9.3h1.8v9.3H-137.1L-137.1,152.5z"/>
	<path fill="#6BADA2" d="M-130.5,150.6l1.8-0.3c0.1,0.3,0.2,0.6,0.5,0.8c0.2,0.2,0.6,0.3,1,0.3c0.5,0,0.8-0.1,1-0.3
		c0.2-0.1,0.2-0.3,0.2-0.5c0-0.1,0-0.2-0.1-0.3c-0.1-0.1-0.3-0.2-0.6-0.2c-1.4-0.3-2.4-0.6-2.7-0.9c-0.5-0.4-0.8-0.9-0.8-1.5
		c0-0.6,0.2-1.1,0.7-1.5c0.5-0.4,1.2-0.6,2.1-0.6c0.9,0,1.6,0.1,2.1,0.4c0.4,0.3,0.8,0.7,0.9,1.3l-1.7,0.3c-0.1-0.3-0.2-0.5-0.4-0.6
		c-0.2-0.1-0.5-0.2-0.9-0.2c-0.5,0-0.8,0.1-1,0.2c-0.1,0.1-0.2,0.2-0.2,0.4c0,0.1,0.1,0.2,0.2,0.3c0.2,0.1,0.7,0.3,1.7,0.5
		c1,0.2,1.6,0.5,2,0.8c0.4,0.3,0.6,0.8,0.6,1.3c0,0.6-0.3,1.1-0.8,1.6c-0.5,0.4-1.3,0.7-2.3,0.7c-0.9,0-1.6-0.2-2.2-0.6
		C-130,151.7-130.3,151.2-130.5,150.6z"/>
	<path fill="#6BADA2" d="M-118.2,152.5v-1c-0.2,0.4-0.6,0.6-1,0.9c-0.4,0.2-0.8,0.3-1.3,0.3c-0.5,0-0.9-0.1-1.2-0.3
		c-0.4-0.2-0.6-0.5-0.8-0.8c-0.2-0.4-0.2-0.9-0.2-1.5v-4.3h1.8v3.1c0,0.9,0,1.5,0.1,1.7c0.1,0.2,0.2,0.4,0.4,0.5s0.4,0.2,0.7,0.2
		c0.3,0,0.6-0.1,0.8-0.3c0.2-0.2,0.4-0.4,0.5-0.6c0.1-0.2,0.1-0.9,0.1-1.8v-2.8h1.8v6.7L-118.2,152.5L-118.2,152.5z"/>
	<path fill="#6BADA2" d="M-113,152.5h-1.8v-6.7h1.7v1c0.3-0.5,0.5-0.8,0.8-0.9s0.5-0.2,0.8-0.2c0.4,0,0.8,0.1,1.2,0.3l-0.6,1.6
		c-0.3-0.2-0.6-0.3-0.8-0.3c-0.2,0-0.5,0.1-0.6,0.2c-0.2,0.1-0.3,0.4-0.4,0.7c-0.1,0.4-0.1,1.1-0.1,2.3L-113,152.5L-113,152.5z"/>
	<path fill="#6BADA2" d="M-107.8,152.5l-2.7-6.7h1.9l1.3,3.4l0.4,1.1c0.1-0.3,0.2-0.5,0.2-0.6c0.1-0.2,0.1-0.4,0.2-0.6l1.3-3.4h1.8
		l-2.7,6.7H-107.8L-107.8,152.5z"/>
	<path fill="#6BADA2" d="M-102.4,144.9v-1.7h1.8v1.7H-102.4z M-102.4,152.5v-6.7h1.8v6.7H-102.4z"/>
	<path fill="#6BADA2" d="M-96.9,152.5l-2.7-6.7h1.9l1.3,3.4l0.4,1.1c0.1-0.3,0.2-0.5,0.2-0.6c0.1-0.2,0.1-0.4,0.2-0.6l1.3-3.4h1.8
		l-2.7,6.7H-96.9L-96.9,152.5z"/>
	<path fill="#6BADA2" d="M-90.2,147.8l-1.6-0.3c0.2-0.7,0.5-1.1,0.9-1.4c0.4-0.3,1.1-0.5,2-0.5c0.8,0,1.4,0.1,1.8,0.3
		c0.4,0.2,0.7,0.4,0.8,0.7c0.2,0.3,0.2,0.8,0.2,1.6l0,2.1c0,0.6,0,1,0.1,1.3c0.1,0.3,0.2,0.6,0.3,0.9h-1.8c0-0.1-0.1-0.3-0.2-0.5
		c0-0.1-0.1-0.2-0.1-0.2c-0.3,0.3-0.6,0.5-1,0.7c-0.3,0.1-0.7,0.2-1.1,0.2c-0.7,0-1.2-0.2-1.6-0.6c-0.4-0.4-0.6-0.9-0.6-1.4
		c0-0.4,0.1-0.7,0.3-1s0.4-0.5,0.8-0.7c0.3-0.2,0.8-0.3,1.4-0.4c0.8-0.2,1.4-0.3,1.7-0.4v-0.2c0-0.3-0.1-0.6-0.3-0.7
		c-0.2-0.1-0.5-0.2-1-0.2c-0.3,0-0.6,0.1-0.7,0.2C-90,147.3-90.1,147.5-90.2,147.8z M-87.8,149.3c-0.2,0.1-0.6,0.2-1.1,0.3
		c-0.5,0.1-0.8,0.2-1,0.3c-0.2,0.2-0.4,0.4-0.4,0.6c0,0.2,0.1,0.5,0.3,0.6c0.2,0.2,0.4,0.3,0.7,0.3c0.3,0,0.6-0.1,0.9-0.3
		c0.2-0.2,0.4-0.4,0.4-0.6c0-0.2,0.1-0.4,0.1-0.9L-87.8,149.3L-87.8,149.3z"/>
	<path fill="#6BADA2" d="M-84.3,152.5v-9.3h1.8v9.3H-84.3L-84.3,152.5z"/>
	<path fill="#6BADA2" d="M-74.1,155.2h-1.2c-0.6-1-1.1-2-1.5-3c-0.3-1.1-0.5-2.1-0.5-3.1c0-1.2,0.2-2.4,0.6-3.5
		c0.4-0.9,0.8-1.8,1.4-2.6h1.2c-0.6,1.3-1,2.4-1.2,3.3c-0.2,0.9-0.3,1.9-0.3,2.9c0,0.7,0.1,1.4,0.2,2.1c0.1,0.7,0.3,1.4,0.5,2.1
		C-74.8,153.8-74.5,154.4-74.1,155.2z"/>
	<path fill="#6BADA2" d="M-72.9,145.8h1.6v0.9c0.6-0.7,1.3-1.1,2.1-1.1c0.4,0,0.8,0.1,1.1,0.3c0.3,0.2,0.6,0.4,0.8,0.8
		c0.3-0.4,0.6-0.6,1-0.8c0.3-0.2,0.7-0.3,1.1-0.3c0.5,0,0.9,0.1,1.3,0.3c0.3,0.2,0.6,0.5,0.8,0.9c0.1,0.3,0.2,0.8,0.2,1.4v4.3h-1.8
		v-3.9c0-0.7-0.1-1.1-0.2-1.3c-0.2-0.3-0.4-0.4-0.8-0.4c-0.2,0-0.5,0.1-0.7,0.2c-0.2,0.2-0.4,0.4-0.5,0.7c-0.1,0.3-0.1,0.8-0.1,1.4
		v3.2h-1.8v-3.7c0-0.7,0-1.1-0.1-1.3c-0.1-0.2-0.2-0.3-0.3-0.4c-0.1-0.1-0.3-0.1-0.5-0.1c-0.3,0-0.5,0.1-0.7,0.2
		c-0.2,0.1-0.4,0.4-0.5,0.6c-0.1,0.3-0.1,0.7-0.1,1.4v3.3h-1.8L-72.9,145.8L-72.9,145.8z"/>
	<path fill="#6BADA2" d="M-61.6,149c0-0.6,0.1-1.2,0.4-1.7c0.3-0.6,0.7-1,1.2-1.3c0.5-0.3,1.1-0.4,1.8-0.4c1,0,1.9,0.3,2.5,1
		c0.7,0.7,1,1.5,1,2.5c0,1-0.3,1.9-1,2.5c-0.7,0.7-1.5,1-2.5,1c-0.6,0-1.2-0.1-1.8-0.4c-0.6-0.3-1-0.7-1.3-1.2
		C-61.5,150.5-61.6,149.8-61.6,149z M-59.8,149.1c0,0.7,0.2,1.2,0.5,1.5c0.3,0.4,0.7,0.5,1.2,0.5c0.5,0,0.9-0.2,1.2-0.5
		c0.3-0.4,0.5-0.9,0.5-1.5c0-0.7-0.2-1.2-0.5-1.5c-0.3-0.4-0.7-0.5-1.2-0.5c-0.5,0-0.9,0.2-1.2,0.5C-59.6,148-59.8,148.5-59.8,149.1
		z"/>
	<path fill="#6BADA2" d="M-47.1,152.5h-1.8v-3.4c0-0.7,0-1.2-0.1-1.4c-0.1-0.2-0.2-0.4-0.4-0.5c-0.2-0.1-0.4-0.2-0.6-0.2
		c-0.3,0-0.6,0.1-0.8,0.3c-0.2,0.2-0.4,0.4-0.5,0.7c-0.1,0.3-0.1,0.8-0.1,1.5v3.1h-1.8v-6.7h1.7v1c0.6-0.8,1.3-1.1,2.2-1.1
		c0.4,0,0.8,0.1,1.1,0.2c0.3,0.1,0.6,0.3,0.7,0.5c0.2,0.2,0.3,0.5,0.3,0.8c0.1,0.3,0.1,0.7,0.1,1.2L-47.1,152.5L-47.1,152.5
		L-47.1,152.5z"/>
	<path fill="#6BADA2" d="M-42.2,145.8v1.4h-1.2v2.7c0,0.6,0,0.9,0,1c0,0.1,0.1,0.2,0.2,0.2c0.1,0.1,0.2,0.1,0.3,0.1
		c0.2,0,0.4-0.1,0.7-0.2l0.2,1.4c-0.4,0.2-0.9,0.3-1.4,0.3c-0.3,0-0.6-0.1-0.9-0.2c-0.3-0.1-0.4-0.2-0.6-0.4
		c-0.1-0.2-0.2-0.4-0.2-0.7c0-0.2-0.1-0.6-0.1-1.3v-2.9h-0.8v-1.4h0.8v-1.3l1.8-1v2.4L-42.2,145.8L-42.2,145.8L-42.2,145.8z"/>
	<path fill="#6BADA2" d="M-39.2,143.2v3.4c0.6-0.7,1.3-1,2.1-1c0.4,0,0.8,0.1,1.1,0.2s0.6,0.3,0.7,0.6c0.2,0.2,0.3,0.5,0.3,0.8
		c0.1,0.3,0.1,0.7,0.1,1.3v4h-1.8V149c0-0.7,0-1.2-0.1-1.3c-0.1-0.2-0.2-0.3-0.4-0.5c-0.2-0.1-0.4-0.2-0.6-0.2
		c-0.3,0-0.6,0.1-0.8,0.2c-0.2,0.1-0.4,0.4-0.5,0.6c-0.1,0.3-0.2,0.7-0.2,1.3v3.4H-41v-9.3L-39.2,143.2L-39.2,143.2z"/>
	<path fill="#6BADA2" d="M-33.7,150.6l1.8-0.3c0.1,0.3,0.2,0.6,0.5,0.8c0.2,0.2,0.6,0.3,1,0.3c0.5,0,0.8-0.1,1-0.3
		c0.2-0.1,0.2-0.3,0.2-0.5c0-0.1,0-0.2-0.1-0.3c-0.1-0.1-0.3-0.2-0.6-0.2c-1.4-0.3-2.4-0.6-2.7-0.9c-0.5-0.4-0.8-0.9-0.8-1.5
		c0-0.6,0.2-1.1,0.7-1.5c0.5-0.4,1.2-0.6,2.1-0.6c0.9,0,1.6,0.1,2.1,0.4c0.4,0.3,0.8,0.7,0.9,1.3l-1.7,0.3c-0.1-0.3-0.2-0.5-0.4-0.6
		c-0.2-0.1-0.5-0.2-0.9-0.2c-0.5,0-0.8,0.1-1,0.2c-0.1,0.1-0.2,0.2-0.2,0.4c0,0.1,0.1,0.2,0.2,0.3c0.2,0.1,0.7,0.3,1.7,0.5
		c1,0.2,1.6,0.5,2,0.8c0.4,0.3,0.6,0.8,0.6,1.3c0,0.6-0.3,1.1-0.8,1.6c-0.5,0.4-1.3,0.7-2.3,0.7c-0.9,0-1.6-0.2-2.2-0.6
		C-33.2,151.7-33.5,151.2-33.7,150.6z"/>
	<path fill="#6BADA2" d="M-26.3,155.2c0.4-0.8,0.6-1.3,0.7-1.7c0.1-0.4,0.3-0.9,0.4-1.4c0.1-0.5,0.2-1,0.3-1.5
		c0.1-0.5,0.1-1,0.1-1.4c0-1-0.1-2-0.3-2.9c-0.2-0.9-0.6-2-1.2-3.3h1.2c0.6,0.9,1.1,1.9,1.5,2.9c0.4,1,0.5,2.1,0.5,3.1
		c0,0.9-0.1,1.8-0.4,2.8c-0.3,1.1-0.8,2.3-1.6,3.4L-26.3,155.2L-26.3,155.2z"/>
</g>
<g>
	<g enable-background="new    ">
		<path fill="#4D4D4F" d="M-291.4,189.5c0-1.4,0.4-2.5,1.1-3.3s1.8-1.2,3-1.2c0.8,0,1.5,0.2,2.1,0.6c0.6,0.4,1.1,0.9,1.5,1.6
			c0.3,0.7,0.5,1.4,0.5,2.3c0,0.9-0.2,1.6-0.5,2.3c-0.4,0.7-0.9,1.2-1.5,1.6c-0.6,0.4-1.3,0.5-2.1,0.5c-0.8,0-1.5-0.2-2.2-0.6
			c-0.6-0.4-1.1-0.9-1.4-1.6C-291.2,191-291.4,190.3-291.4,189.5z M-290.2,189.5c0,1,0.3,1.9,0.8,2.4c0.6,0.6,1.3,0.9,2.1,0.9
			c0.9,0,1.6-0.3,2.1-0.9c0.6-0.6,0.8-1.5,0.8-2.6c0-0.7-0.1-1.3-0.4-1.8c-0.2-0.5-0.6-0.9-1-1.2s-1-0.4-1.5-0.4
			c-0.8,0-1.5,0.3-2.1,0.8C-289.9,187.3-290.2,188.2-290.2,189.5z"/>
		<path fill="#4D4D4F" d="M-281.9,196.1v-8.6h1v0.8c0.2-0.3,0.5-0.6,0.8-0.7c0.3-0.2,0.6-0.2,1-0.2c0.5,0,1,0.1,1.4,0.4
			c0.4,0.3,0.7,0.7,0.9,1.2s0.3,1,0.3,1.6c0,0.6-0.1,1.2-0.3,1.7c-0.2,0.5-0.6,0.9-1,1.2c-0.4,0.3-0.9,0.4-1.4,0.4
			c-0.4,0-0.7-0.1-0.9-0.2c-0.3-0.1-0.5-0.3-0.7-0.6v3L-281.9,196.1L-281.9,196.1z M-280.9,190.6c0,0.8,0.2,1.4,0.5,1.8
			c0.3,0.4,0.7,0.6,1.2,0.6c0.5,0,0.9-0.2,1.2-0.6c0.3-0.4,0.5-1,0.5-1.8c0-0.8-0.2-1.4-0.5-1.8c-0.3-0.4-0.7-0.6-1.2-0.6
			c-0.4,0-0.8,0.2-1.2,0.6C-280.7,189.2-280.9,189.8-280.9,190.6z"/>
		<path fill="#4D4D4F" d="M-272.9,192.7l0.2,0.9c-0.3,0.1-0.6,0.1-0.8,0.1c-0.4,0-0.7-0.1-0.9-0.2c-0.2-0.1-0.4-0.3-0.4-0.5
			s-0.1-0.6-0.1-1.2v-3.6h-0.8v-0.8h0.8v-1.5l1-0.6v2.2h1.1v0.8h-1.1v3.6c0,0.3,0,0.5,0.1,0.6c0,0.1,0.1,0.2,0.2,0.2
			s0.2,0.1,0.4,0.1C-273.2,192.8-273.1,192.8-272.9,192.7z"/>
		<path fill="#4D4D4F" d="M-271.8,186.3v-1.2h1.1v1.2H-271.8z M-271.8,193.7v-6.2h1.1v6.2H-271.8z"/>
		<path fill="#4D4D4F" d="M-269.6,191.8l1-0.2c0.1,0.4,0.2,0.7,0.5,1c0.3,0.2,0.6,0.3,1.1,0.3c0.5,0,0.8-0.1,1.1-0.3
			s0.4-0.4,0.4-0.7c0-0.2-0.1-0.4-0.3-0.6c-0.1-0.1-0.5-0.2-1.1-0.4c-0.8-0.2-1.3-0.4-1.6-0.5c-0.3-0.1-0.5-0.3-0.7-0.6
			s-0.2-0.5-0.2-0.8c0-0.3,0.1-0.5,0.2-0.8s0.3-0.4,0.5-0.6c0.2-0.1,0.4-0.2,0.7-0.3s0.6-0.1,0.9-0.1c0.5,0,0.9,0.1,1.3,0.2
			c0.4,0.1,0.6,0.3,0.8,0.6c0.2,0.2,0.3,0.6,0.4,1l-1,0.1c0-0.3-0.2-0.6-0.4-0.8c-0.2-0.2-0.5-0.3-1-0.3c-0.5,0-0.8,0.1-1,0.2
			c-0.2,0.2-0.3,0.3-0.3,0.6c0,0.1,0,0.3,0.1,0.4c0.1,0.1,0.2,0.2,0.4,0.3c0.1,0,0.4,0.1,0.9,0.3c0.7,0.2,1.3,0.4,1.6,0.5
			s0.5,0.3,0.7,0.6s0.3,0.5,0.3,0.9c0,0.4-0.1,0.7-0.3,1c-0.2,0.3-0.5,0.6-0.9,0.7s-0.8,0.3-1.3,0.3c-0.8,0-1.4-0.2-1.8-0.5
			C-269.2,193-269.5,192.5-269.6,191.8z"/>
		<path fill="#4D4D4F" d="M-260.9,192.7l0.2,0.9c-0.3,0.1-0.6,0.1-0.8,0.1c-0.4,0-0.7-0.1-0.9-0.2c-0.2-0.1-0.4-0.3-0.4-0.5
			s-0.1-0.6-0.1-1.2v-3.6h-0.8v-0.8h0.8v-1.5l1-0.6v2.2h1.1v0.8h-1.1v3.6c0,0.3,0,0.5,0.1,0.6s0.1,0.2,0.2,0.2s0.2,0.1,0.4,0.1
			C-261.2,192.8-261.1,192.8-260.9,192.7z"/>
		<path fill="#4D4D4F" d="M-255.8,192.9c-0.4,0.3-0.8,0.6-1.1,0.7c-0.4,0.1-0.7,0.2-1.2,0.2c-0.7,0-1.2-0.2-1.6-0.5
			s-0.6-0.8-0.6-1.3c0-0.3,0.1-0.6,0.2-0.8s0.3-0.5,0.5-0.6c0.2-0.2,0.5-0.3,0.8-0.3c0.2-0.1,0.5-0.1,0.9-0.2
			c0.9-0.1,1.5-0.2,1.9-0.4c0-0.1,0-0.2,0-0.3c0-0.4-0.1-0.7-0.3-0.9c-0.3-0.2-0.7-0.4-1.2-0.4c-0.5,0-0.9,0.1-1.1,0.3
			s-0.4,0.5-0.5,0.9l-1-0.1c0.1-0.4,0.2-0.8,0.5-1.1c0.2-0.3,0.5-0.5,0.9-0.6c0.4-0.1,0.9-0.2,1.4-0.2c0.5,0,1,0.1,1.3,0.2
			s0.6,0.3,0.7,0.5c0.2,0.2,0.3,0.4,0.3,0.7c0,0.2,0.1,0.5,0.1,1v1.4c0,1,0,1.6,0.1,1.9s0.1,0.5,0.3,0.7h-1.1
			C-255.7,193.5-255.8,193.2-255.8,192.9z M-255.9,190.6c-0.4,0.2-1,0.3-1.7,0.4c-0.4,0.1-0.7,0.1-0.9,0.2c-0.2,0.1-0.3,0.2-0.4,0.3
			c-0.1,0.1-0.1,0.3-0.1,0.5c0,0.3,0.1,0.5,0.3,0.7c0.2,0.2,0.5,0.3,0.9,0.3c0.4,0,0.8-0.1,1.1-0.3c0.3-0.2,0.5-0.4,0.7-0.7
			c0.1-0.2,0.2-0.6,0.2-1.1L-255.9,190.6L-255.9,190.6z"/>
		<path fill="#4D4D4F" d="M-251.5,193.7l-2.4-6.2h1.1l1.3,3.7c0.1,0.4,0.3,0.8,0.4,1.3c0.1-0.3,0.2-0.7,0.4-1.2l1.4-3.8h1.1
			l-2.4,6.2H-251.5L-251.5,193.7z"/>
		<path fill="#4D4D4F" d="M-247.2,186.3v-1.2h1.1v1.2H-247.2z M-247.2,193.7v-6.2h1.1v6.2H-247.2z"/>
		<path fill="#4D4D4F" d="M-244.5,193.7v-6.2h0.9v0.9c0.5-0.7,1.1-1,2-1c0.4,0,0.7,0.1,1,0.2c0.3,0.1,0.5,0.3,0.7,0.5
			c0.2,0.2,0.3,0.5,0.3,0.8c0,0.2,0.1,0.5,0.1,1v3.8h-1.1v-3.8c0-0.4,0-0.8-0.1-1s-0.2-0.4-0.4-0.5c-0.2-0.1-0.5-0.2-0.7-0.2
			c-0.4,0-0.8,0.1-1.2,0.4c-0.3,0.3-0.5,0.8-0.5,1.6v3.4L-244.5,193.7L-244.5,193.7z"/>
		<path fill="#4D4D4F" d="M-232.3,192.3v-2.4h-2.3v-1h2.3v-2.3h1v2.3h2.3v1h-2.3v2.4H-232.3z"/>
		<path fill="#4D4D4F" d="M-220.1,191.4l1,0.1c-0.1,0.7-0.4,1.3-0.9,1.7c-0.5,0.4-1,0.6-1.7,0.6c-0.9,0-1.5-0.3-2.1-0.8
			c-0.5-0.6-0.8-1.4-0.8-2.4c0-0.7,0.1-1.3,0.3-1.8c0.2-0.5,0.6-0.9,1-1.1s1-0.4,1.5-0.4c0.7,0,1.2,0.2,1.7,0.5
			c0.4,0.3,0.7,0.8,0.8,1.5l-1,0.2c-0.1-0.4-0.3-0.7-0.5-0.9s-0.5-0.3-0.9-0.3c-0.5,0-1,0.2-1.3,0.6c-0.3,0.4-0.5,1-0.5,1.8
			c0,0.8,0.2,1.4,0.5,1.8c0.3,0.4,0.7,0.6,1.3,0.6c0.4,0,0.8-0.1,1-0.4C-220.4,192.3-220.2,191.9-220.1,191.4z"/>
		<path fill="#4D4D4F" d="M-218.2,193.7v-8.6h1.1v3.1c0.5-0.6,1.1-0.9,1.9-0.9c0.5,0,0.9,0.1,1.2,0.3c0.3,0.2,0.6,0.4,0.7,0.8
			c0.1,0.3,0.2,0.8,0.2,1.4v3.9h-1.1v-3.9c0-0.5-0.1-0.9-0.3-1.2c-0.2-0.2-0.6-0.4-1-0.4c-0.3,0-0.6,0.1-0.9,0.2
			c-0.3,0.2-0.5,0.4-0.6,0.7c-0.1,0.3-0.2,0.7-0.2,1.1v3.4L-218.2,193.7L-218.2,193.7z"/>
		<path fill="#4D4D4F" d="M-207.2,191.7l1.1,0.1c-0.2,0.6-0.5,1.1-1,1.5c-0.5,0.4-1.1,0.5-1.8,0.5c-0.9,0-1.6-0.3-2.2-0.8
			c-0.5-0.6-0.8-1.3-0.8-2.4c0-1,0.3-1.9,0.8-2.4c0.5-0.6,1.2-0.9,2.1-0.9c0.8,0,1.5,0.3,2,0.8c0.5,0.6,0.8,1.4,0.8,2.4
			c0,0.1,0,0.2,0,0.3h-4.6c0,0.7,0.2,1.2,0.6,1.6s0.8,0.5,1.3,0.5c0.4,0,0.7-0.1,1-0.3C-207.6,192.5-207.4,192.1-207.2,191.7z
			 M-210.7,190h3.5c0-0.5-0.2-0.9-0.4-1.2c-0.3-0.4-0.8-0.6-1.3-0.6c-0.5,0-0.9,0.2-1.2,0.5C-210.5,189-210.7,189.4-210.7,190z"/>
		<path fill="#4D4D4F" d="M-204.8,193.7v-6.2h0.9v0.9c0.2-0.3,0.5-0.5,0.8-0.7c0.3-0.2,0.7-0.3,1.1-0.3c0.5,0,0.8,0.1,1.1,0.3
			c0.3,0.2,0.5,0.5,0.6,0.8c0.5-0.7,1.1-1.1,1.9-1.1c0.6,0,1.1,0.2,1.4,0.5s0.5,0.9,0.5,1.6v4.3h-1v-3.9c0-0.4,0-0.7-0.1-0.9
			c-0.1-0.2-0.2-0.3-0.4-0.4c-0.2-0.1-0.4-0.2-0.6-0.2c-0.4,0-0.8,0.1-1.1,0.4s-0.4,0.8-0.4,1.4v3.6h-1.1v-4c0-0.5-0.1-0.8-0.3-1.1
			c-0.2-0.2-0.5-0.4-0.8-0.4c-0.3,0-0.6,0.1-0.8,0.2c-0.3,0.2-0.4,0.4-0.5,0.7c-0.1,0.3-0.2,0.7-0.2,1.3v3.2L-204.8,193.7
			L-204.8,193.7z"/>
		<path fill="#4D4D4F" d="M-195.2,190.6c0-1.2,0.3-2,1-2.6c0.5-0.5,1.2-0.7,2-0.7c0.9,0,1.6,0.3,2.1,0.8c0.5,0.6,0.8,1.3,0.8,2.3
			c0,0.8-0.1,1.4-0.4,1.9s-0.6,0.8-1,1.1s-1,0.4-1.5,0.4c-0.9,0-1.6-0.3-2.1-0.8C-194.9,192.4-195.2,191.6-195.2,190.6z
			 M-194.1,190.6c0,0.8,0.2,1.4,0.5,1.8c0.3,0.4,0.8,0.6,1.3,0.6c0.5,0,1-0.2,1.3-0.6c0.3-0.4,0.5-1,0.5-1.8c0-0.8-0.2-1.4-0.5-1.7
			s-0.8-0.6-1.3-0.6c-0.5,0-1,0.2-1.3,0.6C-194,189.2-194.1,189.8-194.1,190.6z"/>
		<path fill="#4D4D4F" d="M-182.8,196.2c-0.6-0.7-1.1-1.6-1.5-2.6c-0.4-1-0.6-2-0.6-3.1c0-0.9,0.1-1.8,0.5-2.7c0.4-1,0.9-2,1.6-3
			h0.8c-0.5,0.8-0.8,1.4-0.9,1.7c-0.2,0.5-0.4,1.1-0.6,1.7c-0.2,0.7-0.3,1.5-0.3,2.2c0,1.9,0.6,3.8,1.8,5.6L-182.8,196.2
			L-182.8,196.2z"/>
		<path fill="#4D4D4F" d="M-180.8,193.7v-6.2h0.9v0.9c0.5-0.7,1.1-1,2-1c0.4,0,0.7,0.1,1,0.2c0.3,0.1,0.6,0.3,0.7,0.5
			c0.2,0.2,0.3,0.5,0.3,0.8c0,0.2,0.1,0.5,0.1,1v3.8h-1.1v-3.8c0-0.4,0-0.8-0.1-1s-0.2-0.4-0.4-0.5c-0.2-0.1-0.5-0.2-0.7-0.2
			c-0.4,0-0.8,0.1-1.2,0.4c-0.3,0.3-0.5,0.8-0.5,1.6v3.4L-180.8,193.7L-180.8,193.7z"/>
		<path fill="#4D4D4F" d="M-168.6,188.6h-5.7v-1h5.7V188.6z M-168.6,191.2h-5.7v-1h5.7V191.2z"/>
		<path fill="#4D4D4F" d="M-164,193.7v-2.1h-3.7v-1l3.9-5.6h0.9v5.6h1.2v1h-1.2v2.1H-164z M-164,190.7v-3.9l-2.7,3.9H-164z"/>
		<path fill="#4D4D4F" d="M-157.4,193.7v-2.1h-3.7v-1l3.9-5.6h0.9v5.6h1.2v1h-1.2v2.1H-157.4z M-157.4,190.7v-3.9l-2.7,3.9H-157.4z"
			/>
		<path fill="#4D4D4F" d="M-154,186.2v-1h5.6v0.8c-0.5,0.6-1.1,1.4-1.6,2.3c-0.5,1-1,2-1.2,3c-0.2,0.7-0.3,1.5-0.4,2.4h-1.1
			c0-0.7,0.1-1.5,0.4-2.4s0.6-1.9,1.1-2.8c0.5-0.9,1-1.6,1.5-2.2L-154,186.2L-154,186.2z"/>
		<path fill="#4D4D4F" d="M-146.4,196.2h-0.8c1.2-1.9,1.8-3.8,1.8-5.6c0-0.7-0.1-1.5-0.3-2.2c-0.1-0.6-0.3-1.1-0.6-1.7
			c-0.2-0.4-0.5-0.9-0.9-1.8h0.8c0.7,1,1.3,2,1.6,3c0.3,0.9,0.5,1.7,0.5,2.7c0,1.1-0.2,2.1-0.6,3.1
			C-145.4,194.6-145.8,195.5-146.4,196.2z"/>
	</g>
	<g enable-background="new    ">
		<path fill="#4D4D4F" d="M-284.9,208.7l1.1,0.3c-0.2,0.9-0.7,1.6-1.3,2.1c-0.6,0.5-1.4,0.7-2.3,0.7c-0.9,0-1.7-0.2-2.3-0.6
			c-0.6-0.4-1-0.9-1.3-1.6c-0.3-0.7-0.5-1.5-0.5-2.3c0-0.9,0.2-1.7,0.5-2.3s0.8-1.2,1.5-1.5c0.6-0.3,1.3-0.5,2.1-0.5
			c0.9,0,1.6,0.2,2.2,0.7c0.6,0.4,1,1.1,1.2,1.8l-1.1,0.3c-0.2-0.6-0.5-1.1-0.9-1.4c-0.4-0.3-0.9-0.4-1.4-0.4
			c-0.7,0-1.2,0.2-1.7,0.5c-0.4,0.3-0.8,0.7-0.9,1.3c-0.2,0.5-0.3,1.1-0.3,1.6c0,0.7,0.1,1.4,0.3,1.9c0.2,0.5,0.5,1,1,1.2
			s0.9,0.4,1.5,0.4c0.6,0,1.2-0.2,1.6-0.6C-285.4,209.9-285.1,209.4-284.9,208.7z"/>
		<path fill="#4D4D4F" d="M-282.5,211.7v-8.6h1.1v3.1c0.5-0.6,1.1-0.9,1.9-0.9c0.5,0,0.9,0.1,1.2,0.3c0.3,0.2,0.6,0.4,0.7,0.8
			c0.1,0.3,0.2,0.8,0.2,1.4v3.9h-1.1v-3.9c0-0.5-0.1-0.9-0.3-1.2c-0.2-0.2-0.6-0.4-1-0.4c-0.3,0-0.6,0.1-0.9,0.2
			c-0.3,0.2-0.5,0.4-0.6,0.7c-0.1,0.3-0.2,0.7-0.2,1.1v3.4L-282.5,211.7L-282.5,211.7z"/>
		<path fill="#4D4D4F" d="M-271.6,209.7l1.1,0.1c-0.2,0.6-0.5,1.1-1,1.5c-0.5,0.4-1.1,0.5-1.8,0.5c-0.9,0-1.6-0.3-2.2-0.8
			c-0.5-0.6-0.8-1.3-0.8-2.4c0-1,0.3-1.9,0.8-2.4c0.5-0.6,1.2-0.9,2.1-0.9c0.8,0,1.5,0.3,2,0.8c0.5,0.6,0.8,1.4,0.8,2.4
			c0,0.1,0,0.2,0,0.3h-4.6c0,0.7,0.2,1.2,0.6,1.6s0.8,0.5,1.3,0.5c0.4,0,0.7-0.1,1-0.3S-271.8,210.1-271.6,209.7z M-275.1,208h3.5
			c0-0.5-0.2-0.9-0.4-1.2c-0.3-0.4-0.8-0.6-1.3-0.6c-0.5,0-0.9,0.2-1.2,0.5C-274.8,207-275,207.4-275.1,208z"/>
		<path fill="#4D4D4F" d="M-269.2,211.7v-6.2h0.9v0.9c0.2-0.3,0.5-0.5,0.8-0.7c0.3-0.2,0.7-0.3,1.1-0.3c0.5,0,0.8,0.1,1.1,0.3
			c0.3,0.2,0.5,0.5,0.6,0.8c0.5-0.7,1.1-1.1,1.9-1.1c0.6,0,1.1,0.2,1.4,0.5s0.5,0.9,0.5,1.6v4.3h-1v-3.9c0-0.4,0-0.7-0.1-0.9
			c-0.1-0.2-0.2-0.3-0.4-0.4c-0.2-0.1-0.4-0.2-0.6-0.2c-0.4,0-0.8,0.1-1.1,0.4s-0.4,0.8-0.4,1.4v3.6h-1.1v-4c0-0.5-0.1-0.8-0.3-1.1
			c-0.2-0.2-0.5-0.4-0.8-0.4c-0.3,0-0.6,0.1-0.8,0.2c-0.3,0.2-0.4,0.4-0.5,0.7s-0.2,0.7-0.2,1.3v3.2L-269.2,211.7L-269.2,211.7z"/>
		<path fill="#4D4D4F" d="M-259.6,208.6c0-1.2,0.3-2,1-2.6c0.5-0.5,1.2-0.7,2-0.7c0.9,0,1.6,0.3,2.1,0.8c0.5,0.6,0.8,1.3,0.8,2.3
			c0,0.8-0.1,1.4-0.4,1.9c-0.2,0.5-0.6,0.8-1,1.1s-1,0.4-1.5,0.4c-0.9,0-1.6-0.3-2.1-0.8S-259.6,209.6-259.6,208.6z M-258.5,208.6
			c0,0.8,0.2,1.4,0.5,1.8s0.8,0.6,1.3,0.6c0.5,0,1-0.2,1.3-0.6c0.3-0.4,0.5-1,0.5-1.8c0-0.8-0.2-1.4-0.5-1.7
			c-0.4-0.4-0.8-0.6-1.3-0.6c-0.5,0-1,0.2-1.3,0.6C-258.3,207.2-258.5,207.8-258.5,208.6z"/>
		<path fill="#4D4D4F" d="M-245.1,210.9c-0.4,0.3-0.8,0.6-1.1,0.7c-0.4,0.1-0.7,0.2-1.2,0.2c-0.7,0-1.2-0.2-1.6-0.5
			s-0.6-0.8-0.6-1.3c0-0.3,0.1-0.6,0.2-0.8c0.1-0.3,0.3-0.5,0.5-0.6c0.2-0.2,0.5-0.3,0.8-0.3c0.2-0.1,0.5-0.1,0.9-0.2
			c0.9-0.1,1.5-0.2,1.9-0.4c0-0.1,0-0.2,0-0.3c0-0.4-0.1-0.7-0.3-0.9c-0.3-0.2-0.7-0.4-1.2-0.4c-0.5,0-0.9,0.1-1.1,0.3
			s-0.4,0.5-0.5,0.9l-1-0.1c0.1-0.4,0.2-0.8,0.5-1.1c0.2-0.3,0.5-0.5,0.9-0.6c0.4-0.1,0.9-0.2,1.4-0.2c0.5,0,1,0.1,1.3,0.2
			s0.6,0.3,0.7,0.5c0.2,0.2,0.3,0.4,0.3,0.7c0,0.2,0.1,0.5,0.1,1v1.4c0,1,0,1.6,0.1,1.9s0.1,0.5,0.3,0.7h-1.1
			C-245,211.5-245.1,211.2-245.1,210.9z M-245.2,208.6c-0.4,0.2-1,0.3-1.7,0.4c-0.4,0.1-0.7,0.1-0.9,0.2c-0.2,0.1-0.3,0.2-0.4,0.3
			c-0.1,0.1-0.1,0.3-0.1,0.5c0,0.3,0.1,0.5,0.3,0.7c0.2,0.2,0.5,0.3,0.9,0.3c0.4,0,0.8-0.1,1.1-0.3c0.3-0.2,0.5-0.4,0.7-0.7
			c0.1-0.2,0.2-0.6,0.2-1.1L-245.2,208.6L-245.2,208.6z"/>
		<path fill="#4D4D4F" d="M-242.5,211.7v-8.6h1.1v8.6H-242.5z"/>
		<path fill="#4D4D4F" d="M-240.2,208.6c0-1.2,0.3-2,1-2.6c0.5-0.5,1.2-0.7,2-0.7c0.9,0,1.6,0.3,2.1,0.8c0.5,0.6,0.8,1.3,0.8,2.3
			c0,0.8-0.1,1.4-0.4,1.9c-0.2,0.5-0.6,0.8-1,1.1c-0.5,0.3-1,0.4-1.5,0.4c-0.9,0-1.6-0.3-2.1-0.8
			C-240,210.4-240.2,209.6-240.2,208.6z M-239.1,208.6c0,0.8,0.2,1.4,0.5,1.8s0.8,0.6,1.3,0.6c0.5,0,1-0.2,1.3-0.6
			c0.3-0.4,0.5-1,0.5-1.8c0-0.8-0.2-1.4-0.5-1.7c-0.4-0.4-0.8-0.6-1.3-0.6c-0.5,0-1,0.2-1.3,0.6C-239,207.2-239.1,207.8-239.1,208.6
			z"/>
		<path fill="#4D4D4F" d="M-233.2,211.7v-6.2h0.9v0.9c0.5-0.7,1.1-1,2-1c0.4,0,0.7,0.1,1,0.2c0.3,0.1,0.5,0.3,0.7,0.5
			c0.2,0.2,0.3,0.5,0.3,0.8c0,0.2,0.1,0.5,0.1,1v3.8h-1.1v-3.8c0-0.4,0-0.8-0.1-1s-0.2-0.4-0.4-0.5c-0.2-0.1-0.5-0.2-0.7-0.2
			c-0.4,0-0.8,0.1-1.2,0.4s-0.5,0.8-0.5,1.6v3.4L-233.2,211.7L-233.2,211.7z"/>
		<path fill="#4D4D4F" d="M-222.2,209.7l1.1,0.1c-0.2,0.6-0.5,1.1-1,1.5c-0.5,0.4-1.1,0.5-1.8,0.5c-0.9,0-1.6-0.3-2.2-0.8
			c-0.5-0.6-0.8-1.3-0.8-2.4c0-1,0.3-1.9,0.8-2.4c0.5-0.6,1.2-0.9,2.1-0.9c0.8,0,1.5,0.3,2,0.8c0.5,0.6,0.8,1.4,0.8,2.4
			c0,0.1,0,0.2,0,0.3h-4.6c0,0.7,0.2,1.2,0.6,1.6s0.8,0.5,1.3,0.5c0.4,0,0.7-0.1,1-0.3C-222.6,210.5-222.4,210.1-222.2,209.7z
			 M-225.7,208h3.5c0-0.5-0.2-0.9-0.4-1.2c-0.3-0.4-0.8-0.6-1.3-0.6c-0.5,0-0.9,0.2-1.2,0.5C-225.5,207-225.7,207.4-225.7,208z"/>
		<path fill="#4D4D4F" d="M-214.5,214.2c-0.6-0.7-1.1-1.6-1.5-2.6c-0.4-1-0.6-2-0.6-3.1c0-0.9,0.1-1.8,0.5-2.7c0.4-1,0.9-2,1.6-3
			h0.8c-0.5,0.8-0.8,1.4-0.9,1.7c-0.2,0.5-0.4,1.1-0.6,1.7c-0.2,0.7-0.3,1.5-0.3,2.2c0,1.9,0.6,3.8,1.8,5.6L-214.5,214.2
			L-214.5,214.2z"/>
		<path fill="#4D4D4F" d="M-212.5,211.7v-6.2h0.9v0.9c0.5-0.7,1.1-1,2-1c0.4,0,0.7,0.1,1,0.2c0.3,0.1,0.6,0.3,0.7,0.5
			c0.2,0.2,0.3,0.5,0.3,0.8c0,0.2,0.1,0.5,0.1,1v3.8h-1.1v-3.8c0-0.4,0-0.8-0.1-1s-0.2-0.4-0.4-0.5c-0.2-0.1-0.5-0.2-0.7-0.2
			c-0.4,0-0.8,0.1-1.2,0.4s-0.5,0.8-0.5,1.6v3.4L-212.5,211.7L-212.5,211.7z"/>
		<path fill="#4D4D4F" d="M-200.3,206.6h-5.7v-1h5.7V206.6z M-200.3,209.2h-5.7v-1h5.7V209.2z"/>
		<path fill="#4D4D4F" d="M-195.7,211.7v-2.1h-3.7v-1l3.9-5.6h0.9v5.6h1.2v1h-1.2v2.1H-195.7z M-195.7,208.7v-3.9l-2.7,3.9H-195.7z"
			/>
		<path fill="#4D4D4F" d="M-192.4,209.4l1.1-0.1c0.1,0.5,0.3,0.9,0.6,1.2c0.3,0.3,0.7,0.4,1.1,0.4c0.5,0,0.9-0.2,1.3-0.6
			s0.5-0.9,0.5-1.5c0-0.6-0.2-1.1-0.5-1.4c-0.3-0.3-0.8-0.5-1.3-0.5c-0.3,0-0.6,0.1-0.9,0.2c-0.3,0.2-0.5,0.4-0.6,0.6l-1-0.1
			l0.8-4.4h4.3v1h-3.4l-0.5,2.3c0.5-0.4,1.1-0.5,1.6-0.5c0.8,0,1.4,0.3,1.9,0.8c0.5,0.5,0.8,1.2,0.8,2c0,0.8-0.2,1.4-0.7,2
			c-0.6,0.7-1.3,1-2.3,1c-0.8,0-1.4-0.2-1.9-0.7C-192.1,210.7-192.4,210.2-192.4,209.4z"/>
		<path fill="#4D4D4F" d="M-181.8,211.7h-1.1V205c-0.3,0.2-0.6,0.5-1,0.7c-0.4,0.2-0.8,0.4-1.1,0.5v-1c0.6-0.3,1.1-0.6,1.5-1
			c0.4-0.4,0.8-0.8,0.9-1.1h0.7L-181.8,211.7L-181.8,211.7z"/>
		<path fill="#4D4D4F" d="M-178.1,214.2h-0.8c1.2-1.9,1.8-3.8,1.8-5.6c0-0.7-0.1-1.5-0.3-2.2c-0.1-0.6-0.3-1.1-0.6-1.7
			c-0.2-0.4-0.5-0.9-0.9-1.8h0.8c0.7,1,1.3,2,1.6,3c0.3,0.9,0.5,1.7,0.5,2.7c0,1.1-0.2,2.1-0.6,3.1
			C-177,212.6-177.5,213.5-178.1,214.2z"/>
	</g>
</g>
<g enable-background="new    ">
	<path fill="#6BADA2" d="M-366.3,47.3h-9.3v-3c0-1.1,0-1.9,0.1-2.2c0.1-0.5,0.4-1,0.9-1.3c0.5-0.4,1.1-0.5,1.8-0.5
		c0.6,0,1.1,0.1,1.4,0.3c0.4,0.2,0.7,0.5,0.9,0.8c0.2,0.3,0.4,0.6,0.4,1c0.1,0.4,0.1,1.1,0.1,1.9v1.2h3.5V47.3L-366.3,47.3z
		 M-374.1,45.4h2.6v-1c0-0.7,0-1.2-0.1-1.5c-0.1-0.2-0.2-0.4-0.5-0.6c-0.2-0.1-0.4-0.2-0.7-0.2c-0.3,0-0.6,0.1-0.8,0.3
		c-0.2,0.2-0.4,0.5-0.4,0.8c0,0.2-0.1,0.7-0.1,1.4V45.4z"/>
	<path fill="#6BADA2" d="M-368.5,34.7l0.3-1.8c0.7,0.2,1.1,0.6,1.5,1.1c0.3,0.5,0.5,1.1,0.5,1.9c0,1.2-0.4,2-1.1,2.6
		c-0.6,0.4-1.4,0.7-2.3,0.7c-1.1,0-2-0.3-2.6-0.9s-0.9-1.3-0.9-2.2c0-1,0.3-1.8,1-2.4c0.7-0.6,1.7-0.9,3-0.8v4.5
		c0.5,0,0.9-0.2,1.2-0.4c0.3-0.3,0.4-0.6,0.4-1c0-0.3-0.1-0.5-0.2-0.7C-367.9,35-368.1,34.8-368.5,34.7z M-370.3,34.6
		c-0.5,0-0.9,0.1-1.2,0.4c-0.3,0.3-0.4,0.6-0.4,0.9c0,0.4,0.1,0.7,0.4,1c0.3,0.3,0.7,0.4,1.2,0.4V34.6z"/>
	<path fill="#6BADA2" d="M-366.3,29.7v1.8h-6.7v-1.7h1c-0.5-0.3-0.8-0.5-0.9-0.8c-0.1-0.2-0.2-0.5-0.2-0.8c0-0.4,0.1-0.8,0.3-1.2
		l1.6,0.6c-0.2,0.3-0.3,0.6-0.3,0.8c0,0.2,0.1,0.5,0.2,0.6c0.1,0.2,0.4,0.3,0.7,0.4c0.4,0.1,1.1,0.1,2.3,0.1L-366.3,29.7
		L-366.3,29.7z"/>
	<path fill="#6BADA2" d="M-371.1,20.5l0.3,1.8c-0.4,0.1-0.6,0.2-0.8,0.4s-0.3,0.5-0.3,0.8c0,0.4,0.2,0.8,0.5,1.1
		c0.3,0.3,0.8,0.4,1.5,0.4c0.8,0,1.4-0.1,1.7-0.4c0.3-0.3,0.5-0.6,0.5-1.1c0-0.3-0.1-0.6-0.3-0.8c-0.2-0.2-0.5-0.4-1-0.5l0.3-1.8
		c0.8,0.2,1.4,0.5,1.8,1c0.4,0.5,0.6,1.2,0.6,2.1c0,1-0.3,1.8-0.9,2.4c-0.6,0.6-1.5,0.9-2.6,0.9c-1.1,0-2-0.3-2.6-0.9
		c-0.6-0.6-0.9-1.4-0.9-2.4c0-0.8,0.2-1.5,0.5-2C-372.3,21-371.8,20.7-371.1,20.5z"/>
	<path fill="#6BADA2" d="M-368.5,15.2l0.3-1.8c0.7,0.2,1.1,0.6,1.5,1.1c0.3,0.5,0.5,1.1,0.5,1.9c0,1.2-0.4,2-1.1,2.6
		c-0.6,0.4-1.4,0.7-2.3,0.7c-1.1,0-2-0.3-2.6-0.9s-0.9-1.3-0.9-2.2c0-1,0.3-1.8,1-2.4c0.7-0.6,1.7-0.9,3-0.8v4.5
		c0.5,0,0.9-0.2,1.2-0.4c0.3-0.3,0.4-0.6,0.4-1c0-0.3-0.1-0.5-0.2-0.7C-367.9,15.4-368.1,15.3-368.5,15.2z M-370.3,15.1
		c-0.5,0-0.9,0.1-1.2,0.4s-0.4,0.6-0.4,0.9c0,0.4,0.1,0.7,0.4,1c0.3,0.3,0.7,0.4,1.2,0.4V15.1z"/>
	<path fill="#6BADA2" d="M-366.3,5.7v1.8h-3.4c-0.7,0-1.2,0-1.4,0.1c-0.2,0.1-0.4,0.2-0.5,0.4c-0.1,0.2-0.2,0.4-0.2,0.6
		c0,0.3,0.1,0.6,0.3,0.8c0.2,0.2,0.4,0.4,0.7,0.5c0.3,0.1,0.8,0.1,1.5,0.1h3.1v1.8h-6.7v-1.7h1c-0.8-0.6-1.1-1.3-1.1-2.2
		c0-0.4,0.1-0.8,0.2-1.1c0.1-0.3,0.3-0.6,0.5-0.7c0.2-0.2,0.5-0.3,0.8-0.4c0.3-0.1,0.7-0.1,1.2-0.1L-366.3,5.7L-366.3,5.7z"/>
	<path fill="#6BADA2" d="M-373.1,0.8h1.4v1.2h2.7c0.6,0,0.9,0,1,0c0.1,0,0.2-0.1,0.2-0.2c0.1-0.1,0.1-0.2,0.1-0.3
		c0-0.2-0.1-0.4-0.2-0.7l1.4-0.1c0.2,0.4,0.3,0.9,0.3,1.4c0,0.3-0.1,0.6-0.2,0.9c-0.1,0.3-0.2,0.4-0.4,0.6c-0.2,0.1-0.4,0.2-0.7,0.2
		c-0.2,0-0.6,0.1-1.3,0.1h-2.9v0.8h-1.4V3.8h-1.3l-1-1.8h2.4L-373.1,0.8L-373.1,0.8L-373.1,0.8z"/>
	<path fill="#6BADA2" d="M-371-1.7l-0.3,1.6c-0.7-0.2-1.1-0.5-1.4-0.9c-0.3-0.4-0.5-1.1-0.5-2c0-0.8,0.1-1.4,0.3-1.8
		c0.2-0.4,0.4-0.7,0.7-0.8c0.3-0.2,0.8-0.2,1.6-0.2l2.1,0c0.6,0,1,0,1.3-0.1c0.3-0.1,0.6-0.2,0.9-0.3v1.8c-0.1,0-0.3,0.1-0.5,0.2
		c-0.1,0-0.2,0.1-0.2,0.1c0.3,0.3,0.5,0.6,0.7,1c0.1,0.3,0.2,0.7,0.2,1.1c0,0.7-0.2,1.2-0.6,1.6c-0.4,0.4-0.9,0.6-1.4,0.6
		c-0.4,0-0.7-0.1-1-0.3c-0.3-0.2-0.5-0.4-0.7-0.8c-0.2-0.3-0.3-0.8-0.4-1.4c-0.2-0.8-0.3-1.4-0.4-1.7h-0.2c-0.3,0-0.6,0.1-0.7,0.3
		c-0.1,0.2-0.2,0.5-0.2,1c0,0.3,0.1,0.6,0.2,0.7C-371.5-2-371.3-1.8-371-1.7z M-369.6-4.1c0.1,0.2,0.2,0.6,0.3,1.1
		c0.1,0.5,0.2,0.8,0.3,1c0.2,0.2,0.4,0.3,0.6,0.3c0.2,0,0.5-0.1,0.6-0.3c0.2-0.2,0.3-0.4,0.3-0.7c0-0.3-0.1-0.6-0.3-0.9
		c-0.2-0.2-0.4-0.4-0.6-0.4c-0.2,0-0.4-0.1-0.9-0.1L-369.6-4.1L-369.6-4.1z"/>
	<path fill="#6BADA2" d="M-365.9-7.5l0.2-2c0.2,0,0.4-0.1,0.5-0.2c0.1-0.2,0.2-0.4,0.2-0.8c0-0.5-0.1-0.8-0.2-1
		c-0.1-0.2-0.2-0.3-0.5-0.4c-0.1-0.1-0.4-0.1-0.8-0.1h-1c0.7,0.5,1.1,1.2,1.1,2c0,0.9-0.4,1.6-1.1,2.2c-0.6,0.4-1.4,0.6-2.3,0.6
		c-1.1,0-2-0.3-2.6-0.8c-0.6-0.5-0.9-1.2-0.9-2c0-0.8,0.4-1.5,1.1-2.1h-0.9v-1.7h6c0.8,0,1.4,0.1,1.8,0.2c0.4,0.1,0.7,0.3,0.9,0.6
		c0.2,0.2,0.4,0.6,0.5,0.9c0.1,0.4,0.2,0.9,0.2,1.5c0,1.1-0.2,2-0.6,2.4c-0.4,0.5-0.9,0.7-1.5,0.7C-365.7-7.5-365.8-7.5-365.9-7.5z
		 M-369.8-9.1c0.7,0,1.2-0.1,1.6-0.4s0.5-0.6,0.5-1c0-0.4-0.2-0.8-0.5-1.1c-0.3-0.3-0.8-0.5-1.5-0.5c-0.7,0-1.2,0.1-1.6,0.4
		c-0.3,0.3-0.5,0.7-0.5,1.1c0,0.4,0.2,0.8,0.5,1.1C-371-9.2-370.5-9.1-369.8-9.1z"/>
	<path fill="#6BADA2" d="M-368.5-19.5l0.3-1.8c0.7,0.2,1.1,0.6,1.5,1.1c0.3,0.5,0.5,1.1,0.5,1.9c0,1.2-0.4,2-1.1,2.6
		c-0.6,0.4-1.4,0.7-2.3,0.7c-1.1,0-2-0.3-2.6-0.9c-0.6-0.6-0.9-1.3-0.9-2.2c0-1,0.3-1.8,1-2.4c0.7-0.6,1.7-0.9,3-0.8v4.5
		c0.5,0,0.9-0.2,1.2-0.4s0.4-0.6,0.4-1c0-0.3-0.1-0.5-0.2-0.7C-367.9-19.2-368.1-19.4-368.5-19.5z M-370.3-19.6
		c-0.5,0-0.9,0.1-1.2,0.4s-0.4,0.6-0.4,0.9c0,0.4,0.1,0.7,0.4,1c0.3,0.3,0.7,0.4,1.2,0.4V-19.6z"/>
	<path fill="#6BADA2" d="M-368.3-25.8l-0.3-1.8c0.3-0.1,0.6-0.2,0.8-0.5c0.2-0.2,0.3-0.6,0.3-1c0-0.5-0.1-0.8-0.3-1
		c-0.1-0.2-0.3-0.2-0.5-0.2c-0.1,0-0.2,0-0.3,0.1c-0.1,0.1-0.2,0.3-0.2,0.6c-0.3,1.4-0.6,2.4-0.9,2.7c-0.4,0.5-0.9,0.8-1.5,0.8
		c-0.6,0-1.1-0.2-1.5-0.7c-0.4-0.5-0.6-1.2-0.6-2.1c0-0.9,0.1-1.6,0.4-2.1c0.3-0.4,0.7-0.8,1.3-0.9l0.3,1.7
		c-0.3,0.1-0.5,0.2-0.6,0.4c-0.1,0.2-0.2,0.5-0.2,0.9c0,0.5,0.1,0.8,0.2,1c0.1,0.1,0.2,0.2,0.4,0.2c0.1,0,0.2-0.1,0.3-0.2
		c0.1-0.2,0.3-0.7,0.5-1.7c0.2-0.9,0.5-1.6,0.8-2c0.3-0.4,0.8-0.6,1.3-0.6c0.6,0,1.1,0.3,1.6,0.8c0.4,0.5,0.7,1.3,0.7,2.3
		c0,0.9-0.2,1.6-0.6,2.2C-367.1-26.3-367.6-26-368.3-25.8z"/>
	<path fill="#6BADA2" d="M-366.3-38.1h-1c0.4,0.2,0.6,0.6,0.9,1c0.2,0.4,0.3,0.8,0.3,1.3c0,0.5-0.1,0.9-0.3,1.2
		c-0.2,0.4-0.5,0.6-0.8,0.8c-0.4,0.2-0.9,0.2-1.5,0.2h-4.3v-1.8h3.1c0.9,0,1.5,0,1.7-0.1c0.2-0.1,0.4-0.2,0.5-0.4s0.2-0.4,0.2-0.7
		c0-0.3-0.1-0.6-0.3-0.8c-0.2-0.2-0.4-0.4-0.6-0.5c-0.2-0.1-0.9-0.1-1.8-0.1h-2.8v-1.8h6.7L-366.3-38.1L-366.3-38.1z"/>
	<path fill="#6BADA2" d="M-366.3-43.3v1.8h-6.7v-1.7h1c-0.5-0.3-0.8-0.5-0.9-0.8c-0.1-0.2-0.2-0.5-0.2-0.8c0-0.4,0.1-0.8,0.3-1.2
		l1.6,0.6c-0.2,0.3-0.3,0.6-0.3,0.8c0,0.2,0.1,0.5,0.2,0.6s0.4,0.3,0.7,0.4c0.4,0.1,1.1,0.1,2.3,0.1L-366.3-43.3L-366.3-43.3z"/>
	<path fill="#6BADA2" d="M-366.3-48.5l-6.7,2.7v-1.9l3.4-1.3l1.1-0.4c-0.3-0.1-0.5-0.2-0.6-0.2c-0.2-0.1-0.4-0.1-0.6-0.2l-3.4-1.3
		v-1.8l6.7,2.7V-48.5z"/>
	<path fill="#6BADA2" d="M-374-53.9h-1.6v-1.8h1.6V-53.9z M-366.3-53.9h-6.7v-1.8h6.7V-53.9z"/>
	<path fill="#6BADA2" d="M-366.3-59.3l-6.7,2.7v-1.9l3.4-1.3l1.1-0.4c-0.3-0.1-0.5-0.2-0.6-0.2c-0.2-0.1-0.4-0.1-0.6-0.2l-3.4-1.3
		v-1.8l6.7,2.7V-59.3z"/>
	<path fill="#6BADA2" d="M-374-64.7h-1.6v-1.8h1.6V-64.7z M-366.3-64.7h-6.7v-1.8h6.7V-64.7z"/>
	<path fill="#6BADA2" d="M-366.3-74.5v1.8h-3.4c-0.7,0-1.2,0-1.4,0.1c-0.2,0.1-0.4,0.2-0.5,0.4c-0.1,0.2-0.2,0.4-0.2,0.6
		c0,0.3,0.1,0.6,0.3,0.8c0.2,0.2,0.4,0.4,0.7,0.5c0.3,0.1,0.8,0.1,1.5,0.1h3.1v1.8h-6.7V-70h1c-0.8-0.6-1.1-1.3-1.1-2.2
		c0-0.4,0.1-0.8,0.2-1.1c0.1-0.3,0.3-0.6,0.5-0.7c0.2-0.2,0.5-0.3,0.8-0.4c0.3-0.1,0.7-0.1,1.2-0.1L-366.3-74.5L-366.3-74.5z"/>
	<path fill="#6BADA2" d="M-365.9-76.1l0.2-2c0.2,0,0.4-0.1,0.5-0.2c0.1-0.2,0.2-0.4,0.2-0.8c0-0.5-0.1-0.8-0.2-1
		c-0.1-0.2-0.2-0.3-0.5-0.4c-0.1-0.1-0.4-0.1-0.8-0.1h-1c0.7,0.5,1.1,1.2,1.1,2c0,0.9-0.4,1.6-1.1,2.2c-0.6,0.4-1.4,0.6-2.3,0.6
		c-1.1,0-2-0.3-2.6-0.8c-0.6-0.5-0.9-1.2-0.9-2c0-0.8,0.4-1.5,1.1-2.1h-0.9v-1.7h6c0.8,0,1.4,0.1,1.8,0.2c0.4,0.1,0.7,0.3,0.9,0.6
		c0.2,0.2,0.4,0.6,0.5,0.9c0.1,0.4,0.2,0.9,0.2,1.5c0,1.1-0.2,2-0.6,2.4c-0.4,0.5-0.9,0.7-1.5,0.7
		C-365.7-76.1-365.8-76.1-365.9-76.1z M-369.8-77.7c0.7,0,1.2-0.1,1.6-0.4c0.3-0.3,0.5-0.6,0.5-1c0-0.4-0.2-0.8-0.5-1.1
		c-0.3-0.3-0.8-0.5-1.5-0.5c-0.7,0-1.2,0.1-1.6,0.4c-0.3,0.3-0.5,0.7-0.5,1.1c0,0.4,0.2,0.8,0.5,1.1
		C-371-77.8-370.5-77.7-369.8-77.7z"/>
</g>
<g>
	<g enable-background="new    ">
		<path fill="#4D4D4F" d="M0.3,125.7l1.7-0.2c0.1,0.4,0.2,0.8,0.4,1c0.2,0.2,0.5,0.4,0.9,0.4c0.4,0,0.7-0.1,0.9-0.4
			c0.3-0.3,0.4-0.7,0.4-1.1c0-0.4-0.1-0.8-0.4-1.1c-0.2-0.3-0.5-0.4-0.9-0.4c-0.2,0-0.5,0-0.8,0.1l0.2-1.5c0.5,0,0.9-0.1,1.1-0.3
			c0.3-0.2,0.4-0.5,0.4-0.9c0-0.3-0.1-0.6-0.3-0.7c-0.2-0.2-0.4-0.3-0.7-0.3s-0.6,0.1-0.8,0.3c-0.2,0.2-0.3,0.5-0.4,0.9l-1.6-0.3
			c0.1-0.6,0.3-1,0.5-1.4c0.2-0.3,0.6-0.6,1-0.8c0.4-0.2,0.9-0.3,1.4-0.3c0.9,0,1.6,0.3,2.1,0.8c0.4,0.5,0.7,1,0.7,1.5
			c0,0.8-0.4,1.5-1.3,2c0.5,0.1,1,0.4,1.3,0.8c0.3,0.4,0.5,0.9,0.5,1.4c0,0.8-0.3,1.5-0.9,2.1c-0.6,0.6-1.3,0.9-2.2,0.9
			c-0.8,0-1.5-0.2-2.1-0.7C0.7,127.2,0.4,126.5,0.3,125.7z"/>
		<path fill="#4D4D4F" d="M10.6,118.9c0.9,0,1.6,0.3,2.1,1c0.6,0.8,0.9,2,0.9,3.8c0,1.8-0.3,3-0.9,3.8c-0.5,0.6-1.2,0.9-2.1,0.9
			c-0.9,0-1.6-0.3-2.2-1c-0.6-0.7-0.8-1.9-0.8-3.7c0-1.8,0.3-3,0.9-3.8C9,119.2,9.7,118.9,10.6,118.9z M10.6,120.3
			c-0.2,0-0.4,0.1-0.6,0.2c-0.2,0.1-0.3,0.4-0.4,0.7c-0.1,0.5-0.2,1.2-0.2,2.3s0.1,1.8,0.2,2.3c0.1,0.4,0.2,0.7,0.4,0.8
			c0.2,0.1,0.4,0.2,0.6,0.2c0.2,0,0.4-0.1,0.6-0.2c0.2-0.1,0.3-0.4,0.4-0.7c0.1-0.5,0.2-1.2,0.2-2.3s-0.1-1.8-0.2-2.2
			c-0.1-0.4-0.2-0.7-0.4-0.8C11,120.4,10.8,120.3,10.6,120.3z"/>
	</g>
</g>
<g>
	<g enable-background="new    ">
		<path fill="#4D4D4F" d="M139.4,128.2v-1.9h-3.8v-1.6l4-5.9h1.5v5.9h1.2v1.6h-1.2v1.9L139.4,128.2L139.4,128.2z M139.4,124.8v-3.2
			l-2.1,3.2H139.4z"/>
		<path fill="#4D4D4F" d="M146.2,118.9c0.9,0,1.6,0.3,2.1,1c0.6,0.8,0.9,2,0.9,3.8c0,1.8-0.3,3-0.9,3.8c-0.5,0.6-1.2,0.9-2.1,0.9
			c-0.9,0-1.6-0.3-2.2-1c-0.6-0.7-0.8-1.9-0.8-3.7c0-1.8,0.3-3,0.9-3.8C144.6,119.2,145.3,118.9,146.2,118.9z M146.2,120.3
			c-0.2,0-0.4,0.1-0.6,0.2c-0.2,0.1-0.3,0.4-0.4,0.7c-0.1,0.5-0.2,1.2-0.2,2.3s0.1,1.8,0.2,2.3c0.1,0.4,0.2,0.7,0.4,0.8
			c0.2,0.1,0.4,0.2,0.6,0.2s0.4-0.1,0.6-0.2c0.2-0.1,0.3-0.4,0.4-0.7c0.1-0.5,0.2-1.2,0.2-2.3s-0.1-1.8-0.2-2.2
			c-0.1-0.4-0.2-0.7-0.4-0.8C146.6,120.4,146.4,120.3,146.2,120.3z"/>
	</g>
</g>
<polyline fill="none" stroke="#D6ECE6" stroke-width="2" stroke-miterlimit="10" points="167.8,109.4 -325,109.4 -325,-139.2 "/>
<line fill="none" stroke="#6CABA0" stroke-width="4.2529" stroke-miterlimit="10" x1="-325" y1="189.5" x2="-300.5" y2="189.5"/>
<line fill="none" stroke="#919396" stroke-width="2.1264" stroke-miterlimit="10" x1="-325" y1="206.3" x2="-300.5" y2="206.3"/>
<g>
	<rect x="55.4" y="-162" fill="#ECF6F2" width="368.9" height="122.9"/>
	<line fill="none" stroke="#D6ECE6" stroke-width="6" stroke-miterlimit="10" x1="424.3" y1="-162" x2="55.4" y2="-162"/>
	<g enable-background="new    ">
		<path fill="#4D4D4F" d="M78.4-131.3c0-1.1,0.2-2,0.5-2.8c0.2-0.5,0.6-1,1-1.5c0.4-0.4,0.9-0.8,1.4-1c0.7-0.3,1.4-0.4,2.3-0.4
			c1.6,0,2.8,0.5,3.8,1.5c0.9,1,1.4,2.3,1.4,4.1c0,1.7-0.5,3.1-1.4,4.1c-0.9,1-2.2,1.5-3.8,1.5c-1.6,0-2.9-0.5-3.8-1.5
			C78.9-128.3,78.4-129.6,78.4-131.3z M80.6-131.4c0,1.2,0.3,2.1,0.8,2.8c0.6,0.6,1.3,0.9,2.1,0.9c0.9,0,1.6-0.3,2.1-0.9
			c0.6-0.6,0.8-1.6,0.8-2.8c0-1.2-0.3-2.1-0.8-2.8c-0.5-0.6-1.3-0.9-2.1-0.9c-0.9,0-1.6,0.3-2.2,0.9
			C80.9-133.6,80.6-132.6,80.6-131.4z"/>
		<path fill="#4D4D4F" d="M90.4-133.8h1.9v1.1c0.2-0.4,0.6-0.7,1-1c0.4-0.2,0.9-0.4,1.4-0.4c0.9,0,1.7,0.4,2.3,1.1
			c0.6,0.7,0.9,1.7,0.9,3c0,1.3-0.3,2.3-1,3c-0.6,0.7-1.4,1.1-2.3,1.1c-0.4,0-0.8-0.1-1.2-0.3c-0.4-0.2-0.7-0.5-1.1-0.9v3.9h-2.1
			L90.4-133.8L90.4-133.8z M92.5-130c0,0.9,0.2,1.5,0.5,1.9c0.3,0.4,0.8,0.6,1.3,0.6c0.5,0,0.9-0.2,1.2-0.6c0.3-0.4,0.5-1,0.5-1.9
			c0-0.8-0.2-1.4-0.5-1.8c-0.3-0.4-0.7-0.6-1.2-0.6c-0.5,0-0.9,0.2-1.3,0.6C92.6-131.4,92.5-130.8,92.5-130z"/>
		<path fill="#4D4D4F" d="M103.2-133.8v1.6h-1.4v3.1c0,0.6,0,1,0,1.1c0,0.1,0.1,0.2,0.2,0.3c0.1,0.1,0.2,0.1,0.3,0.1
			c0.2,0,0.5-0.1,0.8-0.2l0.2,1.6c-0.5,0.2-1,0.3-1.6,0.3c-0.4,0-0.7-0.1-1-0.2s-0.5-0.3-0.7-0.5c-0.1-0.2-0.2-0.5-0.3-0.8
			c0-0.2-0.1-0.7-0.1-1.4v-3.4h-0.9v-1.6h0.9v-1.5l2.1-1.2v2.7L103.2-133.8L103.2-133.8z"/>
		<path fill="#4D4D4F" d="M104.6-134.9v-1.9h2.1v1.9H104.6z M104.6-126v-7.8h2.1v7.8H104.6z"/>
		<path fill="#4D4D4F" d="M108.1-128.2l2.1-0.3c0.1,0.4,0.3,0.7,0.5,0.9c0.3,0.2,0.6,0.3,1.1,0.3c0.5,0,0.9-0.1,1.2-0.3
			c0.2-0.1,0.3-0.3,0.3-0.5c0-0.2,0-0.3-0.1-0.4c-0.1-0.1-0.3-0.2-0.7-0.3c-1.7-0.4-2.7-0.7-3.2-1c-0.6-0.4-0.9-1-0.9-1.8
			c0-0.7,0.3-1.2,0.8-1.7c0.5-0.5,1.4-0.7,2.5-0.7c1.1,0,1.9,0.2,2.4,0.5s0.9,0.9,1.1,1.5l-1.9,0.4c-0.1-0.3-0.2-0.5-0.5-0.7
			c-0.2-0.2-0.6-0.2-1-0.2c-0.5,0-0.9,0.1-1.2,0.2c-0.2,0.1-0.2,0.2-0.2,0.4c0,0.1,0.1,0.3,0.2,0.4c0.2,0.1,0.8,0.3,1.9,0.6
			c1.1,0.2,1.9,0.6,2.3,0.9c0.4,0.4,0.6,0.9,0.6,1.5c0,0.7-0.3,1.3-0.9,1.8c-0.6,0.5-1.5,0.8-2.6,0.8c-1.1,0-1.9-0.2-2.5-0.6
			C108.7-126.9,108.3-127.5,108.1-128.2z"/>
		<path fill="#4D4D4F" d="M120.7-133.8v1.6h-1.4v3.1c0,0.6,0,1,0,1.1c0,0.1,0.1,0.2,0.2,0.3c0.1,0.1,0.2,0.1,0.4,0.1
			c0.2,0,0.5-0.1,0.8-0.2l0.2,1.6c-0.5,0.2-1,0.3-1.6,0.3c-0.4,0-0.7-0.1-1-0.2c-0.3-0.1-0.5-0.3-0.7-0.5c-0.1-0.2-0.2-0.5-0.3-0.8
			c0-0.2-0.1-0.7-0.1-1.4v-3.4h-0.9v-1.6h0.9v-1.5l2.1-1.2v2.7L120.7-133.8L120.7-133.8z"/>
		<path fill="#4D4D4F" d="M123.7-131.4l-1.9-0.3c0.2-0.8,0.6-1.3,1.1-1.7c0.5-0.4,1.3-0.5,2.3-0.5c0.9,0,1.6,0.1,2.1,0.3
			c0.4,0.2,0.8,0.5,0.9,0.8c0.2,0.3,0.3,0.9,0.3,1.8l0,2.4c0,0.7,0,1.2,0.1,1.5c0.1,0.3,0.2,0.7,0.4,1h-2c-0.1-0.1-0.1-0.3-0.2-0.6
			c0-0.1-0.1-0.2-0.1-0.2c-0.4,0.3-0.7,0.6-1.1,0.8c-0.4,0.2-0.8,0.3-1.3,0.3c-0.8,0-1.4-0.2-1.9-0.7c-0.5-0.4-0.7-1-0.7-1.6
			c0-0.4,0.1-0.8,0.3-1.2c0.2-0.3,0.5-0.6,0.9-0.8c0.4-0.2,0.9-0.3,1.6-0.5c1-0.2,1.6-0.4,2-0.5v-0.2c0-0.4-0.1-0.7-0.3-0.8
			c-0.2-0.2-0.6-0.3-1.1-0.3c-0.4,0-0.6,0.1-0.9,0.2C124-132,123.8-131.8,123.7-131.4z M126.4-129.8c-0.3,0.1-0.7,0.2-1.3,0.3
			c-0.6,0.1-0.9,0.2-1.1,0.4c-0.3,0.2-0.4,0.4-0.4,0.7c0,0.3,0.1,0.5,0.3,0.7c0.2,0.2,0.5,0.3,0.8,0.3c0.4,0,0.7-0.1,1.1-0.4
			c0.2-0.2,0.4-0.4,0.5-0.7c0.1-0.2,0.1-0.5,0.1-1L126.4-129.8L126.4-129.8L126.4-129.8z"/>
		<path fill="#4D4D4F" d="M132.6-126l-3.1-7.8h2.2l1.5,4l0.4,1.3c0.1-0.3,0.2-0.6,0.2-0.7c0.1-0.2,0.1-0.4,0.2-0.7l1.5-4h2.1
			l-3.1,7.8H132.6z"/>
		<path fill="#4D4D4F" d="M138.8-134.9v-1.9h2.1v1.9H138.8z M138.8-126v-7.8h2.1v7.8H138.8z"/>
		<path fill="#4D4D4F" d="M150.1-126H148v-4c0-0.8,0-1.4-0.1-1.6c-0.1-0.2-0.2-0.4-0.4-0.6c-0.2-0.1-0.4-0.2-0.7-0.2
			c-0.4,0-0.7,0.1-1,0.3c-0.3,0.2-0.5,0.5-0.6,0.8c-0.1,0.3-0.2,0.9-0.2,1.8v3.5H143v-7.8h1.9v1.1c0.7-0.9,1.5-1.3,2.6-1.3
			c0.5,0,0.9,0.1,1.2,0.2c0.4,0.2,0.7,0.4,0.9,0.6c0.2,0.3,0.3,0.5,0.4,0.9s0.1,0.8,0.1,1.4L150.1-126L150.1-126z"/>
		<path fill="#4D4D4F" d="M163.5-126h-1.9v-1.1c-0.3,0.4-0.7,0.8-1.1,1c-0.4,0.2-0.9,0.3-1.3,0.3c-0.9,0-1.7-0.4-2.3-1.1
			c-0.6-0.7-1-1.7-1-3c0-1.3,0.3-2.3,0.9-3c0.6-0.7,1.4-1,2.4-1c0.9,0,1.6,0.4,2.3,1.1v-3.9h2.1L163.5-126L163.5-126z M158-130.1
			c0,0.8,0.1,1.4,0.3,1.8c0.3,0.5,0.8,0.8,1.4,0.8c0.5,0,0.9-0.2,1.2-0.6c0.3-0.4,0.5-1,0.5-1.8c0-0.9-0.2-1.5-0.5-1.9
			c-0.3-0.4-0.7-0.6-1.2-0.6c-0.5,0-0.9,0.2-1.2,0.6C158.1-131.4,158-130.9,158-130.1z"/>
		<path fill="#4D4D4F" d="M170-128.5l2.1,0.3c-0.3,0.8-0.7,1.3-1.2,1.7c-0.6,0.4-1.3,0.6-2.1,0.6c-1.4,0-2.4-0.4-3-1.3
			c-0.5-0.7-0.8-1.6-0.8-2.7c0-1.3,0.3-2.3,1-3s1.5-1.1,2.6-1.1c1.2,0,2.1,0.4,2.7,1.1c0.7,0.8,1,1.9,1,3.5H167
			c0,0.6,0.2,1.1,0.5,1.4c0.3,0.3,0.7,0.5,1.2,0.5c0.3,0,0.6-0.1,0.8-0.3C169.7-127.8,169.9-128.1,170-128.5z M170.1-130.6
			c0-0.6-0.2-1-0.5-1.4c-0.3-0.3-0.6-0.5-1.1-0.5c-0.4,0-0.8,0.2-1.1,0.5s-0.4,0.8-0.4,1.3H170.1z"/>
		<path fill="#4D4D4F" d="M173.7-133.8h1.9v1.1c0.7-0.8,1.5-1.2,2.4-1.2c0.5,0,0.9,0.1,1.3,0.3c0.4,0.2,0.7,0.5,0.9,0.9
			c0.3-0.4,0.7-0.7,1.1-0.9s0.8-0.3,1.3-0.3c0.6,0,1.1,0.1,1.4,0.3c0.4,0.2,0.7,0.6,0.9,1c0.1,0.3,0.2,0.9,0.2,1.6v5h-2.1v-4.4
			c0-0.8-0.1-1.3-0.2-1.5c-0.2-0.3-0.5-0.4-0.9-0.4c-0.3,0-0.6,0.1-0.8,0.3c-0.3,0.2-0.4,0.4-0.5,0.8c-0.1,0.3-0.2,0.9-0.2,1.6v3.7
			h-2.1v-4.3c0-0.8,0-1.2-0.1-1.5c-0.1-0.2-0.2-0.4-0.3-0.5c-0.2-0.1-0.4-0.2-0.6-0.2c-0.3,0-0.6,0.1-0.9,0.3
			c-0.3,0.2-0.4,0.4-0.5,0.7c-0.1,0.3-0.2,0.9-0.2,1.6v3.8h-2.1L173.7-133.8L173.7-133.8z"/>
		<path fill="#4D4D4F" d="M186.7-130c0-0.7,0.2-1.3,0.5-2c0.3-0.6,0.8-1.1,1.4-1.5c0.6-0.3,1.3-0.5,2.1-0.5c1.2,0,2.1,0.4,2.9,1.1
			c0.8,0.8,1.1,1.7,1.1,2.9c0,1.2-0.4,2.2-1.1,2.9c-0.8,0.8-1.7,1.2-2.9,1.2c-0.7,0-1.4-0.2-2-0.5s-1.1-0.8-1.5-1.4
			C186.9-128.4,186.7-129.1,186.7-130z M188.8-129.9c0,0.8,0.2,1.4,0.5,1.8c0.4,0.4,0.8,0.6,1.4,0.6c0.5,0,1-0.2,1.4-0.6
			c0.4-0.4,0.5-1,0.5-1.8c0-0.8-0.2-1.3-0.5-1.8c-0.4-0.4-0.8-0.6-1.4-0.6s-1,0.2-1.4,0.6C189-131.3,188.8-130.7,188.8-129.9z"/>
		<path fill="#4D4D4F" d="M203.4-126h-2.1v-4c0-0.8,0-1.4-0.1-1.6c-0.1-0.2-0.2-0.4-0.4-0.6s-0.4-0.2-0.7-0.2c-0.4,0-0.7,0.1-1,0.3
			c-0.3,0.2-0.5,0.5-0.6,0.8c-0.1,0.3-0.2,0.9-0.2,1.8v3.5h-2.1v-7.8h1.9v1.1c0.7-0.9,1.5-1.3,2.6-1.3c0.5,0,0.9,0.1,1.2,0.2
			c0.4,0.2,0.7,0.4,0.9,0.6c0.2,0.3,0.3,0.5,0.4,0.9s0.1,0.8,0.1,1.4L203.4-126L203.4-126z"/>
		<path fill="#4D4D4F" d="M204.8-128.2l2.1-0.3c0.1,0.4,0.3,0.7,0.5,0.9c0.3,0.2,0.6,0.3,1.1,0.3c0.5,0,0.9-0.1,1.2-0.3
			c0.2-0.1,0.3-0.3,0.3-0.5c0-0.2,0-0.3-0.1-0.4c-0.1-0.1-0.3-0.2-0.7-0.3c-1.7-0.4-2.7-0.7-3.2-1c-0.6-0.4-0.9-1-0.9-1.8
			c0-0.7,0.3-1.2,0.8-1.7c0.5-0.5,1.4-0.7,2.5-0.7c1.1,0,1.9,0.2,2.4,0.5c0.5,0.3,0.9,0.9,1.1,1.5l-1.9,0.4
			c-0.1-0.3-0.2-0.5-0.5-0.7c-0.2-0.2-0.6-0.2-1-0.2c-0.5,0-0.9,0.1-1.2,0.2c-0.2,0.1-0.2,0.2-0.2,0.4c0,0.1,0.1,0.3,0.2,0.4
			c0.2,0.1,0.8,0.3,1.9,0.6c1.1,0.2,1.9,0.6,2.3,0.9c0.4,0.4,0.6,0.9,0.6,1.5c0,0.7-0.3,1.3-0.9,1.8c-0.6,0.5-1.5,0.8-2.6,0.8
			c-1.1,0-1.9-0.2-2.5-0.6C205.4-126.9,205-127.5,204.8-128.2z"/>
		<path fill="#4D4D4F" d="M217.4-133.8v1.6H216v3.1c0,0.6,0,1,0,1.1c0,0.1,0.1,0.2,0.2,0.3c0.1,0.1,0.2,0.1,0.3,0.1
			c0.2,0,0.5-0.1,0.8-0.2l0.2,1.6c-0.5,0.2-1,0.3-1.6,0.3c-0.4,0-0.7-0.1-1-0.2c-0.3-0.1-0.5-0.3-0.7-0.5c-0.1-0.2-0.2-0.5-0.3-0.8
			c0-0.2-0.1-0.7-0.1-1.4v-3.4H213v-1.6h0.9v-1.5l2.1-1.2v2.7L217.4-133.8L217.4-133.8z"/>
		<path fill="#4D4D4F" d="M220.8-126h-2.1v-7.8h1.9v1.1c0.3-0.5,0.6-0.9,0.9-1s0.6-0.2,0.9-0.2c0.5,0,0.9,0.1,1.4,0.4l-0.6,1.8
			c-0.3-0.2-0.7-0.3-1-0.3c-0.3,0-0.5,0.1-0.7,0.2c-0.2,0.2-0.4,0.4-0.5,0.9s-0.2,1.3-0.2,2.6L220.8-126L220.8-126z"/>
		<path fill="#4D4D4F" d="M226.2-131.4l-1.9-0.3c0.2-0.8,0.6-1.3,1.1-1.7c0.5-0.4,1.3-0.5,2.3-0.5c0.9,0,1.6,0.1,2.1,0.3
			c0.4,0.2,0.8,0.5,0.9,0.8c0.2,0.3,0.3,0.9,0.3,1.8l0,2.4c0,0.7,0,1.2,0.1,1.5c0.1,0.3,0.2,0.7,0.4,1h-2c-0.1-0.1-0.1-0.3-0.2-0.6
			c0-0.1-0.1-0.2-0.1-0.2c-0.4,0.3-0.7,0.6-1.1,0.8c-0.4,0.2-0.8,0.3-1.3,0.3c-0.8,0-1.4-0.2-1.9-0.7c-0.5-0.4-0.7-1-0.7-1.6
			c0-0.4,0.1-0.8,0.3-1.2c0.2-0.3,0.5-0.6,0.9-0.8c0.4-0.2,0.9-0.3,1.6-0.5c1-0.2,1.6-0.4,2-0.5v-0.2c0-0.4-0.1-0.7-0.3-0.8
			c-0.2-0.2-0.6-0.3-1.1-0.3c-0.4,0-0.7,0.1-0.9,0.2C226.5-132,226.3-131.8,226.2-131.4z M229-129.8c-0.3,0.1-0.7,0.2-1.3,0.3
			c-0.6,0.1-0.9,0.2-1.1,0.4c-0.3,0.2-0.4,0.4-0.4,0.7c0,0.3,0.1,0.5,0.3,0.7c0.2,0.2,0.5,0.3,0.8,0.3c0.4,0,0.7-0.1,1.1-0.4
			c0.2-0.2,0.4-0.4,0.5-0.7c0.1-0.2,0.1-0.5,0.1-1L229-129.8L229-129.8z"/>
		<path fill="#4D4D4F" d="M236.6-133.8v1.6h-1.4v3.1c0,0.6,0,1,0,1.1c0,0.1,0.1,0.2,0.2,0.3c0.1,0.1,0.2,0.1,0.3,0.1
			c0.2,0,0.5-0.1,0.8-0.2l0.2,1.6c-0.5,0.2-1,0.3-1.6,0.3c-0.4,0-0.7-0.1-1-0.2c-0.3-0.1-0.5-0.3-0.7-0.5c-0.1-0.2-0.2-0.5-0.3-0.8
			c0-0.2-0.1-0.7-0.1-1.4v-3.4h-0.9v-1.6h0.9v-1.5l2.1-1.2v2.7L236.6-133.8L236.6-133.8z"/>
		<path fill="#4D4D4F" d="M242.5-128.5l2.1,0.3c-0.3,0.8-0.7,1.3-1.2,1.7c-0.6,0.4-1.3,0.6-2.1,0.6c-1.4,0-2.4-0.4-3-1.3
			c-0.5-0.7-0.8-1.6-0.8-2.7c0-1.3,0.3-2.3,1-3c0.7-0.7,1.5-1.1,2.6-1.1c1.2,0,2.1,0.4,2.7,1.1c0.7,0.8,1,1.9,1,3.5h-5.2
			c0,0.6,0.2,1.1,0.5,1.4c0.3,0.3,0.7,0.5,1.2,0.5c0.3,0,0.6-0.1,0.8-0.3C242.2-127.8,242.4-128.1,242.5-128.5z M242.6-130.6
			c0-0.6-0.2-1-0.5-1.4c-0.3-0.3-0.6-0.5-1.1-0.5c-0.4,0-0.8,0.2-1.1,0.5s-0.4,0.8-0.4,1.3H242.6z"/>
		<path fill="#4D4D4F" d="M253.5-126h-1.9v-1.1c-0.3,0.4-0.7,0.8-1.1,1c-0.4,0.2-0.9,0.3-1.3,0.3c-0.9,0-1.7-0.4-2.3-1.1
			c-0.6-0.7-1-1.7-1-3c0-1.3,0.3-2.3,0.9-3c0.6-0.7,1.4-1,2.4-1c0.9,0,1.6,0.4,2.3,1.1v-3.9h2.1L253.5-126L253.5-126z M248-130.1
			c0,0.8,0.1,1.4,0.3,1.8c0.3,0.5,0.8,0.8,1.4,0.8c0.5,0,0.9-0.2,1.2-0.6c0.3-0.4,0.5-1,0.5-1.8c0-0.9-0.2-1.5-0.5-1.9
			c-0.3-0.4-0.7-0.6-1.2-0.6c-0.5,0-0.9,0.2-1.2,0.6C248.2-131.4,248-130.9,248-130.1z"/>
		<path fill="#4D4D4F" d="M266.5-131.5l-2,0.4c-0.1-0.4-0.2-0.7-0.5-0.9c-0.2-0.2-0.6-0.3-0.9-0.3c-0.5,0-0.9,0.2-1.2,0.5
			c-0.3,0.4-0.5,0.9-0.5,1.8c0,0.9,0.2,1.6,0.5,2c0.3,0.4,0.7,0.6,1.2,0.6c0.4,0,0.7-0.1,1-0.3c0.2-0.2,0.4-0.6,0.5-1.1l2,0.3
			c-0.2,0.9-0.6,1.6-1.2,2.1c-0.6,0.5-1.4,0.7-2.4,0.7c-1.1,0-2-0.4-2.7-1.1c-0.7-0.7-1-1.7-1-3c0-1.3,0.3-2.3,1-3
			c0.7-0.7,1.6-1.1,2.8-1.1c0.9,0,1.7,0.2,2.3,0.6C265.8-133,266.2-132.3,266.5-131.5z"/>
		<path fill="#4D4D4F" d="M268-126v-10.7h2.1v10.7L268-126L268-126z"/>
		<path fill="#4D4D4F" d="M272.2-134.9v-1.9h2.1v1.9H272.2z M272.2-126v-7.8h2.1v7.8H272.2z"/>
		<path fill="#4D4D4F" d="M283.4-126h-2.1v-4c0-0.8,0-1.4-0.1-1.6c-0.1-0.2-0.2-0.4-0.4-0.6c-0.2-0.1-0.4-0.2-0.7-0.2
			c-0.4,0-0.7,0.1-1,0.3c-0.3,0.2-0.5,0.5-0.6,0.8c-0.1,0.3-0.2,0.9-0.2,1.8v3.5h-2.1v-7.8h1.9v1.1c0.7-0.9,1.5-1.3,2.6-1.3
			c0.5,0,0.9,0.1,1.2,0.2c0.4,0.2,0.7,0.4,0.9,0.6c0.2,0.3,0.3,0.5,0.4,0.9c0.1,0.3,0.1,0.8,0.1,1.4L283.4-126L283.4-126z"/>
		<path fill="#4D4D4F" d="M285.5-134.9v-1.9h2.1v1.9H285.5z M285.5-126v-7.8h2.1v7.8H285.5z"/>
		<path fill="#4D4D4F" d="M296.5-131.5l-2,0.4c-0.1-0.4-0.2-0.7-0.5-0.9c-0.2-0.2-0.6-0.3-0.9-0.3c-0.5,0-0.9,0.2-1.2,0.5
			c-0.3,0.4-0.5,0.9-0.5,1.8c0,0.9,0.2,1.6,0.5,2c0.3,0.4,0.7,0.6,1.2,0.6c0.4,0,0.7-0.1,1-0.3c0.2-0.2,0.4-0.6,0.5-1.1l2,0.3
			c-0.2,0.9-0.6,1.6-1.2,2.1c-0.6,0.5-1.4,0.7-2.4,0.7c-1.1,0-2-0.4-2.7-1.1c-0.7-0.7-1-1.7-1-3c0-1.3,0.3-2.3,1-3
			c0.7-0.7,1.6-1.1,2.8-1.1c0.9,0,1.7,0.2,2.3,0.6C295.8-133,296.2-132.3,296.5-131.5z"/>
		<path fill="#4D4D4F" d="M299.6-131.4l-1.9-0.3c0.2-0.8,0.6-1.3,1.1-1.7s1.3-0.5,2.3-0.5c0.9,0,1.6,0.1,2.1,0.3
			c0.4,0.2,0.8,0.5,0.9,0.8c0.2,0.3,0.3,0.9,0.3,1.8l0,2.4c0,0.7,0,1.2,0.1,1.5c0.1,0.3,0.2,0.7,0.4,1h-2c-0.1-0.1-0.1-0.3-0.2-0.6
			c0-0.1-0.1-0.2-0.1-0.2c-0.4,0.3-0.7,0.6-1.1,0.8c-0.4,0.2-0.8,0.3-1.3,0.3c-0.8,0-1.4-0.2-1.9-0.7c-0.5-0.4-0.7-1-0.7-1.6
			c0-0.4,0.1-0.8,0.3-1.2c0.2-0.3,0.5-0.6,0.9-0.8c0.4-0.2,0.9-0.3,1.6-0.5c1-0.2,1.6-0.4,2-0.5v-0.2c0-0.4-0.1-0.7-0.3-0.8
			c-0.2-0.2-0.6-0.3-1.1-0.3c-0.4,0-0.7,0.1-0.9,0.2C299.9-132,299.7-131.8,299.6-131.4z M302.3-129.8c-0.3,0.1-0.7,0.2-1.3,0.3
			s-0.9,0.2-1.1,0.4c-0.3,0.2-0.4,0.4-0.4,0.7c0,0.3,0.1,0.5,0.3,0.7c0.2,0.2,0.5,0.3,0.8,0.3c0.4,0,0.7-0.1,1.1-0.4
			c0.2-0.2,0.4-0.4,0.5-0.7c0.1-0.2,0.1-0.5,0.1-1L302.3-129.8L302.3-129.8z"/>
		<path fill="#4D4D4F" d="M306.4-126v-10.7h2.1v10.7L306.4-126L306.4-126z"/>
		<path fill="#4D4D4F" d="M310.5-126v-10.7h2.1v10.7L310.5-126L310.5-126z"/>
		<path fill="#4D4D4F" d="M313.7-133.8h2.2l1.9,5.5l1.8-5.5h2.1l-2.7,7.5l-0.5,1.4c-0.2,0.5-0.4,0.8-0.5,1c-0.2,0.2-0.4,0.4-0.6,0.6
			c-0.2,0.1-0.5,0.3-0.8,0.3c-0.3,0.1-0.7,0.1-1.1,0.1c-0.4,0-0.8,0-1.2-0.1l-0.2-1.6c0.3,0.1,0.6,0.1,0.9,0.1
			c0.5,0,0.8-0.1,1.1-0.4c0.2-0.3,0.4-0.6,0.5-1.1L313.7-133.8z"/>
	</g>
	<g enable-background="new    ">
		<path fill="#4D4D4F" d="M78.7-113.8h1.9v1.1c0.7-0.8,1.5-1.2,2.4-1.2c0.5,0,0.9,0.1,1.3,0.3c0.4,0.2,0.7,0.5,0.9,0.9
			c0.3-0.4,0.7-0.7,1.1-0.9c0.4-0.2,0.8-0.3,1.3-0.3c0.6,0,1.1,0.1,1.4,0.3c0.4,0.2,0.7,0.6,0.9,1c0.1,0.3,0.2,0.9,0.2,1.6v5H88
			v-4.4c0-0.8-0.1-1.3-0.2-1.5c-0.2-0.3-0.5-0.4-0.9-0.4c-0.3,0-0.6,0.1-0.8,0.3c-0.3,0.2-0.4,0.4-0.5,0.8c-0.1,0.3-0.2,0.9-0.2,1.6
			v3.7h-2.1v-4.3c0-0.8,0-1.2-0.1-1.5c-0.1-0.2-0.2-0.4-0.3-0.5c-0.2-0.1-0.4-0.2-0.6-0.2c-0.3,0-0.6,0.1-0.9,0.3
			c-0.3,0.2-0.4,0.4-0.5,0.7s-0.2,0.9-0.2,1.6v3.8h-2.1L78.7-113.8L78.7-113.8z"/>
		<path fill="#4D4D4F" d="M96.7-108.5l2.1,0.3c-0.3,0.8-0.7,1.3-1.2,1.7c-0.6,0.4-1.3,0.6-2.1,0.6c-1.4,0-2.4-0.4-3-1.3
			c-0.5-0.7-0.8-1.6-0.8-2.7c0-1.3,0.3-2.3,1-3s1.5-1.1,2.6-1.1c1.2,0,2.1,0.4,2.7,1.1c0.7,0.8,1,1.9,1,3.5h-5.2
			c0,0.6,0.2,1.1,0.5,1.4c0.3,0.3,0.7,0.5,1.2,0.5c0.3,0,0.6-0.1,0.8-0.3C96.4-107.8,96.6-108.1,96.7-108.5z M96.8-110.6
			c0-0.6-0.2-1-0.5-1.4c-0.3-0.3-0.6-0.5-1.1-0.5c-0.4,0-0.8,0.2-1.1,0.5s-0.4,0.8-0.4,1.3H96.8z"/>
		<path fill="#4D4D4F" d="M102-111.4l-1.9-0.3c0.2-0.8,0.6-1.3,1.1-1.7s1.3-0.5,2.3-0.5c0.9,0,1.6,0.1,2.1,0.3
			c0.4,0.2,0.8,0.5,0.9,0.8c0.2,0.3,0.3,0.9,0.3,1.8l0,2.4c0,0.7,0,1.2,0.1,1.5c0.1,0.3,0.2,0.7,0.4,1h-2c-0.1-0.1-0.1-0.3-0.2-0.6
			c0-0.1-0.1-0.2-0.1-0.2c-0.4,0.3-0.7,0.6-1.1,0.8c-0.4,0.2-0.8,0.3-1.3,0.3c-0.8,0-1.4-0.2-1.9-0.7c-0.5-0.4-0.7-1-0.7-1.6
			c0-0.4,0.1-0.8,0.3-1.2c0.2-0.3,0.5-0.6,0.9-0.8c0.4-0.2,0.9-0.3,1.6-0.5c1-0.2,1.6-0.4,2-0.5v-0.2c0-0.4-0.1-0.7-0.3-0.8
			c-0.2-0.2-0.6-0.3-1.1-0.3c-0.4,0-0.7,0.1-0.9,0.2C102.3-112,102.2-111.8,102-111.4z M104.8-109.8c-0.3,0.1-0.7,0.2-1.3,0.3
			c-0.6,0.1-0.9,0.2-1.1,0.4c-0.3,0.2-0.4,0.4-0.4,0.7c0,0.3,0.1,0.5,0.3,0.7c0.2,0.2,0.5,0.3,0.8,0.3c0.4,0,0.7-0.1,1.1-0.4
			c0.2-0.2,0.4-0.4,0.5-0.7c0.1-0.2,0.1-0.5,0.1-1L104.8-109.8L104.8-109.8z"/>
		<path fill="#4D4D4F" d="M115.9-106h-2.1v-4c0-0.8,0-1.4-0.1-1.6c-0.1-0.2-0.2-0.4-0.4-0.6c-0.2-0.1-0.4-0.2-0.7-0.2
			c-0.4,0-0.7,0.1-1,0.3c-0.3,0.2-0.5,0.5-0.6,0.8c-0.1,0.3-0.2,0.9-0.2,1.8v3.5h-2.1v-7.8h1.9v1.1c0.7-0.9,1.5-1.3,2.6-1.3
			c0.5,0,0.9,0.1,1.2,0.2c0.4,0.2,0.7,0.4,0.9,0.6c0.2,0.3,0.3,0.5,0.4,0.9c0.1,0.3,0.1,0.8,0.1,1.4L115.9-106L115.9-106L115.9-106z
			"/>
		<path fill="#4D4D4F" d="M118-114.9v-1.9h2.1v1.9H118z M118-106v-7.8h2.1v7.8L118-106L118-106z"/>
		<path fill="#4D4D4F" d="M129.2-106h-2.1v-4c0-0.8,0-1.4-0.1-1.6c-0.1-0.2-0.2-0.4-0.4-0.6c-0.2-0.1-0.4-0.2-0.7-0.2
			c-0.4,0-0.7,0.1-1,0.3c-0.3,0.2-0.5,0.5-0.6,0.8c-0.1,0.3-0.2,0.9-0.2,1.8v3.5h-2.1v-7.8h1.9v1.1c0.7-0.9,1.5-1.3,2.6-1.3
			c0.5,0,0.9,0.1,1.2,0.2c0.4,0.2,0.7,0.4,0.9,0.6c0.2,0.3,0.3,0.5,0.4,0.9s0.1,0.8,0.1,1.4L129.2-106L129.2-106L129.2-106z"/>
		<path fill="#4D4D4F" d="M131.1-105.5l2.4,0.3c0,0.3,0.1,0.5,0.3,0.6c0.2,0.1,0.5,0.2,0.9,0.2c0.5,0,0.9-0.1,1.2-0.2
			c0.2-0.1,0.3-0.3,0.4-0.5c0.1-0.2,0.1-0.5,0.1-0.9v-1.1c-0.6,0.8-1.4,1.3-2.3,1.3c-1,0-1.9-0.4-2.5-1.3c-0.5-0.7-0.7-1.6-0.7-2.6
			c0-1.3,0.3-2.3,0.9-3c0.6-0.7,1.4-1,2.3-1c1,0,1.8,0.4,2.4,1.3v-1.1h1.9v7c0,0.9-0.1,1.6-0.2,2.1c-0.1,0.5-0.4,0.8-0.6,1.1
			c-0.3,0.3-0.6,0.5-1.1,0.6c-0.5,0.1-1,0.2-1.7,0.2c-1.3,0-2.3-0.2-2.8-0.7c-0.6-0.5-0.8-1-0.8-1.7
			C131.1-105.3,131.1-105.4,131.1-105.5z M133-110.1c0,0.8,0.2,1.4,0.5,1.8c0.3,0.4,0.7,0.6,1.2,0.6c0.5,0,0.9-0.2,1.3-0.6
			c0.3-0.4,0.5-1,0.5-1.7c0-0.8-0.2-1.4-0.5-1.8s-0.8-0.6-1.3-0.6c-0.5,0-0.9,0.2-1.2,0.6C133.1-111.4,133-110.9,133-110.1z"/>
		<path fill="#4D4D4F" d="M139.6-113.8h1.1v-0.6c0-0.7,0.1-1.1,0.2-1.5c0.1-0.3,0.4-0.6,0.8-0.8c0.4-0.2,0.8-0.3,1.4-0.3
			c0.6,0,1.2,0.1,1.7,0.3l-0.3,1.4c-0.3-0.1-0.6-0.1-0.9-0.1c-0.3,0-0.5,0.1-0.6,0.2c-0.1,0.1-0.2,0.4-0.2,0.8v0.5h1.5v1.6h-1.5v6.2
			h-2.1v-6.2h-1.1L139.6-113.8L139.6-113.8z"/>
		<path fill="#4D4D4F" d="M150.6-106v-1.2c-0.3,0.4-0.7,0.7-1.1,1c-0.5,0.2-0.9,0.4-1.5,0.4c-0.5,0-1-0.1-1.4-0.3
			c-0.4-0.2-0.7-0.6-0.9-1c-0.2-0.4-0.3-1-0.3-1.7v-4.9h2.1v3.6c0,1.1,0,1.8,0.1,2c0.1,0.2,0.2,0.4,0.4,0.6c0.2,0.1,0.5,0.2,0.8,0.2
			c0.4,0,0.7-0.1,0.9-0.3c0.3-0.2,0.5-0.4,0.6-0.7c0.1-0.3,0.2-1,0.2-2.1v-3.3h2.1v7.8L150.6-106L150.6-106L150.6-106z"/>
		<path fill="#4D4D4F" d="M154.7-106v-10.7h2.1v10.7H154.7z"/>
		<path fill="#4D4D4F" d="M167.8-106h-2.1v-7.8c-0.8,0.7-1.6,1.2-2.7,1.6v-1.9c0.5-0.2,1.1-0.5,1.8-1c0.6-0.5,1.1-1.1,1.3-1.7h1.7
			V-106z"/>
		<path fill="#4D4D4F" d="M171.1-108.9v-2.1h4v2.1H171.1z"/>
		<path fill="#4D4D4F" d="M182-111.4l-1.9-0.3c0.2-0.8,0.6-1.3,1.1-1.7s1.3-0.5,2.3-0.5c0.9,0,1.6,0.1,2.1,0.3
			c0.4,0.2,0.8,0.5,0.9,0.8c0.2,0.3,0.3,0.9,0.3,1.8l0,2.4c0,0.7,0,1.2,0.1,1.5c0.1,0.3,0.2,0.7,0.4,1h-2c-0.1-0.1-0.1-0.3-0.2-0.6
			c0-0.1-0.1-0.2-0.1-0.2c-0.4,0.3-0.7,0.6-1.1,0.8c-0.4,0.2-0.8,0.3-1.3,0.3c-0.8,0-1.4-0.2-1.9-0.7c-0.5-0.4-0.7-1-0.7-1.6
			c0-0.4,0.1-0.8,0.3-1.2c0.2-0.3,0.5-0.6,0.9-0.8c0.4-0.2,0.9-0.3,1.6-0.5c1-0.2,1.6-0.4,2-0.5v-0.2c0-0.4-0.1-0.7-0.3-0.8
			c-0.2-0.2-0.6-0.3-1.1-0.3c-0.4,0-0.7,0.1-0.9,0.2C182.3-112,182.2-111.8,182-111.4z M184.8-109.8c-0.3,0.1-0.7,0.2-1.3,0.3
			s-0.9,0.2-1.1,0.4c-0.3,0.2-0.4,0.4-0.4,0.7c0,0.3,0.1,0.5,0.3,0.7c0.2,0.2,0.5,0.3,0.8,0.3c0.4,0,0.7-0.1,1.1-0.4
			c0.2-0.2,0.4-0.4,0.5-0.7c0.1-0.2,0.1-0.5,0.1-1L184.8-109.8L184.8-109.8z"/>
		<path fill="#4D4D4F" d="M195.9-106h-2.1v-4c0-0.8,0-1.4-0.1-1.6c-0.1-0.2-0.2-0.4-0.4-0.6c-0.2-0.1-0.4-0.2-0.7-0.2
			c-0.4,0-0.7,0.1-1,0.3c-0.3,0.2-0.5,0.5-0.6,0.8c-0.1,0.3-0.2,0.9-0.2,1.8v3.5h-2.1v-7.8h1.9v1.1c0.7-0.9,1.5-1.3,2.6-1.3
			c0.5,0,0.9,0.1,1.2,0.2c0.4,0.2,0.7,0.4,0.9,0.6c0.2,0.3,0.3,0.5,0.4,0.9s0.1,0.8,0.1,1.4L195.9-106L195.9-106L195.9-106z"/>
		<path fill="#4D4D4F" d="M205.1-106h-1.9v-1.1c-0.3,0.4-0.7,0.8-1.1,1c-0.4,0.2-0.9,0.3-1.3,0.3c-0.9,0-1.7-0.4-2.3-1.1
			c-0.6-0.7-1-1.7-1-3c0-1.3,0.3-2.3,0.9-3c0.6-0.7,1.4-1,2.4-1c0.9,0,1.6,0.4,2.3,1.1v-3.9h2.1L205.1-106L205.1-106z M199.6-110.1
			c0,0.8,0.1,1.4,0.3,1.8c0.3,0.5,0.8,0.8,1.4,0.8c0.5,0,0.9-0.2,1.2-0.6c0.3-0.4,0.5-1,0.5-1.8c0-0.9-0.2-1.5-0.5-1.9
			c-0.3-0.4-0.7-0.6-1.2-0.6c-0.5,0-0.9,0.2-1.2,0.6C199.8-111.4,199.6-110.9,199.6-110.1z"/>
		<path fill="#4D4D4F" d="M217.8-107.9v1.9h-7.2c0.1-0.7,0.3-1.4,0.7-2.1c0.4-0.6,1.2-1.5,2.3-2.6c0.9-0.9,1.5-1.5,1.7-1.8
			c0.3-0.4,0.4-0.8,0.4-1.3c0-0.5-0.1-0.8-0.4-1.1c-0.2-0.2-0.6-0.4-1-0.4c-0.4,0-0.8,0.1-1,0.4s-0.4,0.7-0.4,1.3l-2.1-0.2
			c0.1-1.1,0.5-1.9,1.1-2.4c0.6-0.5,1.4-0.7,2.4-0.7c1.1,0,1.9,0.3,2.5,0.9c0.6,0.6,0.9,1.3,0.9,2.1c0,0.5-0.1,0.9-0.3,1.4
			c-0.2,0.4-0.4,0.9-0.8,1.4c-0.2,0.3-0.7,0.8-1.3,1.4c-0.6,0.6-1.1,1-1.2,1.2c-0.2,0.2-0.3,0.4-0.4,0.6L217.8-107.9L217.8-107.9z"
			/>
		<path fill="#4D4D4F" d="M219.4-108.9v-2.1h4v2.1H219.4z"/>
		<path fill="#4D4D4F" d="M223.7-113.8h2.2l1.9,5.5l1.8-5.5h2.1l-2.7,7.5l-0.5,1.4c-0.2,0.5-0.4,0.8-0.5,1c-0.2,0.2-0.4,0.4-0.6,0.6
			c-0.2,0.1-0.5,0.3-0.8,0.3c-0.3,0.1-0.7,0.1-1.1,0.1c-0.4,0-0.8,0-1.2-0.1l-0.2-1.6c0.3,0.1,0.6,0.1,0.9,0.1
			c0.5,0,0.8-0.1,1.1-0.4c0.2-0.3,0.4-0.6,0.5-1.1L223.7-113.8z"/>
		<path fill="#4D4D4F" d="M237.5-108.5l2.1,0.3c-0.3,0.8-0.7,1.3-1.2,1.7c-0.6,0.4-1.3,0.6-2.1,0.6c-1.4,0-2.4-0.4-3-1.3
			c-0.5-0.7-0.8-1.6-0.8-2.7c0-1.3,0.3-2.3,1-3c0.7-0.7,1.5-1.1,2.6-1.1c1.2,0,2.1,0.4,2.7,1.1c0.7,0.8,1,1.9,1,3.5h-5.2
			c0,0.6,0.2,1.1,0.5,1.4c0.3,0.3,0.7,0.5,1.2,0.5c0.3,0,0.6-0.1,0.8-0.3C237.2-107.8,237.4-108.1,237.5-108.5z M237.6-110.6
			c0-0.6-0.2-1-0.5-1.4c-0.3-0.3-0.6-0.5-1.1-0.5c-0.4,0-0.8,0.2-1.1,0.5s-0.4,0.8-0.4,1.3H237.6z"/>
		<path fill="#4D4D4F" d="M242.9-111.4l-1.9-0.3c0.2-0.8,0.6-1.3,1.1-1.7c0.5-0.4,1.3-0.5,2.3-0.5c0.9,0,1.6,0.1,2.1,0.3
			c0.4,0.2,0.8,0.5,0.9,0.8c0.2,0.3,0.3,0.9,0.3,1.8l0,2.4c0,0.7,0,1.2,0.1,1.5c0.1,0.3,0.2,0.7,0.4,1h-2c-0.1-0.1-0.1-0.3-0.2-0.6
			c0-0.1-0.1-0.2-0.1-0.2c-0.4,0.3-0.7,0.6-1.1,0.8c-0.4,0.2-0.8,0.3-1.3,0.3c-0.8,0-1.4-0.2-1.9-0.7c-0.5-0.4-0.7-1-0.7-1.6
			c0-0.4,0.1-0.8,0.3-1.2c0.2-0.3,0.5-0.6,0.9-0.8c0.4-0.2,0.9-0.3,1.6-0.5c1-0.2,1.6-0.4,2-0.5v-0.2c0-0.4-0.1-0.7-0.3-0.8
			c-0.2-0.2-0.6-0.3-1.1-0.3c-0.4,0-0.7,0.1-0.9,0.2C243.2-112,243-111.8,242.9-111.4z M245.6-109.8c-0.3,0.1-0.7,0.2-1.3,0.3
			c-0.6,0.1-0.9,0.2-1.1,0.4c-0.3,0.2-0.4,0.4-0.4,0.7c0,0.3,0.1,0.5,0.3,0.7c0.2,0.2,0.5,0.3,0.8,0.3c0.4,0,0.7-0.1,1.1-0.4
			c0.2-0.2,0.4-0.4,0.5-0.7c0.1-0.2,0.1-0.5,0.1-1L245.6-109.8L245.6-109.8z"/>
		<path fill="#4D4D4F" d="M251.7-106h-2.1v-7.8h1.9v1.1c0.3-0.5,0.6-0.9,0.9-1c0.3-0.2,0.6-0.2,0.9-0.2c0.5,0,0.9,0.1,1.4,0.4
			l-0.6,1.8c-0.3-0.2-0.7-0.3-1-0.3c-0.3,0-0.5,0.1-0.7,0.2c-0.2,0.2-0.4,0.4-0.5,0.9c-0.1,0.4-0.2,1.3-0.2,2.6L251.7-106L251.7-106
			z"/>
		<path fill="#4D4D4F" d="M259-108.2l2.1-0.3c0.1,0.4,0.3,0.7,0.5,0.9c0.3,0.2,0.6,0.3,1.1,0.3c0.5,0,0.9-0.1,1.2-0.3
			c0.2-0.1,0.3-0.3,0.3-0.5c0-0.2-0.1-0.3-0.1-0.4c-0.1-0.1-0.3-0.2-0.7-0.3c-1.7-0.4-2.7-0.7-3.2-1c-0.6-0.4-0.9-1-0.9-1.8
			c0-0.7,0.3-1.2,0.8-1.7c0.5-0.5,1.4-0.7,2.5-0.7c1.1,0,1.9,0.2,2.4,0.5c0.5,0.3,0.9,0.9,1.1,1.5l-1.9,0.4
			c-0.1-0.3-0.2-0.5-0.5-0.7c-0.2-0.2-0.6-0.2-1-0.2c-0.5,0-0.9,0.1-1.2,0.2c-0.2,0.1-0.2,0.2-0.2,0.4c0,0.1,0.1,0.3,0.2,0.4
			c0.2,0.1,0.8,0.3,1.9,0.6c1.1,0.2,1.9,0.6,2.3,0.9c0.4,0.4,0.6,0.9,0.6,1.5c0,0.7-0.3,1.3-0.9,1.8c-0.6,0.5-1.5,0.8-2.6,0.8
			c-1.1,0-1.9-0.2-2.5-0.6C259.6-106.9,259.2-107.5,259-108.2z"/>
		<path fill="#4D4D4F" d="M273.2-106v-1.2c-0.3,0.4-0.7,0.7-1.1,1c-0.5,0.2-0.9,0.4-1.5,0.4c-0.5,0-1-0.1-1.4-0.3
			c-0.4-0.2-0.7-0.6-0.9-1s-0.3-1-0.3-1.7v-4.9h2.1v3.6c0,1.1,0,1.8,0.1,2c0.1,0.2,0.2,0.4,0.4,0.6c0.2,0.1,0.5,0.2,0.8,0.2
			c0.4,0,0.7-0.1,0.9-0.3c0.3-0.2,0.5-0.4,0.6-0.7c0.1-0.3,0.2-1,0.2-2.1v-3.3h2.1v7.8L273.2-106L273.2-106L273.2-106z"/>
		<path fill="#4D4D4F" d="M279.2-106h-2.1v-7.8h1.9v1.1c0.3-0.5,0.6-0.9,0.9-1c0.3-0.2,0.6-0.2,0.9-0.2c0.5,0,0.9,0.1,1.4,0.4
			l-0.6,1.8c-0.3-0.2-0.7-0.3-1-0.3c-0.3,0-0.5,0.1-0.7,0.2c-0.2,0.2-0.4,0.4-0.5,0.9c-0.1,0.4-0.2,1.3-0.2,2.6L279.2-106L279.2-106
			z"/>
		<path fill="#4D4D4F" d="M285.2-106l-3.1-7.8h2.2l1.5,4l0.4,1.3c0.1-0.3,0.2-0.6,0.2-0.7c0.1-0.2,0.1-0.4,0.2-0.7l1.5-4h2.1
			L287-106L285.2-106L285.2-106z"/>
		<path fill="#4D4D4F" d="M291.4-114.9v-1.9h2.1v1.9H291.4z M291.4-106v-7.8h2.1v7.8L291.4-106L291.4-106z"/>
		<path fill="#4D4D4F" d="M297.7-106l-3.1-7.8h2.2l1.5,4l0.4,1.3c0.1-0.3,0.2-0.6,0.2-0.7c0.1-0.2,0.1-0.4,0.2-0.7l1.5-4h2.1
			l-3.1,7.8L297.7-106L297.7-106z"/>
		<path fill="#4D4D4F" d="M305.4-111.4l-1.9-0.3c0.2-0.8,0.6-1.3,1.1-1.7c0.5-0.4,1.3-0.5,2.3-0.5c0.9,0,1.6,0.1,2.1,0.3
			c0.4,0.2,0.8,0.5,0.9,0.8c0.2,0.3,0.3,0.9,0.3,1.8l0,2.4c0,0.7,0,1.2,0.1,1.5c0.1,0.3,0.2,0.7,0.4,1h-2c-0.1-0.1-0.1-0.3-0.2-0.6
			c0-0.1-0.1-0.2-0.1-0.2c-0.4,0.3-0.7,0.6-1.1,0.8c-0.4,0.2-0.8,0.3-1.3,0.3c-0.8,0-1.4-0.2-1.9-0.7c-0.5-0.4-0.7-1-0.7-1.6
			c0-0.4,0.1-0.8,0.3-1.2c0.2-0.3,0.5-0.6,0.9-0.8c0.4-0.2,0.9-0.3,1.6-0.5c1-0.2,1.6-0.4,2-0.5v-0.2c0-0.4-0.1-0.7-0.3-0.8
			c-0.2-0.2-0.6-0.3-1.1-0.3c-0.4,0-0.7,0.1-0.9,0.2C305.7-112,305.6-111.8,305.4-111.4z M308.2-109.8c-0.3,0.1-0.7,0.2-1.3,0.3
			c-0.6,0.1-0.9,0.2-1.1,0.4c-0.3,0.2-0.4,0.4-0.4,0.7c0,0.3,0.1,0.5,0.3,0.7c0.2,0.2,0.5,0.3,0.8,0.3c0.4,0,0.7-0.1,1.1-0.4
			c0.2-0.2,0.4-0.4,0.5-0.7c0.1-0.2,0.1-0.5,0.1-1L308.2-109.8L308.2-109.8z"/>
		<path fill="#4D4D4F" d="M312.2-106v-10.7h2.1v10.7H312.2z"/>
		<path fill="#4D4D4F" d="M322.5-106h-2.1v-7.8h1.9v1.1c0.3-0.5,0.6-0.9,0.9-1c0.3-0.2,0.6-0.2,0.9-0.2c0.5,0,0.9,0.1,1.4,0.4
			l-0.6,1.8c-0.3-0.2-0.7-0.3-1-0.3c-0.3,0-0.5,0.1-0.7,0.2c-0.2,0.2-0.4,0.4-0.5,0.9c-0.1,0.4-0.2,1.3-0.2,2.6L322.5-106L322.5-106
			z"/>
		<path fill="#4D4D4F" d="M327.9-111.4l-1.9-0.3c0.2-0.8,0.6-1.3,1.1-1.7c0.5-0.4,1.3-0.5,2.3-0.5c0.9,0,1.6,0.1,2.1,0.3
			c0.4,0.2,0.8,0.5,0.9,0.8c0.2,0.3,0.3,0.9,0.3,1.8l0,2.4c0,0.7,0,1.2,0.1,1.5c0.1,0.3,0.2,0.7,0.4,1h-2c-0.1-0.1-0.1-0.3-0.2-0.6
			c0-0.1-0.1-0.2-0.1-0.2c-0.4,0.3-0.7,0.6-1.1,0.8c-0.4,0.2-0.8,0.3-1.3,0.3c-0.8,0-1.4-0.2-1.9-0.7c-0.5-0.4-0.7-1-0.7-1.6
			c0-0.4,0.1-0.8,0.3-1.2c0.2-0.3,0.5-0.6,0.9-0.8c0.4-0.2,0.9-0.3,1.6-0.5c1-0.2,1.6-0.4,2-0.5v-0.2c0-0.4-0.1-0.7-0.3-0.8
			c-0.2-0.2-0.6-0.3-1.1-0.3c-0.4,0-0.7,0.1-0.9,0.2C328.2-112,328.1-111.8,327.9-111.4z M330.7-109.8c-0.3,0.1-0.7,0.2-1.3,0.3
			c-0.6,0.1-0.9,0.2-1.1,0.4c-0.3,0.2-0.4,0.4-0.4,0.7c0,0.3,0.1,0.5,0.3,0.7c0.2,0.2,0.5,0.3,0.8,0.3c0.4,0,0.7-0.1,1.1-0.4
			c0.2-0.2,0.4-0.4,0.5-0.7c0.1-0.2,0.1-0.5,0.1-1L330.7-109.8L330.7-109.8L330.7-109.8z"/>
		<path fill="#4D4D4F" d="M338.3-113.8v1.6h-1.4v3.1c0,0.6,0,1,0,1.1c0,0.1,0.1,0.2,0.2,0.3c0.1,0.1,0.2,0.1,0.3,0.1
			c0.2,0,0.5-0.1,0.8-0.2l0.2,1.6c-0.5,0.2-1,0.3-1.6,0.3c-0.4,0-0.7-0.1-1-0.2c-0.3-0.1-0.5-0.3-0.7-0.5c-0.1-0.2-0.2-0.5-0.3-0.8
			c0-0.2-0.1-0.7-0.1-1.4v-3.4h-0.9v-1.6h0.9v-1.5l2.1-1.2v2.7L338.3-113.8L338.3-113.8z"/>
		<path fill="#4D4D4F" d="M344.2-108.5l2.1,0.3c-0.3,0.8-0.7,1.3-1.2,1.7c-0.6,0.4-1.3,0.6-2.1,0.6c-1.4,0-2.4-0.4-3-1.3
			c-0.5-0.7-0.8-1.6-0.8-2.7c0-1.3,0.3-2.3,1-3s1.5-1.1,2.6-1.1c1.2,0,2.1,0.4,2.7,1.1c0.7,0.8,1,1.9,1,3.5h-5.2
			c0,0.6,0.2,1.1,0.5,1.4c0.3,0.3,0.7,0.5,1.2,0.5c0.3,0,0.6-0.1,0.8-0.3C344-107.8,344.1-108.1,344.2-108.5z M344.4-110.6
			c0-0.6-0.2-1-0.5-1.4c-0.3-0.3-0.6-0.5-1.1-0.5c-0.4,0-0.8,0.2-1.1,0.5s-0.4,0.8-0.4,1.3H344.4z"/>
		<path fill="#4D4D4F" d="M347.4-108.2l2.1-0.3c0.1,0.4,0.3,0.7,0.5,0.9c0.3,0.2,0.6,0.3,1.1,0.3c0.5,0,0.9-0.1,1.2-0.3
			c0.2-0.1,0.3-0.3,0.3-0.5c0-0.2,0-0.3-0.1-0.4c-0.1-0.1-0.3-0.2-0.7-0.3c-1.7-0.4-2.7-0.7-3.2-1c-0.6-0.4-0.9-1-0.9-1.8
			c0-0.7,0.3-1.2,0.8-1.7c0.5-0.5,1.4-0.7,2.5-0.7c1.1,0,1.9,0.2,2.4,0.5s0.9,0.9,1.1,1.5l-1.9,0.4c-0.1-0.3-0.2-0.5-0.5-0.7
			c-0.2-0.2-0.6-0.2-1-0.2c-0.5,0-0.9,0.1-1.2,0.2c-0.2,0.1-0.2,0.2-0.2,0.4c0,0.1,0.1,0.3,0.2,0.4c0.2,0.1,0.8,0.3,1.9,0.6
			c1.1,0.2,1.9,0.6,2.3,0.9c0.4,0.4,0.6,0.9,0.6,1.5c0,0.7-0.3,1.3-0.9,1.8c-0.6,0.5-1.5,0.8-2.6,0.8c-1.1,0-1.9-0.2-2.5-0.6
			C348-106.9,347.6-107.5,347.4-108.2z"/>
		<path fill="#4D4D4F" d="M356.8-111.7v-2.1h2.1v2.1H356.8z M356.8-106v-2.1h2.1v2.1H356.8z"/>
	</g>
	<g enable-background="new    ">
		<path fill="#4D4D4F" d="M78.4-88.8l1.4-0.1c0.1,0.7,0.3,1.2,0.7,1.5c0.4,0.3,0.8,0.5,1.4,0.5c0.6,0,1.2-0.2,1.6-0.7
			c0.4-0.5,0.7-1.1,0.7-1.9c0-0.8-0.2-1.3-0.6-1.8s-1-0.7-1.7-0.7c-0.4,0-0.8,0.1-1.1,0.3c-0.3,0.2-0.6,0.4-0.8,0.8l-1.2-0.2l1-5.5
			H85v1.3h-4.3l-0.6,2.9c0.6-0.4,1.3-0.7,2-0.7c0.9,0,1.7,0.3,2.4,1s1,1.5,1,2.5c0,1-0.3,1.8-0.9,2.5c-0.7,0.9-1.6,1.3-2.8,1.3
			c-1,0-1.8-0.3-2.4-0.8C78.8-87.2,78.5-87.9,78.4-88.8z"/>
		<path fill="#4D4D4F" d="M93.6-87.3v1.3h-7.1c0-0.3,0-0.6,0.2-0.9c0.2-0.5,0.5-1,0.9-1.4c0.4-0.5,1-1,1.7-1.6c1.2-1,2-1.7,2.4-2.3
			s0.6-1.1,0.6-1.6c0-0.5-0.2-1-0.6-1.3c-0.4-0.4-0.9-0.5-1.5-0.5c-0.6,0-1.1,0.2-1.5,0.6c-0.4,0.4-0.6,0.9-0.6,1.6l-1.4-0.1
			c0.1-1,0.4-1.8,1-2.3c0.6-0.5,1.4-0.8,2.4-0.8c1,0,1.8,0.3,2.4,0.9c0.6,0.6,0.9,1.3,0.9,2.1c0,0.4-0.1,0.9-0.3,1.3
			s-0.5,0.9-0.9,1.3c-0.4,0.5-1.1,1.1-2,1.9c-0.8,0.7-1.3,1.1-1.5,1.4c-0.2,0.2-0.4,0.5-0.6,0.7L93.6-87.3L93.6-87.3z"/>
		<path fill="#4D4D4F" d="M95.3-94.2c0-0.8,0.2-1.4,0.6-2c0.4-0.5,0.9-0.8,1.7-0.8c0.7,0,1.2,0.2,1.7,0.7c0.4,0.5,0.7,1.2,0.7,2.1
			c0,0.9-0.2,1.6-0.7,2.1c-0.4,0.5-1,0.7-1.7,0.7c-0.6,0-1.2-0.2-1.6-0.7C95.5-92.5,95.3-93.2,95.3-94.2z M97.6-96
			c-0.3,0-0.6,0.1-0.8,0.4c-0.2,0.3-0.3,0.8-0.3,1.6c0,0.7,0.1,1.2,0.3,1.5c0.2,0.3,0.5,0.4,0.8,0.4c0.3,0,0.6-0.1,0.8-0.4
			c0.2-0.3,0.3-0.8,0.3-1.6c0-0.7-0.1-1.2-0.3-1.5C98.2-95.9,97.9-96,97.6-96z M97.6-85.6l5.9-11.3h1.1l-5.9,11.3H97.6z M102.2-88.5
			c0-0.8,0.2-1.4,0.6-2c0.4-0.5,0.9-0.8,1.7-0.8c0.7,0,1.2,0.2,1.7,0.7c0.4,0.5,0.7,1.2,0.7,2.1c0,0.9-0.2,1.6-0.7,2.1
			s-1,0.7-1.7,0.7c-0.6,0-1.2-0.2-1.6-0.7C102.5-86.8,102.2-87.6,102.2-88.5z M104.5-90.4c-0.3,0-0.6,0.1-0.8,0.4
			c-0.2,0.3-0.3,0.8-0.3,1.6c0,0.7,0.1,1.2,0.3,1.5c0.2,0.3,0.5,0.4,0.8,0.4c0.3,0,0.6-0.1,0.8-0.4c0.2-0.3,0.3-0.8,0.3-1.6
			c0-0.7-0.1-1.2-0.3-1.5C105.1-90.3,104.9-90.4,104.5-90.4z"/>
		<path fill="#4D4D4F" d="M118-87c-0.5,0.4-1,0.7-1.4,0.9c-0.5,0.2-0.9,0.3-1.5,0.3c-0.9,0-1.5-0.2-2-0.6c-0.5-0.4-0.7-1-0.7-1.6
			c0-0.4,0.1-0.7,0.3-1c0.2-0.3,0.4-0.6,0.7-0.8c0.3-0.2,0.6-0.3,0.9-0.4c0.3-0.1,0.7-0.1,1.2-0.2c1.1-0.1,1.8-0.3,2.4-0.5
			c0-0.2,0-0.3,0-0.3c0-0.5-0.1-0.9-0.4-1.1c-0.3-0.3-0.8-0.4-1.5-0.4c-0.6,0-1.1,0.1-1.4,0.3c-0.3,0.2-0.5,0.6-0.7,1.2l-1.3-0.2
			c0.1-0.6,0.3-1,0.6-1.3c0.3-0.3,0.7-0.6,1.2-0.8c0.5-0.2,1.1-0.3,1.8-0.3c0.7,0,1.2,0.1,1.6,0.2c0.4,0.2,0.7,0.4,0.9,0.6
			c0.2,0.2,0.3,0.5,0.4,0.9c0,0.2,0.1,0.6,0.1,1.2v1.8c0,1.2,0,2,0.1,2.3c0.1,0.3,0.2,0.6,0.3,0.9h-1.4C118.1-86.3,118-86.6,118-87z
			 M117.9-89.9c-0.5,0.2-1.2,0.4-2.2,0.5c-0.5,0.1-0.9,0.2-1.1,0.3c-0.2,0.1-0.4,0.2-0.5,0.4c-0.1,0.2-0.2,0.4-0.2,0.6
			c0,0.4,0.1,0.6,0.4,0.9c0.3,0.2,0.7,0.4,1.2,0.4c0.5,0,1-0.1,1.4-0.3c0.4-0.2,0.7-0.5,0.9-0.9c0.1-0.3,0.2-0.7,0.2-1.3L117.9-89.9
			L117.9-89.9z"/>
		<path fill="#4D4D4F" d="M121.3-86v-7.8h1.2v1.1c0.6-0.9,1.4-1.3,2.5-1.3c0.5,0,0.9,0.1,1.3,0.3c0.4,0.2,0.7,0.4,0.9,0.7
			c0.2,0.3,0.3,0.6,0.4,1c0,0.2,0.1,0.7,0.1,1.3v4.8h-1.3v-4.7c0-0.5-0.1-0.9-0.2-1.2c-0.1-0.3-0.3-0.5-0.5-0.6
			c-0.3-0.2-0.6-0.2-0.9-0.2c-0.6,0-1,0.2-1.5,0.5c-0.4,0.4-0.6,1-0.6,2v4.2L121.3-86L121.3-86z"/>
		<path fill="#4D4D4F" d="M134.7-86v-1c-0.5,0.8-1.2,1.2-2.2,1.2c-0.6,0-1.2-0.2-1.7-0.5c-0.5-0.3-0.9-0.8-1.2-1.4
			c-0.3-0.6-0.4-1.3-0.4-2.1c0-0.8,0.1-1.5,0.4-2.1c0.3-0.6,0.6-1.1,1.2-1.5c0.5-0.3,1.1-0.5,1.7-0.5c0.5,0,0.9,0.1,1.3,0.3
			c0.4,0.2,0.7,0.5,0.9,0.8v-3.9h1.3V-86L134.7-86L134.7-86z M130.5-89.9c0,1,0.2,1.7,0.6,2.2c0.4,0.5,0.9,0.7,1.5,0.7
			c0.6,0,1.1-0.2,1.5-0.7c0.4-0.5,0.6-1.2,0.6-2.2c0-1.1-0.2-1.8-0.6-2.3c-0.4-0.5-0.9-0.7-1.5-0.7c-0.6,0-1.1,0.2-1.5,0.7
			C130.7-91.7,130.5-90.9,130.5-89.9z"/>
		<path fill="#4D4D4F" d="M148.7-87.3v1.3h-7.1c0-0.3,0-0.6,0.2-0.9c0.2-0.5,0.5-1,0.9-1.4c0.4-0.5,1-1,1.7-1.6c1.2-1,2-1.7,2.4-2.3
			s0.6-1.1,0.6-1.6c0-0.5-0.2-1-0.6-1.3c-0.4-0.4-0.9-0.5-1.5-0.5c-0.6,0-1.1,0.2-1.5,0.6c-0.4,0.4-0.6,0.9-0.6,1.6l-1.4-0.1
			c0.1-1,0.4-1.8,1-2.3c0.6-0.5,1.4-0.8,2.4-0.8c1,0,1.8,0.3,2.4,0.9c0.6,0.6,0.9,1.3,0.9,2.1c0,0.4-0.1,0.9-0.3,1.3
			c-0.2,0.4-0.5,0.9-0.9,1.3c-0.4,0.5-1.1,1.1-2,1.9c-0.8,0.7-1.3,1.1-1.5,1.4c-0.2,0.2-0.4,0.5-0.6,0.7L148.7-87.3L148.7-87.3z"/>
		<path fill="#4D4D4F" d="M150.1-88.8l1.4-0.1c0.1,0.7,0.3,1.2,0.7,1.5c0.4,0.3,0.8,0.5,1.4,0.5c0.6,0,1.2-0.2,1.6-0.7
			c0.4-0.5,0.7-1.1,0.7-1.9c0-0.8-0.2-1.3-0.6-1.8c-0.4-0.4-1-0.7-1.7-0.7c-0.4,0-0.8,0.1-1.1,0.3c-0.3,0.2-0.6,0.4-0.8,0.8
			l-1.2-0.2l1-5.5h5.3v1.3h-4.3l-0.6,2.9c0.6-0.4,1.3-0.7,2-0.7c0.9,0,1.7,0.3,2.4,1c0.6,0.6,1,1.5,1,2.5c0,1-0.3,1.8-0.9,2.5
			c-0.7,0.9-1.6,1.3-2.8,1.3c-1,0-1.8-0.3-2.4-0.8C150.5-87.2,150.2-87.9,150.1-88.8z"/>
		<path fill="#4D4D4F" d="M158.7-94.2c0-0.8,0.2-1.4,0.6-2c0.4-0.5,0.9-0.8,1.7-0.8c0.7,0,1.2,0.2,1.7,0.7s0.7,1.2,0.7,2.1
			c0,0.9-0.2,1.6-0.7,2.1c-0.4,0.5-1,0.7-1.6,0.7c-0.6,0-1.2-0.2-1.6-0.7C158.9-92.5,158.7-93.2,158.7-94.2z M161-96
			c-0.3,0-0.6,0.1-0.8,0.4c-0.2,0.3-0.3,0.8-0.3,1.6c0,0.7,0.1,1.2,0.3,1.5c0.2,0.3,0.5,0.4,0.8,0.4c0.3,0,0.6-0.1,0.8-0.4
			c0.2-0.3,0.3-0.8,0.3-1.6c0-0.7-0.1-1.2-0.3-1.5C161.6-95.9,161.3-96,161-96z M161-85.6l5.9-11.3h1.1l-5.9,11.3H161z M165.6-88.5
			c0-0.8,0.2-1.4,0.6-2c0.4-0.5,0.9-0.8,1.7-0.8c0.7,0,1.2,0.2,1.7,0.7c0.4,0.5,0.7,1.2,0.7,2.1c0,0.9-0.2,1.6-0.7,2.1
			c-0.4,0.5-1,0.7-1.7,0.7c-0.6,0-1.2-0.2-1.6-0.7C165.8-86.8,165.6-87.6,165.6-88.5z M167.9-90.4c-0.3,0-0.6,0.1-0.8,0.4
			c-0.2,0.3-0.3,0.8-0.3,1.6c0,0.7,0.1,1.2,0.3,1.5c0.2,0.3,0.5,0.4,0.8,0.4c0.3,0,0.6-0.1,0.8-0.4s0.3-0.8,0.3-1.6
			c0-0.7-0.1-1.2-0.3-1.5C168.5-90.3,168.3-90.4,167.9-90.4z"/>
		<path fill="#4D4D4F" d="M172.5-86v-1.5h1.5v1.5c0,0.6-0.1,1-0.3,1.3c-0.2,0.3-0.5,0.6-0.9,0.8l-0.4-0.6c0.3-0.1,0.5-0.3,0.6-0.5
			c0.1-0.2,0.2-0.6,0.2-1L172.5-86L172.5-86z"/>
		<path fill="#4D4D4F" d="M180.5-86v-7.8h1.2v1.2c0.3-0.6,0.6-0.9,0.8-1.1c0.3-0.2,0.5-0.3,0.8-0.3c0.4,0,0.9,0.1,1.4,0.4l-0.5,1.2
			c-0.3-0.2-0.6-0.3-1-0.3c-0.3,0-0.5,0.1-0.8,0.3c-0.2,0.2-0.4,0.4-0.5,0.7c-0.1,0.5-0.2,1-0.2,1.5v4.1L180.5-86L180.5-86z"/>
		<path fill="#4D4D4F" d="M190.8-88.5l1.4,0.2c-0.2,0.8-0.6,1.4-1.2,1.9c-0.6,0.4-1.3,0.7-2.2,0.7c-1.1,0-2-0.4-2.7-1.1
			c-0.7-0.7-1-1.7-1-2.9c0-1.3,0.3-2.3,1-3c0.7-0.7,1.5-1.1,2.6-1.1c1,0,1.9,0.4,2.5,1.1c0.7,0.7,1,1.7,1,3c0,0.1,0,0.2,0,0.4h-5.8
			c0,0.9,0.3,1.5,0.7,2c0.4,0.5,1,0.7,1.6,0.7c0.5,0,0.9-0.1,1.2-0.4C190.3-87.6,190.6-88,190.8-88.5z M186.5-90.7h4.3
			c-0.1-0.7-0.2-1.1-0.5-1.5c-0.4-0.5-1-0.8-1.6-0.8c-0.6,0-1.1,0.2-1.5,0.6C186.7-91.9,186.5-91.3,186.5-90.7z"/>
		<path fill="#4D4D4F" d="M193.3-88.3l1.3-0.2c0.1,0.5,0.3,0.9,0.6,1.2c0.3,0.3,0.8,0.4,1.4,0.4c0.6,0,1.1-0.1,1.3-0.4
			c0.3-0.2,0.4-0.5,0.4-0.9c0-0.3-0.1-0.5-0.4-0.7c-0.2-0.1-0.6-0.3-1.3-0.4c-1-0.2-1.6-0.5-2-0.6c-0.4-0.2-0.7-0.4-0.9-0.7
			c-0.2-0.3-0.3-0.7-0.3-1c0-0.3,0.1-0.7,0.2-1c0.2-0.3,0.4-0.5,0.6-0.7c0.2-0.2,0.5-0.3,0.8-0.4c0.4-0.1,0.7-0.2,1.1-0.2
			c0.6,0,1.1,0.1,1.6,0.3c0.5,0.2,0.8,0.4,1,0.7c0.2,0.3,0.4,0.7,0.5,1.2l-1.3,0.2c-0.1-0.4-0.2-0.7-0.5-0.9
			c-0.3-0.2-0.7-0.3-1.2-0.3c-0.6,0-1,0.1-1.3,0.3c-0.3,0.2-0.4,0.4-0.4,0.7c0,0.2,0.1,0.3,0.2,0.5c0.1,0.1,0.3,0.3,0.5,0.4
			c0.1,0,0.5,0.2,1.2,0.3c0.9,0.2,1.6,0.5,2,0.6c0.4,0.2,0.7,0.4,0.9,0.7c0.2,0.3,0.3,0.7,0.3,1.1c0,0.4-0.1,0.9-0.4,1.2
			c-0.3,0.4-0.6,0.7-1.1,0.9c-0.5,0.2-1,0.3-1.6,0.3c-1,0-1.8-0.2-2.3-0.6C193.8-86.9,193.4-87.5,193.3-88.3z"/>
		<path fill="#4D4D4F" d="M201.3-83v-10.8h1.2v1c0.3-0.4,0.6-0.7,1-0.9c0.4-0.2,0.8-0.3,1.3-0.3c0.7,0,1.2,0.2,1.8,0.5
			c0.5,0.3,0.9,0.8,1.2,1.4c0.3,0.6,0.4,1.3,0.4,2c0,0.8-0.1,1.5-0.4,2.1s-0.7,1.1-1.2,1.5c-0.5,0.3-1.1,0.5-1.7,0.5
			c-0.4,0-0.8-0.1-1.2-0.3c-0.4-0.2-0.6-0.4-0.9-0.7v3.8L201.3-83L201.3-83z M202.5-89.9c0,1,0.2,1.7,0.6,2.2
			c0.4,0.5,0.9,0.7,1.5,0.7c0.6,0,1.1-0.2,1.5-0.7c0.4-0.5,0.6-1.3,0.6-2.3c0-1-0.2-1.7-0.6-2.2c-0.4-0.5-0.9-0.7-1.5-0.7
			c-0.6,0-1.1,0.3-1.5,0.8C202.7-91.6,202.5-90.9,202.5-89.9z"/>
		<path fill="#4D4D4F" d="M215-88.5l1.4,0.2c-0.2,0.8-0.6,1.4-1.2,1.9c-0.6,0.4-1.3,0.7-2.2,0.7c-1.1,0-2-0.4-2.7-1.1
			c-0.7-0.7-1-1.7-1-2.9c0-1.3,0.3-2.3,1-3c0.7-0.7,1.5-1.1,2.6-1.1c1,0,1.9,0.4,2.5,1.1c0.7,0.7,1,1.7,1,3c0,0.1,0,0.2,0,0.4h-5.8
			c0,0.9,0.3,1.5,0.7,2c0.4,0.5,1,0.7,1.6,0.7c0.5,0,0.9-0.1,1.2-0.4C214.5-87.6,214.8-88,215-88.5z M210.6-90.7h4.3
			c-0.1-0.7-0.2-1.1-0.5-1.5c-0.4-0.5-1-0.8-1.6-0.8c-0.6,0-1.1,0.2-1.5,0.6C210.9-91.9,210.7-91.3,210.6-90.7z"/>
		<path fill="#4D4D4F" d="M223.1-88.9l1.3,0.2c-0.1,0.9-0.5,1.6-1.1,2.1c-0.6,0.5-1.3,0.8-2.1,0.8c-1.1,0-1.9-0.3-2.6-1
			c-0.6-0.7-1-1.7-1-3c0-0.8,0.1-1.6,0.4-2.2s0.7-1.1,1.3-1.4c0.6-0.3,1.2-0.5,1.9-0.5c0.8,0,1.5,0.2,2.1,0.6c0.5,0.4,0.9,1,1,1.8
			l-1.3,0.2c-0.1-0.5-0.3-0.9-0.6-1.2c-0.3-0.3-0.7-0.4-1.1-0.4c-0.7,0-1.2,0.2-1.6,0.7c-0.4,0.5-0.6,1.2-0.6,2.3
			c0,1,0.2,1.8,0.6,2.3c0.4,0.5,0.9,0.7,1.6,0.7c0.5,0,1-0.2,1.3-0.5C222.8-87.7,223-88.2,223.1-88.9z"/>
		<path fill="#4D4D4F" d="M228.4-87.2l0.2,1.2c-0.4,0.1-0.7,0.1-1,0.1c-0.5,0-0.9-0.1-1.1-0.2c-0.3-0.1-0.4-0.4-0.6-0.6
			c-0.1-0.2-0.2-0.8-0.2-1.6v-4.5h-1v-1h1v-1.9l1.3-0.8v2.7h1.3v1H227v4.5c0,0.4,0,0.6,0.1,0.7c0,0.1,0.1,0.2,0.2,0.3
			c0.1,0.1,0.3,0.1,0.4,0.1C227.9-87.2,228.1-87.2,228.4-87.2z"/>
		<path fill="#4D4D4F" d="M229.7-95.2v-1.5h1.3v1.5H229.7z M229.7-86v-7.8h1.3v7.8L229.7-86L229.7-86z"/>
		<path fill="#4D4D4F" d="M235.2-86l-3-7.8h1.4l1.7,4.7c0.2,0.5,0.3,1,0.5,1.6c0.1-0.4,0.3-0.9,0.5-1.5l1.7-4.7h1.4l-2.9,7.8
			L235.2-86L235.2-86z"/>
		<path fill="#4D4D4F" d="M245.8-88.5l1.4,0.2c-0.2,0.8-0.6,1.4-1.2,1.9c-0.6,0.4-1.3,0.7-2.2,0.7c-1.1,0-2-0.4-2.7-1.1
			c-0.7-0.7-1-1.7-1-2.9c0-1.3,0.3-2.3,1-3s1.5-1.1,2.6-1.1c1,0,1.9,0.4,2.5,1.1c0.7,0.7,1,1.7,1,3c0,0.1,0,0.2,0,0.4h-5.8
			c0.1,0.9,0.3,1.5,0.7,2c0.4,0.5,1,0.7,1.6,0.7c0.5,0,0.9-0.1,1.2-0.4S245.6-88,245.8-88.5z M241.5-90.7h4.3
			c-0.1-0.7-0.2-1.1-0.5-1.5c-0.4-0.5-1-0.8-1.6-0.8c-0.6,0-1.1,0.2-1.5,0.6C241.8-91.9,241.5-91.3,241.5-90.7z"/>
		<path fill="#4D4D4F" d="M248.8-86v-10.7h1.3V-86H248.8z"/>
		<path fill="#4D4D4F" d="M252.1-83l-0.1-1.2c0.3,0.1,0.5,0.1,0.8,0.1c0.3,0,0.5,0,0.7-0.1c0.2-0.1,0.3-0.2,0.4-0.4
			c0.1-0.1,0.2-0.5,0.4-1c0-0.1,0.1-0.2,0.1-0.3l-2.9-7.8h1.4l1.6,4.5c0.2,0.6,0.4,1.2,0.6,1.8c0.1-0.6,0.3-1.2,0.5-1.8l1.7-4.5h1.3
			l-3,7.9c-0.3,0.9-0.6,1.4-0.7,1.8c-0.2,0.4-0.5,0.8-0.8,1c-0.3,0.2-0.7,0.3-1.1,0.3C252.7-82.9,252.4-82.9,252.1-83z"/>
		<path fill="#4D4D4F" d="M258.9-86v-1.5h1.5v1.5c0,0.6-0.1,1-0.3,1.3c-0.2,0.3-0.5,0.6-0.9,0.8l-0.4-0.6c0.3-0.1,0.5-0.3,0.6-0.5
			c0.1-0.2,0.2-0.6,0.2-1L258.9-86L258.9-86z"/>
		<path fill="#4D4D4F" d="M269.1-86l-3-7.8h1.4l1.7,4.7c0.2,0.5,0.3,1,0.5,1.6c0.1-0.4,0.3-0.9,0.5-1.5l1.7-4.7h1.4l-2.9,7.8
			L269.1-86L269.1-86z"/>
		<path fill="#4D4D4F" d="M273.9-88.3l1.3-0.2c0.1,0.5,0.3,0.9,0.6,1.2c0.3,0.3,0.8,0.4,1.4,0.4c0.6,0,1.1-0.1,1.3-0.4
			c0.3-0.2,0.4-0.5,0.4-0.9c0-0.3-0.1-0.5-0.4-0.7c-0.2-0.1-0.6-0.3-1.3-0.4c-1-0.2-1.6-0.5-2-0.6c-0.4-0.2-0.7-0.4-0.9-0.7
			c-0.2-0.3-0.3-0.7-0.3-1c0-0.3,0.1-0.7,0.2-1c0.2-0.3,0.4-0.5,0.6-0.7c0.2-0.2,0.5-0.3,0.8-0.4c0.4-0.1,0.7-0.2,1.1-0.2
			c0.6,0,1.1,0.1,1.6,0.3c0.5,0.2,0.8,0.4,1,0.7c0.2,0.3,0.4,0.7,0.5,1.2l-1.3,0.2c-0.1-0.4-0.2-0.7-0.5-0.9
			c-0.3-0.2-0.7-0.3-1.2-0.3c-0.6,0-1,0.1-1.3,0.3c-0.3,0.2-0.4,0.4-0.4,0.7c0,0.2,0.1,0.3,0.2,0.5c0.1,0.1,0.3,0.3,0.5,0.4
			c0.1,0,0.5,0.2,1.2,0.3c0.9,0.2,1.6,0.5,2,0.6c0.4,0.2,0.7,0.4,0.9,0.7c0.2,0.3,0.3,0.7,0.3,1.1c0,0.4-0.1,0.9-0.4,1.2
			c-0.3,0.4-0.6,0.7-1.1,0.9c-0.5,0.2-1,0.3-1.6,0.3c-1,0-1.8-0.2-2.3-0.6C274.3-86.9,274-87.5,273.9-88.3z"/>
		<path fill="#4D4D4F" d="M289.9-86v-2.6h-4.7v-1.2l4.9-7h1.1v7h1.4v1.2h-1.4v2.6H289.9z M289.9-89.8v-4.8l-3.4,4.8H289.9z"/>
		<path fill="#4D4D4F" d="M301-87.3v1.3h-7.1c0-0.3,0-0.6,0.2-0.9c0.2-0.5,0.5-1,0.9-1.4c0.4-0.5,1-1,1.7-1.6c1.2-1,2-1.7,2.4-2.3
			c0.4-0.6,0.6-1.1,0.6-1.6c0-0.5-0.2-1-0.6-1.3c-0.4-0.4-0.9-0.5-1.5-0.5c-0.6,0-1.1,0.2-1.5,0.6c-0.4,0.4-0.6,0.9-0.6,1.6
			l-1.4-0.1c0.1-1,0.4-1.8,1-2.3c0.6-0.5,1.4-0.8,2.4-0.8c1,0,1.8,0.3,2.4,0.9c0.6,0.6,0.9,1.3,0.9,2.1c0,0.4-0.1,0.9-0.3,1.3
			s-0.5,0.9-0.9,1.3c-0.4,0.5-1.1,1.1-2,1.9c-0.8,0.7-1.3,1.1-1.5,1.4c-0.2,0.2-0.4,0.5-0.6,0.7L301-87.3L301-87.3z"/>
		<path fill="#4D4D4F" d="M302.6-94.2c0-0.8,0.2-1.4,0.6-2c0.4-0.5,0.9-0.8,1.7-0.8c0.7,0,1.2,0.2,1.7,0.7c0.4,0.5,0.7,1.2,0.7,2.1
			c0,0.9-0.2,1.6-0.7,2.1c-0.4,0.5-1,0.7-1.7,0.7c-0.6,0-1.2-0.2-1.6-0.7C302.8-92.5,302.6-93.2,302.6-94.2z M304.9-96
			c-0.3,0-0.6,0.1-0.8,0.4c-0.2,0.3-0.3,0.8-0.3,1.6c0,0.7,0.1,1.2,0.3,1.5c0.2,0.3,0.5,0.4,0.8,0.4c0.3,0,0.6-0.1,0.8-0.4
			c0.2-0.3,0.3-0.8,0.3-1.6c0-0.7-0.1-1.2-0.3-1.5C305.5-95.9,305.2-96,304.9-96z M304.9-85.6l5.9-11.3h1.1L306-85.6H304.9z
			 M309.6-88.5c0-0.8,0.2-1.4,0.6-2c0.4-0.5,0.9-0.8,1.7-0.8c0.7,0,1.2,0.2,1.7,0.7c0.4,0.5,0.7,1.2,0.7,2.1c0,0.9-0.2,1.6-0.7,2.1
			c-0.4,0.5-1,0.7-1.7,0.7c-0.6,0-1.2-0.2-1.6-0.7C309.8-86.8,309.6-87.6,309.6-88.5z M311.9-90.4c-0.3,0-0.6,0.1-0.8,0.4
			c-0.2,0.3-0.3,0.8-0.3,1.6c0,0.7,0.1,1.2,0.3,1.5s0.5,0.4,0.8,0.4c0.3,0,0.6-0.1,0.8-0.4s0.3-0.8,0.3-1.6c0-0.7-0.1-1.2-0.3-1.5
			C312.5-90.3,312.2-90.4,311.9-90.4z"/>
		<path fill="#4D4D4F" d="M325.3-87c-0.5,0.4-1,0.7-1.4,0.9c-0.4,0.2-0.9,0.3-1.5,0.3c-0.9,0-1.5-0.2-2-0.6c-0.5-0.4-0.7-1-0.7-1.6
			c0-0.4,0.1-0.7,0.3-1c0.2-0.3,0.4-0.6,0.7-0.8c0.3-0.2,0.6-0.3,0.9-0.4c0.3-0.1,0.6-0.1,1.2-0.2c1.1-0.1,1.8-0.3,2.4-0.5
			c0-0.2,0-0.3,0-0.3c0-0.5-0.1-0.9-0.4-1.1c-0.3-0.3-0.8-0.4-1.5-0.4c-0.6,0-1.1,0.1-1.4,0.3c-0.3,0.2-0.5,0.6-0.7,1.2l-1.3-0.2
			c0.1-0.6,0.3-1,0.6-1.3c0.3-0.3,0.7-0.6,1.2-0.8c0.5-0.2,1.1-0.3,1.8-0.3c0.7,0,1.2,0.1,1.6,0.2c0.4,0.2,0.7,0.4,0.9,0.6
			c0.2,0.2,0.3,0.5,0.4,0.9c0,0.2,0.1,0.6,0.1,1.2v1.8c0,1.2,0,2,0.1,2.3c0.1,0.3,0.2,0.6,0.3,0.9h-1.4
			C325.5-86.3,325.4-86.6,325.3-87z M325.2-89.9c-0.5,0.2-1.2,0.4-2.2,0.5c-0.5,0.1-0.9,0.2-1.1,0.3c-0.2,0.1-0.4,0.2-0.5,0.4
			c-0.1,0.2-0.2,0.4-0.2,0.6c0,0.4,0.1,0.6,0.4,0.9c0.3,0.2,0.7,0.4,1.2,0.4c0.5,0,1-0.1,1.4-0.3c0.4-0.2,0.7-0.5,0.9-0.9
			c0.1-0.3,0.2-0.7,0.2-1.3L325.2-89.9L325.2-89.9z"/>
		<path fill="#4D4D4F" d="M328.6-86v-7.8h1.2v1.1c0.6-0.9,1.4-1.3,2.5-1.3c0.5,0,0.9,0.1,1.3,0.3c0.4,0.2,0.7,0.4,0.9,0.7
			c0.2,0.3,0.3,0.6,0.4,1c0,0.2,0.1,0.7,0.1,1.3v4.8h-1.3v-4.7c0-0.5-0.1-0.9-0.2-1.2c-0.1-0.3-0.3-0.5-0.5-0.6
			c-0.3-0.2-0.6-0.2-0.9-0.2c-0.6,0-1,0.2-1.5,0.5c-0.4,0.4-0.6,1-0.6,2v4.2L328.6-86L328.6-86z"/>
		<path fill="#4D4D4F" d="M342-86v-1c-0.5,0.8-1.2,1.2-2.2,1.2c-0.6,0-1.2-0.2-1.7-0.5c-0.5-0.3-0.9-0.8-1.2-1.4
			c-0.3-0.6-0.4-1.3-0.4-2.1c0-0.8,0.1-1.5,0.4-2.1c0.3-0.6,0.6-1.1,1.2-1.5c0.5-0.3,1.1-0.5,1.7-0.5c0.5,0,0.9,0.1,1.3,0.3
			c0.4,0.2,0.7,0.5,0.9,0.8v-3.9h1.3V-86L342-86L342-86z M337.8-89.9c0,1,0.2,1.7,0.6,2.2c0.4,0.5,0.9,0.7,1.5,0.7
			c0.6,0,1.1-0.2,1.5-0.7c0.4-0.5,0.6-1.2,0.6-2.2c0-1.1-0.2-1.8-0.6-2.3c-0.4-0.5-0.9-0.7-1.5-0.7c-0.6,0-1.1,0.2-1.5,0.7
			C338-91.7,337.8-90.9,337.8-89.9z"/>
	</g>
	<g enable-background="new    ">
		<path fill="#4D4D4F" d="M83.3-66H82v-8.4c-0.3,0.3-0.7,0.6-1.2,0.9c-0.5,0.3-1,0.5-1.4,0.7v-1.3c0.7-0.3,1.4-0.8,1.9-1.3
			c0.6-0.5,0.9-1,1.2-1.4h0.9L83.3-66L83.3-66z"/>
		<path fill="#4D4D4F" d="M86.7-68.9L88-69c0.2,0.7,0.4,1.3,0.8,1.6c0.4,0.3,0.8,0.5,1.3,0.5c0.6,0,1.1-0.2,1.6-0.6
			c0.4-0.4,0.6-1,0.6-1.6c0-0.6-0.2-1.1-0.6-1.5c-0.4-0.4-0.9-0.6-1.5-0.6c-0.2,0-0.6,0-0.9,0.1l0.1-1.2c0.1,0,0.2,0,0.2,0
			c0.6,0,1.1-0.1,1.5-0.4c0.4-0.3,0.7-0.7,0.7-1.4c0-0.5-0.2-0.9-0.5-1.2s-0.8-0.5-1.3-0.5c-0.5,0-0.9,0.2-1.3,0.5s-0.6,0.8-0.7,1.5
			L86.8-74c0.2-0.9,0.5-1.6,1.1-2.1c0.6-0.5,1.3-0.7,2.1-0.7c0.6,0,1.1,0.1,1.6,0.4c0.5,0.3,0.9,0.6,1.1,1c0.3,0.4,0.4,0.9,0.4,1.4
			c0,0.5-0.1,0.9-0.4,1.3c-0.2,0.4-0.6,0.7-1.1,0.9c0.6,0.1,1.1,0.5,1.5,0.9c0.4,0.5,0.5,1,0.5,1.7c0,0.9-0.3,1.7-1,2.4
			c-0.7,0.6-1.5,1-2.6,1c-0.9,0-1.7-0.3-2.3-0.8C87.2-67.2,86.8-68,86.7-68.9z"/>
		<path fill="#4D4D4F" d="M95.3-74.2c0-0.8,0.2-1.4,0.6-2c0.4-0.5,0.9-0.8,1.7-0.8c0.7,0,1.2,0.2,1.7,0.7c0.4,0.5,0.7,1.2,0.7,2.1
			c0,0.9-0.2,1.6-0.7,2.1c-0.4,0.5-1,0.7-1.7,0.7c-0.6,0-1.2-0.2-1.6-0.7C95.5-72.5,95.3-73.2,95.3-74.2z M97.6-76
			c-0.3,0-0.6,0.1-0.8,0.4c-0.2,0.3-0.3,0.8-0.3,1.6c0,0.7,0.1,1.2,0.3,1.5c0.2,0.3,0.5,0.4,0.8,0.4c0.3,0,0.6-0.1,0.8-0.4
			c0.2-0.3,0.3-0.8,0.3-1.6c0-0.7-0.1-1.2-0.3-1.5C98.2-75.9,97.9-76,97.6-76z M97.6-65.6l5.9-11.3h1.1l-5.9,11.3H97.6z M102.2-68.5
			c0-0.8,0.2-1.4,0.6-2c0.4-0.5,0.9-0.8,1.7-0.8c0.7,0,1.2,0.2,1.7,0.7c0.4,0.5,0.7,1.2,0.7,2.1c0,0.9-0.2,1.6-0.7,2.1
			s-1,0.7-1.7,0.7c-0.6,0-1.2-0.2-1.6-0.7C102.5-66.8,102.2-67.6,102.2-68.5z M104.5-70.4c-0.3,0-0.6,0.1-0.8,0.4
			c-0.2,0.3-0.3,0.8-0.3,1.6c0,0.7,0.1,1.2,0.3,1.5c0.2,0.3,0.5,0.4,0.8,0.4c0.3,0,0.6-0.1,0.8-0.4c0.2-0.3,0.3-0.8,0.3-1.6
			c0-0.7-0.1-1.2-0.3-1.5C105.1-70.3,104.9-70.4,104.5-70.4z"/>
		<path fill="#4D4D4F" d="M114.4-66l-2.4-7.8h1.4l1.2,4.5l0.5,1.7c0-0.1,0.2-0.6,0.4-1.6l1.2-4.6h1.4l1.2,4.5l0.4,1.5l0.4-1.5
			l1.3-4.5h1.3l-2.4,7.8h-1.4l-1.2-4.7l-0.3-1.3l-1.6,6L114.4-66L114.4-66z"/>
		<path fill="#4D4D4F" d="M123.8-75.2v-1.5h1.3v1.5H123.8z M123.8-66v-7.8h1.3v7.8L123.8-66L123.8-66z"/>
		<path fill="#4D4D4F" d="M130-67.2l0.2,1.2c-0.4,0.1-0.7,0.1-1,0.1c-0.5,0-0.8-0.1-1.1-0.2c-0.3-0.1-0.4-0.4-0.6-0.6
			c-0.1-0.2-0.2-0.8-0.2-1.6v-4.5h-1v-1h1v-1.9l1.3-0.8v2.7h1.3v1h-1.3v4.5c0,0.4,0,0.6,0.1,0.7c0,0.1,0.1,0.2,0.2,0.3
			c0.1,0.1,0.3,0.1,0.4,0.1C129.5-67.2,129.7-67.2,130-67.2z"/>
		<path fill="#4D4D4F" d="M131.3-66v-10.7h1.3v3.9c0.6-0.7,1.4-1.1,2.3-1.1c0.6,0,1.1,0.1,1.5,0.3c0.4,0.2,0.7,0.5,0.9,0.9
			c0.2,0.4,0.3,1,0.3,1.7v4.9h-1.3V-71c0-0.7-0.1-1.1-0.4-1.4c-0.3-0.3-0.7-0.5-1.2-0.5c-0.4,0-0.8,0.1-1.1,0.3
			c-0.3,0.2-0.6,0.5-0.7,0.8c-0.1,0.3-0.2,0.8-0.2,1.4v4.3L131.3-66L131.3-66L131.3-66L131.3-66L131.3-66z"/>
		<path fill="#4D4D4F" d="M148.8-68.9l1.3,0.2c-0.1,0.9-0.5,1.6-1.1,2.1c-0.6,0.5-1.3,0.8-2.2,0.8c-1.1,0-1.9-0.4-2.6-1
			c-0.6-0.7-1-1.7-1-3c0-0.8,0.1-1.6,0.4-2.2c0.3-0.6,0.7-1.1,1.3-1.4c0.6-0.3,1.2-0.5,1.9-0.5c0.8,0,1.5,0.2,2.1,0.6
			c0.5,0.4,0.9,1,1,1.8l-1.3,0.2c-0.1-0.5-0.3-0.9-0.6-1.2c-0.3-0.3-0.7-0.4-1.1-0.4c-0.7,0-1.2,0.2-1.6,0.7
			c-0.4,0.5-0.6,1.2-0.6,2.3c0,1,0.2,1.8,0.6,2.3c0.4,0.5,0.9,0.7,1.6,0.7c0.5,0,0.9-0.2,1.3-0.5C148.5-67.7,148.7-68.2,148.8-68.9z
			"/>
		<path fill="#4D4D4F" d="M151.3-66v-10.7h1.3v3.9c0.6-0.7,1.4-1.1,2.3-1.1c0.6,0,1.1,0.1,1.5,0.3c0.4,0.2,0.7,0.5,0.9,0.9
			c0.2,0.4,0.3,1,0.3,1.7v4.9h-1.3V-71c0-0.7-0.1-1.1-0.4-1.4c-0.3-0.3-0.7-0.5-1.2-0.5c-0.4,0-0.8,0.1-1.1,0.3
			c-0.3,0.2-0.6,0.5-0.7,0.8c-0.1,0.3-0.2,0.8-0.2,1.4v4.3L151.3-66L151.3-66L151.3-66z"/>
		<path fill="#4D4D4F" d="M164.9-68.5l1.4,0.2c-0.2,0.8-0.6,1.4-1.2,1.9c-0.6,0.4-1.3,0.7-2.2,0.7c-1.1,0-2-0.4-2.7-1.1
			c-0.7-0.7-1-1.7-1-2.9c0-1.3,0.3-2.3,1-3c0.7-0.7,1.5-1.1,2.6-1.1c1,0,1.9,0.4,2.5,1.1c0.7,0.7,1,1.7,1,3c0,0.1,0,0.2,0,0.4h-5.8
			c0,0.9,0.3,1.5,0.7,2c0.4,0.5,1,0.7,1.6,0.7c0.5,0,0.9-0.1,1.2-0.4C164.5-67.6,164.7-68,164.9-68.5z M160.6-70.7h4.3
			c-0.1-0.7-0.2-1.1-0.5-1.5c-0.4-0.5-1-0.8-1.6-0.8c-0.6,0-1.1,0.2-1.5,0.6C160.9-71.9,160.6-71.3,160.6-70.7z"/>
		<path fill="#4D4D4F" d="M167.9-66v-7.8h1.2v1.1c0.2-0.4,0.6-0.7,1-0.9c0.4-0.2,0.9-0.3,1.4-0.3c0.6,0,1,0.1,1.4,0.4
			c0.4,0.2,0.6,0.6,0.8,1c0.6-0.9,1.4-1.4,2.4-1.4c0.8,0,1.4,0.2,1.8,0.6c0.4,0.4,0.6,1.1,0.6,2v5.3h-1.3v-4.9c0-0.5,0-0.9-0.1-1.1
			c-0.1-0.2-0.2-0.4-0.5-0.6c-0.2-0.1-0.5-0.2-0.8-0.2c-0.5,0-1,0.2-1.4,0.5c-0.4,0.4-0.5,0.9-0.5,1.7v4.5h-1.3v-5.1
			c0-0.6-0.1-1-0.3-1.3s-0.6-0.4-1.1-0.4c-0.4,0-0.7,0.1-1,0.3c-0.3,0.2-0.5,0.5-0.7,0.9c-0.1,0.4-0.2,0.9-0.2,1.6v4L167.9-66
			L167.9-66z"/>
		<path fill="#4D4D4F" d="M180-69.9c0-1.4,0.4-2.5,1.2-3.2c0.7-0.6,1.5-0.9,2.4-0.9c1.1,0,1.9,0.4,2.6,1.1c0.7,0.7,1,1.7,1,2.9
			c0,1-0.1,1.8-0.4,2.4c-0.3,0.6-0.7,1-1.3,1.3c-0.6,0.3-1.2,0.5-1.9,0.5c-1.1,0-2-0.4-2.6-1C180.3-67.6,180-68.6,180-69.9z
			 M181.3-69.9c0,1,0.2,1.7,0.7,2.2c0.4,0.5,1,0.7,1.6,0.7c0.7,0,1.2-0.2,1.6-0.7c0.4-0.5,0.7-1.3,0.7-2.3c0-1-0.2-1.7-0.7-2.2
			c-0.4-0.5-1-0.7-1.6-0.7c-0.7,0-1.2,0.2-1.6,0.7C181.5-71.7,181.3-70.9,181.3-69.9z"/>
		<path fill="#4D4D4F" d="M198-67c-0.5,0.4-1,0.7-1.4,0.9c-0.5,0.2-0.9,0.3-1.5,0.3c-0.9,0-1.5-0.2-2-0.6c-0.5-0.4-0.7-1-0.7-1.6
			c0-0.4,0.1-0.7,0.3-1c0.2-0.3,0.4-0.6,0.7-0.8c0.3-0.2,0.6-0.3,0.9-0.4c0.3-0.1,0.6-0.1,1.2-0.2c1.1-0.1,1.8-0.3,2.4-0.5
			c0-0.2,0-0.3,0-0.3c0-0.5-0.1-0.9-0.4-1.1c-0.3-0.3-0.8-0.4-1.5-0.4c-0.6,0-1.1,0.1-1.4,0.3c-0.3,0.2-0.5,0.6-0.7,1.2l-1.3-0.2
			c0.1-0.6,0.3-1,0.6-1.3c0.3-0.3,0.7-0.6,1.2-0.8c0.5-0.2,1.1-0.3,1.8-0.3c0.7,0,1.2,0.1,1.6,0.2c0.4,0.2,0.7,0.4,0.9,0.6
			c0.2,0.2,0.3,0.5,0.4,0.9c0,0.2,0.1,0.6,0.1,1.2v1.8c0,1.2,0,2,0.1,2.3c0.1,0.3,0.2,0.6,0.3,0.9h-1.4
			C198.2-66.3,198.1-66.6,198-67z M197.9-69.9c-0.5,0.2-1.2,0.4-2.2,0.5c-0.5,0.1-0.9,0.2-1.1,0.3c-0.2,0.1-0.4,0.2-0.5,0.4
			c-0.1,0.2-0.2,0.4-0.2,0.6c0,0.4,0.1,0.6,0.4,0.9c0.3,0.2,0.7,0.4,1.2,0.4c0.5,0,1-0.1,1.4-0.3c0.4-0.2,0.7-0.5,0.9-0.9
			c0.1-0.3,0.2-0.7,0.2-1.3L197.9-69.9L197.9-69.9z"/>
		<path fill="#4D4D4F" d="M201.3-66v-10.7h1.3V-66H201.3z"/>
		<path fill="#4D4D4F" d="M204.1-69.9c0-1.4,0.4-2.5,1.2-3.2c0.7-0.6,1.5-0.9,2.4-0.9c1.1,0,1.9,0.4,2.6,1.1c0.7,0.7,1,1.7,1,2.9
			c0,1-0.2,1.8-0.5,2.4c-0.3,0.6-0.7,1-1.3,1.3c-0.6,0.3-1.2,0.5-1.9,0.5c-1.1,0-2-0.4-2.6-1C204.5-67.6,204.1-68.6,204.1-69.9z
			 M205.5-69.9c0,1,0.2,1.7,0.7,2.2c0.4,0.5,1,0.7,1.6,0.7c0.7,0,1.2-0.2,1.6-0.7c0.4-0.5,0.7-1.3,0.7-2.3c0-1-0.2-1.7-0.7-2.2
			c-0.4-0.5-1-0.7-1.6-0.7c-0.7,0-1.2,0.2-1.6,0.7C205.7-71.7,205.5-70.9,205.5-69.9z"/>
		<path fill="#4D4D4F" d="M213-66v-7.8h1.2v1.1c0.6-0.9,1.4-1.3,2.5-1.3c0.5,0,0.9,0.1,1.3,0.3c0.4,0.2,0.7,0.4,0.9,0.7
			c0.2,0.3,0.3,0.6,0.4,1c0,0.2,0.1,0.7,0.1,1.3v4.8H218v-4.7c0-0.5-0.1-0.9-0.2-1.2c-0.1-0.3-0.3-0.5-0.5-0.6
			c-0.3-0.2-0.6-0.2-0.9-0.2c-0.6,0-1,0.2-1.5,0.5c-0.4,0.4-0.6,1-0.6,2v4.2L213-66L213-66z"/>
		<path fill="#4D4D4F" d="M226.6-68.5l1.4,0.2c-0.2,0.8-0.6,1.4-1.2,1.9c-0.6,0.4-1.3,0.7-2.2,0.7c-1.1,0-2-0.4-2.7-1.1
			c-0.7-0.7-1-1.7-1-2.9c0-1.3,0.3-2.3,1-3c0.7-0.7,1.5-1.1,2.6-1.1c1,0,1.9,0.4,2.5,1.1c0.7,0.7,1,1.7,1,3c0,0.1,0,0.2,0,0.4h-5.8
			c0,0.9,0.3,1.5,0.7,2c0.4,0.5,1,0.7,1.6,0.7c0.5,0,0.9-0.1,1.2-0.4C226.2-67.6,226.4-68,226.6-68.5z M222.3-70.7h4.3
			c-0.1-0.7-0.2-1.1-0.5-1.5c-0.4-0.5-1-0.8-1.6-0.8c-0.6,0-1.1,0.2-1.5,0.6C222.6-71.9,222.4-71.3,222.3-70.7z"/>
		<path fill="#4D4D4F" d="M230-66v-1.5h1.5v1.5H230z"/>
	</g>
</g>
</svg>
