<?xml version="1.0" encoding="utf-8"?>
<!-- Generator: Adobe Illustrator 18.0.0, SVG Export Plug-In . SVG Version: 6.00 Build 0)  -->
<!DOCTYPE svg PUBLIC "-//W3C//DTD SVG 1.1//EN" "http://www.w3.org/Graphics/SVG/1.1/DTD/svg11.dtd">
<svg version="1.1" id="Layer_1" xmlns="http://www.w3.org/2000/svg" xmlns:xlink="http://www.w3.org/1999/xlink" x="0px" y="0px"
	 viewBox="-209.3 -95.4 466.1 238.6" enable-background="new -209.3 -95.4 466.1 238.6" xml:space="preserve">
<polygon fill="#D6ECE6" points="256.8,136.1 210.6,136.1 210.6,132.9 142,132.9 142,129.9 115.1,129.9 115.1,127.6 105.1,127.6 
	105.1,124.9 96.5,124.9 96.5,122.4 83.3,122.4 83.3,115.4 66.6,115.4 66.6,106.4 41.5,106.4 41.5,100.4 17.8,100.4 17.8,93.1 
	7.6,93.1 7.6,84.3 -4.1,84.3 -4.1,77.2 -16.7,77.2 -16.7,70.9 -35.6,70.9 -35.6,62.3 -44.3,62.3 -44.3,55.9 -56.9,55.9 -56.9,48.9 
	-73.3,48.9 -73.3,42.6 -89.6,42.6 -89.6,34.6 -104.8,34.6 -104.8,22.6 -124.3,22.6 -124.3,13.9 -132.3,13.9 -132.3,5.6 -142.6,5.6 
	-142.6,-4.1 -149.3,-4.1 -149.3,-13.1 -156.9,-13.1 -156.9,-25.7 -163.9,-25.7 -163.9,-33.7 -170.3,-33.7 -170.3,-44.1 
	-176.6,-44.1 -176.6,-60.7 -185.3,-60.7 -185.3,-75.4 -192.3,-75.4 -192.3,-85.7 -199.3,-85.7 -199.3,-95 -208.6,-95 -209.3,-95.4 
	-209.3,-87.2 -203.8,-87.2 -203.8,-78.2 -198.6,-78.2 -198.6,-66.7 -193.6,-66.7 -193.6,-55.7 -189.1,-55.7 -189.1,-45.6 
	-183.8,-45.6 -183.8,-35.9 -178.8,-35.9 -178.8,-26.4 -173.8,-26.4 -173.8,-16.7 -169.4,-16.7 -169.4,-5.1 -164.1,-5.1 -164.1,5.3 
	-158.9,5.3 -158.9,14.8 -153.4,14.8 -153.4,22.8 -149.9,22.8 -149.9,30 -140,30 -140,35.6 -135.4,35.6 -135.4,37.9 -131.5,37.9 
	-131.5,43.9 -126.3,43.9 -126.3,51.7 -119.8,51.7 -119.8,56.9 -113,56.9 -113,63.9 -106.3,63.9 -106.3,73.4 -106.3,73.4 -92.8,73.4 
	-92.8,80.7 -84.5,80.7 -84.5,86.9 -69,86.9 -69,94.7 -54.3,94.7 -54.3,100.9 -39.3,100.9 -39.3,107.7 -21.3,107.7 -21.3,113.9 
	-8.8,113.9 -8.8,120.2 7.7,120.2 7.7,123.4 25.7,123.4 25.7,127.7 42.7,127.7 42.7,131.2 66.2,131.2 66.2,134.2 99.2,134.2 
	99.2,137.7 121.7,137.7 121.7,143.2 256.7,143.2 "/>
</svg>
