<?xml version="1.0" encoding="utf-8"?>
<!-- Generator: Adobe Illustrator 18.0.0, SVG Export Plug-In . SVG Version: 6.00 Build 0)  -->
<!DOCTYPE svg PUBLIC "-//W3C//DTD SVG 1.1//EN" "http://www.w3.org/Graphics/SVG/1.1/DTD/svg11.dtd">
<svg version="1.1" id="Layer_1" xmlns="http://www.w3.org/2000/svg" xmlns:xlink="http://www.w3.org/1999/xlink" x="0px" y="0px"
	 viewBox="-86.6 -99.8 222.7 247.7" enable-background="new -86.6 -99.8 222.7 247.7" xml:space="preserve">
<line fill="none" stroke="#929497" stroke-width="0.7762" stroke-linecap="round" stroke-miterlimit="10" x1="-39.3" y1="38.2" x2="-39.3" y2="92.6"/>
<circle fill="#FFFFFF" stroke="#6D6E70" stroke-width="1.5524" stroke-miterlimit="10" cx="-39.3" cy="38.2" r="3.3"/>
<g>
	<polyline fill="none" stroke="#929497" stroke-width="0.7762" stroke-linecap="round" stroke-miterlimit="10" points="5.5,38.2 
		5.5,-50.8 45.4,-50.8 	"/>
	<circle fill="#FFFFFF" stroke="#2C8979" stroke-width="1.5524" stroke-miterlimit="10" cx="5.5" cy="38.2" r="3.3"/>
</g>
<g>
	<g>
		<circle fill="#6CABA0" cx="88.7" cy="-50.9" r="47.4"/>
		<g>
			<g enable-background="new    ">
				<path fill="#FFFFFF" d="M58.2-36.6h2.2v1.2c0.8-1,1.7-1.4,2.8-1.4c0.6,0,1.1,0.1,1.5,0.4c0.4,0.2,0.8,0.6,1.1,1.1
					c0.4-0.5,0.8-0.8,1.3-1.1c0.5-0.2,1-0.4,1.5-0.4c0.7,0,1.2,0.1,1.7,0.4c0.5,0.3,0.8,0.7,1,1.2c0.2,0.4,0.2,1,0.2,1.9v5.8h-2.4
					v-5.2c0-0.9-0.1-1.5-0.2-1.7c-0.2-0.3-0.6-0.5-1-0.5c-0.3,0-0.6,0.1-0.9,0.3c-0.3,0.2-0.5,0.5-0.6,0.9c-0.1,0.4-0.2,1-0.2,1.9
					v4.4h-2.4v-5c0-0.9,0-1.5-0.1-1.7c-0.1-0.3-0.2-0.4-0.4-0.6c-0.2-0.1-0.4-0.2-0.7-0.2c-0.4,0-0.7,0.1-1,0.3
					c-0.3,0.2-0.5,0.5-0.6,0.9c-0.1,0.4-0.2,1-0.2,1.9v4.4h-2.4L58.2-36.6L58.2-36.6L58.2-36.6L58.2-36.6z"/>
				<path fill="#FFFFFF" d="M73.3-32.2c0-0.8,0.2-1.6,0.6-2.3c0.4-0.7,0.9-1.3,1.7-1.7c0.7-0.4,1.5-0.6,2.4-0.6
					c1.4,0,2.5,0.4,3.4,1.3c0.9,0.9,1.3,2,1.3,3.4c0,1.4-0.4,2.5-1.3,3.4c-0.9,0.9-2,1.4-3.3,1.4c-0.8,0-1.6-0.2-2.4-0.6
					c-0.8-0.4-1.3-0.9-1.7-1.7C73.5-30.2,73.3-31.1,73.3-32.2z M75.8-32c0,0.9,0.2,1.6,0.6,2.1c0.4,0.5,1,0.7,1.6,0.7
					c0.6,0,1.2-0.2,1.6-0.7c0.4-0.5,0.6-1.2,0.6-2.1c0-0.9-0.2-1.6-0.6-2.1c-0.4-0.5-0.9-0.7-1.6-0.7s-1.2,0.2-1.6,0.7
					C76-33.6,75.8-32.9,75.8-32z"/>
				<path fill="#FFFFFF" d="M92.8-27.5h-2.4v-4.6c0-1-0.1-1.6-0.2-1.9c-0.1-0.3-0.3-0.5-0.5-0.7c-0.2-0.2-0.5-0.2-0.8-0.2
					c-0.4,0-0.8,0.1-1.1,0.3c-0.3,0.2-0.6,0.5-0.7,0.9C87-33.3,87-32.6,87-31.6v4.1h-2.4v-9.1h2.2v1.3c0.8-1,1.8-1.5,3-1.5
					c0.5,0,1,0.1,1.5,0.3c0.4,0.2,0.8,0.4,1,0.7c0.2,0.3,0.4,0.6,0.5,1c0.1,0.4,0.1,0.9,0.1,1.6L92.8-27.5L92.8-27.5L92.8-27.5z"/>
				<path fill="#FFFFFF" d="M99.4-36.6v1.9h-1.6v3.7c0,0.7,0,1.2,0,1.3c0,0.1,0.1,0.2,0.2,0.3c0.1,0.1,0.2,0.1,0.4,0.1
					c0.2,0,0.5-0.1,1-0.2l0.2,1.9c-0.6,0.2-1.2,0.4-1.9,0.4c-0.4,0-0.8-0.1-1.2-0.2c-0.3-0.1-0.6-0.3-0.8-0.6
					c-0.2-0.2-0.3-0.5-0.3-0.9c-0.1-0.3-0.1-0.8-0.1-1.7v-4h-1.1v-1.9h1.1v-1.8l2.4-1.4v3.2L99.4-36.6L99.4-36.6z"/>
				<path fill="#FFFFFF" d="M103.5-40v4.6c0.8-0.9,1.7-1.4,2.8-1.4c0.6,0,1.1,0.1,1.5,0.3c0.4,0.2,0.8,0.5,1,0.8
					c0.2,0.3,0.4,0.7,0.5,1.1c0.1,0.4,0.1,1,0.1,1.8v5.3H107v-4.8c0-1,0-1.6-0.1-1.8c-0.1-0.3-0.3-0.5-0.5-0.6
					c-0.2-0.1-0.5-0.2-0.9-0.2c-0.4,0-0.8,0.1-1.1,0.3c-0.3,0.2-0.5,0.5-0.7,0.9c-0.1,0.4-0.2,1-0.2,1.7v4.5h-2.4V-40L103.5-40
					L103.5-40L103.5-40z"/>
				<path fill="#FFFFFF" d="M110.9-30.1l2.4-0.4c0.1,0.5,0.3,0.8,0.6,1.1s0.8,0.4,1.3,0.4c0.6,0,1.1-0.1,1.4-0.3
					c0.2-0.2,0.3-0.4,0.3-0.6c0-0.2-0.1-0.3-0.2-0.5c-0.1-0.1-0.4-0.2-0.8-0.3c-1.9-0.4-3.2-0.8-3.7-1.2c-0.7-0.5-1.1-1.2-1.1-2
					c0-0.8,0.3-1.4,0.9-2c0.6-0.5,1.6-0.8,2.9-0.8c1.2,0,2.2,0.2,2.8,0.6c0.6,0.4,1,1,1.2,1.8l-2.3,0.4c-0.1-0.4-0.3-0.6-0.6-0.8
					s-0.7-0.3-1.2-0.3c-0.6,0-1.1,0.1-1.4,0.3c-0.2,0.1-0.3,0.3-0.3,0.5c0,0.2,0.1,0.3,0.2,0.4c0.2,0.2,1,0.4,2.2,0.7
					c1.3,0.3,2.2,0.6,2.7,1.1c0.5,0.4,0.8,1,0.8,1.8c0,0.8-0.3,1.5-1,2.1c-0.7,0.6-1.7,0.9-3.1,0.9c-1.2,0-2.2-0.3-2.9-0.8
					C111.6-28.6,111.2-29.2,110.9-30.1z"/>
			</g>
		</g>
	</g>
	<g enable-background="new    ">
		<path fill="#FFFFFF" d="M64.8-45.9h-5.5v-20.7c-2,1.9-4.4,3.3-7.1,4.2v-5c1.4-0.5,3-1.4,4.7-2.7s2.8-2.8,3.5-4.6h4.5V-45.9z"/>
		<path fill="#FFFFFF" d="M72.8-53.5l5.3-0.6c0.2,1.4,0.6,2.4,1.4,3.1s1.6,1.1,2.7,1.1c1.1,0,2.1-0.4,2.9-1.3s1.2-2,1.2-3.5
			c0-1.4-0.4-2.5-1.1-3.3s-1.6-1.2-2.7-1.2c-0.7,0-1.5,0.1-2.5,0.4l0.6-4.5c1.5,0,2.6-0.3,3.4-1S85-65.9,85-67c0-1-0.3-1.7-0.9-2.3
			s-1.3-0.9-2.3-0.9c-0.9,0-1.7,0.3-2.4,1s-1.1,1.6-1.2,2.9l-5.1-0.9c0.4-1.7,0.9-3.1,1.6-4.2s1.7-1.8,3-2.4
			c1.3-0.6,2.7-0.9,4.3-0.9c2.7,0,4.9,0.9,6.5,2.6c1.3,1.4,2,3,2,4.8c0,2.5-1.4,4.5-4.1,6c1.6,0.4,3,1.1,3.9,2.4s1.5,2.7,1.5,4.4
			c0,2.5-0.9,4.7-2.8,6.4s-4.1,2.7-6.9,2.7c-2.6,0-4.7-0.7-6.4-2.2S73.1-51.1,72.8-53.5z"/>
		<path fill="#FFFFFF" d="M96.4-45.9v-5.5h5.5v5.5H96.4z"/>
		<path fill="#FFFFFF" d="M111.1-61.4c-1.4-0.6-2.5-1.4-3.1-2.5s-1-2.2-1-3.4c0-2.1,0.7-3.9,2.2-5.3c1.5-1.4,3.6-2.1,6.4-2.1
			c2.7,0,4.8,0.7,6.3,2.1c1.5,1.4,2.3,3.2,2.3,5.3c0,1.3-0.3,2.5-1,3.5s-1.7,1.8-2.9,2.4c1.6,0.6,2.8,1.6,3.6,2.8s1.2,2.6,1.2,4.2
			c0,2.6-0.8,4.8-2.5,6.4s-3.9,2.5-6.7,2.5c-2.6,0-4.8-0.7-6.5-2.1c-2-1.6-3.1-3.8-3.1-6.6c0-1.5,0.4-3,1.2-4.3
			S109.4-60.7,111.1-61.4z M111.7-54.6c0,1.5,0.4,2.7,1.2,3.5s1.7,1.3,2.9,1.3c1.1,0,2.1-0.4,2.8-1.2s1.1-2,1.1-3.5
			c0-1.3-0.4-2.4-1.1-3.2s-1.7-1.2-2.9-1.2c-1.3,0-2.3,0.5-3,1.4S111.7-55.7,111.7-54.6z M112.2-66.9c0,1.1,0.3,1.9,0.9,2.6
			s1.4,0.9,2.5,0.9c1,0,1.9-0.3,2.5-0.9s0.9-1.5,0.9-2.6c0-1-0.3-1.9-0.9-2.5s-1.4-0.9-2.5-0.9c-1.1,0-1.9,0.3-2.5,0.9
			S112.2-67.9,112.2-66.9z"/>
	</g>
</g>
<g>
	<g>
		<circle fill="#929497" cx="-39.1" cy="100.4" r="47.5"/>
		<g>
			<g enable-background="new    ">
				<path fill="#FFFFFF" d="M-69.6,114.8h2.2v1.2c0.8-1,1.7-1.4,2.8-1.4c0.6,0,1.1,0.1,1.5,0.4c0.4,0.2,0.8,0.6,1.1,1.1
					c0.4-0.5,0.8-0.8,1.3-1.1c0.5-0.2,1-0.4,1.5-0.4c0.7,0,1.2,0.1,1.7,0.4c0.5,0.3,0.8,0.7,1,1.2c0.2,0.4,0.2,1,0.2,1.9v5.8h-2.4
					v-5.2c0-0.9-0.1-1.5-0.2-1.7c-0.2-0.3-0.6-0.5-1-0.5c-0.3,0-0.7,0.1-1,0.3c-0.3,0.2-0.5,0.5-0.6,0.9c-0.1,0.4-0.2,1-0.2,1.9v4.4
					h-2.4v-5c0-0.9,0-1.5-0.1-1.7s-0.2-0.4-0.4-0.6c-0.2-0.1-0.4-0.2-0.7-0.2c-0.4,0-0.7,0.1-1,0.3c-0.3,0.2-0.5,0.5-0.6,0.9
					c-0.1,0.4-0.2,1-0.2,1.9v4.4h-2.4L-69.6,114.8L-69.6,114.8L-69.6,114.8z"/>
				<path fill="#FFFFFF" d="M-54.4,119.2c0-0.8,0.2-1.6,0.6-2.3c0.4-0.7,0.9-1.3,1.7-1.7c0.7-0.4,1.5-0.6,2.4-0.6
					c1.4,0,2.5,0.4,3.4,1.3c0.9,0.9,1.3,2,1.3,3.4c0,1.4-0.4,2.5-1.3,3.4c-0.9,0.9-2,1.4-3.3,1.4c-0.8,0-1.6-0.2-2.4-0.6
					c-0.8-0.4-1.3-0.9-1.7-1.7C-54.2,121.1-54.4,120.2-54.4,119.2z M-52,119.3c0,0.9,0.2,1.6,0.6,2.1c0.4,0.5,1,0.7,1.6,0.7
					c0.6,0,1.2-0.2,1.6-0.7c0.4-0.5,0.6-1.2,0.6-2.1c0-0.9-0.2-1.6-0.6-2.1c-0.4-0.5-1-0.7-1.6-0.7c-0.6,0-1.2,0.2-1.6,0.7
					C-51.7,117.7-52,118.4-52,119.3z"/>
				<path fill="#FFFFFF" d="M-34.9,123.8h-2.4v-4.6c0-1-0.1-1.6-0.2-1.9c-0.1-0.3-0.3-0.5-0.5-0.7c-0.2-0.2-0.5-0.2-0.8-0.2
					c-0.4,0-0.8,0.1-1.1,0.3c-0.3,0.2-0.6,0.5-0.7,0.9c-0.1,0.4-0.2,1.1-0.2,2.1v4.1h-2.4v-9.1h2.2v1.3c0.8-1,1.8-1.5,3-1.5
					c0.5,0,1,0.1,1.5,0.3c0.4,0.2,0.8,0.4,1,0.7c0.2,0.3,0.4,0.6,0.5,1c0.1,0.4,0.1,0.9,0.1,1.6L-34.9,123.8L-34.9,123.8z"/>
				<path fill="#FFFFFF" d="M-28.3,114.8v1.9h-1.6v3.7c0,0.7,0,1.2,0,1.3c0,0.1,0.1,0.2,0.2,0.3c0.1,0.1,0.2,0.1,0.4,0.1
					c0.2,0,0.5-0.1,1-0.2l0.2,1.9c-0.6,0.2-1.2,0.4-1.9,0.4c-0.4,0-0.8-0.1-1.2-0.2c-0.3-0.1-0.6-0.3-0.8-0.6
					c-0.2-0.2-0.3-0.5-0.3-0.9c-0.1-0.3-0.1-0.8-0.1-1.7v-4h-1.1v-1.9h1.1v-1.8l2.4-1.4v3.2H-28.3z"/>
				<path fill="#FFFFFF" d="M-24.2,111.3v4.6c0.8-0.9,1.7-1.4,2.8-1.4c0.6,0,1.1,0.1,1.5,0.3c0.4,0.2,0.8,0.5,1,0.8
					c0.2,0.3,0.4,0.7,0.5,1.1c0.1,0.4,0.1,1,0.1,1.8v5.3h-2.4V119c0-1,0-1.6-0.1-1.8c-0.1-0.3-0.3-0.5-0.5-0.6
					c-0.2-0.2-0.5-0.2-0.9-0.2c-0.4,0-0.8,0.1-1.1,0.3c-0.3,0.2-0.5,0.5-0.7,0.9c-0.1,0.4-0.2,1-0.2,1.7v4.5h-2.4v-12.5L-24.2,111.3
					L-24.2,111.3L-24.2,111.3z"/>
				<path fill="#FFFFFF" d="M-16.8,121.2l2.4-0.4c0.1,0.5,0.3,0.8,0.6,1.1c0.3,0.2,0.8,0.4,1.3,0.4c0.6,0,1.1-0.1,1.4-0.3
					c0.2-0.2,0.3-0.4,0.3-0.6c0-0.2-0.1-0.3-0.2-0.5c-0.1-0.1-0.4-0.2-0.8-0.3c-1.9-0.4-3.2-0.8-3.7-1.2c-0.7-0.5-1.1-1.2-1.1-2
					c0-0.8,0.3-1.4,0.9-2c0.6-0.5,1.6-0.8,2.9-0.8c1.2,0,2.2,0.2,2.8,0.6c0.6,0.4,1,1,1.2,1.8l-2.3,0.4c-0.1-0.4-0.3-0.6-0.6-0.8
					c-0.3-0.2-0.7-0.3-1.2-0.3c-0.6,0-1.1,0.1-1.4,0.3c-0.2,0.1-0.3,0.3-0.3,0.5c0,0.2,0.1,0.3,0.2,0.4c0.2,0.2,1,0.4,2.2,0.7
					c1.3,0.3,2.2,0.6,2.7,1.1c0.5,0.4,0.8,1,0.8,1.8c0,0.8-0.4,1.5-1,2.1c-0.7,0.6-1.7,0.9-3.1,0.9c-1.2,0-2.2-0.2-2.9-0.8
					C-16.1,122.8-16.6,122.1-16.8,121.2z"/>
			</g>
		</g>
	</g>
	<g enable-background="new    ">
		<path fill="#FFFFFF" d="M-62.4,106.4h-5.5V85.8c-2,1.9-4.4,3.3-7.1,4.2v-5c1.4-0.5,3-1.4,4.7-2.7s2.8-2.8,3.5-4.6h4.5V106.4z"/>
		<path fill="#FFFFFF" d="M-45.9,77.7c2.8,0,4.9,1,6.5,3c1.9,2.3,2.8,6.2,2.8,11.7c0,5.4-0.9,9.3-2.8,11.7c-1.5,2-3.7,2.9-6.5,2.9
			c-2.8,0-5-1.1-6.7-3.2s-2.6-6-2.6-11.5c0-5.4,0.9-9.3,2.8-11.6C-50.8,78.7-48.7,77.7-45.9,77.7z M-45.9,82.2
			c-0.7,0-1.3,0.2-1.8,0.6s-0.9,1.2-1.2,2.3c-0.4,1.4-0.6,3.8-0.6,7.2s0.2,5.7,0.5,6.9s0.8,2.1,1.3,2.5s1.1,0.6,1.8,0.6
			s1.3-0.2,1.8-0.6s0.9-1.2,1.2-2.3c0.4-1.4,0.6-3.8,0.6-7.1s-0.2-5.7-0.5-6.9s-0.8-2.1-1.3-2.5S-45.2,82.2-45.9,82.2z"/>
		<path fill="#FFFFFF" d="M-32.8,106.4v-5.5h5.5v5.5H-32.8z"/>
		<path fill="#FFFFFF" d="M-13,106.4v-5.8h-11.7v-4.8l12.4-18.2h4.6v18.2h3.6v4.8h-3.6v5.8H-13z M-13,95.8v-9.8l-6.6,9.8H-13z"/>
	</g>
</g>
</svg>
