<?xml version="1.0" encoding="utf-8"?>
<!-- Generator: Adobe Illustrator 18.0.0, SVG Export Plug-In . SVG Version: 6.00 Build 0)  -->
<!DOCTYPE svg PUBLIC "-//W3C//DTD SVG 1.1//EN" "http://www.w3.org/Graphics/SVG/1.1/DTD/svg11.dtd">
<svg version="1.1" id="Layer_1" xmlns="http://www.w3.org/2000/svg" xmlns:xlink="http://www.w3.org/1999/xlink" x="0px" y="0px"
	 viewBox="-147.8 -146 343.8 303.1" enable-background="new -147.8 -146 343.8 303.1" xml:space="preserve">
<rect x="-102.6" y="120" fill="#ECF6F2" width="298.2" height="37.1"/>
<path fill="none" stroke="#6BACA1" stroke-width="1.5523" stroke-linecap="round" stroke-linejoin="round" stroke-miterlimit="10" d="
	M-90-135.9"/>
<polyline fill="none" stroke="#D6ECE6" stroke-width="2.293" stroke-miterlimit="10" points="-101.6,-140 -101.6,120 195.6,120 "/>
<g>
	<g enable-background="new    ">
		<path fill="#4D4D4F" d="M-115.9-7.2v1.5h-5.5c0.1-0.5,0.2-1.1,0.5-1.6c0.3-0.5,0.9-1.1,1.8-2c0.7-0.7,1.1-1.1,1.3-1.3
			c0.2-0.3,0.3-0.6,0.3-1c0-0.3-0.1-0.6-0.3-0.8s-0.4-0.3-0.8-0.3c-0.3,0-0.6,0.1-0.8,0.3c-0.2,0.2-0.3,0.5-0.3,1l-1.6-0.2
			c0.1-0.9,0.4-1.5,0.9-1.9c0.5-0.4,1.1-0.6,1.8-0.6c0.8,0,1.4,0.2,1.9,0.7s0.7,1,0.7,1.6c0,0.4-0.1,0.7-0.2,1.1
			c-0.1,0.3-0.3,0.7-0.6,1c-0.2,0.2-0.5,0.6-1,1c-0.5,0.5-0.8,0.8-0.9,0.9s-0.2,0.3-0.3,0.4H-115.9z"/>
		<path fill="#4D4D4F" d="M-112.2-13.9c0.8,0,1.4,0.3,1.9,0.8c0.5,0.7,0.8,1.8,0.8,3.3c0,1.5-0.3,2.7-0.8,3.3
			c-0.4,0.6-1.1,0.8-1.9,0.8c-0.8,0-1.4-0.3-1.9-0.9c-0.5-0.6-0.7-1.7-0.7-3.3c0-1.5,0.3-2.6,0.8-3.3
			C-113.6-13.6-113-13.9-112.2-13.9z M-112.2-12.6c-0.2,0-0.4,0.1-0.5,0.2c-0.1,0.1-0.3,0.3-0.3,0.6c-0.1,0.4-0.2,1.1-0.2,2
			c0,1,0,1.6,0.1,2c0.1,0.4,0.2,0.6,0.4,0.7c0.1,0.1,0.3,0.2,0.5,0.2s0.4-0.1,0.5-0.2c0.1-0.1,0.3-0.3,0.3-0.6
			c0.1-0.4,0.2-1.1,0.2-2c0-1,0-1.6-0.1-2s-0.2-0.6-0.4-0.7C-111.8-12.6-112-12.6-112.2-12.6z"/>
	</g>
</g>
<g enable-background="new    ">
	<path fill="#6BACA1" d="M-139.9,75.7h-7.8v-2.5c0-1,0-1.6,0.1-1.9c0.1-0.4,0.4-0.8,0.8-1.1c0.4-0.3,0.9-0.5,1.5-0.5
		c0.5,0,0.9,0.1,1.2,0.3c0.3,0.2,0.6,0.4,0.8,0.7s0.3,0.5,0.4,0.8c0.1,0.4,0.1,0.9,0.1,1.6v1h2.9V75.7z M-146.4,74.1h2.2v-0.9
		c0-0.6,0-1-0.1-1.2c-0.1-0.2-0.2-0.4-0.4-0.5c-0.2-0.1-0.4-0.2-0.6-0.2c-0.3,0-0.5,0.1-0.7,0.2c-0.2,0.2-0.3,0.4-0.3,0.6
		c0,0.2-0.1,0.6-0.1,1.1V74.1z"/>
	<path fill="#6BACA1" d="M-141.7,65.2l0.2-1.5c0.5,0.2,1,0.5,1.2,0.9c0.3,0.4,0.4,0.9,0.4,1.5c0,1-0.3,1.7-1,2.2
		c-0.5,0.4-1.2,0.6-1.9,0.6c-0.9,0-1.7-0.2-2.2-0.7c-0.5-0.5-0.8-1.1-0.8-1.9c0-0.8,0.3-1.5,0.8-2s1.4-0.7,2.5-0.7v3.7
		c0.4,0,0.8-0.1,1-0.4s0.4-0.5,0.4-0.9c0-0.2-0.1-0.4-0.2-0.6C-141.2,65.4-141.4,65.3-141.7,65.2z M-143.2,65.1
		c-0.4,0-0.8,0.1-1,0.3s-0.3,0.5-0.3,0.8c0,0.3,0.1,0.6,0.4,0.8s0.6,0.3,1,0.3V65.1z"/>
	<path fill="#6BACA1" d="M-139.9,61v1.5h-5.6v-1.4h0.8c-0.4-0.2-0.6-0.5-0.7-0.6c-0.1-0.2-0.2-0.4-0.2-0.6c0-0.3,0.1-0.7,0.3-1
		l1.3,0.5c-0.2,0.3-0.2,0.5-0.2,0.7c0,0.2,0.1,0.4,0.2,0.5c0.1,0.1,0.3,0.3,0.6,0.3c0.3,0.1,0.9,0.1,1.9,0.1H-139.9z"/>
	<path fill="#6BACA1" d="M-143.9,53.3l0.3,1.5c-0.3,0-0.5,0.2-0.7,0.3s-0.2,0.4-0.2,0.7c0,0.4,0.1,0.7,0.4,0.9
		c0.3,0.2,0.7,0.3,1.3,0.3c0.7,0,1.1-0.1,1.4-0.3c0.3-0.2,0.4-0.5,0.4-0.9c0-0.3-0.1-0.5-0.2-0.7c-0.2-0.2-0.4-0.3-0.8-0.4l0.2-1.5
		c0.7,0.2,1.2,0.4,1.5,0.9c0.3,0.4,0.5,1,0.5,1.7c0,0.8-0.3,1.5-0.8,2c-0.5,0.5-1.2,0.7-2.2,0.7c-0.9,0-1.7-0.2-2.2-0.7
		c-0.5-0.5-0.8-1.2-0.8-2c0-0.7,0.1-1.2,0.4-1.6C-144.9,53.7-144.5,53.4-143.9,53.3z"/>
	<path fill="#6BACA1" d="M-141.7,48.9l0.2-1.5c0.5,0.2,1,0.5,1.2,0.9c0.3,0.4,0.4,0.9,0.4,1.5c0,1-0.3,1.7-1,2.2
		c-0.5,0.4-1.2,0.6-1.9,0.6c-0.9,0-1.7-0.2-2.2-0.7c-0.5-0.5-0.8-1.1-0.8-1.9c0-0.8,0.3-1.5,0.8-2s1.4-0.7,2.5-0.7V51
		c0.4,0,0.8-0.1,1-0.4c0.2-0.2,0.4-0.5,0.4-0.9c0-0.2-0.1-0.4-0.2-0.6C-141.2,49.1-141.4,49-141.7,48.9z M-143.2,48.8
		c-0.4,0-0.8,0.1-1,0.3s-0.3,0.5-0.3,0.8c0,0.3,0.1,0.6,0.4,0.8c0.2,0.2,0.6,0.3,1,0.3V48.8z"/>
	<path fill="#6BACA1" d="M-139.9,41v1.5h-2.9c-0.6,0-1,0-1.2,0.1c-0.2,0.1-0.3,0.2-0.4,0.3c-0.1,0.1-0.1,0.3-0.1,0.5
		c0,0.3,0.1,0.5,0.2,0.7s0.3,0.3,0.6,0.4s0.7,0.1,1.3,0.1h2.6v1.5h-5.6v-1.4h0.8c-0.6-0.5-1-1.1-1-1.9c0-0.3,0.1-0.6,0.2-0.9
		s0.3-0.5,0.5-0.6c0.2-0.1,0.4-0.2,0.6-0.3c0.2-0.1,0.6-0.1,1-0.1H-139.9z"/>
	<path fill="#6BACA1" d="M-145.6,36.9h1.2v1h2.3c0.5,0,0.7,0,0.8,0s0.1-0.1,0.2-0.1c0-0.1,0.1-0.2,0.1-0.3c0-0.1,0-0.3-0.1-0.6
		l1.2-0.1c0.1,0.3,0.2,0.7,0.2,1.2c0,0.3,0,0.5-0.1,0.7c-0.1,0.2-0.2,0.4-0.4,0.5c-0.1,0.1-0.3,0.2-0.6,0.2c-0.2,0-0.5,0-1,0h-2.5
		v0.7h-1.2v-0.7h-1.1l-0.9-1.5h2V36.9z"/>
	<path fill="#6BACA1" d="M-143.8,34.7l-0.2,1.4c-0.5-0.2-0.9-0.4-1.2-0.8c-0.3-0.4-0.4-0.9-0.4-1.7c0-0.7,0.1-1.2,0.2-1.5
		c0.2-0.3,0.4-0.6,0.6-0.7c0.2-0.1,0.7-0.2,1.3-0.2l1.7,0c0.5,0,0.9,0,1.1-0.1s0.5-0.1,0.8-0.3v1.5c-0.1,0-0.2,0.1-0.4,0.1
		c-0.1,0-0.1,0-0.2,0.1c0.2,0.3,0.4,0.5,0.6,0.8s0.2,0.6,0.2,0.9c0,0.6-0.2,1-0.5,1.4s-0.7,0.5-1.2,0.5c-0.3,0-0.6-0.1-0.9-0.2
		c-0.2-0.2-0.4-0.4-0.6-0.6s-0.2-0.7-0.3-1.2c-0.1-0.7-0.3-1.2-0.4-1.4h-0.1c-0.3,0-0.5,0.1-0.6,0.2s-0.2,0.4-0.2,0.8
		c0,0.3,0.1,0.5,0.2,0.6S-144.1,34.6-143.8,34.7z M-142.6,32.7c0.1,0.2,0.1,0.5,0.2,0.9c0.1,0.4,0.2,0.7,0.3,0.8
		c0.1,0.2,0.3,0.3,0.5,0.3c0.2,0,0.4-0.1,0.5-0.2c0.2-0.2,0.2-0.4,0.2-0.6c0-0.3-0.1-0.5-0.3-0.8c-0.1-0.2-0.3-0.3-0.5-0.4
		c-0.1,0-0.4-0.1-0.7-0.1H-142.6z"/>
	<path fill="#6BACA1" d="M-139.5,29.9l0.2-1.7c0.2,0,0.3-0.1,0.4-0.2c0.1-0.1,0.2-0.4,0.2-0.7c0-0.4-0.1-0.7-0.2-0.9
		c-0.1-0.1-0.2-0.2-0.4-0.3c-0.1,0-0.4-0.1-0.7-0.1h-0.8c0.6,0.4,0.9,1,0.9,1.7c0,0.8-0.3,1.4-1,1.8c-0.5,0.3-1.1,0.5-1.9,0.5
		c-0.9,0-1.7-0.2-2.2-0.7c-0.5-0.5-0.7-1-0.7-1.7c0-0.7,0.3-1.3,0.9-1.7h-0.8v-1.4h5.1c0.7,0,1.2,0.1,1.5,0.2
		c0.3,0.1,0.6,0.3,0.8,0.5s0.3,0.5,0.4,0.8c0.1,0.3,0.2,0.7,0.2,1.3c0,1-0.2,1.6-0.5,2s-0.7,0.6-1.2,0.6
		C-139.4,29.9-139.5,29.9-139.5,29.9z M-142.9,28.6c0.6,0,1-0.1,1.3-0.3c0.3-0.2,0.4-0.5,0.4-0.9c0-0.4-0.1-0.7-0.4-0.9
		c-0.3-0.3-0.7-0.4-1.3-0.4c-0.6,0-1,0.1-1.3,0.4c-0.3,0.2-0.4,0.5-0.4,0.9c0,0.4,0.1,0.7,0.4,0.9
		C-143.8,28.5-143.4,28.6-142.9,28.6z"/>
	<path fill="#6BACA1" d="M-141.7,19.9l0.2-1.5c0.5,0.2,1,0.5,1.2,0.9c0.3,0.4,0.4,0.9,0.4,1.5c0,1-0.3,1.7-1,2.2
		c-0.5,0.4-1.2,0.6-1.9,0.6c-0.9,0-1.7-0.2-2.2-0.7c-0.5-0.5-0.8-1.1-0.8-1.9c0-0.8,0.3-1.5,0.8-2s1.4-0.7,2.5-0.7v3.7
		c0.4,0,0.8-0.1,1-0.4c0.2-0.2,0.4-0.5,0.4-0.9c0-0.2-0.1-0.4-0.2-0.6C-141.2,20.1-141.4,20-141.7,19.9z M-143.2,19.8
		c-0.4,0-0.8,0.1-1,0.3c-0.2,0.2-0.3,0.5-0.3,0.8c0,0.3,0.1,0.6,0.4,0.8c0.2,0.2,0.6,0.3,1,0.3V19.8z"/>
	<path fill="#6BACA1" d="M-142.8,14.4c-0.5,0-1-0.1-1.4-0.4c-0.5-0.2-0.8-0.6-1.1-1c-0.2-0.4-0.4-0.9-0.4-1.5c0-0.9,0.3-1.6,0.8-2.1
		c0.6-0.5,1.3-0.8,2.1-0.8c0.9,0,1.6,0.3,2.1,0.8s0.8,1.2,0.8,2.1c0,0.5-0.1,1-0.3,1.5s-0.6,0.8-1,1.1
		C-141.6,14.3-142.2,14.4-142.8,14.4z M-142.7,12.9c0.6,0,1-0.1,1.3-0.4c0.3-0.3,0.4-0.6,0.4-1c0-0.4-0.1-0.7-0.4-1
		s-0.7-0.4-1.3-0.4c-0.6,0-1,0.1-1.3,0.4c-0.3,0.3-0.4,0.6-0.4,1c0,0.4,0.1,0.7,0.4,1C-143.7,12.8-143.3,12.9-142.7,12.9z"/>
	<path fill="#6BACA1" d="M-145.6,8.1V7.3h-0.4c-0.5,0-0.8-0.1-1.1-0.2s-0.4-0.3-0.6-0.6s-0.2-0.6-0.2-1c0-0.4,0.1-0.8,0.2-1.2l1,0.2
		c-0.1,0.2-0.1,0.5-0.1,0.7c0,0.2,0.1,0.4,0.2,0.5c0.1,0.1,0.3,0.1,0.6,0.1h0.4V4.7h1.2v1.1h4.5v1.5h-4.5v0.8H-145.6z"/>
	<path fill="#6BACA1" d="M-145.6,0.9v-1.4h0.8c-0.3-0.2-0.5-0.4-0.7-0.7c-0.2-0.3-0.3-0.6-0.3-1c0-0.7,0.3-1.2,0.8-1.7
		c0.5-0.5,1.2-0.7,2.1-0.7c0.9,0,1.7,0.2,2.2,0.7c0.5,0.5,0.8,1,0.8,1.7c0,0.3-0.1,0.6-0.2,0.8s-0.3,0.5-0.6,0.8h2.8v1.5H-145.6z
		 M-142.8-0.6c0.6,0,1.1-0.1,1.4-0.4c0.3-0.3,0.5-0.6,0.5-0.9c0-0.3-0.1-0.6-0.4-0.9c-0.3-0.2-0.7-0.3-1.4-0.3c-0.6,0-1,0.1-1.3,0.4
		c-0.3,0.2-0.4,0.5-0.4,0.9c0,0.4,0.1,0.7,0.4,0.9S-143.4-0.6-142.8-0.6z"/>
	<path fill="#6BACA1" d="M-143.8-6.9l-0.2,1.4c-0.5-0.2-0.9-0.4-1.2-0.8c-0.3-0.4-0.4-0.9-0.4-1.7c0-0.7,0.1-1.2,0.2-1.5
		c0.2-0.3,0.4-0.6,0.6-0.7c0.2-0.1,0.7-0.2,1.3-0.2l1.7,0c0.5,0,0.9,0,1.1-0.1s0.5-0.1,0.8-0.3v1.5c-0.1,0-0.2,0.1-0.4,0.1
		c-0.1,0-0.1,0-0.2,0.1c0.2,0.3,0.4,0.5,0.6,0.8s0.2,0.6,0.2,0.9c0,0.6-0.2,1-0.5,1.4s-0.7,0.5-1.2,0.5c-0.3,0-0.6-0.1-0.9-0.2
		c-0.2-0.2-0.4-0.4-0.6-0.6s-0.2-0.7-0.3-1.2c-0.1-0.7-0.3-1.2-0.4-1.4h-0.1c-0.3,0-0.5,0.1-0.6,0.2s-0.2,0.4-0.2,0.8
		c0,0.3,0.1,0.5,0.2,0.6S-144.1-7-143.8-6.9z M-142.6-8.9c0.1,0.2,0.1,0.5,0.2,0.9c0.1,0.4,0.2,0.7,0.3,0.8c0.1,0.2,0.3,0.3,0.5,0.3
		c0.2,0,0.4-0.1,0.5-0.2c0.2-0.2,0.2-0.4,0.2-0.6c0-0.3-0.1-0.5-0.3-0.8c-0.1-0.2-0.3-0.3-0.5-0.4c-0.1,0-0.4-0.1-0.7-0.1H-142.6z"
		/>
	<path fill="#6BACA1" d="M-145.6-14.4h1.2v1h2.3c0.5,0,0.7,0,0.8,0s0.1-0.1,0.2-0.1c0-0.1,0.1-0.2,0.1-0.3c0-0.1,0-0.3-0.1-0.6
		l1.2-0.1c0.1,0.3,0.2,0.7,0.2,1.2c0,0.3,0,0.5-0.1,0.7c-0.1,0.2-0.2,0.4-0.4,0.5c-0.1,0.1-0.3,0.2-0.6,0.2c-0.2,0-0.5,0-1,0h-2.5
		v0.7h-1.2v-0.7h-1.1l-0.9-1.5h2V-14.4z"/>
	<path fill="#6BACA1" d="M-146.3-15.5h-1.4V-17h1.4V-15.5z M-139.9-15.5h-5.6V-17h5.6V-15.5z"/>
	<path fill="#6BACA1" d="M-141.7-21.8l0.2-1.5c0.5,0.2,1,0.5,1.2,0.9c0.3,0.4,0.4,0.9,0.4,1.5c0,1-0.3,1.7-1,2.2
		c-0.5,0.4-1.2,0.6-1.9,0.6c-0.9,0-1.7-0.2-2.2-0.7c-0.5-0.5-0.8-1.1-0.8-1.9c0-0.8,0.3-1.5,0.8-2s1.4-0.7,2.5-0.7v3.7
		c0.4,0,0.8-0.1,1-0.4c0.2-0.2,0.4-0.5,0.4-0.9c0-0.2-0.1-0.4-0.2-0.6C-141.2-21.6-141.4-21.7-141.7-21.8z M-143.2-21.8
		c-0.4,0-0.8,0.1-1,0.3c-0.2,0.2-0.3,0.5-0.3,0.8c0,0.3,0.1,0.6,0.4,0.8c0.2,0.2,0.6,0.3,1,0.3V-21.8z"/>
	<path fill="#6BACA1" d="M-139.9-29.7v1.5h-2.9c-0.6,0-1,0-1.2,0.1c-0.2,0.1-0.3,0.2-0.4,0.3c-0.1,0.1-0.1,0.3-0.1,0.5
		c0,0.3,0.1,0.5,0.2,0.7s0.3,0.3,0.6,0.4s0.7,0.1,1.3,0.1h2.6v1.5h-5.6v-1.4h0.8c-0.6-0.5-1-1.1-1-1.9c0-0.3,0.1-0.6,0.2-0.9
		s0.3-0.5,0.5-0.6c0.2-0.1,0.4-0.2,0.6-0.3c0.2-0.1,0.6-0.1,1-0.1H-139.9z"/>
	<path fill="#6BACA1" d="M-145.6-33.8h1.2v1h2.3c0.5,0,0.7,0,0.8,0s0.1-0.1,0.2-0.1c0-0.1,0.1-0.2,0.1-0.3c0-0.1,0-0.3-0.1-0.6
		l1.2-0.1c0.1,0.3,0.2,0.7,0.2,1.2c0,0.3,0,0.5-0.1,0.7c-0.1,0.2-0.2,0.4-0.4,0.5c-0.1,0.1-0.3,0.2-0.6,0.2c-0.2,0-0.5,0-1,0h-2.5
		v0.7h-1.2v-0.7h-1.1l-0.9-1.5h2V-33.8z"/>
	<path fill="#6BACA1" d="M-141.5-34.3l-0.2-1.5c0.3-0.1,0.5-0.2,0.7-0.4c0.2-0.2,0.2-0.5,0.2-0.8c0-0.4-0.1-0.7-0.2-0.9
		c-0.1-0.1-0.2-0.2-0.4-0.2c-0.1,0-0.2,0-0.3,0.1c-0.1,0.1-0.1,0.2-0.2,0.5c-0.3,1.2-0.5,2-0.7,2.3c-0.3,0.4-0.7,0.7-1.3,0.7
		c-0.5,0-0.9-0.2-1.2-0.6c-0.3-0.4-0.5-1-0.5-1.8c0-0.8,0.1-1.3,0.4-1.7c0.3-0.4,0.6-0.6,1.1-0.8l0.3,1.4c-0.2,0.1-0.4,0.2-0.5,0.3
		c-0.1,0.2-0.2,0.4-0.2,0.7c0,0.4,0.1,0.7,0.2,0.8c0.1,0.1,0.2,0.2,0.3,0.2c0.1,0,0.2,0,0.3-0.1c0.1-0.1,0.2-0.6,0.4-1.4
		c0.2-0.8,0.4-1.3,0.7-1.7c0.3-0.3,0.6-0.5,1.1-0.5c0.5,0,1,0.2,1.3,0.6c0.4,0.4,0.6,1.1,0.6,1.9c0,0.8-0.2,1.4-0.5,1.8
		C-140.6-34.7-141-34.4-141.5-34.3z"/>
	<path fill="#6BACA1" d="M-137.6-46.3v1c-0.8,0.5-1.7,1-2.5,1.2s-1.7,0.4-2.6,0.4c-1,0-2-0.2-2.9-0.5c-0.8-0.3-1.5-0.7-2.2-1.2v-1
		c1.1,0.5,2,0.8,2.7,1c0.8,0.2,1.5,0.3,2.4,0.3c0.6,0,1.2-0.1,1.8-0.2c0.6-0.1,1.2-0.3,1.7-0.4C-138.8-45.8-138.3-46-137.6-46.3z"/>
	<path fill="#6BACA1" d="M-139.6-50v1.1l-8.2-4.1v-1.1L-139.6-50z M-145.8-47.2c-0.7,0-1.2-0.2-1.5-0.5c-0.3-0.3-0.5-0.7-0.5-1.2
		c0-0.5,0.2-1,0.5-1.3c0.3-0.3,0.9-0.5,1.6-0.5c0.7,0,1.2,0.2,1.5,0.5c0.3,0.3,0.5,0.7,0.5,1.2c0,0.5-0.2,1-0.5,1.3
		C-144.6-47.3-145.1-47.2-145.8-47.2z M-145.8-48.3c0.5,0,0.8-0.1,1-0.2c0.1-0.1,0.2-0.2,0.2-0.4c0-0.2-0.1-0.3-0.2-0.4
		c-0.2-0.1-0.5-0.2-1-0.2s-0.8,0.1-1,0.2c-0.1,0.1-0.2,0.2-0.2,0.4c0,0.2,0.1,0.3,0.2,0.4C-146.6-48.4-146.3-48.3-145.8-48.3z
		 M-141.7-52.4c-0.7,0-1.2-0.2-1.5-0.5c-0.3-0.3-0.5-0.7-0.5-1.3c0-0.5,0.2-1,0.5-1.3s0.9-0.5,1.5-0.5c0.7,0,1.2,0.2,1.6,0.5
		s0.5,0.7,0.5,1.2c0,0.5-0.2,1-0.5,1.3C-140.4-52.6-141-52.4-141.7-52.4z M-141.7-53.6c0.5,0,0.8-0.1,1-0.2c0.1-0.1,0.2-0.2,0.2-0.4
		c0-0.2-0.1-0.3-0.2-0.4c-0.2-0.1-0.5-0.2-1-0.2s-0.8,0.1-1,0.2c-0.1,0.1-0.2,0.2-0.2,0.4s0.1,0.3,0.2,0.4
		C-142.5-53.6-142.2-53.6-141.7-53.6z"/>
	<path fill="#6BACA1" d="M-137.6-56.7c-0.6-0.3-1.1-0.5-1.4-0.6c-0.3-0.1-0.7-0.2-1.2-0.3s-0.9-0.2-1.2-0.2c-0.4,0-0.8-0.1-1.2-0.1
		c-0.8,0-1.6,0.1-2.4,0.3c-0.8,0.2-1.7,0.5-2.7,1v-1c0.8-0.5,1.6-0.9,2.4-1.2c0.9-0.3,1.7-0.4,2.6-0.4c0.7,0,1.5,0.1,2.4,0.3
		c0.9,0.3,1.9,0.7,2.8,1.3V-56.7z"/>
</g>
<g>
	<g enable-background="new    ">
		<path fill="#6BACA1" d="M-15.4,139.5c0-0.8,0.1-1.5,0.4-2.1c0.2-0.4,0.4-0.8,0.7-1.1c0.3-0.3,0.7-0.6,1-0.7
			c0.5-0.2,1.1-0.3,1.7-0.3c1.2,0,2.1,0.4,2.8,1.1c0.7,0.7,1.1,1.8,1.1,3.1c0,1.3-0.4,2.3-1.1,3c-0.7,0.7-1.6,1.1-2.8,1.1
			c-1.2,0-2.1-0.4-2.9-1.1C-15,141.8-15.4,140.7-15.4,139.5z M-13.7,139.4c0,0.9,0.2,1.6,0.6,2.1c0.4,0.5,1,0.7,1.6,0.7
			c0.6,0,1.2-0.2,1.6-0.7c0.4-0.5,0.6-1.2,0.6-2.1c0-0.9-0.2-1.6-0.6-2.1c-0.4-0.5-0.9-0.7-1.6-0.7c-0.7,0-1.2,0.2-1.6,0.7
			S-13.7,138.5-13.7,139.4z"/>
		<path fill="#6BACA1" d="M-6.4,143.4v-8h1.5v2.9c0.5-0.5,1-0.8,1.7-0.8c0.7,0,1.3,0.3,1.8,0.8c0.5,0.5,0.7,1.3,0.7,2.2
			c0,1-0.2,1.8-0.7,2.3c-0.5,0.5-1,0.8-1.7,0.8c-0.3,0-0.7-0.1-1-0.2c-0.3-0.2-0.6-0.4-0.8-0.7v0.9H-6.4z M-4.9,140.4
			c0,0.6,0.1,1,0.3,1.3c0.3,0.4,0.6,0.6,1.1,0.6c0.3,0,0.6-0.1,0.9-0.4c0.2-0.3,0.4-0.7,0.4-1.4c0-0.7-0.1-1.1-0.4-1.4
			c-0.2-0.3-0.6-0.4-0.9-0.4c-0.4,0-0.7,0.1-0.9,0.4S-4.9,139.8-4.9,140.4z"/>
		<path fill="#6BACA1" d="M2.1,137.6v5.6c0,0.7,0,1.3-0.1,1.6c-0.1,0.3-0.3,0.5-0.6,0.7c-0.3,0.2-0.6,0.3-1.1,0.3
			c-0.2,0-0.3,0-0.5,0s-0.4-0.1-0.6-0.1l0.3-1.3c0.1,0,0.1,0,0.2,0s0.1,0,0.2,0c0.2,0,0.3,0,0.4-0.1s0.2-0.1,0.2-0.2s0-0.4,0-0.9
			v-5.6H2.1z M0.5,136.8v-1.4h1.5v1.4H0.5z"/>
		<path fill="#6BACA1" d="M7,141.6l1.5,0.3c-0.2,0.6-0.5,1-0.9,1.3c-0.4,0.3-1,0.4-1.6,0.4c-1,0-1.8-0.3-2.2-1
			c-0.4-0.5-0.6-1.2-0.6-2c0-1,0.3-1.7,0.8-2.3c0.5-0.5,1.1-0.8,1.9-0.8c0.9,0,1.6,0.3,2.1,0.9c0.5,0.6,0.7,1.4,0.7,2.6H4.8
			c0,0.5,0.1,0.8,0.4,1.1c0.2,0.3,0.5,0.4,0.9,0.4c0.2,0,0.4-0.1,0.6-0.2S7,141.9,7,141.6z M7.1,140c0-0.4-0.1-0.8-0.3-1
			s-0.5-0.3-0.8-0.3c-0.3,0-0.6,0.1-0.8,0.4c-0.2,0.2-0.3,0.6-0.3,1H7.1z"/>
		<path fill="#6BACA1" d="M15,139.3l-1.5,0.3c-0.1-0.3-0.2-0.5-0.3-0.7c-0.2-0.2-0.4-0.2-0.7-0.2c-0.4,0-0.7,0.1-0.9,0.4
			c-0.2,0.3-0.3,0.7-0.3,1.3c0,0.7,0.1,1.2,0.3,1.5c0.2,0.3,0.5,0.4,0.9,0.4c0.3,0,0.5-0.1,0.7-0.2c0.2-0.2,0.3-0.5,0.4-0.9l1.5,0.3
			c-0.2,0.7-0.5,1.2-0.9,1.6s-1,0.5-1.8,0.5c-0.9,0-1.5-0.3-2-0.8c-0.5-0.5-0.8-1.3-0.8-2.2c0-1,0.3-1.7,0.8-2.2
			c0.5-0.5,1.2-0.8,2.1-0.8c0.7,0,1.3,0.2,1.7,0.5C14.5,138.2,14.8,138.7,15,139.3z"/>
		<path fill="#6BACA1" d="M18.8,137.6v1.2h-1.1v2.3c0,0.5,0,0.8,0,0.8c0,0.1,0.1,0.1,0.1,0.2c0.1,0.1,0.2,0.1,0.3,0.1
			c0.1,0,0.3,0,0.6-0.1l0.1,1.2c-0.4,0.2-0.8,0.2-1.2,0.2c-0.3,0-0.5,0-0.8-0.1c-0.2-0.1-0.4-0.2-0.5-0.4c-0.1-0.1-0.2-0.3-0.2-0.6
			c0-0.2,0-0.5,0-1.1v-2.5h-0.7v-1.2h0.7v-1.2l1.5-0.9v2.1H18.8z"/>
		<path fill="#6BACA1" d="M19.9,136.8v-1.4h1.5v1.4H19.9z M19.9,143.4v-5.8h1.5v5.8H19.9z"/>
		<path fill="#6BACA1" d="M24.6,143.4l-2.3-5.8h1.6l1.1,3l0.3,1c0.1-0.3,0.1-0.4,0.2-0.5c0.1-0.2,0.1-0.3,0.2-0.5l1.1-3h1.6
			l-2.3,5.8H24.6z"/>
		<path fill="#6BACA1" d="M32.6,141.6l1.5,0.3c-0.2,0.6-0.5,1-0.9,1.3c-0.4,0.3-1,0.4-1.6,0.4c-1,0-1.8-0.3-2.2-1
			c-0.4-0.5-0.6-1.2-0.6-2c0-1,0.3-1.7,0.8-2.3c0.5-0.5,1.1-0.8,1.9-0.8c0.9,0,1.6,0.3,2.1,0.9c0.5,0.6,0.7,1.4,0.7,2.6h-3.9
			c0,0.5,0.1,0.8,0.4,1.1c0.2,0.3,0.5,0.4,0.9,0.4c0.2,0,0.4-0.1,0.6-0.2C32.4,142.1,32.6,141.9,32.6,141.6z M32.7,140
			c0-0.4-0.1-0.8-0.3-1c-0.2-0.2-0.5-0.3-0.8-0.3c-0.3,0-0.6,0.1-0.8,0.4c-0.2,0.2-0.3,0.6-0.3,1H32.7z"/>
		<path fill="#6BACA1" d="M40.1,143.4h-1.5v-5.8H40v0.8c0.2-0.4,0.5-0.6,0.7-0.8c0.2-0.1,0.4-0.2,0.7-0.2c0.4,0,0.7,0.1,1,0.3
			l-0.5,1.3c-0.3-0.2-0.5-0.3-0.7-0.3c-0.2,0-0.4,0.1-0.5,0.2c-0.1,0.1-0.3,0.3-0.4,0.6c-0.1,0.3-0.1,1-0.1,2V143.4z"/>
		<path fill="#6BACA1" d="M46.4,141.6l1.5,0.3c-0.2,0.6-0.5,1-0.9,1.3c-0.4,0.3-1,0.4-1.6,0.4c-1,0-1.8-0.3-2.2-1
			c-0.4-0.5-0.6-1.2-0.6-2c0-1,0.3-1.7,0.8-2.3c0.5-0.5,1.1-0.8,1.9-0.8c0.9,0,1.6,0.3,2.1,0.9c0.5,0.6,0.7,1.4,0.7,2.6h-3.9
			c0,0.5,0.1,0.8,0.4,1.1c0.2,0.3,0.5,0.4,0.9,0.4c0.2,0,0.4-0.1,0.6-0.2C46.2,142.1,46.3,141.9,46.4,141.6z M46.5,140
			c0-0.4-0.1-0.8-0.3-1c-0.2-0.2-0.5-0.3-0.8-0.3c-0.3,0-0.6,0.1-0.8,0.4c-0.2,0.2-0.3,0.6-0.3,1H46.5z"/>
		<path fill="#6BACA1" d="M48.7,141.8l1.5-0.2c0.1,0.3,0.2,0.5,0.4,0.7s0.5,0.2,0.8,0.2c0.4,0,0.7-0.1,0.9-0.2
			c0.1-0.1,0.2-0.2,0.2-0.4c0-0.1,0-0.2-0.1-0.3c-0.1-0.1-0.2-0.1-0.5-0.2c-1.2-0.3-2-0.5-2.4-0.8c-0.5-0.3-0.7-0.8-0.7-1.3
			c0-0.5,0.2-0.9,0.6-1.3s1-0.5,1.9-0.5c0.8,0,1.4,0.1,1.8,0.4s0.7,0.6,0.8,1.2l-1.5,0.3c-0.1-0.2-0.2-0.4-0.4-0.5
			c-0.2-0.1-0.4-0.2-0.7-0.2c-0.4,0-0.7,0.1-0.9,0.2c-0.1,0.1-0.2,0.2-0.2,0.3c0,0.1,0.1,0.2,0.2,0.3c0.1,0.1,0.6,0.2,1.4,0.4
			c0.8,0.2,1.4,0.4,1.7,0.7c0.3,0.3,0.5,0.7,0.5,1.1c0,0.5-0.2,1-0.7,1.4s-1.1,0.6-2,0.6c-0.8,0-1.4-0.2-1.9-0.5
			C49.2,142.8,48.9,142.3,48.7,141.8z"/>
		<path fill="#6BACA1" d="M55.5,137.6h1.4v0.9c0.2-0.3,0.4-0.5,0.8-0.7c0.3-0.2,0.7-0.3,1.1-0.3c0.7,0,1.3,0.3,1.7,0.8
			s0.7,1.3,0.7,2.2c0,1-0.2,1.7-0.7,2.3c-0.5,0.5-1.1,0.8-1.7,0.8c-0.3,0-0.6-0.1-0.9-0.2c-0.3-0.1-0.5-0.3-0.8-0.7v2.9h-1.5V137.6z
			 M57,140.4c0,0.7,0.1,1.1,0.4,1.5s0.6,0.5,0.9,0.5c0.4,0,0.7-0.1,0.9-0.4c0.2-0.3,0.4-0.8,0.4-1.4c0-0.6-0.1-1.1-0.4-1.4
			c-0.2-0.3-0.5-0.4-0.9-0.4c-0.4,0-0.7,0.1-0.9,0.4C57.1,139.4,57,139.9,57,140.4z"/>
		<path fill="#6BACA1" d="M62,140.4c0-0.5,0.1-1,0.4-1.5c0.3-0.5,0.6-0.8,1.1-1.1c0.5-0.3,1-0.4,1.5-0.4c0.9,0,1.6,0.3,2.2,0.9
			c0.6,0.6,0.8,1.3,0.8,2.2c0,0.9-0.3,1.6-0.9,2.2c-0.6,0.6-1.3,0.9-2.1,0.9c-0.5,0-1-0.1-1.5-0.4s-0.9-0.6-1.1-1.1
			C62.1,141.7,62,141.1,62,140.4z M63.6,140.5c0,0.6,0.1,1,0.4,1.3c0.3,0.3,0.6,0.5,1,0.5s0.7-0.2,1-0.5c0.3-0.3,0.4-0.8,0.4-1.3
			c0-0.6-0.1-1-0.4-1.3c-0.3-0.3-0.6-0.5-1-0.5s-0.7,0.2-1,0.5C63.7,139.5,63.6,139.9,63.6,140.5z"/>
		<path fill="#6BACA1" d="M74.5,143.4H73v-3c0-0.6,0-1-0.1-1.2c-0.1-0.2-0.2-0.3-0.3-0.4c-0.1-0.1-0.3-0.2-0.5-0.2
			c-0.3,0-0.5,0.1-0.7,0.2c-0.2,0.1-0.4,0.3-0.4,0.6c-0.1,0.2-0.1,0.7-0.1,1.3v2.6h-1.5v-5.8h1.4v0.9c0.5-0.7,1.1-1,1.9-1
			c0.3,0,0.7,0.1,0.9,0.2c0.3,0.1,0.5,0.3,0.6,0.5s0.2,0.4,0.3,0.6s0.1,0.6,0.1,1V143.4z"/>
		<path fill="#6BACA1" d="M75.6,141.8l1.5-0.2c0.1,0.3,0.2,0.5,0.4,0.7s0.5,0.2,0.8,0.2c0.4,0,0.7-0.1,0.9-0.2
			c0.1-0.1,0.2-0.2,0.2-0.4c0-0.1,0-0.2-0.1-0.3c-0.1-0.1-0.2-0.1-0.5-0.2c-1.2-0.3-2-0.5-2.4-0.8c-0.5-0.3-0.7-0.8-0.7-1.3
			c0-0.5,0.2-0.9,0.6-1.3s1-0.5,1.9-0.5c0.8,0,1.4,0.1,1.8,0.4s0.7,0.6,0.8,1.2l-1.5,0.3c-0.1-0.2-0.2-0.4-0.4-0.5
			c-0.2-0.1-0.4-0.2-0.7-0.2c-0.4,0-0.7,0.1-0.9,0.2c-0.1,0.1-0.2,0.2-0.2,0.3c0,0.1,0.1,0.2,0.2,0.3c0.1,0.1,0.6,0.2,1.4,0.4
			c0.8,0.2,1.4,0.4,1.7,0.7c0.3,0.3,0.5,0.7,0.5,1.1c0,0.5-0.2,1-0.7,1.4s-1.1,0.6-2,0.6c-0.8,0-1.4-0.2-1.9-0.5
			C76,142.8,75.7,142.3,75.6,141.8z"/>
		<path fill="#6BACA1" d="M85.7,141.6l1.5,0.3c-0.2,0.6-0.5,1-0.9,1.3c-0.4,0.3-1,0.4-1.6,0.4c-1,0-1.8-0.3-2.2-1
			c-0.4-0.5-0.6-1.2-0.6-2c0-1,0.3-1.7,0.8-2.3c0.5-0.5,1.1-0.8,1.9-0.8c0.9,0,1.6,0.3,2.1,0.9c0.5,0.6,0.7,1.4,0.7,2.6h-3.9
			c0,0.5,0.1,0.8,0.4,1.1c0.2,0.3,0.5,0.4,0.9,0.4c0.2,0,0.4-0.1,0.6-0.2C85.5,142.1,85.6,141.9,85.7,141.6z M85.8,140
			c0-0.4-0.1-0.8-0.3-1c-0.2-0.2-0.5-0.3-0.8-0.3c-0.3,0-0.6,0.1-0.8,0.4c-0.2,0.2-0.3,0.6-0.3,1H85.8z"/>
		<path fill="#6BACA1" d="M93.2,143.4h-1.5v-5.8h1.4v0.8c0.2-0.4,0.5-0.6,0.7-0.8c0.2-0.1,0.4-0.2,0.7-0.2c0.4,0,0.7,0.1,1,0.3
			l-0.5,1.3c-0.3-0.2-0.5-0.3-0.7-0.3c-0.2,0-0.4,0.1-0.5,0.2c-0.1,0.1-0.3,0.3-0.4,0.6c-0.1,0.3-0.1,1-0.1,2V143.4z"/>
		<path fill="#6BACA1" d="M97.2,139.4l-1.4-0.3c0.2-0.6,0.4-1,0.8-1.3c0.4-0.3,1-0.4,1.7-0.4c0.7,0,1.2,0.1,1.5,0.2
			c0.3,0.2,0.6,0.4,0.7,0.6c0.1,0.3,0.2,0.7,0.2,1.4l0,1.8c0,0.5,0,0.9,0.1,1.1c0,0.2,0.1,0.5,0.3,0.8h-1.5c0-0.1-0.1-0.3-0.1-0.5
			c0-0.1,0-0.2-0.1-0.2c-0.3,0.3-0.5,0.4-0.8,0.6s-0.6,0.2-1,0.2c-0.6,0-1.1-0.2-1.4-0.5s-0.5-0.7-0.5-1.2c0-0.3,0.1-0.6,0.2-0.9
			s0.4-0.5,0.7-0.6c0.3-0.1,0.7-0.3,1.2-0.4c0.7-0.1,1.2-0.3,1.5-0.4v-0.2c0-0.3-0.1-0.5-0.2-0.6s-0.4-0.2-0.8-0.2
			c-0.3,0-0.5,0.1-0.6,0.2C97.5,138.9,97.3,139.1,97.2,139.4z M99.3,140.6c-0.2,0.1-0.5,0.1-0.9,0.2c-0.4,0.1-0.7,0.2-0.8,0.3
			c-0.2,0.1-0.3,0.3-0.3,0.5c0,0.2,0.1,0.4,0.2,0.6s0.4,0.2,0.6,0.2c0.3,0,0.5-0.1,0.8-0.3c0.2-0.1,0.3-0.3,0.4-0.5
			c0-0.1,0.1-0.4,0.1-0.8V140.6z"/>
		<path fill="#6BACA1" d="M105,137.6v1.2H104v2.3c0,0.5,0,0.8,0,0.8c0,0.1,0.1,0.1,0.1,0.2c0.1,0.1,0.2,0.1,0.3,0.1
			c0.1,0,0.3,0,0.6-0.1l0.1,1.2c-0.4,0.2-0.8,0.2-1.2,0.2c-0.3,0-0.5,0-0.8-0.1c-0.2-0.1-0.4-0.2-0.5-0.4c-0.1-0.1-0.2-0.3-0.2-0.6
			c0-0.2,0-0.5,0-1.1v-2.5h-0.7v-1.2h0.7v-1.2l1.5-0.9v2.1H105z"/>
		<path fill="#6BACA1" d="M109.5,141.6l1.5,0.3c-0.2,0.6-0.5,1-0.9,1.3c-0.4,0.3-1,0.4-1.6,0.4c-1,0-1.8-0.3-2.2-1
			c-0.4-0.5-0.6-1.2-0.6-2c0-1,0.3-1.7,0.8-2.3c0.5-0.5,1.1-0.8,1.9-0.8c0.9,0,1.6,0.3,2.1,0.9c0.5,0.6,0.7,1.4,0.7,2.6h-3.9
			c0,0.5,0.1,0.8,0.4,1.1c0.2,0.3,0.5,0.4,0.9,0.4c0.2,0,0.4-0.1,0.6-0.2C109.2,142.1,109.4,141.9,109.5,141.6z M109.5,140
			c0-0.4-0.1-0.8-0.3-1c-0.2-0.2-0.5-0.3-0.8-0.3c-0.3,0-0.6,0.1-0.8,0.4c-0.2,0.2-0.3,0.6-0.3,1H109.5z"/>
	</g>
</g>
<g>
	<g enable-background="new    ">
		<path fill="#4D4D4F" d="M-117.2,58.7h-1.6v-5.9c-0.6,0.5-1.2,0.9-2,1.2v-1.4c0.4-0.1,0.9-0.4,1.3-0.8c0.5-0.4,0.8-0.8,1-1.3h1.3
			V58.7z"/>
		<path fill="#4D4D4F" d="M-112.2,50.5c0.8,0,1.4,0.3,1.9,0.8c0.5,0.7,0.8,1.8,0.8,3.3c0,1.5-0.3,2.7-0.8,3.3
			c-0.4,0.6-1.1,0.8-1.9,0.8c-0.8,0-1.4-0.3-1.9-0.9c-0.5-0.6-0.7-1.7-0.7-3.3c0-1.5,0.3-2.6,0.8-3.3
			C-113.6,50.8-113,50.5-112.2,50.5z M-112.2,51.8c-0.2,0-0.4,0.1-0.5,0.2c-0.1,0.1-0.3,0.3-0.3,0.6c-0.1,0.4-0.2,1.1-0.2,2
			c0,1,0,1.6,0.1,2c0.1,0.4,0.2,0.6,0.4,0.7c0.1,0.1,0.3,0.2,0.5,0.2s0.4-0.1,0.5-0.2c0.1-0.1,0.3-0.3,0.3-0.6
			c0.1-0.4,0.2-1.1,0.2-2c0-1,0-1.6-0.1-2s-0.2-0.6-0.4-0.7C-111.8,51.9-112,51.8-112.2,51.8z"/>
	</g>
</g>
<g>
	<g enable-background="new    ">
		<path fill="#4D4D4F" d="M-110.1,111.8c0.8,0,1.4,0.3,1.9,0.8c0.5,0.7,0.8,1.8,0.8,3.3c0,1.5-0.3,2.7-0.8,3.3
			c-0.4,0.6-1.1,0.8-1.9,0.8c-0.8,0-1.4-0.3-1.9-0.9c-0.5-0.6-0.7-1.7-0.7-3.3c0-1.5,0.3-2.6,0.8-3.3
			C-111.5,112.1-110.9,111.8-110.1,111.8z M-110.1,113.1c-0.2,0-0.4,0.1-0.5,0.2c-0.1,0.1-0.3,0.3-0.3,0.6c-0.1,0.4-0.2,1.1-0.2,2
			c0,1,0,1.6,0.1,2c0.1,0.4,0.2,0.6,0.4,0.7c0.1,0.1,0.3,0.2,0.5,0.2s0.4-0.1,0.5-0.2c0.1-0.1,0.3-0.3,0.3-0.6
			c0.1-0.4,0.2-1.1,0.2-2c0-1,0-1.6-0.1-2s-0.2-0.6-0.4-0.7C-109.7,113.2-109.9,113.1-110.1,113.1z"/>
	</g>
</g>
<g>
	<g enable-background="new    ">
		<path fill="#4D4D4F" d="M-121.2-72.3l1.5-0.2c0,0.4,0.2,0.7,0.4,0.9c0.2,0.2,0.5,0.3,0.8,0.3c0.3,0,0.6-0.1,0.8-0.4
			c0.2-0.2,0.3-0.6,0.3-1c0-0.4-0.1-0.7-0.3-0.9c-0.2-0.2-0.5-0.3-0.8-0.3c-0.2,0-0.4,0-0.7,0.1l0.2-1.3c0.4,0,0.7-0.1,1-0.3
			c0.2-0.2,0.3-0.5,0.3-0.8c0-0.3-0.1-0.5-0.2-0.7c-0.2-0.2-0.4-0.2-0.7-0.2c-0.3,0-0.5,0.1-0.7,0.3c-0.2,0.2-0.3,0.5-0.3,0.8
			l-1.4-0.2c0.1-0.5,0.3-0.9,0.5-1.2c0.2-0.3,0.5-0.5,0.8-0.7s0.8-0.3,1.2-0.3c0.8,0,1.4,0.2,1.9,0.7c0.4,0.4,0.6,0.9,0.6,1.4
			c0,0.7-0.4,1.3-1.2,1.7c0.5,0.1,0.8,0.3,1.1,0.7c0.3,0.3,0.4,0.8,0.4,1.3c0,0.7-0.3,1.3-0.8,1.8c-0.5,0.5-1.2,0.8-2,0.8
			c-0.7,0-1.4-0.2-1.8-0.6C-120.9-71.1-121.2-71.6-121.2-72.3z"/>
		<path fill="#4D4D4F" d="M-112.2-78.3c0.8,0,1.4,0.3,1.9,0.8c0.5,0.7,0.8,1.8,0.8,3.3c0,1.5-0.3,2.7-0.8,3.3
			c-0.4,0.6-1.1,0.8-1.9,0.8c-0.8,0-1.4-0.3-1.9-0.9c-0.5-0.6-0.7-1.7-0.7-3.3c0-1.5,0.3-2.6,0.8-3.3
			C-113.6-78.1-113-78.3-112.2-78.3z M-112.2-77c-0.2,0-0.4,0.1-0.5,0.2c-0.1,0.1-0.3,0.3-0.3,0.6c-0.1,0.4-0.2,1.1-0.2,2
			c0,1,0,1.6,0.1,2c0.1,0.4,0.2,0.6,0.4,0.7c0.1,0.1,0.3,0.2,0.5,0.2s0.4-0.1,0.5-0.2c0.1-0.1,0.3-0.3,0.3-0.6
			c0.1-0.4,0.2-1.1,0.2-2c0-1,0-1.6-0.1-2s-0.2-0.6-0.4-0.7C-111.8-77-112-77-112.2-77z"/>
	</g>
</g>
<g>
	<g enable-background="new    ">
		<path fill="#4D4D4F" d="M-118.1-134.6v-1.6h-3.3v-1.4l3.5-5.2h1.3v5.2h1v1.4h-1v1.6H-118.1z M-118.1-137.6v-2.8l-1.9,2.8H-118.1z"
			/>
		<path fill="#4D4D4F" d="M-112.2-142.8c0.8,0,1.4,0.3,1.9,0.8c0.5,0.7,0.8,1.8,0.8,3.3c0,1.5-0.3,2.7-0.8,3.3
			c-0.4,0.6-1.1,0.8-1.9,0.8c-0.8,0-1.4-0.3-1.9-0.9c-0.5-0.6-0.7-1.7-0.7-3.3c0-1.5,0.3-2.6,0.8-3.3
			C-113.6-142.5-113-142.8-112.2-142.8z M-112.2-141.5c-0.2,0-0.4,0.1-0.5,0.2c-0.1,0.1-0.3,0.3-0.3,0.6c-0.1,0.4-0.2,1.1-0.2,2
			c0,1,0,1.6,0.1,2c0.1,0.4,0.2,0.6,0.4,0.7c0.1,0.1,0.3,0.2,0.5,0.2s0.4-0.1,0.5-0.2c0.1-0.1,0.3-0.3,0.3-0.6
			c0.1-0.4,0.2-1.1,0.2-2c0-1,0-1.6-0.1-2s-0.2-0.6-0.4-0.7C-111.8-141.4-112-141.5-112.2-141.5z"/>
	</g>
</g>
</svg>
