<?xml version="1.0" encoding="utf-8"?>
<!-- Generator: Adobe Illustrator 18.0.0, SVG Export Plug-In . SVG Version: 6.00 Build 0)  -->
<!DOCTYPE svg PUBLIC "-//W3C//DTD SVG 1.1//EN" "http://www.w3.org/Graphics/SVG/1.1/DTD/svg11.dtd">
<svg version="1.1" id="Layer_1" xmlns="http://www.w3.org/2000/svg" xmlns:xlink="http://www.w3.org/1999/xlink" x="0px" y="0px"
	 viewBox="-10.8 -24.1 70.9 98.1" enable-background="new -10.8 -24.1 70.9 98.1" xml:space="preserve">
<rect x="-10.8" y="-24.1" fill="#929497" width="70.9" height="98.1"/>
<g>
	<g enable-background="new    ">
		<path fill="#FFFFFF" d="M13.4,33.9l1.6,0.5c-0.2,0.9-0.6,1.5-1.2,2c-0.6,0.4-1.3,0.6-2.2,0.6c-1.1,0-2-0.4-2.7-1.1s-1-1.7-1-3
			c0-1.3,0.3-2.4,1-3.1c0.7-0.7,1.6-1.1,2.7-1.1c1,0,1.8,0.3,2.4,0.9c0.4,0.3,0.6,0.8,0.8,1.5l-1.6,0.4c-0.1-0.4-0.3-0.8-0.6-1
			c-0.3-0.2-0.7-0.4-1.1-0.4c-0.6,0-1.1,0.2-1.5,0.6c-0.4,0.4-0.6,1.1-0.6,2.1c0,1,0.2,1.8,0.6,2.2c0.4,0.4,0.8,0.7,1.4,0.7
			c0.4,0,0.8-0.1,1.1-0.4S13.2,34.5,13.4,33.9z"/>
		<path fill="#FFFFFF" d="M17.9,28.8v3c0.5-0.6,1.1-0.9,1.8-0.9c0.4,0,0.7,0.1,1,0.2c0.3,0.1,0.5,0.3,0.6,0.5
			c0.1,0.2,0.2,0.4,0.3,0.7s0.1,0.6,0.1,1.2v3.4h-1.6v-3.1c0-0.6,0-1-0.1-1.2c-0.1-0.2-0.2-0.3-0.3-0.4c-0.1-0.1-0.3-0.1-0.6-0.1
			c-0.3,0-0.5,0.1-0.7,0.2s-0.4,0.3-0.4,0.6c-0.1,0.3-0.1,0.6-0.1,1.1v2.9h-1.6v-8.1H17.9z"/>
		<path fill="#FFFFFF" d="M26.7,35l1.5,0.3c-0.2,0.6-0.5,1-0.9,1.3c-0.4,0.3-1,0.4-1.6,0.4c-1,0-1.8-0.3-2.3-1
			c-0.4-0.5-0.6-1.2-0.6-2c0-1,0.3-1.7,0.8-2.3c0.5-0.5,1.2-0.8,1.9-0.8c0.9,0,1.6,0.3,2.1,0.9s0.7,1.5,0.7,2.6h-3.9
			c0,0.5,0.1,0.8,0.4,1.1s0.5,0.4,0.9,0.4c0.2,0,0.4-0.1,0.6-0.2C26.5,35.5,26.6,35.3,26.7,35z M26.8,33.5c0-0.4-0.1-0.8-0.3-1
			c-0.2-0.2-0.5-0.4-0.8-0.4c-0.3,0-0.6,0.1-0.8,0.4c-0.2,0.2-0.3,0.6-0.3,1H26.8z"/>
		<path fill="#FFFFFF" d="M29.4,31h1.4v0.8c0.5-0.6,1.1-0.9,1.8-0.9c0.4,0,0.7,0.1,1,0.2c0.3,0.2,0.5,0.4,0.7,0.7
			c0.3-0.3,0.5-0.5,0.8-0.7c0.3-0.2,0.6-0.2,1-0.2c0.4,0,0.8,0.1,1.1,0.3c0.3,0.2,0.5,0.4,0.7,0.8c0.1,0.3,0.2,0.7,0.2,1.2v3.8h-1.6
			v-3.4c0-0.6-0.1-1-0.2-1.1c-0.1-0.2-0.4-0.3-0.7-0.3c-0.2,0-0.4,0.1-0.6,0.2c-0.2,0.1-0.3,0.3-0.4,0.6s-0.1,0.7-0.1,1.2v2.8H33
			v-3.2c0-0.6,0-0.9-0.1-1.1c-0.1-0.2-0.1-0.3-0.3-0.4s-0.3-0.1-0.5-0.1c-0.2,0-0.5,0.1-0.6,0.2s-0.3,0.3-0.4,0.6
			C31,33.1,31,33.5,31,34v2.8h-1.6V31z"/>
		<path fill="#FFFFFF" d="M39.3,33.9c0-0.5,0.1-1,0.4-1.5s0.6-0.9,1.1-1.1s1-0.4,1.6-0.4c0.9,0,1.6,0.3,2.2,0.9
			c0.6,0.6,0.9,1.3,0.9,2.2c0,0.9-0.3,1.6-0.9,2.2c-0.6,0.6-1.3,0.9-2.2,0.9c-0.5,0-1.1-0.1-1.5-0.4c-0.5-0.2-0.9-0.6-1.1-1.1
			S39.3,34.6,39.3,33.9z M40.8,34c0,0.6,0.1,1,0.4,1.3c0.3,0.3,0.6,0.5,1,0.5s0.7-0.2,1-0.5c0.3-0.3,0.4-0.8,0.4-1.3
			c0-0.6-0.1-1-0.4-1.3s-0.6-0.5-1-0.5s-0.7,0.2-1,0.5S40.8,33.4,40.8,34z"/>
	</g>
	<g enable-background="new    ">
		<path fill="#FFFFFF" d="M13.7,45.2L12.3,45c0.2-0.6,0.4-1,0.8-1.3s1-0.4,1.7-0.4c0.7,0,1.2,0.1,1.5,0.2c0.3,0.2,0.6,0.4,0.7,0.6
			c0.1,0.3,0.2,0.7,0.2,1.4l0,1.8c0,0.5,0,0.9,0.1,1.1c0,0.2,0.1,0.5,0.3,0.8h-1.5c0-0.1-0.1-0.3-0.1-0.5c0-0.1,0-0.2-0.1-0.2
			c-0.3,0.3-0.5,0.5-0.9,0.6c-0.3,0.1-0.6,0.2-1,0.2c-0.6,0-1.1-0.2-1.4-0.5c-0.3-0.3-0.5-0.7-0.5-1.2c0-0.3,0.1-0.6,0.2-0.9
			s0.4-0.5,0.7-0.6c0.3-0.1,0.7-0.3,1.2-0.4c0.7-0.1,1.2-0.3,1.5-0.4v-0.2c0-0.3-0.1-0.5-0.2-0.6s-0.4-0.2-0.8-0.2
			c-0.3,0-0.5,0.1-0.6,0.2C14,44.8,13.8,45,13.7,45.2z M15.8,46.5c-0.2,0.1-0.5,0.1-0.9,0.2c-0.4,0.1-0.7,0.2-0.8,0.3
			c-0.2,0.1-0.3,0.3-0.3,0.5c0,0.2,0.1,0.4,0.2,0.6s0.4,0.2,0.6,0.2c0.3,0,0.5-0.1,0.8-0.3c0.2-0.1,0.3-0.3,0.4-0.5
			c0-0.1,0.1-0.4,0.1-0.8V46.5z"/>
		<path fill="#FFFFFF" d="M18.9,49.3v-8.1h1.6v8.1H18.9z"/>
		<path fill="#FFFFFF" d="M21.7,46.3c0-0.5,0.1-1,0.4-1.5s0.6-0.9,1.1-1.1c0.5-0.3,1-0.4,1.6-0.4c0.9,0,1.6,0.3,2.2,0.9
			c0.6,0.6,0.9,1.3,0.9,2.2c0,0.9-0.3,1.6-0.9,2.2c-0.6,0.6-1.3,0.9-2.2,0.9c-0.5,0-1.1-0.1-1.5-0.4c-0.5-0.2-0.9-0.6-1.1-1.1
			S21.7,47,21.7,46.3z M23.2,46.4c0,0.6,0.1,1,0.4,1.3c0.3,0.3,0.6,0.5,1,0.5c0.4,0,0.7-0.2,1-0.5c0.3-0.3,0.4-0.8,0.4-1.3
			c0-0.6-0.1-1-0.4-1.3c-0.3-0.3-0.6-0.5-1-0.5c-0.4,0-0.7,0.2-1,0.5C23.4,45.4,23.2,45.8,23.2,46.4z"/>
		<path fill="#FFFFFF" d="M34.3,49.3h-1.6v-3c0-0.6,0-1-0.1-1.2s-0.2-0.3-0.3-0.4c-0.1-0.1-0.3-0.2-0.5-0.2c-0.3,0-0.5,0.1-0.7,0.2
			c-0.2,0.1-0.4,0.3-0.4,0.6c-0.1,0.2-0.1,0.7-0.1,1.3v2.7h-1.6v-5.9h1.4v0.9c0.5-0.7,1.2-1,1.9-1c0.3,0,0.7,0.1,0.9,0.2
			c0.3,0.1,0.5,0.3,0.6,0.5c0.1,0.2,0.2,0.4,0.3,0.7s0.1,0.6,0.1,1V49.3z"/>
		<path fill="#FFFFFF" d="M39.2,47.4l1.5,0.3c-0.2,0.6-0.5,1-0.9,1.3c-0.4,0.3-1,0.4-1.6,0.4c-1,0-1.8-0.3-2.3-1
			c-0.4-0.5-0.6-1.2-0.6-2c0-1,0.3-1.7,0.8-2.3c0.5-0.5,1.2-0.8,1.9-0.8c0.9,0,1.6,0.3,2.1,0.9c0.5,0.6,0.7,1.5,0.7,2.6H37
			c0,0.5,0.1,0.8,0.4,1.1c0.2,0.3,0.5,0.4,0.9,0.4c0.2,0,0.4-0.1,0.6-0.2C39,48,39.1,47.7,39.2,47.4z M39.3,45.9
			c0-0.4-0.1-0.8-0.3-1c-0.2-0.2-0.5-0.4-0.8-0.4c-0.3,0-0.6,0.1-0.8,0.4c-0.2,0.2-0.3,0.6-0.3,1H39.3z"/>
	</g>
	<g enable-background="new    ">
		<path fill="#FFFFFF" d="M9.1,64.1H8c-0.6-0.9-1-1.7-1.3-2.7c-0.3-0.9-0.4-1.8-0.4-2.7c0-1.1,0.2-2.1,0.5-3C7.1,55,7.5,54.2,8,53.5
			h1.1c-0.5,1.1-0.9,2.1-1,2.8c-0.2,0.8-0.3,1.6-0.3,2.5c0,0.6,0.1,1.2,0.2,1.9c0.1,0.6,0.3,1.2,0.5,1.8C8.5,62.9,8.7,63.4,9.1,64.1
			z"/>
		<path fill="#FFFFFF" d="M15.6,61.7H14v-3c0-0.6,0-1-0.1-1.2s-0.2-0.3-0.3-0.4c-0.1-0.1-0.3-0.2-0.5-0.2c-0.3,0-0.5,0.1-0.7,0.2
			c-0.2,0.1-0.4,0.3-0.4,0.6c-0.1,0.2-0.1,0.7-0.1,1.3v2.7h-1.6v-5.9h1.4v0.9c0.5-0.7,1.2-1,1.9-1c0.3,0,0.7,0.1,0.9,0.2
			c0.3,0.1,0.5,0.3,0.6,0.5c0.1,0.2,0.2,0.4,0.3,0.7s0.1,0.6,0.1,1V61.7z"/>
		<path fill="#FFFFFF" d="M16.8,57.2v-1.4h5.7v1.4H16.8z M16.8,59.7v-1.4h5.7v1.4H16.8z"/>
		<path fill="#FFFFFF" d="M26.5,61.7v-1.6h-3.3v-1.4l3.5-5.1H28v5.1h1v1.4h-1v1.6H26.5z M26.5,58.7V56l-1.9,2.8H26.5z"/>
		<path fill="#FFFFFF" d="M29.8,59.6l1.5-0.2c0,0.3,0.2,0.6,0.4,0.8c0.2,0.2,0.5,0.3,0.8,0.3c0.3,0,0.6-0.1,0.8-0.4
			c0.2-0.3,0.3-0.7,0.3-1.2c0-0.5-0.1-0.9-0.3-1.1c-0.2-0.2-0.5-0.4-0.9-0.4c-0.4,0-0.8,0.2-1.2,0.6L29.9,58l0.8-4.2h4.1v1.5h-2.9
			l-0.2,1.4c0.3-0.2,0.7-0.3,1.1-0.3c0.7,0,1.3,0.2,1.8,0.8s0.7,1.2,0.7,1.9c0,0.7-0.2,1.3-0.6,1.8c-0.5,0.7-1.3,1.1-2.2,1.1
			c-0.7,0-1.4-0.2-1.8-0.6S29.8,60.3,29.8,59.6z"/>
		<path fill="#FFFFFF" d="M40,61.7h-1.6v-5.8c-0.6,0.5-1.2,0.9-2,1.2v-1.4c0.4-0.1,0.8-0.4,1.3-0.8s0.8-0.8,1-1.3H40V61.7z"/>
		<path fill="#FFFFFF" d="M42.2,64.1c0.3-0.7,0.5-1.2,0.6-1.5c0.1-0.4,0.2-0.8,0.3-1.2c0.1-0.5,0.2-0.9,0.2-1.3
			c0.1-0.4,0.1-0.8,0.1-1.3c0-0.9-0.1-1.7-0.3-2.5c-0.2-0.8-0.5-1.7-1-2.8h1.1c0.6,0.8,1,1.6,1.3,2.5c0.3,0.9,0.5,1.8,0.5,2.7
			c0,0.8-0.1,1.6-0.4,2.5c-0.3,1-0.7,2-1.4,2.9H42.2z"/>
	</g>
</g>
</svg>
