<?xml version="1.0" encoding="utf-8"?>
<!-- Generator: Adobe Illustrator 18.0.0, SVG Export Plug-In . SVG Version: 6.00 Build 0)  -->
<!DOCTYPE svg PUBLIC "-//W3C//DTD SVG 1.1//EN" "http://www.w3.org/Graphics/SVG/1.1/DTD/svg11.dtd">
<svg version="1.1" id="Layer_1" xmlns="http://www.w3.org/2000/svg" xmlns:xlink="http://www.w3.org/1999/xlink" x="0px" y="0px"
	 viewBox="-1.3 14.9 51.3 19" enable-background="new -1.3 14.9 51.3 19" xml:space="preserve">
<g>
	<g enable-background="new    ">
		<path fill="#929497" d="M45.9,20l-1-0.8c0.3-0.4,0.7-0.7,1-1c0.1-0.1,0.2-0.2,0.3-0.3c-0.1,0-0.4-0.1-1-0.2
			c-0.4-0.1-0.6-0.2-0.8-0.2l0.4-1.2c0.6,0.2,1.1,0.5,1.6,0.8c-0.1-0.7-0.2-1.3-0.2-1.8h1.2c0,0.3-0.1,0.9-0.2,1.8
			c0.1,0,0.3-0.1,0.6-0.3c0.4-0.2,0.8-0.3,1.1-0.5l0.4,1.2c-0.5,0.1-1.1,0.2-1.7,0.3l0.8,0.9c0.2,0.2,0.3,0.3,0.4,0.5l-1,0.7
			l-0.9-1.5C46.6,18.9,46.3,19.5,45.9,20z"/>
	</g>
</g>
<g>
	<g enable-background="new    ">
		<path fill="#929497" d="M6.2,33.2H2.9V20.9c-1.2,1.1-2.6,1.9-4.2,2.5v-3c0.8-0.3,1.8-0.8,2.8-1.6c1-0.8,1.7-1.7,2-2.7h2.6V33.2z"
			/>
		<path fill="#929497" d="M11,19.5v-3h11.1v2.4c-0.9,0.9-1.9,2.2-2.8,3.9s-1.7,3.5-2.2,5.4c-0.5,1.9-0.7,3.6-0.7,5.1h-3.1
			c0.1-2.3,0.5-4.7,1.5-7.2c0.9-2.4,2.1-4.6,3.7-6.5H11z"/>
		<path fill="#929497" d="M24.2,20.4c0-1.5,0.3-2.6,1-3.4c0.7-0.7,1.6-1.1,2.7-1.1c1.2,0,2.1,0.4,2.8,1.1c0.7,0.7,1,1.9,1,3.4
			c0,1.5-0.3,2.6-1,3.4c-0.7,0.7-1.6,1.1-2.7,1.1c-1.2,0-2.1-0.4-2.8-1.1C24.6,23.1,24.2,21.9,24.2,20.4z M26.8,20.4
			c0,1.1,0.1,1.8,0.4,2.2c0.2,0.3,0.5,0.4,0.8,0.4c0.3,0,0.6-0.1,0.8-0.4c0.2-0.4,0.4-1.1,0.4-2.2c0-1.1-0.1-1.8-0.4-2.2
			c-0.2-0.3-0.5-0.4-0.8-0.4c-0.3,0-0.6,0.1-0.8,0.4C26.9,18.5,26.8,19.3,26.8,20.4z M30.4,33.8H28l9-17.9h2.3L30.4,33.8z
			 M35.7,29.4c0-1.5,0.3-2.6,1-3.4c0.7-0.7,1.6-1.1,2.7-1.1c1.2,0,2.1,0.4,2.7,1.1c0.7,0.7,1,1.9,1,3.4c0,1.5-0.3,2.7-1,3.4
			c-0.7,0.7-1.6,1.1-2.7,1.1c-1.2,0-2.1-0.4-2.8-1.1C36,32,35.7,30.9,35.7,29.4z M38.2,29.4c0,1.1,0.1,1.8,0.4,2.2
			c0.2,0.3,0.5,0.4,0.8,0.4c0.3,0,0.6-0.1,0.8-0.4c0.3-0.4,0.4-1.1,0.4-2.2c0-1.1-0.1-1.8-0.4-2.2c-0.2-0.3-0.5-0.4-0.8-0.4
			c-0.3,0-0.6,0.1-0.8,0.4C38.3,27.5,38.2,28.3,38.2,29.4z"/>
	</g>
</g>
</svg>
