<?xml version="1.0" encoding="utf-8"?>
<!-- Generator: Adobe Illustrator 18.0.0, SVG Export Plug-In . SVG Version: 6.00 Build 0)  -->
<!DOCTYPE svg PUBLIC "-//W3C//DTD SVG 1.1//EN" "http://www.w3.org/Graphics/SVG/1.1/DTD/svg11.dtd">
<svg version="1.1" id="Layer_1" xmlns="http://www.w3.org/2000/svg" xmlns:xlink="http://www.w3.org/1999/xlink" x="0px" y="0px"
	 viewBox="-11.2 -93.2 70.9 237.2" enable-background="new -11.2 -93.2 70.9 237.2" xml:space="preserve">
<rect x="-11.2" y="-93.2" fill="#6BACA1" width="70.9" height="237.2"/>
<g enable-background="new    ">
	<path fill="#FFFFFF" d="M-1.7,102.9c0-0.8,0.1-1.5,0.4-2.1c0.2-0.4,0.4-0.8,0.8-1.1c0.3-0.3,0.7-0.6,1-0.7c0.5-0.2,1.1-0.3,1.7-0.3
		c1.2,0,2.1,0.4,2.9,1.1s1.1,1.8,1.1,3.1c0,1.3-0.4,2.3-1.1,3.1S3.4,107,2.2,107c-1.2,0-2.2-0.4-2.9-1.1
		C-1.4,105.2-1.7,104.2-1.7,102.9z M0,102.8c0,0.9,0.2,1.6,0.6,2.1c0.4,0.5,1,0.7,1.6,0.7s1.2-0.2,1.6-0.7c0.4-0.5,0.6-1.2,0.6-2.1
		c0-0.9-0.2-1.6-0.6-2.1c-0.4-0.5-0.9-0.7-1.6-0.7s-1.2,0.2-1.6,0.7C0.2,101.2,0,101.9,0,102.8z"/>
	<path fill="#FFFFFF" d="M7.4,101h1.4v0.9c0.2-0.3,0.4-0.5,0.8-0.7c0.3-0.2,0.7-0.3,1.1-0.3c0.7,0,1.3,0.3,1.7,0.8s0.7,1.3,0.7,2.2
		c0,1-0.2,1.7-0.7,2.3c-0.5,0.5-1.1,0.8-1.7,0.8c-0.3,0-0.6-0.1-0.9-0.2c-0.3-0.1-0.5-0.3-0.8-0.7v3H7.4V101z M8.9,103.9
		c0,0.7,0.1,1.1,0.4,1.5c0.3,0.3,0.6,0.5,1,0.5c0.4,0,0.7-0.1,0.9-0.4c0.2-0.3,0.4-0.8,0.4-1.4c0-0.6-0.1-1.1-0.4-1.4
		c-0.2-0.3-0.6-0.4-0.9-0.4c-0.4,0-0.7,0.1-0.9,0.4S8.9,103.3,8.9,103.9z"/>
	<path fill="#FFFFFF" d="M17,101v1.2h-1.1v2.4c0,0.5,0,0.8,0,0.8s0.1,0.1,0.1,0.2s0.2,0.1,0.3,0.1c0.1,0,0.4,0,0.6-0.1l0.1,1.2
		c-0.4,0.2-0.8,0.2-1.2,0.2c-0.3,0-0.5,0-0.8-0.1c-0.2-0.1-0.4-0.2-0.5-0.4c-0.1-0.1-0.2-0.4-0.2-0.6c0-0.2,0-0.5,0-1.1v-2.6h-0.7
		V101h0.7v-1.2l1.6-0.9v2.1H17z"/>
	<path fill="#FFFFFF" d="M18.1,100.2v-1.4h1.6v1.4H18.1z M18.1,106.9V101h1.6v5.9H18.1z"/>
	<path fill="#FFFFFF" d="M20.7,105.2l1.6-0.2c0.1,0.3,0.2,0.5,0.4,0.7c0.2,0.2,0.5,0.2,0.9,0.2c0.4,0,0.7-0.1,0.9-0.2
		c0.1-0.1,0.2-0.2,0.2-0.4c0-0.1,0-0.2-0.1-0.3c-0.1-0.1-0.2-0.1-0.5-0.2c-1.3-0.3-2-0.5-2.4-0.8c-0.5-0.3-0.7-0.8-0.7-1.3
		c0-0.5,0.2-0.9,0.6-1.3c0.4-0.3,1-0.5,1.9-0.5c0.8,0,1.4,0.1,1.8,0.4c0.4,0.3,0.7,0.6,0.8,1.2l-1.5,0.3c-0.1-0.2-0.2-0.4-0.4-0.5
		c-0.2-0.1-0.4-0.2-0.7-0.2c-0.4,0-0.7,0.1-0.9,0.2c-0.1,0.1-0.2,0.2-0.2,0.3c0,0.1,0.1,0.2,0.2,0.3c0.1,0.1,0.6,0.2,1.4,0.4
		c0.8,0.2,1.4,0.4,1.7,0.7c0.3,0.3,0.5,0.7,0.5,1.2c0,0.5-0.2,1-0.7,1.4s-1.1,0.6-2,0.6c-0.8,0-1.4-0.2-1.9-0.5
		S20.8,105.8,20.7,105.2z"/>
	<path fill="#FFFFFF" d="M30.2,101v1.2h-1.1v2.4c0,0.5,0,0.8,0,0.8s0.1,0.1,0.1,0.2c0.1,0.1,0.2,0.1,0.3,0.1c0.1,0,0.4,0,0.6-0.1
		l0.1,1.2c-0.4,0.2-0.8,0.2-1.2,0.2c-0.3,0-0.5,0-0.8-0.1c-0.2-0.1-0.4-0.2-0.5-0.4c-0.1-0.1-0.2-0.4-0.2-0.6c0-0.2,0-0.5,0-1.1
		v-2.6h-0.7V101h0.7v-1.2l1.6-0.9v2.1H30.2z"/>
	<path fill="#FFFFFF" d="M32.4,102.8l-1.4-0.3c0.2-0.6,0.4-1,0.8-1.3s1-0.4,1.7-0.4c0.7,0,1.2,0.1,1.5,0.2c0.3,0.2,0.6,0.4,0.7,0.6
		c0.1,0.3,0.2,0.7,0.2,1.4l0,1.8c0,0.5,0,0.9,0.1,1.1s0.1,0.5,0.3,0.8h-1.5c0-0.1-0.1-0.3-0.1-0.5c0-0.1,0-0.2-0.1-0.2
		c-0.3,0.3-0.5,0.5-0.9,0.6s-0.6,0.2-1,0.2c-0.6,0-1.1-0.2-1.4-0.5c-0.3-0.3-0.5-0.7-0.5-1.2c0-0.3,0.1-0.6,0.2-0.9s0.4-0.5,0.7-0.6
		c0.3-0.1,0.7-0.3,1.2-0.4c0.7-0.1,1.2-0.3,1.5-0.4v-0.2c0-0.3-0.1-0.5-0.2-0.6c-0.1-0.1-0.4-0.2-0.8-0.2c-0.3,0-0.5,0.1-0.6,0.2
		C32.7,102.4,32.5,102.5,32.4,102.8z M34.5,104.1c-0.2,0.1-0.5,0.1-0.9,0.2c-0.4,0.1-0.7,0.2-0.8,0.3c-0.2,0.1-0.3,0.3-0.3,0.5
		c0,0.2,0.1,0.4,0.2,0.6s0.4,0.2,0.6,0.2c0.3,0,0.5-0.1,0.8-0.3c0.2-0.1,0.3-0.3,0.4-0.5c0-0.1,0.1-0.4,0.1-0.8V104.1z"/>
	<path fill="#FFFFFF" d="M39.2,106.9l-2.4-5.9h1.6l1.1,3l0.3,1c0.1-0.3,0.1-0.4,0.2-0.5c0.1-0.2,0.1-0.3,0.2-0.5l1.1-3h1.6l-2.3,5.9
		H39.2z"/>
	<path fill="#FFFFFF" d="M43.9,100.2v-1.4h1.6v1.4H43.9z M43.9,106.9V101h1.6v5.9H43.9z"/>
	<path fill="#FFFFFF" d="M52.3,106.9h-1.6v-3c0-0.6,0-1-0.1-1.2s-0.2-0.3-0.3-0.4c-0.1-0.1-0.3-0.2-0.5-0.2c-0.3,0-0.5,0.1-0.7,0.2
		c-0.2,0.1-0.4,0.3-0.4,0.6c-0.1,0.2-0.1,0.7-0.1,1.3v2.7H47V101h1.4v0.9c0.5-0.7,1.2-1,1.9-1c0.3,0,0.7,0.1,0.9,0.2
		c0.3,0.1,0.5,0.3,0.6,0.5s0.2,0.4,0.3,0.7c0.1,0.2,0.1,0.6,0.1,1V106.9z"/>
</g>
<g enable-background="new    ">
	<path fill="#FFFFFF" d="M4.9,118.1V116H2.8v-1.5h2.1v-2.1h1.4v2.1h2.1v1.5H6.4v2.1H4.9z"/>
	<path fill="#FFFFFF" d="M18,115.2l-1.5,0.3c-0.1-0.3-0.2-0.5-0.4-0.7c-0.2-0.2-0.4-0.2-0.7-0.2c-0.4,0-0.7,0.1-0.9,0.4
		c-0.2,0.3-0.3,0.7-0.3,1.3c0,0.7,0.1,1.2,0.4,1.5s0.5,0.4,0.9,0.4c0.3,0,0.5-0.1,0.7-0.3c0.2-0.2,0.3-0.5,0.4-0.9l1.5,0.3
		c-0.2,0.7-0.5,1.2-0.9,1.6c-0.4,0.4-1.1,0.5-1.8,0.5c-0.9,0-1.5-0.3-2.1-0.8c-0.5-0.5-0.8-1.3-0.8-2.2c0-1,0.3-1.7,0.8-2.3
		c0.5-0.5,1.2-0.8,2.1-0.8c0.7,0,1.3,0.2,1.7,0.5C17.5,114.1,17.8,114.6,18,115.2z"/>
	<path fill="#FFFFFF" d="M20.7,111.2v3c0.5-0.6,1.1-0.9,1.8-0.9c0.4,0,0.7,0.1,1,0.2c0.3,0.1,0.5,0.3,0.6,0.5
		c0.1,0.2,0.2,0.4,0.3,0.7s0.1,0.6,0.1,1.2v3.4H23v-3.1c0-0.6,0-1-0.1-1.2c-0.1-0.2-0.2-0.3-0.3-0.4c-0.1-0.1-0.3-0.1-0.6-0.1
		c-0.3,0-0.5,0.1-0.7,0.2s-0.4,0.3-0.4,0.6c-0.1,0.3-0.1,0.6-0.1,1.1v2.9h-1.6v-8.1H20.7z"/>
	<path fill="#FFFFFF" d="M29.5,117.4l1.5,0.3c-0.2,0.6-0.5,1-0.9,1.3c-0.4,0.3-1,0.4-1.6,0.4c-1,0-1.8-0.3-2.3-1
		c-0.4-0.5-0.6-1.2-0.6-2c0-1,0.3-1.7,0.8-2.3c0.5-0.5,1.2-0.8,1.9-0.8c0.9,0,1.6,0.3,2.1,0.9s0.7,1.5,0.7,2.6h-3.9
		c0,0.5,0.1,0.8,0.4,1.1c0.2,0.3,0.5,0.4,0.9,0.4c0.2,0,0.4-0.1,0.6-0.2C29.3,118,29.4,117.7,29.5,117.4z M29.6,115.9
		c0-0.4-0.1-0.8-0.3-1c-0.2-0.2-0.5-0.4-0.8-0.4c-0.3,0-0.6,0.1-0.8,0.4c-0.2,0.2-0.3,0.6-0.3,1H29.6z"/>
	<path fill="#FFFFFF" d="M32.3,113.4h1.4v0.8c0.5-0.6,1.1-0.9,1.8-0.9c0.4,0,0.7,0.1,1,0.2c0.3,0.2,0.5,0.4,0.7,0.7
		c0.3-0.3,0.5-0.5,0.8-0.7c0.3-0.2,0.6-0.2,1-0.2c0.4,0,0.8,0.1,1.1,0.3c0.3,0.2,0.5,0.4,0.7,0.8c0.1,0.3,0.2,0.7,0.2,1.2v3.8h-1.6
		V116c0-0.6-0.1-1-0.2-1.1c-0.1-0.2-0.4-0.3-0.7-0.3c-0.2,0-0.4,0.1-0.6,0.2c-0.2,0.1-0.3,0.3-0.4,0.6s-0.1,0.7-0.1,1.2v2.8h-1.6
		v-3.2c0-0.6,0-0.9-0.1-1.1c-0.1-0.2-0.1-0.3-0.3-0.4s-0.3-0.1-0.5-0.1c-0.2,0-0.5,0.1-0.6,0.2c-0.2,0.1-0.3,0.3-0.4,0.6
		s-0.1,0.6-0.1,1.2v2.8h-1.6V113.4z"/>
	<path fill="#FFFFFF" d="M42.1,116.3c0-0.5,0.1-1,0.4-1.5s0.6-0.9,1.1-1.1s1-0.4,1.6-0.4c0.9,0,1.6,0.3,2.2,0.9
		c0.6,0.6,0.9,1.3,0.9,2.2c0,0.9-0.3,1.6-0.9,2.2c-0.6,0.6-1.3,0.9-2.2,0.9c-0.5,0-1.1-0.1-1.5-0.4c-0.5-0.2-0.9-0.6-1.1-1.1
		S42.1,117,42.1,116.3z M43.7,116.4c0,0.6,0.1,1,0.4,1.3c0.3,0.3,0.6,0.5,1,0.5s0.7-0.2,1-0.5c0.3-0.3,0.4-0.8,0.4-1.3
		c0-0.6-0.1-1-0.4-1.3s-0.6-0.5-1-0.5s-0.7,0.2-1,0.5S43.7,115.8,43.7,116.4z"/>
</g>
<g enable-background="new    ">
	<path fill="#FFFFFF" d="M8.2,134.1H7.1c-0.6-0.9-1-1.7-1.3-2.7c-0.3-0.9-0.4-1.8-0.4-2.7c0-1.1,0.2-2.1,0.5-3
		c0.3-0.8,0.7-1.6,1.2-2.3h1.1c-0.5,1.1-0.9,2.1-1,2.8c-0.2,0.8-0.3,1.6-0.3,2.5c0,0.6,0.1,1.2,0.2,1.9c0.1,0.6,0.3,1.2,0.5,1.8
		C7.6,132.9,7.9,133.4,8.2,134.1z"/>
	<path fill="#FFFFFF" d="M14.7,131.7h-1.6v-3c0-0.6,0-1-0.1-1.2s-0.2-0.3-0.3-0.4c-0.1-0.1-0.3-0.2-0.5-0.2c-0.3,0-0.5,0.1-0.7,0.2
		c-0.2,0.1-0.4,0.3-0.4,0.6c-0.1,0.2-0.1,0.7-0.1,1.3v2.7H9.4v-5.9h1.4v0.9c0.5-0.7,1.2-1,1.9-1c0.3,0,0.7,0.1,0.9,0.2
		c0.3,0.1,0.5,0.3,0.6,0.5c0.1,0.2,0.2,0.4,0.3,0.7s0.1,0.6,0.1,1V131.7z"/>
	<path fill="#FFFFFF" d="M16,127.2v-1.4h5.7v1.4H16z M16,129.7v-1.4h5.7v1.4H16z"/>
	<path fill="#FFFFFF" d="M25.6,131.7v-1.6h-3.3v-1.4l3.5-5.1h1.3v5.1h1v1.4h-1v1.6H25.6z M25.6,128.7V126l-1.9,2.8H25.6z"/>
	<path fill="#FFFFFF" d="M31.9,131.7v-1.6h-3.3v-1.4l3.5-5.1h1.3v5.1h1v1.4h-1v1.6H31.9z M31.9,128.7V126l-1.9,2.8H31.9z"/>
	<path fill="#FFFFFF" d="M35.2,125.2v-1.4h5.3v1.1c-0.4,0.4-0.9,1-1.3,1.9c-0.5,0.8-0.8,1.7-1,2.6c-0.2,0.9-0.4,1.7-0.4,2.4h-1.5
		c0-1.1,0.3-2.3,0.7-3.4c0.4-1.2,1-2.2,1.7-3.1H35.2z"/>
	<path fill="#FFFFFF" d="M41.3,134.1c0.3-0.7,0.5-1.2,0.6-1.5c0.1-0.4,0.2-0.8,0.3-1.2c0.1-0.5,0.2-0.9,0.2-1.3
		c0.1-0.4,0.1-0.8,0.1-1.3c0-0.9-0.1-1.7-0.3-2.5c-0.2-0.8-0.5-1.7-1-2.8h1.1c0.6,0.8,1,1.6,1.3,2.5c0.3,0.9,0.5,1.8,0.5,2.7
		c0,0.8-0.1,1.6-0.4,2.5c-0.3,1-0.7,2-1.4,2.9H41.3z"/>
</g>
</svg>
