<?xml version="1.0" encoding="utf-8"?>
<!-- Generator: Adobe Illustrator 18.0.0, SVG Export Plug-In . SVG Version: 6.00 Build 0)  -->
<!DOCTYPE svg PUBLIC "-//W3C//DTD SVG 1.1//EN" "http://www.w3.org/Graphics/SVG/1.1/DTD/svg11.dtd">
<svg version="1.1" id="Layer_1" xmlns="http://www.w3.org/2000/svg" xmlns:xlink="http://www.w3.org/1999/xlink" x="0px" y="0px"
	 viewBox="-135.4 -69 319.1 189.7" enable-background="new -135.4 -69 319.1 189.7" xml:space="preserve">
<g enable-background="new    ">
	<path fill="#4D4D4F" d="M49-39.4V-53h1.8v5.6h7.1V-53h1.8v13.7h-1.8v-6.4h-7.1v6.4H49z"/>
	<path fill="#4D4D4F" d="M62.6-51.1V-53h1.7v1.9H62.6z M62.6-39.4v-9.9h1.7v9.9H62.6z"/>
	<path fill="#4D4D4F" d="M66.5-38.5l1.6,0.2c0.1,0.5,0.3,0.9,0.6,1.1c0.4,0.3,1,0.5,1.7,0.5c0.8,0,1.4-0.2,1.8-0.5
		c0.4-0.3,0.7-0.7,0.9-1.3c0.1-0.3,0.1-1.1,0.1-2.2c-0.7,0.9-1.6,1.3-2.7,1.3c-1.4,0-2.4-0.5-3.2-1.5c-0.7-1-1.1-2.2-1.1-3.5
		c0-0.9,0.2-1.8,0.5-2.6c0.3-0.8,0.8-1.4,1.5-1.9c0.7-0.4,1.4-0.7,2.3-0.7c1.2,0,2.1,0.5,2.9,1.4v-1.2h1.5v8.6
		c0,1.5-0.2,2.6-0.5,3.3c-0.3,0.6-0.8,1.2-1.5,1.5c-0.7,0.4-1.5,0.6-2.5,0.6c-1.2,0-2.1-0.3-2.9-0.8C66.8-36.7,66.5-37.5,66.5-38.5z
		 M67.9-44.5c0,1.3,0.3,2.2,0.8,2.8c0.5,0.6,1.2,0.9,1.9,0.9c0.8,0,1.4-0.3,1.9-0.9c0.5-0.6,0.8-1.5,0.8-2.8c0-1.2-0.3-2.1-0.8-2.7
		c-0.5-0.6-1.2-0.9-1.9-0.9c-0.7,0-1.4,0.3-1.9,0.9C68.1-46.6,67.9-45.7,67.9-44.5z"/>
	<path fill="#4D4D4F" d="M77.4-39.4V-53h1.7v4.9c0.8-0.9,1.8-1.4,3-1.4c0.7,0,1.4,0.1,1.9,0.4c0.5,0.3,0.9,0.7,1.2,1.2
		c0.2,0.5,0.3,1.3,0.3,2.2v6.3h-1.7v-6.3c0-0.8-0.2-1.5-0.5-1.8c-0.4-0.4-0.9-0.6-1.5-0.6c-0.5,0-1,0.1-1.4,0.4
		c-0.4,0.3-0.8,0.6-0.9,1c-0.2,0.4-0.3,1.1-0.3,1.8v5.4H77.4z"/>
	<path fill="#4D4D4F" d="M94.8-42.5l1.7,0.2c-0.3,1-0.8,1.8-1.5,2.4c-0.7,0.6-1.7,0.8-2.8,0.8c-1.5,0-2.6-0.4-3.4-1.3
		c-0.8-0.9-1.3-2.1-1.3-3.8c0-1.7,0.4-3,1.3-3.9c0.9-0.9,2-1.4,3.3-1.4c1.3,0,2.4,0.5,3.2,1.4c0.8,0.9,1.3,2.2,1.3,3.8
		c0,0.1,0,0.2,0,0.4h-7.4c0.1,1.1,0.4,1.9,0.9,2.5c0.6,0.6,1.2,0.9,2.1,0.9c0.6,0,1.1-0.2,1.6-0.5C94.2-41.3,94.6-41.8,94.8-42.5z
		 M89.3-45.3h5.5c-0.1-0.8-0.3-1.5-0.6-1.9c-0.5-0.6-1.2-1-2.1-1c-0.8,0-1.4,0.3-1.9,0.8C89.7-46.8,89.4-46.1,89.3-45.3z"/>
	<path fill="#4D4D4F" d="M98.7-39.4v-9.9h1.5v1.5c0.4-0.7,0.7-1.2,1.1-1.4c0.3-0.2,0.7-0.3,1.1-0.3c0.6,0,1.1,0.2,1.7,0.5l-0.6,1.6
		c-0.4-0.2-0.8-0.4-1.2-0.4c-0.4,0-0.7,0.1-1,0.3c-0.3,0.2-0.5,0.5-0.6,0.9c-0.2,0.6-0.3,1.2-0.3,2v5.2H98.7z"/>
	<path fill="#4D4D4F" d="M109.7-44.3c0-1.8,0.5-3.2,1.5-4.1c0.9-0.7,1.9-1.1,3.1-1.1c1.4,0,2.5,0.4,3.3,1.3c0.9,0.9,1.3,2.1,1.3,3.7
		c0,1.3-0.2,2.3-0.6,3c-0.4,0.7-0.9,1.3-1.7,1.7s-1.5,0.6-2.4,0.6c-1.4,0-2.5-0.4-3.4-1.3C110.2-41.4,109.7-42.6,109.7-44.3z
		 M111.5-44.3c0,1.3,0.3,2.2,0.8,2.9c0.6,0.6,1.2,0.9,2.1,0.9c0.8,0,1.5-0.3,2.1-1c0.6-0.6,0.8-1.6,0.8-2.9c0-1.2-0.3-2.2-0.8-2.8
		c-0.6-0.6-1.2-0.9-2.1-0.9c-0.8,0-1.5,0.3-2.1,0.9S111.5-45.6,111.5-44.3z"/>
	<path fill="#4D4D4F" d="M122.5-39.4H121V-53h1.7v4.9c0.7-0.9,1.6-1.3,2.7-1.3c0.6,0,1.2,0.1,1.7,0.4c0.5,0.2,1,0.6,1.3,1
		c0.4,0.4,0.6,1,0.8,1.6c0.2,0.6,0.3,1.3,0.3,2c0,1.7-0.4,3-1.3,3.9s-1.8,1.4-3,1.4c-1.2,0-2.1-0.5-2.8-1.5V-39.4z M122.5-44.4
		c0,1.2,0.2,2,0.5,2.6c0.5,0.9,1.2,1.3,2.1,1.3c0.7,0,1.4-0.3,1.9-1s0.8-1.6,0.8-2.9c0-1.3-0.3-2.2-0.8-2.9
		c-0.5-0.6-1.1-0.9-1.9-0.9c-0.7,0-1.4,0.3-1.9,1C122.8-46.5,122.5-45.6,122.5-44.4z"/>
	<path fill="#4D4D4F" d="M129.5-35.5l0.3-1.4c0.3,0.1,0.6,0.1,0.8,0.1c0.3,0,0.6-0.1,0.8-0.3c0.2-0.2,0.3-0.8,0.3-1.7v-10.4h1.7
		v10.5c0,1.2-0.2,2.1-0.5,2.5c-0.4,0.6-1.1,0.9-2,0.9C130.3-35.3,129.9-35.4,129.5-35.5z M131.6-51.1v-2h1.7v2H131.6z"/>
	<path fill="#4D4D4F" d="M142.6-42.5l1.7,0.2c-0.3,1-0.8,1.8-1.5,2.4c-0.7,0.6-1.7,0.8-2.8,0.8c-1.5,0-2.6-0.4-3.4-1.3
		c-0.8-0.9-1.3-2.1-1.3-3.8c0-1.7,0.4-3,1.3-3.9c0.9-0.9,2-1.4,3.3-1.4c1.3,0,2.4,0.5,3.2,1.4c0.8,0.9,1.3,2.2,1.3,3.8
		c0,0.1,0,0.2,0,0.4H137c0.1,1.1,0.4,1.9,0.9,2.5c0.6,0.6,1.2,0.9,2.1,0.9c0.6,0,1.1-0.2,1.6-0.5C142-41.3,142.4-41.8,142.6-42.5z
		 M137.1-45.3h5.5c-0.1-0.8-0.3-1.5-0.6-1.9c-0.5-0.6-1.2-1-2.1-1c-0.8,0-1.4,0.3-1.9,0.8C137.5-46.8,137.2-46.1,137.1-45.3z"/>
	<path fill="#4D4D4F" d="M153-43l1.7,0.2c-0.2,1.1-0.6,2-1.4,2.7c-0.7,0.6-1.7,1-2.7,1c-1.4,0-2.4-0.4-3.3-1.3
		c-0.8-0.9-1.2-2.2-1.2-3.8c0-1.1,0.2-2,0.5-2.8c0.4-0.8,0.9-1.4,1.6-1.8c0.7-0.4,1.5-0.6,2.4-0.6c1.1,0,2,0.3,2.6,0.8
		c0.7,0.5,1.1,1.3,1.3,2.3l-1.6,0.3c-0.2-0.7-0.4-1.2-0.8-1.5c-0.4-0.3-0.9-0.5-1.4-0.5c-0.8,0-1.5,0.3-2.1,0.9
		c-0.5,0.6-0.8,1.6-0.8,2.9c0,1.3,0.3,2.3,0.8,2.9c0.5,0.6,1.2,0.9,2,0.9c0.7,0,1.2-0.2,1.7-0.6C152.6-41.5,152.8-42.1,153-43z"/>
	<path fill="#4D4D4F" d="M159.7-40.9l0.2,1.5c-0.5,0.1-0.9,0.1-1.3,0.1c-0.6,0-1.1-0.1-1.4-0.3c-0.3-0.2-0.6-0.4-0.7-0.8
		c-0.1-0.3-0.2-1-0.2-2V-48h-1.2v-1.3h1.2v-2.5l1.7-1v3.5h1.7v1.3H158v5.8c0,0.5,0,0.8,0.1,0.9c0.1,0.1,0.2,0.2,0.3,0.3
		c0.1,0.1,0.3,0.1,0.6,0.1C159.2-40.8,159.4-40.8,159.7-40.9z"/>
	<path fill="#4D4D4F" d="M161.4-51.1V-53h1.7v1.9H161.4z M161.4-39.4v-9.9h1.7v9.9H161.4z"/>
	<path fill="#4D4D4F" d="M168.4-39.4l-3.8-9.9h1.8l2.1,5.9c0.2,0.6,0.4,1.3,0.6,2c0.1-0.5,0.4-1.2,0.6-1.9l2.2-6h1.7l-3.8,9.9H168.4
		z"/>
	<path fill="#4D4D4F" d="M181.9-42.5l1.7,0.2c-0.3,1-0.8,1.8-1.5,2.4c-0.7,0.6-1.7,0.8-2.8,0.8c-1.5,0-2.6-0.4-3.4-1.3
		c-0.8-0.9-1.3-2.1-1.3-3.8c0-1.7,0.4-3,1.3-3.9c0.9-0.9,2-1.4,3.3-1.4c1.3,0,2.4,0.5,3.2,1.4c0.8,0.9,1.3,2.2,1.3,3.8
		c0,0.1,0,0.2,0,0.4h-7.4c0.1,1.1,0.4,1.9,0.9,2.5c0.6,0.6,1.2,0.9,2.1,0.9c0.6,0,1.1-0.2,1.6-0.5C181.3-41.3,181.7-41.8,181.9-42.5
		z M176.4-45.3h5.5c-0.1-0.8-0.3-1.5-0.6-1.9c-0.5-0.6-1.2-1-2.1-1c-0.8,0-1.4,0.3-1.9,0.8C176.8-46.8,176.5-46.1,176.4-45.3z"/>
</g>
<g enable-background="new    ">
	<path fill="#4D4D4F" d="M48.7-16.7v-9.9h1.5v1.5c0.4-0.7,0.7-1.2,1.1-1.4c0.3-0.2,0.7-0.3,1.1-0.3c0.6,0,1.1,0.2,1.7,0.5l-0.6,1.6
		c-0.4-0.2-0.8-0.4-1.2-0.4c-0.4,0-0.7,0.1-1,0.3c-0.3,0.2-0.5,0.5-0.6,0.9c-0.2,0.6-0.3,1.2-0.3,2v5.2H48.7z"/>
	<path fill="#4D4D4F" d="M61.9-19.9l1.7,0.2c-0.3,1-0.8,1.8-1.5,2.4c-0.7,0.6-1.7,0.8-2.8,0.8c-1.5,0-2.6-0.4-3.4-1.3
		c-0.8-0.9-1.3-2.1-1.3-3.8c0-1.7,0.4-3,1.3-3.9c0.9-0.9,2-1.4,3.3-1.4c1.3,0,2.4,0.5,3.2,1.4c0.8,0.9,1.3,2.2,1.3,3.8
		c0,0.1,0,0.2,0,0.4h-7.4c0.1,1.1,0.4,1.9,0.9,2.5c0.6,0.6,1.2,0.9,2.1,0.9c0.6,0,1.1-0.2,1.6-0.5C61.3-18.7,61.6-19.2,61.9-19.9z
		 M56.4-22.6h5.5c-0.1-0.8-0.3-1.5-0.6-1.9c-0.5-0.6-1.2-1-2.1-1c-0.8,0-1.4,0.3-1.9,0.8C56.7-24.2,56.4-23.5,56.4-22.6z"/>
	<path fill="#4D4D4F" d="M65.1-19.7l1.7-0.3c0.1,0.7,0.4,1.2,0.8,1.5c0.4,0.4,1,0.5,1.8,0.5c0.8,0,1.3-0.2,1.7-0.5
		c0.4-0.3,0.6-0.7,0.6-1.1c0-0.4-0.2-0.7-0.5-0.9c-0.2-0.1-0.8-0.3-1.7-0.6c-1.2-0.3-2.1-0.6-2.6-0.8c-0.5-0.2-0.8-0.5-1.1-0.9
		c-0.2-0.4-0.4-0.8-0.4-1.3c0-0.4,0.1-0.9,0.3-1.2c0.2-0.4,0.5-0.7,0.8-0.9c0.3-0.2,0.6-0.4,1.1-0.5c0.5-0.1,0.9-0.2,1.5-0.2
		c0.8,0,1.5,0.1,2,0.3s1,0.5,1.3,0.9s0.5,0.9,0.6,1.5l-1.6,0.2c-0.1-0.5-0.3-0.9-0.6-1.2c-0.4-0.3-0.9-0.4-1.5-0.4
		c-0.8,0-1.3,0.1-1.7,0.4c-0.3,0.3-0.5,0.6-0.5,0.9c0,0.2,0.1,0.4,0.2,0.6c0.1,0.2,0.4,0.3,0.6,0.4c0.2,0.1,0.7,0.2,1.5,0.4
		c1.2,0.3,2,0.6,2.5,0.8s0.8,0.5,1.1,0.9s0.4,0.9,0.4,1.4c0,0.6-0.2,1.1-0.5,1.6c-0.3,0.5-0.8,0.9-1.4,1.1s-1.3,0.4-2.1,0.4
		c-1.3,0-2.3-0.3-2.9-0.8S65.3-18.6,65.1-19.7z"/>
	<path fill="#4D4D4F" d="M75.3-12.9v-13.7h1.5v1.3c0.4-0.5,0.8-0.9,1.2-1.1s1-0.4,1.7-0.4c0.8,0,1.6,0.2,2.2,0.7
		c0.6,0.4,1.1,1,1.5,1.8c0.3,0.8,0.5,1.7,0.5,2.6c0,1-0.2,1.9-0.5,2.7c-0.4,0.8-0.9,1.4-1.6,1.9c-0.7,0.4-1.4,0.6-2.2,0.6
		c-0.6,0-1.1-0.1-1.5-0.4c-0.4-0.2-0.8-0.5-1.1-0.9v4.8H75.3z M76.8-21.6c0,1.3,0.3,2.2,0.8,2.8c0.5,0.6,1.1,0.9,1.9,0.9
		c0.7,0,1.4-0.3,1.9-0.9c0.5-0.6,0.8-1.6,0.8-2.9c0-1.3-0.3-2.2-0.8-2.8c-0.5-0.6-1.1-0.9-1.9-0.9c-0.7,0-1.3,0.3-1.9,1
		C77.1-23.9,76.8-22.9,76.8-21.6z"/>
	<path fill="#4D4D4F" d="M85.3-21.7c0-1.8,0.5-3.2,1.5-4.1c0.9-0.7,1.9-1.1,3.1-1.1c1.4,0,2.5,0.4,3.3,1.3c0.9,0.9,1.3,2.1,1.3,3.7
		c0,1.3-0.2,2.3-0.6,3c-0.4,0.7-0.9,1.3-1.7,1.7s-1.5,0.6-2.4,0.6c-1.4,0-2.5-0.4-3.4-1.3C85.7-18.7,85.3-20,85.3-21.7z M87-21.7
		c0,1.3,0.3,2.2,0.8,2.9c0.6,0.6,1.2,0.9,2.1,0.9c0.8,0,1.5-0.3,2.1-1c0.6-0.6,0.8-1.6,0.8-2.9c0-1.2-0.3-2.2-0.8-2.8
		c-0.6-0.6-1.2-0.9-2.1-0.9c-0.8,0-1.5,0.3-2.1,0.9S87-22.9,87-21.7z"/>
	<path fill="#4D4D4F" d="M96.6-16.7v-9.9h1.5v1.4c0.7-1.1,1.8-1.6,3.2-1.6c0.6,0,1.1,0.1,1.6,0.3s0.9,0.5,1.1,0.8
		c0.2,0.3,0.4,0.8,0.5,1.2c0.1,0.3,0.1,0.9,0.1,1.6v6.1h-1.7v-6c0-0.7-0.1-1.2-0.2-1.5c-0.1-0.3-0.4-0.6-0.7-0.8
		c-0.3-0.2-0.7-0.3-1.2-0.3c-0.7,0-1.3,0.2-1.9,0.7s-0.8,1.3-0.8,2.6v5.4H96.6z"/>
	<path fill="#4D4D4F" d="M106.5-19.7l1.7-0.3c0.1,0.7,0.4,1.2,0.8,1.5c0.4,0.4,1,0.5,1.8,0.5c0.8,0,1.3-0.2,1.7-0.5
		c0.4-0.3,0.6-0.7,0.6-1.1c0-0.4-0.2-0.7-0.5-0.9c-0.2-0.1-0.8-0.3-1.7-0.6c-1.2-0.3-2.1-0.6-2.6-0.8c-0.5-0.2-0.8-0.5-1.1-0.9
		c-0.2-0.4-0.4-0.8-0.4-1.3c0-0.4,0.1-0.9,0.3-1.2c0.2-0.4,0.5-0.7,0.8-0.9c0.3-0.2,0.6-0.4,1.1-0.5s0.9-0.2,1.5-0.2
		c0.8,0,1.5,0.1,2,0.3s1,0.5,1.3,0.9s0.5,0.9,0.6,1.5l-1.6,0.2c-0.1-0.5-0.3-0.9-0.6-1.2c-0.4-0.3-0.9-0.4-1.5-0.4
		c-0.8,0-1.3,0.1-1.7,0.4c-0.3,0.3-0.5,0.6-0.5,0.9c0,0.2,0.1,0.4,0.2,0.6c0.1,0.2,0.4,0.3,0.6,0.4c0.2,0.1,0.7,0.2,1.5,0.4
		c1.2,0.3,2,0.6,2.5,0.8s0.8,0.5,1.1,0.9s0.4,0.9,0.4,1.4c0,0.6-0.2,1.1-0.5,1.6c-0.3,0.5-0.8,0.9-1.4,1.1c-0.6,0.3-1.3,0.4-2.1,0.4
		c-1.3,0-2.3-0.3-2.9-0.8S106.7-18.6,106.5-19.7z"/>
	<path fill="#4D4D4F" d="M123.5-19.9l1.7,0.2c-0.3,1-0.8,1.8-1.5,2.4c-0.7,0.6-1.7,0.8-2.8,0.8c-1.5,0-2.6-0.4-3.4-1.3
		c-0.8-0.9-1.3-2.1-1.3-3.8c0-1.7,0.4-3,1.3-3.9c0.9-0.9,2-1.4,3.3-1.4c1.3,0,2.4,0.5,3.2,1.4c0.8,0.9,1.3,2.2,1.3,3.8
		c0,0.1,0,0.2,0,0.4h-7.4c0.1,1.1,0.4,1.9,0.9,2.5c0.6,0.6,1.2,0.9,2.1,0.9c0.6,0,1.1-0.2,1.6-0.5C122.9-18.7,123.3-19.2,123.5-19.9
		z M118-22.6h5.5c-0.1-0.8-0.3-1.5-0.6-1.9c-0.5-0.6-1.2-1-2.1-1c-0.8,0-1.4,0.3-1.9,0.8C118.4-24.2,118.1-23.5,118-22.6z"/>
	<path fill="#4D4D4F" d="M132.7-16.7v-9.9h1.5v1.5c0.4-0.7,0.7-1.2,1.1-1.4c0.3-0.2,0.7-0.3,1.1-0.3c0.6,0,1.1,0.2,1.7,0.5l-0.6,1.6
		c-0.4-0.2-0.8-0.4-1.2-0.4c-0.4,0-0.7,0.1-1,0.3c-0.3,0.2-0.5,0.5-0.6,0.9c-0.2,0.6-0.3,1.2-0.3,2v5.2H132.7z"/>
	<path fill="#4D4D4F" d="M145.5-17.9c-0.6,0.5-1.2,0.9-1.8,1.1s-1.2,0.3-1.9,0.3c-1.1,0-1.9-0.3-2.5-0.8c-0.6-0.5-0.9-1.2-0.9-2
		c0-0.5,0.1-0.9,0.3-1.3s0.5-0.7,0.9-1s0.8-0.4,1.2-0.6c0.3-0.1,0.8-0.2,1.5-0.3c1.4-0.2,2.4-0.4,3-0.6c0-0.2,0-0.4,0-0.4
		c0-0.7-0.2-1.2-0.5-1.4c-0.4-0.4-1.1-0.6-1.9-0.6c-0.8,0-1.4,0.1-1.8,0.4c-0.4,0.3-0.7,0.8-0.8,1.5l-1.6-0.2
		c0.1-0.7,0.4-1.3,0.7-1.7s0.8-0.8,1.5-1c0.6-0.2,1.4-0.3,2.2-0.3c0.8,0,1.5,0.1,2.1,0.3c0.5,0.2,0.9,0.4,1.2,0.8s0.4,0.7,0.5,1.1
		c0.1,0.3,0.1,0.8,0.1,1.5v2.2c0,1.6,0,2.5,0.1,3c0.1,0.4,0.2,0.8,0.4,1.2h-1.8C145.7-17.1,145.6-17.5,145.5-17.9z M145.4-21.7
		c-0.6,0.2-1.5,0.5-2.7,0.6c-0.7,0.1-1.2,0.2-1.5,0.3s-0.5,0.3-0.7,0.5c-0.2,0.2-0.2,0.5-0.2,0.8c0,0.4,0.2,0.8,0.5,1.1
		c0.3,0.3,0.8,0.4,1.5,0.4c0.6,0,1.2-0.1,1.7-0.4c0.5-0.3,0.9-0.7,1.1-1.2c0.2-0.4,0.3-0.9,0.3-1.7V-21.7z"/>
	<path fill="#4D4D4F" d="M153.3-18.2l0.2,1.5c-0.5,0.1-0.9,0.1-1.3,0.1c-0.6,0-1.1-0.1-1.4-0.3c-0.3-0.2-0.6-0.4-0.7-0.8
		c-0.1-0.3-0.2-1-0.2-2v-5.7h-1.2v-1.3h1.2v-2.5l1.7-1v3.5h1.7v1.3h-1.7v5.8c0,0.5,0,0.8,0.1,0.9c0.1,0.1,0.2,0.2,0.3,0.3
		c0.1,0.1,0.3,0.1,0.6,0.1C152.8-18.2,153-18.2,153.3-18.2z"/>
	<path fill="#4D4D4F" d="M161.8-19.9l1.7,0.2c-0.3,1-0.8,1.8-1.5,2.4c-0.7,0.6-1.7,0.8-2.8,0.8c-1.5,0-2.6-0.4-3.4-1.3
		c-0.8-0.9-1.3-2.1-1.3-3.8c0-1.7,0.4-3,1.3-3.9c0.9-0.9,2-1.4,3.3-1.4c1.3,0,2.4,0.5,3.2,1.4c0.8,0.9,1.3,2.2,1.3,3.8
		c0,0.1,0,0.2,0,0.4h-7.4c0.1,1.1,0.4,1.9,0.9,2.5c0.6,0.6,1.2,0.9,2.1,0.9c0.6,0,1.1-0.2,1.6-0.5C161.2-18.7,161.5-19.2,161.8-19.9
		z M156.2-22.6h5.5c-0.1-0.8-0.3-1.5-0.6-1.9c-0.5-0.6-1.2-1-2.1-1c-0.8,0-1.4,0.3-1.9,0.8C156.6-24.2,156.3-23.5,156.2-22.6z"/>
</g>
<g enable-background="new    ">
	<path fill="#4D4D4F" d="M49.2,5.9v-8.6h-1.5V-4h1.5v-1.1c0-0.7,0.1-1.2,0.2-1.5c0.2-0.4,0.4-0.8,0.9-1.1c0.4-0.3,1-0.4,1.7-0.4
		c0.5,0,1,0.1,1.6,0.2l-0.3,1.5c-0.3-0.1-0.7-0.1-1-0.1c-0.5,0-0.9,0.1-1.1,0.3c-0.2,0.2-0.3,0.6-0.3,1.2V-4h1.9v1.3h-1.9v8.6H49.2z
		"/>
	<path fill="#4D4D4F" d="M53.4,1c0-1.8,0.5-3.2,1.5-4.1c0.9-0.7,1.9-1.1,3.1-1.1c1.4,0,2.5,0.4,3.3,1.3c0.9,0.9,1.3,2.1,1.3,3.7
		c0,1.3-0.2,2.3-0.6,3c-0.4,0.7-0.9,1.3-1.7,1.7c-0.7,0.4-1.5,0.6-2.4,0.6c-1.4,0-2.5-0.4-3.4-1.3S53.4,2.6,53.4,1z M55.2,1
		c0,1.3,0.3,2.2,0.8,2.9c0.6,0.6,1.2,0.9,2.1,0.9c0.8,0,1.5-0.3,2.1-1C60.7,3.2,61,2.2,61,0.9c0-1.2-0.3-2.2-0.8-2.8
		c-0.6-0.6-1.2-0.9-2.1-0.9c-0.8,0-1.5,0.3-2.1,0.9C55.4-1.3,55.2-0.3,55.2,1z"/>
	<path fill="#4D4D4F" d="M64.7,5.9V-4h1.5v1.5c0.4-0.7,0.7-1.2,1.1-1.4c0.3-0.2,0.7-0.3,1.1-0.3c0.6,0,1.1,0.2,1.7,0.5l-0.6,1.6
		c-0.4-0.2-0.8-0.4-1.2-0.4c-0.4,0-0.7,0.1-1,0.3c-0.3,0.2-0.5,0.5-0.6,0.9c-0.2,0.6-0.3,1.2-0.3,2v5.2H64.7z"/>
	<path fill="#4D4D4F" d="M76-0.8c0-2.3,0.6-4,1.8-5.3C79.1-7.4,80.7-8,82.6-8C83.8-8,85-7.7,86-7.1c1,0.6,1.8,1.4,2.3,2.5
		c0.5,1.1,0.8,2.3,0.8,3.7c0,1.4-0.3,2.6-0.8,3.7c-0.6,1.1-1.4,1.9-2.4,2.5c-1,0.6-2.1,0.8-3.3,0.8c-1.3,0-2.4-0.3-3.5-0.9
		c-1-0.6-1.8-1.5-2.3-2.5C76.3,1.6,76,0.4,76-0.8z M77.9-0.7c0,1.6,0.4,2.9,1.3,3.9c0.9,0.9,2,1.4,3.3,1.4c1.4,0,2.5-0.5,3.4-1.4
		s1.3-2.3,1.3-4.1c0-1.1-0.2-2.1-0.6-2.9c-0.4-0.8-0.9-1.5-1.7-1.9s-1.5-0.7-2.4-0.7c-1.3,0-2.4,0.4-3.3,1.3
		C78.4-4.3,77.9-2.8,77.9-0.7z"/>
	<path fill="#4D4D4F" d="M91.2,9.7V-4h1.5v1.3c0.4-0.5,0.8-0.9,1.2-1.1s1-0.4,1.7-0.4c0.8,0,1.6,0.2,2.2,0.7c0.6,0.4,1.1,1,1.5,1.8
		c0.3,0.8,0.5,1.7,0.5,2.6c0,1-0.2,1.9-0.5,2.7c-0.4,0.8-0.9,1.4-1.6,1.9c-0.7,0.4-1.4,0.6-2.2,0.6C95,6.1,94.5,6,94,5.8
		c-0.4-0.2-0.8-0.5-1.1-0.9v4.8H91.2z M92.8,1c0,1.3,0.3,2.2,0.8,2.8c0.5,0.6,1.1,0.9,1.9,0.9c0.7,0,1.4-0.3,1.9-0.9
		c0.5-0.6,0.8-1.6,0.8-2.9c0-1.3-0.3-2.2-0.8-2.8c-0.5-0.6-1.1-0.9-1.9-0.9c-0.7,0-1.3,0.3-1.9,1C93-1.2,92.8-0.3,92.8,1z"/>
	<path fill="#4D4D4F" d="M105.5,4.4l0.2,1.5C105.3,6,104.9,6,104.5,6c-0.6,0-1.1-0.1-1.4-0.3c-0.3-0.2-0.6-0.4-0.7-0.8
		c-0.1-0.3-0.2-1-0.2-2v-5.7h-1.2V-4h1.2v-2.5l1.7-1V-4h1.7v1.3h-1.7v5.8c0,0.5,0,0.8,0.1,0.9c0.1,0.1,0.2,0.2,0.3,0.3
		c0.1,0.1,0.3,0.1,0.6,0.1C105,4.5,105.2,4.5,105.5,4.4z"/>
	<path fill="#4D4D4F" d="M107.2-5.8v-1.9h1.7v1.9H107.2z M107.2,5.9V-4h1.7v9.9H107.2z"/>
	<path fill="#4D4D4F" d="M110.7,3l1.7-0.3c0.1,0.7,0.4,1.2,0.8,1.5c0.4,0.4,1,0.5,1.8,0.5c0.8,0,1.3-0.2,1.7-0.5
		c0.4-0.3,0.6-0.7,0.6-1.1c0-0.4-0.2-0.7-0.5-0.9c-0.2-0.1-0.8-0.3-1.7-0.6c-1.2-0.3-2.1-0.6-2.6-0.8c-0.5-0.2-0.8-0.5-1.1-0.9
		c-0.2-0.4-0.4-0.8-0.4-1.3c0-0.4,0.1-0.9,0.3-1.2c0.2-0.4,0.5-0.7,0.8-0.9c0.3-0.2,0.6-0.4,1.1-0.5s0.9-0.2,1.5-0.2
		c0.8,0,1.5,0.1,2,0.3s1,0.5,1.3,0.9s0.5,0.9,0.6,1.5L117-1.2c-0.1-0.5-0.3-0.9-0.6-1.2c-0.4-0.3-0.9-0.4-1.5-0.4
		c-0.8,0-1.3,0.1-1.7,0.4c-0.3,0.3-0.5,0.6-0.5,0.9c0,0.2,0.1,0.4,0.2,0.6c0.1,0.2,0.4,0.3,0.6,0.4c0.2,0.1,0.7,0.2,1.5,0.4
		c1.2,0.3,2,0.6,2.5,0.8s0.8,0.5,1.1,0.9S119,2.4,119,3c0,0.6-0.2,1.1-0.5,1.6c-0.3,0.5-0.8,0.9-1.4,1.1c-0.6,0.3-1.3,0.4-2.1,0.4
		c-1.3,0-2.3-0.3-2.9-0.8S110.9,4,110.7,3z"/>
	<path fill="#4D4D4F" d="M124.6,4.4l0.2,1.5C124.4,6,124,6,123.6,6c-0.6,0-1.1-0.1-1.4-0.3c-0.3-0.2-0.6-0.4-0.7-0.8
		c-0.1-0.3-0.2-1-0.2-2v-5.7H120V-4h1.2v-2.5l1.7-1V-4h1.7v1.3h-1.7v5.8c0,0.5,0,0.8,0.1,0.9c0.1,0.1,0.2,0.2,0.3,0.3
		c0.1,0.1,0.3,0.1,0.6,0.1C124.1,4.5,124.3,4.5,124.6,4.4z"/>
	<path fill="#4D4D4F" d="M132.7,4.7c-0.6,0.5-1.2,0.9-1.8,1.1s-1.2,0.3-1.9,0.3c-1.1,0-1.9-0.3-2.5-0.8c-0.6-0.5-0.9-1.2-0.9-2
		c0-0.5,0.1-0.9,0.3-1.3s0.5-0.7,0.9-1s0.8-0.4,1.2-0.6c0.3-0.1,0.8-0.2,1.5-0.3c1.4-0.2,2.4-0.4,3-0.6c0-0.2,0-0.4,0-0.4
		c0-0.7-0.2-1.2-0.5-1.4c-0.4-0.4-1.1-0.6-1.9-0.6c-0.8,0-1.4,0.1-1.8,0.4c-0.4,0.3-0.7,0.8-0.8,1.5L126-1.2
		c0.1-0.7,0.4-1.3,0.7-1.7s0.8-0.8,1.5-1c0.6-0.2,1.4-0.3,2.2-0.3c0.8,0,1.5,0.1,2.1,0.3c0.5,0.2,0.9,0.4,1.2,0.8s0.4,0.7,0.5,1.1
		c0.1,0.3,0.1,0.8,0.1,1.5v2.2c0,1.6,0,2.5,0.1,3c0.1,0.4,0.2,0.8,0.4,1.2h-1.8C132.9,5.6,132.8,5.2,132.7,4.7z M132.6,0.9
		c-0.6,0.2-1.5,0.5-2.7,0.6c-0.7,0.1-1.2,0.2-1.5,0.3s-0.5,0.3-0.7,0.5c-0.2,0.2-0.2,0.5-0.2,0.8c0,0.4,0.2,0.8,0.5,1.1
		c0.3,0.3,0.8,0.4,1.5,0.4c0.6,0,1.2-0.1,1.7-0.4c0.5-0.3,0.9-0.7,1.1-1.2c0.2-0.4,0.3-0.9,0.3-1.7V0.9z"/>
	<path fill="#4D4D4F" d="M139.7,5.9L135.9-4h1.8l2.1,5.9c0.2,0.6,0.4,1.3,0.6,2c0.1-0.5,0.4-1.2,0.6-1.9l2.2-6h1.7l-3.8,9.9H139.7z"
		/>
	<path fill="#4D4D4F" d="M146.5-5.8v-1.9h1.7v1.9H146.5z M146.5,5.9V-4h1.7v9.9H146.5z"/>
	<path fill="#4D4D4F" d="M150.7,5.9V-4h1.5v1.4c0.7-1.1,1.8-1.6,3.2-1.6c0.6,0,1.1,0.1,1.6,0.3s0.9,0.5,1.1,0.8
		c0.2,0.3,0.4,0.8,0.5,1.2c0.1,0.3,0.1,0.9,0.1,1.6v6.1h-1.7v-6c0-0.7-0.1-1.2-0.2-1.5c-0.1-0.3-0.4-0.6-0.7-0.8
		c-0.3-0.2-0.7-0.3-1.2-0.3c-0.7,0-1.3,0.2-1.9,0.7s-0.8,1.3-0.8,2.6v5.4H150.7z"/>
</g>
<polyline fill="none" stroke="#E8D948" stroke-width="2.0745" stroke-miterlimit="10" stroke-dasharray="3.5564,3.5564" points="
	-135.4,-13.6 -17.6,-13.6 -17.6,120.7 "/>
<circle fill="#FFFFFF" stroke="#E3D200" stroke-width="3.4649" stroke-miterlimit="10" cx="-8" cy="-21.8" r="44.2"/>
<g>
	<g enable-background="new    ">
		<path fill="#6BADA2" d="M-41.1-15.1l4.9-0.5c0.1,1.1,0.6,2,1.2,2.6c0.7,0.6,1.5,1,2.4,1c1,0,1.9-0.4,2.6-1.2s1.1-2.1,1.1-3.8
			c0-1.6-0.4-2.8-1.1-3.5c-0.7-0.8-1.6-1.2-2.8-1.2c-1.4,0-2.7,0.6-3.8,1.9l-4-0.6l2.5-13.3h13v4.6h-9.3l-0.8,4.4
			c1.1-0.5,2.2-0.8,3.4-0.8c2.2,0,4,0.8,5.5,2.4c1.5,1.6,2.3,3.6,2.3,6.2c0,2.1-0.6,4-1.8,5.6c-1.7,2.3-4,3.4-6.9,3.4
			c-2.4,0-4.3-0.6-5.8-1.9C-39.9-11.2-40.8-12.9-41.1-15.1z"/>
		<path fill="#6BADA2" d="M-21.3-29.2v-4.6h16.8v3.6c-1.4,1.4-2.8,3.3-4.2,5.9c-1.4,2.6-2.5,5.3-3.3,8.1c-0.8,2.9-1.1,5.4-1.1,7.7
			h-4.7c0.1-3.5,0.8-7.2,2.2-10.8c1.4-3.7,3.2-7,5.5-9.9L-21.3-29.2L-21.3-29.2z"/>
		<path fill="#6BADA2" d="M-1.3-27.8c0-2.3,0.5-4,1.5-5.1c1-1.1,2.4-1.7,4.1-1.7c1.8,0,3.2,0.6,4.2,1.7c1,1.1,1.5,2.8,1.5,5.1
			c0,2.3-0.5,4-1.5,5.1c-1,1.1-2.4,1.7-4.1,1.7c-1.8,0-3.2-0.6-4.2-1.7C-0.8-23.8-1.3-25.5-1.3-27.8z M2.5-27.8
			c0,1.7,0.2,2.8,0.6,3.4c0.3,0.4,0.7,0.6,1.2,0.6c0.5,0,0.9-0.2,1.2-0.6c0.4-0.6,0.6-1.7,0.6-3.4c0-1.7-0.2-2.8-0.6-3.3
			c-0.3-0.4-0.7-0.6-1.2-0.6c-0.5,0-0.9,0.2-1.2,0.6C2.7-30.6,2.5-29.5,2.5-27.8z M8-7.5H4.4l13.7-27h3.5L8-7.5z M16-14.2
			c0-2.3,0.5-4,1.5-5.1c1-1.1,2.4-1.7,4.1-1.7c1.8,0,3.1,0.6,4.2,1.7c1,1.1,1.5,2.8,1.5,5.1c0,2.3-0.5,4-1.5,5.1
			c-1,1.1-2.4,1.7-4.1,1.7c-1.8,0-3.2-0.6-4.2-1.7C16.5-10.2,16-11.9,16-14.2z M19.8-14.2c0,1.7,0.2,2.8,0.6,3.3
			c0.3,0.4,0.7,0.6,1.2,0.6c0.5,0,0.9-0.2,1.2-0.6c0.4-0.6,0.6-1.7,0.6-3.4c0-1.7-0.2-2.8-0.6-3.4c-0.3-0.4-0.7-0.6-1.2-0.6
			c-0.5,0-0.9,0.2-1.2,0.6C20-17,19.8-15.9,19.8-14.2z"/>
	</g>
</g>
</svg>
