<svg version="1.1" id="Layer_1" xmlns="http://www.w3.org/2000/svg" xmlns:xlink="http://www.w3.org/1999/xlink" x="0px" y="0px"
	 width="361px" height="411.602px" viewBox="0 0 361 411.602" style="enable-background:new 0 0 361 411.602;" xml:space="preserve"
	>
<style type="text/css">
	.st0{opacity:0.5;fill:#6D6E70;}
</style>
<path class="st0" d="M351.519,378.776H10.814c-3.763,0-6.814-3.051-6.814-6.814v-34.071c0-27.719,17.381-52.553,43.25-61.796
	l79.404-29.452v-26.508c-29.373-21.201-47.472-58.915-47.472-99.407C79.181,56.363,123.832,4,178.718,4
	c54.892,0,99.55,52.363,99.55,116.728c0,38.236-15.857,73.697-42.588,95.614v30.327l78.991,29.499
	c26.079,9.319,43.663,34.137,43.663,61.723v34.071C358.333,375.725,355.282,378.776,351.519,378.776z M31.256,351.519h299.821
	v-13.628c0-15.847-10.597-30.7-25.769-36.117l-92.456-34.546c-2.662-0.995-4.428-3.537-4.428-6.382v-28.707
	c-17.448,6.428-36.373,7.11-54.513,1.54v27.18c0,2.848-1.773,5.397-4.445,6.388L56.57,301.711
	c-15.172,5.423-25.313,19.953-25.313,36.18V351.519z M106.468,123.367c1.131,48.118,33.109,86.833,72.25,86.833
	c38.239,0,69.642-36.935,72.134-83.493c-24.821,2.745-44.115-5.413-60.063-25.054c-16.213,14.457-41.167,24.112-63.616,24.112
	C119.89,125.765,113.049,124.977,106.468,123.367z M191.601,57.954c2.442,0,4.701,1.308,5.916,3.434l6.189,10.83
	c12.926,22.615,25.207,29.888,45.153,27.286c-7.826-39.926-36.509-68.247-70.141-68.247c-32.004,0-60.472,26.821-69.369,64.538
	c5.656,1.843,11.436,2.715,17.824,2.715c20.489,0,45.566-12.314,52.616-25.832l5.769-11.06c1.155-2.209,3.42-3.613,5.912-3.663
	C191.514,57.954,191.558,57.954,191.601,57.954z"/>
</svg>
