<?xml version="1.0" encoding="utf-8"?>
<!-- Generator: Adobe Illustrator 15.1.0, SVG Export Plug-In . SVG Version: 6.00 Build 0)  -->
<!DOCTYPE svg PUBLIC "-//W3C//DTD SVG 1.1//EN" "http://www.w3.org/Graphics/SVG/1.1/DTD/svg11.dtd">
<svg version="1.1" id="Layer_1" xmlns="http://www.w3.org/2000/svg" xmlns:xlink="http://www.w3.org/1999/xlink" x="0px" y="0px"
	 width="361px" height="411.602px" viewBox="0 0 361 411.602" enable-background="new 0 0 361 411.602" xml:space="preserve">
<g>
	<g>
		
			<path fill="#6D6E70" stroke="#6D6E70" stroke-width="5" stroke-linecap="round" stroke-linejoin="round" stroke-miterlimit="10" d="
			M352.089,26.453h-59.167c-3.271,0-5.917,2.647-5.917,5.917v4.525c-14.595-4.929-27.399-9.395-38.586-13.313
			C210.579,10.338,189.193,3,169.323,3c-24.95,0-47.507,11.579-97.233,37.592C54.577,49.756,32.782,61.156,6.272,74.411
			c-1.699,0.844-2.889,2.467-3.195,4.345c-0.306,1.878,0.312,3.784,1.658,5.131c13.405,13.405,28.804,24.927,50.5,18.722
			l54.476-18.073c-0.011,0.381-0.092,0.751-0.092,1.126c0,11.781,8.089,23.707,23.552,23.707c10.296,0,16.767-0.029,22.049-0.052
			c7.598-0.023,12.706-0.053,23.229,0.035c20.362,15.665,42.936,23.603,67.141,23.603h41.417v5.917c0,3.271,2.646,5.917,5.917,5.917
			h59.167c3.271,0,5.917-2.646,5.917-5.917V32.37C358.006,29.1,355.359,26.453,352.089,26.453z M346.173,132.954h-47.334
			l-11.833-11.833h-41.417c-22.106,0-42.771-7.505-61.403-22.303c-1.035-0.821-2.312-1.271-3.629-1.283
			c-11.983-0.109-17.288-0.092-25.383-0.046c-5.27,0.017-11.729,0.046-22.002,0.046c-8.65,0-11.718-6.396-11.718-11.874
			s3.068-11.874,11.718-11.874h82.834c3.271,0,5.917-2.646,5.917-5.917c0-3.27-2.646-5.917-5.917-5.917H133.17
			c-8.251,0-14.33,3.444-18.27,8.402L51.745,91.306c-11.33,3.236-20.419,0.602-32.617-10.105
			c23.217-11.689,42.585-21.823,58.446-30.12c85.613-44.793,85.619-44.787,166.933-16.33c12.187,4.264,26.25,9.176,42.498,14.63
			l11.833-11.094h47.334L346.173,132.954L346.173,132.954z"/>
		
			<path fill="#6D6E70" stroke="#6D6E70" stroke-width="5" stroke-linecap="round" stroke-linejoin="round" stroke-miterlimit="10" d="
			M305.771,217.477l-54.475,18.073c0.012-0.382,0.092-0.751,0.092-1.126c0-11.781-8.09-23.708-23.551-23.708
			c-10.297,0-16.768,0.029-22.049,0.052c-7.598,0.023-12.706,0.053-23.229-0.033c-20.361-15.665-42.937-23.604-67.141-23.604H74.003
			v-5.917c0-3.27-2.647-5.917-5.917-5.917H8.919c-3.27,0-5.917,2.647-5.917,5.917v106.501c0,3.271,2.646,5.917,5.917,5.917h59.168
			c3.27,0,5.917-2.646,5.917-5.917v-4.524c14.595,4.93,27.399,9.395,38.585,13.313c37.841,13.243,59.225,20.581,79.097,20.581
			c24.949,0,47.506-11.58,97.232-37.592c17.514-9.164,39.309-20.564,65.818-33.82c1.697-0.843,2.889-2.467,3.195-4.344
			c0.307-1.878-0.312-3.785-1.658-5.131C342.868,222.791,327.469,211.27,305.771,217.477z M283.434,269.004
			c-85.612,44.792-85.619,44.786-166.934,16.329c-12.186-4.264-26.249-9.176-42.497-14.63L62.17,281.797H14.835v-94.668H62.17
			l11.833,11.833h41.417c22.106,0,42.769,7.506,61.403,22.303c1.034,0.821,2.311,1.272,3.629,1.283
			c11.983,0.11,17.287,0.093,25.383,0.046c5.269-0.017,11.729-0.046,22.003-0.046c8.649,0,11.719,6.396,11.719,11.874
			c0,5.477-3.068,11.874-11.719,11.874h-82.834c-3.271,0-5.917,2.647-5.917,5.917s2.646,5.917,5.917,5.917h82.834
			c8.251,0,14.329-3.442,18.27-8.401l63.155-20.95c11.331-3.236,20.419-0.602,32.617,10.104
			C318.663,250.573,299.295,260.707,283.434,269.004z"/>
	</g>
</g>
</svg>
