<?xml version="1.0" encoding="utf-8"?>
<!-- Generator: Adobe Illustrator 17.0.1, SVG Export Plug-In . SVG Version: 6.00 Build 0)  -->
<!DOCTYPE svg PUBLIC "-//W3C//DTD SVG 1.1//EN" "http://www.w3.org/Graphics/SVG/1.1/DTD/svg11.dtd">
<svg version="1.1" id="Layer_1" xmlns="http://www.w3.org/2000/svg" xmlns:xlink="http://www.w3.org/1999/xlink" x="0px" y="0px"
	 width="520px" height="50px" viewBox="0 0 520 50" enable-background="new 0 0 520 50" xml:space="preserve">
<g id="Layer_2">
</g>
<g id="Layer_1_1_">
	<g>
		<g enable-background="new    ">
			<path fill="#6C6D6F" d="M10.47,36.258h2.8V18.896h-2.8v-2.835h16.697v6.021h-3.045v-3.221h-7.666v7.562h7.141v2.765h-7.141v7.071
				h3.115v2.835H10.47L10.47,36.258L10.47,36.258z"/>
			<path fill="#6C6D6F" d="M27.829,35.068c0-2.766,2.45-4.551,5.916-4.551c1.575,0,3.326,0.351,4.13,0.596v-1.716
				c0-0.875-0.245-1.575-0.665-2.1c-0.63-0.771-1.68-1.155-3.15-1.155c-0.945,0-1.505,0.21-1.96,0.455
				c0.105,0.245,0.175,0.56,0.175,0.84c0,0.98-0.735,1.715-1.75,1.715c-1.05,0-1.785-0.734-1.785-1.785
				c0-1.785,1.96-3.64,5.811-3.64c2.345,0,4.061,0.699,5.076,1.89c0.77,0.91,1.155,2.101,1.155,3.466v7.49h2.345v2.521h-5.181v-1.82
				c-1.225,1.155-3.15,2.101-5.181,2.101C30,39.374,27.829,37.798,27.829,35.068z M37.875,35.313v-2.45
				c-1.015-0.28-2.31-0.525-3.675-0.525c-2.135,0-3.325,1.016-3.325,2.485c0,1.365,1.015,2.275,2.765,2.275
				C35.25,37.098,36.721,36.328,37.875,35.313z"/>
			<path fill="#6C6D6F" d="M55.55,28.942c-1.05,0-1.82-0.665-1.82-1.68c0-0.245,0.035-0.525,0.14-0.771
				c-0.595-0.279-1.47-0.455-2.415-0.455c-1.925,0-2.976,0.945-2.976,1.926c0,1.12,1.155,1.575,3.57,2.205
				c3.255,0.84,5.636,1.715,5.636,4.551c0,3.01-2.87,4.69-6.161,4.69c-2.275,0-4.585-0.771-5.601-1.785
				c-0.56-0.561-0.84-1.19-0.84-1.961c0-0.979,0.7-1.82,1.715-1.82c0.98,0,1.785,0.665,1.785,1.751c0,0.279-0.035,0.524-0.14,0.77
				c0.56,0.351,1.68,0.7,3.08,0.7c1.82,0,3.291-0.7,3.291-2.03c0-1.085-1.085-1.61-3.326-2.17c-3.85-0.98-5.916-1.926-5.916-4.621
				c0-2.31,2.065-4.515,5.916-4.515c1.96,0,3.92,0.63,4.901,1.609c0.525,0.525,0.77,1.155,0.77,1.82
				C57.16,28.242,56.495,28.942,55.55,28.942z"/>
			<path fill="#6C6D6F" d="M62.935,37.483c-0.28-0.595-0.455-1.365-0.455-2.205v-8.681h-2.835v-2.591h2.835v-3.465l3.01-1.226v4.69
				h4.585v2.591H65.49v8.155c0,0.49,0.07,0.841,0.21,1.155c0.28,0.49,0.84,0.735,1.715,0.735c0.91,0,1.995-0.42,2.87-0.84
				l-0.315,2.695c-0.875,0.455-1.995,0.875-3.396,0.875C64.895,39.374,63.6,38.778,62.935,37.483z"/>
			<path fill="#6C6D6F" d="M75.639,32.512c0.42,2.871,2.52,4.271,5.46,4.271c1.925,0,3.57-0.595,5.355-1.609l-0.245,2.765
				c-1.575,0.98-3.5,1.436-5.566,1.436c-4.865,0-8.156-3.15-8.156-7.771c0-4.235,2.905-7.875,7.491-7.875
				c4.656,0,7.106,3.325,7.106,7.176c0,0.56-0.07,1.154-0.14,1.609H75.639L75.639,32.512L75.639,32.512z M75.639,30.272h8.436
				c-0.14-2.415-1.61-4.06-4.166-4.06C77.88,26.212,76.025,27.543,75.639,30.272z"/>
			<path fill="#6C6D6F" d="M102.031,25.932c0,1.085-0.875,2.03-1.925,2.03c-1.015,0-1.715-0.631-1.995-1.296
				c-1.12,0.351-2.416,1.61-3.15,3.046v6.86h2.765v2.521H89.64v-2.521h2.346v-9.976H89.64v-2.591h5.216v3.431
				c1.19-2.065,2.94-3.71,4.69-3.71C101.19,23.727,102.031,24.742,102.031,25.932z"/>
			<path fill="#6C6D6F" d="M111.689,31.637c0-4.306,3.045-7.91,7.351-7.91c1.89,0,3.465,0.699,4.48,1.645v-9.311h-2.59V13.47h5.601
				v23.103h2.345v2.521h-5.32v-1.925c-1.19,1.26-2.695,2.205-4.796,2.205C114.769,39.374,111.689,36.223,111.689,31.637z
				 M123.52,34.823v-7.001c-1.085-0.84-2.38-1.47-4.13-1.47c-2.59,0-4.585,2.065-4.621,5.25c0,3.15,1.995,5.146,4.55,5.146
				C121.035,36.748,122.4,35.943,123.52,34.823z"/>
			<path fill="#6C6D6F" d="M131.114,31.568c0-4.236,3.081-7.841,7.876-7.841s7.876,3.57,7.876,7.841c0,4.2-3.115,7.806-7.876,7.806
				C134.159,39.374,131.114,35.803,131.114,31.568z M143.75,31.568c0-3.081-1.96-5.286-4.761-5.286
				c-2.835,0-4.795,2.205-4.795,5.286c0,3.08,1.96,5.25,4.795,5.25C141.79,36.818,143.75,34.648,143.75,31.568z"/>
			<path fill="#6C6D6F" d="M160.2,28.942c-1.05,0-1.82-0.665-1.82-1.68c0-0.245,0.035-0.525,0.14-0.771
				c-0.595-0.279-1.47-0.455-2.415-0.455c-1.925,0-2.976,0.945-2.976,1.926c0,1.12,1.155,1.575,3.57,2.205
				c3.255,0.84,5.636,1.715,5.636,4.551c0,3.01-2.87,4.69-6.161,4.69c-2.275,0-4.585-0.771-5.601-1.785
				c-0.56-0.561-0.84-1.19-0.84-1.961c0-0.979,0.7-1.82,1.715-1.82c0.98,0,1.785,0.665,1.785,1.751c0,0.279-0.035,0.524-0.14,0.77
				c0.56,0.351,1.68,0.7,3.08,0.7c1.82,0,3.291-0.7,3.291-2.03c0-1.085-1.085-1.61-3.326-2.17c-3.85-0.98-5.916-1.926-5.916-4.621
				c0-2.31,2.065-4.515,5.916-4.515c1.96,0,3.92,0.63,4.901,1.609c0.525,0.525,0.77,1.155,0.77,1.82
				C161.81,28.242,161.145,28.942,160.2,28.942z"/>
			<path fill="#6C6D6F" d="M165.168,36.573h2.45v-9.976h-2.45v-2.591h5.46v12.566h2.416v2.521h-7.876L165.168,36.573L165.168,36.573
				z M166.603,18.616c0-1.189,1.015-2.17,2.206-2.17c1.155,0,2.17,0.98,2.17,2.17c0,1.226-1.05,2.206-2.205,2.206
				C167.584,20.822,166.603,19.841,166.603,18.616z"/>
			<path fill="#6C6D6F" d="M180.709,26.632c1.435-1.541,3.325-2.905,5.496-2.905c1.89,0,3.185,0.734,3.955,1.925
				c0.49,0.84,0.771,1.891,0.771,3.15v7.771h2.345v2.521h-7.596v-2.521h2.24v-7.105c0-0.735-0.105-1.33-0.35-1.785
				c-0.42-0.805-1.155-1.19-2.24-1.19c-1.646,0-3.221,0.98-4.516,2.275v7.806h2.24v2.521h-7.561v-2.521h2.345v-9.976h-2.345v-2.591
				h5.216V26.632L180.709,26.632z"/>
			<path fill="#6C6D6F" d="M209.9,39.409c0,1.854-0.49,3.36-1.4,4.445c-1.26,1.54-3.325,2.24-5.706,2.24
				c-2.485,0-4.48-0.771-5.46-1.75c-0.56-0.561-0.805-1.155-0.805-1.82c0-1.051,0.77-1.961,1.89-1.961
				c1.015,0,1.75,0.735,1.75,1.716c0,0.28-0.07,0.595-0.21,0.84c0.525,0.21,1.4,0.49,2.661,0.49c1.435,0,2.695-0.42,3.5-1.436
				c0.49-0.63,0.77-1.54,0.77-2.765v-2.626c-1.19,1.226-2.555,2.136-4.725,2.136c-3.886,0-7.036-3.046-7.036-7.491
				c0-4.165,3.045-7.7,7.28-7.7c1.996,0,3.5,0.77,4.621,1.785v-1.506h5.216v2.591h-2.345v12.812L209.9,39.409L209.9,39.409z
				 M198.208,31.392c0,3.011,1.925,4.936,4.585,4.936c1.645,0,3.01-0.77,4.095-1.89v-6.616c-1.015-0.84-2.31-1.47-4.025-1.47
				C200.134,26.352,198.208,28.382,198.208,31.392z"/>
		</g>
	</g>
</g>
</svg>
