<svg version="1.1" id="Layer_1" xmlns="http://www.w3.org/2000/svg" xmlns:xlink="http://www.w3.org/1999/xlink" x="0px" y="0px"
	 width="520px" height="50px" viewBox="0 0 520 50" enable-background="new 0 0 520 50" xml:space="preserve">
<g id="Layer_2">
</g>
<g id="Layer_1_1_">
	<path fill="#6C6D6F" d="M10.47,36.26h2.8V18.898h-2.8v-2.835h9.031c4.865,0,8.611,2.835,8.611,7.386
		c0,4.936-3.57,7.631-8.821,7.631c-1.19,0-2.24-0.035-2.835-0.07v5.251h3.01v2.835H10.47V36.26z M24.856,23.449
		c0-2.836-2.345-4.551-5.425-4.551h-2.976v9.312c0.595,0.034,1.54,0.069,3.045,0.069C22.826,28.279,24.856,26.459,24.856,23.449z"/>
	<path fill="#6C6D6F" d="M42.986,25.934c0,1.085-0.875,2.03-1.925,2.03c-1.015,0-1.715-0.631-1.995-1.296
		c-1.12,0.351-2.416,1.61-3.15,3.046v6.86h2.765v2.521h-8.086v-2.521h2.346v-9.976h-2.346v-2.591h5.216v3.431
		c1.19-2.065,2.94-3.71,4.69-3.71C42.145,23.729,42.986,24.744,42.986,25.934z"/>
	<path fill="#6C6D6F" d="M44.35,31.57c0-4.236,3.08-7.841,7.875-7.841s7.876,3.57,7.876,7.841c0,4.2-3.115,7.806-7.876,7.806
		C47.395,39.376,44.35,35.805,44.35,31.57z M56.986,31.57c0-3.081-1.96-5.286-4.761-5.286c-2.835,0-4.795,2.205-4.795,5.286
		c0,3.08,1.96,5.25,4.795,5.25C55.026,36.82,56.986,34.65,56.986,31.57z"/>
	<path fill="#6C6D6F" d="M62.514,36.575h2.45V16.063h-2.45v-2.591h5.46v23.103h2.415v2.521h-7.875V36.575z"/>
	<path fill="#6C6D6F" d="M72.839,31.57c0-4.236,3.08-7.841,7.875-7.841s7.876,3.57,7.876,7.841c0,4.2-3.115,7.806-7.876,7.806
		C75.884,39.376,72.839,35.805,72.839,31.57z M85.475,31.57c0-3.081-1.96-5.286-4.761-5.286c-2.835,0-4.795,2.205-4.795,5.286
		c0,3.08,1.96,5.25,4.795,5.25C83.515,36.82,85.475,34.65,85.475,31.57z"/>
	<path fill="#6C6D6F" d="M96.464,26.634c1.435-1.541,3.325-2.905,5.496-2.905c1.89,0,3.185,0.734,3.956,1.925
		c0.49,0.84,0.77,1.891,0.77,3.15v7.771h2.345v2.521h-7.596v-2.521h2.24V29.47c0-0.735-0.105-1.33-0.35-1.785
		c-0.42-0.805-1.155-1.19-2.24-1.19c-1.646,0-3.221,0.98-4.516,2.275v7.806h2.24v2.521h-7.561v-2.521h2.346V26.6h-2.346v-2.591
		h5.216L96.464,26.634L96.464,26.634z"/>
	<path fill="#6C6D6F" d="M125.655,39.411c0,1.854-0.49,3.36-1.4,4.445c-1.26,1.54-3.325,2.24-5.706,2.24
		c-2.485,0-4.48-0.771-5.46-1.75c-0.56-0.561-0.805-1.155-0.805-1.82c0-1.051,0.77-1.961,1.89-1.961c1.015,0,1.75,0.735,1.75,1.716
		c0,0.28-0.07,0.595-0.21,0.84c0.525,0.21,1.4,0.49,2.661,0.49c1.435,0,2.695-0.42,3.5-1.436c0.49-0.63,0.771-1.54,0.771-2.765
		v-2.626c-1.19,1.226-2.556,2.136-4.726,2.136c-3.886,0-7.036-3.046-7.036-7.491c0-4.165,3.045-7.7,7.281-7.7
		c1.995,0,3.5,0.77,4.62,1.785v-1.506h5.216v2.591h-2.345v12.812L125.655,39.411L125.655,39.411z M113.964,31.394
		c0,3.011,1.925,4.936,4.585,4.936c1.645,0,3.01-0.77,4.096-1.89v-6.616c-1.015-0.84-2.311-1.47-4.026-1.47
		C115.889,26.354,113.964,28.384,113.964,31.394z"/>
	<path fill="#6C6D6F" d="M133.424,32.514c0.42,2.871,2.521,4.271,5.46,4.271c1.925,0,3.57-0.595,5.355-1.609l-0.245,2.765
		c-1.575,0.98-3.5,1.436-5.566,1.436c-4.865,0-8.156-3.15-8.156-7.771c0-4.235,2.905-7.875,7.491-7.875
		c4.656,0,7.106,3.325,7.106,7.176c0,0.56-0.07,1.154-0.14,1.609h-11.305L133.424,32.514L133.424,32.514z M133.424,30.274h8.436
		c-0.14-2.415-1.61-4.06-4.166-4.06C135.664,26.214,133.809,27.545,133.424,30.274z"/>
	<path fill="#6C6D6F" d="M147.529,31.639c0-4.306,3.045-7.91,7.351-7.91c1.89,0,3.465,0.699,4.48,1.645v-9.311h-2.59v-2.591h5.601
		v23.103h2.345v2.521h-5.32v-1.925c-1.19,1.26-2.695,2.205-4.796,2.205C150.609,39.376,147.529,36.225,147.529,31.639z
		 M159.36,34.825v-7.001c-1.085-0.84-2.38-1.47-4.13-1.47c-2.59,0-4.585,2.065-4.621,5.25c0,3.15,1.995,5.146,4.55,5.146
		C156.874,36.75,158.24,35.945,159.36,34.825z"/>
	<path fill="#6C6D6F" d="M185.364,28.944c-1.05,0-1.82-0.665-1.82-1.68c0-0.245,0.035-0.525,0.14-0.771
		c-0.595-0.279-1.47-0.455-2.415-0.455c-1.925,0-2.976,0.945-2.976,1.926c0,1.12,1.155,1.575,3.57,2.205
		c3.255,0.84,5.636,1.715,5.636,4.551c0,3.01-2.87,4.69-6.161,4.69c-2.275,0-4.585-0.771-5.601-1.785
		c-0.56-0.561-0.84-1.19-0.84-1.961c0-0.979,0.7-1.82,1.715-1.82c0.98,0,1.785,0.665,1.785,1.751c0,0.279-0.035,0.524-0.14,0.77
		c0.56,0.351,1.68,0.7,3.08,0.7c1.82,0,3.291-0.7,3.291-2.03c0-1.085-1.085-1.61-3.326-2.17c-3.85-0.98-5.916-1.926-5.916-4.621
		c0-2.31,2.065-4.515,5.916-4.515c1.96,0,3.92,0.63,4.901,1.609c0.525,0.525,0.77,1.155,0.77,1.82
		C186.974,28.244,186.309,28.944,185.364,28.944z"/>
	<path fill="#6C6D6F" d="M192.538,37.38c-0.455-0.841-0.7-1.855-0.7-3.081v-7.7h-2.345v-2.591h5.321v9.626
		c0,0.771,0.14,1.365,0.385,1.82c0.42,0.806,1.12,1.155,2.205,1.155c1.646,0,3.186-1.015,4.516-2.275v-7.735h-2.415v-2.591h5.425
		v12.566h2.345v2.521h-5.25V36.47c-1.435,1.54-3.325,2.905-5.496,2.905C194.604,39.376,193.308,38.605,192.538,37.38z"/>
	<path fill="#6C6D6F" d="M221.94,25.934c0,1.085-0.875,2.03-1.925,2.03c-1.015,0-1.715-0.631-1.995-1.296
		c-1.12,0.351-2.416,1.61-3.15,3.046v6.86h2.765v2.521h-8.086v-2.521h2.346v-9.976h-2.346v-2.591h5.216v3.431
		c1.19-2.065,2.94-3.71,4.69-3.71C221.099,23.729,221.94,24.744,221.94,25.934z"/>
	<path fill="#6C6D6F" d="M224.458,26.599h-1.89v-2.591h7.316v2.485h-2.311l4.096,9.066l4.095-9.066h-2.415v-2.485h7.316v2.591
		h-1.891l-6.195,12.916h-1.925L224.458,26.599z"/>
	<path fill="#6C6D6F" d="M242.203,36.575h2.45v-9.976h-2.45v-2.591h5.46v12.566h2.416v2.521h-7.876L242.203,36.575L242.203,36.575z
		 M243.638,18.618c0-1.189,1.015-2.17,2.206-2.17c1.155,0,2.17,0.98,2.17,2.17c0,1.226-1.05,2.206-2.205,2.206
		C244.618,20.824,243.638,19.843,243.638,18.618z"/>
	<path fill="#6C6D6F" d="M252.773,26.599h-1.89v-2.591h7.316v2.485h-2.311l4.096,9.066l4.095-9.066h-2.415v-2.485h7.316v2.591
		h-1.891l-6.195,12.916h-1.925L252.773,26.599z"/>
	<path fill="#6C6D6F" d="M270.063,35.07c0-2.766,2.45-4.551,5.916-4.551c1.575,0,3.326,0.351,4.13,0.596v-1.716
		c0-0.875-0.245-1.575-0.665-2.1c-0.63-0.771-1.68-1.155-3.15-1.155c-0.945,0-1.505,0.21-1.96,0.455
		c0.105,0.245,0.175,0.56,0.175,0.84c0,0.98-0.735,1.715-1.75,1.715c-1.05,0-1.785-0.734-1.785-1.785c0-1.785,1.96-3.64,5.811-3.64
		c2.345,0,4.061,0.699,5.076,1.89c0.77,0.91,1.155,2.101,1.155,3.466v7.49h2.345v2.521h-5.181v-1.82
		c-1.225,1.155-3.15,2.101-5.181,2.101C272.233,39.376,270.063,37.8,270.063,35.07z M280.109,35.315v-2.45
		c-1.015-0.28-2.31-0.525-3.675-0.525c-2.135,0-3.325,1.016-3.325,2.485c0,1.365,1.015,2.275,2.765,2.275
		C277.484,37.1,278.954,36.33,280.109,35.315z"/>
	<path fill="#6C6D6F" d="M286.863,36.575h2.45V16.063h-2.45v-2.591h5.46v23.103h2.415v2.521h-7.875V36.575z"/>
</g>
</svg>
