<?xml version="1.0" encoding="utf-8"?>
<!-- Generator: Adobe Illustrator 17.0.1, SVG Export Plug-In . SVG Version: 6.00 Build 0)  -->
<!DOCTYPE svg PUBLIC "-//W3C//DTD SVG 1.1//EN" "http://www.w3.org/Graphics/SVG/1.1/DTD/svg11.dtd">
<svg version="1.1" id="Layer_1" xmlns="http://www.w3.org/2000/svg" xmlns:xlink="http://www.w3.org/1999/xlink" x="0px" y="0px"
	 width="520px" height="50px" viewBox="0 0 520 50" enable-background="new 0 0 520 50" xml:space="preserve">
<g id="Layer_2">
</g>
<g id="Layer_1_1_">
	<g>
		<g enable-background="new    ">
			<path fill="#6C6D6F" d="M13.2,28.803V16.727h-2.73v-2.835h8.786v2.835h-2.905v11.866c0,3.886,1.96,5.846,5.32,5.846
				c3.396,0,5.391-1.855,5.391-5.74V16.727h-2.905v-2.835h8.751v2.835h-2.765v11.972c0,5.705-3.326,8.646-8.471,8.646
				C16.455,37.344,13.2,34.404,13.2,28.803z"/>
			<path fill="#6C6D6F" d="M39.66,24.463c1.435-1.541,3.325-2.905,5.496-2.905c1.89,0,3.185,0.734,3.955,1.925
				c0.49,0.84,0.771,1.891,0.771,3.15v7.771h2.345v2.521h-7.596v-2.521h2.24v-7.105c0-0.735-0.105-1.33-0.35-1.785
				c-0.42-0.805-1.155-1.19-2.24-1.19c-1.646,0-3.221,0.98-4.516,2.275v7.806h2.24v2.521h-7.561v-2.521h2.345v-9.976h-2.345v-2.591
				h5.216V24.463z"/>
			<path fill="#6C6D6F" d="M54.289,34.404h2.45v-9.976h-2.45v-2.591h5.46v12.566h2.416v2.521h-7.876L54.289,34.404L54.289,34.404z
				 M55.724,16.447c0-1.189,1.015-2.17,2.206-2.17c1.155,0,2.17,0.98,2.17,2.17c0,1.226-1.05,2.206-2.205,2.206
				C56.704,18.653,55.724,17.672,55.724,16.447z"/>
			<path fill="#6C6D6F" d="M73.785,41.195h2.905v-6.091c-1.225,1.155-2.661,2.101-4.866,2.101c-3.956,0-7.105-3.186-7.105-7.806
				c0-4.341,3.15-7.841,7.42-7.841c1.925,0,3.5,0.734,4.795,1.785l0.771-1.575h1.96v19.427h2.38v2.59h-8.261L73.785,41.195
				L73.785,41.195z M76.69,32.654v-7.036c-1.085-0.805-2.485-1.435-4.201-1.435c-2.555,0-4.69,1.96-4.69,5.216
				c0,3.185,2.03,5.18,4.621,5.18C74.135,34.579,75.535,33.774,76.69,32.654z"/>
			<path fill="#6C6D6F" d="M85.754,35.209c-0.455-0.841-0.7-1.855-0.7-3.081v-7.7h-2.345v-2.591h5.321v9.626
				c0,0.771,0.14,1.365,0.385,1.82c0.42,0.806,1.12,1.155,2.206,1.155c1.645,0,3.185-1.015,4.515-2.275v-7.735h-2.415v-2.591h5.425
				v12.566h2.345v2.521h-5.25v-2.625c-1.435,1.54-3.325,2.905-5.496,2.905C87.819,37.205,86.524,36.434,85.754,35.209z"/>
			<path fill="#6C6D6F" d="M105.949,30.343c0.42,2.871,2.52,4.271,5.46,4.271c1.925,0,3.57-0.595,5.355-1.609l-0.245,2.765
				c-1.575,0.98-3.5,1.436-5.566,1.436c-4.865,0-8.156-3.15-8.156-7.771c0-4.235,2.905-7.875,7.491-7.875
				c4.656,0,7.106,3.325,7.106,7.176c0,0.56-0.07,1.154-0.14,1.609h-11.305L105.949,30.343L105.949,30.343z M105.949,28.103h8.436
				c-0.14-2.415-1.61-4.06-4.166-4.06C108.189,24.043,106.334,25.374,105.949,28.103z"/>
			<path fill="#6C6D6F" d="M127.824,34.089h2.87l0.805-17.362h-3.01v-2.835h5.916l7.351,14.456l7.351-14.456h5.846v2.835h-2.976
				l0.771,17.362h2.905v2.835h-8.891v-2.835h2.835l-0.525-14.316l-7.07,13.651h-0.595l-7.071-13.651l-0.525,14.316h2.835v2.835
				h-8.821L127.824,34.089L127.824,34.089z"/>
			<path fill="#6C6D6F" d="M158.414,25.408c0-6.755,4.9-11.936,11.796-11.936c6.791,0,11.622,5.215,11.622,11.936
				c0,6.756-4.901,11.937-11.796,11.937C163.245,37.344,158.414,32.128,158.414,25.408z M178.576,25.408
				c0-5.146-3.536-8.995-8.436-8.995c-4.936,0-8.471,3.815-8.471,8.995c0,5.146,3.535,8.996,8.471,8.996
				C175.04,34.404,178.576,30.588,178.576,25.408z"/>
			<path fill="#6C6D6F" d="M183.369,34.089h2.1l6.406-17.397h-2.555v-2.8h11.551v2.8h-2.59l6.406,17.397h2.135v2.835h-8.191v-2.801
				h2.66l-1.715-4.865h-9.101l-1.715,4.865h2.8v2.801h-8.191V34.089z M198.665,26.598l-3.64-10.046l-3.641,10.046H198.665z"/>
		</g>
	</g>
</g>
</svg>
