<?xml version="1.0" encoding="utf-8"?>
<!-- Generator: Adobe Illustrator 17.0.1, SVG Export Plug-In . SVG Version: 6.00 Build 0)  -->
<!DOCTYPE svg PUBLIC "-//W3C//DTD SVG 1.1//EN" "http://www.w3.org/Graphics/SVG/1.1/DTD/svg11.dtd">
<svg version="1.1" id="Layer_1" xmlns="http://www.w3.org/2000/svg" xmlns:xlink="http://www.w3.org/1999/xlink" x="0px" y="0px"
	 width="520px" height="50px" viewBox="0 0 520 50" enable-background="new 0 0 520 50" xml:space="preserve">
<g id="Layer_2">
</g>
<g id="Layer_1_1_">
	<g>
		<g enable-background="new    ">
			<path fill="#6C6D6F" d="M10.472,33.244h2.1l6.406-17.397h-2.555v-2.8h11.551v2.8h-2.59l6.406,17.397h2.135v2.835h-8.191v-2.801
				h2.66l-1.715-4.865h-9.101l-1.715,4.865h2.8v2.801h-8.191L10.472,33.244L10.472,33.244z M25.769,25.753l-3.641-10.046
				l-3.641,10.046H25.769L25.769,25.753z"/>
			<path fill="#6C6D6F" d="M35.217,40.42h2.345V23.583h-2.345v-2.591h5.215v1.961c1.26-1.296,2.661-2.24,4.831-2.24
				c3.956,0,7.036,3.15,7.036,7.735c0,4.341-3.045,7.911-7.315,7.911c-1.715,0-3.221-0.63-4.411-1.61v5.671h2.695v2.52h-8.051
				C35.217,42.94,35.217,40.42,35.217,40.42z M49.184,28.484c0-3.15-1.925-5.146-4.48-5.146c-1.715,0-3.01,0.805-4.13,1.925v7.036
				c1.05,0.84,2.38,1.435,4.061,1.435C47.189,33.734,49.184,31.669,49.184,28.484z"/>
			<path fill="#6C6D6F" d="M54.712,40.42h2.345V23.583h-2.345v-2.591h5.215v1.961c1.26-1.296,2.661-2.24,4.831-2.24
				c3.956,0,7.036,3.15,7.036,7.735c0,4.341-3.045,7.911-7.315,7.911c-1.715,0-3.22-0.63-4.411-1.61v5.671h2.695v2.52h-8.051
				C54.712,42.94,54.712,40.42,54.712,40.42z M68.678,28.484c0-3.15-1.925-5.146-4.48-5.146c-1.715,0-3.01,0.805-4.13,1.925v7.036
				c1.05,0.84,2.38,1.435,4.061,1.435C66.683,33.734,68.678,31.669,68.678,28.484z"/>
			<path fill="#6C6D6F" d="M86.878,22.918c0,1.085-0.875,2.03-1.925,2.03c-1.015,0-1.715-0.631-1.995-1.296
				c-1.12,0.351-2.416,1.61-3.15,3.046v6.86h2.765v2.521h-8.086v-2.521h2.346v-9.976h-2.346v-2.591h5.216v3.431
				c1.19-2.065,2.94-3.71,4.69-3.71C86.038,20.713,86.878,21.728,86.878,22.918z"/>
			<path fill="#6C6D6F" d="M88.242,28.554c0-4.236,3.08-7.841,7.875-7.841s7.876,3.57,7.876,7.841c0,4.2-3.115,7.806-7.876,7.806
				C91.287,36.36,88.242,32.789,88.242,28.554z M100.878,28.554c0-3.081-1.96-5.286-4.761-5.286c-2.835,0-4.795,2.205-4.795,5.286
				c0,3.08,1.96,5.25,4.795,5.25C98.918,33.804,100.878,31.634,100.878,28.554z"/>
			<path fill="#6C6D6F" d="M106.372,40.42h2.345V23.583h-2.345v-2.591h5.215v1.961c1.26-1.296,2.661-2.24,4.831-2.24
				c3.956,0,7.036,3.15,7.036,7.735c0,4.341-3.045,7.911-7.315,7.911c-1.715,0-3.22-0.63-4.411-1.61v5.671h2.695v2.52h-8.051V40.42z
				 M120.338,28.484c0-3.15-1.925-5.146-4.48-5.146c-1.715,0-3.01,0.805-4.13,1.925v7.036c1.05,0.84,2.38,1.435,4.061,1.435
				C118.343,33.734,120.338,31.669,120.338,28.484z"/>
			<path fill="#6C6D6F" d="M138.538,22.918c0,1.085-0.875,2.03-1.925,2.03c-1.015,0-1.715-0.631-1.995-1.296
				c-1.12,0.351-2.416,1.61-3.15,3.046v6.86h2.765v2.521h-8.086v-2.521h2.346v-9.976h-2.346v-2.591h5.216v3.431
				c1.19-2.065,2.94-3.71,4.69-3.71C137.698,20.713,138.538,21.728,138.538,22.918z"/>
			<path fill="#6C6D6F" d="M140.287,33.559h2.45v-9.976h-2.45v-2.591h5.46v12.566h2.416v2.521h-7.876V33.559L140.287,33.559z
				 M141.722,15.602c0-1.189,1.015-2.17,2.206-2.17c1.155,0,2.17,0.98,2.17,2.17c0,1.226-1.05,2.206-2.205,2.206
				C142.702,17.808,141.722,16.827,141.722,15.602z"/>
			<path fill="#6C6D6F" d="M150.471,32.054c0-2.766,2.45-4.551,5.916-4.551c1.575,0,3.326,0.351,4.131,0.596v-1.716
				c0-0.875-0.245-1.575-0.666-2.1c-0.63-0.771-1.68-1.155-3.15-1.155c-0.945,0-1.505,0.21-1.96,0.455
				c0.105,0.245,0.175,0.56,0.175,0.84c0,0.98-0.735,1.715-1.75,1.715c-1.05,0-1.785-0.734-1.785-1.785
				c0-1.785,1.96-3.64,5.811-3.64c2.345,0,4.061,0.699,5.076,1.89c0.77,0.91,1.155,2.101,1.155,3.466v7.49h2.345v2.521h-5.181v-1.82
				c-1.225,1.155-3.15,2.101-5.181,2.101C152.642,36.36,150.471,34.784,150.471,32.054z M160.518,32.299v-2.45
				c-1.015-0.28-2.311-0.525-3.676-0.525c-2.135,0-3.325,1.016-3.325,2.485c0,1.365,1.015,2.275,2.765,2.275
				C157.892,34.084,159.362,33.314,160.518,32.299z"/>
			<path fill="#6C6D6F" d="M170.247,34.469c-0.28-0.595-0.455-1.365-0.455-2.205v-8.681h-2.835v-2.591h2.835v-3.465l3.01-1.226v4.69
				h4.585v2.591h-4.585v8.155c0,0.49,0.07,0.841,0.21,1.155c0.28,0.49,0.84,0.735,1.715,0.735c0.91,0,1.995-0.42,2.87-0.84
				l-0.315,2.695c-0.875,0.455-1.995,0.875-3.396,0.875C172.207,36.36,170.912,35.764,170.247,34.469z"/>
			<path fill="#6C6D6F" d="M182.951,29.498c0.42,2.871,2.521,4.271,5.46,4.271c1.925,0,3.57-0.595,5.355-1.609l-0.245,2.765
				c-1.575,0.98-3.5,1.436-5.566,1.436c-4.865,0-8.156-3.15-8.156-7.771c0-4.235,2.905-7.875,7.491-7.875
				c4.656,0,7.106,3.325,7.106,7.176c0,0.56-0.07,1.154-0.14,1.609h-11.305L182.951,29.498L182.951,29.498z M182.951,27.258h8.436
				c-0.14-2.415-1.61-4.06-4.166-4.06C185.191,23.198,183.336,24.529,182.951,27.258z"/>
			<path fill="#6C6D6F" d="M204.511,40.42h2.345V23.583h-2.345v-2.591h5.215v1.961c1.26-1.296,2.661-2.24,4.831-2.24
				c3.956,0,7.036,3.15,7.036,7.735c0,4.341-3.045,7.911-7.315,7.911c-1.715,0-3.22-0.63-4.411-1.61v5.671h2.695v2.52h-8.051V40.42z
				 M218.477,28.484c0-3.15-1.925-5.146-4.48-5.146c-1.715,0-3.01,0.805-4.13,1.925v7.036c1.05,0.84,2.38,1.435,4.061,1.435
				C216.482,33.734,218.477,31.669,218.477,28.484z"/>
			<path fill="#6C6D6F" d="M224.146,32.054c0-2.766,2.45-4.551,5.916-4.551c1.575,0,3.326,0.351,4.13,0.596v-1.716
				c0-0.875-0.245-1.575-0.665-2.1c-0.63-0.771-1.68-1.155-3.15-1.155c-0.945,0-1.505,0.21-1.96,0.455
				c0.105,0.245,0.175,0.56,0.175,0.84c0,0.98-0.735,1.715-1.75,1.715c-1.05,0-1.785-0.734-1.785-1.785
				c0-1.785,1.96-3.64,5.811-3.64c2.345,0,4.061,0.699,5.076,1.89c0.77,0.91,1.155,2.101,1.155,3.466v7.49h2.345v2.521h-5.181v-1.82
				c-1.225,1.155-3.15,2.101-5.181,2.101C226.316,36.36,224.146,34.784,224.146,32.054z M234.191,32.299v-2.45
				c-1.015-0.28-2.31-0.525-3.675-0.525c-2.135,0-3.325,1.016-3.325,2.485c0,1.365,1.015,2.275,2.765,2.275
				C231.566,34.084,233.037,33.314,234.191,32.299z"/>
			<path fill="#6C6D6F" d="M243.921,34.469c-0.28-0.595-0.455-1.365-0.455-2.205v-8.681h-2.835v-2.591h2.835v-3.465l3.01-1.226v4.69
				h4.585v2.591h-4.585v8.155c0,0.49,0.07,0.841,0.21,1.155c0.28,0.49,0.84,0.735,1.715,0.735c0.91,0,1.995-0.42,2.87-0.84
				l-0.315,2.695c-0.875,0.455-1.995,0.875-3.396,0.875C245.881,36.36,244.586,35.764,243.921,34.469z"/>
			<path fill="#6C6D6F" d="M253.685,33.559h2.45v-9.976h-2.45v-2.591h5.46v12.566h2.416v2.521h-7.876V33.559L253.685,33.559z
				 M255.12,15.602c0-1.189,1.015-2.17,2.206-2.17c1.155,0,2.17,0.98,2.17,2.17c0,1.226-1.05,2.206-2.205,2.206
				C256.101,17.808,255.12,16.827,255.12,15.602z"/>
			<path fill="#6C6D6F" d="M267.195,29.498c0.42,2.871,2.521,4.271,5.46,4.271c1.925,0,3.57-0.595,5.355-1.609l-0.245,2.765
				c-1.575,0.98-3.5,1.436-5.566,1.436c-4.865,0-8.156-3.15-8.156-7.771c0-4.235,2.905-7.875,7.491-7.875
				c4.656,0,7.106,3.325,7.106,7.176c0,0.56-0.07,1.154-0.14,1.609h-11.305L267.195,29.498L267.195,29.498z M267.195,27.258h8.436
				c-0.14-2.415-1.61-4.06-4.166-4.06C269.436,23.198,267.581,24.529,267.195,27.258z"/>
			<path fill="#6C6D6F" d="M286.41,23.618c1.435-1.541,3.325-2.905,5.496-2.905c1.89,0,3.185,0.734,3.956,1.925
				c0.49,0.84,0.77,1.891,0.77,3.15v7.771h2.345v2.521h-7.596v-2.521h2.24v-7.105c0-0.735-0.105-1.33-0.35-1.785
				c-0.42-0.805-1.155-1.19-2.24-1.19c-1.646,0-3.221,0.98-4.516,2.275v7.806h2.24v2.521h-7.561V33.56h2.346v-9.976h-2.346v-2.591
				h5.216L286.41,23.618L286.41,23.618z"/>
			<path fill="#6C6D6F" d="M303.455,34.469c-0.28-0.595-0.455-1.365-0.455-2.205v-8.681h-2.835v-2.591H303v-3.465l3.01-1.226v4.69
				h4.585v2.591h-4.585v8.155c0,0.49,0.07,0.841,0.21,1.155c0.28,0.49,0.84,0.735,1.715,0.735c0.91,0,1.995-0.42,2.87-0.84
				l-0.315,2.695c-0.875,0.455-1.995,0.875-3.396,0.875C305.415,36.36,304.12,35.764,303.455,34.469z"/>
			<path fill="#6C6D6F" d="M323.475,34.469c-0.28-0.595-0.455-1.365-0.455-2.205v-8.681h-2.835v-2.591h2.835v-3.465l3.011-1.226
				v4.69h4.585v2.591h-4.585v8.155c0,0.49,0.069,0.841,0.209,1.155c0.28,0.49,0.84,0.735,1.716,0.735c0.909,0,1.995-0.42,2.87-0.84
				l-0.314,2.695c-0.875,0.455-1.996,0.875-3.396,0.875C325.435,36.36,324.14,35.764,323.475,34.469z"/>
			<path fill="#6C6D6F" d="M335.305,43.045c-1.681,0-2.87-0.945-2.87-2.136c0-1.085,0.734-1.715,1.645-1.715
				c0.875,0,1.436,0.63,1.646,1.26c0.49-0.175,0.979-0.56,1.54-1.364c0.28-0.455,0.596-1.016,0.945-1.716l1.016-2.1l-5.566-11.691
				h-1.96v-2.591h7.351v2.485h-2.311c0,0,3.956,8.961,3.921,8.961l3.99-8.961h-2.415v-2.485h7.281v2.591h-1.961l-7.105,15.156
				c-0.385,0.771-0.77,1.436-1.189,2.03C338.14,42.239,336.845,43.045,335.305,43.045z"/>
			<path fill="#6C6D6F" d="M350.459,40.42h2.345V23.583h-2.345v-2.591h5.216v1.961c1.26-1.296,2.66-2.24,4.83-2.24
				c3.955,0,7.035,3.15,7.035,7.735c0,4.341-3.045,7.911-7.314,7.911c-1.716,0-3.221-0.63-4.411-1.61v5.671h2.695v2.52h-8.051V40.42
				L350.459,40.42z M364.425,28.484c0-3.15-1.925-5.146-4.48-5.146c-1.715,0-3.01,0.805-4.13,1.925v7.036
				c1.05,0.84,2.38,1.435,4.061,1.435C362.431,33.734,364.425,31.669,364.425,28.484z"/>
			<path fill="#6C6D6F" d="M373.419,29.498c0.42,2.871,2.521,4.271,5.461,4.271c1.926,0,3.57-0.595,5.355-1.609l-0.244,2.765
				c-1.576,0.98-3.501,1.436-5.566,1.436c-4.865,0-8.156-3.15-8.156-7.771c0-4.235,2.906-7.875,7.491-7.875
				c4.655,0,7.106,3.325,7.106,7.176c0,0.56-0.07,1.154-0.141,1.609h-11.306V29.498z M373.419,27.258h8.437
				c-0.14-2.415-1.61-4.06-4.165-4.06C375.659,23.198,373.805,24.529,373.419,27.258z"/>
			<path fill="#6C6D6F" d="M398.095,25.928c-1.05,0-1.82-0.665-1.82-1.68c0-0.245,0.035-0.525,0.141-0.771
				c-0.596-0.279-1.471-0.455-2.416-0.455c-1.925,0-2.975,0.945-2.975,1.926c0,1.12,1.154,1.575,3.57,2.205
				c3.255,0.84,5.635,1.715,5.635,4.551c0,3.01-2.869,4.69-6.16,4.69c-2.275,0-4.586-0.771-5.601-1.785
				c-0.56-0.561-0.84-1.19-0.84-1.961c0-0.979,0.7-1.82,1.715-1.82c0.98,0,1.785,0.665,1.785,1.751c0,0.279-0.034,0.524-0.14,0.77
				c0.561,0.351,1.68,0.7,3.08,0.7c1.82,0,3.291-0.7,3.291-2.03c0-1.085-1.086-1.61-3.326-2.17c-3.85-0.98-5.916-1.926-5.916-4.621
				c0-2.31,2.066-4.515,5.916-4.515c1.961,0,3.92,0.63,4.9,1.609c0.525,0.525,0.771,1.155,0.771,1.82
				C399.705,25.228,399.04,25.928,398.095,25.928z"/>
		</g>
	</g>
</g>
</svg>
