<?xml version="1.0" encoding="utf-8"?>
<!-- Generator: Adobe Illustrator 17.0.1, SVG Export Plug-In . SVG Version: 6.00 Build 0)  -->
<!DOCTYPE svg PUBLIC "-//W3C//DTD SVG 1.1//EN" "http://www.w3.org/Graphics/SVG/1.1/DTD/svg11.dtd">
<svg version="1.1" id="Layer_1" xmlns="http://www.w3.org/2000/svg" xmlns:xlink="http://www.w3.org/1999/xlink" x="0px" y="0px"
	 width="361px" height="411.602px" viewBox="0 0 361 411.602" style="enable-background:new 0 0 361 411.602;" xml:space="preserve"
	>
<style type="text/css">
	.st0{fill:#6D6E70;}
</style>
<g>
	<g>
		<path class="st0" d="M141.31,33.083h-41.041H86.846H32.454C16.187,33.083,3,46.267,3,62.53c0,0.609,0.026,1.216,0.066,1.819
			c0.341,9.536,2.228,55.064,8.35,98.429c4.444,31.473,11.103,61.805,21.039,76.42c11.994,17.664,38.132,33.97,58.895,44.915
			c-0.052,0.538-0.079,1.081-0.079,1.639v4.076c0,9.031,7.34,16.352,16.398,16.352h3.881h2.533l0.01,36.794
			c0.714,11.555,8.704,33.413,33.813,33.413c23.725,0,27.265,17.08,27.265,27.265c0,3.71,3.001,6.711,6.711,6.711
			c3.709,0,6.711-3.002,6.711-6.711c0-19.669-10.69-40.688-40.688-40.688c-18.391,0-20.266-18.711-20.403-20.403v-36.382h2.53h3.88
			c9.058,0,16.399-7.321,16.399-16.352v-4.076c0-0.558-0.026-1.101-0.079-1.639c20.75-10.945,46.901-27.251,58.895-44.915
			c23.608-34.763,28.786-158.395,29.376-174.849c0.039-0.603,0.066-1.209,0.066-1.819c0-16.264-13.187-29.447-29.441-29.447h-54.392
			H141.31z M225.104,63.474l-0.013,0.197l-0.006,0.197c-1.796,50.165-9.523,141.958-27.062,167.794
			c-8.238,12.125-27.435,26.537-54.058,40.583l-7.97,4.201l0.879,8.973l0.013,0.334v4.076c0,1.612-1.338,2.93-2.976,2.93h-3.88
			h-18.482h-3.881c-1.642,0-2.975-1.317-2.975-2.93v-4.076l0.016-0.334l0.875-8.973l-7.976-4.207
			c-26.609-14.026-45.803-28.438-54.055-40.583c-4.174-6.148-12.177-23.506-18.846-70.755c-6.066-42.961-7.917-88.365-8.229-97.029
			l-0.006-0.2l-0.013-0.197c-0.019-0.311-0.036-0.625-0.036-0.944c0-8.835,7.193-16.025,16.031-16.025h176.671
			c8.835,0,16.019,7.19,16.019,16.025C225.144,62.849,225.124,63.163,225.104,63.474z"/>
	</g>
	<polygon class="st0" points="127.501,33.67 127.501,4 114.085,4 114.092,34.083 	"/>
</g>
</svg>
