<?xml version="1.0" encoding="utf-8"?>
<!-- Generator: Adobe Illustrator 17.0.1, SVG Export Plug-In . SVG Version: 6.00 Build 0)  -->
<!DOCTYPE svg PUBLIC "-//W3C//DTD SVG 1.1//EN" "http://www.w3.org/Graphics/SVG/1.1/DTD/svg11.dtd">
<svg version="1.1" id="Layer_1" xmlns="http://www.w3.org/2000/svg" xmlns:xlink="http://www.w3.org/1999/xlink" x="0px" y="0px"
	 width="734.25px" height="97.5px" viewBox="0 0 734.25 97.5" enable-background="new 0 0 734.25 97.5" xml:space="preserve">
<g id="_x34_.0_mCRPC_Safety_profile__x28_Serious_AEs_x29_">
	<g enable-background="new    ">
		<path fill="#60A296" d="M1.776,19.73c0-9.266,6.721-16.37,16.322-16.37c9.553,0,16.081,7.153,16.081,16.37
			c0,9.265-6.72,16.369-16.321,16.369C8.305,36.099,1.776,28.947,1.776,19.73z M28.562,19.73c0-6.577-4.464-11.329-10.561-11.329
			c-6.145,0-10.609,4.704-10.609,11.329c0,6.576,4.464,11.328,10.609,11.328C24.098,31.058,28.562,26.354,28.562,19.73z"/>
		<path fill="#60A296" d="M37.632,40.612h3.12V18.914h-3.12v-4.416h8.161v2.399c1.632-1.536,3.408-2.784,6.241-2.784
			c5.472,0,9.601,4.465,9.601,10.801c0,6.097-4.368,10.993-9.937,10.993c-2.256,0-4.128-0.815-5.712-2.016v6.721h3.408v4.32H37.633
			L37.632,40.612L37.632,40.612z M56.257,24.962c0-4.033-2.4-6.337-5.376-6.337c-1.968,0-3.504,0.864-4.896,2.112v9.024
			c1.344,0.96,2.976,1.633,4.896,1.633C53.665,31.395,56.257,29.138,56.257,24.962z"/>
		<path fill="#60A296" d="M68.496,33.027c-0.48-0.864-0.72-1.969-0.72-3.312V18.914h-4.08v-4.416h4.08v-4.417l5.185-2.256v6.673
			h6.385v4.416h-6.385v9.793c0,0.672,0.096,1.104,0.336,1.536c0.384,0.672,1.152,1.008,2.208,1.008c1.344,0,2.88-0.528,4.128-1.104
			l-0.432,4.513c-1.44,0.721-3.121,1.248-5.041,1.248C71.616,35.907,69.552,35.043,68.496,33.027z"/>
		<path fill="#60A296" d="M82.511,31.203h3.216V18.914h-3.216v-4.416h8.449v16.705h3.12v4.32H82.511V31.203z M84.335,7.825
			c0-1.92,1.68-3.456,3.552-3.456s3.457,1.536,3.457,3.456s-1.68,3.456-3.553,3.456C85.919,11.281,84.335,9.745,84.335,7.825z"/>
		<path fill="#60A296" d="M112.177,21.986c-1.68,0-2.832-1.008-2.832-2.592c0-0.337,0-0.625,0.096-0.912
			c-0.864-0.337-1.92-0.528-2.976-0.528c-2.353,0-3.504,1.056-3.504,2.16c0,1.2,1.2,1.824,4.417,2.688
			c5.041,1.344,7.969,2.592,7.969,6.384c0,4.417-4.128,6.769-8.881,6.769c-3.216,0-6.673-1.151-8.065-2.544
			c-0.864-0.864-1.2-1.728-1.2-2.832c0-1.536,1.152-2.832,2.784-2.832c1.44,0,2.832,0.96,2.832,2.784
			c0,0.288-0.048,0.576-0.096,0.864c0.96,0.384,2.304,0.672,3.792,0.672c2.112,0,3.84-0.721,3.84-2.257
			c0-1.056-0.912-1.68-4.128-2.544c-5.809-1.536-8.257-2.928-8.257-6.528c0-3.265,2.688-6.673,8.593-6.673
			c2.544,0,5.617,0.96,7.057,2.4c0.768,0.768,1.152,1.68,1.152,2.688C114.769,20.834,113.713,21.986,112.177,21.986z"/>
		<path fill="#60A296" d="M122.495,33.027c-0.48-0.864-0.72-1.969-0.72-3.312V18.914h-4.08v-4.416h4.08v-4.417l5.185-2.256v6.673
			h6.385v4.416h-6.385v9.793c0,0.672,0.096,1.104,0.336,1.536c0.384,0.672,1.152,1.008,2.208,1.008c1.344,0,2.88-0.528,4.128-1.104
			L133.2,34.66c-1.44,0.721-3.121,1.248-5.041,1.248C125.616,35.907,123.552,35.043,122.495,33.027z"/>
		<path fill="#60A296" d="M136.654,30.002c0-3.937,3.456-6.337,8.449-6.337c2.16,0,4.176,0.288,5.329,0.576v-1.68
			c0-1.248-0.288-2.208-0.816-2.881c-0.864-1.104-2.256-1.536-4.128-1.536c-0.912,0-1.584,0.145-2.064,0.337
			c0.096,0.287,0.192,0.768,0.192,1.056c0,1.584-1.248,2.736-2.832,2.736c-1.584,0-2.784-1.104-2.784-2.832
			c0-2.593,2.64-5.329,8.353-5.329c3.601,0,6.048,1.009,7.537,2.833c1.104,1.344,1.632,3.168,1.632,5.28v8.977h3.12v4.32h-8.113
			v-2.305c-1.68,1.44-4.224,2.688-7.057,2.688C139.87,35.907,136.654,33.939,136.654,30.002z M150.432,30.243v-3.312
			c-1.2-0.288-2.688-0.48-4.321-0.48c-2.544,0-4.08,1.152-4.08,3.072c0,1.681,1.248,2.593,3.12,2.593
			C147.023,32.116,148.847,31.395,150.432,30.243z"/>
		<path fill="#60A296" d="M161.231,18.914h-2.448v-4.416h10.753v4.176h-3.024l5.041,10.945l5.041-10.945h-3.168v-4.176h10.705v4.416
			h-2.448l-8.353,16.993h-3.744L161.231,18.914z"/>
		<path fill="#60A296" d="M185.902,31.203h3.216V18.914h-3.216v-4.416h8.449v16.705h3.12v4.32h-11.569V31.203z M187.726,7.825
			c0-1.92,1.68-3.456,3.552-3.456s3.457,1.536,3.457,3.456s-1.68,3.456-3.553,3.456C189.31,11.281,187.726,9.745,187.726,7.825z"/>
		<path fill="#60A296" d="M208.654,17.857c2.016-1.968,4.272-3.744,7.345-3.744c2.496,0,4.32,1.009,5.424,2.688
			c0.72,1.152,1.104,2.593,1.104,4.32v10.081h3.12v4.32h-11.233v-4.32h2.88v-8.785c0-0.863-0.144-1.632-0.432-2.16
			c-0.48-0.912-1.344-1.392-2.592-1.392c-1.824,0-3.744,1.056-5.424,2.448v9.889h2.88v4.32h-11.233v-4.32h3.12V18.913h-3.12v-4.416
			h8.161V17.857z"/>
		<path fill="#60A296" d="M238.221,4.8V0.384h8.353v17.281c1.968-1.872,4.177-3.553,7.153-3.553c2.256,0,4.032,0.816,5.136,2.257
			c0.912,1.2,1.393,2.832,1.393,4.752v10.081h3.12v4.32h-11.233v-4.32h2.88v-8.785c0-1.151-0.24-1.968-0.672-2.544
			c-0.528-0.672-1.344-1.008-2.352-1.008c-1.824,0-3.745,1.056-5.425,2.448v9.889h2.88v4.32h-11.233v-4.32h3.12V4.8H238.221z"/>
		<path fill="#60A296" d="M265.485,30.002c0-3.937,3.456-6.337,8.449-6.337c2.16,0,4.176,0.288,5.329,0.576v-1.68
			c0-1.248-0.288-2.208-0.816-2.881c-0.864-1.104-2.256-1.536-4.128-1.536c-0.912,0-1.584,0.145-2.064,0.337
			c0.096,0.287,0.192,0.768,0.192,1.056c0,1.584-1.248,2.736-2.832,2.736s-2.784-1.104-2.784-2.832c0-2.593,2.64-5.329,8.353-5.329
			c3.601,0,6.048,1.009,7.537,2.833c1.104,1.344,1.632,3.168,1.632,5.28v8.977h3.12v4.32h-8.113v-2.305
			c-1.68,1.44-4.224,2.688-7.057,2.688C268.702,35.907,265.485,33.939,265.485,30.002z M279.263,30.243v-3.312
			c-1.2-0.288-2.688-0.48-4.321-0.48c-2.544,0-4.08,1.152-4.08,3.072c0,1.681,1.248,2.593,3.12,2.593S277.678,31.395,279.263,30.243
			z"/>
		<path fill="#60A296" d="M304.798,21.986c-1.68,0-2.832-1.008-2.832-2.592c0-0.337,0-0.625,0.096-0.912
			c-0.864-0.337-1.92-0.528-2.976-0.528c-2.352,0-3.504,1.056-3.504,2.16c0,1.2,1.2,1.824,4.417,2.688
			c5.041,1.344,7.969,2.592,7.969,6.384c0,4.417-4.128,6.769-8.881,6.769c-3.216,0-6.673-1.151-8.065-2.544
			c-0.864-0.864-1.2-1.728-1.2-2.832c0-1.536,1.152-2.832,2.785-2.832c1.44,0,2.832,0.96,2.832,2.784
			c0,0.288-0.048,0.576-0.096,0.864c0.96,0.384,2.304,0.672,3.792,0.672c2.112,0,3.84-0.721,3.84-2.257
			c0-1.056-0.912-1.68-4.128-2.544c-5.809-1.536-8.256-2.928-8.256-6.528c0-3.265,2.688-6.673,8.592-6.673
			c2.544,0,5.617,0.96,7.057,2.4c0.768,0.768,1.152,1.68,1.152,2.688C307.391,20.834,306.334,21.986,304.798,21.986z"/>
		<path fill="#60A296" d="M322.124,30.002c0-3.937,3.456-6.337,8.449-6.337c2.16,0,4.176,0.288,5.329,0.576v-1.68
			c0-1.248-0.288-2.208-0.816-2.881c-0.864-1.104-2.256-1.536-4.128-1.536c-0.912,0-1.584,0.145-2.064,0.337
			c0.096,0.287,0.192,0.768,0.192,1.056c0,1.584-1.248,2.736-2.832,2.736s-2.784-1.104-2.784-2.832c0-2.593,2.64-5.329,8.353-5.329
			c3.601,0,6.048,1.009,7.537,2.833c1.104,1.344,1.632,3.168,1.632,5.28v8.977h3.12v4.32h-8.113v-2.305
			c-1.68,1.44-4.224,2.688-7.057,2.688C325.34,35.907,322.124,33.939,322.124,30.002z M335.901,30.243v-3.312
			c-1.2-0.288-2.688-0.48-4.321-0.48c-2.544,0-4.08,1.152-4.08,3.072c0,1.681,1.248,2.593,3.12,2.593S334.317,31.395,335.901,30.243
			z"/>
		<path fill="#60A296" d="M356.683,40.612h3.12V18.914h-3.12v-4.416h8.161v2.399c1.632-1.536,3.408-2.784,6.241-2.784
			c5.473,0,9.601,4.465,9.601,10.801c0,6.097-4.368,10.993-9.937,10.993c-2.256,0-4.128-0.815-5.713-2.016v6.721h3.409v4.32h-11.761
			v-4.32L356.683,40.612L356.683,40.612z M375.308,24.962c0-4.033-2.4-6.337-5.376-6.337c-1.968,0-3.504,0.864-4.896,2.112v9.024
			c1.344,0.96,2.977,1.633,4.896,1.633C372.716,31.395,375.308,29.138,375.308,24.962z"/>
		<path fill="#60A296" d="M402.525,17.57c0,1.775-1.393,3.264-3.121,3.264c-1.584,0-2.64-0.912-3.072-1.872
			c-1.488,0.528-3.216,2.16-4.176,3.984v8.257h3.648v4.32h-12.001v-4.32h3.12V18.914h-3.12v-4.416h8.161v4.752
			c1.776-2.832,3.984-5.137,6.672-5.137C401.228,14.113,402.525,15.697,402.525,17.57z"/>
		<path fill="#60A296" d="M404.107,25.01c0-5.761,4.32-10.897,11.185-10.897c6.961,0,11.185,5.041,11.185,10.897
			c0,5.761-4.32,10.896-11.185,10.896C408.331,35.907,404.107,30.867,404.107,25.01z M421.1,25.01c0-3.841-2.4-6.528-5.809-6.528
			c-3.408,0-5.808,2.688-5.808,6.528s2.4,6.528,5.808,6.528C418.7,31.539,421.1,28.85,421.1,25.01z"/>
		<path fill="#60A296" d="M430.124,18.914h-2.449v-4.416h10.754v4.176h-3.025l5.041,10.945l5.041-10.945h-3.169v-4.176h10.705v4.416
			h-2.448l-8.354,16.993h-3.744L430.124,18.914z"/>
		<path fill="#60A296" d="M459.691,26.787c0.72,3.264,3.408,4.704,6.913,4.704c2.544,0,5.184-0.816,7.633-2.208l-0.433,4.704
			c-2.208,1.296-4.896,1.92-7.969,1.92c-6.864,0-11.616-4.32-11.616-10.849c0-5.952,4.176-10.945,10.656-10.945
			c6.721,0,10.225,4.513,10.225,10.081c0,0.816-0.096,1.872-0.24,2.593C474.86,26.787,459.691,26.787,459.691,26.787z
			 M459.643,23.138h10.225c-0.096-2.881-1.968-4.801-5.04-4.801C462.524,18.337,460.22,19.681,459.643,23.138z"/>
		<path fill="#60A296" d="M486.235,17.857c2.017-1.968,4.273-3.744,7.346-3.744c2.496,0,4.32,1.009,5.424,2.688
			c0.721,1.152,1.104,2.593,1.104,4.32v10.081h3.121v4.32h-11.233v-4.32h2.88v-8.785c0-0.863-0.144-1.632-0.432-2.16
			c-0.48-0.912-1.344-1.392-2.592-1.392c-1.824,0-3.744,1.056-5.425,2.448v9.889h2.88v4.32h-11.233v-4.32h3.12V18.913h-3.12v-4.416
			h8.16V17.857z"/>
		<path fill="#60A296" d="M531.452,21.986c-1.68,0-2.832-1.008-2.832-2.592c0-0.337,0-0.625,0.096-0.912
			c-0.865-0.337-1.92-0.528-2.977-0.528c-2.352,0-3.504,1.056-3.504,2.16c0,1.2,1.199,1.824,4.416,2.688
			c5.041,1.344,7.969,2.592,7.969,6.384c0,4.417-4.129,6.769-8.881,6.769c-3.217,0-6.672-1.151-8.064-2.544
			c-0.865-0.864-1.201-1.728-1.201-2.832c0-1.536,1.152-2.832,2.785-2.832c1.439,0,2.832,0.96,2.832,2.784
			c0,0.288-0.049,0.576-0.096,0.864c0.959,0.384,2.305,0.672,3.793,0.672c2.111,0,3.84-0.721,3.84-2.257
			c0-1.056-0.912-1.68-4.129-2.544c-5.809-1.536-8.256-2.928-8.256-6.528c0-3.265,2.688-6.673,8.592-6.673
			c2.545,0,5.617,0.96,7.057,2.4c0.768,0.768,1.152,1.68,1.152,2.688C534.044,20.834,532.987,21.986,531.452,21.986z"/>
		<path fill="#60A296" d="M538.073,30.002c0-3.937,3.457-6.337,8.449-6.337c2.16,0,4.178,0.288,5.328,0.576v-1.68
			c0-1.248-0.287-2.208-0.814-2.881c-0.865-1.104-2.258-1.536-4.129-1.536c-0.912,0-1.584,0.145-2.064,0.337
			c0.096,0.287,0.191,0.768,0.191,1.056c0,1.584-1.248,2.736-2.832,2.736s-2.783-1.104-2.783-2.832c0-2.593,2.639-5.329,8.352-5.329
			c3.602,0,6.049,1.009,7.537,2.833c1.104,1.344,1.633,3.168,1.633,5.28v8.977h3.119v4.32h-8.111v-2.305
			c-1.682,1.44-4.225,2.688-7.057,2.688C541.29,35.907,538.073,33.939,538.073,30.002z M551.85,30.243v-3.312
			c-1.199-0.288-2.688-0.48-4.32-0.48c-2.543,0-4.08,1.152-4.08,3.072c0,1.681,1.248,2.593,3.121,2.593
			C548.442,32.115,550.266,31.395,551.85,30.243z"/>
		<path fill="#60A296" d="M573.114,4.56c-0.432,0.192-0.863,0.48-1.104,0.864c-0.625,0.912-0.961,2.208-0.961,4.225v4.849h5.473
			v4.416h-5.473v12.289h4.082v4.32h-12.434v-4.32h3.168V18.914h-3.6v-4.416h3.6v-4.081c0-3.84,0.672-6.24,2.688-8.208
			C570.041,0.769,571.961,0,574.315,0c2.736,0,4.656,1.44,4.656,3.553c0,1.872-1.344,2.977-2.832,2.977
			C574.507,6.529,573.69,5.665,573.114,4.56z"/>
		<path fill="#60A296" d="M583.866,26.787c0.719,3.264,3.408,4.704,6.912,4.704c2.545,0,5.184-0.816,7.633-2.208l-0.432,4.704
			c-2.209,1.296-4.896,1.92-7.969,1.92c-6.865,0-11.617-4.32-11.617-10.849c0-5.952,4.176-10.945,10.656-10.945
			c6.721,0,10.225,4.513,10.225,10.081c0,0.816-0.096,1.872-0.24,2.593C599.034,26.787,583.866,26.787,583.866,26.787z
			 M583.817,23.138h10.225c-0.096-2.881-1.967-4.801-5.039-4.801C586.698,18.337,584.393,19.681,583.817,23.138z"/>
		<path fill="#60A296" d="M605.993,33.027c-0.48-0.864-0.719-1.969-0.719-3.312V18.914h-4.082v-4.416h4.082v-4.417l5.184-2.256
			v6.673h6.385v4.416h-6.385v9.793c0,0.672,0.096,1.104,0.336,1.536c0.385,0.672,1.152,1.008,2.209,1.008
			c1.344,0,2.879-0.528,4.127-1.104l-0.432,4.513c-1.439,0.721-3.119,1.248-5.041,1.248
			C609.114,35.907,607.05,35.043,605.993,33.027z"/>
		<path fill="#60A296" d="M623.706,45.076c-2.783,0-4.512-1.632-4.512-3.312c0-1.775,1.199-2.688,2.592-2.688
			c1.248,0,1.969,0.768,2.305,1.584c0.527-0.145,1.104-0.48,1.68-1.248c0.336-0.433,0.623-0.96,0.959-1.633l1.586-3.312
			l-7.49-15.554h-2.592v-4.416h10.85v4.176h-3.072l4.848,11.089l4.896-11.089h-3.264v-4.176h10.801v4.416h-2.545l-9.84,20.882
			c-0.48,0.96-1.008,1.824-1.633,2.544C627.739,44.116,625.817,45.076,623.706,45.076z"/>
		<path fill="#60A296" d="M655.768,30.002c0-3.937,3.457-6.337,8.449-6.337c2.16,0,4.176,0.288,5.328,0.576v-1.68
			c0-1.248-0.289-2.208-0.816-2.881c-0.863-1.104-2.256-1.536-4.129-1.536c-0.912,0-1.584,0.145-2.064,0.337
			c0.098,0.287,0.193,0.768,0.193,1.056c0,1.584-1.248,2.736-2.832,2.736s-2.785-1.104-2.785-2.832c0-2.593,2.641-5.329,8.354-5.329
			c3.6,0,6.049,1.009,7.537,2.833c1.104,1.344,1.631,3.168,1.631,5.28v8.977h3.121v4.32h-8.113v-2.305
			c-1.68,1.44-4.225,2.688-7.057,2.688C658.985,35.907,655.768,33.939,655.768,30.002z M669.546,30.243v-3.312
			c-1.201-0.288-2.688-0.48-4.32-0.48c-2.545,0-4.08,1.152-4.08,3.072c0,1.681,1.248,2.593,3.119,2.593
			C666.138,32.115,667.962,31.395,669.546,30.243z"/>
		<path fill="#60A296" d="M688.169,17.857c2.016-1.968,4.271-3.744,7.344-3.744c2.496,0,4.32,1.009,5.426,2.688
			c0.719,1.152,1.104,2.593,1.104,4.32v10.081h3.121v4.32H693.93v-4.32h2.881v-8.785c0-0.863-0.145-1.632-0.432-2.16
			c-0.48-0.912-1.344-1.392-2.592-1.392c-1.824,0-3.746,1.056-5.426,2.448v9.889h2.881v4.32H680.01v-4.32h3.119V18.913h-3.119
			v-4.416h8.16L688.169,17.857L688.169,17.857z"/>
		<path fill="#60A296" d="M707.224,25.106c0-6.097,4.418-10.993,10.082-10.993c2.688,0,4.656,1.009,5.855,2.017V4.8h-3.168V0.384
			h8.4v30.818h3.121v4.32h-8.354v-2.305c-1.535,1.488-3.504,2.688-6.191,2.688C711.401,35.907,707.224,31.443,707.224,25.106z
			 M723.161,29.283v-9.025c-1.391-0.96-3.023-1.632-4.992-1.632c-2.928,0-5.568,2.256-5.568,6.433c0,4.032,2.496,6.337,5.568,6.337
			C720.138,31.395,721.722,30.531,723.161,29.283z"/>
	</g>
	<g enable-background="new    ">
		<path fill="#60A296" d="M4.8,83.027c-0.48-0.864-0.72-1.969-0.72-3.312V68.914H0v-4.416h4.08v-4.417l5.185-2.256v6.673h6.385
			v4.416H9.265v9.793c0,0.672,0.096,1.104,0.336,1.536c0.384,0.672,1.152,1.008,2.208,1.008c1.344,0,2.88-0.528,4.128-1.104
			l-0.432,4.513c-1.44,0.721-3.121,1.248-5.041,1.248C7.92,85.907,5.856,85.043,4.8,83.027z"/>
		<path fill="#60A296" d="M18.432,75.01c0-5.761,4.32-10.897,11.185-10.897c6.961,0,11.185,5.041,11.185,10.897
			c0,5.761-4.32,10.896-11.185,10.896C22.656,85.907,18.432,80.867,18.432,75.01z M35.425,75.01c0-3.841-2.4-6.528-5.809-6.528
			c-3.408,0-5.808,2.688-5.808,6.528s2.4,6.528,5.808,6.528C33.025,81.539,35.425,78.85,35.425,75.01z"/>
		<path fill="#60A296" d="M43.679,81.203h3.264V54.801h-3.264v-4.416h8.497v30.818h3.121v4.32H43.68L43.679,81.203L43.679,81.203z"
			/>
		<path fill="#60A296" d="M63.696,76.787c0.72,3.264,3.408,4.704,6.913,4.704c2.544,0,5.185-0.816,7.633-2.208l-0.432,4.704
			c-2.208,1.296-4.896,1.92-7.969,1.92c-6.864,0-11.617-4.32-11.617-10.849c0-5.952,4.176-10.945,10.657-10.945
			c6.721,0,10.225,4.513,10.225,10.081c0,0.816-0.096,1.872-0.24,2.593L63.696,76.787L63.696,76.787z M63.648,73.138h10.225
			c-0.096-2.881-1.968-4.801-5.04-4.801C66.528,68.337,64.224,69.681,63.648,73.138z"/>
		<path fill="#60A296" d="M100.801,67.57c0,1.775-1.393,3.264-3.121,3.264c-1.584,0-2.64-0.912-3.072-1.872
			c-1.488,0.528-3.216,2.16-4.176,3.984v8.257h3.648v4.32H82.079v-4.32h3.12V68.914h-3.12v-4.416h8.161v4.752
			c1.776-2.832,3.984-5.137,6.672-5.137C99.505,64.113,100.801,65.697,100.801,67.57z"/>
		<path fill="#60A296" d="M102.432,80.002c0-3.937,3.456-6.337,8.449-6.337c2.16,0,4.176,0.288,5.329,0.576v-1.68
			c0-1.248-0.288-2.208-0.816-2.881c-0.864-1.104-2.256-1.536-4.128-1.536c-0.912,0-1.584,0.145-2.064,0.337
			c0.096,0.287,0.192,0.768,0.192,1.056c0,1.584-1.248,2.736-2.832,2.736s-2.784-1.104-2.784-2.832c0-2.593,2.64-5.329,8.353-5.329
			c3.601,0,6.048,1.009,7.537,2.833c1.104,1.344,1.632,3.168,1.632,5.28v8.977h3.12v4.32h-8.113v-2.305
			c-1.68,1.44-4.224,2.688-7.057,2.688C105.648,85.907,102.432,83.939,102.432,80.002z M116.209,80.243v-3.312
			c-1.2-0.288-2.688-0.48-4.321-0.48c-2.544,0-4.08,1.152-4.08,3.072c0,1.681,1.248,2.593,3.12,2.593S114.624,81.395,116.209,80.243
			z"/>
		<path fill="#60A296" d="M133.056,83.506l-1.152,2.112h-3.552V54.8h-3.168v-4.416h8.401v16.417
			c1.536-1.488,3.504-2.688,6.192-2.688c5.568,0,9.745,4.465,9.745,10.801c0,6.097-4.417,10.993-10.081,10.993
			C136.752,85.907,134.832,84.947,133.056,83.506z M144.145,74.962c0-4.033-2.497-6.337-5.569-6.337
			c-1.968,0-3.552,0.864-4.992,2.112v9.024c1.392,0.96,3.024,1.633,4.992,1.633C141.504,81.395,144.145,79.138,144.145,74.962z"/>
		<path fill="#60A296" d="M152.687,81.203h3.216V68.914h-3.216v-4.416h8.449v16.705h3.12v4.32h-11.569V81.203L152.687,81.203z
			 M154.511,57.825c0-1.92,1.68-3.456,3.552-3.456s3.457,1.536,3.457,3.456s-1.68,3.456-3.553,3.456
			C156.095,61.281,154.511,59.745,154.511,57.825z"/>
		<path fill="#60A296" d="M167.038,81.203h3.264V54.801h-3.264v-4.416h8.497v30.818h3.121v4.32h-11.617v-4.32L167.038,81.203
			L167.038,81.203z"/>
		<path fill="#60A296" d="M181.486,81.203h3.216V68.914h-3.216v-4.416h8.449v16.705h3.12v4.32h-11.569V81.203z M183.31,57.825
			c0-1.92,1.68-3.456,3.552-3.456s3.456,1.536,3.456,3.456s-1.68,3.456-3.552,3.456C184.894,61.281,183.31,59.745,183.31,57.825z"/>
		<path fill="#60A296" d="M199.822,83.027c-0.48-0.864-0.72-1.969-0.72-3.312V68.914h-4.08v-4.416h4.08v-4.417l5.185-2.256v6.673
			h6.385v4.416h-6.385v9.793c0,0.672,0.096,1.104,0.336,1.536c0.384,0.672,1.152,1.008,2.208,1.008c1.344,0,2.88-0.528,4.128-1.104
			l-0.432,4.513c-1.44,0.721-3.121,1.248-5.041,1.248C202.942,85.907,200.878,85.043,199.822,83.027z"/>
		<path fill="#60A296" d="M217.534,95.076c-2.784,0-4.512-1.632-4.512-3.312c0-1.775,1.2-2.688,2.592-2.688
			c1.248,0,1.968,0.768,2.304,1.584c0.528-0.145,1.104-0.48,1.68-1.248c0.336-0.433,0.624-0.96,0.96-1.633l1.584-3.312
			l-7.489-15.554h-2.592v-4.416h10.849v4.176h-3.072l4.849,11.089l4.896-11.089h-3.265v-4.176h10.801v4.416h-2.544l-9.841,20.882
			c-0.48,0.96-1.008,1.824-1.632,2.544C221.566,94.116,219.646,95.076,217.534,95.076z"/>
		<path fill="#60A296" d="M249.164,90.612h3.12V68.914h-3.12v-4.416h8.161v2.399c1.632-1.536,3.408-2.784,6.241-2.784
			c5.473,0,9.601,4.465,9.601,10.801c0,6.097-4.368,10.993-9.937,10.993c-2.256,0-4.128-0.815-5.713-2.016v6.721h3.409v4.32h-11.761
			v-4.32L249.164,90.612L249.164,90.612z M267.79,74.962c0-4.033-2.4-6.337-5.376-6.337c-1.968,0-3.504,0.864-4.896,2.112v9.024
			c1.344,0.96,2.977,1.633,4.896,1.633C265.198,81.395,267.79,79.138,267.79,74.962z"/>
		<path fill="#60A296" d="M295.006,67.57c0,1.775-1.393,3.264-3.121,3.264c-1.584,0-2.64-0.912-3.072-1.872
			c-1.488,0.528-3.216,2.16-4.176,3.984v8.257h3.648v4.32h-12v-4.32h3.12V68.914h-3.12v-4.416h8.161v4.752
			c1.776-2.832,3.984-5.137,6.672-5.137C293.71,64.113,295.006,65.697,295.006,67.57z"/>
		<path fill="#60A296" d="M296.589,75.01c0-5.761,4.32-10.897,11.185-10.897c6.961,0,11.185,5.041,11.185,10.897
			c0,5.761-4.32,10.896-11.185,10.896C300.813,85.907,296.589,80.867,296.589,75.01z M313.582,75.01c0-3.841-2.4-6.528-5.809-6.528
			c-3.408,0-5.808,2.688-5.808,6.528s2.4,6.528,5.808,6.528C311.182,81.539,313.582,78.85,313.582,75.01z"/>
		<path fill="#60A296" d="M345.358,81.203h3.121v4.32H337.15v-4.32h2.976V68.914h-9.457v12.289h3.84v4.32h-12.193v-4.32h3.168
			V68.914h-3.601v-4.416h3.601v-3.601c0-3.648,1.008-6.528,2.832-8.353c1.632-1.633,3.937-2.545,6.337-2.545
			c3.696,0,5.521,1.969,5.521,4.177c0,1.729-1.44,3.216-3.168,3.216s-3.12-1.344-3.216-2.928c-0.624,0.048-1.392,0.336-2.016,1.2
			s-1.104,2.256-1.104,4.464v4.369h14.689v16.706L345.358,81.203L345.358,81.203z"/>
		<path fill="#60A296" d="M351.26,81.203h3.264V54.801h-3.264v-4.416h8.497v30.818h3.121v4.32h-11.617v-4.32L351.26,81.203
			L351.26,81.203z"/>
		<path fill="#60A296" d="M371.276,76.787c0.72,3.264,3.408,4.704,6.913,4.704c2.544,0,5.185-0.816,7.633-2.208l-0.432,4.704
			c-2.208,1.296-4.896,1.92-7.969,1.92c-6.864,0-11.617-4.32-11.617-10.849c0-5.952,4.176-10.945,10.657-10.945
			c6.721,0,10.225,4.513,10.225,10.081c0,0.816-0.096,1.872-0.24,2.593L371.276,76.787L371.276,76.787z M371.228,73.138h10.225
			c-0.096-2.881-1.968-4.801-5.041-4.801C374.109,68.337,371.805,69.681,371.228,73.138z"/>
		<path fill="#60A296" d="M389.756,81.97c0-2.208,1.776-3.984,3.937-3.984s3.937,1.776,3.937,3.984c0,2.16-1.776,3.937-3.937,3.937
			S389.756,84.13,389.756,81.97z"/>
	</g>
</g>
</svg>
