<?xml version="1.0" encoding="utf-8"?>
<!-- Generator: Adobe Illustrator 17.1.0, SVG Export Plug-In . SVG Version: 6.00 Build 0)  -->
<!DOCTYPE svg PUBLIC "-//W3C//DTD SVG 1.1//EN" "http://www.w3.org/Graphics/SVG/1.1/DTD/svg11.dtd">
<svg version="1.1" id="Layer_1" xmlns="http://www.w3.org/2000/svg" xmlns:xlink="http://www.w3.org/1999/xlink" x="0px" y="0px"
	 viewBox="-82.5 158 765 35.4" enable-background="new -82.5 158 765 35.4" xml:space="preserve">
<g>
	<polyline fill="#ECF6F2" points="377.6,192 377.6,158 530.6,158 530.6,192 	"/>
	<polyline opacity="0.8" fill="#DBDBDC" enable-background="new    " points="530.6,192 530.6,158 682.5,158 682.5,192 	"/>
	<g>
		<g enable-background="new    ">
			<path fill="#6BACA1" d="M-81.8,174.8l2.8-0.3c0.2,0.9,0.5,1.6,1,2.1c0.5,0.4,1.2,0.7,2.1,0.7c0.9,0,1.6-0.2,2.1-0.6
				c0.5-0.4,0.7-0.9,0.7-1.4c0-0.3-0.1-0.6-0.3-0.9c-0.2-0.2-0.5-0.4-1-0.6c-0.3-0.1-1.1-0.3-2.3-0.6c-1.5-0.4-2.6-0.9-3.3-1.4
				c-0.9-0.8-1.3-1.7-1.3-2.9c0-0.7,0.2-1.4,0.6-2c0.4-0.6,1-1.1,1.8-1.4s1.7-0.5,2.8-0.5c1.8,0,3.1,0.4,4.1,1.2
				c0.9,0.8,1.4,1.8,1.4,3.2l-2.9,0.1c-0.1-0.7-0.4-1.3-0.8-1.6c-0.4-0.3-1-0.5-1.8-0.5c-0.8,0-1.5,0.2-2,0.5
				c-0.3,0.2-0.5,0.5-0.5,0.9c0,0.3,0.1,0.6,0.4,0.9c0.4,0.3,1.3,0.6,2.7,1c1.4,0.3,2.4,0.7,3.1,1c0.7,0.4,1.2,0.8,1.6,1.5
				c0.4,0.6,0.6,1.4,0.6,2.3c0,0.8-0.2,1.6-0.7,2.3c-0.5,0.7-1.1,1.2-1.9,1.6s-1.9,0.5-3.1,0.5c-1.8,0-3.2-0.4-4.2-1.3
				C-81,177.7-81.6,176.4-81.8,174.8z"/>
			<path fill="#6BACA1" d="M-61.7,176.2l2.7,0.5c-0.4,1-0.9,1.8-1.7,2.3c-0.8,0.5-1.7,0.8-2.8,0.8c-1.8,0-3.1-0.6-4-1.8
				c-0.7-0.9-1-2.1-1-3.6c0-1.7,0.4-3.1,1.3-4s2-1.5,3.4-1.5c1.5,0,2.8,0.5,3.7,1.5c0.9,1,1.3,2.6,1.3,4.7h-6.9
				c0,0.8,0.2,1.4,0.7,1.9c0.4,0.5,1,0.7,1.6,0.7c0.4,0,0.8-0.1,1.1-0.4C-62.1,177.1-61.9,176.7-61.7,176.2z M-61.6,173.4
				c0-0.8-0.2-1.4-0.6-1.8c-0.4-0.4-0.9-0.6-1.4-0.6c-0.6,0-1.1,0.2-1.5,0.7c-0.4,0.4-0.6,1-0.6,1.8L-61.6,173.4L-61.6,173.4z"/>
			<path fill="#6BACA1" d="M-53.8,179.5l-4.2-10.4h2.9l2,5.3l0.6,1.8c0.2-0.4,0.2-0.7,0.3-0.9c0.1-0.3,0.2-0.6,0.3-0.9l2-5.3h2.8
				l-4.1,10.4H-53.8z"/>
			<path fill="#6BACA1" d="M-39.5,176.2l2.7,0.5c-0.4,1-0.9,1.8-1.7,2.3c-0.8,0.5-1.7,0.8-2.8,0.8c-1.8,0-3.1-0.6-4-1.8
				c-0.7-0.9-1-2.1-1-3.6c0-1.7,0.4-3.1,1.3-4s2-1.5,3.4-1.5c1.5,0,2.8,0.5,3.7,1.5c0.9,1,1.3,2.6,1.3,4.7h-6.9
				c0,0.8,0.2,1.4,0.7,1.9c0.4,0.5,1,0.7,1.6,0.7c0.4,0,0.8-0.1,1.1-0.4S-39.6,176.7-39.5,176.2z M-39.3,173.4
				c0-0.8-0.2-1.4-0.6-1.8c-0.4-0.4-0.9-0.6-1.4-0.6c-0.6,0-1.1,0.2-1.5,0.7c-0.4,0.4-0.6,1-0.6,1.8L-39.3,173.4L-39.3,173.4z"/>
			<path fill="#6BACA1" d="M-31.7,179.5h-2.7v-10.4h2.5v1.5c0.4-0.7,0.8-1.2,1.2-1.4s0.7-0.3,1.2-0.3c0.6,0,1.2,0.2,1.8,0.5
				l-0.8,2.4c-0.5-0.3-0.9-0.4-1.3-0.4c-0.4,0-0.7,0.1-1,0.3c-0.3,0.2-0.5,0.6-0.6,1.1c-0.2,0.6-0.2,1.7-0.2,3.5L-31.7,179.5
				L-31.7,179.5z"/>
			<path fill="#6BACA1" d="M-20.6,176.2l2.7,0.5c-0.4,1-0.9,1.8-1.7,2.3c-0.8,0.5-1.7,0.8-2.8,0.8c-1.8,0-3.1-0.6-4-1.8
				c-0.7-0.9-1-2.1-1-3.6c0-1.7,0.4-3.1,1.3-4s2-1.5,3.4-1.5c1.5,0,2.8,0.5,3.7,1.5c0.9,1,1.3,2.6,1.3,4.7h-6.9
				c0,0.8,0.2,1.4,0.7,1.9c0.4,0.5,1,0.7,1.6,0.7c0.4,0,0.8-0.1,1.1-0.4C-20.9,177.1-20.7,176.7-20.6,176.2z M-20.4,173.4
				c0-0.8-0.2-1.4-0.6-1.8c-0.4-0.4-0.9-0.6-1.4-0.6c-0.6,0-1.1,0.2-1.5,0.7c-0.4,0.4-0.6,1-0.6,1.8L-20.4,173.4L-20.4,173.4z"/>
			<path fill="#6BACA1" d="M-7.8,172.3l-2.5-0.4c0.3-1,0.8-1.7,1.4-2.2s1.7-0.7,3-0.7c1.2,0,2.1,0.1,2.7,0.4c0.6,0.3,1,0.7,1.3,1.1
				c0.2,0.4,0.4,1.3,0.4,2.5l0,3.2c0,0.9,0,1.6,0.1,2s0.3,0.9,0.5,1.4h-2.7c-0.1-0.2-0.2-0.5-0.3-0.8c0-0.2-0.1-0.3-0.1-0.3
				c-0.5,0.5-1,0.8-1.5,1s-1.1,0.3-1.7,0.3c-1.1,0-1.9-0.3-2.5-0.9c-0.6-0.6-0.9-1.3-0.9-2.2c0-0.6,0.1-1.1,0.4-1.6s0.7-0.8,1.2-1.1
				c0.5-0.2,1.2-0.5,2.2-0.6c1.3-0.2,2.2-0.5,2.7-0.7v-0.3c0-0.5-0.1-0.9-0.4-1.1c-0.3-0.2-0.8-0.3-1.5-0.3c-0.5,0-0.9,0.1-1.1,0.3
				S-7.7,171.8-7.8,172.3z M-4.2,174.5c-0.4,0.1-0.9,0.3-1.7,0.4c-0.8,0.2-1.3,0.3-1.5,0.5c-0.4,0.3-0.5,0.6-0.5,1
				c0,0.4,0.1,0.7,0.4,1s0.7,0.4,1.1,0.4c0.5,0,1-0.2,1.4-0.5c0.3-0.2,0.6-0.5,0.7-0.9c0.1-0.2,0.1-0.7,0.1-1.3V174.5L-4.2,174.5z"
				/>
			<path fill="#6BACA1" d="M10.7,179.5H8.2V178c-0.4,0.6-0.9,1-1.5,1.3c-0.6,0.3-1.2,0.4-1.7,0.4c-1.2,0-2.2-0.5-3.1-1.4
				c-0.8-1-1.3-2.3-1.3-4c0-1.8,0.4-3.1,1.2-4c0.8-0.9,1.9-1.4,3.1-1.4c1.2,0,2.2,0.5,3,1.4v-5.2h2.7L10.7,179.5L10.7,179.5z
				 M3.4,174.1c0,1.1,0.2,1.9,0.5,2.4c0.4,0.7,1.1,1.1,1.9,1.1c0.6,0,1.2-0.3,1.6-0.8s0.7-1.3,0.7-2.4c0-1.2-0.2-2-0.6-2.6
				c-0.4-0.5-1-0.8-1.7-0.8c-0.7,0-1.2,0.3-1.6,0.8S3.4,173.1,3.4,174.1z"/>
			<path fill="#6BACA1" d="M16.3,179.5l-4.2-10.4H15l2,5.3l0.6,1.8c0.2-0.4,0.2-0.7,0.3-0.9c0.1-0.3,0.2-0.6,0.3-0.9l2-5.3h2.8
				l-4.1,10.4H16.3z"/>
			<path fill="#6BACA1" d="M30.6,176.2l2.7,0.5c-0.4,1-0.9,1.8-1.7,2.3c-0.8,0.5-1.7,0.8-2.8,0.8c-1.8,0-3.1-0.6-4-1.8
				c-0.7-0.9-1-2.1-1-3.6c0-1.7,0.4-3.1,1.3-4s2-1.5,3.4-1.5c1.5,0,2.8,0.5,3.7,1.5c0.9,1,1.3,2.6,1.3,4.7h-6.9
				c0,0.8,0.2,1.4,0.7,1.9c0.4,0.5,1,0.7,1.6,0.7c0.4,0,0.8-0.1,1.1-0.4S30.4,176.7,30.6,176.2z M30.7,173.4c0-0.8-0.2-1.4-0.6-1.8
				c-0.4-0.4-0.9-0.6-1.4-0.6c-0.6,0-1.1,0.2-1.5,0.7c-0.4,0.4-0.6,1-0.6,1.8L30.7,173.4L30.7,173.4z"/>
			<path fill="#6BACA1" d="M38.3,179.5h-2.7v-10.4h2.5v1.5c0.4-0.7,0.8-1.2,1.2-1.4s0.7-0.3,1.2-0.3c0.6,0,1.2,0.2,1.8,0.5l-0.8,2.4
				c-0.5-0.3-0.9-0.4-1.3-0.4c-0.4,0-0.7,0.1-1,0.3c-0.3,0.2-0.5,0.6-0.6,1.1c-0.2,0.6-0.2,1.7-0.2,3.5L38.3,179.5L38.3,179.5z"/>
			<path fill="#6BACA1" d="M42.5,176.5l2.8-0.4c0.1,0.5,0.4,0.9,0.7,1.2c0.4,0.3,0.9,0.4,1.5,0.4c0.7,0,1.2-0.1,1.6-0.4
				c0.2-0.2,0.4-0.4,0.4-0.7c0-0.2-0.1-0.4-0.2-0.5c-0.1-0.1-0.4-0.3-0.9-0.4c-2.2-0.5-3.6-0.9-4.2-1.3c-0.8-0.6-1.2-1.3-1.2-2.3
				c0-0.9,0.4-1.7,1.1-2.3c0.7-0.6,1.8-0.9,3.3-0.9c1.4,0,2.5,0.2,3.2,0.7s1.2,1.1,1.4,2.1l-2.6,0.5c-0.1-0.4-0.3-0.7-0.6-0.9
				s-0.8-0.3-1.3-0.3c-0.7,0-1.2,0.1-1.6,0.3c-0.2,0.1-0.3,0.3-0.3,0.6c0,0.2,0.1,0.4,0.3,0.5c0.2,0.2,1.1,0.4,2.6,0.8
				s2.5,0.7,3.1,1.2c0.6,0.5,0.9,1.2,0.9,2c0,0.9-0.4,1.8-1.2,2.5c-0.8,0.7-2,1-3.5,1c-1.4,0-2.5-0.3-3.4-0.9
				C43.3,178.3,42.8,177.5,42.5,176.5z"/>
			<path fill="#6BACA1" d="M60.6,176.2l2.7,0.5c-0.4,1-0.9,1.8-1.7,2.3c-0.8,0.5-1.7,0.8-2.8,0.8c-1.8,0-3.1-0.6-4-1.8
				c-0.7-0.9-1-2.1-1-3.6c0-1.7,0.4-3.1,1.3-4s2-1.5,3.4-1.5c1.5,0,2.8,0.5,3.7,1.5c0.9,1,1.3,2.6,1.3,4.7h-6.9
				c0,0.8,0.2,1.4,0.7,1.9c0.4,0.5,1,0.7,1.6,0.7c0.4,0,0.8-0.1,1.1-0.4C60.2,177.1,60.5,176.7,60.6,176.2z M60.8,173.4
				c0-0.8-0.2-1.4-0.6-1.8c-0.4-0.4-0.9-0.6-1.4-0.6c-0.6,0-1.1,0.2-1.5,0.7c-0.4,0.4-0.6,1-0.6,1.8L60.8,173.4L60.8,173.4z"/>
			<path fill="#6BACA1" d="M77.3,176.2l2.7,0.5c-0.4,1-0.9,1.8-1.7,2.3c-0.8,0.5-1.7,0.8-2.8,0.8c-1.8,0-3.1-0.6-4-1.8
				c-0.7-0.9-1-2.1-1-3.6c0-1.7,0.4-3.1,1.3-4s2-1.5,3.4-1.5c1.5,0,2.8,0.5,3.7,1.5c0.9,1,1.3,2.6,1.3,4.7h-6.9
				c0,0.8,0.2,1.4,0.7,1.9c0.4,0.5,1,0.7,1.6,0.7c0.4,0,0.8-0.1,1.1-0.4C76.9,177.1,77.1,176.7,77.3,176.2z M77.4,173.4
				c0-0.8-0.2-1.4-0.6-1.8c-0.4-0.4-0.9-0.6-1.4-0.6c-0.6,0-1.1,0.2-1.5,0.7c-0.4,0.4-0.6,1-0.6,1.8L77.4,173.4L77.4,173.4z"/>
			<path fill="#6BACA1" d="M85.3,179.5l-4.2-10.4H84l2,5.3l0.6,1.8c0.1-0.4,0.2-0.7,0.3-0.9c0.1-0.3,0.2-0.6,0.3-0.9l2-5.3h2.8
				l-4.1,10.4H85.3z"/>
			<path fill="#6BACA1" d="M99.5,176.2l2.7,0.5c-0.4,1-0.9,1.8-1.7,2.3c-0.8,0.5-1.7,0.8-2.8,0.8c-1.8,0-3.1-0.6-4-1.8
				c-0.7-0.9-1-2.1-1-3.6c0-1.7,0.4-3.1,1.3-4s2-1.5,3.4-1.5c1.5,0,2.8,0.5,3.7,1.5c0.9,1,1.3,2.6,1.3,4.7h-6.9
				c0,0.8,0.2,1.4,0.7,1.9c0.4,0.5,1,0.7,1.6,0.7c0.4,0,0.8-0.1,1.1-0.4C99.2,177.1,99.4,176.7,99.5,176.2z M99.7,173.4
				c0-0.8-0.2-1.4-0.6-1.8c-0.4-0.4-0.9-0.6-1.4-0.6c-0.6,0-1.1,0.2-1.5,0.7c-0.4,0.4-0.6,1-0.6,1.8L99.7,173.4L99.7,173.4z"/>
			<path fill="#6BACA1" d="M114.1,179.5h-2.7v-5.3c0-1.1-0.1-1.8-0.2-2.2c-0.1-0.3-0.3-0.6-0.6-0.8c-0.3-0.2-0.6-0.3-1-0.3
				c-0.5,0-0.9,0.1-1.3,0.4s-0.6,0.6-0.8,1c-0.1,0.4-0.2,1.2-0.2,2.4v4.7h-2.7v-10.4h2.5v1.5c0.9-1.2,2-1.8,3.4-1.8
				c0.6,0,1.2,0.1,1.7,0.3s0.9,0.5,1.1,0.8c0.3,0.3,0.4,0.7,0.5,1.2s0.2,1,0.2,1.8L114.1,179.5L114.1,179.5z"/>
			<path fill="#6BACA1" d="M121.6,169.1v2.2h-1.9v4.2c0,0.8,0,1.3,0.1,1.5c0,0.1,0.1,0.3,0.2,0.3c0.1,0.1,0.3,0.1,0.5,0.1
				c0.3,0,0.6-0.1,1.1-0.3l0.2,2.1c-0.6,0.3-1.4,0.4-2.2,0.4c-0.5,0-0.9-0.1-1.3-0.2s-0.7-0.4-0.9-0.6c-0.2-0.3-0.3-0.6-0.4-1.1
				c-0.1-0.3-0.1-1-0.1-1.9v-4.5h-1.3v-2.2h1.3v-2.1l2.8-1.6v3.7L121.6,169.1L121.6,169.1z"/>
			<path fill="#6BACA1" d="M122.6,176.5l2.8-0.4c0.1,0.5,0.4,0.9,0.7,1.2c0.4,0.3,0.9,0.4,1.5,0.4c0.7,0,1.2-0.1,1.6-0.4
				c0.2-0.2,0.4-0.4,0.4-0.7c0-0.2-0.1-0.4-0.2-0.5c-0.1-0.1-0.4-0.3-0.9-0.4c-2.2-0.5-3.6-0.9-4.2-1.3c-0.8-0.6-1.2-1.3-1.2-2.3
				c0-0.9,0.4-1.7,1.1-2.3c0.7-0.6,1.8-0.9,3.3-0.9c1.4,0,2.5,0.2,3.2,0.7s1.2,1.1,1.4,2.1l-2.6,0.5c-0.1-0.4-0.3-0.7-0.6-0.9
				s-0.7-0.3-1.3-0.3c-0.7,0-1.2,0.1-1.6,0.3c-0.2,0.1-0.3,0.3-0.3,0.6c0,0.2,0.1,0.4,0.3,0.5c0.2,0.2,1.1,0.4,2.6,0.8
				c1.5,0.3,2.5,0.7,3.1,1.2c0.6,0.5,0.9,1.2,0.9,2c0,0.9-0.4,1.8-1.2,2.5c-0.8,0.7-2,1-3.5,1c-1.4,0-2.5-0.3-3.4-0.9
				C123.4,178.3,122.8,177.5,122.6,176.5z"/>
			<path fill="#6BACA1" d="M139.2,176.5l2.8-0.4c0.1,0.5,0.4,0.9,0.7,1.2c0.4,0.3,0.9,0.4,1.5,0.4c0.7,0,1.2-0.1,1.6-0.4
				c0.2-0.2,0.4-0.4,0.4-0.7c0-0.2-0.1-0.4-0.2-0.5c-0.1-0.1-0.4-0.3-0.9-0.4c-2.2-0.5-3.6-0.9-4.2-1.3c-0.8-0.6-1.2-1.3-1.2-2.3
				c0-0.9,0.4-1.7,1.1-2.3c0.7-0.6,1.8-0.9,3.3-0.9c1.4,0,2.5,0.2,3.2,0.7s1.2,1.1,1.4,2.1l-2.6,0.5c-0.1-0.4-0.3-0.7-0.6-0.9
				s-0.8-0.3-1.3-0.3c-0.7,0-1.2,0.1-1.6,0.3c-0.2,0.1-0.3,0.3-0.3,0.6c0,0.2,0.1,0.4,0.3,0.5c0.2,0.2,1.1,0.4,2.6,0.8
				s2.5,0.7,3.1,1.2c0.6,0.5,0.9,1.2,0.9,2c0,0.9-0.4,1.8-1.2,2.5c-0.8,0.7-2,1-3.5,1c-1.4,0-2.5-0.3-3.4-0.9
				C140,178.3,139.5,177.5,139.2,176.5z"/>
			<path fill="#6BACA1" d="M157.3,176.2l2.7,0.5c-0.4,1-0.9,1.8-1.7,2.3c-0.8,0.5-1.7,0.8-2.8,0.8c-1.8,0-3.1-0.6-4-1.8
				c-0.7-0.9-1-2.1-1-3.6c0-1.7,0.4-3.1,1.3-4s2-1.5,3.4-1.5c1.5,0,2.8,0.5,3.7,1.5c0.9,1,1.3,2.6,1.3,4.7h-6.9
				c0,0.8,0.2,1.4,0.7,1.9c0.4,0.5,1,0.7,1.6,0.7c0.4,0,0.8-0.1,1.1-0.4C157,177.1,157.2,176.7,157.3,176.2z M157.5,173.4
				c0-0.8-0.2-1.4-0.6-1.8c-0.4-0.4-0.9-0.6-1.4-0.6c-0.6,0-1.1,0.2-1.5,0.7c-0.4,0.4-0.6,1-0.6,1.8L157.5,173.4L157.5,173.4z"/>
			<path fill="#6BACA1" d="M168.5,176.2l2.7,0.5c-0.4,1-0.9,1.8-1.7,2.3c-0.8,0.5-1.7,0.8-2.8,0.8c-1.8,0-3.1-0.6-4-1.8
				c-0.7-0.9-1-2.1-1-3.6c0-1.7,0.4-3.1,1.3-4s2-1.5,3.4-1.5c1.5,0,2.8,0.5,3.7,1.5c0.9,1,1.3,2.6,1.3,4.7h-6.9
				c0,0.8,0.2,1.4,0.7,1.9c0.4,0.5,1,0.7,1.6,0.7c0.4,0,0.8-0.1,1.1-0.4C168.1,177.1,168.3,176.7,168.5,176.2z M168.6,173.4
				c0-0.8-0.2-1.4-0.6-1.8c-0.4-0.4-0.9-0.6-1.4-0.6c-0.6,0-1.1,0.2-1.5,0.7c-0.4,0.4-0.6,1-0.6,1.8L168.6,173.4L168.6,173.4z"/>
			<path fill="#6BACA1" d="M183,179.5h-2.7v-5.3c0-1.1-0.1-1.8-0.2-2.2c-0.1-0.3-0.3-0.6-0.6-0.8c-0.3-0.2-0.6-0.3-1-0.3
				c-0.5,0-0.9,0.1-1.3,0.4c-0.4,0.3-0.6,0.6-0.8,1c-0.1,0.4-0.2,1.2-0.2,2.4v4.7h-2.7v-10.4h2.5v1.5c0.9-1.2,2-1.8,3.4-1.8
				c0.6,0,1.2,0.1,1.7,0.3s0.9,0.5,1.1,0.8c0.3,0.3,0.4,0.7,0.5,1.2c0.1,0.4,0.2,1,0.2,1.8L183,179.5L183,179.5z"/>
			<path fill="#6BACA1" d="M191.3,167.7v-2.5h2.7v2.5C194.1,167.7,191.3,167.7,191.3,167.7z M191.3,179.5v-10.4h2.7v10.4H191.3z"/>
			<path fill="#6BACA1" d="M206.3,179.5h-2.7v-5.3c0-1.1-0.1-1.8-0.2-2.2c-0.1-0.3-0.3-0.6-0.6-0.8c-0.3-0.2-0.6-0.3-1-0.3
				c-0.5,0-0.9,0.1-1.3,0.4c-0.4,0.3-0.6,0.6-0.8,1c-0.1,0.4-0.2,1.2-0.2,2.4v4.7h-2.7v-10.4h2.5v1.5c0.9-1.2,2-1.8,3.4-1.8
				c0.6,0,1.2,0.1,1.7,0.3s0.9,0.5,1.1,0.8c0.3,0.3,0.4,0.7,0.5,1.2c0.1,0.4,0.2,1,0.2,1.8L206.3,179.5L206.3,179.5z"/>
			<path fill="#6BACA1" d="M223.7,172.2l-2.7,0.5c-0.1-0.5-0.3-0.9-0.6-1.2c-0.3-0.3-0.7-0.4-1.3-0.4c-0.7,0-1.2,0.2-1.6,0.7
				s-0.6,1.3-0.6,2.4c0,1.2,0.2,2.1,0.6,2.6s1,0.8,1.7,0.8c0.5,0,0.9-0.1,1.3-0.4c0.3-0.3,0.6-0.8,0.7-1.5l2.7,0.5
				c-0.3,1.2-0.8,2.2-1.6,2.8c-0.8,0.6-1.9,0.9-3.2,0.9c-1.5,0-2.7-0.5-3.6-1.4c-0.9-1-1.4-2.3-1.4-4c0-1.7,0.5-3,1.4-4
				c0.9-1,2.1-1.4,3.7-1.4c1.3,0,2.3,0.3,3,0.8C222.9,170.3,223.4,171.1,223.7,172.2z"/>
			<path fill="#6BACA1" d="M225.8,179.5v-14.3h2.7v14.3H225.8z"/>
			<path fill="#6BACA1" d="M231.4,167.7v-2.5h2.7v2.5C234.1,167.7,231.4,167.7,231.4,167.7z M231.4,179.5v-10.4h2.7v10.4H231.4z"/>
			<path fill="#6BACA1" d="M246.3,179.5h-2.7v-5.3c0-1.1-0.1-1.8-0.2-2.2c-0.1-0.3-0.3-0.6-0.6-0.8c-0.3-0.2-0.6-0.3-1-0.3
				c-0.5,0-0.9,0.1-1.3,0.4c-0.4,0.3-0.6,0.6-0.8,1c-0.1,0.4-0.2,1.2-0.2,2.4v4.7h-2.7v-10.4h2.5v1.5c0.9-1.2,2-1.8,3.4-1.8
				c0.6,0,1.2,0.1,1.7,0.3s0.9,0.5,1.1,0.8c0.3,0.3,0.4,0.7,0.5,1.2c0.1,0.4,0.2,1,0.2,1.8L246.3,179.5L246.3,179.5z"/>
			<path fill="#6BACA1" d="M249.1,167.7v-2.5h2.7v2.5C251.9,167.7,249.1,167.7,249.1,167.7z M249.1,179.5v-10.4h2.7v10.4H249.1z"/>
			<path fill="#6BACA1" d="M263.7,172.2l-2.7,0.5c-0.1-0.5-0.3-0.9-0.6-1.2c-0.3-0.3-0.7-0.4-1.3-0.4c-0.7,0-1.2,0.2-1.6,0.7
				s-0.6,1.3-0.6,2.4c0,1.2,0.2,2.1,0.6,2.6s1,0.8,1.7,0.8c0.5,0,0.9-0.1,1.3-0.4c0.3-0.3,0.6-0.8,0.7-1.5l2.7,0.5
				c-0.3,1.2-0.8,2.2-1.6,2.8s-1.9,0.9-3.2,0.9c-1.5,0-2.7-0.5-3.6-1.4s-1.4-2.3-1.4-4c0-1.7,0.5-3,1.4-4c0.9-1,2.1-1.4,3.7-1.4
				c1.3,0,2.3,0.3,3,0.8C262.9,170.3,263.4,171.1,263.7,172.2z"/>
			<path fill="#6BACA1" d="M267.9,172.3l-2.5-0.4c0.3-1,0.8-1.7,1.4-2.2s1.7-0.7,3-0.7c1.2,0,2.1,0.1,2.7,0.4c0.6,0.3,1,0.7,1.3,1.1
				c0.2,0.4,0.4,1.3,0.4,2.5l0,3.2c0,0.9,0,1.6,0.1,2c0.1,0.4,0.3,0.9,0.5,1.4h-2.7c-0.1-0.2-0.2-0.5-0.3-0.8c0-0.2-0.1-0.3-0.1-0.3
				c-0.5,0.5-1,0.8-1.5,1c-0.5,0.2-1.1,0.3-1.7,0.3c-1.1,0-1.9-0.3-2.5-0.9c-0.6-0.6-0.9-1.3-0.9-2.2c0-0.6,0.1-1.1,0.4-1.6
				c0.3-0.5,0.7-0.8,1.2-1.1c0.5-0.2,1.2-0.5,2.2-0.6c1.3-0.2,2.2-0.5,2.7-0.7v-0.3c0-0.5-0.1-0.9-0.4-1.1c-0.3-0.2-0.8-0.3-1.5-0.3
				c-0.5,0-0.9,0.1-1.1,0.3C268.3,171.5,268,171.8,267.9,172.3z M271.5,174.5c-0.4,0.1-0.9,0.3-1.7,0.4c-0.8,0.2-1.3,0.3-1.5,0.5
				c-0.4,0.3-0.5,0.6-0.5,1c0,0.4,0.1,0.7,0.4,1s0.6,0.4,1.1,0.4c0.5,0,1-0.2,1.4-0.5c0.3-0.2,0.5-0.5,0.7-0.9
				c0.1-0.2,0.1-0.7,0.1-1.3V174.5L271.5,174.5z"/>
			<path fill="#6BACA1" d="M276.9,179.5v-14.3h2.7v14.3H276.9z"/>
			<path fill="#6BACA1" d="M287.1,176.5l2.8-0.4c0.1,0.5,0.4,0.9,0.7,1.2c0.4,0.3,0.9,0.4,1.5,0.4c0.7,0,1.2-0.1,1.6-0.4
				c0.2-0.2,0.4-0.4,0.4-0.7c0-0.2-0.1-0.4-0.2-0.5c-0.1-0.1-0.4-0.3-0.9-0.4c-2.2-0.5-3.6-0.9-4.2-1.3c-0.8-0.6-1.2-1.3-1.2-2.3
				c0-0.9,0.4-1.7,1.1-2.3c0.7-0.6,1.8-0.9,3.3-0.9c1.4,0,2.5,0.2,3.2,0.7s1.2,1.1,1.4,2.1l-2.6,0.5c-0.1-0.4-0.3-0.7-0.6-0.9
				c-0.3-0.2-0.8-0.3-1.3-0.3c-0.7,0-1.2,0.1-1.6,0.3c-0.2,0.1-0.3,0.3-0.3,0.6c0,0.2,0.1,0.4,0.3,0.5c0.2,0.2,1.1,0.4,2.6,0.8
				c1.5,0.3,2.5,0.7,3.1,1.2c0.6,0.5,0.9,1.2,0.9,2c0,0.9-0.4,1.8-1.2,2.5c-0.8,0.7-2,1-3.5,1c-1.4,0-2.5-0.3-3.4-0.9
				C287.9,178.3,287.3,177.5,287.1,176.5z"/>
			<path fill="#6BACA1" d="M303.9,169.1v2.2h-1.9v4.2c0,0.8,0,1.3,0.1,1.5c0,0.1,0.1,0.3,0.2,0.3c0.1,0.1,0.3,0.1,0.5,0.1
				c0.3,0,0.6-0.1,1.1-0.3l0.2,2.1c-0.6,0.3-1.4,0.4-2.2,0.4c-0.5,0-0.9-0.1-1.3-0.2c-0.4-0.2-0.7-0.4-0.9-0.6
				c-0.2-0.3-0.3-0.6-0.4-1.1c-0.1-0.3-0.1-1-0.1-1.9v-4.5H298v-2.2h1.3v-2.1l2.8-1.6v3.7L303.9,169.1L303.9,169.1z"/>
			<path fill="#6BACA1" d="M312.7,179.5v-1.6c-0.4,0.6-0.9,1-1.5,1.3c-0.6,0.3-1.3,0.5-1.9,0.5c-0.7,0-1.3-0.2-1.9-0.5
				c-0.6-0.3-1-0.7-1.2-1.3c-0.2-0.6-0.4-1.3-0.4-2.3v-6.6h2.7v4.8c0,1.5,0,2.4,0.1,2.7c0.1,0.3,0.3,0.6,0.6,0.8
				c0.3,0.2,0.6,0.3,1,0.3c0.5,0,0.9-0.1,1.3-0.4s0.6-0.6,0.8-1c0.1-0.4,0.2-1.3,0.2-2.8v-4.4h2.7v10.4L312.7,179.5L312.7,179.5z"/>
			<path fill="#6BACA1" d="M327.6,179.5H325V178c-0.4,0.6-0.9,1-1.5,1.3c-0.6,0.3-1.2,0.4-1.7,0.4c-1.2,0-2.2-0.5-3.1-1.4
				c-0.8-1-1.3-2.3-1.3-4c0-1.8,0.4-3.1,1.2-4c0.8-0.9,1.9-1.4,3.1-1.4c1.2,0,2.2,0.5,3,1.4v-5.2h2.7L327.6,179.5L327.6,179.5z
				 M320.2,174.1c0,1.1,0.2,1.9,0.5,2.4c0.4,0.7,1.1,1.1,1.9,1.1c0.6,0,1.2-0.3,1.6-0.8c0.4-0.5,0.7-1.3,0.7-2.4
				c0-1.2-0.2-2-0.6-2.6c-0.4-0.5-1-0.8-1.6-0.8c-0.6,0-1.2,0.3-1.6,0.8C320.5,172.3,320.2,173.1,320.2,174.1z"/>
			<path fill="#6BACA1" d="M329,169.1h2.9l2.5,7.4l2.4-7.4h2.8l-3.7,10l-0.7,1.8c-0.2,0.6-0.5,1.1-0.7,1.4c-0.2,0.3-0.5,0.6-0.8,0.8
				c-0.3,0.2-0.6,0.4-1,0.5s-0.9,0.2-1.4,0.2c-0.5,0-1-0.1-1.6-0.2l-0.2-2.1c0.4,0.1,0.8,0.1,1.2,0.1c0.6,0,1.1-0.2,1.4-0.6
				c0.3-0.4,0.5-0.9,0.7-1.4L329,169.1z"/>
		</g>
		<g enable-background="new    ">
			<path fill="#6BACA1" d="M344.5,172.8h-1.6v-6c-0.6,0.5-1.3,1-2.1,1.2v-1.5c0.4-0.1,0.9-0.4,1.4-0.8c0.5-0.4,0.8-0.8,1-1.3h1.3
				L344.5,172.8L344.5,172.8z"/>
		</g>
	</g>
	<g>
		<g enable-background="new    ">
			<path fill="#4D4D4F" d="M400.2,175.1c0-0.9,0.1-1.7,0.4-2.3c0.2-0.5,0.5-0.9,0.8-1.2c0.4-0.4,0.7-0.6,1.2-0.8
				c0.6-0.2,1.2-0.4,1.9-0.4c1.3,0,2.4,0.4,3.2,1.2c0.8,0.8,1.2,1.9,1.2,3.4c0,1.4-0.4,2.6-1.2,3.4c-0.8,0.8-1.8,1.2-3.1,1.2
				c-1.3,0-2.4-0.4-3.2-1.2C400.6,177.6,400.2,176.5,400.2,175.1z M402.1,175c0,1,0.2,1.8,0.7,2.3s1.1,0.8,1.8,0.8
				c0.7,0,1.3-0.3,1.8-0.8c0.5-0.5,0.7-1.3,0.7-2.3c0-1-0.2-1.8-0.7-2.3c-0.4-0.5-1-0.8-1.8-0.8s-1.3,0.3-1.8,0.8
				C402.3,173.2,402.1,174,402.1,175z"/>
			<path fill="#4D4D4F" d="M410.2,173h1.6v0.9c0.2-0.3,0.5-0.6,0.8-0.8c0.4-0.2,0.7-0.3,1.2-0.3c0.8,0,1.4,0.3,1.9,0.9
				c0.5,0.6,0.8,1.4,0.8,2.5c0,1.1-0.3,1.9-0.8,2.5c-0.5,0.6-1.2,0.9-1.9,0.9c-0.4,0-0.7-0.1-1-0.2c-0.3-0.1-0.6-0.4-0.9-0.7v3.3
				h-1.7L410.2,173L410.2,173z M411.9,176.2c0,0.7,0.1,1.3,0.4,1.6c0.3,0.3,0.6,0.5,1.1,0.5c0.4,0,0.7-0.2,1-0.5
				c0.3-0.3,0.4-0.8,0.4-1.6c0-0.7-0.1-1.2-0.4-1.5s-0.6-0.5-1-0.5c-0.4,0-0.8,0.2-1,0.5C412.1,175.1,411.9,175.5,411.9,176.2z"/>
			<path fill="#4D4D4F" d="M420.9,173v1.4h-1.2v2.6c0,0.5,0,0.8,0,0.9c0,0.1,0.1,0.2,0.1,0.2c0.1,0.1,0.2,0.1,0.3,0.1
				c0.2,0,0.4-0.1,0.7-0.2l0.1,1.3c-0.4,0.2-0.9,0.3-1.4,0.3c-0.3,0-0.6-0.1-0.8-0.2c-0.2-0.1-0.4-0.2-0.5-0.4
				c-0.1-0.2-0.2-0.4-0.2-0.7c0-0.2-0.1-0.6-0.1-1.2v-2.8h-0.8V173h0.8v-1.3l1.7-1v2.3L420.9,173L420.9,173L420.9,173z"/>
			<path fill="#4D4D4F" d="M422.1,172.2v-1.6h1.7v1.6H422.1z M422.1,179.5V173h1.7v6.5H422.1z"/>
			<path fill="#4D4D4F" d="M424.9,177.7l1.7-0.3c0.1,0.3,0.2,0.6,0.4,0.8c0.2,0.2,0.5,0.3,0.9,0.3c0.4,0,0.8-0.1,1-0.2
				c0.1-0.1,0.2-0.3,0.2-0.5c0-0.1,0-0.2-0.1-0.3c-0.1-0.1-0.3-0.2-0.6-0.2c-1.4-0.3-2.3-0.6-2.6-0.8c-0.5-0.3-0.8-0.8-0.8-1.5
				c0-0.6,0.2-1,0.7-1.4c0.4-0.4,1.1-0.6,2.1-0.6c0.9,0,1.5,0.1,2,0.4c0.4,0.3,0.7,0.7,0.9,1.3l-1.6,0.3c-0.1-0.3-0.2-0.4-0.4-0.6
				c-0.2-0.1-0.5-0.2-0.8-0.2c-0.4,0-0.8,0.1-1,0.2c-0.1,0.1-0.2,0.2-0.2,0.3c0,0.1,0.1,0.2,0.2,0.3c0.2,0.1,0.7,0.3,1.6,0.5
				s1.5,0.5,1.9,0.8c0.4,0.3,0.5,0.7,0.5,1.3c0,0.6-0.2,1.1-0.7,1.5c-0.5,0.4-1.2,0.6-2.2,0.6c-0.9,0-1.6-0.2-2.1-0.5
				C425.4,178.8,425.1,178.3,424.9,177.7z"/>
			<path fill="#4D4D4F" d="M435.4,173v1.4h-1.2v2.6c0,0.5,0,0.8,0,0.9c0,0.1,0.1,0.2,0.2,0.2c0.1,0.1,0.2,0.1,0.3,0.1
				c0.2,0,0.4-0.1,0.7-0.2l0.1,1.3c-0.4,0.2-0.8,0.3-1.4,0.3c-0.3,0-0.6-0.1-0.8-0.2c-0.2-0.1-0.4-0.2-0.5-0.4
				c-0.1-0.2-0.2-0.4-0.2-0.7c0-0.2-0.1-0.6-0.1-1.2v-2.8h-0.8V173h0.8v-1.3l1.7-1v2.3L435.4,173L435.4,173L435.4,173z"/>
			<path fill="#4D4D4F" d="M437.9,175l-1.6-0.3c0.2-0.6,0.5-1.1,0.9-1.4c0.4-0.3,1.1-0.4,1.9-0.4c0.8,0,1.3,0.1,1.7,0.3
				c0.4,0.2,0.6,0.4,0.8,0.7s0.2,0.8,0.2,1.5l0,2c0,0.6,0,1,0.1,1.3s0.2,0.6,0.3,0.9h-1.7c0-0.1-0.1-0.3-0.2-0.5
				c0-0.1,0-0.2-0.1-0.2c-0.3,0.3-0.6,0.5-0.9,0.6c-0.3,0.1-0.7,0.2-1.1,0.2c-0.7,0-1.2-0.2-1.6-0.5c-0.4-0.4-0.6-0.8-0.6-1.4
				c0-0.4,0.1-0.7,0.3-1c0.2-0.3,0.4-0.5,0.7-0.7c0.3-0.2,0.8-0.3,1.4-0.4c0.8-0.2,1.4-0.3,1.7-0.4v-0.2c0-0.3-0.1-0.6-0.2-0.7
				c-0.2-0.1-0.5-0.2-0.9-0.2c-0.3,0-0.5,0.1-0.7,0.2C438.1,174.5,438,174.7,437.9,175z M440.2,176.4c-0.2,0.1-0.6,0.2-1,0.3
				c-0.5,0.1-0.8,0.2-0.9,0.3c-0.2,0.2-0.3,0.4-0.3,0.6c0,0.2,0.1,0.4,0.3,0.6c0.2,0.2,0.4,0.3,0.7,0.3c0.3,0,0.6-0.1,0.9-0.3
				c0.2-0.2,0.3-0.3,0.4-0.6c0-0.1,0.1-0.4,0.1-0.8L440.2,176.4L440.2,176.4z"/>
			<path fill="#4D4D4F" d="M445.3,179.5l-2.6-6.5h1.8l1.2,3.3l0.4,1.1c0.1-0.3,0.2-0.5,0.2-0.6c0.1-0.2,0.1-0.4,0.2-0.5l1.2-3.3h1.8
				l-2.6,6.5C446.8,179.5,445.3,179.5,445.3,179.5z"/>
			<path fill="#4D4D4F" d="M450.5,172.2v-1.6h1.7v1.6H450.5z M450.5,179.5V173h1.7v6.5H450.5z"/>
			<path fill="#4D4D4F" d="M459.8,179.5h-1.7v-3.3c0-0.7,0-1.1-0.1-1.4c-0.1-0.2-0.2-0.4-0.4-0.5c-0.2-0.1-0.4-0.2-0.6-0.2
				c-0.3,0-0.6,0.1-0.8,0.2s-0.4,0.4-0.5,0.6c-0.1,0.3-0.1,0.8-0.1,1.5v2.9h-1.7V173h1.6v0.9c0.6-0.7,1.3-1.1,2.1-1.1
				c0.4,0,0.7,0.1,1,0.2c0.3,0.1,0.5,0.3,0.7,0.5c0.2,0.2,0.3,0.5,0.3,0.7c0.1,0.3,0.1,0.7,0.1,1.1L459.8,179.5L459.8,179.5
				L459.8,179.5z"/>
		</g>
		<g enable-background="new    ">
			<path fill="#4D4D4F" d="M467,182.1c-0.6-0.8-1.1-1.7-1.5-2.7s-0.6-2.1-0.6-3.2c0-1,0.2-1.9,0.5-2.8c0.4-1,0.9-2,1.7-3.1h0.8
				c-0.5,0.8-0.8,1.4-1,1.8c-0.2,0.6-0.4,1.1-0.6,1.8c-0.2,0.8-0.3,1.5-0.3,2.3c0,2,0.6,3.9,1.8,5.8L467,182.1L467,182.1L467,182.1z
				"/>
			<path fill="#4D4D4F" d="M469.1,179.5V173h1v0.9c0.5-0.7,1.2-1.1,2.1-1.1c0.4,0,0.7,0.1,1.1,0.2s0.6,0.3,0.7,0.6s0.3,0.5,0.3,0.8
				c0,0.2,0.1,0.6,0.1,1.1v4h-1.1v-3.9c0-0.4,0-0.8-0.1-1c-0.1-0.2-0.2-0.4-0.5-0.5c-0.2-0.1-0.5-0.2-0.8-0.2
				c-0.5,0-0.9,0.1-1.2,0.4c-0.3,0.3-0.5,0.9-0.5,1.7v3.5L469.1,179.5L469.1,179.5z"/>
			<path fill="#4D4D4F" d="M481.8,174.3h-5.9v-1h5.9V174.3z M481.8,177h-5.9v-1h5.9V177z"/>
			<path fill="#4D4D4F" d="M483,177.1l1.1-0.1c0.1,0.6,0.3,1.1,0.6,1.3c0.3,0.3,0.7,0.4,1.1,0.4c0.5,0,0.9-0.2,1.3-0.5
				c0.4-0.4,0.5-0.8,0.5-1.3c0-0.5-0.2-0.9-0.5-1.2c-0.3-0.3-0.7-0.5-1.3-0.5c-0.2,0-0.5,0-0.8,0.1l0.1-1c0.1,0,0.1,0,0.2,0
				c0.5,0,0.9-0.1,1.3-0.4c0.4-0.2,0.6-0.6,0.6-1.1c0-0.4-0.1-0.7-0.4-1c-0.3-0.3-0.6-0.4-1.1-0.4c-0.4,0-0.8,0.1-1.1,0.4
				c-0.3,0.3-0.5,0.7-0.5,1.2l-1.1-0.2c0.1-0.7,0.4-1.3,0.9-1.7c0.5-0.4,1.1-0.6,1.8-0.6c0.5,0,0.9,0.1,1.3,0.3
				c0.4,0.2,0.7,0.5,0.9,0.9c0.2,0.4,0.3,0.7,0.3,1.1c0,0.4-0.1,0.7-0.3,1.1c-0.2,0.3-0.5,0.6-0.9,0.8c0.5,0.1,0.9,0.4,1.2,0.8
				c0.3,0.4,0.4,0.9,0.4,1.4c0,0.8-0.3,1.4-0.9,2c-0.6,0.5-1.3,0.8-2.2,0.8c-0.8,0-1.4-0.2-1.9-0.7C483.3,178.5,483,177.9,483,177.1
				z"/>
			<path fill="#4D4D4F" d="M489.9,177.1l1.1-0.1c0.1,0.6,0.3,1.1,0.6,1.3c0.3,0.3,0.7,0.4,1.1,0.4c0.5,0,1-0.2,1.3-0.5
				c0.4-0.4,0.5-0.8,0.5-1.3c0-0.5-0.2-0.9-0.5-1.2c-0.3-0.3-0.7-0.5-1.3-0.5c-0.2,0-0.5,0-0.8,0.1l0.1-1c0.1,0,0.1,0,0.2,0
				c0.5,0,0.9-0.1,1.3-0.4s0.6-0.6,0.6-1.1c0-0.4-0.1-0.7-0.4-1c-0.3-0.3-0.6-0.4-1.1-0.4c-0.4,0-0.8,0.1-1.1,0.4s-0.5,0.7-0.5,1.2
				l-1.1-0.2c0.1-0.7,0.4-1.3,0.9-1.7c0.5-0.4,1.1-0.6,1.8-0.6c0.5,0,0.9,0.1,1.3,0.3c0.4,0.2,0.7,0.5,0.9,0.9
				c0.2,0.4,0.3,0.7,0.3,1.1c0,0.4-0.1,0.7-0.3,1.1c-0.2,0.3-0.5,0.6-0.9,0.8c0.5,0.1,0.9,0.4,1.2,0.8c0.3,0.4,0.4,0.9,0.4,1.4
				c0,0.8-0.3,1.4-0.9,2c-0.6,0.5-1.3,0.8-2.2,0.8c-0.8,0-1.4-0.2-1.9-0.7C490.3,178.5,490,177.9,489.9,177.1z"/>
			<path fill="#4D4D4F" d="M502.6,178.4v1.1h-5.9c0-0.3,0-0.5,0.1-0.8c0.2-0.4,0.4-0.8,0.7-1.2c0.3-0.4,0.8-0.8,1.4-1.4
				c1-0.8,1.6-1.4,2-1.9c0.3-0.5,0.5-0.9,0.5-1.3c0-0.4-0.2-0.8-0.5-1.1c-0.3-0.3-0.7-0.4-1.2-0.4c-0.5,0-0.9,0.2-1.3,0.5
				c-0.3,0.3-0.5,0.8-0.5,1.3l-1.1-0.1c0.1-0.8,0.4-1.5,0.9-1.9c0.5-0.4,1.2-0.7,2-0.7c0.9,0,1.5,0.2,2,0.7c0.5,0.5,0.7,1.1,0.7,1.8
				c0,0.4-0.1,0.7-0.2,1.1c-0.1,0.3-0.4,0.7-0.7,1.1c-0.3,0.4-0.9,0.9-1.7,1.6c-0.7,0.6-1.1,0.9-1.3,1.1c-0.2,0.2-0.3,0.4-0.5,0.6
				H502.6z"/>
			<path fill="#4D4D4F" d="M504.8,182.1H504c1.2-1.9,1.8-3.9,1.8-5.8c0-0.8-0.1-1.5-0.3-2.3c-0.1-0.6-0.3-1.2-0.6-1.8
				c-0.2-0.4-0.5-1-1-1.8h0.8c0.8,1,1.3,2,1.7,3.1c0.3,0.9,0.5,1.8,0.5,2.8c0,1.1-0.2,2.2-0.6,3.2
				C505.9,180.5,505.4,181.4,504.8,182.1z"/>
		</g>
	</g>
	<g>
		<g enable-background="new    ">
			<path fill="#4D4D4F" d="M566.2,176.2l1.7,0.6c-0.3,1-0.7,1.7-1.3,2.2c-0.6,0.5-1.4,0.7-2.4,0.7c-1.2,0-2.2-0.4-2.9-1.2
				c-0.8-0.8-1.1-1.9-1.1-3.3c0-1.5,0.4-2.6,1.1-3.5c0.8-0.8,1.8-1.2,3-1.2c1.1,0,2,0.3,2.7,1c0.4,0.4,0.7,0.9,0.9,1.6l-1.8,0.4
				c-0.1-0.5-0.3-0.8-0.7-1.1c-0.3-0.3-0.7-0.4-1.2-0.4c-0.7,0-1.2,0.2-1.6,0.7s-0.6,1.2-0.6,2.3c0,1.1,0.2,1.9,0.6,2.4
				c0.4,0.5,0.9,0.7,1.6,0.7c0.5,0,0.9-0.2,1.2-0.5C565.8,177.4,566.1,176.9,566.2,176.2z"/>
			<path fill="#4D4D4F" d="M569.1,176.2c0-0.6,0.1-1.1,0.4-1.6c0.3-0.5,0.7-0.9,1.2-1.2c0.5-0.3,1.1-0.4,1.7-0.4c1,0,1.8,0.3,2.4,1
				c0.6,0.6,0.9,1.4,0.9,2.4c0,1-0.3,1.8-0.9,2.4c-0.6,0.6-1.4,1-2.4,1c-0.6,0-1.2-0.1-1.7-0.4c-0.5-0.3-0.9-0.7-1.2-1.2
				C569.3,177.6,569.1,176.9,569.1,176.2z M570.9,176.3c0,0.6,0.2,1.1,0.5,1.5c0.3,0.3,0.7,0.5,1.1,0.5s0.8-0.2,1.1-0.5
				c0.3-0.3,0.5-0.8,0.5-1.5c0-0.6-0.2-1.1-0.5-1.5c-0.3-0.3-0.7-0.5-1.1-0.5s-0.8,0.2-1.1,0.5C571,175.1,570.9,175.6,570.9,176.3z"
				/>
			<path fill="#4D4D4F" d="M583,179.5h-1.7v-3.3c0-0.7,0-1.1-0.1-1.4c-0.1-0.2-0.2-0.4-0.4-0.5c-0.2-0.1-0.4-0.2-0.6-0.2
				c-0.3,0-0.6,0.1-0.8,0.2s-0.4,0.4-0.5,0.6c-0.1,0.3-0.1,0.8-0.1,1.5v2.9h-1.7V173h1.6v0.9c0.6-0.7,1.3-1.1,2.1-1.1
				c0.4,0,0.7,0.1,1,0.2c0.3,0.1,0.5,0.3,0.7,0.5c0.2,0.2,0.3,0.5,0.3,0.7c0.1,0.3,0.1,0.7,0.1,1.1L583,179.5L583,179.5L583,179.5z"
				/>
			<path fill="#4D4D4F" d="M587.7,173v1.4h-1.2v2.6c0,0.5,0,0.8,0,0.9c0,0.1,0.1,0.2,0.2,0.2c0.1,0.1,0.2,0.1,0.3,0.1
				c0.2,0,0.4-0.1,0.7-0.2l0.1,1.3c-0.4,0.2-0.8,0.3-1.3,0.3c-0.3,0-0.6-0.1-0.8-0.2c-0.2-0.1-0.4-0.2-0.5-0.4
				c-0.1-0.2-0.2-0.4-0.2-0.7c0-0.2-0.1-0.6-0.1-1.2v-2.8H584V173h0.8v-1.3l1.7-1v2.3L587.7,173L587.7,173L587.7,173z"/>
			<path fill="#4D4D4F" d="M590.5,179.5h-1.7V173h1.6v0.9c0.3-0.4,0.5-0.7,0.7-0.9c0.2-0.1,0.5-0.2,0.7-0.2c0.4,0,0.8,0.1,1.1,0.3
				l-0.5,1.5c-0.3-0.2-0.6-0.3-0.8-0.3c-0.2,0-0.4,0.1-0.6,0.2s-0.3,0.4-0.4,0.7c-0.1,0.3-0.1,1.1-0.1,2.2L590.5,179.5L590.5,179.5z
				"/>
			<path fill="#4D4D4F" d="M593.3,176.2c0-0.6,0.1-1.1,0.4-1.6c0.3-0.5,0.7-0.9,1.2-1.2c0.5-0.3,1.1-0.4,1.7-0.4c1,0,1.8,0.3,2.4,1
				c0.6,0.6,0.9,1.4,0.9,2.4c0,1-0.3,1.8-0.9,2.4c-0.6,0.6-1.4,1-2.4,1c-0.6,0-1.2-0.1-1.7-0.4c-0.5-0.3-0.9-0.7-1.2-1.2
				C593.5,177.6,593.3,176.9,593.3,176.2z M595.1,176.3c0,0.6,0.2,1.1,0.5,1.5c0.3,0.3,0.7,0.5,1.1,0.5s0.8-0.2,1.1-0.5
				c0.3-0.3,0.5-0.8,0.5-1.5c0-0.6-0.1-1.1-0.5-1.5c-0.3-0.3-0.7-0.5-1.1-0.5s-0.8,0.2-1.1,0.5C595.2,175.1,595.1,175.6,595.1,176.3
				z"/>
			<path fill="#4D4D4F" d="M601.3,179.5v-8.9h1.7v8.9H601.3z"/>
		</g>
		<g enable-background="new    ">
			<path fill="#4D4D4F" d="M610.3,182.1c-0.6-0.8-1.1-1.7-1.5-2.7c-0.4-1-0.6-2.1-0.6-3.2c0-1,0.2-1.9,0.5-2.8c0.4-1,0.9-2,1.7-3.1
				h0.8c-0.5,0.8-0.8,1.4-1,1.8c-0.2,0.6-0.4,1.1-0.6,1.8c-0.2,0.8-0.3,1.5-0.3,2.3c0,2,0.6,3.9,1.8,5.8L610.3,182.1L610.3,182.1
				L610.3,182.1z"/>
			<path fill="#4D4D4F" d="M612.3,179.5V173h1v0.9c0.5-0.7,1.2-1.1,2.1-1.1c0.4,0,0.7,0.1,1.1,0.2c0.3,0.1,0.6,0.3,0.7,0.6
				s0.3,0.5,0.3,0.8c0,0.2,0.1,0.6,0.1,1.1v4h-1.1v-3.9c0-0.4,0-0.8-0.1-1c-0.1-0.2-0.2-0.4-0.5-0.5c-0.2-0.1-0.5-0.2-0.8-0.2
				c-0.5,0-0.9,0.1-1.2,0.4c-0.3,0.3-0.5,0.9-0.5,1.7v3.5L612.3,179.5L612.3,179.5z"/>
			<path fill="#4D4D4F" d="M625,174.3h-5.9v-1h5.9V174.3z M625,177h-5.9v-1h5.9V177z"/>
			<path fill="#4D4D4F" d="M630.4,179.5h-1.1v-7c-0.3,0.3-0.6,0.5-1,0.8c-0.4,0.3-0.8,0.4-1.2,0.6v-1.1c0.6-0.3,1.1-0.6,1.6-1
				c0.5-0.4,0.8-0.8,1-1.2h0.7L630.4,179.5L630.4,179.5z"/>
			<path fill="#4D4D4F" d="M633.2,177.2l1.1-0.1c0.1,0.6,0.3,1,0.6,1.3c0.3,0.3,0.7,0.4,1.1,0.4c0.5,0,1-0.2,1.3-0.6
				c0.4-0.4,0.5-0.9,0.5-1.6c0-0.6-0.2-1.1-0.5-1.5c-0.3-0.4-0.8-0.5-1.4-0.5c-0.4,0-0.7,0.1-1,0.2c-0.3,0.2-0.5,0.4-0.7,0.6l-1-0.1
				l0.9-4.6h4.4v1h-3.6l-0.5,2.4c0.5-0.4,1.1-0.6,1.7-0.6c0.8,0,1.4,0.3,2,0.8c0.5,0.5,0.8,1.2,0.8,2.1c0,0.8-0.2,1.5-0.7,2.1
				c-0.6,0.7-1.4,1.1-2.3,1.1c-0.8,0-1.5-0.2-2-0.7C633.5,178.5,633.2,177.9,633.2,177.2z"/>
			<path fill="#4D4D4F" d="M640.1,177.2l1.2-0.1c0.1,0.6,0.3,1,0.6,1.3c0.3,0.3,0.7,0.4,1.1,0.4c0.5,0,1-0.2,1.3-0.6
				c0.4-0.4,0.5-0.9,0.5-1.6c0-0.6-0.2-1.1-0.5-1.5c-0.3-0.4-0.8-0.5-1.4-0.5c-0.4,0-0.7,0.1-1,0.2c-0.3,0.2-0.5,0.4-0.7,0.6l-1-0.1
				l0.9-4.6h4.4v1H642l-0.5,2.4c0.5-0.4,1.1-0.6,1.7-0.6c0.8,0,1.4,0.3,2,0.8c0.5,0.5,0.8,1.2,0.8,2.1c0,0.8-0.2,1.5-0.7,2.1
				c-0.6,0.7-1.4,1.1-2.3,1.1c-0.8,0-1.5-0.2-2-0.7C640.5,178.5,640.2,177.9,640.1,177.2z"/>
			<path fill="#4D4D4F" d="M648.1,182.1h-0.8c1.2-1.9,1.8-3.9,1.8-5.8c0-0.8-0.1-1.5-0.3-2.3c-0.1-0.6-0.3-1.2-0.6-1.8
				c-0.2-0.4-0.5-1-1-1.8h0.8c0.8,1,1.3,2,1.7,3.1c0.3,0.9,0.5,1.8,0.5,2.8c0,1.1-0.2,2.2-0.6,3.2
				C649.2,180.5,648.7,181.4,648.1,182.1z"/>
		</g>
	</g>
	<line fill="none" stroke="#D6ECE6" stroke-width="2.7689" stroke-miterlimit="10" x1="-82.5" y1="192" x2="681.5" y2="192"/>
</g>
</svg>
