<?xml version="1.0" encoding="utf-8"?>
<!-- Generator: Adobe Illustrator 17.0.1, SVG Export Plug-In . SVG Version: 6.00 Build 0)  -->
<!DOCTYPE svg PUBLIC "-//W3C//DTD SVG 1.1//EN" "http://www.w3.org/Graphics/SVG/1.1/DTD/svg11.dtd">
<svg version="1.1" id="Layer_1" xmlns="http://www.w3.org/2000/svg" xmlns:xlink="http://www.w3.org/1999/xlink" x="0px" y="0px"
	 width="902.667px" height="34.009px" viewBox="0 0 902.667 34.009" enable-background="new 0 0 902.667 34.009"
	 xml:space="preserve">
<g id="_x34_.0_mCRPC_Safety_profile__x28_Serious_AEs_x29_">
	<rect x="596.413" y="0" fill="#ECF6F2" width="152.98" height="34.009"/>
	<rect x="749.392" y="0" opacity="0.8" fill="#DBDBDC" enable-background="new    " width="151.94" height="34.009"/>
	<g>
		<g enable-background="new    ">
			<path fill="#6BACA1" d="M2.056,16.851l2.812-0.273c0.169,0.944,0.513,1.638,1.03,2.08s1.216,0.664,2.095,0.664
				c0.931,0,1.632-0.197,2.104-0.591s0.708-0.854,0.708-1.382c0-0.339-0.099-0.627-0.298-0.864s-0.545-0.444-1.04-0.62
				c-0.338-0.117-1.11-0.325-2.314-0.625c-1.549-0.384-2.637-0.856-3.262-1.416c-0.879-0.788-1.318-1.748-1.318-2.881
				c0-0.729,0.207-1.411,0.62-2.046c0.413-0.635,1.009-1.118,1.787-1.45s1.717-0.498,2.817-0.498c1.797,0,3.149,0.394,4.058,1.182
				s1.385,1.839,1.431,3.154l-2.891,0.127c-0.124-0.735-0.389-1.265-0.796-1.587S8.582,9.342,7.768,9.342
				c-0.84,0-1.498,0.173-1.973,0.518c-0.306,0.222-0.459,0.518-0.459,0.889c0,0.339,0.143,0.628,0.43,0.869
				c0.365,0.306,1.25,0.625,2.656,0.957s2.446,0.676,3.12,1.03s1.201,0.84,1.582,1.455s0.571,1.375,0.571,2.28
				c0,0.82-0.228,1.589-0.684,2.305s-1.1,1.248-1.934,1.597s-1.872,0.522-3.115,0.522c-1.81,0-3.2-0.418-4.17-1.255
				C2.822,19.672,2.245,18.453,2.056,16.851z"/>
			<path fill="#6BACA1" d="M22.115,18.208l2.734,0.459c-0.352,1.003-0.907,1.766-1.665,2.29c-0.758,0.524-1.708,0.786-2.847,0.786
				c-1.803,0-3.138-0.589-4.004-1.768c-0.684-0.944-1.025-2.136-1.025-3.574c0-1.719,0.449-3.064,1.348-4.038s2.035-1.46,3.408-1.46
				c1.543,0,2.76,0.51,3.652,1.528s1.318,2.58,1.279,4.683H18.12c0.02,0.813,0.241,1.447,0.664,1.899
				c0.423,0.452,0.951,0.679,1.582,0.679c0.43,0,0.791-0.117,1.084-0.352C21.743,19.105,21.965,18.729,22.115,18.208z
				 M22.271,15.435c-0.02-0.794-0.225-1.398-0.615-1.812s-0.866-0.62-1.426-0.62c-0.599,0-1.094,0.218-1.484,0.654
				s-0.583,1.028-0.576,1.777L22.271,15.435L22.271,15.435z"/>
			<path fill="#6BACA1" d="M30.084,21.509l-4.18-10.371h2.881l1.953,5.293l0.566,1.768c0.15-0.449,0.244-0.745,0.283-0.889
				c0.091-0.293,0.189-0.586,0.293-0.879l1.973-5.293h2.822l-4.121,10.371H30.084z"/>
			<path fill="#6BACA1" d="M44.361,18.208l2.734,0.459c-0.352,1.003-0.907,1.766-1.665,2.29c-0.758,0.524-1.708,0.786-2.847,0.786
				c-1.803,0-3.138-0.589-4.004-1.768c-0.684-0.944-1.025-2.136-1.025-3.574c0-1.719,0.449-3.064,1.348-4.038s2.035-1.46,3.408-1.46
				c1.543,0,2.76,0.51,3.652,1.528s1.318,2.58,1.279,4.683h-6.875c0.021,0.813,0.241,1.447,0.664,1.899s0.951,0.679,1.582,0.679
				c0.43,0,0.791-0.117,1.084-0.352C43.989,19.105,44.211,18.729,44.361,18.208z M44.517,15.435
				c-0.02-0.794-0.225-1.398-0.615-1.812s-0.866-0.62-1.426-0.62c-0.599,0-1.094,0.218-1.484,0.654s-0.583,1.028-0.576,1.777
				L44.517,15.435L44.517,15.435z"/>
			<path fill="#6BACA1" d="M52.105,21.509h-2.744V11.138h2.549v1.475c0.436-0.696,0.829-1.155,1.177-1.377
				c0.348-0.222,0.744-0.332,1.187-0.332c0.625,0,1.227,0.173,1.807,0.518l-0.85,2.393c-0.462-0.3-0.892-0.449-1.289-0.449
				c-0.384,0-0.709,0.105-0.977,0.317s-0.477,0.594-0.63,1.147s-0.229,1.712-0.229,3.477L52.105,21.509L52.105,21.509z"/>
			<path fill="#6BACA1" d="M63.267,18.208l2.734,0.459c-0.352,1.003-0.907,1.766-1.665,2.29s-1.708,0.786-2.847,0.786
				c-1.803,0-3.138-0.589-4.004-1.768c-0.684-0.944-1.025-2.136-1.025-3.574c0-1.719,0.449-3.064,1.348-4.038s2.035-1.46,3.408-1.46
				c1.543,0,2.76,0.51,3.652,1.528s1.318,2.58,1.279,4.683h-6.875c0.02,0.813,0.241,1.447,0.664,1.899s0.951,0.679,1.582,0.679
				c0.43,0,0.791-0.117,1.084-0.352C62.895,19.105,63.117,18.729,63.267,18.208z M63.423,15.435
				c-0.02-0.794-0.225-1.398-0.615-1.812s-0.866-0.62-1.426-0.62c-0.599,0-1.094,0.218-1.484,0.654s-0.583,1.028-0.576,1.777
				L63.423,15.435L63.423,15.435z"/>
			<path fill="#6BACA1" d="M75.992,14.302l-2.49-0.449c0.28-1.003,0.762-1.745,1.445-2.227c0.683-0.482,1.699-0.723,3.047-0.723
				c1.224,0,2.135,0.145,2.734,0.435s1.021,0.657,1.265,1.104s0.366,1.265,0.366,2.456l-0.029,3.203
				c0,0.911,0.044,1.584,0.132,2.017s0.252,0.896,0.493,1.392H80.24c-0.072-0.183-0.16-0.452-0.264-0.811
				c-0.045-0.163-0.078-0.271-0.098-0.322c-0.469,0.456-0.97,0.798-1.504,1.025s-1.104,0.342-1.709,0.342
				c-1.068,0-1.909-0.29-2.524-0.869c-0.615-0.579-0.923-1.312-0.923-2.197c0-0.586,0.14-1.108,0.42-1.567
				c0.28-0.459,0.672-0.811,1.177-1.055s1.232-0.457,2.183-0.64c1.283-0.241,2.171-0.466,2.666-0.674v-0.273
				c0-0.527-0.13-0.903-0.391-1.128c-0.261-0.225-0.752-0.337-1.475-0.337c-0.488,0-0.869,0.096-1.143,0.288
				S76.161,13.821,75.992,14.302z M79.664,16.529c-0.352,0.117-0.908,0.257-1.67,0.42c-0.762,0.163-1.26,0.322-1.494,0.479
				c-0.358,0.254-0.537,0.576-0.537,0.967c0,0.384,0.143,0.716,0.43,0.996s0.651,0.42,1.094,0.42c0.495,0,0.967-0.163,1.416-0.488
				c0.332-0.247,0.55-0.55,0.654-0.908c0.072-0.234,0.107-0.681,0.107-1.338L79.664,16.529L79.664,16.529z"/>
			<path fill="#6BACA1" d="M94.576,21.509h-2.549v-1.523c-0.423,0.593-0.923,1.033-1.499,1.323c-0.576,0.29-1.157,0.435-1.743,0.435
				c-1.191,0-2.212-0.48-3.062-1.44c-0.85-0.96-1.274-2.3-1.274-4.019c0-1.758,0.414-3.094,1.24-4.009s1.872-1.372,3.135-1.372
				c1.159,0,2.162,0.481,3.008,1.445V7.193h2.744L94.576,21.509L94.576,21.509z M87.252,16.099c0,1.106,0.153,1.907,0.459,2.402
				c0.443,0.716,1.061,1.074,1.855,1.074c0.631,0,1.168-0.269,1.611-0.806s0.664-1.34,0.664-2.407c0-1.191-0.215-2.049-0.645-2.573
				c-0.43-0.524-0.98-0.786-1.65-0.786c-0.651,0-1.196,0.259-1.636,0.776C87.47,14.296,87.252,15.071,87.252,16.099z"/>
			<path fill="#6BACA1" d="M100.132,21.509l-4.18-10.371h2.881l1.953,5.293l0.566,1.768c0.15-0.449,0.244-0.745,0.283-0.889
				c0.091-0.293,0.189-0.586,0.293-0.879l1.973-5.293h2.822l-4.121,10.371H100.132z"/>
			<path fill="#6BACA1" d="M114.41,18.208l2.734,0.459c-0.352,1.003-0.907,1.766-1.665,2.29s-1.708,0.786-2.847,0.786
				c-1.803,0-3.138-0.589-4.004-1.768c-0.684-0.944-1.025-2.136-1.025-3.574c0-1.719,0.449-3.064,1.348-4.038s2.035-1.46,3.408-1.46
				c1.543,0,2.76,0.51,3.652,1.528s1.318,2.58,1.279,4.683h-6.875c0.02,0.813,0.241,1.447,0.664,1.899s0.951,0.679,1.582,0.679
				c0.43,0,0.791-0.117,1.084-0.352C114.038,19.105,114.26,18.729,114.41,18.208z M114.566,15.435
				c-0.02-0.794-0.225-1.398-0.615-1.812s-0.866-0.62-1.426-0.62c-0.599,0-1.094,0.218-1.484,0.654s-0.583,1.028-0.576,1.777
				L114.566,15.435L114.566,15.435z"/>
			<path fill="#6BACA1" d="M122.154,21.509h-2.744V11.138h2.549v1.475c0.436-0.696,0.829-1.155,1.177-1.377
				c0.348-0.222,0.744-0.332,1.187-0.332c0.625,0,1.227,0.173,1.807,0.518l-0.85,2.393c-0.462-0.3-0.892-0.449-1.289-0.449
				c-0.384,0-0.709,0.105-0.977,0.317c-0.268,0.212-0.477,0.594-0.63,1.147s-0.229,1.712-0.229,3.477L122.154,21.509L122.154,21.509
				z"/>
			<path fill="#6BACA1" d="M126.343,18.55l2.754-0.42c0.117,0.534,0.355,0.939,0.713,1.216s0.859,0.415,1.504,0.415
				c0.709,0,1.244-0.13,1.602-0.391c0.241-0.183,0.361-0.427,0.361-0.732c0-0.208-0.065-0.381-0.195-0.518
				c-0.137-0.13-0.443-0.251-0.918-0.361c-2.213-0.488-3.617-0.935-4.209-1.338c-0.82-0.56-1.23-1.338-1.23-2.334
				c0-0.898,0.355-1.653,1.064-2.266c0.709-0.613,1.81-0.918,3.301-0.918c1.419,0,2.474,0.231,3.164,0.693s1.166,1.146,1.426,2.051
				l-2.588,0.479c-0.111-0.403-0.321-0.713-0.63-0.928s-0.75-0.322-1.323-0.322c-0.723,0-1.24,0.101-1.553,0.303
				c-0.208,0.144-0.312,0.329-0.312,0.557c0,0.195,0.091,0.361,0.273,0.498c0.248,0.183,1.102,0.439,2.563,0.771
				s2.482,0.739,3.062,1.221c0.573,0.488,0.859,1.169,0.859,2.041c0,0.95-0.397,1.768-1.191,2.451
				c-0.794,0.683-1.969,1.025-3.525,1.025c-1.413,0-2.531-0.286-3.354-0.859C127.138,20.311,126.597,19.534,126.343,18.55z"/>
			<path fill="#6BACA1" d="M144.439,18.208l2.734,0.459c-0.352,1.003-0.907,1.766-1.665,2.29c-0.758,0.524-1.708,0.786-2.847,0.786
				c-1.803,0-3.138-0.589-4.004-1.768c-0.684-0.944-1.025-2.136-1.025-3.574c0-1.719,0.449-3.064,1.348-4.038s2.035-1.46,3.408-1.46
				c1.543,0,2.76,0.51,3.652,1.528s1.318,2.58,1.279,4.683h-6.875c0.02,0.813,0.241,1.447,0.664,1.899s0.951,0.679,1.582,0.679
				c0.43,0,0.791-0.117,1.084-0.352C144.067,19.105,144.289,18.729,144.439,18.208z M144.595,15.435
				c-0.021-0.794-0.225-1.398-0.615-1.812s-0.866-0.62-1.426-0.62c-0.599,0-1.094,0.218-1.484,0.654s-0.583,1.028-0.576,1.777
				L144.595,15.435L144.595,15.435z"/>
			<path fill="#6BACA1" d="M161.119,18.208l2.734,0.459c-0.352,1.003-0.907,1.766-1.665,2.29s-1.708,0.786-2.847,0.786
				c-1.803,0-3.138-0.589-4.004-1.768c-0.684-0.944-1.025-2.136-1.025-3.574c0-1.719,0.449-3.064,1.348-4.038s2.035-1.46,3.408-1.46
				c1.543,0,2.76,0.51,3.652,1.528s1.318,2.58,1.279,4.683h-6.875c0.02,0.813,0.241,1.447,0.664,1.899s0.951,0.679,1.582,0.679
				c0.43,0,0.791-0.117,1.084-0.352C160.747,19.105,160.969,18.729,161.119,18.208z M161.275,15.435
				c-0.02-0.794-0.225-1.398-0.615-1.812s-0.866-0.62-1.426-0.62c-0.599,0-1.094,0.218-1.484,0.654s-0.583,1.028-0.576,1.777
				L161.275,15.435L161.275,15.435z"/>
			<path fill="#6BACA1" d="M169.087,21.509l-4.18-10.371h2.881l1.953,5.293l0.566,1.768c0.15-0.449,0.244-0.745,0.283-0.889
				c0.091-0.293,0.189-0.586,0.293-0.879l1.973-5.293h2.822l-4.121,10.371H169.087z"/>
			<path fill="#6BACA1" d="M183.365,18.208l2.734,0.459c-0.352,1.003-0.907,1.766-1.665,2.29c-0.758,0.524-1.708,0.786-2.847,0.786
				c-1.803,0-3.138-0.589-4.004-1.768c-0.684-0.944-1.025-2.136-1.025-3.574c0-1.719,0.449-3.064,1.348-4.038s2.035-1.46,3.408-1.46
				c1.543,0,2.76,0.51,3.652,1.528s1.318,2.58,1.279,4.683h-6.875c0.02,0.813,0.241,1.447,0.664,1.899s0.951,0.679,1.582,0.679
				c0.43,0,0.791-0.117,1.084-0.352C182.993,19.105,183.215,18.729,183.365,18.208z M183.521,15.435
				c-0.02-0.794-0.225-1.398-0.615-1.812c-0.39-0.414-0.866-0.62-1.426-0.62c-0.599,0-1.094,0.218-1.484,0.654
				s-0.583,1.028-0.576,1.777L183.521,15.435L183.521,15.435z"/>
			<path fill="#6BACA1" d="M197.916,21.509h-2.744v-5.293c0-1.12-0.059-1.844-0.176-2.173s-0.308-0.584-0.571-0.767
				c-0.263-0.183-0.581-0.273-0.952-0.273c-0.475,0-0.902,0.13-1.279,0.391s-0.636,0.605-0.776,1.035s-0.21,1.224-0.21,2.383v4.697
				h-2.744V11.138h2.549v1.523c0.905-1.172,2.044-1.758,3.418-1.758c0.605,0,1.159,0.109,1.66,0.327s0.88,0.496,1.138,0.835
				s0.436,0.723,0.537,1.152c0.101,0.429,0.151,1.045,0.151,1.846L197.916,21.509L197.916,21.509z"/>
			<path fill="#6BACA1" d="M205.455,11.138v2.188h-1.875v4.18c0,0.847,0.018,1.34,0.054,1.479c0.036,0.139,0.117,0.256,0.244,0.347
				s0.282,0.137,0.464,0.137c0.254,0,0.622-0.088,1.104-0.264l0.234,2.129c-0.638,0.273-1.361,0.41-2.168,0.41
				c-0.495,0-0.941-0.083-1.338-0.249s-0.688-0.381-0.874-0.645c-0.186-0.264-0.314-0.62-0.386-1.069
				c-0.059-0.319-0.088-0.964-0.088-1.934v-4.521h-1.26v-2.188h1.26V9.077l2.754-1.602v3.662L205.455,11.138L205.455,11.138z"/>
			<path fill="#6BACA1" d="M206.393,18.55l2.754-0.42c0.117,0.534,0.355,0.939,0.713,1.216s0.859,0.415,1.504,0.415
				c0.709,0,1.244-0.13,1.602-0.391c0.241-0.183,0.361-0.427,0.361-0.732c0-0.208-0.064-0.381-0.195-0.518
				c-0.137-0.13-0.443-0.251-0.918-0.361c-2.213-0.488-3.617-0.935-4.209-1.338c-0.82-0.56-1.23-1.338-1.23-2.334
				c0-0.898,0.355-1.653,1.064-2.266c0.709-0.613,1.81-0.918,3.301-0.918c1.419,0,2.474,0.231,3.164,0.693s1.166,1.146,1.426,2.051
				l-2.588,0.479c-0.111-0.403-0.321-0.713-0.63-0.928s-0.75-0.322-1.323-0.322c-0.723,0-1.24,0.101-1.553,0.303
				c-0.208,0.144-0.312,0.329-0.312,0.557c0,0.195,0.091,0.361,0.273,0.498c0.248,0.183,1.102,0.439,2.563,0.771
				s2.482,0.739,3.062,1.221c0.573,0.488,0.859,1.169,0.859,2.041c0,0.95-0.397,1.768-1.191,2.451
				c-0.794,0.683-1.969,1.025-3.525,1.025c-1.413,0-2.531-0.286-3.354-0.859C207.187,20.311,206.646,19.534,206.393,18.55z"/>
			<path fill="#6BACA1" d="M223.072,18.55l2.754-0.42c0.117,0.534,0.355,0.939,0.713,1.216s0.859,0.415,1.504,0.415
				c0.709,0,1.244-0.13,1.602-0.391c0.241-0.183,0.361-0.427,0.361-0.732c0-0.208-0.065-0.381-0.195-0.518
				c-0.137-0.13-0.443-0.251-0.918-0.361c-2.213-0.488-3.617-0.935-4.209-1.338c-0.82-0.56-1.23-1.338-1.23-2.334
				c0-0.898,0.355-1.653,1.064-2.266c0.709-0.613,1.81-0.918,3.301-0.918c1.419,0,2.474,0.231,3.164,0.693s1.166,1.146,1.426,2.051
				l-2.588,0.479c-0.111-0.403-0.321-0.713-0.63-0.928s-0.75-0.322-1.323-0.322c-0.723,0-1.24,0.101-1.553,0.303
				c-0.208,0.144-0.312,0.329-0.312,0.557c0,0.195,0.091,0.361,0.273,0.498c0.248,0.183,1.102,0.439,2.563,0.771
				s2.482,0.739,3.062,1.221c0.573,0.488,0.859,1.169,0.859,2.041c0,0.95-0.397,1.768-1.191,2.451
				c-0.794,0.683-1.969,1.025-3.525,1.025c-1.413,0-2.531-0.286-3.354-0.859C223.867,20.311,223.326,19.534,223.072,18.55z"/>
			<path fill="#6BACA1" d="M241.169,18.208l2.734,0.459c-0.352,1.003-0.907,1.766-1.665,2.29c-0.758,0.524-1.708,0.786-2.847,0.786
				c-1.803,0-3.138-0.589-4.004-1.768c-0.684-0.944-1.025-2.136-1.025-3.574c0-1.719,0.449-3.064,1.348-4.038s2.035-1.46,3.408-1.46
				c1.543,0,2.76,0.51,3.652,1.528s1.318,2.58,1.279,4.683h-6.875c0.02,0.813,0.241,1.447,0.664,1.899s0.951,0.679,1.582,0.679
				c0.43,0,0.791-0.117,1.084-0.352C240.796,19.105,241.018,18.729,241.169,18.208z M241.324,15.435
				c-0.02-0.794-0.225-1.398-0.615-1.812s-0.866-0.62-1.426-0.62c-0.599,0-1.094,0.218-1.484,0.654s-0.583,1.028-0.576,1.777
				L241.324,15.435L241.324,15.435z"/>
			<path fill="#6BACA1" d="M252.291,18.208l2.734,0.459c-0.352,1.003-0.907,1.766-1.665,2.29s-1.708,0.786-2.847,0.786
				c-1.803,0-3.138-0.589-4.004-1.768c-0.684-0.944-1.025-2.136-1.025-3.574c0-1.719,0.449-3.064,1.348-4.038s2.035-1.46,3.408-1.46
				c1.543,0,2.76,0.51,3.652,1.528s1.318,2.58,1.279,4.683h-6.875c0.02,0.813,0.241,1.447,0.664,1.899s0.951,0.679,1.582,0.679
				c0.43,0,0.791-0.117,1.084-0.352C251.919,19.105,252.141,18.729,252.291,18.208z M252.447,15.435
				c-0.02-0.794-0.225-1.398-0.615-1.812s-0.866-0.62-1.426-0.62c-0.599,0-1.094,0.218-1.484,0.654s-0.583,1.028-0.576,1.777
				L252.447,15.435L252.447,15.435z"/>
			<path fill="#6BACA1" d="M266.841,21.509h-2.744v-5.293c0-1.12-0.059-1.844-0.176-2.173s-0.308-0.584-0.571-0.767
				c-0.263-0.183-0.581-0.273-0.952-0.273c-0.475,0-0.902,0.13-1.279,0.391c-0.377,0.261-0.636,0.605-0.776,1.035
				s-0.21,1.224-0.21,2.383v4.697h-2.744V11.138h2.549v1.523c0.905-1.172,2.044-1.758,3.418-1.758c0.605,0,1.159,0.109,1.66,0.327
				c0.501,0.218,0.88,0.496,1.138,0.835s0.436,0.723,0.537,1.152c0.101,0.429,0.151,1.045,0.151,1.846L266.841,21.509
				L266.841,21.509z"/>
			<path fill="#6BACA1" d="M275.182,9.732V7.193h2.744v2.539H275.182z M275.182,21.509V11.138h2.744v10.371H275.182z"/>
			<path fill="#6BACA1" d="M290.172,21.509h-2.744v-5.293c0-1.12-0.059-1.844-0.176-2.173s-0.308-0.584-0.571-0.767
				c-0.263-0.183-0.581-0.273-0.952-0.273c-0.475,0-0.902,0.13-1.279,0.391c-0.377,0.261-0.636,0.605-0.776,1.035
				s-0.21,1.224-0.21,2.383v4.697h-2.744V11.138h2.549v1.523c0.905-1.172,2.044-1.758,3.418-1.758c0.605,0,1.159,0.109,1.66,0.327
				c0.501,0.218,0.88,0.496,1.138,0.835s0.436,0.723,0.537,1.152c0.101,0.429,0.151,1.045,0.151,1.846L290.172,21.509
				L290.172,21.509z"/>
			<path fill="#6BACA1" d="M307.555,14.205l-2.705,0.488c-0.091-0.54-0.298-0.947-0.62-1.221c-0.322-0.274-0.741-0.41-1.255-0.41
				c-0.685,0-1.229,0.236-1.636,0.708s-0.61,1.262-0.61,2.368c0,1.23,0.207,2.1,0.62,2.607c0.413,0.507,0.968,0.762,1.665,0.762
				c0.521,0,0.946-0.148,1.278-0.444c0.332-0.296,0.566-0.806,0.703-1.528l2.695,0.459c-0.28,1.237-0.816,2.171-1.611,2.803
				c-0.794,0.632-1.858,0.947-3.192,0.947c-1.517,0-2.726-0.479-3.628-1.436c-0.902-0.957-1.354-2.282-1.354-3.975
				c0-1.712,0.453-3.045,1.357-3.999c0.904-0.954,2.129-1.431,3.672-1.431c1.263,0,2.267,0.271,3.013,0.815
				C306.693,12.262,307.229,13.091,307.555,14.205z"/>
			<path fill="#6BACA1" d="M309.635,21.509V7.193h2.743v14.316H309.635z"/>
			<path fill="#6BACA1" d="M315.191,9.732V7.193h2.744v2.539H315.191z M315.191,21.509V11.138h2.744v10.371H315.191z"/>
			<path fill="#6BACA1" d="M330.182,21.509h-2.744v-5.293c0-1.12-0.059-1.844-0.176-2.173s-0.309-0.584-0.571-0.767
				c-0.263-0.183-0.581-0.273-0.952-0.273c-0.475,0-0.901,0.13-1.278,0.391s-0.637,0.605-0.776,1.035
				c-0.14,0.43-0.21,1.224-0.21,2.383v4.697h-2.744V11.138h2.549v1.523c0.905-1.172,2.044-1.758,3.418-1.758
				c0.605,0,1.159,0.109,1.66,0.327c0.501,0.218,0.88,0.496,1.138,0.835c0.259,0.339,0.437,0.723,0.537,1.152
				c0.102,0.429,0.151,1.045,0.151,1.846L330.182,21.509L330.182,21.509z"/>
			<path fill="#6BACA1" d="M332.964,9.732V7.193h2.743v2.539H332.964z M332.964,21.509V11.138h2.743v10.371H332.964z"/>
			<path fill="#6BACA1" d="M347.565,14.205l-2.705,0.488c-0.091-0.54-0.298-0.947-0.62-1.221c-0.322-0.274-0.741-0.41-1.255-0.41
				c-0.684,0-1.229,0.236-1.636,0.708s-0.61,1.262-0.61,2.368c0,1.23,0.207,2.1,0.62,2.607c0.413,0.507,0.968,0.762,1.665,0.762
				c0.521,0,0.947-0.148,1.279-0.444c0.332-0.296,0.565-0.806,0.703-1.528l2.694,0.459c-0.279,1.237-0.816,2.171-1.61,2.803
				c-0.794,0.632-1.859,0.947-3.193,0.947c-1.517,0-2.726-0.479-3.628-1.436s-1.354-2.282-1.354-3.975
				c0-1.712,0.453-3.045,1.357-3.999s2.129-1.431,3.672-1.431c1.264,0,2.268,0.271,3.014,0.815
				C346.703,12.262,347.238,13.091,347.565,14.205z"/>
			<path fill="#6BACA1" d="M351.695,14.302l-2.49-0.449c0.28-1.003,0.763-1.745,1.445-2.227s1.699-0.723,3.047-0.723
				c1.225,0,2.135,0.145,2.734,0.435s1.021,0.657,1.265,1.104c0.244,0.447,0.366,1.265,0.366,2.456l-0.029,3.203
				c0,0.911,0.044,1.584,0.132,2.017c0.088,0.433,0.252,0.896,0.493,1.392h-2.715c-0.072-0.183-0.16-0.452-0.264-0.811
				c-0.045-0.163-0.078-0.271-0.099-0.322c-0.469,0.456-0.97,0.798-1.504,1.025c-0.533,0.227-1.104,0.342-1.709,0.342
				c-1.067,0-1.908-0.29-2.523-0.869c-0.615-0.579-0.923-1.312-0.923-2.197c0-0.586,0.14-1.108,0.42-1.567
				c0.279-0.459,0.672-0.811,1.177-1.055s1.232-0.457,2.183-0.64c1.283-0.241,2.171-0.466,2.666-0.674v-0.273
				c0-0.527-0.13-0.903-0.391-1.128c-0.261-0.225-0.752-0.337-1.476-0.337c-0.487,0-0.868,0.096-1.143,0.288
				C352.086,13.484,351.865,13.821,351.695,14.302z M355.367,16.529c-0.352,0.117-0.907,0.257-1.67,0.42
				c-0.762,0.163-1.26,0.322-1.494,0.479c-0.357,0.254-0.537,0.576-0.537,0.967c0,0.384,0.144,0.716,0.431,0.996
				s0.65,0.42,1.094,0.42c0.495,0,0.967-0.163,1.416-0.488c0.332-0.247,0.55-0.55,0.654-0.908c0.071-0.234,0.106-0.681,0.106-1.338
				L355.367,16.529L355.367,16.529z"/>
			<path fill="#6BACA1" d="M360.768,21.509V7.193h2.744v14.316H360.768z"/>
			<path fill="#6BACA1" d="M370.914,18.55l2.755-0.42c0.116,0.534,0.354,0.939,0.713,1.216c0.357,0.277,0.858,0.415,1.504,0.415
				c0.709,0,1.244-0.13,1.602-0.391c0.241-0.183,0.361-0.427,0.361-0.732c0-0.208-0.065-0.381-0.195-0.518
				c-0.137-0.13-0.443-0.251-0.918-0.361c-2.213-0.488-3.617-0.935-4.209-1.338c-0.82-0.56-1.23-1.338-1.23-2.334
				c0-0.898,0.355-1.653,1.064-2.266c0.709-0.613,1.811-0.918,3.301-0.918c1.419,0,2.475,0.231,3.164,0.693
				c0.69,0.462,1.166,1.146,1.426,2.051l-2.588,0.479c-0.11-0.403-0.32-0.713-0.63-0.928c-0.309-0.215-0.75-0.322-1.323-0.322
				c-0.723,0-1.239,0.101-1.553,0.303c-0.208,0.144-0.312,0.329-0.312,0.557c0,0.195,0.091,0.361,0.272,0.498
				c0.248,0.183,1.103,0.439,2.563,0.771c1.46,0.332,2.481,0.739,3.062,1.221c0.573,0.488,0.859,1.169,0.859,2.041
				c0,0.95-0.397,1.768-1.191,2.451c-0.794,0.683-1.969,1.025-3.524,1.025c-1.413,0-2.531-0.286-3.354-0.859
				C371.709,20.311,371.169,19.534,370.914,18.55z"/>
			<path fill="#6BACA1" d="M387.76,11.138v2.188h-1.875v4.18c0,0.847,0.018,1.34,0.054,1.479c0.036,0.139,0.117,0.256,0.244,0.347
				c0.127,0.091,0.282,0.137,0.464,0.137c0.254,0,0.622-0.088,1.104-0.264l0.234,2.129c-0.638,0.273-1.361,0.41-2.168,0.41
				c-0.495,0-0.941-0.083-1.338-0.249c-0.397-0.166-0.688-0.381-0.874-0.645c-0.186-0.264-0.314-0.62-0.386-1.069
				c-0.06-0.319-0.088-0.964-0.088-1.934v-4.521h-1.261v-2.188h1.261V9.077l2.754-1.602v3.662L387.76,11.138L387.76,11.138z"/>
			<path fill="#6BACA1" d="M396.49,21.509v-1.553c-0.377,0.554-0.874,0.989-1.489,1.309c-0.614,0.32-1.265,0.479-1.947,0.479
				c-0.697,0-1.322-0.153-1.875-0.459c-0.554-0.306-0.954-0.735-1.201-1.289c-0.247-0.554-0.371-1.318-0.371-2.295v-6.562h2.744
				v4.766c0,1.458,0.05,2.352,0.15,2.681c0.102,0.329,0.285,0.589,0.553,0.781c0.267,0.192,0.604,0.288,1.016,0.288
				c0.469,0,0.889-0.129,1.26-0.386c0.371-0.257,0.625-0.576,0.763-0.957c0.137-0.381,0.204-1.313,0.204-2.798v-4.375h2.744V21.51
				L396.49,21.509L396.49,21.509z"/>
			<path fill="#6BACA1" d="M411.393,21.509h-2.549v-1.523c-0.423,0.593-0.923,1.033-1.499,1.323s-1.157,0.435-1.743,0.435
				c-1.191,0-2.212-0.48-3.062-1.44c-0.85-0.96-1.273-2.3-1.273-4.019c0-1.758,0.414-3.094,1.24-4.009
				c0.825-0.915,1.872-1.372,3.135-1.372c1.159,0,2.162,0.481,3.008,1.445V7.193h2.744L411.393,21.509L411.393,21.509z
				 M404.068,16.099c0,1.106,0.153,1.907,0.459,2.402c0.443,0.716,1.062,1.074,1.855,1.074c0.631,0,1.168-0.269,1.61-0.806
				c0.443-0.537,0.664-1.34,0.664-2.407c0-1.191-0.215-2.049-0.645-2.573s-0.98-0.786-1.65-0.786c-0.65,0-1.195,0.259-1.636,0.776
				C404.286,14.296,404.068,15.071,404.068,16.099z"/>
			<path fill="#6BACA1" d="M412.798,11.138h2.92l2.479,7.363l2.422-7.363h2.842l-3.661,9.98l-0.654,1.807
				c-0.241,0.605-0.47,1.067-0.688,1.387s-0.469,0.578-0.752,0.776c-0.282,0.198-0.631,0.354-1.045,0.464s-0.88,0.166-1.4,0.166
				c-0.527,0-1.045-0.056-1.554-0.166l-0.243-2.148c0.43,0.085,0.816,0.127,1.161,0.127c0.639,0,1.11-0.188,1.416-0.562
				c0.307-0.374,0.541-0.852,0.703-1.431L412.798,11.138z"/>
		</g>
		<g enable-background="new    ">
			<path fill="#6BACA1" d="M428.375,14.849h-1.6V8.82c-0.585,0.547-1.273,0.951-2.067,1.213V8.581
				c0.419-0.137,0.871-0.396,1.361-0.776c0.489-0.382,0.825-0.827,1.008-1.336h1.298V14.849z"/>
		</g>
	</g>
	<g>
		<g enable-background="new    ">
			<path fill="#4D4D4F" d="M619.083,17.105c0-0.909,0.136-1.672,0.407-2.288c0.202-0.454,0.479-0.861,0.831-1.223
				c0.35-0.361,0.734-0.629,1.152-0.804c0.556-0.234,1.195-0.353,1.922-0.353c1.313,0,2.366,0.408,3.154,1.223
				c0.789,0.815,1.184,1.949,1.184,3.401c0,1.439-0.391,2.566-1.174,3.38c-0.783,0.812-1.829,1.22-3.139,1.22
				c-1.326,0-2.382-0.405-3.164-1.214C619.474,19.638,619.083,18.524,619.083,17.105z M620.938,17.043
				c0,1.01,0.232,1.775,0.699,2.297s1.059,0.782,1.775,0.782s1.309-0.259,1.769-0.776s0.689-1.293,0.689-2.327
				c0-1.021-0.225-1.784-0.672-2.287c-0.449-0.503-1.044-0.755-1.786-0.755s-1.341,0.255-1.794,0.764
				C621.166,15.249,620.938,16.017,620.938,17.043z"/>
			<path fill="#4D4D4F" d="M629.08,15.048h1.595v0.949c0.207-0.325,0.485-0.588,0.84-0.791c0.353-0.203,0.744-0.305,1.174-0.305
				c0.75,0,1.387,0.294,1.91,0.883c0.522,0.588,0.785,1.407,0.785,2.458c0,1.078-0.265,1.917-0.791,2.516
				c-0.527,0.598-1.166,0.897-1.916,0.897c-0.357,0-0.683-0.071-0.972-0.214c-0.291-0.142-0.596-0.385-0.916-0.729v3.255h-1.709
				L629.08,15.048L629.08,15.048z M630.771,18.169c0,0.726,0.144,1.262,0.432,1.609c0.287,0.347,0.64,0.52,1.054,0.52
				c0.396,0,0.728-0.159,0.99-0.478c0.264-0.319,0.396-0.841,0.396-1.566c0-0.678-0.137-1.181-0.408-1.509s-0.606-0.493-1.01-0.493
				c-0.418,0-0.765,0.161-1.04,0.484C630.908,17.059,630.771,17.537,630.771,18.169z"/>
			<path fill="#4D4D4F" d="M639.701,15.048v1.362h-1.169v2.604c0,0.527,0.012,0.834,0.034,0.922
				c0.022,0.087,0.073,0.159,0.151,0.216c0.08,0.057,0.176,0.085,0.289,0.085c0.157,0,0.388-0.055,0.688-0.164l0.146,1.326
				c-0.397,0.17-0.849,0.256-1.352,0.256c-0.308,0-0.586-0.052-0.833-0.155c-0.248-0.104-0.43-0.237-0.545-0.402
				c-0.115-0.164-0.195-0.386-0.24-0.666c-0.037-0.198-0.055-0.6-0.055-1.204v-2.817h-0.785v-1.362h0.785v-1.284l1.715-0.997v2.281
				h1.17L639.701,15.048L639.701,15.048z"/>
			<path fill="#4D4D4F" d="M640.888,14.172V12.59h1.709v1.582H640.888z M640.888,21.509v-6.461h1.709v6.461H640.888z"/>
			<path fill="#4D4D4F" d="M643.747,19.665l1.716-0.262c0.072,0.333,0.221,0.586,0.443,0.758c0.225,0.173,0.536,0.259,0.938,0.259
				c0.441,0,0.774-0.081,0.998-0.243c0.149-0.114,0.226-0.266,0.226-0.457c0-0.129-0.041-0.237-0.122-0.322
				c-0.085-0.081-0.274-0.156-0.572-0.225c-1.379-0.305-2.252-0.582-2.62-0.834c-0.513-0.349-0.769-0.833-0.769-1.454
				c0-0.56,0.222-1.03,0.664-1.411c0.441-0.381,1.127-0.572,2.057-0.572c0.884,0,1.541,0.145,1.972,0.433
				c0.43,0.288,0.726,0.714,0.889,1.277l-1.613,0.298c-0.067-0.251-0.198-0.444-0.393-0.578c-0.191-0.134-0.467-0.2-0.824-0.2
				c-0.449,0-0.771,0.062-0.967,0.188c-0.13,0.089-0.195,0.205-0.195,0.347c0,0.122,0.058,0.225,0.171,0.311
				c0.154,0.113,0.688,0.273,1.598,0.48c0.909,0.207,1.547,0.46,1.907,0.761c0.356,0.304,0.535,0.728,0.535,1.271
				c0,0.592-0.248,1.101-0.742,1.526c-0.494,0.426-1.228,0.64-2.196,0.64c-0.879,0-1.576-0.179-2.09-0.536
				C644.24,20.763,643.906,20.279,643.747,19.665z"/>
			<path fill="#4D4D4F" d="M654.242,15.048v1.362h-1.168v2.604c0,0.527,0.012,0.834,0.033,0.922
				c0.021,0.087,0.073,0.159,0.152,0.216c0.078,0.057,0.176,0.085,0.289,0.085c0.157,0,0.387-0.055,0.688-0.164l0.146,1.326
				c-0.398,0.17-0.849,0.256-1.353,0.256c-0.308,0-0.586-0.052-0.833-0.155s-0.429-0.237-0.544-0.402
				c-0.116-0.164-0.196-0.386-0.24-0.666c-0.037-0.198-0.055-0.6-0.055-1.204v-2.817h-0.785v-1.362h0.785v-1.284l1.715-0.997v2.281
				h1.169v-0.001H654.242z"/>
			<path fill="#4D4D4F" d="M656.706,17.019l-1.552-0.279c0.175-0.625,0.476-1.087,0.9-1.388c0.426-0.3,1.059-0.45,1.896-0.45
				c0.765,0,1.331,0.091,1.704,0.271s0.636,0.409,0.788,0.687c0.152,0.278,0.229,0.788,0.229,1.53l-0.02,1.996
				c0,0.567,0.027,0.986,0.082,1.256s0.157,0.559,0.308,0.867h-1.69c-0.045-0.113-0.1-0.282-0.164-0.505
				c-0.029-0.102-0.049-0.168-0.062-0.201c-0.292,0.284-0.604,0.497-0.937,0.639c-0.333,0.143-0.688,0.214-1.064,0.214
				c-0.666,0-1.188-0.181-1.572-0.542c-0.385-0.361-0.575-0.817-0.575-1.369c0-0.364,0.088-0.69,0.262-0.977
				c0.174-0.285,0.419-0.505,0.733-0.656c0.312-0.152,0.768-0.285,1.359-0.398c0.8-0.15,1.353-0.29,1.66-0.42v-0.171
				c0-0.328-0.081-0.562-0.243-0.702c-0.163-0.141-0.469-0.21-0.919-0.21c-0.305,0-0.541,0.06-0.712,0.179
				C656.95,16.509,656.812,16.719,656.706,17.019z M658.994,18.407c-0.219,0.072-0.565,0.16-1.041,0.262
				c-0.474,0.101-0.783,0.2-0.93,0.298c-0.224,0.158-0.335,0.358-0.335,0.603c0,0.239,0.089,0.446,0.268,0.62
				c0.18,0.175,0.405,0.262,0.683,0.262c0.308,0,0.603-0.102,0.882-0.305c0.207-0.153,0.343-0.342,0.408-0.565
				c0.044-0.146,0.065-0.424,0.065-0.833V18.407z"/>
			<path fill="#4D4D4F" d="M664.133,21.509l-2.604-6.461h1.795l1.217,3.297l0.353,1.102c0.094-0.28,0.151-0.464,0.178-0.554
				c0.057-0.183,0.117-0.365,0.182-0.548l1.229-3.297h1.759l-2.566,6.461H664.133z"/>
			<path fill="#4D4D4F" d="M669.288,14.172V12.59h1.71v1.582H669.288z M669.288,21.509v-6.461h1.71v6.461H669.288z"/>
			<path fill="#4D4D4F" d="M678.627,21.509h-1.709v-3.298c0-0.697-0.036-1.148-0.109-1.354c-0.073-0.204-0.191-0.364-0.356-0.478
				c-0.164-0.113-0.36-0.17-0.592-0.17c-0.297,0-0.562,0.081-0.798,0.243s-0.396,0.377-0.483,0.645
				c-0.088,0.268-0.131,0.763-0.131,1.484v2.927h-1.709v-6.461h1.588v0.949c0.562-0.73,1.273-1.096,2.13-1.096
				c0.377,0,0.722,0.068,1.033,0.204c0.312,0.136,0.549,0.31,0.708,0.521c0.16,0.211,0.272,0.45,0.336,0.718
				c0.062,0.268,0.095,0.65,0.095,1.149v4.017L678.627,21.509L678.627,21.509z"/>
		</g>
		<g enable-background="new    ">
			<path fill="#4D4D4F" d="M685.843,24.131c-0.605-0.763-1.115-1.654-1.533-2.677s-0.627-2.081-0.627-3.176
				c0-0.966,0.156-1.89,0.469-2.774c0.365-1.026,0.929-2.048,1.691-3.066h0.784c-0.491,0.844-0.815,1.446-0.975,1.807
				c-0.247,0.561-0.44,1.145-0.584,1.753c-0.174,0.758-0.262,1.521-0.262,2.287c0,1.951,0.606,3.9,1.819,5.847h-0.783v-0.001
				H685.843z"/>
			<path fill="#4D4D4F" d="M687.9,21.509v-6.461h0.985v0.919c0.474-0.71,1.159-1.065,2.056-1.065c0.39,0,0.748,0.07,1.074,0.21
				c0.326,0.14,0.57,0.323,0.732,0.551s0.275,0.497,0.342,0.81c0.039,0.202,0.061,0.558,0.061,1.064v3.973h-1.096v-3.931
				c0-0.445-0.042-0.779-0.127-1c-0.086-0.222-0.236-0.397-0.453-0.529s-0.473-0.198-0.765-0.198c-0.467,0-0.868,0.148-1.208,0.444
				c-0.339,0.296-0.508,0.857-0.508,1.686v3.528L687.9,21.509L687.9,21.509z"/>
			<path fill="#4D4D4F" d="M700.589,16.265h-5.891v-1.022h5.891V16.265z M700.589,18.972h-5.891V17.95h5.891V18.972z"/>
			<path fill="#4D4D4F" d="M701.807,19.155l1.095-0.146c0.126,0.621,0.34,1.068,0.643,1.342s0.671,0.411,1.104,0.411
				c0.516,0,0.95-0.179,1.305-0.536c0.355-0.356,0.533-0.799,0.533-1.326c0-0.503-0.164-0.917-0.493-1.244
				c-0.329-0.326-0.747-0.489-1.253-0.489c-0.207,0-0.465,0.04-0.772,0.121l0.122-0.961c0.072,0.008,0.132,0.013,0.177,0.013
				c0.466,0,0.886-0.122,1.26-0.365c0.373-0.243,0.56-0.619,0.56-1.126c0-0.401-0.137-0.733-0.407-0.998
				c-0.272-0.263-0.622-0.395-1.053-0.395c-0.427,0-0.78,0.134-1.064,0.401s-0.466,0.669-0.548,1.204l-1.095-0.194
				c0.134-0.734,0.438-1.303,0.913-1.707c0.475-0.403,1.063-0.604,1.77-0.604c0.486,0,0.937,0.104,1.345,0.312
				c0.409,0.208,0.725,0.494,0.94,0.855c0.217,0.36,0.325,0.744,0.325,1.149c0,0.386-0.104,0.736-0.312,1.053
				c-0.206,0.316-0.513,0.567-0.919,0.754c0.527,0.122,0.938,0.375,1.229,0.758c0.292,0.384,0.438,0.863,0.438,1.438
				c0,0.779-0.284,1.439-0.852,1.98c-0.568,0.542-1.287,0.812-2.154,0.812c-0.783,0-1.433-0.233-1.95-0.699
				C702.174,20.501,701.88,19.897,701.807,19.155z"/>
			<path fill="#4D4D4F" d="M708.737,19.155l1.095-0.146c0.126,0.621,0.341,1.068,0.644,1.342c0.302,0.274,0.67,0.411,1.104,0.411
				c0.517,0,0.95-0.179,1.306-0.536c0.354-0.356,0.532-0.799,0.532-1.326c0-0.503-0.163-0.917-0.492-1.244
				c-0.329-0.326-0.747-0.489-1.253-0.489c-0.207,0-0.466,0.04-0.773,0.121l0.122-0.961c0.073,0.008,0.132,0.013,0.177,0.013
				c0.466,0,0.886-0.122,1.26-0.365c0.373-0.243,0.56-0.619,0.56-1.126c0-0.401-0.136-0.733-0.407-0.998
				c-0.271-0.263-0.622-0.395-1.053-0.395c-0.426,0-0.78,0.134-1.064,0.401c-0.283,0.267-0.466,0.669-0.548,1.204l-1.095-0.194
				c0.134-0.734,0.438-1.303,0.913-1.707c0.475-0.403,1.063-0.604,1.77-0.604c0.486,0,0.937,0.104,1.346,0.312
				c0.408,0.208,0.724,0.494,0.939,0.855c0.217,0.36,0.325,0.744,0.325,1.149c0,0.386-0.104,0.736-0.311,1.053
				c-0.206,0.316-0.514,0.567-0.92,0.754c0.527,0.122,0.938,0.375,1.229,0.758c0.292,0.384,0.438,0.863,0.438,1.438
				c0,0.779-0.284,1.439-0.853,1.98c-0.568,0.542-1.287,0.812-2.154,0.812c-0.782,0-1.433-0.233-1.949-0.699
				C709.104,20.501,708.81,19.897,708.737,19.155z"/>
			<path fill="#4D4D4F" d="M721.416,20.456v1.053h-5.895c-0.009-0.264,0.033-0.518,0.127-0.761c0.15-0.401,0.391-0.797,0.721-1.187
				c0.331-0.389,0.81-0.839,1.435-1.351c0.969-0.795,1.624-1.424,1.965-1.889c0.34-0.465,0.511-0.903,0.511-1.317
				c0-0.434-0.154-0.8-0.466-1.098c-0.31-0.299-0.715-0.447-1.213-0.447c-0.527,0-0.949,0.158-1.267,0.475
				c-0.316,0.317-0.477,0.754-0.479,1.313l-1.126-0.115c0.077-0.84,0.367-1.479,0.87-1.92c0.503-0.439,1.178-0.659,2.024-0.659
				c0.856,0,1.533,0.236,2.033,0.711c0.498,0.475,0.748,1.063,0.748,1.765c0,0.357-0.072,0.708-0.219,1.053
				c-0.146,0.345-0.389,0.708-0.729,1.089c-0.339,0.381-0.9,0.904-1.688,1.569c-0.657,0.552-1.079,0.926-1.266,1.123
				c-0.188,0.196-0.34,0.395-0.463,0.593H721.416z"/>
			<path fill="#4D4D4F" d="M723.612,24.131h-0.784c1.213-1.946,1.818-3.896,1.818-5.847c0-0.763-0.087-1.519-0.262-2.27
				c-0.139-0.608-0.33-1.192-0.578-1.752c-0.158-0.365-0.484-0.974-0.979-1.825h0.784c0.763,1.019,1.327,2.04,1.691,3.066
				c0.312,0.885,0.469,1.809,0.469,2.774c0,1.095-0.21,2.153-0.63,3.176S724.211,23.369,723.612,24.131z"/>
		</g>
	</g>
	<g>
		<g enable-background="new    ">
			<path fill="#4D4D4F" d="M785.068,18.23l1.746,0.554c-0.268,0.974-0.713,1.696-1.336,2.169c-0.622,0.473-1.412,0.709-2.369,0.709
				c-1.186,0-2.158-0.405-2.92-1.214c-0.764-0.81-1.145-1.915-1.145-3.319c0-1.484,0.384-2.637,1.149-3.458
				c0.767-0.821,1.774-1.232,3.023-1.232c1.092,0,1.978,0.322,2.657,0.968c0.406,0.381,0.711,0.929,0.913,1.643l-1.78,0.426
				c-0.105-0.463-0.326-0.827-0.66-1.096c-0.335-0.268-0.742-0.401-1.222-0.401c-0.659,0-1.196,0.237-1.607,0.712
				c-0.412,0.475-0.618,1.243-0.618,2.306c0,1.128,0.203,1.931,0.609,2.409c0.403,0.479,0.932,0.719,1.581,0.719
				c0.479,0,0.891-0.152,1.234-0.457C784.669,19.362,784.917,18.883,785.068,18.23z"/>
			<path fill="#4D4D4F" d="M787.951,18.187c0-0.567,0.141-1.117,0.419-1.648c0.281-0.531,0.678-0.937,1.189-1.217
				c0.514-0.279,1.086-0.42,1.719-0.42c0.979,0,1.779,0.317,2.404,0.952c0.624,0.635,0.937,1.438,0.937,2.406
				c0,0.978-0.314,1.788-0.945,2.431c-0.632,0.643-1.425,0.965-2.382,0.965c-0.594,0-1.157-0.135-1.694-0.402
				s-0.945-0.66-1.228-1.177C788.091,19.559,787.951,18.93,787.951,18.187z M789.703,18.279c0,0.641,0.152,1.132,0.456,1.473
				c0.305,0.34,0.68,0.511,1.126,0.511s0.82-0.171,1.122-0.511c0.303-0.341,0.453-0.836,0.453-1.485c0-0.632-0.15-1.119-0.453-1.46
				c-0.302-0.341-0.676-0.511-1.122-0.511s-0.821,0.17-1.126,0.511C789.856,17.147,789.703,17.638,789.703,18.279z"/>
			<path fill="#4D4D4F" d="M801.836,21.509h-1.709v-3.298c0-0.697-0.036-1.148-0.109-1.354c-0.073-0.204-0.191-0.364-0.356-0.478
				c-0.164-0.113-0.36-0.17-0.592-0.17c-0.297,0-0.562,0.081-0.798,0.243s-0.396,0.377-0.482,0.645
				c-0.089,0.268-0.132,0.763-0.132,1.484v2.927h-1.709v-6.461h1.589v0.949c0.562-0.73,1.272-1.096,2.129-1.096
				c0.377,0,0.722,0.068,1.033,0.204c0.312,0.136,0.549,0.31,0.708,0.521c0.16,0.211,0.272,0.45,0.337,0.718
				c0.062,0.268,0.094,0.65,0.094,1.149v4.017L801.836,21.509L801.836,21.509z"/>
			<path fill="#4D4D4F" d="M806.533,15.048v1.362h-1.169v2.604c0,0.527,0.011,0.834,0.034,0.922
				c0.021,0.087,0.072,0.159,0.151,0.216s0.175,0.085,0.288,0.085c0.158,0,0.389-0.055,0.688-0.164l0.146,1.326
				c-0.396,0.17-0.848,0.256-1.35,0.256c-0.309,0-0.586-0.052-0.834-0.155s-0.429-0.237-0.545-0.402
				c-0.115-0.164-0.195-0.386-0.24-0.666c-0.035-0.198-0.055-0.6-0.055-1.204v-2.817h-0.785v-1.362h0.785v-1.284l1.716-0.997v2.281
				h1.169L806.533,15.048L806.533,15.048z"/>
			<path fill="#4D4D4F" d="M809.354,21.509h-1.71v-6.461h1.588v0.919c0.272-0.435,0.517-0.721,0.733-0.858
				c0.216-0.137,0.463-0.207,0.737-0.207c0.392,0,0.767,0.107,1.126,0.322l-0.529,1.491c-0.287-0.187-0.556-0.28-0.803-0.28
				c-0.238,0-0.441,0.066-0.607,0.198s-0.297,0.37-0.394,0.715c-0.096,0.345-0.143,1.066-0.143,2.166L809.354,21.509L809.354,21.509
				z"/>
			<path fill="#4D4D4F" d="M812.171,18.187c0-0.567,0.141-1.117,0.42-1.648s0.676-0.937,1.188-1.217
				c0.515-0.279,1.086-0.42,1.72-0.42c0.978,0,1.778,0.317,2.402,0.952c0.624,0.635,0.938,1.438,0.938,2.406
				c0,0.978-0.314,1.788-0.945,2.431s-1.426,0.965-2.383,0.965c-0.592,0-1.156-0.135-1.693-0.402
				c-0.538-0.268-0.945-0.66-1.227-1.177C812.312,19.559,812.171,18.93,812.171,18.187z M813.922,18.279
				c0,0.641,0.151,1.132,0.457,1.473c0.305,0.34,0.68,0.511,1.125,0.511s0.819-0.171,1.123-0.511
				c0.302-0.341,0.452-0.836,0.452-1.485c0-0.632-0.15-1.119-0.452-1.46c-0.304-0.341-0.678-0.511-1.123-0.511
				s-0.82,0.17-1.125,0.511C814.075,17.148,813.922,17.638,813.922,18.279z"/>
			<path fill="#4D4D4F" d="M820.177,21.509V12.59h1.71v8.919H820.177z"/>
		</g>
		<g enable-background="new    ">
			<path fill="#4D4D4F" d="M829.122,24.131c-0.604-0.763-1.114-1.654-1.532-2.677c-0.418-1.022-0.627-2.081-0.627-3.176
				c0-0.966,0.156-1.89,0.469-2.774c0.365-1.026,0.929-2.048,1.69-3.066h0.785c-0.491,0.844-0.814,1.446-0.974,1.807
				c-0.248,0.561-0.441,1.145-0.584,1.753c-0.174,0.758-0.262,1.521-0.262,2.287c0,1.951,0.605,3.9,1.818,5.847h-0.784v-0.001
				H829.122z"/>
			<path fill="#4D4D4F" d="M831.177,21.509v-6.461h0.984v0.919c0.476-0.71,1.16-1.065,2.058-1.065c0.389,0,0.747,0.07,1.074,0.21
				c0.325,0.14,0.569,0.323,0.731,0.551s0.275,0.497,0.341,0.81c0.04,0.202,0.062,0.558,0.062,1.064v3.973h-1.097v-3.931
				c0-0.445-0.043-0.779-0.127-1c-0.086-0.222-0.235-0.397-0.454-0.529c-0.217-0.132-0.472-0.198-0.763-0.198
				c-0.467,0-0.869,0.148-1.209,0.444c-0.338,0.296-0.508,0.857-0.508,1.686v3.528L831.177,21.509L831.177,21.509z"/>
			<path fill="#4D4D4F" d="M843.869,16.265h-5.889v-1.022h5.889V16.265z M843.869,18.972h-5.889V17.95h5.889V18.972z"/>
			<path fill="#4D4D4F" d="M849.205,21.509h-1.096V14.53c-0.264,0.252-0.609,0.503-1.037,0.755
				c-0.428,0.251-0.812,0.439-1.152,0.565v-1.059c0.612-0.288,1.147-0.637,1.605-1.046c0.459-0.41,0.783-0.808,0.975-1.192h0.705
				V21.509z"/>
			<path fill="#4D4D4F" d="M852.008,19.173l1.149-0.098c0.084,0.56,0.282,0.98,0.593,1.263c0.311,0.281,0.686,0.423,1.123,0.423
				c0.526,0,0.974-0.199,1.338-0.597c0.364-0.397,0.549-0.925,0.549-1.582c0-0.624-0.176-1.117-0.527-1.478
				c-0.35-0.361-0.81-0.542-1.377-0.542c-0.354,0-0.672,0.08-0.955,0.24c-0.284,0.16-0.508,0.368-0.67,0.624l-1.027-0.134
				l0.863-4.582h4.436v1.047h-3.56l-0.479,2.397c0.534-0.373,1.097-0.561,1.685-0.561c0.779,0,1.437,0.271,1.972,0.81
				c0.536,0.539,0.805,1.233,0.805,2.081c0,0.807-0.236,1.505-0.706,2.093c-0.571,0.722-1.354,1.083-2.343,1.083
				c-0.812,0-1.474-0.228-1.986-0.682C852.377,20.526,852.083,19.923,852.008,19.173z"/>
			<path fill="#4D4D4F" d="M858.938,19.173l1.15-0.098c0.084,0.56,0.281,0.98,0.593,1.263c0.31,0.281,0.685,0.423,1.122,0.423
				c0.526,0,0.974-0.199,1.339-0.597c0.364-0.397,0.548-0.925,0.548-1.582c0-0.624-0.176-1.117-0.527-1.478
				c-0.35-0.361-0.81-0.542-1.377-0.542c-0.354,0-0.672,0.08-0.955,0.24s-0.508,0.368-0.67,0.624l-1.026-0.134l0.862-4.582h4.437
				v1.047h-3.561l-0.479,2.397c0.535-0.373,1.097-0.561,1.685-0.561c0.779,0,1.438,0.271,1.973,0.81
				c0.536,0.539,0.804,1.233,0.804,2.081c0,0.807-0.236,1.505-0.706,2.093c-0.571,0.722-1.353,1.083-2.343,1.083
				c-0.812,0-1.474-0.228-1.986-0.682C859.305,20.526,859.012,19.923,858.938,19.173z"/>
			<path fill="#4D4D4F" d="M866.89,24.131h-0.784c1.213-1.946,1.819-3.896,1.819-5.847c0-0.763-0.088-1.519-0.263-2.27
				c-0.139-0.608-0.33-1.192-0.577-1.752c-0.158-0.365-0.484-0.974-0.979-1.825h0.784c0.764,1.019,1.327,2.04,1.69,3.066
				c0.312,0.885,0.47,1.809,0.47,2.774c0,1.095-0.209,2.153-0.629,3.176C868,22.476,867.492,23.369,866.89,24.131z"/>
		</g>
	</g>
	
		<line fill="none" stroke="#D6ECE6" stroke-width="2.7689" stroke-miterlimit="10" x1="1.334" y1="34.009" x2="900.294" y2="34.009"/>
</g>
</svg>
