<?xml version="1.0" encoding="utf-8"?>
<!-- Generator: Adobe Illustrator 18.0.0, SVG Export Plug-In . SVG Version: 6.00 Build 0)  -->
<!DOCTYPE svg PUBLIC "-//W3C//DTD SVG 1.1//EN" "http://www.w3.org/Graphics/SVG/1.1/DTD/svg11.dtd">
<svg version="1.1" id="Layer_1" xmlns="http://www.w3.org/2000/svg" xmlns:xlink="http://www.w3.org/1999/xlink" x="0px" y="0px"
	 viewBox="0 0 759.4 354" enable-background="new 0 0 759.4 354" xml:space="preserve">
<g>
	<g id="_x34_.1_mCRPC_Safety_profile__x28_Common_AEs_x29_">
		<rect x="0" y="34" fill="#FFFFFF" width="760.5" height="319"/>
		<rect x="0" y="274" opacity="0.7" fill="#ECF6F2" enable-background="new    " width="608.5" height="79"/>
		<line fill="none" stroke="#D6ECE6" stroke-width="2.7689" stroke-miterlimit="10" x1="0" y1="274" x2="759.4" y2="274"/>
		<rect x="0" y="34" opacity="0.7" fill="#ECF6F2" enable-background="new    " width="608.5" height="120"/>
		<g>
			<g enable-background="new    ">
				<path fill="#4D4D4F" d="M24,54.8v-1.9h5v4.6c-0.5,0.5-1.2,0.9-2.1,1.2C26,59,25,59.2,24.1,59.2c-1.2,0-2.2-0.3-3.1-0.8
					c-0.9-0.5-1.6-1.2-2-2.2c-0.4-0.9-0.7-2-0.7-3.1c0-1.2,0.2-2.3,0.8-3.2c0.5-0.9,1.2-1.6,2.2-2.1c0.7-0.4,1.6-0.6,2.7-0.6
					c1.4,0,2.5,0.3,3.3,0.9c0.8,0.6,1.3,1.4,1.5,2.5l-2.3,0.4c-0.2-0.6-0.5-1-0.9-1.3c-0.4-0.3-1-0.5-1.7-0.5c-1,0-1.8,0.3-2.4,1
					c-0.6,0.6-0.9,1.6-0.9,2.9c0,1.4,0.3,2.4,0.9,3.1c0.6,0.7,1.4,1,2.4,1c0.5,0,1-0.1,1.5-0.3c0.5-0.2,0.9-0.4,1.3-0.7v-1.5
					L24,54.8L24,54.8L24,54.8z"/>
				<path fill="#4D4D4F" d="M32.7,53.2l-2-0.4c0.2-0.8,0.6-1.4,1.2-1.8c0.5-0.4,1.4-0.6,2.4-0.6c1,0,1.7,0.1,2.2,0.3
					c0.5,0.2,0.8,0.5,1,0.9c0.2,0.4,0.3,1,0.3,2l0,2.6c0,0.7,0,1.3,0.1,1.6c0.1,0.3,0.2,0.7,0.4,1.1h-2.2c-0.1-0.1-0.1-0.4-0.2-0.6
					c0-0.1-0.1-0.2-0.1-0.3c-0.4,0.4-0.8,0.6-1.2,0.8c-0.4,0.2-0.9,0.3-1.4,0.3c-0.9,0-1.5-0.2-2-0.7c-0.5-0.5-0.7-1-0.7-1.8
					c0-0.5,0.1-0.9,0.3-1.3s0.5-0.6,0.9-0.8c0.4-0.2,1-0.4,1.7-0.5c1-0.2,1.7-0.4,2.1-0.5v-0.2c0-0.4-0.1-0.7-0.3-0.9
					c-0.2-0.2-0.6-0.3-1.2-0.3c-0.4,0-0.7,0.1-0.9,0.2C33,52.6,32.9,52.9,32.7,53.2z M35.7,55c-0.3,0.1-0.7,0.2-1.3,0.3
					c-0.6,0.1-1,0.3-1.2,0.4c-0.3,0.2-0.4,0.5-0.4,0.8s0.1,0.6,0.3,0.8c0.2,0.2,0.5,0.3,0.9,0.3c0.4,0,0.8-0.1,1.1-0.4
					c0.3-0.2,0.4-0.4,0.5-0.7c0.1-0.2,0.1-0.5,0.1-1.1V55L35.7,55z"/>
				<path fill="#4D4D4F" d="M39.2,56.6l2.2-0.3c0.1,0.4,0.3,0.8,0.6,1s0.7,0.3,1.2,0.3c0.6,0,1-0.1,1.3-0.3c0.2-0.1,0.3-0.3,0.3-0.6
					c0-0.2-0.1-0.3-0.2-0.4c-0.1-0.1-0.4-0.2-0.7-0.3c-1.8-0.4-2.9-0.7-3.4-1.1c-0.7-0.4-1-1.1-1-1.9c0-0.7,0.3-1.3,0.9-1.8
					c0.6-0.5,1.4-0.7,2.6-0.7c1.1,0,2,0.2,2.5,0.6c0.6,0.4,0.9,0.9,1.1,1.6l-2.1,0.4c-0.1-0.3-0.3-0.6-0.5-0.7
					c-0.2-0.2-0.6-0.3-1.1-0.3c-0.6,0-1,0.1-1.2,0.2c-0.2,0.1-0.2,0.3-0.2,0.4c0,0.2,0.1,0.3,0.2,0.4c0.2,0.1,0.9,0.4,2.1,0.6
					c1.2,0.3,2,0.6,2.4,1c0.5,0.4,0.7,0.9,0.7,1.6c0,0.8-0.3,1.4-1,2c-0.6,0.5-1.6,0.8-2.8,0.8c-1.1,0-2-0.2-2.7-0.7
					C39.9,58.1,39.4,57.4,39.2,56.6z"/>
				<path fill="#4D4D4F" d="M52.7,50.7v1.8h-1.5v3.3c0,0.7,0,1.1,0,1.2c0,0.1,0.1,0.2,0.2,0.3c0.1,0.1,0.2,0.1,0.4,0.1
					c0.2,0,0.5-0.1,0.9-0.2l0.2,1.7c-0.5,0.2-1.1,0.3-1.7,0.3c-0.4,0-0.8-0.1-1.1-0.2c-0.3-0.1-0.6-0.3-0.7-0.5s-0.3-0.5-0.3-0.9
					c0-0.3-0.1-0.8-0.1-1.5v-3.6h-1v-1.8h1v-1.6l2.2-1.3v2.9L52.7,50.7L52.7,50.7z"/>
				<path fill="#4D4D4F" d="M56.3,59h-2.2v-8.3h2v1.2c0.3-0.6,0.7-0.9,0.9-1.1c0.3-0.2,0.6-0.3,0.9-0.3c0.5,0,1,0.1,1.4,0.4
					l-0.7,1.9c-0.4-0.2-0.7-0.4-1-0.4c-0.3,0-0.6,0.1-0.8,0.3c-0.2,0.2-0.4,0.5-0.5,0.9c-0.1,0.4-0.2,1.4-0.2,2.8L56.3,59L56.3,59z"
					/>
				<path fill="#4D4D4F" d="M59.9,54.7c0-0.7,0.2-1.4,0.5-2.1c0.4-0.7,0.9-1.2,1.5-1.6c0.7-0.4,1.4-0.5,2.2-0.5
					c1.3,0,2.3,0.4,3.1,1.2c0.8,0.8,1.2,1.8,1.2,3.1c0,1.3-0.4,2.3-1.2,3.1c-0.8,0.8-1.8,1.2-3.1,1.2c-0.8,0-1.5-0.2-2.2-0.5
					c-0.7-0.3-1.2-0.8-1.6-1.5S59.9,55.7,59.9,54.7z M62.2,54.9c0,0.8,0.2,1.5,0.6,1.9c0.4,0.4,0.9,0.7,1.4,0.7
					c0.6,0,1.1-0.2,1.4-0.7c0.4-0.4,0.6-1.1,0.6-1.9c0-0.8-0.2-1.4-0.6-1.9c-0.4-0.4-0.9-0.7-1.4-0.7c-0.6,0-1.1,0.2-1.4,0.7
					C62.4,53.4,62.2,54,62.2,54.9z"/>
				<path fill="#4D4D4F" d="M70.2,49.6v-2h2.2v2H70.2z M70.2,59v-8.3h2.2V59H70.2z"/>
				<path fill="#4D4D4F" d="M82.2,59H80v-4.2c0-0.9,0-1.5-0.1-1.7c-0.1-0.3-0.2-0.5-0.5-0.6c-0.2-0.1-0.5-0.2-0.8-0.2
					c-0.4,0-0.7,0.1-1,0.3c-0.3,0.2-0.5,0.5-0.6,0.8c-0.1,0.3-0.2,1-0.2,1.9V59h-2.2v-8.3h2v1.2c0.7-0.9,1.6-1.4,2.7-1.4
					c0.5,0,0.9,0.1,1.3,0.3c0.4,0.2,0.7,0.4,0.9,0.7c0.2,0.3,0.3,0.6,0.4,0.9s0.1,0.8,0.1,1.5L82.2,59L82.2,59z"/>
				<path fill="#4D4D4F" d="M88.2,50.7v1.8h-1.5v3.3c0,0.7,0,1.1,0,1.2c0,0.1,0.1,0.2,0.2,0.3c0.1,0.1,0.2,0.1,0.4,0.1
					c0.2,0,0.5-0.1,0.9-0.2l0.2,1.7c-0.5,0.2-1.1,0.3-1.7,0.3c-0.4,0-0.8-0.1-1.1-0.2c-0.3-0.1-0.6-0.3-0.7-0.5s-0.3-0.5-0.3-0.9
					c0-0.3-0.1-0.8-0.1-1.5v-3.6h-1v-1.8h1v-1.6l2.2-1.3v2.9L88.2,50.7L88.2,50.7z"/>
				<path fill="#4D4D4F" d="M94.6,56.4l2.2,0.4c-0.3,0.8-0.7,1.4-1.3,1.8c-0.6,0.4-1.4,0.6-2.3,0.6c-1.4,0-2.5-0.5-3.2-1.4
					c-0.5-0.8-0.8-1.7-0.8-2.9c0-1.4,0.4-2.5,1.1-3.2c0.7-0.8,1.6-1.2,2.7-1.2c1.2,0,2.2,0.4,2.9,1.2c0.7,0.8,1.1,2.1,1,3.7h-5.5
					c0,0.7,0.2,1.2,0.5,1.5c0.3,0.4,0.8,0.5,1.3,0.5c0.3,0,0.6-0.1,0.9-0.3C94.3,57.1,94.4,56.8,94.6,56.4z M94.7,54.2
					c0-0.6-0.2-1.1-0.5-1.4c-0.3-0.3-0.7-0.5-1.1-0.5c-0.5,0-0.9,0.2-1.2,0.5c-0.3,0.3-0.5,0.8-0.5,1.4H94.7z"/>
				<path fill="#4D4D4F" d="M97.9,56.6l2.2-0.3c0.1,0.4,0.3,0.8,0.6,1s0.7,0.3,1.2,0.3c0.6,0,1-0.1,1.3-0.3c0.2-0.1,0.3-0.3,0.3-0.6
					c0-0.2-0.1-0.3-0.2-0.4c-0.1-0.1-0.4-0.2-0.7-0.3c-1.8-0.4-2.9-0.7-3.4-1.1c-0.7-0.4-1-1.1-1-1.9c0-0.7,0.3-1.3,0.9-1.8
					c0.6-0.5,1.4-0.7,2.6-0.7c1.1,0,2,0.2,2.5,0.6c0.6,0.4,0.9,0.9,1.1,1.6l-2.1,0.4c-0.1-0.3-0.3-0.6-0.5-0.7
					c-0.2-0.2-0.6-0.3-1.1-0.3c-0.6,0-1,0.1-1.2,0.2c-0.2,0.1-0.2,0.3-0.2,0.4c0,0.2,0.1,0.3,0.2,0.4c0.2,0.1,0.9,0.4,2.1,0.6
					c1.2,0.3,2,0.6,2.4,1c0.5,0.4,0.7,0.9,0.7,1.6c0,0.8-0.3,1.4-1,2c-0.6,0.5-1.6,0.8-2.8,0.8c-1.1,0-2-0.2-2.7-0.7
					C98.5,58.1,98.1,57.4,97.9,56.6z"/>
				<path fill="#4D4D4F" d="M111.4,50.7v1.8h-1.5v3.3c0,0.7,0,1.1,0,1.2c0,0.1,0.1,0.2,0.2,0.3c0.1,0.1,0.2,0.1,0.4,0.1
					c0.2,0,0.5-0.1,0.9-0.2l0.2,1.7c-0.5,0.2-1.1,0.3-1.7,0.3c-0.4,0-0.8-0.1-1.1-0.2c-0.3-0.1-0.6-0.3-0.7-0.5s-0.3-0.5-0.3-0.9
					c0-0.3-0.1-0.8-0.1-1.5v-3.6h-1v-1.8h1v-1.6l2.2-1.3v2.9L111.4,50.7L111.4,50.7z"/>
				<path fill="#4D4D4F" d="M112.9,49.6v-2h2.2v2H112.9z M112.9,59v-8.3h2.2V59H112.9z"/>
				<path fill="#4D4D4F" d="M124.9,59h-2.2v-4.2c0-0.9,0-1.5-0.1-1.7c-0.1-0.3-0.2-0.5-0.5-0.6c-0.2-0.1-0.5-0.2-0.8-0.2
					c-0.4,0-0.7,0.1-1,0.3c-0.3,0.2-0.5,0.5-0.6,0.8c-0.1,0.3-0.2,1-0.2,1.9V59h-2.2v-8.3h2v1.2c0.7-0.9,1.6-1.4,2.7-1.4
					c0.5,0,0.9,0.1,1.3,0.3c0.4,0.2,0.7,0.4,0.9,0.7c0.2,0.3,0.3,0.6,0.4,0.9s0.1,0.8,0.1,1.5L124.9,59L124.9,59z"/>
				<path fill="#4D4D4F" d="M128.8,53.2l-2-0.4c0.2-0.8,0.6-1.4,1.2-1.8c0.5-0.4,1.4-0.6,2.4-0.6c1,0,1.7,0.1,2.2,0.3
					c0.5,0.2,0.8,0.5,1,0.9c0.2,0.4,0.3,1,0.3,2l0,2.6c0,0.7,0,1.3,0.1,1.6c0.1,0.3,0.2,0.7,0.4,1.1h-2.2c-0.1-0.1-0.1-0.4-0.2-0.6
					c0-0.1-0.1-0.2-0.1-0.3c-0.4,0.4-0.8,0.6-1.2,0.8c-0.4,0.2-0.9,0.3-1.4,0.3c-0.9,0-1.5-0.2-2-0.7c-0.5-0.5-0.7-1-0.7-1.8
					c0-0.5,0.1-0.9,0.3-1.3s0.5-0.6,0.9-0.8c0.4-0.2,1-0.4,1.7-0.5c1-0.2,1.7-0.4,2.1-0.5v-0.2c0-0.4-0.1-0.7-0.3-0.9
					c-0.2-0.2-0.6-0.3-1.2-0.3c-0.4,0-0.7,0.1-0.9,0.2C129.1,52.6,128.9,52.9,128.8,53.2z M131.7,55c-0.3,0.1-0.7,0.2-1.3,0.3
					c-0.6,0.1-1,0.3-1.2,0.4c-0.3,0.2-0.4,0.5-0.4,0.8s0.1,0.6,0.3,0.8c0.2,0.2,0.5,0.3,0.9,0.3c0.4,0,0.8-0.1,1.1-0.4
					c0.3-0.2,0.4-0.4,0.5-0.7c0.1-0.2,0.1-0.5,0.1-1.1L131.7,55L131.7,55z"/>
				<path fill="#4D4D4F" d="M136,59V47.6h2.2V59H136z"/>
				<path fill="#4D4D4F" d="M144.9,47.6h4.2c1,0,1.7,0.1,2.2,0.2c0.7,0.2,1.2,0.6,1.7,1.1c0.5,0.5,0.8,1.1,1.1,1.9
					c0.2,0.7,0.4,1.6,0.4,2.7c0,0.9-0.1,1.8-0.4,2.4c-0.3,0.8-0.7,1.5-1.2,2c-0.4,0.4-0.9,0.7-1.6,0.9c-0.5,0.2-1.2,0.2-2,0.2h-4.4
					L144.9,47.6L144.9,47.6z M147.2,49.5v7.6h1.7c0.6,0,1.1,0,1.4-0.1c0.4-0.1,0.7-0.3,0.9-0.5c0.2-0.2,0.4-0.6,0.6-1.1
					c0.2-0.5,0.2-1.2,0.2-2.1c0-0.9-0.1-1.6-0.2-2c-0.2-0.5-0.4-0.8-0.7-1.1c-0.3-0.3-0.6-0.4-1.1-0.5c-0.3-0.1-1-0.1-1.9-0.1
					L147.2,49.5L147.2,49.5z"/>
				<path fill="#4D4D4F" d="M156.5,49.6v-2h2.2v2H156.5z M156.5,59v-8.3h2.2V59H156.5z"/>
				<path fill="#4D4D4F" d="M160.1,56.6l2.2-0.3c0.1,0.4,0.3,0.8,0.6,1c0.3,0.2,0.7,0.3,1.2,0.3c0.6,0,1-0.1,1.3-0.3
					c0.2-0.1,0.3-0.3,0.3-0.6c0-0.2-0.1-0.3-0.2-0.4c-0.1-0.1-0.4-0.2-0.7-0.3c-1.8-0.4-2.9-0.7-3.4-1.1c-0.7-0.4-1-1.1-1-1.9
					c0-0.7,0.3-1.3,0.9-1.8c0.6-0.5,1.4-0.7,2.6-0.7c1.1,0,2,0.2,2.5,0.6c0.6,0.4,0.9,0.9,1.1,1.6l-2.1,0.4
					c-0.1-0.3-0.3-0.6-0.5-0.7c-0.2-0.2-0.6-0.3-1.1-0.3c-0.6,0-1,0.1-1.2,0.2c-0.2,0.1-0.2,0.3-0.2,0.4c0,0.2,0.1,0.3,0.2,0.4
					c0.2,0.1,0.9,0.4,2.1,0.6c1.2,0.3,2,0.6,2.4,1c0.5,0.4,0.7,0.9,0.7,1.6c0,0.8-0.3,1.4-1,2c-0.6,0.5-1.6,0.8-2.8,0.8
					c-1.1,0-2-0.2-2.7-0.7C160.8,58.1,160.3,57.4,160.1,56.6z"/>
				<path fill="#4D4D4F" d="M169.3,54.7c0-0.7,0.2-1.4,0.5-2.1c0.4-0.7,0.9-1.2,1.5-1.6c0.7-0.4,1.4-0.5,2.2-0.5
					c1.3,0,2.3,0.4,3.1,1.2c0.8,0.8,1.2,1.8,1.2,3.1c0,1.3-0.4,2.3-1.2,3.1c-0.8,0.8-1.8,1.2-3.1,1.2c-0.8,0-1.5-0.2-2.2-0.5
					c-0.7-0.3-1.2-0.8-1.6-1.5S169.3,55.7,169.3,54.7z M171.5,54.9c0,0.8,0.2,1.5,0.6,1.9c0.4,0.4,0.9,0.7,1.4,0.7
					c0.6,0,1.1-0.2,1.4-0.7c0.4-0.4,0.6-1.1,0.6-1.9c0-0.8-0.2-1.4-0.6-1.9c-0.4-0.4-0.9-0.7-1.4-0.7c-0.6,0-1.1,0.2-1.4,0.7
					C171.7,53.4,171.5,54,171.5,54.9z"/>
				<path fill="#4D4D4F" d="M181.7,59h-2.2v-8.3h2v1.2c0.3-0.6,0.7-0.9,0.9-1.1c0.3-0.2,0.6-0.3,0.9-0.3c0.5,0,1,0.1,1.4,0.4
					l-0.7,1.9c-0.4-0.2-0.7-0.4-1-0.4c-0.3,0-0.6,0.1-0.8,0.3c-0.2,0.2-0.4,0.5-0.5,0.9c-0.1,0.4-0.2,1.4-0.2,2.8L181.7,59L181.7,59
					z"/>
				<path fill="#4D4D4F" d="M193.4,59h-2v-1.2c-0.3,0.5-0.7,0.8-1.2,1.1c-0.5,0.2-0.9,0.3-1.4,0.3c-1,0-1.8-0.4-2.4-1.2
					c-0.7-0.8-1-1.8-1-3.2c0-1.4,0.3-2.5,1-3.2c0.7-0.7,1.5-1.1,2.5-1.1c0.9,0,1.7,0.4,2.4,1.2v-4.1h2.2L193.4,59L193.4,59z
					 M187.5,54.7c0,0.9,0.1,1.5,0.4,1.9c0.4,0.6,0.8,0.9,1.5,0.9c0.5,0,0.9-0.2,1.3-0.6c0.4-0.4,0.5-1.1,0.5-1.9
					c0-1-0.2-1.6-0.5-2.1c-0.3-0.4-0.8-0.6-1.3-0.6c-0.5,0-1,0.2-1.3,0.6C187.7,53.2,187.5,53.9,187.5,54.7z"/>
				<path fill="#4D4D4F" d="M200.4,56.4l2.2,0.4c-0.3,0.8-0.7,1.4-1.3,1.8c-0.6,0.4-1.4,0.6-2.3,0.6c-1.4,0-2.5-0.5-3.2-1.4
					c-0.5-0.8-0.8-1.7-0.8-2.9c0-1.4,0.4-2.5,1.1-3.2c0.7-0.8,1.6-1.2,2.7-1.2c1.2,0,2.2,0.4,2.9,1.2c0.7,0.8,1.1,2.1,1,3.7h-5.5
					c0,0.7,0.2,1.2,0.5,1.5c0.3,0.4,0.8,0.5,1.3,0.5c0.3,0,0.6-0.1,0.9-0.3C200.1,57.1,200.3,56.8,200.4,56.4z M200.5,54.2
					c0-0.6-0.2-1.1-0.5-1.4c-0.3-0.3-0.7-0.5-1.1-0.5c-0.5,0-0.9,0.2-1.2,0.5c-0.3,0.3-0.5,0.8-0.5,1.4H200.5z"/>
				<path fill="#4D4D4F" d="M206.6,59h-2.2v-8.3h2v1.2c0.3-0.6,0.7-0.9,0.9-1.1c0.3-0.2,0.6-0.3,0.9-0.3c0.5,0,1,0.1,1.4,0.4
					l-0.7,1.9c-0.4-0.2-0.7-0.4-1-0.4c-0.3,0-0.6,0.1-0.8,0.3c-0.2,0.2-0.4,0.5-0.5,0.9c-0.1,0.4-0.2,1.4-0.2,2.8L206.6,59L206.6,59
					z"/>
				<path fill="#4D4D4F" d="M209.9,56.6l2.2-0.3c0.1,0.4,0.3,0.8,0.6,1c0.3,0.2,0.7,0.3,1.2,0.3c0.6,0,1-0.1,1.3-0.3
					c0.2-0.1,0.3-0.3,0.3-0.6c0-0.2-0.1-0.3-0.2-0.4c-0.1-0.1-0.4-0.2-0.7-0.3c-1.8-0.4-2.9-0.7-3.4-1.1c-0.7-0.4-1-1.1-1-1.9
					c0-0.7,0.3-1.3,0.9-1.8c0.6-0.5,1.4-0.7,2.6-0.7c1.1,0,2,0.2,2.5,0.6c0.6,0.4,0.9,0.9,1.1,1.6l-2.1,0.4
					c-0.1-0.3-0.3-0.6-0.5-0.7c-0.2-0.2-0.6-0.3-1.1-0.3c-0.6,0-1,0.1-1.2,0.2c-0.2,0.1-0.2,0.3-0.2,0.4c0,0.2,0.1,0.3,0.2,0.4
					c0.2,0.1,0.9,0.4,2.1,0.6c1.2,0.3,2,0.6,2.4,1c0.5,0.4,0.7,0.9,0.7,1.6c0,0.8-0.3,1.4-1,2c-0.6,0.5-1.6,0.8-2.8,0.8
					c-1.1,0-2-0.2-2.7-0.7C210.6,58.1,210.1,57.4,209.9,56.6z"/>
			</g>
		</g>
		<g>
			<g enable-background="new    ">
				<path fill="#4D4D4F" d="M524.9,99v-2.3h-4.7v-1.9l5-7.3h1.8v7.3h1.4v1.9h-1.4V99L524.9,99L524.9,99z M524.9,94.8v-3.9l-2.6,3.9
					H524.9z"/>
				<path fill="#4D4D4F" d="M529.6,90.4c0-1,0.2-1.8,0.7-2.3c0.5-0.5,1.1-0.7,1.8-0.7c0.8,0,1.4,0.2,1.9,0.7
					c0.5,0.5,0.7,1.3,0.7,2.3c0,1-0.2,1.8-0.7,2.3c-0.4,0.5-1.1,0.7-1.8,0.7c-0.8,0-1.4-0.2-1.9-0.7S529.6,91.4,529.6,90.4z
					 M531.3,90.4c0,0.7,0.1,1.2,0.3,1.5c0.1,0.2,0.3,0.3,0.5,0.3c0.2,0,0.4-0.1,0.5-0.3c0.2-0.3,0.2-0.8,0.2-1.5
					c0-0.7-0.1-1.2-0.2-1.5c-0.1-0.2-0.3-0.3-0.5-0.3c-0.2,0-0.4,0.1-0.5,0.3C531.3,89.1,531.3,89.6,531.3,90.4z M533.7,99.4h-1.6
					l6.1-12.1h1.6L533.7,99.4z M537.3,96.4c0-1,0.2-1.8,0.7-2.3c0.4-0.5,1.1-0.7,1.8-0.7c0.8,0,1.4,0.2,1.9,0.7
					c0.5,0.5,0.7,1.3,0.7,2.3c0,1-0.2,1.8-0.7,2.3c-0.4,0.5-1.1,0.7-1.8,0.7c-0.8,0-1.4-0.2-1.9-0.7
					C537.5,98.2,537.3,97.5,537.3,96.4z M539,96.4c0,0.7,0.1,1.2,0.3,1.5c0.1,0.2,0.3,0.3,0.5,0.3c0.2,0,0.4-0.1,0.5-0.3
					c0.2-0.3,0.3-0.8,0.3-1.5c0-0.7-0.1-1.2-0.2-1.5c-0.1-0.2-0.3-0.3-0.5-0.3s-0.4,0.1-0.5,0.3C539.1,95.2,539,95.7,539,96.4z"/>
			</g>
			<g enable-background="new    ">
				<path fill="#4D4D4F" d="M520.6,136l2.1-0.3c0.1,0.5,0.2,1,0.5,1.2c0.3,0.3,0.7,0.4,1.1,0.4c0.5,0,0.8-0.2,1.1-0.5
					c0.3-0.3,0.5-0.8,0.5-1.4c0-0.6-0.1-1-0.4-1.3c-0.3-0.3-0.7-0.5-1.1-0.5c-0.3,0-0.6,0.1-1,0.2l0.2-1.8c0.6,0,1-0.1,1.4-0.4
					c0.3-0.3,0.5-0.6,0.5-1.1c0-0.4-0.1-0.7-0.3-0.9c-0.2-0.2-0.5-0.3-0.9-0.3c-0.4,0-0.7,0.1-1,0.4c-0.3,0.3-0.4,0.6-0.5,1.1
					l-2-0.3c0.1-0.7,0.4-1.2,0.6-1.7c0.3-0.4,0.7-0.7,1.2-1c0.5-0.2,1.1-0.4,1.7-0.4c1.1,0,1.9,0.3,2.6,1c0.5,0.6,0.8,1.2,0.8,1.9
					c0,1-0.6,1.8-1.6,2.4c0.7,0.1,1.2,0.5,1.6,0.9c0.4,0.5,0.6,1.1,0.6,1.8c0,1-0.4,1.9-1.1,2.6c-0.7,0.7-1.6,1.1-2.7,1.1
					c-1,0-1.9-0.3-2.6-0.9C521.1,137.7,520.7,136.9,520.6,136z"/>
				<path fill="#4D4D4F" d="M529.6,130.4c0-1,0.2-1.8,0.7-2.3c0.5-0.5,1.1-0.7,1.8-0.7c0.8,0,1.4,0.2,1.9,0.7
					c0.5,0.5,0.7,1.3,0.7,2.3c0,1-0.2,1.8-0.7,2.3c-0.4,0.5-1.1,0.7-1.8,0.7c-0.8,0-1.4-0.2-1.9-0.7S529.6,131.4,529.6,130.4z
					 M531.3,130.4c0,0.7,0.1,1.2,0.3,1.5c0.1,0.2,0.3,0.3,0.5,0.3c0.2,0,0.4-0.1,0.5-0.3c0.2-0.3,0.2-0.8,0.2-1.5
					c0-0.7-0.1-1.2-0.2-1.5c-0.1-0.2-0.3-0.3-0.5-0.3c-0.2,0-0.4,0.1-0.5,0.3C531.3,129.1,531.3,129.6,531.3,130.4z M533.7,139.4
					h-1.6l6.1-12.1h1.6L533.7,139.4z M537.3,136.4c0-1,0.2-1.8,0.7-2.3c0.4-0.5,1.1-0.7,1.8-0.7c0.8,0,1.4,0.2,1.9,0.7
					c0.5,0.5,0.7,1.3,0.7,2.3c0,1-0.2,1.8-0.7,2.3c-0.4,0.5-1.1,0.7-1.8,0.7c-0.8,0-1.4-0.2-1.9-0.7
					C537.5,138.2,537.3,137.5,537.3,136.4z M539,136.4c0,0.7,0.1,1.2,0.3,1.5c0.1,0.2,0.3,0.3,0.5,0.3c0.2,0,0.4-0.1,0.5-0.3
					c0.2-0.3,0.3-0.8,0.3-1.5c0-0.7-0.1-1.2-0.2-1.5c-0.1-0.2-0.3-0.3-0.5-0.3s-0.4,0.1-0.5,0.3C539.1,135.2,539,135.7,539,136.4z"
					/>
			</g>
		</g>
		<g>
			<g enable-background="new    ">
				<path fill="#4D4D4F" d="M24,294.8v-1.9h5v4.6c-0.5,0.5-1.2,0.9-2.1,1.2c-0.9,0.4-1.9,0.5-2.8,0.5c-1.2,0-2.2-0.3-3.1-0.8
					c-0.9-0.5-1.6-1.2-2-2.2c-0.4-0.9-0.7-2-0.7-3.1c0-1.2,0.2-2.3,0.8-3.2c0.5-0.9,1.2-1.6,2.2-2.1c0.7-0.4,1.6-0.6,2.7-0.6
					c1.4,0,2.5,0.3,3.3,0.9c0.8,0.6,1.3,1.4,1.5,2.5l-2.3,0.4c-0.2-0.6-0.5-1-0.9-1.3c-0.4-0.3-1-0.5-1.7-0.5c-1,0-1.8,0.3-2.4,1
					c-0.6,0.6-0.9,1.6-0.9,2.9c0,1.4,0.3,2.4,0.9,3.1s1.4,1,2.4,1c0.5,0,1-0.1,1.5-0.3c0.5-0.2,0.9-0.4,1.3-0.7v-1.5L24,294.8
					L24,294.8L24,294.8z"/>
				<path fill="#4D4D4F" d="M35.9,296.4l2.2,0.4c-0.3,0.8-0.7,1.4-1.3,1.8c-0.6,0.4-1.4,0.6-2.3,0.6c-1.4,0-2.5-0.5-3.2-1.4
					c-0.5-0.8-0.8-1.7-0.8-2.9c0-1.4,0.4-2.5,1.1-3.2c0.7-0.8,1.6-1.2,2.7-1.2c1.2,0,2.2,0.4,2.9,1.2c0.7,0.8,1.1,2.1,1,3.7h-5.5
					c0,0.6,0.2,1.2,0.5,1.5c0.3,0.4,0.8,0.5,1.3,0.5c0.3,0,0.6-0.1,0.9-0.3C35.6,297.1,35.8,296.8,35.9,296.4z M36,294.1
					c0-0.6-0.2-1.1-0.5-1.4c-0.3-0.3-0.7-0.5-1.1-0.5c-0.5,0-0.9,0.2-1.2,0.5c-0.3,0.4-0.5,0.8-0.5,1.4H36z"/>
				<path fill="#4D4D4F" d="M47.5,299h-2.2v-4.2c0-0.9,0-1.5-0.1-1.7c-0.1-0.3-0.2-0.5-0.5-0.6c-0.2-0.1-0.5-0.2-0.8-0.2
					c-0.4,0-0.7,0.1-1,0.3c-0.3,0.2-0.5,0.5-0.6,0.8c-0.1,0.3-0.2,1-0.2,1.9v3.8H40v-8.3h2v1.2c0.7-0.9,1.6-1.4,2.7-1.4
					c0.5,0,0.9,0.1,1.3,0.3c0.4,0.2,0.7,0.4,0.9,0.7c0.2,0.3,0.3,0.6,0.4,0.9s0.1,0.8,0.1,1.5L47.5,299L47.5,299z"/>
				<path fill="#4D4D4F" d="M54.6,296.4l2.2,0.4c-0.3,0.8-0.7,1.4-1.3,1.8c-0.6,0.4-1.4,0.6-2.3,0.6c-1.4,0-2.5-0.5-3.2-1.4
					c-0.5-0.8-0.8-1.7-0.8-2.9c0-1.4,0.4-2.5,1.1-3.2c0.7-0.8,1.6-1.2,2.7-1.2c1.2,0,2.2,0.4,2.9,1.2c0.7,0.8,1.1,2.1,1,3.7h-5.5
					c0,0.6,0.2,1.2,0.5,1.5c0.3,0.4,0.8,0.5,1.3,0.5c0.3,0,0.6-0.1,0.9-0.3C54.3,297.1,54.5,296.8,54.6,296.4z M54.7,294.1
					c0-0.6-0.2-1.1-0.5-1.4c-0.3-0.3-0.7-0.5-1.1-0.5c-0.5,0-0.9,0.2-1.2,0.5c-0.3,0.4-0.5,0.8-0.5,1.4H54.7z"/>
				<path fill="#4D4D4F" d="M60.8,299h-2.2v-8.3h2v1.2c0.3-0.6,0.7-0.9,0.9-1.1c0.3-0.2,0.6-0.3,0.9-0.3c0.5,0,1,0.1,1.4,0.4
					l-0.7,1.9c-0.4-0.2-0.7-0.4-1-0.4c-0.3,0-0.6,0.1-0.8,0.3c-0.2,0.2-0.4,0.5-0.5,0.9c-0.1,0.4-0.2,1.4-0.2,2.8L60.8,299L60.8,299
					z"/>
				<path fill="#4D4D4F" d="M66.5,293.2l-2-0.4c0.2-0.8,0.6-1.4,1.2-1.8c0.5-0.4,1.4-0.6,2.4-0.6c1,0,1.7,0.1,2.2,0.3
					c0.5,0.2,0.8,0.5,1,0.9s0.3,1,0.3,2l0,2.6c0,0.7,0,1.3,0.1,1.6c0.1,0.3,0.2,0.7,0.4,1.1h-2.2c-0.1-0.1-0.1-0.4-0.2-0.6
					c0-0.1-0.1-0.2-0.1-0.3c-0.4,0.4-0.8,0.6-1.2,0.8c-0.4,0.2-0.9,0.3-1.4,0.3c-0.9,0-1.5-0.2-2-0.7c-0.5-0.5-0.7-1-0.7-1.8
					c0-0.5,0.1-0.9,0.3-1.3s0.5-0.6,0.9-0.8c0.4-0.2,1-0.4,1.7-0.5c1-0.2,1.7-0.4,2.1-0.5v-0.2c0-0.4-0.1-0.7-0.3-0.9
					c-0.2-0.2-0.6-0.3-1.2-0.3c-0.4,0-0.7,0.1-0.9,0.2C66.8,292.6,66.7,292.9,66.5,293.2z M69.5,295c-0.3,0.1-0.7,0.2-1.3,0.3
					s-1,0.3-1.2,0.4c-0.3,0.2-0.4,0.5-0.4,0.8s0.1,0.6,0.3,0.8c0.2,0.2,0.5,0.3,0.9,0.3c0.4,0,0.8-0.1,1.1-0.4
					c0.3-0.2,0.4-0.4,0.5-0.7c0.1-0.2,0.1-0.5,0.1-1.1L69.5,295L69.5,295z"/>
				<path fill="#4D4D4F" d="M73.8,299v-11.5H76V299H73.8z"/>
				<path fill="#4D4D4F" d="M82.7,287.6h4.2c1,0,1.7,0.1,2.2,0.2c0.7,0.2,1.2,0.6,1.7,1.1c0.5,0.5,0.8,1.1,1.1,1.9
					c0.2,0.7,0.4,1.6,0.4,2.7c0,0.9-0.1,1.8-0.4,2.4c-0.3,0.8-0.7,1.5-1.2,2c-0.4,0.4-0.9,0.7-1.6,0.9c-0.5,0.2-1.2,0.2-2,0.2h-4.4
					L82.7,287.6L82.7,287.6z M85,289.5v7.6h1.7c0.6,0,1.1,0,1.4-0.1c0.4-0.1,0.7-0.3,0.9-0.5c0.2-0.2,0.4-0.6,0.6-1.1
					c0.2-0.5,0.2-1.2,0.2-2.1c0-0.9-0.1-1.6-0.2-2c-0.2-0.5-0.4-0.8-0.7-1.1c-0.3-0.3-0.6-0.4-1.1-0.5c-0.3-0.1-1-0.1-1.9-0.1
					L85,289.5L85,289.5z"/>
				<path fill="#4D4D4F" d="M94.2,289.6v-2h2.2v2H94.2z M94.2,299v-8.3h2.2v8.3H94.2z"/>
				<path fill="#4D4D4F" d="M97.9,296.6l2.2-0.3c0.1,0.4,0.3,0.8,0.6,1s0.7,0.3,1.2,0.3c0.6,0,1-0.1,1.3-0.3
					c0.2-0.1,0.3-0.3,0.3-0.6c0-0.2-0.1-0.3-0.2-0.4c-0.1-0.1-0.4-0.2-0.7-0.3c-1.8-0.4-2.9-0.7-3.4-1.1c-0.7-0.4-1-1.1-1-1.9
					c0-0.7,0.3-1.3,0.9-1.8c0.6-0.5,1.4-0.7,2.6-0.7c1.1,0,2,0.2,2.5,0.6c0.6,0.4,0.9,0.9,1.1,1.6l-2.1,0.4
					c-0.1-0.3-0.3-0.6-0.5-0.7c-0.2-0.2-0.6-0.3-1.1-0.3c-0.6,0-1,0.1-1.2,0.2c-0.2,0.1-0.2,0.3-0.2,0.4c0,0.2,0.1,0.3,0.2,0.4
					c0.2,0.1,0.9,0.4,2.1,0.6c1.2,0.3,2,0.6,2.4,1c0.5,0.4,0.7,0.9,0.7,1.6c0,0.8-0.3,1.4-1,2c-0.6,0.5-1.6,0.8-2.8,0.8
					c-1.1,0-2-0.2-2.7-0.7C98.5,298.1,98.1,297.4,97.9,296.6z"/>
				<path fill="#4D4D4F" d="M107.1,294.7c0-0.7,0.2-1.4,0.5-2.1c0.4-0.7,0.9-1.2,1.5-1.6c0.7-0.4,1.4-0.5,2.2-0.5
					c1.3,0,2.3,0.4,3.1,1.2c0.8,0.8,1.2,1.8,1.2,3.1c0,1.3-0.4,2.3-1.2,3.1c-0.8,0.8-1.8,1.2-3.1,1.2c-0.8,0-1.5-0.2-2.2-0.5
					c-0.7-0.3-1.2-0.8-1.6-1.5C107.2,296.5,107.1,295.7,107.1,294.7z M109.3,294.9c0,0.8,0.2,1.5,0.6,1.9s0.9,0.7,1.4,0.7
					s1.1-0.2,1.4-0.7s0.6-1.1,0.6-1.9c0-0.8-0.2-1.4-0.6-1.9c-0.4-0.4-0.9-0.7-1.4-0.7c-0.6,0-1.1,0.2-1.4,0.7
					C109.5,293.4,109.3,294,109.3,294.9z"/>
				<path fill="#4D4D4F" d="M119.5,299h-2.2v-8.3h2v1.2c0.3-0.6,0.7-0.9,0.9-1.1c0.3-0.2,0.6-0.3,0.9-0.3c0.5,0,1,0.1,1.4,0.4
					l-0.7,1.9c-0.4-0.2-0.7-0.4-1-0.4c-0.3,0-0.6,0.1-0.8,0.3c-0.2,0.2-0.4,0.5-0.5,0.9c-0.1,0.4-0.2,1.4-0.2,2.8L119.5,299
					L119.5,299z"/>
				<path fill="#4D4D4F" d="M131.2,299h-2v-1.2c-0.3,0.5-0.7,0.8-1.2,1.1c-0.5,0.2-0.9,0.4-1.4,0.4c-1,0-1.8-0.4-2.4-1.2
					c-0.7-0.8-1-1.8-1-3.2c0-1.4,0.3-2.5,1-3.2s1.5-1.1,2.5-1.1c0.9,0,1.7,0.4,2.4,1.2v-4.1h2.2L131.2,299L131.2,299z M125.3,294.7
					c0,0.9,0.1,1.5,0.4,1.9c0.4,0.6,0.8,0.9,1.5,0.9c0.5,0,0.9-0.2,1.3-0.6c0.4-0.4,0.5-1.1,0.5-1.9c0-1-0.2-1.6-0.5-2.1
					c-0.3-0.4-0.8-0.6-1.3-0.6c-0.5,0-1,0.2-1.3,0.6S125.3,293.9,125.3,294.7z"/>
				<path fill="#4D4D4F" d="M138.2,296.4l2.2,0.4c-0.3,0.8-0.7,1.4-1.3,1.8c-0.6,0.4-1.4,0.6-2.3,0.6c-1.4,0-2.5-0.5-3.2-1.4
					c-0.5-0.8-0.8-1.7-0.8-2.9c0-1.4,0.4-2.5,1.1-3.2s1.6-1.2,2.7-1.2c1.2,0,2.2,0.4,2.9,1.2c0.7,0.8,1.1,2.1,1,3.7H135
					c0,0.6,0.2,1.2,0.5,1.5c0.3,0.4,0.8,0.5,1.3,0.5c0.3,0,0.6-0.1,0.9-0.3C137.9,297.1,138,296.8,138.2,296.4z M138.3,294.1
					c0-0.6-0.2-1.1-0.5-1.4c-0.3-0.3-0.7-0.5-1.1-0.5c-0.5,0-0.9,0.2-1.2,0.5c-0.3,0.4-0.5,0.8-0.5,1.4H138.3z"/>
				<path fill="#4D4D4F" d="M144.4,299h-2.2v-8.3h2v1.2c0.3-0.6,0.7-0.9,0.9-1.1c0.3-0.2,0.6-0.3,0.9-0.3c0.5,0,1,0.1,1.4,0.4
					l-0.7,1.9c-0.4-0.2-0.7-0.4-1-0.4c-0.3,0-0.6,0.1-0.8,0.3c-0.2,0.2-0.4,0.5-0.5,0.9c-0.1,0.4-0.2,1.4-0.2,2.8L144.4,299
					L144.4,299z"/>
				<path fill="#4D4D4F" d="M147.7,296.6l2.2-0.3c0.1,0.4,0.3,0.8,0.6,1s0.7,0.3,1.2,0.3c0.6,0,1-0.1,1.3-0.3
					c0.2-0.1,0.3-0.3,0.3-0.6c0-0.2-0.1-0.3-0.2-0.4c-0.1-0.1-0.4-0.2-0.7-0.3c-1.8-0.4-2.9-0.7-3.4-1.1c-0.7-0.4-1-1.1-1-1.9
					c0-0.7,0.3-1.3,0.9-1.8c0.6-0.5,1.4-0.7,2.6-0.7c1.1,0,2,0.2,2.5,0.6c0.6,0.4,0.9,0.9,1.1,1.6l-2.1,0.4
					c-0.1-0.3-0.3-0.6-0.5-0.7c-0.2-0.2-0.6-0.3-1.1-0.3c-0.6,0-1,0.1-1.2,0.2c-0.2,0.1-0.2,0.3-0.2,0.4c0,0.2,0.1,0.3,0.2,0.4
					c0.2,0.1,0.9,0.4,2.1,0.6c1.2,0.3,2,0.6,2.4,1c0.5,0.4,0.7,0.9,0.7,1.6c0,0.8-0.3,1.4-1,2c-0.6,0.5-1.6,0.8-2.8,0.8
					c-1.1,0-2-0.2-2.7-0.7C148.3,298.1,147.9,297.4,147.7,296.6z"/>
				<path fill="#4D4D4F" d="M163.5,293.2l-2-0.4c0.2-0.8,0.6-1.4,1.2-1.8c0.5-0.4,1.4-0.6,2.4-0.6c1,0,1.7,0.1,2.2,0.3
					c0.5,0.2,0.8,0.5,1,0.9s0.3,1,0.3,2l0,2.6c0,0.7,0,1.3,0.1,1.6c0.1,0.3,0.2,0.7,0.4,1.1h-2.2c-0.1-0.1-0.1-0.4-0.2-0.6
					c0-0.1-0.1-0.2-0.1-0.3c-0.4,0.4-0.8,0.6-1.2,0.8c-0.4,0.2-0.9,0.3-1.4,0.3c-0.9,0-1.5-0.2-2-0.7c-0.5-0.5-0.7-1-0.7-1.8
					c0-0.5,0.1-0.9,0.3-1.3s0.5-0.6,0.9-0.8c0.4-0.2,1-0.4,1.7-0.5c1-0.2,1.7-0.4,2.1-0.5v-0.2c0-0.4-0.1-0.7-0.3-0.9
					c-0.2-0.2-0.6-0.3-1.2-0.3c-0.4,0-0.7,0.1-0.9,0.2C163.8,292.6,163.6,292.9,163.5,293.2z M166.4,295c-0.3,0.1-0.7,0.2-1.3,0.3
					s-1,0.3-1.2,0.4c-0.3,0.2-0.4,0.5-0.4,0.8s0.1,0.6,0.3,0.8c0.2,0.2,0.5,0.3,0.9,0.3c0.4,0,0.8-0.1,1.1-0.4
					c0.3-0.2,0.4-0.4,0.5-0.7c0.1-0.2,0.1-0.5,0.1-1.1L166.4,295L166.4,295z"/>
				<path fill="#4D4D4F" d="M178.3,299h-2.2v-4.2c0-0.9,0-1.5-0.1-1.7c-0.1-0.3-0.2-0.5-0.5-0.6c-0.2-0.1-0.5-0.2-0.8-0.2
					c-0.4,0-0.7,0.1-1,0.3c-0.3,0.2-0.5,0.5-0.6,0.8c-0.1,0.3-0.2,1-0.2,1.9v3.8h-2.2v-8.3h2v1.2c0.7-0.9,1.6-1.4,2.7-1.4
					c0.5,0,0.9,0.1,1.3,0.3c0.4,0.2,0.7,0.4,0.9,0.7s0.3,0.6,0.4,0.9s0.1,0.8,0.1,1.5L178.3,299L178.3,299z"/>
				<path fill="#4D4D4F" d="M188.1,299h-2v-1.2c-0.3,0.5-0.7,0.8-1.2,1.1c-0.5,0.2-0.9,0.4-1.4,0.4c-1,0-1.8-0.4-2.4-1.2
					c-0.7-0.8-1-1.8-1-3.2c0-1.4,0.3-2.5,1-3.2c0.7-0.7,1.5-1.1,2.5-1.1c0.9,0,1.7,0.4,2.4,1.2v-4.1h2.2L188.1,299L188.1,299z
					 M182.2,294.7c0,0.9,0.1,1.5,0.4,1.9c0.4,0.6,0.8,0.9,1.5,0.9c0.5,0,0.9-0.2,1.3-0.6c0.4-0.4,0.5-1.1,0.5-1.9
					c0-1-0.2-1.6-0.5-2.1c-0.3-0.4-0.8-0.6-1.3-0.6c-0.5,0-1,0.2-1.3,0.6S182.2,293.9,182.2,294.7z"/>
				<path fill="#4D4D4F" d="M204.5,299h-2.5l-1-2.6h-4.6l-0.9,2.6H193l4.5-11.5h2.4L204.5,299z M200.2,294.5l-1.6-4.2l-1.5,4.2
					H200.2z"/>
				<path fill="#4D4D4F" d="M213.3,299h-2v-1.2c-0.3,0.5-0.7,0.8-1.2,1.1s-0.9,0.4-1.4,0.4c-1,0-1.8-0.4-2.4-1.2
					c-0.7-0.8-1-1.8-1-3.2c0-1.4,0.3-2.5,1-3.2c0.7-0.7,1.5-1.1,2.5-1.1c0.9,0,1.7,0.4,2.4,1.2v-4.1h2.2L213.3,299L213.3,299z
					 M207.4,294.7c0,0.9,0.1,1.5,0.4,1.9c0.4,0.6,0.8,0.9,1.5,0.9c0.5,0,0.9-0.2,1.3-0.6c0.4-0.4,0.5-1.1,0.5-1.9
					c0-1-0.2-1.6-0.5-2.1c-0.3-0.4-0.8-0.6-1.3-0.6c-0.5,0-1,0.2-1.3,0.6C207.6,293.2,207.4,293.9,207.4,294.7z"/>
				<path fill="#4D4D4F" d="M215.3,290.7h2v1.1c0.7-0.9,1.6-1.3,2.6-1.3c0.5,0,1,0.1,1.4,0.3c0.4,0.2,0.7,0.6,1,1
					c0.4-0.4,0.8-0.8,1.2-1c0.4-0.2,0.9-0.3,1.4-0.3c0.6,0,1.1,0.1,1.5,0.4s0.7,0.6,0.9,1.1c0.2,0.4,0.2,0.9,0.2,1.7v5.3h-2.2v-4.7
					c0-0.8-0.1-1.4-0.2-1.6c-0.2-0.3-0.5-0.5-0.9-0.5c-0.3,0-0.6,0.1-0.9,0.3c-0.3,0.2-0.5,0.5-0.6,0.8c-0.1,0.4-0.2,0.9-0.2,1.7v4
					h-2.2v-4.5c0-0.8,0-1.3-0.1-1.6c-0.1-0.2-0.2-0.4-0.4-0.5c-0.2-0.1-0.4-0.2-0.7-0.2c-0.3,0-0.6,0.1-0.9,0.3
					c-0.3,0.2-0.5,0.4-0.6,0.8c-0.1,0.3-0.2,0.9-0.2,1.7v4h-2.2L215.3,290.7L215.3,290.7z"/>
				<path fill="#4D4D4F" d="M229.7,289.6v-2h2.2v2H229.7z M229.7,299v-8.3h2.2v8.3H229.7z"/>
				<path fill="#4D4D4F" d="M241.7,299h-2.2v-4.2c0-0.9,0-1.5-0.1-1.7c-0.1-0.3-0.2-0.5-0.5-0.6c-0.2-0.1-0.5-0.2-0.8-0.2
					c-0.4,0-0.7,0.1-1,0.3c-0.3,0.2-0.5,0.5-0.6,0.8c-0.1,0.3-0.2,1-0.2,1.9v3.8h-2.2v-8.3h2v1.2c0.7-0.9,1.6-1.4,2.7-1.4
					c0.5,0,0.9,0.1,1.3,0.3c0.4,0.2,0.7,0.4,0.9,0.7c0.2,0.3,0.3,0.6,0.4,0.9s0.1,0.8,0.1,1.5L241.7,299L241.7,299z"/>
				<path fill="#4D4D4F" d="M243.9,289.6v-2h2.2v2H243.9z M243.9,299v-8.3h2.2v8.3H243.9z"/>
				<path fill="#4D4D4F" d="M247.6,296.6l2.2-0.3c0.1,0.4,0.3,0.8,0.6,1c0.3,0.2,0.7,0.3,1.2,0.3c0.6,0,1-0.1,1.3-0.3
					c0.2-0.1,0.3-0.3,0.3-0.6c0-0.2-0.1-0.3-0.2-0.4c-0.1-0.1-0.4-0.2-0.7-0.3c-1.8-0.4-2.9-0.7-3.4-1.1c-0.7-0.4-1-1.1-1-1.9
					c0-0.7,0.3-1.3,0.9-1.8c0.6-0.5,1.4-0.7,2.6-0.7c1.1,0,2,0.2,2.5,0.6c0.6,0.4,0.9,0.9,1.1,1.6l-2.1,0.4
					c-0.1-0.3-0.3-0.6-0.5-0.7c-0.2-0.2-0.6-0.3-1.1-0.3c-0.6,0-1,0.1-1.2,0.2c-0.2,0.1-0.2,0.3-0.2,0.4c0,0.2,0.1,0.3,0.2,0.4
					c0.2,0.1,0.9,0.4,2.1,0.6c1.2,0.3,2,0.6,2.4,1c0.5,0.4,0.7,0.9,0.7,1.6c0,0.8-0.3,1.4-1,2c-0.6,0.5-1.6,0.8-2.8,0.8
					c-1.1,0-2-0.2-2.7-0.7C248.2,298.1,247.8,297.4,247.6,296.6z"/>
				<path fill="#4D4D4F" d="M261,290.7v1.8h-1.5v3.3c0,0.7,0,1.1,0,1.2c0,0.1,0.1,0.2,0.2,0.3c0.1,0.1,0.2,0.1,0.4,0.1
					c0.2,0,0.5-0.1,0.9-0.2l0.2,1.7c-0.5,0.2-1.1,0.3-1.7,0.3c-0.4,0-0.8-0.1-1.1-0.2c-0.3-0.1-0.6-0.3-0.7-0.5s-0.3-0.5-0.3-0.9
					c0-0.3-0.1-0.8-0.1-1.5v-3.6h-1v-1.8h1v-1.6l2.2-1.3v2.9L261,290.7L261,290.7z"/>
				<path fill="#4D4D4F" d="M264.7,299h-2.2v-8.3h2v1.2c0.3-0.6,0.7-0.9,0.9-1.1c0.3-0.2,0.6-0.3,0.9-0.3c0.5,0,1,0.1,1.4,0.4
					l-0.7,1.9c-0.4-0.2-0.7-0.4-1-0.4c-0.3,0-0.6,0.1-0.8,0.3c-0.2,0.2-0.4,0.5-0.5,0.9c-0.1,0.4-0.2,1.4-0.2,2.8L264.7,299
					L264.7,299z"/>
				<path fill="#4D4D4F" d="M270.4,293.2l-2-0.4c0.2-0.8,0.6-1.4,1.2-1.8c0.5-0.4,1.4-0.6,2.4-0.6c1,0,1.7,0.1,2.2,0.3
					c0.5,0.2,0.8,0.5,1,0.9c0.2,0.4,0.3,1,0.3,2l0,2.6c0,0.7,0,1.3,0.1,1.6c0.1,0.3,0.2,0.7,0.4,1.1h-2.2c-0.1-0.1-0.1-0.4-0.2-0.6
					c0-0.1-0.1-0.2-0.1-0.3c-0.4,0.4-0.8,0.6-1.2,0.8c-0.4,0.2-0.9,0.3-1.4,0.3c-0.9,0-1.5-0.2-2-0.7c-0.5-0.5-0.7-1-0.7-1.8
					c0-0.5,0.1-0.9,0.3-1.3s0.5-0.6,0.9-0.8c0.4-0.2,1-0.4,1.7-0.5c1-0.2,1.7-0.4,2.1-0.5v-0.2c0-0.4-0.1-0.7-0.3-0.9
					c-0.2-0.2-0.6-0.3-1.2-0.3c-0.4,0-0.7,0.1-0.9,0.2C270.7,292.6,270.6,292.9,270.4,293.2z M273.4,295c-0.3,0.1-0.7,0.2-1.3,0.3
					s-1,0.3-1.2,0.4c-0.3,0.2-0.4,0.5-0.4,0.8s0.1,0.6,0.3,0.8c0.2,0.2,0.5,0.3,0.9,0.3c0.4,0,0.8-0.1,1.1-0.4
					c0.3-0.2,0.4-0.4,0.5-0.7c0.1-0.2,0.1-0.5,0.1-1.1V295z"/>
				<path fill="#4D4D4F" d="M281.5,290.7v1.8H280v3.3c0,0.7,0,1.1,0,1.2c0,0.1,0.1,0.2,0.2,0.3c0.1,0.1,0.2,0.1,0.4,0.1
					c0.2,0,0.5-0.1,0.9-0.2l0.2,1.7c-0.5,0.2-1.1,0.3-1.7,0.3c-0.4,0-0.8-0.1-1.1-0.2c-0.3-0.1-0.6-0.3-0.7-0.5s-0.3-0.5-0.3-0.9
					c0-0.3-0.1-0.8-0.1-1.5v-3.6h-1v-1.8h1v-1.6l2.2-1.3v2.9L281.5,290.7L281.5,290.7z"/>
				<path fill="#4D4D4F" d="M283,289.6v-2h2.2v2H283z M283,299v-8.3h2.2v8.3H283z"/>
				<path fill="#4D4D4F" d="M287,294.7c0-0.7,0.2-1.4,0.5-2.1c0.4-0.7,0.9-1.2,1.5-1.6c0.7-0.4,1.4-0.5,2.2-0.5
					c1.3,0,2.3,0.4,3.1,1.2c0.8,0.8,1.2,1.8,1.2,3.1c0,1.3-0.4,2.3-1.2,3.1c-0.8,0.8-1.8,1.2-3.1,1.2c-0.8,0-1.5-0.2-2.2-0.5
					c-0.7-0.3-1.2-0.8-1.6-1.5C287.1,296.5,287,295.7,287,294.7z M289.2,294.9c0,0.8,0.2,1.5,0.6,1.9s0.9,0.7,1.4,0.7
					s1.1-0.2,1.4-0.7c0.4-0.4,0.6-1.1,0.6-1.9c0-0.8-0.2-1.4-0.6-1.9c-0.4-0.4-0.9-0.7-1.4-0.7c-0.6,0-1.1,0.2-1.4,0.7
					C289.4,293.4,289.2,294,289.2,294.9z"/>
				<path fill="#4D4D4F" d="M304.8,299h-2.2v-4.2c0-0.9,0-1.5-0.1-1.7c-0.1-0.3-0.2-0.5-0.5-0.6c-0.2-0.1-0.5-0.2-0.8-0.2
					c-0.4,0-0.7,0.1-1,0.3c-0.3,0.2-0.5,0.5-0.6,0.8c-0.1,0.3-0.2,1-0.2,1.9v3.8h-2.2v-8.3h2v1.2c0.7-0.9,1.6-1.4,2.7-1.4
					c0.5,0,0.9,0.1,1.3,0.3c0.4,0.2,0.7,0.4,0.9,0.7c0.2,0.3,0.4,0.6,0.4,0.9s0.1,0.8,0.1,1.5L304.8,299L304.8,299z"/>
				<path fill="#4D4D4F" d="M310.9,295.3l2.2-0.2c0.1,0.8,0.4,1.3,0.8,1.7c0.4,0.4,1,0.5,1.7,0.5c0.7,0,1.3-0.2,1.7-0.5
					c0.4-0.3,0.6-0.7,0.6-1.1c0-0.3-0.1-0.5-0.2-0.7c-0.2-0.2-0.4-0.4-0.8-0.5c-0.3-0.1-0.9-0.3-1.9-0.5c-1.2-0.3-2.1-0.7-2.6-1.1
					c-0.7-0.6-1.1-1.4-1.1-2.3c0-0.6,0.2-1.1,0.5-1.6s0.8-0.9,1.4-1.2c0.6-0.3,1.4-0.4,2.3-0.4c1.4,0,2.5,0.3,3.2,0.9
					c0.7,0.6,1.1,1.5,1.1,2.5l-2.3,0.1c-0.1-0.6-0.3-1-0.6-1.3c-0.3-0.3-0.8-0.4-1.5-0.4c-0.7,0-1.2,0.1-1.6,0.4
					c-0.2,0.2-0.4,0.4-0.4,0.7c0,0.3,0.1,0.5,0.3,0.7c0.3,0.2,1,0.5,2.1,0.8c1.1,0.3,2,0.5,2.5,0.8c0.5,0.3,1,0.7,1.3,1.2
					c0.3,0.5,0.5,1.1,0.5,1.8c0,0.7-0.2,1.3-0.5,1.8c-0.4,0.6-0.9,1-1.5,1.3s-1.5,0.4-2.5,0.4c-1.4,0-2.6-0.3-3.3-1
					C311.5,297.5,311,296.6,310.9,295.3z"/>
				<path fill="#4D4D4F" d="M322.1,289.6v-2h2.2v2H322.1z M322.1,299v-8.3h2.2v8.3H322.1z"/>
				<path fill="#4D4D4F" d="M330.4,290.7v1.8h-1.5v3.3c0,0.7,0,1.1,0,1.2c0,0.1,0.1,0.2,0.2,0.3c0.1,0.1,0.2,0.1,0.4,0.1
					c0.2,0,0.5-0.1,0.9-0.2l0.2,1.7c-0.5,0.2-1.1,0.3-1.7,0.3c-0.4,0-0.8-0.1-1.1-0.2c-0.3-0.1-0.6-0.3-0.7-0.5
					c-0.1-0.2-0.3-0.5-0.3-0.9c0-0.3-0.1-0.8-0.1-1.5v-3.6h-1v-1.8h1v-1.6l2.2-1.3v2.9L330.4,290.7L330.4,290.7z"/>
				<path fill="#4D4D4F" d="M336.7,296.4l2.2,0.4c-0.3,0.8-0.7,1.4-1.3,1.8c-0.6,0.4-1.4,0.6-2.3,0.6c-1.4,0-2.5-0.5-3.2-1.4
					c-0.5-0.8-0.8-1.7-0.8-2.9c0-1.4,0.4-2.5,1.1-3.2s1.6-1.2,2.7-1.2c1.2,0,2.2,0.4,2.9,1.2c0.7,0.8,1.1,2.1,1,3.7h-5.5
					c0,0.6,0.2,1.2,0.5,1.5c0.3,0.4,0.8,0.5,1.3,0.5c0.3,0,0.6-0.1,0.9-0.3C336.4,297.1,336.6,296.8,336.7,296.4z M336.8,294.1
					c0-0.6-0.2-1.1-0.5-1.4c-0.3-0.3-0.7-0.5-1.1-0.5c-0.5,0-0.9,0.2-1.2,0.5c-0.3,0.4-0.5,0.8-0.5,1.4H336.8z"/>
				<path fill="#4D4D4F" d="M352.6,294.8l2.2,0.7c-0.3,1.2-0.9,2.2-1.7,2.8c-0.8,0.6-1.8,0.9-3,0.9c-1.5,0-2.8-0.5-3.8-1.6
					s-1.5-2.5-1.5-4.3c0-1.9,0.5-3.4,1.5-4.4c1-1.1,2.3-1.6,3.9-1.6c1.4,0,2.5,0.4,3.4,1.2c0.5,0.5,0.9,1.2,1.2,2.1l-2.3,0.5
					c-0.1-0.6-0.4-1.1-0.8-1.4c-0.4-0.3-1-0.5-1.6-0.5c-0.8,0-1.5,0.3-2.1,0.9c-0.5,0.6-0.8,1.6-0.8,3c0,1.4,0.3,2.5,0.8,3.1
					c0.5,0.6,1.2,0.9,2,0.9c0.6,0,1.1-0.2,1.6-0.6C352.1,296.3,352.4,295.6,352.6,294.8z"/>
				<path fill="#4D4D4F" d="M356.3,294.7c0-0.7,0.2-1.4,0.5-2.1c0.4-0.7,0.9-1.2,1.5-1.6c0.7-0.4,1.4-0.5,2.2-0.5
					c1.3,0,2.3,0.4,3.1,1.2c0.8,0.8,1.2,1.8,1.2,3.1c0,1.3-0.4,2.3-1.2,3.1c-0.8,0.8-1.8,1.2-3.1,1.2c-0.8,0-1.5-0.2-2.2-0.5
					c-0.7-0.3-1.2-0.8-1.6-1.5C356.5,296.5,356.3,295.7,356.3,294.7z M358.5,294.9c0,0.8,0.2,1.5,0.6,1.9s0.9,0.7,1.4,0.7
					c0.6,0,1.1-0.2,1.4-0.7c0.4-0.4,0.6-1.1,0.6-1.9c0-0.8-0.2-1.4-0.6-1.9c-0.4-0.4-0.9-0.7-1.4-0.7c-0.6,0-1.1,0.2-1.4,0.7
					C358.7,293.4,358.5,294,358.5,294.9z"/>
				<path fill="#4D4D4F" d="M374.1,299h-2.2v-4.2c0-0.9,0-1.5-0.1-1.7c-0.1-0.3-0.2-0.5-0.5-0.6c-0.2-0.1-0.5-0.2-0.8-0.2
					c-0.4,0-0.7,0.1-1,0.3c-0.3,0.2-0.5,0.5-0.6,0.8c-0.1,0.3-0.2,1-0.2,1.9v3.8h-2.2v-8.3h2v1.2c0.7-0.9,1.6-1.4,2.7-1.4
					c0.5,0,0.9,0.1,1.3,0.3c0.4,0.2,0.7,0.4,0.9,0.7s0.3,0.6,0.4,0.9s0.1,0.8,0.1,1.5V299z"/>
				<path fill="#4D4D4F" d="M384,299h-2v-1.2c-0.3,0.5-0.7,0.8-1.2,1.1c-0.5,0.2-0.9,0.4-1.4,0.4c-1,0-1.8-0.4-2.4-1.2
					c-0.7-0.8-1-1.8-1-3.2c0-1.4,0.3-2.5,1-3.2s1.5-1.1,2.5-1.1c0.9,0,1.7,0.4,2.4,1.2v-4.1h2.2L384,299L384,299z M378.1,294.7
					c0,0.9,0.1,1.5,0.4,1.9c0.4,0.6,0.8,0.9,1.5,0.9c0.5,0,0.9-0.2,1.3-0.6c0.4-0.4,0.5-1.1,0.5-1.9c0-1-0.2-1.6-0.5-2.1
					c-0.3-0.4-0.8-0.6-1.3-0.6c-0.5,0-1,0.2-1.3,0.6C378.3,293.2,378.1,293.9,378.1,294.7z"/>
				<path fill="#4D4D4F" d="M386.1,289.6v-2h2.2v2H386.1z M386.1,299v-8.3h2.2v8.3H386.1z"/>
				<path fill="#4D4D4F" d="M394.4,290.7v1.8h-1.5v3.3c0,0.7,0,1.1,0,1.2c0,0.1,0.1,0.2,0.2,0.3c0.1,0.1,0.2,0.1,0.4,0.1
					c0.2,0,0.5-0.1,0.9-0.2l0.2,1.7c-0.5,0.2-1.1,0.3-1.7,0.3c-0.4,0-0.8-0.1-1.1-0.2c-0.3-0.1-0.6-0.3-0.7-0.5
					c-0.1-0.2-0.3-0.5-0.3-0.9c0-0.3-0.1-0.8-0.1-1.5v-3.6h-1v-1.8h1v-1.6l2.2-1.3v2.9L394.4,290.7L394.4,290.7z"/>
				<path fill="#4D4D4F" d="M395.9,289.6v-2h2.2v2H395.9z M395.9,299v-8.3h2.2v8.3H395.9z"/>
				<path fill="#4D4D4F" d="M399.8,294.7c0-0.7,0.2-1.4,0.5-2.1c0.4-0.7,0.9-1.2,1.5-1.6c0.7-0.4,1.4-0.5,2.2-0.5
					c1.3,0,2.3,0.4,3.1,1.2c0.8,0.8,1.2,1.8,1.2,3.1c0,1.3-0.4,2.3-1.2,3.1c-0.8,0.8-1.8,1.2-3.1,1.2c-0.8,0-1.5-0.2-2.2-0.5
					c-0.7-0.3-1.2-0.8-1.6-1.5C400,296.5,399.8,295.7,399.8,294.7z M402.1,294.9c0,0.8,0.2,1.5,0.6,1.9c0.4,0.4,0.9,0.7,1.4,0.7
					c0.6,0,1.1-0.2,1.4-0.7c0.4-0.4,0.6-1.1,0.6-1.9c0-0.8-0.2-1.4-0.6-1.9c-0.4-0.4-0.9-0.7-1.4-0.7c-0.6,0-1.1,0.2-1.4,0.7
					C402.3,293.4,402.1,294,402.1,294.9z"/>
				<path fill="#4D4D4F" d="M417.7,299h-2.2v-4.2c0-0.9,0-1.5-0.1-1.7c-0.1-0.3-0.2-0.5-0.5-0.6c-0.2-0.1-0.5-0.2-0.8-0.2
					c-0.4,0-0.7,0.1-1,0.3c-0.3,0.2-0.5,0.5-0.6,0.8c-0.1,0.3-0.2,1-0.2,1.9v3.8h-2.2v-8.3h2v1.2c0.7-0.9,1.6-1.4,2.7-1.4
					c0.5,0,0.9,0.1,1.3,0.3c0.4,0.2,0.7,0.4,0.9,0.7s0.4,0.6,0.4,0.9s0.1,0.8,0.1,1.5V299L417.7,299z"/>
				<path fill="#4D4D4F" d="M419.1,296.6l2.2-0.3c0.1,0.4,0.3,0.8,0.6,1s0.7,0.3,1.2,0.3c0.6,0,1-0.1,1.3-0.3
					c0.2-0.1,0.3-0.3,0.3-0.6c0-0.2-0.1-0.3-0.2-0.4c-0.1-0.1-0.4-0.2-0.7-0.3c-1.8-0.4-2.9-0.7-3.4-1.1c-0.7-0.4-1-1.1-1-1.9
					c0-0.7,0.3-1.3,0.9-1.8c0.6-0.5,1.4-0.7,2.6-0.7c1.1,0,2,0.2,2.5,0.6c0.6,0.4,0.9,0.9,1.1,1.6l-2.1,0.4
					c-0.1-0.3-0.3-0.6-0.5-0.7s-0.6-0.3-1.1-0.3c-0.6,0-1,0.1-1.2,0.2c-0.2,0.1-0.2,0.3-0.2,0.4c0,0.2,0.1,0.3,0.2,0.4
					c0.2,0.1,0.9,0.4,2.1,0.6c1.2,0.3,2,0.6,2.4,1c0.5,0.4,0.7,0.9,0.7,1.6c0,0.8-0.3,1.4-1,2c-0.6,0.5-1.6,0.8-2.8,0.8
					c-1.1,0-2-0.2-2.7-0.7C419.7,298.1,419.3,297.4,419.1,296.6z"/>
			</g>
		</g>
		<g>
			<g enable-background="new    ">
				<path fill="#4D4D4F" d="M28.8,338.8v-11.5h7.7v1.4h-6.2v3.5h5.4v1.4h-5.4v5.2L28.8,338.8L28.8,338.8z"/>
				<path fill="#4D4D4F" d="M43.7,337.8c-0.5,0.4-1,0.8-1.5,0.9c-0.5,0.2-1,0.3-1.6,0.3c-0.9,0-1.6-0.2-2.1-0.7
					c-0.5-0.4-0.7-1-0.7-1.7c0-0.4,0.1-0.8,0.3-1.1s0.4-0.6,0.7-0.8c0.3-0.2,0.6-0.4,1-0.5c0.3-0.1,0.7-0.1,1.2-0.2
					c1.1-0.1,2-0.3,2.5-0.5c0-0.2,0-0.3,0-0.4c0-0.6-0.1-1-0.4-1.2c-0.4-0.3-0.9-0.5-1.6-0.5c-0.7,0-1.2,0.1-1.5,0.3
					c-0.3,0.2-0.5,0.6-0.7,1.2l-1.4-0.2c0.1-0.6,0.3-1.1,0.6-1.4c0.3-0.4,0.7-0.6,1.2-0.8c0.5-0.2,1.2-0.3,1.9-0.3
					c0.7,0,1.3,0.1,1.7,0.2c0.4,0.2,0.8,0.4,1,0.6c0.2,0.3,0.4,0.6,0.4,1c0,0.2,0.1,0.7,0.1,1.3v1.9c0,1.3,0,2.1,0.1,2.5
					c0.1,0.4,0.2,0.7,0.4,1H44C43.9,338.5,43.8,338.2,43.7,337.8z M43.6,334.7c-0.5,0.2-1.3,0.4-2.3,0.5c-0.6,0.1-1,0.2-1.2,0.3
					c-0.2,0.1-0.4,0.3-0.6,0.5c-0.1,0.2-0.2,0.4-0.2,0.7c0,0.4,0.1,0.7,0.4,0.9s0.7,0.4,1.2,0.4c0.5,0,1-0.1,1.4-0.4
					c0.4-0.2,0.7-0.6,0.9-1c0.2-0.3,0.2-0.8,0.2-1.4C43.6,335.2,43.6,334.7,43.6,334.7z"/>
				<path fill="#4D4D4F" d="M50.3,337.6l0.2,1.2c-0.4,0.1-0.8,0.1-1.1,0.1c-0.5,0-0.9-0.1-1.2-0.2c-0.3-0.2-0.5-0.4-0.6-0.6
					c-0.1-0.3-0.2-0.8-0.2-1.7v-4.8h-1v-1.1h1v-2.1l1.4-0.8v2.9h1.4v1.1h-1.4v4.9c0,0.4,0,0.7,0.1,0.8c0,0.1,0.1,0.2,0.2,0.3
					c0.1,0.1,0.3,0.1,0.5,0.1C49.8,337.6,50,337.6,50.3,337.6z"/>
				<path fill="#4D4D4F" d="M51.7,329v-1.6h1.4v1.6H51.7z M51.7,338.8v-8.3h1.4v8.3H51.7z"/>
				<path fill="#4D4D4F" d="M55,339.5l1.4,0.2c0.1,0.4,0.2,0.7,0.5,0.9c0.3,0.3,0.8,0.4,1.4,0.4c0.7,0,1.2-0.1,1.5-0.4
					c0.4-0.3,0.6-0.6,0.7-1.1c0.1-0.3,0.1-0.9,0.1-1.8c-0.6,0.7-1.4,1.1-2.3,1.1c-1.1,0-2-0.4-2.6-1.2c-0.6-0.8-0.9-1.8-0.9-3
					c0-0.8,0.1-1.5,0.4-2.2c0.3-0.7,0.7-1.2,1.2-1.6s1.2-0.5,1.9-0.5c1,0,1.8,0.4,2.4,1.2v-1H62v7.2c0,1.3-0.1,2.2-0.4,2.7
					s-0.7,1-1.2,1.3s-1.3,0.5-2.1,0.5c-1,0-1.8-0.2-2.4-0.7S54.9,340.4,55,339.5z M56.1,334.5c0,1.1,0.2,1.9,0.6,2.4s1,0.8,1.6,0.8
					c0.6,0,1.2-0.2,1.6-0.7c0.4-0.5,0.7-1.3,0.7-2.3c0-1-0.2-1.8-0.7-2.3c-0.5-0.5-1-0.8-1.6-0.8c-0.6,0-1.2,0.3-1.6,0.8
					S56.1,333.5,56.1,334.5z"/>
				<path fill="#4D4D4F" d="M69.6,338.8v-1.2c-0.6,0.9-1.5,1.4-2.6,1.4c-0.5,0-0.9-0.1-1.4-0.3c-0.4-0.2-0.7-0.4-0.9-0.7
					c-0.2-0.3-0.4-0.6-0.4-1c-0.1-0.3-0.1-0.7-0.1-1.3v-5.1h1.4v4.6c0,0.7,0,1.2,0.1,1.5c0.1,0.4,0.3,0.7,0.6,0.9s0.6,0.3,1.1,0.3
					s0.8-0.1,1.2-0.3c0.4-0.2,0.6-0.5,0.8-0.9c0.2-0.4,0.2-0.9,0.2-1.6v-4.4h1.4v8.3H69.6z"/>
				<path fill="#4D4D4F" d="M78.7,336.2l1.5,0.2c-0.2,0.9-0.7,1.5-1.3,2c-0.6,0.5-1.4,0.7-2.4,0.7c-1.2,0-2.2-0.4-2.9-1.1
					c-0.7-0.7-1.1-1.8-1.1-3.1c0-1.4,0.4-2.5,1.1-3.2c0.7-0.8,1.7-1.2,2.8-1.2c1.1,0,2,0.4,2.7,1.1c0.7,0.8,1.1,1.8,1.1,3.2
					c0,0.1,0,0.2,0,0.4H74c0.1,0.9,0.3,1.6,0.8,2.1c0.5,0.5,1,0.7,1.7,0.7c0.5,0,1-0.1,1.3-0.4C78.2,337.2,78.5,336.8,78.7,336.2z
					 M74.1,333.9h4.6c-0.1-0.7-0.2-1.2-0.5-1.6c-0.4-0.5-1-0.8-1.7-0.8c-0.6,0-1.2,0.2-1.6,0.6C74.4,332.6,74.1,333.2,74.1,333.9z"
					/>
			</g>
		</g>
		<g>
			<g enable-background="new    ">
				<path fill="#6BACA1" d="M10.6,16.2l2.8,0.9c-0.4,1.6-1.1,2.7-2.1,3.5S9,21.8,7.5,21.8c-1.9,0-3.5-0.6-4.7-1.9s-1.8-3.1-1.8-5.3
					c0-2.4,0.6-4.2,1.8-5.6s2.8-2,4.9-2c1.8,0,3.2,0.5,4.3,1.6c0.7,0.6,1.1,1.5,1.5,2.6l-2.9,0.7c-0.2-0.7-0.5-1.3-1.1-1.8
					s-1.2-0.6-2-0.6c-1.1,0-1.9,0.4-2.6,1.1s-1,2-1,3.7c0,1.8,0.3,3.1,1,3.9c0.7,0.8,1.5,1.2,2.5,1.2c0.8,0,1.4-0.2,2-0.7
					C10,18.1,10.4,17.3,10.6,16.2z"/>
				<path fill="#6BACA1" d="M15.2,16.2c0-0.9,0.2-1.8,0.7-2.6c0.4-0.9,1.1-1.5,1.9-2c0.8-0.4,1.7-0.7,2.8-0.7c1.6,0,2.9,0.5,3.9,1.5
					s1.5,2.3,1.5,3.9c0,1.6-0.5,2.9-1.5,3.9c-1,1-2.3,1.5-3.8,1.5c-1,0-1.9-0.2-2.7-0.6c-0.9-0.4-1.5-1.1-2-1.9S15.2,17.4,15.2,16.2
					z M18.1,16.3c0,1,0.2,1.8,0.7,2.4s1.1,0.8,1.8,0.8s1.3-0.3,1.8-0.8s0.7-1.3,0.7-2.4c0-1-0.2-1.8-0.7-2.3s-1.1-0.8-1.8-0.8
					s-1.3,0.3-1.8,0.8C18.3,14.5,18.1,15.3,18.1,16.3z"/>
				<path fill="#6BACA1" d="M27.9,11.1h2.5v1.4c0.9-1.1,2-1.6,3.2-1.6c0.7,0,1.2,0.1,1.7,0.4s0.9,0.7,1.2,1.2c0.5-0.6,0.9-1,1.5-1.2
					c0.5-0.3,1.1-0.4,1.7-0.4c0.8,0,1.4,0.2,1.9,0.5c0.5,0.3,0.9,0.8,1.2,1.4c0.2,0.4,0.3,1.2,0.3,2.1v6.6h-2.7v-5.9
					c0-1-0.1-1.7-0.3-2c-0.3-0.4-0.6-0.6-1.2-0.6c-0.4,0-0.7,0.1-1.1,0.4c-0.3,0.2-0.6,0.6-0.7,1c-0.1,0.5-0.2,1.2-0.2,2.1v5h-2.7
					v-5.7c0-1,0-1.7-0.1-2s-0.2-0.5-0.5-0.7c-0.2-0.1-0.5-0.2-0.8-0.2c-0.4,0-0.8,0.1-1.1,0.3s-0.6,0.6-0.7,1
					c-0.1,0.4-0.2,1.1-0.2,2.1v5h-2.7L27.9,11.1L27.9,11.1z"/>
				<path fill="#6BACA1" d="M45.7,11.1h2.5v1.4c0.9-1.1,2-1.6,3.2-1.6c0.7,0,1.2,0.1,1.7,0.4s0.9,0.7,1.2,1.2c0.5-0.6,0.9-1,1.5-1.2
					c0.5-0.3,1.1-0.4,1.7-0.4c0.8,0,1.4,0.2,1.9,0.5c0.5,0.3,0.9,0.8,1.2,1.4c0.2,0.4,0.3,1.2,0.3,2.1v6.6h-2.7v-5.9
					c0-1-0.1-1.7-0.3-2c-0.3-0.4-0.6-0.6-1.2-0.6c-0.4,0-0.7,0.1-1.1,0.4s-0.6,0.6-0.7,1c-0.1,0.5-0.2,1.2-0.2,2.1v5h-2.7v-5.7
					c0-1,0-1.7-0.1-2s-0.2-0.5-0.5-0.7c-0.2-0.1-0.5-0.2-0.8-0.2c-0.4,0-0.8,0.1-1.1,0.3c-0.3,0.2-0.6,0.6-0.7,1
					c-0.1,0.4-0.2,1.1-0.2,2.1v5h-2.7L45.7,11.1L45.7,11.1z"/>
				<path fill="#6BACA1" d="M63,16.2c0-0.9,0.2-1.8,0.7-2.6c0.4-0.9,1.1-1.5,1.9-2c0.8-0.4,1.7-0.7,2.8-0.7c1.6,0,2.9,0.5,3.9,1.5
					s1.5,2.3,1.5,3.9c0,1.6-0.5,2.9-1.5,3.9c-1,1-2.3,1.5-3.8,1.5c-1,0-1.9-0.2-2.7-0.6s-1.5-1.1-2-1.9C63.3,18.4,63,17.4,63,16.2z
					 M65.8,16.3c0,1,0.2,1.8,0.7,2.4s1.1,0.8,1.8,0.8s1.3-0.3,1.8-0.8c0.5-0.5,0.7-1.3,0.7-2.4c0-1-0.2-1.8-0.7-2.3
					s-1.1-0.8-1.8-0.8s-1.3,0.3-1.8,0.8C66.1,14.5,65.8,15.3,65.8,16.3z"/>
				<path fill="#6BACA1" d="M85.3,21.5h-2.7v-5.3c0-1.1-0.1-1.8-0.2-2.2c-0.1-0.3-0.3-0.6-0.6-0.8s-0.6-0.3-1-0.3
					c-0.5,0-0.9,0.1-1.3,0.4c-0.4,0.3-0.6,0.6-0.8,1s-0.2,1.2-0.2,2.4v4.7h-2.7V11.1h2.5v1.5c0.9-1.2,2-1.8,3.4-1.8
					c0.6,0,1.2,0.1,1.7,0.3c0.5,0.2,0.9,0.5,1.1,0.8s0.4,0.7,0.5,1.2c0.1,0.4,0.2,1,0.2,1.8L85.3,21.5L85.3,21.5z"/>
				<path fill="#6BACA1" d="M95.7,14.3l-2.5-0.4c0.3-1,0.8-1.7,1.4-2.2c0.7-0.5,1.7-0.7,3-0.7c1.2,0,2.1,0.1,2.7,0.4
					c0.6,0.3,1,0.7,1.3,1.1c0.2,0.4,0.4,1.3,0.4,2.5l0,3.2c0,0.9,0,1.6,0.1,2c0.1,0.4,0.3,0.9,0.5,1.4H100c-0.1-0.2-0.2-0.5-0.3-0.8
					c0-0.2-0.1-0.3-0.1-0.3c-0.5,0.5-1,0.8-1.5,1s-1.1,0.3-1.7,0.3c-1.1,0-1.9-0.3-2.5-0.9c-0.6-0.6-0.9-1.3-0.9-2.2
					c0-0.6,0.1-1.1,0.4-1.6s0.7-0.8,1.2-1.1c0.5-0.2,1.2-0.5,2.2-0.6c1.3-0.2,2.2-0.5,2.7-0.7v-0.3c0-0.5-0.1-0.9-0.4-1.1
					c-0.3-0.2-0.8-0.3-1.5-0.3c-0.5,0-0.9,0.1-1.1,0.3C96.1,13.5,95.9,13.8,95.7,14.3z M99.4,16.5c-0.4,0.1-0.9,0.3-1.7,0.4
					c-0.8,0.2-1.3,0.3-1.5,0.5c-0.4,0.3-0.5,0.6-0.5,1c0,0.4,0.1,0.7,0.4,1s0.7,0.4,1.1,0.4c0.5,0,1-0.2,1.4-0.5
					c0.3-0.2,0.6-0.6,0.7-0.9c0.1-0.2,0.1-0.7,0.1-1.3V16.5L99.4,16.5z"/>
				<path fill="#6BACA1" d="M114.3,21.5h-2.5V20c-0.4,0.6-0.9,1-1.5,1.3c-0.6,0.3-1.2,0.4-1.7,0.4c-1.2,0-2.2-0.5-3.1-1.4
					s-1.3-2.3-1.3-4c0-1.8,0.4-3.1,1.2-4s1.9-1.4,3.1-1.4c1.2,0,2.2,0.5,3,1.4V7.2h2.7V21.5L114.3,21.5z M107,16.1
					c0,1.1,0.2,1.9,0.5,2.4c0.4,0.7,1.1,1.1,1.9,1.1c0.6,0,1.2-0.3,1.6-0.8s0.7-1.3,0.7-2.4c0-1.2-0.2-2-0.6-2.6
					c-0.4-0.5-1-0.8-1.7-0.8c-0.7,0-1.2,0.3-1.6,0.8C107.2,14.3,107,15.1,107,16.1z"/>
				<path fill="#6BACA1" d="M119.8,21.5l-4.2-10.4h2.9l2,5.3l0.6,1.8c0.2-0.4,0.2-0.7,0.3-0.9c0.1-0.3,0.2-0.6,0.3-0.9l2-5.3h2.8
					l-4.1,10.4H119.8z"/>
				<path fill="#6BACA1" d="M134.1,18.2l2.7,0.5c-0.4,1-0.9,1.8-1.7,2.3c-0.8,0.5-1.7,0.8-2.8,0.8c-1.8,0-3.1-0.6-4-1.8
					c-0.7-0.9-1-2.1-1-3.6c0-1.7,0.4-3.1,1.3-4c0.9-1,2-1.5,3.4-1.5c1.5,0,2.8,0.5,3.7,1.5c0.9,1,1.3,2.6,1.3,4.7h-6.9
					c0,0.8,0.2,1.4,0.7,1.9s1,0.7,1.6,0.7c0.4,0,0.8-0.1,1.1-0.4C133.7,19.1,134,18.7,134.1,18.2z M134.3,15.4
					c0-0.8-0.2-1.4-0.6-1.8c-0.4-0.4-0.9-0.6-1.4-0.6c-0.6,0-1.1,0.2-1.5,0.7s-0.6,1-0.6,1.8L134.3,15.4L134.3,15.4z"/>
				<path fill="#6BACA1" d="M141.9,21.5h-2.7V11.1h2.5v1.5c0.4-0.7,0.8-1.2,1.2-1.4s0.7-0.3,1.2-0.3c0.6,0,1.2,0.2,1.8,0.5l-0.9,2.4
					c-0.5-0.3-0.9-0.4-1.3-0.4c-0.4,0-0.7,0.1-1,0.3s-0.5,0.6-0.6,1.1s-0.2,1.7-0.2,3.5L141.9,21.5L141.9,21.5z"/>
				<path fill="#6BACA1" d="M146.1,18.5l2.8-0.4c0.1,0.5,0.4,0.9,0.7,1.2c0.4,0.3,0.9,0.4,1.5,0.4c0.7,0,1.2-0.1,1.6-0.4
					c0.2-0.2,0.4-0.4,0.4-0.7c0-0.2-0.1-0.4-0.2-0.5c-0.1-0.1-0.4-0.2-0.9-0.4c-2.2-0.5-3.6-0.9-4.2-1.3c-0.8-0.6-1.2-1.3-1.2-2.3
					c0-0.9,0.4-1.7,1.1-2.3c0.7-0.6,1.8-0.9,3.3-0.9c1.4,0,2.5,0.2,3.2,0.7c0.7,0.5,1.2,1.1,1.4,2.1l-2.6,0.5
					c-0.1-0.4-0.3-0.7-0.6-0.9c-0.3-0.2-0.8-0.3-1.3-0.3c-0.7,0-1.2,0.1-1.6,0.3c-0.2,0.1-0.3,0.3-0.3,0.6c0,0.2,0.1,0.4,0.3,0.5
					c0.2,0.2,1.1,0.4,2.6,0.8c1.5,0.3,2.5,0.7,3.1,1.2c0.6,0.5,0.9,1.2,0.9,2c0,1-0.4,1.8-1.2,2.5c-0.8,0.7-2,1-3.5,1
					c-1.4,0-2.5-0.3-3.4-0.9C146.8,20.3,146.3,19.5,146.1,18.5z"/>
				<path fill="#6BACA1" d="M164.1,18.2l2.7,0.5c-0.4,1-0.9,1.8-1.7,2.3c-0.8,0.5-1.7,0.8-2.8,0.8c-1.8,0-3.1-0.6-4-1.8
					c-0.7-0.9-1-2.1-1-3.6c0-1.7,0.4-3.1,1.3-4c0.9-1,2-1.5,3.4-1.5c1.5,0,2.8,0.5,3.7,1.5s1.3,2.6,1.3,4.7h-6.9
					c0,0.8,0.2,1.4,0.7,1.9s1,0.7,1.6,0.7c0.4,0,0.8-0.1,1.1-0.4C163.8,19.1,164,18.7,164.1,18.2z M164.3,15.4
					c0-0.8-0.2-1.4-0.6-1.8s-0.9-0.6-1.4-0.6c-0.6,0-1.1,0.2-1.5,0.7c-0.4,0.4-0.6,1-0.6,1.8L164.3,15.4L164.3,15.4z"/>
				<path fill="#6BACA1" d="M180.8,18.2l2.7,0.5c-0.4,1-0.9,1.8-1.7,2.3c-0.8,0.5-1.7,0.8-2.8,0.8c-1.8,0-3.1-0.6-4-1.8
					c-0.7-0.9-1-2.1-1-3.6c0-1.7,0.4-3.1,1.3-4c0.9-1,2-1.5,3.4-1.5c1.5,0,2.8,0.5,3.7,1.5s1.3,2.6,1.3,4.7h-6.9
					c0,0.8,0.2,1.4,0.7,1.9s1,0.7,1.6,0.7c0.4,0,0.8-0.1,1.1-0.4C180.5,19.1,180.7,18.7,180.8,18.2z M181,15.4
					c0-0.8-0.2-1.4-0.6-1.8c-0.4-0.4-0.9-0.6-1.4-0.6c-0.6,0-1.1,0.2-1.5,0.7s-0.6,1-0.6,1.8L181,15.4L181,15.4z"/>
				<path fill="#6BACA1" d="M188.8,21.5l-4.2-10.4h2.9l2,5.3l0.6,1.8c0.1-0.4,0.2-0.7,0.3-0.9c0.1-0.3,0.2-0.6,0.3-0.9l2-5.3h2.8
					l-4.1,10.4H188.8z"/>
				<path fill="#6BACA1" d="M203.1,18.2l2.7,0.5c-0.4,1-0.9,1.8-1.7,2.3c-0.8,0.5-1.7,0.8-2.8,0.8c-1.8,0-3.1-0.6-4-1.8
					c-0.7-0.9-1-2.1-1-3.6c0-1.7,0.4-3.1,1.3-4c0.9-1,2-1.5,3.4-1.5c1.5,0,2.8,0.5,3.7,1.5c0.9,1,1.3,2.6,1.3,4.7h-6.9
					c0,0.8,0.2,1.4,0.7,1.9s1,0.7,1.6,0.7c0.4,0,0.8-0.1,1.1-0.4C202.7,19.1,202.9,18.7,203.1,18.2z M203.2,15.4
					c0-0.8-0.2-1.4-0.6-1.8c-0.4-0.4-0.9-0.6-1.4-0.6c-0.6,0-1.1,0.2-1.5,0.7s-0.6,1-0.6,1.8L203.2,15.4L203.2,15.4z"/>
				<path fill="#6BACA1" d="M217.6,21.5h-2.7v-5.3c0-1.1-0.1-1.8-0.2-2.2c-0.1-0.3-0.3-0.6-0.6-0.8s-0.6-0.3-1-0.3
					c-0.5,0-0.9,0.1-1.3,0.4c-0.4,0.3-0.6,0.6-0.8,1c-0.1,0.4-0.2,1.2-0.2,2.4v4.7h-2.7V11.1h2.5v1.5c0.9-1.2,2-1.8,3.4-1.8
					c0.6,0,1.2,0.1,1.7,0.3c0.5,0.2,0.9,0.5,1.1,0.8s0.4,0.7,0.5,1.2c0.1,0.4,0.2,1,0.2,1.8L217.6,21.5L217.6,21.5z"/>
				<path fill="#6BACA1" d="M225.2,11.1v2.2h-1.9v4.2c0,0.8,0,1.3,0.1,1.5s0.1,0.3,0.2,0.3c0.1,0.1,0.3,0.1,0.5,0.1
					c0.3,0,0.6-0.1,1.1-0.3l0.2,2.1c-0.6,0.3-1.4,0.4-2.2,0.4c-0.5,0-0.9-0.1-1.3-0.2s-0.7-0.4-0.9-0.6s-0.3-0.6-0.4-1.1
					c-0.1-0.3-0.1-1-0.1-1.9v-4.5h-1.3v-2.2h1.3V9.1l2.8-1.6v3.7L225.2,11.1L225.2,11.1z"/>
				<path fill="#6BACA1" d="M226.1,18.5l2.8-0.4c0.1,0.5,0.4,0.9,0.7,1.2c0.4,0.3,0.9,0.4,1.5,0.4c0.7,0,1.2-0.1,1.6-0.4
					c0.2-0.2,0.4-0.4,0.4-0.7c0-0.2-0.1-0.4-0.2-0.5c-0.1-0.1-0.4-0.2-0.9-0.4c-2.2-0.5-3.6-0.9-4.2-1.3c-0.8-0.6-1.2-1.3-1.2-2.3
					c0-0.9,0.4-1.7,1.1-2.3c0.7-0.6,1.8-0.9,3.3-0.9c1.4,0,2.5,0.2,3.2,0.7c0.7,0.5,1.2,1.1,1.4,2.1l-2.6,0.5
					c-0.1-0.4-0.3-0.7-0.6-0.9c-0.3-0.2-0.8-0.3-1.3-0.3c-0.7,0-1.2,0.1-1.6,0.3c-0.2,0.1-0.3,0.3-0.3,0.6c0,0.2,0.1,0.4,0.3,0.5
					c0.2,0.2,1.1,0.4,2.6,0.8s2.5,0.7,3.1,1.2c0.6,0.5,0.9,1.2,0.9,2c0,1-0.4,1.8-1.2,2.5c-0.8,0.7-2,1-3.5,1
					c-1.4,0-2.5-0.3-3.4-0.9C226.9,20.3,226.4,19.5,226.1,18.5z"/>
			</g>
		</g>
		
			<line opacity="0.5" fill="none" stroke="#4D4D4F" stroke-width="1.0383" stroke-linecap="round" stroke-linejoin="round" stroke-miterlimit="10" stroke-dasharray="0,2.7689" enable-background="new    " x1="0" y1="234" x2="759.4" y2="234"/>
		
			<line opacity="0.5" fill="none" stroke="#4D4D4F" stroke-width="1.0383" stroke-linecap="round" stroke-linejoin="round" stroke-miterlimit="10" stroke-dasharray="0,2.7689" enable-background="new    " x1="0" y1="314" x2="759.4" y2="314"/>
		
			<line opacity="0.5" fill="none" stroke="#4D4D4F" stroke-width="1.0383" stroke-linecap="round" stroke-linejoin="round" stroke-miterlimit="10" stroke-dasharray="0,2.7689" enable-background="new    " x1="0" y1="114" x2="759.4" y2="114"/>
		<rect x="608.5" y="30.3" opacity="0.3" fill="#DBDBDC" enable-background="new    " width="151.9" height="123.8"/>
		<rect x="608.5" y="274" opacity="0.3" fill="#DBDBDC" enable-background="new    " width="151.9" height="79"/>
		<rect x="455.6" y="0" fill="#ECF6F2" width="153" height="34"/>
		<rect x="608.5" y="0" opacity="0.8" fill="#DBDBDC" enable-background="new    " width="151.9" height="34"/>
		<g>
			<g enable-background="new    ">
				<path fill="#4D4D4F" d="M478.2,17.1c0-0.9,0.1-1.7,0.4-2.3c0.2-0.5,0.5-0.9,0.8-1.2c0.4-0.4,0.7-0.6,1.1-0.8
					c0.6-0.2,1.2-0.4,1.9-0.4c1.3,0,2.4,0.4,3.2,1.2s1.2,1.9,1.2,3.4c0,1.4-0.4,2.6-1.2,3.4c-0.8,0.8-1.8,1.2-3.1,1.2
					c-1.3,0-2.4-0.4-3.2-1.2C478.6,19.6,478.2,18.5,478.2,17.1z M480.1,17c0,1,0.2,1.8,0.7,2.3s1.1,0.8,1.8,0.8
					c0.7,0,1.3-0.3,1.8-0.8c0.5-0.5,0.7-1.3,0.7-2.3c0-1-0.2-1.8-0.7-2.3c-0.4-0.5-1-0.8-1.8-0.8c-0.7,0-1.3,0.3-1.8,0.8
					C480.3,15.2,480.1,16,480.1,17z"/>
				<path fill="#4D4D4F" d="M488.2,15h1.6V16c0.2-0.3,0.5-0.6,0.8-0.8c0.4-0.2,0.7-0.3,1.2-0.3c0.8,0,1.4,0.3,1.9,0.9
					c0.5,0.6,0.8,1.4,0.8,2.5c0,1.1-0.3,1.9-0.8,2.5c-0.5,0.6-1.2,0.9-1.9,0.9c-0.4,0-0.7-0.1-1-0.2c-0.3-0.1-0.6-0.4-0.9-0.7V24
					h-1.7L488.2,15L488.2,15z M489.9,18.2c0,0.7,0.1,1.3,0.4,1.6c0.3,0.3,0.6,0.5,1.1,0.5c0.4,0,0.7-0.2,1-0.5
					c0.3-0.3,0.4-0.8,0.4-1.6c0-0.7-0.1-1.2-0.4-1.5c-0.3-0.3-0.6-0.5-1-0.5c-0.4,0-0.8,0.2-1,0.5C490,17.1,489.9,17.5,489.9,18.2z"
					/>
				<path fill="#4D4D4F" d="M498.8,15v1.4h-1.2V19c0,0.5,0,0.8,0,0.9c0,0.1,0.1,0.2,0.1,0.2c0.1,0.1,0.2,0.1,0.3,0.1
					c0.2,0,0.4-0.1,0.7-0.2l0.1,1.3c-0.4,0.2-0.8,0.3-1.4,0.3c-0.3,0-0.6-0.1-0.8-0.2c-0.2-0.1-0.4-0.2-0.5-0.4
					c-0.1-0.2-0.2-0.4-0.2-0.7c0-0.2-0.1-0.6-0.1-1.2v-2.8h-0.8V15h0.8v-1.3l1.7-1V15L498.8,15L498.8,15z"/>
				<path fill="#4D4D4F" d="M500,14.2v-1.6h1.7v1.6H500z M500,21.5V15h1.7v6.5H500z"/>
				<path fill="#4D4D4F" d="M502.9,19.7l1.7-0.3c0.1,0.3,0.2,0.6,0.4,0.8c0.2,0.2,0.5,0.3,0.9,0.3c0.4,0,0.8-0.1,1-0.2
					c0.1-0.1,0.2-0.3,0.2-0.5c0-0.1,0-0.2-0.1-0.3c-0.1-0.1-0.3-0.2-0.6-0.2c-1.4-0.3-2.3-0.6-2.6-0.8c-0.5-0.4-0.8-0.8-0.8-1.5
					c0-0.6,0.2-1,0.7-1.4c0.4-0.4,1.1-0.6,2.1-0.6c0.9,0,1.5,0.1,2,0.4c0.4,0.3,0.7,0.7,0.9,1.3l-1.6,0.3c-0.1-0.2-0.2-0.4-0.4-0.6
					c-0.2-0.1-0.5-0.2-0.8-0.2c-0.4,0-0.8,0.1-1,0.2c-0.1,0.1-0.2,0.2-0.2,0.3c0,0.1,0.1,0.2,0.2,0.3c0.2,0.1,0.7,0.3,1.6,0.5
					s1.5,0.5,1.9,0.8c0.4,0.3,0.5,0.7,0.5,1.3c0,0.6-0.2,1.1-0.7,1.5c-0.5,0.4-1.2,0.6-2.2,0.6c-0.9,0-1.6-0.2-2.1-0.5
					C503.4,20.8,503,20.3,502.9,19.7z"/>
				<path fill="#4D4D4F" d="M513.4,15v1.4h-1.2V19c0,0.5,0,0.8,0,0.9c0,0.1,0.1,0.2,0.2,0.2c0.1,0.1,0.2,0.1,0.3,0.1
					c0.2,0,0.4-0.1,0.7-0.2l0.1,1.3c-0.4,0.2-0.8,0.3-1.4,0.3c-0.3,0-0.6-0.1-0.8-0.2c-0.2-0.1-0.4-0.2-0.5-0.4
					c-0.1-0.2-0.2-0.4-0.2-0.7c0-0.2-0.1-0.6-0.1-1.2v-2.8h-0.8V15h0.8v-1.3l1.7-1V15L513.4,15L513.4,15z"/>
				<path fill="#4D4D4F" d="M515.8,17l-1.6-0.3c0.2-0.6,0.5-1.1,0.9-1.4c0.4-0.3,1.1-0.4,1.9-0.4c0.8,0,1.3,0.1,1.7,0.3
					s0.6,0.4,0.8,0.7c0.2,0.3,0.2,0.8,0.2,1.5l0,2c0,0.6,0,1,0.1,1.3c0.1,0.3,0.2,0.6,0.3,0.9h-1.7c0-0.1-0.1-0.3-0.2-0.5
					c0-0.1,0-0.2-0.1-0.2c-0.3,0.3-0.6,0.5-0.9,0.6c-0.3,0.1-0.7,0.2-1.1,0.2c-0.7,0-1.2-0.2-1.6-0.5c-0.4-0.4-0.6-0.8-0.6-1.4
					c0-0.4,0.1-0.7,0.3-1c0.2-0.3,0.4-0.5,0.7-0.7c0.3-0.2,0.8-0.3,1.4-0.4c0.8-0.1,1.4-0.3,1.7-0.4v-0.2c0-0.3-0.1-0.6-0.2-0.7
					c-0.2-0.1-0.5-0.2-0.9-0.2c-0.3,0-0.5,0.1-0.7,0.2C516.1,16.5,516,16.7,515.8,17z M518.1,18.4c-0.2,0.1-0.6,0.2-1,0.3
					c-0.5,0.1-0.8,0.2-0.9,0.3c-0.2,0.2-0.3,0.4-0.3,0.6c0,0.2,0.1,0.4,0.3,0.6c0.2,0.2,0.4,0.3,0.7,0.3c0.3,0,0.6-0.1,0.9-0.3
					c0.2-0.2,0.3-0.3,0.4-0.6c0-0.1,0.1-0.4,0.1-0.8V18.4z"/>
				<path fill="#4D4D4F" d="M523.3,21.5l-2.6-6.5h1.8l1.2,3.3l0.4,1.1c0.1-0.3,0.2-0.5,0.2-0.6c0.1-0.2,0.1-0.4,0.2-0.5l1.2-3.3h1.8
					l-2.6,6.5L523.3,21.5L523.3,21.5z"/>
				<path fill="#4D4D4F" d="M528.4,14.2v-1.6h1.7v1.6H528.4z M528.4,21.5V15h1.7v6.5H528.4z"/>
				<path fill="#4D4D4F" d="M537.8,21.5h-1.7v-3.3c0-0.7,0-1.1-0.1-1.4c-0.1-0.2-0.2-0.4-0.4-0.5c-0.2-0.1-0.4-0.2-0.6-0.2
					c-0.3,0-0.6,0.1-0.8,0.2c-0.2,0.2-0.4,0.4-0.5,0.6c-0.1,0.3-0.1,0.8-0.1,1.5v2.9h-1.7V15h1.6V16c0.6-0.7,1.3-1.1,2.1-1.1
					c0.4,0,0.7,0.1,1,0.2c0.3,0.1,0.5,0.3,0.7,0.5c0.2,0.2,0.3,0.5,0.3,0.7c0.1,0.3,0.1,0.6,0.1,1.1L537.8,21.5L537.8,21.5z"/>
			</g>
			<g enable-background="new    ">
				<path fill="#4D4D4F" d="M545,24.1c-0.6-0.8-1.1-1.7-1.5-2.7c-0.4-1-0.6-2.1-0.6-3.2c0-1,0.2-1.9,0.5-2.8c0.4-1,0.9-2,1.7-3.1
					h0.8c-0.5,0.8-0.8,1.4-1,1.8c-0.2,0.6-0.4,1.1-0.6,1.8c-0.2,0.8-0.3,1.5-0.3,2.3c0,2,0.6,3.9,1.8,5.8L545,24.1L545,24.1z"/>
				<path fill="#4D4D4F" d="M547,21.5V15h1V16c0.5-0.7,1.2-1.1,2.1-1.1c0.4,0,0.7,0.1,1.1,0.2c0.3,0.1,0.6,0.3,0.7,0.6
					c0.2,0.2,0.3,0.5,0.3,0.8c0,0.2,0.1,0.6,0.1,1.1v4h-1.1v-3.9c0-0.4,0-0.8-0.1-1c-0.1-0.2-0.2-0.4-0.5-0.5
					c-0.2-0.1-0.5-0.2-0.8-0.2c-0.5,0-0.9,0.1-1.2,0.4c-0.3,0.3-0.5,0.9-0.5,1.7v3.5L547,21.5L547,21.5z"/>
				<path fill="#4D4D4F" d="M559.7,16.3h-5.9v-1h5.9V16.3z M559.7,19h-5.9v-1h5.9V19z"/>
				<path fill="#4D4D4F" d="M560.9,19.2L562,19c0.1,0.6,0.3,1.1,0.6,1.3c0.3,0.3,0.7,0.4,1.1,0.4c0.5,0,0.9-0.2,1.3-0.5
					c0.4-0.4,0.5-0.8,0.5-1.3c0-0.5-0.2-0.9-0.5-1.2s-0.7-0.5-1.3-0.5c-0.2,0-0.5,0-0.8,0.1l0.1-1c0.1,0,0.1,0,0.2,0
					c0.5,0,0.9-0.1,1.3-0.4c0.4-0.2,0.6-0.6,0.6-1.1c0-0.4-0.1-0.7-0.4-1c-0.3-0.3-0.6-0.4-1.1-0.4c-0.4,0-0.8,0.1-1.1,0.4
					c-0.3,0.3-0.5,0.7-0.5,1.2l-1.1-0.2c0.1-0.7,0.4-1.3,0.9-1.7c0.5-0.4,1.1-0.6,1.8-0.6c0.5,0,0.9,0.1,1.3,0.3
					c0.4,0.2,0.7,0.5,0.9,0.9c0.2,0.4,0.3,0.7,0.3,1.1c0,0.4-0.1,0.7-0.3,1.1c-0.2,0.3-0.5,0.6-0.9,0.8c0.5,0.1,0.9,0.4,1.2,0.8
					c0.3,0.4,0.4,0.9,0.4,1.4c0,0.8-0.3,1.4-0.9,2c-0.6,0.5-1.3,0.8-2.2,0.8c-0.8,0-1.4-0.2-1.9-0.7C561.3,20.5,561,19.9,560.9,19.2
					z"/>
				<path fill="#4D4D4F" d="M567.9,19.2L569,19c0.1,0.6,0.3,1.1,0.6,1.3c0.3,0.3,0.7,0.4,1.1,0.4c0.5,0,0.9-0.2,1.3-0.5
					c0.4-0.4,0.5-0.8,0.5-1.3c0-0.5-0.2-0.9-0.5-1.2c-0.3-0.3-0.7-0.5-1.3-0.5c-0.2,0-0.5,0-0.8,0.1l0.1-1c0.1,0,0.1,0,0.2,0
					c0.5,0,0.9-0.1,1.3-0.4c0.4-0.2,0.6-0.6,0.6-1.1c0-0.4-0.1-0.7-0.4-1c-0.3-0.3-0.6-0.4-1.1-0.4c-0.4,0-0.8,0.1-1.1,0.4
					c-0.3,0.3-0.5,0.7-0.5,1.2l-1.1-0.2c0.1-0.7,0.4-1.3,0.9-1.7c0.5-0.4,1.1-0.6,1.8-0.6c0.5,0,0.9,0.1,1.3,0.3
					c0.4,0.2,0.7,0.5,0.9,0.9c0.2,0.4,0.3,0.7,0.3,1.1c0,0.4-0.1,0.7-0.3,1.1c-0.2,0.3-0.5,0.6-0.9,0.8c0.5,0.1,0.9,0.4,1.2,0.8
					c0.3,0.4,0.4,0.9,0.4,1.4c0,0.8-0.3,1.4-0.9,2c-0.6,0.5-1.3,0.8-2.2,0.8c-0.8,0-1.4-0.2-2-0.7C568.2,20.5,567.9,19.9,567.9,19.2
					z"/>
				<path fill="#4D4D4F" d="M580.6,20.5v1.1h-5.9c0-0.3,0-0.5,0.1-0.8c0.1-0.4,0.4-0.8,0.7-1.2s0.8-0.8,1.4-1.4c1-0.8,1.6-1.4,2-1.9
					c0.3-0.5,0.5-0.9,0.5-1.3c0-0.4-0.2-0.8-0.5-1.1c-0.3-0.3-0.7-0.4-1.2-0.4c-0.5,0-0.9,0.2-1.3,0.5c-0.3,0.3-0.5,0.8-0.5,1.3
					l-1.1-0.1c0.1-0.8,0.4-1.5,0.9-1.9c0.5-0.4,1.2-0.7,2-0.7c0.9,0,1.5,0.2,2,0.7c0.5,0.5,0.7,1.1,0.7,1.8c0,0.4-0.1,0.7-0.2,1.1
					c-0.1,0.3-0.4,0.7-0.7,1.1c-0.3,0.4-0.9,0.9-1.7,1.6c-0.7,0.6-1.1,0.9-1.3,1.1c-0.2,0.2-0.3,0.4-0.5,0.6H580.6z"/>
				<path fill="#4D4D4F" d="M582.8,24.1H582c1.2-1.9,1.8-3.9,1.8-5.8c0-0.8-0.1-1.5-0.3-2.3c-0.1-0.6-0.3-1.2-0.6-1.8
					c-0.2-0.4-0.5-1-1-1.8h0.8c0.8,1,1.3,2,1.7,3.1c0.3,0.9,0.5,1.8,0.5,2.8c0,1.1-0.2,2.2-0.6,3.2
					C583.9,22.5,583.4,23.4,582.8,24.1z"/>
			</g>
		</g>
		<g>
			<g enable-background="new    ">
				<path fill="#4D4D4F" d="M644.2,18.2l1.7,0.6c-0.3,1-0.7,1.7-1.3,2.2s-1.4,0.7-2.4,0.7c-1.2,0-2.2-0.4-2.9-1.2
					c-0.8-0.8-1.1-1.9-1.1-3.3c0-1.5,0.4-2.6,1.1-3.5c0.8-0.8,1.8-1.2,3-1.2c1.1,0,2,0.3,2.7,1c0.4,0.4,0.7,0.9,0.9,1.6l-1.8,0.4
					c-0.1-0.5-0.3-0.8-0.7-1.1c-0.3-0.3-0.7-0.4-1.2-0.4c-0.7,0-1.2,0.2-1.6,0.7c-0.4,0.5-0.6,1.2-0.6,2.3c0,1.1,0.2,1.9,0.6,2.4
					c0.4,0.5,0.9,0.7,1.6,0.7c0.5,0,0.9-0.2,1.2-0.5C643.8,19.4,644.1,18.9,644.2,18.2z"/>
				<path fill="#4D4D4F" d="M647.1,18.2c0-0.6,0.1-1.1,0.4-1.6c0.3-0.5,0.7-0.9,1.2-1.2c0.5-0.3,1.1-0.4,1.7-0.4c1,0,1.8,0.3,2.4,1
					c0.6,0.6,0.9,1.4,0.9,2.4c0,1-0.3,1.8-0.9,2.4s-1.4,1-2.4,1c-0.6,0-1.2-0.1-1.7-0.4s-0.9-0.7-1.2-1.2
					C647.2,19.6,647.1,18.9,647.1,18.2z M648.8,18.3c0,0.6,0.2,1.1,0.5,1.5c0.3,0.3,0.7,0.5,1.1,0.5c0.4,0,0.8-0.2,1.1-0.5
					c0.3-0.3,0.5-0.8,0.5-1.5c0-0.6-0.2-1.1-0.5-1.5c-0.3-0.3-0.7-0.5-1.1-0.5c-0.4,0-0.8,0.2-1.1,0.5
					C649,17.1,648.8,17.6,648.8,18.3z"/>
				<path fill="#4D4D4F" d="M661,21.5h-1.7v-3.3c0-0.7,0-1.1-0.1-1.4c-0.1-0.2-0.2-0.4-0.4-0.5c-0.2-0.1-0.4-0.2-0.6-0.2
					c-0.3,0-0.6,0.1-0.8,0.2c-0.2,0.2-0.4,0.4-0.5,0.6c-0.1,0.3-0.1,0.8-0.1,1.5v2.9h-1.7V15h1.6V16c0.6-0.7,1.3-1.1,2.1-1.1
					c0.4,0,0.7,0.1,1,0.2c0.3,0.1,0.5,0.3,0.7,0.5c0.2,0.2,0.3,0.5,0.3,0.7c0.1,0.3,0.1,0.6,0.1,1.1L661,21.5L661,21.5z"/>
				<path fill="#4D4D4F" d="M665.7,15v1.4h-1.2V19c0,0.5,0,0.8,0,0.9c0,0.1,0.1,0.2,0.1,0.2c0.1,0.1,0.2,0.1,0.3,0.1
					c0.2,0,0.4-0.1,0.7-0.2l0.1,1.3c-0.4,0.2-0.8,0.3-1.4,0.3c-0.3,0-0.6-0.1-0.8-0.2s-0.4-0.2-0.5-0.4c-0.1-0.2-0.2-0.4-0.2-0.7
					c0-0.2-0.1-0.6-0.1-1.2v-2.8H662V15h0.8v-1.3l1.7-1V15L665.7,15L665.7,15z"/>
				<path fill="#4D4D4F" d="M668.5,21.5h-1.7V15h1.6V16c0.3-0.4,0.5-0.7,0.7-0.9c0.2-0.1,0.5-0.2,0.7-0.2c0.4,0,0.8,0.1,1.1,0.3
					l-0.5,1.5c-0.3-0.2-0.6-0.3-0.8-0.3c-0.2,0-0.4,0.1-0.6,0.2c-0.2,0.1-0.3,0.4-0.4,0.7c-0.1,0.3-0.1,1.1-0.1,2.2L668.5,21.5
					L668.5,21.5z"/>
				<path fill="#4D4D4F" d="M671.3,18.2c0-0.6,0.1-1.1,0.4-1.6c0.3-0.5,0.7-0.9,1.2-1.2c0.5-0.3,1.1-0.4,1.7-0.4c1,0,1.8,0.3,2.4,1
					c0.6,0.6,0.9,1.4,0.9,2.4c0,1-0.3,1.8-0.9,2.4s-1.4,1-2.4,1c-0.6,0-1.2-0.1-1.7-0.4c-0.5-0.3-0.9-0.7-1.2-1.2
					C671.5,19.6,671.3,18.9,671.3,18.2z M673.1,18.3c0,0.6,0.2,1.1,0.5,1.5c0.3,0.3,0.7,0.5,1.1,0.5c0.4,0,0.8-0.2,1.1-0.5
					c0.3-0.3,0.5-0.8,0.5-1.5c0-0.6-0.2-1.1-0.5-1.5c-0.3-0.3-0.7-0.5-1.1-0.5c-0.4,0-0.8,0.2-1.1,0.5
					C673.2,17.1,673.1,17.6,673.1,18.3z"/>
				<path fill="#4D4D4F" d="M679.3,21.5v-8.9h1.7v8.9H679.3z"/>
			</g>
			<g enable-background="new    ">
				<path fill="#4D4D4F" d="M688.3,24.1c-0.6-0.8-1.1-1.7-1.5-2.7c-0.4-1-0.6-2.1-0.6-3.2c0-1,0.2-1.9,0.5-2.8c0.4-1,0.9-2,1.7-3.1
					h0.8c-0.5,0.8-0.8,1.4-1,1.8c-0.2,0.6-0.4,1.1-0.6,1.8c-0.2,0.8-0.3,1.5-0.3,2.3c0,2,0.6,3.9,1.8,5.8L688.3,24.1L688.3,24.1z"/>
				<path fill="#4D4D4F" d="M690.3,21.5V15h1V16c0.5-0.7,1.2-1.1,2.1-1.1c0.4,0,0.7,0.1,1.1,0.2c0.3,0.1,0.6,0.3,0.7,0.6
					c0.2,0.2,0.3,0.5,0.3,0.8c0,0.2,0.1,0.6,0.1,1.1v4h-1.1v-3.9c0-0.4,0-0.8-0.1-1c-0.1-0.2-0.2-0.4-0.5-0.5
					c-0.2-0.1-0.5-0.2-0.8-0.2c-0.5,0-0.9,0.1-1.2,0.4c-0.3,0.3-0.5,0.9-0.5,1.7v3.5L690.3,21.5L690.3,21.5z"/>
				<path fill="#4D4D4F" d="M703,16.3h-5.9v-1h5.9V16.3z M703,19h-5.9v-1h5.9V19z"/>
				<path fill="#4D4D4F" d="M708.3,21.5h-1.1v-7c-0.3,0.3-0.6,0.5-1,0.8c-0.4,0.3-0.8,0.4-1.2,0.6v-1.1c0.6-0.3,1.1-0.6,1.6-1
					c0.5-0.4,0.8-0.8,1-1.2h0.7V21.5z"/>
				<path fill="#4D4D4F" d="M711.1,19.2l1.1-0.1c0.1,0.6,0.3,1,0.6,1.3c0.3,0.3,0.7,0.4,1.1,0.4c0.5,0,1-0.2,1.3-0.6
					c0.4-0.4,0.5-0.9,0.5-1.6c0-0.6-0.2-1.1-0.5-1.5c-0.4-0.4-0.8-0.5-1.4-0.5c-0.4,0-0.7,0.1-1,0.2c-0.3,0.2-0.5,0.4-0.7,0.6
					l-1-0.1l0.9-4.6h4.4v1h-3.6l-0.5,2.4c0.5-0.4,1.1-0.6,1.7-0.6c0.8,0,1.4,0.3,2,0.8c0.5,0.5,0.8,1.2,0.8,2.1
					c0,0.8-0.2,1.5-0.7,2.1c-0.6,0.7-1.4,1.1-2.3,1.1c-0.8,0-1.5-0.2-2-0.7C711.5,20.5,711.2,19.9,711.1,19.2z"/>
				<path fill="#4D4D4F" d="M718.1,19.2l1.2-0.1c0.1,0.6,0.3,1,0.6,1.3c0.3,0.3,0.7,0.4,1.1,0.4c0.5,0,1-0.2,1.3-0.6
					c0.4-0.4,0.5-0.9,0.5-1.6c0-0.6-0.2-1.1-0.5-1.5s-0.8-0.5-1.4-0.5c-0.4,0-0.7,0.1-1,0.2c-0.3,0.2-0.5,0.4-0.7,0.6l-1-0.1
					l0.9-4.6h4.4v1H720l-0.5,2.4c0.5-0.4,1.1-0.6,1.7-0.6c0.8,0,1.4,0.3,2,0.8c0.5,0.5,0.8,1.2,0.8,2.1c0,0.8-0.2,1.5-0.7,2.1
					c-0.6,0.7-1.4,1.1-2.3,1.1c-0.8,0-1.5-0.2-2-0.7C718.4,20.5,718.2,19.9,718.1,19.2z"/>
				<path fill="#4D4D4F" d="M726,24.1h-0.8c1.2-1.9,1.8-3.9,1.8-5.8c0-0.8-0.1-1.5-0.3-2.3c-0.1-0.6-0.3-1.2-0.6-1.8
					c-0.2-0.4-0.5-1-1-1.8h0.8c0.8,1,1.3,2,1.7,3.1c0.3,0.9,0.5,1.8,0.5,2.8c0,1.1-0.2,2.2-0.6,3.2C727.1,22.5,726.6,23.4,726,24.1z
					"/>
			</g>
		</g>
		<line fill="none" stroke="#D6ECE6" stroke-width="2.7689" stroke-miterlimit="10" x1="0" y1="34" x2="759.4" y2="34"/>
		
			<line opacity="0.5" fill="none" stroke="#4D4D4F" stroke-width="1.0383" stroke-linecap="round" stroke-linejoin="round" stroke-miterlimit="10" stroke-dasharray="0,2.7689" enable-background="new    " x1="0" y1="74" x2="759.4" y2="74"/>
		
			<line opacity="0.5" fill="none" stroke="#4D4D4F" stroke-width="1.0383" stroke-linecap="round" stroke-linejoin="round" stroke-miterlimit="10" stroke-dasharray="0,2.7689" enable-background="new    " x1="0" y1="194" x2="759.4" y2="194"/>
		<line fill="none" stroke="#D6ECE6" stroke-width="2.7689" stroke-miterlimit="10" x1="0" y1="154" x2="759.4" y2="154"/>
		<g>
			<g enable-background="new    ">
				<path fill="#4D4D4F" d="M28.7,99V87.6h3.9c0.9,0,1.6,0.1,2,0.2c0.7,0.2,1.2,0.4,1.7,0.8c0.6,0.5,1.1,1.2,1.4,2
					c0.3,0.8,0.4,1.7,0.4,2.7c0,0.9-0.1,1.6-0.3,2.3s-0.5,1.2-0.8,1.7c-0.3,0.4-0.7,0.8-1,1c-0.4,0.3-0.8,0.4-1.4,0.6
					S33.6,99,32.9,99L28.7,99L28.7,99z M30.2,97.7h2.4c0.8,0,1.3-0.1,1.8-0.2c0.4-0.1,0.8-0.3,1-0.6c0.4-0.4,0.6-0.8,0.8-1.4
					c0.2-0.6,0.3-1.3,0.3-2.2c0-1.2-0.2-2.1-0.6-2.8c-0.4-0.6-0.9-1.1-1.4-1.3c-0.4-0.2-1.1-0.2-2-0.2h-2.4L30.2,97.7L30.2,97.7z"/>
				<path fill="#4D4D4F" d="M40.1,89.2v-1.6h1.4v1.6H40.1z M40.1,99v-8.3h1.4V99H40.1z"/>
				<path fill="#4D4D4F" d="M49.1,98c-0.5,0.4-1,0.8-1.5,0.9c-0.5,0.2-1,0.3-1.6,0.3c-0.9,0-1.6-0.2-2.1-0.7c-0.5-0.4-0.7-1-0.7-1.7
					c0-0.4,0.1-0.8,0.3-1.1s0.4-0.6,0.7-0.8c0.3-0.2,0.6-0.4,1-0.5c0.3-0.1,0.7-0.1,1.2-0.2c1.1-0.1,2-0.3,2.5-0.5
					c0-0.2,0-0.3,0-0.4c0-0.6-0.1-1-0.4-1.2c-0.4-0.3-0.9-0.5-1.6-0.5c-0.7,0-1.2,0.1-1.5,0.3c-0.3,0.2-0.5,0.6-0.7,1.2l-1.4-0.2
					c0.1-0.6,0.3-1.1,0.6-1.4c0.3-0.4,0.7-0.6,1.2-0.8c0.5-0.2,1.2-0.3,1.9-0.3c0.7,0,1.3,0.1,1.7,0.2c0.4,0.2,0.8,0.4,1,0.6
					c0.2,0.3,0.4,0.6,0.4,1c0,0.2,0.1,0.7,0.1,1.3v1.9c0,1.3,0,2.1,0.1,2.5c0.1,0.3,0.2,0.7,0.4,1h-1.5C49.2,98.7,49.1,98.4,49.1,98
					z M49,94.8c-0.5,0.2-1.3,0.4-2.3,0.5c-0.6,0.1-1,0.2-1.2,0.3c-0.2,0.1-0.4,0.3-0.6,0.5c-0.1,0.2-0.2,0.4-0.2,0.7
					c0,0.4,0.1,0.7,0.4,0.9s0.7,0.4,1.2,0.4c0.5,0,1-0.1,1.4-0.4c0.4-0.2,0.7-0.6,0.9-1c0.2-0.3,0.2-0.8,0.2-1.4
					C49,95.4,49,94.8,49,94.8z"/>
				<path fill="#4D4D4F" d="M52.5,99v-8.3h1.3V92c0.3-0.6,0.6-1,0.9-1.2c0.3-0.2,0.6-0.3,0.9-0.3c0.5,0,1,0.2,1.4,0.5l-0.5,1.3
					c-0.3-0.2-0.7-0.3-1-0.3c-0.3,0-0.6,0.1-0.8,0.3c-0.2,0.2-0.4,0.4-0.5,0.8c-0.2,0.5-0.2,1-0.2,1.6V99L52.5,99L52.5,99z"/>
				<path fill="#4D4D4F" d="M57.9,99v-8.3h1.3V92c0.3-0.6,0.6-1,0.9-1.2c0.3-0.2,0.6-0.3,0.9-0.3c0.5,0,1,0.2,1.4,0.5l-0.5,1.3
					c-0.3-0.2-0.7-0.3-1-0.3c-0.3,0-0.6,0.1-0.8,0.3c-0.2,0.2-0.4,0.4-0.5,0.8c-0.2,0.5-0.2,1-0.2,1.6V99L57.9,99L57.9,99z"/>
				<path fill="#4D4D4F" d="M63.2,99V87.6h1.4v4.1c0.7-0.8,1.5-1.1,2.5-1.1c0.6,0,1.1,0.1,1.6,0.4c0.5,0.2,0.8,0.6,1,1
					c0.2,0.4,0.3,1,0.3,1.9V99h-1.4v-5.3c0-0.7-0.2-1.2-0.5-1.5c-0.3-0.3-0.7-0.5-1.3-0.5c-0.4,0-0.8,0.1-1.2,0.3
					c-0.4,0.2-0.6,0.5-0.8,0.9c-0.2,0.4-0.2,0.9-0.2,1.5V99L63.2,99L63.2,99z"/>
				<path fill="#4D4D4F" d="M77.8,96.3l1.5,0.2c-0.2,0.9-0.7,1.5-1.3,2c-0.6,0.5-1.4,0.7-2.4,0.7c-1.2,0-2.2-0.4-2.9-1.1
					c-0.7-0.7-1.1-1.8-1.1-3.1c0-1.4,0.4-2.5,1.1-3.2c0.7-0.8,1.7-1.2,2.8-1.2c1.1,0,2,0.4,2.7,1.1c0.7,0.8,1.1,1.8,1.1,3.2
					c0,0.1,0,0.2,0,0.4h-6.2c0.1,0.9,0.3,1.6,0.8,2.1c0.5,0.5,1,0.7,1.7,0.7c0.5,0,1-0.1,1.3-0.4C77.3,97.4,77.6,96.9,77.8,96.3z
					 M73.2,94.1h4.6c-0.1-0.7-0.2-1.2-0.5-1.6c-0.4-0.5-1-0.8-1.7-0.8c-0.6,0-1.2,0.2-1.6,0.6C73.5,92.8,73.2,93.3,73.2,94.1z"/>
				<path fill="#4D4D4F" d="M86.4,98c-0.5,0.4-1,0.8-1.5,0.9c-0.5,0.2-1,0.3-1.6,0.3c-0.9,0-1.6-0.2-2.1-0.7c-0.5-0.4-0.7-1-0.7-1.7
					c0-0.4,0.1-0.8,0.3-1.1s0.4-0.6,0.7-0.8c0.3-0.2,0.6-0.4,1-0.5c0.3-0.1,0.7-0.1,1.2-0.2c1.1-0.1,2-0.3,2.5-0.5
					c0-0.2,0-0.3,0-0.4c0-0.6-0.1-1-0.4-1.2c-0.4-0.3-0.9-0.5-1.6-0.5c-0.7,0-1.2,0.1-1.5,0.3c-0.3,0.2-0.5,0.6-0.7,1.2l-1.4-0.2
					c0.1-0.6,0.3-1.1,0.6-1.4c0.3-0.4,0.7-0.6,1.2-0.8c0.5-0.2,1.2-0.3,1.9-0.3c0.7,0,1.3,0.1,1.7,0.2c0.4,0.2,0.8,0.4,1,0.6
					c0.2,0.3,0.4,0.6,0.4,1c0,0.2,0.1,0.7,0.1,1.3v1.9c0,1.3,0,2.1,0.1,2.5c0.1,0.3,0.2,0.7,0.4,1h-1.5C86.6,98.7,86.5,98.4,86.4,98
					z M86.3,94.8c-0.5,0.2-1.3,0.4-2.3,0.5c-0.6,0.1-1,0.2-1.2,0.3c-0.2,0.1-0.4,0.3-0.6,0.5c-0.1,0.2-0.2,0.4-0.2,0.7
					c0,0.4,0.1,0.7,0.4,0.9c0.3,0.2,0.7,0.4,1.2,0.4c0.5,0,1-0.1,1.4-0.4c0.4-0.2,0.7-0.6,0.9-1c0.2-0.3,0.2-0.8,0.2-1.4
					C86.3,95.4,86.3,94.8,86.3,94.8z"/>
			</g>
			<g enable-background="new    ">
				<path fill="#4D4D4F" d="M36.9,135l1.5,0.4c-0.3,1.2-0.9,2.2-1.7,2.8c-0.8,0.7-1.8,1-3,1c-1.2,0-2.2-0.2-3-0.8
					c-0.8-0.5-1.4-1.2-1.8-2.2c-0.4-1-0.6-2-0.6-3.1c0-1.2,0.2-2.2,0.7-3.1s1.1-1.6,1.9-2s1.8-0.7,2.8-0.7c1.1,0,2.1,0.3,2.9,0.9
					c0.8,0.6,1.3,1.4,1.6,2.5l-1.5,0.4c-0.3-0.8-0.7-1.4-1.2-1.8c-0.5-0.4-1.1-0.6-1.9-0.6c-0.9,0-1.6,0.2-2.2,0.6
					c-0.6,0.4-1,1-1.2,1.7c-0.2,0.7-0.4,1.4-0.4,2.2c0,1,0.1,1.8,0.4,2.6c0.3,0.7,0.7,1.3,1.3,1.6c0.6,0.4,1.2,0.5,1.9,0.5
					c0.8,0,1.6-0.2,2.2-0.7C36.3,136.7,36.7,136,36.9,135z"/>
				<path fill="#4D4D4F" d="M39.6,134.9c0-1.5,0.4-2.7,1.3-3.4c0.7-0.6,1.6-0.9,2.6-0.9c1.1,0,2.1,0.4,2.8,1.1s1.1,1.8,1.1,3.1
					c0,1.1-0.2,1.9-0.5,2.5c-0.3,0.6-0.8,1.1-1.4,1.4c-0.6,0.3-1.3,0.5-2,0.5c-1.2,0-2.1-0.4-2.8-1.1
					C39.9,137.3,39.6,136.3,39.6,134.9z M41,134.9c0,1.1,0.2,1.9,0.7,2.4c0.5,0.5,1,0.8,1.8,0.8c0.7,0,1.3-0.3,1.7-0.8
					c0.5-0.5,0.7-1.3,0.7-2.4c0-1-0.2-1.8-0.7-2.3c-0.5-0.5-1-0.8-1.7-0.8c-0.7,0-1.3,0.3-1.8,0.8C41.3,133,41,133.8,41,134.9z"/>
				<path fill="#4D4D4F" d="M49,139v-11.5h1.4V139H49z"/>
				<path fill="#4D4D4F" d="M52.6,129.2v-1.6H54v1.6H52.6z M52.6,139v-8.3H54v8.3H52.6z"/>
				<path fill="#4D4D4F" d="M59.2,137.8l0.2,1.2c-0.4,0.1-0.8,0.1-1.1,0.1c-0.5,0-0.9-0.1-1.2-0.2c-0.3-0.2-0.5-0.4-0.6-0.6
					c-0.1-0.3-0.2-0.8-0.2-1.7v-4.8h-1v-1.1h1v-2.1l1.4-0.8v2.9h1.4v1.1h-1.4v4.9c0,0.4,0,0.7,0.1,0.8c0,0.1,0.1,0.2,0.2,0.3
					s0.3,0.1,0.5,0.1C58.7,137.8,58.9,137.8,59.2,137.8z"/>
				<path fill="#4D4D4F" d="M60.6,129.2v-1.6H62v1.6H60.6z M60.6,139v-8.3H62v8.3H60.6z"/>
				<path fill="#4D4D4F" d="M63.6,136.5l1.4-0.2c0.1,0.6,0.3,1,0.7,1.3c0.4,0.3,0.9,0.4,1.5,0.4c0.6,0,1.1-0.1,1.4-0.4
					c0.3-0.3,0.5-0.6,0.5-0.9c0-0.3-0.1-0.6-0.4-0.8c-0.2-0.1-0.7-0.3-1.4-0.5c-1-0.3-1.7-0.5-2.1-0.7s-0.7-0.5-0.9-0.8
					c-0.2-0.3-0.3-0.7-0.3-1.1c0-0.4,0.1-0.7,0.3-1c0.2-0.3,0.4-0.6,0.7-0.8c0.2-0.2,0.5-0.3,0.9-0.4c0.4-0.1,0.8-0.2,1.2-0.2
					c0.7,0,1.2,0.1,1.7,0.3c0.5,0.2,0.9,0.4,1.1,0.8c0.2,0.3,0.4,0.8,0.5,1.3l-1.4,0.2c-0.1-0.4-0.2-0.8-0.5-1
					c-0.3-0.2-0.7-0.4-1.3-0.4c-0.6,0-1.1,0.1-1.4,0.3c-0.3,0.2-0.4,0.5-0.4,0.8c0,0.2,0.1,0.3,0.2,0.5c0.1,0.1,0.3,0.3,0.5,0.4
					c0.1,0.1,0.6,0.2,1.2,0.4c1,0.3,1.7,0.5,2.1,0.7c0.4,0.2,0.7,0.4,0.9,0.7c0.2,0.3,0.3,0.7,0.3,1.2c0,0.5-0.1,0.9-0.4,1.3
					s-0.7,0.7-1.2,1c-0.5,0.2-1.1,0.3-1.8,0.3c-1.1,0-1.9-0.2-2.5-0.7C64.1,138.1,63.7,137.4,63.6,136.5z"/>
			</g>
		</g>
		<g>
			<g enable-background="new    ">
				<path fill="#4D4D4F" d="M18.1,175.3l2.2-0.2c0.1,0.8,0.4,1.3,0.8,1.7c0.4,0.4,1,0.5,1.7,0.5c0.7,0,1.3-0.2,1.7-0.5
					c0.4-0.3,0.6-0.7,0.6-1.1c0-0.3-0.1-0.5-0.2-0.7c-0.2-0.2-0.4-0.4-0.8-0.5c-0.3-0.1-0.9-0.3-1.9-0.5c-1.2-0.3-2.1-0.7-2.6-1.1
					c-0.7-0.6-1.1-1.4-1.1-2.3c0-0.6,0.2-1.1,0.5-1.6s0.8-0.9,1.4-1.2c0.6-0.3,1.4-0.4,2.3-0.4c1.4,0,2.5,0.3,3.2,0.9
					c0.7,0.6,1.1,1.5,1.1,2.5l-2.3,0.1c-0.1-0.6-0.3-1-0.6-1.3c-0.3-0.3-0.8-0.4-1.5-0.4c-0.7,0-1.2,0.1-1.6,0.4
					c-0.2,0.2-0.4,0.4-0.4,0.7c0,0.3,0.1,0.5,0.3,0.7c0.3,0.2,1,0.5,2.1,0.8c1.1,0.3,2,0.5,2.5,0.8c0.5,0.3,1,0.7,1.3,1.2
					c0.3,0.5,0.5,1.1,0.5,1.8c0,0.7-0.2,1.3-0.5,1.8c-0.4,0.6-0.9,1-1.5,1.3c-0.7,0.3-1.5,0.4-2.5,0.4c-1.4,0-2.6-0.3-3.3-1
					C18.7,177.5,18.2,176.6,18.1,175.3z"/>
				<path fill="#4D4D4F" d="M29.2,179v-11.5h2.2v6.1l2.6-2.9h2.7l-2.8,3l3,5.3h-2.4l-2.1-3.7l-1,1.1v2.7L29.2,179L29.2,179z"/>
				<path fill="#4D4D4F" d="M38.2,169.6v-2h2.2v2H38.2z M38.2,179v-8.3h2.2v8.3H38.2z"/>
				<path fill="#4D4D4F" d="M50.2,179H48v-4.2c0-0.9,0-1.5-0.1-1.7c-0.1-0.3-0.2-0.5-0.5-0.6c-0.2-0.1-0.5-0.2-0.8-0.2
					c-0.4,0-0.7,0.1-1,0.3c-0.3,0.2-0.5,0.5-0.6,0.8c-0.1,0.3-0.2,1-0.2,1.9v3.8h-2.2v-8.3h2v1.2c0.7-0.9,1.6-1.4,2.7-1.4
					c0.5,0,0.9,0.1,1.3,0.3c0.4,0.2,0.7,0.4,0.9,0.7c0.2,0.3,0.3,0.6,0.4,0.9s0.1,0.8,0.1,1.5V179L50.2,179z"/>
				<path fill="#4D4D4F" d="M58.5,173.2l-2-0.4c0.2-0.8,0.6-1.4,1.2-1.8c0.5-0.4,1.4-0.6,2.4-0.6c1,0,1.7,0.1,2.2,0.3
					c0.5,0.2,0.8,0.5,1,0.9c0.2,0.4,0.3,1,0.3,2l0,2.6c0,0.7,0,1.3,0.1,1.6c0.1,0.3,0.2,0.7,0.4,1.1h-2.2c-0.1-0.1-0.1-0.4-0.2-0.6
					c0-0.1-0.1-0.2-0.1-0.3c-0.4,0.4-0.8,0.6-1.2,0.8c-0.4,0.2-0.9,0.3-1.4,0.3c-0.9,0-1.5-0.2-2-0.7c-0.5-0.5-0.7-1-0.7-1.8
					c0-0.5,0.1-0.9,0.3-1.3s0.5-0.6,0.9-0.8s1-0.4,1.7-0.5c1-0.2,1.7-0.4,2.1-0.5v-0.2c0-0.4-0.1-0.7-0.3-0.9
					c-0.2-0.2-0.6-0.3-1.2-0.3c-0.4,0-0.7,0.1-0.9,0.2C58.8,172.6,58.7,172.9,58.5,173.2z M61.5,175c-0.3,0.1-0.7,0.2-1.3,0.3
					c-0.6,0.1-1,0.3-1.2,0.4c-0.3,0.2-0.4,0.5-0.4,0.8s0.1,0.6,0.3,0.8c0.2,0.2,0.5,0.3,0.9,0.3c0.4,0,0.8-0.1,1.1-0.4
					c0.3-0.2,0.4-0.4,0.5-0.7c0.1-0.2,0.1-0.5,0.1-1.1V175L61.5,175z"/>
				<path fill="#4D4D4F" d="M73.3,179h-2.2v-4.2c0-0.9,0-1.5-0.1-1.7c-0.1-0.3-0.2-0.5-0.5-0.6c-0.2-0.1-0.5-0.2-0.8-0.2
					c-0.4,0-0.7,0.1-1,0.3c-0.3,0.2-0.5,0.5-0.6,0.8c-0.1,0.3-0.2,1-0.2,1.9v3.8h-2.2v-8.3h2v1.2c0.7-0.9,1.6-1.4,2.7-1.4
					c0.5,0,0.9,0.1,1.3,0.3c0.4,0.2,0.7,0.4,0.9,0.7c0.2,0.3,0.3,0.6,0.4,0.9s0.1,0.8,0.1,1.5L73.3,179L73.3,179z"/>
				<path fill="#4D4D4F" d="M83.2,179h-2v-1.2c-0.3,0.5-0.7,0.8-1.2,1.1c-0.5,0.2-0.9,0.4-1.4,0.4c-1,0-1.8-0.4-2.4-1.2
					c-0.7-0.8-1-1.8-1-3.2c0-1.4,0.3-2.5,1-3.2c0.7-0.7,1.5-1.1,2.5-1.1c0.9,0,1.7,0.4,2.4,1.2v-4.1h2.2L83.2,179L83.2,179z
					 M77.3,174.7c0,0.9,0.1,1.5,0.4,1.9c0.4,0.6,0.8,0.9,1.5,0.9c0.5,0,0.9-0.2,1.3-0.6c0.4-0.4,0.5-1.1,0.5-1.9
					c0-1-0.2-1.6-0.5-2.1c-0.3-0.4-0.8-0.6-1.3-0.6c-0.5,0-1,0.2-1.3,0.6C77.5,173.2,77.3,173.9,77.3,174.7z"/>
				<path fill="#4D4D4F" d="M89.2,175.3l2.2-0.2c0.1,0.8,0.4,1.3,0.8,1.7c0.4,0.4,1,0.5,1.7,0.5c0.7,0,1.3-0.2,1.7-0.5
					c0.4-0.3,0.6-0.7,0.6-1.1c0-0.3-0.1-0.5-0.2-0.7c-0.2-0.2-0.4-0.4-0.8-0.5c-0.3-0.1-0.9-0.3-1.9-0.5c-1.2-0.3-2.1-0.7-2.6-1.1
					c-0.7-0.6-1.1-1.4-1.1-2.3c0-0.6,0.2-1.1,0.5-1.6s0.8-0.9,1.4-1.2c0.6-0.3,1.4-0.4,2.3-0.4c1.4,0,2.5,0.3,3.2,0.9
					c0.7,0.6,1.1,1.5,1.1,2.5l-2.3,0.1c-0.1-0.6-0.3-1-0.6-1.3c-0.3-0.3-0.8-0.4-1.5-0.4c-0.7,0-1.2,0.1-1.6,0.4
					c-0.2,0.2-0.4,0.4-0.4,0.7c0,0.3,0.1,0.5,0.3,0.7c0.3,0.2,1,0.5,2.1,0.8c1.1,0.3,2,0.5,2.5,0.8c0.5,0.3,1,0.7,1.3,1.2
					c0.3,0.5,0.5,1.1,0.5,1.8c0,0.7-0.2,1.3-0.5,1.8c-0.4,0.6-0.9,1-1.5,1.3c-0.7,0.3-1.5,0.4-2.5,0.4c-1.4,0-2.6-0.3-3.3-1
					C89.8,177.5,89.4,176.6,89.2,175.3z"/>
				<path fill="#4D4D4F" d="M105.9,179v-1.2c-0.3,0.4-0.7,0.8-1.2,1c-0.5,0.3-1,0.4-1.6,0.4c-0.6,0-1.1-0.1-1.5-0.4
					c-0.4-0.2-0.8-0.6-1-1c-0.2-0.4-0.3-1.1-0.3-1.8v-5.2h2.2v3.8c0,1.2,0,1.9,0.1,2.1c0.1,0.3,0.2,0.5,0.4,0.6
					c0.2,0.2,0.5,0.2,0.8,0.2c0.4,0,0.7-0.1,1-0.3c0.3-0.2,0.5-0.5,0.6-0.8c0.1-0.3,0.2-1.1,0.2-2.2v-3.5h2.2v8.3L105.9,179
					L105.9,179z"/>
				<path fill="#4D4D4F" d="M110.1,179v-11.5h2.2v4.1c0.7-0.8,1.5-1.2,2.4-1.2c1,0,1.8,0.4,2.5,1.1c0.7,0.7,1,1.8,1,3.2
					c0,1.4-0.3,2.5-1,3.3c-0.7,0.8-1.5,1.1-2.5,1.1c-0.5,0-0.9-0.1-1.4-0.4c-0.5-0.2-0.9-0.6-1.2-1.1v1.2L110.1,179L110.1,179z
					 M112.3,174.7c0,0.9,0.1,1.5,0.4,1.9c0.4,0.6,0.9,0.9,1.5,0.9c0.5,0,0.9-0.2,1.2-0.6c0.3-0.4,0.5-1.1,0.5-2
					c0-0.9-0.2-1.6-0.5-2.1c-0.3-0.4-0.8-0.6-1.3-0.6c-0.5,0-1,0.2-1.3,0.6C112.5,173.2,112.3,173.8,112.3,174.7z"/>
				<path fill="#4D4D4F" d="M127.2,173.2l-2.2,0.4c-0.1-0.4-0.2-0.8-0.5-1c-0.3-0.2-0.6-0.3-1-0.3c-0.5,0-1,0.2-1.3,0.6
					c-0.3,0.4-0.5,1-0.5,1.9c0,1,0.2,1.7,0.5,2.1s0.8,0.6,1.3,0.6c0.4,0,0.8-0.1,1-0.4c0.3-0.2,0.5-0.6,0.6-1.2l2.2,0.4
					c-0.2,1-0.7,1.7-1.3,2.2c-0.6,0.5-1.5,0.8-2.6,0.8c-1.2,0-2.2-0.4-2.9-1.1c-0.7-0.8-1.1-1.8-1.1-3.2c0-1.4,0.4-2.4,1.1-3.2
					c0.7-0.8,1.7-1.1,2.9-1.1c1,0,1.8,0.2,2.4,0.6C126.5,171.6,127,172.3,127.2,173.2z"/>
				<path fill="#4D4D4F" d="M134.4,179v-1.2c-0.3,0.4-0.7,0.8-1.2,1c-0.5,0.3-1,0.4-1.6,0.4c-0.6,0-1.1-0.1-1.5-0.4
					c-0.4-0.2-0.8-0.6-1-1c-0.2-0.4-0.3-1.1-0.3-1.8v-5.2h2.2v3.8c0,1.2,0,1.9,0.1,2.1c0.1,0.3,0.2,0.5,0.4,0.6
					c0.2,0.2,0.5,0.2,0.8,0.2c0.4,0,0.7-0.1,1-0.3c0.3-0.2,0.5-0.5,0.6-0.8c0.1-0.3,0.2-1.1,0.2-2.2v-3.5h2.2v8.3L134.4,179
					L134.4,179z"/>
				<path fill="#4D4D4F" d="M142.5,170.7v1.8H141v3.3c0,0.7,0,1.1,0,1.2c0,0.1,0.1,0.2,0.2,0.3c0.1,0.1,0.2,0.1,0.4,0.1
					c0.2,0,0.5-0.1,0.9-0.2l0.2,1.7c-0.5,0.2-1.1,0.3-1.7,0.3c-0.4,0-0.8-0.1-1.1-0.2c-0.3-0.1-0.6-0.3-0.7-0.5s-0.3-0.5-0.3-0.9
					c0-0.3-0.1-0.8-0.1-1.5v-3.6h-1v-1.8h1v-1.6l2.2-1.3v2.9L142.5,170.7L142.5,170.7z"/>
				<path fill="#4D4D4F" d="M145.6,173.2l-2-0.4c0.2-0.8,0.6-1.4,1.2-1.8c0.5-0.4,1.4-0.6,2.4-0.6c1,0,1.7,0.1,2.2,0.3
					c0.5,0.2,0.8,0.5,1,0.9c0.2,0.4,0.3,1,0.3,2l0,2.6c0,0.7,0,1.3,0.1,1.6c0.1,0.3,0.2,0.7,0.4,1.1H149c-0.1-0.1-0.1-0.4-0.2-0.6
					c0-0.1-0.1-0.2-0.1-0.3c-0.4,0.4-0.8,0.6-1.2,0.8c-0.4,0.2-0.9,0.3-1.4,0.3c-0.9,0-1.5-0.2-2-0.7c-0.5-0.5-0.7-1-0.7-1.8
					c0-0.5,0.1-0.9,0.3-1.3s0.5-0.6,0.9-0.8c0.4-0.2,1-0.4,1.7-0.5c1-0.2,1.7-0.4,2.1-0.5v-0.2c0-0.4-0.1-0.7-0.3-0.9
					c-0.2-0.2-0.6-0.3-1.2-0.3c-0.4,0-0.7,0.1-0.9,0.2C145.9,172.6,145.8,172.9,145.6,173.2z M148.6,175c-0.3,0.1-0.7,0.2-1.3,0.3
					c-0.6,0.1-1,0.3-1.2,0.4c-0.3,0.2-0.4,0.5-0.4,0.8s0.1,0.6,0.3,0.8c0.2,0.2,0.5,0.3,0.9,0.3c0.4,0,0.8-0.1,1.1-0.4
					c0.3-0.2,0.4-0.4,0.5-0.7c0.1-0.2,0.1-0.5,0.1-1.1L148.6,175L148.6,175z"/>
				<path fill="#4D4D4F" d="M160.4,179h-2.2v-4.2c0-0.9,0-1.5-0.1-1.7c-0.1-0.3-0.2-0.5-0.5-0.6c-0.2-0.1-0.5-0.2-0.8-0.2
					c-0.4,0-0.7,0.1-1,0.3c-0.3,0.2-0.5,0.5-0.6,0.8c-0.1,0.3-0.2,1-0.2,1.9v3.8h-2.2v-8.3h2v1.2c0.7-0.9,1.6-1.4,2.7-1.4
					c0.5,0,0.9,0.1,1.3,0.3c0.4,0.2,0.7,0.4,0.9,0.7c0.2,0.3,0.3,0.6,0.4,0.9s0.1,0.8,0.1,1.5L160.4,179L160.4,179z"/>
				<path fill="#4D4D4F" d="M167.5,176.4l2.2,0.4c-0.3,0.8-0.7,1.4-1.3,1.8c-0.6,0.4-1.4,0.6-2.3,0.6c-1.4,0-2.5-0.5-3.2-1.4
					c-0.5-0.8-0.8-1.7-0.8-2.9c0-1.4,0.4-2.5,1.1-3.2c0.7-0.8,1.6-1.2,2.7-1.2c1.2,0,2.2,0.4,2.9,1.2c0.7,0.8,1.1,2.1,1,3.7h-5.5
					c0,0.6,0.2,1.2,0.5,1.5c0.3,0.4,0.8,0.5,1.3,0.5c0.3,0,0.6-0.1,0.9-0.3C167.2,177.1,167.3,176.8,167.5,176.4z M167.6,174.1
					c0-0.6-0.2-1.1-0.5-1.4c-0.3-0.3-0.7-0.5-1.1-0.5c-0.5,0-0.9,0.2-1.2,0.5c-0.3,0.4-0.5,0.8-0.5,1.4L167.6,174.1L167.6,174.1z"/>
				<path fill="#4D4D4F" d="M171.1,174.7c0-0.7,0.2-1.4,0.5-2.1c0.4-0.7,0.9-1.2,1.5-1.6c0.7-0.4,1.4-0.5,2.2-0.5
					c1.3,0,2.3,0.4,3.1,1.2c0.8,0.8,1.2,1.8,1.2,3.1c0,1.3-0.4,2.3-1.2,3.1c-0.8,0.8-1.8,1.2-3.1,1.2c-0.8,0-1.5-0.2-2.2-0.5
					c-0.7-0.3-1.2-0.8-1.6-1.5C171.2,176.5,171.1,175.7,171.1,174.7z M173.3,174.9c0,0.8,0.2,1.5,0.6,1.9c0.4,0.4,0.9,0.7,1.4,0.7
					c0.6,0,1.1-0.2,1.4-0.7c0.4-0.4,0.6-1.1,0.6-1.9c0-0.8-0.2-1.4-0.6-1.9c-0.4-0.4-0.9-0.7-1.4-0.7c-0.6,0-1.1,0.2-1.4,0.7
					C173.5,173.4,173.3,174,173.3,174.9z"/>
				<path fill="#4D4D4F" d="M186.8,179v-1.2c-0.3,0.4-0.7,0.8-1.2,1c-0.5,0.3-1,0.4-1.6,0.4c-0.6,0-1.1-0.1-1.5-0.4
					c-0.4-0.2-0.8-0.6-1-1c-0.2-0.4-0.3-1.1-0.3-1.8v-5.2h2.2v3.8c0,1.2,0,1.9,0.1,2.1c0.1,0.3,0.2,0.5,0.4,0.6
					c0.2,0.2,0.5,0.2,0.8,0.2c0.4,0,0.7-0.1,1-0.3c0.3-0.2,0.5-0.5,0.6-0.8c0.1-0.3,0.2-1.1,0.2-2.2v-3.5h2.2v8.3L186.8,179
					L186.8,179z"/>
				<path fill="#4D4D4F" d="M190.3,176.6l2.2-0.3c0.1,0.4,0.3,0.8,0.6,1c0.3,0.2,0.7,0.3,1.2,0.3c0.6,0,1-0.1,1.3-0.3
					c0.2-0.1,0.3-0.3,0.3-0.6c0-0.2-0.1-0.3-0.2-0.4c-0.1-0.1-0.4-0.2-0.7-0.3c-1.8-0.4-2.9-0.7-3.4-1.1c-0.7-0.4-1-1.1-1-1.9
					c0-0.7,0.3-1.3,0.9-1.8c0.6-0.5,1.4-0.7,2.6-0.7c1.1,0,2,0.2,2.5,0.6c0.6,0.4,0.9,0.9,1.1,1.6l-2.1,0.4
					c-0.1-0.3-0.3-0.6-0.5-0.7c-0.2-0.2-0.6-0.3-1.1-0.3c-0.6,0-1,0.1-1.2,0.2c-0.2,0.1-0.2,0.3-0.2,0.4c0,0.2,0.1,0.3,0.2,0.4
					c0.2,0.1,0.9,0.4,2.1,0.6c1.2,0.3,2,0.6,2.4,1c0.5,0.4,0.7,0.9,0.7,1.6c0,0.8-0.3,1.4-1,2c-0.6,0.5-1.6,0.8-2.8,0.8
					c-1.1,0-2-0.2-2.7-0.7C191,178.1,190.5,177.4,190.3,176.6z"/>
				<path fill="#4D4D4F" d="M207,179v-9.5h-3.4v-1.9h9.1v1.9h-3.4v9.5H207z"/>
				<path fill="#4D4D4F" d="M213.9,169.6v-2h2.2v2H213.9z M213.9,179v-8.3h2.2v8.3H213.9z"/>
				<path fill="#4D4D4F" d="M217.6,176.6l2.2-0.3c0.1,0.4,0.3,0.8,0.6,1c0.3,0.2,0.7,0.3,1.2,0.3c0.6,0,1-0.1,1.3-0.3
					c0.2-0.1,0.3-0.3,0.3-0.6c0-0.2-0.1-0.3-0.2-0.4c-0.1-0.1-0.4-0.2-0.7-0.3c-1.8-0.4-2.9-0.7-3.4-1.1c-0.7-0.4-1-1.1-1-1.9
					c0-0.7,0.3-1.3,0.9-1.8c0.6-0.5,1.4-0.7,2.6-0.7c1.1,0,2,0.2,2.5,0.6c0.6,0.4,0.9,0.9,1.1,1.6l-2.1,0.4
					c-0.1-0.3-0.3-0.6-0.5-0.7c-0.2-0.2-0.6-0.3-1.1-0.3c-0.6,0-1,0.1-1.2,0.2c-0.2,0.1-0.2,0.3-0.2,0.4c0,0.2,0.1,0.3,0.2,0.4
					c0.2,0.1,0.9,0.4,2.1,0.6c1.2,0.3,2,0.6,2.4,1c0.5,0.4,0.7,0.9,0.7,1.6c0,0.8-0.3,1.4-1,2c-0.6,0.5-1.6,0.8-2.8,0.8
					c-1.1,0-2-0.2-2.7-0.7C218.2,178.1,217.8,177.4,217.6,176.6z"/>
				<path fill="#4D4D4F" d="M226.5,176.6l2.2-0.3c0.1,0.4,0.3,0.8,0.6,1c0.3,0.2,0.7,0.3,1.2,0.3c0.6,0,1-0.1,1.3-0.3
					c0.2-0.1,0.3-0.3,0.3-0.6c0-0.2-0.1-0.3-0.2-0.4c-0.1-0.1-0.4-0.2-0.7-0.3c-1.8-0.4-2.9-0.7-3.4-1.1c-0.7-0.4-1-1.1-1-1.9
					c0-0.7,0.3-1.3,0.9-1.8c0.6-0.5,1.4-0.7,2.6-0.7c1.1,0,2,0.2,2.5,0.6c0.6,0.4,0.9,0.9,1.1,1.6l-2.1,0.4
					c-0.1-0.3-0.3-0.6-0.5-0.7c-0.2-0.2-0.6-0.3-1.1-0.3c-0.6,0-1,0.1-1.2,0.2c-0.2,0.1-0.2,0.3-0.2,0.4c0,0.2,0.1,0.3,0.2,0.4
					c0.2,0.1,0.9,0.4,2.1,0.6c1.2,0.3,2,0.6,2.4,1c0.5,0.4,0.7,0.9,0.7,1.6c0,0.8-0.3,1.4-1,2c-0.6,0.5-1.6,0.8-2.8,0.8
					c-1.1,0-2-0.2-2.7-0.7C227.1,178.1,226.7,177.4,226.5,176.6z"/>
				<path fill="#4D4D4F" d="M241.6,179v-1.2c-0.3,0.4-0.7,0.8-1.2,1c-0.5,0.3-1,0.4-1.6,0.4c-0.6,0-1.1-0.1-1.5-0.4
					c-0.4-0.2-0.8-0.6-1-1c-0.2-0.4-0.3-1.1-0.3-1.8v-5.2h2.2v3.8c0,1.2,0,1.9,0.1,2.1c0.1,0.3,0.2,0.5,0.4,0.6
					c0.2,0.2,0.5,0.2,0.8,0.2c0.4,0,0.7-0.1,1-0.3c0.3-0.2,0.5-0.5,0.6-0.8c0.1-0.3,0.2-1.1,0.2-2.2v-3.5h2.2v8.3L241.6,179
					L241.6,179z"/>
				<path fill="#4D4D4F" d="M250.8,176.4l2.2,0.4c-0.3,0.8-0.7,1.4-1.3,1.8c-0.6,0.4-1.4,0.6-2.3,0.6c-1.4,0-2.5-0.5-3.2-1.4
					c-0.5-0.8-0.8-1.7-0.8-2.9c0-1.4,0.4-2.5,1.1-3.2c0.7-0.8,1.6-1.2,2.7-1.2c1.2,0,2.2,0.4,2.9,1.2c0.7,0.8,1.1,2.1,1,3.7h-5.5
					c0,0.6,0.2,1.2,0.5,1.5c0.3,0.4,0.8,0.5,1.3,0.5c0.3,0,0.6-0.1,0.9-0.3C250.5,177.1,250.6,176.8,250.8,176.4z M250.9,174.1
					c0-0.6-0.2-1.1-0.5-1.4c-0.3-0.3-0.7-0.5-1.1-0.5c-0.5,0-0.9,0.2-1.2,0.5c-0.3,0.4-0.5,0.8-0.5,1.4L250.9,174.1L250.9,174.1z"/>
			</g>
		</g>
		<g>
			<g enable-background="new    ">
				<path fill="#4D4D4F" d="M28.7,219v-11.5h4.3c0.8,0,1.3,0,1.7,0.1c0.6,0.1,1,0.3,1.4,0.5s0.7,0.6,0.9,1.1c0.2,0.5,0.3,1,0.3,1.6
					c0,1-0.3,1.8-0.9,2.5c-0.6,0.7-1.7,1-3.4,1h-2.9v4.7L28.7,219L28.7,219z M30.2,213h3c1,0,1.7-0.2,2.1-0.5
					c0.4-0.4,0.6-0.9,0.6-1.5c0-0.5-0.1-0.9-0.4-1.2c-0.2-0.3-0.6-0.6-1-0.7c-0.3-0.1-0.7-0.1-1.4-0.1h-2.9
					C30.2,208.9,30.2,213,30.2,213z"/>
				<path fill="#4D4D4F" d="M39.2,219v-8.3h1.3v1.3c0.3-0.6,0.6-1,0.9-1.2s0.6-0.3,0.9-0.3c0.5,0,1,0.1,1.4,0.5l-0.5,1.3
					c-0.3-0.2-0.7-0.3-1-0.3c-0.3,0-0.6,0.1-0.8,0.3c-0.2,0.2-0.4,0.4-0.5,0.8c-0.2,0.5-0.2,1-0.2,1.6v4.3L39.2,219L39.2,219z"/>
				<path fill="#4D4D4F" d="M50,219v-1.2c-0.6,0.9-1.5,1.4-2.6,1.4c-0.5,0-0.9-0.1-1.4-0.3c-0.4-0.2-0.7-0.4-0.9-0.7
					c-0.2-0.3-0.4-0.6-0.4-1c-0.1-0.3-0.1-0.7-0.1-1.3v-5.1h1.4v4.6c0,0.7,0,1.2,0.1,1.5c0.1,0.4,0.3,0.7,0.6,0.9s0.6,0.3,1.1,0.3
					s0.8-0.1,1.2-0.3c0.4-0.2,0.6-0.5,0.8-0.9c0.2-0.4,0.2-0.9,0.2-1.6v-4.4h1.4v8.3L50,219L50,219z"/>
				<path fill="#4D4D4F" d="M53.4,219v-8.3h1.3v1.3c0.3-0.6,0.6-1,0.9-1.2s0.6-0.3,0.9-0.3c0.5,0,1,0.1,1.4,0.5l-0.5,1.3
					c-0.3-0.2-0.7-0.3-1-0.3c-0.3,0-0.6,0.1-0.8,0.3c-0.2,0.2-0.4,0.4-0.5,0.8c-0.2,0.5-0.2,1-0.2,1.6v4.3L53.4,219L53.4,219z"/>
				<path fill="#4D4D4F" d="M58.8,209.2v-1.6h1.4v1.6H58.8z M58.8,219v-8.3h1.4v8.3H58.8z"/>
				<path fill="#4D4D4F" d="M65.4,217.8l0.2,1.2c-0.4,0.1-0.8,0.1-1.1,0.1c-0.5,0-0.9-0.1-1.2-0.2c-0.3-0.2-0.5-0.4-0.6-0.6
					c-0.1-0.3-0.2-0.8-0.2-1.7v-4.8h-1v-1.1h1v-2.1l1.4-0.8v2.9h1.4v1.1H64v4.9c0,0.4,0,0.7,0.1,0.8c0,0.1,0.1,0.2,0.2,0.3
					s0.3,0.1,0.5,0.1C64.9,217.8,65.2,217.8,65.4,217.8z"/>
				<path fill="#4D4D4F" d="M72.2,219v-1.2c-0.6,0.9-1.5,1.4-2.6,1.4c-0.5,0-0.9-0.1-1.4-0.3c-0.4-0.2-0.7-0.4-0.9-0.7
					c-0.2-0.3-0.4-0.6-0.4-1c-0.1-0.3-0.1-0.7-0.1-1.3v-5.1h1.4v4.6c0,0.7,0,1.2,0.1,1.5c0.1,0.4,0.3,0.7,0.6,0.9
					c0.3,0.2,0.6,0.3,1.1,0.3s0.8-0.1,1.2-0.3c0.4-0.2,0.6-0.5,0.8-0.9c0.2-0.4,0.2-0.9,0.2-1.6v-4.4h1.4v8.3L72.2,219L72.2,219z"/>
				<path fill="#4D4D4F" d="M75.1,216.5l1.4-0.2c0.1,0.6,0.3,1,0.7,1.3c0.4,0.3,0.9,0.4,1.5,0.4c0.6,0,1.1-0.1,1.4-0.4
					c0.3-0.3,0.5-0.6,0.5-0.9c0-0.3-0.1-0.6-0.4-0.8c-0.2-0.1-0.7-0.3-1.4-0.5c-1-0.3-1.7-0.5-2.1-0.7c-0.4-0.2-0.7-0.5-0.9-0.8
					c-0.2-0.3-0.3-0.7-0.3-1.1c0-0.4,0.1-0.7,0.3-1c0.2-0.3,0.4-0.6,0.7-0.8c0.2-0.2,0.5-0.3,0.9-0.4c0.4-0.1,0.8-0.2,1.2-0.2
					c0.7,0,1.2,0.1,1.7,0.3c0.5,0.2,0.9,0.4,1.1,0.8c0.2,0.3,0.4,0.8,0.5,1.3l-1.4,0.2c-0.1-0.4-0.2-0.8-0.5-1
					c-0.3-0.2-0.7-0.4-1.3-0.4c-0.6,0-1.1,0.1-1.4,0.3c-0.3,0.2-0.4,0.5-0.4,0.8c0,0.2,0.1,0.3,0.2,0.5c0.1,0.1,0.3,0.3,0.5,0.4
					c0.1,0.1,0.6,0.2,1.2,0.4c1,0.3,1.7,0.5,2.1,0.7c0.4,0.2,0.7,0.4,0.9,0.7c0.2,0.3,0.3,0.7,0.3,1.2c0,0.5-0.1,0.9-0.4,1.3
					s-0.7,0.7-1.2,1c-0.5,0.2-1.1,0.3-1.8,0.3c-1.1,0-1.9-0.2-2.5-0.7C75.6,218.1,75.3,217.4,75.1,216.5z"/>
			</g>
			<g enable-background="new    ">
				<path fill="#4D4D4F" d="M28.8,259v-11.5h5.1c1,0,1.8,0.1,2.3,0.3s1,0.6,1.3,1.1s0.5,1.1,0.5,1.7c0,0.8-0.3,1.5-0.8,2.1
					c-0.5,0.6-1.3,0.9-2.4,1.1c0.4,0.2,0.7,0.4,0.9,0.6c0.4,0.4,0.9,0.9,1.3,1.5l2,3.1h-1.9l-1.5-2.4c-0.4-0.7-0.8-1.2-1.1-1.6
					c-0.3-0.4-0.5-0.6-0.8-0.8s-0.5-0.2-0.7-0.3c-0.2,0-0.5-0.1-0.8-0.1h-1.8v5.1L28.8,259L28.8,259z M30.3,252.6h3.3
					c0.7,0,1.2-0.1,1.6-0.2c0.4-0.1,0.7-0.4,0.9-0.7s0.3-0.7,0.3-1c0-0.5-0.2-1-0.6-1.3c-0.4-0.4-1-0.5-1.9-0.5h-3.6L30.3,252.6
					L30.3,252.6z"/>
				<path fill="#4D4D4F" d="M45.5,258c-0.5,0.4-1,0.8-1.5,0.9c-0.5,0.2-1,0.3-1.6,0.3c-0.9,0-1.6-0.2-2.1-0.7
					c-0.5-0.4-0.7-1-0.7-1.7c0-0.4,0.1-0.8,0.3-1.1s0.4-0.6,0.7-0.8c0.3-0.2,0.6-0.4,1-0.5c0.3-0.1,0.7-0.1,1.2-0.2
					c1.1-0.1,2-0.3,2.5-0.5c0-0.2,0-0.3,0-0.4c0-0.6-0.1-1-0.4-1.2c-0.4-0.3-0.9-0.5-1.6-0.5c-0.7,0-1.2,0.1-1.5,0.3
					c-0.3,0.2-0.5,0.6-0.7,1.2l-1.4-0.2c0.1-0.6,0.3-1.1,0.6-1.4c0.3-0.4,0.7-0.6,1.2-0.8c0.5-0.2,1.2-0.3,1.9-0.3
					c0.7,0,1.3,0.1,1.7,0.2c0.4,0.2,0.8,0.4,1,0.6c0.2,0.3,0.4,0.6,0.4,1c0,0.2,0.1,0.7,0.1,1.3v1.9c0,1.3,0,2.1,0.1,2.5
					c0.1,0.4,0.2,0.7,0.4,1h-1.5C45.7,258.7,45.6,258.4,45.5,258z M45.4,254.8c-0.5,0.2-1.3,0.4-2.3,0.5c-0.6,0.1-1,0.2-1.2,0.3
					c-0.2,0.1-0.4,0.3-0.6,0.5c-0.1,0.2-0.2,0.4-0.2,0.7c0,0.4,0.1,0.7,0.4,0.9s0.7,0.4,1.2,0.4c0.5,0,1-0.1,1.4-0.4s0.7-0.6,0.9-1
					c0.2-0.3,0.2-0.8,0.2-1.4C45.4,255.4,45.4,254.8,45.4,254.8z"/>
				<path fill="#4D4D4F" d="M48.4,256.5l1.4-0.2c0.1,0.6,0.3,1,0.7,1.3c0.4,0.3,0.9,0.4,1.5,0.4c0.6,0,1.1-0.1,1.4-0.4
					c0.3-0.3,0.5-0.6,0.5-0.9c0-0.3-0.1-0.6-0.4-0.8c-0.2-0.1-0.7-0.3-1.4-0.5c-1-0.3-1.7-0.5-2.1-0.7c-0.4-0.2-0.7-0.5-0.9-0.8
					c-0.2-0.3-0.3-0.7-0.3-1.1c0-0.4,0.1-0.7,0.3-1c0.2-0.3,0.4-0.6,0.7-0.8c0.2-0.2,0.5-0.3,0.9-0.4c0.4-0.1,0.8-0.2,1.2-0.2
					c0.7,0,1.2,0.1,1.7,0.3c0.5,0.2,0.9,0.4,1.1,0.8c0.2,0.3,0.4,0.8,0.5,1.3l-1.4,0.2c-0.1-0.4-0.2-0.8-0.5-1
					c-0.3-0.2-0.7-0.4-1.3-0.4c-0.6,0-1.1,0.1-1.4,0.3c-0.3,0.2-0.4,0.5-0.4,0.8c0,0.2,0.1,0.3,0.2,0.5c0.1,0.1,0.3,0.3,0.5,0.4
					c0.1,0.1,0.6,0.2,1.2,0.4c1,0.3,1.7,0.5,2.1,0.7c0.4,0.2,0.7,0.4,0.9,0.7c0.2,0.3,0.3,0.7,0.3,1.2c0,0.5-0.1,0.9-0.4,1.3
					c-0.3,0.4-0.7,0.7-1.2,1c-0.5,0.2-1.1,0.3-1.8,0.3c-1.1,0-1.9-0.2-2.5-0.7C49,258.1,48.6,257.4,48.4,256.5z"/>
				<path fill="#4D4D4F" d="M57,259v-11.5h1.4v4.1c0.7-0.8,1.5-1.1,2.5-1.1c0.6,0,1.1,0.1,1.6,0.4c0.5,0.2,0.8,0.6,1,1
					c0.2,0.4,0.3,1,0.3,1.9v5.3h-1.4v-5.3c0-0.7-0.2-1.2-0.5-1.5c-0.3-0.3-0.7-0.5-1.3-0.5c-0.4,0-0.8,0.1-1.2,0.3
					c-0.4,0.2-0.6,0.5-0.8,0.9s-0.2,0.9-0.2,1.5v4.5L57,259L57,259z"/>
			</g>
		</g>
		<g>
			<g enable-background="new    ">
				<path fill="#4D4D4F" d="M681,97v2h-7.7c0.1-0.8,0.3-1.5,0.8-2.2c0.4-0.7,1.2-1.6,2.5-2.7c1-0.9,1.6-1.5,1.8-1.9
					c0.3-0.5,0.5-0.9,0.5-1.3c0-0.5-0.1-0.9-0.4-1.1c-0.3-0.3-0.6-0.4-1.1-0.4c-0.5,0-0.8,0.1-1.1,0.4c-0.3,0.3-0.4,0.7-0.5,1.4
					l-2.2-0.2c0.1-1.2,0.5-2.1,1.2-2.6c0.7-0.5,1.5-0.8,2.6-0.8c1.1,0,2,0.3,2.7,0.9c0.6,0.6,1,1.4,1,2.3c0,0.5-0.1,1-0.3,1.5
					c-0.2,0.5-0.5,1-0.9,1.5c-0.3,0.3-0.7,0.8-1.4,1.5c-0.7,0.6-1.1,1.1-1.3,1.3c-0.2,0.2-0.3,0.4-0.4,0.6L681,97L681,97z"/>
				<path fill="#4D4D4F" d="M682.5,90.4c0-1,0.2-1.8,0.7-2.3c0.4-0.5,1.1-0.7,1.8-0.7c0.8,0,1.4,0.2,1.9,0.7
					c0.4,0.5,0.7,1.3,0.7,2.3c0,1-0.2,1.8-0.7,2.3c-0.4,0.5-1.1,0.7-1.8,0.7c-0.8,0-1.4-0.2-1.9-0.7
					C682.8,92.2,682.5,91.4,682.5,90.4z M684.2,90.4c0,0.7,0.1,1.2,0.3,1.5c0.1,0.2,0.3,0.3,0.5,0.3c0.2,0,0.4-0.1,0.5-0.3
					c0.2-0.3,0.2-0.8,0.2-1.5c0-0.7-0.1-1.2-0.2-1.5c-0.1-0.2-0.3-0.3-0.5-0.3c-0.2,0-0.4,0.1-0.5,0.3
					C684.3,89.1,684.2,89.6,684.2,90.4z M686.7,99.4h-1.6l6.1-12.1h1.6L686.7,99.4z M690.3,96.4c0-1,0.2-1.8,0.7-2.3
					c0.5-0.5,1.1-0.7,1.8-0.7s1.4,0.2,1.9,0.7c0.5,0.5,0.7,1.3,0.7,2.3c0,1-0.2,1.8-0.7,2.3c-0.4,0.5-1.1,0.7-1.8,0.7
					c-0.8,0-1.4-0.2-1.9-0.7C690.5,98.2,690.3,97.5,690.3,96.4z M692,96.4c0,0.7,0.1,1.2,0.3,1.5c0.1,0.2,0.3,0.3,0.5,0.3
					c0.2,0,0.4-0.1,0.5-0.3c0.2-0.3,0.3-0.8,0.3-1.5c0-0.7-0.1-1.2-0.2-1.5c-0.1-0.2-0.3-0.3-0.5-0.3c-0.2,0-0.4,0.1-0.5,0.3
					C692.1,95.2,692,95.7,692,96.4z"/>
			</g>
			<g enable-background="new    ">
				<path fill="#4D4D4F" d="M681,137v2h-7.7c0.1-0.8,0.3-1.5,0.8-2.2c0.4-0.7,1.2-1.6,2.5-2.7c1-0.9,1.6-1.5,1.8-1.9
					c0.3-0.5,0.5-0.9,0.5-1.3c0-0.5-0.1-0.9-0.4-1.1c-0.3-0.3-0.6-0.4-1.1-0.4c-0.5,0-0.8,0.1-1.1,0.4c-0.3,0.3-0.4,0.7-0.5,1.4
					l-2.2-0.2c0.1-1.2,0.5-2.1,1.2-2.6c0.7-0.5,1.5-0.8,2.6-0.8c1.1,0,2,0.3,2.7,0.9c0.6,0.6,1,1.4,1,2.3c0,0.5-0.1,1-0.3,1.5
					c-0.2,0.5-0.5,1-0.9,1.5c-0.3,0.3-0.7,0.8-1.4,1.5c-0.7,0.6-1.1,1.1-1.3,1.3c-0.2,0.2-0.3,0.4-0.4,0.6L681,137L681,137z"/>
				<path fill="#4D4D4F" d="M682.5,130.4c0-1,0.2-1.8,0.7-2.3c0.4-0.5,1.1-0.7,1.8-0.7c0.8,0,1.4,0.2,1.9,0.7
					c0.4,0.5,0.7,1.3,0.7,2.3c0,1-0.2,1.8-0.7,2.3c-0.4,0.5-1.1,0.7-1.8,0.7c-0.8,0-1.4-0.2-1.9-0.7
					C682.8,132.2,682.5,131.4,682.5,130.4z M684.2,130.4c0,0.7,0.1,1.2,0.3,1.5c0.1,0.2,0.3,0.3,0.5,0.3c0.2,0,0.4-0.1,0.5-0.3
					c0.2-0.3,0.2-0.8,0.2-1.5c0-0.7-0.1-1.2-0.2-1.5c-0.1-0.2-0.3-0.3-0.5-0.3c-0.2,0-0.4,0.1-0.5,0.3
					C684.3,129.1,684.2,129.6,684.2,130.4z M686.7,139.4h-1.6l6.1-12.1h1.6L686.7,139.4z M690.3,136.4c0-1,0.2-1.8,0.7-2.3
					c0.5-0.5,1.1-0.7,1.8-0.7s1.4,0.2,1.9,0.7c0.5,0.5,0.7,1.3,0.7,2.3c0,1-0.2,1.8-0.7,2.3c-0.4,0.5-1.1,0.7-1.8,0.7
					c-0.8,0-1.4-0.2-1.9-0.7C690.5,138.2,690.3,137.5,690.3,136.4z M692,136.4c0,0.7,0.1,1.2,0.3,1.5c0.1,0.2,0.3,0.3,0.5,0.3
					c0.2,0,0.4-0.1,0.5-0.3c0.2-0.3,0.3-0.8,0.3-1.5c0-0.7-0.1-1.2-0.2-1.5c-0.1-0.2-0.3-0.3-0.5-0.3c-0.2,0-0.4,0.1-0.5,0.3
					C692.1,135.2,692,135.7,692,136.4z"/>
			</g>
		</g>
		<g>
			<g enable-background="new    ">
				<path fill="#4D4D4F" d="M523.9,217.7l-7.9-3.4v-1.9l7.9-3.4v2.2l-5.5,2.1l5.5,2.2V217.7z"/>
				<path fill="#4D4D4F" d="M530.9,219h-2.2v-8.3c-0.8,0.8-1.7,1.3-2.8,1.7v-2c0.6-0.2,1.2-0.5,1.9-1.1c0.7-0.5,1.1-1.1,1.4-1.8h1.8
					L530.9,219L530.9,219z"/>
				<path fill="#4D4D4F" d="M534.2,210.4c0-1,0.2-1.8,0.7-2.3c0.5-0.5,1.1-0.7,1.8-0.7c0.8,0,1.4,0.2,1.9,0.7
					c0.5,0.5,0.7,1.3,0.7,2.3c0,1-0.2,1.8-0.7,2.3c-0.4,0.5-1.1,0.7-1.8,0.7c-0.8,0-1.4-0.2-1.9-0.7
					C534.5,212.2,534.2,211.4,534.2,210.4z M535.9,210.4c0,0.7,0.1,1.2,0.3,1.5c0.1,0.2,0.3,0.3,0.5,0.3c0.2,0,0.4-0.1,0.5-0.3
					c0.2-0.3,0.2-0.8,0.2-1.5c0-0.7-0.1-1.2-0.2-1.5c-0.1-0.2-0.3-0.3-0.5-0.3c-0.2,0-0.4,0.1-0.5,0.3
					C536,209.1,535.9,209.6,535.9,210.4z M538.4,219.4h-1.6l6.1-12.1h1.6L538.4,219.4z M542,216.4c0-1,0.2-1.8,0.7-2.3
					c0.4-0.5,1.1-0.7,1.8-0.7c0.8,0,1.4,0.2,1.9,0.7c0.4,0.5,0.7,1.3,0.7,2.3c0,1-0.2,1.8-0.7,2.3c-0.4,0.5-1.1,0.7-1.8,0.7
					c-0.8,0-1.4-0.2-1.9-0.7C542.2,218.2,542,217.5,542,216.4z M543.7,216.4c0,0.7,0.1,1.2,0.3,1.5c0.1,0.2,0.3,0.3,0.5,0.3
					c0.2,0,0.4-0.1,0.5-0.3c0.2-0.3,0.3-0.8,0.3-1.5c0-0.7-0.1-1.2-0.2-1.5c-0.1-0.2-0.3-0.3-0.5-0.3c-0.2,0-0.4,0.1-0.5,0.3
					C543.7,215.2,543.7,215.7,543.7,216.4z"/>
			</g>
			<g enable-background="new    ">
				<path fill="#4D4D4F" d="M526.3,259h-2.2v-8.3c-0.8,0.8-1.7,1.3-2.8,1.7v-2c0.6-0.2,1.2-0.5,1.9-1.1c0.7-0.5,1.1-1.1,1.4-1.8h1.8
					L526.3,259L526.3,259z"/>
				<path fill="#4D4D4F" d="M529.6,250.4c0-1,0.2-1.8,0.7-2.3c0.5-0.5,1.1-0.7,1.8-0.7c0.8,0,1.4,0.2,1.9,0.7
					c0.5,0.5,0.7,1.3,0.7,2.3c0,1-0.2,1.8-0.7,2.3c-0.4,0.5-1.1,0.7-1.8,0.7c-0.8,0-1.4-0.2-1.9-0.7S529.6,251.4,529.6,250.4z
					 M531.3,250.4c0,0.7,0.1,1.2,0.3,1.5c0.1,0.2,0.3,0.3,0.5,0.3c0.2,0,0.4-0.1,0.5-0.3c0.2-0.3,0.2-0.8,0.2-1.5
					c0-0.7-0.1-1.2-0.2-1.5c-0.1-0.2-0.3-0.3-0.5-0.3c-0.2,0-0.4,0.1-0.5,0.3C531.3,249.1,531.3,249.6,531.3,250.4z M533.7,259.4
					h-1.6l6.1-12.1h1.6L533.7,259.4z M537.3,256.4c0-1,0.2-1.8,0.7-2.3c0.4-0.5,1.1-0.7,1.8-0.7c0.8,0,1.4,0.2,1.9,0.7
					c0.5,0.5,0.7,1.3,0.7,2.3c0,1-0.2,1.8-0.7,2.3c-0.4,0.5-1.1,0.7-1.8,0.7c-0.8,0-1.4-0.2-1.9-0.7
					C537.5,258.2,537.3,257.5,537.3,256.4z M539,256.4c0,0.7,0.1,1.2,0.3,1.5c0.1,0.2,0.3,0.3,0.5,0.3c0.2,0,0.4-0.1,0.5-0.3
					c0.2-0.3,0.3-0.8,0.3-1.5c0-0.7-0.1-1.2-0.2-1.5c-0.1-0.2-0.3-0.3-0.5-0.3s-0.4,0.1-0.5,0.3C539.1,255.2,539,255.7,539,256.4z"
					/>
			</g>
		</g>
		<g>
			<g enable-background="new    ">
				<path fill="#4D4D4F" d="M528.1,330.2l-2.1,0.2c-0.1-0.4-0.2-0.8-0.4-1c-0.2-0.2-0.5-0.3-0.9-0.3c-0.5,0-0.9,0.2-1.2,0.6
					c-0.3,0.4-0.5,1.3-0.6,2.6c0.5-0.6,1.2-1,2-1c0.9,0,1.7,0.3,2.4,1c0.7,0.7,1,1.6,1,2.7c0,1.2-0.3,2.1-1,2.8
					c-0.7,0.7-1.6,1.1-2.6,1.1c-1.2,0-2.1-0.4-2.9-1.4c-0.7-0.9-1.1-2.4-1.1-4.4c0-2.1,0.4-3.6,1.2-4.5c0.8-0.9,1.8-1.4,3-1.4
					c0.9,0,1.6,0.2,2.2,0.7C527.6,328.6,527.9,329.3,528.1,330.2z M523.1,335c0,0.7,0.2,1.3,0.5,1.6c0.3,0.4,0.7,0.6,1.1,0.6
					c0.4,0,0.7-0.2,1-0.5s0.4-0.8,0.4-1.6c0-0.7-0.1-1.3-0.4-1.6c-0.3-0.3-0.7-0.5-1.1-0.5c-0.4,0-0.8,0.2-1.1,0.5
					C523.2,333.8,523.1,334.3,523.1,335z"/>
				<path fill="#4D4D4F" d="M529.6,330.2c0-1,0.2-1.8,0.7-2.3c0.5-0.5,1.1-0.7,1.8-0.7c0.8,0,1.4,0.2,1.9,0.7
					c0.5,0.5,0.7,1.3,0.7,2.3c0,1-0.2,1.8-0.7,2.3c-0.4,0.5-1.1,0.7-1.8,0.7c-0.8,0-1.4-0.2-1.9-0.7S529.6,331.2,529.6,330.2z
					 M531.3,330.2c0,0.7,0.1,1.2,0.3,1.5c0.1,0.2,0.3,0.3,0.5,0.3c0.2,0,0.4-0.1,0.5-0.3c0.2-0.3,0.2-0.8,0.2-1.5
					c0-0.7-0.1-1.2-0.2-1.5c-0.1-0.2-0.3-0.3-0.5-0.3c-0.2,0-0.4,0.1-0.5,0.3C531.3,329,531.3,329.5,531.3,330.2z M533.7,339.3h-1.6
					l6.1-12.1h1.6L533.7,339.3z M537.3,336.3c0-1,0.2-1.8,0.7-2.3c0.4-0.5,1.1-0.7,1.8-0.7c0.8,0,1.4,0.2,1.9,0.7
					c0.5,0.5,0.7,1.3,0.7,2.3c0,1-0.2,1.8-0.7,2.3c-0.4,0.5-1.1,0.7-1.8,0.7c-0.8,0-1.4-0.2-1.9-0.7
					C537.5,338.1,537.3,337.3,537.3,336.3z M539,336.3c0,0.7,0.1,1.2,0.3,1.5c0.1,0.2,0.3,0.3,0.5,0.3c0.2,0,0.4-0.1,0.5-0.3
					c0.2-0.3,0.3-0.8,0.3-1.5c0-0.7-0.1-1.2-0.2-1.5c-0.1-0.2-0.3-0.3-0.5-0.3s-0.4,0.1-0.5,0.3C539.1,335,539,335.5,539,336.3z"/>
			</g>
		</g>
		<g>
			<g enable-background="new    ">
				<path fill="#4D4D4F" d="M676.5,338.8v-2.3h-4.7v-1.9l5-7.3h1.8v7.3h1.4v1.9h-1.4v2.3L676.5,338.8L676.5,338.8z M676.5,334.6
					v-3.9l-2.6,3.9H676.5z"/>
				<path fill="#4D4D4F" d="M681.1,330.2c0-1,0.2-1.8,0.7-2.3c0.4-0.5,1.1-0.7,1.8-0.7c0.8,0,1.4,0.2,1.9,0.7
					c0.4,0.5,0.7,1.3,0.7,2.3c0,1-0.2,1.8-0.7,2.3c-0.5,0.5-1.1,0.7-1.8,0.7c-0.8,0-1.4-0.2-1.9-0.7
					C681.4,332,681.1,331.2,681.1,330.2z M682.9,330.2c0,0.7,0.1,1.2,0.3,1.5c0.1,0.2,0.3,0.3,0.5,0.3c0.2,0,0.4-0.1,0.5-0.3
					c0.2-0.3,0.2-0.8,0.2-1.5c0-0.7-0.1-1.2-0.2-1.5c-0.1-0.2-0.3-0.3-0.5-0.3c-0.2,0-0.4,0.1-0.5,0.3
					C682.9,329,682.9,329.5,682.9,330.2z M685.3,339.3h-1.6l6.1-12.1h1.6L685.3,339.3z M688.9,336.3c0-1,0.2-1.8,0.7-2.3
					c0.4-0.5,1.1-0.7,1.8-0.7s1.4,0.2,1.9,0.7c0.4,0.5,0.7,1.3,0.7,2.3c0,1-0.2,1.8-0.7,2.3c-0.5,0.5-1.1,0.7-1.8,0.7
					c-0.8,0-1.4-0.2-1.9-0.7C689.1,338.1,688.9,337.3,688.9,336.3z M690.6,336.3c0,0.7,0.1,1.2,0.3,1.5c0.1,0.2,0.3,0.3,0.5,0.3
					c0.2,0,0.4-0.1,0.5-0.3c0.2-0.3,0.3-0.8,0.3-1.5c0-0.7-0.1-1.2-0.2-1.5c-0.1-0.2-0.3-0.3-0.5-0.3s-0.4,0.1-0.5,0.3
					C690.7,335,690.6,335.5,690.6,336.3z"/>
			</g>
		</g>
		<g>
			<g enable-background="new    ">
				<path fill="#4D4D4F" d="M675.9,207.5c1.1,0,2,0.4,2.6,1.2c0.7,0.9,1.1,2.5,1.1,4.7c0,2.2-0.4,3.7-1.1,4.7
					c-0.6,0.8-1.5,1.2-2.6,1.2c-1.1,0-2-0.4-2.7-1.3c-0.7-0.9-1-2.4-1-4.6c0-2.2,0.4-3.7,1.1-4.7C674,207.9,674.8,207.5,675.9,207.5
					z M675.9,209.3c-0.3,0-0.5,0.1-0.7,0.3c-0.2,0.2-0.4,0.5-0.5,0.9c-0.2,0.6-0.2,1.5-0.2,2.9c0,1.3,0.1,2.3,0.2,2.8
					c0.1,0.5,0.3,0.8,0.5,1c0.2,0.2,0.4,0.2,0.7,0.2c0.3,0,0.5-0.1,0.7-0.3c0.2-0.2,0.4-0.5,0.5-0.9c0.1-0.6,0.2-1.5,0.2-2.9
					c0-1.3-0.1-2.3-0.2-2.8s-0.3-0.8-0.5-1C676.4,209.4,676.2,209.3,675.9,209.3z"/>
				<path fill="#4D4D4F" d="M681.1,210.4c0-1,0.2-1.8,0.7-2.3c0.4-0.5,1.1-0.7,1.8-0.7c0.8,0,1.4,0.2,1.9,0.7
					c0.4,0.5,0.7,1.3,0.7,2.3c0,1-0.2,1.8-0.7,2.3c-0.5,0.5-1.1,0.7-1.8,0.7c-0.8,0-1.4-0.2-1.9-0.7
					C681.4,212.2,681.1,211.4,681.1,210.4z M682.9,210.4c0,0.7,0.1,1.2,0.3,1.5c0.1,0.2,0.3,0.3,0.5,0.3c0.2,0,0.4-0.1,0.5-0.3
					c0.2-0.3,0.2-0.8,0.2-1.5c0-0.7-0.1-1.2-0.2-1.5c-0.1-0.2-0.3-0.3-0.5-0.3c-0.2,0-0.4,0.1-0.5,0.3
					C682.9,209.1,682.9,209.6,682.9,210.4z M685.3,219.4h-1.6l6.1-12.1h1.6L685.3,219.4z M688.9,216.4c0-1,0.2-1.8,0.7-2.3
					c0.4-0.5,1.1-0.7,1.8-0.7s1.4,0.2,1.9,0.7c0.4,0.5,0.7,1.3,0.7,2.3c0,1-0.2,1.8-0.7,2.3c-0.5,0.5-1.1,0.7-1.8,0.7
					c-0.8,0-1.4-0.2-1.9-0.7C689.1,218.2,688.9,217.5,688.9,216.4z M690.6,216.4c0,0.7,0.1,1.2,0.3,1.5c0.1,0.2,0.3,0.3,0.5,0.3
					c0.2,0,0.4-0.1,0.5-0.3c0.2-0.3,0.3-0.8,0.3-1.5c0-0.7-0.1-1.2-0.2-1.5c-0.1-0.2-0.3-0.3-0.5-0.3s-0.4,0.1-0.5,0.3
					C690.7,215.2,690.6,215.7,690.6,216.4z"/>
			</g>
			<g enable-background="new    ">
				<path fill="#4D4D4F" d="M675.5,257.7l-7.9-3.4v-1.9l7.9-3.4v2.2l-5.5,2.1l5.5,2.2V257.7z"/>
				<path fill="#4D4D4F" d="M682.5,259h-2.2v-8.3c-0.8,0.8-1.7,1.3-2.8,1.7v-2c0.6-0.2,1.2-0.5,1.9-1.1c0.7-0.5,1.1-1.1,1.4-1.8h1.8
					V259z"/>
				<path fill="#4D4D4F" d="M685.8,250.4c0-1,0.2-1.8,0.7-2.3c0.4-0.5,1.1-0.7,1.8-0.7c0.8,0,1.4,0.2,1.9,0.7
					c0.4,0.5,0.7,1.3,0.7,2.3c0,1-0.2,1.8-0.7,2.3c-0.5,0.5-1.1,0.7-1.8,0.7c-0.8,0-1.4-0.2-1.9-0.7
					C686,252.2,685.8,251.4,685.8,250.4z M687.5,250.4c0,0.7,0.1,1.2,0.3,1.5c0.1,0.2,0.3,0.3,0.5,0.3c0.2,0,0.4-0.1,0.5-0.3
					c0.2-0.3,0.2-0.8,0.2-1.5c0-0.7-0.1-1.2-0.2-1.5c-0.1-0.2-0.3-0.3-0.5-0.3c-0.2,0-0.4,0.1-0.5,0.3
					C687.6,249.1,687.5,249.6,687.5,250.4z M690,259.4h-1.6l6.1-12.1h1.6L690,259.4z M693.5,256.4c0-1,0.2-1.8,0.7-2.3
					c0.4-0.5,1.1-0.7,1.8-0.7c0.8,0,1.4,0.2,1.9,0.7c0.4,0.5,0.7,1.3,0.7,2.3c0,1-0.2,1.8-0.7,2.3c-0.5,0.5-1.1,0.7-1.8,0.7
					c-0.8,0-1.4-0.2-1.9-0.7C693.8,258.2,693.5,257.5,693.5,256.4z M695.3,256.4c0,0.7,0.1,1.2,0.3,1.5c0.1,0.2,0.3,0.3,0.5,0.3
					c0.2,0,0.4-0.1,0.5-0.3c0.2-0.3,0.3-0.8,0.3-1.5c0-0.7-0.1-1.2-0.2-1.5c-0.1-0.2-0.3-0.3-0.5-0.3s-0.4,0.1-0.5,0.3
					C695.3,255.2,695.3,255.7,695.3,256.4z"/>
			</g>
		</g>
	</g>
</g>
</svg>
