<?xml version="1.0" encoding="utf-8"?>
<!-- Generator: Adobe Illustrator 18.0.0, SVG Export Plug-In . SVG Version: 6.00 Build 0)  -->
<!DOCTYPE svg PUBLIC "-//W3C//DTD SVG 1.1//EN" "http://www.w3.org/Graphics/SVG/1.1/DTD/svg11.dtd">
<svg version="1.1" id="Layer_1" xmlns="http://www.w3.org/2000/svg" xmlns:xlink="http://www.w3.org/1999/xlink" x="0px" y="0px"
	 viewBox="0 0 814 35.2" enable-background="new 0 0 814 35.2" xml:space="preserve">
<g>
	<line fill="#FFFFFF" x1="0" y1="32.4" x2="814" y2="32.4"/>
	<line opacity="0.7" fill="#ECF6F2" enable-background="new    " x1="0" y1="34" x2="663.1" y2="34"/>
	<line opacity="0.3" fill="#DBDBDC" enable-background="new    " x1="663.1" y1="30.3" x2="815" y2="30.3"/>
	<rect x="437.6" fill="#ECF6F2" width="225.4" height="34"/>
	<rect x="663.1" opacity="0.8" fill="#DBDBDC" enable-background="new    " width="150.9" height="34"/>
	<line fill="none" stroke="#D6ECE6" stroke-width="2.7689" stroke-miterlimit="10" x1="0" y1="34" x2="814" y2="34"/>
	<g>
		<g enable-background="new    ">
			<path fill="#6BACA1" d="M0.7,16.9l2.8-0.3c0.2,0.9,0.5,1.6,1,2.1s1.2,0.7,2.1,0.7c0.9,0,1.6-0.2,2.1-0.6s0.7-0.9,0.7-1.4
				c0-0.3-0.1-0.6-0.3-0.9c-0.2-0.2-0.5-0.4-1-0.6c-0.3-0.1-1.1-0.3-2.3-0.6c-1.5-0.4-2.6-0.9-3.3-1.4c-0.9-0.8-1.3-1.7-1.3-2.9
				c0-0.7,0.2-1.4,0.6-2c0.4-0.6,1-1.1,1.8-1.4s1.7-0.5,2.8-0.5c1.8,0,3.1,0.4,4.1,1.2s1.4,1.8,1.4,3.2l-2.9,0.1
				c-0.1-0.7-0.4-1.3-0.8-1.6c-0.4-0.3-1-0.5-1.8-0.5c-0.8,0-1.5,0.2-2,0.5C4.2,10.1,4,10.4,4,10.7c0,0.3,0.1,0.6,0.4,0.9
				c0.4,0.3,1.2,0.6,2.7,1s2.4,0.7,3.1,1s1.2,0.8,1.6,1.5c0.4,0.6,0.6,1.4,0.6,2.3c0,0.8-0.2,1.6-0.7,2.3c-0.5,0.7-1.1,1.2-1.9,1.6
				s-1.9,0.5-3.1,0.5c-1.8,0-3.2-0.4-4.2-1.3C1.5,19.7,0.9,18.5,0.7,16.9z"/>
			<path fill="#6BACA1" d="M20.8,18.2l2.7,0.5c-0.4,1-0.9,1.8-1.7,2.3c-0.8,0.5-1.7,0.8-2.8,0.8c-1.8,0-3.1-0.6-4-1.8
				c-0.7-0.9-1-2.1-1-3.6c0-1.7,0.4-3.1,1.3-4s2-1.5,3.4-1.5c1.5,0,2.8,0.5,3.7,1.5s1.3,2.6,1.3,4.7h-6.9c0,0.8,0.2,1.4,0.7,1.9
				s1,0.7,1.6,0.7c0.4,0,0.8-0.1,1.1-0.4C20.4,19.1,20.6,18.7,20.8,18.2z M20.9,15.4c0-0.8-0.2-1.4-0.6-1.8
				c-0.4-0.4-0.9-0.6-1.4-0.6c-0.6,0-1.1,0.2-1.5,0.7s-0.6,1-0.6,1.8L20.9,15.4L20.9,15.4z"/>
			<path fill="#6BACA1" d="M28.8,21.5l-4.2-10.4h2.9l2,5.3l0.6,1.8c0.1-0.4,0.2-0.7,0.3-0.9c0.1-0.3,0.2-0.6,0.3-0.9l2-5.3h2.8
				l-4.1,10.4H28.8z"/>
			<path fill="#6BACA1" d="M43,18.2l2.7,0.5c-0.4,1-0.9,1.8-1.7,2.3s-1.7,0.8-2.8,0.8c-1.8,0-3.1-0.6-4-1.8c-0.7-0.9-1-2.1-1-3.6
				c0-1.7,0.4-3.1,1.3-4s2-1.5,3.4-1.5c1.5,0,2.8,0.5,3.7,1.5s1.3,2.6,1.3,4.7H39c0,0.8,0.2,1.4,0.7,1.9s1,0.7,1.6,0.7
				c0.4,0,0.8-0.1,1.1-0.4C42.7,19.1,42.9,18.7,43,18.2z M43.2,15.4c0-0.8-0.2-1.4-0.6-1.8c-0.4-0.4-0.9-0.6-1.4-0.6
				c-0.6,0-1.1,0.2-1.5,0.7s-0.6,1-0.6,1.8L43.2,15.4L43.2,15.4z"/>
			<path fill="#6BACA1" d="M50.8,21.5H48V11.1h2.5v1.5c0.4-0.7,0.8-1.2,1.2-1.4c0.3-0.2,0.7-0.3,1.2-0.3c0.6,0,1.2,0.2,1.8,0.5
				l-0.8,2.4c-0.5-0.3-0.9-0.4-1.3-0.4c-0.4,0-0.7,0.1-1,0.3s-0.5,0.6-0.6,1.1s-0.2,1.7-0.2,3.5L50.8,21.5L50.8,21.5z"/>
			<path fill="#6BACA1" d="M61.9,18.2l2.7,0.5c-0.4,1-0.9,1.8-1.7,2.3s-1.7,0.8-2.8,0.8c-1.8,0-3.1-0.6-4-1.8c-0.7-0.9-1-2.1-1-3.6
				c0-1.7,0.4-3.1,1.3-4s2-1.5,3.4-1.5c1.5,0,2.8,0.5,3.7,1.5c0.9,1,1.3,2.6,1.3,4.7h-6.9c0,0.8,0.2,1.4,0.7,1.9s1,0.7,1.6,0.7
				c0.4,0,0.8-0.1,1.1-0.4S61.8,18.7,61.9,18.2z M62.1,15.4c0-0.8-0.2-1.4-0.6-1.8C61.1,13.2,60.6,13,60,13c-0.6,0-1.1,0.2-1.5,0.7
				s-0.6,1-0.6,1.8L62.1,15.4L62.1,15.4z"/>
			<path fill="#6BACA1" d="M74.7,14.3l-2.5-0.4c0.3-1,0.8-1.7,1.4-2.2s1.7-0.7,3-0.7c1.2,0,2.1,0.1,2.7,0.4s1,0.7,1.3,1.1
				c0.2,0.4,0.4,1.3,0.4,2.5l0,3.2c0,0.9,0,1.6,0.1,2s0.3,0.9,0.5,1.4h-2.7c-0.1-0.2-0.2-0.5-0.3-0.8c0-0.2-0.1-0.3-0.1-0.3
				c-0.5,0.5-1,0.8-1.5,1s-1.1,0.3-1.7,0.3c-1.1,0-1.9-0.3-2.5-0.9c-0.6-0.6-0.9-1.3-0.9-2.2c0-0.6,0.1-1.1,0.4-1.6s0.7-0.8,1.2-1.1
				c0.5-0.2,1.2-0.5,2.2-0.6c1.3-0.2,2.2-0.5,2.7-0.7v-0.3c0-0.5-0.1-0.9-0.4-1.1S77.2,13,76.5,13c-0.5,0-0.9,0.1-1.1,0.3
				C75,13.5,74.8,13.8,74.7,14.3z M78.3,16.5c-0.4,0.1-0.9,0.3-1.7,0.4s-1.3,0.3-1.5,0.5c-0.4,0.3-0.5,0.6-0.5,1
				c0,0.4,0.1,0.7,0.4,1s0.7,0.4,1.1,0.4c0.5,0,1-0.2,1.4-0.5c0.3-0.2,0.6-0.5,0.7-0.9c0.1-0.2,0.1-0.7,0.1-1.3V16.5L78.3,16.5z"/>
			<path fill="#6BACA1" d="M93.2,21.5h-2.5V20c-0.4,0.6-0.9,1-1.5,1.3c-0.6,0.3-1.2,0.4-1.7,0.4c-1.2,0-2.2-0.5-3.1-1.4
				c-0.8-1-1.3-2.3-1.3-4c0-1.8,0.4-3.1,1.2-4s1.9-1.4,3.1-1.4c1.2,0,2.2,0.5,3,1.4V7.2h2.7L93.2,21.5L93.2,21.5z M85.9,16.1
				c0,1.1,0.2,1.9,0.5,2.4c0.4,0.7,1.1,1.1,1.9,1.1c0.6,0,1.2-0.3,1.6-0.8s0.7-1.3,0.7-2.4c0-1.2-0.2-2-0.6-2.6s-1-0.8-1.7-0.8
				c-0.7,0-1.2,0.3-1.6,0.8C86.1,14.3,85.9,15.1,85.9,16.1z"/>
			<path fill="#6BACA1" d="M98.8,21.5l-4.2-10.4h2.9l2,5.3l0.6,1.8c0.2-0.4,0.2-0.7,0.3-0.9c0.1-0.3,0.2-0.6,0.3-0.9l2-5.3h2.8
				l-4.1,10.4C101.3,21.5,98.8,21.5,98.8,21.5z"/>
			<path fill="#6BACA1" d="M113.1,18.2l2.7,0.5c-0.4,1-0.9,1.8-1.7,2.3s-1.7,0.8-2.8,0.8c-1.8,0-3.1-0.6-4-1.8c-0.7-0.9-1-2.1-1-3.6
				c0-1.7,0.4-3.1,1.3-4s2-1.5,3.4-1.5c1.5,0,2.8,0.5,3.7,1.5s1.3,2.6,1.3,4.7h-6.9c0,0.8,0.2,1.4,0.7,1.9c0.4,0.5,1,0.7,1.6,0.7
				c0.4,0,0.8-0.1,1.1-0.4S112.9,18.7,113.1,18.2z M113.2,15.4c0-0.8-0.2-1.4-0.6-1.8c-0.4-0.4-0.9-0.6-1.4-0.6
				c-0.6,0-1.1,0.2-1.5,0.7s-0.6,1-0.6,1.8L113.2,15.4L113.2,15.4z"/>
			<path fill="#6BACA1" d="M120.8,21.5h-2.7V11.1h2.5v1.5c0.4-0.7,0.8-1.2,1.2-1.4s0.7-0.3,1.2-0.3c0.6,0,1.2,0.2,1.8,0.5l-0.8,2.4
				c-0.5-0.3-0.9-0.4-1.3-0.4c-0.4,0-0.7,0.1-1,0.3c-0.3,0.2-0.5,0.6-0.6,1.1s-0.2,1.7-0.2,3.5L120.8,21.5L120.8,21.5z"/>
			<path fill="#6BACA1" d="M125,18.6l2.8-0.4c0.1,0.5,0.4,0.9,0.7,1.2s0.9,0.4,1.5,0.4c0.7,0,1.2-0.1,1.6-0.4
				c0.2-0.2,0.4-0.4,0.4-0.7c0-0.2-0.1-0.4-0.2-0.5c-0.1-0.1-0.4-0.3-0.9-0.4c-2.2-0.5-3.6-0.9-4.2-1.3c-0.8-0.6-1.2-1.3-1.2-2.3
				c0-0.9,0.4-1.7,1.1-2.3s1.8-0.9,3.3-0.9c1.4,0,2.5,0.2,3.2,0.7s1.2,1.1,1.4,2.1l-2.6,0.5c-0.1-0.4-0.3-0.7-0.6-0.9
				s-0.8-0.3-1.3-0.3c-0.7,0-1.2,0.1-1.6,0.3c-0.2,0.1-0.3,0.3-0.3,0.6c0,0.2,0.1,0.4,0.3,0.5c0.2,0.2,1.1,0.4,2.6,0.8
				s2.5,0.7,3.1,1.2c0.6,0.5,0.9,1.2,0.9,2c0,1-0.4,1.8-1.2,2.5s-2,1-3.5,1c-1.4,0-2.5-0.3-3.4-0.9C125.8,20.3,125.3,19.5,125,18.6z
				"/>
			<path fill="#6BACA1" d="M143.1,18.2l2.7,0.5c-0.4,1-0.9,1.8-1.7,2.3s-1.7,0.8-2.8,0.8c-1.8,0-3.1-0.6-4-1.8c-0.7-0.9-1-2.1-1-3.6
				c0-1.7,0.4-3.1,1.3-4s2-1.5,3.4-1.5c1.5,0,2.8,0.5,3.7,1.5s1.3,2.6,1.3,4.7h-6.9c0,0.8,0.2,1.4,0.7,1.9s1,0.7,1.6,0.7
				c0.4,0,0.8-0.1,1.1-0.4S143,18.7,143.1,18.2z M143.3,15.4c0-0.8-0.2-1.4-0.6-1.8s-0.9-0.6-1.4-0.6c-0.6,0-1.1,0.2-1.5,0.7
				s-0.6,1-0.6,1.8L143.3,15.4L143.3,15.4z"/>
			<path fill="#6BACA1" d="M159.8,18.2l2.7,0.5c-0.4,1-0.9,1.8-1.7,2.3s-1.7,0.8-2.8,0.8c-1.8,0-3.1-0.6-4-1.8c-0.7-0.9-1-2.1-1-3.6
				c0-1.7,0.4-3.1,1.3-4s2-1.5,3.4-1.5c1.5,0,2.8,0.5,3.7,1.5s1.3,2.6,1.3,4.7h-6.9c0,0.8,0.2,1.4,0.7,1.9s1,0.7,1.6,0.7
				c0.4,0,0.8-0.1,1.1-0.4S159.6,18.7,159.8,18.2z M159.9,15.4c0-0.8-0.2-1.4-0.6-1.8c-0.4-0.4-0.9-0.6-1.4-0.6
				c-0.6,0-1.1,0.2-1.5,0.7s-0.6,1-0.6,1.8L159.9,15.4L159.9,15.4z"/>
			<path fill="#6BACA1" d="M167.8,21.5l-4.2-10.4h2.9l2,5.3l0.6,1.8c0.1-0.4,0.2-0.7,0.3-0.9c0.1-0.3,0.2-0.6,0.3-0.9l2-5.3h2.8
				l-4.1,10.4C170.2,21.5,167.8,21.5,167.8,21.5z"/>
			<path fill="#6BACA1" d="M182,18.2l2.7,0.5c-0.4,1-0.9,1.8-1.7,2.3s-1.7,0.8-2.8,0.8c-1.8,0-3.1-0.6-4-1.8c-0.7-0.9-1-2.1-1-3.6
				c0-1.7,0.4-3.1,1.3-4s2-1.5,3.4-1.5c1.5,0,2.8,0.5,3.7,1.5s1.3,2.6,1.3,4.7H178c0,0.8,0.2,1.4,0.7,1.9s1,0.7,1.6,0.7
				c0.4,0,0.8-0.1,1.1-0.4S181.9,18.7,182,18.2z M182.2,15.4c0-0.8-0.2-1.4-0.6-1.8c-0.4-0.4-0.9-0.6-1.4-0.6
				c-0.6,0-1.1,0.2-1.5,0.7s-0.6,1-0.6,1.8L182.2,15.4L182.2,15.4z"/>
			<path fill="#6BACA1" d="M196.6,21.5h-2.7v-5.3c0-1.1-0.1-1.8-0.2-2.2c-0.1-0.3-0.3-0.6-0.6-0.8c-0.3-0.2-0.6-0.3-1-0.3
				c-0.5,0-0.9,0.1-1.3,0.4c-0.4,0.3-0.6,0.6-0.8,1s-0.2,1.2-0.2,2.4v4.7h-2.7V11.1h2.5v1.5c0.9-1.2,2-1.8,3.4-1.8
				c0.6,0,1.2,0.1,1.7,0.3c0.5,0.2,0.9,0.5,1.1,0.8s0.4,0.7,0.5,1.2s0.2,1,0.2,1.8L196.6,21.5L196.6,21.5z"/>
			<path fill="#6BACA1" d="M204.1,11.1v2.2h-1.9v4.2c0,0.8,0,1.3,0.1,1.5s0.1,0.3,0.2,0.3s0.3,0.1,0.5,0.1c0.3,0,0.6-0.1,1.1-0.3
				l0.2,2.1c-0.6,0.3-1.4,0.4-2.2,0.4c-0.5,0-0.9-0.1-1.3-0.2s-0.7-0.4-0.9-0.6s-0.3-0.6-0.4-1.1c-0.1-0.3-0.1-1-0.1-1.9v-4.5h-1.3
				v-2.2h1.3V9.1l2.8-1.6v3.7L204.1,11.1L204.1,11.1z"/>
			<path fill="#6BACA1" d="M205.1,18.6l2.8-0.4c0.1,0.5,0.4,0.9,0.7,1.2s0.9,0.4,1.5,0.4c0.7,0,1.2-0.1,1.6-0.4
				c0.2-0.2,0.4-0.4,0.4-0.7c0-0.2-0.1-0.4-0.2-0.5c-0.1-0.1-0.4-0.3-0.9-0.4c-2.2-0.5-3.6-0.9-4.2-1.3c-0.8-0.6-1.2-1.3-1.2-2.3
				c0-0.9,0.4-1.7,1.1-2.3s1.8-0.9,3.3-0.9c1.4,0,2.5,0.2,3.2,0.7s1.2,1.1,1.4,2.1l-2.6,0.5c-0.1-0.4-0.3-0.7-0.6-0.9
				c-0.3-0.2-0.8-0.3-1.3-0.3c-0.7,0-1.2,0.1-1.6,0.3c-0.2,0.1-0.3,0.3-0.3,0.6c0,0.2,0.1,0.4,0.3,0.5c0.2,0.2,1.1,0.4,2.6,0.8
				s2.5,0.7,3.1,1.2c0.6,0.5,0.9,1.2,0.9,2c0,1-0.4,1.8-1.2,2.5c-0.8,0.7-2,1-3.5,1c-1.4,0-2.5-0.3-3.4-0.9
				C205.9,20.3,205.3,19.5,205.1,18.6z"/>
			<path fill="#6BACA1" d="M221.7,18.6l2.8-0.4c0.1,0.5,0.4,0.9,0.7,1.2s0.9,0.4,1.5,0.4c0.7,0,1.2-0.1,1.6-0.4
				c0.2-0.2,0.4-0.4,0.4-0.7c0-0.2-0.1-0.4-0.2-0.5c-0.1-0.1-0.4-0.3-0.9-0.4c-2.2-0.5-3.6-0.9-4.2-1.3c-0.8-0.6-1.2-1.3-1.2-2.3
				c0-0.9,0.4-1.7,1.1-2.3s1.8-0.9,3.3-0.9c1.4,0,2.5,0.2,3.2,0.7s1.2,1.1,1.4,2.1l-2.6,0.5c-0.1-0.4-0.3-0.7-0.6-0.9
				s-0.8-0.3-1.3-0.3c-0.7,0-1.2,0.1-1.6,0.3c-0.2,0.1-0.3,0.3-0.3,0.6c0,0.2,0.1,0.4,0.3,0.5c0.2,0.2,1.1,0.4,2.6,0.8
				s2.5,0.7,3.1,1.2c0.6,0.5,0.9,1.2,0.9,2c0,1-0.4,1.8-1.2,2.5s-2,1-3.5,1c-1.4,0-2.5-0.3-3.4-0.9C222.5,20.3,222,19.5,221.7,18.6z
				"/>
			<path fill="#6BACA1" d="M239.8,18.2l2.7,0.5c-0.4,1-0.9,1.8-1.7,2.3s-1.7,0.8-2.8,0.8c-1.8,0-3.1-0.6-4-1.8c-0.7-0.9-1-2.1-1-3.6
				c0-1.7,0.4-3.1,1.3-4s2-1.5,3.4-1.5c1.5,0,2.8,0.5,3.7,1.5s1.3,2.6,1.3,4.7h-6.9c0,0.8,0.2,1.4,0.7,1.9s1,0.7,1.6,0.7
				c0.4,0,0.8-0.1,1.1-0.4S239.7,18.7,239.8,18.2z M240,15.4c0-0.8-0.2-1.4-0.6-1.8s-0.9-0.6-1.4-0.6c-0.6,0-1.1,0.2-1.5,0.7
				s-0.6,1-0.6,1.8L240,15.4L240,15.4z"/>
			<path fill="#6BACA1" d="M251,18.2l2.7,0.5c-0.4,1-0.9,1.8-1.7,2.3s-1.7,0.8-2.8,0.8c-1.8,0-3.1-0.6-4-1.8c-0.7-0.9-1-2.1-1-3.6
				c0-1.7,0.4-3.1,1.3-4s2-1.5,3.4-1.5c1.5,0,2.8,0.5,3.7,1.5s1.3,2.6,1.3,4.7H247c0,0.8,0.2,1.4,0.7,1.9s1,0.7,1.6,0.7
				c0.4,0,0.8-0.1,1.1-0.4S250.8,18.7,251,18.2z M251.1,15.4c0-0.8-0.2-1.4-0.6-1.8s-0.9-0.6-1.4-0.6c-0.6,0-1.1,0.2-1.5,0.7
				s-0.6,1-0.6,1.8L251.1,15.4L251.1,15.4z"/>
			<path fill="#6BACA1" d="M265.5,21.5h-2.7v-5.3c0-1.1-0.1-1.8-0.2-2.2s-0.3-0.6-0.6-0.8c-0.3-0.2-0.6-0.3-1-0.3
				c-0.5,0-0.9,0.1-1.3,0.4c-0.4,0.3-0.6,0.6-0.8,1s-0.2,1.2-0.2,2.4v4.7h-2.7V11.1h2.5v1.5c0.9-1.2,2-1.8,3.4-1.8
				c0.6,0,1.2,0.1,1.7,0.3c0.5,0.2,0.9,0.5,1.1,0.8s0.4,0.7,0.5,1.2c0.1,0.4,0.2,1,0.2,1.8L265.5,21.5L265.5,21.5z"/>
			<path fill="#6BACA1" d="M273.8,9.7V7.2h2.7v2.5H273.8z M273.8,21.5V11.1h2.7v10.4H273.8z"/>
			<path fill="#6BACA1" d="M288.8,21.5h-2.7v-5.3c0-1.1-0.1-1.8-0.2-2.2s-0.3-0.6-0.6-0.8c-0.3-0.2-0.6-0.3-1-0.3
				c-0.5,0-0.9,0.1-1.3,0.4c-0.4,0.3-0.6,0.6-0.8,1s-0.2,1.2-0.2,2.4v4.7h-2.7V11.1h2.5v1.5c0.9-1.2,2-1.8,3.4-1.8
				c0.6,0,1.2,0.1,1.7,0.3c0.5,0.2,0.9,0.5,1.1,0.8s0.4,0.7,0.5,1.2c0.1,0.4,0.2,1,0.2,1.8L288.8,21.5L288.8,21.5z"/>
			<path fill="#6BACA1" d="M306.2,14.2l-2.7,0.5c-0.1-0.5-0.3-0.9-0.6-1.2c-0.3-0.3-0.7-0.4-1.3-0.4c-0.7,0-1.2,0.2-1.6,0.7
				c-0.4,0.5-0.6,1.3-0.6,2.4c0,1.2,0.2,2.1,0.6,2.6s1,0.8,1.7,0.8c0.5,0,0.9-0.1,1.3-0.4s0.6-0.8,0.7-1.5l2.7,0.5
				c-0.3,1.2-0.8,2.2-1.6,2.8s-1.9,0.9-3.2,0.9c-1.5,0-2.7-0.5-3.6-1.4c-0.9-1-1.4-2.3-1.4-4c0-1.7,0.5-3,1.4-4s2.1-1.4,3.7-1.4
				c1.3,0,2.3,0.3,3,0.8S305.9,13.1,306.2,14.2z"/>
			<path fill="#6BACA1" d="M308.3,21.5V7.2h2.7v14.3H308.3z"/>
			<path fill="#6BACA1" d="M313.9,9.7V7.2h2.7v2.5H313.9z M313.9,21.5V11.1h2.7v10.4H313.9z"/>
			<path fill="#6BACA1" d="M328.8,21.5h-2.7v-5.3c0-1.1-0.1-1.8-0.2-2.2s-0.3-0.6-0.6-0.8c-0.3-0.2-0.6-0.3-1-0.3
				c-0.5,0-0.9,0.1-1.3,0.4c-0.4,0.3-0.6,0.6-0.8,1s-0.2,1.2-0.2,2.4v4.7h-2.7V11.1h2.5v1.5c0.9-1.2,2-1.8,3.4-1.8
				c0.6,0,1.2,0.1,1.7,0.3c0.5,0.2,0.9,0.5,1.1,0.8s0.4,0.7,0.5,1.2c0.1,0.4,0.1,1,0.1,1.8L328.8,21.5L328.8,21.5z"/>
			<path fill="#6BACA1" d="M331.6,9.7V7.2h2.7v2.5H331.6z M331.6,21.5V11.1h2.7v10.4H331.6z"/>
			<path fill="#6BACA1" d="M346.2,14.2l-2.7,0.5c-0.1-0.5-0.3-0.9-0.6-1.2c-0.3-0.3-0.7-0.4-1.3-0.4c-0.7,0-1.2,0.2-1.6,0.7
				c-0.4,0.5-0.6,1.3-0.6,2.4c0,1.2,0.2,2.1,0.6,2.6c0.4,0.5,1,0.8,1.7,0.8c0.5,0,0.9-0.1,1.3-0.4s0.6-0.8,0.7-1.5l2.7,0.5
				c-0.3,1.2-0.8,2.2-1.6,2.8s-1.9,0.9-3.2,0.9c-1.5,0-2.7-0.5-3.6-1.4c-0.9-1-1.4-2.3-1.4-4c0-1.7,0.5-3,1.4-4
				c0.9-1,2.1-1.4,3.7-1.4c1.3,0,2.3,0.3,3,0.8S345.9,13.1,346.2,14.2z"/>
			<path fill="#6BACA1" d="M350.4,14.3l-2.5-0.4c0.3-1,0.8-1.7,1.4-2.2s1.7-0.7,3-0.7c1.2,0,2.1,0.1,2.7,0.4c0.6,0.3,1,0.7,1.3,1.1
				c0.2,0.4,0.4,1.3,0.4,2.5l0,3.2c0,0.9,0,1.6,0.1,2s0.3,0.9,0.5,1.4h-2.7c-0.1-0.2-0.2-0.5-0.3-0.8c0-0.2-0.1-0.3-0.1-0.3
				c-0.5,0.5-1,0.8-1.5,1s-1.1,0.3-1.7,0.3c-1.1,0-1.9-0.3-2.5-0.9c-0.6-0.6-0.9-1.3-0.9-2.2c0-0.6,0.1-1.1,0.4-1.6
				c0.3-0.5,0.7-0.8,1.2-1.1c0.5-0.2,1.2-0.5,2.2-0.6c1.3-0.2,2.2-0.5,2.7-0.7v-0.3c0-0.5-0.1-0.9-0.4-1.1c-0.3-0.2-0.8-0.3-1.5-0.3
				c-0.5,0-0.9,0.1-1.1,0.3C350.8,13.5,350.5,13.8,350.4,14.3z M354,16.5c-0.4,0.1-0.9,0.3-1.7,0.4c-0.8,0.2-1.3,0.3-1.5,0.5
				c-0.4,0.3-0.5,0.6-0.5,1c0,0.4,0.1,0.7,0.4,1s0.7,0.4,1.1,0.4c0.5,0,1-0.2,1.4-0.5c0.3-0.2,0.6-0.5,0.7-0.9
				c0.1-0.2,0.1-0.7,0.1-1.3V16.5L354,16.5z"/>
			<path fill="#6BACA1" d="M359.4,21.5V7.2h2.7v14.3H359.4z"/>
			<path fill="#6BACA1" d="M369.6,18.6l2.8-0.4c0.1,0.5,0.4,0.9,0.7,1.2c0.4,0.3,0.9,0.4,1.5,0.4c0.7,0,1.2-0.1,1.6-0.4
				c0.2-0.2,0.4-0.4,0.4-0.7c0-0.2-0.1-0.4-0.2-0.5c-0.1-0.1-0.4-0.3-0.9-0.4c-2.2-0.5-3.6-0.9-4.2-1.3c-0.8-0.6-1.2-1.3-1.2-2.3
				c0-0.9,0.4-1.7,1.1-2.3c0.7-0.6,1.8-0.9,3.3-0.9c1.4,0,2.5,0.2,3.2,0.7c0.7,0.5,1.2,1.1,1.4,2.1l-2.6,0.5
				c-0.1-0.4-0.3-0.7-0.6-0.9c-0.3-0.2-0.8-0.3-1.3-0.3c-0.7,0-1.2,0.1-1.6,0.3c-0.2,0.1-0.3,0.3-0.3,0.6c0,0.2,0.1,0.4,0.3,0.5
				c0.2,0.2,1.1,0.4,2.6,0.8c1.5,0.3,2.5,0.7,3.1,1.2c0.6,0.5,0.9,1.2,0.9,2c0,1-0.4,1.8-1.2,2.5s-2,1-3.5,1c-1.4,0-2.5-0.3-3.4-0.9
				C370.4,20.3,369.8,19.5,369.6,18.6z"/>
			<path fill="#6BACA1" d="M386.4,11.1v2.2h-1.9v4.2c0,0.8,0,1.3,0.1,1.5s0.1,0.3,0.2,0.3s0.3,0.1,0.5,0.1c0.3,0,0.6-0.1,1.1-0.3
				l0.2,2.1c-0.6,0.3-1.4,0.4-2.2,0.4c-0.5,0-0.9-0.1-1.3-0.2c-0.4-0.2-0.7-0.4-0.9-0.6c-0.2-0.3-0.3-0.6-0.4-1.1
				c-0.1-0.3-0.1-1-0.1-1.9v-4.5h-1.3v-2.2h1.3V9.1l2.8-1.6v3.7L386.4,11.1L386.4,11.1z"/>
			<path fill="#6BACA1" d="M395.2,21.5V20c-0.4,0.6-0.9,1-1.5,1.3s-1.3,0.5-1.9,0.5c-0.7,0-1.3-0.2-1.9-0.5c-0.6-0.3-1-0.7-1.2-1.3
				c-0.2-0.6-0.4-1.3-0.4-2.3v-6.6h2.7v4.8c0,1.5,0.1,2.4,0.2,2.7c0.1,0.3,0.3,0.6,0.6,0.8c0.3,0.2,0.6,0.3,1,0.3
				c0.5,0,0.9-0.1,1.3-0.4s0.6-0.6,0.8-1c0.1-0.4,0.2-1.3,0.2-2.8v-4.4h2.7v10.4L395.2,21.5L395.2,21.5z"/>
			<path fill="#6BACA1" d="M410.1,21.5h-2.5V20c-0.4,0.6-0.9,1-1.5,1.3s-1.2,0.4-1.7,0.4c-1.2,0-2.2-0.5-3.1-1.4
				c-0.9-1-1.3-2.3-1.3-4c0-1.8,0.4-3.1,1.2-4s1.9-1.4,3.1-1.4c1.2,0,2.2,0.5,3,1.4V7.2h2.7L410.1,21.5L410.1,21.5z M402.7,16.1
				c0,1.1,0.1,1.9,0.5,2.4c0.4,0.7,1.1,1.1,1.9,1.1c0.6,0,1.2-0.3,1.6-0.8c0.4-0.5,0.7-1.3,0.7-2.4c0-1.2-0.2-2-0.6-2.6
				c-0.4-0.5-1-0.8-1.6-0.8c-0.7,0-1.2,0.3-1.6,0.8C403,14.3,402.7,15.1,402.7,16.1z"/>
			<path fill="#6BACA1" d="M411.5,11.1h2.9l2.5,7.4l2.4-7.4h2.8l-3.7,10l-0.7,1.8c-0.2,0.6-0.5,1.1-0.7,1.4
				c-0.2,0.3-0.5,0.6-0.8,0.8c-0.3,0.2-0.6,0.4-1,0.5s-0.9,0.2-1.4,0.2c-0.5,0-1-0.1-1.6-0.2l-0.2-2.1c0.4,0.1,0.8,0.1,1.2,0.1
				c0.6,0,1.1-0.2,1.4-0.6c0.3-0.4,0.5-0.9,0.7-1.4L411.5,11.1z"/>
		</g>
	</g>
	<g enable-background="new    ">
		<path fill="#4D4D4F" d="M449.6,17.1c0-0.9,0.1-1.7,0.4-2.3c0.2-0.5,0.5-0.9,0.8-1.2c0.4-0.4,0.7-0.6,1.2-0.8
			c0.6-0.2,1.2-0.4,1.9-0.4c1.3,0,2.4,0.4,3.2,1.2s1.2,1.9,1.2,3.4c0,1.4-0.4,2.6-1.2,3.4c-0.8,0.8-1.8,1.2-3.1,1.2
			c-1.3,0-2.4-0.4-3.2-1.2C449.9,19.6,449.6,18.5,449.6,17.1z M451.4,17c0,1,0.2,1.8,0.7,2.3c0.5,0.5,1.1,0.8,1.8,0.8
			c0.7,0,1.3-0.3,1.8-0.8s0.7-1.3,0.7-2.3c0-1-0.2-1.8-0.7-2.3c-0.4-0.5-1-0.8-1.8-0.8c-0.7,0-1.3,0.3-1.8,0.8
			C451.6,15.2,451.4,16,451.4,17z"/>
		<path fill="#4D4D4F" d="M459.6,15h1.6V16c0.2-0.3,0.5-0.6,0.8-0.8c0.4-0.2,0.7-0.3,1.2-0.3c0.8,0,1.4,0.3,1.9,0.9
			c0.5,0.6,0.8,1.4,0.8,2.5c0,1.1-0.3,1.9-0.8,2.5c-0.5,0.6-1.2,0.9-1.9,0.9c-0.4,0-0.7-0.1-1-0.2c-0.3-0.1-0.6-0.4-0.9-0.7V24h-1.7
			V15z M461.2,18.2c0,0.7,0.1,1.3,0.4,1.6c0.3,0.3,0.6,0.5,1.1,0.5c0.4,0,0.7-0.2,1-0.5c0.3-0.3,0.4-0.8,0.4-1.6
			c0-0.7-0.1-1.2-0.4-1.5c-0.3-0.3-0.6-0.5-1-0.5c-0.4,0-0.8,0.2-1,0.5C461.4,17.1,461.2,17.5,461.2,18.2z"/>
		<path fill="#4D4D4F" d="M470.2,15v1.4H469V19c0,0.5,0,0.8,0,0.9c0,0.1,0.1,0.2,0.2,0.2c0.1,0.1,0.2,0.1,0.3,0.1
			c0.2,0,0.4-0.1,0.7-0.2l0.1,1.3c-0.4,0.2-0.9,0.3-1.4,0.3c-0.3,0-0.6-0.1-0.8-0.2c-0.2-0.1-0.4-0.2-0.5-0.4
			c-0.1-0.2-0.2-0.4-0.2-0.7c0-0.2-0.1-0.6-0.1-1.2v-2.8h-0.8v-1.4h0.8v-1.3l1.7-1v2.3L470.2,15L470.2,15z"/>
		<path fill="#4D4D4F" d="M471.4,14.2v-1.6h1.7v1.6H471.4z M471.4,21.5V15h1.7v6.5H471.4z"/>
		<path fill="#4D4D4F" d="M474.2,19.7l1.7-0.3c0.1,0.3,0.2,0.6,0.4,0.8c0.2,0.2,0.5,0.3,0.9,0.3c0.4,0,0.8-0.1,1-0.2
			c0.1-0.1,0.2-0.3,0.2-0.5c0-0.1,0-0.2-0.1-0.3c-0.1-0.1-0.3-0.2-0.6-0.2c-1.4-0.3-2.3-0.6-2.6-0.8c-0.5-0.3-0.8-0.8-0.8-1.5
			c0-0.6,0.2-1,0.7-1.4c0.4-0.4,1.1-0.6,2.1-0.6c0.9,0,1.5,0.1,2,0.4c0.4,0.3,0.7,0.7,0.9,1.3l-1.6,0.3c-0.1-0.3-0.2-0.4-0.4-0.6
			c-0.2-0.1-0.5-0.2-0.8-0.2c-0.5,0-0.8,0.1-1,0.2c-0.1,0.1-0.2,0.2-0.2,0.3c0,0.1,0.1,0.2,0.2,0.3c0.2,0.1,0.7,0.3,1.6,0.5
			c0.9,0.2,1.5,0.5,1.9,0.8c0.4,0.3,0.5,0.7,0.5,1.3c0,0.6-0.2,1.1-0.7,1.5c-0.5,0.4-1.2,0.6-2.2,0.6c-0.9,0-1.6-0.2-2.1-0.5
			C474.7,20.8,474.4,20.3,474.2,19.7z"/>
		<path fill="#4D4D4F" d="M484.7,15v1.4h-1.2V19c0,0.5,0,0.8,0,0.9c0,0.1,0.1,0.2,0.1,0.2c0.1,0.1,0.2,0.1,0.3,0.1
			c0.2,0,0.4-0.1,0.7-0.2l0.1,1.3c-0.4,0.2-0.9,0.3-1.4,0.3c-0.3,0-0.6-0.1-0.8-0.2s-0.4-0.2-0.5-0.4c-0.1-0.2-0.2-0.4-0.2-0.7
			c0-0.2-0.1-0.6-0.1-1.2v-2.8H481v-1.4h0.8v-1.3l1.7-1v2.3L484.7,15L484.7,15z"/>
		<path fill="#4D4D4F" d="M487.2,17l-1.6-0.3c0.2-0.6,0.5-1.1,0.9-1.4c0.4-0.3,1.1-0.4,1.9-0.4c0.8,0,1.3,0.1,1.7,0.3
			c0.4,0.2,0.6,0.4,0.8,0.7c0.1,0.3,0.2,0.8,0.2,1.5l0,2c0,0.6,0,1,0.1,1.3s0.2,0.6,0.3,0.9h-1.7c0-0.1-0.1-0.3-0.2-0.5
			c0-0.1,0-0.2-0.1-0.2c-0.3,0.3-0.6,0.5-0.9,0.6c-0.3,0.1-0.7,0.2-1.1,0.2c-0.7,0-1.2-0.2-1.6-0.5c-0.4-0.4-0.6-0.8-0.6-1.4
			c0-0.4,0.1-0.7,0.3-1c0.2-0.3,0.4-0.5,0.7-0.7c0.3-0.2,0.8-0.3,1.4-0.4c0.8-0.1,1.4-0.3,1.7-0.4v-0.2c0-0.3-0.1-0.6-0.2-0.7
			c-0.2-0.1-0.5-0.2-0.9-0.2c-0.3,0-0.5,0.1-0.7,0.2C487.4,16.5,487.3,16.7,487.2,17z M489.5,18.4c-0.2,0.1-0.6,0.2-1,0.3
			c-0.5,0.1-0.8,0.2-0.9,0.3c-0.2,0.2-0.3,0.4-0.3,0.6c0,0.2,0.1,0.4,0.3,0.6c0.2,0.2,0.4,0.3,0.7,0.3c0.3,0,0.6-0.1,0.9-0.3
			c0.2-0.2,0.3-0.3,0.4-0.6c0-0.1,0.1-0.4,0.1-0.8L489.5,18.4L489.5,18.4z"/>
		<path fill="#4D4D4F" d="M494.6,21.5L492,15h1.8l1.2,3.3l0.4,1.1c0.1-0.3,0.2-0.5,0.2-0.6c0.1-0.2,0.1-0.4,0.2-0.5L497,15h1.8
			l-2.6,6.5C496.2,21.5,494.6,21.5,494.6,21.5z"/>
		<path fill="#4D4D4F" d="M499.8,14.2v-1.6h1.7v1.6H499.8z M499.8,21.5V15h1.7v6.5H499.8z"/>
		<path fill="#4D4D4F" d="M509.1,21.5h-1.7v-3.3c0-0.7,0-1.1-0.1-1.4c-0.1-0.2-0.2-0.4-0.4-0.5s-0.4-0.2-0.6-0.2
			c-0.3,0-0.6,0.1-0.8,0.2c-0.2,0.2-0.4,0.4-0.5,0.6c-0.1,0.3-0.1,0.8-0.1,1.5v2.9h-1.7V15h1.6V16c0.6-0.7,1.3-1.1,2.1-1.1
			c0.4,0,0.7,0.1,1,0.2c0.3,0.1,0.5,0.3,0.7,0.5s0.3,0.5,0.3,0.7c0.1,0.3,0.1,0.6,0.1,1.1L509.1,21.5L509.1,21.5z"/>
		<path fill="#4D4D4F" d="M516.3,20.2v-2.3h-2.3v-1.6h2.3V14h1.6v2.3h2.3v1.6h-2.3v2.3C517.8,20.2,516.3,20.2,516.3,20.2z"/>
		<path fill="#4D4D4F" d="M530.7,17l-1.7,0.3c-0.1-0.3-0.2-0.6-0.4-0.8c-0.2-0.2-0.5-0.3-0.8-0.3c-0.4,0-0.8,0.1-1,0.4
			c-0.3,0.3-0.4,0.8-0.4,1.5c0,0.8,0.1,1.3,0.4,1.6s0.6,0.5,1,0.5c0.3,0,0.6-0.1,0.8-0.3s0.4-0.5,0.4-1l1.7,0.3
			c-0.2,0.8-0.5,1.4-1,1.7c-0.5,0.4-1.2,0.6-2,0.6c-0.9,0-1.7-0.3-2.3-0.9c-0.6-0.6-0.8-1.4-0.8-2.5c0-1.1,0.3-1.9,0.8-2.5
			c0.6-0.6,1.3-0.9,2.3-0.9c0.8,0,1.4,0.2,1.9,0.5C530.1,15.7,530.5,16.3,530.7,17z"/>
		<path fill="#4D4D4F" d="M533.7,12.6v3.3c0.6-0.6,1.2-1,2-1c0.4,0,0.7,0.1,1.1,0.2c0.3,0.1,0.6,0.3,0.7,0.6
			c0.2,0.2,0.3,0.5,0.3,0.8c0.1,0.3,0.1,0.7,0.1,1.3v3.8h-1.7v-3.4c0-0.7,0-1.1-0.1-1.3s-0.2-0.3-0.3-0.4c-0.2-0.1-0.4-0.2-0.6-0.2
			c-0.3,0-0.5,0.1-0.8,0.2c-0.2,0.1-0.4,0.3-0.5,0.6c-0.1,0.3-0.2,0.7-0.2,1.2v3.2H532v-8.9L533.7,12.6L533.7,12.6z"/>
		<path fill="#4D4D4F" d="M543.3,19.5l1.7,0.3c-0.2,0.6-0.6,1.1-1,1.4c-0.5,0.3-1.1,0.5-1.8,0.5c-1.1,0-2-0.4-2.5-1.1
			c-0.4-0.6-0.6-1.3-0.6-2.2c0-1.1,0.3-1.9,0.8-2.5c0.6-0.6,1.3-0.9,2.1-0.9c1,0,1.7,0.3,2.3,1c0.6,0.6,0.8,1.6,0.8,2.9h-4.3
			c0,0.5,0.2,0.9,0.4,1.2s0.6,0.4,1,0.4c0.3,0,0.5-0.1,0.7-0.2C543.1,20,543.2,19.8,543.3,19.5z M543.4,17.7c0-0.5-0.1-0.9-0.4-1.1
			c-0.2-0.3-0.5-0.4-0.9-0.4c-0.4,0-0.7,0.1-0.9,0.4c-0.2,0.3-0.4,0.6-0.4,1.1L543.4,17.7L543.4,17.7z"/>
		<path fill="#4D4D4F" d="M546.4,15h1.6v0.9c0.6-0.7,1.2-1,2-1c0.4,0,0.8,0.1,1.1,0.3c0.3,0.2,0.6,0.4,0.7,0.8
			c0.3-0.3,0.6-0.6,0.9-0.8c0.3-0.2,0.7-0.3,1.1-0.3c0.5,0,0.9,0.1,1.2,0.3c0.3,0.2,0.6,0.5,0.7,0.8c0.1,0.3,0.2,0.7,0.2,1.3v4.1
			h-1.7v-3.7c0-0.6-0.1-1.1-0.2-1.2c-0.2-0.2-0.4-0.4-0.7-0.4c-0.2,0-0.5,0.1-0.7,0.2c-0.2,0.1-0.4,0.4-0.5,0.6
			c-0.1,0.3-0.1,0.7-0.1,1.3v3.1h-1.7V18c0-0.6,0-1-0.1-1.2c-0.1-0.2-0.2-0.3-0.3-0.4c-0.1-0.1-0.3-0.1-0.5-0.1
			c-0.3,0-0.5,0.1-0.7,0.2c-0.2,0.1-0.4,0.3-0.5,0.6c-0.1,0.3-0.1,0.7-0.1,1.3v3.1h-1.7L546.4,15L546.4,15z"/>
		<path fill="#4D4D4F" d="M557.2,18.2c0-0.6,0.1-1.1,0.4-1.6c0.3-0.5,0.7-0.9,1.2-1.2c0.5-0.3,1.1-0.4,1.7-0.4c1,0,1.8,0.3,2.4,1
			c0.6,0.6,0.9,1.4,0.9,2.4c0,1-0.3,1.8-0.9,2.4s-1.4,1-2.4,1c-0.6,0-1.2-0.1-1.7-0.4c-0.5-0.3-0.9-0.7-1.2-1.2
			C557.3,19.6,557.2,18.9,557.2,18.2z M558.9,18.3c0,0.6,0.1,1.1,0.5,1.5c0.3,0.3,0.7,0.5,1.1,0.5c0.4,0,0.8-0.2,1.1-0.5
			c0.3-0.3,0.5-0.8,0.5-1.5c0-0.6-0.1-1.1-0.5-1.5c-0.3-0.3-0.7-0.5-1.1-0.5c-0.4,0-0.8,0.2-1.1,0.5
			C559.1,17.1,558.9,17.6,558.9,18.3z"/>
		<path fill="#4D4D4F" d="M568.2,15v1.4H567V19c0,0.5,0,0.8,0,0.9c0,0.1,0.1,0.2,0.1,0.2c0.1,0.1,0.2,0.1,0.3,0.1
			c0.2,0,0.4-0.1,0.7-0.2l0.1,1.3c-0.4,0.2-0.8,0.3-1.3,0.3c-0.3,0-0.6-0.1-0.8-0.2c-0.2-0.1-0.4-0.2-0.5-0.4
			c-0.1-0.2-0.2-0.4-0.2-0.7c0-0.2-0.1-0.6-0.1-1.2v-2.8h-0.8v-1.4h0.8v-1.3l1.7-1v2.3L568.2,15L568.2,15z"/>
		<path fill="#4D4D4F" d="M571,12.6v3.3c0.6-0.6,1.2-1,2-1c0.4,0,0.7,0.1,1.1,0.2c0.3,0.1,0.6,0.3,0.7,0.6c0.2,0.2,0.3,0.5,0.3,0.8
			c0.1,0.3,0.1,0.7,0.1,1.3v3.8h-1.7v-3.4c0-0.7,0-1.1-0.1-1.3c-0.1-0.2-0.2-0.3-0.3-0.4s-0.4-0.2-0.6-0.2c-0.3,0-0.5,0.1-0.8,0.2
			c-0.2,0.1-0.4,0.3-0.5,0.6c-0.1,0.3-0.2,0.7-0.2,1.2v3.2h-1.7v-8.9L571,12.6L571,12.6z"/>
		<path fill="#4D4D4F" d="M580.7,19.5l1.7,0.3c-0.2,0.6-0.6,1.1-1,1.4c-0.5,0.3-1.1,0.5-1.8,0.5c-1.1,0-2-0.4-2.5-1.1
			c-0.4-0.6-0.6-1.3-0.6-2.2c0-1.1,0.3-1.9,0.8-2.5c0.6-0.6,1.3-0.9,2.1-0.9c1,0,1.7,0.3,2.3,1c0.6,0.6,0.8,1.6,0.8,2.9h-4.3
			c0,0.5,0.2,0.9,0.4,1.2s0.6,0.4,1,0.4c0.3,0,0.5-0.1,0.7-0.2C580.5,20,580.6,19.8,580.7,19.5z M580.8,17.7c0-0.5-0.1-0.9-0.4-1.1
			c-0.2-0.3-0.5-0.4-0.9-0.4c-0.4,0-0.7,0.1-0.9,0.4c-0.2,0.3-0.4,0.6-0.4,1.1L580.8,17.7L580.8,17.7z"/>
		<path fill="#4D4D4F" d="M585.5,21.5h-1.7V15h1.6V16c0.3-0.4,0.5-0.7,0.7-0.9c0.2-0.1,0.5-0.2,0.7-0.2c0.4,0,0.8,0.1,1.1,0.3
			l-0.5,1.5c-0.3-0.2-0.6-0.3-0.8-0.3c-0.2,0-0.4,0.1-0.6,0.2s-0.3,0.4-0.4,0.7s-0.1,1.1-0.1,2.2L585.5,21.5L585.5,21.5z"/>
		<path fill="#4D4D4F" d="M590,17l-1.6-0.3c0.2-0.6,0.5-1.1,0.9-1.4c0.4-0.3,1.1-0.4,1.9-0.4c0.8,0,1.3,0.1,1.7,0.3s0.6,0.4,0.8,0.7
			c0.2,0.3,0.2,0.8,0.2,1.5l0,2c0,0.6,0,1,0.1,1.3s0.2,0.6,0.3,0.9h-1.7c0-0.1-0.1-0.3-0.2-0.5c0-0.1,0-0.2-0.1-0.2
			c-0.3,0.3-0.6,0.5-0.9,0.6c-0.3,0.1-0.7,0.2-1.1,0.2c-0.7,0-1.2-0.2-1.6-0.5s-0.6-0.8-0.6-1.4c0-0.4,0.1-0.7,0.3-1
			c0.2-0.3,0.4-0.5,0.7-0.7c0.3-0.2,0.8-0.3,1.4-0.4c0.8-0.1,1.4-0.3,1.7-0.4v-0.2c0-0.3-0.1-0.6-0.2-0.7c-0.2-0.1-0.5-0.2-0.9-0.2
			c-0.3,0-0.5,0.1-0.7,0.2C590.3,16.5,590.1,16.7,590,17z M592.3,18.4c-0.2,0.1-0.6,0.2-1,0.3c-0.5,0.1-0.8,0.2-0.9,0.3
			c-0.2,0.2-0.3,0.4-0.3,0.6c0,0.2,0.1,0.4,0.3,0.6c0.2,0.2,0.4,0.3,0.7,0.3c0.3,0,0.6-0.1,0.9-0.3c0.2-0.2,0.3-0.3,0.4-0.6
			c0-0.1,0.1-0.4,0.1-0.8V18.4L592.3,18.4z"/>
		<path fill="#4D4D4F" d="M595.6,15h1.6V16c0.2-0.3,0.5-0.6,0.8-0.8s0.7-0.3,1.2-0.3c0.8,0,1.4,0.3,1.9,0.9c0.5,0.6,0.8,1.4,0.8,2.5
			c0,1.1-0.3,1.9-0.8,2.5c-0.5,0.6-1.2,0.9-1.9,0.9c-0.4,0-0.7-0.1-1-0.2c-0.3-0.1-0.6-0.4-0.9-0.7V24h-1.7L595.6,15L595.6,15z
			 M597.3,18.2c0,0.7,0.1,1.3,0.4,1.6c0.3,0.3,0.6,0.5,1.1,0.5c0.4,0,0.7-0.2,1-0.5c0.3-0.3,0.4-0.8,0.4-1.6c0-0.7-0.1-1.2-0.4-1.5
			c-0.3-0.3-0.6-0.5-1-0.5c-0.4,0-0.8,0.2-1,0.5C597.4,17.1,597.3,17.5,597.3,18.2z"/>
		<path fill="#4D4D4F" d="M602.5,15h1.8l1.5,4.6l1.5-4.6h1.8l-2.3,6.2l-0.4,1.1c-0.1,0.4-0.3,0.7-0.4,0.9c-0.1,0.2-0.3,0.4-0.5,0.5
			c-0.2,0.1-0.4,0.2-0.7,0.3c-0.3,0.1-0.5,0.1-0.9,0.1c-0.3,0-0.7,0-1-0.1l-0.2-1.3c0.3,0.1,0.5,0.1,0.7,0.1c0.4,0,0.7-0.1,0.9-0.4
			c0.2-0.2,0.3-0.5,0.4-0.9L602.5,15z"/>
	</g>
	<g enable-background="new    ">
		<path fill="#4D4D4F" d="M614.2,24.1c-0.6-0.8-1.1-1.7-1.5-2.7c-0.4-1-0.6-2.1-0.6-3.2c0-1,0.2-1.9,0.5-2.8c0.4-1,0.9-2,1.7-3.1
			h0.8c-0.5,0.8-0.8,1.4-1,1.8c-0.2,0.6-0.4,1.1-0.6,1.8c-0.2,0.8-0.3,1.5-0.3,2.3c0,2,0.6,3.9,1.8,5.8L614.2,24.1L614.2,24.1z"/>
		<path fill="#4D4D4F" d="M616.3,21.5V15h1V16c0.5-0.7,1.2-1.1,2.1-1.1c0.4,0,0.7,0.1,1.1,0.2c0.3,0.1,0.6,0.3,0.7,0.6
			s0.3,0.5,0.3,0.8c0,0.2,0.1,0.6,0.1,1.1v4h-1.1v-3.9c0-0.4,0-0.8-0.1-1c-0.1-0.2-0.2-0.4-0.5-0.5s-0.5-0.2-0.8-0.2
			c-0.5,0-0.9,0.1-1.2,0.4c-0.3,0.3-0.5,0.9-0.5,1.7v3.5L616.3,21.5L616.3,21.5z"/>
		<path fill="#4D4D4F" d="M629,16.3h-5.9v-1h5.9V16.3z M629,19h-5.9v-1h5.9V19z"/>
		<path fill="#4D4D4F" d="M633.7,21.5v-2.1h-3.9v-1l4.1-5.8h0.9v5.8h1.2v1h-1.2v2.1H633.7z M633.7,18.4v-4l-2.8,4H633.7z"/>
		<path fill="#4D4D4F" d="M640.6,21.5v-2.1h-3.9v-1l4.1-5.8h0.9v5.8h1.2v1h-1.2v2.1H640.6z M640.6,18.4v-4l-2.8,4H640.6z"/>
		<path fill="#4D4D4F" d="M644.1,13.8v-1.1h5.8v0.9c-0.6,0.6-1.1,1.4-1.7,2.4c-0.6,1-1,2-1.3,3.1c-0.2,0.7-0.4,1.6-0.4,2.5h-1.1
			c0-0.7,0.1-1.5,0.4-2.5c0.3-1,0.6-2,1.1-2.9c0.5-0.9,1-1.7,1.6-2.3L644.1,13.8L644.1,13.8z"/>
		<path fill="#4D4D4F" d="M652,24.1h-0.8c1.2-1.9,1.8-3.9,1.8-5.8c0-0.8-0.1-1.5-0.3-2.3c-0.1-0.6-0.3-1.2-0.6-1.8
			c-0.2-0.4-0.5-1-1-1.8h0.8c0.8,1,1.3,2,1.7,3.1c0.3,0.9,0.5,1.8,0.5,2.8c0,1.1-0.2,2.2-0.6,3.2C653.1,22.5,652.6,23.4,652,24.1z"
			/>
	</g>
	<g enable-background="new    ">
		<path fill="#4D4D4F" d="M684.4,18.2l1.7,0.6c-0.3,1-0.7,1.7-1.3,2.2s-1.4,0.7-2.4,0.7c-1.2,0-2.2-0.4-2.9-1.2
			c-0.8-0.8-1.1-1.9-1.1-3.3c0-1.5,0.4-2.6,1.2-3.5c0.8-0.8,1.8-1.2,3-1.2c1.1,0,2,0.3,2.7,1c0.4,0.4,0.7,0.9,0.9,1.6l-1.8,0.4
			c-0.1-0.5-0.3-0.8-0.7-1.1c-0.3-0.3-0.7-0.4-1.2-0.4c-0.7,0-1.2,0.2-1.6,0.7c-0.4,0.5-0.6,1.2-0.6,2.3c0,1.1,0.2,1.9,0.6,2.4
			c0.4,0.5,0.9,0.7,1.6,0.7c0.5,0,0.9-0.2,1.2-0.5C684,19.4,684.2,18.9,684.4,18.2z"/>
		<path fill="#4D4D4F" d="M689.3,12.6v3.3c0.6-0.6,1.2-1,2-1c0.4,0,0.7,0.1,1.1,0.2c0.3,0.1,0.6,0.3,0.7,0.6
			c0.2,0.2,0.3,0.5,0.3,0.8c0.1,0.3,0.1,0.7,0.1,1.3v3.8h-1.7v-3.4c0-0.7,0-1.1-0.1-1.3c-0.1-0.2-0.2-0.3-0.3-0.4s-0.4-0.2-0.6-0.2
			c-0.3,0-0.5,0.1-0.8,0.2c-0.2,0.1-0.4,0.3-0.5,0.6c-0.1,0.3-0.2,0.7-0.2,1.2v3.2h-1.7v-8.9L689.3,12.6L689.3,12.6z"/>
		<path fill="#4D4D4F" d="M699,19.5l1.7,0.3c-0.2,0.6-0.6,1.1-1,1.4c-0.5,0.3-1.1,0.5-1.8,0.5c-1.1,0-2-0.4-2.5-1.1
			c-0.4-0.6-0.6-1.3-0.6-2.2c0-1.1,0.3-1.9,0.8-2.5c0.6-0.6,1.3-0.9,2.1-0.9c1,0,1.7,0.3,2.3,1c0.6,0.6,0.8,1.6,0.8,2.9h-4.3
			c0,0.5,0.1,0.9,0.4,1.2c0.3,0.3,0.6,0.4,1,0.4c0.3,0,0.5-0.1,0.7-0.2C698.8,20,698.9,19.8,699,19.5z M699.1,17.7
			c0-0.5-0.1-0.9-0.4-1.1c-0.2-0.3-0.5-0.4-0.9-0.4c-0.4,0-0.7,0.1-0.9,0.4c-0.2,0.3-0.4,0.6-0.4,1.1L699.1,17.7L699.1,17.7z"/>
		<path fill="#4D4D4F" d="M702.1,15h1.6v0.9c0.6-0.7,1.2-1,2-1c0.4,0,0.8,0.1,1.1,0.3c0.3,0.2,0.6,0.4,0.7,0.8
			c0.3-0.3,0.6-0.6,0.9-0.8c0.3-0.2,0.7-0.3,1.1-0.3c0.5,0,0.9,0.1,1.2,0.3c0.3,0.2,0.6,0.5,0.7,0.8c0.1,0.3,0.2,0.7,0.2,1.3v4.1
			h-1.7v-3.7c0-0.6-0.1-1.1-0.2-1.2c-0.2-0.2-0.4-0.4-0.7-0.4c-0.2,0-0.5,0.1-0.7,0.2c-0.2,0.1-0.4,0.4-0.5,0.6
			c-0.1,0.3-0.1,0.7-0.1,1.3v3.1H706V18c0-0.6,0-1-0.1-1.2c-0.1-0.2-0.2-0.3-0.3-0.4c-0.1-0.1-0.3-0.1-0.5-0.1
			c-0.3,0-0.5,0.1-0.7,0.2c-0.2,0.1-0.4,0.3-0.5,0.6c-0.1,0.3-0.1,0.7-0.1,1.3v3.1h-1.7L702.1,15L702.1,15z"/>
		<path fill="#4D4D4F" d="M712.9,18.2c0-0.6,0.1-1.1,0.4-1.6s0.7-0.9,1.2-1.2c0.5-0.3,1.1-0.4,1.7-0.4c1,0,1.8,0.3,2.4,1
			s0.9,1.4,0.9,2.4c0,1-0.3,1.8-0.9,2.4c-0.6,0.6-1.4,1-2.4,1c-0.6,0-1.2-0.1-1.7-0.4c-0.5-0.3-0.9-0.7-1.2-1.2
			C713,19.6,712.9,18.9,712.9,18.2z M714.6,18.3c0,0.6,0.2,1.1,0.5,1.5c0.3,0.3,0.7,0.5,1.1,0.5c0.4,0,0.8-0.2,1.1-0.5
			c0.3-0.3,0.5-0.8,0.5-1.5c0-0.6-0.2-1.1-0.5-1.5c-0.3-0.3-0.7-0.5-1.1-0.5c-0.4,0-0.8,0.2-1.1,0.5
			C714.8,17.1,714.6,17.6,714.6,18.3z"/>
		<path fill="#4D4D4F" d="M725.6,17l-1.6-0.3c0.2-0.6,0.5-1.1,0.9-1.4c0.4-0.3,1.1-0.4,1.9-0.4c0.8,0,1.3,0.1,1.7,0.3
			s0.6,0.4,0.8,0.7c0.2,0.3,0.2,0.8,0.2,1.5l0,2c0,0.6,0,1,0.1,1.3c0.1,0.3,0.2,0.6,0.3,0.9h-1.7c0-0.1-0.1-0.3-0.2-0.5
			c0-0.1,0-0.2-0.1-0.2c-0.3,0.3-0.6,0.5-0.9,0.6c-0.3,0.1-0.7,0.2-1.1,0.2c-0.7,0-1.2-0.2-1.6-0.5c-0.4-0.4-0.6-0.8-0.6-1.4
			c0-0.4,0.1-0.7,0.3-1c0.2-0.3,0.4-0.5,0.7-0.7c0.3-0.2,0.8-0.3,1.4-0.4c0.8-0.1,1.4-0.3,1.7-0.4v-0.2c0-0.3-0.1-0.6-0.2-0.7
			c-0.2-0.1-0.5-0.2-0.9-0.2c-0.3,0-0.5,0.1-0.7,0.2C725.9,16.5,725.7,16.7,725.6,17z M727.9,18.4c-0.2,0.1-0.6,0.2-1,0.3
			c-0.5,0.1-0.8,0.2-0.9,0.3c-0.2,0.2-0.3,0.4-0.3,0.6c0,0.2,0.1,0.4,0.3,0.6c0.2,0.2,0.4,0.3,0.7,0.3c0.3,0,0.6-0.1,0.9-0.3
			c0.2-0.2,0.3-0.3,0.4-0.6c0-0.1,0.1-0.4,0.1-0.8V18.4L727.9,18.4z"/>
		<path fill="#4D4D4F" d="M731.3,21.5v-8.9h1.7v8.9H731.3z"/>
		<path fill="#4D4D4F" d="M734.3,18.2c0-0.6,0.1-1.1,0.4-1.6s0.7-0.9,1.2-1.2c0.5-0.3,1.1-0.4,1.7-0.4c1,0,1.8,0.3,2.4,1
			c0.6,0.6,0.9,1.4,0.9,2.4c0,1-0.3,1.8-0.9,2.4s-1.4,1-2.4,1c-0.6,0-1.2-0.1-1.7-0.4c-0.5-0.3-0.9-0.7-1.2-1.2
			C734.5,19.6,734.3,18.9,734.3,18.2z M736.1,18.3c0,0.6,0.2,1.1,0.5,1.5c0.3,0.3,0.7,0.5,1.1,0.5s0.8-0.2,1.1-0.5
			c0.3-0.3,0.5-0.8,0.5-1.5c0-0.6-0.2-1.1-0.5-1.5s-0.7-0.5-1.1-0.5s-0.8,0.2-1.1,0.5S736.1,17.6,736.1,18.3z"/>
		<path fill="#4D4D4F" d="M748.2,21.5h-1.7v-3.3c0-0.7,0-1.1-0.1-1.4c-0.1-0.2-0.2-0.4-0.4-0.5c-0.2-0.1-0.4-0.2-0.6-0.2
			c-0.3,0-0.6,0.1-0.8,0.2c-0.2,0.2-0.4,0.4-0.5,0.6c-0.1,0.3-0.1,0.8-0.1,1.5v2.9h-1.7V15h1.6V16c0.6-0.7,1.3-1.1,2.1-1.1
			c0.4,0,0.7,0.1,1,0.2c0.3,0.1,0.6,0.3,0.7,0.5c0.2,0.2,0.3,0.5,0.3,0.7c0.1,0.3,0.1,0.6,0.1,1.1L748.2,21.5L748.2,21.5z"/>
		<path fill="#4D4D4F" d="M753.7,19.5l1.7,0.3c-0.2,0.6-0.6,1.1-1,1.4c-0.5,0.3-1.1,0.5-1.8,0.5c-1.1,0-2-0.4-2.5-1.1
			c-0.4-0.6-0.6-1.3-0.6-2.2c0-1.1,0.3-1.9,0.8-2.5c0.6-0.6,1.3-0.9,2.1-0.9c1,0,1.7,0.3,2.3,1c0.6,0.6,0.8,1.6,0.8,2.9h-4.3
			c0,0.5,0.1,0.9,0.4,1.2s0.6,0.4,1,0.4c0.3,0,0.5-0.1,0.7-0.2C753.5,20,753.6,19.8,753.7,19.5z M753.8,17.7c0-0.5-0.1-0.9-0.4-1.1
			c-0.2-0.3-0.5-0.4-0.9-0.4c-0.4,0-0.7,0.1-0.9,0.4c-0.2,0.3-0.4,0.6-0.4,1.1L753.8,17.7L753.8,17.7z"/>
	</g>
	<g enable-background="new    ">
		<path fill="#4D4D4F" d="M760.9,24.1c-0.6-0.8-1.1-1.7-1.5-2.7c-0.4-1-0.6-2.1-0.6-3.2c0-1,0.2-1.9,0.5-2.8c0.4-1,0.9-2,1.7-3.1
			h0.8c-0.5,0.8-0.8,1.4-1,1.8c-0.2,0.6-0.4,1.1-0.6,1.8c-0.2,0.8-0.3,1.5-0.3,2.3c0,2,0.6,3.9,1.8,5.8L760.9,24.1L760.9,24.1z"/>
		<path fill="#4D4D4F" d="M763,21.5V15h1V16c0.5-0.7,1.2-1.1,2.1-1.1c0.4,0,0.7,0.1,1.1,0.2c0.3,0.1,0.6,0.3,0.7,0.6
			s0.3,0.5,0.3,0.8c0,0.2,0.1,0.6,0.1,1.1v4h-1.1v-3.9c0-0.4,0-0.8-0.1-1c-0.1-0.2-0.2-0.4-0.5-0.5s-0.5-0.2-0.8-0.2
			c-0.5,0-0.9,0.1-1.2,0.4c-0.3,0.3-0.5,0.9-0.5,1.7v3.5L763,21.5L763,21.5z"/>
		<path fill="#4D4D4F" d="M775.7,16.3h-5.9v-1h5.9V16.3z M775.7,19h-5.9v-1h5.9V19z"/>
		<path fill="#4D4D4F" d="M780.4,21.5v-2.1h-3.9v-1l4.1-5.8h0.9v5.8h1.2v1h-1.2v2.1H780.4z M780.4,18.4v-4l-2.8,4H780.4z"/>
		<path fill="#4D4D4F" d="M783.8,19.2l1.2-0.1c0.1,0.6,0.3,1,0.6,1.3c0.3,0.3,0.7,0.4,1.1,0.4c0.5,0,1-0.2,1.3-0.6
			c0.4-0.4,0.5-0.9,0.5-1.6c0-0.6-0.2-1.1-0.5-1.5c-0.3-0.4-0.8-0.5-1.4-0.5c-0.4,0-0.7,0.1-1,0.2c-0.3,0.2-0.5,0.4-0.7,0.6l-1-0.1
			l0.9-4.6h4.4v1h-3.6l-0.5,2.4c0.5-0.4,1.1-0.6,1.7-0.6c0.8,0,1.4,0.3,2,0.8c0.5,0.5,0.8,1.2,0.8,2.1c0,0.8-0.2,1.5-0.7,2.1
			c-0.6,0.7-1.4,1.1-2.3,1.1c-0.8,0-1.5-0.2-2-0.7C784.2,20.5,783.9,19.9,783.8,19.2z"/>
		<path fill="#4D4D4F" d="M794.8,21.5h-1.1v-7c-0.3,0.3-0.6,0.5-1,0.8c-0.4,0.3-0.8,0.4-1.2,0.6v-1.1c0.6-0.3,1.1-0.6,1.6-1
			c0.5-0.4,0.8-0.8,1-1.2h0.7V21.5z"/>
		<path fill="#4D4D4F" d="M798.7,24.1h-0.8c1.2-1.9,1.8-3.9,1.8-5.8c0-0.8-0.1-1.5-0.3-2.3c-0.1-0.6-0.3-1.2-0.6-1.8
			c-0.2-0.4-0.5-1-1-1.8h0.8c0.8,1,1.3,2,1.7,3.1c0.3,0.9,0.5,1.8,0.5,2.8c0,1.1-0.2,2.2-0.6,3.2S799.3,23.4,798.7,24.1z"/>
	</g>
</g>
</svg>
