<?xml version="1.0" encoding="utf-8"?>
<!-- Generator: Adobe Illustrator 17.0.1, SVG Export Plug-In . SVG Version: 6.00 Build 0)  -->
<!DOCTYPE svg PUBLIC "-//W3C//DTD SVG 1.1//EN" "http://www.w3.org/Graphics/SVG/1.1/DTD/svg11.dtd">
<svg version="1.1" id="Layer_1" xmlns="http://www.w3.org/2000/svg" xmlns:xlink="http://www.w3.org/1999/xlink" x="0px" y="0px"
	 width="902.667px" height="34.009px" viewBox="0 0 902.667 34.009" enable-background="new 0 0 902.667 34.009"
	 xml:space="preserve">
<g>
	<rect x="524.463" fill="#ECF6F2" width="225.444" height="34.009"/>
	<rect x="749.911" opacity="0.8" fill="#DBDBDC" enable-background="new    " width="150.904" height="34.009"/>
	
		<line fill="none" stroke="#D6ECE6" stroke-width="2.7689" stroke-miterlimit="10" x1="1.853" y1="34.009" x2="900.815" y2="34.009"/>
	<g>
		<g enable-background="new    ">
			<path fill="#6BACA1" d="M2.575,16.851l2.812-0.273c0.169,0.944,0.513,1.638,1.03,2.08s1.216,0.664,2.095,0.664
				c0.931,0,1.632-0.197,2.104-0.591s0.708-0.854,0.708-1.382c0-0.339-0.099-0.627-0.298-0.864s-0.545-0.444-1.04-0.62
				c-0.338-0.117-1.11-0.325-2.314-0.625c-1.549-0.384-2.637-0.856-3.262-1.416c-0.879-0.788-1.318-1.748-1.318-2.881
				c0-0.729,0.207-1.411,0.62-2.046c0.413-0.635,1.009-1.118,1.787-1.45s1.717-0.498,2.817-0.498c1.797,0,3.149,0.394,4.058,1.182
				s1.385,1.839,1.431,3.154l-2.891,0.127c-0.124-0.735-0.389-1.265-0.796-1.587S9.101,9.342,8.287,9.342
				c-0.84,0-1.498,0.173-1.973,0.518c-0.306,0.222-0.459,0.518-0.459,0.889c0,0.339,0.143,0.628,0.43,0.869
				c0.365,0.306,1.25,0.625,2.656,0.957s2.446,0.676,3.12,1.03s1.201,0.84,1.582,1.455c0.381,0.615,0.571,1.375,0.571,2.28
				c0,0.82-0.228,1.589-0.684,2.305s-1.1,1.248-1.934,1.597s-1.872,0.522-3.115,0.522c-1.81,0-3.2-0.418-4.17-1.255
				S2.764,18.453,2.575,16.851z"/>
			<path fill="#6BACA1" d="M22.634,18.209l2.734,0.459c-0.352,1.003-0.907,1.766-1.665,2.29c-0.758,0.524-1.708,0.786-2.847,0.786
				c-1.803,0-3.138-0.589-4.004-1.768c-0.684-0.944-1.025-2.136-1.025-3.574c0-1.719,0.449-3.064,1.348-4.038s2.035-1.46,3.408-1.46
				c1.543,0,2.76,0.51,3.652,1.528s1.318,2.58,1.279,4.683h-6.875c0.02,0.813,0.241,1.447,0.664,1.899
				c0.423,0.452,0.951,0.679,1.582,0.679c0.43,0,0.791-0.117,1.084-0.352S22.484,18.729,22.634,18.209z M22.79,15.435
				c-0.02-0.794-0.225-1.398-0.615-1.812s-0.866-0.62-1.426-0.62c-0.599,0-1.094,0.218-1.484,0.654s-0.583,1.028-0.576,1.777
				L22.79,15.435L22.79,15.435z"/>
			<path fill="#6BACA1" d="M30.603,21.51l-4.18-10.371h2.881l1.953,5.293l0.566,1.768c0.15-0.449,0.244-0.745,0.283-0.889
				c0.091-0.293,0.189-0.586,0.293-0.879l1.973-5.293h2.822L33.073,21.51H30.603z"/>
			<path fill="#6BACA1" d="M44.88,18.209l2.734,0.459c-0.352,1.003-0.907,1.766-1.665,2.29c-0.758,0.524-1.708,0.786-2.847,0.786
				c-1.803,0-3.138-0.589-4.004-1.768c-0.684-0.944-1.025-2.136-1.025-3.574c0-1.719,0.449-3.064,1.348-4.038s2.035-1.46,3.408-1.46
				c1.543,0,2.76,0.51,3.652,1.528s1.318,2.58,1.279,4.683h-6.875c0.02,0.813,0.241,1.447,0.664,1.899s0.951,0.679,1.582,0.679
				c0.43,0,0.791-0.117,1.084-0.352C44.508,19.106,44.73,18.729,44.88,18.209z M45.036,15.435c-0.02-0.794-0.225-1.398-0.615-1.812
				s-0.866-0.62-1.426-0.62c-0.599,0-1.094,0.218-1.484,0.654s-0.583,1.028-0.576,1.777L45.036,15.435L45.036,15.435z"/>
			<path fill="#6BACA1" d="M52.624,21.51H49.88V11.139h2.549v1.475c0.436-0.696,0.829-1.155,1.177-1.377
				c0.348-0.222,0.744-0.332,1.187-0.332c0.625,0,1.227,0.173,1.807,0.518l-0.85,2.393c-0.462-0.3-0.892-0.449-1.289-0.449
				c-0.384,0-0.709,0.105-0.977,0.317s-0.477,0.594-0.63,1.147s-0.229,1.712-0.229,3.477L52.624,21.51L52.624,21.51z"/>
			<path fill="#6BACA1" d="M63.786,18.209l2.734,0.459c-0.352,1.003-0.907,1.766-1.665,2.29c-0.758,0.524-1.708,0.786-2.847,0.786
				c-1.803,0-3.138-0.589-4.004-1.768c-0.684-0.944-1.025-2.136-1.025-3.574c0-1.719,0.449-3.064,1.348-4.038s2.035-1.46,3.408-1.46
				c1.543,0,2.76,0.51,3.652,1.528s1.318,2.58,1.279,4.683h-6.875c0.02,0.813,0.241,1.447,0.664,1.899s0.951,0.679,1.582,0.679
				c0.43,0,0.791-0.117,1.084-0.352S63.636,18.729,63.786,18.209z M63.942,15.435c-0.02-0.794-0.225-1.398-0.615-1.812
				s-0.866-0.62-1.426-0.62c-0.599,0-1.094,0.218-1.484,0.654s-0.583,1.028-0.576,1.777L63.942,15.435L63.942,15.435z"/>
			<path fill="#6BACA1" d="M76.51,14.303l-2.49-0.449c0.28-1.003,0.762-1.745,1.445-2.227c0.683-0.482,1.699-0.723,3.047-0.723
				c1.224,0,2.135,0.145,2.734,0.435s1.021,0.657,1.265,1.104s0.366,1.265,0.366,2.456l-0.029,3.203
				c0,0.911,0.044,1.584,0.132,2.017s0.252,0.896,0.493,1.392h-2.715c-0.072-0.183-0.16-0.452-0.264-0.811
				c-0.045-0.163-0.078-0.271-0.098-0.322c-0.469,0.456-0.97,0.798-1.504,1.025s-1.104,0.342-1.709,0.342
				c-1.068,0-1.909-0.29-2.524-0.869c-0.615-0.579-0.923-1.312-0.923-2.197c0-0.586,0.14-1.108,0.42-1.567
				c0.28-0.459,0.672-0.811,1.177-1.055s1.232-0.457,2.183-0.64c1.283-0.241,2.171-0.466,2.666-0.674V14.47
				c0-0.527-0.13-0.903-0.391-1.128s-0.752-0.337-1.475-0.337c-0.488,0-0.869,0.096-1.143,0.288
				C76.9,13.485,76.68,13.821,76.51,14.303z M80.182,16.529c-0.352,0.117-0.908,0.257-1.67,0.42
				c-0.762,0.163-1.26,0.322-1.494,0.479c-0.358,0.254-0.537,0.576-0.537,0.967c0,0.384,0.143,0.716,0.43,0.996
				c0.287,0.28,0.651,0.42,1.094,0.42c0.495,0,0.967-0.163,1.416-0.488c0.332-0.247,0.55-0.55,0.654-0.908
				c0.072-0.234,0.107-0.681,0.107-1.338L80.182,16.529L80.182,16.529z"/>
			<path fill="#6BACA1" d="M95.094,21.51h-2.549v-1.523c-0.423,0.593-0.923,1.033-1.499,1.323c-0.576,0.29-1.157,0.435-1.743,0.435
				c-1.191,0-2.212-0.48-3.062-1.44s-1.274-2.3-1.274-4.019c0-1.758,0.414-3.094,1.24-4.009s1.872-1.372,3.135-1.372
				c1.159,0,2.162,0.481,3.008,1.445V7.194h2.744L95.094,21.51L95.094,21.51z M87.77,16.099c0,1.106,0.153,1.907,0.459,2.402
				c0.443,0.716,1.061,1.074,1.855,1.074c0.631,0,1.168-0.269,1.611-0.806s0.664-1.34,0.664-2.407c0-1.191-0.215-2.049-0.645-2.573
				c-0.43-0.524-0.98-0.786-1.65-0.786c-0.651,0-1.196,0.259-1.636,0.776C87.988,14.296,87.77,15.071,87.77,16.099z"/>
			<path fill="#6BACA1" d="M100.65,21.51l-4.18-10.371h2.881l1.953,5.293l0.566,1.768c0.15-0.449,0.244-0.745,0.283-0.889
				c0.091-0.293,0.189-0.586,0.293-0.879l1.973-5.293h2.822l-4.121,10.371H100.65z"/>
			<path fill="#6BACA1" d="M114.928,18.209l2.734,0.459c-0.352,1.003-0.907,1.766-1.665,2.29c-0.758,0.524-1.708,0.786-2.847,0.786
				c-1.803,0-3.138-0.589-4.004-1.768c-0.684-0.944-1.025-2.136-1.025-3.574c0-1.719,0.449-3.064,1.348-4.038s2.035-1.46,3.408-1.46
				c1.543,0,2.76,0.51,3.652,1.528s1.318,2.58,1.279,4.683h-6.875c0.02,0.813,0.241,1.447,0.664,1.899s0.951,0.679,1.582,0.679
				c0.43,0,0.791-0.117,1.084-0.352S114.779,18.729,114.928,18.209z M115.085,15.435c-0.02-0.794-0.225-1.398-0.615-1.812
				s-0.866-0.62-1.426-0.62c-0.599,0-1.094,0.218-1.484,0.654s-0.583,1.028-0.576,1.777L115.085,15.435L115.085,15.435z"/>
			<path fill="#6BACA1" d="M122.673,21.51h-2.744V11.139h2.549v1.475c0.436-0.696,0.829-1.155,1.177-1.377
				c0.348-0.222,0.744-0.332,1.187-0.332c0.625,0,1.227,0.173,1.807,0.518l-0.85,2.393c-0.462-0.3-0.892-0.449-1.289-0.449
				c-0.384,0-0.709,0.105-0.977,0.317s-0.477,0.594-0.63,1.147s-0.229,1.712-0.229,3.477L122.673,21.51L122.673,21.51z"/>
			<path fill="#6BACA1" d="M126.861,18.551l2.754-0.42c0.117,0.534,0.355,0.939,0.713,1.216s0.859,0.415,1.504,0.415
				c0.709,0,1.244-0.13,1.602-0.391c0.241-0.183,0.361-0.427,0.361-0.732c0-0.208-0.065-0.381-0.195-0.518
				c-0.137-0.13-0.443-0.251-0.918-0.361c-2.213-0.488-3.617-0.935-4.209-1.338c-0.82-0.56-1.23-1.338-1.23-2.334
				c0-0.898,0.355-1.653,1.064-2.266c0.709-0.613,1.81-0.918,3.301-0.918c1.419,0,2.474,0.231,3.164,0.693s1.166,1.146,1.426,2.051
				l-2.588,0.479c-0.111-0.403-0.321-0.713-0.63-0.928s-0.75-0.322-1.323-0.322c-0.723,0-1.24,0.101-1.553,0.303
				c-0.208,0.144-0.312,0.329-0.312,0.557c0,0.195,0.091,0.361,0.273,0.498c0.248,0.183,1.102,0.439,2.563,0.771
				s2.482,0.739,3.062,1.221c0.573,0.488,0.859,1.169,0.859,2.041c0,0.95-0.397,1.768-1.191,2.451s-1.969,1.025-3.525,1.025
				c-1.413,0-2.531-0.286-3.354-0.859C127.656,20.312,127.115,19.534,126.861,18.551z"/>
			<path fill="#6BACA1" d="M144.958,18.209l2.734,0.459c-0.352,1.003-0.907,1.766-1.665,2.29c-0.758,0.524-1.708,0.786-2.847,0.786
				c-1.803,0-3.138-0.589-4.004-1.768c-0.684-0.944-1.025-2.136-1.025-3.574c0-1.719,0.449-3.064,1.348-4.038s2.035-1.46,3.408-1.46
				c1.543,0,2.76,0.51,3.652,1.528s1.318,2.58,1.279,4.683h-6.875c0.02,0.813,0.241,1.447,0.664,1.899s0.951,0.679,1.582,0.679
				c0.43,0,0.791-0.117,1.084-0.352S144.807,18.729,144.958,18.209z M145.113,15.435c-0.02-0.794-0.225-1.398-0.615-1.812
				s-0.866-0.62-1.426-0.62c-0.599,0-1.094,0.218-1.484,0.654s-0.583,1.028-0.576,1.777L145.113,15.435L145.113,15.435z"/>
			<path fill="#6BACA1" d="M161.637,18.209l2.734,0.459c-0.352,1.003-0.907,1.766-1.665,2.29c-0.758,0.524-1.708,0.786-2.847,0.786
				c-1.803,0-3.138-0.589-4.004-1.768c-0.684-0.944-1.025-2.136-1.025-3.574c0-1.719,0.449-3.064,1.348-4.038s2.035-1.46,3.408-1.46
				c1.543,0,2.76,0.51,3.652,1.528s1.318,2.58,1.279,4.683h-6.875c0.02,0.813,0.241,1.447,0.664,1.899s0.951,0.679,1.582,0.679
				c0.43,0,0.791-0.117,1.084-0.352S161.488,18.729,161.637,18.209z M161.794,15.435c-0.02-0.794-0.225-1.398-0.615-1.812
				s-0.866-0.62-1.426-0.62c-0.599,0-1.094,0.218-1.484,0.654s-0.583,1.028-0.576,1.777L161.794,15.435L161.794,15.435z"/>
			<path fill="#6BACA1" d="M169.605,21.51l-4.18-10.371h2.881l1.953,5.293l0.566,1.768c0.15-0.449,0.244-0.745,0.283-0.889
				c0.091-0.293,0.189-0.586,0.293-0.879l1.973-5.293h2.822l-4.121,10.371H169.605z"/>
			<path fill="#6BACA1" d="M183.884,18.209l2.734,0.459c-0.352,1.003-0.907,1.766-1.665,2.29c-0.758,0.524-1.708,0.786-2.847,0.786
				c-1.803,0-3.138-0.589-4.004-1.768c-0.684-0.944-1.025-2.136-1.025-3.574c0-1.719,0.449-3.064,1.348-4.038s2.035-1.46,3.408-1.46
				c1.543,0,2.76,0.51,3.652,1.528s1.318,2.58,1.279,4.683h-6.875c0.02,0.813,0.241,1.447,0.664,1.899s0.951,0.679,1.582,0.679
				c0.43,0,0.791-0.117,1.084-0.352S183.733,18.729,183.884,18.209z M184.039,15.435c-0.02-0.794-0.225-1.398-0.615-1.812
				c-0.39-0.414-0.866-0.62-1.426-0.62c-0.599,0-1.094,0.218-1.484,0.654s-0.583,1.028-0.576,1.777L184.039,15.435L184.039,15.435z"
				/>
			<path fill="#6BACA1" d="M198.435,21.51h-2.744v-5.293c0-1.12-0.059-1.844-0.176-2.173s-0.308-0.584-0.571-0.767
				c-0.263-0.183-0.581-0.273-0.952-0.273c-0.475,0-0.902,0.13-1.279,0.391c-0.377,0.261-0.636,0.605-0.776,1.035
				s-0.21,1.224-0.21,2.383v4.697h-2.744V11.139h2.549v1.523c0.905-1.172,2.044-1.758,3.418-1.758c0.605,0,1.159,0.109,1.66,0.327
				s0.88,0.496,1.138,0.835s0.436,0.723,0.537,1.152c0.101,0.429,0.151,1.045,0.151,1.846L198.435,21.51L198.435,21.51z"/>
			<path fill="#6BACA1" d="M205.974,11.139v2.188h-1.875v4.18c0,0.847,0.018,1.34,0.054,1.479c0.036,0.139,0.117,0.256,0.244,0.347
				c0.127,0.091,0.282,0.137,0.464,0.137c0.254,0,0.622-0.088,1.104-0.264l0.234,2.129c-0.638,0.273-1.361,0.41-2.168,0.41
				c-0.495,0-0.941-0.083-1.338-0.249s-0.688-0.381-0.874-0.645s-0.314-0.62-0.386-1.069c-0.059-0.319-0.088-0.964-0.088-1.934
				v-4.521h-1.26v-2.188h1.26V9.078l2.754-1.602v3.662L205.974,11.139L205.974,11.139z"/>
			<path fill="#6BACA1" d="M206.91,18.551l2.754-0.42c0.117,0.534,0.355,0.939,0.713,1.216s0.859,0.415,1.504,0.415
				c0.709,0,1.244-0.13,1.602-0.391c0.241-0.183,0.361-0.427,0.361-0.732c0-0.208-0.065-0.381-0.195-0.518
				c-0.137-0.13-0.443-0.251-0.918-0.361c-2.213-0.488-3.617-0.935-4.209-1.338c-0.82-0.56-1.23-1.338-1.23-2.334
				c0-0.898,0.355-1.653,1.064-2.266c0.709-0.613,1.81-0.918,3.301-0.918c1.419,0,2.474,0.231,3.164,0.693s1.166,1.146,1.426,2.051
				l-2.588,0.479c-0.111-0.403-0.321-0.713-0.63-0.928s-0.75-0.322-1.323-0.322c-0.723,0-1.24,0.101-1.553,0.303
				c-0.208,0.144-0.312,0.329-0.312,0.557c0,0.195,0.091,0.361,0.273,0.498c0.248,0.183,1.102,0.439,2.563,0.771
				s2.482,0.739,3.062,1.221c0.573,0.488,0.859,1.169,0.859,2.041c0,0.95-0.397,1.768-1.191,2.451s-1.969,1.025-3.525,1.025
				c-1.413,0-2.531-0.286-3.354-0.859C207.706,20.312,207.164,19.534,206.91,18.551z"/>
			<path fill="#6BACA1" d="M223.591,18.551l2.754-0.42c0.117,0.534,0.355,0.939,0.713,1.216s0.859,0.415,1.504,0.415
				c0.709,0,1.244-0.13,1.602-0.391c0.241-0.183,0.361-0.427,0.361-0.732c0-0.208-0.065-0.381-0.195-0.518
				c-0.137-0.13-0.443-0.251-0.918-0.361c-2.213-0.488-3.617-0.935-4.209-1.338c-0.82-0.56-1.23-1.338-1.23-2.334
				c0-0.898,0.355-1.653,1.064-2.266c0.709-0.613,1.81-0.918,3.301-0.918c1.419,0,2.474,0.231,3.164,0.693s1.166,1.146,1.426,2.051
				l-2.588,0.479c-0.111-0.403-0.321-0.713-0.63-0.928s-0.75-0.322-1.323-0.322c-0.723,0-1.24,0.101-1.553,0.303
				c-0.208,0.144-0.312,0.329-0.312,0.557c0,0.195,0.091,0.361,0.273,0.498c0.248,0.183,1.102,0.439,2.563,0.771
				s2.482,0.739,3.062,1.221c0.573,0.488,0.859,1.169,0.859,2.041c0,0.95-0.397,1.768-1.191,2.451s-1.969,1.025-3.525,1.025
				c-1.413,0-2.531-0.286-3.354-0.859C224.385,20.312,223.845,19.534,223.591,18.551z"/>
			<path fill="#6BACA1" d="M241.686,18.209l2.734,0.459c-0.352,1.003-0.907,1.766-1.665,2.29c-0.758,0.524-1.708,0.786-2.847,0.786
				c-1.803,0-3.138-0.589-4.004-1.768c-0.684-0.944-1.025-2.136-1.025-3.574c0-1.719,0.449-3.064,1.348-4.038s2.035-1.46,3.408-1.46
				c1.543,0,2.76,0.51,3.652,1.528s1.318,2.58,1.279,4.683h-6.875c0.02,0.813,0.241,1.447,0.664,1.899s0.951,0.679,1.582,0.679
				c0.43,0,0.791-0.117,1.084-0.352S241.536,18.729,241.686,18.209z M241.842,15.435c-0.021-0.794-0.225-1.398-0.615-1.812
				s-0.866-0.62-1.426-0.62c-0.599,0-1.094,0.218-1.484,0.654s-0.583,1.028-0.576,1.777L241.842,15.435L241.842,15.435z"/>
			<path fill="#6BACA1" d="M252.81,18.209l2.734,0.459c-0.352,1.003-0.907,1.766-1.665,2.29c-0.758,0.524-1.708,0.786-2.847,0.786
				c-1.803,0-3.138-0.589-4.004-1.768c-0.684-0.944-1.025-2.136-1.025-3.574c0-1.719,0.449-3.064,1.348-4.038s2.035-1.46,3.408-1.46
				c1.543,0,2.76,0.51,3.652,1.528s1.318,2.58,1.279,4.683h-6.875c0.02,0.813,0.241,1.447,0.664,1.899s0.951,0.679,1.582,0.679
				c0.43,0,0.791-0.117,1.084-0.352S252.66,18.729,252.81,18.209z M252.966,15.435c-0.021-0.794-0.225-1.398-0.615-1.812
				s-0.866-0.62-1.426-0.62c-0.599,0-1.094,0.218-1.484,0.654s-0.583,1.028-0.576,1.777L252.966,15.435L252.966,15.435z"/>
			<path fill="#6BACA1" d="M267.359,21.51h-2.744v-5.293c0-1.12-0.059-1.844-0.176-2.173s-0.308-0.584-0.571-0.767
				c-0.263-0.183-0.581-0.273-0.952-0.273c-0.475,0-0.902,0.13-1.279,0.391c-0.377,0.261-0.636,0.605-0.776,1.035
				s-0.21,1.224-0.21,2.383v4.697h-2.744V11.139h2.549v1.523c0.905-1.172,2.044-1.758,3.418-1.758c0.605,0,1.159,0.109,1.66,0.327
				s0.88,0.496,1.138,0.835s0.436,0.723,0.537,1.152c0.101,0.429,0.151,1.045,0.151,1.846L267.359,21.51L267.359,21.51z"/>
			<path fill="#6BACA1" d="M275.699,9.732V7.193h2.744v2.539H275.699z M275.699,21.51V11.139h2.744V21.51H275.699z"/>
			<path fill="#6BACA1" d="M290.69,21.51h-2.744v-5.293c0-1.12-0.059-1.844-0.176-2.173s-0.308-0.584-0.571-0.767
				c-0.263-0.183-0.581-0.273-0.952-0.273c-0.475,0-0.902,0.13-1.279,0.391c-0.377,0.261-0.636,0.605-0.776,1.035
				s-0.21,1.224-0.21,2.383v4.697h-2.744V11.139h2.549v1.523c0.905-1.172,2.044-1.758,3.418-1.758c0.605,0,1.159,0.109,1.66,0.327
				s0.88,0.496,1.138,0.835s0.436,0.723,0.537,1.152c0.101,0.429,0.151,1.045,0.151,1.846L290.69,21.51L290.69,21.51z"/>
			<path fill="#6BACA1" d="M308.073,14.205l-2.705,0.488c-0.091-0.54-0.298-0.947-0.619-1.221s-0.74-0.41-1.256-0.41
				c-0.684,0-1.229,0.236-1.636,0.708c-0.407,0.472-0.61,1.262-0.61,2.368c0,1.23,0.207,2.1,0.62,2.607s0.968,0.762,1.665,0.762
				c0.521,0,0.947-0.148,1.279-0.444s0.566-0.806,0.703-1.528l2.695,0.459c-0.28,1.237-0.817,2.171-1.611,2.803
				c-0.794,0.632-1.859,0.947-3.193,0.947c-1.517,0-2.726-0.479-3.628-1.436c-0.902-0.957-1.353-2.282-1.353-3.975
				c0-1.712,0.453-3.045,1.357-3.999c0.904-0.954,2.129-1.431,3.672-1.431c1.263,0,2.267,0.271,3.013,0.815
				S307.749,13.092,308.073,14.205z"/>
			<path fill="#6BACA1" d="M310.152,21.51V7.194h2.744V21.51H310.152z"/>
			<path fill="#6BACA1" d="M315.71,9.732V7.193h2.742v2.539H315.71z M315.71,21.51V11.139h2.742V21.51H315.71z"/>
			<path fill="#6BACA1" d="M330.699,21.51h-2.744v-5.293c0-1.12-0.059-1.844-0.176-2.173s-0.308-0.584-0.569-0.767
				c-0.265-0.183-0.581-0.273-0.952-0.273c-0.477,0-0.902,0.13-1.279,0.391c-0.377,0.261-0.636,0.605-0.776,1.035
				s-0.21,1.224-0.21,2.383v4.697h-2.742V11.139h2.549v1.523c0.903-1.172,2.044-1.758,3.418-1.758c0.604,0,1.158,0.109,1.66,0.327
				c0.501,0.218,0.88,0.496,1.138,0.835s0.436,0.723,0.537,1.152c0.101,0.429,0.149,1.045,0.149,1.846L330.699,21.51L330.699,21.51z
				"/>
			<path fill="#6BACA1" d="M333.483,9.732V7.193h2.744v2.539H333.483z M333.483,21.51V11.139h2.744V21.51H333.483z"/>
			<path fill="#6BACA1" d="M348.082,14.205l-2.704,0.488c-0.093-0.54-0.3-0.947-0.62-1.221c-0.322-0.274-0.741-0.41-1.255-0.41
				c-0.686,0-1.229,0.236-1.638,0.708c-0.405,0.472-0.608,1.262-0.608,2.368c0,1.23,0.207,2.1,0.62,2.607
				c0.411,0.507,0.968,0.762,1.664,0.762c0.521,0,0.946-0.148,1.278-0.444s0.566-0.806,0.703-1.528l2.695,0.459
				c-0.28,1.237-0.817,2.171-1.611,2.803c-0.794,0.632-1.858,0.947-3.192,0.947c-1.518,0-2.727-0.479-3.628-1.436
				s-1.354-2.282-1.354-3.975c0-1.712,0.453-3.045,1.356-3.999c0.903-0.954,2.13-1.431,3.673-1.431c1.263,0,2.267,0.271,3.013,0.815
				S347.757,13.092,348.082,14.205z"/>
			<path fill="#6BACA1" d="M352.214,14.303l-2.49-0.449c0.28-1.003,0.762-1.745,1.445-2.227s1.697-0.723,3.047-0.723
				c1.224,0,2.135,0.145,2.732,0.435c0.601,0.29,1.021,0.657,1.267,1.104c0.244,0.447,0.364,1.265,0.364,2.456l-0.027,3.203
				c0,0.911,0.044,1.584,0.132,2.017s0.252,0.896,0.493,1.392h-2.715c-0.072-0.183-0.16-0.452-0.266-0.811
				c-0.045-0.163-0.078-0.271-0.098-0.322c-0.469,0.456-0.97,0.798-1.504,1.025s-1.104,0.342-1.709,0.342
				c-1.068,0-1.909-0.29-2.524-0.869c-0.614-0.579-0.923-1.312-0.923-2.197c0-0.586,0.141-1.108,0.42-1.567
				c0.28-0.459,0.672-0.811,1.178-1.055c0.505-0.244,1.231-0.457,2.184-0.64c1.283-0.241,2.171-0.466,2.666-0.674V14.47
				c0-0.527-0.13-0.903-0.393-1.128c-0.261-0.225-0.752-0.337-1.475-0.337c-0.488,0-0.869,0.096-1.144,0.288
				C352.603,13.485,352.383,13.821,352.214,14.303z M355.885,16.529c-0.354,0.117-0.908,0.257-1.67,0.42
				c-0.764,0.163-1.262,0.322-1.494,0.479c-0.358,0.254-0.537,0.576-0.537,0.967c0,0.384,0.143,0.716,0.43,0.996
				s0.651,0.42,1.096,0.42c0.493,0,0.967-0.163,1.415-0.488c0.332-0.247,0.551-0.55,0.653-0.908
				c0.072-0.234,0.107-0.681,0.107-1.338L355.885,16.529L355.885,16.529z"/>
			<path fill="#6BACA1" d="M361.285,21.51V7.194h2.744V21.51H361.285z"/>
			<path fill="#6BACA1" d="M371.432,18.551l2.754-0.42c0.117,0.534,0.354,0.939,0.713,1.216s0.859,0.415,1.504,0.415
				c0.709,0,1.244-0.13,1.604-0.391c0.239-0.183,0.359-0.427,0.359-0.732c0-0.208-0.063-0.381-0.193-0.518
				c-0.139-0.13-0.443-0.251-0.918-0.361c-2.214-0.488-3.617-0.935-4.209-1.338c-0.82-0.56-1.23-1.338-1.23-2.334
				c0-0.898,0.355-1.653,1.064-2.266c0.709-0.613,1.81-0.918,3.301-0.918c1.419,0,2.474,0.231,3.164,0.693
				c0.688,0.462,1.166,1.146,1.426,2.051l-2.588,0.479c-0.111-0.403-0.321-0.713-0.63-0.928c-0.311-0.215-0.75-0.322-1.323-0.322
				c-0.723,0-1.24,0.101-1.553,0.303c-0.208,0.144-0.312,0.329-0.312,0.557c0,0.195,0.091,0.361,0.273,0.498
				c0.248,0.183,1.102,0.439,2.562,0.771s2.482,0.739,3.062,1.221c0.572,0.488,0.857,1.169,0.857,2.041
				c0,0.95-0.396,1.768-1.189,2.451s-1.969,1.025-3.525,1.025c-1.413,0-2.531-0.286-3.354-0.859
				C372.228,20.312,371.686,19.534,371.432,18.551z"/>
			<path fill="#6BACA1" d="M388.277,11.139v2.188h-1.875v4.18c0,0.847,0.02,1.34,0.055,1.479s0.116,0.256,0.243,0.347
				c0.127,0.091,0.282,0.137,0.464,0.137c0.255,0,0.622-0.088,1.104-0.264l0.234,2.129c-0.64,0.273-1.361,0.41-2.169,0.41
				c-0.494,0-0.94-0.083-1.339-0.249c-0.396-0.166-0.688-0.381-0.874-0.645c-0.186-0.264-0.312-0.62-0.386-1.069
				c-0.059-0.319-0.088-0.964-0.088-1.934v-4.521h-1.26v-2.188h1.26V9.078l2.754-1.602v3.662L388.277,11.139L388.277,11.139z"/>
			<path fill="#6BACA1" d="M397.009,21.51v-1.553c-0.377,0.554-0.874,0.989-1.489,1.309s-1.265,0.479-1.948,0.479
				c-0.696,0-1.321-0.153-1.875-0.459c-0.553-0.306-0.954-0.735-1.201-1.289c-0.247-0.554-0.369-1.318-0.369-2.295V11.14h2.742
				v4.766c0,1.458,0.052,2.352,0.151,2.681c0.102,0.329,0.285,0.589,0.552,0.781c0.269,0.192,0.605,0.288,1.018,0.288
				c0.469,0,0.889-0.129,1.26-0.386s0.625-0.576,0.762-0.957c0.138-0.381,0.205-1.313,0.205-2.798V11.14h2.744v10.371L397.009,21.51
				L397.009,21.51z"/>
			<path fill="#6BACA1" d="M411.91,21.51h-2.549v-1.523c-0.423,0.593-0.923,1.033-1.499,1.323s-1.157,0.435-1.743,0.435
				c-1.189,0-2.212-0.48-3.062-1.44c-0.852-0.96-1.274-2.3-1.274-4.019c0-1.758,0.414-3.094,1.24-4.009s1.872-1.372,3.135-1.372
				c1.159,0,2.162,0.481,3.008,1.445V7.194h2.744L411.91,21.51L411.91,21.51z M404.586,16.099c0,1.106,0.151,1.907,0.459,2.402
				c0.441,0.716,1.061,1.074,1.854,1.074c0.631,0,1.168-0.269,1.611-0.806c0.441-0.537,0.664-1.34,0.664-2.407
				c0-1.191-0.215-2.049-0.646-2.573c-0.43-0.524-0.979-0.786-1.648-0.786c-0.651,0-1.196,0.259-1.638,0.776
				C404.805,14.296,404.586,15.071,404.586,16.099z"/>
			<path fill="#6BACA1" d="M413.316,11.139h2.92l2.48,7.363l2.422-7.363h2.842l-3.662,9.98l-0.654,1.807
				c-0.238,0.605-0.47,1.067-0.688,1.387c-0.219,0.319-0.469,0.578-0.752,0.776c-0.283,0.198-0.631,0.354-1.045,0.464
				s-0.88,0.166-1.401,0.166c-0.525,0-1.045-0.056-1.553-0.166l-0.244-2.148c0.43,0.085,0.817,0.127,1.162,0.127
				c0.638,0,1.11-0.188,1.416-0.562s0.541-0.852,0.703-1.431L413.316,11.139z"/>
		</g>
	</g>
	<g enable-background="new    ">
		<path fill="#4D4D4F" d="M536.411,17.105c0-0.909,0.139-1.672,0.408-2.288c0.203-0.454,0.479-0.861,0.83-1.223
			c0.354-0.361,0.735-0.629,1.153-0.804c0.556-0.234,1.196-0.353,1.923-0.353c1.312,0,2.365,0.408,3.154,1.223
			s1.184,1.949,1.184,3.401c0,1.439-0.393,2.566-1.175,3.38c-0.782,0.812-1.829,1.22-3.14,1.22c-1.326,0-2.383-0.405-3.163-1.214
			C536.802,19.639,536.411,18.524,536.411,17.105z M538.266,17.044c0,1.01,0.234,1.775,0.7,2.297s1.059,0.782,1.774,0.782
			c0.721,0,1.309-0.259,1.77-0.776s0.688-1.293,0.688-2.327c0-1.021-0.224-1.784-0.673-2.287c-0.447-0.503-1.043-0.755-1.785-0.755
			c-0.74,0-1.34,0.255-1.795,0.764C538.494,15.25,538.266,16.017,538.266,17.044z"/>
		<path fill="#4D4D4F" d="M546.407,15.049h1.596v0.949c0.205-0.325,0.485-0.588,0.84-0.791c0.354-0.203,0.744-0.305,1.175-0.305
			c0.75,0,1.388,0.294,1.91,0.883c0.521,0.588,0.784,1.407,0.784,2.458c0,1.078-0.266,1.917-0.79,2.516
			c-0.527,0.598-1.167,0.897-1.917,0.897c-0.356,0-0.682-0.071-0.973-0.214c-0.289-0.142-0.595-0.385-0.915-0.729v3.255h-1.71
			V15.049z M548.098,18.17c0,0.726,0.145,1.262,0.432,1.609c0.289,0.347,0.642,0.52,1.053,0.52c0.398,0,0.729-0.159,0.992-0.478
			c0.265-0.319,0.396-0.841,0.396-1.566c0-0.678-0.136-1.181-0.407-1.509s-0.609-0.493-1.01-0.493c-0.418,0-0.768,0.161-1.041,0.484
			C548.237,17.059,548.098,17.537,548.098,18.17z"/>
		<path fill="#4D4D4F" d="M557.03,15.049v1.362h-1.168v2.604c0,0.527,0.011,0.834,0.033,0.922c0.021,0.087,0.072,0.159,0.152,0.216
			c0.078,0.057,0.175,0.085,0.289,0.085c0.156,0,0.387-0.055,0.688-0.164l0.146,1.326c-0.397,0.17-0.85,0.256-1.353,0.256
			c-0.309,0-0.586-0.052-0.834-0.155c-0.247-0.104-0.428-0.237-0.544-0.402c-0.116-0.164-0.196-0.386-0.24-0.666
			c-0.036-0.198-0.055-0.6-0.055-1.204v-2.817h-0.785V15.05h0.785v-1.284l1.716-0.997v2.281L557.03,15.049L557.03,15.049z"/>
		<path fill="#4D4D4F" d="M558.216,14.173v-1.582h1.71v1.582H558.216z M558.216,21.51v-6.461h1.71v6.461H558.216z"/>
		<path fill="#4D4D4F" d="M561.075,19.666l1.717-0.262c0.072,0.333,0.223,0.586,0.443,0.758c0.223,0.173,0.535,0.259,0.938,0.259
			c0.439,0,0.772-0.081,0.998-0.243c0.147-0.114,0.225-0.266,0.225-0.457c0-0.129-0.041-0.237-0.122-0.322
			c-0.085-0.081-0.276-0.156-0.571-0.225c-1.379-0.305-2.254-0.582-2.623-0.834c-0.511-0.349-0.766-0.833-0.766-1.454
			c0-0.56,0.221-1.03,0.662-1.411c0.442-0.381,1.128-0.572,2.057-0.572c0.886,0,1.541,0.145,1.974,0.433
			c0.43,0.288,0.726,0.714,0.888,1.277l-1.611,0.298c-0.067-0.251-0.2-0.444-0.393-0.578s-0.469-0.2-0.824-0.2
			c-0.451,0-0.772,0.062-0.968,0.188c-0.13,0.089-0.194,0.205-0.194,0.347c0,0.122,0.058,0.225,0.17,0.311
			c0.154,0.113,0.688,0.273,1.6,0.48c0.908,0.207,1.545,0.46,1.904,0.761c0.357,0.304,0.535,0.728,0.535,1.271
			c0,0.592-0.246,1.101-0.742,1.526c-0.493,0.426-1.227,0.64-2.193,0.64c-0.882,0-1.577-0.179-2.091-0.536
			C561.569,20.763,561.233,20.279,561.075,19.666z"/>
		<path fill="#4D4D4F" d="M571.571,15.049v1.362h-1.169v2.604c0,0.527,0.011,0.834,0.034,0.922c0.021,0.087,0.072,0.159,0.151,0.216
			s0.175,0.085,0.289,0.085c0.156,0,0.388-0.055,0.688-0.164l0.146,1.326c-0.396,0.17-0.85,0.256-1.352,0.256
			c-0.309,0-0.586-0.052-0.834-0.155s-0.429-0.237-0.545-0.402c-0.115-0.164-0.195-0.386-0.24-0.666
			c-0.034-0.198-0.055-0.6-0.055-1.204v-2.817h-0.785V15.05h0.785v-1.284l1.716-0.997v2.281L571.571,15.049L571.571,15.049z"/>
		<path fill="#4D4D4F" d="M574.034,17.019l-1.551-0.279c0.174-0.625,0.475-1.087,0.9-1.388c0.426-0.3,1.059-0.45,1.896-0.45
			c0.764,0,1.33,0.091,1.703,0.271s0.636,0.409,0.788,0.687c0.151,0.278,0.229,0.788,0.229,1.53l-0.02,1.996
			c0,0.567,0.027,0.986,0.082,1.256s0.157,0.559,0.307,0.867h-1.689c-0.044-0.113-0.101-0.282-0.164-0.505
			c-0.027-0.102-0.049-0.168-0.062-0.201c-0.293,0.284-0.604,0.497-0.938,0.639c-0.332,0.143-0.688,0.214-1.064,0.214
			c-0.663,0-1.188-0.181-1.57-0.542c-0.384-0.361-0.574-0.817-0.574-1.369c0-0.364,0.086-0.69,0.261-0.977
			c0.175-0.285,0.419-0.505,0.733-0.656c0.312-0.152,0.768-0.285,1.357-0.398c0.8-0.15,1.354-0.29,1.661-0.42v-0.171
			c0-0.328-0.081-0.562-0.243-0.702c-0.161-0.141-0.469-0.21-0.919-0.21c-0.304,0-0.542,0.06-0.712,0.179
			C574.278,16.51,574.139,16.72,574.034,17.019z M576.322,18.407c-0.219,0.072-0.563,0.16-1.04,0.262
			c-0.475,0.101-0.785,0.2-0.932,0.298c-0.223,0.158-0.334,0.358-0.334,0.603c0,0.239,0.089,0.446,0.268,0.62
			c0.18,0.175,0.406,0.262,0.684,0.262c0.309,0,0.602-0.102,0.882-0.305c0.207-0.153,0.343-0.342,0.407-0.565
			c0.045-0.146,0.065-0.424,0.065-0.833L576.322,18.407L576.322,18.407z"/>
		<path fill="#4D4D4F" d="M581.462,21.51l-2.604-6.461h1.795l1.217,3.297l0.354,1.102c0.093-0.28,0.151-0.464,0.176-0.554
			c0.058-0.183,0.118-0.365,0.186-0.548l1.229-3.297h1.758l-2.565,6.461H581.462z"/>
		<path fill="#4D4D4F" d="M586.616,14.173v-1.582h1.709v1.582H586.616z M586.616,21.51v-6.461h1.709v6.461H586.616z"/>
		<path fill="#4D4D4F" d="M595.955,21.51h-1.71v-3.298c0-0.697-0.034-1.148-0.107-1.354c-0.072-0.204-0.191-0.364-0.355-0.478
			c-0.164-0.114-0.36-0.17-0.594-0.17c-0.296,0-0.562,0.081-0.797,0.243c-0.234,0.162-0.396,0.377-0.483,0.645
			s-0.131,0.763-0.131,1.484v2.927h-1.71v-6.461h1.588v0.949c0.564-0.73,1.273-1.096,2.13-1.096c0.378,0,0.724,0.068,1.034,0.204
			c0.312,0.136,0.549,0.31,0.709,0.521s0.271,0.45,0.334,0.718c0.063,0.268,0.096,0.65,0.096,1.149L595.955,21.51L595.955,21.51z"/>
		<path fill="#4D4D4F" d="M603.11,20.225v-2.317h-2.337v-1.601h2.337V13.99h1.559v2.317h2.342v1.601h-2.342v2.317H603.11z"/>
		<path fill="#4D4D4F" d="M617.522,16.959l-1.686,0.304c-0.059-0.336-0.188-0.59-0.388-0.76c-0.198-0.171-0.462-0.256-0.78-0.256
			c-0.428,0-0.768,0.147-1.021,0.441s-0.38,0.785-0.38,1.476c0,0.767,0.129,1.308,0.386,1.624c0.258,0.316,0.604,0.475,1.038,0.475
			c0.324,0,0.59-0.093,0.797-0.277c0.207-0.184,0.354-0.502,0.438-0.952l1.68,0.286c-0.175,0.771-0.51,1.353-1.004,1.746
			c-0.496,0.394-1.158,0.591-1.99,0.591c-0.943,0-1.697-0.299-2.26-0.895c-0.562-0.597-0.843-1.422-0.843-2.477
			c0-1.066,0.281-1.897,0.846-2.491c0.564-0.594,1.326-0.892,2.288-0.892c0.786,0,1.412,0.17,1.877,0.508
			C616.986,15.749,617.319,16.265,617.522,16.959z"/>
		<path fill="#4D4D4F" d="M620.521,12.591v3.279c0.552-0.646,1.211-0.968,1.978-0.968c0.395,0,0.748,0.073,1.064,0.22
			c0.316,0.146,0.555,0.332,0.715,0.56c0.16,0.227,0.271,0.479,0.328,0.754c0.062,0.276,0.089,0.704,0.089,1.284v3.79h-1.71v-3.413
			c0-0.678-0.032-1.107-0.098-1.29c-0.064-0.183-0.18-0.327-0.344-0.435c-0.164-0.107-0.369-0.161-0.617-0.161
			c-0.283,0-0.537,0.068-0.76,0.207c-0.226,0.138-0.389,0.346-0.49,0.623c-0.104,0.278-0.155,0.688-0.155,1.232v3.236h-1.71V12.59
			L620.521,12.591L620.521,12.591z"/>
		<path fill="#4D4D4F" d="M630.17,19.453l1.703,0.286c-0.221,0.625-0.564,1.101-1.037,1.427c-0.475,0.326-1.063,0.49-1.773,0.49
			c-1.123,0-1.955-0.367-2.494-1.102c-0.426-0.588-0.639-1.33-0.639-2.227c0-1.071,0.279-1.909,0.84-2.516
			c0.561-0.606,1.268-0.91,2.123-0.91c0.961,0,1.72,0.317,2.275,0.952c0.555,0.635,0.819,1.607,0.797,2.918h-4.283
			c0.012,0.507,0.15,0.901,0.414,1.183s0.592,0.423,0.984,0.423c0.269,0,0.492-0.073,0.676-0.219
			C629.94,20.013,630.077,19.778,630.17,19.453z M630.268,17.725c-0.012-0.495-0.141-0.871-0.383-1.129
			c-0.244-0.257-0.54-0.386-0.891-0.386c-0.372,0-0.682,0.136-0.925,0.407s-0.362,0.641-0.356,1.107L630.268,17.725L630.268,17.725z
			"/>
		<path fill="#4D4D4F" d="M633.231,15.049h1.576v0.882c0.562-0.686,1.234-1.028,2.014-1.028c0.414,0,0.772,0.085,1.076,0.256
			c0.305,0.17,0.555,0.428,0.748,0.772c0.285-0.345,0.591-0.603,0.92-0.772c0.328-0.171,0.679-0.256,1.052-0.256
			c0.477,0,0.876,0.097,1.204,0.289c0.329,0.193,0.574,0.476,0.736,0.849c0.118,0.276,0.177,0.723,0.177,1.339v4.131h-1.71v-3.693
			c0-0.641-0.059-1.054-0.176-1.24c-0.158-0.244-0.402-0.365-0.73-0.365c-0.237,0-0.465,0.072-0.675,0.219
			c-0.212,0.146-0.363,0.36-0.456,0.642c-0.094,0.282-0.141,0.728-0.141,1.336v3.103h-1.709v-3.541c0-0.629-0.031-1.034-0.092-1.217
			c-0.062-0.183-0.154-0.318-0.283-0.407c-0.127-0.09-0.301-0.134-0.521-0.134c-0.264,0-0.501,0.07-0.712,0.213
			c-0.211,0.142-0.36,0.347-0.453,0.614c-0.091,0.267-0.138,0.712-0.138,1.332v3.14h-1.709L633.231,15.049L633.231,15.049z"/>
		<path fill="#4D4D4F" d="M644.041,18.187c0-0.567,0.141-1.117,0.42-1.648c0.278-0.531,0.676-0.937,1.188-1.217
			c0.514-0.279,1.086-0.42,1.719-0.42c0.979,0,1.779,0.317,2.403,0.952s0.938,1.438,0.938,2.406c0,0.978-0.314,1.788-0.945,2.431
			s-1.426,0.965-2.383,0.965c-0.593,0-1.156-0.135-1.693-0.402c-0.538-0.268-0.946-0.66-1.227-1.177
			C644.182,19.559,644.041,18.93,644.041,18.187z M645.793,18.279c0,0.641,0.15,1.132,0.457,1.473
			c0.305,0.34,0.68,0.511,1.125,0.511c0.444,0,0.818-0.171,1.121-0.511c0.304-0.341,0.453-0.836,0.453-1.485
			c0-0.632-0.149-1.119-0.453-1.46c-0.303-0.341-0.677-0.511-1.121-0.511c-0.445,0-0.82,0.17-1.125,0.511
			S645.793,17.639,645.793,18.279z"/>
		<path fill="#4D4D4F" d="M655.011,15.049v1.362h-1.169v2.604c0,0.527,0.012,0.834,0.034,0.922c0.021,0.087,0.071,0.159,0.149,0.216
			c0.08,0.057,0.176,0.085,0.289,0.085c0.158,0,0.388-0.055,0.688-0.164l0.146,1.326c-0.396,0.17-0.848,0.256-1.351,0.256
			c-0.31,0-0.586-0.052-0.833-0.155c-0.248-0.104-0.432-0.237-0.545-0.402c-0.115-0.164-0.195-0.386-0.24-0.666
			c-0.037-0.198-0.055-0.6-0.055-1.204v-2.817h-0.785V15.05h0.785v-1.284l1.715-0.997v2.281L655.011,15.049L655.011,15.049z"/>
		<path fill="#4D4D4F" d="M657.901,12.591v3.279c0.552-0.646,1.211-0.968,1.979-0.968c0.394,0,0.748,0.073,1.062,0.22
			c0.316,0.146,0.556,0.332,0.715,0.56c0.16,0.227,0.271,0.479,0.329,0.754c0.061,0.276,0.088,0.704,0.088,1.284v3.79h-1.709v-3.413
			c0-0.678-0.031-1.107-0.098-1.29s-0.18-0.327-0.344-0.435s-0.371-0.161-0.617-0.161c-0.285,0-0.538,0.068-0.762,0.207
			c-0.225,0.138-0.388,0.346-0.489,0.623c-0.104,0.278-0.155,0.688-0.155,1.232v3.236h-1.709V12.59L657.901,12.591L657.901,12.591z"
			/>
		<path fill="#4D4D4F" d="M667.549,19.453l1.704,0.286c-0.221,0.625-0.565,1.101-1.037,1.427c-0.475,0.326-1.063,0.49-1.773,0.49
			c-1.124,0-1.955-0.367-2.495-1.102c-0.426-0.588-0.639-1.33-0.639-2.227c0-1.071,0.28-1.909,0.84-2.516
			c0.562-0.606,1.27-0.91,2.123-0.91c0.962,0,1.721,0.317,2.275,0.952c0.557,0.635,0.82,1.607,0.797,2.918h-4.283
			c0.013,0.507,0.15,0.901,0.414,1.183s0.592,0.423,0.986,0.423c0.268,0,0.49-0.073,0.675-0.219
			C667.319,20.013,667.458,19.778,667.549,19.453z M667.647,17.725c-0.012-0.495-0.14-0.871-0.383-1.129
			c-0.244-0.257-0.539-0.386-0.889-0.386c-0.373,0-0.684,0.136-0.926,0.407s-0.361,0.641-0.357,1.107L667.647,17.725L667.647,17.725
			z"/>
		<path fill="#4D4D4F" d="M672.374,21.51h-1.71v-6.461h1.59v0.919c0.271-0.435,0.517-0.721,0.732-0.858
			c0.217-0.138,0.463-0.207,0.738-0.207c0.39,0,0.765,0.107,1.125,0.322l-0.529,1.491c-0.287-0.187-0.555-0.28-0.803-0.28
			c-0.238,0-0.441,0.066-0.607,0.198c-0.167,0.132-0.298,0.37-0.393,0.715c-0.096,0.345-0.145,1.066-0.145,2.166L672.374,21.51
			L672.374,21.51z"/>
		<path fill="#4D4D4F" d="M676.865,17.019l-1.552-0.279c0.175-0.625,0.475-1.087,0.9-1.388c0.426-0.3,1.059-0.45,1.896-0.45
			c0.763,0,1.33,0.091,1.703,0.271s0.637,0.409,0.789,0.687c0.151,0.278,0.228,0.788,0.228,1.53l-0.019,1.996
			c0,0.567,0.027,0.986,0.082,1.256s0.158,0.559,0.308,0.867h-1.689c-0.044-0.113-0.101-0.282-0.164-0.505
			c-0.028-0.102-0.049-0.168-0.062-0.201c-0.291,0.284-0.604,0.497-0.937,0.639c-0.333,0.143-0.688,0.214-1.064,0.214
			c-0.665,0-1.188-0.181-1.572-0.542c-0.384-0.361-0.573-0.817-0.573-1.369c0-0.364,0.087-0.69,0.262-0.977
			c0.174-0.285,0.418-0.505,0.732-0.656c0.312-0.152,0.768-0.285,1.358-0.398c0.799-0.15,1.354-0.29,1.661-0.42v-0.171
			c0-0.328-0.082-0.562-0.244-0.702c-0.162-0.141-0.469-0.21-0.918-0.21c-0.305,0-0.542,0.06-0.713,0.179
			C677.108,16.51,676.97,16.72,676.865,17.019z M679.153,18.407c-0.219,0.072-0.564,0.16-1.041,0.262
			c-0.475,0.101-0.785,0.2-0.931,0.298c-0.226,0.158-0.335,0.358-0.335,0.603c0,0.239,0.09,0.446,0.268,0.62
			c0.18,0.175,0.406,0.262,0.684,0.262c0.309,0,0.603-0.102,0.883-0.305c0.207-0.153,0.342-0.342,0.406-0.565
			c0.045-0.146,0.066-0.424,0.066-0.833L679.153,18.407L679.153,18.407z"/>
		<path fill="#4D4D4F" d="M682.467,15.049h1.594v0.949c0.207-0.325,0.487-0.588,0.84-0.791c0.354-0.203,0.744-0.305,1.175-0.305
			c0.75,0,1.39,0.294,1.91,0.883c0.523,0.588,0.784,1.407,0.784,2.458c0,1.078-0.264,1.917-0.79,2.516
			c-0.527,0.598-1.167,0.897-1.917,0.897c-0.354,0-0.68-0.071-0.971-0.214c-0.289-0.142-0.597-0.385-0.915-0.729v3.255h-1.71V15.049
			z M684.159,18.17c0,0.726,0.146,1.262,0.434,1.609c0.289,0.347,0.64,0.52,1.053,0.52c0.396,0,0.729-0.159,0.992-0.478
			s0.396-0.841,0.396-1.566c0-0.678-0.136-1.181-0.405-1.509c-0.272-0.328-0.609-0.493-1.012-0.493
			c-0.418,0-0.766,0.161-1.041,0.484C684.297,17.059,684.159,17.537,684.159,18.17z"/>
		<path fill="#4D4D4F" d="M689.319,15.049h1.818l1.546,4.587l1.509-4.587h1.771l-2.282,6.218l-0.407,1.125
			c-0.147,0.378-0.293,0.665-0.429,0.864c-0.136,0.198-0.292,0.36-0.469,0.483c-0.178,0.124-0.395,0.221-0.65,0.289
			c-0.258,0.069-0.549,0.104-0.873,0.104c-0.329,0-0.651-0.034-0.968-0.104l-0.151-1.338c0.27,0.053,0.508,0.079,0.724,0.079
			c0.397,0,0.691-0.117,0.884-0.351c0.189-0.234,0.337-0.53,0.438-0.891L689.319,15.049z"/>
	</g>
	<g enable-background="new    ">
		<path fill="#4D4D4F" d="M701.08,24.132c-0.604-0.763-1.113-1.654-1.531-2.677c-0.417-1.022-0.626-2.081-0.626-3.176
			c0-0.966,0.154-1.89,0.468-2.774c0.365-1.026,0.929-2.048,1.69-3.066h0.784c-0.491,0.844-0.813,1.446-0.974,1.807
			c-0.248,0.561-0.441,1.145-0.584,1.753c-0.174,0.758-0.262,1.521-0.262,2.287c0,1.951,0.604,3.9,1.817,5.847L701.08,24.132
			L701.08,24.132z"/>
		<path fill="#4D4D4F" d="M703.135,21.51v-6.461h0.984v0.919c0.477-0.71,1.16-1.065,2.059-1.065c0.389,0,0.746,0.07,1.072,0.21
			c0.326,0.14,0.57,0.323,0.732,0.551s0.275,0.497,0.34,0.81c0.041,0.202,0.062,0.558,0.062,1.064v3.973h-1.096V17.58
			c0-0.445-0.043-0.779-0.129-1c-0.085-0.222-0.234-0.397-0.453-0.529c-0.218-0.132-0.472-0.198-0.764-0.198
			c-0.467,0-0.869,0.148-1.208,0.444c-0.338,0.296-0.508,0.857-0.508,1.686v3.528L703.135,21.51L703.135,21.51z"/>
		<path fill="#4D4D4F" d="M715.827,16.265h-5.889v-1.022h5.889V16.265z M715.827,18.972h-5.889V17.95h5.889V18.972z"/>
		<path fill="#4D4D4F" d="M720.547,21.51v-2.136h-3.869V18.37l4.068-5.779h0.896v5.779h1.205v1.004h-1.205v2.136H720.547z
			 M720.547,18.37v-4.021l-2.792,4.021H720.547z"/>
		<path fill="#4D4D4F" d="M727.477,21.51v-2.136h-3.869V18.37l4.07-5.779h0.895v5.779h1.205v1.004h-1.205v2.136H727.477z
			 M727.477,18.37v-4.021l-2.792,4.021H727.477z"/>
		<path fill="#4D4D4F" d="M730.97,13.759v-1.053h5.771v0.852c-0.565,0.604-1.131,1.408-1.688,2.41
			c-0.56,1.001-0.988,2.031-1.293,3.09c-0.22,0.747-0.358,1.563-0.42,2.452h-1.125c0.012-0.701,0.148-1.549,0.414-2.543
			c0.264-0.994,0.642-1.952,1.135-2.875c0.492-0.923,1.017-1.7,1.572-2.333L730.97,13.759L730.97,13.759z"/>
		<path fill="#4D4D4F" d="M738.848,24.132h-0.784c1.213-1.946,1.819-3.896,1.819-5.847c0-0.763-0.088-1.519-0.264-2.27
			c-0.139-0.608-0.33-1.192-0.576-1.752c-0.158-0.365-0.484-0.974-0.979-1.825h0.784c0.764,1.019,1.327,2.04,1.689,3.066
			c0.312,0.885,0.471,1.809,0.471,2.774c0,1.095-0.209,2.153-0.629,3.176C739.958,22.477,739.45,23.369,738.848,24.132z"/>
	</g>
	<g enable-background="new    ">
		<path fill="#4D4D4F" d="M771.216,18.23l1.745,0.554c-0.268,0.974-0.713,1.696-1.336,2.169c-0.621,0.473-1.411,0.709-2.368,0.709
			c-1.186,0-2.158-0.405-2.921-1.214c-0.764-0.81-1.145-1.915-1.145-3.319c0-1.484,0.384-2.637,1.149-3.458
			c0.767-0.821,1.773-1.232,3.022-1.232c1.092,0,1.979,0.322,2.658,0.968c0.405,0.381,0.711,0.929,0.913,1.643l-1.782,0.426
			c-0.104-0.463-0.326-0.827-0.66-1.096c-0.335-0.268-0.742-0.401-1.221-0.401c-0.66,0-1.197,0.237-1.607,0.712
			c-0.412,0.475-0.618,1.243-0.618,2.306c0,1.128,0.202,1.931,0.608,2.409c0.404,0.479,0.933,0.719,1.581,0.719
			c0.479,0,0.892-0.152,1.235-0.457C770.819,19.362,771.066,18.884,771.216,18.23z"/>
		<path fill="#4D4D4F" d="M776.199,12.591v3.279c0.552-0.646,1.211-0.968,1.979-0.968c0.395,0,0.748,0.073,1.063,0.22
			c0.316,0.146,0.556,0.332,0.715,0.56c0.16,0.227,0.271,0.479,0.33,0.754c0.059,0.276,0.088,0.704,0.088,1.284v3.79h-1.709v-3.413
			c0-0.678-0.033-1.107-0.099-1.29c-0.064-0.183-0.18-0.327-0.344-0.435s-0.371-0.161-0.617-0.161c-0.285,0-0.538,0.068-0.763,0.207
			c-0.223,0.138-0.387,0.346-0.488,0.623c-0.104,0.278-0.155,0.688-0.155,1.232v3.236h-1.709V12.59L776.199,12.591L776.199,12.591z"
			/>
		<path fill="#4D4D4F" d="M785.848,19.453l1.703,0.286c-0.219,0.625-0.564,1.101-1.036,1.427c-0.474,0.326-1.064,0.49-1.773,0.49
			c-1.124,0-1.955-0.367-2.495-1.102c-0.426-0.588-0.639-1.33-0.639-2.227c0-1.071,0.28-1.909,0.839-2.516
			c0.562-0.606,1.269-0.91,2.124-0.91c0.962,0,1.721,0.317,2.275,0.952c0.555,0.635,0.82,1.607,0.797,2.918h-4.283
			c0.014,0.507,0.149,0.901,0.414,1.183c0.264,0.282,0.592,0.423,0.984,0.423c0.269,0,0.492-0.073,0.677-0.219
			C785.617,20.013,785.755,19.778,785.848,19.453z M785.946,17.725c-0.013-0.495-0.14-0.871-0.384-1.129
			c-0.243-0.257-0.539-0.386-0.889-0.386c-0.374,0-0.683,0.136-0.925,0.407c-0.244,0.271-0.362,0.641-0.358,1.107L785.946,17.725
			L785.946,17.725z"/>
		<path fill="#4D4D4F" d="M788.908,15.049h1.576v0.882c0.563-0.686,1.233-1.028,2.015-1.028c0.413,0,0.772,0.085,1.076,0.256
			c0.305,0.17,0.555,0.428,0.748,0.772c0.284-0.345,0.592-0.603,0.919-0.772c0.328-0.171,0.681-0.256,1.054-0.256
			c0.476,0,0.875,0.097,1.203,0.289c0.329,0.193,0.574,0.476,0.736,0.849c0.118,0.276,0.177,0.723,0.177,1.339v4.131h-1.71v-3.693
			c0-0.641-0.059-1.054-0.177-1.24c-0.158-0.244-0.401-0.365-0.729-0.365c-0.238,0-0.465,0.072-0.675,0.219
			c-0.212,0.146-0.362,0.36-0.456,0.642c-0.095,0.282-0.142,0.728-0.142,1.336v3.103h-1.709v-3.541c0-0.629-0.03-1.034-0.092-1.217
			c-0.062-0.183-0.154-0.318-0.282-0.407c-0.128-0.09-0.302-0.134-0.521-0.134c-0.265,0-0.5,0.07-0.712,0.213
			c-0.211,0.142-0.361,0.347-0.452,0.614c-0.093,0.268-0.139,0.712-0.139,1.332v3.14h-1.71L788.908,15.049L788.908,15.049z"/>
		<path fill="#4D4D4F" d="M799.72,18.187c0-0.567,0.14-1.117,0.42-1.648c0.278-0.531,0.677-0.937,1.188-1.217
			c0.514-0.279,1.087-0.42,1.72-0.42c0.979,0,1.777,0.317,2.402,0.952s0.938,1.438,0.938,2.406c0,0.978-0.316,1.788-0.947,2.431
			c-0.63,0.643-1.424,0.965-2.381,0.965c-0.594,0-1.157-0.135-1.695-0.402c-0.537-0.268-0.944-0.66-1.226-1.177
			C799.859,19.559,799.72,18.93,799.72,18.187z M801.472,18.279c0,0.641,0.151,1.132,0.455,1.473c0.305,0.34,0.68,0.511,1.126,0.511
			c0.445,0,0.82-0.171,1.122-0.511c0.303-0.341,0.453-0.836,0.453-1.485c0-0.632-0.15-1.119-0.453-1.46
			c-0.302-0.341-0.677-0.511-1.122-0.511c-0.446,0-0.821,0.17-1.126,0.511C801.624,17.148,801.472,17.639,801.472,18.279z"/>
		<path fill="#4D4D4F" d="M812.465,17.019l-1.553-0.279c0.176-0.625,0.476-1.087,0.9-1.388c0.426-0.3,1.059-0.45,1.896-0.45
			c0.765,0,1.33,0.091,1.703,0.271s0.639,0.409,0.789,0.687c0.151,0.278,0.229,0.788,0.229,1.53l-0.021,1.996
			c0,0.567,0.027,0.986,0.082,1.256c0.057,0.27,0.158,0.559,0.309,0.867h-1.69c-0.044-0.113-0.099-0.282-0.164-0.505
			c-0.028-0.102-0.049-0.168-0.062-0.201c-0.291,0.284-0.604,0.497-0.938,0.639c-0.333,0.143-0.688,0.214-1.063,0.214
			c-0.664,0-1.188-0.181-1.572-0.542c-0.383-0.361-0.574-0.817-0.574-1.369c0-0.364,0.087-0.69,0.262-0.977
			c0.175-0.285,0.418-0.505,0.732-0.656c0.312-0.152,0.768-0.285,1.359-0.398c0.8-0.15,1.354-0.29,1.66-0.42v-0.171
			c0-0.328-0.082-0.562-0.242-0.702c-0.162-0.141-0.471-0.21-0.919-0.21c-0.306,0-0.542,0.06-0.714,0.179
			C812.708,16.51,812.571,16.72,812.465,17.019z M814.752,18.407c-0.219,0.072-0.564,0.16-1.041,0.262
			c-0.475,0.101-0.784,0.2-0.931,0.298c-0.224,0.158-0.335,0.358-0.335,0.603c0,0.239,0.09,0.446,0.268,0.62
			c0.181,0.175,0.406,0.262,0.684,0.262c0.309,0,0.604-0.102,0.883-0.305c0.207-0.153,0.342-0.342,0.407-0.565
			c0.044-0.146,0.065-0.424,0.065-0.833L814.752,18.407L814.752,18.407z"/>
		<path fill="#4D4D4F" d="M818.118,21.51v-8.919h1.711v8.919H818.118z"/>
		<path fill="#4D4D4F" d="M821.183,18.187c0-0.567,0.141-1.117,0.42-1.648s0.676-0.937,1.188-1.217
			c0.515-0.279,1.086-0.42,1.72-0.42c0.978,0,1.778,0.317,2.401,0.952c0.624,0.635,0.938,1.438,0.938,2.406
			c0,0.978-0.314,1.788-0.945,2.431s-1.426,0.965-2.383,0.965c-0.592,0-1.156-0.135-1.693-0.402
			c-0.538-0.268-0.944-0.66-1.227-1.177C821.324,19.559,821.183,18.93,821.183,18.187z M822.935,18.279
			c0,0.641,0.151,1.132,0.457,1.473c0.305,0.34,0.68,0.511,1.125,0.511c0.444,0,0.819-0.171,1.123-0.511
			c0.302-0.341,0.452-0.836,0.452-1.485c0-0.632-0.15-1.119-0.452-1.46c-0.304-0.341-0.679-0.511-1.123-0.511
			c-0.445,0-0.82,0.17-1.125,0.511C823.086,17.148,822.935,17.639,822.935,18.279z"/>
		<path fill="#4D4D4F" d="M835.068,21.51h-1.71v-3.298c0-0.697-0.036-1.148-0.109-1.354c-0.072-0.204-0.191-0.364-0.354-0.478
			c-0.164-0.114-0.361-0.17-0.594-0.17c-0.296,0-0.562,0.081-0.798,0.243c-0.233,0.162-0.396,0.377-0.481,0.645
			c-0.089,0.268-0.132,0.763-0.132,1.484v2.927h-1.709v-6.461h1.588v0.949c0.562-0.73,1.271-1.096,2.13-1.096
			c0.377,0,0.721,0.068,1.032,0.204c0.312,0.136,0.55,0.31,0.709,0.521c0.16,0.211,0.271,0.45,0.336,0.718
			c0.062,0.268,0.095,0.65,0.095,1.149L835.068,21.51L835.068,21.51z"/>
		<path fill="#4D4D4F" d="M840.541,19.453l1.703,0.286c-0.219,0.625-0.563,1.101-1.037,1.427c-0.473,0.326-1.062,0.49-1.771,0.49
			c-1.123,0-1.955-0.367-2.494-1.102c-0.427-0.588-0.64-1.33-0.64-2.227c0-1.071,0.278-1.909,0.841-2.516
			c0.56-0.606,1.268-0.91,2.123-0.91c0.961,0,1.72,0.317,2.273,0.952c0.557,0.635,0.821,1.607,0.797,2.918h-4.282
			c0.013,0.507,0.149,0.901,0.414,1.183s0.593,0.423,0.984,0.423c0.27,0,0.493-0.073,0.675-0.219
			C840.312,20.013,840.449,19.778,840.541,19.453z M840.64,17.725c-0.013-0.495-0.142-0.871-0.384-1.129
			c-0.243-0.257-0.54-0.386-0.89-0.386c-0.372,0-0.682,0.136-0.925,0.407s-0.363,0.641-0.357,1.107L840.64,17.725L840.64,17.725z"/>
	</g>
	<g enable-background="new    ">
		<path fill="#4D4D4F" d="M847.757,24.132c-0.604-0.763-1.115-1.654-1.533-2.677c-0.417-1.022-0.626-2.081-0.626-3.176
			c0-0.966,0.156-1.89,0.468-2.774c0.365-1.026,0.929-2.048,1.691-3.066h0.784c-0.49,0.844-0.814,1.446-0.975,1.807
			c-0.248,0.561-0.439,1.145-0.584,1.753c-0.174,0.758-0.262,1.521-0.262,2.287c0,1.951,0.604,3.9,1.818,5.847L847.757,24.132
			L847.757,24.132z"/>
		<path fill="#4D4D4F" d="M849.813,21.51v-6.461h0.986v0.919c0.475-0.71,1.16-1.065,2.057-1.065c0.389,0,0.746,0.07,1.073,0.21
			c0.327,0.14,0.571,0.323,0.733,0.551c0.16,0.228,0.273,0.497,0.34,0.81c0.041,0.202,0.062,0.558,0.062,1.064v3.973h-1.095V17.58
			c0-0.445-0.043-0.779-0.128-1c-0.085-0.222-0.236-0.397-0.454-0.529c-0.217-0.132-0.471-0.198-0.763-0.198
			c-0.469,0-0.869,0.148-1.208,0.444c-0.338,0.296-0.508,0.857-0.508,1.686v3.528L849.813,21.51L849.813,21.51z"/>
		<path fill="#4D4D4F" d="M862.504,16.265h-5.891v-1.022h5.891V16.265z M862.504,18.972h-5.891V17.95h5.891V18.972z"/>
		<path fill="#4D4D4F" d="M867.225,21.51v-2.136h-3.869V18.37l4.07-5.779h0.895v5.779h1.205v1.004h-1.205v2.136H867.225z
			 M867.225,18.37v-4.021l-2.792,4.021H867.225z"/>
		<path fill="#4D4D4F" d="M870.645,19.174l1.15-0.098c0.084,0.56,0.28,0.98,0.593,1.263c0.31,0.281,0.685,0.423,1.122,0.423
			c0.527,0,0.974-0.199,1.339-0.597c0.364-0.397,0.548-0.925,0.548-1.582c0-0.624-0.176-1.117-0.527-1.478
			c-0.35-0.361-0.81-0.542-1.377-0.542c-0.354,0-0.672,0.08-0.955,0.24c-0.282,0.16-0.508,0.368-0.67,0.624l-1.025-0.134
			l0.861-4.582h4.438v1.047h-3.561l-0.479,2.397c0.535-0.373,1.097-0.561,1.685-0.561c0.779,0,1.438,0.271,1.974,0.81
			s0.804,1.233,0.804,2.081c0,0.807-0.236,1.505-0.706,2.093c-0.571,0.722-1.353,1.083-2.343,1.083
			c-0.812,0-1.473-0.228-1.986-0.682C871.011,20.526,870.718,19.924,870.645,19.174z"/>
		<path fill="#4D4D4F" d="M881.7,21.51h-1.096v-6.979c-0.264,0.252-0.609,0.503-1.037,0.755c-0.428,0.251-0.812,0.439-1.152,0.565
			v-1.059c0.612-0.288,1.147-0.637,1.605-1.046c0.459-0.41,0.783-0.808,0.975-1.192h0.705V21.51z"/>
		<path fill="#4D4D4F" d="M885.526,24.132h-0.784c1.214-1.946,1.819-3.896,1.819-5.847c0-0.763-0.088-1.519-0.262-2.27
			c-0.141-0.608-0.33-1.192-0.578-1.752c-0.158-0.365-0.484-0.974-0.979-1.825h0.784c0.764,1.019,1.327,2.04,1.691,3.066
			c0.312,0.885,0.469,1.809,0.469,2.774c0,1.095-0.209,2.153-0.629,3.176S886.127,23.369,885.526,24.132z"/>
	</g>
</g>
</svg>
