<?xml version="1.0" encoding="utf-8"?>
<!-- Generator: Adobe Illustrator 17.1.0, SVG Export Plug-In . SVG Version: 6.00 Build 0)  -->
<!DOCTYPE svg PUBLIC "-//W3C//DTD SVG 1.1//EN" "http://www.w3.org/Graphics/SVG/1.1/DTD/svg11.dtd">
<svg version="1.1" id="Layer_1" xmlns="http://www.w3.org/2000/svg" xmlns:xlink="http://www.w3.org/1999/xlink" x="0px" y="0px"
	 viewBox="0 0 764 34" enable-background="new 0 0 764 34" xml:space="preserve">
<g>
	<g>
		<g enable-background="new    ">
			<path fill="#6BACA1" d="M11.6,14.5l3.1,1c-0.4,1.7-1.2,3-2.3,3.8c-1.1,0.9-2.5,1.3-4.2,1.3c-2.1,0-3.8-0.7-5.1-2.1
				c-1.3-1.4-2-3.4-2-5.8c0-2.6,0.7-4.6,2-6.1s3.1-2.2,5.4-2.2c2,0,3.5,0.5,4.7,1.7c0.8,0.7,1.2,1.6,1.6,2.8l-3.2,0.8
				c-0.2-0.8-0.5-1.4-1.2-2C9.8,7.4,9.1,7.2,8.2,7.2C7,7.2,6.1,7.7,5.4,8.4c-0.8,0.9-1.1,2.2-1.1,4c0,2,0.3,3.4,1.1,4.3
				C6.1,17.6,7,18,8.1,18c0.9,0,1.5-0.2,2.2-0.8C10.9,16.6,11.4,15.7,11.6,14.5z"/>
			<path fill="#6BACA1" d="M16.6,14.5c0-1,0.2-2,0.8-2.8s1.2-1.6,2.1-2.2c0.9-0.4,1.9-0.8,3.1-0.8c1.7,0,3.2,0.5,4.3,1.6
				c1.1,1.1,1.6,2.5,1.6,4.3s-0.5,3.2-1.6,4.3c-1.1,1.1-2.5,1.6-4.2,1.6c-1.1,0-2.1-0.2-3-0.7c-1-0.4-1.6-1.2-2.2-2.1
				C16.9,16.9,16.6,15.9,16.6,14.5z M19.8,14.7c0,1.1,0.2,2,0.8,2.6c0.5,0.7,1.2,0.9,2,0.9c0.8,0,1.4-0.3,2-0.9s0.8-1.4,0.8-2.6
				c0-1.1-0.2-2-0.8-2.5c-0.5-0.5-1.2-0.9-2-0.9c-0.8,0-1.4,0.3-2,0.9S19.8,13.6,19.8,14.7z"/>
			<path fill="#6BACA1" d="M30.5,9h2.7v1.5c1-1.2,2.2-1.7,3.5-1.7c0.8,0,1.3,0.1,1.9,0.4c0.5,0.3,1,0.8,1.3,1.3
				c0.5-0.7,1-1.1,1.6-1.3c0.5-0.3,1.2-0.4,1.9-0.4c0.9,0,1.5,0.2,2.1,0.5c0.5,0.3,1,0.9,1.3,1.5c0.2,0.4,0.3,1.3,0.3,2.3v7.2h-3
				v-6.4c0-1.1-0.1-1.9-0.3-2.2c-0.3-0.4-0.7-0.7-1.3-0.7c-0.4,0-0.8,0.1-1.2,0.4c-0.3,0.2-0.7,0.7-0.8,1.1
				c-0.1,0.5-0.2,1.3-0.2,2.3v5.5h-3v-6.2c0-1.1,0-1.9-0.1-2.2c-0.1-0.3-0.2-0.5-0.5-0.8c-0.2-0.1-0.5-0.2-0.9-0.2
				c-0.4,0-0.9,0.1-1.2,0.3c-0.3,0.2-0.7,0.7-0.8,1.1c-0.1,0.4-0.2,1.2-0.2,2.3v5.5h-3V9H30.5z"/>
			<path fill="#6BACA1" d="M49.9,9h2.7v1.5c1-1.2,2.2-1.7,3.5-1.7c0.8,0,1.3,0.1,1.9,0.4c0.5,0.3,1,0.8,1.3,1.3
				c0.5-0.7,1-1.1,1.6-1.3c0.5-0.3,1.2-0.4,1.9-0.4c0.9,0,1.5,0.2,2.1,0.5c0.5,0.3,1,0.9,1.3,1.5c0.2,0.4,0.3,1.3,0.3,2.3v7.2h-3
				v-6.4c0-1.1-0.1-1.9-0.3-2.2C63,11.3,62.6,11,62,11c-0.4,0-0.8,0.1-1.2,0.4c-0.3,0.2-0.7,0.7-0.8,1.1c-0.1,0.5-0.2,1.3-0.2,2.3
				v5.5h-3v-6.2c0-1.1,0-1.9-0.1-2.2c-0.1-0.3-0.2-0.5-0.5-0.8c-0.2-0.1-0.5-0.2-0.9-0.2c-0.4,0-0.9,0.1-1.2,0.3s-0.7,0.7-0.8,1.1
				c-0.1,0.4-0.2,1.2-0.2,2.3v5.5h-3L49.9,9L49.9,9z"/>
			<path fill="#6BACA1" d="M68.9,14.5c0-1,0.2-2,0.8-2.8c0.4-1,1.2-1.6,2.1-2.2c0.9-0.4,1.9-0.8,3.1-0.8c1.7,0,3.2,0.5,4.3,1.6
				c1.1,1.1,1.6,2.5,1.6,4.3s-0.5,3.2-1.6,4.3c-1.1,1.1-2.5,1.6-4.2,1.6c-1.1,0-2.1-0.2-3-0.7c-1-0.4-1.6-1.2-2.2-2.1
				C69.2,16.9,68.9,15.9,68.9,14.5z M71.9,14.7c0,1.1,0.2,2,0.8,2.6c0.5,0.7,1.2,0.9,2,0.9s1.4-0.3,2-0.9s0.8-1.4,0.8-2.6
				c0-1.1-0.2-2-0.8-2.5c-0.5-0.5-1.2-0.9-2-0.9s-1.4,0.3-2,0.9C72.2,12.7,71.9,13.6,71.9,14.7z"/>
			<path fill="#6BACA1" d="M93.2,20.3h-3v-5.8c0-1.2-0.1-2-0.2-2.4c-0.1-0.3-0.3-0.7-0.7-0.9c-0.3-0.2-0.7-0.3-1.1-0.3
				c-0.5,0-1,0.1-1.4,0.4c-0.4,0.3-0.7,0.7-0.9,1.1c-0.1,0.4-0.2,1.3-0.2,2.6v5.1h-3V9h2.7v1.6c1-1.3,2.2-2,3.7-2
				c0.7,0,1.3,0.1,1.9,0.3c0.5,0.2,1,0.5,1.2,0.9c0.3,0.3,0.4,0.8,0.5,1.3c0.1,0.4,0.2,1.1,0.2,2L93.2,20.3L93.2,20.3z"/>
			<path fill="#6BACA1" d="M104.6,12.5l-2.7-0.4c0.3-1.1,0.9-1.9,1.5-2.4c0.8-0.5,1.9-0.8,3.3-0.8c1.3,0,2.3,0.1,3,0.4
				c0.7,0.3,1.1,0.8,1.4,1.2c0.2,0.4,0.4,1.4,0.4,2.7v3.5c0,1,0,1.7,0.1,2.2c0.1,0.4,0.3,1,0.5,1.5h-2.8c-0.1-0.2-0.2-0.5-0.3-0.9
				c0-0.2-0.1-0.3-0.1-0.3c-0.5,0.5-1.1,0.9-1.6,1.1c-0.5,0.2-1.2,0.3-1.9,0.3c-1.2,0-2.1-0.3-2.7-1s-1-1.4-1-2.4
				c0-0.7,0.1-1.2,0.4-1.7c0.3-0.5,0.8-0.9,1.3-1.2c0.5-0.2,1.3-0.5,2.4-0.7c1.4-0.2,2.4-0.5,3-0.8v-0.3c0-0.5-0.1-1-0.4-1.2
				c-0.3-0.2-0.9-0.3-1.6-0.3c-0.5,0-1,0.1-1.2,0.3C105,11.6,104.8,11.9,104.6,12.5z M108.6,14.9c-0.4,0.1-1,0.3-1.9,0.4
				s-1.4,0.3-1.6,0.5c-0.4,0.3-0.5,0.7-0.5,1.1c0,0.4,0.1,0.8,0.4,1.1c0.3,0.3,0.8,0.4,1.2,0.4c0.5,0,1.1-0.2,1.5-0.5
				c0.3-0.2,0.7-0.5,0.8-1c0.1-0.2,0.1-0.8,0.1-1.4V14.9L108.6,14.9z"/>
			<path fill="#6BACA1" d="M124.9,20.3h-2.7v-1.6c-0.4,0.7-1,1.1-1.6,1.4s-1.3,0.4-1.9,0.4c-1.3,0-2.4-0.5-3.4-1.5
				c-0.9-1.1-1.4-2.5-1.4-4.4c0-2,0.4-3.4,1.3-4.4c0.9-1,2.1-1.5,3.4-1.5s2.4,0.5,3.3,1.5V4.7h3L124.9,20.3L124.9,20.3z M116.9,14.4
				c0,1.2,0.2,2.1,0.5,2.6c0.4,0.8,1.2,1.2,2.1,1.2c0.7,0,1.3-0.3,1.7-0.9c0.4-0.5,0.8-1.4,0.8-2.6c0-1.3-0.2-2.3-0.7-2.8
				c-0.4-0.5-1.1-0.9-1.9-0.9s-1.3,0.3-1.7,0.9C117.4,12.5,116.9,13.3,116.9,14.4z"/>
			<path fill="#6BACA1" d="M130.9,20.3L126.3,9h3.2l2.2,5.8l0.7,2c0.2-0.4,0.2-0.8,0.3-1c0.1-0.3,0.2-0.7,0.3-1l2.2-5.8h3.1
				l-4.5,11.4C133.7,20.3,130.9,20.3,130.9,20.3z"/>
			<path fill="#6BACA1" d="M146.6,16.7l3,0.5c-0.4,1.1-1,2-1.9,2.5c-0.9,0.5-1.9,0.9-3.1,0.9c-2,0-3.4-0.7-4.4-2
				c-0.8-1-1.1-2.3-1.1-3.9c0-1.9,0.4-3.4,1.4-4.4c1-1.1,2.2-1.6,3.7-1.6c1.6,0,3.1,0.5,4,1.6s1.4,2.8,1.4,5.1h-7.5
				c0,0.9,0.2,1.5,0.8,2.1c0.4,0.5,1.1,0.8,1.7,0.8c0.4,0,0.9-0.1,1.2-0.4C146.1,17.7,146.5,17.3,146.6,16.7z M146.8,13.7
				c0-0.9-0.2-1.5-0.7-2c-0.4-0.4-1-0.7-1.5-0.7c-0.7,0-1.2,0.2-1.6,0.8c-0.4,0.5-0.7,1.1-0.7,2L146.8,13.7L146.8,13.7z"/>
			<path fill="#6BACA1" d="M155.1,20.3h-3V9h2.7v1.6c0.4-0.8,0.9-1.3,1.3-1.5s0.8-0.3,1.3-0.3c0.7,0,1.3,0.2,2,0.5l-1,2.6
				c-0.5-0.3-1-0.4-1.4-0.4c-0.4,0-0.8,0.1-1.1,0.3c-0.3,0.2-0.5,0.7-0.7,1.2c-0.2,0.7-0.2,1.9-0.2,3.8V20.3L155.1,20.3z"/>
			<path fill="#6BACA1" d="M159.7,17.2l3.1-0.4c0.1,0.5,0.4,1,0.8,1.3c0.4,0.3,1,0.4,1.6,0.4c0.8,0,1.3-0.1,1.7-0.4
				c0.2-0.2,0.4-0.4,0.4-0.8c0-0.2-0.1-0.4-0.2-0.5c-0.1-0.1-0.4-0.3-1-0.4c-2.4-0.5-3.9-1-4.6-1.4c-0.9-0.7-1.3-1.4-1.3-2.5
				c0-1,0.4-1.9,1.2-2.5c0.8-0.7,2-1,3.6-1c1.5,0,2.7,0.2,3.5,0.8c0.8,0.5,1.3,1.2,1.5,2.3l-2.8,0.5c-0.1-0.4-0.3-0.8-0.7-1
				c-0.3-0.2-0.9-0.3-1.4-0.3c-0.8,0-1.3,0.1-1.7,0.3c-0.2,0.1-0.3,0.3-0.3,0.7c0,0.2,0.1,0.4,0.3,0.5c0.2,0.2,1.2,0.4,2.8,0.9
				c1.6,0.3,2.7,0.8,3.4,1.3c0.7,0.5,1,1.3,1,2.2c0,1.1-0.4,2-1.3,2.7c-0.9,0.8-2.2,1.1-3.8,1.1c-1.5,0-2.7-0.3-3.7-1
				C160.6,19,159.9,18.2,159.7,17.2z"/>
			<path fill="#6BACA1" d="M179.5,16.7l3,0.5c-0.4,1.1-1,2-1.9,2.5c-0.9,0.5-1.9,0.9-3.1,0.9c-2,0-3.4-0.7-4.4-2
				c-0.8-1-1.1-2.3-1.1-3.9c0-1.9,0.4-3.4,1.4-4.4s2.2-1.6,3.7-1.6c1.6,0,3.1,0.5,4,1.6s1.4,2.8,1.4,5.1h-7.5c0,0.9,0.2,1.5,0.8,2.1
				c0.4,0.5,1.1,0.8,1.7,0.8c0.4,0,0.9-0.1,1.2-0.4C179,17.7,179.3,17.3,179.5,16.7z M179.6,13.7c0-0.9-0.2-1.5-0.7-2
				s-1-0.7-1.5-0.7c-0.7,0-1.2,0.2-1.6,0.8c-0.4,0.4-0.7,1.1-0.7,2L179.6,13.7L179.6,13.7z"/>
			<path fill="#6BACA1" d="M197.6,16.7l3,0.5c-0.4,1.1-1,2-1.9,2.5s-1.9,0.9-3.1,0.9c-2,0-3.4-0.7-4.4-2c-0.8-1-1.1-2.3-1.1-3.9
				c0-1.9,0.4-3.4,1.4-4.4s2.2-1.6,3.7-1.6c1.6,0,3.1,0.5,4,1.6c1,1.1,1.4,2.8,1.4,5.1h-7.5c0,0.9,0.2,1.5,0.8,2.1
				c0.4,0.5,1.1,0.8,1.7,0.8c0.4,0,0.9-0.1,1.2-0.4C197.3,17.7,197.5,17.3,197.6,16.7z M197.8,13.7c0-0.9-0.2-1.5-0.7-2
				c-0.4-0.4-1-0.7-1.5-0.7c-0.7,0-1.2,0.2-1.6,0.8c-0.4,0.5-0.7,1.1-0.7,2L197.8,13.7L197.8,13.7z"/>
			<path fill="#6BACA1" d="M206.4,20.3L201.8,9h3.2l2.2,5.8l0.7,2c0.1-0.4,0.2-0.8,0.3-1c0.1-0.3,0.2-0.7,0.3-1l2.2-5.8h3.1
				l-4.5,11.4C209.1,20.3,206.4,20.3,206.4,20.3z"/>
			<path fill="#6BACA1" d="M222,16.7l3,0.5c-0.4,1.1-1,2-1.9,2.5c-0.9,0.5-1.9,0.9-3.1,0.9c-2,0-3.4-0.7-4.4-2
				c-0.8-1-1.1-2.3-1.1-3.9c0-1.9,0.4-3.4,1.4-4.4s2.2-1.6,3.7-1.6c1.6,0,3.1,0.5,4,1.6s1.4,2.8,1.4,5.1h-7.5c0,0.9,0.2,1.5,0.8,2.1
				c0.4,0.5,1.1,0.8,1.7,0.8c0.4,0,0.9-0.1,1.2-0.4C221.5,17.7,221.8,17.3,222,16.7z M222.1,13.7c0-0.9-0.2-1.5-0.7-2
				c-0.4-0.4-1-0.7-1.5-0.7c-0.7,0-1.2,0.2-1.6,0.8c-0.4,0.5-0.7,1.1-0.7,2L222.1,13.7L222.1,13.7z"/>
			<path fill="#6BACA1" d="M237.8,20.3h-3v-5.8c0-1.2-0.1-2-0.2-2.4c-0.1-0.3-0.3-0.7-0.7-0.9c-0.3-0.2-0.7-0.3-1.1-0.3
				c-0.5,0-1,0.1-1.4,0.4c-0.4,0.3-0.7,0.7-0.9,1.1c-0.1,0.4-0.2,1.3-0.2,2.6v5.1h-3V9h2.7v1.6c1-1.3,2.2-2,3.7-2
				c0.7,0,1.3,0.1,1.9,0.3c0.5,0.2,1,0.5,1.2,0.9c0.3,0.3,0.4,0.8,0.5,1.3c0.1,0.4,0.2,1.1,0.2,2L237.8,20.3L237.8,20.3z"/>
			<path fill="#6BACA1" d="M246.1,9v2.4h-2.1V16c0,0.9,0,1.4,0.1,1.6c0.1,0.2,0.1,0.3,0.2,0.3c0.1,0,0.3,0.1,0.5,0.1
				c0.3,0,0.7-0.1,1.2-0.3l0.2,2.3c-0.7,0.3-1.5,0.4-2.4,0.4c-0.5,0-1-0.1-1.4-0.2c-0.4-0.1-0.8-0.4-1-0.7c-0.2-0.3-0.3-0.7-0.4-1.2
				c-0.1-0.3-0.1-1.1-0.1-2.1v-4.9h-1.4V9h1.4V6.8l3.1-1.7v4L246.1,9L246.1,9z"/>
			<path fill="#6BACA1" d="M247.1,17.2l3.1-0.4c0.1,0.5,0.4,1,0.8,1.3c0.4,0.3,1,0.4,1.6,0.4c0.8,0,1.3-0.1,1.7-0.4
				c0.2-0.2,0.4-0.4,0.4-0.8c0-0.2-0.1-0.4-0.2-0.5c-0.1-0.1-0.4-0.3-1-0.4c-2.4-0.5-3.9-1-4.6-1.4c-0.9-0.7-1.3-1.4-1.3-2.5
				c0-1,0.4-1.9,1.2-2.5c0.8-0.7,2-1,3.6-1c1.5,0,2.7,0.2,3.5,0.8c0.8,0.5,1.3,1.2,1.5,2.3l-2.8,0.5c-0.1-0.4-0.3-0.8-0.7-1
				c-0.3-0.2-0.9-0.3-1.4-0.3c-0.8,0-1.3,0.1-1.7,0.3c-0.2,0.1-0.3,0.3-0.3,0.7c0,0.2,0.1,0.4,0.3,0.5c0.2,0.2,1.2,0.4,2.8,0.9
				s2.7,0.8,3.4,1.3c0.7,0.5,1,1.3,1,2.2c0,1.1-0.4,2-1.3,2.7c-0.9,0.8-2.2,1.1-3.8,1.1c-1.5,0-2.7-0.3-3.7-1
				C248,19,247.5,18.2,247.1,17.2z"/>
		</g>
	</g>
	<rect x="344.9" y="-3.2" fill="#ECF6F2" width="252.9" height="37.2"/>
	<rect x="598" y="-3.2" opacity="0.8" fill="#DBDBDC" enable-background="new    " width="166" height="37.2"/>
	<g enable-background="new    ">
		<path fill="#4D4D4F" d="M361.9,15.5c0-1,0.1-1.9,0.4-2.5c0.2-0.5,0.5-1,0.9-1.3c0.4-0.4,0.8-0.7,1.3-0.9c0.7-0.2,1.3-0.4,2.1-0.4
			c1.4,0,2.6,0.4,3.5,1.3c0.9,0.9,1.3,2.1,1.3,3.7c0,1.5-0.4,2.8-1.3,3.7s-2,1.3-3.4,1.3s-2.6-0.4-3.5-1.3
			C362.3,18.3,361.9,17.1,361.9,15.5z M363.9,15.4c0,1.1,0.2,2,0.8,2.5c0.5,0.5,1.2,0.9,2,0.9c0.8,0,1.4-0.3,2-0.9
			c0.5-0.5,0.8-1.4,0.8-2.5s-0.2-2-0.8-2.5c-0.4-0.5-1.1-0.9-2-0.9c-0.8,0-1.4,0.3-2,0.9C364.2,13.5,363.9,14.3,363.9,15.4z"/>
		<path fill="#4D4D4F" d="M372.8,13.2h1.7v1.1c0.2-0.3,0.5-0.7,0.9-0.9c0.4-0.2,0.8-0.3,1.3-0.3c0.9,0,1.5,0.3,2.1,1
			c0.5,0.7,0.9,1.5,0.9,2.7s-0.3,2.1-0.9,2.7c-0.5,0.7-1.3,1-2.1,1c-0.4,0-0.8-0.1-1.1-0.2c-0.3-0.1-0.7-0.4-1-0.8v3.5h-1.9V13.2
			L372.8,13.2z M374.7,16.7c0,0.8,0.1,1.4,0.4,1.7c0.3,0.3,0.7,0.5,1.2,0.5c0.4,0,0.8-0.2,1.1-0.5s0.4-0.9,0.4-1.7
			c0-0.8-0.1-1.3-0.4-1.6s-0.7-0.5-1.1-0.5s-0.9,0.2-1.1,0.5C374.8,15.5,374.7,16,374.7,16.7z"/>
		<path fill="#4D4D4F" d="M384.4,13.2v1.5h-1.3v2.8c0,0.5,0,0.9,0,1c0,0.1,0.1,0.2,0.2,0.2c0.1,0.1,0.2,0.1,0.3,0.1
			c0.2,0,0.4-0.1,0.8-0.2l0.1,1.4c-0.4,0.2-1,0.3-1.5,0.3c-0.3,0-0.7-0.1-0.9-0.2c-0.2-0.1-0.4-0.2-0.5-0.4
			c-0.1-0.2-0.2-0.4-0.2-0.8c0-0.2-0.1-0.7-0.1-1.3v-3.1h-0.9v-1.5h0.9v-1.4l1.9-1.1v2.5L384.4,13.2L384.4,13.2z"/>
		<path fill="#4D4D4F" d="M385.7,12.4v-1.7h1.9v1.7H385.7z M385.7,20.3v-7.1h1.9v7.1H385.7z"/>
		<path fill="#4D4D4F" d="M388.8,18.4l1.9-0.3c0.1,0.3,0.2,0.7,0.4,0.9c0.2,0.2,0.5,0.3,1,0.3s0.9-0.1,1.1-0.2
			c0.1-0.1,0.2-0.3,0.2-0.5c0-0.1,0-0.2-0.1-0.3c-0.1-0.1-0.3-0.2-0.7-0.2c-1.5-0.3-2.5-0.7-2.8-0.9c-0.5-0.3-0.9-0.9-0.9-1.6
			c0-0.7,0.2-1.1,0.8-1.5c0.4-0.4,1.2-0.7,2.3-0.7c1,0,1.6,0.1,2.2,0.4c0.4,0.3,0.8,0.8,1,1.4l-1.7,0.3c-0.1-0.3-0.2-0.4-0.4-0.7
			c-0.2-0.1-0.5-0.2-0.9-0.2c-0.5,0-0.9,0.1-1.1,0.2c-0.1,0.1-0.2,0.2-0.2,0.3c0,0.1,0.1,0.2,0.2,0.3c0.2,0.1,0.8,0.3,1.7,0.5
			c1,0.2,1.6,0.5,2.1,0.9s0.5,0.8,0.5,1.4c0,0.7-0.2,1.2-0.8,1.6c-0.5,0.4-1.3,0.7-2.4,0.7c-1,0-1.7-0.2-2.3-0.5
			C389.3,19.6,389,19,388.8,18.4z"/>
		<path fill="#4D4D4F" d="M400.3,13.2v1.5h-1.3v2.8c0,0.5,0,0.9,0,1c0,0.1,0.1,0.2,0.2,0.2c0.1,0.1,0.2,0.1,0.3,0.1
			c0.2,0,0.4-0.1,0.8-0.2l0.1,1.4c-0.4,0.2-1,0.3-1.5,0.3c-0.3,0-0.7-0.1-0.9-0.2c-0.2-0.1-0.4-0.2-0.5-0.4
			c-0.1-0.2-0.2-0.4-0.2-0.8c0-0.2-0.1-0.7-0.1-1.3v-3.1h-0.9v-1.5h0.9v-1.4l1.9-1.1v2.5L400.3,13.2L400.3,13.2z"/>
		<path fill="#4D4D4F" d="M403,15.4l-1.7-0.3c0.2-0.7,0.5-1.2,1-1.5c0.4-0.3,1.2-0.4,2.1-0.4c0.9,0,1.4,0.1,1.9,0.3
			c0.4,0.2,0.7,0.4,0.9,0.8c0.2,0.3,0.2,0.9,0.2,1.6V18c0,0.7,0,1.1,0.1,1.4c0.1,0.3,0.2,0.7,0.3,1h-1.9c0-0.1-0.1-0.3-0.2-0.5
			c0-0.1,0-0.2-0.1-0.2c-0.3,0.3-0.7,0.5-1,0.7c-0.3,0.1-0.8,0.2-1.2,0.2c-0.8,0-1.3-0.2-1.7-0.5c-0.4-0.4-0.7-0.9-0.7-1.5
			c0-0.4,0.1-0.8,0.3-1.1s0.4-0.5,0.8-0.8c0.3-0.2,0.9-0.3,1.5-0.4c0.9-0.1,1.5-0.3,1.9-0.4v-0.2c0-0.3-0.1-0.7-0.2-0.8
			c-0.2-0.1-0.5-0.2-1-0.2c-0.3,0-0.5,0.1-0.8,0.2C403.2,14.9,403.1,15.1,403,15.4z M405.5,16.9c-0.2,0.1-0.7,0.2-1.1,0.3
			c-0.5,0.1-0.9,0.2-1,0.3c-0.2,0.2-0.3,0.4-0.3,0.7s0.1,0.4,0.3,0.7c0.2,0.2,0.4,0.3,0.8,0.3c0.3,0,0.7-0.1,1-0.3
			c0.2-0.2,0.3-0.3,0.4-0.7c0-0.1,0.1-0.4,0.1-0.9L405.5,16.9L405.5,16.9z"/>
		<path fill="#4D4D4F" d="M411.1,20.3l-2.8-7.1h2l1.3,3.6l0.4,1.2c0.1-0.3,0.1-0.5,0.2-0.7c0.1-0.2,0.1-0.4,0.2-0.5l1.3-3.6h2
			l-2.8,7.1H411.1z"/>
		<path fill="#4D4D4F" d="M416.8,12.4v-1.7h1.9v1.7H416.8z M416.8,20.3v-7.1h1.9v7.1H416.8z"/>
		<path fill="#4D4D4F" d="M426.9,20.3h-1.9v-3.6c0-0.8,0-1.2-0.1-1.5c-0.1-0.2-0.2-0.4-0.4-0.5c-0.2-0.1-0.4-0.2-0.7-0.2
			c-0.3,0-0.7,0.1-0.9,0.2s-0.4,0.4-0.5,0.7c-0.1,0.3-0.1,0.9-0.1,1.6v3.2h-1.9v-6.9h1.7v1.1c0.7-0.8,1.4-1.2,2.3-1.2
			c0.4,0,0.8,0.1,1.1,0.2c0.3,0.1,0.5,0.3,0.8,0.5c0.2,0.2,0.3,0.5,0.3,0.8c0.1,0.3,0.1,0.7,0.1,1.2L426.9,20.3L426.9,20.3z"/>
		<path fill="#4D4D4F" d="M434.8,18.9v-2.5h-2.5v-1.7h2.5v-2.5h1.7v2.5h2.5v1.7h-2.5v2.5L434.8,18.9L434.8,18.9z"/>
		<path fill="#4D4D4F" d="M450.5,15.4l-1.9,0.3c-0.1-0.3-0.2-0.7-0.4-0.9c-0.2-0.2-0.5-0.3-0.9-0.3c-0.4,0-0.9,0.1-1.1,0.4
			c-0.3,0.3-0.4,0.9-0.4,1.6c0,0.9,0.1,1.4,0.4,1.7c0.3,0.3,0.7,0.5,1.1,0.5c0.3,0,0.7-0.1,0.9-0.3c0.2-0.2,0.4-0.5,0.4-1.1l1.9,0.3
			c-0.2,0.9-0.5,1.5-1.1,1.9c-0.5,0.4-1.3,0.7-2.2,0.7c-1,0-1.9-0.3-2.5-1s-0.9-1.5-0.9-2.7s0.3-2.1,0.9-2.7c0.7-0.7,1.4-1,2.5-1
			c0.9,0,1.5,0.2,2.1,0.5C449.9,14,450.3,14.7,450.5,15.4z"/>
		<path fill="#4D4D4F" d="M453.8,10.6v3.6c0.7-0.7,1.3-1.1,2.2-1.1c0.4,0,0.8,0.1,1.2,0.2c0.3,0.1,0.7,0.3,0.8,0.7
			c0.1,0.3,0.3,0.5,0.3,0.9c0.1,0.3,0.1,0.8,0.1,1.4v4.2h-1.9v-3.7c0-0.8,0-1.2-0.1-1.4c-0.1-0.2-0.2-0.3-0.3-0.4
			c-0.2-0.1-0.4-0.2-0.7-0.2c-0.3,0-0.5,0.1-0.9,0.2c-0.2,0.1-0.4,0.3-0.5,0.7c-0.1,0.3-0.2,0.8-0.2,1.3v3.5H452v-9.7L453.8,10.6
			L453.8,10.6z"/>
		<path fill="#4D4D4F" d="M464.3,18.2l1.9,0.3c-0.2,0.7-0.7,1.2-1.1,1.5c-0.5,0.3-1.2,0.5-2,0.5c-1.2,0-2.2-0.4-2.7-1.2
			c-0.4-0.7-0.7-1.4-0.7-2.4c0-1.2,0.3-2.1,0.9-2.7c0.7-0.7,1.4-1,2.3-1c1.1,0,1.9,0.3,2.5,1.1c0.7,0.7,0.9,1.7,0.9,3.2h-4.7
			c0,0.5,0.1,1,0.4,1.3c0.3,0.3,0.7,0.4,1.1,0.4c0.3,0,0.5-0.1,0.8-0.2C464.1,18.7,464.2,18.5,464.3,18.2z M464.4,16.2
			c0-0.5-0.1-1-0.4-1.2c-0.2-0.3-0.5-0.4-1-0.4s-0.8,0.1-1,0.4c-0.2,0.3-0.4,0.7-0.4,1.2H464.4L464.4,16.2z"/>
		<path fill="#4D4D4F" d="M467.7,13.2h1.7v1c0.7-0.8,1.3-1.1,2.2-1.1c0.4,0,0.9,0.1,1.2,0.3c0.3,0.2,0.7,0.4,0.8,0.9
			c0.3-0.3,0.7-0.7,1-0.9c0.3-0.2,0.8-0.3,1.2-0.3c0.5,0,1,0.1,1.3,0.3c0.3,0.2,0.7,0.5,0.8,0.9c0.1,0.3,0.2,0.8,0.2,1.4v4.5h-1.9
			v-4c0-0.7-0.1-1.2-0.2-1.3c-0.2-0.2-0.4-0.4-0.8-0.4c-0.2,0-0.5,0.1-0.8,0.2c-0.2,0.1-0.4,0.4-0.5,0.7c-0.1,0.3-0.1,0.8-0.1,1.4
			v3.4H472v-3.6c0-0.7,0-1.1-0.1-1.3c-0.1-0.2-0.2-0.3-0.3-0.4c-0.1-0.1-0.3-0.1-0.5-0.1c-0.3,0-0.5,0.1-0.8,0.2
			c-0.2,0.1-0.4,0.3-0.5,0.7c-0.1,0.3-0.1,0.8-0.1,1.4v3.4h-1.9L467.7,13.2L467.7,13.2z"/>
		<path fill="#4D4D4F" d="M479.5,16.7c0-0.7,0.1-1.2,0.4-1.7c0.3-0.5,0.8-1,1.3-1.3c0.5-0.3,1.2-0.4,1.9-0.4c1.1,0,2,0.3,2.6,1.1
			c0.7,0.7,1,1.5,1,2.6s-0.3,2-1,2.6c-0.7,0.7-1.5,1.1-2.6,1.1c-0.7,0-1.3-0.1-1.9-0.4c-0.5-0.3-1-0.8-1.3-1.3
			C479.6,18.3,479.5,17.5,479.5,16.7z M481.5,16.8c0,0.7,0.1,1.2,0.5,1.6c0.3,0.3,0.8,0.5,1.2,0.5s0.9-0.2,1.2-0.5
			c0.3-0.3,0.5-0.9,0.5-1.6c0-0.7-0.1-1.2-0.5-1.6c-0.3-0.3-0.8-0.5-1.2-0.5s-0.9,0.2-1.2,0.5C481.6,15.5,481.5,16.1,481.5,16.8z"/>
		<path fill="#4D4D4F" d="M491.5,13.2v1.5h-1.3v2.8c0,0.5,0,0.9,0,1c0,0.1,0.1,0.2,0.1,0.2c0.1,0.1,0.2,0.1,0.3,0.1
			c0.2,0,0.4-0.1,0.8-0.2l0.1,1.4c-0.4,0.2-0.9,0.3-1.5,0.3c-0.3,0-0.7-0.1-0.9-0.2c-0.2-0.1-0.4-0.2-0.5-0.4
			c-0.1-0.2-0.2-0.4-0.2-0.8c0-0.2-0.1-0.7-0.1-1.3v-3.1h-0.8v-1.5h0.9v-1.4l1.9-1.1v2.5L491.5,13.2L491.5,13.2z"/>
		<path fill="#4D4D4F" d="M494.7,10.6v3.6c0.7-0.7,1.3-1.1,2.2-1.1c0.4,0,0.8,0.1,1.2,0.2c0.3,0.1,0.7,0.3,0.8,0.7
			c0.2,0.2,0.3,0.5,0.3,0.9c0.1,0.3,0.1,0.8,0.1,1.4v4.2h-2v-3.7c0-0.8,0-1.2-0.1-1.4c-0.1-0.2-0.2-0.3-0.3-0.4
			c-0.1-0.1-0.4-0.2-0.7-0.2c-0.3,0-0.5,0.1-0.9,0.2c-0.2,0.1-0.4,0.3-0.5,0.7c-0.1,0.3-0.2,0.8-0.2,1.3v3.5h-1.9v-9.7L494.7,10.6
			L494.7,10.6z"/>
		<path fill="#4D4D4F" d="M505.2,18.2l1.9,0.3c-0.2,0.7-0.7,1.2-1.1,1.5c-0.5,0.3-1.2,0.5-2,0.5c-1.2,0-2.2-0.4-2.7-1.2
			c-0.4-0.7-0.7-1.4-0.7-2.4c0-1.2,0.3-2.1,0.9-2.7c0.7-0.7,1.4-1,2.3-1c1.1,0,1.9,0.3,2.5,1.1c0.7,0.7,0.9,1.7,0.9,3.2h-4.7
			c0,0.5,0.1,1,0.4,1.3c0.3,0.3,0.7,0.4,1.1,0.4c0.3,0,0.5-0.1,0.8-0.2C505,18.7,505.1,18.5,505.2,18.2z M505.3,16.2
			c0-0.5-0.1-1-0.4-1.2c-0.2-0.3-0.5-0.4-1-0.4s-0.8,0.1-1,0.4c-0.2,0.3-0.4,0.7-0.4,1.2H505.3L505.3,16.2z"/>
		<path fill="#4D4D4F" d="M510.4,20.3h-1.9v-7.1h1.7v1.1c0.3-0.4,0.5-0.8,0.8-1c0.2-0.1,0.5-0.2,0.8-0.2c0.4,0,0.9,0.1,1.2,0.3
			l-0.5,1.6c-0.3-0.2-0.7-0.3-0.9-0.3c-0.2,0-0.4,0.1-0.7,0.2c-0.2,0.1-0.3,0.4-0.4,0.8c-0.1,0.3-0.1,1.2-0.1,2.4L510.4,20.3
			L510.4,20.3z"/>
		<path fill="#4D4D4F" d="M515.3,15.4l-1.7-0.3c0.2-0.7,0.5-1.2,1-1.5c0.4-0.3,1.2-0.4,2.1-0.4c0.9,0,1.4,0.1,1.9,0.3
			c0.4,0.2,0.7,0.4,0.9,0.8c0.1,0.3,0.2,0.9,0.2,1.6V18c0,0.7,0,1.1,0.1,1.4s0.2,0.7,0.3,1h-1.9c0-0.1-0.1-0.3-0.2-0.5
			c0-0.1,0-0.2-0.1-0.2c-0.3,0.3-0.7,0.5-1,0.7c-0.3,0.1-0.8,0.2-1.2,0.2c-0.8,0-1.3-0.2-1.7-0.5s-0.7-0.9-0.7-1.5
			c0-0.4,0.1-0.8,0.3-1.1c0.2-0.3,0.4-0.5,0.8-0.8c0.3-0.2,0.9-0.3,1.5-0.4c0.9-0.1,1.5-0.3,1.9-0.4v-0.2c0-0.3-0.1-0.7-0.2-0.8
			c-0.2-0.1-0.5-0.2-1-0.2c-0.3,0-0.5,0.1-0.8,0.2C515.7,14.9,515.5,15.1,515.3,15.4z M517.9,16.9c-0.2,0.1-0.7,0.2-1.1,0.3
			c-0.5,0.1-0.9,0.2-1,0.3c-0.2,0.2-0.3,0.4-0.3,0.7s0.1,0.4,0.3,0.7s0.4,0.3,0.8,0.3s0.7-0.1,1-0.3c0.2-0.2,0.3-0.3,0.4-0.7
			c0-0.1,0.1-0.4,0.1-0.9L517.9,16.9L517.9,16.9z"/>
		<path fill="#4D4D4F" d="M521.5,13.2h1.7v1.1c0.2-0.3,0.5-0.7,0.9-0.9c0.4-0.2,0.8-0.3,1.3-0.3c0.9,0,1.5,0.3,2.1,1
			c0.5,0.7,0.9,1.5,0.9,2.7s-0.3,2.1-0.9,2.7s-1.3,1-2.1,1c-0.4,0-0.8-0.1-1.1-0.2c-0.3-0.1-0.7-0.4-1-0.8v3.5h-1.9V13.2L521.5,13.2
			z M523.3,16.7c0,0.8,0.1,1.4,0.4,1.7c0.3,0.3,0.7,0.5,1.2,0.5c0.4,0,0.8-0.2,1.1-0.5s0.4-0.9,0.4-1.7c0-0.8-0.1-1.3-0.4-1.6
			s-0.7-0.5-1.1-0.5s-0.9,0.2-1.1,0.5C523.5,15.5,523.3,16,523.3,16.7z"/>
		<path fill="#4D4D4F" d="M529,13.2h2l1.6,5l1.6-5h2l-2.5,6.8l-0.4,1.2c-0.1,0.4-0.3,0.8-0.4,1c-0.1,0.2-0.3,0.4-0.5,0.5
			c-0.2,0.1-0.4,0.2-0.7,0.3c-0.3,0.1-0.5,0.1-1,0.1c-0.3,0-0.8,0-1.1-0.1l-0.2-1.4c0.3,0.1,0.5,0.1,0.8,0.1c0.4,0,0.8-0.1,1-0.4
			c0.2-0.2,0.3-0.5,0.4-1L529,13.2z"/>
	</g>
	<g enable-background="new    ">
		<path fill="#4D4D4F" d="M546.2,23.2c-0.7-0.9-1.2-1.9-1.6-3c-0.4-1.1-0.7-2.3-0.7-3.5c0-1.1,0.2-2.1,0.5-3.1
			c0.4-1.1,1-2.2,1.9-3.4h0.9c-0.5,0.9-0.9,1.5-1.1,2c-0.2,0.7-0.4,1.2-0.7,2c-0.2,0.9-0.3,1.6-0.3,2.5c0,2.2,0.7,4.3,2,6.3
			L546.2,23.2L546.2,23.2z"/>
		<path fill="#4D4D4F" d="M548.5,20.3v-7.1h1.1v1.1c0.5-0.8,1.3-1.2,2.3-1.2c0.4,0,0.8,0.1,1.2,0.2c0.3,0.1,0.7,0.3,0.8,0.7
			s0.3,0.5,0.3,0.9c0,0.2,0.1,0.7,0.1,1.2v4.4h-1.2v-4.3c0-0.4,0-0.9-0.1-1.1c-0.1-0.2-0.2-0.4-0.5-0.5c-0.2-0.1-0.5-0.2-0.9-0.2
			c-0.5,0-1,0.1-1.3,0.4c-0.3,0.3-0.5,1-0.5,1.9v3.8L548.5,20.3L548.5,20.3z"/>
		<path fill="#4D4D4F" d="M562.3,14.7h-6.4v-1.1h6.4V14.7z M562.3,17.6h-6.4v-1.1h6.4V17.6z"/>
		<path fill="#4D4D4F" d="M567.5,20.3V18h-4.3v-1.1l4.5-6.3h1v6.3h1.3V18h-1.3v2.3H567.5z M567.5,16.9v-4.4l-3.1,4.4H567.5
			L567.5,16.9z"/>
		<path fill="#4D4D4F" d="M575,20.3V18h-4.3v-1.1l4.5-6.3h1v6.3h1.3V18h-1.3v2.3H575z M575,16.9v-4.4l-3.1,4.4H575L575,16.9z"/>
		<path fill="#4D4D4F" d="M578.8,11.9v-1.2h6.3v1c-0.7,0.7-1.2,1.5-1.9,2.6c-0.7,1.1-1.1,2.2-1.4,3.4c-0.2,0.8-0.4,1.7-0.4,2.7h-1.2
			c0-0.8,0.1-1.6,0.4-2.7c0.3-1.1,0.7-2.2,1.2-3.2s1.1-1.9,1.7-2.5L578.8,11.9L578.8,11.9z"/>
		<path fill="#4D4D4F" d="M587.5,23.2h-0.9c1.3-2.1,2-4.3,2-6.3c0-0.9-0.1-1.6-0.3-2.5c-0.1-0.7-0.3-1.3-0.7-2
			c-0.2-0.4-0.5-1.1-1.1-2h0.9c0.9,1.1,1.4,2.2,1.9,3.4c0.3,1,0.5,2,0.5,3.1c0,1.2-0.2,2.4-0.7,3.5
			C588.7,21.4,588.1,22.4,587.5,23.2z"/>
	</g>
	<g enable-background="new    ">
		<path fill="#4D4D4F" d="M620.2,16.7l1.9,0.7c-0.3,1.1-0.8,1.9-1.4,2.4c-0.7,0.5-1.5,0.8-2.6,0.8c-1.3,0-2.4-0.4-3.2-1.3
			c-0.9-0.9-1.2-2.1-1.2-3.6c0-1.6,0.4-2.8,1.2-3.8c0.9-0.9,2-1.3,3.3-1.3c1.2,0,2.2,0.3,3,1.1c0.4,0.4,0.8,1,1,1.7l-2,0.4
			c-0.1-0.5-0.3-0.9-0.8-1.2c-0.3-0.3-0.8-0.4-1.3-0.4c-0.8,0-1.3,0.2-1.7,0.8c-0.4,0.5-0.7,1.3-0.7,2.5s0.2,2.1,0.7,2.6
			c0.4,0.5,1,0.8,1.7,0.8c0.5,0,1-0.2,1.3-0.5C619.7,18,620.1,17.5,620.2,16.7z"/>
		<path fill="#4D4D4F" d="M625.6,10.6v3.6c0.7-0.7,1.3-1.1,2.2-1.1c0.4,0,0.8,0.1,1.2,0.2c0.3,0.1,0.7,0.3,0.8,0.7
			c0.1,0.3,0.3,0.5,0.3,0.9c0.1,0.3,0.1,0.8,0.1,1.4v4.2h-1.9v-3.7c0-0.8,0-1.2-0.1-1.4c-0.1-0.2-0.2-0.3-0.3-0.4
			c-0.2-0.1-0.4-0.2-0.7-0.2c-0.3,0-0.5,0.1-0.9,0.2c-0.2,0.1-0.4,0.3-0.5,0.7c-0.1,0.3-0.2,0.8-0.2,1.3v3.5h-1.9v-9.7L625.6,10.6
			L625.6,10.6z"/>
		<path fill="#4D4D4F" d="M636.1,18.2l1.9,0.3c-0.2,0.7-0.7,1.2-1.1,1.5c-0.5,0.3-1.2,0.5-2,0.5c-1.2,0-2.2-0.4-2.7-1.2
			c-0.4-0.7-0.7-1.4-0.7-2.4c0-1.2,0.3-2.1,0.9-2.7c0.7-0.7,1.4-1,2.3-1c1.1,0,1.9,0.3,2.5,1.1c0.7,0.7,0.9,1.7,0.9,3.2h-4.7
			c0,0.5,0.1,1,0.4,1.3c0.3,0.3,0.7,0.4,1.1,0.4c0.3,0,0.5-0.1,0.8-0.2C635.9,18.7,636,18.5,636.1,18.2z M636.2,16.2
			c0-0.5-0.1-1-0.4-1.2c-0.2-0.3-0.5-0.4-1-0.4c-0.4,0-0.8,0.1-1,0.4c-0.2,0.3-0.4,0.7-0.4,1.2H636.2L636.2,16.2z"/>
		<path fill="#4D4D4F" d="M639.5,13.2h1.7v1c0.7-0.8,1.3-1.1,2.2-1.1c0.4,0,0.9,0.1,1.2,0.3c0.3,0.2,0.7,0.4,0.8,0.9
			c0.3-0.3,0.7-0.7,1-0.9c0.3-0.2,0.8-0.3,1.2-0.3c0.5,0,1,0.1,1.3,0.3c0.3,0.2,0.7,0.5,0.8,0.9c0.1,0.3,0.2,0.8,0.2,1.4v4.5H648v-4
			c0-0.7-0.1-1.2-0.2-1.3c-0.2-0.2-0.4-0.4-0.8-0.4c-0.2,0-0.5,0.1-0.8,0.2s-0.4,0.4-0.5,0.7c-0.1,0.3-0.1,0.8-0.1,1.4v3.4h-1.9
			v-3.6c0-0.7,0-1.1-0.1-1.3c-0.1-0.2-0.2-0.3-0.3-0.4c-0.1-0.1-0.3-0.1-0.5-0.1c-0.3,0-0.5,0.1-0.8,0.2c-0.2,0.1-0.4,0.3-0.5,0.7
			c-0.1,0.3-0.1,0.8-0.1,1.4v3.4h-1.9L639.5,13.2L639.5,13.2z"/>
		<path fill="#4D4D4F" d="M651.3,16.7c0-0.7,0.1-1.2,0.4-1.7c0.3-0.5,0.8-1,1.3-1.3c0.5-0.3,1.2-0.4,1.9-0.4c1.1,0,2,0.3,2.6,1.1
			c0.7,0.7,1,1.5,1,2.6s-0.3,2-1,2.6s-1.5,1.1-2.6,1.1c-0.7,0-1.3-0.1-1.9-0.4s-1-0.8-1.3-1.3C651.4,18.3,651.3,17.5,651.3,16.7z
			 M653.3,16.8c0,0.7,0.1,1.2,0.5,1.6c0.3,0.3,0.8,0.5,1.2,0.5c0.4,0,0.9-0.2,1.2-0.5s0.5-0.9,0.5-1.6c0-0.7-0.1-1.2-0.5-1.6
			c-0.3-0.3-0.8-0.5-1.2-0.5s-0.9,0.2-1.2,0.5C653.4,15.5,653.3,16.1,653.3,16.8z"/>
		<path fill="#4D4D4F" d="M665.3,15.4l-1.7-0.3c0.2-0.7,0.5-1.2,1-1.5c0.4-0.3,1.2-0.4,2.1-0.4c0.9,0,1.4,0.1,1.9,0.3
			c0.4,0.2,0.7,0.4,0.9,0.8c0.2,0.3,0.2,0.9,0.2,1.6V18c0,0.7,0,1.1,0.1,1.4s0.2,0.7,0.3,1h-1.9c0-0.1-0.1-0.3-0.2-0.5
			c0-0.1,0-0.2-0.1-0.2c-0.3,0.3-0.7,0.5-1,0.7c-0.3,0.1-0.8,0.2-1.2,0.2c-0.8,0-1.3-0.2-1.7-0.5c-0.4-0.4-0.7-0.9-0.7-1.5
			c0-0.4,0.1-0.8,0.3-1.1s0.4-0.5,0.8-0.8s0.9-0.3,1.5-0.4c0.9-0.1,1.5-0.3,1.9-0.4v-0.2c0-0.3-0.1-0.7-0.2-0.8
			c-0.2-0.1-0.5-0.2-1-0.2c-0.3,0-0.5,0.1-0.8,0.2C665.5,14.9,665.4,15.1,665.3,15.4z M667.7,16.9c-0.2,0.1-0.7,0.2-1.1,0.3
			c-0.5,0.1-0.9,0.2-1,0.3c-0.2,0.2-0.3,0.4-0.3,0.7s0.1,0.4,0.3,0.7c0.2,0.2,0.4,0.3,0.8,0.3s0.7-0.1,1-0.3
			c0.2-0.2,0.3-0.3,0.4-0.7c0-0.1,0.1-0.4,0.1-0.9L667.7,16.9L667.7,16.9z"/>
		<path fill="#4D4D4F" d="M671.4,20.3v-9.7h1.9v9.7H671.4z"/>
		<path fill="#4D4D4F" d="M674.8,16.7c0-0.7,0.1-1.2,0.4-1.7c0.3-0.5,0.8-1,1.3-1.3c0.5-0.3,1.2-0.4,1.9-0.4c1.1,0,2,0.3,2.6,1.1
			c0.7,0.7,1,1.5,1,2.6s-0.3,2-1,2.6s-1.5,1.1-2.6,1.1c-0.7,0-1.3-0.1-1.9-0.4s-1-0.8-1.3-1.3C674.9,18.3,674.8,17.5,674.8,16.7z
			 M676.7,16.8c0,0.7,0.1,1.2,0.5,1.6c0.3,0.3,0.8,0.5,1.2,0.5c0.4,0,0.9-0.2,1.2-0.5s0.5-0.9,0.5-1.6c0-0.7-0.1-1.2-0.5-1.6
			c-0.3-0.3-0.8-0.5-1.2-0.5c-0.4,0-0.9,0.2-1.2,0.5C676.9,15.5,676.7,16.1,676.7,16.8z"/>
		<path fill="#4D4D4F" d="M690,20.3h-1.9v-3.6c0-0.8,0-1.2-0.1-1.5c-0.1-0.2-0.2-0.4-0.4-0.5s-0.4-0.2-0.7-0.2
			c-0.3,0-0.7,0.1-0.9,0.2c-0.2,0.2-0.4,0.4-0.5,0.7c-0.1,0.3-0.1,0.9-0.1,1.6v3.2h-1.9v-6.9h1.7v1.1c0.7-0.8,1.4-1.2,2.3-1.2
			c0.4,0,0.8,0.1,1.1,0.2c0.3,0.1,0.7,0.3,0.8,0.5c0.2,0.2,0.3,0.5,0.3,0.8c0.1,0.3,0.1,0.7,0.1,1.2L690,20.3L690,20.3z"/>
		<path fill="#4D4D4F" d="M695.9,18.2l1.9,0.3c-0.2,0.7-0.7,1.2-1.1,1.5c-0.5,0.3-1.2,0.5-2,0.5c-1.2,0-2.2-0.4-2.7-1.2
			c-0.4-0.7-0.7-1.4-0.7-2.4c0-1.2,0.3-2.1,0.9-2.7c0.7-0.7,1.4-1,2.3-1c1.1,0,1.9,0.3,2.5,1.1c0.7,0.7,0.9,1.7,0.9,3.2h-4.7
			c0,0.5,0.2,1,0.4,1.3c0.3,0.3,0.7,0.4,1.1,0.4c0.3,0,0.5-0.1,0.8-0.2C695.7,18.7,695.8,18.5,695.9,18.2z M696,16.2
			c0-0.5-0.1-1-0.4-1.2c-0.2-0.3-0.5-0.4-1-0.4c-0.4,0-0.8,0.1-1,0.4c-0.2,0.3-0.4,0.7-0.4,1.2H696L696,16.2z"/>
	</g>
	<g enable-background="new    ">
		<path fill="#4D4D4F" d="M704.9,23.2c-0.7-0.9-1.2-1.9-1.6-3c-0.4-1.1-0.7-2.3-0.7-3.5c0-1.1,0.2-2.1,0.5-3.1
			c0.4-1.1,1-2.2,1.9-3.4h0.9c-0.5,0.9-0.9,1.5-1.1,2c-0.2,0.7-0.4,1.2-0.7,2c-0.2,0.9-0.3,1.6-0.3,2.5c0,2.2,0.7,4.3,2,6.3
			L704.9,23.2L704.9,23.2z"/>
		<path fill="#4D4D4F" d="M707.2,20.3v-7.1h1.1v1.1c0.5-0.8,1.3-1.2,2.3-1.2c0.4,0,0.8,0.1,1.2,0.2c0.3,0.1,0.7,0.3,0.8,0.7
			c0.2,0.2,0.3,0.5,0.3,0.9c0,0.2,0.1,0.7,0.1,1.2v4.4h-1.2v-4.3c0-0.4,0-0.9-0.1-1.1c-0.1-0.2-0.2-0.4-0.5-0.5
			c-0.2-0.1-0.5-0.2-0.9-0.2c-0.5,0-1,0.1-1.3,0.4s-0.5,1-0.5,1.9v3.8L707.2,20.3L707.2,20.3z"/>
		<path fill="#4D4D4F" d="M721,14.7h-6.4v-1.1h6.4V14.7z M721,17.6h-6.4v-1.1h6.4V17.6z"/>
		<path fill="#4D4D4F" d="M726.2,20.3V18h-4.3v-1.1l4.5-6.3h1v6.3h1.3V18h-1.3v2.3H726.2z M726.2,16.9v-4.4l-3.1,4.4H726.2
			L726.2,16.9z"/>
		<path fill="#4D4D4F" d="M729.9,17.8l1.2-0.1c0.1,0.7,0.3,1.1,0.7,1.4s0.8,0.4,1.2,0.4c0.5,0,1.1-0.2,1.4-0.7
			c0.4-0.4,0.5-1,0.5-1.7c0-0.7-0.2-1.2-0.5-1.6c-0.4-0.4-0.9-0.5-1.5-0.5c-0.4,0-0.8,0.1-1.1,0.2c-0.3,0.2-0.5,0.4-0.8,0.7
			l-1.1-0.1l1-5h4.8v1.1h-3.9l-0.5,2.6c0.5-0.4,1.2-0.7,1.9-0.7c0.9,0,1.5,0.3,2.2,0.9c0.5,0.5,0.9,1.3,0.9,2.3
			c0,0.9-0.2,1.6-0.8,2.3c-0.7,0.8-1.5,1.2-2.5,1.2c-0.9,0-1.6-0.2-2.2-0.8C730.3,19.2,730,18.6,729.9,17.8z"/>
		<path fill="#4D4D4F" d="M742,20.3h-1.2v-7.7c-0.3,0.3-0.7,0.5-1.1,0.9c-0.4,0.3-0.9,0.4-1.2,0.7V13c0.7-0.3,1.2-0.7,1.7-1.1
			s0.9-0.9,1.1-1.3h0.8L742,20.3L742,20.3z"/>
		<path fill="#4D4D4F" d="M746.2,23.2h-0.9c1.3-2.1,2-4.3,2-6.3c0-0.9-0.1-1.6-0.3-2.5c-0.1-0.7-0.3-1.3-0.7-2
			c-0.2-0.4-0.5-1.1-1.1-2h0.9c0.9,1.1,1.4,2.2,1.9,3.4c0.3,1,0.5,2,0.5,3.1c0,1.2-0.2,2.4-0.7,3.5
			C747.4,21.4,746.8,22.4,746.2,23.2z"/>
	</g>
	<line fill="none" stroke="#D6ECE6" stroke-width="2.7689" stroke-miterlimit="10" x1="0" y1="34" x2="762.9" y2="34"/>
</g>
</svg>
