<?xml version="1.0" encoding="utf-8"?>
<!-- Generator: Adobe Illustrator 18.0.0, SVG Export Plug-In . SVG Version: 6.00 Build 0)  -->
<!DOCTYPE svg PUBLIC "-//W3C//DTD SVG 1.1//EN" "http://www.w3.org/Graphics/SVG/1.1/DTD/svg11.dtd">
<svg version="1.1" id="Layer_1" xmlns="http://www.w3.org/2000/svg" xmlns:xlink="http://www.w3.org/1999/xlink" x="0px" y="0px"
	 viewBox="0 0 698.5 35.4" enable-background="new 0 0 698.5 35.4" xml:space="preserve">
<g>
	<g>
		<g enable-background="new    ">
			<path fill="#6BACA1" d="M10.6,16.2l2.8,0.9c-0.4,1.6-1.1,2.7-2.1,3.5S9,21.8,7.5,21.8c-1.9,0-3.5-0.6-4.7-1.9s-1.8-3.1-1.8-5.3
				c0-2.4,0.6-4.2,1.8-5.6s2.8-2,4.9-2c1.8,0,3.2,0.5,4.3,1.6c0.7,0.6,1.1,1.5,1.5,2.6l-2.9,0.7c-0.2-0.7-0.5-1.3-1.1-1.8
				c-0.5-0.4-1.2-0.6-2-0.6c-1.1,0-1.9,0.4-2.6,1.1c-0.7,0.8-1,2-1,3.7c0,1.8,0.3,3.1,1,3.9c0.7,0.8,1.5,1.2,2.5,1.2
				c0.8,0,1.4-0.2,2-0.7C10,18.1,10.4,17.3,10.6,16.2z"/>
			<path fill="#6BACA1" d="M15.2,16.2c0-0.9,0.2-1.8,0.7-2.6s1.1-1.5,1.9-2c0.8-0.4,1.7-0.7,2.8-0.7c1.6,0,2.9,0.5,3.9,1.5
				s1.5,2.3,1.5,3.9c0,1.6-0.5,2.9-1.5,3.9c-1,1-2.3,1.5-3.8,1.5c-1,0-1.9-0.2-2.7-0.6c-0.9-0.4-1.5-1.1-2-1.9
				C15.5,18.4,15.2,17.4,15.2,16.2z M18.1,16.3c0,1,0.2,1.8,0.7,2.4s1.1,0.8,1.8,0.8s1.3-0.3,1.8-0.8s0.7-1.3,0.7-2.4
				c0-1-0.2-1.8-0.7-2.3c-0.5-0.5-1.1-0.8-1.8-0.8s-1.3,0.3-1.8,0.8C18.3,14.5,18.1,15.3,18.1,16.3z"/>
			<path fill="#6BACA1" d="M27.9,11.1h2.5v1.4c0.9-1.1,2-1.6,3.2-1.6c0.7,0,1.2,0.1,1.7,0.4c0.5,0.3,0.9,0.7,1.2,1.2
				c0.5-0.6,0.9-1,1.5-1.2c0.5-0.3,1.1-0.4,1.7-0.4c0.8,0,1.4,0.2,1.9,0.5s0.9,0.8,1.2,1.4c0.2,0.4,0.3,1.2,0.3,2.1v6.6h-2.7v-5.9
				c0-1-0.1-1.7-0.3-2c-0.3-0.4-0.6-0.6-1.2-0.6c-0.4,0-0.7,0.1-1.1,0.4c-0.3,0.2-0.6,0.6-0.7,1c-0.1,0.5-0.2,1.2-0.2,2.1v5h-2.7
				v-5.7c0-1,0-1.7-0.1-2s-0.2-0.5-0.5-0.7c-0.2-0.1-0.5-0.2-0.8-0.2c-0.4,0-0.8,0.1-1.1,0.3c-0.3,0.2-0.6,0.6-0.7,1
				c-0.1,0.4-0.2,1.1-0.2,2.1v5h-2.7V11.1L27.9,11.1z"/>
			<path fill="#6BACA1" d="M45.7,11.1h2.5v1.4c0.9-1.1,2-1.6,3.2-1.6c0.7,0,1.2,0.1,1.7,0.4c0.5,0.3,0.9,0.7,1.2,1.2
				c0.5-0.6,0.9-1,1.5-1.2c0.5-0.3,1.1-0.4,1.7-0.4c0.8,0,1.4,0.2,1.9,0.5s0.9,0.8,1.2,1.4c0.2,0.4,0.3,1.2,0.3,2.1v6.6h-2.7v-5.9
				c0-1-0.1-1.7-0.3-2c-0.3-0.4-0.6-0.6-1.2-0.6c-0.4,0-0.7,0.1-1.1,0.4c-0.3,0.2-0.6,0.6-0.7,1c-0.1,0.5-0.2,1.2-0.2,2.1v5h-2.7
				v-5.7c0-1,0-1.7-0.1-2s-0.2-0.5-0.5-0.7c-0.2-0.1-0.5-0.2-0.8-0.2c-0.4,0-0.8,0.1-1.1,0.3c-0.3,0.2-0.6,0.6-0.7,1
				c-0.1,0.4-0.2,1.1-0.2,2.1v5h-2.7L45.7,11.1L45.7,11.1z"/>
			<path fill="#6BACA1" d="M63,16.2c0-0.9,0.2-1.8,0.7-2.6c0.4-0.9,1.1-1.5,1.9-2c0.8-0.4,1.7-0.7,2.8-0.7c1.6,0,2.9,0.5,3.9,1.5
				s1.5,2.3,1.5,3.9c0,1.6-0.5,2.9-1.5,3.9c-1,1-2.3,1.5-3.8,1.5c-1,0-1.9-0.2-2.7-0.6c-0.9-0.4-1.5-1.1-2-1.9
				C63.3,18.4,63,17.4,63,16.2z M65.8,16.3c0,1,0.2,1.8,0.7,2.4s1.1,0.8,1.8,0.8s1.3-0.3,1.8-0.8c0.5-0.5,0.7-1.3,0.7-2.4
				c0-1-0.2-1.8-0.7-2.3c-0.5-0.5-1.1-0.8-1.8-0.8s-1.3,0.3-1.8,0.8C66.1,14.5,65.8,15.3,65.8,16.3z"/>
			<path fill="#6BACA1" d="M85.3,21.5h-2.7v-5.3c0-1.1-0.1-1.8-0.2-2.2c-0.1-0.3-0.3-0.6-0.6-0.8c-0.3-0.2-0.6-0.3-1-0.3
				c-0.5,0-0.9,0.1-1.3,0.4c-0.4,0.3-0.6,0.6-0.8,1c-0.1,0.4-0.2,1.2-0.2,2.4v4.7h-2.7V11.1h2.5v1.5c0.9-1.2,2-1.8,3.4-1.8
				c0.6,0,1.2,0.1,1.7,0.3c0.5,0.2,0.9,0.5,1.1,0.8c0.3,0.3,0.4,0.7,0.5,1.2c0.1,0.4,0.2,1,0.2,1.8L85.3,21.5L85.3,21.5z"/>
			<path fill="#6BACA1" d="M95.7,14.3l-2.5-0.4c0.3-1,0.8-1.7,1.4-2.2c0.7-0.5,1.7-0.7,3-0.7c1.2,0,2.1,0.1,2.7,0.4
				c0.6,0.3,1,0.7,1.3,1.1c0.2,0.4,0.4,1.3,0.4,2.5l0,3.2c0,0.9,0,1.6,0.1,2s0.3,0.9,0.5,1.4H100c-0.1-0.2-0.2-0.5-0.3-0.8
				c0-0.2-0.1-0.3-0.1-0.3c-0.5,0.5-1,0.8-1.5,1s-1.1,0.3-1.7,0.3c-1.1,0-1.9-0.3-2.5-0.9c-0.6-0.6-0.9-1.3-0.9-2.2
				c0-0.6,0.1-1.1,0.4-1.6s0.7-0.8,1.2-1.1c0.5-0.2,1.2-0.5,2.2-0.6c1.3-0.2,2.2-0.5,2.7-0.7v-0.3c0-0.5-0.1-0.9-0.4-1.1
				c-0.3-0.2-0.8-0.3-1.5-0.3c-0.5,0-0.9,0.1-1.1,0.3C96.1,13.5,95.9,13.8,95.7,14.3z M99.4,16.5c-0.4,0.1-0.9,0.3-1.7,0.4
				s-1.3,0.3-1.5,0.5c-0.4,0.3-0.5,0.6-0.5,1c0,0.4,0.1,0.7,0.4,1c0.3,0.3,0.7,0.4,1.1,0.4c0.5,0,1-0.2,1.4-0.5
				c0.3-0.2,0.6-0.5,0.7-0.9c0.1-0.2,0.1-0.7,0.1-1.3V16.5L99.4,16.5z"/>
			<path fill="#6BACA1" d="M114.3,21.5h-2.5V20c-0.4,0.6-0.9,1-1.5,1.3c-0.6,0.3-1.2,0.4-1.7,0.4c-1.2,0-2.2-0.5-3.1-1.4
				c-0.8-1-1.3-2.3-1.3-4c0-1.8,0.4-3.1,1.2-4s1.9-1.4,3.1-1.4c1.2,0,2.2,0.5,3,1.4V7.2h2.7L114.3,21.5L114.3,21.5z M107,16.1
				c0,1.1,0.2,1.9,0.5,2.4c0.4,0.7,1.1,1.1,1.9,1.1c0.6,0,1.2-0.3,1.6-0.8s0.7-1.3,0.7-2.4c0-1.2-0.2-2.1-0.6-2.6s-1-0.8-1.7-0.8
				c-0.7,0-1.2,0.3-1.6,0.8S107,15.1,107,16.1z"/>
			<path fill="#6BACA1" d="M119.8,21.5l-4.2-10.4h2.9l2,5.3l0.6,1.8c0.2-0.4,0.2-0.7,0.3-0.9c0.1-0.3,0.2-0.6,0.3-0.9l2-5.3h2.8
				l-4.1,10.4C122.3,21.5,119.8,21.5,119.8,21.5z"/>
			<path fill="#6BACA1" d="M134.1,18.2l2.7,0.5c-0.4,1-0.9,1.8-1.7,2.3s-1.7,0.8-2.8,0.8c-1.8,0-3.1-0.6-4-1.8c-0.7-0.9-1-2.1-1-3.6
				c0-1.7,0.4-3.1,1.3-4c0.9-1,2-1.5,3.4-1.5c1.5,0,2.8,0.5,3.7,1.5c0.9,1,1.3,2.6,1.3,4.7h-6.9c0,0.8,0.2,1.4,0.7,1.9
				c0.4,0.5,1,0.7,1.6,0.7c0.4,0,0.8-0.1,1.1-0.4C133.7,19.1,134,18.7,134.1,18.2z M134.3,15.4c0-0.8-0.2-1.4-0.6-1.8
				c-0.4-0.4-0.9-0.6-1.4-0.6c-0.6,0-1.1,0.2-1.5,0.7s-0.6,1-0.6,1.8L134.3,15.4L134.3,15.4z"/>
			<path fill="#6BACA1" d="M141.9,21.5h-2.7V11.1h2.5v1.5c0.4-0.7,0.8-1.2,1.2-1.4s0.7-0.3,1.2-0.3c0.6,0,1.2,0.2,1.8,0.5l-0.9,2.4
				c-0.5-0.3-0.9-0.4-1.3-0.4c-0.4,0-0.7,0.1-1,0.3c-0.3,0.2-0.5,0.6-0.6,1.1c-0.2,0.6-0.2,1.7-0.2,3.5L141.9,21.5L141.9,21.5z"/>
			<path fill="#6BACA1" d="M146.1,18.6l2.8-0.4c0.1,0.5,0.4,0.9,0.7,1.2c0.4,0.3,0.9,0.4,1.5,0.4c0.7,0,1.2-0.1,1.6-0.4
				c0.2-0.2,0.4-0.4,0.4-0.7c0-0.2-0.1-0.4-0.2-0.5c-0.1-0.1-0.4-0.3-0.9-0.4c-2.2-0.5-3.6-0.9-4.2-1.3c-0.8-0.6-1.2-1.3-1.2-2.3
				c0-0.9,0.4-1.7,1.1-2.3c0.7-0.6,1.8-0.9,3.3-0.9c1.4,0,2.5,0.2,3.2,0.7c0.7,0.5,1.2,1.1,1.4,2.1l-2.6,0.5
				c-0.1-0.4-0.3-0.7-0.6-0.9c-0.3-0.2-0.8-0.3-1.3-0.3c-0.7,0-1.2,0.1-1.6,0.3c-0.2,0.1-0.3,0.3-0.3,0.6c0,0.2,0.1,0.4,0.3,0.5
				c0.2,0.2,1.1,0.4,2.6,0.8c1.5,0.3,2.5,0.7,3.1,1.2c0.6,0.5,0.9,1.2,0.9,2c0,1-0.4,1.8-1.2,2.5c-0.8,0.7-2,1-3.5,1
				c-1.4,0-2.5-0.3-3.4-0.9C146.9,20.3,146.3,19.5,146.1,18.6z"/>
			<path fill="#6BACA1" d="M164.2,18.2l2.7,0.5c-0.4,1-0.9,1.8-1.7,2.3s-1.7,0.8-2.8,0.8c-1.8,0-3.1-0.6-4-1.8c-0.7-0.9-1-2.1-1-3.6
				c0-1.7,0.4-3.1,1.3-4s2-1.5,3.4-1.5c1.5,0,2.8,0.5,3.7,1.5c0.9,1,1.3,2.6,1.3,4.7h-6.9c0,0.8,0.2,1.4,0.7,1.9
				c0.4,0.5,1,0.7,1.6,0.7c0.4,0,0.8-0.1,1.1-0.4C163.8,19.1,164,18.7,164.2,18.2z M164.3,15.4c0-0.8-0.2-1.4-0.6-1.8
				s-0.9-0.6-1.4-0.6c-0.6,0-1.1,0.2-1.5,0.7c-0.4,0.4-0.6,1-0.6,1.8L164.3,15.4L164.3,15.4z"/>
			<path fill="#6BACA1" d="M180.8,18.2l2.7,0.5c-0.4,1-0.9,1.8-1.7,2.3s-1.7,0.8-2.8,0.8c-1.8,0-3.1-0.6-4-1.8c-0.7-0.9-1-2.1-1-3.6
				c0-1.7,0.4-3.1,1.3-4s2-1.5,3.4-1.5c1.5,0,2.8,0.5,3.7,1.5c0.9,1,1.3,2.6,1.3,4.7h-6.9c0,0.8,0.2,1.4,0.7,1.9
				c0.4,0.5,1,0.7,1.6,0.7c0.4,0,0.8-0.1,1.1-0.4C180.5,19.1,180.7,18.7,180.8,18.2z M181,15.4c0-0.8-0.2-1.4-0.6-1.8
				c-0.4-0.4-0.9-0.6-1.4-0.6c-0.6,0-1.1,0.2-1.5,0.7s-0.6,1-0.6,1.8L181,15.4L181,15.4z"/>
			<path fill="#6BACA1" d="M188.8,21.5l-4.2-10.4h2.9l2,5.3l0.6,1.8c0.1-0.4,0.2-0.7,0.3-0.9c0.1-0.3,0.2-0.6,0.3-0.9l2-5.3h2.8
				l-4.1,10.4C191.3,21.5,188.8,21.5,188.8,21.5z"/>
			<path fill="#6BACA1" d="M203.1,18.2l2.7,0.5c-0.4,1-0.9,1.8-1.7,2.3s-1.7,0.8-2.8,0.8c-1.8,0-3.1-0.6-4-1.8c-0.7-0.9-1-2.1-1-3.6
				c0-1.7,0.4-3.1,1.3-4s2-1.5,3.4-1.5c1.5,0,2.8,0.5,3.7,1.5c0.9,1,1.3,2.6,1.3,4.7h-6.9c0,0.8,0.2,1.4,0.7,1.9
				c0.4,0.5,1,0.7,1.6,0.7c0.4,0,0.8-0.1,1.1-0.4C202.7,19.1,202.9,18.7,203.1,18.2z M203.2,15.4c0-0.8-0.2-1.4-0.6-1.8
				c-0.4-0.4-0.9-0.6-1.4-0.6c-0.6,0-1.1,0.2-1.5,0.7s-0.6,1-0.6,1.8L203.2,15.4L203.2,15.4z"/>
			<path fill="#6BACA1" d="M217.6,21.5h-2.7v-5.3c0-1.1-0.1-1.8-0.2-2.2c-0.1-0.3-0.3-0.6-0.6-0.8c-0.3-0.2-0.6-0.3-1-0.3
				c-0.5,0-0.9,0.1-1.3,0.4c-0.4,0.3-0.6,0.6-0.8,1c-0.1,0.4-0.2,1.2-0.2,2.4v4.7h-2.7V11.1h2.5v1.5c0.9-1.2,2-1.8,3.4-1.8
				c0.6,0,1.2,0.1,1.7,0.3c0.5,0.2,0.9,0.5,1.1,0.8c0.3,0.3,0.4,0.7,0.5,1.2c0.1,0.4,0.2,1,0.2,1.8L217.6,21.5L217.6,21.5z"/>
			<path fill="#6BACA1" d="M225.2,11.1v2.2h-1.9v4.2c0,0.8,0,1.3,0.1,1.5s0.1,0.3,0.2,0.3s0.3,0.1,0.5,0.1c0.3,0,0.6-0.1,1.1-0.3
				l0.2,2.1c-0.6,0.3-1.4,0.4-2.2,0.4c-0.5,0-0.9-0.1-1.3-0.2s-0.7-0.4-0.9-0.6c-0.2-0.3-0.3-0.6-0.4-1.1c-0.1-0.3-0.1-1-0.1-1.9
				v-4.5h-1.3v-2.2h1.3V9.1l2.8-1.6v3.7L225.2,11.1L225.2,11.1z"/>
			<path fill="#6BACA1" d="M226.1,18.6l2.8-0.4c0.1,0.5,0.4,0.9,0.7,1.2c0.4,0.3,0.9,0.4,1.5,0.4c0.7,0,1.2-0.1,1.6-0.4
				c0.2-0.2,0.4-0.4,0.4-0.7c0-0.2-0.1-0.4-0.2-0.5c-0.1-0.1-0.4-0.3-0.9-0.4c-2.2-0.5-3.6-0.9-4.2-1.3c-0.8-0.6-1.2-1.3-1.2-2.3
				c0-0.9,0.4-1.7,1.1-2.3c0.7-0.6,1.8-0.9,3.3-0.9c1.4,0,2.5,0.2,3.2,0.7c0.7,0.5,1.2,1.1,1.4,2.1l-2.6,0.5
				c-0.1-0.4-0.3-0.7-0.6-0.9c-0.3-0.2-0.8-0.3-1.3-0.3c-0.7,0-1.2,0.1-1.6,0.3c-0.2,0.1-0.3,0.3-0.3,0.6c0,0.2,0.1,0.4,0.3,0.5
				c0.2,0.2,1.1,0.4,2.6,0.8s2.5,0.7,3.1,1.2c0.6,0.5,0.9,1.2,0.9,2c0,1-0.4,1.8-1.2,2.5c-0.8,0.7-2,1-3.5,1c-1.4,0-2.5-0.3-3.4-0.9
				C226.9,20.3,226.4,19.5,226.1,18.6z"/>
		</g>
	</g>
	<rect x="315.6" fill="#ECF6F2" width="231.4" height="34"/>
	<rect x="547.1" opacity="0.8" fill="#DBDBDC" enable-background="new    " width="151.9" height="34"/>
	<g enable-background="new    ">
		<path fill="#4D4D4F" d="M331.1,17.1c0-0.9,0.1-1.7,0.4-2.3c0.2-0.5,0.5-0.9,0.8-1.2c0.4-0.4,0.7-0.6,1.2-0.8
			c0.6-0.2,1.2-0.4,1.9-0.4c1.3,0,2.4,0.4,3.2,1.2c0.8,0.8,1.2,1.9,1.2,3.4c0,1.4-0.4,2.6-1.2,3.4c-0.8,0.8-1.8,1.2-3.1,1.2
			c-1.3,0-2.4-0.4-3.2-1.2C331.5,19.6,331.1,18.5,331.1,17.1z M332.9,17c0,1,0.2,1.8,0.7,2.3c0.5,0.5,1.1,0.8,1.8,0.8
			c0.7,0,1.3-0.3,1.8-0.8c0.5-0.5,0.7-1.3,0.7-2.3c0-1-0.2-1.8-0.7-2.3c-0.4-0.5-1-0.8-1.8-0.8c-0.7,0-1.3,0.3-1.8,0.8
			C333.2,15.2,332.9,16,332.9,17z"/>
		<path fill="#4D4D4F" d="M341.1,15h1.6V16c0.2-0.3,0.5-0.6,0.8-0.8c0.4-0.2,0.7-0.3,1.2-0.3c0.8,0,1.4,0.3,1.9,0.9
			c0.5,0.6,0.8,1.4,0.8,2.5c0,1.1-0.3,1.9-0.8,2.5c-0.5,0.6-1.2,0.9-1.9,0.9c-0.4,0-0.7-0.1-1-0.2c-0.3-0.1-0.6-0.4-0.9-0.7V24h-1.7
			L341.1,15L341.1,15z M342.8,18.2c0,0.7,0.1,1.3,0.4,1.6c0.3,0.3,0.6,0.5,1.1,0.5c0.4,0,0.7-0.2,1-0.5c0.3-0.3,0.4-0.8,0.4-1.6
			c0-0.7-0.1-1.2-0.4-1.5c-0.3-0.3-0.6-0.5-1-0.5c-0.4,0-0.8,0.2-1,0.5C342.9,17.1,342.8,17.5,342.8,18.2z"/>
		<path fill="#4D4D4F" d="M351.7,15v1.4h-1.2V19c0,0.5,0,0.8,0,0.9c0,0.1,0.1,0.2,0.2,0.2c0.1,0.1,0.2,0.1,0.3,0.1
			c0.2,0,0.4-0.1,0.7-0.2l0.1,1.3c-0.4,0.2-0.9,0.3-1.4,0.3c-0.3,0-0.6-0.1-0.8-0.2c-0.2-0.1-0.4-0.2-0.5-0.4s-0.2-0.4-0.2-0.7
			c0-0.2-0.1-0.6-0.1-1.2v-2.8H348v-1.4h0.8v-1.3l1.7-1v2.3L351.7,15L351.7,15z"/>
		<path fill="#4D4D4F" d="M352.9,14.2v-1.6h1.7v1.6H352.9z M352.9,21.5V15h1.7v6.5H352.9z"/>
		<path fill="#4D4D4F" d="M355.7,19.7l1.7-0.3c0.1,0.3,0.2,0.6,0.4,0.8c0.2,0.2,0.5,0.3,0.9,0.3c0.4,0,0.8-0.1,1-0.2
			c0.1-0.1,0.2-0.3,0.2-0.5c0-0.1,0-0.2-0.1-0.3c-0.1-0.1-0.3-0.2-0.6-0.2c-1.4-0.3-2.3-0.6-2.6-0.8c-0.5-0.3-0.8-0.8-0.8-1.5
			c0-0.6,0.2-1,0.7-1.4c0.4-0.4,1.1-0.6,2.1-0.6c0.9,0,1.5,0.1,2,0.4c0.4,0.3,0.7,0.7,0.9,1.3l-1.6,0.3c-0.1-0.3-0.2-0.4-0.4-0.6
			c-0.2-0.1-0.5-0.2-0.8-0.2c-0.5,0-0.8,0.1-1,0.2c-0.1,0.1-0.2,0.2-0.2,0.3c0,0.1,0.1,0.2,0.2,0.3c0.2,0.1,0.7,0.3,1.6,0.5
			c0.9,0.2,1.5,0.5,1.9,0.8c0.4,0.3,0.5,0.7,0.5,1.3c0,0.6-0.2,1.1-0.7,1.5c-0.5,0.4-1.2,0.6-2.2,0.6c-0.9,0-1.6-0.2-2.1-0.5
			C356.2,20.8,355.9,20.3,355.7,19.7z"/>
		<path fill="#4D4D4F" d="M366.2,15v1.4h-1.2V19c0,0.5,0,0.8,0,0.9c0,0.1,0.1,0.2,0.2,0.2c0.1,0.1,0.2,0.1,0.3,0.1
			c0.2,0,0.4-0.1,0.7-0.2l0.1,1.3c-0.4,0.2-0.9,0.3-1.4,0.3c-0.3,0-0.6-0.1-0.8-0.2s-0.4-0.2-0.5-0.4c-0.1-0.2-0.2-0.4-0.2-0.7
			c0-0.2-0.1-0.6-0.1-1.2v-2.8h-0.8v-1.4h0.8v-1.3l1.7-1v2.3L366.2,15L366.2,15z"/>
		<path fill="#4D4D4F" d="M368.7,17l-1.6-0.3c0.2-0.6,0.5-1.1,0.9-1.4c0.4-0.3,1.1-0.4,1.9-0.4c0.8,0,1.3,0.1,1.7,0.3
			c0.4,0.2,0.6,0.4,0.8,0.7c0.2,0.3,0.2,0.8,0.2,1.5l0,2c0,0.6,0,1,0.1,1.3c0.1,0.3,0.2,0.6,0.3,0.9h-1.7c0-0.1-0.1-0.3-0.2-0.5
			c0-0.1,0-0.2-0.1-0.2c-0.3,0.3-0.6,0.5-0.9,0.6c-0.3,0.1-0.7,0.2-1.1,0.2c-0.7,0-1.2-0.2-1.6-0.5c-0.4-0.4-0.6-0.8-0.6-1.4
			c0-0.4,0.1-0.7,0.3-1c0.2-0.3,0.4-0.5,0.7-0.7c0.3-0.2,0.8-0.3,1.4-0.4c0.8-0.1,1.4-0.3,1.7-0.4v-0.2c0-0.3-0.1-0.6-0.2-0.7
			c-0.2-0.1-0.5-0.2-0.9-0.2c-0.3,0-0.5,0.1-0.7,0.2C368.9,16.5,368.8,16.7,368.7,17z M371,18.4c-0.2,0.1-0.6,0.2-1,0.3
			c-0.5,0.1-0.8,0.2-0.9,0.3c-0.2,0.2-0.3,0.4-0.3,0.6c0,0.2,0.1,0.4,0.3,0.6c0.2,0.2,0.4,0.3,0.7,0.3c0.3,0,0.6-0.1,0.9-0.3
			c0.2-0.2,0.3-0.3,0.4-0.6c0-0.1,0.1-0.4,0.1-0.8L371,18.4L371,18.4z"/>
		<path fill="#4D4D4F" d="M376.1,21.5l-2.6-6.5h1.8l1.2,3.3l0.4,1.1c0.1-0.3,0.1-0.5,0.2-0.6c0.1-0.2,0.1-0.4,0.2-0.5l1.2-3.3h1.8
			l-2.6,6.5H376.1z"/>
		<path fill="#4D4D4F" d="M381.3,14.2v-1.6h1.7v1.6H381.3z M381.3,21.5V15h1.7v6.5H381.3z"/>
		<path fill="#4D4D4F" d="M390.6,21.5h-1.7v-3.3c0-0.7,0-1.1-0.1-1.4c-0.1-0.2-0.2-0.4-0.4-0.5c-0.2-0.1-0.4-0.2-0.6-0.2
			c-0.3,0-0.6,0.1-0.8,0.2s-0.4,0.4-0.5,0.6c-0.1,0.3-0.1,0.8-0.1,1.5v2.9h-1.7V15h1.6V16c0.6-0.7,1.3-1.1,2.1-1.1
			c0.4,0,0.7,0.1,1,0.2c0.3,0.1,0.5,0.3,0.7,0.5s0.3,0.5,0.3,0.7c0.1,0.3,0.1,0.6,0.1,1.1L390.6,21.5L390.6,21.5z"/>
		<path fill="#4D4D4F" d="M397.8,20.2v-2.3h-2.3v-1.6h2.3V14h1.6v2.3h2.3v1.6h-2.3v2.3L397.8,20.2L397.8,20.2z"/>
		<path fill="#4D4D4F" d="M412.2,17l-1.7,0.3c-0.1-0.3-0.2-0.6-0.4-0.8c-0.2-0.2-0.5-0.3-0.8-0.3c-0.4,0-0.8,0.1-1,0.4
			c-0.3,0.3-0.4,0.8-0.4,1.5c0,0.8,0.1,1.3,0.4,1.6c0.3,0.3,0.6,0.5,1,0.5c0.3,0,0.6-0.1,0.8-0.3s0.4-0.5,0.4-1l1.7,0.3
			c-0.2,0.8-0.5,1.4-1,1.7c-0.5,0.4-1.2,0.6-2,0.6c-0.9,0-1.7-0.3-2.3-0.9c-0.6-0.6-0.8-1.4-0.8-2.5c0-1.1,0.3-1.9,0.8-2.5
			c0.6-0.6,1.3-0.9,2.3-0.9c0.8,0,1.4,0.2,1.9,0.5C411.6,15.7,412,16.3,412.2,17z"/>
		<path fill="#4D4D4F" d="M415.2,12.6v3.3c0.6-0.6,1.2-1,2-1c0.4,0,0.7,0.1,1.1,0.2c0.3,0.1,0.6,0.3,0.7,0.6s0.3,0.5,0.3,0.8
			c0.1,0.3,0.1,0.7,0.1,1.3v3.8h-1.7v-3.4c0-0.7,0-1.1-0.1-1.3c-0.1-0.2-0.2-0.3-0.3-0.4c-0.2-0.1-0.4-0.2-0.6-0.2
			c-0.3,0-0.5,0.1-0.8,0.2c-0.2,0.1-0.4,0.3-0.5,0.6c-0.1,0.3-0.2,0.7-0.2,1.2v3.2h-1.7v-8.9L415.2,12.6L415.2,12.6z"/>
		<path fill="#4D4D4F" d="M424.8,19.5l1.7,0.3c-0.2,0.6-0.6,1.1-1,1.4c-0.5,0.3-1.1,0.5-1.8,0.5c-1.1,0-2-0.4-2.5-1.1
			c-0.4-0.6-0.6-1.3-0.6-2.2c0-1.1,0.3-1.9,0.8-2.5c0.6-0.6,1.3-0.9,2.1-0.9c1,0,1.7,0.3,2.3,1c0.6,0.6,0.8,1.6,0.8,2.9h-4.3
			c0,0.5,0.1,0.9,0.4,1.2c0.3,0.3,0.6,0.4,1,0.4c0.3,0,0.5-0.1,0.7-0.2C424.6,20,424.7,19.8,424.8,19.5z M424.9,17.7
			c0-0.5-0.1-0.9-0.4-1.1c-0.2-0.3-0.5-0.4-0.9-0.4c-0.4,0-0.7,0.1-0.9,0.4s-0.4,0.6-0.4,1.1L424.9,17.7L424.9,17.7z"/>
		<path fill="#4D4D4F" d="M427.9,15h1.6v0.9c0.6-0.7,1.2-1,2-1c0.4,0,0.8,0.1,1.1,0.3c0.3,0.2,0.6,0.4,0.7,0.8
			c0.3-0.3,0.6-0.6,0.9-0.8c0.3-0.2,0.7-0.3,1.1-0.3c0.5,0,0.9,0.1,1.2,0.3c0.3,0.2,0.6,0.5,0.7,0.8c0.1,0.3,0.2,0.7,0.2,1.3v4.1
			h-1.7v-3.7c0-0.6-0.1-1.1-0.2-1.2c-0.2-0.2-0.4-0.4-0.7-0.4c-0.2,0-0.5,0.1-0.7,0.2c-0.2,0.1-0.4,0.4-0.5,0.6
			c-0.1,0.3-0.1,0.7-0.1,1.3v3.1h-1.7V18c0-0.6,0-1-0.1-1.2c-0.1-0.2-0.2-0.3-0.3-0.4c-0.1-0.1-0.3-0.1-0.5-0.1
			c-0.3,0-0.5,0.1-0.7,0.2c-0.2,0.1-0.4,0.3-0.5,0.6c-0.1,0.3-0.1,0.7-0.1,1.3v3.1h-1.7L427.9,15L427.9,15z"/>
		<path fill="#4D4D4F" d="M438.7,18.2c0-0.6,0.1-1.1,0.4-1.6c0.3-0.5,0.7-0.9,1.2-1.2c0.5-0.3,1.1-0.4,1.7-0.4c1,0,1.8,0.3,2.4,1
			c0.6,0.6,0.9,1.4,0.9,2.4c0,1-0.3,1.8-0.9,2.4s-1.4,1-2.4,1c-0.6,0-1.2-0.1-1.7-0.4c-0.5-0.3-0.9-0.7-1.2-1.2
			C438.8,19.6,438.7,18.9,438.7,18.2z M440.5,18.3c0,0.6,0.1,1.1,0.5,1.5c0.3,0.3,0.7,0.5,1.1,0.5c0.4,0,0.8-0.2,1.1-0.5
			c0.3-0.3,0.5-0.8,0.5-1.5c0-0.6-0.1-1.1-0.5-1.5c-0.3-0.3-0.7-0.5-1.1-0.5c-0.4,0-0.8,0.2-1.1,0.5
			C440.6,17.1,440.5,17.6,440.5,18.3z"/>
		<path fill="#4D4D4F" d="M449.7,15v1.4h-1.2V19c0,0.5,0,0.8,0,0.9c0,0.1,0.1,0.2,0.1,0.2c0.1,0.1,0.2,0.1,0.3,0.1
			c0.2,0,0.4-0.1,0.7-0.2l0.1,1.3c-0.4,0.2-0.8,0.3-1.4,0.3c-0.3,0-0.6-0.1-0.8-0.2c-0.2-0.1-0.4-0.2-0.5-0.4
			c-0.1-0.2-0.2-0.4-0.2-0.7c0-0.2-0.1-0.6-0.1-1.2v-2.8H446v-1.4h0.8v-1.3l1.7-1v2.3L449.7,15L449.7,15z"/>
		<path fill="#4D4D4F" d="M452.6,12.6v3.3c0.6-0.6,1.2-1,2-1c0.4,0,0.7,0.1,1.1,0.2c0.3,0.1,0.6,0.3,0.7,0.6
			c0.2,0.2,0.3,0.5,0.3,0.8c0.1,0.3,0.1,0.7,0.1,1.3v3.8H455v-3.4c0-0.7,0-1.1-0.1-1.3c-0.1-0.2-0.2-0.3-0.3-0.4s-0.4-0.2-0.6-0.2
			c-0.3,0-0.5,0.1-0.8,0.2c-0.2,0.1-0.4,0.3-0.5,0.6c-0.1,0.3-0.2,0.7-0.2,1.2v3.2h-1.7v-8.9L452.6,12.6L452.6,12.6z"/>
		<path fill="#4D4D4F" d="M462.2,19.5l1.7,0.3c-0.2,0.6-0.6,1.1-1,1.4c-0.5,0.3-1.1,0.5-1.8,0.5c-1.1,0-2-0.4-2.5-1.1
			c-0.4-0.6-0.6-1.3-0.6-2.2c0-1.1,0.3-1.9,0.8-2.5c0.6-0.6,1.3-0.9,2.1-0.9c1,0,1.7,0.3,2.3,1c0.6,0.6,0.8,1.6,0.8,2.9h-4.3
			c0,0.5,0.1,0.9,0.4,1.2c0.3,0.3,0.6,0.4,1,0.4c0.3,0,0.5-0.1,0.7-0.2C462,20,462.1,19.8,462.2,19.5z M462.3,17.7
			c0-0.5-0.1-0.9-0.4-1.1c-0.2-0.3-0.5-0.4-0.9-0.4c-0.4,0-0.7,0.1-0.9,0.4c-0.2,0.3-0.4,0.6-0.4,1.1L462.3,17.7L462.3,17.7z"/>
		<path fill="#4D4D4F" d="M467,21.5h-1.7V15h1.6V16c0.3-0.4,0.5-0.7,0.7-0.9c0.2-0.1,0.5-0.2,0.7-0.2c0.4,0,0.8,0.1,1.1,0.3
			l-0.5,1.5c-0.3-0.2-0.6-0.3-0.8-0.3c-0.2,0-0.4,0.1-0.6,0.2c-0.2,0.1-0.3,0.4-0.4,0.7c-0.1,0.3-0.1,1.1-0.1,2.2L467,21.5L467,21.5
			z"/>
		<path fill="#4D4D4F" d="M471.5,17l-1.6-0.3c0.2-0.6,0.5-1.1,0.9-1.4c0.4-0.3,1.1-0.4,1.9-0.4c0.8,0,1.3,0.1,1.7,0.3
			c0.4,0.2,0.6,0.4,0.8,0.7c0.1,0.3,0.2,0.8,0.2,1.5l0,2c0,0.6,0,1,0.1,1.3c0.1,0.3,0.2,0.6,0.3,0.9h-1.7c0-0.1-0.1-0.3-0.2-0.5
			c0-0.1,0-0.2-0.1-0.2c-0.3,0.3-0.6,0.5-0.9,0.6c-0.3,0.1-0.7,0.2-1.1,0.2c-0.7,0-1.2-0.2-1.6-0.5s-0.6-0.8-0.6-1.4
			c0-0.4,0.1-0.7,0.3-1c0.2-0.3,0.4-0.5,0.7-0.7c0.3-0.2,0.8-0.3,1.4-0.4c0.8-0.1,1.4-0.3,1.7-0.4v-0.2c0-0.3-0.1-0.6-0.2-0.7
			c-0.2-0.1-0.5-0.2-0.9-0.2c-0.3,0-0.5,0.1-0.7,0.2C471.8,16.5,471.6,16.7,471.5,17z M473.8,18.4c-0.2,0.1-0.6,0.2-1,0.3
			c-0.5,0.1-0.8,0.2-0.9,0.3c-0.2,0.2-0.3,0.4-0.3,0.6c0,0.2,0.1,0.4,0.3,0.6c0.2,0.2,0.4,0.3,0.7,0.3c0.3,0,0.6-0.1,0.9-0.3
			c0.2-0.2,0.3-0.3,0.4-0.6c0-0.1,0.1-0.4,0.1-0.8L473.8,18.4L473.8,18.4z"/>
		<path fill="#4D4D4F" d="M477.1,15h1.6V16c0.2-0.3,0.5-0.6,0.8-0.8c0.4-0.2,0.7-0.3,1.2-0.3c0.8,0,1.4,0.3,1.9,0.9
			c0.5,0.6,0.8,1.4,0.8,2.5c0,1.1-0.3,1.9-0.8,2.5c-0.5,0.6-1.2,0.9-1.9,0.9c-0.4,0-0.7-0.1-1-0.2c-0.3-0.1-0.6-0.4-0.9-0.7V24h-1.7
			L477.1,15L477.1,15z M478.8,18.2c0,0.7,0.1,1.3,0.4,1.6c0.3,0.3,0.6,0.5,1.1,0.5c0.4,0,0.7-0.2,1-0.5s0.4-0.8,0.4-1.6
			c0-0.7-0.1-1.2-0.4-1.5c-0.3-0.3-0.6-0.5-1-0.5c-0.4,0-0.8,0.2-1,0.5C479,17.1,478.8,17.5,478.8,18.2z"/>
		<path fill="#4D4D4F" d="M484,15h1.8l1.5,4.6l1.5-4.6h1.8l-2.3,6.2l-0.4,1.1c-0.1,0.4-0.3,0.7-0.4,0.9c-0.1,0.2-0.3,0.4-0.5,0.5
			c-0.2,0.1-0.4,0.2-0.6,0.3c-0.3,0.1-0.5,0.1-0.9,0.1c-0.3,0-0.7,0-1-0.1l-0.2-1.3c0.3,0.1,0.5,0.1,0.7,0.1c0.4,0,0.7-0.1,0.9-0.4
			c0.2-0.2,0.3-0.5,0.4-0.9L484,15z"/>
	</g>
	<g enable-background="new    ">
		<path fill="#4D4D4F" d="M499.7,24.1c-0.6-0.8-1.1-1.7-1.5-2.7c-0.4-1-0.6-2.1-0.6-3.2c0-1,0.2-1.9,0.5-2.8c0.4-1,0.9-2,1.7-3.1
			h0.8c-0.5,0.8-0.8,1.4-1,1.8c-0.2,0.6-0.4,1.1-0.6,1.8c-0.2,0.8-0.3,1.5-0.3,2.3c0,2,0.6,3.9,1.8,5.8L499.7,24.1L499.7,24.1z"/>
		<path fill="#4D4D4F" d="M501.8,21.5V15h1V16c0.5-0.7,1.2-1.1,2.1-1.1c0.4,0,0.7,0.1,1.1,0.2c0.3,0.1,0.6,0.3,0.7,0.6
			s0.3,0.5,0.3,0.8c0,0.2,0.1,0.6,0.1,1.1v4h-1.1v-3.9c0-0.4,0-0.8-0.1-1c-0.1-0.2-0.2-0.4-0.5-0.5c-0.2-0.1-0.5-0.2-0.8-0.2
			c-0.5,0-0.9,0.1-1.2,0.4c-0.3,0.3-0.5,0.9-0.5,1.7v3.5L501.8,21.5L501.8,21.5z"/>
		<path fill="#4D4D4F" d="M514.5,16.3h-5.9v-1h5.9V16.3z M514.5,19h-5.9v-1h5.9V19z"/>
		<path fill="#4D4D4F" d="M519.2,21.5v-2.1h-3.9v-1l4.1-5.8h0.9v5.8h1.2v1h-1.2v2.1H519.2z M519.2,18.4v-4l-2.8,4L519.2,18.4
			L519.2,18.4z"/>
		<path fill="#4D4D4F" d="M526.1,21.5v-2.1h-3.9v-1l4.1-5.8h0.9v5.8h1.2v1h-1.2v2.1H526.1z M526.1,18.4v-4l-2.8,4L526.1,18.4
			L526.1,18.4z"/>
		<path fill="#4D4D4F" d="M529.6,13.8v-1.1h5.8v0.9c-0.6,0.6-1.1,1.4-1.7,2.4c-0.6,1-1,2-1.3,3.1c-0.2,0.7-0.4,1.6-0.4,2.5h-1.1
			c0-0.7,0.1-1.5,0.4-2.5c0.3-1,0.6-2,1.1-2.9c0.5-0.9,1-1.7,1.6-2.3L529.6,13.8L529.6,13.8z"/>
		<path fill="#4D4D4F" d="M537.5,24.1h-0.8c1.2-1.9,1.8-3.9,1.8-5.8c0-0.8-0.1-1.5-0.3-2.3c-0.1-0.6-0.3-1.2-0.6-1.8
			c-0.2-0.4-0.5-1-1-1.8h0.8c0.8,1,1.3,2,1.7,3.1c0.3,0.9,0.5,1.8,0.5,2.8c0,1.1-0.2,2.2-0.6,3.2C538.6,22.5,538.1,23.4,537.5,24.1z
			"/>
	</g>
	<g enable-background="new    ">
		<path fill="#4D4D4F" d="M567.4,18.2l1.7,0.6c-0.3,1-0.7,1.7-1.3,2.2c-0.6,0.5-1.4,0.7-2.4,0.7c-1.2,0-2.2-0.4-2.9-1.2
			c-0.8-0.8-1.1-1.9-1.1-3.3c0-1.5,0.4-2.6,1.1-3.5c0.8-0.8,1.8-1.2,3-1.2c1.1,0,2,0.3,2.7,1c0.4,0.4,0.7,0.9,0.9,1.6l-1.8,0.4
			c-0.1-0.5-0.3-0.8-0.7-1.1c-0.3-0.3-0.7-0.4-1.2-0.4c-0.7,0-1.2,0.2-1.6,0.7c-0.4,0.5-0.6,1.2-0.6,2.3c0,1.1,0.2,1.9,0.6,2.4
			c0.4,0.5,0.9,0.7,1.6,0.7c0.5,0,0.9-0.2,1.2-0.5C567,19.4,567.3,18.9,567.4,18.2z"/>
		<path fill="#4D4D4F" d="M572.4,12.6v3.3c0.6-0.6,1.2-1,2-1c0.4,0,0.7,0.1,1.1,0.2c0.3,0.1,0.6,0.3,0.7,0.6s0.3,0.5,0.3,0.8
			c0.1,0.3,0.1,0.7,0.1,1.3v3.8h-1.7v-3.4c0-0.7,0-1.1-0.1-1.3c-0.1-0.2-0.2-0.3-0.3-0.4c-0.2-0.1-0.4-0.2-0.6-0.2
			c-0.3,0-0.5,0.1-0.8,0.2c-0.2,0.1-0.4,0.3-0.5,0.6c-0.1,0.3-0.2,0.7-0.2,1.2v3.2h-1.7v-8.9L572.4,12.6L572.4,12.6z"/>
		<path fill="#4D4D4F" d="M582,19.5l1.7,0.3c-0.2,0.6-0.6,1.1-1,1.4c-0.5,0.3-1.1,0.5-1.8,0.5c-1.1,0-2-0.4-2.5-1.1
			c-0.4-0.6-0.6-1.3-0.6-2.2c0-1.1,0.3-1.9,0.8-2.5c0.6-0.6,1.3-0.9,2.1-0.9c1,0,1.7,0.3,2.3,1c0.6,0.6,0.8,1.6,0.8,2.9h-4.3
			c0,0.5,0.1,0.9,0.4,1.2c0.3,0.3,0.6,0.4,1,0.4c0.3,0,0.5-0.1,0.7-0.2C581.8,20,581.9,19.8,582,19.5z M582.1,17.7
			c0-0.5-0.1-0.9-0.4-1.1c-0.2-0.3-0.5-0.4-0.9-0.4c-0.4,0-0.7,0.1-0.9,0.4c-0.2,0.3-0.4,0.6-0.4,1.1L582.1,17.7L582.1,17.7z"/>
		<path fill="#4D4D4F" d="M585.1,15h1.6v0.9c0.6-0.7,1.2-1,2-1c0.4,0,0.8,0.1,1.1,0.3c0.3,0.2,0.6,0.4,0.7,0.8
			c0.3-0.3,0.6-0.6,0.9-0.8c0.3-0.2,0.7-0.3,1.1-0.3c0.5,0,0.9,0.1,1.2,0.3s0.6,0.5,0.7,0.8c0.1,0.3,0.2,0.7,0.2,1.3v4.1h-1.7v-3.7
			c0-0.6-0.1-1.1-0.2-1.2c-0.2-0.2-0.4-0.4-0.7-0.4c-0.2,0-0.5,0.1-0.7,0.2c-0.2,0.1-0.4,0.4-0.5,0.6c-0.1,0.3-0.1,0.7-0.1,1.3v3.1
			H589V18c0-0.6,0-1-0.1-1.2c-0.1-0.2-0.2-0.3-0.3-0.4s-0.3-0.1-0.5-0.1c-0.3,0-0.5,0.1-0.7,0.2c-0.2,0.1-0.4,0.3-0.5,0.6
			s-0.1,0.7-0.1,1.3v3.1h-1.7L585.1,15L585.1,15z"/>
		<path fill="#4D4D4F" d="M595.9,18.2c0-0.6,0.1-1.1,0.4-1.6s0.7-0.9,1.2-1.2c0.5-0.3,1.1-0.4,1.7-0.4c1,0,1.8,0.3,2.4,1
			c0.6,0.6,0.9,1.4,0.9,2.4c0,1-0.3,1.8-0.9,2.4c-0.6,0.6-1.4,1-2.4,1c-0.6,0-1.2-0.1-1.7-0.4c-0.5-0.3-0.9-0.7-1.2-1.2
			C596,19.6,595.9,18.9,595.9,18.2z M597.7,18.3c0,0.6,0.1,1.1,0.5,1.5c0.3,0.3,0.7,0.5,1.1,0.5c0.4,0,0.8-0.2,1.1-0.5
			c0.3-0.3,0.5-0.8,0.5-1.5c0-0.6-0.1-1.1-0.5-1.5c-0.3-0.3-0.7-0.5-1.1-0.5c-0.4,0-0.8,0.2-1.1,0.5
			C597.8,17.1,597.7,17.6,597.7,18.3z"/>
		<path fill="#4D4D4F" d="M608.7,17l-1.6-0.3c0.2-0.6,0.5-1.1,0.9-1.4c0.4-0.3,1.1-0.4,1.9-0.4c0.8,0,1.3,0.1,1.7,0.3
			s0.6,0.4,0.8,0.7c0.2,0.3,0.2,0.8,0.2,1.5l0,2c0,0.6,0,1,0.1,1.3c0.1,0.3,0.2,0.6,0.3,0.9h-1.7c0-0.1-0.1-0.3-0.2-0.5
			c0-0.1,0-0.2-0.1-0.2c-0.3,0.3-0.6,0.5-0.9,0.6c-0.3,0.1-0.7,0.2-1.1,0.2c-0.7,0-1.2-0.2-1.6-0.5c-0.4-0.4-0.6-0.8-0.6-1.4
			c0-0.4,0.1-0.7,0.3-1c0.2-0.3,0.4-0.5,0.7-0.7c0.3-0.2,0.8-0.3,1.4-0.4c0.8-0.1,1.4-0.3,1.7-0.4v-0.2c0-0.3-0.1-0.6-0.2-0.7
			c-0.2-0.1-0.5-0.2-0.9-0.2c-0.3,0-0.5,0.1-0.7,0.2C608.9,16.5,608.8,16.7,608.7,17z M610.9,18.4c-0.2,0.1-0.6,0.2-1,0.3
			c-0.5,0.1-0.8,0.2-0.9,0.3c-0.2,0.2-0.3,0.4-0.3,0.6c0,0.2,0.1,0.4,0.3,0.6c0.2,0.2,0.4,0.3,0.7,0.3c0.3,0,0.6-0.1,0.9-0.3
			c0.2-0.2,0.3-0.3,0.4-0.6c0-0.1,0.1-0.4,0.1-0.8L610.9,18.4L610.9,18.4z"/>
		<path fill="#4D4D4F" d="M614.3,21.5v-8.9h1.7v8.9H614.3z"/>
		<path fill="#4D4D4F" d="M617.4,18.2c0-0.6,0.1-1.1,0.4-1.6c0.3-0.5,0.7-0.9,1.2-1.2c0.5-0.3,1.1-0.4,1.7-0.4c1,0,1.8,0.3,2.4,1
			c0.6,0.6,0.9,1.4,0.9,2.4c0,1-0.3,1.8-0.9,2.4s-1.4,1-2.4,1c-0.6,0-1.2-0.1-1.7-0.4c-0.5-0.3-0.9-0.7-1.2-1.2
			C617.5,19.6,617.4,18.9,617.4,18.2z M619.1,18.3c0,0.6,0.1,1.1,0.5,1.5c0.3,0.3,0.7,0.5,1.1,0.5c0.4,0,0.8-0.2,1.1-0.5
			c0.3-0.3,0.5-0.8,0.5-1.5c0-0.6-0.1-1.1-0.5-1.5c-0.3-0.3-0.7-0.5-1.1-0.5c-0.4,0-0.8,0.2-1.1,0.5
			C619.3,17.1,619.1,17.6,619.1,18.3z"/>
		<path fill="#4D4D4F" d="M631.3,21.5h-1.7v-3.3c0-0.7,0-1.1-0.1-1.4c-0.1-0.2-0.2-0.4-0.4-0.5c-0.2-0.1-0.4-0.2-0.6-0.2
			c-0.3,0-0.6,0.1-0.8,0.2c-0.2,0.2-0.4,0.4-0.5,0.6c-0.1,0.3-0.1,0.8-0.1,1.5v2.9h-1.7V15h1.6V16c0.6-0.7,1.3-1.1,2.1-1.1
			c0.4,0,0.7,0.1,1,0.2c0.3,0.1,0.6,0.3,0.7,0.5c0.2,0.2,0.3,0.5,0.3,0.7c0.1,0.3,0.1,0.6,0.1,1.1L631.3,21.5L631.3,21.5z"/>
		<path fill="#4D4D4F" d="M636.7,19.5l1.7,0.3c-0.2,0.6-0.6,1.1-1,1.4c-0.5,0.3-1.1,0.5-1.8,0.5c-1.1,0-2-0.4-2.5-1.1
			c-0.4-0.6-0.6-1.3-0.6-2.2c0-1.1,0.3-1.9,0.8-2.5c0.6-0.6,1.3-0.9,2.1-0.9c1,0,1.7,0.3,2.3,1c0.6,0.6,0.8,1.6,0.8,2.9h-4.3
			c0,0.5,0.2,0.9,0.4,1.2c0.3,0.3,0.6,0.4,1,0.4c0.3,0,0.5-0.1,0.7-0.2C636.5,20,636.6,19.8,636.7,19.5z M636.8,17.7
			c0-0.5-0.1-0.9-0.4-1.1c-0.2-0.3-0.5-0.4-0.9-0.4c-0.4,0-0.7,0.1-0.9,0.4s-0.4,0.6-0.4,1.1L636.8,17.7L636.8,17.7z"/>
	</g>
	<g enable-background="new    ">
		<path fill="#4D4D4F" d="M644.9,24.1c-0.6-0.8-1.1-1.7-1.5-2.7s-0.6-2.1-0.6-3.2c0-1,0.2-1.9,0.5-2.8c0.4-1,0.9-2,1.7-3.1h0.8
			c-0.5,0.8-0.8,1.4-1,1.8c-0.2,0.6-0.4,1.1-0.6,1.8c-0.2,0.8-0.3,1.5-0.3,2.3c0,2,0.6,3.9,1.8,5.8L644.9,24.1L644.9,24.1z"/>
		<path fill="#4D4D4F" d="M647,21.5V15h1V16c0.5-0.7,1.2-1.1,2.1-1.1c0.4,0,0.7,0.1,1.1,0.2c0.3,0.1,0.6,0.3,0.7,0.6
			c0.2,0.2,0.3,0.5,0.3,0.8c0,0.2,0.1,0.6,0.1,1.1v4h-1.1v-3.9c0-0.4,0-0.8-0.1-1c-0.1-0.2-0.2-0.4-0.5-0.5
			c-0.2-0.1-0.5-0.2-0.8-0.2c-0.5,0-0.9,0.1-1.2,0.4c-0.3,0.3-0.5,0.9-0.5,1.7v3.5L647,21.5L647,21.5z"/>
		<path fill="#4D4D4F" d="M659.7,16.3h-5.9v-1h5.9V16.3z M659.7,19h-5.9v-1h5.9V19z"/>
		<path fill="#4D4D4F" d="M664.4,21.5v-2.1h-3.9v-1l4.1-5.8h0.9v5.8h1.2v1h-1.2v2.1H664.4z M664.4,18.4v-4l-2.8,4L664.4,18.4
			L664.4,18.4z"/>
		<path fill="#4D4D4F" d="M667.8,19.2l1.1-0.1c0.1,0.6,0.3,1,0.6,1.3c0.3,0.3,0.7,0.4,1.1,0.4c0.5,0,1-0.2,1.3-0.6
			c0.4-0.4,0.5-0.9,0.5-1.6c0-0.6-0.2-1.1-0.5-1.5c-0.4-0.4-0.8-0.5-1.4-0.5c-0.4,0-0.7,0.1-1,0.2c-0.3,0.2-0.5,0.4-0.7,0.6l-1-0.1
			l0.9-4.6h4.4v1h-3.6l-0.5,2.4c0.5-0.4,1.1-0.6,1.7-0.6c0.8,0,1.4,0.3,2,0.8c0.5,0.5,0.8,1.2,0.8,2.1c0,0.8-0.2,1.5-0.7,2.1
			c-0.6,0.7-1.4,1.1-2.3,1.1c-0.8,0-1.5-0.2-2-0.7C668.2,20.5,667.9,19.9,667.8,19.2z"/>
		<path fill="#4D4D4F" d="M678.9,21.5h-1.1v-7c-0.3,0.3-0.6,0.5-1,0.8c-0.4,0.3-0.8,0.4-1.1,0.6v-1.1c0.6-0.3,1.1-0.6,1.6-1
			c0.5-0.4,0.8-0.8,1-1.2h0.7L678.9,21.5L678.9,21.5z"/>
		<path fill="#4D4D4F" d="M682.7,24.1h-0.8c1.2-1.9,1.8-3.9,1.8-5.8c0-0.8-0.1-1.5-0.3-2.3c-0.1-0.6-0.3-1.2-0.6-1.8
			c-0.2-0.4-0.5-1-1-1.8h0.8c0.8,1,1.3,2,1.7,3.1c0.3,0.9,0.5,1.8,0.5,2.8c0,1.1-0.2,2.2-0.6,3.2S683.3,23.4,682.7,24.1z"/>
	</g>
	<line fill="none" stroke="#D6ECE6" stroke-width="2.7689" stroke-miterlimit="10" x1="0" y1="34" x2="698" y2="34"/>
</g>
</svg>
