<?xml version="1.0" encoding="utf-8"?>
<!-- Generator: Adobe Illustrator 17.0.1, SVG Export Plug-In . SVG Version: 6.00 Build 0)  -->
<!DOCTYPE svg PUBLIC "-//W3C//DTD SVG 1.1//EN" "http://www.w3.org/Graphics/SVG/1.1/DTD/svg11.dtd">
<svg version="1.1" id="Layer_1" xmlns="http://www.w3.org/2000/svg" xmlns:xlink="http://www.w3.org/1999/xlink" x="0px" y="0px"
	 width="31.666px" height="31.666px" viewBox="0 0 31.666 31.666" enable-background="new 0 0 31.666 31.666" xml:space="preserve">
<g>
	<circle fill="#F04E45" cx="15.833" cy="15.833" r="15.833"/>
	<g>
		<path fill="#FFFFFF" d="M6.526,16.936c0-0.513,0.195-1.023,0.586-1.414c0.781-0.781,2.05-0.781,2.828,0l5.895,5.893l5.893-5.893
			c0.781-0.781,2.049-0.781,2.828,0c0.781,0.78,0.781,2.047,0,2.828l-7.307,7.307c-0.779,0.781-2.046,0.781-2.828,0l-7.31-7.307
			C6.722,17.959,6.526,17.446,6.526,16.936z"/>
	</g>
</g>
<circle fill="#FFFFFF" cx="15.833" cy="15.653" r="1.287"/>
<circle fill="#FFFFFF" cx="15.833" cy="11.579" r="1.287"/>
<circle fill="#FFFFFF" cx="15.833" cy="7.505" r="1.287"/>
</svg>
