<?xml version="1.0" encoding="utf-8"?>
<!-- Generator: Adobe Illustrator 17.0.1, SVG Export Plug-In . SVG Version: 6.00 Build 0)  -->
<!DOCTYPE svg PUBLIC "-//W3C//DTD SVG 1.1//EN" "http://www.w3.org/Graphics/SVG/1.1/DTD/svg11.dtd">
<svg version="1.1" id="Layer_1" xmlns="http://www.w3.org/2000/svg" xmlns:xlink="http://www.w3.org/1999/xlink" x="0px" y="0px"
	 width="31.666px" height="31.666px" viewBox="0 0 31.666 31.666" enable-background="new 0 0 31.666 31.666" xml:space="preserve">
<g>
	<circle fill="#F04E45" cx="15.833" cy="15.833" r="15.833"/>
	<g>
		<path fill="#FFFFFF" d="M25.14,14.73c0,0.513-0.195,1.023-0.586,1.414c-0.781,0.781-2.05,0.781-2.828,0l-5.895-5.893l-5.893,5.893
			c-0.781,0.781-2.049,0.781-2.828,0c-0.781-0.78-0.781-2.047,0-2.828l7.307-7.307c0.779-0.781,2.046-0.781,2.828,0l7.31,7.307
			C24.944,13.707,25.14,14.22,25.14,14.73z"/>
	</g>
</g>
<circle fill="#FFFFFF" cx="15.833" cy="16.013" r="1.287"/>
<circle fill="#FFFFFF" cx="15.833" cy="20.087" r="1.287"/>
<circle fill="#FFFFFF" cx="15.833" cy="24.161" r="1.287"/>
</svg>
