<svg version="1.1" id="Layer_1" xmlns="http://www.w3.org/2000/svg" xmlns:xlink="http://www.w3.org/1999/xlink" x="0px" y="0px"
	 width="411px" height="120px" viewBox="0 0 411 120" style="enable-background:new 0 0 411 120;" xml:space="preserve"><style type="text/css">
	.st0{fill:#60A296;}
</style><g><path class="st0" d="M1.125,14.32c0-7.719,5.599-13.638,13.598-13.638c7.958,0,13.396,5.959,13.396,13.638
		c0,7.719-5.599,13.638-13.599,13.638C6.563,27.957,1.125,21.998,1.125,14.32z M23.44,14.32c0-5.479-3.72-9.438-8.798-9.438
		c-5.119,0-8.839,3.919-8.839,9.438c0,5.479,3.72,9.438,8.839,9.438C19.721,23.758,23.44,19.839,23.44,14.32z"/><path class="st0" d="M31.003,31.717h2.6V13.64h-2.6V9.961h6.799v2c1.359-1.28,2.84-2.319,5.199-2.319
		c4.56,0,7.999,3.719,7.999,8.999c0,5.079-3.641,9.158-8.278,9.158c-1.881,0-3.439-0.68-4.76-1.68v5.599h2.84v3.6h-9.799V31.717z
		 M46.521,18.679c0-3.36-2-5.279-4.479-5.279c-1.642,0-2.92,0.72-4.08,1.76v7.519c1.12,0.8,2.479,1.36,4.08,1.36
		C44.362,24.038,46.521,22.158,46.521,18.679z"/><path class="st0" d="M56.724,25.398c-0.4-0.72-0.601-1.64-0.601-2.76v-8.999h-3.399V9.96h3.399V6.281l4.318-1.88V9.96h5.319v3.679
		h-5.319v8.159c0,0.56,0.08,0.92,0.279,1.28c0.32,0.56,0.961,0.84,1.84,0.84c1.12,0,2.4-0.44,3.439-0.92l-0.359,3.76
		c-1.199,0.6-2.6,1.04-4.199,1.04C59.323,27.797,57.604,27.077,56.724,25.398z"/><path class="st0" d="M68.404,23.878h2.681V13.64h-2.681V9.961h7.039v13.917h2.6v3.6h-9.639V23.878z M69.923,4.401
		c0-1.6,1.398-2.879,2.959-2.879s2.88,1.28,2.88,2.879s-1.399,2.879-2.96,2.879C71.242,7.281,69.923,6.001,69.923,4.401z"/><path class="st0" d="M93.121,16.199c-1.399,0-2.359-0.84-2.359-2.159c0-0.28,0-0.52,0.079-0.76c-0.719-0.28-1.6-0.44-2.479-0.44
		c-1.96,0-2.92,0.88-2.92,1.8c0,1,1,1.52,3.681,2.24c4.198,1.12,6.639,2.16,6.639,5.319c0,3.68-3.439,5.639-7.398,5.639
		c-2.68,0-5.56-0.96-6.719-2.12c-0.721-0.72-1-1.439-1-2.359c0-1.28,0.959-2.36,2.319-2.36c1.2,0,2.358,0.8,2.358,2.32
		c0,0.24-0.04,0.48-0.08,0.72c0.801,0.32,1.92,0.56,3.159,0.56c1.761,0,3.2-0.6,3.2-1.88c0-0.88-0.761-1.4-3.439-2.12
		c-4.839-1.28-6.879-2.439-6.879-5.439c0-2.72,2.239-5.559,7.159-5.559c2.119,0,4.679,0.8,5.879,2c0.641,0.64,0.959,1.4,0.959,2.24
		C95.281,15.24,94.402,16.199,93.121,16.199z"/><path class="st0" d="M101.722,25.398c-0.398-0.72-0.6-1.64-0.6-2.76v-8.999h-3.399V9.96h3.399V6.281l4.318-1.88V9.96h5.319v3.679
		h-5.319v8.159c0,0.56,0.08,0.92,0.28,1.28c0.32,0.56,0.959,0.84,1.84,0.84c1.119,0,2.398-0.44,3.439-0.92l-0.36,3.76
		c-1.2,0.6-2.6,1.04-4.199,1.04C104.323,27.797,102.604,27.077,101.722,25.398z"/><path class="st0" d="M113.523,22.878c0-3.28,2.879-5.279,7.039-5.279c1.799,0,3.479,0.24,4.439,0.48v-1.4
		c0-1.04-0.24-1.839-0.682-2.399c-0.72-0.92-1.88-1.28-3.438-1.28c-0.76,0-1.319,0.12-1.72,0.28c0.08,0.24,0.159,0.64,0.159,0.88
		c0,1.32-1.038,2.28-2.358,2.28s-2.32-0.92-2.32-2.36c0-2.16,2.2-4.439,6.959-4.439c3,0,5.039,0.84,6.279,2.359
		c0.92,1.12,1.358,2.64,1.358,4.399v7.479h2.601v3.6h-6.758v-1.92c-1.4,1.2-3.521,2.24-5.881,2.24
		C116.203,27.797,113.523,26.158,113.523,22.878z M125.001,23.078v-2.759c-1-0.24-2.24-0.4-3.601-0.4
		c-2.12,0-3.399,0.959-3.399,2.56c0,1.399,1.041,2.16,2.6,2.16C122.161,24.638,123.682,24.038,125.001,23.078z"/><path class="st0" d="M134.003,13.64h-2.04V9.961h8.959v3.479h-2.521l4.199,9.119l4.199-9.119h-2.64V9.961h8.919v3.679h-2.04
		l-6.959,14.158h-3.12L134.003,13.64z"/><path class="st0" d="M154.563,23.878h2.681V13.64h-2.681V9.961h7.039v13.917h2.601v3.6h-9.64V23.878z M156.081,4.401
		c0-1.6,1.399-2.879,2.961-2.879c1.559,0,2.879,1.28,2.879,2.879s-1.4,2.879-2.959,2.879C157.402,7.281,156.081,6.001,156.081,4.401
		z"/><path class="st0" d="M173.521,12.76c1.681-1.64,3.561-3.119,6.119-3.119c2.08,0,3.6,0.84,4.521,2.24
		c0.6,0.959,0.92,2.16,0.92,3.599v8.398h2.6v3.6h-9.359v-3.6h2.4V16.56c0-0.72-0.12-1.36-0.36-1.8
		c-0.398-0.76-1.119-1.16-2.158-1.16c-1.521,0-3.119,0.879-4.521,2.04v8.238h2.399v3.6h-9.358v-3.6h2.601V13.64h-2.601V9.961h6.799
		L173.521,12.76L173.521,12.76z"/><path class="st0" d="M198.402,23.878h2.681V13.64h-2.681V9.961h7.039v13.917h2.6v3.6h-9.639V23.878z M199.922,4.401
		c0-1.6,1.398-2.879,2.959-2.879s2.88,1.28,2.88,2.879s-1.399,2.879-2.96,2.879C201.24,7.281,199.922,6.001,199.922,4.401z"/><path class="st0" d="M223.12,16.199c-1.399,0-2.359-0.84-2.359-2.159c0-0.28,0-0.52,0.079-0.76c-0.719-0.28-1.6-0.44-2.479-0.44
		c-1.96,0-2.92,0.88-2.92,1.8c0,1,1,1.52,3.681,2.24c4.198,1.12,6.639,2.16,6.639,5.319c0,3.68-3.439,5.639-7.398,5.639
		c-2.68,0-5.56-0.96-6.719-2.12c-0.721-0.72-1-1.439-1-2.359c0-1.28,0.959-2.36,2.319-2.36c1.2,0,2.358,0.8,2.358,2.32
		c0,0.24-0.04,0.48-0.08,0.72c0.801,0.32,1.92,0.56,3.159,0.56c1.761,0,3.2-0.6,3.2-1.88c0-0.88-0.761-1.4-3.439-2.12
		c-4.839-1.28-6.879-2.439-6.879-5.439c0-2.72,2.239-5.559,7.159-5.559c2.119,0,4.679,0.8,5.879,2c0.641,0.64,0.959,1.4,0.959,2.24
		C225.279,15.24,224.401,16.199,223.12,16.199z"/><path class="st0" d="M237.56,22.878c0-3.28,2.881-5.279,7.039-5.279c1.801,0,3.48,0.24,4.439,0.48v-1.4
		c0-1.04-0.24-1.839-0.681-2.399c-0.719-0.92-1.879-1.28-3.438-1.28c-0.76,0-1.32,0.12-1.719,0.28c0.08,0.24,0.159,0.64,0.159,0.88
		c0,1.32-1.041,2.28-2.36,2.28c-1.318,0-2.318-0.92-2.318-2.36c0-2.16,2.199-4.439,6.959-4.439c2.998,0,5.039,0.84,6.279,2.359
		c0.918,1.12,1.358,2.64,1.358,4.399v7.479h2.601v3.6h-6.76v-1.92c-1.4,1.2-3.521,2.24-5.88,2.24
		C240.24,27.797,237.56,26.158,237.56,22.878z M249.039,23.078v-2.759c-1-0.24-2.238-0.4-3.601-0.4c-2.119,0-3.397,0.959-3.397,2.56
		c0,1.399,1.039,2.16,2.6,2.16C246.198,24.638,247.719,24.038,249.039,23.078z"/><path class="st0" d="M266.362,31.717h2.601V13.64h-2.601V9.961h6.8v2c1.358-1.28,2.838-2.319,5.198-2.319
		c4.56,0,7.998,3.719,7.998,8.999c0,5.079-3.639,9.158-8.278,9.158c-1.88,0-3.439-0.68-4.759-1.68v5.599h2.839v3.6h-9.798V31.717z
		 M281.878,18.679c0-3.36-2-5.279-4.48-5.279c-1.639,0-2.92,0.72-4.078,1.76v7.519c1.119,0.8,2.479,1.36,4.078,1.36
		C279.719,24.038,281.878,22.158,281.878,18.679z"/><path class="st0" d="M304.557,12.52c0,1.48-1.158,2.72-2.6,2.72c-1.318,0-2.199-0.76-2.56-1.56c-1.239,0.44-2.68,1.8-3.479,3.32
		v6.878h3.041v3.6h-9.998v-3.6h2.6V13.64h-2.6V9.961h6.799v3.959c1.479-2.36,3.318-4.279,5.559-4.279
		C303.479,9.64,304.557,10.96,304.557,12.52z"/><path class="st0" d="M305.878,18.719c0-4.799,3.6-9.079,9.317-9.079c5.802,0,9.32,4.199,9.32,9.079c0,4.799-3.6,9.078-9.32,9.078
		C309.398,27.797,305.878,23.598,305.878,18.719z M320.036,18.719c0-3.2-2-5.439-4.841-5.439c-2.838,0-4.838,2.24-4.838,5.439
		s2,5.439,4.838,5.439C318.036,24.158,320.036,21.918,320.036,18.719z"/><path class="st0" d="M327.56,13.64h-2.039V9.961h8.957v3.479h-2.52l4.198,9.119l4.199-9.119h-2.639V9.961h8.918v3.679h-2.039
		l-6.959,14.158h-3.119L327.56,13.64z"/><path class="st0" d="M352.198,20.199c0.6,2.72,2.84,3.919,5.76,3.919c2.119,0,4.317-0.68,6.358-1.84l-0.36,3.919
		c-1.84,1.08-4.078,1.6-6.64,1.6c-5.719,0-9.678-3.599-9.678-9.039c0-4.959,3.479-9.118,8.879-9.118
		c5.599,0,8.519,3.759,8.519,8.398c0,0.68-0.08,1.56-0.199,2.16L352.198,20.199L352.198,20.199z M352.159,17.159h8.518
		c-0.08-2.399-1.639-3.999-4.199-3.999C354.558,13.16,352.641,14.28,352.159,17.159z"/><path class="st0" d="M374.32,12.76c1.681-1.64,3.56-3.119,6.117-3.119c2.08,0,3.601,0.84,4.521,2.24
		c0.6,0.959,0.92,2.16,0.92,3.599v8.398h2.6v3.6h-9.356v-3.6h2.397V16.56c0-0.72-0.119-1.36-0.358-1.8
		c-0.4-0.76-1.119-1.16-2.16-1.16c-1.521,0-3.119,0.879-4.521,2.04v8.238h2.4v3.6h-9.357v-3.6h2.601V13.64h-2.601V9.961h6.8v2.799
		C374.323,12.76,374.32,12.76,374.32,12.76z"/><path class="st0" d="M0.644,60.719c0-4.799,3.601-9.079,9.318-9.079c5.799,0,9.317,4.199,9.317,9.079
		c0,4.799-3.6,9.078-9.317,9.078C4.164,69.797,0.644,65.598,0.644,60.719z M14.802,60.719c0-3.2-2-5.439-4.84-5.439
		s-4.84,2.24-4.84,5.439c0,3.199,2,5.439,4.84,5.439S14.802,63.918,14.802,60.719z"/><path class="st0" d="M21.685,73.717h2.6V55.64h-2.6v-3.679h6.799v2c1.359-1.28,2.839-2.319,5.198-2.319c4.562,0,8,3.719,8,8.999
		c0,5.079-3.641,9.158-8.279,9.158c-1.879,0-3.438-0.68-4.76-1.68v5.599h2.84v3.6h-9.798L21.685,73.717L21.685,73.717z
		 M37.201,60.679c0-3.36-1.999-5.279-4.479-5.279c-1.64,0-2.92,0.72-4.08,1.76v7.519c1.121,0.8,2.48,1.36,4.08,1.36
		C35.042,66.038,37.201,64.158,37.201,60.679z"/><path class="st0" d="M47.404,67.398c-0.399-0.72-0.601-1.64-0.601-2.76v-8.999h-3.399V51.96h3.399v-3.679l4.319-1.88v5.559h5.318
		v3.679h-5.318v8.159c0,0.56,0.08,0.92,0.278,1.28c0.32,0.56,0.961,0.84,1.841,0.84c1.119,0,2.399-0.44,3.438-0.92l-0.359,3.76
		c-1.198,0.6-2.6,1.04-4.198,1.04C50.003,69.797,48.282,69.077,47.404,67.398z"/><path class="st0" d="M59.083,65.878h2.68V55.64h-2.68v-3.679h7.039v13.917h2.6v3.6h-9.639V65.878z M60.604,46.401
		c0-1.6,1.4-2.879,2.959-2.879c1.562,0,2.881,1.28,2.881,2.879s-1.399,2.879-2.96,2.879C61.923,49.28,60.604,48.001,60.604,46.401z"
		/><path class="st0" d="M71.363,60.719c0-4.799,3.601-9.079,9.318-9.079c5.799,0,9.318,4.199,9.318,9.079
		c0,4.799-3.601,9.078-9.318,9.078C74.883,69.797,71.363,65.598,71.363,60.719z M85.521,60.719c0-3.2-2-5.439-4.84-5.439
		s-4.84,2.24-4.84,5.439c0,3.199,2,5.439,4.84,5.439S85.521,63.918,85.521,60.719z"/><path class="st0" d="M99.402,54.76c1.681-1.64,3.561-3.119,6.119-3.119c2.08,0,3.601,0.84,4.521,2.24
		c0.6,0.959,0.92,2.16,0.92,3.599v8.398h2.6v3.6h-9.358v-3.6h2.399V58.56c0-0.72-0.12-1.36-0.359-1.8
		c-0.399-0.76-1.12-1.16-2.159-1.16c-1.521,0-3.119,0.879-4.521,2.04v8.238h2.399v3.6h-9.358v-3.6h2.601V55.64h-2.601v-3.679h6.799
		L99.402,54.76L99.402,54.76z"/><path class="st0" d="M133.24,43.681c-0.359,0.16-0.72,0.4-0.92,0.72c-0.521,0.76-0.8,1.839-0.8,3.52v4.039h4.56v3.679h-4.56v10.238
		h3.399v3.6h-10.358v-3.6h2.641V55.639h-2.999V51.96h2.999v-3.399c0-3.199,0.56-5.199,2.238-6.839c1.24-1.2,2.841-1.84,4.801-1.84
		c2.278,0,3.88,1.2,3.88,2.959c0,1.56-1.121,2.48-2.36,2.48C134.401,45.322,133.721,44.601,133.24,43.681z"/><path class="st0" d="M137.643,60.719c0-4.799,3.601-9.079,9.318-9.079c5.799,0,9.317,4.199,9.317,9.079
		c0,4.799-3.6,9.078-9.317,9.078C141.161,69.797,137.643,65.598,137.643,60.719z M151.8,60.719c0-3.2-2-5.439-4.84-5.439
		s-4.84,2.24-4.84,5.439c0,3.199,2,5.439,4.84,5.439S151.8,63.918,151.8,60.719z"/><path class="st0" d="M174.48,54.52c0,1.48-1.16,2.72-2.6,2.72c-1.32,0-2.199-0.76-2.561-1.56c-1.238,0.44-2.68,1.8-3.479,3.32
		v6.878h3.039v3.6h-9.998v-3.6h2.6V55.64h-2.6v-3.679h6.799v3.959c1.48-2.36,3.319-4.279,5.56-4.279
		C173.401,51.64,174.48,52.96,174.48,54.52z"/><path class="st0" d="M188.602,77.436c-2.32,0-3.76-1.359-3.76-2.759c0-1.48,1-2.24,2.16-2.24c1.039,0,1.64,0.64,1.92,1.32
		c0.438-0.12,0.92-0.4,1.398-1.04c0.28-0.36,0.521-0.8,0.801-1.359l1.319-2.76L186.2,55.64h-2.158v-3.679h9.037v3.479h-2.56
		l4.039,9.238l4.079-9.238h-2.72v-3.479h8.999v3.679h-2.12l-8.198,17.397c-0.398,0.8-0.84,1.52-1.36,2.12
		C191.961,76.636,190.362,77.436,188.602,77.436z"/><path class="st0" d="M205.922,60.719c0-4.799,3.6-9.079,9.318-9.079c5.799,0,9.317,4.199,9.317,9.079
		c0,4.799-3.599,9.078-9.317,9.078C209.441,69.797,205.922,65.598,205.922,60.719z M220.079,60.719c0-3.2-2-5.439-4.841-5.439
		c-2.839,0-4.839,2.24-4.839,5.439c0,3.199,2,5.439,4.839,5.439C218.079,66.158,220.079,63.918,220.079,60.719z"/><path class="st0" d="M229.761,67.478c-0.56-0.92-0.88-2.12-0.88-3.52v-8.319h-2.599V51.96h6.957v10.918c0,0.76,0.12,1.32,0.36,1.8
		c0.399,0.76,1.119,1.16,2.159,1.16c1.521,0,3.12-0.88,4.519-2.04v-8.159h-2.719V51.96h7.078v13.917h2.6v3.6h-6.799v-2.799
		c-1.68,1.64-3.559,3.119-6.118,3.119C232.201,69.797,230.641,68.917,229.761,67.478z"/><path class="st0" d="M265.118,54.52c0,1.48-1.158,2.72-2.601,2.72c-1.317,0-2.199-0.76-2.559-1.56c-1.24,0.44-2.681,1.8-3.48,3.32
		v6.878h3.041v3.6h-9.998v-3.6h2.601V55.64h-2.601v-3.679h6.8v3.959c1.479-2.36,3.317-4.279,5.559-4.279
		C264.04,51.64,265.118,52.96,265.118,54.52z"/><path class="st0" d="M275.722,65.878h2.6V55.64h-2.6v-3.679h6.799v2.76c1.359-1.48,3.279-3.08,5.879-3.08
		c1.879,0,3.279,0.72,4.158,1.879c0.24,0.32,0.4,0.64,0.562,1c1.639-1.6,3.6-2.879,5.838-2.879c2.438,0,4.119,0.88,5,2.52
		c0.479,0.88,0.721,2,0.721,3.279v8.438h2.6v3.6h-9.319v-3.6h2.36V58.48c0-0.68-0.079-1.2-0.28-1.64
		c-0.359-0.84-1.08-1.24-2.08-1.24c-1.439,0-2.959,0.84-4.277,1.959v8.318h2.359v3.6h-9.119v-3.6h2.4v-7.398
		c0-0.68-0.08-1.2-0.281-1.64c-0.359-0.84-1.039-1.24-2.08-1.24c-1.439,0-2.959,0.84-4.279,1.959v8.318h2.32v3.6h-9.277v-3.598
		L275.722,65.878L275.722,65.878z"/><path class="st0" d="M309.761,56.32c0-7.919,6.158-13.638,13.838-13.638c6.117,0,10.197,3.199,10.197,6.359
		c0,1.919-1.24,3.239-2.879,3.239c-1.801,0-3.039-1.12-3.039-2.839c0-0.521,0.119-1.04,0.279-1.36c-0.761-0.6-2.279-1.2-4.681-1.2
		c-5.119,0-9.039,3.919-9.039,9.398c0,5.279,3.681,9.479,9.24,9.479c3.078,0,5.598-1.36,7.559-3.479l2.998,3.12
		c-2.559,2.839-6.356,4.559-10.557,4.559C315.56,69.957,309.761,64.518,309.761,56.32z"/><path class="st0" d="M337.48,65.438h3V47.201h-3v-4.039h10.199c6.039,0,10.357,2.6,10.357,7.958c0,3.399-2.078,5.999-4.959,7.159
		l4.039,7.159h3v4.04h-6.078l-5.279-9.999c-0.561,0.04-1.08,0.08-1.6,0.08c-0.841,0-1.601,0-2.16-0.04v5.919h3.278v4.04h-10.799
		L337.48,65.438L337.48,65.438z M353.359,51.281c0-2.76-2.28-4.08-5.92-4.08h-2.438v8.438c0.479,0.04,1.119,0.08,2.559,0.08
		C350.958,55.72,353.359,54.04,353.359,51.281z"/><path class="st0" d="M362.281,65.438h3V47.201h-3v-4.039h10.599c5.639,0,9.959,3.239,9.959,8.599c0,6.039-4.279,8.998-10.479,8.998
		c-1.239,0-2,0-2.561-0.04v4.719h3.281v4.04h-10.799V65.438L362.281,65.438z M378.157,51.761c0-2.76-2.279-4.56-5.521-4.56h-2.84
		v9.519c0.479,0.04,1.121,0.08,2.961,0.08C376.157,56.8,378.157,54.88,378.157,51.761z"/><path class="st0" d="M385.88,56.32c0-7.919,6.16-13.638,13.838-13.638c6.119,0,10.199,3.199,10.199,6.359
		c0,1.919-1.24,3.239-2.881,3.239c-1.799,0-3.039-1.12-3.039-2.839c0-0.521,0.119-1.04,0.278-1.36c-0.76-0.6-2.278-1.2-4.678-1.2
		c-5.119,0-9.039,3.919-9.039,9.398c0,5.279,3.681,9.479,9.238,9.479c3.08,0,5.6-1.36,7.559-3.479l3,3.12
		c-2.561,2.839-6.358,4.559-10.559,4.559C391.68,69.957,385.88,64.518,385.88,56.32z"/><path class="st0" d="M0.685,106.878c0-3.28,2.88-5.279,7.038-5.279c1.801,0,3.48,0.24,4.439,0.48v-1.4
		c0-1.04-0.24-1.839-0.681-2.399C10.761,97.36,9.602,97,8.043,97c-0.76,0-1.319,0.12-1.719,0.28c0.078,0.24,0.158,0.64,0.158,0.88
		c0,1.32-1.04,2.28-2.358,2.28c-1.319,0-2.319-0.92-2.319-2.36c0-2.16,2.199-4.439,6.959-4.439c2.999,0,5.039,0.84,6.278,2.359
		c0.92,1.12,1.359,2.64,1.359,4.399v7.479h2.601v3.6h-6.76v-1.92c-1.399,1.2-3.521,2.24-5.88,2.24
		C3.363,111.797,0.685,110.158,0.685,106.878z M12.161,107.078v-2.759c-1-0.24-2.239-0.4-3.601-0.4c-2.119,0-3.397,0.959-3.397,2.56
		c0,1.399,1.039,2.16,2.6,2.16C9.323,108.638,10.842,108.038,12.161,107.078z"/><path class="st0" d="M27.682,96.76c1.68-1.64,3.561-3.119,6.119-3.119c2.079,0,3.599,0.84,4.519,2.24
		c0.602,0.959,0.92,2.16,0.92,3.599v8.398h2.601v3.6h-9.357v-3.6h2.398v-7.318c0-0.72-0.119-1.36-0.359-1.8
		c-0.399-0.76-1.119-1.16-2.16-1.16c-1.52,0-3.118,0.879-4.519,2.04v8.238h2.399v3.6h-9.358v-3.6h2.6V97.64h-2.6v-3.679h6.799
		L27.682,96.76L27.682,96.76z"/><path class="st0" d="M43.565,102.799c0-5.079,3.681-9.158,8.398-9.158c2.24,0,3.879,0.84,4.879,1.68v-9.438h-2.639v-3.679h6.998
		v25.675h2.6v3.6h-6.959v-1.92c-1.279,1.24-2.919,2.24-5.158,2.24C47.044,111.797,43.565,108.078,43.565,102.799z M56.841,106.278
		v-7.519c-1.16-0.8-2.521-1.36-4.159-1.36c-2.438,0-4.64,1.88-4.64,5.359c0,3.36,2.08,5.279,4.64,5.279
		C54.323,108.038,55.643,107.318,56.841,106.278z"/><path class="st0" d="M82.323,93.321v14.117h3.279v4.04H74.924v-4.04h3V89.201h-3v-4.039h6.838l12.959,16.517V89.201h-3.279v-4.039
		h10.559v4.039h-2.88v22.316l-2.439,0.08L82.323,93.321z"/><path class="st0" d="M104.763,105.838c0-1.879,1.119-3.119,2.76-3.119c1.761,0,2.879,1.319,2.879,2.599
		c0,0.64-0.119,1.12-0.358,1.6c0.959,0.68,2.438,1.12,4.158,1.12c2.88,0,4.72-1.28,4.72-3.56c0-2.16-2.2-3.199-4.839-4.119
		c-4.879-1.76-8.318-3.319-8.318-8.199c0-4.199,3.398-7.479,8.718-7.479c4.919,0,8.72,2.52,8.72,5.679
		c0,1.879-1.159,2.959-2.681,2.959c-1.839,0-2.88-1.36-2.88-2.68c0-0.64,0.121-0.92,0.28-1.24c-0.72-0.44-1.839-0.8-3.479-0.8
		c-2.6,0-4.118,1.32-4.118,3.239c0,2.16,2.198,3.12,4.84,4.079c4.719,1.68,8.276,3.32,8.276,8.199c0,5-3.879,7.839-9.276,7.839
		C108.962,111.957,104.763,109.038,104.763,105.838z"/><path class="st0" d="M127.203,98.32c0-7.919,6.157-13.638,13.838-13.638c6.119,0,10.197,3.199,10.197,6.359
		c0,1.919-1.239,3.239-2.88,3.239c-1.8,0-3.039-1.12-3.039-2.839c0-0.52,0.119-1.04,0.279-1.36c-0.76-0.6-2.279-1.2-4.679-1.2
		c-5.119,0-9.038,3.919-9.038,9.398c0,5.279,3.679,9.479,9.238,9.479c3.078,0,5.599-1.36,7.559-3.479l2.999,3.12
		c-2.56,2.839-6.358,4.559-10.558,4.559C133.001,111.957,127.203,106.518,127.203,98.32z"/><path class="st0" d="M154.922,107.438h2.999V89.201h-2.999v-4.039h10.998v4.039h-3.479v18.277h7.238v-3.719h4.359v7.719h-19.116
		L154.922,107.438L154.922,107.438z"/><path class="st0" d="M175.602,98.32c0-7.919,6.159-13.638,13.837-13.638c6.119,0,10.199,3.199,10.199,6.359
		c0,1.919-1.24,3.239-2.88,3.239c-1.8,0-3.04-1.12-3.04-2.839c0-0.52,0.121-1.04,0.281-1.36c-0.762-0.6-2.28-1.2-4.681-1.2
		c-5.118,0-9.039,3.919-9.039,9.398c0,5.279,3.681,9.479,9.238,9.479c3.08,0,5.601-1.36,7.56-3.479l3,3.12
		c-2.561,2.839-6.359,4.559-10.56,4.559C181.401,111.957,175.602,106.518,175.602,98.32z"/><path class="st0" d="M211.682,115.717h2.6V97.64h-2.6v-3.679h6.799v2c1.359-1.28,2.84-2.319,5.199-2.319
		c4.561,0,7.999,3.719,7.999,8.999c0,5.079-3.64,9.158-8.278,9.158c-1.881,0-3.438-0.68-4.76-1.68v5.599h2.84v3.6h-9.799V115.717z
		 M227.198,102.679c0-3.36-2-5.279-4.479-5.279c-1.641,0-2.92,0.72-4.08,1.76v7.519c1.12,0.8,2.479,1.36,4.08,1.36
		C225.039,108.038,227.198,106.158,227.198,102.679z"/><path class="st0" d="M234.161,106.878c0-3.28,2.879-5.279,7.039-5.279c1.799,0,3.479,0.24,4.438,0.48v-1.4
		c0-1.04-0.24-1.839-0.68-2.399c-0.722-0.92-1.881-1.28-3.439-1.28c-0.76,0-1.319,0.12-1.721,0.28c0.08,0.24,0.16,0.64,0.16,0.88
		c0,1.32-1.039,2.28-2.359,2.28s-2.32-0.92-2.32-2.36c0-2.16,2.199-4.439,6.959-4.439c3,0,5.039,0.84,6.279,2.359
		c0.92,1.12,1.359,2.64,1.359,4.399v7.479h2.6v3.6h-6.758v-1.92c-1.4,1.2-3.521,2.24-5.879,2.24
		C236.841,111.797,234.161,110.158,234.161,106.878z M245.641,107.078v-2.759c-1-0.24-2.24-0.4-3.6-0.4c-2.119,0-3.4,0.959-3.4,2.56
		c0,1.399,1.041,2.16,2.6,2.16C242.8,108.638,244.32,108.038,245.641,107.078z"/><path class="st0" d="M257.48,109.398c-0.399-0.72-0.6-1.64-0.6-2.76v-8.999h-3.398V93.96h3.398v-3.679l4.32-1.88v5.559h5.317v3.679
		h-5.317v8.159c0,0.56,0.077,0.92,0.278,1.28c0.32,0.56,0.959,0.84,1.84,0.84c1.119,0,2.398-0.44,3.439-0.92l-0.361,3.76
		c-1.198,0.6-2.6,1.04-4.198,1.04C260.079,111.797,258.362,111.077,257.48,109.398z"/><path class="st0" d="M269.161,107.878h2.678V97.64h-2.678v-3.679h7.037v13.917h2.6v3.6h-9.637L269.161,107.878L269.161,107.878z
		 M270.682,88.401c0-1.6,1.398-2.879,2.959-2.879c1.56,0,2.879,1.28,2.879,2.879s-1.397,2.879-2.959,2.879
		C272,91.28,270.682,90.001,270.682,88.401z"/><path class="st0" d="M286,104.199c0.6,2.72,2.84,3.919,5.76,3.919c2.119,0,4.318-0.68,6.359-1.84l-0.361,3.919
		c-1.84,1.08-4.078,1.6-6.639,1.6c-5.72,0-9.679-3.599-9.679-9.039c0-4.959,3.479-9.118,8.88-9.118c5.598,0,8.518,3.759,8.518,8.398
		c0,0.68-0.08,1.56-0.199,2.16L286,104.199L286,104.199z M285.961,101.159h8.518c-0.08-2.399-1.639-3.999-4.199-3.999
		C288.359,97.16,286.441,98.28,285.961,101.159z"/><path class="st0" d="M308.12,96.76c1.68-1.64,3.559-3.119,6.116-3.119c2.08,0,3.601,0.84,4.521,2.24
		c0.6,0.959,0.92,2.16,0.92,3.599v8.398h2.6v3.6h-9.356v-3.6h2.397v-7.318c0-0.72-0.119-1.36-0.358-1.8
		c-0.4-0.76-1.119-1.16-2.16-1.16c-1.521,0-3.119,0.879-4.521,2.04v8.238h2.4v3.6h-9.357v-3.6h2.601V97.64h-2.601v-3.679h6.8
		L308.12,96.76L308.12,96.76z"/><path class="st0" d="M327.281,109.398c-0.399-0.72-0.6-1.64-0.6-2.76v-8.999h-3.4V93.96h3.4v-3.679l4.318-1.88v5.559h5.317v3.679
		H331v8.159c0,0.56,0.08,0.92,0.278,1.28c0.32,0.56,0.962,0.84,1.841,0.84c1.121,0,2.399-0.44,3.438-0.92l-0.358,3.76
		c-1.199,0.6-2.601,1.04-4.199,1.04C329.88,111.797,328.159,111.077,327.281,109.398z"/><path class="st0" d="M351.759,100.199c-1.4,0-2.361-0.84-2.361-2.159c0-0.28,0-0.52,0.08-0.76c-0.719-0.28-1.6-0.44-2.479-0.44
		c-1.961,0-2.92,0.88-2.92,1.8c0,1,1,1.52,3.68,2.24c4.199,1.12,6.639,2.16,6.639,5.319c0,3.68-3.438,5.639-7.397,5.639
		c-2.681,0-5.56-0.96-6.72-2.12c-0.721-0.72-1-1.439-1-2.359c0-1.28,0.959-2.36,2.318-2.36c1.201,0,2.361,0.8,2.361,2.32
		c0,0.24-0.041,0.48-0.08,0.72c0.799,0.32,1.918,0.56,3.158,0.56c1.76,0,3.198-0.6,3.198-1.88c0-0.88-0.76-1.4-3.438-2.12
		c-4.838-1.28-6.879-2.439-6.879-5.439c0-2.72,2.239-5.559,7.16-5.559c2.118,0,4.68,0.8,5.879,2c0.639,0.64,0.959,1.4,0.959,2.24
		C353.917,99.24,353.039,100.199,351.759,100.199z"/><path class="st0" d="M357.839,108.518c0-1.84,1.479-3.319,3.279-3.319c1.801,0,3.278,1.479,3.278,3.319
		c0,1.8-1.479,3.279-3.278,3.279C359.32,111.797,357.839,110.318,357.839,108.518z"/></g></svg>

