<svg version="1.1" id="Layer_1" xmlns="http://www.w3.org/2000/svg" xmlns:xlink="http://www.w3.org/1999/xlink" x="0px" y="0px"
	 width="304px" height="33px" viewBox="0 0 304 33" style="enable-background:new 0 0 304 33;" xml:space="preserve"><style type="text/css">
	.st0{fill:#6C6F72;}
</style><g><path class="st0" d="M0.837,22.942h2.721V6.081H0.837V3.328h8.771c4.726,0,8.363,2.753,8.363,7.173
		c0,4.793-3.468,7.411-8.567,7.411c-1.155,0-2.176-0.034-2.753-0.068v5.099h2.924v2.754H0.838L0.837,22.942L0.837,22.942z
		 M14.81,10.5c0-2.754-2.277-4.42-5.271-4.42H6.65v9.043c0.577,0.033,1.495,0.067,2.957,0.067
		C12.839,15.191,14.81,13.423,14.81,10.5z"/><path class="st0" d="M32.528,12.913c0,1.054-0.85,1.972-1.87,1.972c-0.984,0-1.666-0.612-1.938-1.258
		c-1.088,0.34-2.347,1.563-3.061,2.958v6.664h2.688v2.447h-7.854v-2.447h2.277V13.56h-2.277v-2.516h5.064v3.332
		c1.156-2.006,2.855-3.604,4.557-3.604C31.712,10.772,32.528,11.758,32.528,12.913z"/><path class="st0" d="M33.919,18.387c0-4.114,2.991-7.615,7.648-7.615s7.649,3.467,7.649,7.615c0,4.08-3.025,7.581-7.649,7.581
		C36.877,25.968,33.919,22.5,33.919,18.387z M46.193,18.387c0-2.992-1.904-5.134-4.624-5.134c-2.754,0-4.657,2.142-4.657,5.134
		s1.903,5.099,4.657,5.099C44.289,23.486,46.193,21.379,46.193,18.387z"/><path class="st0" d="M52.365,13.559h-1.836v-2.516h7.105v2.414H55.39l3.978,8.805l3.979-8.805H61v-2.414h7.105v2.516h-1.836
		L60.25,26.104h-1.868L52.365,13.559z"/><path class="st0" d="M72.474,19.304c0.408,2.788,2.448,4.148,5.305,4.148c1.869,0,3.467-0.578,5.201-1.564l-0.238,2.687
		c-1.528,0.951-3.399,1.394-5.406,1.394c-4.725,0-7.92-3.06-7.92-7.547c0-4.113,2.821-7.649,7.275-7.649c4.521,0,6.9,3.229,6.9,6.97
		c0,0.544-0.068,1.121-0.137,1.562h-10.98V19.304z M72.474,17.129h8.192c-0.136-2.347-1.562-3.943-4.045-3.943
		C74.65,13.185,72.849,14.477,72.474,17.129z"/><path class="st0" d="M90.855,13.594c1.395-1.496,3.229-2.822,5.338-2.822c1.836,0,3.094,0.714,3.842,1.87
		c0.477,0.816,0.748,1.836,0.748,3.061v7.547h2.277v2.447h-7.377V23.25h2.176v-6.901c0-0.714-0.104-1.292-0.34-1.734
		c-0.408-0.781-1.123-1.155-2.176-1.155c-1.6,0-3.13,0.952-4.388,2.21v7.581h2.177v2.447h-7.344v-2.447h2.278v-9.689h-2.278v-2.516
		h5.065L90.855,13.594L90.855,13.594z"/><path class="st0" d="M123.018,15.837c-1.021,0-1.77-0.646-1.77-1.632c0-0.238,0.035-0.511,0.138-0.748
		c-0.578-0.272-1.428-0.442-2.347-0.442c-1.869,0-2.891,0.918-2.891,1.87c0,1.088,1.123,1.53,3.469,2.142
		c3.161,0.816,5.474,1.666,5.474,4.419c0,2.925-2.787,4.557-5.982,4.557c-2.211,0-4.454-0.748-5.438-1.734
		c-0.546-0.544-0.816-1.156-0.816-1.904c0-0.951,0.68-1.768,1.666-1.768c0.951,0,1.733,0.646,1.733,1.7
		c0,0.271-0.034,0.51-0.137,0.748c0.544,0.34,1.633,0.68,2.992,0.68c1.769,0,3.195-0.68,3.195-1.972c0-1.055-1.055-1.564-3.23-2.108
		c-3.737-0.952-5.744-1.87-5.744-4.488c0-2.243,2.007-4.385,5.744-4.385c1.904,0,3.81,0.612,4.761,1.563
		c0.51,0.51,0.747,1.122,0.747,1.768C124.582,15.157,123.936,15.837,123.018,15.837z"/><path class="st0" d="M127.701,21.786c0-2.687,2.38-4.419,5.746-4.419c1.529,0,3.229,0.34,4.012,0.577v-1.666
		c0-0.85-0.237-1.529-0.646-2.04c-0.611-0.748-1.632-1.121-3.06-1.121c-0.919,0-1.463,0.203-1.903,0.441
		c0.102,0.238,0.17,0.544,0.17,0.816c0,0.952-0.715,1.666-1.7,1.666c-1.021,0-1.732-0.714-1.732-1.733
		c0-1.734,1.902-3.536,5.643-3.536c2.277,0,3.943,0.68,4.93,1.835c0.748,0.884,1.122,2.04,1.122,3.366v7.275h2.278v2.447h-5.032
		v-1.768c-1.189,1.122-3.06,2.04-5.031,2.04C129.808,25.968,127.701,24.438,127.701,21.786z M137.459,22.024v-2.379
		c-0.985-0.271-2.243-0.51-3.569-0.51c-2.074,0-3.229,0.986-3.229,2.414c0,1.326,0.985,2.209,2.687,2.209
		C134.908,23.758,136.335,23.011,137.459,22.024z"/><path class="st0" d="M151.68,3.122c-0.374,0.102-0.714,0.34-0.985,0.646c-0.477,0.646-0.748,1.564-0.748,2.992v4.284h3.808v2.516
		h-3.808v9.689h2.855v2.447h-8.023v-2.447h2.277V13.56h-2.549v-2.516h2.549v-3.74c0-2.482,0.441-4.114,1.7-5.337
		c0.918-0.918,2.107-1.428,3.638-1.428c1.699,0,2.924,0.85,2.924,2.176c0,1.122-0.782,1.802-1.7,1.802
		C152.598,4.516,151.986,3.904,151.68,3.122z"/><path class="st0" d="M158.355,19.304c0.408,2.788,2.447,4.148,5.303,4.148c1.87,0,3.468-0.578,5.201-1.564l-0.237,2.687
		c-1.529,0.951-3.398,1.394-5.404,1.394c-4.728,0-7.923-3.06-7.923-7.547c0-4.113,2.822-7.649,7.275-7.649
		c4.521,0,6.901,3.229,6.901,6.97c0,0.544-0.067,1.121-0.137,1.562h-10.979V19.304z M158.355,17.129h8.193
		c-0.138-2.347-1.564-3.943-4.048-3.943C160.531,13.185,158.728,14.477,158.355,17.129z"/><path class="st0" d="M174.218,24.132c-0.271-0.578-0.441-1.326-0.441-2.143v-8.431h-2.754v-2.516h2.754V7.676l2.924-1.19v4.557
		h4.453v2.516h-4.453v7.921c0,0.477,0.068,0.816,0.203,1.122c0.272,0.477,0.816,0.714,1.666,0.714c0.885,0,1.938-0.407,2.788-0.815
		l-0.306,2.618c-0.851,0.441-1.938,0.85-3.298,0.85C176.123,25.968,174.865,25.39,174.218,24.132z"/><path class="st0" d="M186.513,32.461c-1.633,0-2.788-0.917-2.788-2.074c0-1.054,0.714-1.666,1.598-1.666
		c0.852,0,1.395,0.612,1.6,1.224c0.475-0.17,0.95-0.544,1.494-1.325c0.272-0.442,0.578-0.986,0.919-1.666l0.984-2.04l-5.404-11.355
		h-1.903v-2.516h7.139v2.414h-2.243c0,0,3.841,8.703,3.809,8.703l3.875-8.703h-2.347v-2.414h7.072v2.516h-1.904l-6.9,14.721
		c-0.374,0.748-0.748,1.395-1.155,1.973C189.267,31.679,188.009,32.461,186.513,32.461z"/><path class="st0" d="M209.123,29.912h2.278V13.558h-2.278v-2.516h5.066v1.903c1.224-1.258,2.584-2.176,4.691-2.176
		c3.842,0,6.832,3.061,6.832,7.514c0,4.215-2.957,7.683-7.104,7.683c-1.666,0-3.129-0.612-4.284-1.564v5.509h2.618v2.446h-7.82
		v-2.445H209.123z M222.687,18.319c0-3.06-1.869-4.998-4.352-4.998c-1.665,0-2.924,0.782-4.012,1.87v6.833
		c1.021,0.816,2.312,1.395,3.943,1.395C220.75,23.418,222.687,21.412,222.687,18.319z"/><path class="st0" d="M239.828,12.913c0,1.054-0.852,1.972-1.871,1.972c-0.984,0-1.666-0.612-1.938-1.258
		c-1.088,0.34-2.346,1.563-3.061,2.958v6.664h2.688v2.447h-7.854v-2.447h2.276V13.56h-2.276v-2.516h5.063v3.332
		c1.156-2.006,2.856-3.604,4.557-3.604C239.011,10.772,239.828,11.758,239.828,12.913z"/><path class="st0" d="M241.218,18.387c0-4.114,2.992-7.615,7.647-7.615c4.658,0,7.65,3.467,7.65,7.615
		c0,4.08-3.025,7.581-7.65,7.581C244.175,25.968,241.218,22.5,241.218,18.387z M253.492,18.387c0-2.992-1.903-5.134-4.625-5.134
		c-2.752,0-4.656,2.142-4.656,5.134s1.904,5.099,4.656,5.099C251.587,23.486,253.492,21.379,253.492,18.387z"/><path class="st0" d="M265.623,3.122c-0.373,0.102-0.713,0.34-0.985,0.646c-0.476,0.646-0.748,1.564-0.748,2.992v4.284h3.809v2.516
		h-3.809v9.689h2.856v2.447h-8.022v-2.447H261V13.56h-2.551v-2.516H261v-3.74c0-2.482,0.441-4.114,1.699-5.337
		c0.918-0.918,2.107-1.428,3.639-1.428c1.699,0,2.925,0.85,2.925,2.176c0,1.122-0.783,1.802-1.701,1.802
		C266.541,4.516,265.929,3.904,265.623,3.122z"/><path class="st0" d="M269.818,23.248h2.381v-9.689h-2.381v-2.516h5.305v12.205h2.347v2.447h-7.65L269.818,23.248L269.818,23.248z
		 M271.212,5.808c0-1.156,0.985-2.106,2.141-2.106c1.123,0,2.109,0.951,2.109,2.106c0,1.19-1.021,2.142-2.144,2.142
		C272.164,7.95,271.212,6.998,271.212,5.808z"/><path class="st0" d="M279.638,23.248h2.379V3.326h-2.379V0.809h5.303v22.438h2.346v2.447h-7.647L279.638,23.248L279.638,23.248z"/><path class="st0" d="M292.046,19.304c0.407,2.788,2.448,4.148,5.305,4.148c1.869,0,3.467-0.578,5.201-1.564l-0.238,2.687
		c-1.529,0.951-3.4,1.394-5.406,1.394c-4.725,0-7.92-3.06-7.92-7.547c0-4.113,2.82-7.649,7.275-7.649c4.521,0,6.9,3.229,6.9,6.97
		c0,0.544-0.068,1.121-0.138,1.562h-10.979V19.304z M292.046,17.129h8.192c-0.135-2.347-1.563-3.943-4.045-3.943
		C294.222,13.185,292.421,14.477,292.046,17.129z"/></g></svg>

