<?xml version="1.0" encoding="utf-8"?>
<!-- Generator: Adobe Illustrator 17.0.1, SVG Export Plug-In . SVG Version: 6.00 Build 0)  -->
<!DOCTYPE svg PUBLIC "-//W3C//DTD SVG 1.1//EN" "http://www.w3.org/Graphics/SVG/1.1/DTD/svg11.dtd">
<svg version="1.1" id="Layer_1" xmlns="http://www.w3.org/2000/svg" xmlns:xlink="http://www.w3.org/1999/xlink" x="0px" y="0px"
	 width="506.333px" height="98px" viewBox="0 0 506.333 98" enable-background="new 0 0 506.333 98" xml:space="preserve">
<g id="_x2A_5.1_NSCLC_Patient_profile_copy">
	<g enable-background="new    ">
		<path fill="#60A296" d="M0.96,19.73c0-9.505,7.393-16.37,16.609-16.37c7.345,0,12.241,3.841,12.241,7.633
			c0,2.305-1.488,3.889-3.456,3.889c-2.16,0-3.648-1.345-3.648-3.408c0-0.624,0.144-1.248,0.336-1.633
			c-0.912-0.72-2.736-1.439-5.616-1.439c-6.145,0-10.849,4.704-10.849,11.28c0,6.337,4.417,11.377,11.089,11.377
			c3.696,0,6.721-1.632,9.073-4.176l3.601,3.744c-3.072,3.408-7.633,5.473-12.673,5.473C7.921,36.099,0.96,29.571,0.96,19.73z"/>
		<path fill="#60A296" d="M33.216,25.01c0-5.761,4.32-10.897,11.185-10.897c6.961,0,11.185,5.041,11.185,10.897
			c0,5.761-4.32,10.896-11.185,10.896C37.44,35.907,33.216,30.867,33.216,25.01z M50.209,25.01c0-3.841-2.4-6.528-5.809-6.528
			c-3.408,0-5.808,2.688-5.808,6.528s2.4,6.528,5.808,6.528C47.809,31.539,50.209,28.85,50.209,25.01z"/>
		<path fill="#60A296" d="M66.865,17.857c2.016-1.968,4.272-3.744,7.345-3.744c2.496,0,4.32,1.009,5.424,2.688
			c0.72,1.152,1.104,2.593,1.104,4.32v10.081h3.12v4.32H72.625v-4.32h2.88v-8.785c0-0.863-0.144-1.632-0.432-2.16
			c-0.48-0.912-1.344-1.392-2.592-1.392c-1.824,0-3.744,1.056-5.424,2.448v9.889h2.88v4.32H58.704v-4.32h3.12V18.913h-3.12v-4.416
			h8.161V17.857z"/>
		<path fill="#60A296" d="M101.186,21.986c-1.68,0-2.832-1.008-2.832-2.592c0-0.337,0-0.625,0.096-0.912
			c-0.864-0.337-1.92-0.528-2.976-0.528c-2.353,0-3.504,1.056-3.504,2.16c0,1.2,1.2,1.824,4.417,2.688
			c5.041,1.344,7.969,2.592,7.969,6.384c0,4.417-4.128,6.769-8.881,6.769c-3.216,0-6.673-1.151-8.065-2.544
			c-0.864-0.864-1.2-1.728-1.2-2.832c0-1.536,1.152-2.832,2.784-2.832c1.44,0,2.832,0.96,2.832,2.784
			c0,0.288-0.048,0.576-0.096,0.864c0.96,0.384,2.304,0.672,3.792,0.672c2.112,0,3.84-0.721,3.84-2.257
			c0-1.056-0.912-1.68-4.128-2.544c-5.809-1.536-8.257-2.928-8.257-6.528c0-3.265,2.688-6.673,8.593-6.673
			c2.544,0,5.617,0.96,7.057,2.4c0.768,0.768,1.152,1.68,1.152,2.688C103.778,20.834,102.722,21.986,101.186,21.986z"/>
		<path fill="#60A296" d="M107.808,31.203h3.216V18.914h-3.216v-4.416h8.449v16.705h3.12v4.32h-11.569V31.203z M109.633,7.825
			c0-1.92,1.68-3.456,3.552-3.456s3.457,1.536,3.457,3.456s-1.68,3.456-3.553,3.456C111.217,11.281,109.633,9.745,109.633,7.825z"/>
		<path fill="#60A296" d="M122.544,25.106c0-6.097,4.416-10.993,10.081-10.993c2.688,0,4.657,1.009,5.856,2.017V4.8h-3.168V0.384
			h8.4v30.818h3.121v4.32h-8.353v-2.305c-1.536,1.488-3.504,2.688-6.192,2.688C126.721,35.907,122.544,31.443,122.544,25.106z
			 M138.481,29.283v-9.025c-1.392-0.96-3.024-1.632-4.992-1.632c-2.928,0-5.568,2.256-5.568,6.433c0,4.032,2.496,6.337,5.568,6.337
			C135.457,31.395,137.041,30.531,138.481,29.283z"/>
		<path fill="#60A296" d="M154.944,26.787c0.72,3.264,3.408,4.704,6.913,4.704c2.544,0,5.185-0.816,7.633-2.208l-0.432,4.704
			c-2.208,1.296-4.896,1.92-7.969,1.92c-6.864,0-11.617-4.32-11.617-10.849c0-5.952,4.176-10.945,10.657-10.945
			c6.721,0,10.225,4.513,10.225,10.081c0,0.816-0.096,1.872-0.24,2.593C170.114,26.787,154.944,26.787,154.944,26.787z
			 M154.896,23.138h10.225c-0.096-2.881-1.968-4.801-5.041-4.801C157.776,18.337,155.472,19.681,154.896,23.138z"/>
		<path fill="#60A296" d="M192.049,17.57c0,1.775-1.392,3.264-3.121,3.264c-1.584,0-2.64-0.912-3.072-1.872
			c-1.488,0.528-3.216,2.16-4.176,3.984v8.257h3.648v4.32h-12.001v-4.32h3.12V18.914h-3.12v-4.416h8.161v4.752
			c1.776-2.832,3.984-5.137,6.672-5.137C190.753,14.113,192.049,15.697,192.049,17.57z"/>
		<path fill="#60A296" d="M205.486,19.73c0-9.266,6.721-16.37,16.322-16.37c9.553,0,16.081,7.153,16.081,16.37
			c0,9.265-6.72,16.369-16.321,16.369C212.015,36.099,205.486,28.947,205.486,19.73z M232.273,19.73
			c0-6.577-4.464-11.329-10.561-11.329c-6.145,0-10.609,4.704-10.609,11.329c0,6.576,4.464,11.328,10.609,11.328
			C227.808,31.058,232.273,26.354,232.273,19.73z"/>
		<path fill="#60A296" d="M241.343,40.612h3.12V18.914h-3.12v-4.416h8.161v2.399c1.632-1.536,3.408-2.784,6.241-2.784
			c5.473,0,9.601,4.465,9.601,10.801c0,6.097-4.368,10.993-9.937,10.993c-2.256,0-4.128-0.815-5.713-2.016v6.721h3.409v4.32h-11.761
			v-4.32L241.343,40.612L241.343,40.612z M259.968,24.962c0-4.033-2.4-6.337-5.376-6.337c-1.968,0-3.504,0.864-4.896,2.112v9.024
			c1.344,0.96,2.977,1.633,4.896,1.633C257.376,31.395,259.968,29.138,259.968,24.962z"/>
		<path fill="#60A296" d="M272.207,33.027c-0.48-0.864-0.72-1.969-0.72-3.312V18.914h-4.08v-4.416h4.08v-4.417l5.185-2.256v6.673
			h6.385v4.416h-6.385v9.793c0,0.672,0.096,1.104,0.336,1.536c0.384,0.672,1.152,1.008,2.208,1.008c1.344,0,2.88-0.528,4.128-1.104
			l-0.432,4.513c-1.44,0.721-3.121,1.248-5.041,1.248C275.327,35.907,273.263,35.043,272.207,33.027z"/>
		<path fill="#60A296" d="M286.221,31.203h3.216V18.914h-3.216v-4.416h8.449v16.705h3.12v4.32h-11.569V31.203z M288.046,7.825
			c0-1.92,1.68-3.456,3.552-3.456s3.457,1.536,3.457,3.456s-1.68,3.456-3.553,3.456C289.63,11.281,288.046,9.745,288.046,7.825z"/>
		<path fill="#60A296" d="M315.887,21.986c-1.68,0-2.832-1.008-2.832-2.592c0-0.337,0-0.625,0.096-0.912
			c-0.864-0.337-1.92-0.528-2.976-0.528c-2.352,0-3.504,1.056-3.504,2.16c0,1.2,1.2,1.824,4.417,2.688
			c5.041,1.344,7.969,2.592,7.969,6.384c0,4.417-4.128,6.769-8.881,6.769c-3.216,0-6.673-1.151-8.065-2.544
			c-0.864-0.864-1.2-1.728-1.2-2.832c0-1.536,1.152-2.832,2.785-2.832c1.44,0,2.832,0.96,2.832,2.784
			c0,0.288-0.048,0.576-0.096,0.864c0.96,0.384,2.304,0.672,3.792,0.672c2.112,0,3.84-0.721,3.84-2.257
			c0-1.056-0.912-1.68-4.128-2.544c-5.809-1.536-8.256-2.928-8.256-6.528c0-3.265,2.688-6.673,8.592-6.673
			c2.544,0,5.617,0.96,7.057,2.4c0.768,0.768,1.152,1.68,1.152,2.688C318.48,20.834,317.424,21.986,315.887,21.986z"/>
		<path fill="#60A296" d="M326.206,33.027c-0.48-0.864-0.72-1.969-0.72-3.312V18.914h-4.08v-4.416h4.08v-4.417l5.185-2.256v6.673
			h6.385v4.416h-6.385v9.793c0,0.672,0.096,1.104,0.336,1.536c0.384,0.672,1.152,1.008,2.208,1.008c1.344,0,2.88-0.528,4.128-1.104
			l-0.432,4.513c-1.44,0.721-3.121,1.248-5.041,1.248C329.326,35.907,327.262,35.043,326.206,33.027z"/>
		<path fill="#60A296" d="M340.365,30.002c0-3.937,3.456-6.337,8.449-6.337c2.16,0,4.176,0.288,5.329,0.576v-1.68
			c0-1.248-0.288-2.208-0.816-2.881c-0.864-1.104-2.256-1.536-4.128-1.536c-0.912,0-1.584,0.145-2.064,0.337
			c0.096,0.287,0.192,0.768,0.192,1.056c0,1.584-1.248,2.736-2.832,2.736c-1.584,0-2.784-1.104-2.784-2.832
			c0-2.593,2.64-5.329,8.353-5.329c3.6,0,6.048,1.009,7.537,2.833c1.104,1.344,1.632,3.168,1.632,5.28v8.977h3.12v4.32h-8.113
			v-2.305c-1.68,1.44-4.224,2.688-7.057,2.688C343.581,35.907,340.365,33.939,340.365,30.002z M354.142,30.243v-3.312
			c-1.2-0.288-2.688-0.48-4.32-0.48c-2.544,0-4.081,1.152-4.081,3.072c0,1.681,1.248,2.593,3.12,2.593
			S352.558,31.395,354.142,30.243z"/>
		<path fill="#60A296" d="M364.941,18.914h-2.448v-4.416h10.753v4.176h-3.024l5.041,10.945l5.041-10.945h-3.168v-4.176h10.705v4.416
			h-2.448l-8.353,16.993h-3.744L364.941,18.914z"/>
		<path fill="#60A296" d="M389.613,31.203h3.216V18.914h-3.216v-4.416h8.449v16.705h3.12v4.32h-11.569V31.203z M391.437,7.825
			c0-1.92,1.68-3.456,3.552-3.456s3.456,1.536,3.456,3.456s-1.68,3.456-3.552,3.456S391.437,9.745,391.437,7.825z"/>
		<path fill="#60A296" d="M412.365,17.857c2.016-1.968,4.272-3.744,7.345-3.744c2.496,0,4.32,1.009,5.424,2.688
			c0.721,1.152,1.104,2.593,1.104,4.32v10.081h3.121v4.32h-11.233v-4.32h2.88v-8.785c0-0.863-0.144-1.632-0.432-2.16
			c-0.48-0.912-1.344-1.392-2.592-1.392c-1.824,0-3.744,1.056-5.424,2.448v9.889h2.88v4.32h-11.233v-4.32h3.12V18.913h-3.12v-4.416
			h8.161L412.365,17.857L412.365,17.857z"/>
		<path fill="#60A296" d="M452.972,4.56c-0.432,0.192-0.863,0.48-1.104,0.864c-0.624,0.912-0.96,2.208-0.96,4.225v4.849h5.472v4.416
			h-5.472v12.289h4.08v4.32h-12.433v-4.32h3.168V18.914h-3.601v-4.416h3.601v-4.081c0-3.84,0.672-6.24,2.688-8.208
			C449.899,0.769,451.819,0,454.173,0c2.736,0,4.656,1.44,4.656,3.553c0,1.872-1.345,2.977-2.832,2.977
			C454.365,6.529,453.548,5.665,452.972,4.56z"/>
		<path fill="#60A296" d="M458.251,25.01c0-5.761,4.32-10.897,11.186-10.897c6.961,0,11.185,5.041,11.185,10.897
			c0,5.761-4.32,10.896-11.185,10.896C462.476,35.907,458.251,30.867,458.251,25.01z M475.245,25.01c0-3.841-2.4-6.528-5.809-6.528
			s-5.809,2.688-5.809,6.528s2.4,6.528,5.809,6.528S475.245,28.85,475.245,25.01z"/>
		<path fill="#60A296" d="M502.461,17.57c0,1.775-1.392,3.264-3.12,3.264c-1.584,0-2.641-0.912-3.072-1.872
			c-1.488,0.528-3.217,2.16-4.177,3.984v8.257h3.648v4.32h-12.001v-4.32h3.12V18.914h-3.12v-4.416h8.16v4.752
			c1.776-2.832,3.984-5.137,6.673-5.137C501.165,14.113,502.461,15.697,502.461,17.57z"/>
	</g>
	<g enable-background="new    ">
		<path fill="#60A296" d="M0,90.612h3.12V68.914H0v-4.416h8.161v2.399c1.632-1.536,3.408-2.784,6.241-2.784
			c5.473,0,9.601,4.465,9.601,10.801c0,6.097-4.368,10.993-9.937,10.993c-2.256,0-4.128-0.815-5.713-2.016v6.721h3.409v4.32H0
			V90.612z M18.625,74.962c0-4.033-2.4-6.337-5.376-6.337c-1.968,0-3.504,0.864-4.896,2.112v9.024
			c1.344,0.96,2.977,1.633,4.896,1.633C16.033,81.395,18.625,79.138,18.625,74.962z"/>
		<path fill="#60A296" d="M26.976,80.002c0-3.937,3.456-6.337,8.449-6.337c2.16,0,4.176,0.288,5.329,0.576v-1.68
			c0-1.248-0.288-2.208-0.816-2.881c-0.864-1.104-2.256-1.536-4.128-1.536c-0.912,0-1.584,0.145-2.064,0.337
			c0.096,0.287,0.192,0.768,0.192,1.056c0,1.584-1.248,2.736-2.832,2.736s-2.784-1.104-2.784-2.832c0-2.593,2.64-5.329,8.353-5.329
			c3.6,0,6.048,1.009,7.537,2.833c1.104,1.344,1.632,3.168,1.632,5.28v8.977h3.12v4.32h-8.113v-2.305
			c-1.68,1.44-4.224,2.688-7.057,2.688C30.193,85.907,26.976,83.939,26.976,80.002z M40.754,80.243v-3.312
			c-1.2-0.288-2.688-0.48-4.32-0.48c-2.544,0-4.081,1.152-4.081,3.072c0,1.681,1.248,2.593,3.12,2.593
			C37.345,82.116,39.169,81.395,40.754,80.243z"/>
		<path fill="#60A296" d="M54.96,83.027c-0.48-0.864-0.72-1.969-0.72-3.312V68.914h-4.08v-4.416h4.08v-4.417l5.185-2.256v6.673
			h6.385v4.416h-6.385v9.793c0,0.672,0.096,1.104,0.336,1.536c0.384,0.672,1.152,1.008,2.208,1.008c1.344,0,2.88-0.528,4.128-1.104
			l-0.432,4.513c-1.44,0.721-3.121,1.248-5.041,1.248C58.08,85.907,56.016,85.043,54.96,83.027z"/>
		<path fill="#60A296" d="M68.975,81.203h3.216V68.914h-3.216v-4.416h8.449v16.705h3.12v4.32H68.975V81.203z M70.8,57.825
			c0-1.92,1.68-3.456,3.552-3.456s3.457,1.536,3.457,3.456s-1.68,3.456-3.553,3.456C72.384,61.281,70.8,59.745,70.8,57.825z"/>
		<path fill="#60A296" d="M89.183,76.787c0.72,3.264,3.408,4.704,6.913,4.704c2.544,0,5.185-0.816,7.633-2.208l-0.432,4.704
			c-2.208,1.296-4.896,1.92-7.969,1.92c-6.864,0-11.617-4.32-11.617-10.849c0-5.952,4.176-10.945,10.657-10.945
			c6.721,0,10.225,4.513,10.225,10.081c0,0.816-0.096,1.872-0.24,2.593L89.183,76.787L89.183,76.787z M89.136,73.138h10.225
			c-0.096-2.881-1.968-4.801-5.04-4.801C92.016,68.337,89.712,69.681,89.136,73.138z"/>
		<path fill="#60A296" d="M115.728,67.857c2.016-1.968,4.272-3.744,7.345-3.744c2.496,0,4.32,1.009,5.424,2.688
			c0.72,1.152,1.104,2.593,1.104,4.32v10.081h3.12v4.32h-11.233v-4.32h2.88v-8.785c0-0.863-0.144-1.632-0.432-2.16
			c-0.48-0.912-1.344-1.392-2.592-1.392c-1.824,0-3.744,1.056-5.424,2.448v9.889h2.88v4.32h-11.233v-4.32h3.12V68.913h-3.12v-4.416
			h8.161V67.857z"/>
		<path fill="#60A296" d="M138.719,83.027c-0.48-0.864-0.72-1.969-0.72-3.312V68.914h-4.08v-4.416h4.08v-4.417l5.185-2.256v6.673
			h6.385v4.416h-6.385v9.793c0,0.672,0.096,1.104,0.336,1.536c0.384,0.672,1.152,1.008,2.208,1.008c1.344,0,2.88-0.528,4.128-1.104
			l-0.432,4.513c-1.44,0.721-3.121,1.248-5.041,1.248C141.839,85.907,139.775,85.043,138.719,83.027z"/>
		<path fill="#60A296" d="M168.096,71.986c-1.68,0-2.832-1.008-2.832-2.592c0-0.337,0-0.625,0.096-0.912
			c-0.864-0.337-1.92-0.528-2.976-0.528c-2.352,0-3.504,1.056-3.504,2.16c0,1.2,1.2,1.824,4.417,2.688
			c5.041,1.344,7.969,2.592,7.969,6.384c0,4.417-4.128,6.769-8.881,6.769c-3.216,0-6.673-1.151-8.065-2.544
			c-0.864-0.864-1.2-1.728-1.2-2.832c0-1.536,1.152-2.832,2.785-2.832c1.44,0,2.832,0.96,2.832,2.784
			c0,0.288-0.048,0.576-0.096,0.864c0.96,0.384,2.304,0.672,3.792,0.672c2.112,0,3.84-0.721,3.84-2.257
			c0-1.056-0.912-1.68-4.128-2.544c-5.809-1.536-8.256-2.928-8.256-6.528c0-3.265,2.688-6.673,8.592-6.673
			c2.544,0,5.617,0.96,7.057,2.4c0.768,0.768,1.152,1.68,1.152,2.688C170.688,70.834,169.632,71.986,168.096,71.986z"/>
		<path fill="#60A296" d="M184.989,81.203h3.264V54.801h-3.264v-4.416h8.497v30.818h3.121v4.32h-11.618V81.203z"/>
		<path fill="#60A296" d="M199.437,81.203h3.216V68.914h-3.216v-4.416h8.449v16.705h3.12v4.32h-11.569V81.203z M201.262,57.825
			c0-1.92,1.68-3.456,3.552-3.456s3.457,1.536,3.457,3.456s-1.68,3.456-3.553,3.456C202.846,61.281,201.262,59.745,201.262,57.825z"
			/>
		<path fill="#60A296" d="M213.789,81.203h3.12V54.801h-3.12v-4.416h8.353v23.569l6.145-5.28h-2.928v-4.176h12.433v4.416h-3.888
			l-4.896,4.128l5.329,8.065h3.456v4.416h-6.576l-6.049-9.457l-3.024,2.545v2.688h2.641v4.225h-10.996V81.203z"/>
		<path fill="#60A296" d="M245.805,76.787c0.72,3.264,3.408,4.704,6.913,4.704c2.544,0,5.185-0.816,7.633-2.208l-0.432,4.704
			c-2.208,1.296-4.896,1.92-7.969,1.92c-6.864,0-11.617-4.32-11.617-10.849c0-5.952,4.176-10.945,10.657-10.945
			c6.721,0,10.225,4.513,10.225,10.081c0,0.816-0.096,1.872-0.24,2.593L245.805,76.787L245.805,76.787z M245.757,73.138h10.225
			c-0.096-2.881-1.968-4.801-5.041-4.801C248.637,68.337,246.333,69.681,245.757,73.138z"/>
		<path fill="#60A296" d="M275.036,80.674h3.6v-21.89h-3.6v-4.849h12.625c7.729,0,11.521,3.553,11.521,8.305
			c0,3.648-2.256,6.001-5.376,7.057c3.936,1.152,6.289,3.456,6.289,7.393c0,5.232-4.225,8.833-11.905,8.833h-13.153L275.036,80.674
			L275.036,80.674z M287.709,67.33c3.792,0,5.904-1.729,5.904-4.465c0-2.688-2.208-4.176-6.048-4.176h-3.552v8.641L287.709,67.33
			L287.709,67.33z M288.285,80.771c3.744,0,6.24-1.536,6.24-4.561c0-2.929-2.304-4.561-6.384-4.561h-4.128v9.121h4.272V80.771z"/>
		<path fill="#60A296" d="M308.972,76.787c0.72,3.264,3.408,4.704,6.913,4.704c2.544,0,5.185-0.816,7.633-2.208l-0.432,4.704
			c-2.208,1.296-4.896,1.92-7.969,1.92c-6.864,0-11.617-4.32-11.617-10.849c0-5.952,4.176-10.945,10.657-10.945
			c6.721,0,10.225,4.513,10.225,10.081c0,0.816-0.096,1.872-0.24,2.593L308.972,76.787L308.972,76.787z M308.924,73.138h10.225
			c-0.096-2.881-1.968-4.801-5.041-4.801C311.804,68.337,309.5,69.681,308.924,73.138z"/>
		<path fill="#60A296" d="M328.555,68.914h-2.448v-4.416h10.753v4.176h-3.024l5.041,10.945l5.04-10.945h-3.168v-4.176h10.705v4.416
			h-2.448l-8.353,16.993h-3.744L328.555,68.914z"/>
		<path fill="#60A296" d="M358.124,76.787c0.72,3.264,3.408,4.704,6.913,4.704c2.544,0,5.185-0.816,7.633-2.208l-0.432,4.704
			c-2.208,1.296-4.896,1.92-7.969,1.92c-6.864,0-11.617-4.32-11.617-10.849c0-5.952,4.176-10.945,10.657-10.945
			c6.721,0,10.225,4.513,10.225,10.081c0,0.816-0.096,1.872-0.24,2.593L358.124,76.787L358.124,76.787z M358.076,73.138h10.225
			c-0.096-2.881-1.968-4.801-5.04-4.801C360.956,68.337,358.652,69.681,358.076,73.138z"/>
		<path fill="#60A296" d="M395.229,67.57c0,1.775-1.393,3.264-3.121,3.264c-1.584,0-2.64-0.912-3.072-1.872
			c-1.488,0.528-3.216,2.16-4.176,3.984v8.257h3.648v4.32h-12.001v-4.32h3.12V68.914h-3.12v-4.416h8.161v4.752
			c1.776-2.832,3.984-5.137,6.672-5.137C393.933,64.113,395.229,65.697,395.229,67.57z"/>
		<path fill="#60A296" d="M397.147,81.203h3.264V54.801h-3.264v-4.416h8.497v30.818h3.121v4.32h-11.617v-4.32L397.147,81.203
			L397.147,81.203z"/>
		<path fill="#60A296" d="M415.628,95.076c-2.784,0-4.512-1.632-4.512-3.312c0-1.775,1.2-2.688,2.592-2.688
			c1.248,0,1.968,0.768,2.304,1.584c0.528-0.145,1.104-0.48,1.68-1.248c0.336-0.433,0.624-0.96,0.96-1.633l1.584-3.312
			l-7.489-15.554h-2.592v-4.416h10.849v4.176h-3.073l4.848,11.089l4.896-11.089h-3.264v-4.176h10.801v4.416h-2.545l-9.84,20.882
			c-0.48,0.96-1.008,1.824-1.633,2.544C419.66,94.116,417.741,95.076,415.628,95.076z"/>
		<path fill="#60A296" d="M434.396,81.97c0-2.208,1.777-3.984,3.938-3.984s3.936,1.776,3.936,3.984c0,2.16-1.775,3.937-3.936,3.937
			S434.396,84.13,434.396,81.97z"/>
	</g>
</g>
</svg>
