<?xml version="1.0" encoding="utf-8"?>
<!-- Generator: Adobe Illustrator 17.0.1, SVG Export Plug-In . SVG Version: 6.00 Build 0)  -->
<!DOCTYPE svg PUBLIC "-//W3C//DTD SVG 1.1//EN" "http://www.w3.org/Graphics/SVG/1.1/DTD/svg11.dtd">
<svg version="1.1" id="Layer_1" xmlns="http://www.w3.org/2000/svg" xmlns:xlink="http://www.w3.org/1999/xlink" x="0px" y="0px"
	 width="724.083px" height="363.083px" viewBox="0 0 724.083 363.083" enable-background="new 0 0 724.083 363.083"
	 xml:space="preserve">
<g id="Layer_2">
	<g>
		<path fill="#C1D7D3" d="M59.076,15.667c29.224,0,53,23.776,53,53s-23.776,53-53,53s-53-23.776-53-53
			C6.076,39.443,29.852,15.667,59.076,15.667 M59.076,11.667c-31.48,0-57,25.52-57,57s25.52,57,57,57s57-25.52,57-57
			C116.076,37.187,90.556,11.667,59.076,11.667L59.076,11.667z"/>
	</g>
	<g enable-background="new    ">
		<path fill="#4D4D4F" d="M30.759,70.408h1.351v-8.211h-1.351v-1.818h4.862v1.818h-1.477v3.133h5.474v-3.133h-1.477v-1.818h4.861
			v1.818h-1.35v8.211h1.35v1.818h-4.861v-1.818h1.477v-3.295h-5.474v3.295h1.477v1.818h-4.862
			C30.759,72.226,30.759,70.408,30.759,70.408z"/>
		<path fill="#4D4D4F" d="M44.241,70.606h1.207v-4.609h-1.207V64.34h3.169v6.267h1.17v1.62h-4.339
			C44.241,72.227,44.241,70.606,44.241,70.606z M44.925,61.838c0-0.721,0.63-1.297,1.333-1.297s1.296,0.576,1.296,1.297
			c0,0.72-0.63,1.296-1.333,1.296S44.925,62.558,44.925,61.838z"/>
		<path fill="#4D4D4F" d="M55.367,67.149c-0.63,0-1.062-0.379-1.062-0.973c0-0.126,0-0.234,0.036-0.342
			c-0.324-0.126-0.72-0.198-1.116-0.198c-0.882,0-1.314,0.396-1.314,0.811c0,0.449,0.45,0.684,1.657,1.008
			c1.89,0.504,2.989,0.973,2.989,2.395c0,1.656-1.548,2.539-3.331,2.539c-1.207,0-2.503-0.433-3.025-0.954
			c-0.324-0.324-0.45-0.648-0.45-1.062c0-0.576,0.432-1.062,1.044-1.062c0.54,0,1.062,0.36,1.062,1.044
			c0,0.108-0.018,0.217-0.036,0.324c0.36,0.145,0.864,0.252,1.422,0.252c0.792,0,1.44-0.27,1.44-0.846
			c0-0.396-0.342-0.63-1.549-0.954c-2.178-0.576-3.097-1.099-3.097-2.449c0-1.224,1.008-2.503,3.223-2.503
			c0.954,0,2.106,0.36,2.646,0.9c0.288,0.288,0.432,0.631,0.432,1.009C56.339,66.717,55.943,67.149,55.367,67.149z"/>
		<path fill="#4D4D4F" d="M59.235,71.29c-0.18-0.324-0.27-0.738-0.27-1.242v-4.051h-1.53V64.34h1.53v-1.656l1.945-0.846v2.502h2.395
			v1.657H60.91v3.673c0,0.252,0.036,0.414,0.126,0.576c0.144,0.252,0.432,0.378,0.828,0.378c0.504,0,1.081-0.198,1.548-0.414
			l-0.162,1.692c-0.54,0.271-1.17,0.469-1.89,0.469C60.406,72.371,59.632,72.047,59.235,71.29z"/>
		<path fill="#4D4D4F" d="M64.347,68.283c0-2.16,1.62-4.087,4.195-4.087c2.61,0,4.195,1.891,4.195,4.087
			c0,2.161-1.621,4.088-4.195,4.088C65.932,72.371,64.347,70.48,64.347,68.283z M70.721,68.283c0-1.44-0.9-2.448-2.179-2.448
			s-2.179,1.008-2.179,2.448s0.9,2.449,2.179,2.449S70.721,69.724,70.721,68.283z"/>
		<path fill="#4D4D4F" d="M80.927,65.492c0,0.667-0.522,1.225-1.17,1.225c-0.594,0-0.991-0.342-1.152-0.702
			c-0.559,0.198-1.207,0.811-1.567,1.494v3.098h1.369v1.62h-4.501v-1.62h1.17v-4.609h-1.17v-1.657h3.061v1.783
			c0.666-1.062,1.494-1.927,2.503-1.927C80.441,64.196,80.927,64.79,80.927,65.492z"/>
		<path fill="#4D4D4F" d="M83.319,75.81c-1.044,0-1.692-0.612-1.692-1.242c0-0.666,0.45-1.009,0.972-1.009
			c0.468,0,0.738,0.288,0.864,0.595c0.198-0.054,0.414-0.181,0.63-0.469c0.126-0.161,0.234-0.359,0.36-0.611l0.594-1.243
			l-2.809-5.833h-0.973v-1.657h4.069v1.566h-1.152l1.819,4.16l1.836-4.16h-1.225v-1.566h4.051v1.657h-0.954l-3.691,7.832
			c-0.18,0.36-0.378,0.685-0.612,0.954C84.832,75.449,84.112,75.81,83.319,75.81z"/>
	</g>
	<g>
		<path fill="#E3D200" d="M59.076,200.403c29.224,0,53,23.774,53,53c0,29.225-23.776,53-53,53s-53-23.775-53-53
			C6.076,224.178,29.852,200.403,59.076,200.403 M59.076,196.403c-31.48,0-57,25.52-57,57c0,31.479,25.52,57,57,57s57-25.521,57-57
			C116.076,221.923,90.556,196.403,59.076,196.403L59.076,196.403z"/>
	</g>
	<g>
		<g enable-background="new    ">
			<path fill="#4D4D4F" d="M21.283,256.282h1.476v-8.265h-2.196v1.872h-1.927v-3.637h10.281v3.637H26.99v-1.872h-2.197v8.265h1.477
				v1.818h-4.987C21.283,258.1,21.283,256.282,21.283,256.282z"/>
			<path fill="#4D4D4F" d="M36.35,251.366c0,0.667-0.522,1.225-1.17,1.225c-0.594,0-0.991-0.342-1.152-0.702
				c-0.559,0.198-1.207,0.811-1.567,1.494v3.098h1.369v1.62h-4.501v-1.62h1.17v-4.609h-1.17v-1.657h3.061v1.783
				c0.666-1.062,1.494-1.927,2.503-1.927C35.864,250.07,36.35,250.664,36.35,251.366z"/>
			<path fill="#4D4D4F" d="M38.995,254.823c0.271,1.225,1.279,1.765,2.593,1.765c0.955,0,1.945-0.306,2.863-0.828l-0.162,1.765
				c-0.828,0.486-1.837,0.721-2.989,0.721c-2.575,0-4.357-1.621-4.357-4.069c0-2.233,1.566-4.105,3.997-4.105
				c2.521,0,3.835,1.692,3.835,3.781c0,0.306-0.036,0.702-0.09,0.972h-5.69C38.995,254.825,38.995,254.823,38.995,254.823z
				 M38.977,253.455h3.835c-0.036-1.08-0.738-1.801-1.891-1.801C40.057,251.654,39.193,252.159,38.977,253.455z"/>
			<path fill="#4D4D4F" d="M45.781,256.03c0-1.477,1.296-2.377,3.169-2.377c0.81,0,1.566,0.108,1.999,0.216v-0.63
				c0-0.469-0.108-0.828-0.306-1.08c-0.324-0.414-0.846-0.576-1.548-0.576c-0.342,0-0.594,0.054-0.774,0.126
				c0.036,0.107,0.072,0.288,0.072,0.396c0,0.595-0.468,1.026-1.062,1.026s-1.044-0.414-1.044-1.062c0-0.972,0.99-1.998,3.133-1.998
				c1.351,0,2.269,0.378,2.827,1.062c0.414,0.504,0.612,1.188,0.612,1.98v3.367h1.17v1.62h-3.043v-0.864
				c-0.63,0.54-1.584,1.009-2.646,1.009C46.987,258.245,45.781,257.507,45.781,256.03z M50.948,256.12v-1.242
				c-0.45-0.108-1.008-0.181-1.621-0.181c-0.954,0-1.53,0.433-1.53,1.152c0,0.631,0.468,0.973,1.17,0.973
				C49.67,256.822,50.354,256.552,50.948,256.12z"/>
			<path fill="#4D4D4F" d="M56.274,257.164c-0.18-0.324-0.27-0.738-0.27-1.242v-4.051h-1.53v-1.657h1.53v-1.656l1.945-0.846v2.502
				h2.395v1.657h-2.395v3.673c0,0.252,0.036,0.414,0.126,0.576c0.144,0.252,0.432,0.378,0.828,0.378
				c0.504,0,1.081-0.198,1.548-0.414l-0.162,1.692c-0.54,0.271-1.17,0.469-1.89,0.469C57.445,258.245,56.671,257.921,56.274,257.164
				z"/>
			<path fill="#4D4D4F" d="M61.512,256.48h1.17v-4.609h-1.17v-1.657h3.061v1.243c0.612-0.667,1.477-1.387,2.646-1.387
				c0.847,0,1.477,0.324,1.873,0.846c0.108,0.145,0.18,0.288,0.252,0.45c0.738-0.72,1.62-1.296,2.629-1.296
				c1.098,0,1.854,0.396,2.25,1.134c0.216,0.396,0.324,0.9,0.324,1.477v3.8h1.17v1.62h-4.195v-1.62h1.062v-3.331
				c0-0.307-0.036-0.54-0.126-0.738c-0.162-0.378-0.486-0.559-0.936-0.559c-0.648,0-1.333,0.378-1.927,0.883v3.745h1.062v1.62
				h-4.105v-1.62h1.081v-3.331c0-0.307-0.036-0.54-0.126-0.738c-0.162-0.378-0.468-0.559-0.936-0.559
				c-0.648,0-1.333,0.378-1.927,0.883v3.745h1.044v1.62h-4.177v-1.621H61.512z"/>
			<path fill="#4D4D4F" d="M78.541,254.823c0.271,1.225,1.279,1.765,2.593,1.765c0.955,0,1.945-0.306,2.863-0.828l-0.162,1.765
				c-0.828,0.486-1.837,0.721-2.989,0.721c-2.575,0-4.357-1.621-4.357-4.069c0-2.233,1.566-4.105,3.997-4.105
				c2.521,0,3.835,1.692,3.835,3.781c0,0.306-0.036,0.702-0.09,0.972h-5.69V254.823z M78.523,253.455h3.835
				c-0.036-1.08-0.738-1.801-1.891-1.801C79.603,251.654,78.739,252.159,78.523,253.455z"/>
			<path fill="#4D4D4F" d="M88.495,251.475c0.756-0.738,1.603-1.404,2.755-1.404c0.936,0,1.621,0.378,2.035,1.008
				c0.27,0.433,0.414,0.973,0.414,1.621v3.781h1.17v1.62h-4.213v-1.62h1.08v-3.295c0-0.324-0.054-0.612-0.162-0.811
				c-0.18-0.342-0.504-0.522-0.972-0.522c-0.684,0-1.404,0.396-2.035,0.918v3.71h1.081v1.62h-4.213v-1.62h1.17v-4.609h-1.17v-1.657
				h3.061L88.495,251.475L88.495,251.475L88.495,251.475z"/>
			<path fill="#4D4D4F" d="M97.116,257.164c-0.18-0.324-0.27-0.738-0.27-1.242v-4.051h-1.53v-1.657h1.53v-1.656l1.945-0.846v2.502
				h2.395v1.657h-2.395v3.673c0,0.252,0.036,0.414,0.126,0.576c0.144,0.252,0.432,0.378,0.828,0.378
				c0.504,0,1.081-0.198,1.548-0.414l-0.162,1.692c-0.54,0.271-1.17,0.469-1.89,0.469C98.287,258.245,97.513,257.921,97.116,257.164
				z"/>
		</g>
	</g>
	<polyline fill="none" stroke="#D9D5C5" stroke-miterlimit="10" points="164.563,0 164.563,65.669 168.833,69.939 164.563,74.209 
		164.563,136.667 	"/>
	<polyline fill="none" stroke="#D9D5C5" stroke-miterlimit="10" points="164.563,184.293 164.563,249.962 168.833,254.231 
		164.563,258.501 164.563,320.96 	"/>
	<g>
		<circle fill="#DAE7E3" cx="263.78" cy="68.668" r="57.001"/>
		<g>
			<path fill="#CBDDD6" d="M320.775,68.12l-20.387-20.389l-14.943,25.24L258.98,46.517l-18.721,2.972l-12.074,18.89v21.529
				l35.785,35.759c31.393-0.103,56.811-25.583,56.811-56.999C320.781,68.485,320.779,68.302,320.775,68.12z"/>
			<ellipse fill="#CBDDD6" cx="285.559" cy="57.234" rx="8.222" ry="6.744"/>
		</g>
		<g>
			<path fill="#4D4D4F" d="M228.186,89.908c-3.767-3.768-6.131-9.309-6.131-19.577v-0.148c0-15.957,7.239-28.221,22.679-28.221
				c5.172,0,9.382,1.256,12.485,3.103c1.772,1.034,2.955,2.585,2.955,4.876c0,2.955-2.438,5.245-5.394,5.245
				c-0.96,0-1.995-0.369-2.807-0.812c-2.365-1.33-4.506-2.069-7.609-2.069c-6.427,0-9.678,5.171-10.417,11.968
				c2.586-1.699,5.614-3.324,10.712-3.324c10.27,0,18.173,5.688,18.173,16.475v0.147c0,10.563-8.495,17.877-19.725,17.877
				C236.385,95.449,231.806,93.527,228.186,89.908z M251.529,78.087V77.94c0-4.358-3.396-7.536-9.011-7.536
				s-8.866,3.103-8.866,7.462v0.148c0,4.358,3.399,7.682,9.014,7.682C248.28,85.697,251.529,82.521,251.529,78.087z"/>
			<path fill="#4D4D4F" d="M265.612,80.378V80.23c0-6.279,2.881-9.973,8.349-12.484c-3.989-2.438-6.574-5.762-6.574-11.303v-0.148
				c0-7.905,7.238-14.184,18.173-14.184c10.934,0,18.173,6.205,18.173,14.184v0.148c0,5.541-2.586,8.865-6.575,11.303
				c5.245,2.733,8.349,6.058,8.349,12.189v0.148c0,9.603-8.496,15.218-19.945,15.218C274.108,95.301,265.612,89.39,265.612,80.378z
				 M294.498,79.492v-0.148c0-3.989-3.768-6.353-8.938-6.353c-5.171,0-8.939,2.364-8.939,6.353v0.148
				c0,3.545,3.324,6.427,8.939,6.427S294.498,83.111,294.498,79.492z M292.947,57.699v-0.147c0-3.177-2.733-6.058-7.388-6.058
				s-7.388,2.807-7.388,5.984v0.148c0,3.62,2.88,6.353,7.388,6.353C290.065,63.978,292.947,61.318,292.947,57.699z"/>
		</g>
	</g>
	<g>
		<circle fill="#E8E6D4" cx="443.749" cy="68.646" r="56.978"/>
		<path fill="#DAD5C5" d="M413.526,85.087l39.744,39.745c22.566-3.796,40.63-20.858,45.896-42.89l-25.195-25.195L413.526,85.087z"/>
		<g>
			<g>
				
					<rect x="413.571" y="63.672" transform="matrix(0.976 -0.218 0.218 0.976 -4.7872 98.4378)" fill="#FFFFFF" width="60.355" height="14.487"/>
			</g>
		</g>
		<g>
			<g>
				
					<rect x="411.876" y="70.249" transform="matrix(0.976 -0.2179 0.2179 0.976 -6.9303 92.1332)" fill="#4D4D4F" width="4.827" height="14.482"/>
			</g>
		</g>
		<g>
			<g>
				
					<rect x="473.165" y="56.838" transform="matrix(0.9759 -0.218 0.218 0.9759 -2.5592 104.9595)" fill="#DAD5C5" width="2.415" height="14.478"/>
			</g>
		</g>
		<g>
			<g>
				
					<rect x="416.629" y="69.461" transform="matrix(0.9759 -0.2184 0.2184 0.9759 -6.6657 93.1032)" fill="#F04E45" width="2.413" height="14.488"/>
			</g>
		</g>
	</g>
	<g>
		<circle fill="#4C8E70" cx="624.333" cy="68.667" r="57"/>
		<path fill="#005D33" d="M592.365,84.444v8l33.208,33.208c30.494-0.652,55.096-25.25,55.746-55.745l-25.02-25.019h-63.936v8
			l11.114,10.555v21L592.365,84.444L592.365,84.444z"/>
		<path fill="#FFFFFF" d="M656.301,52.89v-8h-11.112h-8.001h-8.854h-7.998h-8.854h-8h-11.114v8h11.114v31.555h-11.114v8h11.114h8
			h8.854h7.998h8.854h8.001h11.112v-8h-11.112V52.89H656.301z M611.479,84.444V52.889h8.854v31.555H611.479z M637.186,84.444h-8.854
			V52.889h8.854V84.444z"/>
	</g>
	<g>
		<g>
			<path fill="#E5D619" d="M212.179,278.261c-3.197-7.212-4.975-15.192-4.975-23.59c0-0.625,0.011-1.248,0.031-1.868
				c0.969-30.739,25.75-55.474,56.51-56.362c0.57-0.018,1.143-0.026,1.717-0.026c12.151,0,23.435,3.722,32.771,10.085
				c15.386,10.486,25.488,28.148,25.488,48.173c0,0.574-0.01,1.146-0.024,1.717c-0.226,7.769-1.971,15.154-4.95,21.873
				c-4.428,9.985-11.58,18.494-20.514,24.584c-8.855,6.036-19.463,9.693-30.9,10.055c-0.621,0.02-1.244,0.029-1.869,0.029
				C241.683,312.929,221.233,298.683,212.179,278.261z"/>
			<path fill="#D5C401" d="M271.706,209.997l-1.764,37.396l-4.543,57.686l6.936,7.445c8.032-0.943,15.564-3.521,22.256-7.394
				c1.243-0.719,2.458-1.479,3.642-2.287c8.934-6.09,16.086-14.599,20.514-24.584c0.255-0.574,0.499-1.152,0.735-1.736
				c1.903-4.702,3.212-9.709,3.83-14.929L271.706,209.997z"/>
		</g>
		<g>
			<path fill="#D7EDE6" d="M285.199,232.053H272c0-3.646-2.954-6.6-6.601-6.6c-3.646,0-6.601,2.954-6.601,6.6H245.6
				c-3.646,0-6.601,2.954-6.601,6.601c0,0.138,0.006,0.271,0.014,0.406c0.134,3.689,1.296,31.399,6.587,39.19
				c2.688,3.959,8.549,7.612,13.199,10.067h13.198c4.651-2.455,10.512-6.108,13.2-10.067c5.29-7.791,6.453-35.501,6.586-39.19
				c0.008-0.135,0.014-0.27,0.014-0.406C291.799,235.007,288.844,232.053,285.199,232.053z"/>
			<path fill="#4D4D4F" d="M271.358,199.473c-0.627,0-1.136,0.509-1.136,1.136v24.353c0,0.759-0.182,1.475-0.494,2.113
				c-0.466,0.949-1.231,1.723-2.178,2.196c0.609,0.474,1.06,1.14,1.257,1.908c0.972-0.535,1.805-1.291,2.433-2.2
				c0.789-1.144,1.253-2.526,1.253-4.019v-24.353C272.493,199.979,271.984,199.473,271.358,199.473z"/>
			<path fill="#4D4D4F" d="M261.071,227.073c-0.313-0.64-0.494-1.355-0.494-2.113c0-0.627-0.508-1.135-1.135-1.135
				s-1.135,0.508-1.135,1.135c0,1.491,0.463,2.875,1.252,4.02C259.942,228.253,260.458,227.607,261.071,227.073z"/>
			<g>
				<circle fill="#FFFFFF" cx="265.4" cy="258.632" r="17.62"/>
			</g>
			<g>
				<circle fill="#FFFFFF" cx="265.4" cy="232.053" r="3.521"/>
			</g>
			<path fill="#929497" d="M258.802,288.317c-0.013,0.121-0.019,0.241-0.019,0.364v0.917c0,2.022,1.646,3.663,3.677,3.663h5.881
				c2.03,0,3.678-1.641,3.678-3.663v-0.917c0-0.123-0.008-0.243-0.02-0.364H258.802z"/>
			<path fill="#929497" d="M263.329,291.717v8.884v3.623c0,1.145,0.928,2.07,2.071,2.07s2.069-0.927,2.069-2.07v-3.623v-8.884"/>
			<path fill="#90BFB6" d="M258.778,288.317h13.197c4.651-2.455,10.513-6.108,13.2-10.067c2.259-3.326,3.765-10.283,4.761-17.45
				c-2.482,0.31-4.872,0.583-7.196,0.82c-1.421,8.308-8.65,14.633-17.362,14.633c-8.604,0-15.765-6.17-17.308-14.326
				c-2.319-0.219-4.713-0.484-7.207-0.807c0.995,7.054,2.49,13.854,4.715,17.13C248.266,282.209,254.127,285.862,258.778,288.317z"
				/>
			<path fill="#60A397" d="M248.07,261.927c1.543,8.156,8.702,14.326,17.308,14.326c8.712,0,15.941-6.325,17.362-14.633
				C270.754,262.849,260.48,263.098,248.07,261.927z"/>
		</g>
	</g>
	<g>
		<circle fill="#F3726B" cx="443.712" cy="253.507" r="57.094"/>
		<rect x="416.083" y="227.667" fill="#FFFFFF" width="57" height="53"/>
		<polygon fill="#005D33" points="479.275,233.339 470.458,224.521 443.212,251.767 431.343,239.898 422.525,248.716 
			443.175,269.367 443.212,269.332 443.692,268.921 		"/>
		<path fill="#F04E45" d="M445.505,310.729c30.278-0.936,54.619-25.498,55.285-55.845l-21.207-21.52l-6.5,6.782v40.521h-57.752
			L445.505,310.729z"/>
	</g>
	<g>
		<circle fill="#A6CEC7" cx="624.083" cy="253.495" r="57.08"/>
		<path fill="#6BADA2" d="M647.226,221.585v64.09h-46.287l24.897,24.9c7.597-0.221,14.819-1.928,21.39-4.84
			c9.765-4.33,18.086-11.324,24.04-20.062c5.902-8.66,9.479-19.031,9.831-30.217L647.226,221.585z"/>
		<rect x="600.939" y="221.585" fill="#FFFFFF" width="46.287" height="64.09"/>
		<g>
			<rect x="608.06" y="246.048" fill="#E8E6D4" width="32.045" height="3.562"/>
			<rect x="608.06" y="238.938" fill="#E8E6D4" width="32.045" height="3.561"/>
			<rect x="608.06" y="231.806" fill="#E8E6D4" width="32.045" height="3.562"/>
		</g>
		<circle fill="#475059" cx="602.567" cy="228.696" r="1.335"/>
		<circle fill="#475059" cx="602.567" cy="235.817" r="1.335"/>
		<circle fill="#475059" cx="602.567" cy="242.938" r="1.335"/>
		<circle fill="#475059" cx="602.567" cy="250.06" r="1.335"/>
		<circle fill="#475059" cx="602.567" cy="257.181" r="1.335"/>
		<circle fill="#475059" cx="602.567" cy="264.302" r="1.335"/>
		<circle fill="#475059" cx="602.567" cy="271.423" r="1.335"/>
		<circle fill="#475059" cx="602.567" cy="278.544" r="1.335"/>
		<g>
			<path fill="#707172" d="M602.567,229.585h-3.562c-0.491,0-0.891-0.398-0.891-0.889c0-0.492,0.398-0.892,0.891-0.892h3.562
				c0.491,0,0.89,0.398,0.89,0.892C603.457,229.187,603.058,229.585,602.567,229.585z"/>
		</g>
		<g>
			<path fill="#707172" d="M602.567,236.706h-3.562c-0.491,0-0.891-0.398-0.891-0.889c0-0.492,0.398-0.892,0.891-0.892h3.562
				c0.491,0,0.89,0.398,0.89,0.892C603.457,236.308,603.058,236.706,602.567,236.706z"/>
		</g>
		<g>
			<path fill="#707172" d="M602.567,243.827h-3.562c-0.491,0-0.891-0.398-0.891-0.889c0-0.492,0.398-0.892,0.891-0.892h3.562
				c0.491,0,0.89,0.398,0.89,0.892C603.457,243.429,603.058,243.827,602.567,243.827z"/>
		</g>
		<g>
			<path fill="#707172" d="M602.567,250.948h-3.562c-0.491,0-0.891-0.398-0.891-0.89s0.398-0.891,0.891-0.891h3.562
				c0.491,0,0.89,0.398,0.89,0.891C603.457,250.55,603.058,250.948,602.567,250.948z"/>
		</g>
		<g>
			<path fill="#707172" d="M602.567,258.069h-3.562c-0.491,0-0.891-0.398-0.891-0.89s0.398-0.891,0.891-0.891h3.562
				c0.491,0,0.89,0.397,0.89,0.891C603.457,257.671,603.058,258.069,602.567,258.069z"/>
		</g>
		<g>
			<path fill="#707172" d="M602.567,265.19h-3.562c-0.491,0-0.891-0.398-0.891-0.89s0.398-0.891,0.891-0.891h3.562
				c0.491,0,0.89,0.397,0.89,0.891C603.457,264.792,603.058,265.19,602.567,265.19z"/>
		</g>
		<g>
			<path fill="#707172" d="M602.567,272.312h-3.562c-0.491,0-0.891-0.397-0.891-0.889s0.398-0.891,0.891-0.891h3.562
				c0.491,0,0.89,0.397,0.89,0.891C603.457,271.913,603.058,272.312,602.567,272.312z"/>
		</g>
		<g>
			<path fill="#707172" d="M602.567,279.435h-3.562c-0.491,0-0.891-0.399-0.891-0.891s0.398-0.891,0.891-0.891h3.562
				c0.491,0,0.89,0.397,0.89,0.891C603.457,279.034,603.058,279.435,602.567,279.435z"/>
		</g>
		<g>
			<path fill="#E3D200" d="M624.091,257.288c-5.308,0-9.608,4.301-9.608,9.609c0,5.307,4.302,9.608,9.608,9.608
				c2.653,0,5.057-1.076,6.795-2.813l-6.795-6.795V257.288z"/>
			<path fill="#4D4D4F" d="M630.886,260.103c-1.738-1.739-4.142-2.813-6.795-2.813v9.609L630.886,260.103z"/>
			<path fill="#E8E6D4" d="M630.886,260.103l-6.795,6.796l6.795,6.795c1.739-1.74,2.814-4.144,2.814-6.795
				C633.7,264.243,632.625,261.841,630.886,260.103z"/>
		</g>
	</g>
	<g>
		<path fill="#4D4D4F" d="M249.038,151.167h-2.516l-1-2.602h-4.578l-0.945,2.602h-2.453l4.461-11.453h2.445L249.038,151.167z
			 M244.78,146.636l-1.578-4.25l-1.547,4.25H244.78z"/>
		<path fill="#4D4D4F" d="M250.046,151.714l2.508,0.305c0.042,0.292,0.138,0.492,0.289,0.602c0.208,0.156,0.536,0.234,0.984,0.234
			c0.573,0,1.002-0.086,1.289-0.258c0.192-0.114,0.338-0.3,0.438-0.555c0.067-0.183,0.102-0.519,0.102-1.008v-1.211
			c-0.656,0.896-1.484,1.344-2.484,1.344c-1.115,0-1.998-0.472-2.648-1.414c-0.511-0.745-0.766-1.672-0.766-2.781
			c0-1.391,0.334-2.453,1.004-3.188c0.669-0.734,1.501-1.102,2.496-1.102c1.026,0,1.872,0.45,2.539,1.352v-1.164h2.055v7.445
			c0,0.979-0.081,1.711-0.242,2.195c-0.162,0.484-0.388,0.864-0.68,1.141c-0.292,0.276-0.681,0.492-1.168,0.648
			c-0.487,0.156-1.103,0.234-1.848,0.234c-1.406,0-2.404-0.241-2.992-0.723c-0.589-0.481-0.883-1.093-0.883-1.832
			C250.038,151.906,250.041,151.818,250.046,151.714z M252.007,146.847c0,0.88,0.17,1.524,0.512,1.934
			c0.341,0.409,0.762,0.613,1.262,0.613c0.536,0,0.989-0.21,1.359-0.629c0.37-0.419,0.555-1.04,0.555-1.863
			c0-0.859-0.177-1.497-0.531-1.914s-0.802-0.625-1.344-0.625c-0.526,0-0.96,0.204-1.301,0.613
			C252.177,145.385,252.007,146.008,252.007,146.847z"/>
		<path fill="#4D4D4F" d="M264.827,148.526l2.188,0.367c-0.281,0.802-0.726,1.413-1.332,1.832c-0.607,0.419-1.366,0.629-2.277,0.629
			c-1.443,0-2.511-0.472-3.203-1.414c-0.547-0.755-0.82-1.708-0.82-2.859c0-1.375,0.359-2.452,1.078-3.23s1.627-1.168,2.727-1.168
			c1.234,0,2.208,0.407,2.922,1.223c0.713,0.815,1.055,2.063,1.023,3.746h-5.5c0.016,0.651,0.192,1.157,0.531,1.52
			c0.338,0.362,0.76,0.543,1.266,0.543c0.344,0,0.633-0.094,0.867-0.281S264.707,148.943,264.827,148.526z M264.952,146.308
			c-0.016-0.636-0.18-1.118-0.492-1.449s-0.693-0.496-1.141-0.496c-0.479,0-0.875,0.175-1.188,0.523s-0.466,0.823-0.461,1.422
			L264.952,146.308L264.952,146.308z"/>
		<path fill="#4D4D4F" d="M280.335,142.519l-2.125,0.234c-0.052-0.438-0.188-0.761-0.406-0.969s-0.503-0.313-0.852-0.313
			c-0.464,0-0.855,0.208-1.176,0.625s-0.522,1.284-0.605,2.602c0.547-0.646,1.227-0.969,2.039-0.969
			c0.917,0,1.702,0.349,2.355,1.047s0.98,1.599,0.98,2.703c0,1.172-0.344,2.112-1.031,2.82s-1.57,1.063-2.648,1.063
			c-1.156,0-2.107-0.449-2.852-1.348c-0.745-0.898-1.117-2.371-1.117-4.418c0-2.099,0.388-3.612,1.164-4.539
			s1.784-1.391,3.023-1.391c0.87,0,1.59,0.243,2.16,0.73S280.179,141.592,280.335,142.519z M275.358,147.308
			c0,0.714,0.164,1.265,0.492,1.652s0.703,0.582,1.125,0.582c0.406,0,0.745-0.159,1.016-0.477c0.271-0.317,0.406-0.839,0.406-1.563
			c0-0.745-0.146-1.29-0.438-1.637s-0.656-0.52-1.094-0.52c-0.422,0-0.779,0.165-1.07,0.496
			C275.504,146.174,275.358,146.662,275.358,147.308z"/>
		<path fill="#4D4D4F" d="M283.679,144.987c-0.568-0.239-0.98-0.569-1.238-0.988s-0.387-0.879-0.387-1.379
			c0-0.854,0.298-1.56,0.895-2.117c0.596-0.558,1.444-0.836,2.543-0.836c1.088,0,1.934,0.278,2.535,0.836s0.902,1.263,0.902,2.117
			c0,0.531-0.138,1.004-0.414,1.418s-0.664,0.73-1.164,0.949c0.635,0.255,1.118,0.628,1.449,1.117s0.496,1.055,0.496,1.695
			c0,1.058-0.337,1.917-1.012,2.578s-1.572,0.992-2.691,0.992c-1.042,0-1.909-0.273-2.602-0.82
			c-0.818-0.646-1.227-1.531-1.227-2.656c0-0.62,0.153-1.188,0.461-1.707C282.533,145.668,283.017,145.269,283.679,144.987z
			 M283.929,147.683c0,0.604,0.155,1.075,0.465,1.414s0.696,0.508,1.16,0.508c0.453,0,0.828-0.163,1.125-0.488
			s0.445-0.796,0.445-1.41c0-0.536-0.151-0.968-0.453-1.293s-0.685-0.488-1.148-0.488c-0.537,0-0.937,0.185-1.199,0.555
			C284.06,146.85,283.929,147.25,283.929,147.683z M284.132,142.776c0,0.438,0.124,0.778,0.371,1.023s0.577,0.367,0.988,0.367
			c0.417,0,0.75-0.124,1-0.371s0.375-0.59,0.375-1.027c0-0.411-0.124-0.741-0.371-0.988c-0.248-0.247-0.574-0.371-0.98-0.371
			c-0.422,0-0.758,0.125-1.008,0.375S284.132,142.365,284.132,142.776z"/>
	</g>
	<g>
		<path fill="#4D4D4F" d="M401.991,147.44l2.25-0.219c0.135,0.755,0.41,1.31,0.824,1.664s0.973,0.531,1.676,0.531
			c0.744,0,1.306-0.157,1.684-0.473c0.377-0.315,0.566-0.684,0.566-1.105c0-0.271-0.08-0.501-0.238-0.691
			c-0.159-0.19-0.437-0.355-0.832-0.496c-0.271-0.094-0.889-0.261-1.852-0.5c-1.24-0.308-2.109-0.685-2.609-1.133
			c-0.703-0.63-1.055-1.398-1.055-2.305c0-0.583,0.165-1.129,0.496-1.637c0.33-0.508,0.807-0.895,1.43-1.16
			c0.622-0.266,1.373-0.398,2.254-0.398c1.438,0,2.52,0.315,3.246,0.945s1.107,1.472,1.145,2.523l-2.313,0.102
			c-0.1-0.589-0.312-1.012-0.637-1.27c-0.326-0.258-0.814-0.387-1.465-0.387c-0.672,0-1.198,0.138-1.578,0.414
			c-0.245,0.177-0.367,0.414-0.367,0.711c0,0.271,0.114,0.503,0.344,0.695c0.291,0.245,1,0.5,2.125,0.766s1.957,0.54,2.496,0.824
			s0.961,0.672,1.266,1.164s0.457,1.101,0.457,1.824c0,0.656-0.183,1.271-0.547,1.844c-0.365,0.573-0.881,0.999-1.547,1.277
			c-0.667,0.278-1.498,0.418-2.492,0.418c-1.448,0-2.561-0.335-3.336-1.004C402.605,149.697,402.141,148.722,401.991,147.44z"/>
		<path fill="#4D4D4F" d="M413.069,142.87h2.023v1.133c0.724-0.88,1.586-1.32,2.586-1.32c0.531,0,0.992,0.109,1.383,0.328
			s0.711,0.55,0.961,0.992c0.364-0.442,0.758-0.773,1.18-0.992s0.872-0.328,1.352-0.328c0.609,0,1.125,0.124,1.547,0.371
			s0.736,0.61,0.945,1.09c0.15,0.354,0.227,0.927,0.227,1.719v5.305h-2.195v-4.742c0-0.823-0.076-1.354-0.227-1.594
			c-0.203-0.313-0.516-0.469-0.938-0.469c-0.308,0-0.597,0.094-0.867,0.281c-0.271,0.188-0.467,0.462-0.586,0.824
			c-0.12,0.362-0.18,0.934-0.18,1.715v3.984h-2.195v-4.547c0-0.808-0.039-1.328-0.117-1.563s-0.199-0.409-0.363-0.523
			s-0.387-0.172-0.668-0.172c-0.339,0-0.644,0.091-0.914,0.273c-0.271,0.183-0.465,0.445-0.582,0.789s-0.176,0.914-0.176,1.711
			v4.031h-2.195L413.069,142.87L413.069,142.87z"/>
		<path fill="#4D4D4F" d="M426.952,146.901c0-0.729,0.18-1.435,0.539-2.117s0.868-1.203,1.527-1.563
			c0.658-0.359,1.395-0.539,2.207-0.539c1.255,0,2.283,0.407,3.086,1.223c0.802,0.815,1.203,1.845,1.203,3.09
			c0,1.255-0.405,2.296-1.215,3.121c-0.811,0.825-1.83,1.238-3.059,1.238c-0.761,0-1.486-0.172-2.176-0.516
			c-0.69-0.344-1.215-0.848-1.574-1.512S426.952,147.854,426.952,146.901z M429.202,147.019c0,0.823,0.195,1.453,0.586,1.891
			s0.872,0.656,1.445,0.656c0.572,0,1.053-0.219,1.441-0.656c0.388-0.438,0.582-1.073,0.582-1.906c0-0.813-0.194-1.438-0.582-1.875
			c-0.389-0.438-0.869-0.656-1.441-0.656c-0.573,0-1.055,0.219-1.445,0.656S429.202,146.195,429.202,147.019z"/>
		<path fill="#4D4D4F" d="M437.155,151.167v-11.453h2.195v6.078l2.57-2.922h2.703l-2.836,3.031l3.039,5.266h-2.367l-2.086-3.727
			l-1.023,1.07v2.656L437.155,151.167L437.155,151.167z"/>
		<path fill="#4D4D4F" d="M450.936,148.526l2.188,0.367c-0.281,0.802-0.726,1.413-1.332,1.832c-0.607,0.419-1.366,0.629-2.277,0.629
			c-1.443,0-2.511-0.472-3.203-1.414c-0.547-0.755-0.82-1.708-0.82-2.859c0-1.375,0.359-2.452,1.078-3.23s1.627-1.168,2.727-1.168
			c1.234,0,2.208,0.407,2.922,1.223c0.713,0.815,1.055,2.063,1.023,3.746h-5.5c0.016,0.651,0.192,1.157,0.531,1.52
			c0.338,0.362,0.76,0.543,1.266,0.543c0.344,0,0.633-0.094,0.867-0.281S450.816,148.943,450.936,148.526z M451.061,146.308
			c-0.016-0.636-0.18-1.118-0.492-1.449s-0.693-0.496-1.141-0.496c-0.479,0-0.875,0.175-1.188,0.523s-0.467,0.823-0.461,1.422
			L451.061,146.308L451.061,146.308z"/>
		<path fill="#4D4D4F" d="M457.131,151.167h-2.195v-8.297h2.039v1.18c0.349-0.558,0.662-0.925,0.941-1.102
			c0.278-0.177,0.595-0.266,0.949-0.266c0.5,0,0.981,0.138,1.445,0.414l-0.68,1.914c-0.37-0.239-0.714-0.359-1.031-0.359
			c-0.308,0-0.568,0.085-0.781,0.254c-0.214,0.169-0.382,0.476-0.504,0.918c-0.123,0.442-0.184,1.37-0.184,2.781L457.131,151.167
			L457.131,151.167z"/>
		<path fill="#4D4D4F" d="M464.741,142.87h1.219v-0.625c0-0.698,0.074-1.219,0.223-1.563s0.422-0.624,0.82-0.84
			s0.902-0.324,1.512-0.324c0.625,0,1.236,0.094,1.836,0.281l-0.297,1.531c-0.35-0.083-0.686-0.125-1.008-0.125
			c-0.318,0-0.546,0.074-0.684,0.223c-0.139,0.148-0.207,0.434-0.207,0.855v0.586h1.641v1.727h-1.641v6.57h-2.195v-6.57h-1.219
			V142.87z"/>
		<path fill="#4D4D4F" d="M470.522,146.901c0-0.729,0.18-1.435,0.539-2.117s0.868-1.203,1.527-1.563
			c0.658-0.359,1.395-0.539,2.207-0.539c1.255,0,2.283,0.407,3.086,1.223c0.802,0.815,1.203,1.845,1.203,3.09
			c0,1.255-0.405,2.296-1.215,3.121c-0.811,0.825-1.83,1.238-3.059,1.238c-0.761,0-1.486-0.172-2.176-0.516
			c-0.69-0.344-1.215-0.848-1.574-1.512S470.522,147.854,470.522,146.901z M472.772,147.019c0,0.823,0.195,1.453,0.586,1.891
			s0.872,0.656,1.445,0.656c0.572,0,1.053-0.219,1.441-0.656c0.388-0.438,0.582-1.073,0.582-1.906c0-0.813-0.194-1.438-0.582-1.875
			c-0.389-0.438-0.869-0.656-1.441-0.656c-0.573,0-1.055,0.219-1.445,0.656S472.772,146.195,472.772,147.019z"/>
		<path fill="#4D4D4F" d="M482.905,151.167h-2.195v-8.297h2.039v1.18c0.349-0.558,0.662-0.925,0.941-1.102
			c0.278-0.177,0.595-0.266,0.949-0.266c0.5,0,0.981,0.138,1.445,0.414l-0.68,1.914c-0.37-0.239-0.714-0.359-1.031-0.359
			c-0.308,0-0.568,0.085-0.781,0.254c-0.214,0.169-0.382,0.476-0.504,0.918c-0.123,0.442-0.184,1.37-0.184,2.781L482.905,151.167
			L482.905,151.167z"/>
		<path fill="#4D4D4F" d="M415.038,168.328v2.039h-7.695c0.083-0.771,0.333-1.501,0.75-2.191c0.416-0.69,1.239-1.605,2.469-2.746
			c0.989-0.922,1.596-1.547,1.82-1.875c0.302-0.453,0.453-0.901,0.453-1.344c0-0.489-0.132-0.866-0.395-1.129
			c-0.264-0.263-0.627-0.395-1.09-0.395c-0.459,0-0.823,0.138-1.094,0.414s-0.428,0.734-0.469,1.375l-2.188-0.219
			c0.13-1.208,0.539-2.075,1.227-2.602s1.547-0.789,2.578-0.789c1.13,0,2.018,0.305,2.664,0.914
			c0.646,0.609,0.969,1.367,0.969,2.273c0,0.516-0.093,1.007-0.277,1.473c-0.186,0.466-0.479,0.954-0.879,1.465
			c-0.266,0.339-0.745,0.825-1.438,1.461s-1.132,1.058-1.316,1.266c-0.186,0.208-0.335,0.411-0.449,0.609L415.038,168.328
			L415.038,168.328z"/>
		<path fill="#4D4D4F" d="M420.233,158.867c1.109,0,1.977,0.396,2.602,1.188c0.744,0.938,1.117,2.492,1.117,4.664
			c0,2.167-0.375,3.724-1.125,4.672c-0.62,0.781-1.484,1.172-2.594,1.172c-1.115,0-2.014-0.429-2.695-1.285
			c-0.683-0.856-1.023-2.384-1.023-4.582c0-2.156,0.375-3.708,1.125-4.656C418.258,159.258,419.124,158.867,420.233,158.867z
			 M420.233,160.688c-0.266,0-0.503,0.085-0.711,0.254c-0.209,0.169-0.37,0.473-0.484,0.91c-0.151,0.567-0.227,1.523-0.227,2.867
			s0.067,2.267,0.203,2.77c0.135,0.503,0.306,0.837,0.512,1.004c0.205,0.167,0.441,0.25,0.707,0.25s0.502-0.085,0.711-0.254
			c0.208-0.169,0.369-0.473,0.484-0.91c0.15-0.563,0.227-1.516,0.227-2.859s-0.068-2.267-0.203-2.77
			c-0.136-0.503-0.307-0.839-0.512-1.008C420.734,160.772,420.499,160.688,420.233,160.688z"/>
		<path fill="#4D4D4F" d="M428.405,168.719v-2.977h-3v-2.055h3v-2.977h2v2.977h3.008v2.055h-3.008v2.977H428.405z"/>
		<path fill="#4D4D4F" d="M438.639,162.07h2.336l1.984,5.891l1.938-5.891h2.273l-2.93,7.984l-0.523,1.445
			c-0.193,0.484-0.377,0.854-0.551,1.109c-0.175,0.255-0.375,0.462-0.602,0.621s-0.506,0.282-0.836,0.371
			c-0.331,0.089-0.705,0.133-1.121,0.133c-0.422,0-0.836-0.044-1.242-0.133l-0.195-1.719c0.344,0.067,0.653,0.102,0.93,0.102
			c0.51,0,0.888-0.149,1.133-0.449c0.244-0.3,0.432-0.681,0.563-1.145L438.639,162.07z"/>
		<path fill="#4D4D4F" d="M453.381,167.727l2.188,0.367c-0.281,0.802-0.726,1.413-1.332,1.832c-0.607,0.419-1.366,0.629-2.277,0.629
			c-1.443,0-2.511-0.472-3.203-1.414c-0.547-0.755-0.82-1.708-0.82-2.859c0-1.375,0.359-2.452,1.078-3.23s1.627-1.168,2.727-1.168
			c1.234,0,2.208,0.407,2.922,1.223c0.713,0.815,1.055,2.063,1.023,3.746h-5.5c0.016,0.651,0.192,1.157,0.531,1.52
			c0.338,0.362,0.76,0.543,1.266,0.543c0.344,0,0.633-0.094,0.867-0.281S453.261,168.144,453.381,167.727z M453.506,165.508
			c-0.016-0.636-0.18-1.118-0.492-1.449s-0.693-0.496-1.141-0.496c-0.479,0-0.875,0.175-1.188,0.523s-0.467,0.823-0.461,1.422
			L453.506,165.508L453.506,165.508z"/>
		<path fill="#4D4D4F" d="M459.116,164.602l-1.992-0.359c0.224-0.802,0.609-1.396,1.156-1.781s1.359-0.578,2.438-0.578
			c0.979,0,1.708,0.116,2.188,0.348c0.479,0.231,0.816,0.526,1.012,0.883s0.293,1.012,0.293,1.965l-0.023,2.563
			c0,0.729,0.035,1.267,0.105,1.613s0.201,0.718,0.395,1.113h-2.172c-0.058-0.146-0.128-0.362-0.211-0.648
			c-0.037-0.13-0.063-0.216-0.078-0.258c-0.375,0.364-0.776,0.638-1.203,0.82c-0.428,0.183-0.883,0.273-1.367,0.273
			c-0.854,0-1.527-0.231-2.02-0.695s-0.738-1.05-0.738-1.758c0-0.469,0.111-0.887,0.336-1.254c0.224-0.367,0.537-0.648,0.941-0.844
			c0.403-0.195,0.985-0.366,1.746-0.512c1.025-0.192,1.736-0.372,2.133-0.539v-0.219c0-0.422-0.104-0.723-0.313-0.902
			c-0.209-0.18-0.602-0.27-1.18-0.27c-0.391,0-0.695,0.077-0.914,0.23S459.25,164.216,459.116,164.602z M462.053,166.383
			c-0.281,0.094-0.727,0.206-1.336,0.336s-1.008,0.258-1.195,0.383c-0.287,0.203-0.43,0.461-0.43,0.773
			c0,0.308,0.114,0.573,0.344,0.797c0.229,0.224,0.521,0.336,0.875,0.336c0.396,0,0.773-0.13,1.133-0.391
			c0.266-0.198,0.439-0.44,0.523-0.727c0.057-0.188,0.086-0.544,0.086-1.07V166.383z"/>
		<path fill="#4D4D4F" d="M468.475,170.367h-2.195v-8.297h2.039v1.18c0.349-0.558,0.662-0.925,0.941-1.102
			c0.278-0.177,0.595-0.266,0.949-0.266c0.5,0,0.981,0.138,1.445,0.414l-0.68,1.914c-0.37-0.239-0.714-0.359-1.031-0.359
			c-0.308,0-0.568,0.085-0.781,0.254c-0.214,0.169-0.382,0.476-0.504,0.918c-0.123,0.442-0.184,1.37-0.184,2.781L468.475,170.367
			L468.475,170.367z"/>
		<path fill="#4D4D4F" d="M471.827,168l2.203-0.336c0.094,0.427,0.283,0.751,0.57,0.973c0.286,0.222,0.688,0.332,1.203,0.332
			c0.567,0,0.994-0.104,1.281-0.313c0.192-0.146,0.289-0.341,0.289-0.586c0-0.167-0.053-0.305-0.156-0.414
			c-0.109-0.104-0.354-0.2-0.734-0.289c-1.771-0.391-2.894-0.747-3.367-1.07c-0.656-0.448-0.984-1.07-0.984-1.867
			c0-0.719,0.283-1.323,0.852-1.813c0.567-0.489,1.447-0.734,2.641-0.734c1.135,0,1.979,0.185,2.531,0.555s0.932,0.917,1.141,1.641
			l-2.07,0.383c-0.089-0.323-0.257-0.57-0.504-0.742c-0.248-0.172-0.601-0.258-1.059-0.258c-0.578,0-0.992,0.081-1.242,0.242
			c-0.167,0.114-0.25,0.263-0.25,0.445c0,0.156,0.072,0.289,0.219,0.398c0.197,0.146,0.881,0.352,2.051,0.617
			c1.169,0.266,1.985,0.591,2.449,0.977c0.458,0.391,0.688,0.935,0.688,1.633c0,0.761-0.318,1.414-0.953,1.961
			c-0.636,0.547-1.576,0.82-2.82,0.82c-1.131,0-2.025-0.229-2.684-0.688C472.46,169.409,472.03,168.786,471.827,168z"/>
	</g>
	<g>
		<path fill="#4D4D4F" d="M575.236,139.714h2.313v6.203c0,0.984,0.028,1.622,0.086,1.914c0.099,0.469,0.334,0.845,0.707,1.129
			c0.372,0.284,0.881,0.426,1.527,0.426c0.656,0,1.15-0.134,1.484-0.402c0.333-0.269,0.533-0.598,0.602-0.988
			c0.067-0.391,0.102-1.039,0.102-1.945v-6.336h2.313v6.016c0,1.375-0.063,2.347-0.188,2.914s-0.355,1.047-0.691,1.438
			s-0.785,0.702-1.348,0.934s-1.297,0.348-2.203,0.348c-1.094,0-1.924-0.126-2.488-0.379c-0.565-0.253-1.012-0.581-1.34-0.984
			s-0.545-0.827-0.648-1.27c-0.151-0.656-0.227-1.625-0.227-2.906L575.236,139.714L575.236,139.714z"/>
		<path fill="#4D4D4F" d="M594.337,151.167h-2.195v-4.234c0-0.896-0.047-1.476-0.141-1.738s-0.246-0.468-0.457-0.613
			s-0.465-0.219-0.762-0.219c-0.381,0-0.722,0.104-1.023,0.313c-0.303,0.208-0.51,0.484-0.621,0.828
			c-0.112,0.344-0.168,0.979-0.168,1.906v3.758h-2.195v-8.297h2.039v1.219c0.724-0.938,1.635-1.406,2.734-1.406
			c0.484,0,0.927,0.087,1.328,0.262c0.4,0.175,0.704,0.397,0.91,0.668c0.205,0.271,0.349,0.578,0.43,0.922
			c0.08,0.344,0.121,0.836,0.121,1.477L594.337,151.167L594.337,151.167z"/>
		<path fill="#4D4D4F" d="M598.666,151.167h-2.195v-8.297h2.039v1.18c0.349-0.558,0.662-0.925,0.941-1.102
			c0.278-0.177,0.595-0.266,0.949-0.266c0.5,0,0.981,0.138,1.445,0.414l-0.68,1.914c-0.37-0.239-0.714-0.359-1.031-0.359
			c-0.308,0-0.568,0.085-0.781,0.254c-0.214,0.169-0.382,0.476-0.504,0.918c-0.123,0.442-0.184,1.37-0.184,2.781v2.563H598.666z"/>
		<path fill="#4D4D4F" d="M607.595,148.526l2.188,0.367c-0.281,0.802-0.726,1.413-1.332,1.832c-0.607,0.419-1.366,0.629-2.277,0.629
			c-1.443,0-2.511-0.472-3.203-1.414c-0.547-0.755-0.82-1.708-0.82-2.859c0-1.375,0.359-2.452,1.078-3.23s1.627-1.168,2.727-1.168
			c1.234,0,2.208,0.407,2.922,1.223c0.713,0.815,1.055,2.063,1.023,3.746h-5.5c0.016,0.651,0.192,1.157,0.531,1.52
			c0.338,0.362,0.76,0.543,1.266,0.543c0.344,0,0.633-0.094,0.867-0.281S607.475,148.943,607.595,148.526z M607.72,146.308
			c-0.016-0.636-0.18-1.118-0.492-1.449s-0.693-0.496-1.141-0.496c-0.479,0-0.875,0.175-1.188,0.523s-0.467,0.823-0.461,1.422
			L607.72,146.308L607.72,146.308z"/>
		<path fill="#4D4D4F" d="M610.916,148.8l2.203-0.336c0.094,0.427,0.283,0.751,0.57,0.973c0.286,0.222,0.688,0.332,1.203,0.332
			c0.567,0,0.994-0.104,1.281-0.313c0.192-0.146,0.289-0.341,0.289-0.586c0-0.167-0.053-0.305-0.156-0.414
			c-0.109-0.104-0.354-0.2-0.734-0.289c-1.771-0.391-2.894-0.747-3.367-1.07c-0.656-0.448-0.984-1.07-0.984-1.867
			c0-0.719,0.283-1.323,0.852-1.813c0.567-0.489,1.447-0.734,2.641-0.734c1.135,0,1.979,0.185,2.531,0.555s0.932,0.917,1.141,1.641
			l-2.07,0.383c-0.089-0.323-0.257-0.57-0.504-0.742c-0.248-0.172-0.601-0.258-1.059-0.258c-0.578,0-0.992,0.081-1.242,0.242
			c-0.167,0.114-0.25,0.263-0.25,0.445c0,0.156,0.072,0.289,0.219,0.398c0.197,0.146,0.881,0.352,2.051,0.617
			c1.169,0.266,1.985,0.591,2.449,0.977c0.458,0.391,0.688,0.935,0.688,1.633c0,0.761-0.318,1.414-0.953,1.961
			c-0.636,0.547-1.576,0.82-2.82,0.82c-1.131,0-2.025-0.229-2.684-0.688C611.549,150.209,611.119,149.586,610.916,148.8z"/>
		<path fill="#4D4D4F" d="M625.392,148.526l2.188,0.367c-0.281,0.802-0.726,1.413-1.332,1.832c-0.607,0.419-1.366,0.629-2.277,0.629
			c-1.443,0-2.511-0.472-3.203-1.414c-0.547-0.755-0.82-1.708-0.82-2.859c0-1.375,0.359-2.452,1.078-3.23s1.627-1.168,2.727-1.168
			c1.234,0,2.208,0.407,2.922,1.223c0.713,0.815,1.055,2.063,1.023,3.746h-5.5c0.016,0.651,0.192,1.157,0.531,1.52
			c0.338,0.362,0.76,0.543,1.266,0.543c0.344,0,0.633-0.094,0.867-0.281S625.272,148.943,625.392,148.526z M625.517,146.308
			c-0.016-0.636-0.18-1.118-0.492-1.449s-0.693-0.496-1.141-0.496c-0.479,0-0.875,0.175-1.188,0.523s-0.467,0.823-0.461,1.422
			L625.517,146.308L625.517,146.308z"/>
		<path fill="#4D4D4F" d="M636.72,145.323l-2.164,0.391c-0.073-0.433-0.238-0.758-0.496-0.977s-0.593-0.328-1.004-0.328
			c-0.547,0-0.983,0.188-1.309,0.566c-0.326,0.378-0.488,1.009-0.488,1.895c0,0.984,0.165,1.68,0.496,2.086
			c0.33,0.406,0.774,0.609,1.332,0.609c0.416,0,0.758-0.118,1.023-0.355s0.453-0.645,0.563-1.223l2.156,0.367
			c-0.225,0.989-0.654,1.737-1.289,2.242c-0.636,0.505-1.487,0.758-2.555,0.758c-1.214,0-2.182-0.383-2.902-1.148
			c-0.722-0.766-1.082-1.825-1.082-3.18c0-1.37,0.361-2.437,1.086-3.199c0.724-0.763,1.703-1.145,2.938-1.145
			c1.01,0,1.813,0.218,2.41,0.652C636.031,143.77,636.459,144.433,636.72,145.323z"/>
		<path fill="#4D4D4F" d="M642.189,142.87v1.75h-1.5v3.344c0,0.677,0.014,1.071,0.043,1.184c0.028,0.112,0.094,0.204,0.195,0.277
			s0.225,0.109,0.371,0.109c0.203,0,0.497-0.07,0.883-0.211l0.188,1.703c-0.511,0.219-1.089,0.328-1.734,0.328
			c-0.396,0-0.753-0.066-1.07-0.199c-0.318-0.133-0.551-0.305-0.699-0.516s-0.252-0.496-0.309-0.855
			c-0.047-0.255-0.07-0.771-0.07-1.547v-3.617h-1.008v-1.75h1.008v-1.648l2.203-1.281v2.93L642.189,142.87L642.189,142.87z"/>
		<path fill="#4D4D4F" d="M645.353,145.401l-1.992-0.359c0.224-0.802,0.609-1.396,1.156-1.781s1.359-0.578,2.438-0.578
			c0.979,0,1.708,0.116,2.188,0.348c0.479,0.231,0.816,0.526,1.012,0.883s0.293,1.012,0.293,1.965l-0.023,2.563
			c0,0.729,0.035,1.267,0.105,1.613s0.201,0.718,0.395,1.113h-2.172c-0.058-0.146-0.128-0.362-0.211-0.648
			c-0.037-0.13-0.063-0.216-0.078-0.258c-0.375,0.364-0.776,0.638-1.203,0.82c-0.428,0.183-0.883,0.273-1.367,0.273
			c-0.854,0-1.527-0.231-2.02-0.695s-0.738-1.05-0.738-1.758c0-0.469,0.111-0.887,0.336-1.254c0.224-0.367,0.537-0.648,0.941-0.844
			c0.403-0.195,0.985-0.366,1.746-0.512c1.025-0.192,1.736-0.372,2.133-0.539v-0.219c0-0.422-0.104-0.723-0.313-0.902
			c-0.209-0.18-0.602-0.27-1.18-0.27c-0.391,0-0.695,0.077-0.914,0.23S645.488,145.016,645.353,145.401z M648.291,147.183
			c-0.281,0.094-0.727,0.206-1.336,0.336s-1.008,0.258-1.195,0.383c-0.287,0.203-0.43,0.461-0.43,0.773
			c0,0.308,0.114,0.573,0.344,0.797c0.229,0.224,0.521,0.336,0.875,0.336c0.396,0,0.773-0.13,1.133-0.391
			c0.266-0.198,0.439-0.44,0.523-0.727c0.057-0.188,0.086-0.544,0.086-1.07V147.183z"/>
		<path fill="#4D4D4F" d="M652.517,151.167v-11.453h2.195v4.125c0.677-0.771,1.479-1.156,2.406-1.156
			c1.01,0,1.846,0.366,2.508,1.098c0.661,0.731,0.992,1.782,0.992,3.152c0,1.417-0.338,2.508-1.012,3.273
			c-0.675,0.766-1.494,1.148-2.457,1.148c-0.475,0-0.941-0.118-1.402-0.355s-0.858-0.587-1.191-1.051v1.219L652.517,151.167
			L652.517,151.167z M654.697,146.839c0,0.859,0.135,1.495,0.406,1.906c0.38,0.583,0.885,0.875,1.516,0.875
			c0.484,0,0.896-0.207,1.238-0.621c0.341-0.414,0.512-1.066,0.512-1.957c0-0.948-0.172-1.632-0.516-2.051s-0.784-0.629-1.32-0.629
			c-0.526,0-0.964,0.204-1.313,0.613C654.871,145.385,654.697,146.006,654.697,146.839z"/>
		<path fill="#4D4D4F" d="M662.384,151.167v-11.453h2.195v11.453H662.384z"/>
		<path fill="#4D4D4F" d="M671.634,148.526l2.188,0.367c-0.281,0.802-0.726,1.413-1.332,1.832c-0.607,0.419-1.366,0.629-2.277,0.629
			c-1.443,0-2.511-0.472-3.203-1.414c-0.547-0.755-0.82-1.708-0.82-2.859c0-1.375,0.359-2.452,1.078-3.23s1.627-1.168,2.727-1.168
			c1.234,0,2.208,0.407,2.922,1.223c0.713,0.815,1.055,2.063,1.023,3.746h-5.5c0.016,0.651,0.192,1.157,0.531,1.52
			c0.338,0.362,0.76,0.543,1.266,0.543c0.344,0,0.633-0.094,0.867-0.281S671.514,148.943,671.634,148.526z M671.759,146.308
			c-0.016-0.636-0.18-1.118-0.492-1.449s-0.693-0.496-1.141-0.496c-0.479,0-0.875,0.175-1.188,0.523s-0.467,0.823-0.461,1.422
			L671.759,146.308L671.759,146.308z"/>
		<path fill="#4D4D4F" d="M562.658,166.641l2.25-0.219c0.135,0.755,0.41,1.31,0.824,1.664s0.973,0.531,1.676,0.531
			c0.744,0,1.306-0.157,1.684-0.473c0.377-0.315,0.566-0.684,0.566-1.105c0-0.271-0.08-0.501-0.238-0.691
			c-0.159-0.19-0.437-0.355-0.832-0.496c-0.271-0.094-0.889-0.261-1.852-0.5c-1.24-0.308-2.109-0.685-2.609-1.133
			c-0.703-0.63-1.055-1.398-1.055-2.305c0-0.583,0.165-1.129,0.496-1.637c0.33-0.508,0.807-0.895,1.43-1.16
			c0.622-0.266,1.373-0.398,2.254-0.398c1.438,0,2.52,0.315,3.246,0.945s1.107,1.472,1.145,2.523l-2.313,0.102
			c-0.1-0.589-0.312-1.012-0.637-1.27c-0.326-0.258-0.814-0.387-1.465-0.387c-0.672,0-1.198,0.138-1.578,0.414
			c-0.245,0.177-0.367,0.414-0.367,0.711c0,0.271,0.114,0.503,0.344,0.695c0.291,0.245,1,0.5,2.125,0.766s1.957,0.54,2.496,0.824
			s0.961,0.672,1.266,1.164s0.457,1.101,0.457,1.824c0,0.656-0.183,1.271-0.547,1.844c-0.365,0.573-0.881,0.999-1.547,1.277
			c-0.667,0.278-1.498,0.418-2.492,0.418c-1.448,0-2.561-0.335-3.336-1.004C563.272,168.897,562.808,167.922,562.658,166.641z"/>
		<path fill="#4D4D4F" d="M577.705,162.07v1.75h-1.5v3.344c0,0.677,0.014,1.071,0.043,1.184c0.028,0.112,0.094,0.204,0.195,0.277
			s0.225,0.109,0.371,0.109c0.203,0,0.497-0.07,0.883-0.211l0.188,1.703c-0.511,0.219-1.089,0.328-1.734,0.328
			c-0.396,0-0.753-0.066-1.07-0.199c-0.318-0.133-0.551-0.305-0.699-0.516s-0.252-0.496-0.309-0.855
			c-0.047-0.255-0.07-0.771-0.07-1.547v-3.617h-1.008v-1.75h1.008v-1.648l2.203-1.281v2.93L577.705,162.07L577.705,162.07z"/>
		<path fill="#4D4D4F" d="M580.869,164.602l-1.992-0.359c0.224-0.802,0.609-1.396,1.156-1.781s1.359-0.578,2.438-0.578
			c0.979,0,1.708,0.116,2.188,0.348c0.479,0.231,0.816,0.526,1.012,0.883s0.293,1.012,0.293,1.965l-0.023,2.563
			c0,0.729,0.035,1.267,0.105,1.613s0.201,0.718,0.395,1.113h-2.172c-0.058-0.146-0.128-0.362-0.211-0.648
			c-0.037-0.13-0.063-0.216-0.078-0.258c-0.375,0.364-0.776,0.638-1.203,0.82c-0.428,0.183-0.883,0.273-1.367,0.273
			c-0.854,0-1.527-0.231-2.02-0.695s-0.738-1.05-0.738-1.758c0-0.469,0.111-0.887,0.336-1.254c0.224-0.367,0.537-0.648,0.941-0.844
			c0.403-0.195,0.985-0.366,1.746-0.512c1.025-0.192,1.736-0.372,2.133-0.539v-0.219c0-0.422-0.104-0.723-0.313-0.902
			c-0.209-0.18-0.602-0.27-1.18-0.27c-0.391,0-0.695,0.077-0.914,0.23S581.003,164.216,580.869,164.602z M583.806,166.383
			c-0.281,0.094-0.727,0.206-1.336,0.336s-1.008,0.258-1.195,0.383c-0.287,0.203-0.43,0.461-0.43,0.773
			c0,0.308,0.114,0.573,0.344,0.797c0.229,0.224,0.521,0.336,0.875,0.336c0.396,0,0.773-0.13,1.133-0.391
			c0.266-0.198,0.439-0.44,0.523-0.727c0.057-0.188,0.086-0.544,0.086-1.07V166.383z"/>
		<path fill="#4D4D4F" d="M587.923,170.914l2.508,0.305c0.041,0.292,0.138,0.492,0.289,0.602c0.208,0.156,0.536,0.234,0.984,0.234
			c0.572,0,1.002-0.086,1.289-0.258c0.192-0.114,0.338-0.3,0.438-0.555c0.067-0.183,0.102-0.519,0.102-1.008v-1.211
			c-0.656,0.896-1.484,1.344-2.484,1.344c-1.115,0-1.998-0.472-2.648-1.414c-0.511-0.745-0.766-1.672-0.766-2.781
			c0-1.391,0.334-2.453,1.004-3.188c0.669-0.734,1.501-1.102,2.496-1.102c1.025,0,1.872,0.45,2.539,1.352v-1.164h2.055v7.445
			c0,0.979-0.081,1.711-0.242,2.195c-0.162,0.484-0.389,0.864-0.68,1.141c-0.292,0.276-0.682,0.492-1.168,0.648
			c-0.487,0.156-1.104,0.234-1.848,0.234c-1.406,0-2.404-0.241-2.992-0.723c-0.589-0.481-0.883-1.093-0.883-1.832
			C587.916,171.106,587.917,171.019,587.923,170.914z M589.884,166.047c0,0.88,0.17,1.524,0.512,1.934
			c0.341,0.409,0.762,0.613,1.262,0.613c0.536,0,0.989-0.21,1.359-0.629c0.369-0.419,0.555-1.04,0.555-1.863
			c0-0.859-0.178-1.497-0.531-1.914c-0.354-0.417-0.803-0.625-1.344-0.625c-0.526,0-0.96,0.204-1.301,0.613
			C590.054,164.585,589.884,165.208,589.884,166.047z"/>
		<path fill="#4D4D4F" d="M602.705,167.727l2.188,0.367c-0.281,0.802-0.726,1.413-1.332,1.832c-0.607,0.419-1.366,0.629-2.277,0.629
			c-1.443,0-2.511-0.472-3.203-1.414c-0.547-0.755-0.82-1.708-0.82-2.859c0-1.375,0.359-2.452,1.078-3.23s1.627-1.168,2.727-1.168
			c1.234,0,2.208,0.407,2.922,1.223c0.713,0.815,1.055,2.063,1.023,3.746h-5.5c0.016,0.651,0.192,1.157,0.531,1.52
			c0.338,0.362,0.76,0.543,1.266,0.543c0.344,0,0.633-0.094,0.867-0.281S602.584,168.144,602.705,167.727z M602.83,165.508
			c-0.016-0.636-0.18-1.118-0.492-1.449s-0.693-0.496-1.141-0.496c-0.479,0-0.875,0.175-1.188,0.523s-0.467,0.823-0.461,1.422
			L602.83,165.508L602.83,165.508z"/>
		<path fill="#4D4D4F" d="M611.189,170.367v-11.453h2.313v11.453H611.189z"/>
		<path fill="#4D4D4F" d="M615.634,170.367v-11.453h2.313v11.453H615.634z"/>
		<path fill="#4D4D4F" d="M620.08,170.367v-11.453h2.313v11.453H620.08z"/>
		<path fill="#4D4D4F" d="M636.634,170.367h-2.039v-1.219c-0.339,0.474-0.738,0.827-1.199,1.059s-0.926,0.348-1.395,0.348
			c-0.953,0-1.77-0.384-2.449-1.152s-1.02-1.84-1.02-3.215c0-1.406,0.33-2.476,0.992-3.207c0.661-0.731,1.497-1.098,2.508-1.098
			c0.927,0,1.729,0.386,2.406,1.156v-4.125h2.195L636.634,170.367L636.634,170.367z M630.775,166.039
			c0,0.886,0.122,1.526,0.367,1.922c0.354,0.573,0.849,0.859,1.484,0.859c0.505,0,0.935-0.215,1.289-0.645
			c0.354-0.43,0.531-1.071,0.531-1.926c0-0.953-0.172-1.64-0.516-2.059s-0.784-0.629-1.32-0.629c-0.521,0-0.957,0.207-1.309,0.621
			S630.775,165.216,630.775,166.039z"/>
		<path fill="#4D4D4F" d="M638.798,160.945v-2.031h2.195v2.031H638.798z M638.798,170.367v-8.297h2.195v8.297H638.798z"/>
		<path fill="#4D4D4F" d="M642.47,168l2.203-0.336c0.094,0.427,0.283,0.751,0.57,0.973c0.286,0.222,0.688,0.332,1.203,0.332
			c0.567,0,0.994-0.104,1.281-0.313c0.192-0.146,0.289-0.341,0.289-0.586c0-0.167-0.053-0.305-0.156-0.414
			c-0.109-0.104-0.354-0.2-0.734-0.289c-1.771-0.391-2.894-0.747-3.367-1.07c-0.656-0.448-0.984-1.07-0.984-1.867
			c0-0.719,0.283-1.323,0.852-1.813c0.567-0.489,1.447-0.734,2.641-0.734c1.135,0,1.979,0.185,2.531,0.555s0.932,0.917,1.141,1.641
			l-2.07,0.383c-0.089-0.323-0.257-0.57-0.504-0.742c-0.248-0.172-0.601-0.258-1.059-0.258c-0.578,0-0.992,0.081-1.242,0.242
			c-0.167,0.114-0.25,0.263-0.25,0.445c0,0.156,0.072,0.289,0.219,0.398c0.197,0.146,0.881,0.352,2.051,0.617
			c1.169,0.266,1.985,0.591,2.449,0.977c0.458,0.391,0.688,0.935,0.688,1.633c0,0.761-0.318,1.414-0.953,1.961
			c-0.636,0.547-1.576,0.82-2.82,0.82c-1.131,0-2.025-0.229-2.684-0.688C643.104,169.409,642.673,168.786,642.47,168z"/>
		<path fill="#4D4D4F" d="M656.947,167.727l2.188,0.367c-0.281,0.802-0.726,1.413-1.332,1.832c-0.607,0.419-1.366,0.629-2.277,0.629
			c-1.443,0-2.511-0.472-3.203-1.414c-0.547-0.755-0.82-1.708-0.82-2.859c0-1.375,0.359-2.452,1.078-3.23s1.627-1.168,2.727-1.168
			c1.234,0,2.208,0.407,2.922,1.223c0.713,0.815,1.055,2.063,1.023,3.746h-5.5c0.016,0.651,0.192,1.157,0.531,1.52
			c0.338,0.362,0.76,0.543,1.266,0.543c0.344,0,0.633-0.094,0.867-0.281S656.827,168.144,656.947,167.727z M657.072,165.508
			c-0.016-0.636-0.18-1.118-0.492-1.449s-0.693-0.496-1.141-0.496c-0.479,0-0.875,0.175-1.188,0.523s-0.467,0.823-0.461,1.422
			L657.072,165.508L657.072,165.508z"/>
		<path fill="#4D4D4F" d="M662.681,164.602l-1.992-0.359c0.224-0.802,0.609-1.396,1.156-1.781s1.359-0.578,2.438-0.578
			c0.979,0,1.708,0.116,2.188,0.348c0.479,0.231,0.816,0.526,1.012,0.883s0.293,1.012,0.293,1.965l-0.023,2.563
			c0,0.729,0.035,1.267,0.105,1.613s0.201,0.718,0.395,1.113h-2.172c-0.058-0.146-0.128-0.362-0.211-0.648
			c-0.037-0.13-0.063-0.216-0.078-0.258c-0.375,0.364-0.776,0.638-1.203,0.82c-0.428,0.183-0.883,0.273-1.367,0.273
			c-0.854,0-1.527-0.231-2.02-0.695s-0.738-1.05-0.738-1.758c0-0.469,0.111-0.887,0.336-1.254c0.224-0.367,0.537-0.648,0.941-0.844
			c0.403-0.195,0.985-0.366,1.746-0.512c1.025-0.192,1.736-0.372,2.133-0.539v-0.219c0-0.422-0.104-0.723-0.313-0.902
			c-0.209-0.18-0.602-0.27-1.18-0.27c-0.391,0-0.695,0.077-0.914,0.23S662.816,164.216,662.681,164.602z M665.619,166.383
			c-0.281,0.094-0.727,0.206-1.336,0.336s-1.008,0.258-1.195,0.383c-0.287,0.203-0.43,0.461-0.43,0.773
			c0,0.308,0.114,0.573,0.344,0.797c0.229,0.224,0.521,0.336,0.875,0.336c0.396,0,0.773-0.13,1.133-0.391
			c0.266-0.198,0.439-0.44,0.523-0.727c0.057-0.188,0.086-0.544,0.086-1.07V166.383z"/>
		<path fill="#4D4D4F" d="M669.166,168l2.203-0.336c0.094,0.427,0.283,0.751,0.57,0.973c0.286,0.222,0.688,0.332,1.203,0.332
			c0.567,0,0.994-0.104,1.281-0.313c0.192-0.146,0.289-0.341,0.289-0.586c0-0.167-0.053-0.305-0.156-0.414
			c-0.109-0.104-0.354-0.2-0.734-0.289c-1.771-0.391-2.894-0.747-3.367-1.07c-0.656-0.448-0.984-1.07-0.984-1.867
			c0-0.719,0.283-1.323,0.852-1.813c0.567-0.489,1.447-0.734,2.641-0.734c1.135,0,1.979,0.185,2.531,0.555s0.932,0.917,1.141,1.641
			l-2.07,0.383c-0.089-0.323-0.257-0.57-0.504-0.742c-0.248-0.172-0.601-0.258-1.059-0.258c-0.578,0-0.992,0.081-1.242,0.242
			c-0.167,0.114-0.25,0.263-0.25,0.445c0,0.156,0.072,0.289,0.219,0.398c0.197,0.146,0.881,0.352,2.051,0.617
			c1.169,0.266,1.985,0.591,2.449,0.977c0.458,0.391,0.688,0.935,0.688,1.633c0,0.761-0.318,1.414-0.953,1.961
			c-0.636,0.547-1.576,0.82-2.82,0.82c-1.131,0-2.025-0.229-2.684-0.688C669.799,169.409,669.369,168.786,669.166,168z"/>
		<path fill="#4D4D4F" d="M683.642,167.727l2.188,0.367c-0.281,0.802-0.726,1.413-1.332,1.832c-0.607,0.419-1.366,0.629-2.277,0.629
			c-1.443,0-2.511-0.472-3.203-1.414c-0.547-0.755-0.82-1.708-0.82-2.859c0-1.375,0.359-2.452,1.078-3.23s1.627-1.168,2.727-1.168
			c1.234,0,2.208,0.407,2.922,1.223c0.713,0.815,1.055,2.063,1.023,3.746h-5.5c0.016,0.651,0.192,1.157,0.531,1.52
			c0.338,0.362,0.76,0.543,1.266,0.543c0.344,0,0.633-0.094,0.867-0.281S683.522,168.144,683.642,167.727z M683.767,165.508
			c-0.016-0.636-0.18-1.118-0.492-1.449s-0.693-0.496-1.141-0.496c-0.479,0-0.875,0.175-1.188,0.523s-0.467,0.823-0.461,1.422
			L683.767,165.508L683.767,165.508z"/>
	</g>
	<g>
		<path fill="#4D4D4F" d="M557.689,323.964h4.578c0.906,0,1.582,0.038,2.027,0.113s0.844,0.233,1.195,0.473s0.645,0.559,0.879,0.957
			s0.352,0.845,0.352,1.34c0,0.536-0.145,1.028-0.434,1.477s-0.682,0.784-1.176,1.008c0.697,0.203,1.234,0.55,1.609,1.039
			s0.563,1.065,0.563,1.727c0,0.521-0.121,1.027-0.363,1.52s-0.573,0.886-0.992,1.18c-0.42,0.294-0.937,0.476-1.551,0.543
			c-0.386,0.042-1.315,0.067-2.789,0.078h-3.898L557.689,323.964L557.689,323.964z M560.001,325.87v2.648h1.516
			c0.9,0,1.461-0.013,1.68-0.039c0.396-0.047,0.707-0.184,0.934-0.41s0.34-0.524,0.34-0.895c0-0.354-0.098-0.642-0.293-0.863
			s-0.486-0.355-0.871-0.402c-0.229-0.026-0.889-0.039-1.977-0.039H560.001z M560.001,330.425v3.063h2.141
			c0.833,0,1.361-0.023,1.586-0.07c0.344-0.063,0.623-0.215,0.84-0.457c0.216-0.242,0.324-0.566,0.324-0.973
			c0-0.344-0.084-0.636-0.25-0.875c-0.167-0.239-0.408-0.414-0.723-0.523s-0.999-0.164-2.051-0.164L560.001,330.425L560.001,330.425
			z"/>
		<path fill="#4D4D4F" d="M569.22,325.995v-2.031h2.195v2.031H569.22z M569.22,335.417v-8.297h2.195v8.297H569.22z"/>
		<path fill="#4D4D4F" d="M573.158,331.151c0-0.729,0.18-1.435,0.539-2.117s0.868-1.203,1.527-1.563
			c0.658-0.359,1.395-0.539,2.207-0.539c1.255,0,2.283,0.407,3.086,1.223c0.802,0.815,1.203,1.845,1.203,3.09
			c0,1.255-0.405,2.296-1.215,3.121c-0.811,0.825-1.83,1.238-3.059,1.238c-0.761,0-1.486-0.172-2.176-0.516
			s-1.215-0.848-1.574-1.512S573.158,332.104,573.158,331.151z M575.408,331.269c0,0.823,0.195,1.453,0.586,1.891
			s0.872,0.656,1.445,0.656c0.572,0,1.053-0.219,1.441-0.656c0.388-0.438,0.582-1.073,0.582-1.906c0-0.813-0.194-1.438-0.582-1.875
			c-0.389-0.438-0.869-0.656-1.441-0.656c-0.573,0-1.055,0.219-1.445,0.656S575.408,330.445,575.408,331.269z"/>
		<path fill="#4D4D4F" d="M583.376,327.12h2.047v1.219c0.266-0.417,0.625-0.755,1.078-1.016s0.955-0.391,1.508-0.391
			c0.963,0,1.781,0.378,2.453,1.133s1.008,1.808,1.008,3.156c0,1.386-0.339,2.462-1.016,3.23c-0.678,0.769-1.498,1.152-2.461,1.152
			c-0.459,0-0.874-0.091-1.246-0.273c-0.373-0.183-0.765-0.495-1.176-0.938v4.18h-2.195V327.12z M585.548,331.128
			c0,0.933,0.185,1.621,0.555,2.066c0.369,0.445,0.82,0.668,1.352,0.668c0.51,0,0.935-0.204,1.273-0.613s0.508-1.079,0.508-2.012
			c0-0.87-0.175-1.516-0.523-1.938c-0.35-0.422-0.781-0.633-1.297-0.633c-0.537,0-0.982,0.207-1.336,0.621
			C585.725,329.702,585.548,330.315,585.548,331.128z"/>
		<path fill="#4D4D4F" d="M592.439,333.05l2.203-0.336c0.094,0.427,0.283,0.751,0.57,0.973c0.286,0.222,0.688,0.332,1.203,0.332
			c0.567,0,0.994-0.104,1.281-0.313c0.192-0.146,0.289-0.341,0.289-0.586c0-0.167-0.053-0.305-0.156-0.414
			c-0.109-0.104-0.354-0.2-0.734-0.289c-1.771-0.391-2.894-0.747-3.367-1.07c-0.656-0.448-0.984-1.07-0.984-1.867
			c0-0.719,0.283-1.323,0.852-1.813c0.567-0.489,1.447-0.734,2.641-0.734c1.135,0,1.979,0.185,2.531,0.555s0.932,0.917,1.141,1.641
			l-2.07,0.383c-0.089-0.323-0.257-0.57-0.504-0.742c-0.248-0.172-0.601-0.258-1.059-0.258c-0.578,0-0.992,0.081-1.242,0.242
			c-0.167,0.114-0.25,0.263-0.25,0.445c0,0.156,0.072,0.289,0.219,0.398c0.197,0.146,0.881,0.352,2.051,0.617
			c1.169,0.266,1.985,0.591,2.449,0.977c0.458,0.391,0.688,0.935,0.688,1.633c0,0.761-0.318,1.414-0.953,1.961
			c-0.636,0.547-1.576,0.82-2.82,0.82c-1.131,0-2.025-0.229-2.684-0.688C593.073,334.459,592.642,333.836,592.439,333.05z"/>
		<path fill="#4D4D4F" d="M601.072,327.12h2.336l1.984,5.891l1.938-5.891h2.273l-2.93,7.984l-0.523,1.445
			c-0.193,0.484-0.377,0.854-0.551,1.109c-0.175,0.255-0.375,0.462-0.602,0.621s-0.506,0.282-0.836,0.371
			c-0.331,0.089-0.705,0.133-1.121,0.133c-0.422,0-0.836-0.044-1.242-0.133l-0.195-1.719c0.344,0.067,0.653,0.102,0.93,0.102
			c0.51,0,0.888-0.149,1.133-0.449c0.244-0.3,0.432-0.681,0.563-1.145L601.072,327.12z"/>
		<path fill="#4D4D4F" d="M622.689,329.573l-2.164,0.391c-0.073-0.433-0.238-0.758-0.496-0.977s-0.593-0.328-1.004-0.328
			c-0.547,0-0.983,0.188-1.309,0.566c-0.326,0.378-0.488,1.009-0.488,1.895c0,0.984,0.165,1.68,0.496,2.086
			c0.33,0.406,0.774,0.609,1.332,0.609c0.416,0,0.758-0.118,1.023-0.355s0.453-0.645,0.563-1.223l2.156,0.367
			c-0.225,0.989-0.654,1.737-1.289,2.242c-0.636,0.505-1.487,0.758-2.555,0.758c-1.214,0-2.182-0.383-2.902-1.148
			c-0.722-0.766-1.082-1.825-1.082-3.18c0-1.37,0.361-2.437,1.086-3.199c0.724-0.763,1.703-1.145,2.938-1.145
			c1.01,0,1.813,0.218,2.41,0.652C622,328.02,622.428,328.683,622.689,329.573z"/>
		<path fill="#4D4D4F" d="M623.845,331.151c0-0.729,0.18-1.435,0.539-2.117s0.868-1.203,1.527-1.563
			c0.658-0.359,1.395-0.539,2.207-0.539c1.255,0,2.283,0.407,3.086,1.223c0.802,0.815,1.203,1.845,1.203,3.09
			c0,1.255-0.405,2.296-1.215,3.121c-0.811,0.825-1.83,1.238-3.059,1.238c-0.761,0-1.486-0.172-2.176-0.516
			s-1.215-0.848-1.574-1.512S623.845,332.104,623.845,331.151z M626.095,331.269c0,0.823,0.195,1.453,0.586,1.891
			s0.872,0.656,1.445,0.656c0.572,0,1.053-0.219,1.441-0.656c0.388-0.438,0.582-1.073,0.582-1.906c0-0.813-0.194-1.438-0.582-1.875
			c-0.389-0.438-0.869-0.656-1.441-0.656c-0.573,0-1.055,0.219-1.445,0.656S626.095,330.445,626.095,331.269z"/>
		<path fill="#4D4D4F" d="M641.673,335.417h-2.195v-4.234c0-0.896-0.047-1.476-0.141-1.738s-0.246-0.468-0.457-0.613
			s-0.465-0.219-0.762-0.219c-0.381,0-0.722,0.104-1.023,0.313c-0.303,0.208-0.51,0.484-0.621,0.828
			c-0.112,0.344-0.168,0.979-0.168,1.906v3.758h-2.195v-8.297h2.039v1.219c0.724-0.938,1.635-1.406,2.734-1.406
			c0.484,0,0.927,0.087,1.328,0.262c0.4,0.175,0.704,0.397,0.91,0.668c0.205,0.271,0.349,0.578,0.43,0.922
			c0.08,0.344,0.121,0.836,0.121,1.477L641.673,335.417L641.673,335.417z"/>
		<path fill="#4D4D4F" d="M642.939,327.12h1.219v-0.625c0-0.698,0.074-1.219,0.223-1.563s0.422-0.624,0.82-0.84
			s0.902-0.324,1.512-0.324c0.625,0,1.236,0.094,1.836,0.281l-0.297,1.531c-0.35-0.083-0.686-0.125-1.008-0.125
			c-0.318,0-0.546,0.074-0.684,0.223c-0.139,0.148-0.207,0.434-0.207,0.855v0.586h1.641v1.727h-1.641v6.57h-2.195v-6.57h-1.219
			L642.939,327.12L642.939,327.12z"/>
		<path fill="#4D4D4F" d="M649.228,325.995v-2.031h2.195v2.031H649.228z M649.228,335.417v-8.297h2.195v8.297H649.228z"/>
		<path fill="#4D4D4F" d="M655.775,335.417h-2.195v-8.297h2.039v1.18c0.349-0.558,0.662-0.925,0.941-1.102
			c0.278-0.177,0.595-0.266,0.949-0.266c0.5,0,0.981,0.138,1.445,0.414l-0.68,1.914c-0.37-0.239-0.714-0.359-1.031-0.359
			c-0.308,0-0.568,0.085-0.781,0.254c-0.214,0.169-0.382,0.476-0.504,0.918c-0.123,0.442-0.184,1.37-0.184,2.781v2.563H655.775z"/>
		<path fill="#4D4D4F" d="M659.736,327.12h2.023v1.133c0.724-0.88,1.586-1.32,2.586-1.32c0.531,0,0.992,0.109,1.383,0.328
			s0.711,0.55,0.961,0.992c0.364-0.442,0.758-0.773,1.18-0.992s0.872-0.328,1.352-0.328c0.609,0,1.125,0.124,1.547,0.371
			s0.736,0.61,0.945,1.09c0.15,0.354,0.227,0.927,0.227,1.719v5.305h-2.195v-4.742c0-0.823-0.076-1.354-0.227-1.594
			c-0.203-0.313-0.516-0.469-0.938-0.469c-0.308,0-0.597,0.094-0.867,0.281c-0.271,0.188-0.467,0.462-0.586,0.824
			c-0.12,0.362-0.18,0.934-0.18,1.715v3.984h-2.195v-4.547c0-0.808-0.039-1.328-0.117-1.563s-0.199-0.409-0.363-0.523
			s-0.387-0.172-0.668-0.172c-0.339,0-0.644,0.091-0.914,0.273c-0.271,0.183-0.465,0.445-0.582,0.789s-0.176,0.914-0.176,1.711
			v4.031h-2.195L659.736,327.12L659.736,327.12z"/>
		<path fill="#4D4D4F" d="M678.931,332.776l2.188,0.367c-0.281,0.802-0.726,1.413-1.332,1.832c-0.607,0.419-1.366,0.629-2.277,0.629
			c-1.443,0-2.511-0.472-3.203-1.414c-0.547-0.755-0.82-1.708-0.82-2.859c0-1.375,0.359-2.452,1.078-3.23s1.627-1.168,2.727-1.168
			c1.234,0,2.208,0.407,2.922,1.223c0.713,0.815,1.055,2.063,1.023,3.746h-5.5c0.016,0.651,0.192,1.157,0.531,1.52
			c0.338,0.362,0.76,0.543,1.266,0.543c0.344,0,0.633-0.094,0.867-0.281S678.811,333.193,678.931,332.776z M679.056,330.558
			c-0.016-0.636-0.18-1.118-0.492-1.449s-0.693-0.496-1.141-0.496c-0.479,0-0.875,0.175-1.188,0.523s-0.467,0.823-0.461,1.422
			H679.056z"/>
		<path fill="#4D4D4F" d="M690.634,335.417h-2.039v-1.219c-0.339,0.474-0.738,0.827-1.199,1.059s-0.926,0.348-1.395,0.348
			c-0.953,0-1.77-0.384-2.449-1.152s-1.02-1.84-1.02-3.215c0-1.406,0.33-2.476,0.992-3.207c0.661-0.731,1.497-1.098,2.508-1.098
			c0.927,0,1.729,0.386,2.406,1.156v-4.125h2.195L690.634,335.417L690.634,335.417z M684.775,331.089
			c0,0.886,0.122,1.526,0.367,1.922c0.354,0.573,0.849,0.859,1.484,0.859c0.505,0,0.935-0.215,1.289-0.645s0.531-1.071,0.531-1.926
			c0-0.953-0.172-1.64-0.516-2.059s-0.784-0.629-1.32-0.629c-0.521,0-0.957,0.207-1.309,0.621S684.775,330.266,684.775,331.089z"/>
	</g>
	<g>
		<path fill="#4D4D4F" d="M372.33,336.417v-11.453h3.711c1.406,0,2.322,0.058,2.75,0.172c0.656,0.172,1.205,0.546,1.648,1.121
			c0.442,0.575,0.664,1.319,0.664,2.23c0,0.703-0.128,1.294-0.383,1.773c-0.256,0.479-0.58,0.855-0.973,1.129
			c-0.394,0.273-0.793,0.454-1.199,0.543c-0.553,0.109-1.352,0.164-2.398,0.164h-1.508v4.32L372.33,336.417L372.33,336.417z
			 M374.642,326.901v3.25h1.266c0.911,0,1.521-0.06,1.828-0.18s0.548-0.308,0.723-0.563c0.174-0.255,0.262-0.552,0.262-0.891
			c0-0.417-0.123-0.761-0.367-1.031c-0.245-0.271-0.555-0.44-0.93-0.508c-0.276-0.052-0.831-0.078-1.664-0.078L374.642,326.901
			L374.642,326.901z"/>
		<path fill="#4D4D4F" d="M382.478,332.151c0-0.729,0.18-1.435,0.539-2.117s0.868-1.203,1.527-1.563
			c0.658-0.359,1.395-0.539,2.207-0.539c1.255,0,2.283,0.407,3.086,1.223c0.802,0.815,1.203,1.845,1.203,3.09
			c0,1.255-0.405,2.296-1.215,3.121c-0.811,0.825-1.83,1.238-3.059,1.238c-0.761,0-1.486-0.172-2.176-0.516
			s-1.215-0.848-1.574-1.512S382.478,333.104,382.478,332.151z M384.728,332.269c0,0.823,0.195,1.453,0.586,1.891
			s0.872,0.656,1.445,0.656c0.572,0,1.053-0.219,1.441-0.656c0.388-0.438,0.582-1.073,0.582-1.906c0-0.813-0.194-1.438-0.582-1.875
			c-0.389-0.438-0.869-0.656-1.441-0.656c-0.573,0-1.055,0.219-1.445,0.656S384.728,331.445,384.728,332.269z"/>
		<path fill="#4D4D4F" d="M391.986,334.05l2.203-0.336c0.094,0.427,0.283,0.751,0.57,0.973c0.286,0.222,0.688,0.332,1.203,0.332
			c0.567,0,0.994-0.104,1.281-0.313c0.192-0.146,0.289-0.341,0.289-0.586c0-0.167-0.053-0.305-0.156-0.414
			c-0.109-0.104-0.354-0.2-0.734-0.289c-1.771-0.391-2.894-0.747-3.367-1.07c-0.656-0.448-0.984-1.07-0.984-1.867
			c0-0.719,0.283-1.323,0.852-1.813c0.567-0.489,1.447-0.734,2.641-0.734c1.135,0,1.979,0.185,2.531,0.555s0.932,0.917,1.141,1.641
			l-2.07,0.383c-0.089-0.323-0.257-0.57-0.504-0.742c-0.248-0.172-0.601-0.258-1.059-0.258c-0.578,0-0.992,0.081-1.242,0.242
			c-0.167,0.114-0.25,0.263-0.25,0.445c0,0.156,0.072,0.289,0.219,0.398c0.197,0.146,0.881,0.352,2.051,0.617
			c1.169,0.266,1.985,0.591,2.449,0.977c0.458,0.391,0.688,0.935,0.688,1.633c0,0.761-0.318,1.414-0.953,1.961
			c-0.636,0.547-1.576,0.82-2.82,0.82c-1.131,0-2.025-0.229-2.684-0.688C392.62,335.459,392.189,334.836,391.986,334.05z"/>
		<path fill="#4D4D4F" d="M401.658,326.995v-2.031h2.195v2.031H401.658z M401.658,336.417v-8.297h2.195v8.297H401.658z"/>
		<path fill="#4D4D4F" d="M409.908,328.12v1.75h-1.5v3.344c0,0.677,0.014,1.071,0.043,1.184c0.028,0.112,0.094,0.204,0.195,0.277
			s0.225,0.109,0.371,0.109c0.203,0,0.497-0.07,0.883-0.211l0.188,1.703c-0.511,0.219-1.089,0.328-1.734,0.328
			c-0.396,0-0.753-0.066-1.07-0.199c-0.318-0.133-0.551-0.305-0.699-0.516s-0.252-0.496-0.309-0.855
			c-0.047-0.255-0.07-0.771-0.07-1.547v-3.617h-1.008v-1.75h1.008v-1.648l2.203-1.281v2.93L409.908,328.12L409.908,328.12z"/>
		<path fill="#4D4D4F" d="M411.431,326.995v-2.031h2.195v2.031H411.431z M411.431,336.417v-8.297h2.195v8.297H411.431z"/>
		<path fill="#4D4D4F" d="M418.158,336.417l-3.344-8.297h2.305l1.563,4.234l0.453,1.414c0.119-0.359,0.195-0.597,0.227-0.711
			c0.072-0.234,0.15-0.469,0.234-0.703l1.578-4.234h2.258l-3.297,8.297H418.158z"/>
		<path fill="#4D4D4F" d="M429.58,333.776l2.188,0.367c-0.281,0.802-0.726,1.413-1.332,1.832c-0.607,0.419-1.366,0.629-2.277,0.629
			c-1.443,0-2.511-0.472-3.203-1.414c-0.547-0.755-0.82-1.708-0.82-2.859c0-1.375,0.359-2.452,1.078-3.23s1.627-1.168,2.727-1.168
			c1.234,0,2.208,0.407,2.922,1.223c0.713,0.815,1.055,2.063,1.023,3.746h-5.5c0.016,0.651,0.192,1.157,0.531,1.52
			c0.338,0.362,0.76,0.543,1.266,0.543c0.344,0,0.633-0.094,0.867-0.281S429.459,334.193,429.58,333.776z M429.705,331.558
			c-0.016-0.636-0.18-1.118-0.492-1.449s-0.693-0.496-1.141-0.496c-0.479,0-0.875,0.175-1.188,0.523s-0.467,0.823-0.461,1.422
			H429.705z"/>
		<path fill="#4D4D4F" d="M438.134,336.417v-11.453h3.711c1.406,0,2.322,0.058,2.75,0.172c0.656,0.172,1.205,0.546,1.648,1.121
			c0.442,0.575,0.664,1.319,0.664,2.23c0,0.703-0.128,1.294-0.383,1.773c-0.256,0.479-0.58,0.855-0.973,1.129
			c-0.394,0.273-0.793,0.454-1.199,0.543c-0.553,0.109-1.352,0.164-2.398,0.164h-1.508v4.32L438.134,336.417L438.134,336.417z
			 M440.447,326.901v3.25h1.266c0.911,0,1.521-0.06,1.828-0.18s0.548-0.308,0.723-0.563c0.174-0.255,0.262-0.552,0.262-0.891
			c0-0.417-0.123-0.761-0.367-1.031c-0.245-0.271-0.555-0.44-0.93-0.508c-0.276-0.052-0.831-0.078-1.664-0.078L440.447,326.901
			L440.447,326.901z"/>
		<path fill="#4D4D4F" d="M448.806,336.417v-11.453h8.492v1.938h-6.18v2.539h5.75v1.93h-5.75v3.117h6.398v1.93L448.806,336.417
			L448.806,336.417z"/>
		<path fill="#4D4D4F" d="M462.056,336.417v-9.516h-3.398v-1.938h9.102v1.938h-3.391v9.516H462.056z"/>
		<path fill="#4D4D4F" d="M472.908,334.05l2.203-0.336c0.094,0.427,0.283,0.751,0.57,0.973c0.286,0.222,0.688,0.332,1.203,0.332
			c0.567,0,0.994-0.104,1.281-0.313c0.192-0.146,0.289-0.341,0.289-0.586c0-0.167-0.053-0.305-0.156-0.414
			c-0.109-0.104-0.354-0.2-0.734-0.289c-1.771-0.391-2.894-0.747-3.367-1.07c-0.656-0.448-0.984-1.07-0.984-1.867
			c0-0.719,0.283-1.323,0.852-1.813c0.567-0.489,1.447-0.734,2.641-0.734c1.135,0,1.979,0.185,2.531,0.555s0.932,0.917,1.141,1.641
			l-2.07,0.383c-0.089-0.323-0.257-0.57-0.504-0.742c-0.248-0.172-0.601-0.258-1.059-0.258c-0.578,0-0.992,0.081-1.242,0.242
			c-0.167,0.114-0.25,0.263-0.25,0.445c0,0.156,0.072,0.289,0.219,0.398c0.197,0.146,0.881,0.352,2.051,0.617
			c1.169,0.266,1.985,0.591,2.449,0.977c0.458,0.391,0.688,0.935,0.688,1.633c0,0.761-0.318,1.414-0.953,1.961
			c-0.636,0.547-1.576,0.82-2.82,0.82c-1.131,0-2.025-0.229-2.684-0.688C473.542,335.459,473.111,334.836,472.908,334.05z"/>
		<path fill="#4D4D4F" d="M489.814,330.573l-2.164,0.391c-0.073-0.433-0.238-0.758-0.496-0.977s-0.593-0.328-1.004-0.328
			c-0.547,0-0.983,0.188-1.309,0.566c-0.326,0.378-0.488,1.009-0.488,1.895c0,0.984,0.165,1.68,0.496,2.086
			c0.33,0.406,0.774,0.609,1.332,0.609c0.416,0,0.758-0.118,1.023-0.355s0.453-0.645,0.563-1.223l2.156,0.367
			c-0.225,0.989-0.654,1.737-1.289,2.242c-0.636,0.505-1.487,0.758-2.555,0.758c-1.214,0-2.182-0.383-2.902-1.148
			c-0.722-0.766-1.082-1.825-1.082-3.18c0-1.37,0.361-2.437,1.086-3.199c0.724-0.763,1.703-1.145,2.938-1.145
			c1.01,0,1.813,0.218,2.41,0.652C489.125,329.02,489.553,329.683,489.814,330.573z"/>
		<path fill="#4D4D4F" d="M493.119,330.651l-1.992-0.359c0.224-0.802,0.609-1.396,1.156-1.781s1.359-0.578,2.438-0.578
			c0.979,0,1.708,0.116,2.188,0.348c0.479,0.231,0.816,0.526,1.012,0.883s0.293,1.012,0.293,1.965l-0.023,2.563
			c0,0.729,0.035,1.267,0.105,1.613s0.201,0.718,0.395,1.113h-2.172c-0.058-0.146-0.128-0.362-0.211-0.648
			c-0.037-0.13-0.063-0.216-0.078-0.258c-0.375,0.364-0.776,0.638-1.203,0.82c-0.428,0.183-0.883,0.273-1.367,0.273
			c-0.854,0-1.527-0.231-2.02-0.695s-0.738-1.05-0.738-1.758c0-0.469,0.111-0.887,0.336-1.254c0.224-0.367,0.537-0.648,0.941-0.844
			c0.403-0.195,0.985-0.366,1.746-0.512c1.025-0.192,1.736-0.372,2.133-0.539v-0.219c0-0.422-0.104-0.723-0.313-0.902
			c-0.209-0.18-0.602-0.27-1.18-0.27c-0.391,0-0.695,0.077-0.914,0.23S493.253,330.266,493.119,330.651z M496.056,332.433
			c-0.281,0.094-0.727,0.206-1.336,0.336s-1.008,0.258-1.195,0.383c-0.287,0.203-0.43,0.461-0.43,0.773
			c0,0.308,0.114,0.573,0.344,0.797c0.229,0.224,0.521,0.336,0.875,0.336c0.396,0,0.773-0.13,1.133-0.391
			c0.266-0.198,0.439-0.44,0.523-0.727c0.057-0.188,0.086-0.544,0.086-1.07V332.433z"/>
		<path fill="#4D4D4F" d="M507.923,336.417h-2.195v-4.234c0-0.896-0.047-1.476-0.141-1.738s-0.246-0.468-0.457-0.613
			s-0.465-0.219-0.762-0.219c-0.381,0-0.722,0.104-1.023,0.313c-0.303,0.208-0.51,0.484-0.621,0.828
			c-0.112,0.344-0.168,0.979-0.168,1.906v3.758h-2.195v-8.297h2.039v1.219c0.724-0.938,1.635-1.406,2.734-1.406
			c0.484,0,0.927,0.087,1.328,0.262c0.4,0.175,0.704,0.397,0.91,0.668c0.205,0.271,0.349,0.578,0.43,0.922
			c0.08,0.344,0.121,0.836,0.121,1.477V336.417z"/>
	</g>
	<g>
		<path fill="#4D4D4F" d="M223.72,332.206l2.242,0.711c-0.344,1.25-0.916,2.179-1.715,2.785c-0.8,0.606-1.814,0.91-3.043,0.91
			c-1.521,0-2.771-0.52-3.75-1.559s-1.469-2.46-1.469-4.262c0-1.906,0.492-3.387,1.477-4.441s2.278-1.582,3.883-1.582
			c1.401,0,2.539,0.414,3.414,1.242c0.521,0.489,0.911,1.192,1.172,2.109l-2.289,0.547c-0.136-0.594-0.418-1.063-0.848-1.406
			s-0.952-0.516-1.566-0.516c-0.849,0-1.538,0.305-2.066,0.914c-0.529,0.609-0.793,1.597-0.793,2.961
			c0,1.448,0.26,2.479,0.781,3.094c0.521,0.614,1.198,0.922,2.031,0.922c0.614,0,1.143-0.195,1.586-0.586
			C223.209,333.659,223.527,333.045,223.72,332.206z"/>
		<path fill="#4D4D4F" d="M230.119,324.964v4.211c0.708-0.828,1.555-1.242,2.539-1.242c0.505,0,0.961,0.094,1.367,0.281
			s0.712,0.427,0.918,0.719s0.346,0.614,0.422,0.969c0.075,0.354,0.113,0.903,0.113,1.648v4.867h-2.195v-4.383
			c0-0.87-0.042-1.422-0.125-1.656s-0.23-0.421-0.441-0.559s-0.476-0.207-0.793-0.207c-0.365,0-0.69,0.089-0.977,0.266
			s-0.496,0.444-0.629,0.801s-0.199,0.884-0.199,1.582v4.156h-2.195v-11.453H230.119z"/>
		<path fill="#4D4D4F" d="M242.509,333.776l2.188,0.367c-0.281,0.802-0.726,1.413-1.332,1.832c-0.607,0.419-1.366,0.629-2.277,0.629
			c-1.443,0-2.511-0.472-3.203-1.414c-0.547-0.755-0.82-1.708-0.82-2.859c0-1.375,0.359-2.452,1.078-3.23s1.627-1.168,2.727-1.168
			c1.234,0,2.208,0.407,2.922,1.223c0.713,0.815,1.055,2.063,1.023,3.746h-5.5c0.016,0.651,0.192,1.157,0.531,1.52
			c0.338,0.362,0.76,0.543,1.266,0.543c0.344,0,0.633-0.094,0.867-0.281S242.389,334.193,242.509,333.776z M242.634,331.558
			c-0.016-0.636-0.18-1.118-0.492-1.449s-0.693-0.496-1.141-0.496c-0.479,0-0.875,0.175-1.188,0.523s-0.466,0.823-0.461,1.422
			H242.634z"/>
		<path fill="#4D4D4F" d="M246.439,328.12h2.023v1.133c0.724-0.88,1.586-1.32,2.586-1.32c0.531,0,0.992,0.109,1.383,0.328
			s0.711,0.55,0.961,0.992c0.364-0.442,0.758-0.773,1.18-0.992s0.872-0.328,1.352-0.328c0.609,0,1.125,0.124,1.547,0.371
			s0.737,0.61,0.945,1.09c0.151,0.354,0.227,0.927,0.227,1.719v5.305h-2.195v-4.742c0-0.823-0.076-1.354-0.227-1.594
			c-0.203-0.313-0.516-0.469-0.938-0.469c-0.308,0-0.597,0.094-0.867,0.281c-0.271,0.188-0.466,0.462-0.586,0.824
			s-0.18,0.934-0.18,1.715v3.984h-2.195v-4.547c0-0.808-0.039-1.328-0.117-1.563s-0.199-0.409-0.363-0.523s-0.387-0.172-0.668-0.172
			c-0.339,0-0.644,0.091-0.914,0.273c-0.271,0.183-0.465,0.445-0.582,0.789s-0.176,0.914-0.176,1.711v4.031h-2.195L246.439,328.12
			L246.439,328.12z"/>
		<path fill="#4D4D4F" d="M260.322,332.151c0-0.729,0.18-1.435,0.539-2.117s0.868-1.203,1.527-1.563
			c0.659-0.359,1.395-0.539,2.207-0.539c1.255,0,2.284,0.407,3.086,1.223c0.802,0.815,1.203,1.845,1.203,3.09
			c0,1.255-0.405,2.296-1.215,3.121s-1.83,1.238-3.059,1.238c-0.761,0-1.486-0.172-2.176-0.516s-1.215-0.848-1.574-1.512
			S260.322,333.104,260.322,332.151z M262.572,332.269c0,0.823,0.195,1.453,0.586,1.891s0.872,0.656,1.445,0.656
			s1.053-0.219,1.441-0.656c0.388-0.438,0.582-1.073,0.582-1.906c0-0.813-0.194-1.438-0.582-1.875
			c-0.388-0.438-0.869-0.656-1.441-0.656c-0.573,0-1.055,0.219-1.445,0.656S262.572,331.445,262.572,332.269z"/>
		<path fill="#4D4D4F" d="M270.353,333.362v-2.195h4.313v2.195H270.353z"/>
		<path fill="#4D4D4F" d="M283.478,336.417h-2.195v-4.234c0-0.896-0.047-1.476-0.141-1.738s-0.246-0.468-0.457-0.613
			s-0.465-0.219-0.762-0.219c-0.38,0-0.722,0.104-1.023,0.313c-0.302,0.208-0.509,0.484-0.621,0.828s-0.168,0.979-0.168,1.906v3.758
			h-2.195v-8.297h2.039v1.219c0.724-0.938,1.635-1.406,2.734-1.406c0.484,0,0.927,0.087,1.328,0.262s0.704,0.397,0.91,0.668
			s0.349,0.578,0.43,0.922s0.121,0.836,0.121,1.477V336.417z"/>
		<path fill="#4D4D4F" d="M287.345,330.651l-1.992-0.359c0.224-0.802,0.609-1.396,1.156-1.781s1.359-0.578,2.438-0.578
			c0.979,0,1.708,0.116,2.188,0.348c0.479,0.231,0.816,0.526,1.012,0.883s0.293,1.012,0.293,1.965l-0.023,2.563
			c0,0.729,0.035,1.267,0.105,1.613s0.202,0.718,0.395,1.113h-2.172c-0.058-0.146-0.128-0.362-0.211-0.648
			c-0.037-0.13-0.063-0.216-0.078-0.258c-0.375,0.364-0.776,0.638-1.203,0.82c-0.427,0.183-0.883,0.273-1.367,0.273
			c-0.854,0-1.527-0.231-2.02-0.695s-0.738-1.05-0.738-1.758c0-0.469,0.112-0.887,0.336-1.254s0.538-0.648,0.941-0.844
			c0.403-0.195,0.985-0.366,1.746-0.512c1.026-0.192,1.737-0.372,2.133-0.539v-0.219c0-0.422-0.104-0.723-0.313-0.902
			c-0.208-0.18-0.602-0.27-1.18-0.27c-0.391,0-0.695,0.077-0.914,0.23S287.48,330.266,287.345,330.651z M290.283,332.433
			c-0.281,0.094-0.727,0.206-1.336,0.336s-1.008,0.258-1.195,0.383c-0.287,0.203-0.43,0.461-0.43,0.773
			c0,0.308,0.114,0.573,0.344,0.797c0.229,0.224,0.521,0.336,0.875,0.336c0.396,0,0.773-0.13,1.133-0.391
			c0.266-0.198,0.44-0.44,0.523-0.727c0.057-0.188,0.086-0.544,0.086-1.07V332.433z"/>
		<path fill="#4D4D4F" d="M293.288,326.995v-2.031h2.195v2.031H293.288z M294.603,336.417v-8.297h2.195v8.297H294.603z"/>
		<path fill="#4D4D4F" d="M295.918,326.995v-2.031h2.195v2.031H295.918z"/>
		<path fill="#4D4D4F" d="M301.33,336.417l-3.344-8.297h2.305l1.563,4.234l0.453,1.414c0.12-0.359,0.195-0.597,0.227-0.711
			c0.073-0.234,0.151-0.469,0.234-0.703l1.578-4.234h2.258l-3.297,8.297H301.33z"/>
		<path fill="#4D4D4F" d="M312.751,333.776l2.188,0.367c-0.281,0.802-0.726,1.413-1.332,1.832c-0.607,0.419-1.366,0.629-2.277,0.629
			c-1.443,0-2.511-0.472-3.203-1.414c-0.547-0.755-0.82-1.708-0.82-2.859c0-1.375,0.359-2.452,1.078-3.23s1.627-1.168,2.727-1.168
			c1.234,0,2.208,0.407,2.922,1.223c0.713,0.815,1.055,2.063,1.023,3.746h-5.5c0.016,0.651,0.192,1.157,0.531,1.52
			c0.338,0.362,0.76,0.543,1.266,0.543c0.344,0,0.633-0.094,0.867-0.281S312.631,334.193,312.751,333.776z M312.876,331.558
			c-0.016-0.636-0.18-1.118-0.492-1.449s-0.693-0.496-1.141-0.496c-0.479,0-0.875,0.175-1.188,0.523s-0.466,0.823-0.461,1.422
			H312.876z"/>
	</g>
	<g>
		<path fill="#4D4D4F" d="M249.038,151.167h-2.516l-1-2.602h-4.578l-0.945,2.602h-2.453l4.461-11.453h2.445L249.038,151.167z
			 M244.78,146.636l-1.578-4.25l-1.547,4.25H244.78z"/>
		<path fill="#4D4D4F" d="M250.046,151.714l2.508,0.305c0.042,0.292,0.138,0.492,0.289,0.602c0.208,0.156,0.536,0.234,0.984,0.234
			c0.573,0,1.002-0.086,1.289-0.258c0.192-0.114,0.338-0.3,0.438-0.555c0.067-0.183,0.102-0.519,0.102-1.008v-1.211
			c-0.656,0.896-1.484,1.344-2.484,1.344c-1.115,0-1.998-0.472-2.648-1.414c-0.511-0.745-0.766-1.672-0.766-2.781
			c0-1.391,0.334-2.453,1.004-3.188c0.669-0.734,1.501-1.102,2.496-1.102c1.026,0,1.872,0.45,2.539,1.352v-1.164h2.055v7.445
			c0,0.979-0.081,1.711-0.242,2.195c-0.162,0.484-0.388,0.864-0.68,1.141c-0.292,0.276-0.681,0.492-1.168,0.648
			c-0.487,0.156-1.103,0.234-1.848,0.234c-1.406,0-2.404-0.241-2.992-0.723c-0.589-0.481-0.883-1.093-0.883-1.832
			C250.038,151.906,250.041,151.818,250.046,151.714z M252.007,146.847c0,0.88,0.17,1.524,0.512,1.934
			c0.341,0.409,0.762,0.613,1.262,0.613c0.536,0,0.989-0.21,1.359-0.629c0.37-0.419,0.555-1.04,0.555-1.863
			c0-0.859-0.177-1.497-0.531-1.914s-0.802-0.625-1.344-0.625c-0.526,0-0.96,0.204-1.301,0.613
			C252.177,145.385,252.007,146.008,252.007,146.847z"/>
		<path fill="#4D4D4F" d="M264.827,148.526l2.188,0.367c-0.281,0.802-0.726,1.413-1.332,1.832c-0.607,0.419-1.366,0.629-2.277,0.629
			c-1.443,0-2.511-0.472-3.203-1.414c-0.547-0.755-0.82-1.708-0.82-2.859c0-1.375,0.359-2.452,1.078-3.23s1.627-1.168,2.727-1.168
			c1.234,0,2.208,0.407,2.922,1.223c0.713,0.815,1.055,2.063,1.023,3.746h-5.5c0.016,0.651,0.192,1.157,0.531,1.52
			c0.338,0.362,0.76,0.543,1.266,0.543c0.344,0,0.633-0.094,0.867-0.281S264.707,148.943,264.827,148.526z M264.952,146.308
			c-0.016-0.636-0.18-1.118-0.492-1.449s-0.693-0.496-1.141-0.496c-0.479,0-0.875,0.175-1.188,0.523s-0.466,0.823-0.461,1.422
			L264.952,146.308L264.952,146.308z"/>
		<path fill="#4D4D4F" d="M280.335,142.519l-2.125,0.234c-0.052-0.438-0.188-0.761-0.406-0.969s-0.503-0.313-0.852-0.313
			c-0.464,0-0.855,0.208-1.176,0.625s-0.522,1.284-0.605,2.602c0.547-0.646,1.227-0.969,2.039-0.969
			c0.917,0,1.702,0.349,2.355,1.047s0.98,1.599,0.98,2.703c0,1.172-0.344,2.112-1.031,2.82s-1.57,1.063-2.648,1.063
			c-1.156,0-2.107-0.449-2.852-1.348c-0.745-0.898-1.117-2.371-1.117-4.418c0-2.099,0.388-3.612,1.164-4.539
			s1.784-1.391,3.023-1.391c0.87,0,1.59,0.243,2.16,0.73S280.179,141.592,280.335,142.519z M275.358,147.308
			c0,0.714,0.164,1.265,0.492,1.652s0.703,0.582,1.125,0.582c0.406,0,0.745-0.159,1.016-0.477c0.271-0.317,0.406-0.839,0.406-1.563
			c0-0.745-0.146-1.29-0.438-1.637s-0.656-0.52-1.094-0.52c-0.422,0-0.779,0.165-1.07,0.496
			C275.504,146.174,275.358,146.662,275.358,147.308z"/>
		<path fill="#4D4D4F" d="M283.679,144.987c-0.568-0.239-0.98-0.569-1.238-0.988s-0.387-0.879-0.387-1.379
			c0-0.854,0.298-1.56,0.895-2.117c0.596-0.558,1.444-0.836,2.543-0.836c1.088,0,1.934,0.278,2.535,0.836s0.902,1.263,0.902,2.117
			c0,0.531-0.138,1.004-0.414,1.418s-0.664,0.73-1.164,0.949c0.635,0.255,1.118,0.628,1.449,1.117s0.496,1.055,0.496,1.695
			c0,1.058-0.337,1.917-1.012,2.578s-1.572,0.992-2.691,0.992c-1.042,0-1.909-0.273-2.602-0.82
			c-0.818-0.646-1.227-1.531-1.227-2.656c0-0.62,0.153-1.188,0.461-1.707C282.533,145.668,283.017,145.269,283.679,144.987z
			 M283.929,147.683c0,0.604,0.155,1.075,0.465,1.414s0.696,0.508,1.16,0.508c0.453,0,0.828-0.163,1.125-0.488
			s0.445-0.796,0.445-1.41c0-0.536-0.151-0.968-0.453-1.293s-0.685-0.488-1.148-0.488c-0.537,0-0.937,0.185-1.199,0.555
			C284.06,146.85,283.929,147.25,283.929,147.683z M284.132,142.776c0,0.438,0.124,0.778,0.371,1.023s0.577,0.367,0.988,0.367
			c0.417,0,0.75-0.124,1-0.371s0.375-0.59,0.375-1.027c0-0.411-0.124-0.741-0.371-0.988c-0.248-0.247-0.574-0.371-0.98-0.371
			c-0.422,0-0.758,0.125-1.008,0.375S284.132,142.365,284.132,142.776z"/>
	</g>
</g>
</svg>
