<?xml version="1.0" encoding="utf-8"?>
<!-- Generator: Adobe Illustrator 17.0.1, SVG Export Plug-In . SVG Version: 6.00 Build 0)  -->
<!DOCTYPE svg PUBLIC "-//W3C//DTD SVG 1.1//EN" "http://www.w3.org/Graphics/SVG/1.1/DTD/svg11.dtd">
<svg version="1.1" id="Layer_1" xmlns="http://www.w3.org/2000/svg" xmlns:xlink="http://www.w3.org/1999/xlink" x="0px" y="0px"
	 width="147px" height="41px" viewBox="451.778 301.904 147 41" enable-background="new 451.778 301.904 147 41"
	 xml:space="preserve">
<g id="Layer_28">
	<rect x="451.778" y="301.904" fill="#EF4E45" width="147" height="41"/>
	<g enable-background="new    ">
		<path fill="#FFFFFF" d="M471.046,325.296c0-0.705,0.42-1.17,1.035-1.17c0.66,0,1.08,0.495,1.08,0.976
			c0,0.239-0.045,0.42-0.135,0.6c0.36,0.255,0.915,0.42,1.56,0.42c1.08,0,1.77-0.479,1.77-1.335c0-0.81-0.825-1.2-1.815-1.545
			c-1.83-0.66-3.12-1.245-3.12-3.075c0-1.574,1.275-2.805,3.27-2.805c1.845,0,3.27,0.945,3.27,2.13c0,0.705-0.435,1.11-1.005,1.11
			c-0.69,0-1.08-0.51-1.08-1.005c0-0.24,0.045-0.346,0.105-0.465c-0.27-0.165-0.69-0.301-1.305-0.301
			c-0.975,0-1.545,0.495-1.545,1.216c0,0.81,0.825,1.17,1.815,1.529c1.77,0.63,3.104,1.245,3.104,3.075
			c0,1.875-1.455,2.939-3.479,2.939C472.621,327.591,471.046,326.496,471.046,325.296z"/>
		<path fill="#FFFFFF" d="M480.9,324.682c0.225,1.02,1.065,1.47,2.16,1.47c0.795,0,1.62-0.255,2.385-0.69l-0.135,1.47
			c-0.69,0.405-1.53,0.601-2.49,0.601c-2.145,0-3.63-1.35-3.63-3.39c0-1.86,1.305-3.42,3.33-3.42c2.1,0,3.195,1.41,3.195,3.149
			c0,0.255-0.03,0.585-0.075,0.811L480.9,324.682L480.9,324.682z M480.886,323.541h3.195c-0.03-0.899-0.615-1.5-1.575-1.5
			C481.786,322.041,481.065,322.461,480.886,323.541z"/>
		<path fill="#FFFFFF" d="M488.4,324.682c0.225,1.02,1.065,1.47,2.16,1.47c0.795,0,1.62-0.255,2.385-0.69l-0.135,1.47
			c-0.69,0.405-1.53,0.601-2.49,0.601c-2.145,0-3.63-1.35-3.63-3.39c0-1.86,1.305-3.42,3.33-3.42c2.1,0,3.195,1.41,3.195,3.149
			c0,0.255-0.03,0.585-0.075,0.811L488.4,324.682L488.4,324.682z M488.386,323.541h3.195c-0.03-0.899-0.615-1.5-1.575-1.5
			C489.286,322.041,488.565,322.461,488.386,323.541z"/>
		<path fill="#FFFFFF" d="M499.2,324.682c0.225,1.02,1.065,1.47,2.16,1.47c0.795,0,1.62-0.255,2.385-0.69l-0.135,1.47
			c-0.69,0.405-1.53,0.601-2.49,0.601c-2.145,0-3.63-1.35-3.63-3.39c0-1.86,1.305-3.42,3.33-3.42c2.1,0,3.195,1.41,3.195,3.149
			c0,0.255-0.03,0.585-0.075,0.811L499.2,324.682L499.2,324.682z M499.186,323.541h3.195c-0.03-0.899-0.615-1.5-1.575-1.5
			C500.085,322.041,499.365,322.461,499.186,323.541z"/>
		<path fill="#FFFFFF" d="M514.109,318.621c-0.555,0-0.975-0.465-1.004-0.915c-0.166,0.016-0.391,0.091-0.586,0.315
			c-0.209,0.255-0.389,0.705-0.389,1.455v1.365h4.59v5.22h0.975v1.35h-3.54v-1.35h0.93v-3.84h-2.955v3.84h1.2v1.35h-3.735v-1.35
			h0.915v-3.84h-2.88v3.84h1.2v1.35h-3.81v-1.35h0.99v-3.84h-1.125v-1.38h1.125v-1.155c0-0.93,0.225-1.695,0.72-2.235
			s1.125-0.84,2.085-0.84c0.345,0,0.645,0.061,0.885,0.165c0.45,0.195,0.69,0.555,0.69,1.005c0,0.54-0.42,0.885-0.885,0.885
			c-0.39,0-0.765-0.18-0.945-0.614c-0.24,0.045-0.435,0.135-0.585,0.3c-0.225,0.255-0.345,0.66-0.345,1.14v1.351h2.88v-1.125
			c0-1.141,0.315-2.04,0.885-2.61c0.51-0.51,1.23-0.795,1.98-0.795c1.155,0,1.725,0.615,1.725,1.305
			C515.1,318.156,514.65,318.621,514.109,318.621z"/>
		<path fill="#FFFFFF" d="M518.686,324.066c0-1.71,1.38-3.345,3.33-3.345c1.799,0,2.984,1.17,2.984,2.205
			c0,0.689-0.465,1.109-1.05,1.109c-0.54,0-0.99-0.45-0.99-0.99c0-0.194,0.091-0.42,0.21-0.555c-0.119-0.165-0.525-0.45-1.17-0.45
			c-0.75,0-1.68,0.615-1.68,2.056c0,1.26,0.96,2.055,2.13,2.055c0.795,0,1.485-0.226,2.34-0.69l-0.136,1.47
			c-0.704,0.405-1.379,0.601-2.34,0.601C520.245,327.531,518.686,326.182,518.686,324.066z"/>
		<path fill="#FFFFFF" d="M526.08,325.687c0-1.23,1.08-1.98,2.641-1.98c0.675,0,1.305,0.09,1.664,0.181v-0.525
			c0-0.39-0.09-0.69-0.254-0.9c-0.271-0.345-0.705-0.479-1.291-0.479c-0.284,0-0.494,0.045-0.645,0.104
			c0.03,0.091,0.061,0.24,0.061,0.33c0,0.495-0.391,0.855-0.885,0.855c-0.496,0-0.871-0.345-0.871-0.885
			c0-0.811,0.826-1.665,2.61-1.665c1.125,0,1.89,0.314,2.354,0.885c0.346,0.42,0.511,0.99,0.511,1.649v2.806h0.975v1.35h-2.534
			v-0.72c-0.525,0.45-1.32,0.84-2.205,0.84C527.086,327.531,526.08,326.916,526.08,325.687z M530.385,325.761v-1.034
			c-0.375-0.09-0.84-0.15-1.35-0.15c-0.795,0-1.274,0.36-1.274,0.96c0,0.525,0.39,0.81,0.975,0.81S529.891,326.121,530.385,325.761z
			"/>
		<path fill="#FFFFFF" d="M533.596,324.066c0-1.71,1.38-3.345,3.33-3.345c1.799,0,2.984,1.17,2.984,2.205
			c0,0.689-0.465,1.109-1.05,1.109c-0.54,0-0.99-0.45-0.99-0.99c0-0.194,0.091-0.42,0.21-0.555c-0.119-0.165-0.525-0.45-1.17-0.45
			c-0.75,0-1.68,0.615-1.68,2.056c0,1.26,0.96,2.055,2.13,2.055c0.795,0,1.485-0.226,2.34-0.69l-0.136,1.47
			c-0.704,0.405-1.379,0.601-2.34,0.601C535.155,327.531,533.596,326.182,533.596,324.066z"/>
		<path fill="#FFFFFF" d="M542.25,330.396c-0.869,0-1.41-0.511-1.41-1.035c0-0.556,0.375-0.84,0.811-0.84
			c0.39,0,0.615,0.239,0.72,0.494c0.165-0.045,0.345-0.149,0.524-0.39c0.105-0.135,0.195-0.3,0.301-0.51l0.495-1.035l-2.341-4.859
			h-0.809v-1.38h3.389v1.305h-0.959l1.515,3.465l1.53-3.465h-1.021v-1.305h3.375v1.38h-0.795l-3.075,6.524
			c-0.15,0.3-0.314,0.57-0.51,0.795C543.51,330.096,542.91,330.396,542.25,330.396z"/>
	</g>
	<g>
		<circle fill="#FFFFFF" cx="574.891" cy="322.403" r="11.5"/>
		<g>
			<path fill="#F04E45" d="M573.691,329.163c-0.372,0-0.743-0.142-1.027-0.426c-0.567-0.567-0.567-1.487,0-2.055l4.28-4.28
				l-4.28-4.28c-0.567-0.567-0.567-1.486,0-2.054s1.487-0.567,2.055,0l5.308,5.307c0.566,0.567,0.566,1.487,0,2.054l-5.308,5.308
				C574.436,329.021,574.062,329.163,573.691,329.163z"/>
		</g>
	</g>
</g>
</svg>
