<?xml version="1.0" encoding="utf-8"?>
<!-- Generator: Adobe Illustrator 17.1.0, SVG Export Plug-In . SVG Version: 6.00 Build 0)  -->
<!DOCTYPE svg PUBLIC "-//W3C//DTD SVG 1.1//EN" "http://www.w3.org/Graphics/SVG/1.1/DTD/svg11.dtd">
<svg version="1.1" id="Layer_1" xmlns="http://www.w3.org/2000/svg" xmlns:xlink="http://www.w3.org/1999/xlink" x="0px" y="0px"
	 viewBox="0 0 764 34" enable-background="new 0 0 764 34" xml:space="preserve">
<g id="_x34_.0_mCRPC_Safety_profile__x28_Serious_AEs_x29_">
	<line fill="none" x1="0" y1="34" x2="763" y2="34"/>
	<line fill="none" x1="0" y1="34" x2="611.5" y2="34"/>
	<line fill="none" x1="611.5" y1="34" x2="763" y2="34"/>
	<rect x="459.5" y="0" fill="#ECF6F2" width="152.8" height="34"/>
	<rect x="612.3" y="0" opacity="0.8" fill="#DBDBDC" enable-background="new    " width="151.7" height="34"/>
	<g>
		<g enable-background="new    ">
			<path fill="#6BACA1" d="M0.6,16.9l2.8-0.4c0.3,0.9,0.5,1.7,1,2c0.5,0.5,1.1,0.6,2,0.6s1.7-0.3,2-0.6c0.5-0.4,0.6-0.9,0.6-1.4
				c0-0.3-0.1-0.6-0.3-0.9c-0.3-0.3-0.5-0.4-1-0.6c-0.3-0.1-1.1-0.3-2.3-0.6c-1.5-0.4-2.5-0.9-3.3-1.4C1.4,12.9,1,12,1,10.7
				c0-0.6,0.3-1.4,0.6-2c0.5-0.3,1.1-0.8,1.9-1s1.8-0.5,2.8-0.5c1.8,0,3.1,0.4,4.1,1.1c0.9,0.8,1.4,1.8,1.4,3.2L9,11.6
				c-0.1-0.8-0.5-1.3-0.9-1.7c-0.4-0.3-1-0.4-1.8-0.4S4.8,9.7,4.5,9.9c-0.3,0.1-0.5,0.5-0.5,0.8s0.1,0.6,0.4,0.9
				c0.4,0.3,1.1,0.6,2.7,1c1.5,0.4,2.4,0.6,3.1,1c0.6,0.4,1.1,0.8,1.7,1.5c0.4,0.6,0.6,1.4,0.6,2.3c0,0.8-0.3,1.7-0.6,2.3
				c-0.5,0.6-1.1,1.1-1.9,1.7c-0.8,0.4-1.9,0.5-3.1,0.5c-1.8,0-3.2-0.4-4.2-1.3C1.5,19.6,0.9,18.5,0.6,16.9z"/>
			<path fill="#6BACA1" d="M20.8,18.2l2.7,0.5c-0.4,1-0.9,1.8-1.7,2.3s-1.7,0.8-2.8,0.8c-1.8,0-3.1-0.6-3.9-1.8
				c-0.8-0.9-1-2.2-1-3.6c0-1.7,0.4-3.1,1.3-3.9c0.9-1,2-1.5,3.4-1.5c1.5,0,2.8,0.5,3.7,1.5s1.3,2.5,1.3,4.7h-6.9
				c0,0.8,0.3,1.4,0.6,1.9c0.5,0.5,1,0.6,1.7,0.6c0.4,0,0.8-0.1,1.1-0.4C20.4,19.1,20.6,18.7,20.8,18.2z M20.9,15.4
				c0-0.8-0.3-1.4-0.6-1.8c-0.4-0.4-0.9-0.6-1.4-0.6c-0.6,0-1.1,0.3-1.5,0.6c-0.4,0.5-0.6,1-0.6,1.8H20.9L20.9,15.4z"/>
			<path fill="#6BACA1" d="M28.8,21.5l-4.2-10.4h2.9l2,5.3l0.6,1.8c0.1-0.4,0.3-0.6,0.3-0.9c0.1-0.3,0.3-0.6,0.3-0.9l2-5.3h2.8
				l-4.1,10.4H28.8z"/>
			<path fill="#6BACA1" d="M42.9,18.2l2.7,0.5c-0.4,1-0.9,1.8-1.7,2.3c-0.8,0.5-1.7,0.8-2.8,0.8c-1.8,0-3.1-0.6-3.9-1.8
				c-0.6-0.9-1-2-1-3.6c0-1.7,0.4-3.1,1.3-3.9c0.9-1,2-1.7,3.4-1.7c1.5,0,2.8,0.5,3.7,1.5s1.3,2.5,1.3,4.7H39c0,0.8,0.3,1.4,0.6,1.9
				c0.4,0.5,1,0.6,1.7,0.6c0.4,0,0.8-0.1,1.1-0.4C42.7,19,42.8,18.7,42.9,18.2z M43.2,15.4c0-0.8-0.3-1.4-0.6-1.8S41.6,13,41,13
				c-0.6,0-1.1,0.3-1.5,0.6c-0.4,0.4-0.6,1-0.6,1.8H43.2L43.2,15.4z"/>
			<path fill="#6BACA1" d="M50.7,21.5h-2.8V11.1h2.5v1.5c0.4-0.6,0.8-1.1,1.1-1.4C52,11,52.2,11,52.7,11c0.6,0,1.1,0.3,1.8,0.5
				l-0.8,2.4c-0.5-0.3-0.9-0.4-1.3-0.4c-0.4,0-0.6,0.1-1,0.3c-0.3,0.3-0.5,0.6-0.6,1.1c-0.1,0.5-0.3,1.7-0.3,3.4L50.7,21.5
				L50.7,21.5z"/>
			<path fill="#6BACA1" d="M61.8,18.2l2.7,0.5c-0.4,1-0.9,1.8-1.7,2.3c-0.8,0.5-1.7,0.8-2.8,0.8c-1.8,0-3.1-0.6-3.9-1.8
				c-0.6-0.9-1-2-1-3.6c0-1.7,0.4-3.1,1.3-3.9c0.9-0.9,2-1.5,3.4-1.5c1.5,0,2.8,0.5,3.7,1.5s1.3,2.5,1.3,4.7h-6.9
				c0,0.8,0.3,1.4,0.6,1.9c0.5,0.5,1,0.6,1.7,0.6c0.4,0,0.8-0.1,1.1-0.4C61.5,19.1,61.8,18.7,61.8,18.2z M62,15.4
				c0-0.8-0.3-1.4-0.6-1.8S60.5,13,59.8,13c-0.6,0-1.1,0.3-1.5,0.6c-0.4,0.5-0.6,1-0.6,1.8H62L62,15.4z"/>
			<path fill="#6BACA1" d="M74.6,14.3l-2.5-0.4c0.3-1,0.8-1.7,1.4-2.2s1.7-0.6,3.1-0.6c1.1,0,2,0.1,2.7,0.4c0.6,0.3,1,0.6,1.3,1.1
				c0.3,0.4,0.4,1.3,0.4,2.5v3.2c0,0.9,0,1.7,0.1,2s0.3,0.9,0.5,1.4h-2.7c-0.1-0.3-0.3-0.5-0.3-0.8s-0.1-0.3-0.1-0.3
				c-0.5,0.5-1,0.8-1.5,1C76.4,22,75.8,22,75.3,22c-1.1,0-1.9-0.3-2.5-0.9c-0.6-0.6-0.9-1.3-0.9-2.2c0-0.6,0.1-1.1,0.4-1.7
				c0.3-0.5,0.6-0.8,1.1-1.1c0.5-0.3,1.1-0.5,2.2-0.6c1.3-0.3,2.2-0.5,2.7-0.6v-0.3c0-0.5-0.1-0.9-0.4-1.1s-0.8-0.3-1.5-0.3
				c-0.5,0-0.9,0.1-1.1,0.3C75.1,13.5,74.7,13.8,74.6,14.3z M78.2,16.4c-0.4,0.1-0.9,0.3-1.7,0.4c-0.8,0.1-1.3,0.3-1.5,0.5
				c-0.4,0.3-0.5,0.6-0.5,1c0,0.4,0.1,0.6,0.4,1c0.3,0.3,0.6,0.4,1.1,0.4c0.5,0,1-0.3,1.4-0.5c0.3-0.3,0.6-0.5,0.6-0.9
				c0.1-0.3,0.1-0.6,0.1-1.3L78.2,16.4L78.2,16.4z"/>
			<path fill="#6BACA1" d="M93.1,21.5h-2.5V20c-0.4,0.6-0.9,1-1.5,1.3c-0.5,0.3-1.1,0.4-1.7,0.4c-1.1,0-2.2-0.5-3.1-1.4
				c-0.8-1-1.3-2.3-1.3-3.9c0-1.8,0.4-3.1,1.1-3.9c0.8-0.9,1.9-1.4,3.1-1.4s2.2,0.5,3.1,1.4V7.3H93L93.1,21.5L93.1,21.5z M85.8,16
				c0,1.1,0.3,1.9,0.5,2.4c0.4,0.6,1.1,1.1,1.9,1.1c0.6,0,1.1-0.3,1.7-0.8c0.4-0.5,0.6-1.3,0.6-2.4s-0.3-2-0.6-2.5
				c-0.4-0.6-1-0.8-1.7-0.8s-1.1,0.3-1.7,0.8C85.9,14.3,85.8,15,85.8,16z"/>
			<path fill="#6BACA1" d="M98.7,21.5l-4.2-10.4h2.9l2,5.3l0.6,1.8c0.3-0.4,0.3-0.6,0.3-0.9c0.1-0.3,0.3-0.6,0.3-0.9l2-5.3h2.8
				l-4.1,10.4H98.7z"/>
			<path fill="#6BACA1" d="M112.9,18.2l2.7,0.5c-0.4,1-0.9,1.8-1.7,2.3s-1.7,0.8-2.8,0.8c-1.8,0-3.1-0.6-3.9-1.8c-0.6-0.9-1-2-1-3.6
				c0-1.7,0.4-3.1,1.3-3.9c0.9-1,2-1.7,3.4-1.7c1.5,0,2.8,0.5,3.7,1.5s1.3,2.5,1.3,4.7H109c0,0.8,0.3,1.4,0.6,1.9s1,0.6,1.7,0.6
				c0.4,0,0.8-0.1,1.1-0.4C112.8,19,112.7,18.7,112.9,18.2z M113.1,15.4c0-0.8-0.3-1.4-0.6-1.8S111.5,13,111,13
				c-0.6,0-1.1,0.3-1.5,0.6c-0.4,0.4-0.6,1-0.6,1.8H113.1L113.1,15.4z"/>
			<path fill="#6BACA1" d="M120.6,21.5h-2.7V11.1h2.5v1.5c0.4-0.6,0.8-1.1,1.1-1.4s0.6-0.3,1.1-0.3c0.6,0,1.1,0.3,1.8,0.5l-0.8,2.4
				c-0.5-0.3-0.9-0.4-1.3-0.4s-0.6,0.1-1,0.3c-0.3,0.3-0.5,0.6-0.6,1.1c-0.1,0.5-0.3,1.7-0.3,3.4L120.6,21.5L120.6,21.5z"/>
			<path fill="#6BACA1" d="M124.8,18.6l2.8-0.4c0.1,0.5,0.4,0.9,0.6,1.1c0.3,0.3,0.9,0.4,1.5,0.4c0.6,0,1.1-0.1,1.7-0.4
				c0.3-0.3,0.4-0.4,0.4-0.6c0-0.3-0.1-0.4-0.3-0.5c-0.1-0.1-0.4-0.3-0.9-0.4c-2.2-0.5-3.6-0.9-4.2-1.3c-0.8-0.6-1.1-1.3-1.1-2.3
				c0-0.9,0.4-1.7,1.1-2.3c0.8-0.6,1.8-0.9,3.3-0.9c1.4,0,2.5,0.3,3.2,0.6c0.6,0.5,1.1,1.1,1.4,2l-2.5,0.5c-0.1-0.4-0.3-0.6-0.6-0.9
				c-0.3-0.3-0.8-0.3-1.3-0.3c-0.6,0-1.1,0.1-1.7,0.3c-0.3,0.1-0.3,0.3-0.3,0.6c0,0.3,0.1,0.4,0.3,0.5c0.3,0.3,1.1,0.4,2.5,0.8
				c1.5,0.4,2.5,0.6,3.1,1.1c0.6,0.5,0.9,1.1,0.9,2c0,1-0.4,1.8-1.1,2.5c-0.8,0.6-2,1-3.4,1s-2.5-0.3-3.4-0.9
				C125.7,20.2,125.2,19.5,124.8,18.6z"/>
			<path fill="#6BACA1" d="M142.9,18.2l2.7,0.5c-0.4,1-0.9,1.8-1.7,2.3c-0.8,0.5-1.7,0.8-2.8,0.8c-1.8,0-3.1-0.6-3.9-1.8
				c-0.6-0.9-1-2-1-3.6c0-1.7,0.4-3.1,1.3-3.9c0.9-0.9,2-1.5,3.4-1.5c1.5,0,2.8,0.5,3.7,1.5c0.9,1,1.3,2.5,1.3,4.7h-6.9
				c0,0.8,0.3,1.4,0.6,1.9c0.4,0.5,1,0.6,1.7,0.6c0.4,0,0.8-0.1,1.1-0.4C142.5,19.1,142.9,18.7,142.9,18.2z M143.1,15.4
				c0-0.8-0.3-1.4-0.6-1.8s-0.9-0.6-1.4-0.6c-0.6,0-1.1,0.3-1.5,0.6c-0.4,0.4-0.6,1-0.6,1.8H143.1L143.1,15.4z"/>
			<path fill="#6BACA1" d="M159.5,18.2l2.7,0.5c-0.4,1-0.9,1.8-1.7,2.3s-1.7,0.8-2.8,0.8c-1.8,0-3.1-0.6-3.9-1.8c-0.6-0.9-1-2-1-3.6
				c0-1.7,0.4-3.1,1.3-3.9c0.9-0.9,2-1.5,3.4-1.5c1.5,0,2.8,0.5,3.7,1.5c0.9,1,1.3,2.5,1.3,4.7h-6.9c0,0.8,0.3,1.4,0.6,1.9
				c0.4,0.5,1,0.6,1.7,0.6c0.4,0,0.8-0.1,1.1-0.4C159.2,19.1,159.4,18.7,159.5,18.2z M159.7,15.4c0-0.8-0.3-1.4-0.6-1.8
				s-0.9-0.6-1.4-0.6c-0.6,0-1.1,0.3-1.5,0.6c-0.4,0.4-0.6,1-0.6,1.8H159.7L159.7,15.4z"/>
			<path fill="#6BACA1" d="M167.6,21.5l-4.2-10.4h2.9l2,5.3l0.6,1.8c0.1-0.4,0.3-0.6,0.3-0.9c0.1-0.3,0.3-0.6,0.3-0.9l2-5.3h2.8
				l-4.1,10.4H167.6z"/>
			<path fill="#6BACA1" d="M181.7,18.2l2.7,0.5c-0.4,1-0.9,1.8-1.7,2.3s-1.7,0.8-2.8,0.8c-1.8,0-3.1-0.6-3.9-1.8c-0.6-0.9-1-2-1-3.6
				c0-1.7,0.4-3.1,1.3-3.9c0.9-0.9,2-1.5,3.4-1.5c1.5,0,2.8,0.5,3.7,1.5s1.3,2.5,1.3,4.7h-6.9c0,0.8,0.3,1.4,0.6,1.9
				c0.5,0.5,1,0.6,1.7,0.6c0.4,0,0.8-0.1,1.1-0.4C181.4,19.1,181.7,18.7,181.7,18.2z M182,15.4c0-0.8-0.3-1.4-0.6-1.8
				s-0.9-0.6-1.4-0.6c-0.6,0-1.1,0.3-1.5,0.6c-0.4,0.4-0.6,1-0.6,1.8H182L182,15.4z"/>
			<path fill="#6BACA1" d="M196.3,21.5h-2.7v-5.3c0-1.1-0.1-1.8-0.3-2.2c-0.1-0.3-0.3-0.6-0.6-0.8c-0.3-0.3-0.6-0.3-1-0.3
				c-0.5,0-0.9,0.1-1.3,0.4s-0.6,0.6-0.8,1c-0.1,0.4-0.3,1.1-0.3,2.4v4.7h-2.7V11.1h2.5v1.5c0.9-1.1,2-1.8,3.4-1.8
				c0.6,0,1.1,0.1,1.7,0.3c0.5,0.3,0.9,0.5,1.1,0.8c0.3,0.3,0.4,0.6,0.5,1.1c0.1,0.5,0.3,1,0.3,1.8L196.3,21.5L196.3,21.5z"/>
			<path fill="#6BACA1" d="M203.9,11.1v2.2H202v4.2c0,0.8,0,1.3,0.1,1.5c0.1,0.3,0.1,0.3,0.3,0.3c0.1,0,0.3,0.1,0.5,0.1
				c0.3,0,0.6-0.1,1.1-0.3l0.3,2c-0.6,0.3-1.4,0.4-2.2,0.4c-0.5,0-0.9-0.1-1.3-0.3c-0.4-0.1-0.6-0.4-0.9-0.6
				c-0.3-0.3-0.3-0.6-0.4-1.1c-0.1-0.3-0.1-1-0.1-1.9v-4.5h-1.3v-2h1.3V9l2.8-1.7v3.7L203.9,11.1L203.9,11.1z"/>
			<path fill="#6BACA1" d="M204.9,18.6l2.8-0.4c0.1,0.5,0.4,0.9,0.6,1.1c0.3,0.3,0.9,0.4,1.5,0.4c0.6,0,1.1-0.1,1.7-0.4
				c0.3-0.3,0.4-0.4,0.4-0.6c0-0.3-0.1-0.4-0.3-0.5c-0.1-0.1-0.4-0.3-0.9-0.4c-2.2-0.5-3.6-0.9-4.2-1.3c-0.8-0.6-1.1-1.3-1.1-2.3
				c0-0.9,0.4-1.7,1.1-2.3c0.8-0.6,1.8-0.9,3.3-0.9c1.4,0,2.5,0.3,3.2,0.6c0.6,0.5,1.1,1.1,1.4,2l-2.5,0.5c-0.1-0.4-0.3-0.6-0.6-0.9
				c-0.3-0.3-0.8-0.3-1.3-0.3c-0.6,0-1.1,0.1-1.7,0.3c-0.3,0.1-0.3,0.3-0.3,0.6c0,0.3,0.1,0.4,0.3,0.5c0.3,0.3,1.1,0.4,2.5,0.8
				c1.5,0.4,2.5,0.6,3.1,1.1c0.5,0.5,0.9,1.1,0.9,2c0,1-0.4,1.8-1.1,2.5c-0.8,0.6-2,1-3.4,1c-1.4,0-2.5-0.3-3.4-0.9
				C205.6,20.2,205,19.5,204.9,18.6z"/>
			<path fill="#6BACA1" d="M221.4,18.6l2.8-0.4c0.1,0.5,0.4,0.9,0.6,1.1c0.3,0.3,0.9,0.4,1.5,0.4s1.1-0.1,1.7-0.4
				c0.3-0.3,0.4-0.4,0.4-0.6c0-0.3-0.1-0.4-0.3-0.5c-0.1-0.1-0.4-0.3-0.9-0.4c-2.2-0.5-3.6-0.9-4.2-1.3c-0.8-0.6-1.1-1.3-1.1-2.3
				c0-0.9,0.4-1.7,1.1-2.3c0.8-0.6,1.8-0.9,3.3-0.9c1.4,0,2.5,0.3,3.2,0.6c0.6,0.5,1.1,1.1,1.4,2l-2.5,0.5c-0.1-0.4-0.3-0.6-0.6-0.9
				c-0.3-0.3-0.8-0.3-1.3-0.3c-0.6,0-1.1,0.1-1.7,0.3c-0.3,0.1-0.3,0.3-0.3,0.6c0,0.3,0.1,0.4,0.3,0.5c0.3,0.3,1.1,0.4,2.5,0.8
				c1.5,0.4,2.5,0.6,3.1,1.1c0.6,0.5,0.9,1.1,0.9,2c0,1-0.4,1.8-1.1,2.5c-0.8,0.6-2,1-3.4,1s-2.5-0.3-3.4-0.9
				C222.2,20.2,221.7,19.5,221.4,18.6z"/>
			<path fill="#6BACA1" d="M239.5,18.2l2.7,0.5c-0.4,1-0.9,1.8-1.7,2.3s-1.7,0.8-2.8,0.8c-1.8,0-3.1-0.6-3.9-1.8c-0.6-0.9-1-2-1-3.6
				c0-1.7,0.4-3.1,1.3-3.9s2-1.5,3.4-1.5c1.5,0,2.8,0.5,3.7,1.5s1.3,2.5,1.3,4.7h-6.9c0,0.8,0.3,1.4,0.6,1.9c0.5,0.5,1,0.6,1.7,0.6
				c0.4,0,0.8-0.1,1.1-0.4C239.1,19.1,239.4,18.7,239.5,18.2z M239.6,15.4c0-0.8-0.3-1.4-0.6-1.8s-0.9-0.6-1.4-0.6
				c-0.6,0-1.1,0.3-1.5,0.6c-0.4,0.4-0.6,1-0.6,1.8H239.6L239.6,15.4z"/>
			<path fill="#6BACA1" d="M250.7,18.2l2.7,0.5c-0.4,1-0.9,1.8-1.7,2.3s-1.7,0.8-2.8,0.8c-1.8,0-3.1-0.6-3.9-1.8c-0.6-0.9-1-2-1-3.6
				c0-1.7,0.4-3.1,1.3-3.9s2-1.5,3.4-1.5c1.5,0,2.8,0.5,3.7,1.5c0.9,1,1.3,2.5,1.3,4.7h-6.9c0,0.8,0.3,1.4,0.6,1.9
				c0.5,0.5,1,0.6,1.7,0.6c0.4,0,0.8-0.1,1.1-0.4C250.2,19.1,250.5,18.7,250.7,18.2z M250.7,15.4c0-0.8-0.3-1.4-0.6-1.8
				s-0.9-0.6-1.4-0.6c-0.6,0-1.1,0.3-1.5,0.6c-0.4,0.4-0.6,1-0.6,1.8H250.7L250.7,15.4z"/>
			<path fill="#6BACA1" d="M265.1,21.5h-2.7v-5.3c0-1.1-0.1-1.8-0.3-2.2c-0.1-0.4-0.3-0.6-0.6-0.8c-0.3-0.3-0.6-0.3-1-0.3
				c-0.5,0-0.9,0.1-1.3,0.4c-0.4,0.3-0.6,0.6-0.8,1c-0.1,0.4-0.3,1.1-0.3,2.4v4.7h-2.7V11.1h2.5v1.5c0.9-1.1,2-1.8,3.4-1.8
				c0.6,0,1.1,0.1,1.7,0.3c0.5,0.3,0.9,0.5,1.1,0.8c0.3,0.3,0.4,0.6,0.5,1.1c0.1,0.4,0.3,1,0.3,1.8L265.1,21.5L265.1,21.5z"/>
			<path fill="#6BACA1" d="M273.4,9.7V7.1h2.7v2.5C276.2,9.7,273.4,9.7,273.4,9.7z M273.4,21.5V11.1h2.7v10.4H273.4z"/>
			<path fill="#6BACA1" d="M288.4,21.5h-2.7v-5.3c0-1.1-0.1-1.8-0.3-2.2c-0.1-0.4-0.3-0.6-0.6-0.8c-0.3-0.3-0.6-0.3-1-0.3
				c-0.5,0-0.9,0.1-1.3,0.4c-0.4,0.3-0.6,0.6-0.8,1c-0.3,0.4-0.3,1.1-0.3,2.4v4.7h-2.7V11.1h2.5v1.5c0.9-1.1,2-1.8,3.4-1.8
				c0.6,0,1.1,0.1,1.7,0.3c0.5,0.3,0.9,0.5,1.1,0.8c0.3,0.3,0.4,0.6,0.5,1.1c0.1,0.4,0.3,1,0.3,1.8L288.4,21.5L288.4,21.5z"/>
			<path fill="#6BACA1" d="M305.9,14.1l-2.7,0.5c-0.1-0.5-0.3-0.9-0.6-1.1c-0.3-0.3-0.6-0.4-1.3-0.4s-1.1,0.3-1.7,0.6
				c-0.4,0.5-0.6,1.3-0.6,2.4s0.3,2,0.6,2.5c0.4,0.5,1,0.8,1.7,0.8c0.5,0,0.9-0.1,1.3-0.4c0.3-0.3,0.6-0.8,0.6-1.5l2.7,0.5
				c-0.3,1.1-0.8,2.2-1.7,2.8c-0.8,0.6-1.9,0.9-3.2,0.9c-1.5,0-2.7-0.5-3.6-1.4c-0.9-1-1.4-2.3-1.4-3.9c0-1.7,0.5-3.1,1.4-3.9
				c0.9-0.9,2-1.4,3.7-1.4c1.3,0,2.3,0.3,3.1,0.8C305,12.4,305.5,13.1,305.9,14.1z"/>
			<path fill="#6BACA1" d="M307.9,21.5V7.1h2.7v14.3h-2.7V21.5z"/>
			<path fill="#6BACA1" d="M313.5,9.7V7.1h2.7v2.5H313.5z M313.5,21.5V11.1h2.7v10.4H313.5z"/>
			<path fill="#6BACA1" d="M328.4,21.5h-2.7v-5.3c0-1.1-0.1-1.8-0.3-2.2c-0.1-0.4-0.3-0.6-0.6-0.8c-0.3-0.3-0.6-0.3-1-0.3
				c-0.5,0-0.9,0.1-1.3,0.4c-0.4,0.3-0.6,0.6-0.8,1c-0.1,0.4-0.3,1.1-0.3,2.4v4.7h-2.7V11.1h2.5v1.5c0.9-1.1,2-1.8,3.4-1.8
				c0.6,0,1.1,0.1,1.7,0.3c0.5,0.3,0.9,0.5,1.1,0.8c0.3,0.3,0.4,0.6,0.5,1.1c0.1,0.4,0.3,1,0.3,1.8L328.4,21.5L328.4,21.5z"/>
			<path fill="#6BACA1" d="M331.2,9.7V7.1h2.7v2.5C334,9.7,331.2,9.7,331.2,9.7z M331.2,21.5V11.1h2.7v10.4H331.2z"/>
			<path fill="#6BACA1" d="M345.7,14.1l-2.7,0.5c-0.1-0.5-0.3-0.9-0.6-1.1c-0.3-0.3-0.6-0.4-1.3-0.4c-0.6,0-1.1,0.3-1.7,0.6
				c-0.4,0.5-0.6,1.3-0.6,2.4s0.3,2,0.6,2.5s1,0.8,1.7,0.8c0.5,0,0.9-0.1,1.3-0.4c0.4-0.3,0.6-0.8,0.6-1.5l2.7,0.5
				c-0.3,1.1-0.8,2.2-1.7,2.8c-0.9,0.6-1.9,0.9-3.2,0.9c-1.5,0-2.7-0.5-3.6-1.4c-0.9-0.9-1.4-2.3-1.4-3.9c0-1.7,0.5-3.1,1.4-3.9
				c0.9-1,2-1.4,3.7-1.4c1.3,0,2.3,0.3,3.1,0.8C344.9,12.2,345.5,13.1,345.7,14.1z"/>
			<path fill="#6BACA1" d="M349.9,14.3l-2.5-0.4c0.3-1,0.8-1.7,1.4-2.2s1.7-0.6,3.1-0.6c1.1,0,2,0.1,2.7,0.4c0.6,0.3,1,0.6,1.3,1.1
				c0.3,0.4,0.4,1.3,0.4,2.5v3.2c0,0.9,0,1.7,0.1,2s0.3,0.9,0.5,1.4h-2.7c-0.1-0.3-0.3-0.5-0.3-0.8s-0.1-0.3-0.1-0.3
				c-0.5,0.5-1,0.8-1.5,1c-0.5,0.3-1.1,0.3-1.7,0.3c-1.1,0-1.9-0.3-2.5-0.9c-0.6-0.6-0.9-1.3-0.9-2.2c0-0.6,0.1-1.1,0.4-1.7
				s0.6-0.8,1.1-1.1c0.5-0.3,1.1-0.5,2.2-0.6c1.3-0.3,2.2-0.5,2.7-0.6v-0.3c0-0.5-0.1-0.9-0.4-1.1c-0.3-0.3-0.8-0.3-1.5-0.3
				c-0.5,0-0.9,0.1-1.1,0.3C350.3,13.5,350,13.8,349.9,14.3z M353.5,16.4c-0.4,0.1-0.9,0.3-1.7,0.4c-0.8,0.3-1.3,0.3-1.5,0.5
				c-0.4,0.3-0.5,0.6-0.5,1c0,0.4,0.1,0.6,0.4,1c0.3,0.3,0.6,0.4,1.1,0.4c0.5,0,1-0.3,1.4-0.5c0.3-0.3,0.5-0.5,0.6-0.9
				c0.1-0.3,0.1-0.6,0.1-1.3V16.4L353.5,16.4z"/>
			<path fill="#6BACA1" d="M359,21.5V7.1h2.7v14.3H359V21.5z"/>
			<path fill="#6BACA1" d="M369.1,18.6l2.8-0.4c0.1,0.5,0.4,0.9,0.6,1.1c0.4,0.3,0.9,0.4,1.5,0.4c0.6,0,1.1-0.1,1.7-0.4
				c0.3-0.3,0.4-0.4,0.4-0.6c0-0.3-0.1-0.4-0.3-0.5c-0.1-0.1-0.4-0.3-0.9-0.4c-2.2-0.5-3.6-0.9-4.2-1.3c-0.8-0.6-1.1-1.3-1.1-2.3
				c0-0.9,0.4-1.7,1.1-2.3c0.6-0.6,1.8-0.9,3.3-0.9c1.4,0,2.5,0.3,3.2,0.6c0.6,0.5,1.1,1.1,1.4,2l-2.5,0.5c-0.1-0.4-0.3-0.6-0.6-0.9
				c-0.3-0.3-0.8-0.3-1.3-0.3c-0.6,0-1.1,0.1-1.7,0.3c-0.3,0.1-0.3,0.3-0.3,0.6c0,0.3,0.1,0.4,0.3,0.5c0.3,0.3,1.1,0.4,2.5,0.8
				c1.5,0.3,2.5,0.6,3.1,1.1c0.6,0.5,0.9,1.1,0.9,2c0,1-0.4,1.8-1.1,2.5c-0.8,0.6-2,1-3.4,1s-2.5-0.3-3.4-0.9
				C369.9,20.2,369.3,19.5,369.1,18.6z"/>
			<path fill="#6BACA1" d="M385.9,11.1v2.2H384v4.2c0,0.8,0,1.3,0.1,1.5c0,0.1,0.1,0.3,0.3,0.3c0.1,0,0.3,0.1,0.5,0.1
				c0.3,0,0.6-0.1,1.1-0.3l0.3,2c-0.6,0.3-1.4,0.4-2.2,0.4c-0.5,0-0.9-0.1-1.3-0.3c-0.4-0.3-0.6-0.4-0.9-0.6
				c-0.3-0.3-0.3-0.6-0.4-1.1c-0.1-0.3-0.1-1-0.1-1.9v-4.5h-1.3v-2h1.3V9l2.8-1.7v3.7L385.9,11.1L385.9,11.1z"/>
			<path fill="#6BACA1" d="M394.7,21.5V20c-0.4,0.6-0.9,1-1.5,1.3s-1.3,0.5-1.9,0.5s-1.3-0.3-1.9-0.5c-0.6-0.3-1-0.6-1.1-1.3
				c-0.3-0.6-0.4-1.3-0.4-2.3v-6.6h2.7v4.8c0,1.5,0,2.4,0.1,2.7c0.1,0.3,0.3,0.6,0.6,0.8c0.3,0.3,0.6,0.3,1,0.3
				c0.5,0,0.9-0.1,1.3-0.4c0.4-0.3,0.6-0.6,0.8-1c0.1-0.4,0.3-1.3,0.3-2.8v-4.3h2.7v10.4H394.7L394.7,21.5z"/>
			<path fill="#6BACA1" d="M409.5,21.5H407V20c-0.4,0.6-0.9,1-1.5,1.3s-1.1,0.4-1.7,0.4c-1.1,0-2.2-0.5-3.1-1.4
				c-0.9-0.9-1.3-2.3-1.3-3.9c0-1.8,0.4-3.1,1.1-3.9c0.8-0.9,1.9-1.4,3.1-1.4s2.2,0.5,3.1,1.4V7.3h2.7L409.5,21.5L409.5,21.5z
				 M402.1,16c0,1.1,0.3,1.9,0.5,2.4c0.4,0.6,1.1,1.1,1.9,1.1c0.6,0,1.1-0.3,1.7-0.8c0.5-0.5,0.6-1.3,0.6-2.4s-0.3-2-0.6-2.5
				c-0.4-0.5-1-0.8-1.7-0.8c-0.6,0-1.1,0.3-1.7,0.8C402.5,14.3,402.1,15,402.1,16z"/>
			<path fill="#6BACA1" d="M410.9,11.1h2.9l2.5,7.4l2.4-7.4h2.8l-3.7,9.9l-0.6,1.8c-0.3,0.6-0.5,1.1-0.6,1.4
				c-0.3,0.3-0.5,0.6-0.8,0.8c-0.3,0.3-0.6,0.4-1,0.5c-0.4,0.1-0.9,0.3-1.4,0.3c-0.5,0-1-0.1-1.7-0.3l-0.3-2
				c0.4,0.1,0.8,0.1,1.1,0.1c0.6,0,1.1-0.3,1.4-0.6c0.3-0.4,0.5-0.9,0.6-1.4L410.9,11.1z"/>
		</g>
		<g enable-background="new    ">
			<path fill="#6BACA1" d="M426.4,14.8h-1.7v-6c-0.6,0.5-1.3,1-2,1.1V8.5c0.4-0.1,0.9-0.4,1.4-0.8s0.8-0.8,1-1.3h1.3V14.8
				L426.4,14.8z"/>
		</g>
	</g>
	<g>
		<g enable-background="new    ">
			<path fill="#4D4D4F" d="M482.1,17.1c0-0.9,0.1-1.7,0.4-2.3c0.3-0.5,0.5-0.9,0.8-1.1c0.4-0.4,0.6-0.6,1.1-0.8
				c0.6-0.3,1.1-0.4,1.9-0.4c1.3,0,2.4,0.4,3.2,1.1c0.8,0.8,1.1,1.9,1.1,3.4c0,1.4-0.4,2.5-1.1,3.4c-0.8,0.8-1.8,1.1-3.1,1.1
				c-1.3,0-2.4-0.4-3.2-1.1C482.5,19.6,482.1,18.5,482.1,17.1z M484,16.9c0,1,0.3,1.8,0.6,2.3c0.4,0.5,1.1,0.8,1.8,0.8
				s1.3-0.3,1.8-0.8c0.5-0.5,0.6-1.3,0.6-2.3s-0.3-1.8-0.6-2.3c-0.4-0.5-1-0.8-1.8-0.8s-1.3,0.3-1.8,0.8
				C484.1,15.2,484,15.9,484,16.9z"/>
			<path fill="#4D4D4F" d="M492,15h1.7v1c0.3-0.3,0.5-0.6,0.8-0.8c0.4-0.3,0.6-0.3,1.1-0.3c0.8,0,1.4,0.3,1.9,0.9
				c0.5,0.6,0.8,1.4,0.8,2.5s-0.3,1.9-0.8,2.5c-0.5,0.6-1.1,0.9-1.9,0.9c-0.4,0-0.6-0.1-1-0.3c-0.4-0.1-0.6-0.4-0.9-0.6v3.2H492V15
				L492,15z M493.8,18.2c0,0.6,0.1,1.3,0.4,1.7c0.3,0.3,0.6,0.5,1.1,0.5c0.4,0,0.6-0.3,1-0.5c0.4-0.3,0.4-0.8,0.4-1.7
				c0-0.6-0.1-1.1-0.4-1.5c-0.3-0.3-0.6-0.5-1-0.5s-0.8,0.3-1,0.5C493.9,17.1,493.8,17.4,493.8,18.2z"/>
			<path fill="#4D4D4F" d="M502.7,15v1.4h-1.1V19c0,0.5,0,0.8,0,0.9c0,0.1,0.1,0.3,0.1,0.3c0.1,0.1,0.3,0.1,0.3,0.1
				c0.3,0,0.4-0.1,0.6-0.3l0.1,1.3c-0.4,0.3-0.9,0.3-1.4,0.3c-0.3,0-0.6-0.1-0.8-0.3c-0.3-0.1-0.4-0.3-0.5-0.4
				c-0.1-0.1-0.3-0.4-0.3-0.6s-0.1-0.6-0.1-1.1v-2.8h-0.8V15h0.8v-1.3l1.7-1V15L502.7,15L502.7,15L502.7,15z"/>
			<path fill="#4D4D4F" d="M504,14.1v-1.5h1.7v1.7H504V14.1z M504,21.5V15h1.7v6.5H504z"/>
			<path fill="#4D4D4F" d="M506.8,19.7l1.7-0.3c0.1,0.3,0.3,0.6,0.4,0.8c0.3,0.3,0.5,0.3,0.9,0.3c0.4,0,0.8-0.1,1-0.3
				c0.1-0.1,0.3-0.3,0.3-0.5c0-0.1,0-0.3-0.1-0.3c-0.1-0.1-0.3-0.3-0.6-0.3c-1.4-0.3-2.3-0.6-2.5-0.8c-0.5-0.3-0.8-0.8-0.8-1.5
				c0-0.6,0.3-1,0.6-1.4c0.5-0.4,1.1-0.6,2-0.6s1.5,0.1,2,0.4c0.4,0.3,0.6,0.6,0.9,1.3l-1.7,0.3c-0.1-0.3-0.3-0.4-0.4-0.6
				c-0.3-0.1-0.5-0.3-0.8-0.3c-0.4,0-0.8,0.1-1,0.3c-0.1,0.1-0.3,0.3-0.3,0.3c0,0.1,0.1,0.3,0.3,0.3c0.3,0.1,0.6,0.3,1.7,0.5
				c1,0.3,1.5,0.5,1.9,0.8c0.4,0.3,0.5,0.6,0.5,1.3c0,0.6-0.3,1.1-0.6,1.5c-0.5,0.4-1.1,0.6-2.2,0.6c-0.9,0-1.7-0.3-2-0.5
				C507.3,20.8,506.9,20.2,506.8,19.7z"/>
			<path fill="#4D4D4F" d="M517.2,15v1.4h-1.1V19c0,0.5,0,0.8,0,0.9c0,0.1,0.1,0.3,0.3,0.3c0.1,0,0.3,0.1,0.3,0.1
				c0.3,0,0.4-0.1,0.6-0.3l0.1,1.3c-0.4,0.3-0.8,0.3-1.4,0.3c-0.3,0-0.6-0.1-0.8-0.3c-0.3-0.1-0.4-0.3-0.5-0.4
				c-0.1-0.1-0.3-0.4-0.3-0.6s-0.1-0.6-0.1-1.1v-2.8h-0.8V15h0.8v-1.3l1.7-1V15L517.2,15L517.2,15L517.2,15z"/>
			<path fill="#4D4D4F" d="M519.8,16.9l-1.7-0.3c0.3-0.6,0.5-1.1,0.9-1.4c0.4-0.3,1.1-0.4,1.9-0.4c0.8,0,1.3,0.1,1.7,0.3
				c0.4,0.3,0.6,0.4,0.8,0.6c0.3,0.3,0.3,0.8,0.3,1.5v2c0,0.6,0,1,0.1,1.3c0.1,0.3,0.3,0.6,0.3,0.9h-1.7c0-0.1-0.1-0.3-0.3-0.5
				c0-0.1,0-0.3-0.1-0.3c-0.3,0.3-0.6,0.5-0.9,0.6c-0.3,0.1-0.6,0.3-1.1,0.3c-0.6,0-1.1-0.3-1.7-0.5c-0.4-0.4-0.6-0.8-0.6-1.4
				c0-0.4,0.1-0.6,0.3-1c0.1-0.4,0.4-0.5,0.6-0.6c0.3-0.3,0.8-0.3,1.4-0.4c0.8-0.1,1.4-0.3,1.7-0.4v-0.3c0-0.3-0.1-0.6-0.3-0.6
				c-0.3-0.1-0.5-0.3-0.9-0.3c-0.3,0-0.5,0.1-0.6,0.3C519.9,16.4,519.8,16.7,519.8,16.9z M522.1,18.3c-0.3,0.1-0.6,0.3-1,0.3
				c-0.5,0.1-0.8,0.3-0.9,0.3c-0.3,0.3-0.3,0.4-0.3,0.6c0,0.3,0.1,0.4,0.3,0.6c0.3,0.3,0.4,0.3,0.6,0.3s0.6-0.1,0.9-0.3
				c0.3-0.3,0.3-0.3,0.4-0.6c0-0.1,0.1-0.4,0.1-0.8L522.1,18.3L522.1,18.3z"/>
			<path fill="#4D4D4F" d="M527.2,21.5l-2.5-6.5h1.8l1.1,3.3l0.4,1.1c0.1-0.3,0.3-0.5,0.3-0.6c0.1-0.3,0.1-0.4,0.3-0.5l1.1-3.3h1.8
				l-2.5,6.5C528.6,21.5,527.2,21.5,527.2,21.5z"/>
			<path fill="#4D4D4F" d="M532.3,14.1v-1.5h1.7v1.7h-1.7V14.1z M532.3,21.5V15h1.7v6.5H532.3z"/>
			<path fill="#4D4D4F" d="M541.5,21.5h-1.7v-3.3c0-0.6,0-1.1-0.1-1.4s-0.3-0.4-0.4-0.5c-0.3-0.1-0.4-0.3-0.6-0.3
				c-0.3,0-0.6,0.1-0.8,0.3c-0.3,0.1-0.4,0.4-0.5,0.6c-0.1,0.3-0.1,0.8-0.1,1.5v2.9h-1.7v-6.2h1.7v1c0.6-0.6,1.3-1.1,2-1.1
				c0.4,0,0.6,0.1,1,0.3c0.3,0.1,0.5,0.3,0.6,0.5c0.3,0.3,0.3,0.5,0.3,0.6c0.1,0.3,0.1,0.6,0.1,1.1L541.5,21.5L541.5,21.5
				L541.5,21.5z"/>
		</g>
		<g enable-background="new    ">
			<path fill="#4D4D4F" d="M548.8,24.1c-0.6-0.8-1.1-1.7-1.5-2.7c-0.4-1-0.6-2-0.6-3.2c0-1,0.3-1.9,0.5-2.8c0.4-1,0.9-2,1.7-3.1h0.8
				c-0.5,0.8-0.8,1.4-1,1.8c-0.3,0.6-0.4,1.1-0.6,1.8c-0.3,0.8-0.3,1.5-0.3,2.3c0,2,0.6,3.9,1.8,5.7L548.8,24.1L548.8,24.1
				L548.8,24.1z"/>
			<path fill="#4D4D4F" d="M550.8,21.5V15h1v1c0.5-0.6,1.1-1.1,2-1.1c0.4,0,0.6,0.1,1.1,0.3c0.4,0.1,0.6,0.3,0.6,0.6
				c0,0.4,0.3,0.5,0.3,0.8s0.1,0.6,0.1,1.1v3.9h-1.1v-3.9c0-0.4,0-0.8-0.1-1c-0.1-0.3-0.3-0.4-0.5-0.5c-0.3-0.1-0.5-0.3-0.8-0.3
				c-0.5,0-0.9,0.1-1.1,0.4c-0.3,0.3-0.5,0.9-0.5,1.7v3.4L550.8,21.5L550.8,21.5z"/>
			<path fill="#4D4D4F" d="M563.6,16.3h-5.9v-1h5.9V16.3z M563.6,19h-5.9v-1h5.9V19z"/>
			<path fill="#4D4D4F" d="M564.7,19.2l1.1-0.1c0.1,0.6,0.3,1.1,0.6,1.3c0.3,0.3,0.6,0.4,1.1,0.4s0.9-0.3,1.3-0.5
				c0.4-0.4,0.5-0.8,0.5-1.3s-0.3-0.9-0.5-1.1c-0.3-0.3-0.6-0.5-1.3-0.5c-0.3,0-0.5,0-0.8,0.1l0.1-1c0.1,0,0.1,0,0.3,0
				c0.5,0,0.9-0.1,1.3-0.4c0.4-0.3,0.6-0.6,0.6-1.1c0-0.4-0.1-0.6-0.4-1c-0.3-0.3-0.6-0.4-1.1-0.4c-0.4,0-0.8,0.1-1.1,0.4
				c-0.3,0.3-0.5,0.6-0.5,1.1l-1.1-0.3c0.1-0.6,0.4-1.3,0.9-1.7s1.1-0.6,1.8-0.6c0.5,0,0.9,0.1,1.3,0.3c0.4,0.3,0.6,0.5,0.9,0.9
				c0.3,0.4,0.3,0.6,0.3,1.1c0,0.4-0.1,0.6-0.3,1.1c-0.3,0.3-0.5,0.6-0.9,0.8c0.5,0.1,0.9,0.4,1.1,0.8s0.4,0.9,0.4,1.4
				c0,0.8-0.3,1.4-0.9,2c-0.6,0.5-1.3,0.8-2.2,0.8c-0.8,0-1.4-0.3-1.9-0.6C565.1,20.5,564.7,19.9,564.7,19.2z"/>
			<path fill="#4D4D4F" d="M571.6,19.2l1.1-0.1c0.1,0.6,0.3,1.1,0.6,1.3c0.4,0.1,0.6,0.4,1.1,0.4c0.5,0,1-0.3,1.3-0.5
				c0.4-0.4,0.5-0.8,0.5-1.3s-0.3-0.9-0.5-1.1c-0.3-0.3-0.6-0.5-1.3-0.5c-0.3,0-0.5,0-0.8,0.1l0.1-1c0.1,0,0.1,0,0.3,0
				c0.5,0,0.9-0.1,1.3-0.4c0.4-0.3,0.6-0.6,0.6-1.1c0-0.4-0.1-0.6-0.4-1c-0.3-0.3-0.6-0.4-1.1-0.4c-0.4,0-0.8,0.1-1.1,0.4
				c-0.4,0.3-0.5,0.6-0.5,1.1l-1.1-0.3c0.1-0.6,0.4-1.3,0.9-1.7s1.1-0.6,1.8-0.6c0.5,0,0.9,0.1,1.3,0.3c0.4,0.3,0.6,0.5,0.9,0.9
				c0.3,0.4,0.3,0.6,0.3,1.1c0,0.4-0.1,0.6-0.3,1.1c-0.3,0.3-0.5,0.6-0.9,0.8c0.5,0.1,0.9,0.4,1.1,0.8c0.3,0.4,0.4,0.9,0.4,1.4
				c0,0.8-0.3,1.4-0.9,2c-0.6,0.5-1.3,0.8-2.2,0.8c-0.8,0-1.4-0.3-1.9-0.6C572.1,20.5,571.7,19.9,571.6,19.2z"/>
			<path fill="#4D4D4F" d="M584.3,20.5v1.1h-5.9c0-0.3,0-0.5,0.1-0.8c0.3-0.4,0.4-0.8,0.6-1.1s0.8-0.8,1.4-1.4c1-0.8,1.7-1.4,2-1.9
				c0.3-0.5,0.5-0.9,0.5-1.3s-0.3-0.8-0.5-1.1c-0.3-0.4-0.6-0.4-1.1-0.4c-0.5,0-0.9,0.3-1.3,0.5c-0.3,0.3-0.5,0.8-0.5,1.3l-1.1-0.1
				c0.1-0.8,0.4-1.5,0.9-1.9c0.5-0.4,1.1-0.6,2-0.6s1.5,0.3,2,0.6c0.5,0.5,0.6,1.1,0.6,1.8c0,0.4-0.1,0.6-0.3,1.1
				c-0.1,0.3-0.4,0.6-0.6,1.1c-0.3,0.4-0.9,0.9-1.7,1.7c-0.6,0.6-1.1,0.9-1.3,1.1c-0.1,0.3-0.3,0.4-0.5,0.6L584.3,20.5L584.3,20.5z"
				/>
			<path fill="#4D4D4F" d="M586.5,24.1h-0.8c1.1-1.9,1.8-3.9,1.8-5.7c0-0.8-0.1-1.5-0.3-2.3c-0.1-0.6-0.3-1.1-0.6-1.8
				c-0.3-0.4-0.5-1-1-1.8h0.8c0.8,1,1.3,2,1.7,3.1c0.3,0.9,0.5,1.8,0.5,2.8c0,1.1-0.3,2.2-0.6,3.2C587.6,22.4,587.1,23.4,586.5,24.1
				z"/>
		</g>
	</g>
	<g>
		<g enable-background="new    ">
			<path fill="#4D4D4F" d="M647.9,18.2l1.7,0.6c-0.3,1-0.6,1.7-1.3,2.2s-1.4,0.6-2.4,0.6c-1.1,0-2.2-0.4-2.9-1.1
				c-0.8-0.8-1.1-1.9-1.1-3.3c0-1.5,0.4-2.5,1.1-3.4c0.8-0.8,1.8-1.1,3.1-1.1c1.1,0,2,0.3,2.7,1c0.4,0.4,0.6,0.9,0.9,1.7l-1.8,0.4
				c-0.1-0.5-0.3-0.8-0.6-1.1c-0.3-0.3-0.6-0.4-1.1-0.4c-0.6,0-1.1,0.3-1.7,0.6c-0.4,0.5-0.6,1.1-0.6,2.3s0.3,1.9,0.6,2.4
				c0.4,0.5,0.9,0.6,1.7,0.6c0.5,0,0.9-0.3,1.1-0.5C647.5,19.4,647.7,18.8,647.9,18.2z"/>
			<path fill="#4D4D4F" d="M650.8,18.2c0-0.6,0.1-1.1,0.4-1.7c0.3-0.5,0.6-0.9,1.1-1.1c0.5-0.3,1.1-0.4,1.7-0.4c1,0,1.8,0.3,2.4,1
				c0.6,0.6,0.9,1.4,0.9,2.4c0,1-0.3,1.8-0.9,2.4c-0.6,0.6-1.4,1-2.4,1c-0.6,0-1.1-0.1-1.7-0.4c-0.5-0.3-0.9-0.6-1.1-1.1
				C650.9,19.6,650.8,18.8,650.8,18.2z M652.6,18.3c0,0.6,0.3,1.1,0.5,1.5c0.3,0.3,0.6,0.5,1.1,0.5c0.4,0,0.8-0.3,1.1-0.5
				c0.3-0.3,0.5-0.8,0.5-1.5c0-0.6-0.3-1.1-0.5-1.5c-0.3-0.3-0.6-0.5-1.1-0.5c-0.4,0-0.8,0.3-1.1,0.5
				C652.6,17.1,652.6,17.6,652.6,18.3z"/>
			<path fill="#4D4D4F" d="M664.7,21.5H663v-3.3c0-0.6,0-1.1-0.1-1.4c-0.1-0.3-0.3-0.4-0.4-0.5c-0.3-0.1-0.4-0.3-0.6-0.3
				s-0.6,0.1-0.8,0.3c-0.3,0.1-0.4,0.4-0.5,0.6c-0.1,0.3-0.1,0.8-0.1,1.5v2.9h-1.7v-6.2h1.7v1c0.6-0.6,1.3-1.1,2-1.1
				c0.4,0,0.6,0.1,1,0.3c0.3,0.1,0.5,0.3,0.6,0.5c0.3,0.3,0.3,0.5,0.3,0.6c0.1,0.3,0.1,0.6,0.1,1.1L664.7,21.5L664.7,21.5
				L664.7,21.5z"/>
			<path fill="#4D4D4F" d="M669.3,15v1.4h-1.1V19c0,0.5,0,0.8,0,0.9c0,0.1,0.1,0.3,0.3,0.3c0.1,0.1,0.3,0.1,0.3,0.1
				c0.3,0,0.4-0.1,0.6-0.3l0.1,1.3c-0.4,0.3-0.8,0.3-1.3,0.3c-0.3,0-0.6-0.1-0.8-0.3c-0.3-0.1-0.4-0.3-0.5-0.4
				c-0.1-0.3-0.3-0.4-0.3-0.6s-0.1-0.6-0.1-1.1v-2.8h-0.8V15h0.8v-1.3l1.7-1V15L669.3,15L669.3,15L669.3,15z"/>
			<path fill="#4D4D4F" d="M672.1,21.5h-1.7V15h1.7v1c0.3-0.4,0.5-0.6,0.6-0.9c0.3-0.1,0.5-0.3,0.6-0.3c0.4,0,0.8,0.1,1.1,0.3
				l-0.5,1.5c-0.3-0.3-0.6-0.3-0.8-0.3c-0.1,0-0.4,0.1-0.6,0.3c-0.3,0.1-0.3,0.4-0.4,0.6c-0.1,0.3-0.1,1.1-0.1,2.2L672.1,21.5
				L672.1,21.5z"/>
			<path fill="#4D4D4F" d="M674.9,18.2c0-0.6,0.1-1.1,0.4-1.7s0.6-0.9,1.1-1.1c0.5-0.3,1.1-0.4,1.7-0.4c1,0,1.8,0.3,2.4,1
				c0.6,0.6,0.9,1.4,0.9,2.4c0,1-0.3,1.8-0.9,2.4c-0.6,0.6-1.4,1-2.4,1c-0.6,0-1.1-0.1-1.7-0.4c-0.5-0.3-0.9-0.6-1.1-1.1
				C675.1,19.6,674.9,18.8,674.9,18.2z M676.8,18.3c0,0.6,0.3,1.1,0.5,1.5c0.3,0.3,0.6,0.5,1.1,0.5c0.4,0,0.8-0.3,1.1-0.5
				c0.3-0.3,0.5-0.8,0.5-1.5c0-0.6-0.1-1.1-0.5-1.5c-0.3-0.3-0.6-0.5-1.1-0.5c-0.4,0-0.8,0.3-1.1,0.5
				C676.9,17.1,676.8,17.6,676.8,18.3z"/>
			<path fill="#4D4D4F" d="M682.9,21.5v-8.9h1.7v8.9H682.9z"/>
		</g>
		<g enable-background="new    ">
			<path fill="#4D4D4F" d="M691.9,24.1c-0.6-0.8-1.1-1.7-1.5-2.7c-0.4-1-0.6-2-0.6-3.2c0-1,0.3-1.9,0.5-2.8c0.4-1,0.9-2,1.7-3.1h0.8
				c-0.5,0.8-0.8,1.4-1,1.8c-0.3,0.6-0.4,1.1-0.6,1.8c-0.3,0.8-0.3,1.5-0.3,2.3c0,2,0.6,3.9,1.8,5.7L691.9,24.1L691.9,24.1
				L691.9,24.1z"/>
			<path fill="#4D4D4F" d="M693.8,21.5V15h1v1c0.5-0.6,1.1-1.1,2-1.1c0.4,0,0.6,0.1,1.1,0.3c0.3,0.1,0.6,0.3,0.6,0.6
				c0.1,0.3,0.3,0.5,0.3,0.8s0.1,0.6,0.1,1.1v3.9h-1.1v-3.9c0-0.4,0-0.8-0.1-1c-0.1-0.3-0.3-0.4-0.5-0.5c-0.3-0.1-0.5-0.3-0.8-0.3
				c-0.5,0-0.9,0.1-1.1,0.4c-0.3,0.3-0.5,0.9-0.5,1.7v3.4L693.8,21.5L693.8,21.5z"/>
			<path fill="#4D4D4F" d="M706.6,16.3h-5.9v-1h5.9V16.3z M706.6,19h-5.9v-1h5.9V19z"/>
			<path fill="#4D4D4F" d="M711.9,21.5h-1.1v-7c-0.3,0.3-0.6,0.5-1,0.8c-0.4,0.3-0.8,0.4-1.1,0.6v-1.1c0.6-0.3,1.1-0.6,1.7-1
				c0.5-0.4,0.8-0.8,1-1.1h0.6L711.9,21.5L711.9,21.5z"/>
			<path fill="#4D4D4F" d="M714.7,19.2l1.1-0.1c0.1,0.6,0.3,1,0.6,1.3c0.3,0.3,0.6,0.4,1.1,0.4c0.5,0,1-0.3,1.3-0.6
				c0.4-0.4,0.5-0.9,0.5-1.7c0-0.6-0.3-1.1-0.5-1.5c-0.3-0.4-0.8-0.5-1.4-0.5c-0.4,0-0.6,0.1-1,0.3c-0.3,0.1-0.5,0.4-0.6,0.6l-1-0.1
				l0.8-4.5h4.5v1h-3.6l-0.5,2.4c0.5-0.4,1.1-0.6,1.7-0.6c0.8,0,1.4,0.3,2,0.8c0.5,0.5,0.8,1.1,0.8,2c0,0.8-0.3,1.5-0.6,2
				c-0.6,0.6-1.4,1.1-2.3,1.1c-0.8,0-1.5-0.3-2-0.6C715.1,20.5,714.7,19.9,714.7,19.2z"/>
			<path fill="#4D4D4F" d="M721.6,19.2l1.1-0.1c0.1,0.6,0.3,1,0.6,1.3c0.3,0.3,0.6,0.4,1.1,0.4c0.5,0,1-0.3,1.3-0.6
				c0.4-0.4,0.5-0.9,0.5-1.7c0-0.6-0.3-1.1-0.5-1.5c-0.3-0.4-0.8-0.5-1.4-0.5c-0.4,0-0.6,0.1-1,0.3c-0.3,0.3-0.5,0.4-0.6,0.6l-1-0.1
				l0.9-4.6h4.5v1h-3.6L723,16c0.5-0.4,1.1-0.6,1.7-0.6c0.8,0,1.4,0.3,2,0.8c0.5,0.5,0.8,1.1,0.8,2c0,0.8-0.3,1.5-0.6,2
				c-0.6,0.6-1.4,1.1-2.3,1.1c-0.8,0-1.5-0.3-2-0.6C722.1,20.5,721.7,19.9,721.6,19.2z"/>
			<path fill="#4D4D4F" d="M729.6,24.1h-0.8c1.1-1.9,1.8-3.9,1.8-5.7c0-0.8-0.1-1.5-0.3-2.3c-0.1-0.6-0.3-1.1-0.6-1.8
				c-0.3-0.4-0.5-1-1-1.8h0.8c0.8,1,1.3,2,1.7,3.1c0.3,0.9,0.5,1.8,0.5,2.8c0,1.1-0.3,2.2-0.6,3.2C730.8,22.4,730.3,23.4,729.6,24.1
				z"/>
		</g>
	</g>
	<line fill="none" stroke="#D6ECE6" stroke-width="2.7689" stroke-miterlimit="10" x1="0" y1="34" x2="763" y2="34"/>
</g>
</svg>
