<?xml version="1.0" encoding="utf-8"?>
<!-- Generator: Adobe Illustrator 17.1.0, SVG Export Plug-In . SVG Version: 6.00 Build 0)  -->
<!DOCTYPE svg PUBLIC "-//W3C//DTD SVG 1.1//EN" "http://www.w3.org/Graphics/SVG/1.1/DTD/svg11.dtd">
<svg version="1.1" id="Layer_1" xmlns="http://www.w3.org/2000/svg" xmlns:xlink="http://www.w3.org/1999/xlink" x="0px" y="0px"
	 viewBox="0 0 764 354.6" enable-background="new 0 0 764 354.6" xml:space="preserve">
<g>
	<g id="_x34_.1_mCRPC_Safety_profile__x28_Common_AEs_x29_">
		<rect y="34.2" fill="#FFFFFF" width="764" height="320.5"/>
		<rect y="275.3" opacity="0.7" fill="#ECF6F2" enable-background="new    " width="611.3" height="79.4"/>
		<line fill="none" stroke="#D6ECE6" stroke-width="2.7689" stroke-miterlimit="10" x1="0" y1="275.3" x2="762.9" y2="275.3"/>
		<rect y="34.2" opacity="0.7" fill="#ECF6F2" enable-background="new    " width="611.3" height="120.6"/>
		<g>
			<g enable-background="new    ">
				<path fill="#4D4D4F" d="M24.1,55.1v-1.9h5v4.6c-0.5,0.5-1.2,0.9-2.1,1.2s-1.9,0.5-2.8,0.5c-1.2,0-2.2-0.3-3.1-0.8
					c-0.9-0.5-1.6-1.2-2-2.2c-0.4-0.9-0.7-2-0.7-3.1c0-1.2,0.2-2.3,0.8-3.2c0.5-0.9,1.2-1.6,2.2-2.1c0.7-0.4,1.6-0.6,2.7-0.6
					c1.4,0,2.5,0.3,3.3,0.9c0.8,0.6,1.3,1.4,1.5,2.5l-2.3,0.4c-0.2-0.6-0.5-1-0.9-1.3c-0.4-0.3-1-0.5-1.7-0.5c-1,0-1.8,0.3-2.4,1
					C21,51,20.7,52,20.7,53.3c0,1.4,0.3,2.4,0.9,3.1c0.6,0.7,1.4,1,2.4,1c0.5,0,1-0.1,1.5-0.3c0.5-0.2,0.9-0.4,1.3-0.7V55L24.1,55.1
					L24.1,55.1L24.1,55.1z"/>
				<path fill="#4D4D4F" d="M32.9,53.4l-2-0.4c0.2-0.8,0.6-1.4,1.2-1.8c0.5-0.4,1.4-0.6,2.4-0.6c1,0,1.7,0.1,2.2,0.3
					c0.5,0.2,0.8,0.5,1,0.9c0.2,0.4,0.3,1,0.3,2v2.6c0,0.7,0,1.3,0.1,1.6c0.1,0.3,0.2,0.7,0.4,1.1h-2.2c-0.1-0.1-0.1-0.4-0.2-0.6
					c0-0.1-0.1-0.2-0.1-0.3c-0.4,0.4-0.8,0.6-1.2,0.8c-0.4,0.2-0.9,0.3-1.4,0.3c-0.9,0-1.5-0.2-2-0.7c-0.5-0.5-0.7-1-0.7-1.8
					c0-0.5,0.1-0.9,0.3-1.3c0.2-0.4,0.5-0.6,0.9-0.8c0.4-0.2,1-0.4,1.7-0.5c1-0.2,1.7-0.4,2.1-0.5v-0.2c0-0.4-0.1-0.7-0.3-0.9
					s-0.6-0.3-1.2-0.3c-0.4,0-0.7,0.1-0.9,0.2C33.2,52.8,33.1,53.1,32.9,53.4z M35.9,55.3c-0.3,0.1-0.7,0.2-1.3,0.3
					c-0.6,0.1-1,0.3-1.2,0.4c-0.3,0.2-0.4,0.5-0.4,0.8s0.1,0.6,0.3,0.8c0.2,0.2,0.5,0.3,0.9,0.3c0.4,0,0.8-0.1,1.1-0.4
					c0.3-0.2,0.4-0.4,0.5-0.7c0.1-0.2,0.1-0.5,0.1-1.1L35.9,55.3L35.9,55.3z"/>
				<path fill="#4D4D4F" d="M39.4,56.9l2.2-0.3c0.1,0.4,0.3,0.8,0.6,1c0.3,0.2,0.7,0.3,1.2,0.3c0.6,0,1-0.1,1.3-0.3
					c0.2-0.1,0.3-0.3,0.3-0.6c0-0.2-0.1-0.3-0.2-0.4c-0.1-0.1-0.4-0.2-0.7-0.3c-1.8-0.4-2.9-0.7-3.4-1.1c-0.7-0.4-1-1.1-1-1.9
					c0-0.7,0.3-1.3,0.9-1.8c0.6-0.5,1.4-0.7,2.6-0.7c1.1,0,2,0.2,2.5,0.6c0.6,0.4,0.9,0.9,1.1,1.6l-2.1,0.4
					c-0.1-0.3-0.3-0.6-0.5-0.7c-0.2-0.2-0.6-0.3-1.1-0.3c-0.6,0-1,0.1-1.2,0.2s-0.2,0.3-0.2,0.4c0,0.2,0.1,0.3,0.2,0.4
					c0.2,0.1,0.9,0.4,2.1,0.6c1.2,0.3,2,0.6,2.4,1c0.5,0.4,0.7,0.9,0.7,1.6c0,0.8-0.3,1.4-1,2c-0.6,0.5-1.6,0.8-2.8,0.8
					c-1.1,0-2-0.2-2.7-0.7C40.1,58.4,39.6,57.7,39.4,56.9z"/>
				<path fill="#4D4D4F" d="M52.9,50.9v1.8h-1.5v3.3c0,0.7,0,1.1,0,1.2c0,0.1,0.1,0.2,0.2,0.3c0.1,0.1,0.2,0.1,0.4,0.1
					s0.5-0.1,0.9-0.2l0.2,1.7c-0.5,0.2-1.1,0.3-1.7,0.3c-0.4,0-0.8-0.1-1.1-0.2c-0.3-0.1-0.6-0.3-0.7-0.5c-0.1-0.2-0.3-0.5-0.3-0.9
					c0-0.3-0.1-0.8-0.1-1.5v-3.6h-1v-1.8h1v-1.6l2.2-1.3v2.9H52.9L52.9,50.9z"/>
				<path fill="#4D4D4F" d="M56.6,59.3h-2.2v-8.3h2v1.2c0.3-0.6,0.7-0.9,0.9-1.1c0.3-0.2,0.6-0.3,0.9-0.3c0.5,0,1,0.1,1.4,0.4
					L58.9,53c-0.4-0.2-0.7-0.4-1-0.4s-0.6,0.1-0.8,0.3c-0.2,0.2-0.4,0.5-0.5,0.9c-0.1,0.4-0.2,1.4-0.2,2.8L56.6,59.3L56.6,59.3z"/>
				<path fill="#4D4D4F" d="M60.2,55c0-0.7,0.2-1.4,0.5-2.1c0.4-0.7,0.9-1.2,1.5-1.6c0.7-0.4,1.4-0.5,2.2-0.5c1.3,0,2.3,0.4,3.1,1.2
					c0.8,0.8,1.2,1.8,1.2,3.1c0,1.3-0.4,2.3-1.2,3.1c-0.8,0.8-1.8,1.2-3.1,1.2c-0.8,0-1.5-0.2-2.2-0.5c-0.7-0.3-1.2-0.8-1.6-1.5
					C60.2,56.7,60.2,56,60.2,55z M62.5,55.2c0,0.8,0.2,1.5,0.6,1.9c0.4,0.4,0.9,0.7,1.4,0.7c0.6,0,1.1-0.2,1.4-0.7
					c0.4-0.4,0.6-1.1,0.6-1.9c0-0.8-0.2-1.4-0.6-1.9c-0.4-0.4-0.9-0.7-1.4-0.7c-0.6,0-1.1,0.2-1.4,0.7
					C62.7,53.6,62.5,54.2,62.5,55.2z"/>
				<path fill="#4D4D4F" d="M70.5,49.8v-2h2.2v2H70.5z M70.5,59.3v-8.3h2.2v8.3H70.5z"/>
				<path fill="#4D4D4F" d="M82.6,59.3h-2.2v-4.2c0-0.9,0-1.5-0.1-1.7c-0.1-0.3-0.2-0.5-0.5-0.6c-0.2-0.1-0.5-0.2-0.8-0.2
					c-0.4,0-0.7,0.1-1,0.3s-0.5,0.5-0.6,0.8c-0.1,0.3-0.2,1-0.2,1.9v3.7h-2.2v-8.3h2v1.2c0.7-0.9,1.6-1.4,2.7-1.4
					c0.5,0,0.9,0.1,1.3,0.3c0.4,0.2,0.7,0.4,0.9,0.7c0.2,0.3,0.3,0.6,0.4,0.9s0.1,0.8,0.1,1.5L82.6,59.3L82.6,59.3z"/>
				<path fill="#4D4D4F" d="M88.6,50.9v1.8h-1.5v3.3c0,0.7,0,1.1,0,1.2c0,0.1,0.1,0.2,0.2,0.3c0.1,0.1,0.2,0.1,0.4,0.1
					s0.5-0.1,0.9-0.2l0.2,1.7c-0.5,0.2-1.1,0.3-1.7,0.3c-0.4,0-0.8-0.1-1.1-0.2c-0.3-0.1-0.6-0.3-0.7-0.5c-0.1-0.2-0.3-0.5-0.3-0.9
					c0-0.3-0.1-0.8-0.1-1.5v-3.6h-1v-1.8h1v-1.6l2.2-1.3v2.9H88.6L88.6,50.9z"/>
				<path fill="#4D4D4F" d="M95,56.7l2.2,0.4c-0.3,0.8-0.7,1.4-1.3,1.8c-0.6,0.4-1.4,0.6-2.3,0.6c-1.4,0-2.5-0.5-3.2-1.4
					c-0.5-0.8-0.8-1.7-0.8-2.9c0-1.4,0.4-2.5,1.1-3.2c0.7-0.8,1.6-1.2,2.7-1.2c1.2,0,2.2,0.4,2.9,1.2c0.7,0.8,1.1,2.1,1,3.7h-5.5
					c0,0.7,0.2,1.2,0.5,1.5c0.3,0.4,0.8,0.5,1.3,0.5c0.3,0,0.6-0.1,0.9-0.3C94.7,57.4,94.8,57.1,95,56.7z M95.1,54.4
					c0-0.6-0.2-1.1-0.5-1.4c-0.3-0.3-0.7-0.5-1.1-0.5c-0.5,0-0.9,0.2-1.2,0.5c-0.3,0.3-0.5,0.8-0.5,1.4H95.1z"/>
				<path fill="#4D4D4F" d="M98.4,56.9l2.2-0.3c0.1,0.4,0.3,0.8,0.6,1c0.3,0.2,0.7,0.3,1.2,0.3c0.6,0,1-0.1,1.3-0.3
					c0.2-0.1,0.3-0.3,0.3-0.6c0-0.2-0.1-0.3-0.2-0.4c-0.1-0.1-0.4-0.2-0.7-0.3c-1.8-0.4-2.9-0.7-3.4-1.1c-0.7-0.4-1-1.1-1-1.9
					c0-0.7,0.3-1.3,0.9-1.8c0.6-0.5,1.4-0.7,2.6-0.7c1.1,0,2,0.2,2.5,0.6c0.6,0.4,0.9,0.9,1.1,1.6l-2.1,0.4
					c-0.1-0.3-0.3-0.6-0.5-0.7c-0.2-0.2-0.6-0.3-1.1-0.3c-0.6,0-1,0.1-1.2,0.2c-0.2,0.1-0.2,0.3-0.2,0.4c0,0.2,0.1,0.3,0.2,0.4
					c0.2,0.1,0.9,0.4,2.1,0.6c1.2,0.3,2,0.6,2.4,1c0.5,0.4,0.7,0.9,0.7,1.6c0,0.8-0.3,1.4-1,2c-0.6,0.5-1.6,0.8-2.8,0.8
					c-1.1,0-2-0.2-2.7-0.7C99,58.4,98.6,57.7,98.4,56.9z"/>
				<path fill="#4D4D4F" d="M111.9,50.9v1.8h-1.5v3.3c0,0.7,0,1.1,0,1.2c0,0.1,0.1,0.2,0.2,0.3c0.1,0.1,0.2,0.1,0.4,0.1
					s0.5-0.1,0.9-0.2l0.2,1.7c-0.5,0.2-1.1,0.3-1.7,0.3c-0.4,0-0.8-0.1-1.1-0.2c-0.3-0.1-0.6-0.3-0.7-0.5c-0.1-0.2-0.3-0.5-0.3-0.9
					c0-0.3-0.1-0.8-0.1-1.5v-3.6h-1v-1.8h1v-1.6l2.2-1.3v2.9H111.9L111.9,50.9z"/>
				<path fill="#4D4D4F" d="M113.4,49.8v-2h2.2v2H113.4z M113.4,59.3v-8.3h2.2v8.3H113.4z"/>
				<path fill="#4D4D4F" d="M125.5,59.3h-2.2v-4.2c0-0.9,0-1.5-0.1-1.7c-0.1-0.3-0.2-0.5-0.5-0.6c-0.2-0.1-0.5-0.2-0.8-0.2
					c-0.4,0-0.7,0.1-1,0.3s-0.5,0.5-0.6,0.8s-0.2,1-0.2,1.9v3.7h-2.2v-8.3h2v1.2c0.7-0.9,1.6-1.4,2.7-1.4c0.5,0,0.9,0.1,1.3,0.3
					c0.4,0.2,0.7,0.4,0.9,0.7s0.3,0.6,0.4,0.9c0.1,0.3,0.1,0.8,0.1,1.5L125.5,59.3L125.5,59.3z"/>
				<path fill="#4D4D4F" d="M129.4,53.4l-2-0.4c0.2-0.8,0.6-1.4,1.2-1.8c0.5-0.4,1.4-0.6,2.4-0.6c1,0,1.7,0.1,2.2,0.3s0.8,0.5,1,0.9
					c0.2,0.4,0.3,1,0.3,2v2.6c0,0.7,0,1.3,0.1,1.6s0.2,0.7,0.4,1.1h-2.2c-0.1-0.1-0.1-0.4-0.2-0.6c0-0.1-0.1-0.2-0.1-0.3
					c-0.4,0.4-0.8,0.6-1.2,0.8c-0.4,0.2-0.9,0.3-1.4,0.3c-0.9,0-1.5-0.2-2-0.7c-0.5-0.5-0.7-1-0.7-1.8c0-0.5,0.1-0.9,0.3-1.3
					c0.2-0.4,0.5-0.6,0.9-0.8c0.4-0.2,1-0.4,1.7-0.5c1-0.2,1.7-0.4,2.1-0.5v-0.2c0-0.4-0.1-0.7-0.3-0.9c-0.2-0.2-0.6-0.3-1.2-0.3
					c-0.4,0-0.7,0.1-0.9,0.2C129.7,52.8,129.5,53.1,129.4,53.4z M132.3,55.3c-0.3,0.1-0.7,0.2-1.3,0.3c-0.6,0.1-1,0.3-1.2,0.4
					c-0.3,0.2-0.4,0.5-0.4,0.8s0.1,0.6,0.3,0.8c0.2,0.2,0.5,0.3,0.9,0.3c0.4,0,0.8-0.1,1.1-0.4c0.3-0.2,0.4-0.4,0.5-0.7
					c0.1-0.2,0.1-0.5,0.1-1.1L132.3,55.3L132.3,55.3z"/>
				<path fill="#4D4D4F" d="M136.6,59.3V47.8h2.2v11.5H136.6z"/>
				<path fill="#4D4D4F" d="M145.6,47.8h4.2c1,0,1.7,0.1,2.2,0.2c0.7,0.2,1.2,0.6,1.7,1.1c0.5,0.5,0.8,1.1,1.1,1.9
					c0.2,0.7,0.4,1.6,0.4,2.7c0,0.9-0.1,1.8-0.4,2.4c-0.3,0.8-0.7,1.5-1.2,2c-0.4,0.4-0.9,0.7-1.6,0.9c-0.5,0.2-1.2,0.2-2,0.2h-4.4
					V47.8L145.6,47.8z M147.9,49.7v7.6h1.7c0.6,0,1.1,0,1.4-0.1c0.4-0.1,0.7-0.3,0.9-0.5c0.2-0.2,0.4-0.6,0.6-1.1
					c0.2-0.5,0.2-1.2,0.2-2.1c0-0.9-0.1-1.6-0.2-2c-0.2-0.5-0.4-0.8-0.7-1.1c-0.3-0.3-0.6-0.4-1.1-0.5c-0.3-0.1-1-0.1-1.9-0.1
					L147.9,49.7L147.9,49.7z"/>
				<path fill="#4D4D4F" d="M157.2,49.8v-2h2.2v2H157.2z M157.2,59.3v-8.3h2.2v8.3H157.2z"/>
				<path fill="#4D4D4F" d="M160.8,56.9l2.2-0.3c0.1,0.4,0.3,0.8,0.6,1c0.3,0.2,0.7,0.3,1.2,0.3c0.6,0,1-0.1,1.3-0.3
					c0.2-0.1,0.3-0.3,0.3-0.6c0-0.2-0.1-0.3-0.2-0.4c-0.1-0.1-0.4-0.2-0.7-0.3c-1.8-0.4-2.9-0.7-3.4-1.1c-0.7-0.4-1-1.1-1-1.9
					c0-0.7,0.3-1.3,0.9-1.8c0.6-0.5,1.4-0.7,2.6-0.7c1.1,0,2,0.2,2.5,0.6c0.6,0.4,0.9,0.9,1.1,1.6l-2.1,0.4
					c-0.1-0.3-0.3-0.6-0.5-0.7c-0.2-0.2-0.6-0.3-1.1-0.3c-0.6,0-1,0.1-1.2,0.2s-0.2,0.3-0.2,0.4c0,0.2,0.1,0.3,0.2,0.4
					c0.2,0.1,0.9,0.4,2.1,0.6c1.2,0.3,2,0.6,2.4,1c0.5,0.4,0.7,0.9,0.7,1.6c0,0.8-0.3,1.4-1,2c-0.6,0.5-1.6,0.8-2.8,0.8
					c-1.1,0-2-0.2-2.7-0.7C161.5,58.4,161,57.7,160.8,56.9z"/>
				<path fill="#4D4D4F" d="M170.1,55c0-0.7,0.2-1.4,0.5-2.1c0.4-0.7,0.9-1.2,1.5-1.6c0.7-0.4,1.4-0.5,2.2-0.5
					c1.3,0,2.3,0.4,3.1,1.2c0.8,0.8,1.2,1.8,1.2,3.1c0,1.3-0.4,2.3-1.2,3.1c-0.8,0.8-1.8,1.2-3.1,1.2c-0.8,0-1.5-0.2-2.2-0.5
					s-1.2-0.8-1.6-1.5C170.1,56.7,170.1,56,170.1,55z M172.3,55.2c0,0.8,0.2,1.5,0.6,1.9c0.4,0.4,0.9,0.7,1.4,0.7
					c0.6,0,1.1-0.2,1.4-0.7c0.4-0.4,0.6-1.1,0.6-1.9c0-0.8-0.2-1.4-0.6-1.9c-0.4-0.4-0.9-0.7-1.4-0.7c-0.6,0-1.1,0.2-1.4,0.7
					C172.5,53.6,172.3,54.2,172.3,55.2z"/>
				<path fill="#4D4D4F" d="M182.5,59.3h-2.2v-8.3h2v1.2c0.3-0.6,0.7-0.9,0.9-1.1c0.3-0.2,0.6-0.3,0.9-0.3c0.5,0,1,0.1,1.4,0.4
					l-0.7,1.9c-0.4-0.2-0.7-0.4-1-0.4s-0.6,0.1-0.8,0.3c-0.2,0.2-0.4,0.5-0.5,0.9c-0.1,0.4-0.2,1.4-0.2,2.8L182.5,59.3L182.5,59.3z"
					/>
				<path fill="#4D4D4F" d="M194.3,59.3h-2v-1.2c-0.3,0.5-0.7,0.8-1.2,1.1c-0.5,0.2-0.9,0.3-1.4,0.3c-1,0-1.8-0.4-2.4-1.2
					c-0.7-0.8-1-1.8-1-3.2s0.3-2.5,1-3.2c0.7-0.7,1.5-1.1,2.5-1.1c0.9,0,1.7,0.4,2.4,1.2v-4.1h2.2L194.3,59.3L194.3,59.3z M188.4,55
					c0,0.9,0.1,1.5,0.4,1.9c0.4,0.6,0.8,0.9,1.5,0.9c0.5,0,0.9-0.2,1.3-0.6c0.4-0.4,0.5-1.1,0.5-1.9c0-1-0.2-1.6-0.5-2.1
					c-0.3-0.4-0.8-0.6-1.3-0.6c-0.5,0-1,0.2-1.3,0.6C188.6,53.4,188.4,54.1,188.4,55z"/>
				<path fill="#4D4D4F" d="M201.3,56.7l2.2,0.4c-0.3,0.8-0.7,1.4-1.3,1.8c-0.6,0.4-1.4,0.6-2.3,0.6c-1.4,0-2.5-0.5-3.2-1.4
					c-0.5-0.8-0.8-1.7-0.8-2.9c0-1.4,0.4-2.5,1.1-3.2c0.7-0.8,1.6-1.2,2.7-1.2c1.2,0,2.2,0.4,2.9,1.2c0.7,0.8,1.1,2.1,1,3.7h-5.5
					c0,0.7,0.2,1.2,0.5,1.5c0.3,0.4,0.8,0.5,1.3,0.5c0.3,0,0.6-0.1,0.9-0.3C201,57.4,201.2,57.1,201.3,56.7z M201.4,54.4
					c0-0.6-0.2-1.1-0.5-1.4c-0.3-0.3-0.7-0.5-1.1-0.5c-0.5,0-0.9,0.2-1.2,0.5c-0.3,0.3-0.5,0.8-0.5,1.4H201.4z"/>
				<path fill="#4D4D4F" d="M207.6,59.3h-2.2v-8.3h2v1.2c0.3-0.6,0.7-0.9,0.9-1.1c0.3-0.2,0.6-0.3,0.9-0.3c0.5,0,1,0.1,1.4,0.4
					l-0.7,1.9c-0.4-0.2-0.7-0.4-1-0.4c-0.3,0-0.6,0.1-0.8,0.3s-0.4,0.5-0.5,0.9c-0.1,0.4-0.2,1.4-0.2,2.8L207.6,59.3L207.6,59.3z"/>
				<path fill="#4D4D4F" d="M210.9,56.9l2.2-0.3c0.1,0.4,0.3,0.8,0.6,1c0.3,0.2,0.7,0.3,1.2,0.3c0.6,0,1-0.1,1.3-0.3
					c0.2-0.1,0.3-0.3,0.3-0.6c0-0.2-0.1-0.3-0.2-0.4c-0.1-0.1-0.4-0.2-0.7-0.3c-1.8-0.4-2.9-0.7-3.4-1.1c-0.7-0.4-1-1.1-1-1.9
					c0-0.7,0.3-1.3,0.9-1.8c0.6-0.5,1.4-0.7,2.6-0.7c1.1,0,2,0.2,2.5,0.6c0.6,0.4,0.9,0.9,1.1,1.6l-2.1,0.4
					c-0.1-0.3-0.3-0.6-0.5-0.7c-0.2-0.2-0.6-0.3-1.1-0.3c-0.6,0-1,0.1-1.2,0.2c-0.2,0.1-0.2,0.3-0.2,0.4c0,0.2,0.1,0.3,0.2,0.4
					c0.2,0.1,0.9,0.4,2.1,0.6c1.2,0.3,2,0.6,2.4,1c0.5,0.4,0.7,0.9,0.7,1.6c0,0.8-0.3,1.4-1,2c-0.6,0.5-1.6,0.8-2.8,0.8
					c-1.1,0-2-0.2-2.7-0.7C211.6,58.4,211.1,57.7,210.9,56.9z"/>
			</g>
		</g>
		<g>
			<g enable-background="new    ">
				<path fill="#4D4D4F" d="M527.3,99.5v-2.3h-4.7v-1.9l5-7.3h1.8v7.3h1.4v1.9h-1.4v2.3H527.3L527.3,99.5z M527.3,95.2v-3.9
					l-2.6,3.9H527.3z"/>
				<path fill="#4D4D4F" d="M532,90.8c0-1,0.2-1.8,0.7-2.3c0.5-0.5,1.1-0.7,1.8-0.7c0.8,0,1.4,0.2,1.9,0.7c0.5,0.5,0.7,1.3,0.7,2.3
					c0,1-0.2,1.8-0.7,2.3c-0.4,0.5-1.1,0.7-1.8,0.7c-0.8,0-1.4-0.2-1.9-0.7C532.2,92.6,532,91.8,532,90.8z M533.7,90.8
					c0,0.7,0.1,1.2,0.3,1.5c0.1,0.2,0.3,0.3,0.5,0.3s0.4-0.1,0.5-0.3c0.2-0.3,0.2-0.8,0.2-1.5c0-0.7-0.1-1.2-0.2-1.5
					c-0.1-0.2-0.3-0.3-0.5-0.3s-0.4,0.1-0.5,0.3C533.7,89.5,533.7,90,533.7,90.8z M536.2,99.9h-1.6l6.1-12.2h1.6L536.2,99.9z
					 M539.8,96.8c0-1,0.2-1.8,0.7-2.3c0.4-0.5,1.1-0.7,1.8-0.7c0.8,0,1.4,0.2,1.9,0.7c0.5,0.5,0.7,1.3,0.7,2.3s-0.2,1.8-0.7,2.3
					c-0.4,0.5-1.1,0.7-1.8,0.7c-0.8,0-1.4-0.2-1.9-0.7S539.8,97.9,539.8,96.8z M541.5,96.8c0,0.7,0.1,1.2,0.3,1.5
					c0.1,0.2,0.3,0.3,0.5,0.3c0.2,0,0.4-0.1,0.5-0.3c0.2-0.3,0.3-0.8,0.3-1.5s-0.1-1.2-0.2-1.5c-0.1-0.2-0.3-0.3-0.5-0.3
					s-0.4,0.1-0.5,0.3C541.6,95.6,541.5,96.1,541.5,96.8z"/>
			</g>
			<g enable-background="new    ">
				<path fill="#4D4D4F" d="M523,136.6l2.1-0.3c0.1,0.5,0.2,1,0.5,1.2c0.3,0.3,0.7,0.4,1.1,0.4c0.5,0,0.8-0.2,1.1-0.5
					c0.3-0.3,0.5-0.8,0.5-1.4c0-0.6-0.1-1-0.4-1.3c-0.3-0.3-0.7-0.5-1.1-0.5c-0.3,0-0.6,0.1-1,0.2l0.2-1.8c0.6,0,1-0.1,1.4-0.4
					c0.3-0.3,0.5-0.6,0.5-1.1c0-0.4-0.1-0.7-0.3-0.9s-0.5-0.3-0.9-0.3s-0.7,0.1-1,0.4c-0.3,0.3-0.4,0.6-0.5,1.1l-2-0.3
					c0.1-0.7,0.4-1.2,0.6-1.7c0.3-0.4,0.7-0.7,1.2-1c0.5-0.2,1.1-0.4,1.7-0.4c1.1,0,1.9,0.3,2.6,1c0.5,0.6,0.8,1.2,0.8,1.9
					c0,1-0.6,1.8-1.6,2.4c0.7,0.1,1.2,0.5,1.6,0.9c0.4,0.5,0.6,1.1,0.6,1.8c0,1-0.4,1.9-1.1,2.6s-1.6,1.1-2.7,1.1
					c-1,0-1.9-0.3-2.6-0.9C523.5,138.3,523.1,137.5,523,136.6z"/>
				<path fill="#4D4D4F" d="M532,131c0-1,0.2-1.8,0.7-2.3c0.5-0.5,1.1-0.7,1.8-0.7c0.8,0,1.4,0.2,1.9,0.7c0.5,0.5,0.7,1.3,0.7,2.3
					c0,1-0.2,1.8-0.7,2.3c-0.4,0.5-1.1,0.7-1.8,0.7c-0.8,0-1.4-0.2-1.9-0.7C532.2,132.8,532,132,532,131z M533.7,131
					c0,0.7,0.1,1.2,0.3,1.5c0.1,0.2,0.3,0.3,0.5,0.3s0.4-0.1,0.5-0.3c0.2-0.3,0.2-0.8,0.2-1.5s-0.1-1.2-0.2-1.5
					c-0.1-0.2-0.3-0.3-0.5-0.3s-0.4,0.1-0.5,0.3C533.7,129.7,533.7,130.2,533.7,131z M536.2,140h-1.6l6.1-12.2h1.6L536.2,140z
					 M539.8,137c0-1,0.2-1.8,0.7-2.3c0.4-0.5,1.1-0.7,1.8-0.7c0.8,0,1.4,0.2,1.9,0.7s0.7,1.3,0.7,2.3s-0.2,1.8-0.7,2.3
					c-0.4,0.5-1.1,0.7-1.8,0.7c-0.8,0-1.4-0.2-1.9-0.7C540,138.8,539.8,138.1,539.8,137z M541.5,137c0,0.7,0.1,1.2,0.3,1.5
					c0.1,0.2,0.3,0.3,0.5,0.3c0.2,0,0.4-0.1,0.5-0.3c0.2-0.3,0.3-0.8,0.3-1.5s-0.1-1.2-0.2-1.5c-0.1-0.2-0.3-0.3-0.5-0.3
					s-0.4,0.1-0.5,0.3C541.6,135.8,541.5,136.3,541.5,137z"/>
			</g>
		</g>
		<g>
			<g enable-background="new    ">
				<path fill="#4D4D4F" d="M24.1,296.2v-1.9h5v4.6c-0.5,0.5-1.2,0.9-2.1,1.2c-0.9,0.4-1.9,0.5-2.8,0.5c-1.2,0-2.2-0.3-3.1-0.8
					c-0.9-0.5-1.6-1.2-2-2.2c-0.4-0.9-0.7-2-0.7-3.1c0-1.2,0.2-2.3,0.8-3.2c0.5-0.9,1.2-1.6,2.2-2.1c0.7-0.4,1.6-0.6,2.7-0.6
					c1.4,0,2.5,0.3,3.3,0.9c0.8,0.6,1.3,1.4,1.5,2.5l-2.3,0.4c-0.2-0.6-0.5-1-0.9-1.3c-0.4-0.3-1-0.5-1.7-0.5c-1,0-1.8,0.3-2.4,1
					c-0.6,0.6-0.9,1.6-0.9,2.9c0,1.4,0.3,2.4,0.9,3.1c0.6,0.7,1.4,1,2.4,1c0.5,0,1-0.1,1.5-0.3c0.5-0.2,0.9-0.4,1.3-0.7v-1.5
					L24.1,296.2L24.1,296.2L24.1,296.2z"/>
				<path fill="#4D4D4F" d="M36.1,297.8l2.2,0.4c-0.3,0.8-0.7,1.4-1.3,1.8c-0.6,0.4-1.4,0.6-2.3,0.6c-1.4,0-2.5-0.5-3.2-1.4
					c-0.5-0.8-0.8-1.7-0.8-2.9c0-1.4,0.4-2.5,1.1-3.2c0.7-0.8,1.6-1.2,2.7-1.2c1.2,0,2.2,0.4,2.9,1.2c0.7,0.8,1.1,2.1,1,3.7h-5.5
					c0,0.6,0.2,1.2,0.5,1.5c0.3,0.4,0.8,0.5,1.3,0.5c0.3,0,0.6-0.1,0.9-0.3C35.8,298.5,36,298.2,36.1,297.8z M36.2,295.5
					c0-0.6-0.2-1.1-0.5-1.4s-0.7-0.5-1.1-0.5c-0.5,0-0.9,0.2-1.2,0.5c-0.3,0.4-0.5,0.8-0.5,1.4H36.2z"/>
				<path fill="#4D4D4F" d="M47.7,300.4h-2.2v-4.2c0-0.9,0-1.5-0.1-1.7c-0.1-0.3-0.2-0.5-0.5-0.6c-0.2-0.1-0.5-0.2-0.8-0.2
					c-0.4,0-0.7,0.1-1,0.3c-0.3,0.2-0.5,0.5-0.6,0.8c-0.1,0.3-0.2,1-0.2,1.9v3.8h-2.1v-8.3h2v1.2c0.7-0.9,1.6-1.4,2.7-1.4
					c0.5,0,0.9,0.1,1.3,0.3c0.4,0.2,0.7,0.4,0.9,0.7c0.2,0.3,0.3,0.6,0.4,0.9s0.1,0.8,0.1,1.5L47.7,300.4L47.7,300.4z"/>
				<path fill="#4D4D4F" d="M54.9,297.8l2.2,0.4c-0.3,0.8-0.7,1.4-1.3,1.8c-0.6,0.4-1.4,0.6-2.3,0.6c-1.4,0-2.5-0.5-3.2-1.4
					c-0.5-0.8-0.8-1.7-0.8-2.9c0-1.4,0.4-2.5,1.1-3.2c0.7-0.8,1.6-1.2,2.7-1.2c1.2,0,2.2,0.4,2.9,1.2c0.7,0.8,1.1,2.1,1,3.7h-5.5
					c0,0.6,0.2,1.2,0.5,1.5c0.3,0.4,0.8,0.5,1.3,0.5c0.3,0,0.6-0.1,0.9-0.3C54.5,298.5,54.8,298.2,54.9,297.8z M55,295.5
					c0-0.6-0.2-1.1-0.5-1.4c-0.3-0.3-0.7-0.5-1.1-0.5c-0.5,0-0.9,0.2-1.2,0.5c-0.3,0.4-0.5,0.8-0.5,1.4H55z"/>
				<path fill="#4D4D4F" d="M61.1,300.4h-2.2V292h2v1.2c0.3-0.6,0.7-0.9,0.9-1.1c0.3-0.2,0.6-0.3,0.9-0.3c0.5,0,1,0.1,1.4,0.4
					l-0.7,1.9c-0.4-0.2-0.7-0.4-1-0.4c-0.3,0-0.6,0.1-0.8,0.3c-0.2,0.2-0.4,0.5-0.5,0.9c-0.1,0.4-0.2,1.4-0.2,2.8L61.1,300.4
					L61.1,300.4z"/>
				<path fill="#4D4D4F" d="M66.8,294.5l-2-0.4c0.2-0.8,0.6-1.4,1.2-1.8c0.5-0.4,1.4-0.6,2.4-0.6c1,0,1.7,0.1,2.2,0.3
					c0.5,0.2,0.8,0.5,1,0.9s0.3,1,0.3,2v2.6c0,0.7,0,1.3,0.1,1.6c0.1,0.3,0.2,0.7,0.4,1.1h-2.2c-0.1-0.1-0.1-0.4-0.2-0.6
					c0-0.1-0.1-0.2-0.1-0.3c-0.4,0.4-0.8,0.6-1.2,0.8c-0.4,0.2-0.9,0.3-1.4,0.3c-0.9,0-1.5-0.2-2-0.7c-0.5-0.5-0.7-1-0.7-1.8
					c0-0.5,0.1-0.9,0.3-1.3c0.2-0.4,0.5-0.6,0.9-0.8s1-0.4,1.7-0.5c1-0.2,1.7-0.4,2.1-0.5v-0.2c0-0.4-0.1-0.7-0.3-0.9
					c-0.2-0.2-0.6-0.3-1.2-0.3c-0.4,0-0.7,0.1-0.9,0.2C67.1,293.9,67,294.2,66.8,294.5z M69.8,296.4c-0.3,0.1-0.7,0.2-1.3,0.3
					s-1,0.3-1.2,0.4c-0.3,0.2-0.4,0.5-0.4,0.8s0.1,0.6,0.3,0.8c0.2,0.2,0.5,0.3,0.9,0.3c0.4,0,0.8-0.1,1.1-0.4
					c0.3-0.2,0.4-0.4,0.5-0.7c0.1-0.2,0.1-0.5,0.1-1.1V296.4L69.8,296.4z"/>
				<path fill="#4D4D4F" d="M74.1,300.4v-11.6h2.2v11.6H74.1z"/>
				<path fill="#4D4D4F" d="M83.1,288.9h4.2c1,0,1.7,0.1,2.2,0.2c0.7,0.2,1.2,0.6,1.7,1.1c0.5,0.5,0.8,1.1,1.1,1.9
					c0.2,0.7,0.4,1.6,0.4,2.7c0,0.9-0.1,1.8-0.4,2.4c-0.3,0.8-0.7,1.5-1.2,2c-0.4,0.4-0.9,0.7-1.6,0.9c-0.5,0.2-1.2,0.2-2,0.2h-4.4
					L83.1,288.9L83.1,288.9z M85.4,290.8v7.6h1.7c0.6,0,1.1,0,1.4-0.1c0.4-0.1,0.7-0.3,0.9-0.5c0.2-0.2,0.4-0.6,0.6-1.1
					c0.2-0.5,0.2-1.2,0.2-2.1c0-0.9-0.1-1.6-0.2-2c-0.2-0.5-0.4-0.8-0.7-1.1c-0.3-0.3-0.6-0.4-1.1-0.5c-0.3-0.1-1-0.1-1.9-0.1
					L85.4,290.8L85.4,290.8z"/>
				<path fill="#4D4D4F" d="M94.6,290.9v-2h2.2v2H94.6z M94.6,300.4V292h2.2v8.3H94.6z"/>
				<path fill="#4D4D4F" d="M98.4,298l2.2-0.3c0.1,0.4,0.3,0.8,0.6,1c0.3,0.2,0.7,0.3,1.2,0.3c0.6,0,1-0.1,1.3-0.3
					c0.2-0.1,0.3-0.3,0.3-0.6c0-0.2-0.1-0.3-0.2-0.4s-0.4-0.2-0.7-0.3c-1.8-0.4-2.9-0.7-3.4-1.1c-0.7-0.4-1-1.1-1-1.9
					c0-0.7,0.3-1.3,0.9-1.8c0.6-0.5,1.4-0.7,2.6-0.7c1.1,0,2,0.2,2.5,0.6c0.6,0.4,0.9,0.9,1.1,1.6l-2.1,0.4
					c-0.1-0.3-0.3-0.6-0.5-0.7c-0.2-0.2-0.6-0.3-1.1-0.3c-0.6,0-1,0.1-1.2,0.2c-0.2,0.1-0.2,0.3-0.2,0.4c0,0.2,0.1,0.3,0.2,0.4
					c0.2,0.1,0.9,0.4,2.1,0.6c1.2,0.3,2,0.6,2.4,1c0.5,0.4,0.7,0.9,0.7,1.6c0,0.8-0.3,1.4-1,2c-0.6,0.5-1.6,0.8-2.8,0.8
					c-1.1,0-2-0.2-2.7-0.7C99,299.5,98.6,298.8,98.4,298z"/>
				<path fill="#4D4D4F" d="M107.6,296.1c0-0.7,0.2-1.4,0.5-2.1c0.4-0.7,0.9-1.2,1.5-1.6c0.7-0.4,1.4-0.5,2.2-0.5
					c1.3,0,2.3,0.4,3.1,1.2c0.8,0.8,1.2,1.8,1.2,3.1c0,1.3-0.4,2.3-1.2,3.1c-0.8,0.8-1.8,1.2-3.1,1.2c-0.8,0-1.5-0.2-2.2-0.5
					c-0.7-0.3-1.2-0.8-1.6-1.5C107.7,297.9,107.6,297.1,107.6,296.1z M109.8,296.3c0,0.8,0.2,1.5,0.6,1.9c0.4,0.4,0.9,0.7,1.4,0.7
					c0.5,0,1.1-0.2,1.4-0.7c0.3-0.5,0.6-1.1,0.6-1.9c0-0.8-0.2-1.4-0.6-1.9c-0.4-0.4-0.9-0.7-1.4-0.7c-0.6,0-1.1,0.2-1.4,0.7
					C110,294.8,109.8,295.4,109.8,296.3z"/>
				<path fill="#4D4D4F" d="M120,300.4h-2.2V292h2v1.2c0.3-0.6,0.7-0.9,0.9-1.1c0.3-0.2,0.6-0.3,0.9-0.3c0.5,0,1,0.1,1.4,0.4
					l-0.7,1.9c-0.4-0.2-0.7-0.4-1-0.4c-0.3,0-0.6,0.1-0.8,0.3c-0.2,0.2-0.4,0.5-0.5,0.9c-0.1,0.4-0.2,1.4-0.2,2.8L120,300.4
					L120,300.4z"/>
				<path fill="#4D4D4F" d="M131.8,300.4h-2v-1.2c-0.3,0.5-0.7,0.8-1.2,1.1c-0.5,0.2-0.9,0.4-1.4,0.4c-1,0-1.8-0.4-2.4-1.2
					c-0.7-0.8-1-1.8-1-3.2c0-1.4,0.3-2.5,1-3.2c0.7-0.7,1.5-1.1,2.5-1.1c0.9,0,1.7,0.4,2.4,1.2V289h2.2L131.8,300.4L131.8,300.4z
					 M125.9,296.1c0,0.9,0.1,1.5,0.4,1.9c0.4,0.6,0.8,0.9,1.5,0.9c0.5,0,0.9-0.2,1.3-0.6c0.4-0.4,0.5-1.1,0.5-1.9
					c0-1-0.2-1.6-0.5-2.1c-0.3-0.4-0.8-0.6-1.3-0.6c-0.5,0-1,0.2-1.3,0.6S125.9,295.3,125.9,296.1z"/>
				<path fill="#4D4D4F" d="M138.8,297.8l2.2,0.4c-0.3,0.8-0.7,1.4-1.3,1.8c-0.6,0.4-1.4,0.6-2.3,0.6c-1.4,0-2.5-0.5-3.2-1.4
					c-0.5-0.8-0.8-1.7-0.8-2.9c0-1.4,0.4-2.5,1.1-3.2c0.7-0.7,1.6-1.2,2.7-1.2c1.2,0,2.2,0.4,2.9,1.2c0.7,0.8,1.1,2.1,1,3.7h-5.5
					c0,0.6,0.2,1.2,0.5,1.5c0.3,0.4,0.8,0.5,1.3,0.5c0.3,0,0.6-0.1,0.9-0.3C138.5,298.5,138.6,298.2,138.8,297.8z M138.9,295.5
					c0-0.6-0.2-1.1-0.5-1.4c-0.3-0.3-0.7-0.5-1.1-0.5c-0.5,0-0.9,0.2-1.2,0.5c-0.3,0.4-0.5,0.8-0.5,1.4H138.9z"/>
				<path fill="#4D4D4F" d="M145.1,300.4h-2.2V292h2v1.2c0.3-0.6,0.7-0.9,0.9-1.1c0.3-0.2,0.6-0.3,0.9-0.3c0.5,0,1,0.1,1.4,0.4
					l-0.7,1.9c-0.4-0.2-0.7-0.4-1-0.4c-0.3,0-0.6,0.1-0.8,0.3c-0.2,0.2-0.4,0.5-0.5,0.9c-0.1,0.4-0.2,1.4-0.2,2.8L145.1,300.4
					L145.1,300.4z"/>
				<path fill="#4D4D4F" d="M148.4,298l2.2-0.3c0.1,0.4,0.3,0.8,0.6,1c0.3,0.2,0.7,0.3,1.2,0.3c0.6,0,1-0.1,1.3-0.3
					c0.2-0.1,0.3-0.3,0.3-0.6c0-0.2-0.1-0.3-0.2-0.4c-0.1-0.1-0.4-0.2-0.7-0.3c-1.8-0.4-2.9-0.7-3.4-1.1c-0.7-0.4-1-1.1-1-1.9
					c0-0.7,0.3-1.3,0.9-1.8c0.6-0.5,1.4-0.7,2.6-0.7c1.1,0,2,0.2,2.5,0.6c0.6,0.4,0.9,0.9,1.1,1.6l-2.1,0.4
					c-0.1-0.3-0.3-0.6-0.5-0.7c-0.2-0.2-0.6-0.3-1.1-0.3c-0.6,0-1,0.1-1.2,0.2s-0.2,0.3-0.2,0.4c0,0.2,0.1,0.3,0.2,0.4
					c0.2,0.1,0.9,0.4,2.1,0.6c1.2,0.3,2,0.6,2.4,1c0.5,0.4,0.7,0.9,0.7,1.6c0,0.8-0.3,1.4-1,2c-0.6,0.5-1.6,0.8-2.8,0.8
					c-1.1,0-2-0.2-2.7-0.7C149,299.5,148.6,298.8,148.4,298z"/>
				<path fill="#4D4D4F" d="M164.3,294.5l-2-0.4c0.2-0.8,0.6-1.4,1.2-1.8c0.5-0.4,1.4-0.6,2.4-0.6c1,0,1.7,0.1,2.2,0.3
					c0.5,0.2,0.8,0.5,1,0.9c0.2,0.4,0.3,1,0.3,2v2.6c0,0.7,0,1.3,0.1,1.6c0.1,0.3,0.2,0.7,0.4,1.1h-2.2c-0.1-0.1-0.1-0.4-0.2-0.6
					c0-0.1-0.1-0.2-0.1-0.3c-0.4,0.4-0.8,0.6-1.2,0.8c-0.4,0.2-0.9,0.3-1.4,0.3c-0.9,0-1.5-0.2-2-0.7c-0.5-0.5-0.7-1-0.7-1.8
					c0-0.5,0.1-0.9,0.3-1.3c0.2-0.4,0.5-0.6,0.9-0.8s1-0.4,1.7-0.5c1-0.2,1.7-0.4,2.1-0.5v-0.2c0-0.4-0.1-0.7-0.3-0.9
					c-0.2-0.2-0.6-0.3-1.2-0.3c-0.4,0-0.7,0.1-0.9,0.2C164.6,293.9,164.4,294.2,164.3,294.5z M167.2,296.4c-0.3,0.1-0.7,0.2-1.3,0.3
					s-1,0.3-1.2,0.4c-0.3,0.2-0.4,0.5-0.4,0.8s0.1,0.6,0.3,0.8s0.5,0.3,0.9,0.3c0.4,0,0.8-0.1,1.1-0.4c0.3-0.2,0.4-0.4,0.5-0.7
					c0.1-0.2,0.1-0.5,0.1-1.1L167.2,296.4L167.2,296.4z"/>
				<path fill="#4D4D4F" d="M179.1,300.4h-2.2v-4.2c0-0.9,0-1.5-0.1-1.7c-0.1-0.3-0.2-0.5-0.5-0.6c-0.2-0.1-0.5-0.2-0.8-0.2
					c-0.4,0-0.7,0.1-1,0.3c-0.3,0.2-0.5,0.5-0.6,0.8c-0.1,0.3-0.2,1-0.2,1.9v3.8h-2.2v-8.3h2v1.2c0.7-0.9,1.6-1.4,2.7-1.4
					c0.5,0,0.9,0.1,1.3,0.3c0.4,0.2,0.7,0.4,0.9,0.7c0.2,0.3,0.3,0.6,0.4,0.9s0.1,0.8,0.1,1.5L179.1,300.4L179.1,300.4z"/>
				<path fill="#4D4D4F" d="M189,300.4h-2v-1.2c-0.3,0.5-0.7,0.8-1.2,1.1c-0.5,0.2-0.9,0.4-1.4,0.4c-1,0-1.8-0.4-2.4-1.2
					c-0.7-0.8-1-1.8-1-3.2c0-1.4,0.3-2.5,1-3.2c0.7-0.7,1.5-1.1,2.5-1.1c0.9,0,1.7,0.4,2.4,1.2V289h2.2L189,300.4L189,300.4z
					 M183,296.1c0,0.9,0.1,1.5,0.4,1.9c0.4,0.6,0.8,0.9,1.5,0.9c0.5,0,0.9-0.2,1.3-0.6c0.4-0.4,0.5-1.1,0.5-1.9c0-1-0.2-1.6-0.5-2.1
					c-0.3-0.4-0.8-0.6-1.3-0.6s-1,0.2-1.3,0.6C183.3,294.6,183,295.3,183,296.1z"/>
				<path fill="#4D4D4F" d="M205.4,300.4h-2.5l-1-2.6h-4.6l-0.9,2.6h-2.5l4.5-11.6h2.4L205.4,300.4z M201.1,295.9l-1.6-4.2l-1.5,4.2
					H201.1z"/>
				<path fill="#4D4D4F" d="M214.3,300.4h-2v-1.2c-0.3,0.5-0.7,0.8-1.2,1.1s-0.9,0.4-1.4,0.4c-1,0-1.8-0.4-2.4-1.2
					c-0.7-0.8-1-1.8-1-3.2c0-1.4,0.3-2.5,1-3.2c0.7-0.7,1.5-1.1,2.5-1.1c0.9,0,1.7,0.4,2.4,1.2V289h2.2L214.3,300.4L214.3,300.4z
					 M208.4,296.1c0,0.9,0.1,1.5,0.4,1.9c0.4,0.6,0.8,0.9,1.5,0.9c0.5,0,0.9-0.2,1.3-0.6c0.4-0.4,0.5-1.1,0.5-1.9
					c0-1-0.2-1.6-0.5-2.1c-0.3-0.4-0.8-0.6-1.3-0.6c-0.5,0-1,0.2-1.3,0.6C208.6,294.5,208.4,295.3,208.4,296.1z"/>
				<path fill="#4D4D4F" d="M216.3,292h2v1.1c0.7-0.9,1.6-1.3,2.6-1.3c0.5,0,1,0.1,1.4,0.3c0.4,0.2,0.7,0.6,1,1
					c0.4-0.4,0.8-0.8,1.2-1c0.4-0.2,0.9-0.3,1.4-0.3c0.6,0,1.1,0.1,1.5,0.4c0.4,0.3,0.7,0.6,0.9,1.1c0.2,0.4,0.2,0.9,0.2,1.7v5.3
					h-2.2v-4.7c0-0.8-0.1-1.4-0.2-1.6c-0.2-0.3-0.5-0.5-0.9-0.5c-0.3,0-0.6,0.1-0.9,0.3c-0.3,0.2-0.5,0.5-0.6,0.8
					c-0.1,0.4-0.2,0.9-0.2,1.7v4h-2.2v-4.5c0-0.8,0-1.3-0.1-1.6c-0.1-0.2-0.2-0.4-0.4-0.5c-0.2-0.1-0.4-0.2-0.7-0.2
					c-0.3,0-0.6,0.1-0.9,0.3c-0.3,0.2-0.5,0.4-0.6,0.8c-0.1,0.3-0.2,0.9-0.2,1.7v4h-2.2L216.3,292L216.3,292z"/>
				<path fill="#4D4D4F" d="M230.8,290.9v-2h2.2v2H230.8z M230.8,300.4V292h2.2v8.3H230.8z"/>
				<path fill="#4D4D4F" d="M242.8,300.4h-2.2v-4.2c0-0.9,0-1.5-0.1-1.7c-0.1-0.3-0.2-0.5-0.5-0.6c-0.2-0.1-0.5-0.2-0.8-0.2
					c-0.4,0-0.7,0.1-1,0.3c-0.3,0.2-0.5,0.5-0.6,0.8c-0.1,0.3-0.2,1-0.2,1.9v3.8h-2.2v-8.3h2v1.2c0.7-0.9,1.6-1.4,2.7-1.4
					c0.5,0,0.9,0.1,1.3,0.3c0.4,0.2,0.7,0.4,0.9,0.7c0.2,0.3,0.3,0.6,0.4,0.9s0.1,0.8,0.1,1.5L242.8,300.4L242.8,300.4z"/>
				<path fill="#4D4D4F" d="M245,290.9v-2h2.2v2H245z M245,300.4V292h2.2v8.3H245z"/>
				<path fill="#4D4D4F" d="M248.7,298l2.2-0.3c0.1,0.4,0.3,0.8,0.6,1c0.3,0.2,0.7,0.3,1.2,0.3c0.6,0,1-0.1,1.3-0.3
					c0.2-0.1,0.3-0.3,0.3-0.6c0-0.2-0.1-0.3-0.2-0.4c-0.1-0.1-0.4-0.2-0.7-0.3c-1.8-0.4-2.9-0.7-3.4-1.1c-0.7-0.4-1-1.1-1-1.9
					c0-0.7,0.3-1.3,0.9-1.8c0.6-0.5,1.4-0.7,2.6-0.7c1.1,0,2,0.2,2.5,0.6c0.6,0.4,0.9,0.9,1.1,1.6l-2.1,0.4
					c-0.1-0.3-0.3-0.6-0.5-0.7c-0.2-0.2-0.6-0.3-1.1-0.3c-0.6,0-1,0.1-1.2,0.2c-0.2,0.1-0.2,0.3-0.2,0.4c0,0.2,0.1,0.3,0.2,0.4
					c0.2,0.1,0.9,0.4,2.1,0.6c1.2,0.3,2,0.6,2.4,1c0.5,0.4,0.7,0.9,0.7,1.6c0,0.8-0.3,1.4-1,2c-0.6,0.5-1.6,0.8-2.8,0.8
					c-1.1,0-2-0.2-2.7-0.7C249.3,299.5,248.9,298.8,248.7,298z"/>
				<path fill="#4D4D4F" d="M262.2,292v1.8h-1.5v3.3c0,0.7,0,1.1,0,1.2s0.1,0.2,0.2,0.3c0.1,0.1,0.2,0.1,0.4,0.1s0.5-0.1,0.9-0.2
					l0.2,1.7c-0.5,0.2-1.1,0.3-1.7,0.3c-0.4,0-0.8-0.1-1.1-0.2c-0.3-0.1-0.6-0.3-0.7-0.5c-0.1-0.2-0.3-0.5-0.3-0.9
					c0-0.3-0.1-0.8-0.1-1.5v-3.6h-1V292h1v-1.6l2.2-1.3v2.9L262.2,292L262.2,292z"/>
				<path fill="#4D4D4F" d="M265.9,300.4h-2.2V292h2v1.2c0.3-0.6,0.7-0.9,0.9-1.1c0.3-0.2,0.6-0.3,0.9-0.3c0.5,0,1,0.1,1.4,0.4
					l-0.7,1.9c-0.4-0.2-0.7-0.4-1-0.4c-0.3,0-0.6,0.1-0.8,0.3c-0.2,0.2-0.4,0.5-0.5,0.9c-0.1,0.4-0.2,1.4-0.2,2.8L265.9,300.4
					L265.9,300.4z"/>
				<path fill="#4D4D4F" d="M271.6,294.5l-2-0.4c0.2-0.8,0.6-1.4,1.2-1.8c0.5-0.4,1.4-0.6,2.4-0.6s1.7,0.1,2.2,0.3
					c0.5,0.2,0.8,0.5,1,0.9s0.3,1,0.3,2v2.6c0,0.7,0,1.3,0.1,1.6c0.1,0.3,0.2,0.7,0.4,1.1h-2.2c-0.1-0.1-0.1-0.4-0.2-0.6
					c0-0.1-0.1-0.2-0.1-0.3c-0.4,0.4-0.8,0.6-1.2,0.8c-0.4,0.2-0.9,0.3-1.4,0.3c-0.9,0-1.5-0.2-2-0.7c-0.5-0.5-0.7-1-0.7-1.8
					c0-0.5,0.1-0.9,0.3-1.3c0.2-0.4,0.5-0.6,0.9-0.8s1-0.4,1.7-0.5c1-0.2,1.7-0.4,2.1-0.5v-0.2c0-0.4-0.1-0.7-0.3-0.9
					c-0.2-0.2-0.6-0.3-1.2-0.3c-0.4,0-0.7,0.1-0.9,0.2C271.9,293.9,271.8,294.2,271.6,294.5z M274.7,296.4c-0.3,0.1-0.7,0.2-1.3,0.3
					c-0.6,0.1-1,0.3-1.2,0.4c-0.3,0.2-0.4,0.5-0.4,0.8s0.1,0.6,0.3,0.8c0.2,0.2,0.5,0.3,0.9,0.3s0.8-0.1,1.1-0.4
					c0.3-0.2,0.4-0.4,0.5-0.7c0.1-0.2,0.1-0.5,0.1-1.1V296.4z"/>
				<path fill="#4D4D4F" d="M282.8,292v1.8h-1.5v3.3c0,0.7,0,1.1,0,1.2s0.1,0.2,0.2,0.3c0.1,0.1,0.2,0.1,0.4,0.1
					c0.2,0,0.5-0.1,0.9-0.2l0.2,1.7c-0.5,0.2-1.1,0.3-1.7,0.3c-0.4,0-0.8-0.1-1.1-0.2c-0.3-0.1-0.6-0.3-0.7-0.5
					c-0.1-0.2-0.3-0.5-0.3-0.9c0-0.3-0.1-0.8-0.1-1.5v-3.6h-1V292h1v-1.6l2.2-1.3v2.9L282.8,292L282.8,292z"/>
				<path fill="#4D4D4F" d="M284.3,290.9v-2h2.2v2H284.3z M284.3,300.4V292h2.2v8.3H284.3z"/>
				<path fill="#4D4D4F" d="M288.3,296.1c0-0.7,0.2-1.4,0.5-2.1c0.4-0.7,0.9-1.2,1.5-1.6c0.7-0.4,1.4-0.5,2.2-0.5
					c1.3,0,2.3,0.4,3.1,1.2c0.8,0.8,1.2,1.8,1.2,3.1c0,1.3-0.4,2.3-1.2,3.1c-0.8,0.8-1.8,1.2-3.1,1.2c-0.8,0-1.5-0.2-2.2-0.5
					c-0.7-0.3-1.2-0.8-1.6-1.5C288.4,297.9,288.3,297.1,288.3,296.1z M290.5,296.3c0,0.8,0.2,1.5,0.6,1.9c0.4,0.4,0.9,0.7,1.4,0.7
					c0.5,0,1.1-0.2,1.4-0.7c0.4-0.4,0.6-1.1,0.6-1.9c0-0.8-0.2-1.4-0.6-1.9c-0.4-0.4-0.9-0.7-1.4-0.7c-0.6,0-1.1,0.2-1.4,0.7
					C290.7,294.8,290.5,295.4,290.5,296.3z"/>
				<path fill="#4D4D4F" d="M306.2,300.4H304v-4.2c0-0.9,0-1.5-0.1-1.7c-0.1-0.3-0.2-0.5-0.5-0.6c-0.2-0.1-0.5-0.2-0.8-0.2
					c-0.4,0-0.7,0.1-1,0.3c-0.3,0.2-0.5,0.5-0.6,0.8c-0.1,0.3-0.2,1-0.2,1.9v3.8h-2.2v-8.3h2v1.2c0.7-0.9,1.6-1.4,2.7-1.4
					c0.5,0,0.9,0.1,1.3,0.3c0.4,0.2,0.7,0.4,0.9,0.7c0.2,0.3,0.4,0.6,0.4,0.9s0.1,0.8,0.1,1.5L306.2,300.4L306.2,300.4z"/>
				<path fill="#4D4D4F" d="M312.3,296.7l2.2-0.2c0.1,0.8,0.4,1.3,0.8,1.7s1,0.5,1.7,0.5c0.7,0,1.3-0.2,1.7-0.5
					c0.4-0.3,0.6-0.7,0.6-1.1c0-0.3-0.1-0.5-0.2-0.7c-0.2-0.2-0.4-0.4-0.8-0.5c-0.3-0.1-0.9-0.3-1.9-0.5c-1.2-0.3-2.1-0.7-2.6-1.1
					c-0.7-0.6-1.1-1.4-1.1-2.3c0-0.6,0.2-1.1,0.5-1.6c0.3-0.5,0.8-0.9,1.4-1.2c0.6-0.3,1.4-0.4,2.3-0.4c1.4,0,2.5,0.3,3.2,0.9
					c0.7,0.6,1.1,1.5,1.1,2.5l-2.3,0.1c-0.1-0.6-0.3-1-0.6-1.3c-0.3-0.3-0.8-0.4-1.5-0.4c-0.7,0-1.2,0.1-1.6,0.4
					c-0.2,0.2-0.4,0.4-0.4,0.7c0,0.3,0.1,0.5,0.3,0.7c0.3,0.2,1,0.5,2.1,0.8c1.1,0.3,2,0.5,2.5,0.8c0.5,0.3,1,0.7,1.3,1.2
					c0.3,0.5,0.5,1.1,0.5,1.8c0,0.7-0.2,1.3-0.5,1.8c-0.4,0.6-0.9,1-1.5,1.3c-0.6,0.3-1.5,0.4-2.5,0.4c-1.4,0-2.6-0.3-3.3-1
					C312.9,298.9,312.4,298,312.3,296.7z"/>
				<path fill="#4D4D4F" d="M323.6,290.9v-2h2.2v2H323.6z M323.6,300.4V292h2.2v8.3H323.6z"/>
				<path fill="#4D4D4F" d="M331.9,292v1.8h-1.5v3.3c0,0.7,0,1.1,0,1.2s0.1,0.2,0.2,0.3c0.1,0.1,0.2,0.1,0.4,0.1s0.5-0.1,0.9-0.2
					l0.2,1.7c-0.5,0.2-1.1,0.3-1.7,0.3c-0.4,0-0.8-0.1-1.1-0.2c-0.3-0.1-0.6-0.3-0.7-0.5c-0.1-0.2-0.3-0.5-0.3-0.9
					c0-0.3-0.1-0.8-0.1-1.5v-3.6h-1V292h1v-1.6l2.2-1.3v2.9L331.9,292L331.9,292z"/>
				<path fill="#4D4D4F" d="M338.2,297.8l2.2,0.4c-0.3,0.8-0.7,1.4-1.3,1.8c-0.6,0.4-1.4,0.6-2.3,0.6c-1.4,0-2.5-0.5-3.2-1.4
					c-0.5-0.8-0.8-1.7-0.8-2.9c0-1.4,0.4-2.5,1.1-3.2c0.7-0.7,1.6-1.2,2.7-1.2c1.2,0,2.2,0.4,2.9,1.2c0.7,0.8,1.1,2.1,1,3.7H335
					c0,0.6,0.2,1.2,0.5,1.5c0.3,0.4,0.8,0.5,1.3,0.5c0.3,0,0.6-0.1,0.9-0.3C337.9,298.5,338.1,298.2,338.2,297.8z M338.4,295.5
					c0-0.6-0.2-1.1-0.5-1.4s-0.7-0.5-1.1-0.5c-0.5,0-0.9,0.2-1.2,0.5c-0.3,0.4-0.5,0.8-0.5,1.4H338.4z"/>
				<path fill="#4D4D4F" d="M354.2,296.2l2.2,0.7c-0.3,1.2-0.9,2.2-1.7,2.8c-0.8,0.6-1.8,0.9-3,0.9c-1.5,0-2.8-0.5-3.8-1.6
					s-1.5-2.5-1.5-4.3c0-1.9,0.5-3.4,1.5-4.4c1-1.1,2.3-1.6,3.9-1.6c1.4,0,2.5,0.4,3.4,1.2c0.5,0.5,0.9,1.2,1.2,2.1l-2.3,0.5
					c-0.1-0.6-0.4-1.1-0.8-1.4c-0.4-0.3-1-0.5-1.6-0.5c-0.8,0-1.5,0.3-2.1,0.9c-0.5,0.6-0.8,1.6-0.8,3s0.3,2.5,0.8,3.1
					c0.5,0.6,1.2,0.9,2,0.9c0.6,0,1.1-0.2,1.6-0.6C353.7,297.7,354,297,354.2,296.2z"/>
				<path fill="#4D4D4F" d="M357.9,296.1c0-0.7,0.2-1.4,0.5-2.1c0.4-0.7,0.9-1.2,1.5-1.6c0.7-0.4,1.4-0.5,2.2-0.5
					c1.3,0,2.3,0.4,3.1,1.2c0.8,0.8,1.2,1.8,1.2,3.1c0,1.3-0.4,2.3-1.2,3.1c-0.8,0.8-1.8,1.2-3.1,1.2c-0.8,0-1.5-0.2-2.2-0.5
					c-0.7-0.3-1.2-0.8-1.6-1.5C358.1,297.9,357.9,297.1,357.9,296.1z M360.1,296.3c0,0.8,0.2,1.5,0.6,1.9c0.4,0.4,0.9,0.7,1.4,0.7
					c0.6,0,1.1-0.2,1.4-0.7c0.4-0.4,0.6-1.1,0.6-1.9c0-0.8-0.2-1.4-0.6-1.9c-0.4-0.4-0.9-0.7-1.4-0.7c-0.6,0-1.1,0.2-1.4,0.7
					C360.4,294.8,360.1,295.4,360.1,296.3z"/>
				<path fill="#4D4D4F" d="M375.8,300.4h-2.2v-4.2c0-0.9,0-1.5-0.1-1.7c-0.1-0.3-0.2-0.5-0.5-0.6c-0.2-0.1-0.5-0.2-0.8-0.2
					c-0.4,0-0.7,0.1-1,0.3c-0.3,0.2-0.5,0.5-0.6,0.8c-0.1,0.3-0.2,1-0.2,1.9v3.8h-2.2v-8.3h2v1.2c0.7-0.9,1.6-1.4,2.7-1.4
					c0.5,0,0.9,0.1,1.3,0.3c0.4,0.2,0.7,0.4,0.9,0.7s0.3,0.6,0.4,0.9s0.1,0.8,0.1,1.5v5H375.8z"/>
				<path fill="#4D4D4F" d="M385.8,300.4h-2v-1.2c-0.3,0.5-0.7,0.8-1.2,1.1c-0.5,0.2-0.9,0.4-1.4,0.4c-1,0-1.8-0.4-2.4-1.2
					c-0.7-0.8-1-1.8-1-3.2c0-1.4,0.3-2.5,1-3.2c0.7-0.7,1.5-1.1,2.5-1.1c0.9,0,1.7,0.4,2.4,1.2V289h2.2L385.8,300.4L385.8,300.4z
					 M379.8,296.1c0,0.9,0.1,1.5,0.4,1.9c0.4,0.6,0.8,0.9,1.5,0.9c0.5,0,0.9-0.2,1.3-0.6c0.4-0.4,0.5-1.1,0.5-1.9
					c0-1-0.2-1.6-0.5-2.1c-0.3-0.4-0.8-0.6-1.3-0.6c-0.5,0-1,0.2-1.3,0.6C380,294.5,379.8,295.3,379.8,296.1z"/>
				<path fill="#4D4D4F" d="M387.9,290.9v-2h2.2v2H387.9z M387.9,300.4V292h2.2v8.3H387.9z"/>
				<path fill="#4D4D4F" d="M396.2,292v1.8h-1.5v3.3c0,0.7,0,1.1,0,1.2s0.1,0.2,0.2,0.3c0.1,0.1,0.2,0.1,0.4,0.1
					c0.2,0,0.5-0.1,0.9-0.2l0.2,1.7c-0.5,0.2-1.1,0.3-1.7,0.3c-0.4,0-0.8-0.1-1.1-0.2c-0.3-0.1-0.6-0.3-0.7-0.5
					c-0.1-0.2-0.3-0.5-0.3-0.9c0-0.3-0.1-0.8-0.1-1.5v-3.6h-1V292h1v-1.6l2.2-1.3v2.9L396.2,292L396.2,292z"/>
				<path fill="#4D4D4F" d="M397.7,290.9v-2h2.2v2H397.7z M397.7,300.4V292h2.2v8.3H397.7z"/>
				<path fill="#4D4D4F" d="M401.6,296.1c0-0.7,0.2-1.4,0.5-2.1c0.4-0.7,0.9-1.2,1.5-1.6c0.7-0.4,1.4-0.5,2.2-0.5
					c1.3,0,2.3,0.4,3.1,1.2c0.8,0.8,1.2,1.8,1.2,3.1c0,1.3-0.4,2.3-1.2,3.1c-0.8,0.8-1.8,1.2-3.1,1.2c-0.8,0-1.5-0.2-2.2-0.5
					c-0.7-0.3-1.2-0.8-1.6-1.5C401.8,297.9,401.6,297.1,401.6,296.1z M404,296.3c0,0.8,0.2,1.5,0.6,1.9c0.4,0.4,0.9,0.7,1.4,0.7
					c0.6,0,1.1-0.2,1.4-0.7c0.4-0.4,0.6-1.1,0.6-1.9c0-0.8-0.2-1.4-0.6-1.9c-0.4-0.4-0.9-0.7-1.4-0.7c-0.6,0-1.1,0.2-1.4,0.7
					C404.2,294.8,404,295.4,404,296.3z"/>
				<path fill="#4D4D4F" d="M419.6,300.4h-2.2v-4.2c0-0.9,0-1.5-0.1-1.7c-0.1-0.3-0.2-0.5-0.5-0.6c-0.2-0.1-0.5-0.2-0.8-0.2
					c-0.4,0-0.7,0.1-1,0.3c-0.3,0.2-0.5,0.5-0.6,0.8c-0.1,0.3-0.2,1-0.2,1.9v3.8H412v-8.3h2v1.2c0.7-0.9,1.6-1.4,2.7-1.4
					c0.5,0,0.9,0.1,1.3,0.3c0.4,0.2,0.7,0.4,0.9,0.7s0.4,0.6,0.4,0.9s0.1,0.8,0.1,1.5v5H419.6z"/>
				<path fill="#4D4D4F" d="M421,298l2.2-0.3c0.1,0.4,0.3,0.8,0.6,1c0.3,0.2,0.7,0.3,1.2,0.3c0.6,0,1-0.1,1.3-0.3
					c0.2-0.1,0.3-0.3,0.3-0.6c0-0.2-0.1-0.3-0.2-0.4s-0.4-0.2-0.7-0.3c-1.8-0.4-2.9-0.7-3.4-1.1c-0.7-0.4-1-1.1-1-1.9
					c0-0.7,0.3-1.3,0.9-1.8c0.6-0.5,1.4-0.7,2.6-0.7c1.1,0,2,0.2,2.5,0.6c0.6,0.4,0.9,0.9,1.1,1.6l-2.1,0.4
					c-0.1-0.3-0.3-0.6-0.5-0.7s-0.6-0.3-1.1-0.3c-0.6,0-1,0.1-1.2,0.2s-0.2,0.3-0.2,0.4c0,0.2,0.1,0.3,0.2,0.4
					c0.2,0.1,0.9,0.4,2.1,0.6c1.2,0.3,2,0.6,2.4,1c0.5,0.4,0.7,0.9,0.7,1.6c0,0.8-0.3,1.4-1,2c-0.6,0.5-1.6,0.8-2.8,0.8
					c-1.1,0-2-0.2-2.7-0.7C421.6,299.5,421.2,298.8,421,298z"/>
			</g>
		</g>
		<g>
			<g enable-background="new    ">
				<path fill="#4D4D4F" d="M28.9,340.4v-11.6h7.7v1.4h-6.2v3.5h5.4v1.4h-5.4v5.2H28.9L28.9,340.4z"/>
				<path fill="#4D4D4F" d="M43.9,339.4c-0.5,0.4-1,0.8-1.5,0.9c-0.5,0.2-1,0.3-1.6,0.3c-0.9,0-1.6-0.2-2.1-0.7
					c-0.5-0.4-0.7-1-0.7-1.7c0-0.4,0.1-0.8,0.3-1.1c0.2-0.3,0.4-0.6,0.7-0.8c0.3-0.2,0.6-0.4,1-0.5c0.3-0.1,0.7-0.1,1.2-0.2
					c1.1-0.1,2-0.3,2.5-0.5c0-0.2,0-0.3,0-0.4c0-0.6-0.1-1-0.4-1.2c-0.4-0.3-0.9-0.5-1.6-0.5c-0.7,0-1.2,0.1-1.5,0.3
					c-0.3,0.2-0.5,0.6-0.7,1.2l-1.4-0.2c0.1-0.6,0.3-1.1,0.6-1.4c0.3-0.4,0.7-0.6,1.2-0.8s1.2-0.3,1.9-0.3c0.7,0,1.3,0.1,1.7,0.2
					c0.4,0.2,0.8,0.4,1,0.6c0.2,0.3,0.4,0.6,0.4,1c0,0.2,0.1,0.7,0.1,1.3v1.9c0,1.3,0,2.1,0.1,2.5c0.1,0.4,0.2,0.7,0.4,1h-1.3
					C44.1,340.1,44,339.8,43.9,339.4z M43.8,336.2c-0.5,0.2-1.3,0.4-2.3,0.5c-0.6,0.1-1,0.2-1.2,0.3c-0.2,0.1-0.4,0.3-0.6,0.5
					c-0.1,0.2-0.2,0.4-0.2,0.7c0,0.4,0.1,0.7,0.4,0.9s0.7,0.4,1.2,0.4s1-0.1,1.4-0.4c0.4-0.2,0.7-0.6,0.9-1c0.2-0.3,0.2-0.8,0.2-1.4
					C43.8,336.7,43.8,336.2,43.8,336.2z"/>
				<path fill="#4D4D4F" d="M50.5,339.2l0.2,1.2c-0.4,0.1-0.8,0.1-1.1,0.1c-0.5,0-0.9-0.1-1.2-0.2c-0.3-0.2-0.5-0.4-0.6-0.6
					c-0.1-0.3-0.2-0.8-0.2-1.7v-4.8h-1V332h1v-2.1l1.4-0.8v2.9h1.4v1.1H49v4.9c0,0.4,0,0.7,0.1,0.8c0,0.1,0.1,0.2,0.2,0.3
					c0.1,0.1,0.3,0.1,0.5,0.1C50,339.2,50.2,339.2,50.5,339.2z"/>
				<path fill="#4D4D4F" d="M51.9,330.5v-1.6h1.4v1.6H51.9z M51.9,340.4V332h1.4v8.3H51.9z"/>
				<path fill="#4D4D4F" d="M55.3,341.1l1.4,0.2c0.1,0.4,0.2,0.7,0.5,0.9c0.3,0.3,0.8,0.4,1.4,0.4c0.7,0,1.2-0.1,1.5-0.4
					c0.4-0.3,0.6-0.6,0.7-1.1c0.1-0.3,0.1-0.9,0.1-1.8c-0.6,0.7-1.4,1.1-2.3,1.1c-1.1,0-2-0.4-2.6-1.2c-0.6-0.8-0.9-1.8-0.9-3
					c0-0.8,0.1-1.5,0.4-2.2c0.3-0.7,0.7-1.2,1.2-1.6c0.5-0.4,1.2-0.5,1.9-0.5c1,0,1.8,0.4,2.4,1.2v-1h1.3v7.2c0,1.3-0.1,2.2-0.4,2.7
					c-0.3,0.5-0.7,1-1.2,1.3c-0.5,0.3-1.3,0.5-2.1,0.5c-1,0-1.8-0.2-2.4-0.7C55.6,342.6,55.2,342,55.3,341.1z M56.4,336
					c0,1.1,0.2,1.9,0.6,2.4c0.4,0.5,1,0.8,1.6,0.8s1.2-0.2,1.6-0.7c0.4-0.5,0.7-1.3,0.7-2.3s-0.2-1.8-0.7-2.3s-1-0.8-1.6-0.8
					s-1.2,0.3-1.6,0.8C56.6,334.4,56.4,335,56.4,336z"/>
				<path fill="#4D4D4F" d="M69.9,340.4v-1.2c-0.6,0.9-1.5,1.4-2.6,1.4c-0.5,0-0.9-0.1-1.4-0.3c-0.4-0.2-0.7-0.4-0.9-0.7
					c-0.2-0.3-0.4-0.6-0.4-1c-0.1-0.3-0.1-0.7-0.1-1.3v-5.1h1.4v4.6c0,0.7,0,1.2,0.1,1.5c0.1,0.4,0.3,0.7,0.6,0.9s0.6,0.3,1.1,0.3
					c0.5,0,0.8-0.1,1.2-0.3c0.4-0.2,0.6-0.5,0.8-0.9c0.2-0.4,0.2-0.9,0.2-1.6v-4.4h1.4v8.3h-1.4V340.4z"/>
				<path fill="#4D4D4F" d="M79.1,337.7l1.5,0.2c-0.2,0.9-0.7,1.5-1.3,2c-0.6,0.5-1.4,0.7-2.4,0.7c-1.2,0-2.2-0.4-2.9-1.1
					c-0.7-0.7-1.1-1.8-1.1-3.1c0-1.4,0.4-2.5,1.1-3.2c0.7-0.8,1.7-1.2,2.8-1.2s2,0.4,2.7,1.1c0.7,0.8,1.1,1.8,1.1,3.2
					c0,0.1,0,0.2,0,0.4h-6.2c0.1,0.9,0.3,1.6,0.8,2.1c0.5,0.5,1,0.7,1.7,0.7c0.5,0,1-0.1,1.3-0.4C78.6,338.8,78.9,338.4,79.1,337.7z
					 M74.4,335.4h4.6c-0.1-0.7-0.2-1.2-0.5-1.6c-0.4-0.5-1-0.8-1.7-0.8c-0.6,0-1.2,0.2-1.6,0.6C74.7,334.1,74.4,334.7,74.4,335.4z"
					/>
			</g>
		</g>
		<g>
			<g enable-background="new    ">
				<path fill="#6BACA1" d="M10.6,16.3l2.8,0.9c-0.4,1.6-1.1,2.7-2.1,3.5c-1,0.8-2.3,1.2-3.8,1.2c-1.9,0-3.5-0.6-4.7-1.9
					C1.6,18.7,1,16.9,1,14.7c0-2.4,0.6-4.2,1.8-5.6s2.8-2,4.9-2c1.8,0,3.2,0.5,4.3,1.6c0.7,0.6,1.1,1.5,1.5,2.6L10.6,12
					c-0.2-0.7-0.5-1.3-1.1-1.8c-0.6-0.5-1.2-0.6-2-0.6c-1.1,0-1.9,0.4-2.6,1.1s-1,2-1,3.7c0,1.8,0.3,3.1,1,3.9
					c0.7,0.8,1.5,1.2,2.5,1.2c0.8,0,1.4-0.2,2-0.7C10,18.2,10.4,17.4,10.6,16.3z"/>
				<path fill="#6BACA1" d="M15.3,16.3c0-0.9,0.2-1.8,0.7-2.6c0.4-0.9,1.1-1.5,1.9-2c0.8-0.4,1.7-0.7,2.8-0.7c1.6,0,2.9,0.5,3.9,1.5
					s1.5,2.3,1.5,3.9s-0.5,2.9-1.5,3.9c-1,1-2.3,1.5-3.8,1.5c-1,0-1.9-0.2-2.7-0.6c-0.9-0.4-1.5-1.1-2-1.9
					C15.6,18.5,15.3,17.5,15.3,16.3z M18.2,16.4c0,1,0.2,1.8,0.7,2.4c0.5,0.6,1.1,0.8,1.8,0.8s1.3-0.3,1.8-0.8
					c0.5-0.5,0.7-1.3,0.7-2.4c0-1-0.2-1.8-0.7-2.3c-0.5-0.5-1.1-0.8-1.8-0.8s-1.3,0.3-1.8,0.8C18.4,14.6,18.2,15.4,18.2,16.4z"/>
				<path fill="#6BACA1" d="M28,11.2h2.5v1.4c0.9-1.1,2-1.6,3.2-1.6c0.7,0,1.2,0.1,1.7,0.4c0.5,0.3,0.9,0.7,1.2,1.2
					c0.5-0.6,0.9-1,1.5-1.2c0.5-0.3,1.1-0.4,1.7-0.4c0.8,0,1.4,0.2,1.9,0.5s0.9,0.8,1.2,1.4c0.2,0.4,0.3,1.2,0.3,2.1v6.6h-2.7v-5.9
					c0-1-0.1-1.7-0.3-2c-0.3-0.4-0.6-0.6-1.2-0.6c-0.4,0-0.7,0.1-1.1,0.4c-0.3,0.2-0.6,0.6-0.7,1c-0.1,0.5-0.2,1.2-0.2,2.1v5h-2.7
					v-5.7c0-1,0-1.7-0.1-2s-0.2-0.5-0.5-0.7C33.6,13.1,33.3,13,33,13c-0.4,0-0.8,0.1-1.1,0.3c-0.3,0.2-0.6,0.6-0.7,1
					c-0.1,0.4-0.2,1.1-0.2,2.1v5h-2.7L28,11.2L28,11.2z"/>
				<path fill="#6BACA1" d="M45.9,11.2h2.5v1.4c0.9-1.1,2-1.6,3.2-1.6c0.7,0,1.2,0.1,1.7,0.4c0.5,0.3,0.9,0.7,1.2,1.2
					c0.5-0.6,0.9-1,1.5-1.2c0.5-0.3,1.1-0.4,1.7-0.4c0.8,0,1.4,0.2,1.9,0.5s0.9,0.8,1.2,1.4c0.2,0.4,0.3,1.2,0.3,2.1v6.6h-2.7v-5.9
					c0-1-0.1-1.7-0.3-2c-0.3-0.4-0.6-0.6-1.2-0.6c-0.4,0-0.7,0.1-1.1,0.4c-0.4,0.3-0.6,0.6-0.7,1C55.1,15,55,15.7,55,16.6v5h-2.7
					v-5.7c0-1,0-1.7-0.1-2c-0.1-0.3-0.2-0.5-0.5-0.7c-0.2-0.1-0.5-0.2-0.8-0.2c-0.4,0-0.8,0.1-1.1,0.3c-0.3,0.2-0.6,0.6-0.7,1
					c-0.1,0.4-0.2,1.1-0.2,2.1v5h-2.7L45.9,11.2L45.9,11.2z"/>
				<path fill="#6BACA1" d="M63.3,16.3c0-0.9,0.2-1.8,0.7-2.6c0.4-0.9,1.1-1.5,1.9-2c0.8-0.4,1.7-0.7,2.8-0.7c1.6,0,2.9,0.5,3.9,1.5
					s1.5,2.3,1.5,3.9s-0.5,2.9-1.5,3.9c-1,1-2.3,1.5-3.8,1.5c-1,0-1.9-0.2-2.7-0.6c-0.8-0.4-1.5-1.1-2-1.9
					C63.6,18.5,63.3,17.5,63.3,16.3z M66.1,16.4c0,1,0.2,1.8,0.7,2.4c0.5,0.6,1.1,0.8,1.8,0.8s1.3-0.3,1.8-0.8
					c0.5-0.5,0.7-1.3,0.7-2.4c0-1-0.2-1.8-0.7-2.3s-1.1-0.8-1.8-0.8s-1.3,0.3-1.8,0.8C66.4,14.6,66.1,15.4,66.1,16.4z"/>
				<path fill="#6BACA1" d="M85.7,21.6H83v-5.3c0-1.1-0.1-1.8-0.2-2.2c-0.1-0.3-0.3-0.6-0.6-0.8c-0.3-0.2-0.6-0.3-1-0.3
					c-0.5,0-0.9,0.1-1.3,0.4c-0.4,0.3-0.6,0.6-0.8,1c-0.2,0.4-0.2,1.2-0.2,2.4v4.7h-2.7V11.2h2.5v1.5c0.9-1.2,2-1.8,3.4-1.8
					c0.6,0,1.2,0.1,1.7,0.3s0.9,0.5,1.1,0.8c0.2,0.3,0.4,0.7,0.5,1.2c0.1,0.4,0.2,1,0.2,1.8L85.7,21.6L85.7,21.6z"/>
				<path fill="#6BACA1" d="M96.1,14.4L93.6,14c0.3-1,0.8-1.7,1.4-2.2c0.7-0.5,1.7-0.7,3-0.7c1.2,0,2.1,0.1,2.7,0.4
					c0.6,0.3,1,0.7,1.3,1.1c0.2,0.4,0.4,1.3,0.4,2.5v3.2c0,0.9,0,1.6,0.1,2c0.1,0.4,0.3,0.9,0.5,1.4h-2.6c-0.1-0.2-0.2-0.5-0.3-0.8
					c0-0.2-0.1-0.3-0.1-0.3c-0.5,0.5-1,0.8-1.5,1c-0.5,0.2-1.1,0.3-1.7,0.3c-1.1,0-1.9-0.3-2.5-0.9c-0.6-0.6-0.9-1.3-0.9-2.2
					c0-0.6,0.1-1.1,0.4-1.6c0.3-0.5,0.7-0.8,1.2-1.1c0.5-0.2,1.2-0.5,2.2-0.6c1.3-0.2,2.2-0.5,2.7-0.7v-0.3c0-0.5-0.1-0.9-0.4-1.1
					c-0.3-0.2-0.8-0.3-1.5-0.3c-0.5,0-0.9,0.1-1.1,0.3C96.5,13.6,96.3,13.9,96.1,14.4z M99.9,16.6c-0.4,0.1-0.9,0.3-1.7,0.4
					c-0.8,0.2-1.3,0.3-1.5,0.5c-0.4,0.3-0.5,0.6-0.5,1s0.1,0.7,0.4,1s0.7,0.4,1.1,0.4c0.5,0,1-0.2,1.4-0.5c0.3-0.2,0.6-0.6,0.7-0.9
					c0.1-0.2,0.1-0.7,0.1-1.3V16.6L99.9,16.6z"/>
				<path fill="#6BACA1" d="M114.8,21.6h-2.5v-1.5c-0.4,0.6-0.9,1-1.5,1.3s-1.2,0.4-1.7,0.4c-1.2,0-2.2-0.5-3.1-1.4
					c-0.9-0.9-1.3-2.3-1.3-4c0-1.8,0.4-3.1,1.2-4c0.8-0.9,1.9-1.4,3.1-1.4s2.2,0.5,3,1.4V7.2h2.7v14.4H114.8z M107.5,16.2
					c0,1.1,0.2,1.9,0.5,2.4c0.4,0.7,1.1,1.1,1.9,1.1c0.6,0,1.2-0.3,1.6-0.8c0.4-0.5,0.7-1.3,0.7-2.4c0-1.2-0.2-2-0.6-2.6
					c-0.4-0.5-1-0.8-1.7-0.8c-0.7,0-1.2,0.3-1.6,0.8C107.7,14.4,107.5,15.2,107.5,16.2z"/>
				<path fill="#6BACA1" d="M120.4,21.6l-4.2-10.4h2.9l2,5.3l0.6,1.8c0.2-0.4,0.2-0.7,0.3-0.9c0.1-0.3,0.2-0.6,0.3-0.9l2-5.3h2.8
					L123,21.6H120.4z"/>
				<path fill="#6BACA1" d="M134.7,18.3l2.7,0.5c-0.4,1-0.9,1.8-1.7,2.3c-0.8,0.5-1.7,0.8-2.8,0.8c-1.8,0-3.1-0.6-4-1.8
					c-0.7-0.9-1-2.1-1-3.6c0-1.7,0.4-3.1,1.3-4c0.9-1,2-1.5,3.4-1.5c1.5,0,2.8,0.5,3.7,1.5c0.9,1,1.3,2.6,1.3,4.7h-6.9
					c0,0.8,0.2,1.4,0.7,1.9s1,0.7,1.6,0.7c0.4,0,0.8-0.1,1.1-0.4C134.3,19.2,134.6,18.8,134.7,18.3z M134.9,15.5
					c0-0.8-0.2-1.4-0.6-1.8s-0.9-0.6-1.4-0.6c-0.6,0-1.1,0.2-1.5,0.7s-0.6,1-0.6,1.8L134.9,15.5L134.9,15.5z"/>
				<path fill="#6BACA1" d="M142.6,21.6h-2.7V11.2h2.5v1.5c0.4-0.7,0.8-1.2,1.2-1.4c0.4-0.2,0.7-0.3,1.2-0.3c0.6,0,1.2,0.2,1.8,0.5
					l-0.9,2.4c-0.5-0.3-0.9-0.4-1.3-0.4s-0.7,0.1-1,0.3c-0.3,0.2-0.5,0.6-0.6,1.1s-0.2,1.7-0.2,3.5V21.6L142.6,21.6z"/>
				<path fill="#6BACA1" d="M146.8,18.6l2.8-0.4c0.1,0.5,0.4,0.9,0.7,1.2c0.4,0.3,0.9,0.4,1.5,0.4c0.7,0,1.2-0.1,1.6-0.4
					c0.2-0.2,0.4-0.4,0.4-0.7c0-0.2-0.1-0.4-0.2-0.5c-0.1-0.1-0.4-0.2-0.9-0.4c-2.2-0.5-3.6-0.9-4.2-1.3c-0.8-0.6-1.2-1.3-1.2-2.3
					c0-0.9,0.4-1.7,1.1-2.3c0.7-0.6,1.8-0.9,3.3-0.9c1.4,0,2.5,0.2,3.2,0.7c0.7,0.5,1.2,1.1,1.4,2.1l-2.6,0.5
					c-0.1-0.4-0.3-0.7-0.6-0.9c-0.3-0.2-0.8-0.3-1.3-0.3c-0.7,0-1.2,0.1-1.6,0.3c-0.2,0.1-0.3,0.3-0.3,0.6c0,0.2,0.1,0.4,0.3,0.5
					c0.2,0.2,1.1,0.4,2.6,0.8c1.5,0.3,2.5,0.7,3.1,1.2c0.6,0.5,0.9,1.2,0.9,2c0,1-0.4,1.8-1.2,2.5c-0.8,0.7-2,1-3.5,1
					c-1.4,0-2.5-0.3-3.4-0.9C147.5,20.4,147,19.6,146.8,18.6z"/>
				<path fill="#6BACA1" d="M164.9,18.3l2.7,0.5c-0.4,1-0.9,1.8-1.7,2.3c-0.8,0.5-1.7,0.8-2.8,0.8c-1.8,0-3.1-0.6-4-1.8
					c-0.7-0.9-1-2.1-1-3.6c0-1.7,0.4-3.1,1.3-4c0.9-1,2-1.5,3.4-1.5c1.5,0,2.8,0.5,3.7,1.5c0.9,1,1.3,2.6,1.3,4.7h-6.9
					c0,0.8,0.2,1.4,0.7,1.9s1,0.7,1.6,0.7c0.4,0,0.8-0.1,1.1-0.4C164.6,19.2,164.8,18.8,164.9,18.3z M165.1,15.5
					c0-0.8-0.2-1.4-0.6-1.8c-0.4-0.4-0.9-0.6-1.4-0.6c-0.6,0-1.1,0.2-1.5,0.7c-0.4,0.4-0.6,1-0.6,1.8L165.1,15.5L165.1,15.5z"/>
				<path fill="#6BACA1" d="M181.6,18.3l2.7,0.5c-0.4,1-0.9,1.8-1.7,2.3c-0.8,0.5-1.7,0.8-2.8,0.8c-1.8,0-3.1-0.6-4-1.8
					c-0.7-0.9-1-2.1-1-3.6c0-1.7,0.4-3.1,1.3-4c0.9-1,2-1.5,3.4-1.5c1.5,0,2.8,0.5,3.7,1.5s1.3,2.6,1.3,4.7h-6.9
					c0,0.8,0.2,1.4,0.7,1.9s1,0.7,1.6,0.7c0.4,0,0.8-0.1,1.1-0.4C181.3,19.2,181.5,18.8,181.6,18.3z M181.8,15.5
					c0-0.8-0.2-1.4-0.6-1.8s-0.9-0.6-1.4-0.6c-0.6,0-1.1,0.2-1.5,0.7c-0.4,0.5-0.6,1-0.6,1.8L181.8,15.5L181.8,15.5z"/>
				<path fill="#6BACA1" d="M189.7,21.6l-4.2-10.4h2.9l2,5.3l0.6,1.8c0.1-0.4,0.2-0.7,0.3-0.9c0.1-0.3,0.2-0.6,0.3-0.9l2-5.3h2.8
					l-4.1,10.4H189.7z"/>
				<path fill="#6BACA1" d="M204,18.3l2.7,0.5c-0.4,1-0.9,1.8-1.7,2.3c-0.8,0.5-1.7,0.8-2.8,0.8c-1.8,0-3.1-0.6-4-1.8
					c-0.7-0.9-1-2.1-1-3.6c0-1.7,0.4-3.1,1.3-4c0.9-1,2-1.5,3.4-1.5c1.5,0,2.8,0.5,3.7,1.5s1.3,2.6,1.3,4.7H200
					c0,0.8,0.2,1.4,0.7,1.9s1,0.7,1.6,0.7c0.4,0,0.8-0.1,1.1-0.4C203.6,19.2,203.8,18.8,204,18.3z M204.1,15.5
					c0-0.8-0.2-1.4-0.6-1.8s-0.9-0.6-1.4-0.6c-0.6,0-1.1,0.2-1.5,0.7s-0.6,1-0.6,1.8L204.1,15.5L204.1,15.5z"/>
				<path fill="#6BACA1" d="M218.6,21.6h-2.7v-5.3c0-1.1-0.1-1.8-0.2-2.2c-0.1-0.3-0.3-0.6-0.6-0.8c-0.3-0.2-0.6-0.3-1-0.3
					c-0.5,0-0.9,0.1-1.3,0.4c-0.4,0.3-0.6,0.6-0.8,1c-0.1,0.4-0.2,1.2-0.2,2.4v4.7h-2.7V11.2h2.5v1.5c0.9-1.2,2-1.8,3.4-1.8
					c0.6,0,1.2,0.1,1.7,0.3s0.9,0.5,1.1,0.8c0.2,0.3,0.4,0.7,0.5,1.2c0.1,0.4,0.2,1,0.2,1.8L218.6,21.6L218.6,21.6z"/>
				<path fill="#6BACA1" d="M226.2,11.2v2.2h-1.9v4.2c0,0.8,0,1.3,0.1,1.5s0.1,0.3,0.2,0.3c0.1,0.1,0.3,0.1,0.5,0.1
					c0.3,0,0.6-0.1,1.1-0.3l0.2,2.1c-0.6,0.3-1.4,0.4-2.2,0.4c-0.5,0-0.9-0.1-1.3-0.2c-0.4-0.1-0.7-0.4-0.9-0.6
					c-0.2-0.2-0.3-0.6-0.4-1.1c-0.1-0.3-0.1-1-0.1-1.9v-4.5h-1.3v-2.2h1.3v-2l2.8-1.6v3.7L226.2,11.2L226.2,11.2z"/>
				<path fill="#6BACA1" d="M227.1,18.6l2.8-0.4c0.1,0.5,0.4,0.9,0.7,1.2c0.4,0.3,0.9,0.4,1.5,0.4c0.7,0,1.2-0.1,1.6-0.4
					c0.2-0.2,0.4-0.4,0.4-0.7c0-0.2-0.1-0.4-0.2-0.5c-0.1-0.1-0.4-0.2-0.9-0.4c-2.2-0.5-3.6-0.9-4.2-1.3c-0.8-0.6-1.2-1.3-1.2-2.3
					c0-0.9,0.4-1.7,1.1-2.3c0.7-0.6,1.8-0.9,3.3-0.9c1.4,0,2.5,0.2,3.2,0.7c0.7,0.5,1.2,1.1,1.4,2.1l-2.6,0.5
					c-0.1-0.4-0.3-0.7-0.6-0.9c-0.3-0.2-0.8-0.3-1.3-0.3c-0.7,0-1.2,0.1-1.6,0.3c-0.2,0.1-0.3,0.3-0.3,0.6c0,0.2,0.1,0.4,0.3,0.5
					c0.2,0.2,1.1,0.4,2.6,0.8c1.5,0.4,2.5,0.7,3.1,1.2c0.6,0.5,0.9,1.2,0.9,2c0,1-0.4,1.8-1.2,2.5c-0.8,0.7-2,1-3.5,1
					c-1.4,0-2.5-0.3-3.4-0.9C227.9,20.4,227.4,19.6,227.1,18.6z"/>
			</g>
		</g>
		
			<line opacity="0.5" fill="none" stroke="#4D4D4F" stroke-width="1.0383" stroke-linecap="round" stroke-linejoin="round" stroke-miterlimit="10" stroke-dasharray="0,2.7689" enable-background="new    " x1="0" y1="235.1" x2="762.9" y2="235.1"/>
		
			<line opacity="0.5" fill="none" stroke="#4D4D4F" stroke-width="1.0383" stroke-linecap="round" stroke-linejoin="round" stroke-miterlimit="10" stroke-dasharray="0,2.7689" enable-background="new    " x1="0" y1="315.4" x2="762.9" y2="315.4"/>
		
			<line opacity="0.5" fill="none" stroke="#4D4D4F" stroke-width="1.0383" stroke-linecap="round" stroke-linejoin="round" stroke-miterlimit="10" stroke-dasharray="0,2.7689" enable-background="new    " x1="0" y1="114.5" x2="762.9" y2="114.5"/>
		<rect x="611.3" y="30.4" opacity="0.3" fill="#DBDBDC" enable-background="new    " width="152.6" height="124.4"/>
		<rect x="611.3" y="275.3" opacity="0.3" fill="#DBDBDC" enable-background="new    " width="152.6" height="79.4"/>
		<rect x="457.7" y="0" fill="#ECF6F2" width="153.7" height="34.2"/>
		<rect x="611.3" y="0" opacity="0.8" fill="#DBDBDC" enable-background="new    " width="152.6" height="34.2"/>
		<g>
			<g enable-background="new    ">
				<path fill="#4D4D4F" d="M480.4,17.2c0-0.9,0.1-1.7,0.4-2.3c0.2-0.5,0.5-0.9,0.8-1.2c0.4-0.4,0.7-0.6,1.1-0.8
					c0.6-0.2,1.2-0.4,1.9-0.4c1.3,0,2.4,0.4,3.2,1.2c0.8,0.8,1.2,1.9,1.2,3.4c0,1.4-0.4,2.6-1.2,3.4c-0.8,0.8-1.8,1.2-3.1,1.2
					c-1.3,0-2.4-0.4-3.2-1.2C480.8,19.7,480.4,18.6,480.4,17.2z M482.3,17.1c0,1,0.2,1.8,0.7,2.3c0.5,0.5,1.1,0.8,1.8,0.8
					c0.7,0,1.3-0.3,1.8-0.8c0.5-0.5,0.7-1.3,0.7-2.3s-0.2-1.8-0.7-2.3c-0.4-0.5-1-0.8-1.8-0.8c-0.7,0-1.3,0.3-1.8,0.8
					C482.5,15.3,482.3,16.1,482.3,17.1z"/>
				<path fill="#4D4D4F" d="M490.4,15.1h1.6v1c0.2-0.3,0.5-0.6,0.8-0.8c0.4-0.2,0.7-0.3,1.2-0.3c0.8,0,1.4,0.3,1.9,0.9
					c0.5,0.6,0.8,1.4,0.8,2.5s-0.3,1.9-0.8,2.5c-0.5,0.6-1.2,0.9-1.9,0.9c-0.4,0-0.7-0.1-1-0.2c-0.3-0.1-0.6-0.4-0.9-0.7v3.2h-1.7
					V15.1L490.4,15.1z M492.2,18.3c0,0.7,0.1,1.3,0.4,1.6c0.3,0.3,0.6,0.5,1.1,0.5c0.4,0,0.7-0.2,1-0.5s0.4-0.8,0.4-1.6
					c0-0.7-0.1-1.2-0.4-1.5c-0.3-0.3-0.6-0.5-1-0.5s-0.8,0.2-1,0.5C492.3,17.2,492.2,17.6,492.2,18.3z"/>
				<path fill="#4D4D4F" d="M501.1,15.1v1.4h-1.2v2.6c0,0.5,0,0.8,0,0.9c0,0.1,0.1,0.2,0.1,0.2c0.1,0.1,0.2,0.1,0.3,0.1
					c0.2,0,0.4-0.1,0.7-0.2l0.1,1.3c-0.4,0.2-0.8,0.3-1.4,0.3c-0.3,0-0.6-0.1-0.8-0.2c-0.2-0.1-0.4-0.2-0.5-0.4
					c-0.1-0.2-0.2-0.4-0.2-0.7c0-0.2-0.1-0.6-0.1-1.2v-2.8h-0.8v-1.3h0.8v-1.3l1.7-1v2.3H501.1L501.1,15.1z"/>
				<path fill="#4D4D4F" d="M502.3,14.3v-1.6h1.7v1.6H502.3z M502.3,21.6v-6.5h1.7v6.5H502.3z"/>
				<path fill="#4D4D4F" d="M505.2,19.8l1.7-0.3c0.1,0.3,0.2,0.6,0.4,0.8c0.2,0.2,0.5,0.3,0.9,0.3c0.4,0,0.8-0.1,1-0.2
					c0.1-0.1,0.2-0.3,0.2-0.5c0-0.1,0-0.2-0.1-0.3s-0.3-0.2-0.6-0.2c-1.4-0.3-2.3-0.6-2.6-0.8c-0.5-0.4-0.8-0.8-0.8-1.5
					c0-0.6,0.2-1,0.7-1.4c0.4-0.4,1.1-0.6,2.1-0.6c0.9,0,1.5,0.1,2,0.4c0.4,0.3,0.7,0.7,0.9,1.3l-1.6,0.3c-0.1-0.2-0.2-0.4-0.4-0.6
					c-0.2-0.1-0.5-0.2-0.8-0.2c-0.4,0-0.8,0.1-1,0.2c-0.1,0.1-0.2,0.2-0.2,0.3c0,0.1,0.1,0.2,0.2,0.3c0.2,0.1,0.7,0.3,1.6,0.5
					c0.9,0.2,1.5,0.5,1.9,0.8c0.4,0.3,0.5,0.7,0.5,1.3c0,0.6-0.2,1.1-0.7,1.5c-0.5,0.4-1.2,0.6-2.2,0.6c-0.9,0-1.6-0.2-2.1-0.5
					C505.7,20.9,505.3,20.4,505.2,19.8z"/>
				<path fill="#4D4D4F" d="M515.8,15.1v1.4h-1.2v2.6c0,0.5,0,0.8,0,0.9c0,0.1,0.1,0.2,0.2,0.2c0.1,0.1,0.2,0.1,0.3,0.1
					c0.2,0,0.4-0.1,0.7-0.2l0.1,1.3c-0.4,0.2-0.8,0.3-1.4,0.3c-0.3,0-0.6-0.1-0.8-0.2c-0.2-0.1-0.4-0.2-0.5-0.4
					c-0.1-0.2-0.2-0.4-0.2-0.7c0-0.2-0.1-0.6-0.1-1.2v-2.8H512v-1.3h0.8v-1.3l1.7-1v2.3H515.8L515.8,15.1z"/>
				<path fill="#4D4D4F" d="M518.2,17.1l-1.6-0.3c0.2-0.6,0.5-1.1,0.9-1.4c0.4-0.3,1.1-0.4,1.9-0.4s1.3,0.1,1.7,0.3
					c0.4,0.2,0.6,0.4,0.8,0.7c0.2,0.3,0.2,0.8,0.2,1.5v2c0,0.6,0,1,0.1,1.3c0.1,0.3,0.2,0.6,0.3,0.9h-1.7c0-0.1-0.1-0.3-0.2-0.5
					c0-0.1,0-0.2-0.1-0.2c-0.3,0.3-0.6,0.5-0.9,0.6c-0.3,0.1-0.7,0.2-1.1,0.2c-0.7,0-1.2-0.2-1.6-0.5c-0.4-0.4-0.6-0.8-0.6-1.4
					c0-0.4,0.1-0.7,0.3-1c0.2-0.3,0.4-0.5,0.7-0.7c0.3-0.2,0.8-0.3,1.4-0.4c0.8-0.1,1.4-0.3,1.7-0.4v-0.2c0-0.3-0.1-0.6-0.2-0.7
					c-0.2-0.1-0.5-0.2-0.9-0.2c-0.3,0-0.5,0.1-0.7,0.2C518.5,16.6,518.4,16.8,518.2,17.1z M520.5,18.5c-0.2,0.1-0.6,0.2-1,0.3
					c-0.5,0.1-0.8,0.2-0.9,0.3c-0.2,0.2-0.3,0.4-0.3,0.6c0,0.2,0.1,0.4,0.3,0.6c0.2,0.2,0.4,0.3,0.7,0.3c0.3,0,0.6-0.1,0.9-0.3
					c0.2-0.2,0.3-0.3,0.4-0.6c0-0.1,0.1-0.4,0.1-0.8v-0.4H520.5z"/>
				<path fill="#4D4D4F" d="M525.7,21.6l-2.6-6.5h1.8l1.2,3.3l0.4,1.1c0.1-0.3,0.2-0.5,0.2-0.6c0.1-0.2,0.1-0.4,0.2-0.5l1.2-3.3h1.8
					l-2.6,6.5H525.7L525.7,21.6z"/>
				<path fill="#4D4D4F" d="M530.8,14.3v-1.6h1.7v1.6H530.8z M530.8,21.6v-6.5h1.7v6.5H530.8z"/>
				<path fill="#4D4D4F" d="M540.3,21.6h-1.7v-3.3c0-0.7,0-1.1-0.1-1.4c-0.1-0.2-0.2-0.4-0.4-0.5c-0.2-0.1-0.4-0.2-0.6-0.2
					c-0.3,0-0.6,0.1-0.8,0.2c-0.2,0.2-0.4,0.4-0.5,0.6c-0.1,0.3-0.1,0.8-0.1,1.5v2.9h-1.7v-6.3h1.6v1c0.6-0.7,1.3-1.1,2.1-1.1
					c0.4,0,0.7,0.1,1,0.2c0.3,0.1,0.5,0.3,0.7,0.5c0.2,0.2,0.3,0.5,0.3,0.7c0.1,0.3,0.1,0.6,0.1,1.1L540.3,21.6L540.3,21.6z"/>
			</g>
			<g enable-background="new    ">
				<path fill="#4D4D4F" d="M547.5,24.2c-0.6-0.8-1.1-1.7-1.5-2.7c-0.4-1-0.6-2.1-0.6-3.2c0-1,0.2-1.9,0.5-2.8c0.4-1,0.9-2,1.7-3.1
					h0.8c-0.5,0.8-0.8,1.4-1,1.8c-0.2,0.6-0.4,1.1-0.6,1.8c-0.2,0.8-0.3,1.5-0.3,2.3c0,2,0.6,3.9,1.8,5.8L547.5,24.2L547.5,24.2z"/>
				<path fill="#4D4D4F" d="M549.5,21.6v-6.5h1v1c0.5-0.7,1.2-1.1,2.1-1.1c0.4,0,0.7,0.1,1.1,0.2c0.3,0.1,0.6,0.3,0.7,0.6
					c0.2,0.2,0.3,0.5,0.3,0.8c0,0.2,0.1,0.6,0.1,1.1v4h-1.1v-3.9c0-0.4,0-0.8-0.1-1c-0.1-0.2-0.2-0.4-0.5-0.5
					c-0.2-0.1-0.5-0.2-0.8-0.2c-0.5,0-0.9,0.1-1.2,0.4c-0.3,0.3-0.5,0.9-0.5,1.7v3.5L549.5,21.6L549.5,21.6z"/>
				<path fill="#4D4D4F" d="M562.3,16.4h-5.9v-1h5.9V16.4z M562.3,19.1h-5.9v-1h5.9V19.1z"/>
				<path fill="#4D4D4F" d="M563.5,19.3l1.1-0.2c0.1,0.6,0.3,1.1,0.6,1.3c0.3,0.3,0.7,0.4,1.1,0.4c0.5,0,0.9-0.2,1.3-0.5
					c0.4-0.4,0.5-0.8,0.5-1.3c0-0.5-0.2-0.9-0.5-1.2c-0.3-0.3-0.7-0.5-1.3-0.5c-0.2,0-0.5,0-0.8,0.1l0.1-1c0.1,0,0.1,0,0.2,0
					c0.5,0,0.9-0.1,1.3-0.4c0.4-0.2,0.6-0.6,0.6-1.1c0-0.4-0.1-0.7-0.4-1c-0.3-0.3-0.6-0.4-1.1-0.4c-0.4,0-0.8,0.1-1.1,0.4
					c-0.3,0.3-0.5,0.7-0.5,1.2l-1.1-0.2c0.1-0.7,0.4-1.3,0.9-1.7c0.5-0.4,1.1-0.6,1.8-0.6c0.5,0,0.9,0.1,1.3,0.3
					c0.4,0.2,0.7,0.5,0.9,0.9c0.2,0.4,0.3,0.7,0.3,1.1c0,0.4-0.1,0.7-0.3,1.1c-0.2,0.3-0.5,0.6-0.9,0.8c0.5,0.1,0.9,0.4,1.2,0.8
					c0.3,0.4,0.4,0.9,0.4,1.4c0,0.8-0.3,1.4-0.9,2c-0.6,0.5-1.3,0.8-2.2,0.8c-0.8,0-1.4-0.2-1.9-0.7C563.9,20.6,563.6,20,563.5,19.3
					z"/>
				<path fill="#4D4D4F" d="M570.5,19.3l1.1-0.2c0.1,0.6,0.3,1.1,0.6,1.3c0.3,0.3,0.7,0.4,1.1,0.4c0.5,0,0.9-0.2,1.3-0.5
					c0.4-0.4,0.5-0.8,0.5-1.3c0-0.5-0.2-0.9-0.5-1.2c-0.3-0.3-0.7-0.5-1.3-0.5c-0.2,0-0.5,0-0.8,0.1l0.1-1c0.1,0,0.1,0,0.2,0
					c0.5,0,0.9-0.1,1.3-0.4c0.4-0.2,0.6-0.6,0.6-1.1c0-0.4-0.1-0.7-0.4-1c-0.3-0.3-0.6-0.4-1.1-0.4c-0.4,0-0.8,0.1-1.1,0.4
					c-0.3,0.3-0.5,0.7-0.5,1.2l-1.1-0.2c0.1-0.7,0.4-1.3,0.9-1.7c0.5-0.4,1.1-0.6,1.8-0.6c0.5,0,0.9,0.1,1.3,0.3
					c0.4,0.2,0.7,0.5,0.9,0.9c0.2,0.4,0.3,0.7,0.3,1.1c0,0.4-0.1,0.7-0.3,1.1c-0.2,0.3-0.5,0.6-0.9,0.8c0.5,0.1,0.9,0.4,1.2,0.8
					c0.3,0.4,0.4,0.9,0.4,1.4c0,0.8-0.3,1.4-0.9,2c-0.6,0.5-1.3,0.8-2.2,0.8c-0.8,0-1.4-0.2-2-0.7C570.8,20.6,570.5,20,570.5,19.3z"
					/>
				<path fill="#4D4D4F" d="M583.3,20.6v1.1h-5.9c0-0.3,0-0.5,0.1-0.8c0.1-0.4,0.4-0.8,0.7-1.2c0.3-0.4,0.8-0.8,1.4-1.4
					c1-0.8,1.6-1.4,2-1.9c0.3-0.5,0.5-0.9,0.5-1.3c0-0.4-0.2-0.8-0.5-1.1c-0.3-0.3-0.7-0.4-1.2-0.4c-0.5,0-0.9,0.2-1.3,0.5
					c-0.3,0.3-0.5,0.8-0.5,1.3l-1.1-0.1c0.1-0.8,0.4-1.5,0.9-1.9c0.5-0.4,1.2-0.7,2-0.7c0.9,0,1.5,0.2,2,0.7s0.7,1.1,0.7,1.8
					c0,0.4-0.1,0.7-0.2,1.1c-0.1,0.3-0.4,0.7-0.7,1.1s-0.9,0.9-1.7,1.6c-0.7,0.6-1.1,0.9-1.3,1.1s-0.3,0.4-0.5,0.6h4.6V20.6z"/>
				<path fill="#4D4D4F" d="M585.5,24.2h-0.8c1.2-1.9,1.8-3.9,1.8-5.8c0-0.8-0.1-1.5-0.3-2.3c-0.1-0.6-0.3-1.2-0.6-1.8
					c-0.2-0.4-0.5-1-1-1.8h0.8c0.8,1,1.3,2,1.7,3.1c0.3,0.9,0.5,1.8,0.5,2.8c0,1.1-0.2,2.2-0.6,3.2
					C586.6,22.6,586.1,23.5,585.5,24.2z"/>
			</g>
		</g>
		<g>
			<g enable-background="new    ">
				<path fill="#4D4D4F" d="M647.2,18.3l1.7,0.6c-0.3,1-0.7,1.7-1.3,2.2c-0.6,0.5-1.4,0.7-2.4,0.7c-1.2,0-2.2-0.4-2.9-1.2
					c-0.8-0.8-1.1-1.9-1.1-3.3c0-1.5,0.4-2.6,1.1-3.5c0.8-0.8,1.8-1.2,3-1.2c1.1,0,2,0.3,2.7,1c0.4,0.4,0.7,0.9,0.9,1.6l-1.8,0.4
					c-0.1-0.5-0.3-0.8-0.7-1.1c-0.3-0.3-0.7-0.4-1.2-0.4c-0.7,0-1.2,0.2-1.6,0.7c-0.4,0.5-0.6,1.2-0.6,2.3s0.2,1.9,0.6,2.4
					c0.4,0.5,0.9,0.7,1.6,0.7c0.5,0,0.9-0.2,1.2-0.5C646.8,19.5,647.1,19,647.2,18.3z"/>
				<path fill="#4D4D4F" d="M650.1,18.3c0-0.6,0.1-1.1,0.4-1.6c0.3-0.5,0.7-0.9,1.2-1.2s1.1-0.4,1.7-0.4c1,0,1.8,0.3,2.4,1
					c0.6,0.6,0.9,1.4,0.9,2.4s-0.3,1.8-0.9,2.4c-0.6,0.6-1.4,1-2.4,1c-0.6,0-1.2-0.1-1.7-0.4s-0.9-0.7-1.2-1.2
					C650.2,19.7,650.1,19,650.1,18.3z M651.8,18.4c0,0.6,0.2,1.1,0.5,1.5c0.3,0.3,0.7,0.5,1.1,0.5c0.4,0,0.8-0.2,1.1-0.5
					s0.5-0.8,0.5-1.5c0-0.6-0.2-1.1-0.5-1.5c-0.3-0.3-0.7-0.5-1.1-0.5c-0.4,0-0.8,0.2-1.1,0.5C652,17.2,651.8,17.7,651.8,18.4z"/>
				<path fill="#4D4D4F" d="M664,21.6h-1.7v-3.3c0-0.7,0-1.1-0.1-1.4c-0.1-0.2-0.2-0.4-0.4-0.5c-0.2-0.1-0.4-0.2-0.6-0.2
					c-0.3,0-0.6,0.1-0.8,0.2c-0.2,0.2-0.4,0.4-0.5,0.6c-0.1,0.3-0.1,0.8-0.1,1.5v2.9h-1.7v-6.3h1.6v1c0.6-0.7,1.3-1.1,2.1-1.1
					c0.4,0,0.7,0.1,1,0.2c0.3,0.1,0.5,0.3,0.7,0.5c0.2,0.2,0.3,0.5,0.3,0.7c0.1,0.3,0.1,0.6,0.1,1.1L664,21.6L664,21.6z"/>
				<path fill="#4D4D4F" d="M668.8,15.1v1.4h-1.2v2.6c0,0.5,0,0.8,0,0.9c0,0.1,0.1,0.2,0.1,0.2c0.1,0.1,0.2,0.1,0.3,0.1
					c0.2,0,0.4-0.1,0.7-0.2l0.1,1.3c-0.4,0.2-0.8,0.3-1.4,0.3c-0.3,0-0.6-0.1-0.8-0.2s-0.4-0.2-0.5-0.4c-0.1-0.2-0.2-0.4-0.2-0.7
					c0-0.2-0.1-0.6-0.1-1.2v-2.8H665v-1.3h0.8v-1.3l1.7-1v2.3H668.8L668.8,15.1z"/>
				<path fill="#4D4D4F" d="M671.6,21.6h-1.7v-6.5h1.6v1c0.3-0.4,0.5-0.7,0.7-0.9c0.2-0.1,0.5-0.2,0.7-0.2c0.4,0,0.8,0.1,1.1,0.3
					l-0.5,1.5c-0.3-0.2-0.6-0.3-0.8-0.3s-0.4,0.1-0.6,0.2c-0.2,0.1-0.3,0.4-0.4,0.7c-0.1,0.3-0.1,1.1-0.1,2.2V21.6L671.6,21.6z"/>
				<path fill="#4D4D4F" d="M674.4,18.3c0-0.6,0.1-1.1,0.4-1.6c0.3-0.5,0.7-0.9,1.2-1.2c0.5-0.3,1.1-0.4,1.7-0.4c1,0,1.8,0.3,2.4,1
					c0.6,0.6,0.9,1.4,0.9,2.4s-0.3,1.8-0.9,2.4c-0.6,0.6-1.4,1-2.4,1c-0.6,0-1.2-0.1-1.7-0.4c-0.5-0.3-0.9-0.7-1.2-1.2
					C674.6,19.7,674.4,19,674.4,18.3z M676.2,18.4c0,0.6,0.2,1.1,0.5,1.5c0.3,0.3,0.7,0.5,1.1,0.5c0.4,0,0.8-0.2,1.1-0.5
					c0.3-0.3,0.5-0.8,0.5-1.5c0-0.6-0.2-1.1-0.5-1.5c-0.3-0.3-0.7-0.5-1.1-0.5s-0.8,0.2-1.1,0.5C676.3,17.2,676.2,17.7,676.2,18.4z"
					/>
				<path fill="#4D4D4F" d="M682.4,21.6v-8.9h1.7v8.9H682.4z"/>
			</g>
			<g enable-background="new    ">
				<path fill="#4D4D4F" d="M691.5,24.2c-0.6-0.8-1.1-1.7-1.5-2.7s-0.6-2.1-0.6-3.2c0-1,0.2-1.9,0.5-2.8c0.4-1,0.9-2,1.7-3.1h0.8
					c-0.5,0.8-0.8,1.4-1,1.8c-0.2,0.6-0.4,1.1-0.6,1.8c-0.2,0.8-0.3,1.5-0.3,2.3c0,2,0.6,3.9,1.8,5.8L691.5,24.2L691.5,24.2z"/>
				<path fill="#4D4D4F" d="M693.5,21.6v-6.5h1v1c0.5-0.7,1.2-1.1,2.1-1.1c0.4,0,0.7,0.1,1.1,0.2c0.3,0.1,0.6,0.3,0.7,0.6
					c0.2,0.2,0.3,0.5,0.3,0.8c0,0.2,0.1,0.6,0.1,1.1v4h-1.1v-3.9c0-0.4,0-0.8-0.1-1c-0.1-0.2-0.2-0.4-0.5-0.5
					c-0.2-0.1-0.5-0.2-0.8-0.2c-0.5,0-0.9,0.1-1.2,0.4c-0.3,0.3-0.5,0.9-0.5,1.7v3.5L693.5,21.6L693.5,21.6z"/>
				<path fill="#4D4D4F" d="M706.2,16.4h-5.9v-1h5.9V16.4z M706.2,19.1h-5.9v-1h5.9V19.1z"/>
				<path fill="#4D4D4F" d="M711.6,21.6h-1.1v-7c-0.3,0.3-0.6,0.5-1,0.8c-0.4,0.3-0.8,0.4-1.2,0.6v-1.1c0.6-0.3,1.1-0.6,1.6-1
					c0.5-0.4,0.8-0.8,1-1.2h0.7V21.6z"/>
				<path fill="#4D4D4F" d="M714.4,19.3l1.1-0.1c0.1,0.6,0.3,1,0.6,1.3c0.3,0.3,0.7,0.4,1.1,0.4c0.5,0,1-0.2,1.3-0.6
					c0.4-0.4,0.5-0.9,0.5-1.6c0-0.6-0.2-1.1-0.5-1.5c-0.4-0.4-0.8-0.5-1.4-0.5c-0.4,0-0.7,0.1-1,0.2c-0.3,0.2-0.5,0.4-0.7,0.6
					l-1-0.1l0.9-4.6h4.4v1h-3.6l-0.5,2.4c0.5-0.4,1.1-0.6,1.7-0.6c0.8,0,1.4,0.3,2,0.8c0.5,0.5,0.8,1.2,0.8,2.1
					c0,0.8-0.2,1.5-0.7,2.1c-0.6,0.7-1.4,1.1-2.3,1.1c-0.8,0-1.5-0.2-2-0.7C714.8,20.6,714.5,20,714.4,19.3z"/>
				<path fill="#4D4D4F" d="M721.4,19.3l1.2-0.1c0.1,0.6,0.3,1,0.6,1.3c0.3,0.3,0.7,0.4,1.1,0.4c0.5,0,1-0.2,1.3-0.6
					c0.4-0.4,0.5-0.9,0.5-1.6c0-0.6-0.2-1.1-0.5-1.5c-0.3-0.4-0.8-0.5-1.4-0.5c-0.4,0-0.7,0.1-1,0.2c-0.3,0.2-0.5,0.4-0.7,0.6
					l-1-0.1l0.9-4.6h4.4v1h-3.5l-0.5,2.4c0.5-0.4,1.1-0.6,1.7-0.6c0.8,0,1.4,0.3,2,0.8c0.5,0.5,0.8,1.2,0.8,2.1
					c0,0.8-0.2,1.5-0.7,2.1c-0.6,0.7-1.4,1.1-2.3,1.1c-0.8,0-1.5-0.2-2-0.7C721.7,20.6,721.5,20,721.4,19.3z"/>
				<path fill="#4D4D4F" d="M729.3,24.2h-0.8c1.2-1.9,1.8-3.9,1.8-5.8c0-0.8-0.1-1.5-0.3-2.3c-0.1-0.6-0.3-1.2-0.6-1.8
					c-0.2-0.4-0.5-1-1-1.8h0.8c0.8,1,1.3,2,1.7,3.1c0.3,0.9,0.5,1.8,0.5,2.8c0,1.1-0.2,2.2-0.6,3.2
					C730.4,22.6,729.9,23.5,729.3,24.2z"/>
			</g>
		</g>
		<line fill="none" stroke="#D6ECE6" stroke-width="2.7689" stroke-miterlimit="10" x1="0" y1="34.2" x2="762.9" y2="34.2"/>
		
			<line opacity="0.5" fill="none" stroke="#4D4D4F" stroke-width="1.0383" stroke-linecap="round" stroke-linejoin="round" stroke-miterlimit="10" stroke-dasharray="0,2.7689" enable-background="new    " x1="0" y1="74.3" x2="762.9" y2="74.3"/>
		
			<line opacity="0.5" fill="none" stroke="#4D4D4F" stroke-width="1.0383" stroke-linecap="round" stroke-linejoin="round" stroke-miterlimit="10" stroke-dasharray="0,2.7689" enable-background="new    " x1="0" y1="194.9" x2="762.9" y2="194.9"/>
		<line fill="none" stroke="#D6ECE6" stroke-width="2.7689" stroke-miterlimit="10" x1="0" y1="154.7" x2="762.9" y2="154.7"/>
		<g>
			<g enable-background="new    ">
				<path fill="#4D4D4F" d="M28.8,99.5V88h3.9c0.9,0,1.6,0.1,2,0.2c0.7,0.2,1.2,0.4,1.7,0.8c0.6,0.5,1.1,1.2,1.4,2
					c0.3,0.8,0.4,1.7,0.4,2.7c0,0.9-0.1,1.6-0.3,2.3c-0.2,0.7-0.5,1.2-0.8,1.7c-0.3,0.4-0.7,0.8-1,1c-0.4,0.3-0.8,0.4-1.4,0.6
					s-1,0.1-1.7,0.1H28.8L28.8,99.5z M30.3,98.1h2.4c0.8,0,1.3-0.1,1.8-0.2c0.4-0.1,0.8-0.3,1-0.6c0.4-0.4,0.6-0.8,0.8-1.4
					c0.2-0.6,0.3-1.3,0.3-2.2c0-1.2-0.2-2.1-0.6-2.8c-0.4-0.6-0.9-1.1-1.4-1.3c-0.4-0.2-1.1-0.2-2-0.2h-2.4L30.3,98.1L30.3,98.1z"/>
				<path fill="#4D4D4F" d="M40.3,89.6V88h1.4v1.6H40.3z M40.3,99.5v-8.3h1.4v8.3H40.3z"/>
				<path fill="#4D4D4F" d="M49.3,98.5c-0.5,0.4-1,0.8-1.5,0.9c-0.5,0.2-1,0.3-1.6,0.3c-0.9,0-1.6-0.2-2.1-0.7
					c-0.5-0.4-0.7-1-0.7-1.7c0-0.4,0.1-0.8,0.3-1.1c0.2-0.3,0.4-0.6,0.7-0.8c0.3-0.2,0.6-0.4,1-0.5c0.3-0.1,0.7-0.1,1.2-0.2
					c1.1-0.1,2-0.3,2.5-0.5c0-0.2,0-0.3,0-0.4c0-0.6-0.1-1-0.4-1.2c-0.4-0.3-0.9-0.5-1.6-0.5s-1.2,0.1-1.5,0.3s-0.5,0.6-0.7,1.2
					l-1.4-0.2c0.1-0.6,0.3-1.1,0.6-1.4c0.3-0.4,0.7-0.6,1.2-0.8c0.5-0.2,1.2-0.3,1.9-0.3c0.7,0,1.3,0.1,1.7,0.2
					c0.4,0.2,0.8,0.4,1,0.6c0.2,0.3,0.4,0.6,0.4,1c0,0.2,0.1,0.7,0.1,1.3v1.9c0,1.3,0,2.1,0.1,2.5c0.1,0.3,0.2,0.7,0.4,1h-1.5
					C49.4,99.2,49.3,98.9,49.3,98.5z M49.2,95.2c-0.5,0.2-1.3,0.4-2.3,0.5c-0.6,0.1-1,0.2-1.2,0.3c-0.2,0.1-0.4,0.3-0.6,0.5
					c-0.1,0.2-0.2,0.4-0.2,0.7c0,0.4,0.1,0.7,0.4,0.9s0.7,0.4,1.2,0.4c0.5,0,1-0.1,1.4-0.4c0.4-0.2,0.7-0.6,0.9-1
					c0.2-0.3,0.2-0.8,0.2-1.4C49.2,95.8,49.2,95.2,49.2,95.2z"/>
				<path fill="#4D4D4F" d="M52.7,99.5v-8.3H54v1.3c0.3-0.6,0.6-1,0.9-1.2c0.3-0.2,0.6-0.3,0.9-0.3c0.5,0,1,0.2,1.4,0.5l-0.5,1.3
					c-0.3-0.2-0.7-0.3-1-0.3s-0.6,0.1-0.8,0.3c-0.2,0.2-0.4,0.4-0.5,0.8c-0.2,0.5-0.2,1-0.2,1.6v4.3H52.7L52.7,99.5z"/>
				<path fill="#4D4D4F" d="M58.2,99.5v-8.3h1.3v1.3c0.3-0.6,0.6-1,0.9-1.2c0.3-0.2,0.6-0.3,0.9-0.3c0.5,0,1,0.2,1.4,0.5l-0.5,1.3
					c-0.3-0.2-0.7-0.3-1-0.3s-0.6,0.1-0.8,0.3c-0.2,0.2-0.4,0.4-0.5,0.8c-0.2,0.5-0.2,1-0.2,1.6v4.3H58.2L58.2,99.5z"/>
				<path fill="#4D4D4F" d="M63.5,99.5V88h1.4v4.1c0.7-0.8,1.5-1.1,2.5-1.1c0.6,0,1.1,0.1,1.6,0.4c0.5,0.2,0.8,0.6,1,1
					c0.2,0.4,0.3,1,0.3,1.9v5.1h-1.4v-5.3c0-0.7-0.2-1.2-0.5-1.5s-0.7-0.5-1.3-0.5c-0.4,0-0.8,0.1-1.2,0.3c-0.4,0.2-0.6,0.5-0.8,0.9
					c-0.2,0.4-0.2,0.9-0.2,1.5v4.6H63.5L63.5,99.5z"/>
				<path fill="#4D4D4F" d="M78.2,96.7l1.5,0.2c-0.2,0.9-0.7,1.5-1.3,2c-0.6,0.5-1.4,0.7-2.4,0.7c-1.2,0-2.2-0.4-2.9-1.1
					c-0.7-0.7-1.1-1.8-1.1-3.1c0-1.4,0.4-2.5,1.1-3.2c0.7-0.8,1.7-1.2,2.8-1.2s2,0.4,2.7,1.1c0.7,0.8,1.1,1.8,1.1,3.2
					c0,0.1,0,0.2,0,0.4h-6.2c0.1,0.9,0.3,1.6,0.8,2.1c0.5,0.5,1,0.7,1.7,0.7c0.5,0,1-0.1,1.3-0.4C77.7,97.8,78,97.3,78.2,96.7z
					 M73.5,94.5h4.6c-0.1-0.7-0.2-1.2-0.5-1.6c-0.4-0.5-1-0.8-1.7-0.8c-0.6,0-1.2,0.2-1.6,0.6C73.8,93.2,73.5,93.7,73.5,94.5z"/>
				<path fill="#4D4D4F" d="M86.8,98.5c-0.5,0.4-1,0.8-1.5,0.9c-0.5,0.2-1,0.3-1.6,0.3c-0.9,0-1.6-0.2-2.1-0.7
					c-0.5-0.4-0.7-1-0.7-1.7c0-0.4,0.1-0.8,0.3-1.1c0.2-0.3,0.4-0.6,0.7-0.8c0.3-0.2,0.6-0.4,1-0.5c0.3-0.1,0.7-0.1,1.2-0.2
					c1.1-0.1,2-0.3,2.5-0.5c0-0.2,0-0.3,0-0.4c0-0.6-0.1-1-0.4-1.2c-0.4-0.3-0.9-0.5-1.6-0.5c-0.7,0-1.2,0.1-1.5,0.3
					s-0.5,0.6-0.7,1.2L81,93.3c0.1-0.6,0.3-1.1,0.6-1.4c0.3-0.4,0.7-0.6,1.2-0.8c0.5-0.2,1.2-0.3,1.9-0.3c0.7,0,1.3,0.1,1.7,0.2
					c0.4,0.2,0.8,0.4,1,0.6c0.2,0.3,0.4,0.6,0.4,1c0,0.2,0.1,0.7,0.1,1.3v1.9c0,1.3,0,2.1,0.1,2.5c0.1,0.3,0.2,0.7,0.4,1h-1.5
					C87,99.2,86.9,98.9,86.8,98.5z M86.7,95.2c-0.5,0.2-1.3,0.4-2.3,0.5c-0.6,0.1-1,0.2-1.2,0.3s-0.4,0.3-0.6,0.5
					c-0.1,0.2-0.2,0.4-0.2,0.7c0,0.4,0.1,0.7,0.4,0.9c0.3,0.2,0.7,0.4,1.2,0.4c0.5,0,1-0.1,1.4-0.4c0.4-0.2,0.7-0.6,0.9-1
					c0.2-0.3,0.2-0.8,0.2-1.4C86.7,95.8,86.7,95.2,86.7,95.2z"/>
			</g>
			<g enable-background="new    ">
				<path fill="#4D4D4F" d="M37.1,135.6l1.5,0.4c-0.3,1.2-0.9,2.2-1.7,2.8c-0.8,0.7-1.8,1-3,1c-1.2,0-2.2-0.2-3-0.8
					c-0.8-0.5-1.4-1.2-1.8-2.2c-0.4-1-0.6-2-0.6-3.1c0-1.2,0.2-2.2,0.7-3.1c0.5-0.9,1.1-1.6,1.9-2c0.8-0.4,1.8-0.7,2.8-0.7
					c1.1,0,2.1,0.3,2.9,0.9c0.8,0.6,1.3,1.4,1.6,2.5l-1.5,0.4c-0.3-0.8-0.7-1.4-1.2-1.8c-0.5-0.4-1.1-0.6-1.9-0.6
					c-0.9,0-1.6,0.2-2.2,0.6s-1,1-1.2,1.7c-0.2,0.7-0.4,1.4-0.4,2.2c0,1,0.1,1.8,0.4,2.6c0.3,0.7,0.7,1.3,1.3,1.6
					c0.6,0.4,1.2,0.5,1.9,0.5c0.8,0,1.6-0.2,2.2-0.7C36.5,137.3,36.9,136.6,37.1,135.6z"/>
				<path fill="#4D4D4F" d="M39.8,135.5c0-1.5,0.4-2.7,1.3-3.4c0.7-0.6,1.6-0.9,2.6-0.9c1.1,0,2.1,0.4,2.8,1.1
					c0.7,0.7,1.1,1.8,1.1,3.1c0,1.1-0.2,1.9-0.5,2.5s-0.8,1.1-1.4,1.4c-0.6,0.3-1.3,0.5-2,0.5c-1.2,0-2.1-0.4-2.8-1.1
					C40.1,137.9,39.8,136.9,39.8,135.5z M41.2,135.5c0,1.1,0.2,1.9,0.7,2.4c0.5,0.5,1,0.8,1.8,0.8c0.7,0,1.3-0.3,1.7-0.8
					c0.5-0.5,0.7-1.3,0.7-2.4c0-1-0.2-1.8-0.7-2.3c-0.5-0.5-1-0.8-1.7-0.8c-0.7,0-1.3,0.3-1.8,0.8C41.5,133.6,41.2,134.4,41.2,135.5
					z"/>
				<path fill="#4D4D4F" d="M49.2,139.6v-11.6h1.4v11.6H49.2z"/>
				<path fill="#4D4D4F" d="M52.8,129.8v-1.6h1.4v1.6H52.8z M52.8,139.6v-8.3h1.4v8.3H52.8z"/>
				<path fill="#4D4D4F" d="M59.5,138.4l0.2,1.2c-0.4,0.1-0.8,0.1-1.1,0.1c-0.5,0-0.9-0.1-1.2-0.2c-0.3-0.2-0.5-0.4-0.6-0.6
					c-0.1-0.3-0.2-0.8-0.2-1.7v-4.8h-1v-1.1h1v-2.1l1.4-0.8v2.9h1.4v1.1H58v4.9c0,0.4,0,0.7,0.1,0.8c0,0.1,0.1,0.2,0.2,0.3
					s0.3,0.1,0.5,0.1C59,138.4,59.2,138.4,59.5,138.4z"/>
				<path fill="#4D4D4F" d="M60.9,129.8v-1.6h1.4v1.6H60.9z M60.9,139.6v-8.3h1.4v8.3H60.9z"/>
				<path fill="#4D4D4F" d="M63.9,137.1l1.4-0.2c0.1,0.6,0.3,1,0.7,1.3c0.4,0.3,0.9,0.4,1.5,0.4s1.1-0.1,1.4-0.4
					c0.3-0.3,0.5-0.6,0.5-0.9s-0.1-0.6-0.4-0.8c-0.2-0.1-0.7-0.3-1.4-0.5c-1-0.3-1.7-0.5-2.1-0.7c-0.4-0.2-0.7-0.5-0.9-0.8
					c-0.2-0.3-0.3-0.7-0.3-1.1c0-0.4,0.1-0.7,0.3-1c0.2-0.3,0.4-0.6,0.7-0.8c0.2-0.2,0.5-0.3,0.9-0.4c0.4-0.1,0.8-0.2,1.2-0.2
					c0.7,0,1.2,0.1,1.7,0.3c0.5,0.2,0.9,0.4,1.1,0.8c0.2,0.3,0.4,0.8,0.5,1.3l-1.4,0.2c-0.1-0.4-0.2-0.8-0.5-1
					c-0.3-0.2-0.7-0.4-1.3-0.4c-0.6,0-1.1,0.1-1.4,0.3c-0.3,0.2-0.4,0.5-0.4,0.8c0,0.2,0.1,0.3,0.2,0.5c0.1,0.1,0.3,0.3,0.5,0.4
					c0.1,0.1,0.6,0.2,1.2,0.4c1,0.3,1.7,0.5,2.1,0.7c0.4,0.2,0.7,0.4,0.9,0.7c0.2,0.3,0.3,0.7,0.3,1.2s-0.1,0.9-0.4,1.3
					c-0.3,0.4-0.7,0.7-1.2,1c-0.5,0.2-1.1,0.3-1.8,0.3c-1.1,0-1.9-0.2-2.5-0.7C64.4,138.7,64,138,63.9,137.1z"/>
			</g>
		</g>
		<g>
			<g enable-background="new    ">
				<path fill="#4D4D4F" d="M18.2,176.1l2.2-0.2c0.1,0.8,0.4,1.3,0.8,1.7s1,0.5,1.7,0.5s1.3-0.2,1.7-0.5c0.4-0.3,0.6-0.7,0.6-1.1
					c0-0.3-0.1-0.5-0.2-0.7c-0.2-0.2-0.4-0.4-0.8-0.5c-0.3-0.1-0.9-0.3-1.9-0.5c-1.2-0.3-2.1-0.7-2.6-1.1c-0.7-0.6-1.1-1.4-1.1-2.3
					c0-0.6,0.2-1.1,0.5-1.6c0.3-0.5,0.8-0.9,1.4-1.2c0.6-0.3,1.4-0.4,2.3-0.4c1.4,0,2.5,0.3,3.2,0.9c0.7,0.6,1.1,1.5,1.1,2.5
					l-2.3,0.1c-0.1-0.6-0.3-1-0.6-1.3c-0.3-0.3-0.8-0.4-1.5-0.4c-0.7,0-1.2,0.1-1.6,0.4c-0.2,0.2-0.4,0.4-0.4,0.7
					c0,0.3,0.1,0.5,0.3,0.7c0.3,0.2,1,0.5,2.1,0.8c1.1,0.3,2,0.5,2.5,0.8c0.5,0.3,1,0.7,1.3,1.2s0.5,1.1,0.5,1.8s-0.2,1.3-0.5,1.8
					c-0.4,0.6-0.9,1-1.5,1.3c-0.7,0.3-1.5,0.4-2.5,0.4c-1.4,0-2.6-0.3-3.3-1C18.8,178.3,18.3,177.4,18.2,176.1z"/>
				<path fill="#4D4D4F" d="M29.3,179.8v-11.6h2.2v6.1l2.6-2.9h2.7l-2.8,3l3,5.3h-2.4l-2.1-3.7l-1,1.1v2.7L29.3,179.8L29.3,179.8z"
					/>
				<path fill="#4D4D4F" d="M38.4,170.4v-2h2.2v2H38.4z M38.4,179.8v-8.3h2.2v8.3H38.4z"/>
				<path fill="#4D4D4F" d="M50.4,179.8h-2.2v-4.2c0-0.9,0-1.5-0.1-1.7c-0.1-0.3-0.2-0.5-0.5-0.6c-0.2-0.1-0.5-0.2-0.8-0.2
					c-0.4,0-0.7,0.1-1,0.3c-0.3,0.2-0.5,0.5-0.6,0.8c-0.1,0.3-0.2,1-0.2,1.9v3.8h-2.2v-8.3h2v1.2c0.7-0.9,1.6-1.4,2.7-1.4
					c0.5,0,0.9,0.1,1.3,0.3c0.4,0.2,0.7,0.4,0.9,0.7c0.2,0.3,0.3,0.6,0.4,0.9c0.1,0.3,0.1,0.8,0.1,1.5v5H50.4z"/>
				<path fill="#4D4D4F" d="M58.8,174l-2-0.4c0.2-0.8,0.6-1.4,1.2-1.8c0.5-0.4,1.4-0.6,2.4-0.6c1,0,1.7,0.1,2.2,0.3
					c0.5,0.2,0.8,0.5,1,0.9c0.2,0.4,0.3,1,0.3,2v2.6c0,0.7,0,1.3,0.1,1.6c0.1,0.3,0.2,0.7,0.4,1.1h-2.2c-0.1-0.1-0.1-0.4-0.2-0.6
					c0-0.1-0.1-0.2-0.1-0.3c-0.4,0.4-0.8,0.6-1.2,0.8c-0.4,0.2-0.9,0.3-1.4,0.3c-0.9,0-1.5-0.2-2-0.7c-0.5-0.5-0.7-1-0.7-1.8
					c0-0.5,0.1-0.9,0.3-1.3c0.2-0.4,0.5-0.6,0.9-0.8c0.4-0.2,1-0.4,1.7-0.5c1-0.2,1.7-0.4,2.1-0.5v-0.2c0-0.4-0.1-0.7-0.3-0.9
					c-0.2-0.2-0.6-0.3-1.2-0.3c-0.4,0-0.7,0.1-0.9,0.2C59.1,173.4,59,173.7,58.8,174z M61.8,175.8c-0.3,0.1-0.7,0.2-1.3,0.3
					c-0.6,0.1-1,0.3-1.2,0.4c-0.3,0.2-0.4,0.5-0.4,0.8c0,0.3,0.1,0.6,0.3,0.8s0.5,0.3,0.9,0.3c0.4,0,0.8-0.1,1.1-0.4
					c0.3-0.2,0.4-0.4,0.5-0.7c0.1-0.2,0.1-0.5,0.1-1.1L61.8,175.8L61.8,175.8z"/>
				<path fill="#4D4D4F" d="M73.6,179.8h-2.2v-4.2c0-0.9,0-1.5-0.1-1.7c-0.1-0.3-0.2-0.5-0.5-0.6c-0.2-0.1-0.5-0.2-0.8-0.2
					c-0.4,0-0.7,0.1-1,0.3c-0.3,0.2-0.5,0.5-0.6,0.8c-0.1,0.3-0.2,1-0.2,1.9v3.8H66v-8.3h2v1.2c0.7-0.9,1.6-1.4,2.7-1.4
					c0.5,0,0.9,0.1,1.3,0.3c0.4,0.2,0.7,0.4,0.9,0.7c0.2,0.3,0.3,0.6,0.4,0.9c0.1,0.3,0.1,0.8,0.1,1.5L73.6,179.8L73.6,179.8z"/>
				<path fill="#4D4D4F" d="M83.6,179.8h-2v-1.2c-0.3,0.5-0.7,0.8-1.2,1.1c-0.5,0.2-0.9,0.4-1.4,0.4c-1,0-1.8-0.4-2.4-1.2
					c-0.7-0.8-1-1.8-1-3.2s0.3-2.5,1-3.2c0.7-0.7,1.5-1.1,2.5-1.1c0.9,0,1.7,0.4,2.4,1.2v-4.1h2.2L83.6,179.8L83.6,179.8z
					 M77.7,175.5c0,0.9,0.1,1.5,0.4,1.9c0.4,0.6,0.8,0.9,1.5,0.9c0.5,0,0.9-0.2,1.3-0.6c0.4-0.4,0.5-1.1,0.5-1.9
					c0-1-0.2-1.6-0.5-2.1c-0.3-0.4-0.8-0.6-1.3-0.6c-0.5,0-1,0.2-1.3,0.6C77.9,174,77.7,174.7,77.7,175.5z"/>
				<path fill="#4D4D4F" d="M89.6,176.1l2.2-0.2c0.1,0.8,0.4,1.3,0.8,1.7c0.4,0.4,1,0.5,1.7,0.5c0.7,0,1.3-0.2,1.7-0.5
					c0.4-0.3,0.6-0.7,0.6-1.1c0-0.3-0.1-0.5-0.2-0.7c-0.2-0.2-0.4-0.4-0.8-0.5c-0.3-0.1-0.9-0.3-1.9-0.5c-1.2-0.3-2.1-0.7-2.6-1.1
					c-0.7-0.6-1.1-1.4-1.1-2.3c0-0.6,0.2-1.1,0.5-1.6c0.3-0.5,0.8-0.9,1.4-1.2c0.6-0.3,1.4-0.4,2.3-0.4c1.4,0,2.5,0.3,3.2,0.9
					c0.7,0.6,1.1,1.5,1.1,2.5l-2.3,0.1c-0.1-0.6-0.3-1-0.6-1.3c-0.3-0.3-0.8-0.4-1.5-0.4s-1.2,0.1-1.6,0.4c-0.2,0.2-0.4,0.4-0.4,0.7
					c0,0.3,0.1,0.5,0.3,0.7c0.3,0.2,1,0.5,2.1,0.8c1.1,0.3,2,0.5,2.5,0.8c0.5,0.3,1,0.7,1.3,1.2s0.5,1.1,0.5,1.8s-0.2,1.3-0.5,1.8
					c-0.4,0.6-0.9,1-1.5,1.3c-0.7,0.3-1.5,0.4-2.5,0.4c-1.4,0-2.6-0.3-3.3-1C90.2,178.3,89.8,177.4,89.6,176.1z"/>
				<path fill="#4D4D4F" d="M106.4,179.8v-1.2c-0.3,0.4-0.7,0.8-1.2,1c-0.5,0.3-1,0.4-1.6,0.4s-1.1-0.1-1.5-0.4
					c-0.4-0.2-0.8-0.6-1-1c-0.2-0.4-0.3-1.1-0.3-1.8v-5.2h2.2v3.8c0,1.2,0,1.9,0.1,2.1c0.1,0.3,0.2,0.5,0.4,0.6
					c0.2,0.2,0.5,0.2,0.8,0.2c0.4,0,0.7-0.1,1-0.3c0.3-0.2,0.5-0.5,0.6-0.8c0.1-0.3,0.2-1.1,0.2-2.2v-3.5h2.2v8.3L106.4,179.8
					L106.4,179.8z"/>
				<path fill="#4D4D4F" d="M110.6,179.8v-11.6h2.2v4.1c0.7-0.8,1.5-1.2,2.4-1.2c1,0,1.8,0.4,2.5,1.1s1,1.8,1,3.2
					c0,1.4-0.3,2.5-1,3.3s-1.5,1.1-2.5,1.1c-0.5,0-0.9-0.1-1.4-0.4c-0.5-0.2-0.9-0.6-1.2-1.1v1.2L110.6,179.8L110.6,179.8z
					 M112.8,175.5c0,0.9,0.1,1.5,0.4,1.9c0.4,0.6,0.9,0.9,1.5,0.9c0.5,0,0.9-0.2,1.2-0.6c0.3-0.4,0.5-1.1,0.5-2s-0.2-1.6-0.5-2.1
					c-0.3-0.4-0.8-0.6-1.3-0.6c-0.5,0-1,0.2-1.3,0.6C113,174,112.8,174.6,112.8,175.5z"/>
				<path fill="#4D4D4F" d="M127.8,174l-2.2,0.4c-0.1-0.4-0.2-0.8-0.5-1c-0.3-0.2-0.6-0.3-1-0.3c-0.5,0-1,0.2-1.3,0.6
					c-0.3,0.4-0.5,1-0.5,1.9c0,1,0.2,1.7,0.5,2.1c0.3,0.4,0.8,0.6,1.3,0.6c0.4,0,0.8-0.1,1-0.4c0.3-0.2,0.5-0.6,0.6-1.2l2.2,0.4
					c-0.2,1-0.7,1.7-1.3,2.2c-0.6,0.5-1.5,0.8-2.6,0.8c-1.2,0-2.2-0.4-2.9-1.1c-0.7-0.8-1.1-1.8-1.1-3.2s0.4-2.4,1.1-3.2
					c0.7-0.8,1.7-1.1,2.9-1.1c1,0,1.8,0.2,2.4,0.6C127.1,172.4,127.6,173.1,127.8,174z"/>
				<path fill="#4D4D4F" d="M135,179.8v-1.2c-0.3,0.4-0.7,0.8-1.2,1c-0.5,0.3-1,0.4-1.6,0.4s-1.1-0.1-1.5-0.4c-0.4-0.2-0.8-0.6-1-1
					c-0.2-0.4-0.3-1.1-0.3-1.8v-5.2h2.2v3.8c0,1.2,0,1.9,0.1,2.1c0.1,0.3,0.2,0.5,0.4,0.6c0.2,0.2,0.5,0.2,0.8,0.2
					c0.4,0,0.7-0.1,1-0.3c0.3-0.2,0.5-0.5,0.6-0.8c0.1-0.3,0.2-1.1,0.2-2.2v-3.5h2.2v8.3L135,179.8L135,179.8z"/>
				<path fill="#4D4D4F" d="M143.2,171.5v1.8h-1.5v3.3c0,0.7,0,1.1,0,1.2c0,0.1,0.1,0.2,0.2,0.3s0.2,0.1,0.4,0.1
					c0.2,0,0.5-0.1,0.9-0.2l0.2,1.7c-0.5,0.2-1.1,0.3-1.7,0.3c-0.4,0-0.8-0.1-1.1-0.2c-0.3-0.1-0.6-0.3-0.7-0.5
					c-0.1-0.2-0.3-0.5-0.3-0.9c0-0.3-0.1-0.8-0.1-1.5v-3.6h-1v-1.8h1v-1.6l2.2-1.3v2.9H143.2L143.2,171.5z"/>
				<path fill="#4D4D4F" d="M146.3,174l-2-0.4c0.2-0.8,0.6-1.4,1.2-1.8c0.5-0.4,1.4-0.6,2.4-0.6c1,0,1.7,0.1,2.2,0.3
					c0.5,0.2,0.8,0.5,1,0.9c0.2,0.4,0.3,1,0.3,2v2.6c0,0.7,0,1.3,0.1,1.6c0.1,0.3,0.2,0.7,0.4,1.1h-2.2c-0.1-0.1-0.1-0.4-0.2-0.6
					c0-0.1-0.1-0.2-0.1-0.3c-0.4,0.4-0.8,0.6-1.2,0.8c-0.4,0.2-0.9,0.3-1.4,0.3c-0.9,0-1.5-0.2-2-0.7c-0.5-0.5-0.7-1-0.7-1.8
					c0-0.5,0.1-0.9,0.3-1.3c0.2-0.4,0.5-0.6,0.9-0.8c0.4-0.2,1-0.4,1.7-0.5c1-0.2,1.7-0.4,2.1-0.5v-0.2c0-0.4-0.1-0.7-0.3-0.9
					c-0.2-0.2-0.6-0.3-1.2-0.3c-0.4,0-0.7,0.1-0.9,0.2C146.6,173.4,146.5,173.7,146.3,174z M149.3,175.8c-0.3,0.1-0.7,0.2-1.3,0.3
					c-0.6,0.1-1,0.3-1.2,0.4c-0.3,0.2-0.4,0.5-0.4,0.8c0,0.3,0.1,0.6,0.3,0.8c0.2,0.2,0.5,0.3,0.9,0.3c0.4,0,0.8-0.1,1.1-0.4
					c0.3-0.2,0.4-0.4,0.5-0.7c0.1-0.2,0.1-0.5,0.1-1.1L149.3,175.8L149.3,175.8z"/>
				<path fill="#4D4D4F" d="M161.1,179.8h-2.2v-4.2c0-0.9,0-1.5-0.1-1.7c-0.1-0.3-0.2-0.5-0.5-0.6c-0.2-0.1-0.5-0.2-0.8-0.2
					c-0.4,0-0.7,0.1-1,0.3c-0.3,0.2-0.5,0.5-0.6,0.8c-0.1,0.3-0.2,1-0.2,1.9v3.8h-2.2v-8.3h2v1.2c0.7-0.9,1.6-1.4,2.7-1.4
					c0.5,0,0.9,0.1,1.3,0.3c0.4,0.2,0.7,0.4,0.9,0.7c0.2,0.3,0.3,0.6,0.4,0.9c0.1,0.3,0.1,0.8,0.1,1.5L161.1,179.8L161.1,179.8z"/>
				<path fill="#4D4D4F" d="M168.3,177.2l2.2,0.4c-0.3,0.8-0.7,1.4-1.3,1.8c-0.6,0.4-1.4,0.6-2.3,0.6c-1.4,0-2.5-0.5-3.2-1.4
					c-0.5-0.8-0.8-1.7-0.8-2.9c0-1.4,0.4-2.5,1.1-3.2c0.7-0.8,1.6-1.2,2.7-1.2c1.2,0,2.2,0.4,2.9,1.2s1.1,2.1,1,3.7h-5.5
					c0,0.6,0.2,1.2,0.5,1.5c0.3,0.4,0.8,0.5,1.3,0.5c0.3,0,0.6-0.1,0.9-0.3C168,177.9,168.1,177.6,168.3,177.2z M168.4,174.9
					c0-0.6-0.2-1.1-0.5-1.4c-0.3-0.3-0.7-0.5-1.1-0.5c-0.5,0-0.9,0.2-1.2,0.5c-0.3,0.4-0.5,0.8-0.5,1.4H168.4L168.4,174.9z"/>
				<path fill="#4D4D4F" d="M171.9,175.5c0-0.7,0.2-1.4,0.5-2.1c0.4-0.7,0.9-1.2,1.5-1.6c0.7-0.4,1.4-0.5,2.2-0.5
					c1.3,0,2.3,0.4,3.1,1.2c0.8,0.8,1.2,1.8,1.2,3.1s-0.4,2.3-1.2,3.1c-0.8,0.8-1.8,1.2-3.1,1.2c-0.8,0-1.5-0.2-2.2-0.5
					c-0.7-0.3-1.2-0.8-1.6-1.5C172,177.3,171.9,176.5,171.9,175.5z M174.1,175.7c0,0.8,0.2,1.5,0.6,1.9s0.9,0.7,1.4,0.7
					c0.6,0,1.1-0.2,1.4-0.7c0.4-0.4,0.6-1.1,0.6-1.9c0-0.8-0.2-1.4-0.6-1.9c-0.4-0.4-0.9-0.7-1.4-0.7c-0.6,0-1.1,0.2-1.4,0.7
					C174.3,174.2,174.1,174.8,174.1,175.7z"/>
				<path fill="#4D4D4F" d="M187.7,179.8v-1.2c-0.3,0.4-0.7,0.8-1.2,1c-0.5,0.3-1,0.4-1.6,0.4s-1.1-0.1-1.5-0.4
					c-0.4-0.2-0.8-0.6-1-1c-0.2-0.4-0.3-1.1-0.3-1.8v-5.2h2.2v3.8c0,1.2,0,1.9,0.1,2.1c0.1,0.3,0.2,0.5,0.4,0.6
					c0.2,0.2,0.5,0.2,0.8,0.2c0.4,0,0.7-0.1,1-0.3c0.3-0.2,0.5-0.5,0.6-0.8c0.1-0.3,0.2-1.1,0.2-2.2v-3.5h2.2v8.3L187.7,179.8
					L187.7,179.8z"/>
				<path fill="#4D4D4F" d="M191.2,177.4l2.2-0.3c0.1,0.4,0.3,0.8,0.6,1c0.3,0.2,0.7,0.3,1.2,0.3c0.6,0,1-0.1,1.3-0.3
					c0.2-0.1,0.3-0.3,0.3-0.6c0-0.2-0.1-0.3-0.2-0.4c-0.1-0.1-0.4-0.2-0.7-0.3c-1.8-0.4-2.9-0.7-3.4-1.1c-0.7-0.4-1-1.1-1-1.9
					c0-0.7,0.3-1.3,0.9-1.8c0.6-0.5,1.4-0.7,2.6-0.7c1.1,0,2,0.2,2.5,0.6c0.6,0.4,0.9,0.9,1.1,1.6l-2.1,0.4
					c-0.1-0.3-0.3-0.6-0.5-0.7c-0.2-0.2-0.6-0.3-1.1-0.3c-0.6,0-1,0.1-1.2,0.2c-0.2,0.1-0.2,0.3-0.2,0.4c0,0.2,0.1,0.3,0.2,0.4
					c0.2,0.1,0.9,0.4,2.1,0.6c1.2,0.3,2,0.6,2.4,1c0.5,0.4,0.7,0.9,0.7,1.6c0,0.8-0.3,1.4-1,2c-0.6,0.5-1.6,0.8-2.8,0.8
					c-1.1,0-2-0.2-2.7-0.7C191.9,178.9,191.4,178.2,191.2,177.4z"/>
				<path fill="#4D4D4F" d="M208,179.8v-9.5h-3.4v-1.9h9.1v1.9h-3.4v9.5H208z"/>
				<path fill="#4D4D4F" d="M214.9,170.4v-2h2.2v2H214.9z M214.9,179.8v-8.3h2.2v8.3H214.9z"/>
				<path fill="#4D4D4F" d="M218.6,177.4l2.2-0.3c0.1,0.4,0.3,0.8,0.6,1c0.3,0.2,0.7,0.3,1.2,0.3c0.6,0,1-0.1,1.3-0.3
					c0.2-0.1,0.3-0.3,0.3-0.6c0-0.2-0.1-0.3-0.2-0.4c-0.1-0.1-0.4-0.2-0.7-0.3c-1.8-0.4-2.9-0.7-3.4-1.1c-0.7-0.4-1-1.1-1-1.9
					c0-0.7,0.3-1.3,0.9-1.8c0.6-0.5,1.4-0.7,2.6-0.7c1.1,0,2,0.2,2.5,0.6c0.6,0.4,0.9,0.9,1.1,1.6l-2.1,0.4
					c-0.1-0.3-0.3-0.6-0.5-0.7c-0.2-0.2-0.6-0.3-1.1-0.3c-0.6,0-1,0.1-1.2,0.2c-0.2,0.1-0.2,0.3-0.2,0.4c0,0.2,0.1,0.3,0.2,0.4
					c0.2,0.1,0.9,0.4,2.1,0.6c1.2,0.3,2,0.6,2.4,1c0.5,0.4,0.7,0.9,0.7,1.6c0,0.8-0.3,1.4-1,2c-0.6,0.5-1.6,0.8-2.8,0.8
					c-1.1,0-2-0.2-2.7-0.7C219.2,178.9,218.8,178.2,218.6,177.4z"/>
				<path fill="#4D4D4F" d="M227.5,177.4l2.2-0.3c0.1,0.4,0.3,0.8,0.6,1c0.3,0.2,0.7,0.3,1.2,0.3c0.6,0,1-0.1,1.3-0.3
					c0.2-0.1,0.3-0.3,0.3-0.6c0-0.2-0.1-0.3-0.2-0.4c-0.1-0.1-0.4-0.2-0.7-0.3c-1.8-0.4-2.9-0.7-3.4-1.1c-0.7-0.4-1-1.1-1-1.9
					c0-0.7,0.3-1.3,0.9-1.8c0.6-0.5,1.4-0.7,2.6-0.7c1.1,0,2,0.2,2.5,0.6c0.6,0.4,0.9,0.9,1.1,1.6l-2.1,0.4
					c-0.1-0.3-0.3-0.6-0.5-0.7c-0.2-0.2-0.6-0.3-1.1-0.3c-0.6,0-1,0.1-1.2,0.2c-0.2,0.1-0.2,0.3-0.2,0.4c0,0.2,0.1,0.3,0.2,0.4
					c0.2,0.1,0.9,0.4,2.1,0.6c1.2,0.3,2,0.6,2.4,1c0.5,0.4,0.7,0.9,0.7,1.6c0,0.8-0.3,1.4-1,2c-0.6,0.5-1.6,0.8-2.8,0.8
					c-1.1,0-2-0.2-2.7-0.7C228.1,178.9,227.7,178.2,227.5,177.4z"/>
				<path fill="#4D4D4F" d="M242.7,179.8v-1.2c-0.3,0.4-0.7,0.8-1.2,1c-0.5,0.3-1,0.4-1.6,0.4s-1.1-0.1-1.5-0.4
					c-0.4-0.2-0.8-0.6-1-1c-0.2-0.4-0.3-1.1-0.3-1.8v-5.2h2.2v3.8c0,1.2,0,1.9,0.1,2.1c0.1,0.3,0.2,0.5,0.4,0.6
					c0.2,0.2,0.5,0.2,0.8,0.2c0.4,0,0.7-0.1,1-0.3c0.3-0.2,0.5-0.5,0.6-0.8c0.1-0.3,0.2-1.1,0.2-2.2v-3.5h2.2v8.3L242.7,179.8
					L242.7,179.8z"/>
				<path fill="#4D4D4F" d="M252,177.2l2.2,0.4c-0.3,0.8-0.7,1.4-1.3,1.8c-0.6,0.4-1.4,0.6-2.3,0.6c-1.4,0-2.5-0.5-3.2-1.4
					c-0.5-0.8-0.8-1.7-0.8-2.9c0-1.4,0.4-2.5,1.1-3.2c0.7-0.8,1.6-1.2,2.7-1.2c1.2,0,2.2,0.4,2.9,1.2c0.7,0.8,1.1,2.1,1,3.7h-5.5
					c0,0.6,0.2,1.2,0.5,1.5c0.3,0.4,0.8,0.5,1.3,0.5c0.3,0,0.6-0.1,0.9-0.3C251.7,177.9,251.8,177.6,252,177.2z M252.1,174.9
					c0-0.6-0.2-1.1-0.5-1.4c-0.3-0.3-0.7-0.5-1.1-0.5c-0.5,0-0.9,0.2-1.2,0.5c-0.3,0.4-0.5,0.8-0.5,1.4H252.1L252.1,174.9z"/>
			</g>
		</g>
		<g>
			<g enable-background="new    ">
				<path fill="#4D4D4F" d="M28.8,220v-11.6h4.3c0.8,0,1.3,0,1.7,0.1c0.6,0.1,1,0.3,1.4,0.5c0.4,0.2,0.7,0.6,0.9,1.1
					c0.2,0.5,0.3,1,0.3,1.6c0,1-0.3,1.8-0.9,2.5c-0.6,0.7-1.7,1-3.4,1h-2.9v4.7L28.8,220L28.8,220z M30.3,214h3c1,0,1.7-0.2,2.1-0.5
					c0.4-0.4,0.6-0.9,0.6-1.5c0-0.5-0.1-0.9-0.4-1.2c-0.2-0.3-0.6-0.6-1-0.7c-0.3-0.1-0.7-0.1-1.4-0.1h-2.9
					C30.3,209.9,30.3,214,30.3,214z"/>
				<path fill="#4D4D4F" d="M39.4,220v-8.3h1.3v1.3c0.3-0.6,0.6-1,0.9-1.2s0.6-0.3,0.9-0.3c0.5,0,1,0.1,1.4,0.5l-0.5,1.3
					c-0.3-0.2-0.7-0.3-1-0.3s-0.6,0.1-0.8,0.3c-0.2,0.2-0.4,0.4-0.5,0.8c-0.2,0.5-0.2,1-0.2,1.6v4.3L39.4,220L39.4,220z"/>
				<path fill="#4D4D4F" d="M50.2,220v-1.2c-0.6,0.9-1.5,1.4-2.6,1.4c-0.5,0-0.9-0.1-1.4-0.3c-0.4-0.2-0.7-0.4-0.9-0.7
					c-0.2-0.3-0.4-0.6-0.4-1c-0.1-0.3-0.1-0.7-0.1-1.3v-5.1h1.4v4.6c0,0.7,0,1.2,0.1,1.5c0.1,0.4,0.3,0.7,0.6,0.9s0.6,0.3,1.1,0.3
					s0.8-0.1,1.2-0.3s0.6-0.5,0.8-0.9c0.2-0.4,0.2-0.9,0.2-1.6v-4.4h1.4v8.3L50.2,220L50.2,220z"/>
				<path fill="#4D4D4F" d="M53.6,220v-8.3H55v1.3c0.3-0.6,0.6-1,0.9-1.2c0.3-0.2,0.6-0.3,0.9-0.3c0.5,0,1,0.1,1.4,0.5l-0.5,1.3
					c-0.3-0.2-0.7-0.3-1-0.3s-0.6,0.1-0.8,0.3c-0.2,0.2-0.4,0.4-0.5,0.8c-0.2,0.5-0.2,1-0.2,1.6v4.3L53.6,220L53.6,220z"/>
				<path fill="#4D4D4F" d="M59.1,210.2v-1.6h1.4v1.6H59.1z M59.1,220v-8.3h1.4v8.3H59.1z"/>
				<path fill="#4D4D4F" d="M65.7,218.8l0.2,1.2c-0.4,0.1-0.8,0.1-1.1,0.1c-0.5,0-0.9-0.1-1.2-0.2c-0.3-0.2-0.5-0.4-0.6-0.6
					c-0.1-0.3-0.2-0.8-0.2-1.7v-4.8h-1v-1.1h1v-2.1l1.4-0.8v2.9h1.4v1.1h-1.3v4.9c0,0.4,0,0.7,0.1,0.8c0,0.1,0.1,0.2,0.2,0.3
					c0.1,0.1,0.3,0.1,0.5,0.1C65.2,218.8,65.5,218.8,65.7,218.8z"/>
				<path fill="#4D4D4F" d="M72.5,220v-1.2c-0.6,0.9-1.5,1.4-2.6,1.4c-0.5,0-0.9-0.1-1.4-0.3c-0.4-0.2-0.7-0.4-0.9-0.7
					c-0.2-0.3-0.4-0.6-0.4-1c-0.1-0.3-0.1-0.7-0.1-1.3v-5.1h1.4v4.6c0,0.7,0,1.2,0.1,1.5c0.1,0.4,0.3,0.7,0.6,0.9
					c0.3,0.2,0.6,0.3,1.1,0.3c0.5,0,0.8-0.1,1.2-0.3s0.6-0.5,0.8-0.9c0.2-0.4,0.2-0.9,0.2-1.6v-4.4h1.4v8.3L72.5,220L72.5,220z"/>
				<path fill="#4D4D4F" d="M75.4,217.5l1.4-0.2c0.1,0.6,0.3,1,0.7,1.3c0.4,0.3,0.9,0.4,1.5,0.4s1.1-0.1,1.4-0.4
					c0.3-0.3,0.5-0.6,0.5-0.9s-0.1-0.6-0.4-0.8c-0.2-0.1-0.7-0.3-1.4-0.5c-1-0.3-1.7-0.5-2.1-0.7c-0.4-0.2-0.7-0.5-0.9-0.8
					c-0.2-0.3-0.3-0.7-0.3-1.1c0-0.4,0.1-0.7,0.3-1c0.2-0.3,0.4-0.6,0.7-0.8c0.2-0.2,0.5-0.3,0.9-0.4c0.4-0.1,0.8-0.2,1.2-0.2
					c0.7,0,1.2,0.1,1.7,0.3c0.5,0.2,0.9,0.4,1.1,0.8c0.2,0.3,0.4,0.8,0.5,1.3l-1.4,0.2c-0.1-0.4-0.2-0.8-0.5-1
					c-0.3-0.2-0.7-0.4-1.3-0.4c-0.6,0-1.1,0.1-1.4,0.3c-0.3,0.2-0.4,0.5-0.4,0.8c0,0.2,0.1,0.3,0.2,0.5c0.1,0.1,0.3,0.3,0.5,0.4
					c0.1,0.1,0.6,0.2,1.2,0.4c1,0.3,1.7,0.5,2.1,0.7s0.7,0.4,0.9,0.7c0.2,0.3,0.3,0.7,0.3,1.2s-0.1,0.9-0.4,1.3
					c-0.3,0.4-0.7,0.7-1.2,1c-0.5,0.2-1.1,0.3-1.8,0.3c-1.1,0-1.9-0.2-2.5-0.7C75.9,219.1,75.6,218.4,75.4,217.5z"/>
			</g>
			<g enable-background="new    ">
				<path fill="#4D4D4F" d="M28.9,260.2v-11.6h5.1c1,0,1.8,0.1,2.3,0.3c0.5,0.2,1,0.6,1.3,1.1s0.5,1.1,0.5,1.7
					c0,0.8-0.3,1.5-0.8,2.1s-1.3,0.9-2.4,1.1c0.4,0.2,0.7,0.4,0.9,0.6c0.4,0.4,0.9,0.9,1.3,1.5l2,3.1h-1.9l-1.5-2.4
					c-0.4-0.7-0.8-1.2-1.1-1.6c-0.3-0.4-0.5-0.6-0.8-0.8c-0.3-0.2-0.5-0.2-0.7-0.3c-0.2,0-0.5-0.1-0.8-0.1h-1.8v5.1L28.9,260.2
					L28.9,260.2z M30.4,253.8h3.3c0.7,0,1.2-0.1,1.6-0.2c0.4-0.1,0.7-0.4,0.9-0.7c0.2-0.3,0.3-0.7,0.3-1c0-0.5-0.2-1-0.6-1.3
					c-0.4-0.4-1-0.5-1.9-0.5h-3.6L30.4,253.8L30.4,253.8z"/>
				<path fill="#4D4D4F" d="M45.7,259.2c-0.5,0.4-1,0.8-1.5,0.9c-0.5,0.2-1,0.3-1.6,0.3c-0.9,0-1.6-0.2-2.1-0.7
					c-0.5-0.4-0.7-1-0.7-1.7c0-0.4,0.1-0.8,0.3-1.1c0.2-0.3,0.4-0.6,0.7-0.8c0.3-0.2,0.6-0.4,1-0.5c0.3-0.1,0.7-0.1,1.2-0.2
					c1.1-0.1,2-0.3,2.5-0.5c0-0.2,0-0.3,0-0.4c0-0.6-0.1-1-0.4-1.2c-0.4-0.3-0.9-0.5-1.6-0.5s-1.2,0.1-1.5,0.3
					c-0.3,0.2-0.5,0.6-0.7,1.2l-1.4-0.2c0.1-0.6,0.3-1.1,0.6-1.4c0.3-0.4,0.7-0.6,1.2-0.8c0.5-0.2,1.2-0.3,1.9-0.3
					c0.7,0,1.3,0.1,1.7,0.2c0.4,0.2,0.8,0.4,1,0.6c0.2,0.3,0.4,0.6,0.4,1c0,0.2,0.1,0.7,0.1,1.3v1.9c0,1.3,0,2.1,0.1,2.5
					s0.2,0.7,0.4,1h-1.5C45.9,259.9,45.8,259.6,45.7,259.2z M45.6,256c-0.5,0.2-1.3,0.4-2.3,0.5c-0.6,0.1-1,0.2-1.2,0.3
					s-0.4,0.3-0.6,0.5c-0.1,0.2-0.2,0.4-0.2,0.7c0,0.4,0.1,0.7,0.4,0.9s0.7,0.4,1.2,0.4c0.5,0,1-0.1,1.4-0.4c0.4-0.3,0.7-0.6,0.9-1
					c0.2-0.3,0.2-0.8,0.2-1.4C45.6,256.6,45.6,256,45.6,256z"/>
				<path fill="#4D4D4F" d="M48.6,257.7l1.4-0.2c0.1,0.6,0.3,1,0.7,1.3c0.4,0.3,0.9,0.4,1.5,0.4s1.1-0.1,1.4-0.4
					c0.3-0.3,0.5-0.6,0.5-0.9s-0.1-0.6-0.4-0.8c-0.2-0.1-0.7-0.3-1.4-0.5c-1-0.3-1.7-0.5-2.1-0.7c-0.4-0.2-0.7-0.5-0.9-0.8
					c-0.2-0.3-0.3-0.7-0.3-1.1s0.1-0.7,0.3-1c0.2-0.3,0.4-0.6,0.7-0.8c0.2-0.2,0.5-0.3,0.9-0.4c0.4-0.1,0.8-0.2,1.2-0.2
					c0.7,0,1.2,0.1,1.7,0.3c0.5,0.2,0.9,0.4,1.1,0.8c0.2,0.3,0.4,0.8,0.5,1.3l-1.4,0.2c-0.1-0.4-0.2-0.8-0.5-1
					c-0.3-0.2-0.7-0.4-1.3-0.4s-1.1,0.1-1.4,0.3c-0.3,0.2-0.4,0.5-0.4,0.8c0,0.2,0.1,0.3,0.2,0.5c0.1,0.1,0.3,0.3,0.5,0.4
					c0.1,0.1,0.6,0.2,1.2,0.4c1,0.3,1.7,0.5,2.1,0.7c0.4,0.2,0.7,0.4,0.9,0.7c0.2,0.3,0.3,0.7,0.3,1.2c0,0.5-0.1,0.9-0.4,1.3
					c-0.3,0.4-0.7,0.7-1.2,1c-0.5,0.2-1.1,0.3-1.8,0.3c-1.1,0-1.9-0.2-2.5-0.7C49.2,259.3,48.8,258.6,48.6,257.7z"/>
				<path fill="#4D4D4F" d="M57.3,260.2v-11.6h1.4v4.1c0.7-0.8,1.5-1.1,2.5-1.1c0.6,0,1.1,0.1,1.6,0.4c0.5,0.2,0.8,0.6,1,1
					c0.2,0.4,0.3,1,0.3,1.9v5.3h-1.4V255c0-0.7-0.2-1.2-0.5-1.5c-0.3-0.3-0.7-0.5-1.3-0.5c-0.4,0-0.8,0.1-1.2,0.3
					c-0.4,0.2-0.6,0.5-0.8,0.9c-0.2,0.4-0.2,0.9-0.2,1.5v4.5L57.3,260.2L57.3,260.2z"/>
			</g>
		</g>
		<g>
			<g enable-background="new    ">
				<path fill="#4D4D4F" d="M684.1,97.4v2h-7.7c0.1-0.8,0.3-1.5,0.8-2.2c0.4-0.7,1.2-1.6,2.5-2.7c1-0.9,1.6-1.5,1.8-1.9
					c0.3-0.5,0.5-0.9,0.5-1.3c0-0.5-0.1-0.9-0.4-1.1c-0.3-0.3-0.6-0.4-1.1-0.4s-0.8,0.1-1.1,0.4s-0.4,0.7-0.5,1.4l-2.2-0.2
					c0.1-1.2,0.5-2.1,1.2-2.6s1.5-0.8,2.6-0.8s2,0.3,2.7,0.9c0.6,0.6,1,1.4,1,2.3c0,0.5-0.1,1-0.3,1.5c-0.2,0.5-0.5,1-0.9,1.5
					c-0.3,0.3-0.7,0.8-1.4,1.5c-0.7,0.6-1.1,1.1-1.3,1.3s-0.3,0.4-0.4,0.6L684.1,97.4L684.1,97.4z"/>
				<path fill="#4D4D4F" d="M685.6,90.8c0-1,0.2-1.8,0.7-2.3c0.4-0.5,1.1-0.7,1.8-0.7c0.8,0,1.4,0.2,1.9,0.7
					c0.4,0.5,0.7,1.3,0.7,2.3c0,1-0.2,1.8-0.7,2.3c-0.4,0.5-1.1,0.7-1.8,0.7c-0.8,0-1.4-0.2-1.9-0.7
					C685.9,92.6,685.6,91.8,685.6,90.8z M687.3,90.8c0,0.7,0.1,1.2,0.3,1.5c0.1,0.2,0.3,0.3,0.5,0.3s0.4-0.1,0.5-0.3
					c0.2-0.3,0.2-0.8,0.2-1.5c0-0.7-0.1-1.2-0.2-1.5c-0.1-0.2-0.3-0.3-0.5-0.3s-0.4,0.1-0.5,0.3C687.4,89.5,687.3,90,687.3,90.8z
					 M689.9,99.9h-1.6l6.1-12.2h1.6L689.9,99.9z M693.5,96.8c0-1,0.2-1.8,0.7-2.3c0.5-0.5,1.1-0.7,1.8-0.7s1.4,0.2,1.9,0.7
					c0.5,0.5,0.7,1.3,0.7,2.3s-0.2,1.8-0.7,2.3c-0.4,0.5-1.1,0.7-1.8,0.7c-0.8,0-1.4-0.2-1.9-0.7C693.7,98.7,693.5,97.9,693.5,96.8z
					 M695.2,96.8c0,0.7,0.1,1.2,0.3,1.5c0.1,0.2,0.3,0.3,0.5,0.3s0.4-0.1,0.5-0.3c0.2-0.3,0.3-0.8,0.3-1.5s-0.1-1.2-0.2-1.5
					c-0.1-0.2-0.3-0.3-0.5-0.3s-0.4,0.1-0.5,0.3C695.3,95.6,695.2,96.1,695.2,96.8z"/>
			</g>
			<g enable-background="new    ">
				<path fill="#4D4D4F" d="M684.1,137.6v2h-7.7c0.1-0.8,0.3-1.5,0.8-2.2c0.4-0.7,1.2-1.6,2.5-2.7c1-0.9,1.6-1.5,1.8-1.9
					c0.3-0.5,0.5-0.9,0.5-1.3c0-0.5-0.1-0.9-0.4-1.1c-0.3-0.3-0.6-0.4-1.1-0.4s-0.8,0.1-1.1,0.4c-0.3,0.3-0.4,0.7-0.5,1.4l-2.2-0.2
					c0.1-1.2,0.5-2.1,1.2-2.6s1.5-0.8,2.6-0.8s2,0.3,2.7,0.9c0.6,0.6,1,1.4,1,2.3c0,0.5-0.1,1-0.3,1.5s-0.5,1-0.9,1.5
					c-0.3,0.3-0.7,0.8-1.4,1.5c-0.7,0.6-1.1,1.1-1.3,1.3c-0.2,0.2-0.3,0.4-0.4,0.6L684.1,137.6L684.1,137.6z"/>
				<path fill="#4D4D4F" d="M685.6,131c0-1,0.2-1.8,0.7-2.3c0.4-0.5,1.1-0.7,1.8-0.7c0.8,0,1.4,0.2,1.9,0.7c0.4,0.5,0.7,1.3,0.7,2.3
					c0,1-0.2,1.8-0.7,2.3c-0.4,0.5-1.1,0.7-1.8,0.7c-0.8,0-1.4-0.2-1.9-0.7C685.9,132.8,685.6,132,685.6,131z M687.3,131
					c0,0.7,0.1,1.2,0.3,1.5c0.1,0.2,0.3,0.3,0.5,0.3s0.4-0.1,0.5-0.3c0.2-0.3,0.2-0.8,0.2-1.5s-0.1-1.2-0.2-1.5
					c-0.1-0.2-0.3-0.3-0.5-0.3s-0.4,0.1-0.5,0.3C687.4,129.7,687.3,130.2,687.3,131z M689.9,140h-1.6l6.1-12.2h1.6L689.9,140z
					 M693.5,137c0-1,0.2-1.8,0.7-2.3c0.5-0.5,1.1-0.7,1.8-0.7s1.4,0.2,1.9,0.7c0.5,0.5,0.7,1.3,0.7,2.3s-0.2,1.8-0.7,2.3
					c-0.4,0.5-1.1,0.7-1.8,0.7c-0.8,0-1.4-0.2-1.9-0.7C693.7,138.8,693.5,138.1,693.5,137z M695.2,137c0,0.7,0.1,1.2,0.3,1.5
					c0.1,0.2,0.3,0.3,0.5,0.3s0.4-0.1,0.5-0.3c0.2-0.3,0.3-0.8,0.3-1.5s-0.1-1.2-0.2-1.5c-0.1-0.2-0.3-0.3-0.5-0.3s-0.4,0.1-0.5,0.3
					C695.3,135.8,695.2,136.3,695.2,137z"/>
			</g>
		</g>
		<g>
			<g enable-background="new    ">
				<path fill="#4D4D4F" d="M526.3,218.7l-7.9-3.4v-1.9l7.9-3.4v2.2l-5.5,2.1l5.5,2.2V218.7z"/>
				<path fill="#4D4D4F" d="M533.3,220h-2.2v-8.3c-0.8,0.8-1.7,1.3-2.8,1.7v-2c0.6-0.2,1.2-0.5,1.9-1.1c0.7-0.5,1.1-1.1,1.4-1.8h1.8
					L533.3,220L533.3,220z"/>
				<path fill="#4D4D4F" d="M536.7,211.4c0-1,0.2-1.8,0.7-2.3c0.5-0.5,1.1-0.7,1.8-0.7c0.8,0,1.4,0.2,1.9,0.7
					c0.5,0.5,0.7,1.3,0.7,2.3c0,1-0.2,1.8-0.7,2.3c-0.4,0.5-1.1,0.7-1.8,0.7c-0.8,0-1.4-0.2-1.9-0.7
					C537,213.2,536.7,212.4,536.7,211.4z M538.4,211.4c0,0.7,0.1,1.2,0.3,1.5c0.1,0.2,0.3,0.3,0.5,0.3s0.4-0.1,0.5-0.3
					c0.2-0.3,0.2-0.8,0.2-1.5s-0.1-1.2-0.2-1.5c-0.1-0.2-0.3-0.3-0.5-0.3s-0.4,0.1-0.5,0.3C538.5,210.1,538.4,210.6,538.4,211.4z
					 M540.9,220.4h-1.6l6.1-12.2h1.6L540.9,220.4z M544.5,217.4c0-1,0.2-1.8,0.7-2.3c0.4-0.5,1.1-0.7,1.8-0.7c0.8,0,1.4,0.2,1.9,0.7
					c0.4,0.5,0.7,1.3,0.7,2.3c0,1-0.2,1.8-0.7,2.3c-0.4,0.5-1.1,0.7-1.8,0.7c-0.8,0-1.4-0.2-1.9-0.7
					C544.7,219.2,544.5,218.5,544.5,217.4z M546.2,217.4c0,0.7,0.1,1.2,0.3,1.5c0.1,0.2,0.3,0.3,0.5,0.3s0.4-0.1,0.5-0.3
					c0.2-0.3,0.3-0.8,0.3-1.5s-0.1-1.2-0.2-1.5c-0.1-0.2-0.3-0.3-0.5-0.3c-0.2,0-0.4,0.1-0.5,0.3
					C546.2,216.2,546.2,216.7,546.2,217.4z"/>
			</g>
			<g enable-background="new    ">
				<path fill="#4D4D4F" d="M528.7,260.2h-2.2v-8.3c-0.8,0.8-1.7,1.3-2.8,1.7v-2c0.6-0.2,1.2-0.5,1.9-1.1c0.7-0.5,1.1-1.1,1.4-1.8
					h1.8L528.7,260.2L528.7,260.2z"/>
				<path fill="#4D4D4F" d="M532,251.6c0-1,0.2-1.8,0.7-2.3c0.5-0.5,1.1-0.7,1.8-0.7c0.8,0,1.4,0.2,1.9,0.7c0.5,0.5,0.7,1.3,0.7,2.3
					c0,1-0.2,1.8-0.7,2.3c-0.4,0.5-1.1,0.7-1.8,0.7c-0.8,0-1.4-0.2-1.9-0.7C532.2,253.4,532,252.6,532,251.6z M533.7,251.6
					c0,0.7,0.1,1.2,0.3,1.5c0.1,0.2,0.3,0.3,0.5,0.3s0.4-0.1,0.5-0.3c0.2-0.3,0.2-0.8,0.2-1.5s-0.1-1.2-0.2-1.5
					c-0.1-0.2-0.3-0.3-0.5-0.3s-0.4,0.1-0.5,0.3C533.7,250.2,533.7,250.7,533.7,251.6z M536.2,260.6h-1.6l6.1-12.2h1.6L536.2,260.6z
					 M539.8,257.6c0-1,0.2-1.8,0.7-2.3c0.4-0.5,1.1-0.7,1.8-0.7c0.8,0,1.4,0.2,1.9,0.7c0.5,0.5,0.7,1.3,0.7,2.3c0,1-0.2,1.8-0.7,2.3
					c-0.4,0.5-1.1,0.7-1.8,0.7c-0.8,0-1.4-0.2-1.9-0.7S539.8,258.7,539.8,257.6z M541.5,257.6c0,0.7,0.1,1.2,0.3,1.5
					c0.1,0.2,0.3,0.3,0.5,0.3c0.2,0,0.4-0.1,0.5-0.3c0.2-0.3,0.3-0.8,0.3-1.5s-0.1-1.2-0.2-1.5c-0.1-0.2-0.3-0.3-0.5-0.3
					s-0.4,0.1-0.5,0.3C541.6,256.4,541.5,256.9,541.5,257.6z"/>
			</g>
		</g>
		<g>
			<g enable-background="new    ">
				<path fill="#4D4D4F" d="M530.5,331.7l-2.1,0.2c-0.1-0.4-0.2-0.8-0.4-1c-0.2-0.2-0.5-0.3-0.9-0.3c-0.5,0-0.9,0.2-1.2,0.6
					c-0.3,0.4-0.5,1.3-0.6,2.6c0.5-0.6,1.2-1,2-1c0.9,0,1.7,0.3,2.4,1c0.7,0.7,1,1.6,1,2.7c0,1.2-0.3,2.1-1,2.8
					c-0.7,0.7-1.6,1.1-2.6,1.1c-1.2,0-2.1-0.4-2.9-1.4c-0.7-0.9-1.1-2.4-1.1-4.4c0-2.1,0.4-3.6,1.2-4.5s1.8-1.4,3-1.4
					c0.9,0,1.6,0.2,2.2,0.7C530,330.1,530.3,330.8,530.5,331.7z M525.5,336.5c0,0.7,0.2,1.3,0.5,1.6c0.3,0.4,0.7,0.6,1.1,0.6
					c0.4,0,0.7-0.2,1-0.5c0.3-0.3,0.4-0.8,0.4-1.6c0-0.7-0.1-1.3-0.4-1.6c-0.3-0.3-0.7-0.5-1.1-0.5s-0.8,0.2-1.1,0.5
					C525.6,335.3,525.5,335.8,525.5,336.5z"/>
				<path fill="#4D4D4F" d="M532,331.7c0-1,0.2-1.8,0.7-2.3c0.5-0.5,1.1-0.7,1.8-0.7c0.8,0,1.4,0.2,1.9,0.7c0.5,0.5,0.7,1.3,0.7,2.3
					s-0.2,1.8-0.7,2.3c-0.4,0.5-1.1,0.7-1.8,0.7c-0.8,0-1.4-0.2-1.9-0.7C532.2,333.5,532,332.7,532,331.7z M533.7,331.7
					c0,0.7,0.1,1.2,0.3,1.5c0.1,0.2,0.3,0.3,0.5,0.3s0.4-0.1,0.5-0.3c0.2-0.3,0.2-0.8,0.2-1.5c0-0.7-0.1-1.2-0.2-1.5
					c-0.1-0.2-0.3-0.3-0.5-0.3s-0.4,0.1-0.5,0.3C533.7,330.5,533.7,331,533.7,331.7z M536.2,340.9h-1.6l6.1-12.2h1.6L536.2,340.9z
					 M539.8,337.8c0-1,0.2-1.8,0.7-2.3c0.4-0.5,1.1-0.7,1.8-0.7c0.8,0,1.4,0.2,1.9,0.7c0.5,0.5,0.7,1.3,0.7,2.3s-0.2,1.8-0.7,2.3
					c-0.4,0.5-1.1,0.7-1.8,0.7c-0.8,0-1.4-0.2-1.9-0.7C540,339.7,539.8,338.9,539.8,337.8z M541.5,337.8c0,0.7,0.1,1.2,0.3,1.5
					c0.1,0.2,0.3,0.3,0.5,0.3c0.2,0,0.4-0.1,0.5-0.3c0.2-0.3,0.3-0.8,0.3-1.5c0-0.7-0.1-1.2-0.2-1.5c-0.1-0.2-0.3-0.3-0.5-0.3
					s-0.4,0.1-0.5,0.3C541.6,336.5,541.5,337,541.5,337.8z"/>
			</g>
		</g>
		<g>
			<g enable-background="new    ">
				<path fill="#4D4D4F" d="M679.6,340.4V338h-4.7v-1.9l5-7.3h1.8v7.3h1.4v1.9h-1.4v2.3H679.6L679.6,340.4z M679.6,336.1v-3.9
					l-2.6,3.9H679.6z"/>
				<path fill="#4D4D4F" d="M684.2,331.7c0-1,0.2-1.8,0.7-2.3c0.4-0.5,1.1-0.7,1.8-0.7c0.8,0,1.4,0.2,1.9,0.7
					c0.4,0.5,0.7,1.3,0.7,2.3s-0.2,1.8-0.7,2.3c-0.5,0.5-1.1,0.7-1.8,0.7c-0.8,0-1.4-0.2-1.9-0.7
					C684.5,333.5,684.2,332.7,684.2,331.7z M686,331.7c0,0.7,0.1,1.2,0.3,1.5c0.1,0.2,0.3,0.3,0.5,0.3s0.4-0.1,0.5-0.3
					c0.2-0.3,0.2-0.8,0.2-1.5c0-0.7-0.1-1.2-0.2-1.5c-0.1-0.2-0.3-0.3-0.5-0.3s-0.4,0.1-0.5,0.3C686,330.5,686,331,686,331.7z
					 M688.5,340.9h-1.6l6.1-12.2h1.6L688.5,340.9z M692.1,337.8c0-1,0.2-1.8,0.7-2.3c0.4-0.5,1.1-0.7,1.8-0.7c0.7,0,1.4,0.2,1.9,0.7
					c0.4,0.5,0.7,1.3,0.7,2.3s-0.2,1.8-0.7,2.3s-1.1,0.7-1.8,0.7c-0.8,0-1.4-0.2-1.9-0.7C692.3,339.7,692.1,338.9,692.1,337.8z
					 M693.8,337.8c0,0.7,0.1,1.2,0.3,1.5c0.1,0.2,0.3,0.3,0.5,0.3s0.4-0.1,0.5-0.3c0.2-0.3,0.3-0.8,0.3-1.5c0-0.7-0.1-1.2-0.2-1.5
					c-0.1-0.2-0.3-0.3-0.5-0.3s-0.4,0.1-0.5,0.3C693.9,336.5,693.8,337,693.8,337.8z"/>
			</g>
		</g>
		<g>
			<g enable-background="new    ">
				<path fill="#4D4D4F" d="M679,208.5c1.1,0,2,0.4,2.6,1.2c0.7,0.9,1.1,2.5,1.1,4.7s-0.4,3.7-1.1,4.7c-0.6,0.8-1.5,1.2-2.6,1.2
					s-2-0.4-2.7-1.3c-0.7-0.9-1-2.4-1-4.6c0-2.2,0.4-3.7,1.1-4.7C677.1,208.9,677.9,208.5,679,208.5z M679,210.3
					c-0.3,0-0.5,0.1-0.7,0.3s-0.4,0.5-0.5,0.9c-0.2,0.6-0.2,1.5-0.2,2.9c0,1.3,0.1,2.3,0.2,2.8c0.1,0.5,0.3,0.8,0.5,1
					s0.4,0.2,0.7,0.2s0.5-0.1,0.7-0.3s0.4-0.5,0.5-0.9c0.1-0.6,0.2-1.5,0.2-2.9c0-1.3-0.1-2.3-0.2-2.8c-0.1-0.5-0.3-0.8-0.5-1
					C679.5,210.4,679.3,210.3,679,210.3z"/>
				<path fill="#4D4D4F" d="M684.2,211.4c0-1,0.2-1.8,0.7-2.3c0.4-0.5,1.1-0.7,1.8-0.7c0.8,0,1.4,0.2,1.9,0.7
					c0.4,0.5,0.7,1.3,0.7,2.3c0,1-0.2,1.8-0.7,2.3c-0.5,0.5-1.1,0.7-1.8,0.7c-0.8,0-1.4-0.2-1.9-0.7
					C684.5,213.2,684.2,212.4,684.2,211.4z M686,211.4c0,0.7,0.1,1.2,0.3,1.5c0.1,0.2,0.3,0.3,0.5,0.3s0.4-0.1,0.5-0.3
					c0.2-0.3,0.2-0.8,0.2-1.5s-0.1-1.2-0.2-1.5c-0.1-0.2-0.3-0.3-0.5-0.3s-0.4,0.1-0.5,0.3C686,210.1,686,210.6,686,211.4z
					 M688.5,220.4h-1.6l6.1-12.2h1.6L688.5,220.4z M692.1,217.4c0-1,0.2-1.8,0.7-2.3c0.4-0.5,1.1-0.7,1.8-0.7c0.7,0,1.4,0.2,1.9,0.7
					c0.4,0.5,0.7,1.3,0.7,2.3c0,1-0.2,1.8-0.7,2.3c-0.5,0.5-1.1,0.7-1.8,0.7c-0.8,0-1.4-0.2-1.9-0.7
					C692.3,219.2,692.1,218.5,692.1,217.4z M693.8,217.4c0,0.7,0.1,1.2,0.3,1.5c0.1,0.2,0.3,0.3,0.5,0.3s0.4-0.1,0.5-0.3
					c0.2-0.3,0.3-0.8,0.3-1.5s-0.1-1.2-0.2-1.5c-0.1-0.2-0.3-0.3-0.5-0.3s-0.4,0.1-0.5,0.3C693.9,216.2,693.8,216.7,693.8,217.4z"/>
			</g>
			<g enable-background="new    ">
				<path fill="#4D4D4F" d="M678.6,258.9l-7.9-3.4v-1.9l7.9-3.4v2.2l-5.5,2.1l5.5,2.2V258.9z"/>
				<path fill="#4D4D4F" d="M685.6,260.2h-2.2v-8.3c-0.8,0.8-1.7,1.3-2.8,1.7v-2c0.6-0.2,1.2-0.5,1.9-1.1c0.7-0.5,1.1-1.1,1.4-1.8
					h1.8v11.6H685.6z"/>
				<path fill="#4D4D4F" d="M689,251.6c0-1,0.2-1.8,0.7-2.3c0.4-0.5,1.1-0.7,1.8-0.7c0.8,0,1.4,0.2,1.9,0.7c0.4,0.5,0.7,1.3,0.7,2.3
					c0,1-0.2,1.8-0.7,2.3c-0.5,0.5-1.1,0.7-1.8,0.7c-0.8,0-1.4-0.2-1.9-0.7C689.2,253.4,689,252.6,689,251.6z M690.7,251.6
					c0,0.7,0.1,1.2,0.3,1.5c0.1,0.2,0.3,0.3,0.5,0.3s0.4-0.1,0.5-0.3c0.2-0.3,0.2-0.8,0.2-1.5s-0.1-1.2-0.2-1.5
					c-0.1-0.2-0.3-0.3-0.5-0.3s-0.4,0.1-0.5,0.3C690.8,250.2,690.7,250.7,690.7,251.6z M693.2,260.6h-1.6l6.1-12.2h1.6L693.2,260.6z
					 M696.7,257.6c0-1,0.2-1.8,0.7-2.3c0.4-0.5,1.1-0.7,1.8-0.7c0.8,0,1.4,0.2,1.9,0.7c0.4,0.5,0.7,1.3,0.7,2.3c0,1-0.2,1.8-0.7,2.3
					c-0.5,0.5-1.1,0.7-1.8,0.7c-0.8,0-1.4-0.2-1.9-0.7C697,259.4,696.7,258.7,696.7,257.6z M698.5,257.6c0,0.7,0.1,1.2,0.3,1.5
					c0.1,0.2,0.3,0.3,0.5,0.3s0.4-0.1,0.5-0.3c0.2-0.3,0.3-0.8,0.3-1.5s-0.1-1.2-0.2-1.5c-0.1-0.2-0.3-0.3-0.5-0.3s-0.4,0.1-0.5,0.3
					C698.5,256.4,698.5,256.9,698.5,257.6z"/>
			</g>
		</g>
	</g>
</g>
</svg>
