<?xml version="1.0" encoding="utf-8"?>
<!-- Generator: Adobe Illustrator 17.1.0, SVG Export Plug-In . SVG Version: 6.00 Build 0)  -->
<!DOCTYPE svg PUBLIC "-//W3C//DTD SVG 1.1//EN" "http://www.w3.org/Graphics/SVG/1.1/DTD/svg11.dtd">
<svg version="1.1" id="Layer_1" xmlns="http://www.w3.org/2000/svg" xmlns:xlink="http://www.w3.org/1999/xlink" x="0px" y="0px"
	 viewBox="0 0 764 34" enable-background="new 0 0 764 34" xml:space="preserve">
<g>
	<line fill="none" x1="0" y1="31" x2="763.1" y2="31"/>
	<line fill="none" x1="0" y1="32.5" x2="621.6" y2="32.5"/>
	<line fill="none" x1="621.6" y1="29.1" x2="764" y2="29.1"/>
	<rect x="410.2" y="0.7" fill="#ECF6F2" width="211.3" height="31.9"/>
	<rect x="621.6" y="0.7" opacity="0.8" fill="#DBDBDC" enable-background="new    " width="141.5" height="31.9"/>
	<line fill="none" stroke="#D6ECE6" stroke-width="2.7689" stroke-miterlimit="10" x1="0" y1="32.5" x2="763.1" y2="32.5"/>
	<g>
		<g enable-background="new    ">
			<path fill="#6BACA1" d="M0.7,16.5l2.6-0.3c0.2,0.8,0.5,1.5,0.9,2s1.1,0.7,2,0.7s1.5-0.2,2-0.6c0.5-0.4,0.7-0.8,0.7-1.3
				c0-0.3-0.1-0.6-0.3-0.8c-0.2-0.2-0.5-0.4-0.9-0.6c-0.3-0.1-1-0.3-2.2-0.6C4,14.6,3,14.2,2.3,13.7c-0.8-0.7-1.2-1.6-1.2-2.7
				c0-0.7,0.2-1.3,0.6-1.9s0.9-1,1.7-1.3C4.1,7.5,5,7.3,6,7.3c1.7,0,2.9,0.4,3.8,1.1c0.9,0.7,1.3,1.7,1.3,3l-2.7,0.1
				c-0.1-0.7-0.4-1.2-0.7-1.5C7.3,9.8,6.7,9.6,6,9.6S4.6,9.8,4.1,10c-0.2,0.1-0.4,0.4-0.4,0.7s0.1,0.6,0.4,0.8
				c0.4,0.3,1.1,0.6,2.5,0.9c1.4,0.4,2.2,0.7,2.9,0.9c0.7,0.3,1.1,0.7,1.5,1.4c0.4,0.6,0.6,1.3,0.6,2.2c0,0.7-0.2,1.5-0.7,2.2
				s-1,1.1-1.8,1.5c-0.7,0.4-1.8,0.5-2.9,0.5c-1.7,0-3-0.4-3.9-1.2C1.4,19.1,0.8,18,0.7,16.5z"/>
			<path fill="#6BACA1" d="M19.5,17.7l2.5,0.5c-0.4,0.9-0.8,1.7-1.6,2.2c-0.7,0.5-1.6,0.7-2.6,0.7c-1.7,0-2.9-0.6-3.7-1.7
				c-0.7-0.8-0.9-2-0.9-3.4c0-1.6,0.4-2.9,1.2-3.7s1.9-1.4,3.2-1.4c1.4,0,2.6,0.5,3.5,1.4c0.8,0.9,1.2,2.4,1.2,4.4h-6.5
				c0,0.7,0.2,1.3,0.7,1.8c0.5,0.5,0.9,0.7,1.5,0.7c0.4,0,0.7-0.1,1-0.4C19.1,18.6,19.3,18.2,19.5,17.7z M19.6,15.1
				c0-0.7-0.2-1.3-0.6-1.7c-0.4-0.4-0.8-0.6-1.3-0.6c-0.6,0-1,0.2-1.4,0.7c-0.4,0.5-0.6,0.9-0.6,1.7L19.6,15.1L19.6,15.1z"/>
			<path fill="#6BACA1" d="M27,20.8l-3.9-9.7h2.7l1.9,5l0.6,1.7c0.1-0.4,0.2-0.7,0.3-0.8c0.1-0.3,0.2-0.6,0.3-0.8l1.9-5h2.6
				l-3.8,9.7H27z"/>
			<path fill="#6BACA1" d="M40.3,17.7l2.5,0.5c-0.4,0.9-0.8,1.7-1.6,2.2c-0.7,0.5-1.6,0.7-2.6,0.7c-1.7,0-2.9-0.6-3.7-1.7
				c-0.7-0.8-0.9-2-0.9-3.4c0-1.6,0.4-2.9,1.2-3.7s1.9-1.4,3.2-1.4c1.4,0,2.6,0.5,3.5,1.4c0.8,0.9,1.2,2.4,1.2,4.4h-6.5
				c0,0.7,0.2,1.3,0.7,1.8c0.5,0.5,0.9,0.7,1.5,0.7c0.4,0,0.7-0.1,1-0.4C40,18.6,40.2,18.2,40.3,17.7z M40.5,15.1
				c0-0.7-0.2-1.3-0.6-1.7s-0.8-0.6-1.3-0.6c-0.6,0-1,0.2-1.4,0.7s-0.6,0.9-0.6,1.7L40.5,15.1L40.5,15.1z"/>
			<path fill="#6BACA1" d="M47.6,20.8H45v-9.7h2.3v1.4c0.4-0.7,0.7-1.1,1.1-1.3c0.3-0.2,0.7-0.3,1.1-0.3c0.6,0,1.1,0.2,1.7,0.5
				l-0.7,2.2c-0.5-0.3-0.8-0.4-1.2-0.4s-0.7,0.1-0.9,0.3c-0.3,0.2-0.5,0.6-0.6,1c-0.1,0.5-0.2,1.6-0.2,3.3L47.6,20.8L47.6,20.8z"/>
			<path fill="#6BACA1" d="M58,17.7l2.5,0.5c-0.4,0.9-0.8,1.7-1.6,2.2s-1.6,0.7-2.6,0.7c-1.7,0-2.9-0.6-3.7-1.7
				c-0.7-0.8-0.9-2-0.9-3.4c0-1.6,0.4-2.9,1.2-3.7c0.8-0.8,1.9-1.4,3.2-1.4c1.4,0,2.6,0.5,3.5,1.4c0.8,0.9,1.2,2.4,1.2,4.4h-6.5
				c0,0.7,0.2,1.3,0.7,1.8c0.5,0.5,0.9,0.7,1.5,0.7c0.4,0,0.7-0.1,1-0.4C57.7,18.5,57.9,18.2,58,17.7z M58.2,15.1
				c0-0.7-0.2-1.3-0.6-1.7c-0.4-0.4-0.8-0.6-1.4-0.6c-0.6,0-1,0.2-1.4,0.7s-0.6,0.9-0.6,1.7L58.2,15.1L58.2,15.1z"/>
			<path fill="#6BACA1" d="M70,14.1l-2.3-0.4c0.3-0.9,0.7-1.6,1.3-2.1c0.6-0.5,1.6-0.7,2.8-0.7c1.1,0,2,0.1,2.5,0.4
				c0.6,0.3,0.9,0.7,1.2,1c0.2,0.4,0.4,1.2,0.4,2.3v3c0,0.8,0,1.5,0.1,1.9c0.1,0.4,0.3,0.8,0.5,1.3H74c-0.1-0.2-0.2-0.5-0.3-0.7
				c0-0.2-0.1-0.3-0.1-0.3c-0.5,0.5-0.9,0.7-1.4,0.9s-1,0.3-1.6,0.3c-1,0-1.8-0.3-2.3-0.8c-0.6-0.6-0.8-1.2-0.8-2.1
				c0-0.6,0.1-1,0.4-1.5c0.3-0.5,0.7-0.7,1.1-1c0.5-0.2,1.1-0.5,2.1-0.6c1.2-0.2,2.1-0.5,2.5-0.7v-0.3c0-0.5-0.1-0.8-0.4-1
				c-0.3-0.2-0.7-0.3-1.4-0.3c-0.5,0-0.8,0.1-1,0.3C70.3,13.3,70.1,13.6,70,14.1z M73.4,16.1c-0.4,0.1-0.8,0.3-1.6,0.4
				c-0.7,0.1-1.2,0.3-1.4,0.5c-0.4,0.3-0.5,0.6-0.5,0.9c0,0.4,0.1,0.7,0.4,0.9c0.3,0.3,0.7,0.4,1,0.4c0.5,0,0.9-0.2,1.3-0.5
				c0.3-0.2,0.6-0.5,0.7-0.8c0.1-0.2,0.1-0.7,0.1-1.2V16.1L73.4,16.1z"/>
			<path fill="#6BACA1" d="M87.4,20.8H85v-1.4c-0.4,0.6-0.8,0.9-1.4,1.2C83.1,20.9,82.5,21,82,21c-1.1,0-2.1-0.5-2.9-1.3
				c-0.7-0.9-1.2-2.2-1.2-3.7c0-1.7,0.4-2.9,1.1-3.7s1.8-1.3,2.9-1.3c1.1,0,2.1,0.5,2.8,1.3V7.4h2.5L87.4,20.8L87.4,20.8z
				 M80.5,15.8c0,1,0.2,1.8,0.5,2.2c0.4,0.7,1,1,1.8,1c0.6,0,1.1-0.3,1.5-0.7c0.4-0.5,0.7-1.2,0.7-2.2c0-1.1-0.2-1.9-0.6-2.4
				c-0.4-0.6-0.9-0.7-1.6-0.7c-0.7,0-1.1,0.3-1.5,0.7C80.7,14.1,80.5,14.8,80.5,15.8z"/>
			<path fill="#6BACA1" d="M92.6,20.8l-3.9-9.7h2.7l1.9,5l0.6,1.7c0.2-0.4,0.2-0.7,0.3-0.8c0.1-0.3,0.2-0.6,0.3-0.8l1.9-5h2.6
				l-3.8,9.7C95,20.8,92.6,20.8,92.6,20.8z"/>
			<path fill="#6BACA1" d="M106,17.7l2.5,0.5c-0.4,0.9-0.8,1.7-1.6,2.2s-1.6,0.7-2.6,0.7c-1.7,0-2.9-0.6-3.7-1.7
				c-0.7-0.8-0.9-2-0.9-3.4c0-1.6,0.4-2.9,1.2-3.7s1.9-1.4,3.2-1.4c1.4,0,2.6,0.5,3.5,1.4c0.8,0.9,1.2,2.4,1.2,4.4h-6.5
				c0,0.7,0.2,1.3,0.7,1.8c0.4,0.5,0.9,0.7,1.5,0.7c0.4,0,0.7-0.1,1-0.4C105.7,18.5,105.8,18.2,106,17.7z M106.1,15.1
				c0-0.7-0.2-1.3-0.6-1.7s-0.8-0.6-1.3-0.6c-0.6,0-1,0.2-1.4,0.7s-0.6,0.9-0.6,1.7L106.1,15.1L106.1,15.1z"/>
			<path fill="#6BACA1" d="M113.2,20.8h-2.5v-9.7h2.3v1.4c0.4-0.7,0.7-1.1,1.1-1.3s0.7-0.3,1.1-0.3c0.6,0,1.1,0.2,1.7,0.5l-0.7,2.2
				c-0.5-0.3-0.8-0.4-1.2-0.4s-0.7,0.1-0.9,0.3c-0.3,0.2-0.5,0.6-0.6,1c-0.1,0.5-0.2,1.6-0.2,3.3L113.2,20.8L113.2,20.8z"/>
			<path fill="#6BACA1" d="M117.2,18.1l2.6-0.4c0.1,0.5,0.4,0.8,0.7,1.1c0.3,0.3,0.8,0.4,1.4,0.4c0.7,0,1.1-0.1,1.5-0.4
				c0.2-0.2,0.4-0.4,0.4-0.7c0-0.2-0.1-0.4-0.2-0.5c-0.1-0.1-0.4-0.3-0.8-0.4c-2.1-0.5-3.4-0.8-3.9-1.2c-0.7-0.6-1.1-1.2-1.1-2.2
				c0-0.8,0.4-1.6,1-2.2c0.7-0.6,1.7-0.8,3.1-0.8c1.3,0,2.3,0.2,3,0.7c0.7,0.5,1.1,1,1.3,2l-2.4,0.5c-0.1-0.4-0.3-0.7-0.6-0.8
				c-0.3-0.2-0.7-0.3-1.2-0.3c-0.7,0-1.1,0.1-1.5,0.3c-0.2,0.1-0.3,0.3-0.3,0.6c0,0.2,0.1,0.4,0.3,0.5c0.2,0.2,1,0.4,2.4,0.7
				c1.4,0.4,2.3,0.7,2.9,1.1s0.8,1.1,0.8,1.9c0,0.9-0.4,1.7-1.1,2.3c-0.7,0.7-1.9,0.9-3.3,0.9c-1.3,0-2.3-0.3-3.2-0.8
				C117.9,19.7,117.5,18.9,117.2,18.1z"/>
			<path fill="#6BACA1" d="M134.1,17.7l2.5,0.5c-0.4,0.9-0.8,1.7-1.6,2.2s-1.6,0.7-2.6,0.7c-1.7,0-2.9-0.6-3.7-1.7
				c-0.7-0.8-0.9-2-0.9-3.4c0-1.6,0.4-2.9,1.2-3.7s1.9-1.4,3.2-1.4c1.4,0,2.6,0.5,3.5,1.4c0.8,0.9,1.2,2.4,1.2,4.4h-6.5
				c0,0.7,0.2,1.3,0.7,1.8c0.5,0.5,0.9,0.7,1.5,0.7c0.4,0,0.7-0.1,1-0.4C133.9,18.5,134.1,18.2,134.1,17.7z M134.3,15.1
				c0-0.7-0.2-1.3-0.6-1.7c-0.4-0.4-0.8-0.6-1.3-0.6c-0.6,0-1,0.2-1.4,0.7c-0.4,0.5-0.6,0.9-0.6,1.7L134.3,15.1L134.3,15.1z"/>
			<path fill="#6BACA1" d="M149.8,17.7l2.5,0.5c-0.4,0.9-0.8,1.7-1.6,2.2s-1.6,0.7-2.6,0.7c-1.7,0-2.9-0.6-3.7-1.7
				c-0.7-0.8-0.9-2-0.9-3.4c0-1.6,0.4-2.9,1.2-3.7s1.9-1.4,3.2-1.4c1.4,0,2.6,0.5,3.5,1.4c0.8,0.9,1.2,2.4,1.2,4.4h-6.5
				c0,0.7,0.2,1.3,0.7,1.8c0.5,0.5,0.9,0.7,1.5,0.7c0.4,0,0.7-0.1,1-0.4C149.5,18.5,149.6,18.2,149.8,17.7z M149.9,15.1
				c0-0.7-0.2-1.3-0.6-1.7s-0.8-0.6-1.3-0.6c-0.6,0-1,0.2-1.4,0.7c-0.4,0.5-0.6,0.9-0.6,1.7L149.9,15.1L149.9,15.1z"/>
			<path fill="#6BACA1" d="M157.3,20.8l-3.9-9.7h2.7l1.9,5l0.6,1.7c0.1-0.4,0.2-0.7,0.3-0.8c0.1-0.3,0.2-0.6,0.3-0.8l1.9-5h2.6
				l-3.8,9.7C159.5,20.8,157.3,20.8,157.3,20.8z"/>
			<path fill="#6BACA1" d="M170.6,17.7l2.5,0.5c-0.4,0.9-0.8,1.7-1.6,2.2s-1.6,0.7-2.6,0.7c-1.7,0-2.9-0.6-3.7-1.7
				c-0.7-0.8-0.9-2-0.9-3.4c0-1.6,0.4-2.9,1.2-3.7s1.9-1.4,3.2-1.4c1.4,0,2.6,0.5,3.5,1.4c0.8,0.9,1.2,2.4,1.2,4.4h-6.5
				c0,0.7,0.2,1.3,0.7,1.8c0.5,0.5,0.9,0.7,1.5,0.7c0.4,0,0.7-0.1,1-0.4S170.5,18.2,170.6,17.7z M170.8,15.1c0-0.7-0.2-1.3-0.6-1.7
				s-0.8-0.6-1.3-0.6c-0.6,0-1,0.2-1.4,0.7c-0.4,0.5-0.6,0.9-0.6,1.7L170.8,15.1L170.8,15.1z"/>
			<path fill="#6BACA1" d="M184.3,20.8h-2.5v-5c0-1-0.1-1.7-0.2-2.1c-0.1-0.3-0.3-0.6-0.6-0.7s-0.6-0.3-0.9-0.3
				c-0.5,0-0.8,0.1-1.2,0.4c-0.4,0.3-0.6,0.6-0.7,0.9s-0.2,1.1-0.2,2.2v4.4h-2.5v-9.7h2.3v1.4c0.8-1.1,1.9-1.7,3.2-1.7
				c0.6,0,1.1,0.1,1.6,0.3c0.5,0.2,0.8,0.5,1,0.7s0.4,0.7,0.5,1.1c0.1,0.5,0.2,0.9,0.2,1.7L184.3,20.8L184.3,20.8z"/>
			<path fill="#6BACA1" d="M191.3,11.1v2.1h-1.8v3.9c0,0.7,0,1.2,0.1,1.4c0.1,0.2,0.1,0.3,0.2,0.3s0.3,0.1,0.5,0.1
				c0.3,0,0.6-0.1,1-0.3l0.2,2c-0.6,0.3-1.3,0.4-2.1,0.4c-0.5,0-0.8-0.1-1.2-0.2s-0.7-0.4-0.8-0.6c-0.2-0.2-0.3-0.6-0.4-1
				c-0.1-0.3-0.1-0.9-0.1-1.8v-4.2h-1.2v-2.1h1.2V9.2l2.6-1.5v3.5L191.3,11.1L191.3,11.1z"/>
			<path fill="#6BACA1" d="M192.3,18.1l2.6-0.4c0.1,0.5,0.4,0.8,0.7,1.1c0.3,0.3,0.8,0.4,1.4,0.4c0.7,0,1.1-0.1,1.5-0.4
				c0.2-0.2,0.4-0.4,0.4-0.7c0-0.2-0.1-0.4-0.2-0.5c-0.1-0.1-0.4-0.3-0.8-0.4c-2.1-0.5-3.4-0.8-3.9-1.2c-0.7-0.6-1.1-1.2-1.1-2.2
				c0-0.8,0.4-1.6,1-2.2s1.7-0.8,3.1-0.8c1.3,0,2.3,0.2,3,0.7c0.7,0.5,1.1,1,1.3,2l-2.4,0.5c-0.1-0.4-0.3-0.7-0.6-0.8
				c-0.3-0.2-0.7-0.3-1.2-0.3c-0.7,0-1.1,0.1-1.5,0.3c-0.2,0.1-0.3,0.3-0.3,0.6c0,0.2,0.1,0.4,0.3,0.5c0.2,0.2,1,0.4,2.4,0.7
				c1.4,0.4,2.3,0.7,2.9,1.1c0.6,0.5,0.8,1.1,0.8,1.9c0,0.9-0.4,1.7-1.1,2.3c-0.7,0.7-1.9,0.9-3.3,0.9c-1.3,0-2.3-0.3-3.2-0.8
				C193,19.7,192.5,18.9,192.3,18.1z"/>
			<path fill="#6BACA1" d="M207.8,18.1l2.6-0.4c0.1,0.5,0.4,0.8,0.7,1.1c0.3,0.3,0.8,0.4,1.4,0.4c0.7,0,1.1-0.1,1.5-0.4
				c0.2-0.2,0.4-0.4,0.4-0.7c0-0.2-0.1-0.4-0.2-0.5c-0.1-0.1-0.4-0.3-0.8-0.4c-2.1-0.5-3.4-0.8-3.9-1.2c-0.7-0.6-1.1-1.2-1.1-2.2
				c0-0.8,0.4-1.6,1-2.2s1.7-0.8,3.1-0.8c1.3,0,2.3,0.2,3,0.7c0.7,0.5,1.1,1,1.3,2l-2.4,0.5c-0.1-0.4-0.3-0.7-0.6-0.8
				c-0.3-0.2-0.7-0.3-1.2-0.3c-0.7,0-1.1,0.1-1.5,0.3c-0.2,0.1-0.3,0.3-0.3,0.6c0,0.2,0.1,0.4,0.3,0.5c0.2,0.2,1,0.4,2.4,0.7
				c1.4,0.4,2.3,0.7,2.9,1.1c0.6,0.5,0.8,1.1,0.8,1.9c0,0.9-0.4,1.7-1.1,2.3c-0.7,0.7-1.9,0.9-3.3,0.9c-1.3,0-2.3-0.3-3.2-0.8
				C208.6,19.7,208.1,18.9,207.8,18.1z"/>
			<path fill="#6BACA1" d="M224.8,17.7l2.5,0.5c-0.4,0.9-0.8,1.7-1.6,2.2s-1.6,0.7-2.6,0.7c-1.7,0-2.9-0.6-3.7-1.7
				c-0.7-0.8-0.9-2-0.9-3.4c0-1.6,0.4-2.9,1.2-3.7s1.9-1.4,3.2-1.4c1.4,0,2.6,0.5,3.5,1.4c0.8,0.9,1.2,2.4,1.2,4.4H221
				c0,0.7,0.2,1.3,0.7,1.8c0.5,0.5,0.9,0.7,1.5,0.7c0.4,0,0.7-0.1,1-0.4C224.5,18.5,224.7,18.2,224.8,17.7z M225,15.1
				c0-0.7-0.2-1.3-0.6-1.7c-0.4-0.4-0.8-0.6-1.3-0.6c-0.6,0-1,0.2-1.4,0.7c-0.4,0.5-0.6,0.9-0.6,1.7L225,15.1L225,15.1z"/>
			<path fill="#6BACA1" d="M235.3,17.7l2.5,0.5c-0.4,0.9-0.8,1.7-1.6,2.2c-0.7,0.5-1.6,0.7-2.6,0.7c-1.7,0-2.9-0.6-3.7-1.7
				c-0.7-0.8-0.9-2-0.9-3.4c0-1.6,0.4-2.9,1.2-3.7s1.9-1.4,3.2-1.4c1.4,0,2.6,0.5,3.5,1.4c0.8,0.9,1.2,2.4,1.2,4.4h-6.5
				c0,0.7,0.2,1.3,0.7,1.8c0.5,0.5,0.9,0.7,1.5,0.7c0.4,0,0.7-0.1,1-0.4S235.1,18.2,235.3,17.7z M235.4,15.1c0-0.7-0.2-1.3-0.6-1.7
				c-0.4-0.4-0.8-0.6-1.3-0.6c-0.6,0-1,0.2-1.4,0.7s-0.6,0.9-0.6,1.7L235.4,15.1L235.4,15.1z"/>
			<path fill="#6BACA1" d="M248.9,20.8h-2.5v-5c0-1-0.1-1.7-0.2-2.1c-0.1-0.4-0.3-0.6-0.6-0.7c-0.3-0.2-0.6-0.3-0.9-0.3
				c-0.5,0-0.8,0.1-1.2,0.4c-0.4,0.3-0.6,0.6-0.7,0.9c-0.2,0.4-0.2,1.1-0.2,2.2v4.4H240v-9.7h2.3v1.4c0.8-1.1,1.9-1.7,3.2-1.7
				c0.6,0,1.1,0.1,1.6,0.3c0.5,0.2,0.8,0.5,1,0.7c0.2,0.3,0.4,0.7,0.5,1.1c0.1,0.4,0.2,0.9,0.2,1.7L248.9,20.8L248.9,20.8z"/>
			<path fill="#6BACA1" d="M256.7,9.8V7.4h2.5v2.3H256.7z M256.7,20.8v-9.7h2.5v9.7H256.7z"/>
			<path fill="#6BACA1" d="M270.7,20.8h-2.5v-5c0-1-0.1-1.7-0.2-2.1c-0.1-0.4-0.3-0.6-0.6-0.7c-0.3-0.2-0.6-0.3-0.9-0.3
				c-0.5,0-0.8,0.1-1.2,0.4c-0.4,0.3-0.6,0.6-0.7,0.9s-0.2,1.1-0.2,2.2v4.4h-2.5v-9.7h2.3v1.4c0.8-1.1,1.9-1.7,3.2-1.7
				c0.6,0,1.1,0.1,1.6,0.3c0.5,0.2,0.8,0.5,1,0.7s0.4,0.7,0.5,1.1c0.1,0.4,0.2,0.9,0.2,1.7L270.7,20.8L270.7,20.8z"/>
			<path fill="#6BACA1" d="M287,14l-2.5,0.5c-0.1-0.5-0.3-0.8-0.6-1.1s-0.7-0.4-1.2-0.4c-0.7,0-1.1,0.2-1.5,0.7s-0.6,1.2-0.6,2.2
				c0,1.1,0.2,2,0.6,2.4s0.9,0.7,1.6,0.7c0.5,0,0.8-0.1,1.2-0.4c0.4-0.3,0.6-0.7,0.7-1.4l2.5,0.5c-0.3,1.1-0.7,2.1-1.5,2.6
				c-0.7,0.6-1.8,0.8-3,0.8c-1.4,0-2.5-0.5-3.4-1.3c-0.8-0.9-1.3-2.2-1.3-3.7s0.5-2.8,1.3-3.7c0.8-0.9,2-1.3,3.5-1.3
				c1.2,0,2.2,0.3,2.8,0.7C286.3,12.3,286.8,12.9,287,14z"/>
			<path fill="#6BACA1" d="M289,20.8V7.4h2.5v13.4H289z"/>
			<path fill="#6BACA1" d="M294.3,9.8V7.4h2.5v2.3H294.3z M294.3,20.8v-9.7h2.5v9.7H294.3z"/>
			<path fill="#6BACA1" d="M308.2,20.8h-2.5v-5c0-1-0.1-1.7-0.2-2.1c-0.1-0.4-0.3-0.6-0.6-0.7c-0.3-0.2-0.6-0.3-0.9-0.3
				c-0.5,0-0.8,0.1-1.2,0.4c-0.4,0.3-0.6,0.6-0.7,0.9s-0.2,1.1-0.2,2.2v4.4h-2.5v-9.7h2.3v1.4c0.8-1.1,1.9-1.7,3.2-1.7
				c0.6,0,1.1,0.1,1.6,0.3c0.5,0.2,0.8,0.5,1,0.7s0.4,0.7,0.5,1.1c0.1,0.4,0.1,0.9,0.1,1.7L308.2,20.8L308.2,20.8z"/>
			<path fill="#6BACA1" d="M310.8,9.8V7.4h2.5v2.3H310.8z M310.8,20.8v-9.7h2.5v9.7H310.8z"/>
			<path fill="#6BACA1" d="M324.5,14l-2.5,0.5c-0.1-0.5-0.3-0.8-0.6-1.1c-0.3-0.3-0.7-0.4-1.2-0.4c-0.7,0-1.1,0.2-1.5,0.7
				c-0.4,0.5-0.6,1.2-0.6,2.2c0,1.1,0.2,2,0.6,2.4c0.4,0.5,0.9,0.7,1.6,0.7c0.5,0,0.8-0.1,1.2-0.4c0.4-0.3,0.6-0.7,0.7-1.4l2.5,0.5
				c-0.3,1.1-0.7,2.1-1.5,2.6c-0.7,0.6-1.8,0.8-3,0.8c-1.4,0-2.5-0.5-3.4-1.3c-0.8-0.9-1.3-2.2-1.3-3.7s0.5-2.8,1.3-3.7
				c0.8-0.9,2-1.3,3.5-1.3c1.2,0,2.2,0.3,2.8,0.7C323.8,12.3,324.3,12.9,324.5,14z"/>
			<path fill="#6BACA1" d="M328.5,14.1l-2.3-0.4c0.3-0.9,0.7-1.6,1.3-2.1c0.6-0.5,1.6-0.7,2.8-0.7c1.1,0,2,0.1,2.5,0.4
				s0.9,0.7,1.2,1c0.2,0.4,0.4,1.2,0.4,2.3v3c0,0.8,0,1.5,0.1,1.9c0.1,0.4,0.3,0.8,0.5,1.3h-2.5c-0.1-0.2-0.2-0.5-0.3-0.7
				c0-0.2-0.1-0.3-0.1-0.3c-0.5,0.5-0.9,0.7-1.4,0.9s-1,0.3-1.6,0.3c-1,0-1.8-0.3-2.3-0.8c-0.6-0.6-0.8-1.2-0.8-2.1
				c0-0.6,0.1-1,0.4-1.5c0.3-0.5,0.7-0.7,1.1-1c0.5-0.2,1.1-0.5,2.1-0.6c1.2-0.2,2.1-0.5,2.5-0.7v-0.3c0-0.5-0.1-0.8-0.4-1
				c-0.3-0.2-0.7-0.3-1.4-0.3c-0.5,0-0.8,0.1-1,0.3C328.8,13.3,328.6,13.6,328.5,14.1z M331.8,16.1c-0.4,0.1-0.8,0.3-1.6,0.4
				c-0.7,0.2-1.2,0.3-1.4,0.5c-0.4,0.3-0.5,0.6-0.5,0.9c0,0.4,0.1,0.7,0.4,0.9c0.3,0.3,0.7,0.4,1,0.4c0.5,0,0.9-0.2,1.3-0.5
				c0.3-0.2,0.6-0.5,0.7-0.8c0.1-0.2,0.1-0.7,0.1-1.2V16.1L331.8,16.1z"/>
			<path fill="#6BACA1" d="M336.9,20.8V7.4h2.5v13.4H336.9z"/>
			<path fill="#6BACA1" d="M346.5,18.1l2.6-0.4c0.1,0.5,0.4,0.8,0.7,1.1c0.4,0.3,0.8,0.4,1.4,0.4c0.7,0,1.1-0.1,1.5-0.4
				c0.2-0.2,0.4-0.4,0.4-0.7c0-0.2-0.1-0.4-0.2-0.5s-0.4-0.3-0.8-0.4c-2.1-0.5-3.4-0.8-3.9-1.2c-0.7-0.6-1.1-1.2-1.1-2.2
				c0-0.8,0.4-1.6,1-2.2c0.7-0.6,1.7-0.8,3.1-0.8c1.3,0,2.3,0.2,3,0.7c0.7,0.5,1.1,1,1.3,2l-2.4,0.5c-0.1-0.4-0.3-0.7-0.6-0.8
				c-0.3-0.2-0.7-0.3-1.2-0.3c-0.7,0-1.1,0.1-1.5,0.3c-0.2,0.1-0.3,0.3-0.3,0.6c0,0.2,0.1,0.4,0.3,0.5c0.2,0.2,1,0.4,2.4,0.7
				c1.4,0.3,2.3,0.7,2.9,1.1c0.6,0.5,0.8,1.1,0.8,1.9c0,0.9-0.4,1.7-1.1,2.3s-1.9,0.9-3.3,0.9c-1.3,0-2.3-0.3-3.2-0.8
				C347.2,19.7,346.7,18.9,346.5,18.1z"/>
			<path fill="#6BACA1" d="M362.2,11.1v2.1h-1.8v3.9c0,0.7,0,1.2,0.1,1.4c0.1,0.2,0.1,0.3,0.2,0.3s0.3,0.1,0.5,0.1
				c0.3,0,0.6-0.1,1-0.3l0.2,2c-0.6,0.3-1.3,0.4-2.1,0.4c-0.5,0-0.8-0.1-1.2-0.2c-0.4-0.2-0.7-0.4-0.8-0.6c-0.2-0.3-0.3-0.6-0.4-1
				c-0.1-0.3-0.1-0.9-0.1-1.8v-4.2h-1.2v-2.1h1.2V9.2l2.6-1.5v3.5L362.2,11.1L362.2,11.1z"/>
			<path fill="#6BACA1" d="M370.5,20.8v-1.4c-0.4,0.6-0.8,0.9-1.4,1.2c-0.6,0.3-1.2,0.5-1.8,0.5c-0.7,0-1.2-0.2-1.8-0.5
				c-0.6-0.3-0.9-0.7-1.1-1.2c-0.2-0.6-0.4-1.2-0.4-2.2v-6.2h2.5v4.5c0,1.4,0.1,2.2,0.2,2.5c0.1,0.3,0.3,0.6,0.6,0.7
				c0.3,0.2,0.6,0.3,0.9,0.3c0.5,0,0.8-0.1,1.2-0.4s0.6-0.6,0.7-0.9c0.1-0.4,0.2-1.2,0.2-2.6v-4.1h2.5v9.7L370.5,20.8L370.5,20.8z"
				/>
			<path fill="#6BACA1" d="M384.4,20.8h-2.3v-1.4c-0.4,0.6-0.8,0.9-1.4,1.2c-0.6,0.3-1.1,0.4-1.6,0.4c-1.1,0-2.1-0.5-2.9-1.3
				c-0.8-0.9-1.2-2.2-1.2-3.7c0-1.7,0.4-2.9,1.1-3.7c0.7-0.8,1.8-1.3,2.9-1.3c1.1,0,2.1,0.5,2.8,1.3V7.4h2.5L384.4,20.8L384.4,20.8z
				 M377.5,15.8c0,1,0.1,1.8,0.5,2.2c0.4,0.7,1,1,1.8,1c0.6,0,1.1-0.3,1.5-0.7c0.4-0.5,0.7-1.2,0.7-2.2c0-1.1-0.2-1.9-0.6-2.4
				c-0.4-0.5-0.9-0.7-1.5-0.7c-0.7,0-1.1,0.3-1.5,0.7C377.8,14.1,377.5,14.8,377.5,15.8z"/>
			<path fill="#6BACA1" d="M385.7,11.1h2.7l2.3,6.9l2.2-6.9h2.6l-3.5,9.4l-0.7,1.7c-0.2,0.6-0.5,1-0.7,1.3s-0.5,0.6-0.7,0.7
				c-0.3,0.2-0.6,0.4-0.9,0.5s-0.8,0.2-1.3,0.2s-0.9-0.1-1.5-0.2l-0.2-2c0.4,0.1,0.7,0.1,1.1,0.1c0.6,0,1-0.2,1.3-0.6
				c0.3-0.4,0.5-0.8,0.7-1.3L385.7,11.1z"/>
		</g>
	</g>
	<g enable-background="new    ">
		<path fill="#4D4D4F" d="M421.5,16.7c0-0.8,0.1-1.6,0.4-2.2c0.2-0.5,0.5-0.8,0.7-1.1c0.4-0.4,0.7-0.6,1.1-0.7
			c0.6-0.2,1.1-0.4,1.8-0.4c1.2,0,2.2,0.4,3,1.1c0.7,0.7,1.1,1.8,1.1,3.2c0,1.3-0.4,2.4-1.1,3.2c-0.7,0.7-1.7,1.1-2.9,1.1
			c-1.2,0-2.2-0.4-3-1.1C421.7,19,421.5,18,421.5,16.7z M423.2,16.6c0,0.9,0.2,1.7,0.7,2.2s1,0.7,1.7,0.7c0.7,0,1.2-0.3,1.7-0.7
			c0.5-0.5,0.7-1.2,0.7-2.2s-0.2-1.7-0.7-2.2c-0.4-0.5-0.9-0.7-1.7-0.7c-0.7,0-1.2,0.3-1.7,0.7C423.3,14.9,423.2,15.7,423.2,16.6z"
			/>
		<path fill="#4D4D4F" d="M430.8,14.7h1.5v0.9c0.2-0.3,0.5-0.6,0.7-0.7c0.4-0.2,0.7-0.3,1.1-0.3c0.7,0,1.3,0.3,1.8,0.8
			c0.5,0.6,0.7,1.3,0.7,2.3s-0.3,1.8-0.7,2.3c-0.5,0.6-1.1,0.8-1.8,0.8c-0.4,0-0.7-0.1-0.9-0.2s-0.6-0.4-0.8-0.7v3h-1.6V14.7z
			 M432.3,17.7c0,0.7,0.1,1.2,0.4,1.5c0.3,0.3,0.6,0.5,1,0.5c0.4,0,0.7-0.2,0.9-0.5c0.3-0.3,0.4-0.7,0.4-1.5c0-0.7-0.1-1.1-0.4-1.4
			c-0.3-0.3-0.6-0.5-0.9-0.5c-0.4,0-0.7,0.2-0.9,0.5C432.5,16.7,432.3,17.1,432.3,17.7z"/>
		<path fill="#4D4D4F" d="M440.8,14.7V16h-1.1v2.4c0,0.5,0,0.7,0,0.8s0.1,0.2,0.2,0.2c0.1,0.1,0.2,0.1,0.3,0.1
			c0.2,0,0.4-0.1,0.7-0.2l0.1,1.2c-0.4,0.2-0.8,0.3-1.3,0.3c-0.3,0-0.6-0.1-0.7-0.2c-0.2-0.1-0.4-0.2-0.5-0.4
			c-0.1-0.2-0.2-0.4-0.2-0.7c0-0.2-0.1-0.6-0.1-1.1v-2.6h-0.7v-1.3h0.7v-1.2l1.6-0.9v2.2L440.8,14.7L440.8,14.7z"/>
		<path fill="#4D4D4F" d="M441.9,14v-1.5h1.6V14H441.9z M441.9,20.8v-6.1h1.6v6.1H441.9z"/>
		<path fill="#4D4D4F" d="M444.5,19.1l1.6-0.3c0.1,0.3,0.2,0.6,0.4,0.7c0.2,0.2,0.5,0.3,0.8,0.3s0.7-0.1,0.9-0.2
			c0.1-0.1,0.2-0.3,0.2-0.5c0-0.1,0-0.2-0.1-0.3s-0.3-0.2-0.6-0.2c-1.3-0.3-2.2-0.6-2.4-0.7c-0.5-0.3-0.7-0.7-0.7-1.4
			c0-0.6,0.2-0.9,0.7-1.3c0.4-0.4,1-0.6,2-0.6c0.8,0,1.4,0.1,1.9,0.4c0.4,0.3,0.7,0.7,0.8,1.2l-1.5,0.3c-0.1-0.3-0.2-0.4-0.4-0.6
			c-0.2-0.1-0.5-0.2-0.7-0.2c-0.5,0-0.7,0.1-0.9,0.2c-0.1,0.1-0.2,0.2-0.2,0.3c0,0.1,0.1,0.2,0.2,0.3c0.2,0.1,0.7,0.3,1.5,0.5
			c0.8,0.2,1.4,0.5,1.8,0.7c0.4,0.3,0.5,0.7,0.5,1.2c0,0.6-0.2,1-0.7,1.4c-0.5,0.4-1.1,0.6-2.1,0.6c-0.8,0-1.5-0.2-2-0.5
			C445,20.2,444.7,19.7,444.5,19.1z"/>
		<path fill="#4D4D4F" d="M454.4,14.7V16h-1.1v2.4c0,0.5,0,0.7,0,0.8s0.1,0.2,0.1,0.2c0.1,0.1,0.2,0.1,0.3,0.1
			c0.2,0,0.4-0.1,0.7-0.2l0.1,1.2c-0.4,0.2-0.8,0.3-1.3,0.3c-0.3,0-0.6-0.1-0.7-0.2c-0.2-0.1-0.4-0.2-0.5-0.4
			c-0.1-0.2-0.2-0.4-0.2-0.7c0-0.2-0.1-0.6-0.1-1.1v-2.6h-0.7v-1.3h0.7v-1.2l1.6-0.9v2.2L454.4,14.7L454.4,14.7z"/>
		<path fill="#4D4D4F" d="M456.7,16.6l-1.5-0.3c0.2-0.6,0.5-1,0.8-1.3c0.4-0.3,1-0.4,1.8-0.4c0.7,0,1.2,0.1,1.6,0.3
			c0.4,0.2,0.6,0.4,0.7,0.7c0.1,0.3,0.2,0.7,0.2,1.4v1.9c0,0.6,0,0.9,0.1,1.2c0.1,0.3,0.2,0.6,0.3,0.8h-1.6c0-0.1-0.1-0.3-0.2-0.5
			c0-0.1,0-0.2-0.1-0.2c-0.3,0.3-0.6,0.5-0.8,0.6c-0.3,0.1-0.7,0.2-1,0.2c-0.7,0-1.1-0.2-1.5-0.5c-0.4-0.4-0.6-0.7-0.6-1.3
			c0-0.4,0.1-0.7,0.3-0.9c0.2-0.3,0.4-0.5,0.7-0.7c0.3-0.2,0.7-0.3,1.3-0.4c0.7-0.1,1.3-0.3,1.6-0.4v-0.2c0-0.3-0.1-0.6-0.2-0.7
			c-0.2-0.1-0.5-0.2-0.8-0.2c-0.3,0-0.5,0.1-0.7,0.2C456.9,16.1,456.8,16.3,456.7,16.6z M458.9,17.9c-0.2,0.1-0.6,0.2-0.9,0.3
			c-0.5,0.1-0.7,0.2-0.8,0.3c-0.2,0.2-0.3,0.4-0.3,0.6c0,0.2,0.1,0.4,0.3,0.6c0.2,0.2,0.4,0.3,0.7,0.3c0.3,0,0.6-0.1,0.8-0.3
			c0.2-0.2,0.3-0.3,0.4-0.6c0-0.1,0.1-0.4,0.1-0.7L458.9,17.9L458.9,17.9z"/>
		<path fill="#4D4D4F" d="M463.6,20.8l-2.4-6.1h1.7l1.1,3.1l0.4,1c0.1-0.3,0.2-0.5,0.2-0.6c0.1-0.2,0.1-0.4,0.2-0.5l1.1-3.1h1.7
			l-2.4,6.1C465.1,20.8,463.6,20.8,463.6,20.8z"/>
		<path fill="#4D4D4F" d="M468.5,14v-1.5h1.6V14H468.5z M468.5,20.8v-6.1h1.6v6.1H468.5z"/>
		<path fill="#4D4D4F" d="M477.2,20.8h-1.6v-3.1c0-0.7,0-1-0.1-1.3c-0.1-0.2-0.2-0.4-0.4-0.5c-0.2-0.1-0.4-0.2-0.6-0.2
			c-0.3,0-0.6,0.1-0.7,0.2c-0.2,0.2-0.4,0.4-0.5,0.6c-0.1,0.3-0.1,0.7-0.1,1.4v2.7h-1.6v-5.9h1.5v0.9c0.6-0.7,1.2-1,2-1
			c0.4,0,0.7,0.1,0.9,0.2c0.3,0.1,0.5,0.3,0.7,0.5c0.2,0.2,0.3,0.5,0.3,0.7c0.1,0.3,0.1,0.6,0.1,1L477.2,20.8L477.2,20.8z"/>
		<path fill="#4D4D4F" d="M484,19.6v-2.2h-2.2v-1.5h2.2v-2.2h1.5v2.2h2.2v1.5h-2.2v2.2C485.4,19.6,484,19.6,484,19.6z"/>
		<path fill="#4D4D4F" d="M497.5,16.6l-1.6,0.3c-0.1-0.3-0.2-0.6-0.4-0.7c-0.2-0.2-0.5-0.3-0.7-0.3c-0.4,0-0.7,0.1-0.9,0.4
			c-0.3,0.3-0.4,0.7-0.4,1.4c0,0.7,0.1,1.2,0.4,1.5c0.3,0.3,0.6,0.5,0.9,0.5c0.3,0,0.6-0.1,0.7-0.3s0.4-0.5,0.4-0.9l1.6,0.3
			c-0.2,0.7-0.5,1.3-0.9,1.6c-0.5,0.4-1.1,0.6-1.9,0.6c-0.8,0-1.6-0.3-2.2-0.8c-0.6-0.6-0.7-1.3-0.7-2.3s0.3-1.8,0.7-2.3
			c0.6-0.6,1.2-0.8,2.2-0.8c0.7,0,1.3,0.2,1.8,0.5C496.9,15.4,497.3,15.9,497.5,16.6z"/>
		<path fill="#4D4D4F" d="M500.3,12.5v3.1c0.6-0.6,1.1-0.9,1.9-0.9c0.4,0,0.7,0.1,1,0.2c0.3,0.1,0.6,0.3,0.7,0.6
			c0.2,0.2,0.3,0.5,0.3,0.7c0.1,0.3,0.1,0.7,0.1,1.2v3.6h-1.6v-3.2c0-0.7,0-1-0.1-1.2c-0.1-0.2-0.2-0.3-0.3-0.4
			c-0.2-0.1-0.4-0.2-0.6-0.2c-0.3,0-0.5,0.1-0.7,0.2c-0.2,0.1-0.4,0.3-0.5,0.6s-0.2,0.7-0.2,1.1v3h-1.6v-8.3L500.3,12.5L500.3,12.5z
			"/>
		<path fill="#4D4D4F" d="M509.3,18.9l1.6,0.3c-0.2,0.6-0.6,1-0.9,1.3c-0.5,0.3-1,0.5-1.7,0.5c-1,0-1.9-0.4-2.3-1
			c-0.4-0.6-0.6-1.2-0.6-2.1c0-1,0.3-1.8,0.7-2.3c0.6-0.6,1.2-0.8,2-0.8c0.9,0,1.6,0.3,2.2,0.9c0.6,0.6,0.7,1.5,0.7,2.7h-4
			c0,0.5,0.2,0.8,0.4,1.1c0.2,0.3,0.6,0.4,0.9,0.4c0.3,0,0.5-0.1,0.7-0.2C509.1,19.4,509.2,19.2,509.3,18.9z M509.4,17.3
			c0-0.5-0.1-0.8-0.4-1c-0.2-0.3-0.5-0.4-0.8-0.4s-0.7,0.1-0.8,0.4c-0.2,0.3-0.4,0.6-0.4,1H509.4L509.4,17.3z"/>
		<path fill="#4D4D4F" d="M512.2,14.7h1.5v0.8c0.6-0.7,1.1-0.9,1.9-0.9c0.4,0,0.7,0.1,1,0.3c0.3,0.2,0.6,0.4,0.7,0.7
			c0.3-0.3,0.6-0.6,0.8-0.7c0.3-0.2,0.7-0.3,1-0.3c0.5,0,0.8,0.1,1.1,0.3c0.3,0.2,0.6,0.5,0.7,0.7c0.1,0.3,0.2,0.7,0.2,1.2v3.8h-1.6
			v-3.5c0-0.6-0.1-1-0.2-1.1c-0.2-0.2-0.4-0.4-0.7-0.4c-0.2,0-0.5,0.1-0.7,0.2c-0.2,0.1-0.4,0.4-0.5,0.6c-0.1,0.3-0.1,0.7-0.1,1.2
			v2.9h-1.6v-3.1c0-0.6,0-0.9-0.1-1.1c-0.1-0.2-0.2-0.3-0.3-0.4c-0.1-0.1-0.3-0.1-0.5-0.1c-0.3,0-0.5,0.1-0.7,0.2s-0.4,0.3-0.5,0.6
			c-0.1,0.3-0.1,0.7-0.1,1.2v2.9h-1.6V14.7L512.2,14.7z"/>
		<path fill="#4D4D4F" d="M522.3,17.7c0-0.6,0.1-1,0.4-1.5c0.3-0.5,0.7-0.8,1.1-1.1c0.5-0.3,1-0.4,1.6-0.4c0.9,0,1.7,0.3,2.2,0.9
			c0.6,0.6,0.8,1.3,0.8,2.2c0,0.9-0.3,1.7-0.8,2.2s-1.3,0.9-2.2,0.9c-0.6,0-1.1-0.1-1.6-0.4c-0.5-0.3-0.8-0.7-1.1-1.1
			C522.4,19,522.3,18.4,522.3,17.7z M523.9,17.8c0,0.6,0.1,1,0.5,1.4c0.3,0.3,0.7,0.5,1,0.5c0.4,0,0.7-0.2,1-0.5
			c0.3-0.3,0.5-0.7,0.5-1.4c0-0.6-0.1-1-0.5-1.4c-0.3-0.3-0.7-0.5-1-0.5c-0.4,0-0.7,0.2-1,0.5C524.1,16.7,523.9,17.2,523.9,17.8z"/>
		<path fill="#4D4D4F" d="M532.6,14.7V16h-1.1v2.4c0,0.5,0,0.7,0,0.8s0.1,0.2,0.1,0.2c0.1,0.1,0.2,0.1,0.3,0.1
			c0.2,0,0.4-0.1,0.7-0.2l0.1,1.2c-0.4,0.2-0.7,0.3-1.2,0.3c-0.3,0-0.6-0.1-0.7-0.2s-0.4-0.2-0.5-0.4c-0.1-0.2-0.2-0.4-0.2-0.7
			c0-0.2-0.1-0.6-0.1-1.1v-2.6h-0.7v-1.3h0.7v-1.2l1.6-0.9v2.2L532.6,14.7L532.6,14.7z"/>
		<path fill="#4D4D4F" d="M535.3,12.5v3.1c0.6-0.6,1.1-0.9,1.9-0.9c0.4,0,0.7,0.1,1,0.2c0.3,0.1,0.6,0.3,0.7,0.6
			c0.2,0.2,0.3,0.5,0.3,0.7c0.1,0.3,0.1,0.7,0.1,1.2v3.6h-1.6v-3.2c0-0.7,0-1-0.1-1.2c-0.1-0.2-0.2-0.3-0.3-0.4
			c-0.1-0.1-0.4-0.2-0.6-0.2c-0.3,0-0.5,0.1-0.7,0.2c-0.2,0.1-0.4,0.3-0.5,0.6c-0.1,0.3-0.2,0.7-0.2,1.1v3h-1.6v-8.3L535.3,12.5
			L535.3,12.5z"/>
		<path fill="#4D4D4F" d="M544.4,18.9l1.6,0.3c-0.2,0.6-0.6,1-0.9,1.3c-0.5,0.3-1,0.5-1.7,0.5c-1,0-1.9-0.4-2.3-1
			c-0.4-0.6-0.6-1.2-0.6-2.1c0-1,0.3-1.8,0.7-2.3c0.6-0.6,1.2-0.8,2-0.8c0.9,0,1.6,0.3,2.2,0.9c0.6,0.6,0.7,1.5,0.7,2.7h-4
			c0,0.5,0.2,0.8,0.4,1.1c0.2,0.3,0.6,0.4,0.9,0.4c0.3,0,0.5-0.1,0.7-0.2C544.2,19.4,544.3,19.2,544.4,18.9z M544.5,17.3
			c0-0.5-0.1-0.8-0.4-1c-0.2-0.3-0.5-0.4-0.8-0.4s-0.7,0.1-0.8,0.4c-0.2,0.3-0.4,0.6-0.4,1H544.5L544.5,17.3z"/>
		<path fill="#4D4D4F" d="M548.9,20.8h-1.6v-6.1h1.5v0.9c0.3-0.4,0.5-0.7,0.7-0.8c0.2-0.1,0.5-0.2,0.7-0.2c0.4,0,0.7,0.1,1,0.3
			l-0.5,1.4c-0.3-0.2-0.6-0.3-0.7-0.3s-0.4,0.1-0.6,0.2s-0.3,0.4-0.4,0.7c-0.1,0.3-0.1,1-0.1,2.1V20.8L548.9,20.8z"/>
		<path fill="#4D4D4F" d="M553.1,16.6l-1.5-0.3c0.2-0.6,0.5-1,0.8-1.3c0.4-0.3,1-0.4,1.8-0.4s1.2,0.1,1.6,0.3s0.6,0.4,0.7,0.7
			c0.2,0.3,0.2,0.7,0.2,1.4v1.9c0,0.6,0,0.9,0.1,1.2c0.1,0.3,0.2,0.6,0.3,0.8h-1.6c0-0.1-0.1-0.3-0.2-0.5c0-0.1,0-0.2-0.1-0.2
			c-0.3,0.3-0.6,0.5-0.8,0.6c-0.3,0.1-0.7,0.2-1,0.2c-0.7,0-1.1-0.2-1.5-0.5c-0.4-0.3-0.6-0.7-0.6-1.3c0-0.4,0.1-0.7,0.3-0.9
			s0.4-0.5,0.7-0.7c0.3-0.2,0.7-0.3,1.3-0.4c0.7-0.1,1.3-0.3,1.6-0.4v-0.2c0-0.3-0.1-0.6-0.2-0.7c-0.2-0.1-0.5-0.2-0.8-0.2
			c-0.3,0-0.5,0.1-0.7,0.2C553.4,16.1,553.2,16.3,553.1,16.6z M555.2,17.9c-0.2,0.1-0.6,0.2-0.9,0.3c-0.5,0.1-0.7,0.2-0.8,0.3
			c-0.2,0.2-0.3,0.4-0.3,0.6c0,0.2,0.1,0.4,0.3,0.6c0.2,0.2,0.4,0.3,0.7,0.3s0.6-0.1,0.8-0.3c0.2-0.2,0.3-0.3,0.4-0.6
			c0-0.1,0.1-0.4,0.1-0.7v-0.4H555.2z"/>
		<path fill="#4D4D4F" d="M558.3,14.7h1.5v0.9c0.2-0.3,0.5-0.6,0.7-0.7c0.3-0.2,0.7-0.3,1.1-0.3c0.7,0,1.3,0.3,1.8,0.8
			c0.5,0.6,0.7,1.3,0.7,2.3s-0.3,1.8-0.7,2.3c-0.5,0.6-1.1,0.8-1.8,0.8c-0.4,0-0.7-0.1-0.9-0.2c-0.3-0.1-0.6-0.4-0.8-0.7v3h-1.6
			L558.3,14.7L558.3,14.7z M559.9,17.7c0,0.7,0.1,1.2,0.4,1.5c0.3,0.3,0.6,0.5,1,0.5c0.4,0,0.7-0.2,0.9-0.5c0.3-0.3,0.4-0.7,0.4-1.5
			c0-0.7-0.1-1.1-0.4-1.4c-0.3-0.3-0.6-0.5-0.9-0.5c-0.4,0-0.7,0.2-0.9,0.5C560,16.7,559.9,17.1,559.9,17.7z"/>
		<path fill="#4D4D4F" d="M564.8,14.7h1.7l1.4,4.3l1.4-4.3h1.7l-2.2,5.8l-0.4,1c-0.1,0.4-0.3,0.7-0.4,0.8c-0.1,0.2-0.3,0.4-0.5,0.5
			s-0.4,0.2-0.7,0.3c-0.3,0.1-0.5,0.1-0.8,0.1c-0.3,0-0.7,0-0.9-0.1l-0.2-1.2c0.3,0.1,0.5,0.1,0.7,0.1c0.4,0,0.7-0.1,0.8-0.4
			c0.2-0.2,0.3-0.5,0.4-0.8L564.8,14.7z"/>
	</g>
	<g enable-background="new    ">
		<path fill="#4D4D4F" d="M575.8,23.3c-0.6-0.7-1-1.6-1.4-2.5s-0.6-2-0.6-3c0-0.9,0.2-1.8,0.5-2.6c0.4-0.9,0.8-1.9,1.6-2.9h0.7
			c-0.5,0.7-0.7,1.3-0.9,1.7c-0.2,0.6-0.4,1-0.6,1.7c-0.2,0.7-0.3,1.4-0.3,2.2c0,1.9,0.6,3.7,1.7,5.4L575.8,23.3L575.8,23.3z"/>
		<path fill="#4D4D4F" d="M577.7,20.8v-6.1h0.9v0.9c0.5-0.7,1.1-1,2-1c0.4,0,0.7,0.1,1,0.2c0.3,0.1,0.6,0.3,0.7,0.6
			c0.1,0.3,0.3,0.5,0.3,0.7c0,0.2,0.1,0.6,0.1,1v3.7h-1v-3.7c0-0.4,0-0.7-0.1-0.9c-0.1-0.2-0.2-0.4-0.5-0.5
			c-0.3-0.1-0.5-0.2-0.7-0.2c-0.5,0-0.8,0.1-1.1,0.4c-0.3,0.3-0.5,0.8-0.5,1.6v3.3L577.7,20.8L577.7,20.8z"/>
		<path fill="#4D4D4F" d="M589.6,15.9h-5.5V15h5.5V15.9z M589.6,18.5h-5.5v-0.9h5.5V18.5z"/>
		<path fill="#4D4D4F" d="M594,20.8v-2h-3.7v-0.9l3.8-5.4h0.8v5.4h1.1v0.9h-1.1v2H594z M594,17.9v-3.7l-2.6,3.7H594z"/>
		<path fill="#4D4D4F" d="M600.5,20.8v-2h-3.7v-0.9l3.8-5.4h0.8v5.4h1.1v0.9h-1.1v2H600.5z M600.5,17.9v-3.7l-2.6,3.7H600.5z"/>
		<path fill="#4D4D4F" d="M603.8,13.6v-1h5.4v0.8c-0.6,0.6-1,1.3-1.6,2.2c-0.6,0.9-0.9,1.9-1.2,2.9c-0.2,0.7-0.4,1.5-0.4,2.3h-1
			c0-0.7,0.1-1.4,0.4-2.3c0.3-0.9,0.6-1.9,1-2.7c0.5-0.8,0.9-1.6,1.5-2.2L603.8,13.6L603.8,13.6z"/>
		<path fill="#4D4D4F" d="M611.2,23.3h-0.7c1.1-1.8,1.7-3.7,1.7-5.4c0-0.7-0.1-1.4-0.3-2.2c-0.1-0.6-0.3-1.1-0.6-1.7
			c-0.2-0.4-0.5-0.9-0.9-1.7h0.7c0.7,0.9,1.2,1.9,1.6,2.9c0.3,0.8,0.5,1.7,0.5,2.6c0,1-0.2,2.1-0.6,3
			C612.2,21.8,611.8,22.6,611.2,23.3z"/>
	</g>
	<g enable-background="new    ">
		<path fill="#4D4D4F" d="M641.6,17.7l1.6,0.6c-0.3,0.9-0.7,1.6-1.2,2.1s-1.3,0.7-2.2,0.7c-1.1,0-2.1-0.4-2.7-1.1
			c-0.7-0.7-1-1.8-1-3.1c0-1.4,0.4-2.4,1.1-3.3c0.7-0.7,1.7-1.1,2.8-1.1c1,0,1.9,0.3,2.5,0.9c0.4,0.4,0.7,0.8,0.8,1.5l-1.7,0.4
			c-0.1-0.5-0.3-0.7-0.7-1c-0.3-0.3-0.7-0.4-1.1-0.4c-0.7,0-1.1,0.2-1.5,0.7c-0.4,0.5-0.6,1.1-0.6,2.2s0.2,1.8,0.6,2.2
			c0.4,0.5,0.8,0.7,1.5,0.7c0.5,0,0.8-0.2,1.1-0.5C641.2,18.9,641.4,18.4,641.6,17.7z"/>
		<path fill="#4D4D4F" d="M646.2,12.5v3.1c0.6-0.6,1.1-0.9,1.9-0.9c0.4,0,0.7,0.1,1,0.2c0.3,0.1,0.6,0.3,0.7,0.6
			c0.2,0.2,0.3,0.5,0.3,0.7c0.1,0.3,0.1,0.7,0.1,1.2v3.6h-1.6v-3.2c0-0.7,0-1-0.1-1.2c-0.1-0.2-0.2-0.3-0.3-0.4
			c-0.1-0.1-0.4-0.2-0.6-0.2c-0.3,0-0.5,0.1-0.7,0.2c-0.2,0.1-0.4,0.3-0.5,0.6c-0.1,0.3-0.2,0.7-0.2,1.1v3h-1.6v-8.3L646.2,12.5
			L646.2,12.5z"/>
		<path fill="#4D4D4F" d="M655.3,18.9l1.6,0.3c-0.2,0.6-0.6,1-0.9,1.3c-0.5,0.3-1,0.5-1.7,0.5c-1,0-1.9-0.4-2.3-1
			c-0.4-0.6-0.6-1.2-0.6-2.1c0-1,0.3-1.8,0.7-2.3c0.6-0.6,1.2-0.8,2-0.8c0.9,0,1.6,0.3,2.2,0.9c0.6,0.6,0.7,1.5,0.7,2.7h-4
			c0,0.5,0.1,0.8,0.4,1.1c0.3,0.3,0.6,0.4,0.9,0.4c0.3,0,0.5-0.1,0.7-0.2C655.1,19.4,655.2,19.2,655.3,18.9z M655.4,17.3
			c0-0.5-0.1-0.8-0.4-1c-0.2-0.3-0.5-0.4-0.8-0.4s-0.7,0.1-0.8,0.4c-0.2,0.3-0.4,0.6-0.4,1H655.4L655.4,17.3z"/>
		<path fill="#4D4D4F" d="M658.2,14.7h1.5v0.8c0.6-0.7,1.1-0.9,1.9-0.9c0.4,0,0.7,0.1,1,0.3c0.3,0.2,0.6,0.4,0.7,0.7
			c0.3-0.3,0.6-0.6,0.8-0.7c0.3-0.2,0.7-0.3,1-0.3c0.5,0,0.8,0.1,1.1,0.3c0.3,0.2,0.6,0.5,0.7,0.7c0.1,0.3,0.2,0.7,0.2,1.2v3.8h-1.6
			v-3.5c0-0.6-0.1-1-0.2-1.1c-0.2-0.2-0.4-0.4-0.7-0.4c-0.2,0-0.5,0.1-0.7,0.2c-0.2,0.1-0.4,0.4-0.5,0.6c-0.1,0.3-0.1,0.7-0.1,1.2
			v2.9h-1.6v-3.1c0-0.6,0-0.9-0.1-1.1c-0.1-0.2-0.2-0.3-0.3-0.4c-0.1-0.1-0.3-0.1-0.5-0.1c-0.3,0-0.5,0.1-0.7,0.2s-0.4,0.3-0.5,0.6
			c-0.1,0.3-0.1,0.7-0.1,1.2v2.9h-1.6L658.2,14.7L658.2,14.7z"/>
		<path fill="#4D4D4F" d="M668.3,17.7c0-0.6,0.1-1,0.4-1.5c0.3-0.5,0.7-0.8,1.1-1.1c0.5-0.3,1-0.4,1.6-0.4c0.9,0,1.7,0.3,2.2,0.9
			c0.6,0.7,0.8,1.3,0.8,2.2c0,0.9-0.3,1.7-0.8,2.2s-1.3,0.9-2.2,0.9c-0.6,0-1.1-0.1-1.6-0.4c-0.5-0.3-0.8-0.7-1.1-1.1
			C668.4,19,668.3,18.4,668.3,17.7z M669.9,17.8c0,0.6,0.2,1,0.5,1.4c0.3,0.3,0.7,0.5,1,0.5c0.4,0,0.7-0.2,1-0.5
			c0.3-0.3,0.5-0.7,0.5-1.4c0-0.6-0.2-1-0.5-1.4c-0.3-0.3-0.7-0.5-1-0.5s-0.7,0.2-1,0.5C670.1,16.7,669.9,17.2,669.9,17.8z"/>
		<path fill="#4D4D4F" d="M680.2,16.6l-1.5-0.3c0.2-0.6,0.5-1,0.8-1.3c0.4-0.3,1-0.4,1.8-0.4c0.7,0,1.2,0.1,1.6,0.3
			c0.4,0.2,0.6,0.4,0.7,0.7c0.2,0.3,0.2,0.7,0.2,1.4v1.9c0,0.6,0,0.9,0.1,1.2c0.1,0.3,0.2,0.6,0.3,0.8h-1.6c0-0.1-0.1-0.3-0.2-0.5
			c0-0.1,0-0.2-0.1-0.2c-0.3,0.3-0.6,0.5-0.8,0.6s-0.7,0.2-1,0.2c-0.7,0-1.1-0.2-1.5-0.5c-0.4-0.4-0.6-0.7-0.6-1.3
			c0-0.4,0.1-0.7,0.3-0.9s0.4-0.5,0.7-0.7c0.3-0.2,0.7-0.3,1.3-0.4c0.7-0.1,1.3-0.3,1.6-0.4v-0.2c0-0.3-0.1-0.6-0.2-0.7
			c-0.2-0.1-0.5-0.2-0.8-0.2c-0.3,0-0.5,0.1-0.7,0.2C680.5,16.1,680.3,16.3,680.2,16.6z M682.4,17.9c-0.2,0.1-0.6,0.2-0.9,0.3
			c-0.5,0.1-0.7,0.2-0.8,0.3c-0.2,0.2-0.3,0.4-0.3,0.6c0,0.2,0.1,0.4,0.3,0.6c0.2,0.2,0.4,0.3,0.7,0.3c0.3,0,0.6-0.1,0.8-0.3
			c0.2-0.2,0.3-0.3,0.4-0.6c0-0.1,0.1-0.4,0.1-0.7v-0.4H682.4z"/>
		<path fill="#4D4D4F" d="M685.5,20.8v-8.3h1.6v8.3H685.5z"/>
		<path fill="#4D4D4F" d="M688.3,17.7c0-0.6,0.1-1,0.4-1.5s0.7-0.8,1.1-1.1c0.5-0.3,1-0.4,1.6-0.4c0.9,0,1.7,0.3,2.2,0.9
			c0.6,0.6,0.8,1.3,0.8,2.2c0,0.9-0.3,1.7-0.8,2.2s-1.3,0.9-2.2,0.9c-0.6,0-1.1-0.1-1.6-0.4c-0.5-0.3-0.8-0.7-1.1-1.1
			C688.5,19,688.3,18.4,688.3,17.7z M690,17.8c0,0.6,0.2,1,0.5,1.4c0.3,0.3,0.7,0.5,1,0.5s0.7-0.2,1-0.5c0.3-0.3,0.5-0.7,0.5-1.4
			c0-0.6-0.2-1-0.5-1.4c-0.3-0.4-0.7-0.5-1-0.5s-0.7,0.2-1,0.5C690.2,16.7,690,17.2,690,17.8z"/>
		<path fill="#4D4D4F" d="M701.4,20.8h-1.6v-3.1c0-0.7,0-1-0.1-1.3c-0.1-0.2-0.2-0.4-0.4-0.5c-0.2-0.1-0.4-0.2-0.6-0.2
			c-0.3,0-0.6,0.1-0.7,0.2c-0.2,0.2-0.4,0.4-0.5,0.6c-0.1,0.3-0.1,0.7-0.1,1.4v2.7h-1.6v-5.9h1.5v0.9c0.6-0.7,1.2-1,2-1
			c0.4,0,0.7,0.1,0.9,0.2c0.3,0.1,0.6,0.3,0.7,0.5c0.2,0.2,0.3,0.5,0.3,0.7c0.1,0.3,0.1,0.6,0.1,1L701.4,20.8L701.4,20.8z"/>
		<path fill="#4D4D4F" d="M706.5,18.9l1.6,0.3c-0.2,0.6-0.6,1-0.9,1.3c-0.5,0.3-1,0.5-1.7,0.5c-1,0-1.9-0.4-2.3-1
			c-0.4-0.6-0.6-1.2-0.6-2.1c0-1,0.3-1.8,0.7-2.3c0.6-0.6,1.2-0.8,2-0.8c0.9,0,1.6,0.3,2.2,0.9c0.6,0.6,0.7,1.5,0.7,2.7h-4
			c0,0.5,0.1,0.8,0.4,1.1c0.3,0.3,0.6,0.4,0.9,0.4c0.3,0,0.5-0.1,0.7-0.2C706.3,19.4,706.4,19.2,706.5,18.9z M706.6,17.3
			c0-0.5-0.1-0.8-0.4-1c-0.2-0.3-0.5-0.4-0.8-0.4c-0.4,0-0.7,0.1-0.8,0.4c-0.2,0.3-0.4,0.6-0.4,1H706.6L706.6,17.3z"/>
	</g>
	<g enable-background="new    ">
		<path fill="#4D4D4F" d="M713.3,23.3c-0.6-0.7-1-1.6-1.4-2.5s-0.6-2-0.6-3c0-0.9,0.2-1.8,0.5-2.6c0.4-0.9,0.8-1.9,1.6-2.9h0.7
			c-0.5,0.7-0.7,1.3-0.9,1.7c-0.2,0.6-0.4,1-0.6,1.7c-0.2,0.7-0.3,1.4-0.3,2.2c0,1.9,0.6,3.7,1.7,5.4L713.3,23.3L713.3,23.3z"/>
		<path fill="#4D4D4F" d="M715.3,20.8v-6.1h0.9v0.9c0.5-0.7,1.1-1,2-1c0.4,0,0.7,0.1,1,0.2c0.3,0.1,0.6,0.3,0.7,0.6
			c0.1,0.3,0.3,0.5,0.3,0.7c0,0.2,0.1,0.6,0.1,1v3.7h-1v-3.7c0-0.4,0-0.7-0.1-0.9c-0.1-0.2-0.2-0.4-0.5-0.5
			c-0.3-0.1-0.5-0.2-0.7-0.2c-0.5,0-0.8,0.1-1.1,0.4c-0.3,0.3-0.5,0.8-0.5,1.6v3.3L715.3,20.8L715.3,20.8z"/>
		<path fill="#4D4D4F" d="M727.2,15.9h-5.5V15h5.5V15.9z M727.2,18.5h-5.5v-0.9h5.5V18.5z"/>
		<path fill="#4D4D4F" d="M731.6,20.8v-2h-3.7v-0.9l3.8-5.4h0.8v5.4h1.1v0.9h-1.1v2H731.6z M731.6,17.9v-3.7l-2.6,3.7H731.6z"/>
		<path fill="#4D4D4F" d="M734.8,18.7l1.1-0.1c0.1,0.6,0.3,0.9,0.6,1.2c0.3,0.3,0.7,0.4,1,0.4c0.5,0,0.9-0.2,1.2-0.6
			c0.4-0.4,0.5-0.8,0.5-1.5c0-0.6-0.2-1-0.5-1.4s-0.7-0.5-1.3-0.5c-0.4,0-0.7,0.1-0.9,0.2c-0.3,0.2-0.5,0.4-0.7,0.6l-0.9-0.1
			l0.8-4.3h4.1v0.9h-3.4l-0.5,2.2c0.5-0.4,1-0.6,1.6-0.6c0.7,0,1.3,0.3,1.9,0.7c0.5,0.5,0.7,1.1,0.7,2c0,0.7-0.2,1.4-0.7,2
			c-0.6,0.7-1.3,1-2.2,1c-0.7,0-1.4-0.2-1.9-0.7C735.1,19.9,734.8,19.3,734.8,18.7z"/>
		<path fill="#4D4D4F" d="M745.1,20.8h-1v-6.6c-0.3,0.3-0.6,0.5-0.9,0.7s-0.7,0.4-1.1,0.6v-1c0.6-0.3,1-0.6,1.5-0.9
			c0.5-0.4,0.7-0.7,0.9-1.1h0.7V20.8z"/>
		<path fill="#4D4D4F" d="M748.7,23.3H748c1.1-1.8,1.7-3.7,1.7-5.4c0-0.7-0.1-1.4-0.3-2.2c-0.1-0.6-0.3-1.1-0.6-1.7
			c-0.2-0.4-0.5-0.9-0.9-1.7h0.7c0.7,0.9,1.2,1.9,1.6,2.9c0.3,0.8,0.5,1.7,0.5,2.6c0,1-0.2,2.1-0.6,3S749.3,22.6,748.7,23.3z"/>
	</g>
</g>
</svg>
