<?xml version="1.0" encoding="utf-8"?>
<!-- Generator: Adobe Illustrator 17.0.1, SVG Export Plug-In . SVG Version: 6.00 Build 0)  -->
<!DOCTYPE svg PUBLIC "-//W3C//DTD SVG 1.1//EN" "http://www.w3.org/Graphics/SVG/1.1/DTD/svg11.dtd">
<svg version="1.1" id="Layer_1" xmlns="http://www.w3.org/2000/svg" xmlns:xlink="http://www.w3.org/1999/xlink" x="0px" y="0px"
	 width="803.005px" height="42.388px" viewBox="0 0 803.005 42.388" enable-background="new 0 0 803.005 42.388"
	 xml:space="preserve">
<g id="_x31_0.0_NSCLC_Efficacy__x28_Primary_endpoint_x29_">
	<g enable-background="new    ">
		<path fill="#60A296" d="M3.263,30.964c1.728,0,3.168,1.439,3.168,3.168c0,0.672-0.288,1.392-0.672,1.92
			c1.2,0.96,3.072,1.44,5.088,1.44c3.265,0,5.665-1.92,5.665-4.849c0-1.824-0.864-3.456-3.12-4.416
			c-1.2-0.528-2.833-0.816-4.993-0.816h-1.44v-4.128h1.584c2.064,0,3.84-0.385,5.185-1.057c1.632-0.864,2.592-2.16,2.592-3.889
			c0-2.592-2.4-3.888-5.232-3.888c-1.92,0-3.216,0.336-4.032,0.96c0.384,0.528,0.672,1.248,0.672,1.92
			c0,1.729-1.44,3.168-3.168,3.168s-3.264-1.487-3.264-3.792c0-0.816,0.288-1.824,0.96-2.784c1.344-1.968,4.225-3.792,9.025-3.792
			c6.048,0,10.417,3.408,10.417,8.017c0,2.544-1.584,4.656-3.792,5.904c-0.912,0.528-1.92,0.912-2.976,1.104
			c0.912,0.239,1.872,0.624,2.736,1.104c2.304,1.296,4.224,3.456,4.224,6.721c0,5.377-4.752,8.833-11.089,8.833
			c-4.512,0-8.113-1.776-9.793-4.177C0.384,36.722,0,35.666,0,34.61C-0.001,32.595,1.343,30.964,3.263,30.964z"/>
		<path fill="#60A296" d="M25.294,19.442h13.921v5.377H25.294V19.442z"/>
		<path fill="#60A296" d="M42.718,31.396h3.12V19.106h-3.12V14.69h8.161v3.312c1.632-1.775,3.936-3.696,7.057-3.696
			c2.256,0,3.936,0.864,4.992,2.257c0.288,0.384,0.48,0.768,0.672,1.2c1.968-1.921,4.32-3.457,7.008-3.457
			c2.928,0,4.944,1.057,6,3.024c0.576,1.057,0.864,2.4,0.864,3.937v10.129h3.12v4.32H69.407v-4.32h2.833v-8.881
			c0-0.816-0.096-1.44-0.336-1.968c-0.432-1.009-1.296-1.488-2.497-1.488c-1.728,0-3.552,1.008-5.136,2.352v9.985h2.832v4.32H56.158
			v-4.32h2.88v-8.881c0-0.816-0.096-1.44-0.336-1.968c-0.432-1.009-1.248-1.488-2.497-1.488c-1.728,0-3.552,1.008-5.136,2.352v9.985
			h2.784v4.32H42.716v-4.321C42.716,31.395,42.718,31.395,42.718,31.396z"/>
		<path fill="#60A296" d="M82.655,25.202c0-5.761,4.32-10.897,11.185-10.897c6.961,0,11.185,5.041,11.185,10.897
			c0,5.761-4.32,10.896-11.185,10.896C86.879,36.1,82.655,31.06,82.655,25.202z M99.648,25.202c0-3.841-2.4-6.528-5.809-6.528
			c-3.408,0-5.808,2.688-5.808,6.528s2.4,6.528,5.808,6.528C97.248,31.731,99.648,29.043,99.648,25.202z"/>
		<path fill="#60A296" d="M116.303,18.049c2.016-1.968,4.272-3.744,7.345-3.744c2.496,0,4.32,1.009,5.424,2.688
			c0.72,1.152,1.104,2.593,1.104,4.32v10.081h3.12v4.32h-11.233v-4.32h2.88V22.61c0-0.863-0.144-1.632-0.432-2.16
			c-0.48-0.912-1.344-1.392-2.592-1.392c-1.824,0-3.744,1.056-5.424,2.448v9.889h2.88v4.32h-11.233v-4.32h3.12V19.105h-3.12v-4.416
			h8.161V18.049z"/>
		<path fill="#60A296" d="M139.295,33.219c-0.48-0.864-0.72-1.969-0.72-3.312V19.106h-4.08V14.69h4.08v-4.417l5.185-2.256v6.673
			h6.385v4.416h-6.385v9.793c0,0.672,0.096,1.104,0.336,1.536c0.384,0.672,1.152,1.008,2.208,1.008c1.344,0,2.88-0.528,4.128-1.104
			L150,34.853c-1.44,0.721-3.121,1.248-5.041,1.248C142.415,36.1,140.351,35.235,139.295,33.219z"/>
		<path fill="#60A296" d="M153.021,4.993V0.576h8.353v17.281c1.968-1.872,4.177-3.553,7.153-3.553c2.256,0,4.032,0.816,5.136,2.257
			c0.912,1.2,1.393,2.832,1.393,4.752v10.081h3.12v4.32h-11.233v-4.32h2.88V22.61c0-1.151-0.24-1.968-0.672-2.544
			c-0.528-0.672-1.344-1.008-2.352-1.008c-1.824,0-3.745,1.056-5.425,2.448v9.889h2.88v4.32h-11.233v-4.32h3.12V4.993H153.021z"/>
		<path fill="#60A296" d="M191.037,31.396h3.216V19.106h-3.216V14.69h8.449v16.705h3.12v4.32h-11.569V31.396z M192.861,8.018
			c0-1.92,1.68-3.456,3.552-3.456s3.457,1.536,3.457,3.456s-1.68,3.456-3.553,3.456C194.445,11.474,192.861,9.938,192.861,8.018z"/>
		<path fill="#60A296" d="M213.79,18.049c2.016-1.968,4.272-3.744,7.345-3.744c2.496,0,4.32,1.009,5.424,2.688
			c0.72,1.152,1.104,2.593,1.104,4.32v10.081h3.12v4.32H219.55v-4.32h2.88V22.61c0-0.863-0.144-1.632-0.432-2.16
			c-0.48-0.912-1.344-1.392-2.592-1.392c-1.824,0-3.744,1.056-5.424,2.448v9.889h2.88v4.32h-11.233v-4.32h3.12V19.105h-3.12v-4.416
			h8.161V18.049z"/>
		<path fill="#60A296" d="M232.845,25.01c0-5.473,4.416-10.705,10.657-10.705c5.761,0,9.553,3.744,9.553,7.057
			c0,2.208-1.488,3.553-3.36,3.553c-1.728,0-3.168-1.44-3.168-3.168c0-0.625,0.288-1.345,0.672-1.776
			c-0.384-0.528-1.68-1.44-3.744-1.44c-2.4,0-5.376,1.968-5.376,6.576c0,4.033,3.072,6.577,6.816,6.577
			c2.544,0,4.752-0.72,7.489-2.208l-0.432,4.704c-2.256,1.296-4.417,1.92-7.489,1.92C237.837,36.1,232.845,31.779,232.845,25.01z"/>
		<path fill="#60A296" d="M275.374,17.762c0,1.775-1.392,3.264-3.121,3.264c-1.584,0-2.64-0.912-3.072-1.872
			c-1.488,0.528-3.216,2.16-4.176,3.984v8.257h3.648v4.32h-12.001v-4.32h3.12V19.106h-3.12V14.69h8.161v4.752
			c1.776-2.832,3.984-5.137,6.672-5.137C274.078,14.306,275.374,15.89,275.374,17.762z"/>
		<path fill="#60A296" d="M282.429,26.979c0.72,3.264,3.408,4.704,6.913,4.704c2.544,0,5.185-0.816,7.633-2.208l-0.432,4.704
			c-2.208,1.296-4.896,1.92-7.969,1.92c-6.864,0-11.617-4.32-11.617-10.849c0-5.952,4.176-10.945,10.657-10.945
			c6.721,0,10.225,4.513,10.225,10.081c0,0.816-0.096,1.872-0.24,2.593C297.599,26.979,282.429,26.979,282.429,26.979z
			 M282.381,23.33h10.225c-0.096-2.881-1.968-4.801-5.04-4.801C285.261,18.53,282.957,19.873,282.381,23.33z"/>
		<path fill="#60A296" d="M300.525,30.195c0-3.937,3.456-6.337,8.449-6.337c2.16,0,4.176,0.288,5.329,0.576v-1.68
			c0-1.248-0.288-2.208-0.816-2.881c-0.864-1.104-2.256-1.536-4.128-1.536c-0.912,0-1.584,0.145-2.064,0.337
			c0.096,0.287,0.192,0.768,0.192,1.056c0,1.584-1.248,2.736-2.832,2.736s-2.784-1.104-2.784-2.832c0-2.593,2.64-5.329,8.353-5.329
			c3.601,0,6.048,1.009,7.537,2.833c1.104,1.344,1.632,3.168,1.632,5.28v8.977h3.12v4.32H314.4v-2.305
			c-1.68,1.44-4.224,2.688-7.057,2.688C303.741,36.1,300.525,34.132,300.525,30.195z M314.302,30.436v-3.312
			c-1.2-0.288-2.688-0.48-4.321-0.48c-2.544,0-4.08,1.152-4.08,3.072c0,1.681,1.248,2.593,3.12,2.593S312.718,31.588,314.302,30.436
			z"/>
		<path fill="#60A296" d="M339.838,22.178c-1.68,0-2.832-1.008-2.832-2.592c0-0.337,0-0.625,0.096-0.912
			c-0.864-0.337-1.92-0.528-2.976-0.528c-2.352,0-3.504,1.056-3.504,2.16c0,1.2,1.2,1.824,4.417,2.688
			c5.041,1.344,7.969,2.592,7.969,6.384c0,4.417-4.128,6.769-8.881,6.769c-3.216,0-6.673-1.151-8.065-2.544
			c-0.864-0.864-1.2-1.728-1.2-2.832c0-1.536,1.152-2.832,2.785-2.832c1.44,0,2.832,0.96,2.832,2.784
			c0,0.288-0.048,0.576-0.096,0.864c0.96,0.384,2.304,0.672,3.792,0.672c2.112,0,3.84-0.721,3.84-2.257
			c0-1.056-0.912-1.68-4.128-2.544c-5.809-1.536-8.256-2.928-8.256-6.528c0-3.265,2.688-6.673,8.592-6.673
			c2.544,0,5.617,0.96,7.057,2.4c0.768,0.768,1.152,1.68,1.152,2.688C342.43,21.026,341.374,22.178,339.838,22.178z"/>
		<path fill="#60A296" d="M351.885,26.979c0.72,3.264,3.408,4.704,6.913,4.704c2.544,0,5.185-0.816,7.633-2.208l-0.432,4.704
			c-2.208,1.296-4.896,1.92-7.969,1.92c-6.864,0-11.617-4.32-11.617-10.849c0-5.952,4.176-10.945,10.657-10.945
			c6.721,0,10.225,4.513,10.225,10.081c0,0.816-0.096,1.872-0.24,2.593C367.055,26.979,351.885,26.979,351.885,26.979z
			 M351.837,23.33h10.225c-0.096-2.881-1.968-4.801-5.041-4.801C354.718,18.53,352.414,19.873,351.837,23.33z"/>
		<path fill="#60A296" d="M380.876,31.396h3.216V19.106h-3.216V14.69h8.449v16.705h3.12v4.32h-11.569V31.396z M382.7,8.018
			c0-1.92,1.68-3.456,3.552-3.456s3.457,1.536,3.457,3.456s-1.68,3.456-3.553,3.456C384.284,11.474,382.7,9.938,382.7,8.018z"/>
		<path fill="#60A296" d="M403.628,18.049c2.016-1.968,4.272-3.744,7.345-3.744c2.496,0,4.32,1.009,5.424,2.688
			c0.72,1.152,1.104,2.593,1.104,4.32v10.081h3.12v4.32h-11.233v-4.32h2.88V22.61c0-0.863-0.144-1.632-0.432-2.16
			c-0.48-0.912-1.344-1.392-2.592-1.392c-1.824,0-3.744,1.056-5.424,2.448v9.889h2.88v4.32h-11.233v-4.32h3.12V19.105h-3.12v-4.416
			h8.161V18.049z"/>
		<path fill="#60A296" d="M433.58,25.202c0-5.761,4.32-10.897,11.185-10.897c6.961,0,11.185,5.041,11.185,10.897
			c0,5.761-4.32,10.896-11.185,10.896C437.804,36.1,433.58,31.06,433.58,25.202z M450.573,25.202c0-3.841-2.399-6.528-5.809-6.528
			c-3.408,0-5.808,2.688-5.808,6.528s2.399,6.528,5.808,6.528C448.173,31.731,450.573,29.043,450.573,25.202z"/>
		<path fill="#60A296" d="M459.595,19.106h-2.447V14.69H467.9v4.176h-3.023l5.04,10.945l5.04-10.945h-3.168V14.69h10.705v4.416
			h-2.448l-8.353,16.993h-3.744L459.595,19.106z"/>
		<path fill="#60A296" d="M489.164,26.979c0.721,3.264,3.408,4.704,6.913,4.704c2.544,0,5.185-0.816,7.633-2.208l-0.433,4.704
			c-2.207,1.296-4.896,1.92-7.969,1.92c-6.863,0-11.616-4.32-11.616-10.849c0-5.952,4.177-10.945,10.657-10.945
			c6.721,0,10.225,4.513,10.225,10.081c0,0.816-0.096,1.872-0.24,2.593C504.334,26.979,489.164,26.979,489.164,26.979z
			 M489.117,23.33h10.225c-0.096-2.881-1.969-4.801-5.041-4.801C491.997,18.53,489.693,19.873,489.117,23.33z"/>
		<path fill="#60A296" d="M526.269,17.762c0,1.775-1.393,3.264-3.119,3.264c-1.586,0-2.641-0.912-3.072-1.872
			c-1.488,0.528-3.217,2.16-4.178,3.984v8.257h3.648v4.32h-12v-4.32h3.119V19.106h-3.119V14.69h8.16v4.752
			c1.775-2.832,3.984-5.137,6.672-5.137C524.974,14.306,526.269,15.89,526.269,17.762z"/>
		<path fill="#60A296" d="M527.898,30.195c0-3.937,3.457-6.337,8.449-6.337c2.16,0,4.178,0.288,5.328,0.576v-1.68
			c0-1.248-0.287-2.208-0.814-2.881c-0.865-1.104-2.258-1.536-4.129-1.536c-0.912,0-1.584,0.145-2.064,0.337
			c0.096,0.287,0.191,0.768,0.191,1.056c0,1.584-1.248,2.736-2.832,2.736s-2.783-1.104-2.783-2.832c0-2.593,2.639-5.329,8.352-5.329
			c3.602,0,6.049,1.009,7.537,2.833c1.104,1.344,1.633,3.168,1.633,5.28v8.977h3.119v4.32h-8.111v-2.305
			c-1.682,1.44-4.225,2.688-7.057,2.688C531.115,36.1,527.898,34.132,527.898,30.195z M541.675,30.436v-3.312
			c-1.199-0.288-2.688-0.48-4.32-0.48c-2.543,0-4.08,1.152-4.08,3.072c0,1.681,1.248,2.593,3.121,2.593
			C538.267,32.308,540.091,31.588,541.675,30.436z"/>
		<path fill="#60A296" d="M551.564,31.396h3.264V4.993h-3.264V0.576h8.496v30.818h3.121v4.32h-11.617L551.564,31.396L551.564,31.396
			z"/>
		<path fill="#60A296" d="M565.722,31.396h3.266V4.993h-3.266V0.576h8.498v30.818h3.119v4.32h-11.617V31.396z"/>
		<path fill="#60A296" d="M606.091,22.178c-1.68,0-2.832-1.008-2.832-2.592c0-0.337,0-0.625,0.096-0.912
			c-0.863-0.337-1.92-0.528-2.977-0.528c-2.352,0-3.504,1.056-3.504,2.16c0,1.2,1.201,1.824,4.416,2.688
			c5.041,1.344,7.969,2.592,7.969,6.384c0,4.417-4.127,6.769-8.881,6.769c-3.215,0-6.672-1.151-8.064-2.544
			c-0.863-0.864-1.199-1.728-1.199-2.832c0-1.536,1.152-2.832,2.783-2.832c1.441,0,2.834,0.96,2.834,2.784
			c0,0.288-0.049,0.576-0.098,0.864c0.961,0.384,2.305,0.672,3.793,0.672c2.111,0,3.84-0.721,3.84-2.257
			c0-1.056-0.912-1.68-4.127-2.544c-5.809-1.536-8.258-2.928-8.258-6.528c0-3.265,2.688-6.673,8.594-6.673
			c2.543,0,5.615,0.96,7.057,2.4c0.768,0.768,1.15,1.68,1.15,2.688C608.683,21.026,607.628,22.178,606.091,22.178z"/>
		<path fill="#60A296" d="M615.787,33.315c-0.672-1.104-1.055-2.544-1.055-4.225v-9.984h-3.121V14.69h8.354v13.104
			c0,0.912,0.143,1.584,0.432,2.16c0.48,0.912,1.344,1.393,2.592,1.393c1.824,0,3.744-1.057,5.424-2.448v-9.793h-3.264v-4.416h8.496
			v16.705h3.121v4.32h-8.16v-3.36c-2.018,1.968-4.273,3.744-7.346,3.744C618.716,36.1,616.843,35.044,615.787,33.315z"/>
		<path fill="#60A296" d="M658.22,17.762c0,1.775-1.393,3.264-3.121,3.264c-1.584,0-2.641-0.912-3.072-1.872
			c-1.488,0.528-3.217,2.16-4.176,3.984v8.257h3.648v4.32h-12.002v-4.32h3.121V19.106h-3.121V14.69h8.16v4.752
			c1.777-2.832,3.984-5.137,6.674-5.137C656.923,14.306,658.22,15.89,658.22,17.762z"/>
		<path fill="#60A296" d="M661.58,19.106h-2.449V14.69h10.754v4.176h-3.025l5.041,10.945l5.041-10.945h-3.17V14.69h10.705v4.416
			h-2.447l-8.354,16.993h-3.744L661.58,19.106z"/>
		<path fill="#60A296" d="M686.25,31.396h3.217V19.106h-3.217V14.69h8.449v16.705h3.121v4.32h-11.57L686.25,31.396L686.25,31.396z
			 M688.074,8.018c0-1.92,1.68-3.456,3.553-3.456s3.457,1.536,3.457,3.456s-1.682,3.456-3.553,3.456
			C689.658,11.474,688.074,9.938,688.074,8.018z"/>
		<path fill="#60A296" d="M701.371,19.106h-2.449V14.69h10.754v4.176h-3.025l5.041,10.945l5.041-10.945h-3.17V14.69h10.705v4.416
			h-2.447l-8.354,16.993h-3.744L701.371,19.106z"/>
		<path fill="#60A296" d="M725.513,30.195c0-3.937,3.457-6.337,8.449-6.337c2.16,0,4.178,0.288,5.328,0.576v-1.68
			c0-1.248-0.287-2.208-0.814-2.881c-0.865-1.104-2.258-1.536-4.129-1.536c-0.912,0-1.584,0.145-2.064,0.337
			c0.096,0.287,0.191,0.768,0.191,1.056c0,1.584-1.248,2.736-2.832,2.736s-2.783-1.104-2.783-2.832c0-2.593,2.639-5.329,8.352-5.329
			c3.602,0,6.049,1.009,7.537,2.833c1.104,1.344,1.633,3.168,1.633,5.28v8.977h3.119v4.32h-8.111v-2.305
			c-1.682,1.44-4.225,2.688-7.057,2.688C728.73,36.1,725.513,34.132,725.513,30.195z M739.291,30.436v-3.312
			c-1.199-0.288-2.688-0.48-4.32-0.48c-2.543,0-4.08,1.152-4.08,3.072c0,1.681,1.248,2.593,3.121,2.593
			C735.882,32.308,737.707,31.588,739.291,30.436z"/>
		<path fill="#60A296" d="M749.177,31.396h3.266V4.993h-3.266V0.576h8.498v30.818h3.119v4.32h-11.617V31.396z"/>
	</g>
	<g enable-background="new    ">
		<path fill="#60A296" d="M770.448,17.213h3.358V8.174l-2.826,0.672l-0.7-2.519l5.094-1.287h1.483v12.173h3.302v2.519h-9.711
			L770.448,17.213L770.448,17.213z"/>
		<path fill="#60A296" d="M781.221,23.425c1.875-1.483,2.799-2.91,2.854-3.75c-1.035-0.28-1.734-1.092-1.734-2.211
			s1.035-2.127,2.294-2.127c1.288,0,2.407,0.924,2.407,2.771c0,1.735-1.231,4.338-4.926,6.465L781.221,23.425z"/>
		<path fill="#60A296" d="M792.919,8.006c0.195,0.308,0.335,0.672,0.335,1.036c0,1.007-0.839,1.847-1.847,1.847
			c-1.007,0-1.902-0.867-1.902-2.211c0-0.504,0.224-1.063,0.644-1.595c0.951-1.231,2.91-2.268,5.4-2.268
			c3.666,0,5.793,2.155,5.793,4.282c0,2.435-1.931,3.722-4.478,5.149c-2.099,1.175-3.218,2.015-3.89,3.05h6.324v-2.351h2.519v4.785
			h-12.229l-0.532-1.511c1.119-2.575,3.414-4.422,5.961-5.933c1.847-1.092,3.19-1.932,3.19-3.106c0-1.063-1.204-1.819-2.771-1.819
			C794.346,7.362,793.395,7.614,792.919,8.006z"/>
	</g>
</g>
</svg>
