<?xml version="1.0" encoding="utf-8"?>
<!-- Generator: Adobe Illustrator 17.0.1, SVG Export Plug-In . SVG Version: 6.00 Build 0)  -->
<!DOCTYPE svg PUBLIC "-//W3C//DTD SVG 1.1//EN" "http://www.w3.org/Graphics/SVG/1.1/DTD/svg11.dtd">
<svg version="1.1" id="Layer_1" xmlns="http://www.w3.org/2000/svg" xmlns:xlink="http://www.w3.org/1999/xlink" x="0px" y="0px"
	 width="803.75px" height="45.667px" viewBox="0 0 803.75 45.667" enable-background="new 0 0 803.75 45.667" xml:space="preserve">
<g id="_x39_.0_mCRPC_Efficacy__x28_Primary_endpoint_x29_">
	<g enable-background="new    ">
		<path fill="#60A296" d="M3.359,31.586c1.728,0,3.168,1.44,3.168,3.169c0,0.479-0.192,1.056-0.432,1.536
			c0.96,0.336,2.16,0.479,3.552,0.479c3.984,0,6.145-2.64,6.145-5.904c0-3.072-1.968-5.328-6.385-5.328
			c-1.824,0-4.08,0.432-5.856,1.392l-2.448-1.344l1.92-15.649H19.44v4.896H6.959l-0.816,6.721c1.104-0.288,2.64-0.48,4.081-0.48
			c6.145,0,10.849,3.456,10.849,9.793c0,6.145-4.704,10.417-11.089,10.417c-3.984,0-6.816-1.104-8.4-2.641
			C0.528,37.635,0,36.387,0,35.235C-0.001,33.122,1.487,31.586,3.359,31.586z"/>
		<path fill="#60A296" d="M24.575,18.866h13.921v5.377H24.575C24.575,24.243,24.575,18.866,24.575,18.866z"/>
		<path fill="#60A296" d="M41.998,30.819h3.12V18.53h-3.12v-4.416h8.161v3.312c1.632-1.775,3.936-3.696,7.057-3.696
			c2.256,0,3.936,0.864,4.992,2.257c0.288,0.384,0.48,0.768,0.672,1.2c1.968-1.921,4.32-3.457,7.008-3.457
			c2.928,0,4.944,1.057,6,3.024c0.576,1.057,0.864,2.4,0.864,3.937V30.82h3.12v4.32H68.688v-4.32h2.833v-8.881
			c0-0.816-0.096-1.44-0.336-1.968c-0.432-1.009-1.296-1.488-2.497-1.488c-1.728,0-3.552,1.008-5.136,2.352v9.985h2.832v4.32H55.439
			v-4.32h2.88v-8.881c0-0.816-0.096-1.44-0.336-1.968c-0.432-1.009-1.248-1.488-2.496-1.488c-1.729,0-3.553,1.008-5.137,2.352v9.985
			h2.784v4.32H41.998V30.819z"/>
		<path fill="#60A296" d="M81.935,24.626c0-5.761,4.32-10.897,11.185-10.897c6.961,0,11.185,5.041,11.185,10.897
			c0,5.761-4.32,10.896-11.185,10.896C86.159,35.523,81.935,30.483,81.935,24.626z M98.928,24.626c0-3.841-2.4-6.528-5.809-6.528
			c-3.408,0-5.808,2.688-5.808,6.528s2.4,6.528,5.808,6.528C96.529,31.155,98.928,28.466,98.928,24.626z"/>
		<path fill="#60A296" d="M115.584,17.473c2.016-1.968,4.272-3.744,7.345-3.744c2.496,0,4.32,1.009,5.424,2.688
			c0.72,1.152,1.104,2.593,1.104,4.32v10.081h3.12v4.32h-11.233v-4.32h2.88v-8.785c0-0.863-0.144-1.632-0.432-2.16
			c-0.48-0.912-1.344-1.392-2.592-1.392c-1.824,0-3.744,1.056-5.424,2.448v9.889h2.88v4.32h-11.233v-4.32h3.12V18.529h-3.12v-4.416
			h8.161V17.473z"/>
		<path fill="#60A296" d="M138.575,32.643c-0.48-0.864-0.72-1.969-0.72-3.312V18.53h-4.08v-4.416h4.08V9.697l5.185-2.256v6.673
			h6.385v4.416h-6.385v9.793c0,0.672,0.096,1.104,0.336,1.536c0.384,0.672,1.152,1.008,2.208,1.008c1.344,0,2.88-0.528,4.128-1.104
			l-0.432,4.513c-1.44,0.721-3.121,1.248-5.041,1.248C141.695,35.523,139.631,34.659,138.575,32.643z"/>
		<path fill="#60A296" d="M152.302,4.416V0h8.353v17.281c1.968-1.872,4.177-3.553,7.153-3.553c2.256,0,4.032,0.816,5.136,2.257
			c0.912,1.2,1.393,2.832,1.393,4.752v10.081h3.12v4.32h-11.233v-4.32h2.88v-8.785c0-1.151-0.24-1.968-0.672-2.544
			c-0.528-0.672-1.344-1.008-2.352-1.008c-1.824,0-3.745,1.056-5.425,2.448v9.889h2.88v4.32h-11.233v-4.32h3.12V4.416H152.302z"/>
		<path fill="#60A296" d="M190.317,30.819h3.216V18.53h-3.216v-4.416h8.449v16.705h3.12v4.32h-11.569V30.819z M192.141,7.441
			c0-1.92,1.68-3.456,3.552-3.456s3.456,1.536,3.456,3.456s-1.68,3.456-3.552,3.456C193.725,10.897,192.141,9.361,192.141,7.441z"/>
		<path fill="#60A296" d="M213.07,17.473c2.016-1.968,4.272-3.744,7.345-3.744c2.496,0,4.32,1.009,5.424,2.688
			c0.72,1.152,1.104,2.593,1.104,4.32v10.081h3.12v4.32H218.83v-4.32h2.88v-8.785c0-0.863-0.144-1.632-0.432-2.16
			c-0.48-0.912-1.344-1.392-2.592-1.392c-1.824,0-3.744,1.056-5.424,2.448v9.889h2.88v4.32h-11.233v-4.32h3.12V18.529h-3.12v-4.416
			h8.161V17.473z"/>
		<path fill="#60A296" d="M232.126,24.434c0-5.473,4.416-10.705,10.657-10.705c5.761,0,9.553,3.744,9.553,7.057
			c0,2.208-1.488,3.553-3.36,3.553c-1.728,0-3.168-1.44-3.168-3.168c0-0.625,0.288-1.345,0.672-1.776
			c-0.384-0.528-1.68-1.44-3.744-1.44c-2.4,0-5.376,1.968-5.376,6.576c0,4.033,3.072,6.577,6.816,6.577
			c2.544,0,4.752-0.72,7.489-2.208l-0.432,4.704c-2.256,1.296-4.417,1.92-7.489,1.92C237.118,35.523,232.126,31.202,232.126,24.434z
			"/>
		<path fill="#60A296" d="M274.655,17.186c0,1.775-1.393,3.264-3.121,3.264c-1.584,0-2.64-0.912-3.072-1.872
			c-1.488,0.528-3.216,2.16-4.176,3.984v8.257h3.648v4.32h-12.001v-4.32h3.12V18.53h-3.12v-4.416h8.161v4.752
			c1.776-2.832,3.984-5.137,6.672-5.137C273.358,13.729,274.655,15.313,274.655,17.186z"/>
		<path fill="#60A296" d="M281.709,26.403c0.72,3.264,3.408,4.704,6.913,4.704c2.544,0,5.185-0.816,7.633-2.208l-0.432,4.704
			c-2.208,1.296-4.896,1.92-7.969,1.92c-6.864,0-11.617-4.32-11.617-10.849c0-5.952,4.176-10.945,10.657-10.945
			c6.721,0,10.225,4.513,10.225,10.081c0,0.816-0.096,1.872-0.24,2.593C296.879,26.403,281.709,26.403,281.709,26.403z
			 M281.661,22.754h10.225c-0.096-2.881-1.968-4.801-5.04-4.801C284.542,17.953,282.238,19.297,281.661,22.754z"/>
		<path fill="#60A296" d="M299.805,29.618c0-3.937,3.456-6.337,8.449-6.337c2.16,0,4.176,0.288,5.329,0.576v-1.68
			c0-1.248-0.288-2.208-0.816-2.881c-0.864-1.104-2.256-1.536-4.128-1.536c-0.912,0-1.584,0.145-2.064,0.337
			c0.096,0.287,0.192,0.768,0.192,1.056c0,1.584-1.248,2.736-2.832,2.736s-2.784-1.104-2.784-2.832c0-2.593,2.64-5.329,8.353-5.329
			c3.601,0,6.048,1.009,7.537,2.833c1.104,1.344,1.632,3.168,1.632,5.28v8.977h3.12v4.32h-8.113v-2.305
			c-1.68,1.44-4.224,2.688-7.057,2.688C303.022,35.523,299.805,33.555,299.805,29.618z M313.583,29.859v-3.312
			c-1.2-0.288-2.688-0.48-4.321-0.48c-2.544,0-4.08,1.152-4.08,3.072c0,1.681,1.248,2.593,3.12,2.593S311.998,31.011,313.583,29.859
			z"/>
		<path fill="#60A296" d="M339.118,21.602c-1.68,0-2.832-1.008-2.832-2.592c0-0.337,0-0.625,0.096-0.912
			c-0.864-0.337-1.92-0.528-2.976-0.528c-2.352,0-3.504,1.056-3.504,2.16c0,1.2,1.2,1.824,4.417,2.688
			c5.041,1.344,7.969,2.592,7.969,6.384c0,4.417-4.128,6.769-8.881,6.769c-3.216,0-6.673-1.151-8.065-2.544
			c-0.864-0.864-1.2-1.728-1.2-2.832c0-1.536,1.152-2.832,2.785-2.832c1.44,0,2.832,0.96,2.832,2.784
			c0,0.288-0.048,0.576-0.096,0.864c0.96,0.384,2.304,0.672,3.792,0.672c2.112,0,3.84-0.721,3.84-2.257
			c0-1.056-0.912-1.68-4.128-2.544c-5.809-1.536-8.256-2.928-8.256-6.528c0-3.265,2.688-6.673,8.592-6.673
			c2.544,0,5.617,0.96,7.057,2.4c0.768,0.768,1.152,1.68,1.152,2.688C341.711,20.45,340.655,21.602,339.118,21.602z"/>
		<path fill="#60A296" d="M351.165,26.403c0.72,3.264,3.408,4.704,6.913,4.704c2.544,0,5.185-0.816,7.633-2.208l-0.432,4.704
			c-2.208,1.296-4.896,1.92-7.969,1.92c-6.864,0-11.617-4.32-11.617-10.849c0-5.952,4.176-10.945,10.657-10.945
			c6.721,0,10.225,4.513,10.225,10.081c0,0.816-0.096,1.872-0.24,2.593C366.335,26.403,351.165,26.403,351.165,26.403z
			 M351.117,22.754h10.225c-0.096-2.881-1.968-4.801-5.04-4.801C353.998,17.953,351.694,19.297,351.117,22.754z"/>
		<path fill="#60A296" d="M380.156,30.819h3.216V18.53h-3.216v-4.416h8.449v16.705h3.12v4.32h-11.569V30.819z M381.981,7.441
			c0-1.92,1.68-3.456,3.552-3.456s3.457,1.536,3.457,3.456s-1.68,3.456-3.553,3.456C383.565,10.897,381.981,9.361,381.981,7.441z"/>
		<path fill="#60A296" d="M402.909,17.473c2.016-1.968,4.272-3.744,7.345-3.744c2.496,0,4.32,1.009,5.424,2.688
			c0.72,1.152,1.104,2.593,1.104,4.32v10.081h3.12v4.32h-11.233v-4.32h2.88v-8.785c0-0.863-0.144-1.632-0.432-2.16
			c-0.48-0.912-1.344-1.392-2.592-1.392c-1.824,0-3.744,1.056-5.424,2.448v9.889h2.88v4.32h-11.233v-4.32h3.12V18.529h-3.12v-4.416
			h8.161V17.473z"/>
		<path fill="#60A296" d="M432.86,24.626c0-5.761,4.32-10.897,11.184-10.897c6.961,0,11.186,5.041,11.186,10.897
			c0,5.761-4.32,10.896-11.186,10.896C437.084,35.523,432.86,30.483,432.86,24.626z M449.852,24.626
			c0-3.841-2.399-6.528-5.809-6.528c-3.408,0-5.808,2.688-5.808,6.528s2.399,6.528,5.808,6.528
			C447.453,31.155,449.852,28.466,449.852,24.626z"/>
		<path fill="#60A296" d="M458.876,18.53h-2.447v-4.416h10.752v4.176h-3.023l5.04,10.945l5.04-10.945h-3.168v-4.176h10.705v4.416
			h-2.448l-8.353,16.993h-3.744L458.876,18.53z"/>
		<path fill="#60A296" d="M488.444,26.403c0.721,3.264,3.408,4.704,6.912,4.704c2.545,0,5.186-0.816,7.633-2.208l-0.432,4.704
			c-2.208,1.296-4.896,1.92-7.969,1.92c-6.864,0-11.617-4.32-11.617-10.849c0-5.952,4.177-10.945,10.657-10.945
			c6.721,0,10.226,4.513,10.226,10.081c0,0.816-0.097,1.872-0.24,2.593C503.614,26.403,488.444,26.403,488.444,26.403z
			 M488.396,22.754h10.226c-0.097-2.881-1.969-4.801-5.041-4.801C491.276,17.953,488.972,19.297,488.396,22.754z"/>
		<path fill="#60A296" d="M525.55,17.186c0,1.775-1.393,3.264-3.121,3.264c-1.584,0-2.639-0.912-3.072-1.872
			c-1.488,0.528-3.215,2.16-4.176,3.984v8.257h3.648v4.32h-12.001v-4.32h3.12V18.53h-3.12v-4.416h8.161v4.752
			c1.775-2.832,3.984-5.137,6.672-5.137C524.253,13.729,525.55,15.313,525.55,17.186z"/>
		<path fill="#60A296" d="M527.178,29.618c0-3.937,3.457-6.337,8.449-6.337c2.16,0,4.178,0.288,5.328,0.576v-1.68
			c0-1.248-0.287-2.208-0.814-2.881c-0.865-1.104-2.258-1.536-4.129-1.536c-0.912,0-1.584,0.145-2.064,0.337
			c0.096,0.287,0.191,0.768,0.191,1.056c0,1.584-1.248,2.736-2.832,2.736s-2.783-1.104-2.783-2.832c0-2.593,2.639-5.329,8.352-5.329
			c3.602,0,6.049,1.009,7.537,2.833c1.104,1.344,1.633,3.168,1.633,5.28v8.977h3.119v4.32h-8.111v-2.305
			c-1.682,1.44-4.225,2.688-7.057,2.688C530.395,35.523,527.178,33.555,527.178,29.618z M540.956,29.859v-3.312
			c-1.199-0.288-2.688-0.48-4.32-0.48c-2.543,0-4.08,1.152-4.08,3.072c0,1.681,1.248,2.593,3.121,2.593
			C537.548,31.731,539.372,31.011,540.956,29.859z"/>
		<path fill="#60A296" d="M550.843,30.819h3.266V4.416h-3.266V0h8.498v30.818h3.119v4.32h-11.617V30.819z"/>
		<path fill="#60A296" d="M565.003,30.819h3.266V4.416h-3.266V0h8.498v30.818h3.119v4.32h-11.617V30.819z"/>
		<path fill="#60A296" d="M605.372,21.602c-1.68,0-2.832-1.008-2.832-2.592c0-0.337,0-0.625,0.096-0.912
			c-0.863-0.337-1.92-0.528-2.977-0.528c-2.352,0-3.504,1.056-3.504,2.16c0,1.2,1.201,1.824,4.416,2.688
			c5.041,1.344,7.969,2.592,7.969,6.384c0,4.417-4.127,6.769-8.881,6.769c-3.215,0-6.672-1.151-8.064-2.544
			c-0.863-0.864-1.199-1.728-1.199-2.832c0-1.536,1.152-2.832,2.783-2.832c1.441,0,2.834,0.96,2.834,2.784
			c0,0.288-0.049,0.576-0.098,0.864c0.961,0.384,2.305,0.672,3.793,0.672c2.111,0,3.84-0.721,3.84-2.257
			c0-1.056-0.912-1.68-4.127-2.544c-5.809-1.536-8.258-2.928-8.258-6.528c0-3.265,2.688-6.673,8.594-6.673
			c2.543,0,5.615,0.96,7.057,2.4c0.768,0.768,1.15,1.68,1.15,2.688C607.964,20.45,606.909,21.602,605.372,21.602z"/>
		<path fill="#60A296" d="M615.067,32.739c-0.672-1.104-1.057-2.544-1.057-4.225V18.53h-3.121v-4.416h8.354v13.104
			c0,0.912,0.145,1.584,0.432,2.16c0.48,0.912,1.344,1.393,2.594,1.393c1.822,0,3.744-1.057,5.424-2.448V18.53h-3.264v-4.416h8.496
			v16.705h3.119v4.32h-8.16v-3.36c-2.016,1.968-4.271,3.744-7.344,3.744C617.995,35.523,616.124,34.467,615.067,32.739z"/>
		<path fill="#60A296" d="M657.501,17.186c0,1.775-1.393,3.264-3.121,3.264c-1.584,0-2.641-0.912-3.072-1.872
			c-1.488,0.528-3.217,2.16-4.176,3.984v8.257h3.648v4.32h-12.002v-4.32h3.121V18.53h-3.121v-4.416h8.16v4.752
			c1.777-2.832,3.984-5.137,6.674-5.137C656.204,13.729,657.501,15.313,657.501,17.186z"/>
		<path fill="#60A296" d="M660.858,18.53h-2.447v-4.416h10.752v4.176h-3.023l5.039,10.945l5.041-10.945h-3.168v-4.176h10.705v4.416
			h-2.449l-8.352,16.993h-3.744L660.858,18.53z"/>
		<path fill="#60A296" d="M685.53,30.819h3.217V18.53h-3.217v-4.416h8.449v16.705h3.121v4.32h-11.57L685.53,30.819L685.53,30.819z
			 M687.354,7.441c0-1.92,1.68-3.456,3.553-3.456s3.457,1.536,3.457,3.456s-1.682,3.456-3.553,3.456
			C688.938,10.897,687.354,9.361,687.354,7.441z"/>
		<path fill="#60A296" d="M700.651,18.53h-2.449v-4.416h10.754v4.176h-3.025l5.041,10.945l5.041-10.945h-3.17v-4.176h10.705v4.416
			h-2.447l-8.354,16.993h-3.744L700.651,18.53z"/>
		<path fill="#60A296" d="M724.794,29.618c0-3.937,3.457-6.337,8.449-6.337c2.16,0,4.178,0.288,5.328,0.576v-1.68
			c0-1.248-0.287-2.208-0.814-2.881c-0.865-1.104-2.258-1.536-4.129-1.536c-0.912,0-1.584,0.145-2.064,0.337
			c0.096,0.287,0.191,0.768,0.191,1.056c0,1.584-1.248,2.736-2.832,2.736s-2.783-1.104-2.783-2.832c0-2.593,2.639-5.329,8.352-5.329
			c3.602,0,6.049,1.009,7.537,2.833c1.104,1.344,1.633,3.168,1.633,5.28v8.977h3.119v4.32h-8.111v-2.305
			c-1.682,1.44-4.225,2.688-7.057,2.688C728.01,35.523,724.794,33.555,724.794,29.618z M738.571,29.859v-3.312
			c-1.199-0.288-2.688-0.48-4.32-0.48c-2.543,0-4.08,1.152-4.08,3.072c0,1.681,1.248,2.593,3.121,2.593
			C735.163,31.731,736.987,31.011,738.571,29.859z"/>
		<path fill="#60A296" d="M748.458,30.819h3.266V4.416h-3.266V0h8.498v30.818h3.119v4.32h-11.617V30.819z"/>
	</g>
	<g enable-background="new    ">
		<path fill="#60A296" d="M770.208,16.636h3.357V7.597l-2.826,0.672L770.04,5.75l5.094-1.287h1.482v12.173h3.303v2.519h-9.711
			V16.636z"/>
		<path fill="#60A296" d="M780.981,22.849c1.875-1.483,2.799-2.91,2.854-3.75c-1.035-0.28-1.734-1.092-1.734-2.211
			s1.035-2.127,2.295-2.127c1.287,0,2.406,0.924,2.406,2.771c0,1.735-1.23,4.338-4.926,6.465L780.981,22.849z"/>
		<path fill="#60A296" d="M792.678,7.429c0.195,0.308,0.336,0.672,0.336,1.036c0,1.007-0.84,1.847-1.848,1.847
			c-1.006,0-1.902-0.867-1.902-2.211c0-0.504,0.225-1.063,0.645-1.595c0.951-1.231,2.91-2.268,5.4-2.268
			c3.666,0,5.793,2.155,5.793,4.282c0,2.435-1.932,3.722-4.479,5.149c-2.098,1.175-3.217,2.015-3.889,3.05h6.324v-2.351h2.518v4.785
			h-12.228l-0.531-1.511c1.119-2.575,3.414-4.422,5.961-5.933c1.846-1.092,3.189-1.932,3.189-3.106c0-1.063-1.203-1.819-2.77-1.819
			C794.106,6.785,793.155,7.037,792.678,7.429z"/>
	</g>
</g>
</svg>
