<?xml version="1.0" encoding="utf-8"?>
<!-- Generator: Adobe Illustrator 17.0.1, SVG Export Plug-In . SVG Version: 6.00 Build 0)  -->
<!DOCTYPE svg PUBLIC "-//W3C//DTD SVG 1.1//EN" "http://www.w3.org/Graphics/SVG/1.1/DTD/svg11.dtd">
<svg version="1.1" id="Layer_1" xmlns="http://www.w3.org/2000/svg" xmlns:xlink="http://www.w3.org/1999/xlink" x="0px" y="0px"
	 width="627.667px" height="95.847px" viewBox="0 0 627.667 95.847" enable-background="new 0 0 627.667 95.847"
	 xml:space="preserve">
<g id="_x2A_7.0_HCP_and_patient_support">
	<g enable-background="new    ">
		<path fill="#60A296" d="M0.288,19.923c0-9.266,6.721-16.37,16.322-16.37c9.553,0,16.081,7.153,16.081,16.37
			c0,9.265-6.72,16.369-16.321,16.369C6.817,36.292,0.288,29.14,0.288,19.923z M27.074,19.923c0-6.577-4.464-11.329-10.561-11.329
			c-6.145,0-10.609,4.704-10.609,11.329c0,6.576,4.464,11.328,10.609,11.328C22.61,31.251,27.074,26.547,27.074,19.923z"/>
		<path fill="#60A296" d="M36.144,40.805h3.12V19.107h-3.12v-4.416h8.161v2.399c1.632-1.536,3.408-2.784,6.241-2.784
			c5.472,0,9.601,4.465,9.601,10.801c0,6.097-4.368,10.993-9.937,10.993c-2.256,0-4.128-0.815-5.712-2.016v6.721h3.408v4.32H36.145
			L36.144,40.805L36.144,40.805z M54.769,25.155c0-4.033-2.4-6.337-5.376-6.337c-1.968,0-3.504,0.864-4.896,2.112v9.024
			c1.344,0.96,2.976,1.633,4.896,1.633C52.177,31.588,54.769,29.331,54.769,25.155z"/>
		<path fill="#60A296" d="M67.008,33.22c-0.48-0.864-0.72-1.969-0.72-3.312V19.107h-4.08v-4.416h4.08v-4.417l5.185-2.256v6.673
			h6.385v4.416h-6.385V28.9c0,0.672,0.096,1.104,0.336,1.536c0.384,0.672,1.152,1.008,2.208,1.008c1.344,0,2.88-0.528,4.128-1.104
			l-0.432,4.513c-1.44,0.721-3.121,1.248-5.041,1.248C70.128,36.1,68.064,35.236,67.008,33.22z"/>
		<path fill="#60A296" d="M81.023,31.396h3.216V19.107h-3.216v-4.416h8.449v16.705h3.12v4.32H81.023V31.396z M82.847,8.018
			c0-1.92,1.68-3.456,3.552-3.456s3.457,1.536,3.457,3.456s-1.68,3.456-3.553,3.456C84.431,11.474,82.847,9.938,82.847,8.018z"/>
		<path fill="#60A296" d="M110.689,22.179c-1.68,0-2.832-1.008-2.832-2.592c0-0.337,0-0.625,0.096-0.912
			c-0.864-0.337-1.92-0.528-2.976-0.528c-2.353,0-3.504,1.056-3.504,2.16c0,1.2,1.2,1.824,4.417,2.688
			c5.041,1.344,7.969,2.592,7.969,6.384c0,4.417-4.128,6.769-8.881,6.769c-3.216,0-6.673-1.151-8.065-2.544
			c-0.864-0.864-1.2-1.728-1.2-2.832c0-1.536,1.152-2.832,2.784-2.832c1.44,0,2.832,0.96,2.832,2.784
			c0,0.288-0.048,0.576-0.096,0.864c0.96,0.384,2.304,0.672,3.792,0.672c2.112,0,3.84-0.721,3.84-2.257
			c0-1.056-0.912-1.68-4.128-2.544c-5.809-1.536-8.257-2.928-8.257-6.528c0-3.265,2.688-6.673,8.593-6.673
			c2.544,0,5.617,0.96,7.057,2.4c0.768,0.768,1.152,1.68,1.152,2.688C113.281,21.027,112.225,22.179,110.689,22.179z"/>
		<path fill="#60A296" d="M121.007,33.22c-0.48-0.864-0.72-1.969-0.72-3.312V19.107h-4.08v-4.416h4.08v-4.417l5.185-2.256v6.673
			h6.385v4.416h-6.385V28.9c0,0.672,0.096,1.104,0.336,1.536c0.384,0.672,1.152,1.008,2.208,1.008c1.344,0,2.88-0.528,4.128-1.104
			l-0.432,4.513c-1.44,0.721-3.121,1.248-5.041,1.248C124.128,36.1,122.064,35.236,121.007,33.22z"/>
		<path fill="#60A296" d="M135.166,30.195c0-3.937,3.456-6.337,8.449-6.337c2.16,0,4.176,0.288,5.329,0.576v-1.68
			c0-1.248-0.288-2.208-0.816-2.881c-0.864-1.104-2.256-1.536-4.128-1.536c-0.912,0-1.584,0.145-2.064,0.337
			c0.096,0.287,0.192,0.768,0.192,1.056c0,1.584-1.248,2.736-2.832,2.736s-2.784-1.104-2.784-2.832c0-2.593,2.64-5.329,8.353-5.329
			c3.601,0,6.048,1.009,7.537,2.833c1.104,1.344,1.632,3.168,1.632,5.28v8.977h3.12v4.32h-8.113V33.41
			c-1.68,1.44-4.224,2.688-7.057,2.688C138.382,36.1,135.166,34.132,135.166,30.195z M148.944,30.436v-3.312
			c-1.2-0.288-2.688-0.48-4.321-0.48c-2.544,0-4.08,1.152-4.08,3.072c0,1.681,1.248,2.593,3.12,2.593S147.359,31.588,148.944,30.436
			z"/>
		<path fill="#60A296" d="M159.743,19.107h-2.448v-4.416h10.753v4.176h-3.024l5.041,10.945l5.041-10.945h-3.168v-4.176h10.705v4.416
			h-2.448L171.842,36.1h-3.744L159.743,19.107z"/>
		<path fill="#60A296" d="M184.414,31.396h3.216V19.107h-3.216v-4.416h8.449v16.705h3.12v4.32h-11.569V31.396z M186.238,8.018
			c0-1.92,1.68-3.456,3.552-3.456s3.457,1.536,3.457,3.456s-1.68,3.456-3.553,3.456C187.822,11.474,186.238,9.938,186.238,8.018z"/>
		<path fill="#60A296" d="M207.166,18.05c2.016-1.968,4.272-3.744,7.345-3.744c2.496,0,4.32,1.009,5.424,2.688
			c0.72,1.152,1.104,2.593,1.104,4.32v10.081h3.12v4.32h-11.233v-4.32h2.88V22.61c0-0.863-0.144-1.632-0.432-2.16
			c-0.48-0.912-1.344-1.392-2.592-1.392c-1.824,0-3.744,1.056-5.424,2.448v9.889h2.88v4.32h-11.233v-4.32h3.12V19.106h-3.12V14.69
			h8.161V18.05z"/>
		<path fill="#60A296" d="M236.109,30.867h2.736l7.873-21.938h-3.456V4.128h17.857v4.801h-3.457l7.873,21.938h2.736v4.849h-12.144
			v-4.801h3.648l-1.776-5.184H246.19l-1.776,5.184h3.84v4.801h-12.145L236.109,30.867L236.109,30.867z M256.511,21.219
			l-4.417-12.434l-4.417,12.434H256.511z"/>
		<path fill="#60A296" d="M270.525,25.011c0-5.473,4.416-10.705,10.657-10.705c5.76,0,9.553,3.744,9.553,7.057
			c0,2.208-1.488,3.553-3.36,3.553c-1.728,0-3.168-1.44-3.168-3.168c0-0.625,0.288-1.345,0.672-1.776
			c-0.384-0.528-1.68-1.44-3.744-1.44c-2.4,0-5.376,1.968-5.376,6.576c0,4.033,3.072,6.577,6.816,6.577
			c2.544,0,4.752-0.72,7.489-2.208l-0.432,4.704c-2.256,1.296-4.417,1.92-7.489,1.92C275.517,36.1,270.525,31.779,270.525,25.011z"
			/>
		<path fill="#60A296" d="M294.141,25.011c0-5.473,4.416-10.705,10.657-10.705c5.76,0,9.553,3.744,9.553,7.057
			c0,2.208-1.488,3.553-3.36,3.553c-1.728,0-3.168-1.44-3.168-3.168c0-0.625,0.288-1.345,0.672-1.776
			c-0.384-0.528-1.68-1.44-3.744-1.44c-2.4,0-5.376,1.968-5.376,6.576c0,4.033,3.072,6.577,6.816,6.577
			c2.544,0,4.752-0.72,7.489-2.208l-0.432,4.704c-2.256,1.296-4.417,1.92-7.489,1.92C299.133,36.1,294.141,31.779,294.141,25.011z"
			/>
		<path fill="#60A296" d="M323.23,26.98c0.72,3.264,3.408,4.704,6.913,4.704c2.544,0,5.185-0.816,7.633-2.208l-0.432,4.704
			c-2.208,1.296-4.896,1.92-7.969,1.92c-6.864,0-11.617-4.32-11.617-10.849c0-5.952,4.176-10.945,10.657-10.945
			c6.721,0,10.225,4.513,10.225,10.081c0,0.816-0.096,1.872-0.24,2.593C338.4,26.98,323.23,26.98,323.23,26.98z M323.182,23.331
			h10.225c-0.096-2.881-1.968-4.801-5.041-4.801C326.062,18.53,323.758,19.874,323.182,23.331z"/>
		<path fill="#60A296" d="M357.023,22.179c-1.68,0-2.832-1.008-2.832-2.592c0-0.337,0-0.625,0.096-0.912
			c-0.864-0.337-1.92-0.528-2.976-0.528c-2.353,0-3.504,1.056-3.504,2.16c0,1.2,1.2,1.824,4.417,2.688
			c5.041,1.344,7.969,2.592,7.969,6.384c0,4.417-4.128,6.769-8.881,6.769c-3.216,0-6.673-1.151-8.065-2.544
			c-0.864-0.864-1.2-1.728-1.2-2.832c0-1.536,1.152-2.832,2.784-2.832c1.44,0,2.832,0.96,2.832,2.784
			c0,0.288-0.048,0.576-0.096,0.864c0.96,0.384,2.304,0.672,3.792,0.672c2.112,0,3.84-0.721,3.84-2.257
			c0-1.056-0.912-1.68-4.128-2.544c-5.809-1.536-8.257-2.928-8.257-6.528c0-3.265,2.688-6.673,8.593-6.673
			c2.544,0,5.617,0.96,7.057,2.4c0.768,0.768,1.152,1.68,1.152,2.688C359.615,21.027,358.559,22.179,357.023,22.179z"/>
		<path fill="#60A296" d="M379.007,22.179c-1.68,0-2.832-1.008-2.832-2.592c0-0.337,0-0.625,0.096-0.912
			c-0.864-0.337-1.92-0.528-2.976-0.528c-2.352,0-3.504,1.056-3.504,2.16c0,1.2,1.2,1.824,4.417,2.688
			c5.041,1.344,7.969,2.592,7.969,6.384c0,4.417-4.128,6.769-8.881,6.769c-3.216,0-6.673-1.151-8.065-2.544
			c-0.864-0.864-1.2-1.728-1.2-2.832c0-1.536,1.152-2.832,2.785-2.832c1.44,0,2.832,0.96,2.832,2.784
			c0,0.288-0.048,0.576-0.096,0.864c0.96,0.384,2.304,0.672,3.792,0.672c2.112,0,3.84-0.721,3.84-2.257
			c0-1.056-0.912-1.68-4.128-2.544c-5.809-1.536-8.256-2.928-8.256-6.528c0-3.265,2.688-6.673,8.592-6.673
			c2.544,0,5.617,0.96,7.057,2.4c0.768,0.768,1.152,1.68,1.152,2.688C381.599,21.027,380.543,22.179,379.007,22.179z"/>
		<path fill="#60A296" d="M396.572,28.947c0-2.256,1.345-3.744,3.312-3.744c2.112,0,3.456,1.584,3.456,3.12
			c0,0.768-0.144,1.344-0.432,1.92c1.152,0.816,2.928,1.345,4.992,1.345c3.456,0,5.665-1.536,5.665-4.272
			c0-2.593-2.641-3.841-5.809-4.944c-5.856-2.112-9.985-3.984-9.985-9.841c0-5.041,4.08-8.978,10.465-8.978
			c5.904,0,10.465,3.024,10.465,6.817c0,2.256-1.392,3.552-3.216,3.552c-2.208,0-3.456-1.632-3.456-3.216
			c0-0.769,0.144-1.104,0.336-1.488c-0.864-0.528-2.209-0.96-4.177-0.96c-3.12,0-4.944,1.584-4.944,3.888
			c0,2.593,2.641,3.744,5.809,4.896c5.664,2.017,9.936,3.984,9.936,9.841c0,6.001-4.656,9.409-11.136,9.409
			C401.613,36.292,396.572,32.787,396.572,28.947z"/>
		<path fill="#60A296" d="M422.636,25.203c0-5.761,4.32-10.897,11.186-10.897c6.959,0,11.184,5.041,11.184,10.897
			c0,5.761-4.32,10.896-11.184,10.896C426.861,36.1,422.636,31.06,422.636,25.203z M439.63,25.203c0-3.841-2.4-6.528-5.809-6.528
			s-5.809,2.688-5.809,6.528s2.4,6.528,5.809,6.528S439.63,29.043,439.63,25.203z"/>
		<path fill="#60A296" d="M447.884,31.396h3.264V4.993h-3.264V0.577h8.496v30.818h3.121v4.32h-11.617L447.884,31.396L447.884,31.396
			z"/>
		<path fill="#60A296" d="M465.261,33.316c-0.672-1.104-1.057-2.544-1.057-4.225v-9.984h-3.121v-4.416h8.354v13.104
			c0,0.912,0.145,1.584,0.432,2.16c0.48,0.912,1.344,1.393,2.594,1.393c1.822,0,3.744-1.057,5.424-2.448v-9.793h-3.264v-4.416h8.496
			v16.705h3.119v4.32h-8.16v-3.36c-2.016,1.968-4.271,3.744-7.344,3.744C468.189,36.1,466.318,35.044,465.261,33.316z"/>
		<path fill="#60A296" d="M492.716,33.22c-0.48-0.864-0.721-1.969-0.721-3.312V19.107h-4.08v-4.416h4.08v-4.417l5.186-2.256v6.673
			h6.383v4.416h-6.383V28.9c0,0.672,0.096,1.104,0.336,1.536c0.383,0.672,1.15,1.008,2.207,1.008c1.344,0,2.881-0.528,4.129-1.104
			l-0.432,4.513c-1.441,0.721-3.121,1.248-5.041,1.248C495.835,36.1,493.771,35.236,492.716,33.22z"/>
		<path fill="#60A296" d="M506.732,31.396h3.215V19.107h-3.215v-4.416h8.447v16.705h3.121v4.32h-11.568V31.396z M508.556,8.018
			c0-1.92,1.68-3.456,3.551-3.456c1.873,0,3.457,1.536,3.457,3.456s-1.68,3.456-3.553,3.456
			C510.14,11.474,508.556,9.938,508.556,8.018z"/>
		<path fill="#60A296" d="M521.466,25.203c0-5.761,4.32-10.897,11.186-10.897c6.961,0,11.186,5.041,11.186,10.897
			c0,5.761-4.32,10.896-11.186,10.896C525.691,36.1,521.466,31.06,521.466,25.203z M538.46,25.203c0-3.841-2.4-6.528-5.809-6.528
			s-5.809,2.688-5.809,6.528s2.4,6.528,5.809,6.528S538.46,29.043,538.46,25.203z"/>
		<path fill="#60A296" d="M555.114,18.05c2.018-1.968,4.273-3.744,7.346-3.744c2.496,0,4.32,1.009,5.424,2.688
			c0.721,1.152,1.105,2.593,1.105,4.32v10.081h3.119v4.32h-11.232v-4.32h2.881V22.61c0-0.863-0.145-1.632-0.434-2.16
			c-0.479-0.912-1.344-1.392-2.592-1.392c-1.824,0-3.744,1.056-5.424,2.448v9.889h2.879v4.32h-11.232v-4.32h3.121V19.106h-3.121
			V14.69h8.16V18.05z"/>
		<path fill="#60A296" d="M589.437,22.179c-1.68,0-2.832-1.008-2.832-2.592c0-0.337,0-0.625,0.096-0.912
			c-0.865-0.337-1.92-0.528-2.977-0.528c-2.352,0-3.504,1.056-3.504,2.16c0,1.2,1.199,1.824,4.416,2.688
			c5.041,1.344,7.969,2.592,7.969,6.384c0,4.417-4.129,6.769-8.881,6.769c-3.217,0-6.672-1.151-8.064-2.544
			c-0.865-0.864-1.201-1.728-1.201-2.832c0-1.536,1.152-2.832,2.785-2.832c1.439,0,2.832,0.96,2.832,2.784
			c0,0.288-0.049,0.576-0.096,0.864c0.959,0.384,2.305,0.672,3.793,0.672c2.111,0,3.84-0.721,3.84-2.257
			c0-1.056-0.912-1.68-4.129-2.544c-5.809-1.536-8.256-2.928-8.256-6.528c0-3.265,2.688-6.673,8.592-6.673
			c2.545,0,5.617,0.96,7.057,2.4c0.768,0.768,1.152,1.68,1.152,2.688C592.028,21.027,590.972,22.179,589.437,22.179z"/>
		<path fill="#60A296" d="M597.306,19.587c0-2.112,1.729-3.841,3.842-3.841c2.111,0,3.84,1.729,3.84,3.841
			c0,2.111-1.729,3.84-3.84,3.84C599.034,23.427,597.306,21.698,597.306,19.587z M597.306,32.26c0-2.112,1.729-3.841,3.842-3.841
			c2.111,0,3.84,1.729,3.84,3.841s-1.729,3.84-3.84,3.84C599.034,36.1,597.306,34.372,597.306,32.26z"/>
	</g>
	<g enable-background="new    ">
		<path fill="#60A296" d="M0,78.947c0-2.256,1.344-3.744,3.312-3.744c2.112,0,3.457,1.584,3.457,3.12
			c0,0.768-0.144,1.344-0.432,1.92c1.152,0.816,2.928,1.345,4.992,1.345c3.457,0,5.665-1.536,5.665-4.272
			c0-2.593-2.64-3.841-5.809-4.944C5.329,70.26,1.2,68.388,1.2,62.531c0-5.041,4.081-8.978,10.465-8.978
			c5.905,0,10.465,3.024,10.465,6.817c0,2.256-1.392,3.552-3.216,3.552c-2.208,0-3.457-1.632-3.457-3.216
			c0-0.769,0.144-1.104,0.336-1.488c-0.864-0.528-2.208-0.96-4.176-0.96c-3.12,0-4.944,1.584-4.944,3.888
			c0,2.593,2.64,3.744,5.809,4.896c5.665,2.017,9.937,3.984,9.937,9.841c0,6.001-4.656,9.409-11.137,9.409
			C5.04,86.292,0,82.787,0,78.947z"/>
		<path fill="#60A296" d="M29.376,83.316c-0.672-1.104-1.056-2.544-1.056-4.225v-9.984H25.2v-4.416h8.353v13.104
			c0,0.912,0.144,1.584,0.432,2.16c0.48,0.912,1.344,1.393,2.592,1.393c1.824,0,3.744-1.057,5.424-2.448v-9.793h-3.264v-4.416h8.497
			v16.705h3.121v4.32h-8.161v-3.36c-2.017,1.968-4.272,3.744-7.345,3.744C32.304,86.1,30.432,85.044,29.376,83.316z"/>
		<path fill="#60A296" d="M52.847,90.805h3.12V69.107h-3.12v-4.416h8.161v2.399c1.632-1.536,3.408-2.784,6.241-2.784
			c5.473,0,9.601,4.465,9.601,10.801c0,6.097-4.368,10.993-9.937,10.993c-2.256,0-4.128-0.815-5.713-2.016v6.721h3.409v4.32H52.847
			V90.805z M71.473,75.155c0-4.033-2.4-6.337-5.376-6.337c-1.968,0-3.504,0.864-4.896,2.112v9.024
			c1.344,0.96,2.977,1.633,4.896,1.633C68.881,81.588,71.473,79.331,71.473,75.155z"/>
		<path fill="#60A296" d="M79.727,90.805h3.12V69.107h-3.12v-4.416h8.161v2.399c1.632-1.536,3.408-2.784,6.241-2.784
			c5.473,0,9.601,4.465,9.601,10.801c0,6.097-4.368,10.993-9.937,10.993c-2.256,0-4.128-0.815-5.713-2.016v6.721h3.409v4.32H79.727
			V90.805z M98.353,75.155c0-4.033-2.4-6.337-5.376-6.337c-1.968,0-3.504,0.864-4.896,2.112v9.024
			c1.344,0.96,2.977,1.633,4.896,1.633C95.76,81.588,98.353,79.331,98.353,75.155z"/>
		<path fill="#60A296" d="M106.991,75.203c0-5.761,4.32-10.897,11.185-10.897c6.961,0,11.185,5.041,11.185,10.897
			c0,5.761-4.32,10.896-11.185,10.896C111.215,86.1,106.991,81.06,106.991,75.203z M123.985,75.203c0-3.841-2.4-6.528-5.809-6.528
			c-3.408,0-5.808,2.688-5.808,6.528s2.4,6.528,5.808,6.528C121.585,81.732,123.985,79.043,123.985,75.203z"/>
		<path fill="#60A296" d="M151.201,67.763c0,1.775-1.393,3.264-3.121,3.264c-1.584,0-2.64-0.912-3.072-1.872
			c-1.488,0.528-3.216,2.16-4.176,3.984v8.257h3.648v4.32h-12.001v-4.32h3.12V69.107h-3.12v-4.416h8.161v4.752
			c1.776-2.832,3.984-5.137,6.672-5.137C149.904,64.306,151.201,65.89,151.201,67.763z"/>
		<path fill="#60A296" d="M157.103,83.22c-0.48-0.864-0.72-1.969-0.72-3.312V69.108h-4.08v-4.416h4.08v-4.417l5.185-2.256v6.673
			h6.385v4.416h-6.385v9.793c0,0.672,0.096,1.104,0.336,1.536c0.384,0.672,1.152,1.008,2.208,1.008c1.344,0,2.88-0.528,4.128-1.104
			l-0.432,4.513c-1.44,0.721-3.121,1.248-5.041,1.248C160.223,86.1,158.159,85.236,157.103,83.22z"/>
		<path fill="#60A296" d="M187.246,76.98c0.72,3.264,3.408,4.704,6.913,4.704c2.544,0,5.185-0.816,7.633-2.208l-0.432,4.704
			c-2.208,1.296-4.896,1.92-7.969,1.92c-6.864,0-11.617-4.32-11.617-10.849c0-5.952,4.176-10.945,10.657-10.945
			c6.721,0,10.225,4.513,10.225,10.081c0,0.816-0.096,1.872-0.24,2.593L187.246,76.98L187.246,76.98z M187.198,73.331h10.225
			c-0.096-2.881-1.968-4.801-5.04-4.801C190.078,68.53,187.774,69.874,187.198,73.331z"/>
		<path fill="#60A296" d="M206.83,69.107h-2.448v-4.416h10.753v4.176h-3.024l5.041,10.945l5.041-10.945h-3.168v-4.176h10.705v4.416
			h-2.448L218.929,86.1h-3.744L206.83,69.107z"/>
		<path fill="#60A296" d="M236.398,76.98c0.72,3.264,3.408,4.704,6.913,4.704c2.544,0,5.185-0.816,7.633-2.208l-0.432,4.704
			c-2.208,1.296-4.896,1.92-7.969,1.92c-6.864,0-11.617-4.32-11.617-10.849c0-5.952,4.176-10.945,10.657-10.945
			c6.721,0,10.225,4.513,10.225,10.081c0,0.816-0.096,1.872-0.24,2.593L236.398,76.98L236.398,76.98z M236.35,73.331h10.225
			c-0.096-2.881-1.968-4.801-5.04-4.801C239.231,68.53,236.926,69.874,236.35,73.331z"/>
		<path fill="#60A296" d="M273.504,67.763c0,1.775-1.393,3.264-3.121,3.264c-1.584,0-2.64-0.912-3.072-1.872
			c-1.488,0.528-3.216,2.16-4.176,3.984v8.257h3.648v4.32h-12.001v-4.32h3.12V69.107h-3.12v-4.416h8.161v4.752
			c1.776-2.832,3.984-5.137,6.672-5.137C272.207,64.306,273.504,65.89,273.504,67.763z"/>
		<path fill="#60A296" d="M279.886,95.269c-2.784,0-4.512-1.632-4.512-3.312c0-1.775,1.2-2.688,2.592-2.688
			c1.248,0,1.968,0.768,2.304,1.584c0.528-0.145,1.104-0.48,1.68-1.248c0.336-0.433,0.624-0.96,0.96-1.633l1.584-3.312
			l-7.489-15.554h-2.592V64.69h10.849v4.176h-3.072l4.849,11.089l4.896-11.089h-3.265V64.69h10.801v4.416h-2.544l-9.841,20.882
			c-0.48,0.96-1.008,1.824-1.632,2.544C283.918,94.309,281.998,95.269,279.886,95.269z"/>
		<path fill="#60A296" d="M327.166,72.179c-1.68,0-2.832-1.008-2.832-2.592c0-0.337,0-0.625,0.096-0.912
			c-0.864-0.337-1.92-0.528-2.976-0.528c-2.353,0-3.504,1.056-3.504,2.16c0,1.2,1.2,1.824,4.417,2.688
			c5.041,1.344,7.969,2.592,7.969,6.384c0,4.417-4.128,6.769-8.881,6.769c-3.216,0-6.673-1.151-8.065-2.544
			c-0.864-0.864-1.2-1.728-1.2-2.832c0-1.536,1.152-2.832,2.784-2.832c1.44,0,2.832,0.96,2.832,2.784
			c0,0.288-0.048,0.576-0.096,0.864c0.96,0.384,2.304,0.672,3.792,0.672c2.112,0,3.84-0.721,3.84-2.257
			c0-1.056-0.912-1.68-4.128-2.544c-5.809-1.536-8.257-2.928-8.257-6.528c0-3.265,2.688-6.673,8.593-6.673
			c2.544,0,5.617,0.96,7.057,2.4c0.768,0.768,1.152,1.68,1.152,2.688C329.758,71.027,328.702,72.179,327.166,72.179z"/>
		<path fill="#60A296" d="M337.485,83.22c-0.48-0.864-0.72-1.969-0.72-3.312V69.108h-4.08v-4.416h4.08v-4.417l5.185-2.256v6.673
			h6.385v4.416h-6.385v9.793c0,0.672,0.096,1.104,0.336,1.536c0.384,0.672,1.152,1.008,2.208,1.008c1.344,0,2.88-0.528,4.128-1.104
			l-0.432,4.513c-1.44,0.721-3.121,1.248-5.041,1.248C340.605,86.1,338.541,85.236,337.485,83.22z"/>
		<path fill="#60A296" d="M356.589,76.98c0.72,3.264,3.408,4.704,6.913,4.704c2.544,0,5.185-0.816,7.633-2.208l-0.432,4.704
			c-2.208,1.296-4.896,1.92-7.969,1.92c-6.864,0-11.617-4.32-11.617-10.849c0-5.952,4.176-10.945,10.657-10.945
			c6.721,0,10.225,4.513,10.225,10.081c0,0.816-0.096,1.872-0.24,2.593L356.589,76.98L356.589,76.98z M356.541,73.331h10.225
			c-0.096-2.881-1.968-4.801-5.04-4.801C359.421,68.53,357.117,69.874,356.541,73.331z"/>
		<path fill="#60A296" d="M374.732,90.805h3.12V69.107h-3.12v-4.416h8.161v2.399c1.632-1.536,3.408-2.784,6.241-2.784
			c5.473,0,9.601,4.465,9.601,10.801c0,6.097-4.368,10.993-9.937,10.993c-2.256,0-4.128-0.815-5.713-2.016v6.721h3.409v4.32h-11.761
			v-4.32L374.732,90.805L374.732,90.805z M393.358,75.155c0-4.033-2.4-6.337-5.376-6.337c-1.968,0-3.504,0.864-4.896,2.112v9.024
			c1.344,0.96,2.977,1.633,4.896,1.633C390.765,81.588,393.358,79.331,393.358,75.155z"/>
		<path fill="#60A296" d="M412.555,75.203c0-5.761,4.32-10.897,11.186-10.897c6.959,0,11.184,5.041,11.184,10.897
			c0,5.761-4.32,10.896-11.184,10.896C416.78,86.1,412.555,81.06,412.555,75.203z M429.55,75.203c0-3.841-2.4-6.528-5.809-6.528
			s-5.809,2.688-5.809,6.528s2.401,6.528,5.809,6.528S429.55,79.043,429.55,75.203z"/>
		<path fill="#60A296" d="M448.845,54.753c-0.432,0.192-0.865,0.48-1.105,0.864c-0.623,0.912-0.959,2.208-0.959,4.225v4.849h5.473
			v4.416h-5.473v12.289h4.08v4.32h-12.434v-4.32h3.168V69.107h-3.6v-4.416h3.6V60.61c0-3.84,0.674-6.24,2.689-8.208
			c1.488-1.44,3.408-2.209,5.76-2.209c2.736,0,4.656,1.44,4.656,3.553c0,1.872-1.344,2.977-2.832,2.977
			C450.237,56.722,449.421,55.858,448.845,54.753z"/>
		<path fill="#60A296" d="M468.763,83.22c-0.48-0.864-0.721-1.969-0.721-3.312V69.108h-4.08v-4.416h4.08v-4.417l5.186-2.256v6.673
			h6.383v4.416h-6.383v9.793c0,0.672,0.096,1.104,0.336,1.536c0.383,0.672,1.15,1.008,2.207,1.008c1.344,0,2.881-0.528,4.129-1.104
			l-0.432,4.513c-1.441,0.721-3.121,1.248-5.041,1.248C471.882,86.1,469.818,85.236,468.763,83.22z"/>
		<path fill="#60A296" d="M482.489,54.993v-4.416h8.354v17.281c1.969-1.872,4.176-3.553,7.152-3.553
			c2.256,0,4.033,0.816,5.137,2.257c0.912,1.2,1.393,2.832,1.393,4.752v10.081h3.119v4.32h-11.232v-4.32h2.881V72.61
			c0-1.151-0.24-1.968-0.672-2.544c-0.529-0.672-1.346-1.008-2.354-1.008c-1.824,0-3.744,1.056-5.424,2.448v9.889h2.881v4.32H482.49
			v-4.32h3.121V54.993H482.489z"/>
		<path fill="#60A296" d="M515.179,76.98c0.719,3.264,3.408,4.704,6.912,4.704c2.545,0,5.184-0.816,7.633-2.208l-0.432,4.704
			c-2.209,1.296-4.896,1.92-7.969,1.92c-6.865,0-11.617-4.32-11.617-10.849c0-5.952,4.176-10.945,10.656-10.945
			c6.721,0,10.225,4.513,10.225,10.081c0,0.816-0.096,1.872-0.24,2.593L515.179,76.98L515.179,76.98z M515.13,73.331h10.225
			c-0.096-2.881-1.967-4.801-5.039-4.801C518.011,68.53,515.706,69.874,515.13,73.331z"/>
		<path fill="#60A296" d="M545.946,69.107h-3.072v-4.416h10.801v4.32h-2.977l2.881,10.32l4.943-12.48h3.6l4.896,12.48l2.881-10.32
			h-3.457v-4.32h10.803v4.416h-3.072l-5.186,17.426h-3.695l-5.232-12.865l-5.232,12.865h-3.697L545.946,69.107z"/>
		<path fill="#60A296" d="M578.681,80.195c0-3.937,3.457-6.337,8.449-6.337c2.16,0,4.178,0.288,5.328,0.576v-1.68
			c0-1.248-0.287-2.208-0.814-2.881c-0.865-1.104-2.258-1.536-4.129-1.536c-0.912,0-1.584,0.145-2.064,0.337
			c0.096,0.287,0.191,0.768,0.191,1.056c0,1.584-1.248,2.736-2.832,2.736s-2.783-1.104-2.783-2.832c0-2.593,2.639-5.329,8.352-5.329
			c3.602,0,6.049,1.009,7.537,2.833c1.104,1.344,1.633,3.168,1.633,5.28v8.977h3.119v4.32h-8.111v-2.305
			c-1.682,1.44-4.225,2.688-7.057,2.688C581.898,86.1,578.681,84.132,578.681,80.195z M592.458,80.436v-3.312
			c-1.199-0.288-2.688-0.48-4.32-0.48c-2.543,0-4.08,1.152-4.08,3.072c0,1.681,1.248,2.593,3.121,2.593
			C589.05,82.308,590.874,81.588,592.458,80.436z"/>
		<path fill="#60A296" d="M606.282,95.269c-2.785,0-4.514-1.632-4.514-3.312c0-1.775,1.201-2.688,2.592-2.688
			c1.248,0,1.969,0.768,2.305,1.584c0.529-0.145,1.104-0.48,1.68-1.248c0.336-0.433,0.625-0.96,0.961-1.633l1.584-3.312
			l-7.488-15.554h-2.592V64.69h10.847v4.176h-3.072l4.85,11.089l4.896-11.089h-3.266V64.69h10.801v4.416h-2.543l-9.842,20.882
			c-0.48,0.96-1.008,1.824-1.631,2.544C610.314,94.309,608.394,95.269,606.282,95.269z"/>
	</g>
</g>
</svg>
