<?xml version="1.0" encoding="utf-8"?>
<!-- Generator: Adobe Illustrator 17.0.1, SVG Export Plug-In . SVG Version: 6.00 Build 0)  -->
<!DOCTYPE svg PUBLIC "-//W3C//DTD SVG 1.1//EN" "http://www.w3.org/Graphics/SVG/1.1/DTD/svg11.dtd">
<svg version="1.1" id="Layer_1" xmlns="http://www.w3.org/2000/svg" xmlns:xlink="http://www.w3.org/1999/xlink" x="0px" y="0px"
	 width="361px" height="411.602px" viewBox="0 0 361 411.602" style="enable-background:new 0 0 361 411.602;" xml:space="preserve"
	>
<style type="text/css">
	.st0{fill:#FFFFFF;}
	.st1{fill:#6D6E70;stroke:#6D6E70;stroke-width:2;stroke-miterlimit:10;}
	.st2{fill:#6E6E6E;}
</style>
<g>
	<path class="st0" d="M206.5,45.897c0-20.229-28.647-27.931-48.879-27.931c-20.226,0-48.879,7.702-48.879,27.931v37.9l97.759,0.068
		V45.897z"/>
	<path class="st1" d="M304.259,59.862h-51.934v13.966h44.951v321.207H17.966V73.828h44.952V59.862H10.983
		C7.127,59.862,4,62.989,4,66.845v335.172C4,405.877,7.127,409,10.983,409h293.276c3.859,0,6.983-3.123,6.983-6.983V66.845
		C311.241,62.989,308.118,59.862,304.259,59.862z"/>
	<path class="st2" d="M220.466,45.897C220.466,17.573,185.947,4,157.621,4c-27.87,0-62.845,14.03-62.845,41.897V88.11v2.619
		c0,3.836,3.096,6.956,6.932,6.983l111.721,0.17c0.02,0,0.04,0,0.054,0c1.841,0,3.614-0.73,4.924-2.028
		c1.316-1.309,2.059-3.093,2.059-4.954v-3.225V45.897z M108.741,45.897c0-20.229,28.654-27.931,48.879-27.931
		c20.233,0,48.879,7.702,48.879,27.931v37.969l-97.759-0.068V45.897z"/>
</g>
</svg>
