<?xml version="1.0" encoding="utf-8"?>
<!-- Generator: Adobe Illustrator 17.0.1, SVG Export Plug-In . SVG Version: 6.00 Build 0)  -->
<!DOCTYPE svg PUBLIC "-//W3C//DTD SVG 1.1//EN" "http://www.w3.org/Graphics/SVG/1.1/DTD/svg11.dtd">
<svg version="1.1" id="Layer_1" xmlns="http://www.w3.org/2000/svg" xmlns:xlink="http://www.w3.org/1999/xlink" x="0px" y="0px"
	 width="488.5px" height="48.231px" viewBox="0 0 488.5 48.231" enable-background="new 0 0 488.5 48.231" xml:space="preserve">
<g id="_x33_.0_Mechanism_of_action">
	<g enable-background="new    ">
		<path fill="#60A296" d="M9.082,32.781h3.937V10.747H7.163v4.993H2.026V6.043h27.411v9.697H24.3v-4.993h-5.856v22.034h3.937v4.849
			H9.084v-4.849H9.082z"/>
		<path fill="#60A296" d="M30.106,32.109c0-3.937,3.456-6.337,8.449-6.337c2.16,0,4.176,0.288,5.329,0.576v-1.68
			c0-1.248-0.288-2.208-0.816-2.881c-0.864-1.104-2.256-1.536-4.128-1.536c-0.912,0-1.584,0.145-2.064,0.337
			c0.096,0.287,0.192,0.768,0.192,1.056c0,1.584-1.248,2.736-2.832,2.736s-2.784-1.104-2.784-2.832c0-2.593,2.64-5.329,8.353-5.329
			c3.601,0,6.048,1.009,7.537,2.833c1.104,1.344,1.632,3.168,1.632,5.28v8.977h3.12v4.32h-8.113v-2.305
			c-1.68,1.44-4.224,2.688-7.057,2.688C33.322,38.014,30.106,36.046,30.106,32.109z M43.883,32.35v-3.312
			c-1.2-0.288-2.688-0.48-4.321-0.48c-2.544,0-4.08,1.152-4.08,3.072c0,1.681,1.248,2.593,3.12,2.593S42.299,33.502,43.883,32.35z"
			/>
		<path fill="#60A296" d="M73.067,19.677c0,1.775-1.393,3.264-3.121,3.264c-1.584,0-2.64-0.912-3.072-1.872
			c-1.488,0.528-3.216,2.16-4.176,3.984v8.257h3.648v4.32H54.345v-4.32h3.12V21.021h-3.12v-4.416h8.161v4.752
			c1.776-2.832,3.984-5.137,6.672-5.137C71.771,16.22,73.067,17.804,73.067,19.677z"/>
		<path fill="#60A296" d="M95.531,37.678c0,2.593-0.672,4.753-1.968,6.337c-1.728,2.112-4.464,3.216-7.873,3.216
			c-3.648,0-6.769-1.151-8.257-2.64c-0.816-0.816-1.152-1.729-1.152-2.736c0-1.488,1.104-2.929,2.833-2.929
			c1.632,0,2.928,1.152,2.928,2.736c0,0.24-0.048,0.624-0.096,0.816c0.864,0.288,1.872,0.528,3.12,0.528
			c1.873,0,3.36-0.576,4.272-1.824c0.624-0.864,0.96-2.064,0.96-3.648V34.51c-1.584,1.584-3.265,2.688-6.049,2.688
			c-5.329,0-9.601-4.081-9.601-10.321c0-6.001,4.368-10.657,9.841-10.657c2.688,0,4.608,1.057,6,2.257v-1.872h8.161v4.416h-3.12
			L95.531,37.678L95.531,37.678z M80.026,26.829c0,3.84,2.352,5.952,5.568,5.952c1.776,0,3.36-0.815,4.705-2.063v-8.354
			c-1.249-0.96-2.833-1.632-4.705-1.632C82.378,20.733,80.026,22.845,80.026,26.829z"/>
		<path fill="#60A296" d="M106.857,28.894c0.72,3.264,3.408,4.704,6.913,4.704c2.544,0,5.185-0.816,7.633-2.208l-0.432,4.704
			c-2.208,1.296-4.896,1.92-7.969,1.92c-6.864,0-11.617-4.32-11.617-10.849c0-5.952,4.176-10.945,10.657-10.945
			c6.721,0,10.225,4.513,10.225,10.081c0,0.816-0.096,1.872-0.24,2.593C122.027,28.894,106.857,28.894,106.857,28.894z
			 M106.809,25.245h10.225c-0.096-2.881-1.968-4.801-5.04-4.801C109.69,20.444,107.386,21.788,106.809,25.245z"/>
		<path fill="#60A296" d="M128.985,35.134c-0.48-0.864-0.72-1.969-0.72-3.312V21.021h-4.08v-4.416h4.08v-4.417l5.185-2.256v6.673
			h6.385v4.416h-6.385v9.793c0,0.672,0.096,1.104,0.336,1.536c0.384,0.672,1.152,1.008,2.208,1.008c1.344,0,2.88-0.528,4.128-1.104
			l-0.432,4.513c-1.44,0.721-3.121,1.248-5.041,1.248C132.105,38.014,130.041,37.15,128.985,35.134z"/>
		<path fill="#60A296" d="M144.248,21.501c0-2.112,1.728-3.841,3.84-3.841s3.84,1.729,3.84,3.841c0,2.111-1.728,3.84-3.84,3.84
			S144.248,23.612,144.248,21.501z M144.248,34.174c0-2.112,1.728-3.841,3.84-3.841s3.84,1.729,3.84,3.841s-1.728,3.84-3.84,3.84
			S144.248,36.286,144.248,34.174z"/>
		<path fill="#60A296" d="M173.431,32.781h3.937V10.747h-5.856v4.993h-5.137V6.043h27.411v9.697h-5.137v-4.993h-5.856v22.034h3.937
			v4.849h-13.297v-4.849H173.431z"/>
		<path fill="#60A296" d="M198.055,35.23c-0.672-1.104-1.056-2.544-1.056-4.225v-9.984h-3.12v-4.416h8.353v13.104
			c0,0.912,0.144,1.584,0.432,2.16c0.48,0.912,1.344,1.393,2.592,1.393c1.824,0,3.744-1.057,5.424-2.448v-9.793h-3.264v-4.416h8.497
			V33.31h3.121v4.32h-8.161v-3.36c-2.016,1.968-4.272,3.744-7.345,3.744C200.983,38.014,199.111,36.958,198.055,35.23z"/>
		<path fill="#60A296" d="M221.766,33.31h3.12V21.021h-3.12v-4.416h8.161v3.312c1.632-1.775,3.936-3.696,7.057-3.696
			c2.256,0,3.936,0.864,4.992,2.257c0.288,0.384,0.48,0.768,0.672,1.2c1.968-1.921,4.32-3.457,7.008-3.457
			c2.928,0,4.944,1.057,6,3.024c0.576,1.057,0.864,2.4,0.864,3.937v10.129h3.12v4.32h-11.185v-4.32h2.833V24.43
			c0-0.816-0.096-1.44-0.336-1.968c-0.432-1.009-1.296-1.488-2.497-1.488c-1.728,0-3.552,1.008-5.136,2.352v9.985h2.832v4.32
			h-10.945v-4.32h2.88V24.43c0-0.816-0.096-1.44-0.336-1.968c-0.432-1.009-1.248-1.488-2.496-1.488
			c-1.729,0-3.553,1.008-5.137,2.352v9.985h2.784v4.32h-11.137V33.31C221.764,33.31,221.766,33.31,221.766,33.31z"/>
		<path fill="#60A296" d="M261.703,27.117c0-5.761,4.32-10.897,11.185-10.897c6.961,0,11.185,5.041,11.185,10.897
			c0,5.761-4.32,10.896-11.185,10.896C265.928,38.014,261.703,32.974,261.703,27.117z M278.697,27.117
			c0-3.841-2.4-6.528-5.809-6.528c-3.408,0-5.808,2.688-5.808,6.528s2.4,6.528,5.808,6.528
			C276.297,33.646,278.697,30.957,278.697,27.117z"/>
		<path fill="#60A296" d="M305.913,19.677c0,1.775-1.393,3.264-3.121,3.264c-1.584,0-2.64-0.912-3.072-1.872
			c-1.488,0.528-3.216,2.16-4.176,3.984v8.257h3.648v4.32h-12.001v-4.32h3.12V21.021h-3.12v-4.416h8.161v4.752
			c1.776-2.832,3.984-5.137,6.672-5.137C304.617,16.22,305.913,17.804,305.913,19.677z"/>
		<path fill="#60A296" d="M318.918,32.781h3.6v-21.89h-3.6V6.042h11.953c11.425,0,18.194,5.953,18.194,15.506
			c0,9.648-6.385,16.081-18.77,16.081h-11.377V32.781z M331.063,32.781c8.161,0,12.385-4.416,12.385-11.185
			c0-6.913-4.896-10.705-12.769-10.705h-2.736v21.89H331.063z"/>
		<path fill="#60A296" d="M358.374,28.894c0.72,3.264,3.408,4.704,6.913,4.704c2.544,0,5.185-0.816,7.633-2.208l-0.432,4.704
			c-2.208,1.296-4.896,1.92-7.969,1.92c-6.864,0-11.617-4.32-11.617-10.849c0-5.952,4.176-10.945,10.657-10.945
			c6.721,0,10.225,4.513,10.225,10.081c0,0.816-0.096,1.872-0.24,2.593H358.374z M358.327,25.245h10.225
			c-0.096-2.881-1.968-4.801-5.041-4.801C361.207,20.444,358.903,21.788,358.327,25.245z"/>
		<path fill="#60A296" d="M387.559,6.667c-0.432,0.192-0.864,0.48-1.104,0.864c-0.624,0.912-0.96,2.208-0.96,4.225v4.849h5.472
			v4.416h-5.472V33.31h4.08v4.32h-12.433v-4.32h3.168V21.021h-3.601v-4.416h3.601v-4.081c0-3.84,0.672-6.24,2.688-8.208
			c1.488-1.44,3.409-2.209,5.761-2.209c2.736,0,4.656,1.44,4.656,3.553c0,1.872-1.344,2.977-2.832,2.977
			C388.951,8.636,388.135,7.772,387.559,6.667z"/>
		<path fill="#60A296" d="M398.31,28.894c0.72,3.264,3.408,4.704,6.913,4.704c2.544,0,5.185-0.816,7.633-2.208l-0.432,4.704
			c-2.208,1.296-4.896,1.92-7.969,1.92c-6.864,0-11.617-4.32-11.617-10.849c0-5.952,4.176-10.945,10.657-10.945
			c6.721,0,10.225,4.513,10.225,10.081c0,0.816-0.096,1.872-0.24,2.593H398.31z M398.263,25.245h10.225
			c-0.096-2.881-1.968-4.801-5.04-4.801C401.143,20.444,398.839,21.788,398.263,25.245z"/>
		<path fill="#60A296" d="M424.855,19.964c2.016-1.968,4.272-3.744,7.345-3.744c2.496,0,4.32,1.009,5.425,2.688
			c0.72,1.152,1.104,2.593,1.104,4.32v10.081h3.12v4.32h-11.233v-4.32h2.881v-8.785c0-0.863-0.145-1.632-0.432-2.16
			c-0.48-0.912-1.344-1.392-2.593-1.392c-1.823,0-3.744,1.056-5.425,2.448v9.889h2.881v4.32h-11.233v-4.32h3.12V21.02h-3.12v-4.416
			h8.161L424.855,19.964L424.855,19.964z"/>
		<path fill="#60A296" d="M459.175,24.093c-1.68,0-2.832-1.008-2.832-2.592c0-0.337,0-0.625,0.096-0.912
			c-0.863-0.337-1.92-0.528-2.976-0.528c-2.353,0-3.505,1.056-3.505,2.16c0,1.2,1.201,1.824,4.417,2.688
			c5.04,1.344,7.969,2.592,7.969,6.384c0,4.417-4.128,6.769-8.881,6.769c-3.216,0-6.673-1.151-8.065-2.544
			c-0.863-0.864-1.199-1.728-1.199-2.832c0-1.536,1.152-2.832,2.784-2.832c1.44,0,2.832,0.96,2.832,2.784
			c0,0.288-0.048,0.576-0.097,0.864c0.961,0.384,2.305,0.672,3.793,0.672c2.112,0,3.84-0.721,3.84-2.257
			c0-1.056-0.912-1.68-4.128-2.544c-5.809-1.536-8.257-2.928-8.257-6.528c0-3.265,2.688-6.673,8.593-6.673
			c2.544,0,5.616,0.96,7.057,2.4c0.769,0.768,1.152,1.68,1.152,2.688C461.768,22.941,460.712,24.093,459.175,24.093z"/>
		<path fill="#60A296" d="M471.223,28.894c0.72,3.264,3.408,4.704,6.913,4.704c2.544,0,5.184-0.816,7.633-2.208l-0.433,4.704
			c-2.208,1.296-4.896,1.92-7.969,1.92c-6.864,0-11.616-4.32-11.616-10.849c0-5.952,4.176-10.945,10.656-10.945
			c6.721,0,10.225,4.513,10.225,10.081c0,0.816-0.096,1.872-0.24,2.593H471.223z M471.175,25.245H481.4
			c-0.096-2.881-1.968-4.801-5.04-4.801C474.056,20.444,471.751,21.788,471.175,25.245z"/>
	</g>
</g>
</svg>
