<?xml version="1.0" encoding="utf-8"?>
<!-- Generator: Adobe Illustrator 17.0.1, SVG Export Plug-In . SVG Version: 6.00 Build 0)  -->
<!DOCTYPE svg PUBLIC "-//W3C//DTD SVG 1.1//EN" "http://www.w3.org/Graphics/SVG/1.1/DTD/svg11.dtd">
<svg version="1.1" id="Layer_1" xmlns="http://www.w3.org/2000/svg" xmlns:xlink="http://www.w3.org/1999/xlink" x="0px" y="0px"
	 width="711px" height="97.5px" viewBox="0 0 711 97.5" enable-background="new 0 0 711 97.5" xml:space="preserve">
<g enable-background="new    ">
	<path fill="#60A296" d="M1.672,20.73c0-9.266,6.721-16.37,16.322-16.37c9.553,0,16.081,7.153,16.081,16.37
		c0,9.265-6.72,16.369-16.321,16.369C8.201,37.099,1.672,29.947,1.672,20.73z M28.458,20.73c0-6.577-4.464-11.329-10.561-11.329
		c-6.145,0-10.609,4.704-10.609,11.329c0,6.576,4.464,11.328,10.609,11.328C23.994,32.058,28.458,27.354,28.458,20.73z"/>
	<path fill="#60A296" d="M37.528,41.612h3.12V19.914h-3.12v-4.416h8.161v2.399c1.632-1.536,3.408-2.784,6.241-2.784
		c5.472,0,9.601,4.465,9.601,10.801c0,6.097-4.368,10.993-9.937,10.993c-2.256,0-4.128-0.815-5.712-2.016v6.721h3.408v4.32H37.529
		L37.528,41.612L37.528,41.612z M56.153,25.962c0-4.033-2.4-6.337-5.376-6.337c-1.968,0-3.504,0.864-4.896,2.112v9.024
		c1.344,0.96,2.976,1.633,4.896,1.633C53.561,32.395,56.153,30.138,56.153,25.962z"/>
	<path fill="#60A296" d="M68.392,34.027c-0.48-0.864-0.72-1.969-0.72-3.312V19.914h-4.08v-4.416h4.08v-4.417l5.185-2.256v6.673
		h6.385v4.416h-6.385v9.793c0,0.672,0.096,1.104,0.336,1.536c0.384,0.672,1.152,1.008,2.208,1.008c1.344,0,2.88-0.528,4.128-1.104
		l-0.432,4.513c-1.44,0.721-3.121,1.248-5.041,1.248C71.512,36.907,69.448,36.043,68.392,34.027z"/>
	<path fill="#60A296" d="M82.407,32.203h3.216V19.914h-3.216v-4.416h8.449v16.705h3.12v4.32H82.407V32.203z M84.231,8.825
		c0-1.92,1.68-3.456,3.552-3.456s3.457,1.536,3.457,3.456s-1.68,3.456-3.553,3.456C85.815,12.281,84.231,10.745,84.231,8.825z"/>
	<path fill="#60A296" d="M112.073,22.986c-1.68,0-2.832-1.008-2.832-2.592c0-0.337,0-0.625,0.096-0.912
		c-0.864-0.337-1.92-0.528-2.976-0.528c-2.353,0-3.504,1.056-3.504,2.16c0,1.2,1.2,1.824,4.417,2.688
		c5.041,1.344,7.969,2.592,7.969,6.384c0,4.417-4.128,6.769-8.881,6.769c-3.216,0-6.673-1.151-8.065-2.544
		c-0.864-0.864-1.2-1.728-1.2-2.832c0-1.536,1.152-2.832,2.784-2.832c1.44,0,2.832,0.96,2.832,2.784
		c0,0.288-0.048,0.576-0.096,0.864c0.96,0.384,2.304,0.672,3.792,0.672c2.112,0,3.84-0.721,3.84-2.257
		c0-1.056-0.912-1.68-4.128-2.544c-5.809-1.536-8.257-2.928-8.257-6.528c0-3.265,2.688-6.673,8.593-6.673
		c2.544,0,5.617,0.96,7.057,2.4c0.768,0.768,1.152,1.68,1.152,2.688C114.665,21.834,113.609,22.986,112.073,22.986z"/>
	<path fill="#60A296" d="M122.391,34.027c-0.48-0.864-0.72-1.969-0.72-3.312V19.914h-4.08v-4.416h4.08v-4.417l5.185-2.256v6.673
		h6.385v4.416h-6.385v9.793c0,0.672,0.096,1.104,0.336,1.536c0.384,0.672,1.152,1.008,2.208,1.008c1.344,0,2.88-0.528,4.128-1.104
		l-0.432,4.513c-1.44,0.721-3.121,1.248-5.041,1.248C125.512,36.907,123.448,36.043,122.391,34.027z"/>
	<path fill="#60A296" d="M136.55,31.002c0-3.937,3.456-6.337,8.449-6.337c2.16,0,4.176,0.288,5.329,0.576v-1.68
		c0-1.248-0.288-2.208-0.816-2.881c-0.864-1.104-2.256-1.536-4.128-1.536c-0.912,0-1.584,0.145-2.064,0.337
		c0.096,0.287,0.192,0.768,0.192,1.056c0,1.584-1.248,2.736-2.832,2.736s-2.784-1.104-2.784-2.832c0-2.593,2.64-5.329,8.353-5.329
		c3.601,0,6.048,1.009,7.537,2.833c1.104,1.344,1.632,3.168,1.632,5.28v8.977h3.12v4.32h-8.113v-2.305
		c-1.68,1.44-4.224,2.688-7.057,2.688C139.766,36.907,136.55,34.939,136.55,31.002z M150.328,31.243v-3.312
		c-1.2-0.288-2.688-0.48-4.321-0.48c-2.544,0-4.08,1.152-4.08,3.072c0,1.681,1.248,2.593,3.12,2.593
		C146.919,33.116,148.743,32.395,150.328,31.243z"/>
	<path fill="#60A296" d="M161.127,19.914h-2.448v-4.416h10.753v4.176h-3.024l5.041,10.945l5.041-10.945h-3.168v-4.176h10.705v4.416
		h-2.448l-8.353,16.993h-3.744L161.127,19.914z"/>
	<path fill="#60A296" d="M185.798,32.203h3.216V19.914h-3.216v-4.416h8.449v16.705h3.12v4.32h-11.569V32.203z M187.622,8.825
		c0-1.92,1.68-3.456,3.552-3.456s3.457,1.536,3.457,3.456s-1.68,3.456-3.553,3.456C189.206,12.281,187.622,10.745,187.622,8.825z"/>
	<path fill="#60A296" d="M208.55,18.857c2.016-1.968,4.272-3.744,7.345-3.744c2.496,0,4.32,1.009,5.424,2.688
		c0.72,1.152,1.104,2.593,1.104,4.32v10.081h3.12v4.32H214.31v-4.32h2.88v-8.785c0-0.863-0.144-1.632-0.432-2.16
		c-0.48-0.912-1.344-1.392-2.592-1.392c-1.824,0-3.744,1.056-5.424,2.448v9.889h2.88v4.32h-11.233v-4.32h3.12V19.913h-3.12v-4.416
		h8.161V18.857z"/>
	<path fill="#60A296" d="M238.501,26.01c0-5.761,4.32-10.897,11.185-10.897c6.961,0,11.185,5.041,11.185,10.897
		c0,5.761-4.32,10.896-11.185,10.896C242.725,36.907,238.501,31.867,238.501,26.01z M255.495,26.01c0-3.841-2.4-6.528-5.809-6.528
		c-3.408,0-5.808,2.688-5.808,6.528s2.4,6.528,5.808,6.528C253.095,32.539,255.495,29.85,255.495,26.01z"/>
	<path fill="#60A296" d="M281.799,15.498v-4.081c0-3.84,0.672-6.24,2.688-8.208C285.975,1.769,287.895,1,290.248,1
		c2.736,0,4.656,1.44,4.656,3.553c0,1.872-1.344,2.977-2.833,2.977c-1.632,0-2.448-0.864-3.024-1.969
		c-0.432,0.192-0.864,0.48-1.104,0.864c-0.624,0.912-0.96,2.208-0.96,4.225v4.849h5.473v4.416h-5.473v12.289h4.081v4.32h-12.193
		v-4.32h2.928V19.915h-9.217v12.289h3.84v4.32h-12.193v-4.32h3.168V19.915h-3.601v-4.416h3.601v-3.121c0-3.696,1.008-6.72,2.688-8.4
		c1.392-1.392,3.024-2.016,5.281-2.016c2.736,0,4.656,1.439,4.656,3.552c0,1.872-1.344,2.977-2.832,2.977
		c-1.584,0-2.448-0.769-3.024-1.969c-0.24,0.145-0.48,0.336-0.672,0.624c-0.624,0.912-0.912,2.448-0.912,4.465V15.5h9.217
		L281.799,15.498L281.799,15.498z"/>
	<path fill="#60A296" d="M299.461,27.787c0.72,3.264,3.408,4.704,6.913,4.704c2.544,0,5.185-0.816,7.633-2.208l-0.432,4.704
		c-2.208,1.296-4.896,1.92-7.969,1.92c-6.864,0-11.617-4.32-11.617-10.849c0-5.952,4.176-10.945,10.657-10.945
		c6.721,0,10.225,4.513,10.225,10.081c0,0.816-0.096,1.872-0.24,2.593H299.461z M299.413,24.138h10.225
		c-0.096-2.881-1.968-4.801-5.04-4.801C302.293,19.337,299.989,20.681,299.413,24.138z"/>
	<path fill="#60A296" d="M336.566,18.57c0,1.775-1.393,3.264-3.121,3.264c-1.584,0-2.64-0.912-3.072-1.872
		c-1.488,0.528-3.216,2.16-4.176,3.984v8.257h3.648v4.32h-12.001v-4.32h3.12V19.914h-3.12v-4.416h8.161v4.752
		c1.776-2.832,3.984-5.137,6.672-5.137C335.27,15.113,336.566,16.697,336.566,18.57z"/>
	<path fill="#60A296" d="M353.654,22.986c-1.68,0-2.832-1.008-2.832-2.592c0-0.337,0-0.625,0.096-0.912
		c-0.864-0.337-1.92-0.528-2.976-0.528c-2.352,0-3.504,1.056-3.504,2.16c0,1.2,1.2,1.824,4.417,2.688
		c5.041,1.344,7.969,2.592,7.969,6.384c0,4.417-4.128,6.769-8.881,6.769c-3.216,0-6.673-1.151-8.065-2.544
		c-0.864-0.864-1.2-1.728-1.2-2.832c0-1.536,1.152-2.832,2.785-2.832c1.44,0,2.832,0.96,2.832,2.784
		c0,0.288-0.048,0.576-0.096,0.864c0.96,0.384,2.304,0.672,3.792,0.672c2.112,0,3.84-0.721,3.84-2.257
		c0-1.056-0.912-1.68-4.128-2.544c-5.809-1.536-8.256-2.928-8.256-6.528c0-3.265,2.688-6.673,8.592-6.673
		c2.544,0,5.617,0.96,7.057,2.4c0.768,0.768,1.152,1.68,1.152,2.688C356.246,21.834,355.19,22.986,353.654,22.986z"/>
	<path fill="#60A296" d="M383.077,41.515h3.792v-7.297c-1.536,1.488-3.504,2.688-6.192,2.688c-5.568,0-9.745-4.464-9.745-10.801
		c0-6.097,4.416-10.993,10.081-10.993c2.688,0,4.608,0.96,6.385,2.4l1.152-2.16h3.552v26.162h3.168v4.417h-12.193L383.077,41.515
		L383.077,41.515z M386.869,30.283v-9.025c-1.392-0.96-3.024-1.632-4.992-1.632c-2.928,0-5.568,2.256-5.568,6.433
		c0,4.032,2.496,6.337,5.568,6.337C383.845,32.395,385.429,31.531,386.869,30.283z"/>
	<path fill="#60A296" d="M399.78,34.123c-0.672-1.104-1.056-2.544-1.056-4.225v-9.984h-3.12v-4.416h8.353v13.104
		c0,0.912,0.144,1.584,0.432,2.16c0.48,0.912,1.344,1.393,2.592,1.393c1.824,0,3.744-1.057,5.424-2.448v-9.793h-3.264v-4.416h8.497
		v16.705h3.121v4.32h-8.161v-3.36c-2.016,1.968-4.272,3.744-7.345,3.744C402.708,36.907,400.836,35.851,399.78,34.123z"/>
	<path fill="#60A296" d="M423.539,32.203h3.216V19.914h-3.216v-4.416h8.448v16.705h3.12v4.32h-11.568V32.203z M425.364,8.825
		c0-1.92,1.68-3.456,3.552-3.456s3.456,1.536,3.456,3.456s-1.68,3.456-3.553,3.456C426.948,12.281,425.364,10.745,425.364,8.825z"/>
	<path fill="#60A296" d="M438.275,25.818c0-5.473,4.416-10.705,10.657-10.705c5.76,0,9.553,3.744,9.553,7.057
		c0,2.208-1.488,3.553-3.361,3.553c-1.728,0-3.168-1.44-3.168-3.168c0-0.625,0.289-1.345,0.672-1.776
		c-0.383-0.528-1.68-1.44-3.744-1.44c-2.4,0-5.376,1.968-5.376,6.576c0,4.033,3.072,6.577,6.816,6.577
		c2.544,0,4.753-0.72,7.489-2.208l-0.433,4.704c-2.257,1.296-4.417,1.92-7.489,1.92C443.267,36.907,438.275,32.586,438.275,25.818z"
		/>
	<path fill="#60A296" d="M461.842,32.203h3.121V5.8h-3.121V1.384h8.354v23.569l6.145-5.28h-2.929v-4.176h12.433v4.416h-3.888
		l-4.896,4.128l5.329,8.065h3.455v4.416h-6.576l-6.049-9.457l-3.023,2.545v2.688h2.641v4.225h-10.994v-4.32H461.842z"/>
	<path fill="#60A296" d="M499.186,32.203h3.216V19.914h-3.216v-4.416h8.448v16.705h3.12v4.32h-11.568V32.203z M501.01,8.825
		c0-1.92,1.68-3.456,3.552-3.456s3.456,1.536,3.456,3.456s-1.68,3.456-3.553,3.456C502.594,12.281,501.01,10.745,501.01,8.825z"/>
	<path fill="#60A296" d="M521.938,18.857c2.016-1.968,4.272-3.744,7.345-3.744c2.496,0,4.32,1.009,5.425,2.688
		c0.72,1.152,1.104,2.593,1.104,4.32v10.081h3.12v4.32h-11.233v-4.32h2.881v-8.785c0-0.863-0.145-1.632-0.432-2.16
		c-0.48-0.912-1.344-1.392-2.593-1.392c-1.823,0-3.744,1.056-5.425,2.448v9.889h2.881v4.32h-11.232v-4.32h3.119V19.913h-3.119
		v-4.416h8.16L521.938,18.857L521.938,18.857z"/>
	<path fill="#60A296" d="M551.986,5.56c-0.433,0.192-0.864,0.48-1.104,0.864c-0.623,0.912-0.959,2.208-0.959,4.225v4.849h5.472
		v4.416h-5.472v12.289h4.08v4.32h-12.434v-4.32h3.168V19.914h-3.6v-4.416h3.6v-4.081c0-3.84,0.672-6.24,2.688-8.208
		C548.913,1.769,550.834,1,553.186,1c2.736,0,4.656,1.44,4.656,3.553c0,1.872-1.344,2.977-2.832,2.977
		C553.377,7.529,552.562,6.665,551.986,5.56z"/>
	<path fill="#60A296" d="M561.057,34.123c-0.672-1.104-1.057-2.544-1.057-4.225v-9.984h-3.12v-4.416h8.353v13.104
		c0,0.912,0.145,1.584,0.432,2.16c0.48,0.912,1.345,1.393,2.593,1.393c1.824,0,3.744-1.057,5.425-2.448v-9.793h-3.265v-4.416h8.497
		v16.705h3.12v4.32h-8.161v-3.36c-2.016,1.968-4.271,3.744-7.344,3.744C563.985,36.907,562.113,35.851,561.057,34.123z"/>
	<path fill="#60A296" d="M600.178,22.986c-1.681,0-2.832-1.008-2.832-2.592c0-0.337,0-0.625,0.096-0.912
		c-0.864-0.337-1.92-0.528-2.977-0.528c-2.352,0-3.504,1.056-3.504,2.16c0,1.2,1.199,1.824,4.416,2.688
		c5.041,1.344,7.969,2.592,7.969,6.384c0,4.417-4.129,6.769-8.881,6.769c-3.217,0-6.673-1.151-8.064-2.544
		c-0.864-0.864-1.201-1.728-1.201-2.832c0-1.536,1.152-2.832,2.785-2.832c1.439,0,2.832,0.96,2.832,2.784
		c0,0.288-0.048,0.576-0.096,0.864c0.96,0.384,2.304,0.672,3.792,0.672c2.112,0,3.841-0.721,3.841-2.257
		c0-1.056-0.912-1.68-4.129-2.544c-5.809-1.536-8.256-2.928-8.256-6.528c0-3.265,2.688-6.673,8.592-6.673
		c2.545,0,5.617,0.96,7.057,2.4c0.768,0.768,1.152,1.68,1.152,2.688C602.77,21.834,601.713,22.986,600.178,22.986z"/>
	<path fill="#60A296" d="M606.799,32.203h3.217V19.914h-3.217v-4.416h8.449v16.705h3.121v4.32h-11.57L606.799,32.203L606.799,32.203
		z M608.623,8.825c0-1.92,1.681-3.456,3.553-3.456c1.873,0,3.457,1.536,3.457,3.456s-1.682,3.456-3.553,3.456
		C610.207,12.281,608.623,10.745,608.623,8.825z"/>
	<path fill="#60A296" d="M621.536,26.01c0-5.761,4.32-10.897,11.186-10.897c6.959,0,11.184,5.041,11.184,10.897
		c0,5.761-4.32,10.896-11.184,10.896C625.76,36.907,621.536,31.867,621.536,26.01z M638.53,26.01c0-3.841-2.4-6.528-5.809-6.528
		s-5.809,2.688-5.809,6.528s2.4,6.528,5.809,6.528S638.53,29.85,638.53,26.01z"/>
	<path fill="#60A296" d="M655.184,18.857c2.016-1.968,4.271-3.744,7.344-3.744c2.496,0,4.32,1.009,5.426,2.688
		c0.719,1.152,1.104,2.593,1.104,4.32v10.081h3.121v4.32h-11.234v-4.32h2.881v-8.785c0-0.863-0.145-1.632-0.432-2.16
		c-0.48-0.912-1.344-1.392-2.592-1.392c-1.824,0-3.746,1.056-5.426,2.448v9.889h2.881v4.32h-11.232v-4.32h3.119V19.913h-3.119
		v-4.416h8.16L655.184,18.857L655.184,18.857z"/>
</g>
<g enable-background="new    ">
	<path fill="#60A296" d="M1,82.203h3.216V69.914H1v-4.416h8.449v16.705h3.12v4.32H1V82.203z M2.824,58.825
		c0-1.92,1.68-3.456,3.552-3.456s3.457,1.536,3.457,3.456s-1.68,3.456-3.553,3.456C4.408,62.281,2.824,60.745,2.824,58.825z"/>
	<path fill="#60A296" d="M23.752,68.857c2.016-1.968,4.272-3.744,7.345-3.744c2.496,0,4.32,1.009,5.424,2.688
		c0.72,1.152,1.104,2.593,1.104,4.32v10.081h3.12v4.32H29.512v-4.32h2.88v-8.785c0-0.863-0.144-1.632-0.432-2.16
		c-0.48-0.912-1.344-1.392-2.592-1.392c-1.824,0-3.744,1.056-5.424,2.448v9.889h2.88v4.32H15.591v-4.32h3.12V69.913h-3.12v-4.416
		h8.161C23.752,65.497,23.752,68.857,23.752,68.857z"/>
	<path fill="#60A296" d="M52.599,89.403c1.536,0,2.592,1.104,2.833,2.545c1.056-0.24,1.776-1.104,2.16-2.16
		c0.384-1.104,0.48-2.209,0.48-3.312V69.914h-3.937v-4.416h9.169v20.689c0,2.304-0.432,4.225-1.2,5.713
		c-1.44,2.88-4.176,4.224-7.249,4.224c-3.552,0-5.136-1.968-5.136-3.792C49.719,90.748,51.015,89.403,52.599,89.403z M56.295,58.825
		c0-1.92,1.68-3.456,3.553-3.456c1.872,0,3.456,1.536,3.456,3.456s-1.68,3.456-3.552,3.456S56.295,60.745,56.295,58.825z"/>
	<path fill="#60A296" d="M71.223,84.123c-0.672-1.104-1.056-2.544-1.056-4.225v-9.984h-3.12v-4.416H75.4v13.104
		c0,0.912,0.144,1.584,0.432,2.16c0.48,0.912,1.344,1.393,2.592,1.393c1.824,0,3.744-1.057,5.424-2.448v-9.793h-3.264v-4.416h8.497
		v16.705h3.121v4.32h-8.161v-3.36c-2.017,1.968-4.272,3.744-7.345,3.744C74.151,86.907,72.279,85.851,71.223,84.123z"/>
	<path fill="#60A296" d="M110.344,72.986c-1.68,0-2.832-1.008-2.832-2.592c0-0.337,0-0.625,0.096-0.912
		c-0.864-0.337-1.92-0.528-2.976-0.528c-2.352,0-3.504,1.056-3.504,2.16c0,1.2,1.2,1.824,4.417,2.688
		c5.041,1.344,7.969,2.592,7.969,6.384c0,4.417-4.128,6.769-8.881,6.769c-3.216,0-6.673-1.151-8.065-2.544
		c-0.864-0.864-1.2-1.728-1.2-2.832c0-1.536,1.152-2.832,2.785-2.832c1.44,0,2.832,0.96,2.832,2.784
		c0,0.288-0.048,0.576-0.096,0.864c0.96,0.384,2.304,0.672,3.792,0.672c2.112,0,3.84-0.721,3.84-2.257
		c0-1.056-0.912-1.68-4.128-2.544c-5.809-1.536-8.256-2.928-8.256-6.528c0-3.265,2.688-6.673,8.592-6.673
		c2.544,0,5.617,0.96,7.057,2.4c0.768,0.768,1.152,1.68,1.152,2.688C112.936,71.834,111.88,72.986,110.344,72.986z"/>
	<path fill="#60A296" d="M120.662,84.027c-0.48-0.864-0.72-1.969-0.72-3.312V69.914h-4.08v-4.416h4.08v-4.417l5.185-2.256v6.673
		h6.385v4.416h-6.385v9.793c0,0.672,0.096,1.104,0.336,1.536c0.384,0.672,1.152,1.008,2.208,1.008c1.344,0,2.88-0.528,4.128-1.104
		l-0.432,4.513c-1.44,0.721-3.121,1.248-5.041,1.248C123.782,86.907,121.718,86.043,120.662,84.027z"/>
	<path fill="#60A296" d="M147.829,81.771c1.728,0,3.168,1.439,3.168,3.168c0,0.672-0.288,1.392-0.672,1.92
		c1.2,0.96,3.072,1.44,5.088,1.44c3.265,0,5.665-1.92,5.665-4.849c0-1.824-0.864-3.456-3.12-4.416
		c-1.2-0.528-2.833-0.816-4.993-0.816h-1.44V74.09h1.584c2.064,0,3.84-0.385,5.185-1.057c1.632-0.864,2.592-2.16,2.592-3.889
		c0-2.592-2.4-3.888-5.232-3.888c-1.92,0-3.216,0.336-4.032,0.96c0.384,0.528,0.672,1.248,0.672,1.92
		c0,1.729-1.44,3.168-3.168,3.168s-3.264-1.487-3.264-3.792c0-0.816,0.288-1.824,0.96-2.784c1.344-1.968,4.225-3.792,9.025-3.792
		c6.048,0,10.417,3.408,10.417,8.017c0,2.544-1.584,4.656-3.792,5.904c-0.912,0.528-1.92,0.912-2.976,1.104
		c0.912,0.239,1.872,0.624,2.736,1.104c2.304,1.296,4.224,3.456,4.224,6.721c0,5.377-4.752,8.833-11.089,8.833
		c-4.512,0-8.113-1.776-9.793-4.177c-0.624-0.912-1.008-1.968-1.008-3.024C144.564,83.403,145.908,81.771,147.829,81.771z"/>
	<path fill="#60A296" d="M169.812,73.946c0-7.44,5.041-13.009,12.001-13.009s12.001,5.568,12.001,13.009
		s-5.041,12.961-12.001,12.961S169.812,81.386,169.812,73.946z M188.437,73.946c0-4.944-2.688-8.641-6.625-8.641
		s-6.625,3.696-6.625,8.641s2.688,8.593,6.625,8.593S188.437,78.89,188.437,73.946z"/>
	<path fill="#60A296" d="M207.827,82.203h3.12V69.914h-3.12v-4.416h8.161v3.312c1.632-1.775,3.936-3.696,7.057-3.696
		c2.256,0,3.936,0.864,4.992,2.257c0.288,0.384,0.48,0.768,0.672,1.2c1.968-1.921,4.32-3.457,7.008-3.457
		c2.928,0,4.944,1.057,6,3.024c0.576,1.057,0.864,2.4,0.864,3.937v10.129h3.12v4.32h-11.185v-4.32h2.833v-8.881
		c0-0.816-0.096-1.44-0.336-1.968c-0.432-1.009-1.296-1.488-2.497-1.488c-1.728,0-3.552,1.008-5.136,2.352v9.985h2.832v4.32h-10.945
		v-4.32h2.88v-8.881c0-0.816-0.096-1.44-0.336-1.968c-0.432-1.009-1.248-1.488-2.496-1.488c-1.729,0-3.553,1.008-5.137,2.352v9.985
		h2.784v4.32h-11.137v-4.321C207.825,82.203,207.827,82.203,207.827,82.203z"/>
	<path fill="#60A296" d="M248.003,82.203h3.216V69.914h-3.216v-4.416h8.449v16.705h3.12v4.32h-11.569L248.003,82.203L248.003,82.203
		z M249.827,58.825c0-1.92,1.68-3.456,3.552-3.456s3.457,1.536,3.457,3.456s-1.68,3.456-3.553,3.456
		C251.411,62.281,249.827,60.745,249.827,58.825z"/>
	<path fill="#60A296" d="M270.755,68.857c2.016-1.968,4.272-3.744,7.345-3.744c2.496,0,4.32,1.009,5.424,2.688
		c0.72,1.152,1.104,2.593,1.104,4.32v10.081h3.12v4.32h-11.233v-4.32h2.88v-8.785c0-0.863-0.144-1.632-0.432-2.16
		c-0.48-0.912-1.344-1.392-2.592-1.392c-1.824,0-3.744,1.056-5.424,2.448v9.889h2.88v4.32h-11.233v-4.32h3.12V69.913h-3.12v-4.416
		h8.161V68.857z"/>
</g>
</svg>
