<?xml version="1.0" encoding="utf-8"?>
<!-- Generator: Adobe Illustrator 17.0.1, SVG Export Plug-In . SVG Version: 6.00 Build 0)  -->
<!DOCTYPE svg PUBLIC "-//W3C//DTD SVG 1.1//EN" "http://www.w3.org/Graphics/SVG/1.1/DTD/svg11.dtd">
<svg version="1.1" id="Layer_1" xmlns="http://www.w3.org/2000/svg" xmlns:xlink="http://www.w3.org/1999/xlink" x="0px" y="0px"
	 width="118px" height="236.667px" viewBox="0 0 118 236.667" enable-background="new 0 0 118 236.667" xml:space="preserve">
<g>
	<path fill="#FFFFFF" d="M73.855,194.877H44.147c-0.027,0.271-0.042,0.544-0.042,0.824v2.061c0,4.555,3.707,8.248,8.276,8.248h1.959
		v16.521v8.153c0,2.574,2.088,4.661,4.662,4.661c2.575,0,4.662-2.087,4.662-4.661v-8.153V206.01h1.959
		c4.57,0,8.275-3.692,8.275-8.248v-2.061C73.897,195.421,73.883,195.148,73.855,194.877z"/>
	<path opacity="0.4" fill="#FFFFFF" enable-background="new    " d="M103.573,42.666h-29.63c-0.625-7.63-7.012-13.629-14.802-13.629
		c-7.791,0-14.178,6-14.803,13.629h-29.91c-8.205,0-14.857,6.65-14.857,14.856c0,0.309,0.013,0.614,0.031,0.918
		c0.298,8.304,2.916,80.267,14.826,97.807c6.053,8.913,19.245,33.104,29.716,38.631h29.713
		c10.471-5.526,23.663-29.718,29.716-38.631c11.91-17.54,14.529-89.502,14.826-97.807c0.019-0.304,0.031-0.609,0.031-0.918
		C118.429,49.317,111.778,42.666,103.573,42.666z M59.141,35.967c3.958,0,7.23,2.906,7.821,6.698H51.319
		C51.911,38.873,55.183,35.967,59.141,35.967z"/>
	<path fill="#4F4E51" d="M63.535,37.299c-1.363,0.697-2.901,1.098-4.534,1.098c-1.568,0-3.047-0.373-4.369-1.019
		c-2.149-1.05-3.873-2.839-4.821-5.044C49.291,31.125,49,29.794,49,28.396c0-1.687-1.367-3.054-3.054-3.054
		s-3.052,1.368-3.052,3.054c0,3.377,1.047,6.516,2.831,9.107c1.442,2.095,3.365,3.835,5.61,5.056
		c2.28,1.238,4.892,1.943,7.666,1.943c2.879,0,5.582-0.763,7.922-2.092C66.522,40.286,65.272,38.459,63.535,37.299z"/>
	<path fill="#4F4E51" d="M75.108,3.709c0-1.686-1.367-3.054-3.053-3.054C70.368,0.655,69,2.023,69,3.709v24.688
		c0,1.333-0.268,2.604-0.744,3.771c1.747,1.359,3.183,3.101,4.18,5.099c1.686-2.545,2.671-5.594,2.671-8.868L75.108,3.709
		L75.108,3.709z"/>
	<polygon fill="#D4C429" points="54.34,209.479 54.34,206.01 51.377,206.01 	"/>
	<path fill="#FFFFFF" d="M75.133,194.877H45.424c-0.027,0.271-0.042,0.544-0.042,0.824v2.061c0,4.555,3.706,8.248,8.276,8.248h1.958
		v16.521v8.153c0,2.574,2.088,4.661,4.662,4.661c2.575,0,4.662-2.087,4.662-4.661v-8.153V206.01h1.958
		c4.571,0,8.277-3.692,8.277-8.248v-2.061C75.175,195.421,75.158,195.148,75.133,194.877z"/>
	<polygon fill="#D4C429" points="55.617,209.479 55.617,206.01 52.654,206.01 	"/>
	<path fill="#D4C429" d="M47.497,73.554c8.467,1.213,17.095,1.215,25.563,0c0.702-0.102,1.27-0.764,1.27-1.47
		s-0.567-1.188-1.27-1.086c-8.467,1.217-17.097,1.217-25.563,0c-0.702-0.102-1.269,0.38-1.269,1.086S46.795,73.453,47.497,73.554z"
		/>
	<path fill="#FFFFFF" d="M53.875,83.583c-0.706-0.05-1.277,0.472-1.277,1.177s0.571,1.328,1.277,1.378
		c5.115,0.366,7.69,0.366,12.806,0c0.707-0.05,1.279-0.673,1.279-1.378c0-0.706-0.572-1.227-1.279-1.177
		C61.565,83.949,58.99,83.949,53.875,83.583z"/>
	<path fill="#FFFFFF" d="M73.06,94.796c-8.467,1.217-17.097,1.217-25.563,0c-0.702-0.102-1.269,0.379-1.269,1.085
		c0,0.705,0.567,1.369,1.269,1.471c8.467,1.215,17.095,1.215,25.563,0c0.702-0.102,1.27-0.766,1.27-1.471
		C74.329,95.175,73.762,94.694,73.06,94.796z"/>
	<path fill="#FFFFFF" d="M66.681,109.934c0.707-0.051,1.279-0.672,1.279-1.378c0-0.704-0.572-1.228-1.279-1.176
		c-5.116,0.365-7.691,0.365-12.806,0c-0.706-0.052-1.277,0.472-1.277,1.176c0,0.706,0.571,1.327,1.277,1.378
		C58.99,110.301,61.565,110.301,66.681,109.934z"/>
	<path fill="#FFFFFF" d="M73.06,118.593c-8.467,1.217-17.097,1.217-25.563,0c-0.702-0.102-1.269,0.38-1.269,1.084
		c0,0.707,0.567,1.37,1.269,1.472c8.467,1.216,17.095,1.216,25.563-0.002c0.702-0.101,1.27-0.763,1.27-1.47
		C74.329,118.973,73.762,118.491,73.06,118.593z"/>
	<path fill="#FFFFFF" d="M66.681,133.732c0.707-0.05,1.279-0.673,1.279-1.378s-0.572-1.228-1.279-1.176
		c-5.116,0.365-7.691,0.365-12.806,0c-0.706-0.052-1.277,0.471-1.277,1.176s0.571,1.328,1.277,1.378
		C58.99,134.096,61.565,134.096,66.681,133.732z"/>
	<path fill="#FFFFFF" d="M73.06,142.389c-8.467,1.218-17.097,1.218-25.563,0c-0.702-0.102-1.269,0.383-1.269,1.087
		c0,0.706,0.567,1.366,1.269,1.469c8.466,1.217,17.096,1.218,25.563,0c0.702-0.103,1.27-0.763,1.27-1.469
		C74.329,142.772,73.762,142.287,73.06,142.389z"/>
	<path fill="#FFFFFF" d="M66.681,157.527c0.707-0.05,1.279-0.674,1.279-1.378c0-0.706-0.572-1.227-1.279-1.176
		c-5.116,0.364-7.691,0.364-12.806,0c-0.706-0.051-1.277,0.47-1.277,1.176c0,0.704,0.571,1.328,1.277,1.378
		C58.99,157.893,61.565,157.893,66.681,157.527z"/>
	<path fill="#FFFFFF" d="M73.06,166.186c-8.465,1.22-17.098,1.22-25.563,0c-0.702-0.1-1.269,0.38-1.269,1.087
		c0,0.704,0.567,1.367,1.269,1.47c8.465,1.215,17.097,1.215,25.563,0c0.702-0.103,1.27-0.766,1.27-1.47
		C74.329,166.566,73.762,166.086,73.06,166.186z"/>
	<path fill="#FFFFFF" d="M66.681,178.771c-5.117,0.365-7.691,0.365-12.806,0c-0.706-0.051-1.277,0.47-1.277,1.176
		c0,0.704,0.571,1.327,1.277,1.379c5.115,0.365,7.69,0.365,12.806,0c0.707-0.052,1.279-0.675,1.279-1.379
		C67.96,179.239,67.388,178.72,66.681,178.771z"/>
</g>
</svg>
