<?xml version="1.0" encoding="utf-8"?>
<!-- Generator: Adobe Illustrator 17.0.1, SVG Export Plug-In . SVG Version: 6.00 Build 0)  -->
<!DOCTYPE svg PUBLIC "-//W3C//DTD SVG 1.1//EN" "http://www.w3.org/Graphics/SVG/1.1/DTD/svg11.dtd">
<svg version="1.1" id="Layer_1" xmlns="http://www.w3.org/2000/svg" xmlns:xlink="http://www.w3.org/1999/xlink" x="0px" y="0px"
	 width="120px" height="139.324px" viewBox="0 0 120 139.324" enable-background="new 0 0 120 139.324" xml:space="preserve">
<g>
	<g>
		<path fill="#A09F9F" stroke="#6E6F71" stroke-width="0" stroke-linecap="round" stroke-linejoin="round" d="M0.853,8.31
			c0.693,2.102,6.716,11.379,59.115,11.379c59.092,0,59.204-11.8,59.204-11.8S110.508,0,59.968,0C11.951,0,1.733,7.12,0.832,7.831"
			/>
		<path fill="#90C1B7" d="M0.853,8.31c0.693,2.102,6.716,11.379,59.115,11.379c59.092,0,59.204-11.8,59.204-11.8S110.508,0,59.968,0
			C11.951,0,1.733,7.12,0.832,7.831"/>
		<path fill="#A09F9F" stroke="#6E6F71" stroke-width="0" stroke-linecap="round" stroke-linejoin="round" d="M0.832,7.831
			c-0.047,0.037-0.07,0.058-0.07,0.058S0.764,8.042,0.853,8.31"/>
		<path fill="#A09F9F" stroke="#6E6F71" stroke-width="0" stroke-linecap="round" stroke-linejoin="round" d="M0.853,8.31
			C0.846,8.15,0.839,7.986,0.832,7.831"/>
		
			<path opacity="0.4" fill="#A09F9F" stroke="#FFFFFF" stroke-width="0" stroke-linecap="round" stroke-linejoin="round" enable-background="new    " d="
			M0.853,8.31C0.846,8.15,0.839,7.986,0.832,7.831"/>
	</g>
	<path fill="#6DADA2" d="M0.832,7.863c0.801,18.67,4.046,77.241,14.631,92.829c6.05,8.915,19.244,33.104,29.715,38.632H74.89
		c10.473-5.527,23.664-29.717,29.719-38.632c10.583-15.588,13.828-74.158,14.629-92.828C91.861,20.348,28.211,20.348,0.832,7.863z"
		/>
</g>
</svg>
