<?xml version="1.0" encoding="utf-8"?>
<!-- Generator: Adobe Illustrator 17.0.1, SVG Export Plug-In . SVG Version: 6.00 Build 0)  -->
<!DOCTYPE svg PUBLIC "-//W3C//DTD SVG 1.1//EN" "http://www.w3.org/Graphics/SVG/1.1/DTD/svg11.dtd">
<svg version="1.1" id="Layer_1" xmlns="http://www.w3.org/2000/svg" xmlns:xlink="http://www.w3.org/1999/xlink" x="0px" y="0px"
	 width="711px" height="97.5px" viewBox="0 0 711 97.5" enable-background="new 0 0 711 97.5" xml:space="preserve">
<g>
	<g enable-background="new    ">
		<path fill="#60A296" d="M0.672,20.918c0-9.266,6.721-16.37,16.322-16.37c9.553,0,16.081,7.153,16.081,16.37
			c0,9.265-6.72,16.369-16.321,16.369C7.201,37.287,0.672,30.135,0.672,20.918z M27.458,20.918c0-6.577-4.464-11.329-10.561-11.329
			c-6.145,0-10.609,4.704-10.609,11.329c0,6.576,4.464,11.328,10.609,11.328C22.994,32.246,27.458,27.542,27.458,20.918z"/>
		<path fill="#60A296" d="M36.528,41.8h3.12V20.102h-3.12v-4.416h8.161v2.399c1.632-1.536,3.408-2.784,6.241-2.784
			c5.472,0,9.601,4.465,9.601,10.801c0,6.097-4.368,10.993-9.937,10.993c-2.256,0-4.128-0.815-5.712-2.016V41.8h3.408v4.32H36.529
			L36.528,41.8L36.528,41.8z M55.153,26.15c0-4.033-2.4-6.337-5.376-6.337c-1.968,0-3.504,0.864-4.896,2.112v9.024
			c1.344,0.96,2.976,1.633,4.896,1.633C52.561,32.583,55.153,30.326,55.153,26.15z"/>
		<path fill="#60A296" d="M67.392,34.215c-0.48-0.864-0.72-1.969-0.72-3.312V20.102h-4.08v-4.416h4.08v-4.417l5.185-2.256v6.673
			h6.385v4.416h-6.385v9.793c0,0.672,0.096,1.104,0.336,1.536c0.384,0.672,1.152,1.008,2.208,1.008c1.344,0,2.88-0.528,4.128-1.104
			l-0.432,4.513c-1.44,0.721-3.121,1.248-5.041,1.248C70.512,37.095,68.448,36.231,67.392,34.215z"/>
		<path fill="#60A296" d="M81.407,32.391h3.216V20.102h-3.216v-4.416h8.449v16.705h3.12v4.32H81.407V32.391z M83.231,9.013
			c0-1.92,1.68-3.456,3.552-3.456s3.457,1.536,3.457,3.456s-1.68,3.456-3.553,3.456C84.815,12.469,83.231,10.933,83.231,9.013z"/>
		<path fill="#60A296" d="M111.073,23.174c-1.68,0-2.832-1.008-2.832-2.592c0-0.337,0-0.625,0.096-0.912
			c-0.864-0.337-1.92-0.528-2.976-0.528c-2.353,0-3.504,1.056-3.504,2.16c0,1.2,1.2,1.824,4.417,2.688
			c5.041,1.344,7.969,2.592,7.969,6.384c0,4.417-4.128,6.769-8.881,6.769c-3.216,0-6.673-1.151-8.065-2.544
			c-0.864-0.864-1.2-1.728-1.2-2.832c0-1.536,1.152-2.832,2.784-2.832c1.44,0,2.832,0.96,2.832,2.784
			c0,0.288-0.048,0.576-0.096,0.864c0.96,0.384,2.304,0.672,3.792,0.672c2.112,0,3.84-0.721,3.84-2.257
			c0-1.056-0.912-1.68-4.128-2.544c-5.809-1.536-8.257-2.928-8.257-6.528c0-3.265,2.688-6.673,8.593-6.673
			c2.544,0,5.617,0.96,7.057,2.4c0.768,0.768,1.152,1.68,1.152,2.688C113.665,22.022,112.609,23.174,111.073,23.174z"/>
		<path fill="#60A296" d="M121.391,34.215c-0.48-0.864-0.72-1.969-0.72-3.312V20.102h-4.08v-4.416h4.08v-4.417l5.185-2.256v6.673
			h6.385v4.416h-6.385v9.793c0,0.672,0.096,1.104,0.336,1.536c0.384,0.672,1.152,1.008,2.208,1.008c1.344,0,2.88-0.528,4.128-1.104
			l-0.432,4.513c-1.44,0.721-3.121,1.248-5.041,1.248C124.512,37.095,122.448,36.231,121.391,34.215z"/>
		<path fill="#60A296" d="M135.55,31.19c0-3.937,3.456-6.337,8.449-6.337c2.16,0,4.176,0.288,5.329,0.576v-1.68
			c0-1.248-0.288-2.208-0.816-2.881c-0.864-1.104-2.256-1.536-4.128-1.536c-0.912,0-1.584,0.145-2.064,0.337
			c0.096,0.287,0.192,0.768,0.192,1.056c0,1.584-1.248,2.736-2.832,2.736c-1.584,0-2.784-1.104-2.784-2.832
			c0-2.593,2.64-5.329,8.353-5.329c3.601,0,6.048,1.009,7.537,2.833c1.104,1.344,1.632,3.168,1.632,5.28v8.977h3.12v4.32h-8.113
			v-2.305c-1.68,1.44-4.224,2.688-7.057,2.688C138.766,37.095,135.55,35.127,135.55,31.19z M149.328,31.431v-3.312
			c-1.2-0.288-2.688-0.48-4.321-0.48c-2.544,0-4.08,1.152-4.08,3.072c0,1.681,1.248,2.593,3.12,2.593
			C145.919,33.304,147.743,32.583,149.328,31.431z"/>
		<path fill="#60A296" d="M160.127,20.102h-2.448v-4.416h10.753v4.176h-3.024l5.041,10.945l5.041-10.945h-3.168v-4.176h10.705v4.416
			h-2.448l-8.353,16.993h-3.744L160.127,20.102z"/>
		<path fill="#60A296" d="M184.798,32.391h3.216V20.102h-3.216v-4.416h8.449v16.705h3.12v4.32h-11.569V32.391z M186.622,9.013
			c0-1.92,1.68-3.456,3.552-3.456s3.457,1.536,3.457,3.456s-1.68,3.456-3.553,3.456C188.206,12.469,186.622,10.933,186.622,9.013z"
			/>
		<path fill="#60A296" d="M207.55,19.045c2.016-1.968,4.272-3.744,7.345-3.744c2.496,0,4.32,1.009,5.424,2.688
			c0.72,1.152,1.104,2.593,1.104,4.32V32.39h3.12v4.32H213.31v-4.32h2.88v-8.785c0-0.863-0.144-1.632-0.432-2.16
			c-0.48-0.912-1.344-1.392-2.592-1.392c-1.824,0-3.744,1.056-5.424,2.448v9.889h2.88v4.32h-11.233v-4.32h3.12V20.101h-3.12v-4.416
			h8.161V19.045z"/>
		<path fill="#60A296" d="M237.501,26.198c0-5.761,4.32-10.897,11.185-10.897c6.961,0,11.185,5.041,11.185,10.897
			c0,5.761-4.32,10.896-11.185,10.896C241.725,37.095,237.501,32.055,237.501,26.198z M254.495,26.198
			c0-3.841-2.4-6.528-5.809-6.528c-3.408,0-5.808,2.688-5.808,6.528s2.4,6.528,5.808,6.528
			C252.095,32.727,254.495,30.038,254.495,26.198z"/>
		<path fill="#60A296" d="M280.799,15.686v-4.081c0-3.84,0.672-6.24,2.688-8.208c1.488-1.44,3.408-2.209,5.761-2.209
			c2.736,0,4.656,1.44,4.656,3.553c0,1.872-1.344,2.977-2.833,2.977c-1.632,0-2.448-0.864-3.024-1.969
			c-0.432,0.192-0.864,0.48-1.104,0.864c-0.624,0.912-0.96,2.208-0.96,4.225v4.849h5.473v4.416h-5.473v12.289h4.081v4.32h-12.193
			v-4.32h2.928V20.103h-9.217v12.289h3.84v4.32h-12.193v-4.32h3.168V20.103h-3.601v-4.416h3.601v-3.121
			c0-3.696,1.008-6.72,2.688-8.4c1.392-1.392,3.024-2.016,5.281-2.016c2.736,0,4.656,1.439,4.656,3.552
			c0,1.872-1.344,2.977-2.832,2.977c-1.584,0-2.448-0.769-3.024-1.969c-0.24,0.145-0.48,0.336-0.672,0.624
			c-0.624,0.912-0.912,2.448-0.912,4.465v3.889h9.217V15.686z"/>
		<path fill="#60A296" d="M298.461,27.975c0.72,3.264,3.408,4.704,6.913,4.704c2.544,0,5.185-0.816,7.633-2.208l-0.432,4.704
			c-2.208,1.296-4.896,1.92-7.969,1.92c-6.864,0-11.617-4.32-11.617-10.849c0-5.952,4.176-10.945,10.657-10.945
			c6.721,0,10.225,4.513,10.225,10.081c0,0.816-0.096,1.872-0.24,2.593C313.631,27.975,298.461,27.975,298.461,27.975z
			 M298.413,24.326h10.225c-0.096-2.881-1.968-4.801-5.04-4.801C301.293,19.525,298.989,20.869,298.413,24.326z"/>
		<path fill="#60A296" d="M335.566,18.758c0,1.775-1.393,3.264-3.121,3.264c-1.584,0-2.64-0.912-3.072-1.872
			c-1.488,0.528-3.216,2.16-4.176,3.984v8.257h3.648v4.32h-12.001v-4.32h3.12V20.102h-3.12v-4.416h8.161v4.752
			c1.776-2.832,3.984-5.137,6.672-5.137C334.27,15.301,335.566,16.885,335.566,18.758z"/>
		<path fill="#60A296" d="M352.654,23.174c-1.68,0-2.832-1.008-2.832-2.592c0-0.337,0-0.625,0.096-0.912
			c-0.864-0.337-1.92-0.528-2.976-0.528c-2.352,0-3.504,1.056-3.504,2.16c0,1.2,1.2,1.824,4.417,2.688
			c5.041,1.344,7.969,2.592,7.969,6.384c0,4.417-4.128,6.769-8.881,6.769c-3.216,0-6.673-1.151-8.065-2.544
			c-0.864-0.864-1.2-1.728-1.2-2.832c0-1.536,1.152-2.832,2.785-2.832c1.44,0,2.832,0.96,2.832,2.784
			c0,0.288-0.048,0.576-0.096,0.864c0.96,0.384,2.304,0.672,3.792,0.672c2.112,0,3.84-0.721,3.84-2.257
			c0-1.056-0.912-1.68-4.128-2.544c-5.809-1.536-8.256-2.928-8.256-6.528c0-3.265,2.688-6.673,8.592-6.673
			c2.544,0,5.617,0.96,7.057,2.4c0.768,0.768,1.152,1.68,1.152,2.688C355.246,22.022,354.19,23.174,352.654,23.174z"/>
		<path fill="#60A296" d="M382.077,41.703h3.792v-7.297c-1.536,1.488-3.504,2.688-6.192,2.688c-5.568,0-9.745-4.464-9.745-10.801
			c0-6.097,4.416-10.993,10.081-10.993c2.688,0,4.608,0.96,6.385,2.4l1.152-2.16h3.552v26.162h3.168v4.417h-12.193L382.077,41.703
			L382.077,41.703z M385.869,30.471v-9.025c-1.392-0.96-3.024-1.632-4.992-1.632c-2.928,0-5.568,2.256-5.568,6.433
			c0,4.032,2.496,6.337,5.568,6.337C382.845,32.583,384.429,31.719,385.869,30.471z"/>
		<path fill="#60A296" d="M398.78,34.311c-0.672-1.104-1.056-2.544-1.056-4.225v-9.984h-3.12v-4.416h8.353V28.79
			c0,0.912,0.144,1.584,0.432,2.16c0.48,0.912,1.344,1.393,2.592,1.393c1.824,0,3.744-1.057,5.424-2.448v-9.793h-3.264v-4.416h8.497
			v16.705h3.121v4.32h-8.161v-3.36c-2.016,1.968-4.272,3.744-7.345,3.744C401.708,37.095,399.836,36.039,398.78,34.311z"/>
		<path fill="#60A296" d="M422.539,32.391h3.216V20.102h-3.216v-4.416h8.448v16.705h3.12v4.32h-11.568V32.391z M424.364,9.013
			c0-1.92,1.68-3.456,3.552-3.456s3.456,1.536,3.456,3.456s-1.68,3.456-3.553,3.456C425.948,12.469,424.364,10.933,424.364,9.013z"
			/>
		<path fill="#60A296" d="M437.275,26.006c0-5.473,4.416-10.705,10.657-10.705c5.76,0,9.553,3.744,9.553,7.057
			c0,2.208-1.488,3.553-3.361,3.553c-1.728,0-3.168-1.44-3.168-3.168c0-0.625,0.289-1.345,0.672-1.776
			c-0.383-0.528-1.68-1.44-3.744-1.44c-2.4,0-5.376,1.968-5.376,6.576c0,4.033,3.072,6.577,6.816,6.577
			c2.544,0,4.753-0.72,7.489-2.208l-0.433,4.704c-2.257,1.296-4.417,1.92-7.489,1.92C442.267,37.095,437.275,32.774,437.275,26.006z
			"/>
		<path fill="#60A296" d="M460.842,32.391h3.121V5.988h-3.121V1.572h8.354v23.569l6.145-5.28h-2.929v-4.176h12.433v4.416h-3.888
			l-4.896,4.128l5.329,8.065h3.455v4.416h-6.576l-6.049-9.457l-3.023,2.545v2.688h2.641v4.225h-10.994v-4.32H460.842z"/>
		<path fill="#60A296" d="M498.186,32.391h3.216V20.102h-3.216v-4.416h8.448v16.705h3.12v4.32h-11.568V32.391z M500.01,9.013
			c0-1.92,1.68-3.456,3.552-3.456s3.456,1.536,3.456,3.456s-1.68,3.456-3.553,3.456C501.594,12.469,500.01,10.933,500.01,9.013z"/>
		<path fill="#60A296" d="M520.938,19.045c2.016-1.968,4.272-3.744,7.345-3.744c2.496,0,4.32,1.009,5.425,2.688
			c0.72,1.152,1.104,2.593,1.104,4.32V32.39h3.12v4.32h-11.233v-4.32h2.881v-8.785c0-0.863-0.145-1.632-0.432-2.16
			c-0.48-0.912-1.344-1.392-2.593-1.392c-1.823,0-3.744,1.056-5.425,2.448v9.889h2.881v4.32h-11.232v-4.32h3.119V20.101h-3.119
			v-4.416h8.16L520.938,19.045L520.938,19.045z"/>
		<path fill="#60A296" d="M550.986,5.748c-0.433,0.192-0.864,0.48-1.104,0.864c-0.623,0.912-0.959,2.208-0.959,4.225v4.849h5.472
			v4.416h-5.472v12.289h4.08v4.32h-12.434v-4.32h3.168V20.102h-3.6v-4.416h3.6v-4.081c0-3.84,0.672-6.24,2.688-8.208
			c1.488-1.44,3.409-2.209,5.761-2.209c2.736,0,4.656,1.44,4.656,3.553c0,1.872-1.344,2.977-2.832,2.977
			C552.377,7.717,551.562,6.853,550.986,5.748z"/>
		<path fill="#60A296" d="M560.057,34.311c-0.672-1.104-1.057-2.544-1.057-4.225v-9.984h-3.12v-4.416h8.353V28.79
			c0,0.912,0.145,1.584,0.432,2.16c0.48,0.912,1.345,1.393,2.593,1.393c1.824,0,3.744-1.057,5.425-2.448v-9.793h-3.265v-4.416h8.497
			v16.705h3.12v4.32h-8.161v-3.36c-2.016,1.968-4.271,3.744-7.344,3.744C562.985,37.095,561.113,36.039,560.057,34.311z"/>
		<path fill="#60A296" d="M599.178,23.174c-1.681,0-2.832-1.008-2.832-2.592c0-0.337,0-0.625,0.096-0.912
			c-0.864-0.337-1.92-0.528-2.977-0.528c-2.352,0-3.504,1.056-3.504,2.16c0,1.2,1.199,1.824,4.416,2.688
			c5.041,1.344,7.969,2.592,7.969,6.384c0,4.417-4.129,6.769-8.881,6.769c-3.217,0-6.673-1.151-8.064-2.544
			c-0.864-0.864-1.201-1.728-1.201-2.832c0-1.536,1.152-2.832,2.785-2.832c1.439,0,2.832,0.96,2.832,2.784
			c0,0.288-0.048,0.576-0.096,0.864c0.96,0.384,2.304,0.672,3.792,0.672c2.112,0,3.841-0.721,3.841-2.257
			c0-1.056-0.912-1.68-4.129-2.544c-5.809-1.536-8.256-2.928-8.256-6.528c0-3.265,2.688-6.673,8.592-6.673
			c2.545,0,5.617,0.96,7.057,2.4c0.768,0.768,1.152,1.68,1.152,2.688C601.77,22.022,600.713,23.174,599.178,23.174z"/>
		<path fill="#60A296" d="M605.799,32.391h3.217V20.102h-3.217v-4.416h8.449v16.705h3.121v4.32h-11.57L605.799,32.391
			L605.799,32.391z M607.623,9.013c0-1.92,1.681-3.456,3.553-3.456c1.873,0,3.457,1.536,3.457,3.456s-1.682,3.456-3.553,3.456
			C609.207,12.469,607.623,10.933,607.623,9.013z"/>
		<path fill="#60A296" d="M620.536,26.198c0-5.761,4.32-10.897,11.186-10.897c6.959,0,11.184,5.041,11.184,10.897
			c0,5.761-4.32,10.896-11.184,10.896C624.76,37.095,620.536,32.055,620.536,26.198z M637.53,26.198c0-3.841-2.4-6.528-5.809-6.528
			s-5.809,2.688-5.809,6.528s2.4,6.528,5.809,6.528S637.53,30.038,637.53,26.198z"/>
		<path fill="#60A296" d="M654.184,19.045c2.016-1.968,4.271-3.744,7.344-3.744c2.496,0,4.32,1.009,5.426,2.688
			c0.719,1.152,1.104,2.593,1.104,4.32V32.39h3.121v4.32h-11.234v-4.32h2.881v-8.785c0-0.863-0.145-1.632-0.432-2.16
			c-0.48-0.912-1.344-1.392-2.592-1.392c-1.824,0-3.746,1.056-5.426,2.448v9.889h2.881v4.32h-11.232v-4.32h3.119V20.101h-3.119
			v-4.416h8.16L654.184,19.045L654.184,19.045z"/>
	</g>
	<g enable-background="new    ">
		<path fill="#60A296" d="M0,82.391h3.216V70.102H0v-4.416h8.449v16.705h3.12v4.32H0V82.391z M1.824,59.013
			c0-1.92,1.68-3.456,3.552-3.456s3.457,1.536,3.457,3.456s-1.68,3.456-3.553,3.456C3.408,62.469,1.824,60.933,1.824,59.013z"/>
		<path fill="#60A296" d="M22.752,69.045c2.016-1.968,4.272-3.744,7.345-3.744c2.496,0,4.32,1.009,5.424,2.688
			c0.72,1.152,1.104,2.593,1.104,4.32V82.39h3.12v4.32H28.512v-4.32h2.88v-8.785c0-0.863-0.144-1.632-0.432-2.16
			c-0.48-0.912-1.344-1.392-2.592-1.392c-1.824,0-3.744,1.056-5.424,2.448v9.889h2.88v4.32H14.591v-4.32h3.12V70.101h-3.12v-4.416
			h8.161C22.752,65.685,22.752,69.045,22.752,69.045z"/>
		<path fill="#60A296" d="M51.599,89.591c1.536,0,2.592,1.104,2.833,2.545c1.056-0.24,1.776-1.104,2.16-2.16
			c0.384-1.104,0.48-2.209,0.48-3.312V70.102h-3.937v-4.416h9.169v20.689c0,2.304-0.432,4.225-1.2,5.713
			c-1.44,2.88-4.176,4.224-7.249,4.224c-3.552,0-5.136-1.968-5.136-3.792C48.719,90.936,50.015,89.591,51.599,89.591z
			 M55.295,59.013c0-1.92,1.68-3.456,3.553-3.456c1.872,0,3.456,1.536,3.456,3.456s-1.68,3.456-3.552,3.456
			S55.295,60.933,55.295,59.013z"/>
		<path fill="#60A296" d="M70.223,84.311c-0.672-1.104-1.056-2.544-1.056-4.225v-9.984h-3.12v-4.416H74.4V78.79
			c0,0.912,0.144,1.584,0.432,2.16c0.48,0.912,1.344,1.393,2.592,1.393c1.824,0,3.744-1.057,5.424-2.448v-9.793h-3.264v-4.416h8.497
			v16.705h3.121v4.32h-8.161v-3.36c-2.017,1.968-4.272,3.744-7.345,3.744C73.151,87.095,71.279,86.039,70.223,84.311z"/>
		<path fill="#60A296" d="M109.344,73.174c-1.68,0-2.832-1.008-2.832-2.592c0-0.337,0-0.625,0.096-0.912
			c-0.864-0.337-1.92-0.528-2.976-0.528c-2.352,0-3.504,1.056-3.504,2.16c0,1.2,1.2,1.824,4.417,2.688
			c5.041,1.344,7.969,2.592,7.969,6.384c0,4.417-4.128,6.769-8.881,6.769c-3.216,0-6.673-1.151-8.065-2.544
			c-0.864-0.864-1.2-1.728-1.2-2.832c0-1.536,1.152-2.832,2.785-2.832c1.44,0,2.832,0.96,2.832,2.784
			c0,0.288-0.048,0.576-0.096,0.864c0.96,0.384,2.304,0.672,3.792,0.672c2.112,0,3.84-0.721,3.84-2.257
			c0-1.056-0.912-1.68-4.128-2.544c-5.809-1.536-8.256-2.928-8.256-6.528c0-3.265,2.688-6.673,8.592-6.673
			c2.544,0,5.617,0.96,7.057,2.4c0.768,0.768,1.152,1.68,1.152,2.688C111.936,72.022,110.88,73.174,109.344,73.174z"/>
		<path fill="#60A296" d="M119.662,84.215c-0.48-0.864-0.72-1.969-0.72-3.312V70.102h-4.08v-4.416h4.08v-4.417l5.185-2.256v6.673
			h6.385v4.416h-6.385v9.793c0,0.672,0.096,1.104,0.336,1.536c0.384,0.672,1.152,1.008,2.208,1.008c1.344,0,2.88-0.528,4.128-1.104
			l-0.432,4.513c-1.44,0.721-3.121,1.248-5.041,1.248C122.782,87.095,120.718,86.231,119.662,84.215z"/>
		<path fill="#60A296" d="M146.829,81.959c1.728,0,3.168,1.439,3.168,3.168c0,0.672-0.288,1.392-0.672,1.92
			c1.2,0.96,3.072,1.44,5.088,1.44c3.265,0,5.665-1.92,5.665-4.849c0-1.824-0.864-3.456-3.12-4.416
			c-1.2-0.528-2.833-0.816-4.993-0.816h-1.44v-4.128h1.584c2.064,0,3.84-0.385,5.185-1.057c1.632-0.864,2.592-2.16,2.592-3.889
			c0-2.592-2.4-3.888-5.232-3.888c-1.92,0-3.216,0.336-4.032,0.96c0.384,0.528,0.672,1.248,0.672,1.92
			c0,1.729-1.44,3.168-3.168,3.168s-3.264-1.487-3.264-3.792c0-0.816,0.288-1.824,0.96-2.784c1.344-1.968,4.225-3.792,9.025-3.792
			c6.048,0,10.417,3.408,10.417,8.017c0,2.544-1.584,4.656-3.792,5.904c-0.912,0.528-1.92,0.912-2.976,1.104
			c0.912,0.239,1.872,0.624,2.736,1.104c2.304,1.296,4.224,3.456,4.224,6.721c0,5.377-4.752,8.833-11.089,8.833
			c-4.512,0-8.113-1.776-9.793-4.177c-0.624-0.912-1.008-1.968-1.008-3.024C143.564,83.591,144.908,81.959,146.829,81.959z"/>
		<path fill="#60A296" d="M168.812,74.134c0-7.44,5.041-13.009,12.001-13.009s12.001,5.568,12.001,13.009
			s-5.041,12.961-12.001,12.961S168.812,81.574,168.812,74.134z M187.437,74.134c0-4.944-2.688-8.641-6.625-8.641
			s-6.625,3.696-6.625,8.641s2.688,8.593,6.625,8.593S187.437,79.078,187.437,74.134z"/>
		<path fill="#60A296" d="M206.827,82.391h3.12V70.102h-3.12v-4.416h8.161v3.312c1.632-1.775,3.936-3.696,7.057-3.696
			c2.256,0,3.936,0.864,4.992,2.257c0.288,0.384,0.48,0.768,0.672,1.2c1.968-1.921,4.32-3.457,7.008-3.457
			c2.928,0,4.944,1.057,6,3.024c0.576,1.057,0.864,2.4,0.864,3.937v10.129h3.12v4.32h-11.185v-4.32h2.833v-8.881
			c0-0.816-0.096-1.44-0.336-1.968c-0.432-1.009-1.296-1.488-2.497-1.488c-1.728,0-3.552,1.008-5.136,2.352v9.985h2.832v4.32
			h-10.945v-4.32h2.88v-8.881c0-0.816-0.096-1.44-0.336-1.968c-0.432-1.009-1.248-1.488-2.496-1.488
			c-1.729,0-3.553,1.008-5.137,2.352v9.985h2.784v4.32h-11.137v-4.321H206.827z"/>
		<path fill="#60A296" d="M247.003,82.391h3.216V70.102h-3.216v-4.416h8.449v16.705h3.12v4.32h-11.569V82.391z M248.827,59.013
			c0-1.92,1.68-3.456,3.552-3.456s3.457,1.536,3.457,3.456s-1.68,3.456-3.553,3.456C250.411,62.469,248.827,60.933,248.827,59.013z"
			/>
		<path fill="#60A296" d="M269.755,69.045c2.016-1.968,4.272-3.744,7.345-3.744c2.496,0,4.32,1.009,5.424,2.688
			c0.72,1.152,1.104,2.593,1.104,4.32V82.39h3.12v4.32h-11.233v-4.32h2.88v-8.785c0-0.863-0.144-1.632-0.432-2.16
			c-0.48-0.912-1.344-1.392-2.592-1.392c-1.824,0-3.744,1.056-5.424,2.448v9.889h2.88v4.32h-11.233v-4.32h3.12V70.101h-3.12v-4.416
			h8.161V69.045z"/>
		<path fill="#60A296" d="M292.458,84.311c-0.672-1.104-1.056-2.544-1.056-4.225v-9.984h-3.12v-4.416h8.353V78.79
			c0,0.912,0.144,1.584,0.432,2.16c0.48,0.912,1.344,1.393,2.592,1.393c1.824,0,3.744-1.057,5.424-2.448v-9.793h-3.264v-4.416h8.497
			v16.705h3.121v4.32h-8.161v-3.36c-2.016,1.968-4.272,3.744-7.345,3.744C295.387,87.095,293.515,86.039,292.458,84.311z"/>
		<path fill="#60A296" d="M319.914,84.215c-0.48-0.864-0.72-1.969-0.72-3.312V70.102h-4.08v-4.416h4.08v-4.417l5.185-2.256v6.673
			h6.385v4.416h-6.385v9.793c0,0.672,0.096,1.104,0.336,1.536c0.384,0.672,1.152,1.008,2.208,1.008c1.344,0,2.88-0.528,4.128-1.104
			l-0.432,4.513c-1.44,0.721-3.121,1.248-5.041,1.248C323.034,87.095,320.97,86.231,319.914,84.215z"/>
		<path fill="#60A296" d="M339.018,77.975c0.72,3.264,3.408,4.704,6.913,4.704c2.544,0,5.185-0.816,7.633-2.208l-0.432,4.704
			c-2.208,1.296-4.896,1.92-7.969,1.92c-6.864,0-11.617-4.32-11.617-10.849c0-5.952,4.176-10.945,10.657-10.945
			c6.721,0,10.225,4.513,10.225,10.081c0,0.816-0.096,1.872-0.24,2.593L339.018,77.975L339.018,77.975z M338.97,74.326h10.225
			c-0.096-2.881-1.968-4.801-5.041-4.801C341.85,69.525,339.546,70.869,338.97,74.326z"/>
		<path fill="#60A296" d="M372.811,73.174c-1.68,0-2.832-1.008-2.832-2.592c0-0.337,0-0.625,0.096-0.912
			c-0.864-0.337-1.92-0.528-2.976-0.528c-2.353,0-3.504,1.056-3.504,2.16c0,1.2,1.2,1.824,4.417,2.688
			c5.041,1.344,7.969,2.592,7.969,6.384c0,4.417-4.128,6.769-8.881,6.769c-3.216,0-6.673-1.151-8.065-2.544
			c-0.864-0.864-1.2-1.728-1.2-2.832c0-1.536,1.152-2.832,2.784-2.832c1.44,0,2.832,0.96,2.832,2.784
			c0,0.288-0.048,0.576-0.096,0.864c0.96,0.384,2.304,0.672,3.792,0.672c2.112,0,3.84-0.721,3.84-2.257
			c0-1.056-0.912-1.68-4.128-2.544c-5.809-1.536-8.257-2.928-8.257-6.528c0-3.265,2.688-6.673,8.593-6.673
			c2.544,0,5.617,0.96,7.057,2.4c0.768,0.768,1.152,1.68,1.152,2.688C375.403,72.022,374.347,73.174,372.811,73.174z"/>
		<path fill="#60A296" d="M380.105,83.158c0-2.208,1.776-3.984,3.937-3.984s3.937,1.776,3.937,3.984c0,2.16-1.776,3.937-3.937,3.937
			S380.105,85.318,380.105,83.158z"/>
	</g>
</g>
</svg>
