<?xml version="1.0" encoding="utf-8"?>
<!-- Generator: Adobe Illustrator 17.0.1, SVG Export Plug-In . SVG Version: 6.00 Build 0)  -->
<!DOCTYPE svg PUBLIC "-//W3C//DTD SVG 1.1//EN" "http://www.w3.org/Graphics/SVG/1.1/DTD/svg11.dtd">
<svg version="1.1" id="Layer_1" xmlns="http://www.w3.org/2000/svg" xmlns:xlink="http://www.w3.org/1999/xlink" x="0px" y="0px"
	 width="353.667px" height="291.667px" viewBox="0 0 353.667 291.667" enable-background="new 0 0 353.667 291.667"
	 xml:space="preserve">
<g>
	<path fill="#EDE07B" d="M222.001,73.687c-3.957,0-7.228,2.906-7.82,6.698h15.64C229.231,76.593,225.961,73.687,222.001,73.687z"/>
	<path fill="#EDE07B" d="M221.864,28.743c-72.006,0-130.379,58.373-130.379,130.379s58.373,130.379,130.379,130.379
		s130.379-58.373,130.379-130.379S293.87,28.743,221.864,28.743z M281.261,96.16c-0.296,8.305-2.915,80.267-14.825,97.807
		c-6.053,8.913-19.244,33.105-29.717,38.631h-29.712c-10.471-5.527-23.665-29.718-29.717-38.631
		c-11.911-17.54-14.527-89.503-14.826-97.807c-0.017-0.304-0.03-0.609-0.03-0.918c0-8.206,6.65-14.856,14.856-14.856h29.909
		c0.627-7.629,7.012-13.629,14.802-13.629c7.793,0,14.179,5.999,14.804,13.629h29.631c8.204,0,14.858,6.651,14.858,14.856
		C281.294,95.551,281.28,95.856,281.261,96.16z"/>
</g>
<path fill="#D5C400" d="M277.471,85.185c0.014,0.021,0.011,0.062,0,0.112c2.377,2.633,3.823,6.12,3.823,9.944
	c0,0.311-0.013,0.615-0.03,0.918c-0.299,8.304-2.918,80.267-14.826,97.807c-6.055,8.913-19.246,33.104-29.717,38.631h-0.002
	c0.023,0.271,0.041,0.544,0.041,0.824v2.061c0,4.555-3.705,8.248-8.275,8.248h-1.959v16.521v7.495v0.003v0.655
	c0,2.574-2.087,4.661-4.66,4.661c-1.074,0-2.063-0.367-2.854-0.979l14.433,16.896c3.411-0.302,6.788-0.73,10.119-1.29
	c57.638-9.657,102.453-57.121,108.076-116.03L277.471,85.185z"/>
<path fill="#4D4D4F" d="M0,75.351V63.898h1.516v11.453H0z"/>
<path fill="#4D4D4F" d="M4.008,75.351v-8.297h1.266v1.18c0.609-0.911,1.489-1.367,2.641-1.367c0.5,0,0.96,0.09,1.379,0.27
	s0.733,0.416,0.941,0.707c0.208,0.292,0.354,0.638,0.438,1.039c0.052,0.261,0.078,0.716,0.078,1.367v5.102H9.345v-5.047
	c0-0.573-0.055-1.001-0.164-1.285s-0.304-0.51-0.582-0.68c-0.278-0.169-0.605-0.254-0.98-0.254c-0.599,0-1.116,0.19-1.551,0.57
	s-0.652,1.102-0.652,2.164v4.531H4.008z"/>
<path fill="#4D4D4F" d="M13.242,75.351v-7.203H12v-1.094h1.242v-0.883c0-0.557,0.05-0.971,0.148-1.242
	c0.136-0.364,0.374-0.66,0.715-0.887s0.819-0.34,1.434-0.34c0.396,0,0.833,0.047,1.313,0.141l-0.211,1.227
	c-0.292-0.052-0.567-0.078-0.828-0.078c-0.427,0-0.729,0.091-0.906,0.273c-0.177,0.183-0.266,0.523-0.266,1.023v0.766h1.617v1.094
	h-1.617v7.203H13.242z"/>
<path fill="#4D4D4F" d="M22.789,75.351v-1.219c-0.646,0.938-1.523,1.406-2.633,1.406c-0.489,0-0.946-0.094-1.371-0.281
	s-0.739-0.423-0.945-0.707s-0.351-0.631-0.434-1.043c-0.058-0.276-0.086-0.713-0.086-1.313v-5.141h1.406v4.602
	c0,0.734,0.028,1.229,0.086,1.484c0.089,0.37,0.276,0.66,0.563,0.871s0.641,0.316,1.063,0.316s0.817-0.108,1.188-0.324
	c0.37-0.216,0.632-0.51,0.785-0.883c0.153-0.372,0.23-0.913,0.23-1.621v-4.445h1.406v8.297L22.789,75.351L22.789,75.351z"/>
<path fill="#4D4D4F" d="M25.688,72.875l1.391-0.219c0.078,0.558,0.296,0.984,0.652,1.281s0.855,0.445,1.496,0.445
	c0.646,0,1.125-0.131,1.438-0.395c0.313-0.263,0.469-0.571,0.469-0.926c0-0.317-0.138-0.567-0.414-0.75
	c-0.192-0.125-0.672-0.284-1.438-0.477c-1.031-0.26-1.746-0.485-2.145-0.676c-0.398-0.19-0.7-0.453-0.906-0.789
	s-0.309-0.707-0.309-1.113c0-0.37,0.085-0.712,0.254-1.027s0.399-0.577,0.691-0.785c0.219-0.161,0.517-0.298,0.895-0.41
	s0.782-0.168,1.215-0.168c0.651,0,1.223,0.094,1.715,0.281s0.855,0.441,1.09,0.762s0.396,0.749,0.484,1.285l-1.375,0.188
	c-0.063-0.427-0.243-0.76-0.543-1c-0.3-0.239-0.723-0.359-1.27-0.359c-0.646,0-1.106,0.107-1.383,0.32
	c-0.276,0.214-0.414,0.464-0.414,0.75c0,0.183,0.058,0.347,0.172,0.492c0.114,0.151,0.294,0.276,0.539,0.375
	c0.141,0.052,0.555,0.172,1.242,0.359c0.995,0.266,1.688,0.483,2.082,0.652s0.702,0.416,0.926,0.738
	c0.224,0.323,0.336,0.724,0.336,1.203c0,0.469-0.137,0.91-0.41,1.324s-0.668,0.734-1.184,0.961s-1.099,0.34-1.75,0.34
	c-1.078,0-1.899-0.224-2.465-0.672C26.204,74.419,25.844,73.755,25.688,72.875z"/>
<path fill="#4D4D4F" d="M34.258,65.516v-1.617h1.406v1.617H34.258z M34.258,75.351v-8.297h1.406v8.297H34.258z"/>
<path fill="#4D4D4F" d="M37.282,71.203c0-1.536,0.427-2.674,1.281-3.414c0.714-0.614,1.583-0.922,2.609-0.922
	c1.141,0,2.073,0.374,2.797,1.121c0.724,0.748,1.086,1.78,1.086,3.098c0,1.068-0.16,1.908-0.48,2.52s-0.786,1.087-1.398,1.426
	s-1.28,0.508-2.004,0.508c-1.161,0-2.101-0.372-2.816-1.117C37.64,73.677,37.282,72.604,37.282,71.203z M38.727,71.203
	c0,1.063,0.231,1.858,0.695,2.387s1.047,0.793,1.75,0.793c0.698,0,1.278-0.266,1.742-0.797s0.695-1.341,0.695-2.43
	c0-1.026-0.233-1.803-0.699-2.332c-0.466-0.528-1.046-0.793-1.738-0.793c-0.703,0-1.286,0.263-1.75,0.789
	C38.958,69.347,38.727,70.141,38.727,71.203z"/>
<path fill="#4D4D4F" d="M46.703,75.351v-8.297h1.266v1.18c0.609-0.911,1.489-1.367,2.641-1.367c0.5,0,0.96,0.09,1.379,0.27
	s0.733,0.416,0.941,0.707c0.208,0.292,0.354,0.638,0.438,1.039c0.052,0.261,0.078,0.716,0.078,1.367v5.102H52.04v-5.047
	c0-0.573-0.055-1.001-0.164-1.285s-0.304-0.51-0.582-0.68c-0.278-0.169-0.605-0.254-0.98-0.254c-0.599,0-1.116,0.19-1.551,0.57
	s-0.652,1.102-0.652,2.164v4.531H46.703z"/>
<path fill="#4D4D4F" d="M63.117,74.094l0.203,1.242c-0.396,0.083-0.75,0.125-1.063,0.125c-0.511,0-0.906-0.081-1.188-0.242
	s-0.479-0.374-0.594-0.637c-0.114-0.263-0.172-0.816-0.172-1.66v-4.773h-1.031v-1.094h1.031V65l1.398-0.844v2.898h1.414v1.094
	h-1.414V73c0,0.401,0.024,0.659,0.074,0.773c0.05,0.115,0.13,0.206,0.242,0.273c0.112,0.068,0.272,0.102,0.48,0.102
	C62.657,74.148,62.863,74.13,63.117,74.094z"/>
<path fill="#4D4D4F" d="M64.5,65.516v-1.617h1.406v1.617H64.5z M64.5,75.351v-8.297h1.406v8.297H64.5z"/>
<path fill="#4D4D4F" d="M68.047,75.351v-8.297h1.258v1.164c0.261-0.406,0.606-0.733,1.039-0.98s0.925-0.371,1.477-0.371
	c0.614,0,1.118,0.128,1.512,0.383c0.394,0.255,0.671,0.612,0.832,1.07c0.656-0.969,1.511-1.453,2.563-1.453
	c0.823,0,1.456,0.228,1.898,0.684s0.664,1.158,0.664,2.105v5.695h-1.398v-5.227c0-0.563-0.046-0.967-0.137-1.215
	c-0.091-0.247-0.257-0.446-0.496-0.598c-0.239-0.151-0.521-0.227-0.844-0.227c-0.583,0-1.067,0.194-1.453,0.582
	s-0.578,1.009-0.578,1.863v4.82h-1.406v-5.391c0-0.625-0.114-1.094-0.344-1.406s-0.604-0.469-1.125-0.469
	c-0.396,0-0.762,0.104-1.098,0.313c-0.336,0.208-0.579,0.513-0.73,0.914s-0.227,0.979-0.227,1.734v4.305h-1.407V75.351z"/>
<path fill="#4D4D4F" d="M87.055,72.68l1.453,0.18c-0.229,0.849-0.653,1.508-1.273,1.977s-1.411,0.703-2.375,0.703
	c-1.214,0-2.176-0.374-2.887-1.121s-1.066-1.795-1.066-3.145c0-1.396,0.359-2.479,1.078-3.25s1.651-1.156,2.797-1.156
	c1.109,0,2.016,0.378,2.719,1.133s1.055,1.818,1.055,3.188c0,0.083-0.003,0.208-0.008,0.375H82.36
	c0.052,0.912,0.31,1.609,0.773,2.094s1.042,0.727,1.734,0.727c0.516,0,0.956-0.135,1.32-0.406
	C86.552,73.706,86.841,73.273,87.055,72.68z M82.438,70.406h4.633c-0.063-0.698-0.239-1.221-0.531-1.57
	c-0.448-0.542-1.028-0.813-1.742-0.813c-0.646,0-1.188,0.216-1.629,0.648C82.728,69.104,82.485,69.683,82.438,70.406z"/>
<path fill="#4D4D4F" d="M90.664,68.656v-1.602h1.602v1.602H90.664z M90.664,75.351v-1.602h1.602v1.602H90.664z"/>
<rect x="0.425" y="85.414" fill="#4D4D4F" width="92.417" height="1.479"/>
<path fill="#A7A7A9" d="M0.987,169.31v-25.054h7.57l4.546,17.09l4.495-17.09h7.588v25.054h-4.7v-19.722l-4.973,19.722h-4.871
	l-4.956-19.722v19.722H0.987z"/>
<path fill="#A7A7A9" d="M28.131,169.31v-25.054h5.059v25.054H28.131z"/>
<path fill="#A7A7A9" d="M36.135,169.31v-25.054h4.922l10.254,16.73v-16.73h4.7v25.054h-5.076l-10.1-16.338v16.338H36.135z"/>
<path fill="#A7A7A9" d="M58.154,161.158l4.922-0.479c0.296,1.652,0.897,2.866,1.803,3.641s2.128,1.162,3.666,1.162
	c1.629,0,2.856-0.345,3.683-1.034c0.826-0.688,1.239-1.495,1.239-2.418c0-0.593-0.174-1.097-0.521-1.513s-0.954-0.777-1.82-1.085
	c-0.593-0.205-1.942-0.569-4.05-1.094c-2.712-0.672-4.614-1.498-5.708-2.479c-1.538-1.378-2.308-3.059-2.308-5.041
	c0-1.276,0.361-2.47,1.086-3.58c0.723-1.111,1.766-1.957,3.127-2.538s3.005-0.872,4.931-0.872c3.145,0,5.512,0.689,7.101,2.068
	c1.59,1.379,2.424,3.219,2.504,5.52l-5.059,0.223c-0.217-1.287-0.682-2.213-1.393-2.777c-0.713-0.563-1.781-0.846-3.205-0.846
	c-1.47,0-2.62,0.302-3.452,0.905c-0.535,0.388-0.803,0.906-0.803,1.556c0,0.593,0.25,1.1,0.752,1.521
	c0.638,0.536,2.188,1.094,4.648,1.675s4.281,1.183,5.46,1.804c1.18,0.621,2.103,1.47,2.769,2.546c0.667,1.077,1,2.407,1,3.99
	c0,1.437-0.399,2.78-1.196,4.034c-0.798,1.253-1.926,2.185-3.384,2.794c-1.459,0.609-3.276,0.914-5.452,0.914
	c-3.167,0-5.6-0.731-7.297-2.196C59.497,166.094,58.484,163.96,58.154,161.158z"/>
<path fill="#4D4D4F" d="M173.724,9.296V6.884h6.23v5.703c-0.605,0.586-1.482,1.102-2.632,1.548
	c-1.148,0.446-2.313,0.669-3.491,0.669c-1.497,0-2.803-0.314-3.916-0.942s-1.949-1.527-2.51-2.695c-0.56-1.168-0.84-2.44-0.84-3.813
	c0-1.491,0.313-2.816,0.938-3.975s1.54-2.047,2.744-2.666C171.165,0.238,172.308,0,173.675,0c1.777,0,3.166,0.373,4.165,1.118
	c1,0.746,1.643,1.776,1.929,3.091l-2.871,0.537c-0.201-0.703-0.581-1.258-1.138-1.665s-1.251-0.61-2.085-0.61
	c-1.263,0-2.267,0.4-3.013,1.201c-0.745,0.801-1.118,1.989-1.118,3.564c0,1.699,0.378,2.974,1.133,3.823
	c0.756,0.85,1.745,1.274,2.969,1.274c0.605,0,1.213-0.119,1.821-0.356c0.609-0.238,1.132-0.526,1.567-0.864V9.297h-3.31
	L173.724,9.296L173.724,9.296z"/>
<path fill="#4D4D4F" d="M188.567,11.259l2.734,0.459c-0.352,1.002-0.906,1.766-1.665,2.29c-0.758,0.524-1.707,0.786-2.847,0.786
	c-1.803,0-3.138-0.589-4.004-1.768c-0.684-0.944-1.025-2.135-1.025-3.574c0-1.719,0.449-3.065,1.348-4.038s2.035-1.46,3.408-1.46
	c1.543,0,2.761,0.509,3.652,1.528c0.893,1.019,1.318,2.58,1.279,4.683h-6.875c0.02,0.814,0.241,1.447,0.664,1.899
	c0.424,0.453,0.951,0.679,1.582,0.679c0.43,0,0.791-0.117,1.084-0.352S188.417,11.78,188.567,11.259z M188.723,8.485
	c-0.02-0.794-0.225-1.398-0.615-1.812s-0.865-0.62-1.426-0.62c-0.599,0-1.094,0.218-1.484,0.654s-0.582,1.029-0.576,1.777h4.101
	V8.485z"/>
<path fill="#4D4D4F" d="M196.495,14.56l-4.18-10.371h2.881l1.953,5.293l0.566,1.768c0.15-0.449,0.244-0.746,0.283-0.889
	c0.092-0.293,0.189-0.586,0.293-0.879l1.973-5.293h2.822l-4.121,10.371H196.495z"/>
<path fill="#4D4D4F" d="M207.354,14.56h-2.744V4.189h2.549v1.475c0.437-0.697,0.829-1.156,1.177-1.377
	c0.349-0.221,0.744-0.332,1.187-0.332c0.625,0,1.228,0.172,1.807,0.518l-0.85,2.393c-0.462-0.299-0.892-0.449-1.289-0.449
	c-0.384,0-0.709,0.106-0.977,0.317c-0.267,0.211-0.477,0.594-0.63,1.147c-0.152,0.553-0.229,1.712-0.229,3.477L207.354,14.56
	C207.355,14.56,207.354,14.56,207.354,14.56z"/>
<path fill="#4D4D4F" d="M212.47,2.782V0.243h2.744v2.539H212.47z M212.47,14.56V4.189h2.744V14.56H212.47z"/>
<path fill="#4D4D4F" d="M227.03,7.255l-2.705,0.488c-0.091-0.541-0.298-0.947-0.62-1.221s-0.74-0.41-1.255-0.41
	c-0.684,0-1.229,0.236-1.636,0.708c-0.406,0.472-0.61,1.261-0.61,2.368c0,1.23,0.207,2.1,0.62,2.607
	c0.414,0.508,0.969,0.762,1.665,0.762c0.521,0,0.947-0.148,1.279-0.444s0.566-0.806,0.703-1.528l2.695,0.459
	c-0.279,1.237-0.816,2.171-1.611,2.803c-0.794,0.631-1.858,0.947-3.193,0.947c-1.517,0-2.726-0.479-3.628-1.436
	c-0.901-0.957-1.353-2.282-1.353-3.975c0-1.712,0.453-3.045,1.357-3.999c0.905-0.954,2.129-1.431,3.672-1.431
	c1.264,0,2.268,0.272,3.013,0.815C226.169,5.313,226.704,6.142,227.03,7.255z"/>
<path fill="#4D4D4F" d="M229.07,2.782V0.243h2.744v2.539H229.07z M229.07,14.56V4.189h2.744V14.56H229.07z"/>
<path fill="#4D4D4F" d="M234.47,14.56V0.243h2.744v5.156c0.846-0.963,1.849-1.445,3.008-1.445c1.263,0,2.308,0.458,3.135,1.372
	c0.826,0.915,1.24,2.228,1.24,3.94c0,1.771-0.422,3.135-1.265,4.092c-0.844,0.957-1.867,1.436-3.071,1.436
	c-0.593,0-1.177-0.148-1.753-0.444s-1.073-0.734-1.489-1.313v1.523H234.47L234.47,14.56z M237.195,9.149
	c0,1.074,0.169,1.869,0.508,2.383c0.475,0.729,1.106,1.094,1.895,1.094c0.605,0,1.121-0.259,1.548-0.776
	c0.426-0.518,0.64-1.333,0.64-2.446c0-1.185-0.215-2.04-0.645-2.563s-0.98-0.786-1.65-0.786c-0.658,0-1.205,0.255-1.641,0.767
	C237.412,7.331,237.195,8.108,237.195,9.149z"/>
<path fill="#4D4D4F" d="M246.764,2.782V0.243h2.744v2.539H246.764z M246.764,14.56V4.189h2.744V14.56H246.764z"/>
<path fill="#4D4D4F" d="M261.714,14.56h-2.744V9.267c0-1.12-0.059-1.844-0.176-2.173s-0.308-0.584-0.571-0.767
	s-0.581-0.273-0.952-0.273c-0.476,0-0.902,0.13-1.279,0.391c-0.378,0.26-0.637,0.605-0.776,1.035c-0.141,0.43-0.21,1.224-0.21,2.383
	v4.697h-2.744V4.189h2.549v1.523c0.904-1.172,2.044-1.758,3.418-1.758c0.605,0,1.158,0.109,1.66,0.327
	c0.501,0.218,0.88,0.497,1.138,0.835c0.257,0.338,0.436,0.723,0.537,1.152c0.101,0.43,0.151,1.045,0.151,1.846L261.714,14.56
	L261.714,14.56z"/>
<path fill="#4D4D4F" d="M270.463,11.259l2.734,0.459c-0.352,1.002-0.907,1.766-1.665,2.29c-0.759,0.524-1.708,0.786-2.847,0.786
	c-1.804,0-3.139-0.589-4.004-1.768c-0.684-0.944-1.025-2.135-1.025-3.574c0-1.719,0.449-3.065,1.348-4.038s2.034-1.46,3.408-1.46
	c1.543,0,2.76,0.509,3.652,1.528s1.318,2.58,1.279,4.683h-6.875c0.02,0.814,0.24,1.447,0.664,1.899
	c0.423,0.453,0.95,0.679,1.582,0.679c0.43,0,0.791-0.117,1.084-0.352S270.313,11.78,270.463,11.259z M270.619,8.485
	c-0.02-0.794-0.225-1.398-0.615-1.812s-0.866-0.62-1.426-0.62c-0.6,0-1.094,0.218-1.484,0.654s-0.583,1.029-0.576,1.777h4.101
	L270.619,8.485L270.619,8.485z"/>
<g>
	<g>
		
			<circle fill="none" stroke="#EDE07B" stroke-width="0" stroke-linecap="round" stroke-linejoin="round" cx="221.865" cy="159.122" r="130.378"/>
		<path fill="none" stroke="#EDE07B" stroke-width="0" stroke-linecap="round" stroke-linejoin="round" d="M214.087,80.964h15.643
			c-0.591-3.792-3.863-6.698-7.821-6.698S214.68,77.172,214.087,80.964z"/>
		
			<path opacity="0.4" fill="none" stroke="#FFFFFF" stroke-width="0" stroke-linecap="round" stroke-linejoin="round" enable-background="new    " d="
			M214.087,80.964h15.643c-0.591-3.792-3.863-6.698-7.821-6.698S214.68,77.172,214.087,80.964z"/>
		<path fill="none" stroke="#EDE07B" stroke-width="0" stroke-linecap="round" stroke-linejoin="round" d="M162.339,95.821
			c0,0.309,0.013,0.614,0.031,0.918c0.298,8.304,2.916,80.267,14.826,97.807c6.053,8.913,19.245,33.104,29.716,38.631h29.713
			c10.471-5.526,23.663-29.718,29.716-38.631c11.91-17.54,14.529-89.502,14.826-97.807c0.019-0.304,0.031-0.609,0.031-0.918
			c0-8.205-6.651-14.856-14.857-14.856h-29.63c-0.625-7.63-7.012-13.629-14.802-13.629c-7.791,0-14.178,6-14.803,13.629h-29.91
			C168.991,80.965,162.339,87.615,162.339,95.821z"/>
		
			<path opacity="0.4" fill="none" stroke="#FFFFFF" stroke-width="0" stroke-linecap="round" stroke-linejoin="round" enable-background="new    " d="
			M162.339,95.821c0,0.309,0.013,0.614,0.031,0.918c0.298,8.304,2.916,80.267,14.826,97.807
			c6.053,8.913,19.245,33.104,29.716,38.631h29.713c10.471-5.526,23.663-29.718,29.716-38.631
			c11.91-17.54,14.529-89.502,14.826-97.807c0.019-0.304,0.031-0.609,0.031-0.918c0-8.205-6.651-14.856-14.857-14.856h-29.63
			c-0.625-7.63-7.012-13.629-14.802-13.629c-7.791,0-14.178,6-14.803,13.629h-29.91C168.991,80.965,162.339,87.615,162.339,95.821z"
			/>
	</g>
</g>
</svg>
