<?xml version="1.0" encoding="utf-8"?>
<!-- Generator: Adobe Illustrator 17.0.1, SVG Export Plug-In . SVG Version: 6.00 Build 0)  -->
<!DOCTYPE svg PUBLIC "-//W3C//DTD SVG 1.1//EN" "http://www.w3.org/Graphics/SVG/1.1/DTD/svg11.dtd">
<svg version="1.1" id="Layer_1" xmlns="http://www.w3.org/2000/svg" xmlns:xlink="http://www.w3.org/1999/xlink" x="0px" y="0px"
	 width="361px" height="411.602px" viewBox="0 0 361 411.602" style="enable-background:new 0 0 361 411.602;" xml:space="preserve"
	>
<style type="text/css">
	.st0{opacity:0.5;}
	.st1{fill:#6D6E70;}
</style>
<g class="st0">
	<path class="st1" d="M347.793,307.739H13.207c-6.363,0-11.537-5.174-11.537-11.537V13.537C1.67,7.174,6.844,2,13.207,2h334.586
		c6.363,0,11.537,5.174,11.537,11.537v282.664C359.33,302.565,354.156,307.739,347.793,307.739z M347.793,250.052l0.008,46.15
		L347.793,250.052z M24.745,287.549h311.511V24.94H24.745V287.549z"/>
	<path class="st1" d="M271.999,145.201L122.65,80.557c-3.161-1.349-6.819-1.04-9.704,0.839c-2.884,1.893-4.625,5.121-4.625,8.574
		v129.289c0,3.442,1.741,6.681,4.625,8.58c1.701,1.093,3.656,1.679,5.633,1.679c1.375,0,2.757-0.276,4.07-0.845l149.35-64.639
		c3.758-1.623,6.18-5.33,6.18-9.419C278.179,150.531,275.757,146.821,271.999,145.201z M123.061,209.406V99.812l130.596,54.803
		L123.061,209.406z"/>
</g>
</svg>
