<?xml version="1.0" encoding="utf-8"?>
<!-- Generator: Adobe Illustrator 17.0.1, SVG Export Plug-In . SVG Version: 6.00 Build 0)  -->
<!DOCTYPE svg PUBLIC "-//W3C//DTD SVG 1.1//EN" "http://www.w3.org/Graphics/SVG/1.1/DTD/svg11.dtd">
<svg version="1.1" id="Layer_1" xmlns="http://www.w3.org/2000/svg" xmlns:xlink="http://www.w3.org/1999/xlink" x="0px" y="0px"
	 width="361px" height="411.602px" viewBox="0 0 361 411.602" style="enable-background:new 0 0 361 411.602;" xml:space="preserve"
	>
<style type="text/css">
	.st0{opacity:0.5;}
	.st1{fill:#6D6E70;}
</style>
<g class="st0">
	<path class="st1" d="M339.949,159.738H158.369c-11.064,0-20.051,8.989-20.051,20.051c0,11.064,8.987,20.051,20.051,20.051h181.581
		c11.082,0,20.051-8.987,20.051-20.051C360,168.727,351.031,159.738,339.949,159.738z"/>
	<path class="st1" d="M339.949,41.603H158.369c-11.064,0-20.051,8.989-20.051,20.051c0,11.064,8.987,20.051,20.051,20.051h181.581
		c11.082,0,20.051-8.987,20.051-20.051C360,50.591,351.031,41.603,339.949,41.603z"/>
	<path class="st1" d="M43.751,102.975L6.299,65.518c-5.891-5.886-5.891-15.44,0-21.326c5.891-5.891,15.435-5.891,21.326,0
		l12.916,12.911L77.895,7.51c5.022-6.667,14.482-7.977,21.119-2.975c6.652,5.012,7.987,14.467,2.975,21.119L43.751,102.975z"/>
	<path class="st1" d="M43.751,224.576L6.299,187.119c-5.891-5.886-5.891-15.439,0-21.326c5.891-5.891,15.435-5.891,21.326,0
		l12.916,12.911l37.354-49.593c5.022-6.662,14.482-7.977,21.119-2.975c6.652,5.012,7.987,14.467,2.975,21.119L43.751,224.576z"/>
	<path class="st1" d="M43.751,346.178L6.299,308.72c-5.891-5.886-5.891-15.44,0-21.326c5.891-5.891,15.435-5.891,21.326,0
		l12.916,12.911l37.354-49.593c5.022-6.662,14.482-7.982,21.119-2.975c6.652,5.012,7.987,14.467,2.975,21.119L43.751,346.178z"/>
	<path class="st1" d="M339.949,281.644H158.369c-11.064,0-20.051,8.989-20.051,20.051c0,11.064,8.987,20.051,20.051,20.051h181.581
		c11.082,0,20.051-8.987,20.051-20.051C360,290.633,351.031,281.644,339.949,281.644z"/>
</g>
</svg>
