<?xml version="1.0" encoding="utf-8"?>
<!-- Generator: Adobe Illustrator 17.0.1, SVG Export Plug-In . SVG Version: 6.00 Build 0)  -->
<!DOCTYPE svg PUBLIC "-//W3C//DTD SVG 1.1//EN" "http://www.w3.org/Graphics/SVG/1.1/DTD/svg11.dtd">
<svg version="1.1" id="Layer_1" xmlns="http://www.w3.org/2000/svg" xmlns:xlink="http://www.w3.org/1999/xlink" x="0px" y="0px"
	 width="520px" height="50px" viewBox="0 0 520 50" enable-background="new 0 0 520 50" xml:space="preserve">
<g id="Layer_2">
</g>
<g id="Layer_1_1_">
	<g>
		<g enable-background="new    ">
			<path fill="#6C6D6F" d="M10.47,36.258h2.8V18.896h-2.8v-2.835h8.926v2.835h-2.94v7.071h11.866v-7.071h-2.94v-2.835h8.926v2.835
				h-2.8v17.362h2.8v2.835h-8.926v-2.835h2.94v-7.526H16.456v7.526h2.94v2.835H10.47V36.258z"/>
			<path fill="#6C6D6F" d="M37.629,27.647c0-7.036,5.425-12.006,11.866-12.006c5.041,0,8.751,2.87,8.751,5.636
				c0,1.47-0.98,2.484-2.24,2.484c-1.295,0-2.24-0.84-2.24-2.1c0-0.596,0.28-1.085,0.595-1.33c-0.63-0.771-2.345-1.785-4.936-1.785
				c-4.936,0-8.541,4.061-8.541,9.065c0,4.796,3.5,8.996,8.716,8.996c2.73,0,4.97-1.12,6.896-3.01l1.996,2.205
				c-2.275,2.38-5.531,3.71-8.891,3.71C42.494,39.513,37.629,34.333,37.629,27.647z"/>
			<path fill="#6C6D6F" d="M61.885,36.258h2.8V18.896h-2.8v-2.835h9.031c4.865,0,8.611,2.835,8.611,7.386
				c0,4.936-3.57,7.631-8.821,7.631c-1.19,0-2.24-0.035-2.835-0.07v5.251h3.01v2.835h-8.996V36.258z M76.271,23.447
				c0-2.836-2.345-4.551-5.425-4.551H67.87v9.312c0.595,0.034,1.54,0.069,3.045,0.069C74.241,28.277,76.271,26.457,76.271,23.447z"
				/>
			<path fill="#6C6D6F" d="M89.989,35.068c0-2.766,2.45-4.551,5.916-4.551c1.575,0,3.326,0.351,4.13,0.596v-1.716
				c0-0.875-0.245-1.575-0.665-2.1c-0.63-0.771-1.68-1.155-3.15-1.155c-0.945,0-1.505,0.21-1.96,0.455
				c0.105,0.245,0.175,0.56,0.175,0.84c0,0.98-0.735,1.715-1.75,1.715c-1.05,0-1.785-0.734-1.785-1.785
				c0-1.785,1.96-3.64,5.811-3.64c2.345,0,4.061,0.699,5.076,1.89c0.77,0.91,1.155,2.101,1.155,3.466v7.49h2.345v2.521h-5.181v-1.82
				c-1.225,1.155-3.15,2.101-5.181,2.101C92.159,39.374,89.989,37.798,89.989,35.068z M100.034,35.313v-2.45
				c-1.015-0.28-2.31-0.525-3.675-0.525c-2.135,0-3.325,1.016-3.325,2.485c0,1.365,1.015,2.275,2.765,2.275
				C97.409,37.098,98.88,36.328,100.034,35.313z"/>
			<path fill="#6C6D6F" d="M112.529,26.632c1.435-1.541,3.325-2.905,5.496-2.905c1.89,0,3.185,0.734,3.955,1.925
				c0.49,0.84,0.771,1.891,0.771,3.15v7.771h2.345v2.521H117.5v-2.521h2.24v-7.105c0-0.735-0.105-1.33-0.35-1.785
				c-0.42-0.805-1.155-1.19-2.24-1.19c-1.646,0-3.221,0.98-4.516,2.275v7.806h2.24v2.521h-7.561v-2.521h2.345v-9.976h-2.345v-2.591
				h5.216L112.529,26.632L112.529,26.632z"/>
			<path fill="#6C6D6F" d="M126.949,31.637c0-4.306,3.045-7.91,7.351-7.91c1.89,0,3.465,0.699,4.48,1.645v-9.311h-2.59V13.47h5.601
				v23.103h2.345v2.521h-5.32v-1.925c-1.19,1.26-2.695,2.205-4.796,2.205C130.029,39.374,126.949,36.223,126.949,31.637z
				 M138.78,34.823v-7.001c-1.085-0.84-2.38-1.47-4.13-1.47c-2.59,0-4.585,2.065-4.621,5.25c0,3.15,1.995,5.146,4.55,5.146
				C136.295,36.748,137.66,35.943,138.78,34.823z"/>
			<path fill="#6C6D6F" d="M153.828,43.434h2.345V26.597h-2.345v-2.591h5.215v1.961c1.26-1.296,2.661-2.24,4.831-2.24
				c3.956,0,7.036,3.15,7.036,7.735c0,4.341-3.045,7.911-7.315,7.911c-1.715,0-3.22-0.63-4.411-1.61v5.671h2.695v2.52h-8.051V43.434
				z M167.795,31.498c0-3.15-1.925-5.146-4.48-5.146c-1.715,0-3.01,0.805-4.13,1.925v7.036c1.05,0.84,2.38,1.435,4.061,1.435
				C165.8,36.748,167.795,34.683,167.795,31.498z"/>
			<path fill="#6C6D6F" d="M173.463,35.068c0-2.766,2.45-4.551,5.916-4.551c1.575,0,3.326,0.351,4.13,0.596v-1.716
				c0-0.875-0.245-1.575-0.665-2.1c-0.63-0.771-1.68-1.155-3.15-1.155c-0.945,0-1.505,0.21-1.96,0.455
				c0.105,0.245,0.175,0.56,0.175,0.84c0,0.98-0.735,1.715-1.75,1.715c-1.05,0-1.785-0.734-1.785-1.785
				c0-1.785,1.96-3.64,5.811-3.64c2.345,0,4.061,0.699,5.076,1.89c0.77,0.91,1.155,2.101,1.155,3.466v7.49h2.345v2.521h-5.181v-1.82
				c-1.225,1.155-3.15,2.101-5.181,2.101C175.634,39.374,173.463,37.798,173.463,35.068z M183.509,35.313v-2.45
				c-1.015-0.28-2.31-0.525-3.675-0.525c-2.135,0-3.325,1.016-3.325,2.485c0,1.365,1.015,2.275,2.765,2.275
				C180.884,37.098,182.354,36.328,183.509,35.313z"/>
			<path fill="#6C6D6F" d="M193.238,37.483c-0.28-0.595-0.455-1.365-0.455-2.205v-8.681h-2.835v-2.591h2.835v-3.465l3.01-1.226v4.69
				h4.585v2.591h-4.585v8.155c0,0.49,0.07,0.841,0.21,1.155c0.28,0.49,0.84,0.735,1.715,0.735c0.91,0,1.995-0.42,2.87-0.84
				l-0.315,2.695c-0.875,0.455-1.995,0.875-3.396,0.875C195.198,39.374,193.903,38.778,193.238,37.483z"/>
			<path fill="#6C6D6F" d="M203.003,36.573h2.45v-9.976h-2.45v-2.591h5.46v12.566h2.416v2.521h-7.876L203.003,36.573L203.003,36.573
				z M204.438,18.616c0-1.189,1.015-2.17,2.206-2.17c1.155,0,2.17,0.98,2.17,2.17c0,1.226-1.05,2.206-2.205,2.206
				C205.418,20.822,204.438,19.841,204.438,18.616z"/>
			<path fill="#6C6D6F" d="M216.513,32.512c0.42,2.871,2.52,4.271,5.46,4.271c1.925,0,3.57-0.595,5.355-1.609l-0.245,2.765
				c-1.575,0.98-3.5,1.436-5.566,1.436c-4.865,0-8.156-3.15-8.156-7.771c0-4.235,2.905-7.875,7.491-7.875
				c4.656,0,7.106,3.325,7.106,7.176c0,0.56-0.07,1.154-0.14,1.609h-11.305L216.513,32.512L216.513,32.512z M216.513,30.272h8.436
				c-0.14-2.415-1.61-4.06-4.166-4.06C218.753,26.212,216.898,27.543,216.513,30.272z"/>
			<path fill="#6C6D6F" d="M235.728,26.632c1.435-1.541,3.325-2.905,5.496-2.905c1.89,0,3.185,0.734,3.956,1.925
				c0.49,0.84,0.77,1.891,0.77,3.15v7.771h2.345v2.521h-7.596v-2.521h2.24v-7.105c0-0.735-0.105-1.33-0.35-1.785
				c-0.42-0.805-1.155-1.19-2.24-1.19c-1.646,0-3.221,0.98-4.516,2.275v7.806h2.24v2.521h-7.561v-2.521h2.346v-9.976h-2.346v-2.591
				h5.216L235.728,26.632L235.728,26.632z"/>
			<path fill="#6C6D6F" d="M252.772,37.483c-0.28-0.595-0.455-1.365-0.455-2.205v-8.681h-2.835v-2.591h2.835v-3.465l3.01-1.226v4.69
				h4.585v2.591h-4.585v8.155c0,0.49,0.07,0.841,0.21,1.155c0.28,0.49,0.84,0.735,1.715,0.735c0.91,0,1.995-0.42,2.87-0.84
				l-0.315,2.695c-0.875,0.455-1.995,0.875-3.396,0.875C254.732,39.374,253.437,38.778,252.772,37.483z"/>
			<path fill="#6C6D6F" d="M281.018,28.942c-1.05,0-1.82-0.665-1.82-1.68c0-0.245,0.035-0.525,0.14-0.771
				c-0.595-0.279-1.47-0.455-2.415-0.455c-1.925,0-2.976,0.945-2.976,1.926c0,1.12,1.155,1.575,3.57,2.205
				c3.255,0.84,5.636,1.715,5.636,4.551c0,3.01-2.87,4.69-6.161,4.69c-2.275,0-4.585-0.771-5.601-1.785
				c-0.56-0.561-0.84-1.19-0.84-1.961c0-0.979,0.7-1.82,1.715-1.82c0.98,0,1.785,0.665,1.785,1.751c0,0.279-0.035,0.524-0.14,0.77
				c0.56,0.351,1.68,0.7,3.08,0.7c1.82,0,3.291-0.7,3.291-2.03c0-1.085-1.085-1.61-3.326-2.17c-3.85-0.98-5.916-1.926-5.916-4.621
				c0-2.31,2.065-4.515,5.916-4.515c1.96,0,3.92,0.63,4.901,1.609c0.525,0.525,0.77,1.155,0.77,1.82
				C282.628,28.242,281.963,28.942,281.018,28.942z"/>
			<path fill="#6C6D6F" d="M288.192,37.378c-0.455-0.841-0.7-1.855-0.7-3.081v-7.7h-2.345v-2.591h5.321v9.626
				c0,0.771,0.14,1.365,0.385,1.82c0.42,0.806,1.12,1.155,2.206,1.155c1.645,0,3.185-1.015,4.515-2.275v-7.735h-2.415v-2.591h5.425
				v12.566h2.345v2.521h-5.25v-2.625c-1.435,1.54-3.325,2.905-5.496,2.905C290.257,39.374,288.962,38.603,288.192,37.378z"/>
			<path fill="#6C6D6F" d="M304.922,43.434h2.345V26.597h-2.345v-2.591h5.215v1.961c1.26-1.296,2.66-2.24,4.83-2.24
				c3.956,0,7.036,3.15,7.036,7.735c0,4.341-3.045,7.911-7.315,7.911c-1.715,0-3.221-0.63-4.41-1.61v5.671h2.695v2.52h-8.051
				L304.922,43.434L304.922,43.434z M318.888,31.498c0-3.15-1.925-5.146-4.48-5.146c-1.715,0-3.011,0.805-4.13,1.925v7.036
				c1.05,0.84,2.38,1.435,4.061,1.435C316.893,36.748,318.888,34.683,318.888,31.498z"/>
			<path fill="#6C6D6F" d="M324.416,43.434h2.346V26.597h-2.346v-2.591h5.215v1.961c1.261-1.296,2.661-2.24,4.831-2.24
				c3.956,0,7.036,3.15,7.036,7.735c0,4.341-3.045,7.911-7.316,7.911c-1.715,0-3.22-0.63-4.41-1.61v5.671h2.695v2.52h-8.051
				L324.416,43.434L324.416,43.434z M338.383,31.498c0-3.15-1.926-5.146-4.48-5.146c-1.715,0-3.011,0.805-4.131,1.925v7.036
				c1.051,0.84,2.381,1.435,4.061,1.435C336.387,36.748,338.383,34.683,338.383,31.498z"/>
			<path fill="#6C6D6F" d="M344.296,31.568c0-4.236,3.08-7.841,7.876-7.841c4.795,0,7.875,3.57,7.875,7.841
				c0,4.2-3.115,7.806-7.875,7.806C347.341,39.374,344.296,35.803,344.296,31.568z M356.932,31.568c0-3.081-1.96-5.286-4.76-5.286
				c-2.836,0-4.796,2.205-4.796,5.286c0,3.08,1.96,5.25,4.796,5.25C354.972,36.818,356.932,34.648,356.932,31.568z"/>
			<path fill="#6C6D6F" d="M375.097,25.932c0,1.085-0.875,2.03-1.925,2.03c-1.016,0-1.716-0.631-1.996-1.296
				c-1.119,0.351-2.415,1.61-3.15,3.046v6.86h2.766v2.521h-8.086v-2.521h2.346v-9.976h-2.346v-2.591h5.216v3.431
				c1.19-2.065,2.94-3.71,4.69-3.71C374.256,23.727,375.097,24.742,375.097,25.932z"/>
			<path fill="#6C6D6F" d="M379.262,37.483c-0.281-0.595-0.455-1.365-0.455-2.205v-8.681h-2.836v-2.591h2.836v-3.465l3.01-1.226
				v4.69h4.586v2.591h-4.586v8.155c0,0.49,0.07,0.841,0.21,1.155c0.28,0.49,0.84,0.735,1.716,0.735c0.909,0,1.994-0.42,2.869-0.84
				l-0.314,2.695c-0.875,0.455-1.995,0.875-3.396,0.875C381.221,39.374,379.926,38.778,379.262,37.483z"/>
		</g>
	</g>
</g>
</svg>
