<?xml version="1.0" encoding="utf-8"?>
<!-- Generator: Adobe Illustrator 17.0.1, SVG Export Plug-In . SVG Version: 6.00 Build 0)  -->
<!DOCTYPE svg PUBLIC "-//W3C//DTD SVG 1.1//EN" "http://www.w3.org/Graphics/SVG/1.1/DTD/svg11.dtd">
<svg version="1.1" id="Layer_1" xmlns="http://www.w3.org/2000/svg" xmlns:xlink="http://www.w3.org/1999/xlink" x="0px" y="0px"
	 width="635.059px" height="44px" viewBox="0 0 635.059 44" enable-background="new 0 0 635.059 44" xml:space="preserve">
<g enable-background="new    ">
	<path fill="#60A296" d="M2,19.75C2,10.005,9.393,3.284,18.609,3.284c7.345,0,12.241,3.841,12.241,7.633
		c0,2.305-1.488,3.889-3.456,3.889c-2.16,0-3.648-1.345-3.648-3.408c0-0.624,0.144-1.248,0.336-1.633
		c-0.912-0.72-2.736-1.439-5.616-1.439c-6.145,0-10.849,4.561-10.849,11.377c0,6.96,5.041,11.425,10.369,11.425
		c3.312,0,5.617-0.72,7.633-2.017v-5.424h-7.873v-4.608h13.201v16.369h-5.185v-2.353c-2.208,1.729-5.041,2.929-8.593,2.929
		C9.392,36.023,2,29.879,2,19.75z"/>
	<path fill="#60A296" d="M36.176,31.127h3.216V18.838h-3.216v-4.416h8.449v16.705h3.12v4.32H36.176V31.127z M38,7.749
		c0-1.92,1.68-3.456,3.552-3.456s3.457,1.536,3.457,3.456s-1.68,3.456-3.553,3.456C39.584,11.205,38,9.669,38,7.749z"/>
	<path fill="#60A296" d="M51.296,18.838h-2.448v-4.416h10.753v4.176h-3.024l5.041,10.945l5.04-10.945H63.49v-4.176h10.705v4.416
		h-2.448l-8.353,16.993H59.65L51.296,18.838z"/>
	<path fill="#60A296" d="M80.864,26.711c0.72,3.264,3.408,4.704,6.913,4.704c2.544,0,5.185-0.816,7.633-2.208l-0.432,4.704
		c-2.208,1.296-4.896,1.92-7.969,1.92c-6.864,0-11.617-4.32-11.617-10.849c0-5.952,4.176-10.945,10.657-10.945
		c6.721,0,10.225,4.513,10.225,10.081c0,0.816-0.096,1.872-0.24,2.593C96.034,26.711,80.864,26.711,80.864,26.711z M80.816,23.062
		h10.225c-0.096-2.881-1.968-4.801-5.04-4.801C83.697,18.261,81.392,19.605,80.816,23.062z"/>
	<path fill="#60A296" d="M114.031,45c-2.784,0-4.512-1.632-4.512-3.312c0-1.775,1.2-2.688,2.592-2.688
		c1.248,0,1.968,0.769,2.304,1.584c0.528-0.145,1.104-0.48,1.68-1.248c0.336-0.433,0.624-0.96,0.96-1.633l1.584-3.312l-7.489-15.554
		h-2.592v-4.416h10.849v4.176h-3.072l4.849,11.089l4.896-11.089h-3.265v-4.176h10.801v4.416h-2.544l-9.841,20.882
		c-0.479,0.96-1.008,1.824-1.632,2.544C118.064,44.04,116.144,45,114.031,45z"/>
	<path fill="#60A296" d="M134.816,24.934c0-5.761,4.32-10.897,11.185-10.897c6.961,0,11.185,5.041,11.185,10.897
		c0,5.761-4.32,10.896-11.185,10.896C139.04,35.831,134.816,30.791,134.816,24.934z M151.809,24.934c0-3.841-2.4-6.528-5.809-6.528
		c-3.408,0-5.808,2.688-5.808,6.528s2.4,6.528,5.808,6.528C149.409,31.463,151.809,28.774,151.809,24.934z"/>
	<path fill="#60A296" d="M163.424,33.047c-0.672-1.104-1.056-2.544-1.056-4.225v-9.984h-3.12v-4.416h8.353v13.104
		c0,0.912,0.144,1.584,0.432,2.16c0.48,0.912,1.344,1.393,2.592,1.393c1.824,0,3.744-1.057,5.424-2.448v-9.793h-3.264v-4.416h8.497
		v16.705h3.121v4.32h-8.161v-3.36c-2.016,1.968-4.272,3.744-7.345,3.744C166.352,35.831,164.48,34.775,163.424,33.047z"/>
	<path fill="#60A296" d="M205.857,17.494c0,1.775-1.393,3.264-3.121,3.264c-1.584,0-2.64-0.912-3.072-1.872
		c-1.488,0.528-3.216,2.16-4.176,3.984v8.257h3.648v4.32h-12.001v-4.32h3.12V18.838h-3.12v-4.416h8.161v4.752
		c1.776-2.832,3.984-5.137,6.672-5.137C204.561,14.037,205.857,15.621,205.857,17.494z"/>
	<path fill="#60A296" d="M218.335,40.536h3.12V18.838h-3.12v-4.416h8.161v2.399c1.632-1.536,3.408-2.784,6.241-2.784
		c5.473,0,9.601,4.465,9.601,10.801c0,6.097-4.368,10.993-9.937,10.993c-2.256,0-4.128-0.815-5.713-2.016v6.721h3.409v4.32h-11.761
		L218.335,40.536L218.335,40.536z M236.96,24.886c0-4.033-2.4-6.337-5.376-6.337c-1.968,0-3.504,0.864-4.896,2.112v9.024
		c1.344,0.96,2.977,1.633,4.896,1.633C234.368,31.319,236.96,29.062,236.96,24.886z"/>
	<path fill="#60A296" d="M245.311,29.926c0-3.937,3.456-6.337,8.449-6.337c2.16,0,4.176,0.288,5.329,0.576v-1.68
		c0-1.248-0.288-2.208-0.816-2.881c-0.864-1.104-2.256-1.536-4.128-1.536c-0.912,0-1.584,0.145-2.064,0.337
		c0.096,0.287,0.192,0.768,0.192,1.056c0,1.584-1.248,2.736-2.832,2.736s-2.784-1.104-2.784-2.832c0-2.593,2.64-5.329,8.353-5.329
		c3.6,0,6.048,1.009,7.537,2.833c1.104,1.344,1.632,3.168,1.632,5.28v8.977h3.12v4.32h-8.113v-2.305
		c-1.68,1.44-4.224,2.688-7.057,2.688C248.528,35.831,245.311,33.863,245.311,29.926z M259.089,30.167v-3.312
		c-1.2-0.288-2.688-0.48-4.32-0.48c-2.544,0-4.081,1.152-4.081,3.072c0,1.681,1.248,2.593,3.12,2.593S257.504,31.319,259.089,30.167
		z"/>
	<path fill="#60A296" d="M273.295,32.951c-0.48-0.864-0.72-1.969-0.72-3.312V18.838h-4.08v-4.416h4.08v-4.417l5.185-2.256v6.673
		h6.385v4.416h-6.385v9.793c0,0.672,0.096,1.104,0.336,1.536c0.384,0.672,1.152,1.008,2.208,1.008c1.344,0,2.88-0.528,4.128-1.104
		L284,34.584c-1.44,0.721-3.121,1.248-5.041,1.248C276.415,35.831,274.351,34.967,273.295,32.951z"/>
	<path fill="#60A296" d="M287.31,31.127h3.216V18.838h-3.216v-4.416h8.449v16.705h3.12v4.32H287.31V31.127z M289.135,7.749
		c0-1.92,1.68-3.456,3.552-3.456s3.457,1.536,3.457,3.456s-1.68,3.456-3.553,3.456C290.719,11.205,289.135,9.669,289.135,7.749z"/>
	<path fill="#60A296" d="M307.518,26.711c0.721,3.264,3.408,4.704,6.913,4.704c2.544,0,5.185-0.816,7.633-2.208l-0.432,4.704
		c-2.208,1.296-4.896,1.92-7.969,1.92c-6.864,0-11.617-4.32-11.617-10.849c0-5.952,4.176-10.945,10.657-10.945
		c6.721,0,10.225,4.513,10.225,10.081c0,0.816-0.096,1.872-0.24,2.593C322.688,26.711,307.518,26.711,307.518,26.711z
		 M307.47,23.062h10.225c-0.096-2.881-1.968-4.801-5.04-4.801C310.351,18.261,308.047,19.605,307.47,23.062z"/>
	<path fill="#60A296" d="M334.063,17.781c2.017-1.968,4.272-3.744,7.346-3.744c2.495,0,4.319,1.009,5.424,2.688
		c0.72,1.152,1.104,2.593,1.104,4.32v10.081h3.12v4.32h-11.233v-4.32h2.881v-8.785c0-0.863-0.145-1.632-0.433-2.16
		c-0.479-0.912-1.344-1.392-2.592-1.392c-1.824,0-3.744,1.056-5.424,2.448v9.889h2.88v4.32h-11.233v-4.32h3.12V18.837h-3.12v-4.416
		h8.161v3.36H334.063z"/>
	<path fill="#60A296" d="M357.054,32.951c-0.479-0.864-0.72-1.969-0.72-3.312V18.838h-4.08v-4.416h4.08v-4.417l5.185-2.256v6.673
		h6.385v4.416h-6.385v9.793c0,0.672,0.097,1.104,0.336,1.536c0.384,0.672,1.152,1.008,2.208,1.008c1.344,0,2.88-0.528,4.128-1.104
		l-0.432,4.513c-1.44,0.721-3.121,1.248-5.041,1.248C360.174,35.831,358.11,34.967,357.054,32.951z"/>
	<path fill="#60A296" d="M386.43,21.91c-1.68,0-2.832-1.008-2.832-2.592c0-0.337,0-0.625,0.096-0.912
		c-0.863-0.337-1.92-0.528-2.976-0.528c-2.353,0-3.504,1.056-3.504,2.16c0,1.2,1.2,1.824,4.417,2.688
		c5.041,1.344,7.969,2.592,7.969,6.384c0,4.417-4.128,6.769-8.881,6.769c-3.216,0-6.673-1.151-8.065-2.544
		c-0.863-0.864-1.199-1.728-1.199-2.832c0-1.536,1.151-2.832,2.784-2.832c1.44,0,2.832,0.96,2.832,2.784
		c0,0.288-0.048,0.576-0.096,0.864c0.96,0.384,2.304,0.672,3.792,0.672c2.112,0,3.84-0.721,3.84-2.257
		c0-1.056-0.912-1.68-4.128-2.544c-5.809-1.536-8.256-2.928-8.256-6.528c0-3.265,2.688-6.673,8.592-6.673
		c2.544,0,5.617,0.96,7.058,2.4c0.768,0.768,1.151,1.68,1.151,2.688C389.023,20.758,387.967,21.91,386.43,21.91z"/>
	<path fill="#60A296" d="M403.564,31.127h3.12V18.838h-3.12v-4.416h8.16v3.312c1.633-1.775,3.938-3.696,7.058-3.696
		c2.256,0,3.936,0.864,4.992,2.257c0.289,0.384,0.48,0.768,0.672,1.2c1.97-1.921,4.32-3.457,7.011-3.457
		c2.928,0,4.942,1.057,6,3.024c0.575,1.057,0.862,2.4,0.862,3.937v10.129h3.121v4.32h-11.186v-4.32h2.832v-8.881
		c0-0.816-0.097-1.44-0.336-1.968c-0.433-1.009-1.295-1.488-2.496-1.488c-1.729,0-3.553,1.008-5.137,2.352v9.985h2.831v4.32h-10.943
		v-4.32h2.88v-8.881c0-0.816-0.096-1.44-0.336-1.968c-0.434-1.009-1.248-1.488-2.496-1.488c-1.729,0-3.553,1.008-5.137,2.352v9.985
		h2.783v4.32h-11.137L403.564,31.127L403.564,31.127z"/>
	<path fill="#60A296" d="M443.5,24.934c0-5.761,4.319-10.897,11.186-10.897c6.959,0,11.185,5.041,11.185,10.897
		c0,5.761-4.32,10.896-11.185,10.896C447.725,35.831,443.5,30.791,443.5,24.934z M460.494,24.934c0-3.841-2.4-6.528-5.81-6.528
		s-5.809,2.688-5.809,6.528s2.399,6.528,5.809,6.528S460.494,28.774,460.494,24.934z"/>
	<path fill="#60A296" d="M487.711,17.494c0,1.775-1.394,3.264-3.121,3.264c-1.584,0-2.641-0.912-3.072-1.872
		c-1.488,0.528-3.217,2.16-4.176,3.984v8.257h3.648v4.32h-12.001v-4.32h3.121V18.838h-3.121v-4.416h8.16v4.752
		c1.777-2.832,3.984-5.137,6.674-5.137C486.414,14.037,487.711,15.621,487.711,17.494z"/>
	<path fill="#60A296" d="M494.764,26.711c0.721,3.264,3.408,4.704,6.914,4.704c2.543,0,5.184-0.816,7.631-2.208l-0.432,4.704
		c-2.207,1.296-4.896,1.92-7.969,1.92c-6.863,0-11.617-4.32-11.617-10.849c0-5.952,4.178-10.945,10.658-10.945
		c6.721,0,10.225,4.513,10.225,10.081c0,0.816-0.096,1.872-0.24,2.593C509.934,26.711,494.764,26.711,494.764,26.711z
		 M494.717,23.062h10.225c-0.096-2.881-1.969-4.801-5.041-4.801C497.596,18.261,495.293,19.605,494.717,23.062z"/>
	<path fill="#60A296" d="M527.451,32.951c-0.48-0.864-0.72-1.969-0.72-3.312V18.838h-4.082v-4.416h4.082v-4.417l5.185-2.256v6.673
		h6.385v4.416h-6.385v9.793c0,0.672,0.096,1.104,0.336,1.536c0.385,0.672,1.151,1.008,2.209,1.008c1.344,0,2.879-0.528,4.127-1.104
		l-0.432,4.513c-1.439,0.721-3.119,1.248-5.041,1.248C530.573,35.831,528.508,34.967,527.451,32.951z"/>
	<path fill="#60A296" d="M541.467,31.127h3.215V18.838h-3.215v-4.416h8.447v16.705h3.121v4.32h-11.568V31.127z M543.291,7.749
		c0-1.92,1.68-3.456,3.551-3.456c1.873,0,3.457,1.536,3.457,3.456s-1.68,3.456-3.553,3.456
		C544.875,11.205,543.291,9.669,543.291,7.749z"/>
	<path fill="#60A296" d="M556.059,31.127h3.121V18.838h-3.121v-4.416h8.16v3.312c1.633-1.775,3.938-3.696,7.057-3.696
		c2.259,0,3.938,0.864,4.994,2.257c0.287,0.384,0.479,0.768,0.672,1.2c1.968-1.921,4.32-3.457,7.009-3.457
		c2.928,0,4.944,1.057,6,3.024c0.575,1.057,0.864,2.4,0.864,3.937v10.129h3.119v4.32H582.75v-4.32h2.832v-8.881
		c0-0.816-0.097-1.44-0.336-1.968c-0.435-1.009-1.297-1.488-2.496-1.488c-1.729,0-3.553,1.008-5.138,2.352v9.985h2.832v4.32H569.5
		v-4.32h2.881v-8.881c0-0.816-0.096-1.44-0.336-1.968c-0.435-1.009-1.248-1.488-2.496-1.488c-1.729,0-3.553,1.008-5.137,2.352v9.985
		h2.782v4.32h-11.135V31.127z"/>
	<path fill="#60A296" d="M601.467,26.711c0.721,3.264,3.408,4.704,6.914,4.704c2.543,0,5.184-0.816,7.631-2.208l-0.432,4.704
		c-2.207,1.296-4.896,1.92-7.97,1.92c-6.862,0-11.616-4.32-11.616-10.849c0-5.952,4.178-10.945,10.657-10.945
		c6.722,0,10.226,4.513,10.226,10.081c0,0.816-0.097,1.872-0.24,2.593C616.637,26.711,601.467,26.711,601.467,26.711z
		 M601.42,23.062h10.225c-0.096-2.881-1.969-4.801-5.041-4.801C604.299,18.261,601.996,19.605,601.42,23.062z"/>
	<path fill="#60A296" d="M619.948,31.894c0-2.208,1.777-3.984,3.938-3.984s3.936,1.776,3.936,3.984c0,2.16-1.774,3.937-3.936,3.937
		S619.948,34.054,619.948,31.894z"/>
</g>
</svg>
