<?xml version="1.0" encoding="utf-8"?>
<!-- Generator: Adobe Illustrator 15.1.0, SVG Export Plug-In . SVG Version: 6.00 Build 0)  -->
<!DOCTYPE svg PUBLIC "-//W3C//DTD SVG 1.1//EN" "http://www.w3.org/Graphics/SVG/1.1/DTD/svg11.dtd">
<svg version="1.1" id="Layer_1" xmlns="http://www.w3.org/2000/svg" xmlns:xlink="http://www.w3.org/1999/xlink" x="0px" y="0px"
	 width="520px" height="50px" viewBox="0 0 520 50" enable-background="new 0 0 520 50" xml:space="preserve">
<g id="Layer_2">
</g>
<g>
	<path fill="#6C6D6F" d="M10.897,35.784h2.8V18.422h-2.8v-2.835h16.697v6.021h-3.045v-3.22h-7.666v7.561h7.141v2.765h-7.141v7.071
		h3.115v2.835h-9.101V35.784z"/>
	<path fill="#6C6D6F" d="M28.257,34.594c0-2.765,2.45-4.55,5.916-4.55c1.575,0,3.326,0.35,4.13,0.595v-1.715
		c0-0.875-0.245-1.575-0.665-2.101c-0.63-0.771-1.68-1.155-3.15-1.155c-0.945,0-1.505,0.211-1.96,0.455
		c0.105,0.245,0.175,0.561,0.175,0.84c0,0.98-0.735,1.716-1.75,1.716c-1.05,0-1.785-0.735-1.785-1.785
		c0-1.785,1.96-3.641,5.811-3.641c2.345,0,4.061,0.7,5.076,1.89c0.77,0.91,1.155,2.101,1.155,3.465V36.1h2.345v2.52h-5.181v-1.82
		c-1.225,1.156-3.15,2.101-5.181,2.101C30.428,38.899,28.257,37.324,28.257,34.594z M38.303,34.84v-2.451
		c-1.015-0.279-2.31-0.525-3.675-0.525c-2.135,0-3.325,1.016-3.325,2.486c0,1.365,1.015,2.275,2.765,2.275
		C35.678,36.625,37.148,35.854,38.303,34.84z"/>
	<path fill="#6C6D6F" d="M55.978,28.469c-1.05,0-1.82-0.665-1.82-1.68c0-0.246,0.035-0.525,0.14-0.771
		c-0.595-0.28-1.47-0.455-2.415-0.455c-1.925,0-2.976,0.944-2.976,1.925c0,1.12,1.155,1.575,3.57,2.205
		c3.255,0.84,5.636,1.715,5.636,4.551c0,3.01-2.87,4.69-6.161,4.69c-2.275,0-4.585-0.771-5.601-1.785
		c-0.56-0.56-0.84-1.19-0.84-1.96c0-0.98,0.7-1.82,1.715-1.82c0.98,0,1.785,0.665,1.785,1.75c0,0.28-0.035,0.525-0.14,0.77
		c0.56,0.351,1.68,0.701,3.08,0.701c1.82,0,3.291-0.701,3.291-2.031c0-1.084-1.085-1.609-3.326-2.17
		c-3.85-0.98-5.916-1.925-5.916-4.62c0-2.311,2.065-4.516,5.916-4.516c1.96,0,3.92,0.63,4.901,1.61
		c0.525,0.525,0.77,1.155,0.77,1.82C57.588,27.769,56.923,28.469,55.978,28.469z"/>
	<path fill="#6C6D6F" d="M63.362,37.01c-0.28-0.596-0.455-1.365-0.455-2.205v-8.682h-2.835v-2.59h2.835v-3.465l3.01-1.225v4.69
		h4.585v2.59h-4.585v8.156c0,0.49,0.07,0.84,0.21,1.154c0.28,0.49,0.84,0.736,1.715,0.736c0.91,0,1.995-0.42,2.87-0.841
		l-0.315,2.695c-0.875,0.455-1.995,0.875-3.396,0.875C65.322,38.899,64.027,38.305,63.362,37.01z"/>
	<path fill="#6C6D6F" d="M76.067,32.039c0.42,2.87,2.52,4.271,5.46,4.271c1.925,0,3.57-0.595,5.355-1.61l-0.245,2.766
		c-1.575,0.98-3.5,1.435-5.566,1.435c-4.865,0-8.156-3.149-8.156-7.771c0-4.235,2.905-7.876,7.491-7.876
		c4.656,0,7.106,3.325,7.106,7.176c0,0.56-0.07,1.155-0.14,1.61H76.067z M76.067,29.799h8.436c-0.14-2.416-1.61-4.061-4.166-4.061
		C78.308,25.738,76.453,27.068,76.067,29.799z"/>
	<path fill="#6C6D6F" d="M102.458,25.458c0,1.085-0.875,2.03-1.925,2.03c-1.015,0-1.715-0.63-1.995-1.295
		c-1.12,0.35-2.416,1.61-3.15,3.045V36.1h2.765v2.52h-8.086V36.1h2.346v-9.977h-2.346v-2.59h5.216v3.43
		c1.19-2.064,2.94-3.71,4.69-3.71C101.618,23.253,102.458,24.268,102.458,25.458z"/>
	<path fill="#6C6D6F" d="M112.047,36.1h2.45v-9.977h-2.45v-2.59h5.46V36.1h2.416v2.52h-7.876V36.1z M113.482,18.143
		c0-1.19,1.015-2.17,2.206-2.17c1.155,0,2.17,0.98,2.17,2.17c0,1.225-1.05,2.205-2.205,2.205
		C114.462,20.348,113.482,19.368,113.482,18.143z"/>
	<path fill="#6C6D6F" d="M127.587,26.158c1.435-1.54,3.325-2.905,5.496-2.905c1.89,0,3.185,0.735,3.956,1.925
		c0.49,0.84,0.77,1.89,0.77,3.15V36.1h2.345v2.52h-7.596V36.1h2.24v-7.105c0-0.735-0.105-1.33-0.35-1.785
		c-0.42-0.806-1.155-1.19-2.24-1.19c-1.646,0-3.221,0.979-4.516,2.274V36.1h2.24v2.52h-7.561V36.1h2.346v-9.977h-2.346v-2.59h5.216
		V26.158z"/>
	<path fill="#6C6D6F" d="M149.497,15.377c-0.385,0.105-0.735,0.35-1.015,0.666c-0.49,0.665-0.77,1.61-0.77,3.08v4.411h3.92v2.59
		h-3.92V36.1h2.94v2.52h-8.261V36.1h2.345v-9.977h-2.625v-2.59h2.625v-3.851c0-2.555,0.455-4.235,1.75-5.496
		c0.945-0.945,2.17-1.47,3.746-1.47c1.75,0,3.01,0.875,3.01,2.24c0,1.155-0.805,1.855-1.75,1.855
		C150.442,16.812,149.812,16.182,149.497,15.377z"/>
	<path fill="#6C6D6F" d="M156.181,36.904c-0.455-0.84-0.7-1.855-0.7-3.08v-7.701h-2.345v-2.59h5.321v9.626
		c0,0.771,0.14,1.365,0.385,1.82c0.42,0.805,1.12,1.155,2.205,1.155c1.646,0,3.186-1.016,4.516-2.275v-7.736h-2.415v-2.59h5.425
		V36.1h2.345v2.52h-5.25v-2.625c-1.435,1.541-3.325,2.905-5.496,2.905C158.247,38.899,156.951,38.129,156.181,36.904z"/>
	<path fill="#6C6D6F" d="M183.867,28.469c-1.05,0-1.82-0.665-1.82-1.68c0-0.246,0.035-0.525,0.14-0.771
		c-0.595-0.28-1.47-0.455-2.415-0.455c-1.925,0-2.976,0.944-2.976,1.925c0,1.12,1.155,1.575,3.57,2.205
		c3.255,0.84,5.636,1.715,5.636,4.551c0,3.01-2.87,4.69-6.161,4.69c-2.275,0-4.585-0.771-5.601-1.785
		c-0.56-0.56-0.84-1.19-0.84-1.96c0-0.98,0.7-1.82,1.715-1.82c0.98,0,1.785,0.665,1.785,1.75c0,0.28-0.035,0.525-0.14,0.77
		c0.56,0.351,1.68,0.701,3.08,0.701c1.82,0,3.291-0.701,3.291-2.031c0-1.084-1.085-1.609-3.326-2.17
		c-3.85-0.98-5.916-1.925-5.916-4.62c0-2.311,2.065-4.516,5.916-4.516c1.96,0,3.92,0.63,4.901,1.61
		c0.525,0.525,0.77,1.155,0.77,1.82C185.477,27.769,184.812,28.469,183.867,28.469z"/>
	<path fill="#6C6D6F" d="M188.835,36.1h2.45v-9.977h-2.45v-2.59h5.46V36.1h2.416v2.52h-7.876V36.1z M190.271,18.143
		c0-1.19,1.015-2.17,2.206-2.17c1.155,0,2.17,0.98,2.17,2.17c0,1.225-1.05,2.205-2.205,2.205
		C191.251,20.348,190.271,19.368,190.271,18.143z"/>
	<path fill="#6C6D6F" d="M199.265,31.094c0-4.235,3.081-7.841,7.876-7.841s7.876,3.57,7.876,7.841c0,4.201-3.115,7.806-7.876,7.806
		C202.311,38.899,199.265,35.329,199.265,31.094z M211.902,31.094c0-3.08-1.96-5.285-4.761-5.285c-2.835,0-4.795,2.205-4.795,5.285
		s1.96,5.25,4.795,5.25C209.941,36.344,211.902,34.174,211.902,31.094z"/>
	<path fill="#6C6D6F" d="M222.891,26.158c1.435-1.54,3.325-2.905,5.496-2.905c1.89,0,3.185,0.735,3.955,1.925
		c0.49,0.84,0.771,1.89,0.771,3.15V36.1h2.345v2.52h-7.596V36.1h2.24v-7.105c0-0.735-0.105-1.33-0.35-1.785
		c-0.42-0.806-1.155-1.19-2.24-1.19c-1.646,0-3.221,0.979-4.516,2.274V36.1h2.24v2.52h-7.561V36.1h2.345v-9.977h-2.345v-2.59h5.216
		V26.158z"/>
</g>
</svg>
