<?xml version="1.0" encoding="utf-8"?>
<!-- Generator: Adobe Illustrator 17.0.1, SVG Export Plug-In . SVG Version: 6.00 Build 0)  -->
<!DOCTYPE svg PUBLIC "-//W3C//DTD SVG 1.1//EN" "http://www.w3.org/Graphics/SVG/1.1/DTD/svg11.dtd">
<svg version="1.1" id="Layer_1" xmlns="http://www.w3.org/2000/svg" xmlns:xlink="http://www.w3.org/1999/xlink" x="0px" y="0px"
	 width="520px" height="50px" viewBox="0 0 520 50" enable-background="new 0 0 520 50" xml:space="preserve">
<g id="Layer_2">
</g>
<g id="Layer_1_1_">
	<g>
		<g enable-background="new    ">
			<path fill="#6C6D6F" d="M10.47,36.54h2.8V19.178h-2.8v-2.835h9.031c4.865,0,8.611,2.835,8.611,7.386
				c0,4.936-3.57,7.631-8.821,7.631c-1.19,0-2.24-0.035-2.835-0.07v5.251h3.01v2.835H10.47V36.54z M24.856,23.729
				c0-2.836-2.345-4.551-5.425-4.551h-2.976v9.312c0.595,0.034,1.54,0.069,3.045,0.069C22.826,28.559,24.856,26.739,24.856,23.729z"
				/>
			<path fill="#6C6D6F" d="M42.986,26.214c0,1.085-0.875,2.03-1.925,2.03c-1.015,0-1.715-0.631-1.995-1.296
				c-1.12,0.351-2.416,1.61-3.15,3.046v6.86h2.765v2.521h-8.086v-2.521h2.346v-9.976h-2.346v-2.591h5.216v3.431
				c1.19-2.065,2.94-3.71,4.69-3.71C42.145,24.009,42.986,25.024,42.986,26.214z"/>
			<path fill="#6C6D6F" d="M44.35,31.85c0-4.236,3.08-7.841,7.875-7.841s7.876,3.57,7.876,7.841c0,4.2-3.115,7.806-7.876,7.806
				C47.395,39.656,44.35,36.085,44.35,31.85z M56.986,31.85c0-3.081-1.96-5.286-4.761-5.286c-2.835,0-4.795,2.205-4.795,5.286
				c0,3.08,1.96,5.25,4.795,5.25C55.026,37.1,56.986,34.93,56.986,31.85z"/>
			<path fill="#6C6D6F" d="M63.005,26.879h-1.89v-2.591h7.316v2.485H66.12l4.096,9.066l4.095-9.066h-2.415v-2.485h7.316v2.591
				h-1.891l-6.195,12.916h-1.925L63.005,26.879z"/>
			<path fill="#6C6D6F" d="M83.34,32.794c0.42,2.871,2.521,4.271,5.46,4.271c1.925,0,3.57-0.595,5.355-1.609l-0.245,2.765
				c-1.575,0.98-3.5,1.436-5.566,1.436c-4.865,0-8.156-3.15-8.156-7.771c0-4.235,2.905-7.875,7.491-7.875
				c4.656,0,7.106,3.325,7.106,7.176c0,0.56-0.07,1.154-0.14,1.609H83.34V32.794z M83.34,30.554h8.436
				c-0.14-2.415-1.61-4.06-4.166-4.06C85.58,26.494,83.725,27.825,83.34,30.554z"/>
			<path fill="#6C6D6F" d="M102.555,26.914c1.435-1.541,3.325-2.905,5.496-2.905c1.89,0,3.185,0.734,3.956,1.925
				c0.49,0.84,0.77,1.891,0.77,3.15v7.771h2.345v2.521h-7.596v-2.521h2.24V29.75c0-0.735-0.105-1.33-0.35-1.785
				c-0.42-0.805-1.155-1.19-2.24-1.19c-1.646,0-3.221,0.98-4.516,2.275v7.806h2.24v2.521h-7.561v-2.521h2.346V26.88h-2.346v-2.591
				h5.216L102.555,26.914L102.555,26.914z"/>
			<path fill="#6C6D6F" d="M135.665,29.224c-1.05,0-1.82-0.665-1.82-1.68c0-0.245,0.035-0.525,0.14-0.771
				c-0.595-0.279-1.47-0.455-2.415-0.455c-1.925,0-2.976,0.945-2.976,1.926c0,1.12,1.155,1.575,3.57,2.205
				c3.255,0.84,5.636,1.715,5.636,4.551c0,3.01-2.87,4.69-6.161,4.69c-2.275,0-4.585-0.771-5.601-1.785
				c-0.56-0.561-0.84-1.19-0.84-1.961c0-0.979,0.7-1.82,1.715-1.82c0.98,0,1.785,0.665,1.785,1.751c0,0.279-0.035,0.524-0.14,0.77
				c0.56,0.351,1.68,0.7,3.08,0.7c1.82,0,3.291-0.7,3.291-2.03c0-1.085-1.085-1.61-3.326-2.17c-3.85-0.98-5.916-1.926-5.916-4.621
				c0-2.31,2.065-4.515,5.916-4.515c1.96,0,3.92,0.63,4.901,1.609c0.525,0.525,0.77,1.155,0.77,1.82
				C137.276,28.524,136.611,29.224,135.665,29.224z"/>
			<path fill="#6C6D6F" d="M140.599,35.35c0-2.766,2.45-4.551,5.916-4.551c1.575,0,3.326,0.351,4.131,0.596v-1.716
				c0-0.875-0.245-1.575-0.666-2.1c-0.63-0.771-1.68-1.155-3.15-1.155c-0.945,0-1.505,0.21-1.96,0.455
				c0.105,0.245,0.175,0.56,0.175,0.84c0,0.98-0.735,1.715-1.75,1.715c-1.05,0-1.785-0.734-1.785-1.785
				c0-1.785,1.96-3.64,5.811-3.64c2.345,0,4.061,0.699,5.076,1.89c0.77,0.91,1.155,2.101,1.155,3.466v7.49h2.345v2.521h-5.181v-1.82
				c-1.225,1.155-3.15,2.101-5.181,2.101C142.77,39.656,140.599,38.08,140.599,35.35z M150.646,35.595v-2.45
				c-1.015-0.28-2.311-0.525-3.676-0.525c-2.135,0-3.325,1.016-3.325,2.485c0,1.365,1.015,2.275,2.765,2.275
				C148.02,37.38,149.491,36.61,150.646,35.595z"/>
			<path fill="#6C6D6F" d="M165.24,16.133c-0.385,0.104-0.735,0.35-1.015,0.665c-0.49,0.665-0.77,1.61-0.77,3.08v4.41h3.92v2.591
				h-3.92v9.976h2.94v2.521h-8.261v-2.521h2.345v-9.976h-2.625v-2.591h2.625v-3.85c0-2.556,0.455-4.236,1.75-5.496
				c0.945-0.945,2.17-1.47,3.746-1.47c1.75,0,3.01,0.875,3.01,2.24c0,1.154-0.805,1.854-1.75,1.854
				C166.185,17.568,165.555,16.938,165.24,16.133z"/>
			<path fill="#6C6D6F" d="M172.169,32.794c0.42,2.871,2.521,4.271,5.46,4.271c1.925,0,3.57-0.595,5.355-1.609l-0.245,2.765
				c-1.575,0.98-3.5,1.436-5.566,1.436c-4.865,0-8.156-3.15-8.156-7.771c0-4.235,2.905-7.875,7.491-7.875
				c4.656,0,7.106,3.325,7.106,7.176c0,0.56-0.07,1.154-0.14,1.609h-11.305L172.169,32.794L172.169,32.794z M172.169,30.554h8.436
				c-0.14-2.415-1.61-4.06-4.166-4.06C174.409,26.494,172.555,27.825,172.169,30.554z"/>
			<path fill="#6C6D6F" d="M188.619,37.765c-0.28-0.595-0.455-1.365-0.455-2.205v-8.681h-2.835v-2.591h2.835v-3.465l3.01-1.226v4.69
				h4.585v2.591h-4.585v8.155c0,0.49,0.07,0.841,0.21,1.155c0.28,0.49,0.84,0.735,1.715,0.735c0.91,0,1.995-0.42,2.87-0.84
				l-0.315,2.695c-0.875,0.455-1.995,0.875-3.396,0.875C190.579,39.656,189.284,39.06,188.619,37.765z"/>
			<path fill="#6C6D6F" d="M200.449,46.341c-1.68,0-2.87-0.945-2.87-2.136c0-1.085,0.735-1.715,1.645-1.715
				c0.875,0,1.435,0.63,1.645,1.26c0.49-0.175,0.98-0.56,1.54-1.364c0.28-0.455,0.595-1.016,0.945-1.716l1.015-2.1l-5.565-11.691
				h-1.96v-2.591h7.351v2.485h-2.311c0,0,3.956,8.961,3.92,8.961l3.991-8.961h-2.415v-2.485h7.281v2.591h-1.96l-7.106,15.156
				c-0.385,0.771-0.77,1.436-1.19,2.03C203.284,45.535,201.989,46.341,200.449,46.341z"/>
			<path fill="#6C6D6F" d="M223.723,43.716h2.345V26.879h-2.345v-2.591h5.215v1.961c1.26-1.296,2.661-2.24,4.831-2.24
				c3.956,0,7.036,3.15,7.036,7.735c0,4.341-3.045,7.911-7.315,7.911c-1.715,0-3.221-0.63-4.411-1.61v5.671h2.695v2.52h-8.051
				V43.716z M237.69,31.78c0-3.15-1.925-5.146-4.48-5.146c-1.715,0-3.01,0.805-4.13,1.925v7.036c1.05,0.84,2.38,1.435,4.061,1.435
				C235.695,37.03,237.69,34.965,237.69,31.78z"/>
			<path fill="#6C6D6F" d="M255.889,26.214c0,1.085-0.875,2.03-1.925,2.03c-1.015,0-1.715-0.631-1.995-1.296
				c-1.12,0.351-2.416,1.61-3.15,3.046v6.86h2.765v2.521h-8.086v-2.521h2.345v-9.976h-2.345v-2.591h5.216v3.431
				c1.19-2.065,2.94-3.71,4.69-3.71C255.049,24.009,255.889,25.024,255.889,26.214z"/>
			<path fill="#6C6D6F" d="M257.254,31.85c0-4.236,3.08-7.841,7.875-7.841s7.876,3.57,7.876,7.841c0,4.2-3.115,7.806-7.876,7.806
				C260.299,39.656,257.254,36.085,257.254,31.85z M269.89,31.85c0-3.081-1.96-5.286-4.761-5.286c-2.835,0-4.795,2.205-4.795,5.286
				c0,3.08,1.96,5.25,4.795,5.25C267.93,37.1,269.89,34.93,269.89,31.85z"/>
			<path fill="#6C6D6F" d="M291.38,36.855h2.416v2.521h-7.736v-2.521h2.31v-9.976h-7.211v9.976h2.8v2.521h-8.156v-2.521h2.345
				v-9.976h-2.625v-2.591h2.625v-3.43c0-2.591,0.7-4.551,1.995-5.776c1.05-1.015,2.485-1.609,4.096-1.609
				c2.38,0,3.71,1.295,3.71,2.765c0,1.051-0.875,1.961-1.96,1.961c-1.155,0-1.995-1.016-1.96-2.136h-0.14
				c-0.525,0-1.26,0.245-1.855,0.98c-0.525,0.665-0.875,1.715-0.875,3.255v3.99h10.221V36.855z"/>
			<path fill="#6C6D6F" d="M295.999,36.855h2.45V16.343h-2.45v-2.591h5.46v23.103h2.415v2.521h-7.875V36.855z"/>
			<path fill="#6C6D6F" d="M309.404,32.794c0.42,2.871,2.521,4.271,5.46,4.271c1.926,0,3.57-0.595,5.355-1.609l-0.244,2.765
				c-1.575,0.98-3.5,1.436-5.566,1.436c-4.865,0-8.155-3.15-8.155-7.771c0-4.235,2.905-7.875,7.491-7.875
				c4.655,0,7.105,3.325,7.105,7.176c0,0.56-0.07,1.154-0.141,1.609h-11.305V32.794z M309.404,30.554h8.437
				c-0.141-2.415-1.611-4.06-4.166-4.06C311.644,26.494,309.789,27.825,309.404,30.554z"/>
		</g>
	</g>
</g>
</svg>
