<?xml version="1.0" encoding="utf-8"?>
<!-- Generator: Adobe Illustrator 17.0.1, SVG Export Plug-In . SVG Version: 6.00 Build 0)  -->
<!DOCTYPE svg PUBLIC "-//W3C//DTD SVG 1.1//EN" "http://www.w3.org/Graphics/SVG/1.1/DTD/svg11.dtd">
<svg version="1.1" id="Layer_1" xmlns="http://www.w3.org/2000/svg" xmlns:xlink="http://www.w3.org/1999/xlink" x="0px" y="0px"
	 width="361px" height="411.602px" viewBox="0 0 361 411.602" style="enable-background:new 0 0 361 411.602;" xml:space="preserve"
	>
<style type="text/css">
	.st0{fill:#6E6E6E;}
</style>
<path class="st0" d="M357.289,60.951c-0.467-0.769-8.21-14.275-23.754-28.14c-15.453-13.799-39.403-28.189-70.953-28.184
	c-31.557-0.016-55.269,14.426-70.407,28.28c-4.685,4.282-8.628,8.528-11.858,12.374c-3.343-3.873-7.428-8.156-12.267-12.47
	c-15.45-13.799-39.402-28.189-70.949-28.184c-31.56-0.016-55.271,14.426-70.41,28.28C11.449,46.835,4.038,60.38,3.579,61.185
	l-1.594,6.24v203.765l24.406,6.228l0.053,0.031c0.339-0.655,6.901-11.948,18.942-22.547c12.142-10.644,29.076-20.441,51.714-20.457
	c23.346,0.005,41.106,10.503,53.628,21.592c6.2,5.518,10.953,11.11,14.071,15.234c1.562,2.068,2.716,3.763,3.453,4.89
	c0.37,0.566,0.633,0.994,0.789,1.25c0.073,0.124,0.126,0.21,0.153,0.252l0,0l0.006,0.005l0.005-0.002
	c2.247,3.912,6.457,6.558,11.297,6.558c4.927,0,9.211-2.738,11.424-6.775h0.002c0,0,0.017-0.031,0.02-0.039l0.006-0.011
	c0.494-0.904,7.027-12.03,18.916-22.497c12.142-10.644,29.079-20.441,51.712-20.457c23.356,0.005,41.112,10.503,53.632,21.592
	c6.205,5.518,10.948,11.11,14.069,15.234c1.56,2.068,2.716,3.763,3.452,4.89c0.371,0.566,0.634,0.994,0.788,1.25
	c0.073,0.124,0.13,0.21,0.154,0.252l0.003,0.005l0.023-0.009l24.31-6.469V67.426L357.289,60.951z M97.101,208.388h-0.05
	c-30.614,0-53.837,13.605-69.01,27.071V71.088c2.65-4.057,8.528-12.19,17.346-19.947c12.142-10.654,29.076-20.443,51.714-20.459
	c23.346,0,41.106,10.504,53.628,21.591c6.2,5.516,10.953,11.106,14.071,15.233c1.097,1.453,1.984,2.707,2.672,3.726v164.841
	C152.005,222.431,128.268,208.388,97.101,208.388z M332.959,236.06c-15.468-13.64-39.215-27.672-70.376-27.672
	c-30.651-0.014-53.876,13.612-69.06,27.094V71.096c2.645-4.048,8.516-12.18,17.348-19.954
	c12.142-10.654,29.079-20.443,51.712-20.459c23.356,0,41.112,10.504,53.632,21.591c6.205,5.516,10.948,11.106,14.069,15.233
	c1.094,1.442,1.984,2.707,2.675,3.723V236.06z"/>
</svg>
