<?xml version="1.0" encoding="utf-8"?>
<!-- Generator: Adobe Illustrator 17.0.1, SVG Export Plug-In . SVG Version: 6.00 Build 0)  -->
<!DOCTYPE svg PUBLIC "-//W3C//DTD SVG 1.1//EN" "http://www.w3.org/Graphics/SVG/1.1/DTD/svg11.dtd">
<svg version="1.1" id="Layer_1" xmlns="http://www.w3.org/2000/svg" xmlns:xlink="http://www.w3.org/1999/xlink" x="0px" y="0px"
	 width="361px" height="411.602px" viewBox="0 0 361 411.602" style="enable-background:new 0 0 361 411.602;" xml:space="preserve"
	>
<style type="text/css">
	.st0{opacity:0.5;fill:#6D6E70;}
</style>
<path class="st0" d="M357.952,67.881l-43.454-44.869c0.207-1.082,0.337-2.192,0.337-3.335C314.835,9.916,306.898,2,297.146,2
	c-7.759,0-14.271,5.023-16.654,11.965l-30.983,11.458c-2.473-1.315-5.251-2.129-8.243-2.129c-9.771,0-17.68,7.915-17.68,17.677
	c0,1.569,0.269,3.063,0.652,4.512l-42.013,67.603c-0.23-0.009-0.447-0.068-0.679-0.068c-3.203,0-6.165,0.917-8.754,2.404
	l-28.826-14.526c-2.67-6.38-8.976-10.869-16.327-10.869c-9.769,0-17.675,7.909-17.675,17.661c0,0.794,0.132,1.551,0.233,2.317
	l-39.651,59.023c-0.36-0.022-0.702-0.108-1.068-0.108c-1.611,0-3.142,0.285-4.624,0.688l-44.273-44.278
	c-4.223-4.223-11.074-4.228-15.302,0c-4.226,4.226-4.226,11.077,0,15.302l46.591,46.595c0.34,9.471,8.055,17.065,17.609,17.065
	c9.762,0,17.698-7.927,17.698-17.698c0-1.045-0.134-2.057-0.309-3.053l39.174-58.313c0.535,0.049,1.05,0.161,1.598,0.161
	c3.83,0,7.354-1.25,10.252-3.323l26.736,13.472c2.117,7.4,8.843,12.846,16.919,12.846c9.762,0,17.689-7.923,17.689-17.703
	c0-1.168-0.128-2.306-0.345-3.411l42.651-68.629c8.159-0.128,14.951-5.804,16.841-13.426l29.081-10.755
	c2.783,1.829,6.102,2.91,9.682,2.91c0.354,0,0.685-0.084,1.033-0.104l44.228,45.666c4.159,4.297,11.008,4.396,15.3,0.246
	C362.001,79.024,362.109,72.173,357.952,67.881z"/>
</svg>
