<?xml version="1.0" encoding="utf-8"?>
<!-- Generator: Adobe Illustrator 15.1.0, SVG Export Plug-In . SVG Version: 6.00 Build 0)  -->
<!DOCTYPE svg PUBLIC "-//W3C//DTD SVG 1.1//EN" "http://www.w3.org/Graphics/SVG/1.1/DTD/svg11.dtd">
<svg version="1.1" id="Layer_1" xmlns="http://www.w3.org/2000/svg" xmlns:xlink="http://www.w3.org/1999/xlink" x="0px" y="0px"
	 width="361px" height="411.602px" viewBox="0 0 361 411.602" enable-background="new 0 0 361 411.602" xml:space="preserve">
<g>
	<path fill="#FFFFFF" d="M206.5,45.897c0-20.229-28.647-27.931-48.879-27.931c-20.226,0-48.879,7.702-48.879,27.931v37.9
		l97.759,0.068L206.5,45.897L206.5,45.897z"/>
	<path fill="#6D6E70" stroke="#6D6E70" stroke-width="7" stroke-miterlimit="10" d="M304.259,59.862h-51.934v13.966h44.95v321.207
		H17.966V73.828h44.952V59.862H10.983C7.127,59.862,4,62.989,4,66.845v335.173C4,405.877,7.127,409,10.983,409h293.276
		c3.859,0,6.983-3.123,6.983-6.982V66.845C311.241,62.989,308.118,59.862,304.259,59.862z"/>
	<path fill="#6E6E6E" stroke="#6E6E6E" stroke-width="5" stroke-miterlimit="10" d="M220.466,45.897
		C220.466,17.573,185.947,4,157.621,4c-27.87,0-62.845,14.03-62.845,41.897V88.11v2.619c0,3.836,3.096,6.956,6.932,6.983
		l111.721,0.17c0.021,0,0.04,0,0.054,0c1.842,0,3.615-0.729,4.925-2.028c1.315-1.309,2.059-3.093,2.059-4.954v-3.225V45.897z
		 M108.741,45.897c0-20.229,28.654-27.931,48.879-27.931c20.233,0,48.879,7.702,48.879,27.931v37.969l-97.759-0.068L108.741,45.897
		L108.741,45.897z"/>
</g>
</svg>
